<svg xmlns="http://www.w3.org/2000/svg" width="350" height="148" viewBox="0 0 350 148"><rect width="350" height="148" fill="#f1f2f2"/><line x1="31.11" y1="119.23" x2="156.62" y2="119.23" fill="none" stroke="#d0d2d3" stroke-linecap="round" stroke-linejoin="round" stroke-width="0.25"/><line x1="31.11" y1="106" x2="156.62" y2="106" fill="none" stroke="#d0d2d3" stroke-linecap="round" stroke-linejoin="round" stroke-width="0.25"/><line x1="31.11" y1="92.77" x2="156.62" y2="92.77" fill="none" stroke="#d0d2d3" stroke-linecap="round" stroke-linejoin="round" stroke-width="0.25"/><line x1="31.11" y1="80.13" x2="156.62" y2="80.13" fill="none" stroke="#000" stroke-miterlimit="10" stroke-width="0.5"/><line x1="31.11" y1="66.32" x2="156.62" y2="66.32" fill="none" stroke="#d0d2d3" stroke-linecap="round" stroke-linejoin="round" stroke-width="0.25"/><line x1="31.11" y1="53.1" x2="156.62" y2="53.1" fill="none" stroke="#d0d2d3" stroke-linecap="round" stroke-linejoin="round" stroke-width="0.25"/><line x1="31.11" y1="39.87" x2="156.62" y2="39.87" fill="none" stroke="#d0d2d3" stroke-linecap="round" stroke-linejoin="round" stroke-width="0.25"/><rect x="35.76" y="61.73" width="17.9" height="18.4" fill="#0072bb"/><rect x="60.63" y="80.13" width="17.9" height="21" fill="#0072bb"/><rect x="85.5" y="80.13" width="17.9" height="30" fill="#0072bb"/><rect x="110.36" y="80.13" width="17.9" height="36" fill="#0072bb"/><rect x="135.23" y="49.66" width="17.9" height="30.47" fill="#0072bb"/><rect x="35.76" y="61.73" width="17.9" height="18.4" fill="#0072bb"/><rect x="60.63" y="80.13" width="17.9" height="21" fill="#ef4a60"/><rect x="85.5" y="80.13" width="17.9" height="30" fill="#ef4a60"/><rect x="110.36" y="80.13" width="17.9" height="36" fill="#ef4a60"/><rect x="135.23" y="49.66" width="17.9" height="30.47" fill="#0072bc"/><rect x="39.99" y="121.5" width="10.03" height="3.15" fill="#bbbdbf"/><rect x="64.99" y="121.5" width="10.03" height="3.15" fill="#bbbdbf"/><rect x="89.99" y="121.5" width="10.03" height="3.15" fill="#bbbdbf"/><rect x="114.99" y="121.5" width="10.03" height="3.15" fill="#bbbdbf"/><rect x="139.99" y="121.5" width="10.03" height="3.15" fill="#bbbdbf"/><path d="M24.69,79.87c0-1,.43-2.06,1.53-2.06s1.53,1.08,1.53,2.06-.44,2.07-1.53,2.07S24.69,80.84,24.69,79.87Zm2.55,0c0-.8-.26-1.62-1-1.62s-1,.82-1,1.62.26,1.62,1,1.62S27.24,80.67,27.24,79.87Z" fill="#5e5e5e"/><path d="M25.45,67.87V64.52l-.64.68-.3-.3,1-1H26v4Z" fill="#5e5e5e"/><path d="M24.71,55.87v-.41c1.44-1.12,2.22-1.79,2.22-2.48a.75.75,0,0,0-.84-.73,1.32,1.32,0,0,0-1.08.5l-.31-.31a1.72,1.72,0,0,1,1.39-.63A1.22,1.22,0,0,1,27.44,53c0,.82-.83,1.56-2,2.44h2v.45Z" fill="#5e5e5e"/><path d="M24.56,41.28l.29-.31a1.4,1.4,0,0,0,1.12.52c.58,0,.93-.29.93-.75s-.41-.7-1-.7h-.42v-.45h.42c.5,0,.93-.19.93-.66s-.41-.68-.9-.68a1.35,1.35,0,0,0-1.05.49l-.28-.32A1.73,1.73,0,0,1,26,37.81c.76,0,1.34.39,1.34,1.06a1,1,0,0,1-.85.93,1,1,0,0,1,.92,1c0,.66-.54,1.15-1.42,1.15A1.67,1.67,0,0,1,24.56,41.28Z" fill="#5e5e5e"/><path d="M23.56,106.61v-.39H25v.39Z" fill="#5e5e5e"/><path d="M25.51,107.87v-.41c1.44-1.12,2.22-1.79,2.22-2.48a.75.75,0,0,0-.84-.73,1.32,1.32,0,0,0-1.08.5l-.31-.31a1.72,1.72,0,0,1,1.39-.63A1.22,1.22,0,0,1,28.24,105c0,.82-.83,1.56-1.95,2.44h2v.45Z" fill="#5e5e5e"/><path d="M23.56,93.61v-.39H25v.39Z" fill="#5e5e5e"/><path d="M26.25,94.87V91.52l-.64.68-.3-.3,1-1h.44v4Z" fill="#5e5e5e"/><path d="M23.56,119.61v-.39H25v.39Z" fill="#5e5e5e"/><path d="M25.36,120.28l.29-.31a1.38,1.38,0,0,0,1.12.52c.58,0,.93-.29.93-.75s-.41-.7-1-.7h-.42v-.45h.42c.5,0,.93-.2.93-.66s-.41-.68-.9-.68a1.33,1.33,0,0,0-1,.49l-.28-.32a1.73,1.73,0,0,1,1.38-.61c.76,0,1.34.39,1.34,1.06a1,1,0,0,1-.85.93,1,1,0,0,1,.92,1c0,.66-.54,1.15-1.42,1.15A1.67,1.67,0,0,1,25.36,120.28Z" fill="#5e5e5e"/><rect x="200.63" y="51.49" width="10.03" height="3.15" fill="#bbbdbf"/><rect x="200.63" y="67.73" width="10.03" height="3.15" fill="#bbbdbf"/><rect x="200.63" y="83.97" width="10.03" height="3.15" fill="#bbbdbf"/><rect x="200.63" y="100.2" width="10.03" height="3.15" fill="#bbbdbf"/><rect x="200.63" y="116.44" width="10.03" height="3.15" fill="#bbbdbf"/><path d="M264.33,38.87c0-1,.43-2.06,1.53-2.06s1.53,1.08,1.53,2.06-.44,2.07-1.53,2.07S264.33,39.84,264.33,38.87Zm2.55,0c0-.8-.26-1.62-1-1.62s-1,.82-1,1.62.26,1.62,1,1.62S266.88,39.67,266.88,38.87Z" fill="#5e5e5e"/><path d="M247.21,39.61v-.39h1.44v.39Z" fill="#5e5e5e"/><path d="M249.89,40.87V37.52l-.64.68-.3-.3,1-1h.44v4Z" fill="#5e5e5e"/><path d="M230.21,39.61v-.39h1.44v.39Z" fill="#5e5e5e"/><path d="M232.15,40.87v-.41c1.44-1.12,2.23-1.79,2.23-2.48a.75.75,0,0,0-.84-.73,1.34,1.34,0,0,0-1.09.5l-.31-.31a1.72,1.72,0,0,1,1.4-.63A1.21,1.21,0,0,1,234.88,38c0,.82-.83,1.56-1.94,2.44h2v.45Z" fill="#5e5e5e"/><path d="M213.21,39.61v-.39h1.44v.39Z" fill="#5e5e5e"/><path d="M215,40.28l.29-.31a1.41,1.41,0,0,0,1.12.52c.58,0,.94-.29.94-.75s-.41-.7-1-.7h-.41v-.45h.41c.5,0,.93-.19.93-.66s-.41-.68-.89-.68a1.35,1.35,0,0,0-1.06.49l-.28-.32a1.73,1.73,0,0,1,1.38-.61c.77,0,1.35.39,1.35,1.06a1,1,0,0,1-.86.93,1,1,0,0,1,.92,1c0,.66-.54,1.15-1.42,1.15A1.7,1.7,0,0,1,215,40.28Z" fill="#5e5e5e"/><path d="M283.09,40.87V37.52l-.64.68-.3-.3,1-1h.44v4Z" fill="#5e5e5e"/><path d="M299.35,40.87v-.41c1.44-1.12,2.23-1.79,2.23-2.48a.75.75,0,0,0-.84-.73,1.34,1.34,0,0,0-1.09.5l-.31-.31a1.72,1.72,0,0,1,1.4-.63A1.21,1.21,0,0,1,302.08,38c0,.82-.83,1.56-1.94,2.44h2v.45Z" fill="#5e5e5e"/><path d="M316.2,40.28l.3-.31a1.38,1.38,0,0,0,1.11.52c.58,0,.94-.29.94-.75s-.41-.7-1-.7h-.41v-.45h.41c.5,0,.93-.19.93-.66s-.41-.68-.89-.68a1.37,1.37,0,0,0-1.06.49l-.28-.32a1.73,1.73,0,0,1,1.38-.61c.77,0,1.35.39,1.35,1.06a1,1,0,0,1-.86.93,1,1,0,0,1,.92,1c0,.66-.54,1.15-1.42,1.15A1.7,1.7,0,0,1,316.2,40.28Z" fill="#5e5e5e"/><line x1="215.77" y1="44.18" x2="215.77" y2="126.13" fill="none" stroke="#d0d2d3" stroke-linecap="round" stroke-linejoin="round" stroke-width="0.25"/><line x1="232.79" y1="44.18" x2="232.79" y2="126.13" fill="none" stroke="#d0d2d3" stroke-linecap="round" stroke-linejoin="round" stroke-width="0.25"/><line x1="249.82" y1="44.18" x2="249.82" y2="126.13" fill="none" stroke="#d0d2d3" stroke-linecap="round" stroke-linejoin="round" stroke-width="0.25"/><line x1="266.09" y1="44.18" x2="266.09" y2="126.13" fill="none" stroke="#000" stroke-miterlimit="10" stroke-width="0.5"/><line x1="283.87" y1="44.18" x2="283.87" y2="126.13" fill="none" stroke="#d0d2d3" stroke-linecap="round" stroke-linejoin="round" stroke-width="0.25"/><line x1="300.89" y1="44.18" x2="300.89" y2="126.13" fill="none" stroke="#d0d2d3" stroke-linecap="round" stroke-linejoin="round" stroke-width="0.25"/><line x1="317.92" y1="44.18" x2="317.92" y2="126.13" fill="none" stroke="#d0d2d3" stroke-linecap="round" stroke-linejoin="round" stroke-width="0.25"/><rect x="266.09" y="47.22" width="23.69" height="11.69" fill="#0072bb"/><rect x="239.06" y="63.46" width="27.03" height="11.69" fill="#0072bb"/><rect x="227.47" y="79.69" width="38.62" height="11.69" fill="#0072bb"/><rect x="219.75" y="95.93" width="46.34" height="11.69" fill="#0072bb"/><rect x="266.09" y="112.17" width="39.22" height="11.69" fill="#0072bb"/><rect x="266.09" y="47.22" width="23.69" height="11.69" fill="#0072bc"/><rect x="239.06" y="63.46" width="27.03" height="11.69" fill="#ef4a60"/><rect x="227.47" y="79.69" width="38.62" height="11.69" fill="#ef4a60"/><rect x="219.75" y="95.93" width="46.34" height="11.69" fill="#ef4a60"/><rect x="266.09" y="112.17" width="39.22" height="11.69" fill="#0072bc"/><path d="M31.92,21.87V14.54h2.5a3.56,3.56,0,0,1,3.76,3.67,3.54,3.54,0,0,1-3.76,3.66Zm5.32-3.66a2.69,2.69,0,0,0-2.82-2.86H32.83v5.71h1.59A2.7,2.7,0,0,0,37.24,18.21Z" fill="#0072bc"/><path d="M39.26,19.21a2.63,2.63,0,1,1,5.26,0,2.63,2.63,0,1,1-5.26,0Zm4.39,0a1.78,1.78,0,1,0-3.52,0,1.78,1.78,0,1,0,3.52,0Z" fill="#0072bc"/><circle cx="17.55" cy="17.55" r="7.55" fill="#9dc5ff"/><circle cx="17.55" cy="17.55" r="4.8" fill="#0072bc"/><polyline points="14.8 17.55 16.63 19.38 20.29 15.72" fill="none" stroke="#fff" stroke-linecap="round" stroke-linejoin="round" stroke-width="0.75"/><path d="M201.92,21.87V14.54h2.5a3.56,3.56,0,0,1,3.76,3.67,3.54,3.54,0,0,1-3.76,3.66Zm5.32-3.66a2.69,2.69,0,0,0-2.82-2.86h-1.59v5.71h1.59A2.7,2.7,0,0,0,207.24,18.21Z" fill="#ef4a60"/><path d="M209.26,19.21a2.63,2.63,0,1,1,5.26,0,2.63,2.63,0,1,1-5.26,0Zm4.39,0a1.78,1.78,0,1,0-3.52,0,1.78,1.78,0,1,0,3.52,0Z" fill="#ef4a60"/><path d="M219.44,21.87V18.4c0-.95-.48-1.23-1.19-1.23a2.06,2.06,0,0,0-1.57.82v3.88h-.83V16.56h.83v.77a2.58,2.58,0,0,1,1.9-.9,1.5,1.5,0,0,1,1.68,1.71v3.73Z" fill="#ef4a60"/><path d="M222.07,16.93l-.42-.35a1.65,1.65,0,0,0,.71-1l-.15,0a.53.53,0,0,1-.53-.56.6.6,0,0,1,.58-.59c.38,0,.7.3.7.84A2.14,2.14,0,0,1,222.07,16.93Z" fill="#ef4a60"/><path d="M224.54,20.76V17.29h-.88v-.73h.88V15.11h.83v1.45h1.08v.73h-1.08v3.29c0,.4.18.68.53.68a.75.75,0,0,0,.56-.23l.24.63a1.32,1.32,0,0,1-1,.34A1.08,1.08,0,0,1,224.54,20.76Z" fill="#ef4a60"/><circle cx="187.55" cy="17.55" r="7.55" fill="#ffbcc1"/><circle cx="187.55" cy="17.55" r="4.8" fill="#ef4a60"/><line x1="189.55" y1="15.55" x2="185.55" y2="19.55" fill="none" stroke="#fff" stroke-linecap="round" stroke-linejoin="round" stroke-width="0.75"/><line x1="189.55" y1="19.55" x2="185.55" y2="15.55" fill="none" stroke="#fff" stroke-linecap="round" stroke-linejoin="round" stroke-width="0.75"/></svg>