<svg xmlns="http://www.w3.org/2000/svg" width="350" height="148" viewBox="0 0 350 148"><rect width="350" height="148" fill="#f1f2f2"/><line x1="49.16" y1="42.24" x2="49.16" y2="123.24" fill="none" stroke="#000" stroke-miterlimit="10" stroke-width="0.5"/><line x1="64.67" y1="42.24" x2="64.67" y2="123.24" fill="none" stroke="#d0d2d3" stroke-linecap="round" stroke-linejoin="round" stroke-width="0.25"/><line x1="80.18" y1="42.24" x2="80.18" y2="123.24" fill="none" stroke="#d0d2d3" stroke-linecap="round" stroke-linejoin="round" stroke-width="0.25"/><line x1="95.7" y1="42.24" x2="95.7" y2="123.24" fill="none" stroke="#d0d2d3" stroke-linecap="round" stroke-linejoin="round" stroke-width="0.25"/><line x1="111.21" y1="42.24" x2="111.21" y2="123.24" fill="none" stroke="#d0d2d3" stroke-linecap="round" stroke-linejoin="round" stroke-width="0.25"/><line x1="126.72" y1="42.24" x2="126.72" y2="123.24" fill="none" stroke="#d0d2d3" stroke-linecap="round" stroke-linejoin="round" stroke-width="0.25"/><line x1="142.23" y1="42.24" x2="142.23" y2="123.24" fill="none" stroke="#d0d2d3" stroke-linecap="round" stroke-linejoin="round" stroke-width="0.25"/><rect x="32.67" y="33.24" width="10.19" height="3.94" fill="#18375f"/><rect x="61.38" y="33.24" width="10.19" height="3.94" fill="#0072bc"/><rect x="49.55" y="43.84" width="90.21" height="4.86" fill="#18375f"/><rect x="49.55" y="49.11" width="77.31" height="4.86" fill="#0072bc"/><rect x="49.55" y="54.38" width="70.53" height="4.86" fill="#9dc5ff"/><rect x="49.55" y="64.5" width="65.26" height="4.86" fill="#18375f"/><rect x="49.55" y="69.77" width="55.93" height="4.86" fill="#0072bc"/><rect x="49.55" y="75.04" width="51.03" height="4.86" fill="#9dc5ff"/><rect x="49.55" y="85.17" width="51.55" height="4.86" fill="#18375f"/><rect x="49.55" y="90.44" width="44.18" height="4.86" fill="#0072bc"/><rect x="49.55" y="95.71" width="40.31" height="4.86" fill="#9dc5ff"/><rect x="49.55" y="105.84" width="28.35" height="4.86" fill="#18375f"/><rect x="49.55" y="111.11" width="24.29" height="4.86" fill="#0072bc"/><rect x="49.55" y="116.38" width="22.16" height="4.86" fill="#9dc5ff"/><rect x="32.5" y="46.39" width="10.58" height="3.15" fill="#bbbdbf"/><rect x="44.11" y="33.91" width="10.58" height="2.6" fill="#bbbdbf"/><rect x="72.58" y="33.91" width="10.58" height="2.6" fill="#bbbdbf"/><rect x="88.8" y="33.24" width="10.19" height="3.94" fill="#9dc5ff"/><rect x="100" y="33.91" width="10.58" height="2.6" fill="#bbbdbf"/><rect x="32.5" y="70.39" width="10.58" height="3.15" fill="#bbbdbf"/><rect x="32.5" y="91.39" width="10.58" height="3.15" fill="#bbbdbf"/><rect x="32.5" y="112.39" width="10.58" height="3.15" fill="#bbbdbf"/><rect x="44.11" y="125.39" width="10.58" height="3.15" fill="#bbbdbf"/><rect x="58.87" y="125.39" width="10.58" height="3.15" fill="#bbbdbf"/><rect x="74.69" y="125.39" width="10.58" height="3.15" fill="#bbbdbf"/><rect x="90.51" y="125.39" width="10.58" height="3.15" fill="#bbbdbf"/><rect x="106.33" y="125.39" width="10.58" height="3.15" fill="#bbbdbf"/><rect x="122.15" y="125.39" width="10.58" height="3.15" fill="#bbbdbf"/><rect x="136.92" y="125.39" width="10.58" height="3.15" fill="#bbbdbf"/><line x1="219.16" y1="42.24" x2="219.16" y2="123.24" fill="none" stroke="#000" stroke-miterlimit="10" stroke-width="0.5"/><line x1="234.67" y1="42.24" x2="234.67" y2="123.24" fill="none" stroke="#d0d2d3" stroke-linecap="round" stroke-linejoin="round" stroke-width="0.25"/><line x1="250.18" y1="42.24" x2="250.18" y2="123.24" fill="none" stroke="#d0d2d3" stroke-linecap="round" stroke-linejoin="round" stroke-width="0.25"/><line x1="265.7" y1="42.24" x2="265.7" y2="123.24" fill="none" stroke="#d0d2d3" stroke-linecap="round" stroke-linejoin="round" stroke-width="0.25"/><line x1="281.21" y1="42.24" x2="281.21" y2="123.24" fill="none" stroke="#d0d2d3" stroke-linecap="round" stroke-linejoin="round" stroke-width="0.25"/><line x1="296.72" y1="42.24" x2="296.72" y2="123.24" fill="none" stroke="#d0d2d3" stroke-linecap="round" stroke-linejoin="round" stroke-width="0.25"/><line x1="312.23" y1="42.24" x2="312.23" y2="123.24" fill="none" stroke="#d0d2d3" stroke-linecap="round" stroke-linejoin="round" stroke-width="0.25"/><rect x="202.67" y="33.24" width="10.19" height="3.94" fill="#9dc5ff"/><rect x="231.38" y="33.24" width="10.19" height="3.94" fill="#18375f"/><rect x="219.55" y="43.84" width="90.21" height="4.86" fill="#18375f"/><rect x="219.55" y="49.11" width="77.31" height="4.86" fill="#0072bc"/><rect x="219.55" y="54.38" width="70.53" height="4.86" fill="#9dc5ff"/><rect x="219.55" y="64.5" width="65.26" height="4.86" fill="#18375f"/><rect x="219.55" y="69.77" width="55.93" height="4.86" fill="#0072bc"/><rect x="219.55" y="75.04" width="51.03" height="4.86" fill="#9dc5ff"/><rect x="219.55" y="85.17" width="51.55" height="4.86" fill="#18375f"/><rect x="219.55" y="90.44" width="44.18" height="4.86" fill="#0072bc"/><rect x="219.55" y="95.71" width="40.31" height="4.86" fill="#9dc5ff"/><rect x="219.55" y="105.84" width="28.35" height="4.86" fill="#18375f"/><rect x="219.55" y="111.11" width="24.29" height="4.86" fill="#0072bc"/><rect x="219.55" y="116.38" width="22.16" height="4.86" fill="#9dc5ff"/><rect x="202.5" y="46.39" width="10.58" height="3.15" fill="#bbbdbf"/><rect x="214.11" y="33.91" width="10.58" height="2.6" fill="#bbbdbf"/><rect x="242.58" y="33.91" width="10.58" height="2.6" fill="#bbbdbf"/><rect x="258.8" y="33.24" width="10.19" height="3.94" fill="#0072bc"/><rect x="270" y="33.91" width="10.58" height="2.6" fill="#bbbdbf"/><rect x="202.5" y="70.39" width="10.58" height="3.15" fill="#bbbdbf"/><rect x="202.5" y="91.39" width="10.58" height="3.15" fill="#bbbdbf"/><rect x="202.5" y="112.39" width="10.58" height="3.15" fill="#bbbdbf"/><rect x="214.11" y="125.39" width="10.58" height="3.15" fill="#bbbdbf"/><rect x="228.87" y="125.39" width="10.58" height="3.15" fill="#bbbdbf"/><rect x="244.69" y="125.39" width="10.58" height="3.15" fill="#bbbdbf"/><rect x="260.51" y="125.39" width="10.58" height="3.15" fill="#bbbdbf"/><rect x="276.33" y="125.39" width="10.58" height="3.15" fill="#bbbdbf"/><rect x="292.15" y="125.39" width="10.58" height="3.15" fill="#bbbdbf"/><rect x="306.92" y="125.39" width="10.58" height="3.15" fill="#bbbdbf"/><path d="M31.92,21.87V14.54h2.5a3.56,3.56,0,0,1,3.76,3.67,3.54,3.54,0,0,1-3.76,3.66Zm5.32-3.66a2.69,2.69,0,0,0-2.82-2.86H32.83v5.71h1.59A2.7,2.7,0,0,0,37.24,18.21Z" fill="#0072bc"/><path d="M39.26,19.21a2.63,2.63,0,1,1,5.26,0,2.63,2.63,0,1,1-5.26,0Zm4.39,0a1.78,1.78,0,1,0-3.52,0,1.78,1.78,0,1,0,3.52,0Z" fill="#0072bc"/><circle cx="17.55" cy="17.55" r="7.55" fill="#9dc5ff"/><circle cx="17.55" cy="17.55" r="4.8" fill="#0072bc"/><polyline points="14.8 17.55 16.63 19.38 20.29 15.72" fill="none" stroke="#fff" stroke-linecap="round" stroke-linejoin="round" stroke-width="0.75"/><path d="M201.92,21.87V14.54h2.5a3.56,3.56,0,0,1,3.76,3.67,3.54,3.54,0,0,1-3.76,3.66Zm5.32-3.66a2.69,2.69,0,0,0-2.82-2.86h-1.59v5.71h1.59A2.7,2.7,0,0,0,207.24,18.21Z" fill="#ef4a60"/><path d="M209.27,19.21a2.63,2.63,0,1,1,5.25,0,2.63,2.63,0,1,1-5.25,0Zm4.38,0a1.78,1.78,0,1,0-3.52,0,1.78,1.78,0,1,0,3.52,0Z" fill="#ef4a60"/><path d="M219.44,21.87V18.4c0-.95-.48-1.23-1.19-1.23a2.06,2.06,0,0,0-1.57.82v3.88h-.83V16.56h.83v.77a2.58,2.58,0,0,1,1.9-.9,1.5,1.5,0,0,1,1.68,1.71v3.73Z" fill="#ef4a60"/><path d="M222.07,16.93l-.42-.35a1.65,1.65,0,0,0,.71-1l-.15,0a.53.53,0,0,1-.53-.56.6.6,0,0,1,.59-.59c.37,0,.69.3.69.84A2.14,2.14,0,0,1,222.07,16.93Z" fill="#ef4a60"/><path d="M224.54,20.76V17.29h-.88v-.73h.88V15.11h.83v1.45h1.08v.73h-1.08v3.29c0,.4.18.68.53.68a.75.75,0,0,0,.56-.23l.24.63a1.32,1.32,0,0,1-1,.34A1.08,1.08,0,0,1,224.54,20.76Z" fill="#ef4a60"/><circle cx="187.55" cy="17.55" r="7.55" fill="#ffbcc1"/><circle cx="187.55" cy="17.55" r="4.8" fill="#ef4a60"/><line x1="189.55" y1="15.55" x2="185.55" y2="19.55" fill="none" stroke="#fff" stroke-linecap="round" stroke-linejoin="round" stroke-width="0.75"/><line x1="189.55" y1="19.55" x2="185.55" y2="15.55" fill="none" stroke="#fff" stroke-linecap="round" stroke-linejoin="round" stroke-width="0.75"/></svg>