<svg xmlns="http://www.w3.org/2000/svg" width="10cm" height="10cm" viewBox="0 0 283.46 283.46"><rect x="0.5" y="0.5" width="282.47" height="282.47" fill="#fff"/><rect x="0.5" y="0.5" width="282.47" height="282.47" fill="#fff"/><path d="M283.46,283.46H0V0H283.46ZM1,282.47H282.47V1H1Z" fill="#0d73bb"/><rect x="125.78" y="28.35" width="55.36" height="62.99" fill="#0d73bb"/><rect x="40.63" y="28.35" width="85.16" height="62.99" fill="#0d73bb"/><rect x="170.85" y="110.24" width="71.99" height="62.99" fill="#0d73bb"/><rect x="40.63" y="110.24" width="130.23" height="62.99" fill="#0d73bb"/><rect x="150.34" y="192.13" width="41.47" height="62.99" fill="#0d73bb"/><rect x="40.63" y="192.13" width="109.71" height="62.99" fill="#0d73bb"/><rect x="125.78" y="28.35" width="55.36" height="62.99" fill="#0d73bb"/><rect x="40.63" y="28.35" width="85.16" height="62.99" fill="#0d73bb"/><rect x="170.85" y="110.24" width="71.99" height="62.99" fill="#0d73bb"/><rect x="40.63" y="110.24" width="130.23" height="62.99" fill="#0d73bb"/><rect x="150.34" y="192.13" width="41.47" height="62.99" fill="#0d73bb"/><rect x="40.63" y="192.13" width="109.71" height="62.99" fill="#0d73bb"/><rect x="125.78" y="28.35" width="55.36" height="62.99" fill="none" stroke="#fff" stroke-miterlimit="10"/><rect x="40.63" y="28.35" width="85.16" height="62.99" fill="none" stroke="#fff" stroke-miterlimit="10"/><rect x="170.85" y="110.24" width="71.99" height="62.99" fill="none" stroke="#fff" stroke-miterlimit="10"/><rect x="40.63" y="110.24" width="130.23" height="62.99" fill="none" stroke="#fff" stroke-miterlimit="10"/><rect x="150.34" y="192.13" width="41.47" height="62.99" fill="none" stroke="#fff" stroke-miterlimit="10"/><rect x="40.63" y="192.13" width="109.71" height="62.99" fill="none" stroke="#fff" stroke-miterlimit="10"/></svg>