<svg xmlns="http://www.w3.org/2000/svg" width="350" height="148" viewBox="0 0 350 148"><rect width="350" height="148" fill="#f1f2f2"/><line x1="33.81" y1="123.09" x2="159.31" y2="123.09" fill="none" stroke="#000" stroke-miterlimit="10" stroke-width="0.5"/><line x1="33.81" y1="109.87" x2="159.31" y2="109.87" fill="none" stroke="#d0d2d3" stroke-linecap="round" stroke-linejoin="round" stroke-width="0.25"/><line x1="33.81" y1="96.64" x2="159.31" y2="96.64" fill="none" stroke="#d0d2d3" stroke-linecap="round" stroke-linejoin="round" stroke-width="0.25"/><line x1="33.81" y1="83.41" x2="159.31" y2="83.41" fill="none" stroke="#d0d2d3" stroke-linecap="round" stroke-linejoin="round" stroke-width="0.25"/><line x1="33.81" y1="70.19" x2="159.31" y2="70.19" fill="none" stroke="#d0d2d3" stroke-linecap="round" stroke-linejoin="round" stroke-width="0.25"/><line x1="33.81" y1="56.96" x2="159.31" y2="56.96" fill="none" stroke="#d0d2d3" stroke-linecap="round" stroke-linejoin="round" stroke-width="0.25"/><line x1="33.81" y1="43.74" x2="159.31" y2="43.74" fill="none" stroke="#d0d2d3" stroke-linecap="round" stroke-linejoin="round" stroke-width="0.25"/><rect x="113.06" y="54.32" width="17.9" height="14.81" fill="#0072bc"/><rect x="137.93" y="53.26" width="17.9" height="15.08" fill="#0072bc"/><rect x="38.46" y="77.6" width="17.9" height="45.5" fill="#0072bb"/><rect x="63.33" y="70.45" width="17.9" height="52.64" fill="#0072bb"/><rect x="88.2" y="69.13" width="17.9" height="53.96" fill="#0072bb"/><rect x="113.06" y="54.9" width="17.9" height="68.19" fill="#0072bb"/><rect x="137.93" y="53.53" width="17.9" height="69.56" fill="#0072bb"/><rect x="20.69" y="42.16" width="10.03" height="3.15" fill="#bbbdbf"/><rect x="20.69" y="55.57" width="10.03" height="3.15" fill="#bbbdbf"/><rect x="20.69" y="68.98" width="10.03" height="3.15" fill="#bbbdbf"/><rect x="20.69" y="81.98" width="10.03" height="3.15" fill="#bbbdbf"/><rect x="20.69" y="94.97" width="10.03" height="3.15" fill="#bbbdbf"/><rect x="20.69" y="108.38" width="10.03" height="3.15" fill="#bbbdbf"/><rect x="20.69" y="121.37" width="10.03" height="3.15" fill="#bbbdbf"/><rect x="42.65" y="126.86" width="10.03" height="3.15" fill="#bbbdbf"/><rect x="67.35" y="126.86" width="10.03" height="3.15" fill="#bbbdbf"/><rect x="92.06" y="126.86" width="10.03" height="3.15" fill="#bbbdbf"/><rect x="116.76" y="126.86" width="10.03" height="3.15" fill="#bbbdbf"/><rect x="141.47" y="126.86" width="10.03" height="3.15" fill="#bbbdbf"/><rect x="212.65" y="126.86" width="10.03" height="3.15" fill="#bbbdbf"/><rect x="237.35" y="126.86" width="10.03" height="3.15" fill="#bbbdbf"/><rect x="262.06" y="126.86" width="10.03" height="3.15" fill="#bbbdbf"/><rect x="286.76" y="126.86" width="10.03" height="3.15" fill="#bbbdbf"/><rect x="311.47" y="126.86" width="10.03" height="3.15" fill="#bbbdbf"/><line x1="203.81" y1="123.09" x2="329.31" y2="123.09" fill="none" stroke="#000" stroke-miterlimit="10" stroke-width="0.5"/><line x1="203.81" y1="109.87" x2="329.31" y2="109.87" fill="none" stroke="#d0d2d3" stroke-linecap="round" stroke-linejoin="round" stroke-width="0.25"/><line x1="203.81" y1="96.64" x2="329.31" y2="96.64" fill="none" stroke="#d0d2d3" stroke-linecap="round" stroke-linejoin="round" stroke-width="0.25"/><line x1="203.81" y1="83.41" x2="329.31" y2="83.41" fill="none" stroke="#d0d2d3" stroke-linecap="round" stroke-linejoin="round" stroke-width="0.25"/><line x1="203.81" y1="70.19" x2="329.31" y2="70.19" fill="none" stroke="#d0d2d3" stroke-linecap="round" stroke-linejoin="round" stroke-width="0.25"/><line x1="203.81" y1="56.96" x2="329.31" y2="56.96" fill="none" stroke="#d0d2d3" stroke-linecap="round" stroke-linejoin="round" stroke-width="0.25"/><line x1="203.81" y1="43.74" x2="329.31" y2="43.74" fill="none" stroke="#d0d2d3" stroke-linecap="round" stroke-linejoin="round" stroke-width="0.25"/><rect x="208.46" y="77.6" width="17.9" height="45.5" fill="#0072bb"/><rect x="233.33" y="70.45" width="17.9" height="52.64" fill="#0072bb"/><rect x="258.2" y="69.13" width="17.9" height="53.96" fill="#0072bb"/><rect x="283.06" y="54.9" width="17.9" height="68.19" fill="#0072bb"/><rect x="307.93" y="53.53" width="17.9" height="69.56" fill="#0072bb"/><rect x="208.46" y="77.6" width="17.9" height="45.5" fill="#0072bb"/><rect x="233.33" y="70.45" width="17.9" height="52.64" fill="#0072bc"/><rect x="258.2" y="69.13" width="17.9" height="53.96" fill="#0072bc"/><rect x="283.06" y="54.9" width="17.9" height="68.19" fill="#0072bc"/><rect x="307.93" y="53.53" width="17.9" height="69.56" fill="#0072bc"/><rect x="190.69" y="42.16" width="10.03" height="3.15" fill="#bbbdbf"/><rect x="190.69" y="55.57" width="10.03" height="3.15" fill="#bbbdbf"/><rect x="190.69" y="68.98" width="10.03" height="3.15" fill="#bbbdbf"/><rect x="190.69" y="81.98" width="10.03" height="3.15" fill="#bbbdbf"/><rect x="190.69" y="94.97" width="10.03" height="3.15" fill="#bbbdbf"/><rect x="190.69" y="108.38" width="10.03" height="3.15" fill="#bbbdbf"/><rect x="190.69" y="121.37" width="10.03" height="3.15" fill="#bbbdbf"/><path d="M212.31,73.81l.39-.42a1.85,1.85,0,0,0,1.49.71c.78,0,1.25-.39,1.25-1s-.55-.95-1.33-.95h-.55v-.61h.55c.67,0,1.24-.26,1.24-.88s-.54-.91-1.19-.91a1.81,1.81,0,0,0-1.41.65l-.37-.42a2.3,2.3,0,0,1,1.83-.82c1,0,1.8.52,1.8,1.41a1.28,1.28,0,0,1-1.14,1.24,1.36,1.36,0,0,1,1.23,1.32c0,.89-.72,1.54-1.89,1.54A2.25,2.25,0,0,1,212.31,73.81Z" fill="#5e5e5e"/><path d="M219.33,74.59V73.24h-2.54v-.55l2.29-3.43H220v3.4h.75v.58H220v1.35Zm0-4.71-1.87,2.78h1.87Z" fill="#5e5e5e"/><path d="M239.87,67.59V66.24h-2.54v-.55l2.29-3.43h.91v3.4h.76v.58h-.76v1.35Zm0-4.71L238,65.66h1.87Z" fill="#5e5e5e"/><path d="M242,64.93c0-1.3.58-2.75,2-2.75s2,1.45,2,2.75-.59,2.76-2,2.76S242,66.23,242,64.93Zm3.4,0c0-1.06-.35-2.16-1.36-2.16s-1.36,1.1-1.36,2.16S243,67.1,244,67.1,245.35,66,245.35,64.93Z" fill="#5e5e5e"/><path d="M264.87,66.59V65.24h-2.54v-.55l2.29-3.43h.91v3.4h.76v.58h-.76v1.35Zm0-4.71L263,64.66h1.87Z" fill="#5e5e5e"/><path d="M268,66.59V62.13l-.86.91-.4-.41,1.34-1.37h.58v5.33Z" fill="#5e5e5e"/><path d="M287.61,51.83l.4-.44a1.79,1.79,0,0,0,1.48.71A1.16,1.16,0,0,0,290.72,51a1.13,1.13,0,0,0-1.23-1.15,1.69,1.69,0,0,0-1.23.5l-.49-.17V47.26H291v.59h-2.6v1.86a1.79,1.79,0,0,1,1.25-.48,1.63,1.63,0,0,1,1.7,1.7,1.76,1.76,0,0,1-1.9,1.76A2.18,2.18,0,0,1,287.61,51.83Z" fill="#5e5e5e"/><path d="M293.22,52.59V48.13l-.85.91-.4-.41,1.33-1.37h.59v5.33Z" fill="#5e5e5e"/><path d="M312.61,50.83l.4-.44a1.79,1.79,0,0,0,1.48.71A1.16,1.16,0,0,0,315.72,50a1.13,1.13,0,0,0-1.23-1.15,1.69,1.69,0,0,0-1.23.5l-.49-.17V46.26H316v.59h-2.6v1.86a1.79,1.79,0,0,1,1.25-.48,1.63,1.63,0,0,1,1.7,1.7,1.76,1.76,0,0,1-1.9,1.76A2.18,2.18,0,0,1,312.61,50.83Z" fill="#5e5e5e"/><path d="M317.23,51.59v-.53c1.92-1.51,3-2.39,3-3.31a1,1,0,0,0-1.12-1,1.78,1.78,0,0,0-1.45.67l-.41-.42a2.31,2.31,0,0,1,1.86-.84,1.62,1.62,0,0,1,1.79,1.57c0,1.08-1.1,2.08-2.59,3.25h2.61v.59Z" fill="#5e5e5e"/><path d="M31.92,21.87V14.54h2.5a3.56,3.56,0,0,1,3.76,3.67,3.54,3.54,0,0,1-3.76,3.66Zm5.32-3.66a2.69,2.69,0,0,0-2.82-2.86H32.83v5.71h1.59A2.7,2.7,0,0,0,37.24,18.21Z" fill="#0072bc"/><path d="M39.26,19.21a2.63,2.63,0,1,1,5.26,0,2.63,2.63,0,1,1-5.26,0Zm4.39,0a1.78,1.78,0,1,0-3.52,0,1.78,1.78,0,1,0,3.52,0Z" fill="#0072bc"/><circle cx="17.55" cy="17.55" r="7.55" fill="#9dc5ff"/><circle cx="17.55" cy="17.55" r="4.8" fill="#0072bc"/><polyline points="14.8 17.55 16.63 19.38 20.29 15.72" fill="none" stroke="#fff" stroke-linecap="round" stroke-linejoin="round" stroke-width="0.75"/><path d="M201.92,21.87V14.54h2.5a3.56,3.56,0,0,1,3.76,3.67,3.54,3.54,0,0,1-3.76,3.66Zm5.32-3.66a2.69,2.69,0,0,0-2.82-2.86h-1.59v5.71h1.59A2.7,2.7,0,0,0,207.24,18.21Z" fill="#ef4a60"/><path d="M209.26,19.21a2.63,2.63,0,1,1,5.26,0,2.63,2.63,0,1,1-5.26,0Zm4.39,0a1.78,1.78,0,1,0-3.52,0,1.78,1.78,0,1,0,3.52,0Z" fill="#ef4a60"/><path d="M219.44,21.87V18.4c0-.95-.48-1.23-1.19-1.23a2.06,2.06,0,0,0-1.57.82v3.88h-.83V16.56h.83v.77a2.58,2.58,0,0,1,1.9-.9,1.5,1.5,0,0,1,1.68,1.71v3.73Z" fill="#ef4a60"/><path d="M222.07,16.93l-.42-.35a1.65,1.65,0,0,0,.71-1l-.15,0a.53.53,0,0,1-.53-.56.6.6,0,0,1,.58-.59c.38,0,.7.3.7.84A2.14,2.14,0,0,1,222.07,16.93Z" fill="#ef4a60"/><path d="M224.54,20.76V17.29h-.88v-.73h.88V15.11h.83v1.45h1.08v.73h-1.08v3.29c0,.4.18.68.53.68a.75.75,0,0,0,.56-.23l.24.63a1.32,1.32,0,0,1-1,.34A1.08,1.08,0,0,1,224.54,20.76Z" fill="#ef4a60"/><circle cx="187.55" cy="17.55" r="7.55" fill="#ffbcc1"/><circle cx="187.55" cy="17.55" r="4.8" fill="#ef4a60"/><line x1="189.55" y1="15.55" x2="185.55" y2="19.55" fill="none" stroke="#fff" stroke-linecap="round" stroke-linejoin="round" stroke-width="0.75"/><line x1="189.55" y1="19.55" x2="185.55" y2="15.55" fill="none" stroke="#fff" stroke-linecap="round" stroke-linejoin="round" stroke-width="0.75"/></svg>