<svg xmlns="http://www.w3.org/2000/svg" width="350" height="148" viewBox="0 0 350 148"><rect width="350" height="148" fill="#f1f2f2"/><line x1="142.02" y1="125" x2="51.31" y2="125" fill="none" stroke="#000" stroke-miterlimit="10" stroke-width="0.5"/><line x1="142.02" y1="111.09" x2="51.31" y2="111.09" fill="none" stroke="#d0d2d3" stroke-linecap="round" stroke-linejoin="round" stroke-width="0.25"/><line x1="142.02" y1="97.13" x2="51.31" y2="97.13" fill="none" stroke="#d0d2d3" stroke-linecap="round" stroke-linejoin="round" stroke-width="0.25"/><line x1="142.02" y1="83.18" x2="51.31" y2="83.18" fill="none" stroke="#d0d2d3" stroke-linecap="round" stroke-linejoin="round" stroke-width="0.25"/><line x1="142.02" y1="69.22" x2="51.31" y2="69.22" fill="none" stroke="#d0d2d3" stroke-linecap="round" stroke-linejoin="round" stroke-width="0.25"/><line x1="142.02" y1="55.27" x2="51.31" y2="55.27" fill="none" stroke="#d0d2d3" stroke-linecap="round" stroke-linejoin="round" stroke-width="0.25"/><line x1="142.02" y1="41.31" x2="51.31" y2="41.31" fill="none" stroke="#d0d2d3" stroke-linecap="round" stroke-linejoin="round" stroke-width="0.25"/><rect x="134.79" y="43.54" width="5.44" height="81.16" fill="#9dc5ff"/><rect x="128.89" y="55.14" width="5.44" height="69.55" fill="#0072bc"/><rect x="122.98" y="61.24" width="5.44" height="63.46" fill="#18375f"/><rect x="111.64" y="65.98" width="5.44" height="58.72" fill="#9dc5ff"/><rect x="105.74" y="74.38" width="5.44" height="50.32" fill="#0072bc"/><rect x="99.84" y="78.79" width="5.44" height="45.91" fill="#18375f"/><rect x="88.5" y="78.32" width="5.44" height="46.38" fill="#9dc5ff"/><rect x="82.6" y="84.95" width="5.44" height="39.75" fill="#0072bc"/><rect x="76.7" y="88.43" width="5.44" height="36.27" fill="#18375f"/><rect x="65.36" y="99.19" width="5.44" height="25.5" fill="#9dc5ff"/><rect x="59.45" y="102.84" width="5.44" height="21.86" fill="#0072bc"/><rect x="53.55" y="104.76" width="5.44" height="19.94" fill="#18375f"/><rect x="37.98" y="123.45" width="10.58" height="2.77" fill="#bbbdbf"/><rect x="37.98" y="110.01" width="10.58" height="2.77" fill="#bbbdbf"/><rect x="37.98" y="95.69" width="10.58" height="2.77" fill="#bbbdbf"/><rect x="37.98" y="81.38" width="10.58" height="2.77" fill="#bbbdbf"/><rect x="37.98" y="67.94" width="10.58" height="2.77" fill="#bbbdbf"/><rect x="37.98" y="53.63" width="10.58" height="2.77" fill="#bbbdbf"/><rect x="37.98" y="39.31" width="10.58" height="2.77" fill="#bbbdbf"/><rect x="56.98" y="127.84" width="10.58" height="2.77" fill="#bbbdbf"/><rect x="79.98" y="127.84" width="10.58" height="2.77" fill="#bbbdbf"/><rect x="102.98" y="127.84" width="10.58" height="2.77" fill="#bbbdbf"/><rect x="126.98" y="127.84" width="10.58" height="2.77" fill="#bbbdbf"/><line x1="307.02" y1="124.77" x2="226.02" y2="124.77" fill="none" stroke="#000" stroke-miterlimit="10" stroke-width="0.5"/><line x1="307.02" y1="110.74" x2="226.02" y2="110.74" fill="none" stroke="#d0d2d3" stroke-linecap="round" stroke-linejoin="round" stroke-width="0.25"/><line x1="307.02" y1="96.74" x2="226.02" y2="96.74" fill="none" stroke="#d0d2d3" stroke-linecap="round" stroke-linejoin="round" stroke-width="0.25"/><line x1="307.02" y1="82.75" x2="226.02" y2="82.75" fill="none" stroke="#d0d2d3" stroke-linecap="round" stroke-linejoin="round" stroke-width="0.25"/><line x1="307.02" y1="68.76" x2="226.02" y2="68.76" fill="none" stroke="#d0d2d3" stroke-linecap="round" stroke-linejoin="round" stroke-width="0.25"/><line x1="307.02" y1="54.77" x2="226.02" y2="54.77" fill="none" stroke="#d0d2d3" stroke-linecap="round" stroke-linejoin="round" stroke-width="0.25"/><line x1="307.02" y1="40.78" x2="226.02" y2="40.78" fill="none" stroke="#d0d2d3" stroke-linecap="round" stroke-linejoin="round" stroke-width="0.25"/><rect x="300.43" y="43.01" width="6" height="81.37" fill="#9dc5ff"/><rect x="293.92" y="54.65" width="6" height="69.73" fill="#0072bc"/><rect x="287.42" y="60.75" width="6" height="63.62" fill="#18375f"/><rect x="280.03" y="65.51" width="6" height="58.87" fill="#9dc5ff"/><rect x="273.52" y="73.93" width="6" height="50.45" fill="#0072bc"/><rect x="267.02" y="78.35" width="6" height="46.03" fill="#18375f"/><rect x="259.63" y="77.88" width="6" height="46.5" fill="#9dc5ff"/><rect x="253.12" y="84.53" width="6" height="39.85" fill="#0072bc"/><rect x="246.62" y="88.02" width="6" height="36.36" fill="#18375f"/><rect x="239.23" y="98.81" width="6" height="25.57" fill="#9dc5ff"/><rect x="232.72" y="102.46" width="6" height="21.91" fill="#0072bc"/><rect x="226.22" y="104.38" width="6" height="19.99" fill="#18375f"/><rect x="230.98" y="127.31" width="10.58" height="2.77" fill="#bbbdbf"/><rect x="212.98" y="123.31" width="10.58" height="2.77" fill="#bbbdbf"/><rect x="212.98" y="109.31" width="10.58" height="2.77" fill="#bbbdbf"/><rect x="212.98" y="95.31" width="10.58" height="2.77" fill="#bbbdbf"/><rect x="212.98" y="81.31" width="10.58" height="2.77" fill="#bbbdbf"/><rect x="212.98" y="67.31" width="10.58" height="2.77" fill="#bbbdbf"/><rect x="212.98" y="53.31" width="10.58" height="2.77" fill="#bbbdbf"/><rect x="212.98" y="39.31" width="10.58" height="2.77" fill="#bbbdbf"/><rect x="250.83" y="127.31" width="10.58" height="2.77" fill="#bbbdbf"/><rect x="271.23" y="127.31" width="10.58" height="2.77" fill="#bbbdbf"/><rect x="291.63" y="127.31" width="10.58" height="2.77" fill="#bbbdbf"/><path d="M31.92,21.87V14.54h2.5a3.56,3.56,0,0,1,3.76,3.67,3.54,3.54,0,0,1-3.76,3.66Zm5.32-3.66a2.69,2.69,0,0,0-2.82-2.86H32.83v5.71h1.59A2.7,2.7,0,0,0,37.24,18.21Z" fill="#0072bc"/><path d="M39.26,19.21a2.63,2.63,0,1,1,5.26,0,2.63,2.63,0,1,1-5.26,0Zm4.39,0a1.78,1.78,0,1,0-3.52,0,1.78,1.78,0,1,0,3.52,0Z" fill="#0072bc"/><circle cx="17.55" cy="17.55" r="7.55" fill="#9dc5ff"/><circle cx="17.55" cy="17.55" r="4.8" fill="#0072bc"/><polyline points="14.8 17.55 16.63 19.38 20.29 15.72" fill="none" stroke="#fff" stroke-linecap="round" stroke-linejoin="round" stroke-width="0.75"/><path d="M201.92,21.87V14.54h2.5a3.56,3.56,0,0,1,3.76,3.67,3.54,3.54,0,0,1-3.76,3.66Zm5.32-3.66a2.69,2.69,0,0,0-2.82-2.86h-1.59v5.71h1.59A2.7,2.7,0,0,0,207.24,18.21Z" fill="#ef4a60"/><path d="M209.26,19.21a2.63,2.63,0,1,1,5.26,0,2.63,2.63,0,1,1-5.26,0Zm4.39,0a1.78,1.78,0,1,0-3.52,0,1.78,1.78,0,1,0,3.52,0Z" fill="#ef4a60"/><path d="M219.44,21.87V18.4c0-.95-.48-1.23-1.19-1.23a2.06,2.06,0,0,0-1.57.82v3.88h-.83V16.56h.83v.77a2.58,2.58,0,0,1,1.9-.9,1.5,1.5,0,0,1,1.68,1.71v3.73Z" fill="#ef4a60"/><path d="M222.07,16.93l-.42-.35a1.65,1.65,0,0,0,.71-1l-.15,0a.53.53,0,0,1-.53-.56.6.6,0,0,1,.58-.59c.38,0,.7.3.7.84A2.14,2.14,0,0,1,222.07,16.93Z" fill="#ef4a60"/><path d="M224.54,20.76V17.29h-.88v-.73h.88V15.11h.83v1.45h1.08v.73h-1.08v3.29c0,.4.18.68.53.68a.75.75,0,0,0,.56-.23l.24.63a1.32,1.32,0,0,1-1,.34A1.08,1.08,0,0,1,224.54,20.76Z" fill="#ef4a60"/><circle cx="187.55" cy="17.55" r="7.55" fill="#ffbcc1"/><circle cx="187.55" cy="17.55" r="4.8" fill="#ef4a60"/><line x1="189.55" y1="15.55" x2="185.55" y2="19.55" fill="none" stroke="#fff" stroke-linecap="round" stroke-linejoin="round" stroke-width="0.75"/><line x1="189.55" y1="19.55" x2="185.55" y2="15.55" fill="none" stroke="#fff" stroke-linecap="round" stroke-linejoin="round" stroke-width="0.75"/></svg>