<svg xmlns="http://www.w3.org/2000/svg" width="350" height="148" viewBox="0 0 350 148"><rect width="350" height="148" fill="#f1f2f2"/><line x1="31.95" y1="124.07" x2="157.46" y2="124.07" fill="none" stroke="#000" stroke-miterlimit="10" stroke-width="0.5"/><line x1="31.95" y1="110.84" x2="157.46" y2="110.84" fill="none" stroke="#d0d2d3" stroke-linecap="round" stroke-linejoin="round" stroke-width="0.25"/><line x1="31.95" y1="97.61" x2="157.46" y2="97.61" fill="none" stroke="#d0d2d3" stroke-linecap="round" stroke-linejoin="round" stroke-width="0.25"/><line x1="31.95" y1="84.39" x2="157.46" y2="84.39" fill="none" stroke="#d0d2d3" stroke-linecap="round" stroke-linejoin="round" stroke-width="0.25"/><line x1="31.95" y1="71.16" x2="157.46" y2="71.16" fill="none" stroke="#d0d2d3" stroke-linecap="round" stroke-linejoin="round" stroke-width="0.25"/><line x1="31.95" y1="57.94" x2="157.46" y2="57.94" fill="none" stroke="#d0d2d3" stroke-linecap="round" stroke-linejoin="round" stroke-width="0.25"/><line x1="31.95" y1="44.71" x2="157.46" y2="44.71" fill="none" stroke="#d0d2d3" stroke-linecap="round" stroke-linejoin="round" stroke-width="0.25"/><rect x="111.2" y="55.29" width="17.9" height="14.81" fill="#0072bc"/><rect x="136.07" y="54.23" width="17.9" height="15.08" fill="#0072bc"/><rect x="36.6" y="78.57" width="17.9" height="45.5" fill="#0072bb"/><rect x="61.47" y="71.43" width="17.9" height="52.64" fill="#0072bb"/><rect x="86.34" y="70.1" width="17.9" height="53.96" fill="#0072bb"/><rect x="111.2" y="55.91" width="17.9" height="68.15" fill="#0072bb"/><rect x="136.07" y="54.54" width="17.9" height="69.53" fill="#0072bb"/><rect x="18.83" y="43.14" width="10.03" height="3.15" fill="#bbbdbf"/><rect x="18.83" y="56.55" width="10.03" height="3.15" fill="#bbbdbf"/><rect x="18.83" y="69.96" width="10.03" height="3.15" fill="#bbbdbf"/><rect x="18.83" y="82.95" width="10.03" height="3.15" fill="#bbbdbf"/><rect x="18.83" y="95.94" width="10.03" height="3.15" fill="#bbbdbf"/><rect x="18.83" y="109.35" width="10.03" height="3.15" fill="#bbbdbf"/><rect x="18.83" y="122.34" width="10.03" height="3.15" fill="#bbbdbf"/><path d="M40.28,130.69v-.38c1.37-1.08,2.12-1.71,2.12-2.37a.71.71,0,0,0-.8-.7,1.31,1.31,0,0,0-1,.48l-.29-.3a1.63,1.63,0,0,1,1.33-.6,1.16,1.16,0,0,1,1.28,1.12c0,.78-.79,1.49-1.85,2.33H42.9v.42Z" fill="#5e5e5e"/><path d="M43.62,128.79c0-.94.42-2,1.46-2s1.46,1,1.46,2-.42,2-1.46,2S43.62,129.71,43.62,128.79Zm2.43,0c0-.76-.24-1.55-1-1.55s-1,.79-1,1.55.25,1.55,1,1.55S46.05,129.55,46.05,128.79Z" fill="#5e5e5e"/><path d="M47.85,130.69V127.5l-.61.65-.29-.29,1-1h.41v3.81Z" fill="#5e5e5e"/><path d="M49.06,128.79c0-1,.48-2,1.56-2a1.3,1.3,0,0,1,1.05.46l-.24.35a1,1,0,0,0-.81-.39c-.75,0-1.08.75-1.08,1.5v.15a1.39,1.39,0,0,1,1.08-.6,1.16,1.16,0,0,1,1.25,1.22,1.25,1.25,0,0,1-1.33,1.25C49.47,130.76,49.06,129.83,49.06,128.79Zm2.33.74a.79.79,0,0,0-.88-.82,1.15,1.15,0,0,0-.95.56c0,.48.29,1.07.95,1.07A.84.84,0,0,0,51.39,129.53Z" fill="#5e5e5e"/><path d="M65.42,130.69v-.38c1.38-1.08,2.13-1.71,2.13-2.37a.72.72,0,0,0-.8-.7,1.29,1.29,0,0,0-1,.48l-.29-.3a1.63,1.63,0,0,1,1.33-.6A1.16,1.16,0,0,1,68,127.94c0,.78-.79,1.49-1.86,2.33H68v.42Z" fill="#5e5e5e"/><path d="M68.77,128.79c0-.94.41-2,1.46-2s1.46,1,1.46,2-.42,2-1.46,2S68.77,129.71,68.77,128.79Zm2.43,0c0-.76-.25-1.55-1-1.55s-1,.79-1,1.55.25,1.55,1,1.55S71.2,129.55,71.2,128.79Z" fill="#5e5e5e"/><path d="M73,130.69V127.5l-.61.65-.29-.29,1-1h.42v3.81Z" fill="#5e5e5e"/><path d="M74.6,130.69l1.54-3.39h-2v-.42h2.6v.32l-1.56,3.49Z" fill="#5e5e5e"/><path d="M90.05,130.69v-.38c1.37-1.08,2.12-1.71,2.12-2.37a.72.72,0,0,0-.8-.7,1.31,1.31,0,0,0-1,.48l-.29-.3a1.63,1.63,0,0,1,1.33-.6,1.16,1.16,0,0,1,1.28,1.12c0,.78-.79,1.49-1.85,2.33h1.87v.42Z" fill="#5e5e5e"/><path d="M93.39,128.79c0-.94.41-2,1.46-2s1.46,1,1.46,2-.42,2-1.46,2S93.39,129.71,93.39,128.79Zm2.43,0c0-.76-.24-1.55-1-1.55s-1,.79-1,1.55.24,1.55,1,1.55S95.82,129.55,95.82,128.79Z" fill="#5e5e5e"/><path d="M97.62,130.69V127.5l-.62.65-.28-.29,1-1h.42v3.81Z" fill="#5e5e5e"/><path d="M98.83,129.73a1.15,1.15,0,0,1,.91-1,1,1,0,0,1-.84-.91c0-.69.66-1,1.3-1s1.31.3,1.31,1a1,1,0,0,1-.85.91,1.15,1.15,0,0,1,.91,1c0,.64-.62,1-1.37,1S98.83,130.38,98.83,129.73Zm2.26-.06c0-.49-.65-.71-.89-.73s-.89.24-.89.73.42.67.89.67S101.09,130.09,101.09,129.67Zm-.06-1.8c0-.39-.37-.63-.83-.63s-.82.24-.82.63.59.62.82.66S101,128.34,101,127.87Z" fill="#5e5e5e"/><path d="M115.65,130.69v-.38c1.37-1.08,2.12-1.71,2.12-2.37a.72.72,0,0,0-.8-.7,1.31,1.31,0,0,0-1,.48l-.29-.3a1.63,1.63,0,0,1,1.33-.6,1.16,1.16,0,0,1,1.28,1.12c0,.78-.79,1.49-1.85,2.33h1.87v.42Z" fill="#5e5e5e"/><path d="M119,128.79c0-.94.41-2,1.46-2s1.46,1,1.46,2-.42,2-1.46,2S119,129.71,119,128.79Zm2.43,0c0-.76-.24-1.55-1-1.55s-1,.79-1,1.55.24,1.55,1,1.55S121.42,129.55,121.42,128.79Z" fill="#5e5e5e"/><path d="M123.22,130.69V127.5l-.62.65-.28-.29,1-1h.42v3.81Z" fill="#5e5e5e"/><path d="M124.62,130.3l.24-.36a1,1,0,0,0,.81.39c.78,0,1.08-.77,1.08-1.5v-.15a1.36,1.36,0,0,1-1.08.6,1.16,1.16,0,0,1-1.25-1.22,1.25,1.25,0,0,1,1.33-1.25c1.07,0,1.48.94,1.48,2s-.48,2-1.56,2A1.33,1.33,0,0,1,124.62,130.3Zm2.11-2a1,1,0,0,0-1-1,.82.82,0,0,0-.87.8.8.8,0,0,0,.88.83A1.15,1.15,0,0,0,126.73,128.29Z" fill="#5e5e5e"/><path d="M139.44,130.69v-.38c1.37-1.08,2.12-1.71,2.12-2.37a.72.72,0,0,0-.8-.7,1.29,1.29,0,0,0-1,.48l-.29-.3a1.63,1.63,0,0,1,1.33-.6,1.16,1.16,0,0,1,1.28,1.12c0,.78-.79,1.49-1.86,2.33h1.88v.42Z" fill="#5e5e5e"/><path d="M142.78,128.79c0-.94.41-2,1.46-2s1.46,1,1.46,2-.42,2-1.46,2S142.78,129.71,142.78,128.79Zm2.43,0c0-.76-.25-1.55-1-1.55s-1,.79-1,1.55.24,1.55,1,1.55S145.21,129.55,145.21,128.79Z" fill="#5e5e5e"/><path d="M146.29,130.69v-.38c1.38-1.08,2.13-1.71,2.13-2.37a.72.72,0,0,0-.8-.7,1.29,1.29,0,0,0-1,.48l-.29-.3a1.63,1.63,0,0,1,1.33-.6,1.16,1.16,0,0,1,1.28,1.12c0,.78-.79,1.49-1.86,2.33h1.88v.42Z" fill="#5e5e5e"/><path d="M149.64,128.79c0-.94.41-2,1.46-2s1.46,1,1.46,2-.42,2-1.46,2S149.64,129.71,149.64,128.79Zm2.43,0c0-.76-.25-1.55-1-1.55s-1,.79-1,1.55.25,1.55,1,1.55S152.07,129.55,152.07,128.79Z" fill="#5e5e5e"/><line x1="206.26" y1="124.07" x2="331.77" y2="124.07" fill="none" stroke="#000" stroke-miterlimit="10" stroke-width="0.5"/><line x1="206.26" y1="110.84" x2="331.77" y2="110.84" fill="none" stroke="#d0d2d3" stroke-linecap="round" stroke-linejoin="round" stroke-width="0.25"/><line x1="206.26" y1="97.61" x2="331.77" y2="97.61" fill="none" stroke="#d0d2d3" stroke-linecap="round" stroke-linejoin="round" stroke-width="0.25"/><line x1="206.26" y1="84.39" x2="331.77" y2="84.39" fill="none" stroke="#d0d2d3" stroke-linecap="round" stroke-linejoin="round" stroke-width="0.25"/><line x1="206.26" y1="71.16" x2="331.77" y2="71.16" fill="none" stroke="#d0d2d3" stroke-linecap="round" stroke-linejoin="round" stroke-width="0.25"/><line x1="206.26" y1="57.94" x2="331.77" y2="57.94" fill="none" stroke="#d0d2d3" stroke-linecap="round" stroke-linejoin="round" stroke-width="0.25"/><line x1="206.26" y1="44.71" x2="331.77" y2="44.71" fill="none" stroke="#d0d2d3" stroke-linecap="round" stroke-linejoin="round" stroke-width="0.25"/><rect x="285.52" y="55.29" width="17.9" height="14.81" fill="#0072bc"/><rect x="310.38" y="54.23" width="17.9" height="15.08" fill="#0072bc"/><rect x="210.92" y="78.57" width="17.9" height="45.5" fill="#0072bb"/><rect x="235.78" y="71.43" width="17.9" height="52.64" fill="#0072bb"/><rect x="260.65" y="70.1" width="17.9" height="53.96" fill="#0072bb"/><rect x="285.52" y="55.91" width="17.9" height="68.15" fill="#0072bb"/><rect x="310.38" y="54.54" width="17.9" height="69.53" fill="#0072bb"/><rect x="193.14" y="43.14" width="10.03" height="3.15" fill="#bbbdbf"/><rect x="193.14" y="56.55" width="10.03" height="3.15" fill="#bbbdbf"/><rect x="193.14" y="69.96" width="10.03" height="3.15" fill="#bbbdbf"/><rect x="193.14" y="82.95" width="10.03" height="3.15" fill="#bbbdbf"/><rect x="193.14" y="95.94" width="10.03" height="3.15" fill="#bbbdbf"/><rect x="193.14" y="109.35" width="10.03" height="3.15" fill="#bbbdbf"/><rect x="193.14" y="122.34" width="10.03" height="3.15" fill="#bbbdbf"/><path d="M222.15,140.18h-.38c-1.08-1.37-1.71-2.12-2.37-2.12a.71.71,0,0,0-.7.8,1.27,1.27,0,0,0,.48,1l-.3.3a1.65,1.65,0,0,1-.6-1.33,1.16,1.16,0,0,1,1.12-1.28c.78,0,1.49.79,2.33,1.85v-1.87h.42Z" fill="#5e5e5e"/><path d="M220.25,136.83c-.93,0-2-.41-2-1.45s1-1.46,2-1.46,2,.41,2,1.46S221.17,136.83,220.25,136.83Zm0-2.43c-.76,0-1.55.25-1.55,1s.79,1,1.55,1,1.55-.25,1.55-1S221,134.4,220.25,134.4Z" fill="#5e5e5e"/><path d="M222.15,132.61H219l.65.61-.29.29-1-1v-.42h3.81Z" fill="#5e5e5e"/><path d="M220.25,131.4c-1,0-2-.48-2-1.56a1.29,1.29,0,0,1,.46-1.05l.35.24a1,1,0,0,0-.39.81c0,.75.75,1.08,1.5,1.08h.15a1.38,1.38,0,0,1-.59-1.08,1.15,1.15,0,0,1,1.21-1.25,1.25,1.25,0,0,1,1.25,1.33C222.22,131,221.29,131.4,220.25,131.4Zm.74-2.33a.79.79,0,0,0-.82.88,1.15,1.15,0,0,0,.56,1c.48,0,1.07-.29,1.07-1A.84.84,0,0,0,221,129.07Z" fill="#5e5e5e"/><path d="M247.08,140h-.38c-1.08-1.37-1.71-2.12-2.37-2.12a.72.72,0,0,0-.7.8,1.28,1.28,0,0,0,.48,1l-.3.29a1.63,1.63,0,0,1-.6-1.33,1.16,1.16,0,0,1,1.12-1.28c.78,0,1.49.79,2.33,1.85v-1.87h.42Z" fill="#5e5e5e"/><path d="M245.17,136.62c-.93,0-2-.41-2-1.46s1-1.46,2-1.46,2,.42,2,1.46S246.1,136.62,245.17,136.62Zm0-2.43c-.76,0-1.54.24-1.54,1s.78,1,1.54,1,1.56-.24,1.56-1S245.94,134.19,245.17,134.19Z" fill="#5e5e5e"/><path d="M247.08,132.39h-3.19l.65.62-.29.28-1-.95v-.42h3.82Z" fill="#5e5e5e"/><path d="M247.08,130.78l-3.39-1.54v2.06h-.43v-2.61h.33l3.49,1.56Z" fill="#5e5e5e"/><path d="M271.9,140.15h-.39c-1.07-1.37-1.71-2.12-2.37-2.12a.71.71,0,0,0-.69.8,1.28,1.28,0,0,0,.48,1l-.31.29a1.63,1.63,0,0,1-.6-1.33,1.16,1.16,0,0,1,1.12-1.28c.78,0,1.49.79,2.33,1.85v-1.87h.43Z" fill="#5e5e5e"/><path d="M270,136.81c-.93,0-2-.41-2-1.46s1-1.46,2-1.46,2,.42,2,1.46S270.92,136.81,270,136.81Zm0-2.43c-.76,0-1.54.24-1.54,1s.78,1,1.54,1,1.55-.24,1.55-1S270.75,134.38,270,134.38Z" fill="#5e5e5e"/><path d="M271.9,132.58h-3.2l.65.62-.29.28-1-.95v-.42h3.82Z" fill="#5e5e5e"/><path d="M270.93,131.37a1.13,1.13,0,0,1-1-.91,1,1,0,0,1-.92.84c-.68,0-1-.67-1-1.3s.31-1.31,1-1.31a1,1,0,0,1,.92.85,1.13,1.13,0,0,1,1-.91c.65,0,1,.62,1,1.37S271.58,131.37,270.93,131.37Zm-1.86-2.2c-.39,0-.62.37-.62.83s.23.82.62.82.62-.59.66-.82S269.54,129.17,269.07,129.17Zm1.81-.06c-.5,0-.71.66-.74.89s.24.89.74.89.66-.42.66-.89S271.29,129.11,270.88,129.11Z" fill="#5e5e5e"/><path d="M297.52,140.18h-.38c-1.08-1.37-1.71-2.12-2.37-2.12a.71.71,0,0,0-.7.8,1.27,1.27,0,0,0,.48,1l-.3.3a1.65,1.65,0,0,1-.6-1.33,1.16,1.16,0,0,1,1.12-1.28c.78,0,1.49.79,2.33,1.85v-1.87h.42Z" fill="#5e5e5e"/><path d="M295.62,136.84c-.94,0-2-.42-2-1.46s1-1.46,2-1.46,2,.42,2,1.46S296.54,136.84,295.62,136.84Zm0-2.44c-.76,0-1.55.25-1.55,1s.79,1,1.55,1,1.55-.25,1.55-1S296.38,134.4,295.62,134.4Z" fill="#5e5e5e"/><path d="M297.52,132.61h-3.19l.65.61-.29.29-1-1v-.41h3.81Z" fill="#5e5e5e"/><path d="M297.13,131.21l-.36-.24a1,1,0,0,0,.39-.82c0-.77-.77-1.07-1.5-1.07h-.15a1.36,1.36,0,0,1,.6,1.08,1.16,1.16,0,0,1-1.22,1.25,1.26,1.26,0,0,1-1.25-1.34c0-1.06.93-1.47,2-1.47s2,.48,2,1.55A1.33,1.33,0,0,1,297.13,131.21Zm-2-2.12c-.47,0-1.05.3-1.05,1a.83.83,0,0,0,.8.88.8.8,0,0,0,.83-.88A1.18,1.18,0,0,0,295.12,129.09Z" fill="#5e5e5e"/><path d="M322.08,141h-.38c-1.08-1.37-1.71-2.12-2.37-2.12a.71.71,0,0,0-.7.8,1.27,1.27,0,0,0,.48,1l-.3.3a1.65,1.65,0,0,1-.6-1.33,1.16,1.16,0,0,1,1.12-1.28c.78,0,1.49.79,2.33,1.85v-1.87h.42Z" fill="#5e5e5e"/><path d="M320.18,137.61c-.94,0-2-.41-2-1.46s1-1.46,2-1.46,2,.42,2,1.46S321.1,137.61,320.18,137.61Zm0-2.44c-.76,0-1.55.25-1.55,1s.79,1,1.55,1,1.55-.25,1.55-1S320.94,135.17,320.18,135.17Z" fill="#5e5e5e"/><path d="M322.08,134.09h-.38c-1.08-1.37-1.71-2.12-2.37-2.12a.72.72,0,0,0-.7.8,1.27,1.27,0,0,0,.48,1l-.3.3a1.65,1.65,0,0,1-.6-1.33,1.16,1.16,0,0,1,1.12-1.28c.78,0,1.49.79,2.33,1.85v-1.87h.42Z" fill="#5e5e5e"/><path d="M320.18,130.75c-.94,0-2-.42-2-1.46s1-1.46,2-1.46,2,.42,2,1.46S321.1,130.75,320.18,130.75Zm0-2.44c-.76,0-1.55.25-1.55,1s.79,1,1.55,1,1.55-.25,1.55-1S320.94,128.31,320.18,128.31Z" fill="#5e5e5e"/><path d="M31.92,21.87V14.54h2.5a3.56,3.56,0,0,1,3.76,3.67,3.54,3.54,0,0,1-3.76,3.66Zm5.32-3.66a2.69,2.69,0,0,0-2.82-2.86H32.83v5.71h1.59A2.7,2.7,0,0,0,37.24,18.21Z" fill="#0072bc"/><path d="M39.26,19.21a2.63,2.63,0,1,1,5.26,0,2.63,2.63,0,1,1-5.26,0Zm4.39,0a1.78,1.78,0,1,0-3.52,0,1.78,1.78,0,1,0,3.52,0Z" fill="#0072bc"/><circle cx="17.55" cy="17.55" r="7.55" fill="#9dc5ff"/><circle cx="17.55" cy="17.55" r="4.8" fill="#0072bc"/><polyline points="14.8 17.55 16.63 19.38 20.29 15.72" fill="none" stroke="#fff" stroke-linecap="round" stroke-linejoin="round" stroke-width="0.75"/><path d="M201.92,21.87V14.54h2.5a3.56,3.56,0,0,1,3.76,3.67,3.54,3.54,0,0,1-3.76,3.66Zm5.32-3.66a2.69,2.69,0,0,0-2.82-2.86h-1.59v5.71h1.59A2.7,2.7,0,0,0,207.24,18.21Z" fill="#ef4a60"/><path d="M209.26,19.21a2.63,2.63,0,1,1,5.26,0,2.63,2.63,0,1,1-5.26,0Zm4.39,0a1.78,1.78,0,1,0-3.52,0,1.78,1.78,0,1,0,3.52,0Z" fill="#ef4a60"/><path d="M219.44,21.87V18.4c0-.95-.48-1.23-1.19-1.23a2.06,2.06,0,0,0-1.57.82v3.88h-.83V16.56h.83v.77a2.58,2.58,0,0,1,1.9-.9,1.5,1.5,0,0,1,1.68,1.71v3.73Z" fill="#ef4a60"/><path d="M222.07,16.93l-.42-.35a1.65,1.65,0,0,0,.71-1l-.15,0a.53.53,0,0,1-.53-.56.6.6,0,0,1,.58-.59c.38,0,.7.3.7.84A2.14,2.14,0,0,1,222.07,16.93Z" fill="#ef4a60"/><path d="M224.54,20.76V17.29h-.88v-.73h.88V15.11h.83v1.45h1.08v.73h-1.08v3.29c0,.4.18.68.53.68a.75.75,0,0,0,.56-.23l.24.63a1.32,1.32,0,0,1-1,.34A1.08,1.08,0,0,1,224.54,20.76Z" fill="#ef4a60"/><circle cx="187.55" cy="17.55" r="7.55" fill="#ffbcc1"/><circle cx="187.55" cy="17.55" r="4.8" fill="#ef4a60"/><line x1="189.55" y1="15.55" x2="185.55" y2="19.55" fill="none" stroke="#fff" stroke-linecap="round" stroke-linejoin="round" stroke-width="0.75"/><line x1="189.55" y1="19.55" x2="185.55" y2="15.55" fill="none" stroke="#fff" stroke-linecap="round" stroke-linejoin="round" stroke-width="0.75"/></svg>