<svg xmlns="http://www.w3.org/2000/svg" width="10cm" height="10cm" viewBox="0 0 283.46 283.46"><rect x="0.5" y="0.5" width="282.47" height="282.47" fill="#fff"/><rect width="283.46" height="283.46" fill="#fff"/><path d="M283.46,283.46H0V0H283.46ZM1,282.47H282.47V1H1Z" fill="#0d73bb"/><rect x="28.35" y="102.32" width="62.99" height="50.44" fill="#0d73bb"/><rect x="28.35" y="152.76" width="62.99" height="90.08" fill="#0d73bb"/><rect x="110.24" y="40.63" width="62.99" height="62.99" fill="#0d73bb"/><rect x="110.24" y="103.62" width="62.99" height="139.22" fill="#0d73bb"/><rect x="192.13" y="91.66" width="62.99" height="57.12" fill="#0d73bb"/><rect x="192.13" y="148.78" width="62.99" height="94.06" fill="#0d73bb"/><rect x="28.35" y="102.32" width="62.99" height="50.44" fill="#0d73bb"/><rect x="28.35" y="152.76" width="62.99" height="90.08" fill="#0d73bb"/><rect x="110.24" y="40.63" width="62.99" height="62.99" fill="#0d73bb"/><rect x="110.24" y="103.62" width="62.99" height="139.22" fill="#0d73bb"/><rect x="192.13" y="91.66" width="62.99" height="57.12" fill="#0d73bb"/><rect x="192.13" y="148.78" width="62.99" height="94.06" fill="#0d73bb"/><rect x="28.35" y="102.32" width="62.99" height="50.44" fill="none" stroke="#fff" stroke-miterlimit="10"/><rect x="28.35" y="152.76" width="62.99" height="90.08" fill="none" stroke="#fff" stroke-miterlimit="10"/><rect x="110.24" y="40.63" width="62.99" height="62.99" fill="none" stroke="#fff" stroke-miterlimit="10"/><rect x="110.24" y="103.62" width="62.99" height="139.22" fill="none" stroke="#fff" stroke-miterlimit="10"/><rect x="192.13" y="91.66" width="62.99" height="57.12" fill="none" stroke="#fff" stroke-miterlimit="10"/><rect x="192.13" y="148.78" width="62.99" height="94.06" fill="none" stroke="#fff" stroke-miterlimit="10"/></svg>