<svg xmlns="http://www.w3.org/2000/svg" width="350" height="148" viewBox="0 0 350 148"><rect width="350" height="148" fill="#f1f2f2"/><rect x="44.95" y="34.38" width="10.03" height="3.15" fill="#bbbdbf"/><rect x="73.95" y="34.38" width="10.03" height="3.15" fill="#bbbdbf"/><rect x="103.95" y="34.38" width="10.03" height="3.15" fill="#bbbdbf"/><rect x="31.99" y="33.22" width="11" height="6" fill="#18375f"/><rect x="60.99" y="33.22" width="11" height="6" fill="#0072bb"/><rect x="90.99" y="33.22" width="11" height="6" fill="#9dc5ff"/><line x1="148.01" y1="125.7" x2="46.73" y2="125.7" fill="none" stroke="#000" stroke-miterlimit="10" stroke-width="0.5"/><line x1="148.01" y1="112.79" x2="46.73" y2="112.79" fill="none" stroke="#d0d2d3" stroke-linecap="round" stroke-linejoin="round" stroke-width="0.25"/><line x1="148.01" y1="99.83" x2="46.73" y2="99.83" fill="none" stroke="#d0d2d3" stroke-linecap="round" stroke-linejoin="round" stroke-width="0.25"/><line x1="148.01" y1="86.87" x2="46.73" y2="86.87" fill="none" stroke="#d0d2d3" stroke-linecap="round" stroke-linejoin="round" stroke-width="0.25"/><line x1="148.01" y1="73.91" x2="46.73" y2="73.91" fill="none" stroke="#d0d2d3" stroke-linecap="round" stroke-linejoin="round" stroke-width="0.25"/><line x1="148.01" y1="60.94" x2="46.73" y2="60.94" fill="none" stroke="#d0d2d3" stroke-linecap="round" stroke-linejoin="round" stroke-width="0.25"/><line x1="148.01" y1="47.98" x2="46.73" y2="47.98" fill="none" stroke="#d0d2d3" stroke-linecap="round" stroke-linejoin="round" stroke-width="0.25"/><rect x="130.3" y="50.05" width="14.48" height="75.38" fill="#9dc5ff"/><rect x="110.19" y="67.77" width="14.48" height="57.66" fill="#9dc5ff"/><rect x="90.08" y="73.55" width="14.48" height="51.88" fill="#9dc5ff"/><rect x="69.97" y="84.27" width="14.48" height="41.16" fill="#9dc5ff"/><rect x="49.86" y="94.16" width="14.48" height="31.27" fill="#9dc5ff"/><rect x="130.3" y="80.14" width="14.48" height="45.29" fill="#0072bb"/><rect x="110.19" y="90.79" width="14.48" height="34.64" fill="#0072bb"/><rect x="90.08" y="94.26" width="14.48" height="31.17" fill="#0072bb"/><rect x="69.97" y="100.7" width="14.48" height="24.73" fill="#0072bb"/><rect x="49.86" y="106.65" width="14.48" height="18.78" fill="#0072bb"/><rect x="130.3" y="104.89" width="14.48" height="20.55" fill="#18375f"/><rect x="110.19" y="109.72" width="14.48" height="15.72" fill="#18375f"/><rect x="90.08" y="111.29" width="14.48" height="14.14" fill="#18375f"/><rect x="69.97" y="114.21" width="14.48" height="11.22" fill="#18375f"/><rect x="49.86" y="116.91" width="14.48" height="8.52" fill="#18375f"/><rect x="31.99" y="123.46" width="11.14" height="3.15" fill="#bbbdbf"/><rect x="31.99" y="111.46" width="11.14" height="3.15" fill="#bbbdbf"/><rect x="31.99" y="98.46" width="11.14" height="3.15" fill="#bbbdbf"/><rect x="31.99" y="85.46" width="11.14" height="3.15" fill="#bbbdbf"/><rect x="31.99" y="72.46" width="11.14" height="3.15" fill="#bbbdbf"/><rect x="31.99" y="59.46" width="11.14" height="3.15" fill="#bbbdbf"/><rect x="31.99" y="46.46" width="11.14" height="3.15" fill="#bbbdbf"/><rect x="51.76" y="129.46" width="11.14" height="3.15" fill="#bbbdbf"/><rect x="71.42" y="129.46" width="11.14" height="3.15" fill="#bbbdbf"/><rect x="92.08" y="129.46" width="11.14" height="3.15" fill="#bbbdbf"/><rect x="111.74" y="129.46" width="11.14" height="3.15" fill="#bbbdbf"/><rect x="132.4" y="129.46" width="11.14" height="3.15" fill="#bbbdbf"/><rect x="214.95" y="34.38" width="10.03" height="3.15" fill="#bbbdbf"/><rect x="243.95" y="34.38" width="10.03" height="3.15" fill="#bbbdbf"/><rect x="273.95" y="34.38" width="10.03" height="3.15" fill="#bbbdbf"/><rect x="201.99" y="33.22" width="11" height="6" fill="#0072bc"/><rect x="230.99" y="33.22" width="11" height="6" fill="#9dc5ff"/><rect x="260.99" y="33.22" width="11" height="6" fill="#18375f"/><line x1="318.01" y1="125.7" x2="216.73" y2="125.7" fill="none" stroke="#000" stroke-miterlimit="10" stroke-width="0.5"/><line x1="318.01" y1="112.79" x2="216.73" y2="112.79" fill="none" stroke="#d0d2d3" stroke-linecap="round" stroke-linejoin="round" stroke-width="0.25"/><line x1="318.01" y1="99.83" x2="216.73" y2="99.83" fill="none" stroke="#d0d2d3" stroke-linecap="round" stroke-linejoin="round" stroke-width="0.25"/><line x1="318.01" y1="86.87" x2="216.73" y2="86.87" fill="none" stroke="#d0d2d3" stroke-linecap="round" stroke-linejoin="round" stroke-width="0.25"/><line x1="318.01" y1="73.91" x2="216.73" y2="73.91" fill="none" stroke="#d0d2d3" stroke-linecap="round" stroke-linejoin="round" stroke-width="0.25"/><line x1="318.01" y1="60.94" x2="216.73" y2="60.94" fill="none" stroke="#d0d2d3" stroke-linecap="round" stroke-linejoin="round" stroke-width="0.25"/><line x1="318.01" y1="47.98" x2="216.73" y2="47.98" fill="none" stroke="#d0d2d3" stroke-linecap="round" stroke-linejoin="round" stroke-width="0.25"/><rect x="300.3" y="50.05" width="14.48" height="75.38" fill="#9dc5ff"/><rect x="280.19" y="67.77" width="14.48" height="57.66" fill="#9dc5ff"/><rect x="260.08" y="73.55" width="14.48" height="51.88" fill="#9dc5ff"/><rect x="239.97" y="84.27" width="14.48" height="41.16" fill="#9dc5ff"/><rect x="219.86" y="94.16" width="14.48" height="31.27" fill="#9dc5ff"/><rect x="300.3" y="80.14" width="14.48" height="45.29" fill="#0072bb"/><rect x="280.19" y="90.79" width="14.48" height="34.64" fill="#0072bb"/><rect x="260.08" y="94.26" width="14.48" height="31.17" fill="#0072bb"/><rect x="239.97" y="100.7" width="14.48" height="24.73" fill="#0072bb"/><rect x="219.86" y="106.65" width="14.48" height="18.78" fill="#0072bb"/><rect x="300.3" y="104.89" width="14.48" height="20.55" fill="#18375f"/><rect x="280.19" y="109.72" width="14.48" height="15.72" fill="#18375f"/><rect x="260.08" y="111.29" width="14.48" height="14.14" fill="#18375f"/><rect x="239.97" y="114.21" width="14.48" height="11.22" fill="#18375f"/><rect x="219.86" y="116.91" width="14.48" height="8.52" fill="#18375f"/><rect x="201.99" y="123.46" width="11.14" height="3.15" fill="#bbbdbf"/><rect x="201.99" y="111.46" width="11.14" height="3.15" fill="#bbbdbf"/><rect x="201.99" y="98.46" width="11.14" height="3.15" fill="#bbbdbf"/><rect x="201.99" y="85.46" width="11.14" height="3.15" fill="#bbbdbf"/><rect x="201.99" y="72.46" width="11.14" height="3.15" fill="#bbbdbf"/><rect x="201.99" y="59.46" width="11.14" height="3.15" fill="#bbbdbf"/><rect x="201.99" y="46.46" width="11.14" height="3.15" fill="#bbbdbf"/><rect x="221.76" y="129.46" width="11.14" height="3.15" fill="#bbbdbf"/><rect x="241.42" y="129.46" width="11.14" height="3.15" fill="#bbbdbf"/><rect x="262.08" y="129.46" width="11.14" height="3.15" fill="#bbbdbf"/><rect x="281.74" y="129.46" width="11.14" height="3.15" fill="#bbbdbf"/><rect x="302.4" y="129.46" width="11.14" height="3.15" fill="#bbbdbf"/><path d="M31.92,21.87V14.54h2.5a3.56,3.56,0,0,1,3.76,3.67,3.54,3.54,0,0,1-3.76,3.66Zm5.32-3.66a2.69,2.69,0,0,0-2.82-2.86H32.83v5.71h1.59A2.7,2.7,0,0,0,37.24,18.21Z" fill="#0072bc"/><path d="M39.26,19.21a2.63,2.63,0,1,1,5.26,0,2.63,2.63,0,1,1-5.26,0Zm4.39,0a1.78,1.78,0,1,0-3.52,0,1.78,1.78,0,1,0,3.52,0Z" fill="#0072bc"/><circle cx="17.55" cy="17.55" r="7.55" fill="#9dc5ff"/><circle cx="17.55" cy="17.55" r="4.8" fill="#0072bc"/><polyline points="14.8 17.55 16.63 19.38 20.29 15.72" fill="none" stroke="#fff" stroke-linecap="round" stroke-linejoin="round" stroke-width="0.75"/><path d="M201.92,21.87V14.54h2.5a3.56,3.56,0,0,1,3.76,3.67,3.54,3.54,0,0,1-3.76,3.66Zm5.32-3.66a2.69,2.69,0,0,0-2.82-2.86h-1.59v5.71h1.59A2.7,2.7,0,0,0,207.24,18.21Z" fill="#ef4a60"/><path d="M209.27,19.21a2.63,2.63,0,1,1,5.25,0,2.63,2.63,0,1,1-5.25,0Zm4.38,0a1.78,1.78,0,1,0-3.52,0,1.78,1.78,0,1,0,3.52,0Z" fill="#ef4a60"/><path d="M219.44,21.87V18.4c0-.95-.48-1.23-1.19-1.23a2.06,2.06,0,0,0-1.57.82v3.88h-.83V16.56h.83v.77a2.58,2.58,0,0,1,1.9-.9,1.5,1.5,0,0,1,1.68,1.71v3.73Z" fill="#ef4a60"/><path d="M222.07,16.93l-.42-.35a1.65,1.65,0,0,0,.71-1l-.15,0a.53.53,0,0,1-.53-.56.6.6,0,0,1,.59-.59c.37,0,.69.3.69.84A2.14,2.14,0,0,1,222.07,16.93Z" fill="#ef4a60"/><path d="M224.54,20.76V17.29h-.88v-.73h.88V15.11h.83v1.45h1.08v.73h-1.08v3.29c0,.4.18.68.53.68a.75.75,0,0,0,.56-.23l.24.63a1.32,1.32,0,0,1-1,.34A1.08,1.08,0,0,1,224.54,20.76Z" fill="#ef4a60"/><circle cx="187.55" cy="17.55" r="7.55" fill="#ffbcc1"/><circle cx="187.55" cy="17.55" r="4.8" fill="#ef4a60"/><line x1="189.55" y1="15.55" x2="185.55" y2="19.55" fill="none" stroke="#fff" stroke-linecap="round" stroke-linejoin="round" stroke-width="0.75"/><line x1="189.55" y1="19.55" x2="185.55" y2="15.55" fill="none" stroke="#fff" stroke-linecap="round" stroke-linejoin="round" stroke-width="0.75"/></svg>