<?xml version="1.0" encoding="utf-8" standalone="no"?>
<!DOCTYPE svg PUBLIC "-//W3C//DTD SVG 1.1//EN"
  "http://www.w3.org/Graphics/SVG/1.1/DTD/svg11.dtd">
<svg xmlns:xlink="http://www.w3.org/1999/xlink" width="504pt" height="414pt" viewBox="0 0 504 414" xmlns="http://www.w3.org/2000/svg" version="1.1">
 <metadata>
  <rdf:RDF xmlns:dc="http://purl.org/dc/elements/1.1/" xmlns:cc="http://creativecommons.org/ns#" xmlns:rdf="http://www.w3.org/1999/02/22-rdf-syntax-ns#">
   <cc:Work>
    <dc:type rdf:resource="http://purl.org/dc/dcmitype/StillImage"/>
    <dc:date>2022-03-16T15:15:14.264675</dc:date>
    <dc:format>image/svg+xml</dc:format>
    <dc:creator>
     <cc:Agent>
      <dc:title>Matplotlib v3.5.1, https://matplotlib.org/</dc:title>
     </cc:Agent>
    </dc:creator>
   </cc:Work>
  </rdf:RDF>
 </metadata>
 <defs>
  <style type="text/css">*{stroke-linejoin: round; stroke-linecap: butt}</style>
 </defs>
 <g id="figure_1">
  <g id="patch_1">
   <path d="M 0 414 
L 504 414 
L 504 0 
L 0 0 
z
" style="fill: #ffffff"/>
  </g>
  <g id="axes_1">
   <g id="patch_2">
    <path d="M 225.533154 366.418989 
C 244.255905 370.111507 263.545843 369.845333 282.159582 365.637624 
C 300.773321 361.429914 318.302146 353.373061 333.616187 341.986391 
C 348.930228 330.599722 361.693224 316.133261 371.082501 299.519484 
C 380.471778 282.905707 386.281169 264.509415 388.136213 245.516393 
C 389.991258 226.52337 387.851223 207.35066 381.85405 189.234092 
C 375.856878 171.117524 366.134253 154.454898 353.312873 140.320248 
C 340.491493 126.185598 324.852887 114.88929 307.405085 107.159458 
C 289.957283 99.429626 271.083399 95.436 252 95.436 
L 252 232.22 
L 225.533154 366.418989 
z
" style="fill: #0072bc"/>
   </g>
   <g id="patch_3">
    <path d="M 252.000026 95.436 
C 218.034633 95.435994 185.257678 108.087115 160.100262 130.907114 
C 134.942846 153.727113 119.165473 185.119056 115.863788 218.923594 
C 112.562103 252.728133 121.967158 286.57964 142.233605 313.836182 
C 162.500052 341.092723 192.209655 359.846899 225.533154 366.418989 
L 252 232.22 
L 252.000026 95.436 
z
" style="fill: #8ebeff"/>
   </g>
   <g id="matplotlib.axis_1"/>
   <g id="matplotlib.axis_2"/>
   <g id="text_1">
    <!-- Received -->
    <g style="fill: #333333" transform="translate(401.749835 249.723376)scale(0.1 -0.1)">
     <defs>
      <path id="Lato-Bold-52" d="M 1357 1808 
L 1357 0 
L 496 0 
L 496 4627 
L 1907 4627 
Q 2381 4627 2718 4529 
Q 3056 4432 3272 4256 
Q 3488 4080 3589 3835 
Q 3690 3590 3690 3296 
Q 3690 3062 3621 2854 
Q 3552 2646 3422 2476 
Q 3293 2307 3102 2179 
Q 2912 2051 2669 1974 
Q 2832 1882 2950 1709 
L 4109 0 
L 3334 0 
Q 3222 0 3144 45 
Q 3066 90 3011 173 
L 2038 1654 
Q 1984 1738 1918 1773 
Q 1853 1808 1725 1808 
L 1357 1808 
z
M 1357 2426 
L 1894 2426 
Q 2138 2426 2318 2486 
Q 2499 2547 2616 2654 
Q 2733 2762 2790 2909 
Q 2848 3056 2848 3232 
Q 2848 3584 2616 3773 
Q 2384 3962 1907 3962 
L 1357 3962 
L 1357 2426 
z
" transform="scale(0.015625)"/>
      <path id="Lato-Bold-65" d="M 1779 3334 
Q 2090 3334 2350 3235 
Q 2611 3136 2800 2945 
Q 2989 2755 3094 2478 
Q 3200 2202 3200 1846 
Q 3200 1757 3192 1697 
Q 3184 1638 3163 1604 
Q 3142 1571 3107 1556 
Q 3072 1542 3018 1542 
L 989 1542 
Q 1024 1037 1261 800 
Q 1498 563 1888 563 
Q 2080 563 2219 608 
Q 2358 653 2462 707 
Q 2566 762 2644 806 
Q 2723 851 2797 851 
Q 2845 851 2880 832 
Q 2915 813 2941 778 
L 3171 490 
Q 3040 336 2877 232 
Q 2714 128 2536 65 
Q 2358 3 2174 -22 
Q 1990 -48 1818 -48 
Q 1475 -48 1180 65 
Q 886 179 668 401 
Q 451 624 326 952 
Q 202 1280 202 1712 
Q 202 2048 310 2344 
Q 419 2640 622 2859 
Q 826 3078 1118 3206 
Q 1411 3334 1779 3334 
z
M 1795 2768 
Q 1450 2768 1254 2573 
Q 1059 2378 1005 2019 
L 2490 2019 
Q 2490 2173 2448 2309 
Q 2406 2445 2320 2547 
Q 2234 2650 2102 2709 
Q 1971 2768 1795 2768 
z
" transform="scale(0.015625)"/>
      <path id="Lato-Bold-63" d="M 2730 2589 
Q 2694 2544 2660 2518 
Q 2627 2493 2563 2493 
Q 2502 2493 2444 2529 
Q 2387 2566 2307 2612 
Q 2227 2659 2116 2696 
Q 2006 2733 1843 2733 
Q 1635 2733 1478 2657 
Q 1322 2582 1218 2441 
Q 1114 2301 1062 2101 
Q 1011 1901 1011 1648 
Q 1011 1386 1067 1181 
Q 1123 976 1228 837 
Q 1334 698 1484 626 
Q 1635 554 1824 554 
Q 2013 554 2129 600 
Q 2246 646 2326 702 
Q 2406 758 2465 804 
Q 2525 851 2598 851 
Q 2694 851 2742 778 
L 2970 490 
Q 2838 336 2684 232 
Q 2531 128 2366 65 
Q 2202 3 2026 -22 
Q 1850 -48 1677 -48 
Q 1373 -48 1104 65 
Q 835 179 635 396 
Q 435 614 318 929 
Q 202 1245 202 1648 
Q 202 2010 306 2318 
Q 410 2627 611 2852 
Q 813 3078 1110 3206 
Q 1408 3334 1795 3334 
Q 2163 3334 2440 3216 
Q 2717 3098 2938 2877 
L 2730 2589 
z
" transform="scale(0.015625)"/>
      <path id="Lato-Bold-69" d="M 1264 3283 
L 1264 0 
L 474 0 
L 474 3283 
L 1264 3283 
z
M 1382 4240 
Q 1382 4138 1340 4048 
Q 1299 3958 1230 3891 
Q 1162 3824 1069 3784 
Q 976 3744 870 3744 
Q 768 3744 677 3784 
Q 586 3824 518 3891 
Q 451 3958 411 4048 
Q 371 4138 371 4240 
Q 371 4346 411 4438 
Q 451 4531 518 4598 
Q 586 4666 677 4706 
Q 768 4746 870 4746 
Q 976 4746 1069 4706 
Q 1162 4666 1230 4598 
Q 1299 4531 1340 4438 
Q 1382 4346 1382 4240 
z
" transform="scale(0.015625)"/>
      <path id="Lato-Bold-76" d="M 2067 0 
L 1350 0 
L 45 3283 
L 701 3283 
Q 787 3283 846 3241 
Q 906 3200 928 3136 
L 1562 1382 
Q 1616 1229 1653 1081 
Q 1690 934 1718 787 
Q 1747 934 1784 1081 
Q 1821 1229 1878 1382 
L 2528 3136 
Q 2550 3200 2608 3241 
Q 2666 3283 2746 3283 
L 3370 3283 
L 2067 0 
z
" transform="scale(0.015625)"/>
      <path id="Lato-Bold-64" d="M 2733 0 
Q 2579 0 2531 144 
L 2467 461 
Q 2365 346 2253 253 
Q 2141 160 2011 93 
Q 1882 26 1733 -11 
Q 1584 -48 1411 -48 
Q 1142 -48 918 64 
Q 694 176 532 389 
Q 371 602 283 915 
Q 195 1229 195 1632 
Q 195 1997 294 2310 
Q 394 2624 579 2854 
Q 765 3085 1024 3214 
Q 1283 3344 1606 3344 
Q 1882 3344 2077 3256 
Q 2272 3168 2426 3021 
L 2426 4755 
L 3216 4755 
L 3216 0 
L 2733 0 
z
M 1680 579 
Q 1926 579 2099 681 
Q 2272 784 2426 973 
L 2426 2445 
Q 2291 2608 2132 2675 
Q 1974 2742 1792 2742 
Q 1613 2742 1467 2675 
Q 1322 2608 1221 2472 
Q 1120 2336 1065 2126 
Q 1011 1917 1011 1632 
Q 1011 1344 1057 1144 
Q 1104 944 1190 817 
Q 1277 691 1401 635 
Q 1526 579 1680 579 
z
" transform="scale(0.015625)"/>
     </defs>
     <use xlink:href="#Lato-Bold-52"/>
     <use xlink:href="#Lato-Bold-65" x="65.500015"/>
     <use xlink:href="#Lato-Bold-63" x="118.950027"/>
     <use xlink:href="#Lato-Bold-65" x="166.65004"/>
     <use xlink:href="#Lato-Bold-69" x="220.100052"/>
     <use xlink:href="#Lato-Bold-76" x="247.200058"/>
     <use xlink:href="#Lato-Bold-65" x="300.550064"/>
     <use xlink:href="#Lato-Bold-64" x="354.000076"/>
    </g>
   </g>
   <g id="text_2">
    <!-- 53.1% -->
    <g style="fill: #333333" transform="translate(340.262316 245.069638)scale(0.1 -0.1)">
     <defs>
      <path id="Lato-Bold-35" d="M 3165 4291 
Q 3165 4122 3057 4016 
Q 2950 3910 2701 3910 
L 1427 3910 
L 1261 2944 
Q 1574 3008 1834 3008 
Q 2198 3008 2475 2899 
Q 2752 2790 2941 2598 
Q 3130 2406 3226 2148 
Q 3322 1891 3322 1594 
Q 3322 1226 3192 922 
Q 3062 618 2832 402 
Q 2602 186 2286 67 
Q 1971 -51 1600 -51 
Q 1382 -51 1187 -6 
Q 992 38 821 113 
Q 650 189 504 286 
Q 358 384 243 493 
L 486 829 
Q 563 938 691 938 
Q 771 938 852 886 
Q 934 835 1043 774 
Q 1152 714 1296 662 
Q 1440 611 1645 611 
Q 1862 611 2028 681 
Q 2195 752 2305 878 
Q 2416 1005 2472 1179 
Q 2528 1354 2528 1558 
Q 2528 1936 2309 2149 
Q 2090 2362 1664 2362 
Q 1328 2362 989 2240 
L 496 2381 
L 880 4627 
L 3165 4627 
L 3165 4291 
z
" transform="scale(0.015625)"/>
      <path id="Lato-Bold-33" d="M 2000 4678 
Q 2320 4678 2577 4587 
Q 2835 4496 3017 4334 
Q 3200 4173 3297 3955 
Q 3395 3738 3395 3485 
Q 3395 3264 3345 3096 
Q 3296 2928 3201 2803 
Q 3107 2678 2971 2592 
Q 2835 2506 2662 2448 
Q 3078 2317 3283 2048 
Q 3488 1779 3488 1373 
Q 3488 1027 3360 761 
Q 3232 496 3014 315 
Q 2797 134 2510 41 
Q 2224 -51 1904 -51 
Q 1555 -51 1296 29 
Q 1037 109 845 265 
Q 653 422 518 649 
Q 384 877 288 1174 
L 637 1318 
Q 726 1357 819 1357 
Q 902 1357 968 1321 
Q 1034 1286 1069 1219 
Q 1126 1107 1195 998 
Q 1264 890 1360 805 
Q 1456 720 1585 667 
Q 1715 614 1894 614 
Q 2096 614 2246 680 
Q 2397 746 2497 851 
Q 2598 957 2648 1086 
Q 2698 1216 2698 1347 
Q 2698 1514 2662 1650 
Q 2627 1786 2515 1882 
Q 2403 1978 2193 2032 
Q 1984 2086 1632 2086 
L 1632 2650 
Q 1923 2653 2115 2704 
Q 2307 2755 2420 2846 
Q 2534 2938 2579 3066 
Q 2624 3194 2624 3347 
Q 2624 3677 2445 3845 
Q 2266 4013 1955 4013 
Q 1674 4013 1488 3864 
Q 1302 3715 1229 3482 
Q 1190 3360 1123 3307 
Q 1056 3254 947 3254 
Q 896 3254 838 3264 
L 422 3338 
Q 470 3670 608 3921 
Q 746 4173 952 4341 
Q 1158 4509 1425 4593 
Q 1693 4678 2000 4678 
z
" transform="scale(0.015625)"/>
      <path id="Lato-Bold-2e" d="M 234 435 
Q 234 534 270 624 
Q 307 714 372 778 
Q 438 842 528 880 
Q 618 918 720 918 
Q 819 918 908 880 
Q 998 842 1062 778 
Q 1126 714 1164 624 
Q 1203 534 1203 435 
Q 1203 333 1164 245 
Q 1126 157 1062 93 
Q 998 29 908 -8 
Q 819 -45 720 -45 
Q 618 -45 528 -8 
Q 438 29 372 93 
Q 307 157 270 245 
Q 234 333 234 435 
z
" transform="scale(0.015625)"/>
      <path id="Lato-Bold-31" d="M 861 592 
L 1798 592 
L 1798 3290 
Q 1798 3446 1808 3619 
L 1142 3062 
Q 1101 3027 1057 3014 
Q 1014 3002 973 3002 
Q 909 3002 856 3029 
Q 803 3056 778 3091 
L 528 3434 
L 1939 4634 
L 2589 4634 
L 2589 592 
L 3421 592 
L 3421 0 
L 861 0 
L 861 592 
z
" transform="scale(0.015625)"/>
      <path id="Lato-Bold-25" d="M 2333 3507 
Q 2333 3245 2245 3033 
Q 2157 2822 2009 2673 
Q 1862 2525 1667 2445 
Q 1472 2365 1261 2365 
Q 1030 2365 835 2445 
Q 640 2525 497 2673 
Q 355 2822 275 3033 
Q 195 3245 195 3507 
Q 195 3776 275 3993 
Q 355 4211 497 4361 
Q 640 4512 835 4593 
Q 1030 4675 1261 4675 
Q 1491 4675 1688 4593 
Q 1885 4512 2029 4361 
Q 2173 4211 2253 3993 
Q 2333 3776 2333 3507 
z
M 1722 3507 
Q 1722 3693 1686 3817 
Q 1651 3942 1588 4019 
Q 1526 4096 1441 4129 
Q 1357 4163 1261 4163 
Q 1165 4163 1081 4129 
Q 998 4096 937 4019 
Q 877 3942 843 3817 
Q 810 3693 810 3507 
Q 810 3328 843 3208 
Q 877 3088 937 3014 
Q 998 2941 1081 2909 
Q 1165 2877 1261 2877 
Q 1357 2877 1441 2909 
Q 1526 2941 1588 3014 
Q 1651 3088 1686 3208 
Q 1722 3328 1722 3507 
z
M 3872 4502 
Q 3910 4550 3968 4588 
Q 4026 4627 4128 4627 
L 4701 4627 
L 1264 118 
Q 1226 67 1166 33 
Q 1107 0 1024 0 
L 435 0 
L 3872 4502 
z
M 4944 1088 
Q 4944 826 4856 614 
Q 4768 403 4621 254 
Q 4474 106 4278 24 
Q 4083 -58 3872 -58 
Q 3642 -58 3446 24 
Q 3251 106 3108 254 
Q 2966 403 2886 614 
Q 2806 826 2806 1088 
Q 2806 1357 2886 1574 
Q 2966 1792 3108 1942 
Q 3251 2093 3446 2174 
Q 3642 2256 3872 2256 
Q 4102 2256 4299 2174 
Q 4496 2093 4640 1942 
Q 4784 1792 4864 1574 
Q 4944 1357 4944 1088 
z
M 4336 1088 
Q 4336 1274 4299 1398 
Q 4262 1523 4200 1600 
Q 4138 1677 4053 1710 
Q 3968 1744 3872 1744 
Q 3776 1744 3693 1710 
Q 3610 1677 3550 1600 
Q 3491 1523 3456 1398 
Q 3421 1274 3421 1088 
Q 3421 909 3456 787 
Q 3491 666 3550 592 
Q 3610 518 3693 486 
Q 3776 454 3872 454 
Q 3968 454 4053 486 
Q 4138 518 4200 592 
Q 4262 666 4299 787 
Q 4336 909 4336 1088 
z
" transform="scale(0.015625)"/>
     </defs>
     <use xlink:href="#Lato-Bold-35"/>
     <use xlink:href="#Lato-Bold-33" x="58"/>
     <use xlink:href="#Lato-Bold-2e" x="116"/>
     <use xlink:href="#Lato-Bold-31" x="138.5"/>
     <use xlink:href="#Lato-Bold-25" x="196.5"/>
    </g>
   </g>
   <g id="text_3">
    <!-- Gap -->
    <g style="fill: #333333" transform="translate(84.131417 220.471298)scale(0.1 -0.1)">
     <defs>
      <path id="Lato-Bold-47" d="M 2592 634 
Q 2883 634 3099 686 
Q 3315 739 3510 832 
L 3510 1674 
L 2931 1674 
Q 2848 1674 2800 1720 
Q 2752 1766 2752 1834 
L 2752 2320 
L 4291 2320 
L 4291 448 
Q 4115 320 3924 225 
Q 3734 131 3518 70 
Q 3302 10 3056 -20 
Q 2810 -51 2525 -51 
Q 2019 -51 1593 125 
Q 1168 301 857 614 
Q 547 928 372 1363 
Q 198 1798 198 2314 
Q 198 2835 368 3270 
Q 538 3706 850 4019 
Q 1162 4333 1606 4505 
Q 2051 4678 2605 4678 
Q 3171 4678 3585 4510 
Q 4000 4342 4288 4074 
L 4038 3683 
Q 3965 3565 3843 3565 
Q 3766 3565 3686 3616 
Q 3584 3677 3477 3737 
Q 3370 3798 3240 3843 
Q 3110 3888 2948 3917 
Q 2787 3946 2576 3946 
Q 2234 3946 1957 3830 
Q 1680 3715 1485 3500 
Q 1290 3286 1184 2985 
Q 1078 2685 1078 2314 
Q 1078 1914 1190 1602 
Q 1302 1290 1504 1075 
Q 1706 861 1984 747 
Q 2262 634 2592 634 
z
" transform="scale(0.015625)"/>
      <path id="Lato-Bold-61" d="M 2995 0 
L 2640 0 
Q 2528 0 2464 33 
Q 2400 67 2368 170 
L 2298 403 
Q 2173 291 2053 206 
Q 1933 122 1805 64 
Q 1677 6 1533 -22 
Q 1389 -51 1213 -51 
Q 1005 -51 829 5 
Q 653 61 526 173 
Q 400 285 329 451 
Q 259 618 259 838 
Q 259 1024 356 1205 
Q 454 1386 681 1531 
Q 909 1677 1286 1773 
Q 1664 1869 2224 1882 
L 2224 2074 
Q 2224 2403 2085 2561 
Q 1946 2720 1680 2720 
Q 1488 2720 1360 2675 
Q 1232 2630 1137 2574 
Q 1043 2518 963 2473 
Q 883 2429 787 2429 
Q 707 2429 649 2470 
Q 592 2512 557 2573 
L 413 2826 
Q 979 3344 1779 3344 
Q 2067 3344 2292 3249 
Q 2518 3155 2675 2987 
Q 2832 2819 2913 2585 
Q 2995 2352 2995 2074 
L 2995 0 
z
M 1459 493 
Q 1581 493 1683 515 
Q 1786 538 1877 582 
Q 1968 627 2053 692 
Q 2138 758 2224 848 
L 2224 1402 
Q 1878 1386 1646 1342 
Q 1414 1299 1273 1232 
Q 1133 1165 1073 1075 
Q 1014 986 1014 880 
Q 1014 672 1137 582 
Q 1261 493 1459 493 
z
" transform="scale(0.015625)"/>
      <path id="Lato-Bold-70" d="M 422 -1072 
L 422 3283 
L 906 3283 
Q 982 3283 1036 3248 
Q 1091 3213 1107 3139 
L 1171 2835 
Q 1370 3062 1627 3203 
Q 1885 3344 2230 3344 
Q 2499 3344 2721 3232 
Q 2944 3120 3105 2907 
Q 3267 2694 3355 2382 
Q 3443 2070 3443 1667 
Q 3443 1299 3344 985 
Q 3245 672 3061 441 
Q 2877 211 2616 81 
Q 2355 -48 2032 -48 
Q 1754 -48 1560 37 
Q 1366 122 1213 272 
L 1213 -1072 
L 422 -1072 
z
M 1958 2720 
Q 1712 2720 1537 2616 
Q 1363 2512 1213 2323 
L 1213 851 
Q 1347 685 1505 619 
Q 1664 554 1846 554 
Q 2026 554 2171 621 
Q 2317 688 2417 825 
Q 2518 963 2572 1172 
Q 2627 1382 2627 1667 
Q 2627 1955 2580 2155 
Q 2534 2355 2448 2480 
Q 2362 2605 2238 2662 
Q 2115 2720 1958 2720 
z
" transform="scale(0.015625)"/>
     </defs>
     <use xlink:href="#Lato-Bold-47"/>
     <use xlink:href="#Lato-Bold-61" x="72.300003"/>
     <use xlink:href="#Lato-Bold-70" x="124.650009"/>
    </g>
   </g>
   <g id="text_4">
    <!-- 46.9% -->
    <g style="fill: #333333" transform="translate(136.057997 225.12504)scale(0.1 -0.1)">
     <defs>
      <path id="Lato-Bold-34" d="M 3014 1744 
L 3597 1744 
L 3597 1286 
Q 3597 1222 3555 1176 
Q 3514 1130 3434 1130 
L 3014 1130 
L 3014 0 
L 2323 0 
L 2323 1130 
L 371 1130 
Q 291 1130 230 1179 
Q 170 1229 154 1302 
L 74 1702 
L 2266 4630 
L 3014 4630 
L 3014 1744 
z
M 2323 3258 
Q 2323 3360 2329 3478 
Q 2336 3597 2352 3725 
L 915 1744 
L 2323 1744 
L 2323 3258 
z
" transform="scale(0.015625)"/>
      <path id="Lato-Bold-36" d="M 2144 2890 
Q 2406 2890 2654 2803 
Q 2902 2717 3091 2542 
Q 3280 2368 3395 2109 
Q 3510 1850 3510 1504 
Q 3510 1181 3392 897 
Q 3274 614 3059 403 
Q 2845 192 2542 70 
Q 2240 -51 1875 -51 
Q 1504 -51 1209 67 
Q 915 186 707 398 
Q 499 611 388 910 
Q 278 1210 278 1574 
Q 278 1901 411 2245 
Q 544 2589 822 2960 
L 1926 4442 
Q 1984 4518 2094 4572 
Q 2205 4627 2349 4627 
L 3053 4627 
L 1680 2947 
Q 1635 2893 1595 2845 
Q 1555 2797 1517 2746 
Q 1651 2813 1806 2851 
Q 1962 2890 2144 2890 
z
M 1037 1453 
Q 1037 1261 1089 1102 
Q 1142 944 1246 832 
Q 1350 720 1504 657 
Q 1658 595 1859 595 
Q 2048 595 2206 659 
Q 2365 723 2478 838 
Q 2592 954 2656 1109 
Q 2720 1264 2720 1446 
Q 2720 1645 2659 1803 
Q 2598 1962 2486 2072 
Q 2374 2182 2217 2240 
Q 2061 2298 1872 2298 
Q 1683 2298 1529 2234 
Q 1376 2170 1265 2056 
Q 1155 1942 1096 1787 
Q 1037 1632 1037 1453 
z
" transform="scale(0.015625)"/>
      <path id="Lato-Bold-39" d="M 1696 1846 
Q 1456 1846 1225 1929 
Q 995 2013 814 2181 
Q 634 2349 525 2597 
Q 416 2845 416 3178 
Q 416 3488 531 3760 
Q 646 4032 854 4237 
Q 1062 4442 1353 4560 
Q 1645 4678 1997 4678 
Q 2352 4678 2635 4566 
Q 2918 4454 3118 4252 
Q 3318 4051 3425 3769 
Q 3533 3488 3533 3152 
Q 3533 2938 3496 2746 
Q 3459 2554 3390 2376 
Q 3322 2198 3226 2030 
Q 3130 1862 3011 1693 
L 1952 182 
Q 1898 106 1790 53 
Q 1683 0 1546 0 
L 819 0 
L 2256 1795 
Q 2310 1862 2358 1926 
Q 2406 1990 2451 2054 
Q 2291 1952 2099 1899 
Q 1907 1846 1696 1846 
z
M 2774 3232 
Q 2774 3421 2716 3569 
Q 2659 3718 2553 3820 
Q 2448 3923 2302 3977 
Q 2157 4032 1984 4032 
Q 1805 4032 1661 3973 
Q 1517 3914 1416 3808 
Q 1315 3702 1260 3556 
Q 1206 3411 1206 3238 
Q 1206 2851 1406 2648 
Q 1606 2445 1974 2445 
Q 2166 2445 2315 2505 
Q 2464 2566 2566 2672 
Q 2669 2778 2721 2922 
Q 2774 3066 2774 3232 
z
" transform="scale(0.015625)"/>
     </defs>
     <use xlink:href="#Lato-Bold-34"/>
     <use xlink:href="#Lato-Bold-36" x="58"/>
     <use xlink:href="#Lato-Bold-2e" x="116"/>
     <use xlink:href="#Lato-Bold-39" x="138.5"/>
     <use xlink:href="#Lato-Bold-25" x="196.5"/>
    </g>
   </g>
   <g id="text_5">
    <!-- UNHCR Funding -->
    <g transform="translate(81.02 21.24)scale(0.14 -0.14)">
     <defs>
      <path id="Lato-Bold-55" d="M 2330 694 
Q 2579 694 2776 777 
Q 2973 861 3109 1011 
Q 3245 1162 3317 1376 
Q 3389 1590 3389 1856 
L 3389 4627 
L 4250 4627 
L 4250 1856 
Q 4250 1443 4117 1092 
Q 3984 742 3734 488 
Q 3485 234 3129 91 
Q 2774 -51 2330 -51 
Q 1885 -51 1529 91 
Q 1174 234 926 488 
Q 678 742 545 1092 
Q 413 1443 413 1856 
L 413 4627 
L 1274 4627 
L 1274 1859 
Q 1274 1594 1346 1379 
Q 1418 1165 1552 1013 
Q 1686 861 1883 777 
Q 2080 694 2330 694 
z
" transform="scale(0.015625)"/>
      <path id="Lato-Bold-4e" d="M 918 4627 
Q 976 4627 1014 4622 
Q 1053 4618 1083 4603 
Q 1114 4589 1142 4561 
Q 1171 4534 1206 4490 
L 3635 1395 
Q 3622 1507 3617 1614 
Q 3613 1722 3613 1814 
L 3613 4627 
L 4371 4627 
L 4371 0 
L 3926 0 
Q 3824 0 3757 32 
Q 3690 64 3626 147 
L 1206 3229 
Q 1216 3126 1221 3025 
Q 1226 2925 1226 2842 
L 1226 0 
L 467 0 
L 467 4627 
L 918 4627 
L 918 4627 
z
" transform="scale(0.015625)"/>
      <path id="Lato-Bold-48" d="M 4371 0 
L 3504 0 
L 3504 2022 
L 1334 2022 
L 1334 0 
L 467 0 
L 467 4627 
L 1334 4627 
L 1334 2637 
L 3504 2637 
L 3504 4627 
L 4371 4627 
L 4371 0 
z
" transform="scale(0.015625)"/>
      <path id="Lato-Bold-43" d="M 3648 1091 
Q 3718 1091 3770 1037 
L 4109 669 
Q 3827 320 3416 134 
Q 3005 -51 2429 -51 
Q 1914 -51 1502 125 
Q 1091 301 800 614 
Q 509 928 353 1363 
Q 198 1798 198 2314 
Q 198 2835 371 3268 
Q 544 3702 857 4016 
Q 1171 4330 1608 4504 
Q 2045 4678 2573 4678 
Q 3088 4678 3473 4513 
Q 3859 4349 4134 4077 
L 3846 3677 
Q 3821 3638 3781 3609 
Q 3741 3581 3670 3581 
Q 3597 3581 3520 3638 
Q 3443 3696 3324 3763 
Q 3206 3830 3025 3888 
Q 2845 3946 2566 3946 
Q 2240 3946 1966 3832 
Q 1693 3718 1496 3507 
Q 1299 3296 1188 2993 
Q 1078 2691 1078 2314 
Q 1078 1923 1188 1619 
Q 1299 1315 1488 1107 
Q 1677 899 1933 788 
Q 2189 678 2483 678 
Q 2659 678 2801 697 
Q 2944 717 3064 758 
Q 3184 800 3291 865 
Q 3398 931 3504 1027 
Q 3536 1056 3571 1073 
Q 3606 1091 3648 1091 
z
" transform="scale(0.015625)"/>
      <path id="Lato-Bold-20" transform="scale(0.015625)"/>
      <path id="Lato-Bold-46" d="M 3386 4627 
L 3386 3942 
L 1334 3942 
L 1334 2573 
L 3066 2573 
L 3066 1885 
L 1334 1885 
L 1334 0 
L 467 0 
L 467 4627 
L 3386 4627 
z
" transform="scale(0.015625)"/>
      <path id="Lato-Bold-75" d="M 1146 3283 
L 1146 1197 
Q 1146 896 1285 731 
Q 1424 566 1702 566 
Q 1907 566 2086 657 
Q 2266 749 2426 909 
L 2426 3283 
L 3216 3283 
L 3216 0 
L 2733 0 
Q 2579 0 2531 144 
L 2477 406 
Q 2374 304 2265 219 
Q 2157 134 2033 75 
Q 1910 16 1768 -17 
Q 1626 -51 1462 -51 
Q 1194 -51 987 40 
Q 781 131 640 297 
Q 499 464 427 693 
Q 355 922 355 1197 
L 355 3283 
L 1146 3283 
z
" transform="scale(0.015625)"/>
      <path id="Lato-Bold-6e" d="M 422 0 
L 422 3283 
L 906 3283 
Q 1059 3283 1107 3139 
L 1162 2880 
Q 1261 2982 1371 3065 
Q 1482 3149 1605 3209 
Q 1728 3270 1869 3302 
Q 2010 3334 2176 3334 
Q 2445 3334 2653 3243 
Q 2861 3152 3000 2987 
Q 3139 2822 3211 2593 
Q 3283 2365 3283 2090 
L 3283 0 
L 2493 0 
L 2493 2090 
Q 2493 2390 2353 2555 
Q 2214 2720 1936 2720 
Q 1731 2720 1552 2627 
Q 1373 2534 1213 2374 
L 1213 0 
L 422 0 
z
" transform="scale(0.015625)"/>
      <path id="Lato-Bold-67" d="M 1558 3341 
Q 1770 3341 1955 3297 
Q 2141 3254 2294 3171 
L 3238 3171 
L 3238 2877 
Q 3238 2803 3200 2761 
Q 3162 2720 3069 2704 
L 2774 2650 
Q 2806 2566 2824 2473 
Q 2842 2381 2842 2278 
Q 2842 2035 2744 1838 
Q 2646 1642 2475 1504 
Q 2304 1366 2069 1291 
Q 1834 1216 1558 1216 
Q 1373 1216 1197 1251 
Q 1043 1158 1043 1043 
Q 1043 944 1134 897 
Q 1226 851 1374 832 
Q 1523 813 1712 808 
Q 1901 803 2099 787 
Q 2298 771 2486 731 
Q 2675 691 2824 604 
Q 2973 518 3064 369 
Q 3155 221 3155 -13 
Q 3155 -230 3048 -435 
Q 2941 -640 2737 -800 
Q 2534 -960 2240 -1057 
Q 1946 -1155 1568 -1155 
Q 1194 -1155 918 -1083 
Q 643 -1011 462 -891 
Q 282 -771 192 -614 
Q 102 -458 102 -288 
Q 102 -58 243 99 
Q 384 256 634 349 
Q 512 416 438 528 
Q 365 640 365 819 
Q 365 893 390 971 
Q 416 1050 469 1126 
Q 522 1203 602 1272 
Q 682 1341 790 1395 
Q 541 1530 398 1754 
Q 256 1978 256 2278 
Q 256 2522 353 2718 
Q 451 2915 625 3054 
Q 800 3194 1038 3267 
Q 1277 3341 1558 3341 
z
M 2426 -147 
Q 2426 -51 2368 9 
Q 2310 70 2211 104 
Q 2112 138 1979 154 
Q 1846 170 1697 178 
Q 1549 186 1390 194 
Q 1232 202 1085 221 
Q 950 147 868 46 
Q 787 -54 787 -186 
Q 787 -272 830 -347 
Q 874 -422 968 -476 
Q 1062 -531 1212 -561 
Q 1363 -592 1581 -592 
Q 1802 -592 1962 -558 
Q 2122 -525 2226 -465 
Q 2330 -406 2378 -324 
Q 2426 -243 2426 -147 
z
M 1558 1722 
Q 1706 1722 1814 1762 
Q 1923 1802 1995 1872 
Q 2067 1942 2104 2041 
Q 2141 2141 2141 2259 
Q 2141 2502 1995 2644 
Q 1850 2787 1558 2787 
Q 1267 2787 1121 2644 
Q 976 2502 976 2259 
Q 976 2144 1013 2045 
Q 1050 1946 1122 1874 
Q 1194 1802 1304 1762 
Q 1414 1722 1558 1722 
z
" transform="scale(0.015625)"/>
     </defs>
     <use xlink:href="#Lato-Bold-55"/>
     <use xlink:href="#Lato-Bold-4e" x="72.800018"/>
     <use xlink:href="#Lato-Bold-48" x="148.400024"/>
     <use xlink:href="#Lato-Bold-43" x="224.000031"/>
     <use xlink:href="#Lato-Bold-52" x="291.050034"/>
     <use xlink:href="#Lato-Bold-20" x="356.550049"/>
     <use xlink:href="#Lato-Bold-46" x="375.850052"/>
     <use xlink:href="#Lato-Bold-75" x="432.000061"/>
     <use xlink:href="#Lato-Bold-6e" x="488.850067"/>
     <use xlink:href="#Lato-Bold-64" x="545.700073"/>
     <use xlink:href="#Lato-Bold-69" x="602.700073"/>
     <use xlink:href="#Lato-Bold-6e" x="629.800079"/>
     <use xlink:href="#Lato-Bold-67" x="686.650085"/>
    </g>
   </g>
  </g>
 </g>
</svg>
