<?xml version="1.0" encoding="UTF-8"?><svg id="b" xmlns="http://www.w3.org/2000/svg" width="48" height="48" viewBox="0 0 48 48"><g id="c"><path d="M46.03,14H1.97c-.54,0-.97.43-.97.97v18.06c0,.54.43.97.97.97h44.06c.54,0,.97-.43.97-.97V14.97c0-.54-.43-.97-.97-.97ZM8,27c-1.66,0-3-1.34-3-3s1.34-3,3-3,3,1.34,3,3-1.34,3-3,3ZM24,31c-3.87,0-7-3.13-7-7s3.13-7,7-7,7,3.13,7,7-3.13,7-7,7ZM40,27c-1.66,0-3-1.34-3-3s1.34-3,3-3,3,1.34,3,3-1.34,3-3,3Z" fill="#0072bc" stroke-width="0"/><path d="M44.5,41.04H5.12l1.39-1.39c.59-.59.59-1.54,0-2.12s-1.54-.59-2.12,0l-3.96,3.96c-.14.14-.25.31-.33.49,0,0,0,.02,0,.02-.07.17-.11.35-.11.55s.04.38.11.55c0,0,0,.02,0,.02.08.18.19.35.33.49l3.96,3.96c.29.29.68.44,1.06.44s.77-.15,1.06-.44c.59-.59.59-1.54,0-2.12l-1.39-1.39h39.38c.83,0,1.5-.67,1.5-1.5s-.67-1.5-1.5-1.5Z" fill="#0072bc" stroke-width="0"/><path d="M47.89,4.91s0-.02,0-.02c-.08-.18-.19-.35-.33-.49l-3.96-3.96c-.29-.29-.68-.44-1.06-.44s-.77.15-1.06.44c-.59.59-.59,1.54,0,2.12l1.39,1.39H3.5c-.83,0-1.5.67-1.5,1.5s.67,1.5,1.5,1.5h39.38l-1.39,1.39c-.59.59-.59,1.54,0,2.12s1.54.59,2.12,0l3.96-3.96c.14-.14.25-.31.33-.49,0,0,0-.02,0-.02.07-.17.11-.35.11-.55s-.04-.38-.11-.55Z" fill="#0072bc" stroke-width="0"/></g></svg>