<?xml version="1.0" encoding="UTF-8"?><svg id="b" xmlns="http://www.w3.org/2000/svg" width="48" height="34" viewBox="0 0 48 34"><g id="c"><path d="M1.5,18.98c.83,0,1.5-.67,1.5-1.5,0-2.29,1.16-4.22,3-5.36v8.88c0,2.21,1.79,4,4,4s4-1.79,4-4v-8.88c1.84,1.14,3,3.07,3,5.36,0,.83.67,1.5,1.5,1.5s1.5-.67,1.5-1.5c0,0,0-.02,0-.03,0,0,0,0,0-.01,0-1.13.39-2.15,1-2.94v3.5c0,1.66,1.34,3,3,3s3-1.34,3-3v-3.5c.62.79,1.01,1.81,1.01,2.94,0,.01,0,.03,0,.04,0,.83.67,1.5,1.5,1.5s1.5-.67,1.5-1.5c0-2.53,1.82-4.63,4-5.69l-1.93,7.21c-.52,3.1,1.79,6,4.93,6s5.43-2.9,4.91-6l-1.92-7.21c2.18,1.07,4,3.17,4,5.69,0,.83.67,1.5,1.5,1.5s1.5-.67,1.5-1.5c0-5.39-4.3-9.45-10-9.45-3.79,0-6.95,1.8-8.65,4.59-1.29-1.62-3.2-2.66-5.35-2.66s-4.06,1.04-5.35,2.66c-1.7-2.79-4.86-4.6-8.65-4.6C4.3,8.03,0,12.09,0,17.48c0,.83.67,1.5,1.5,1.5Z" fill="#0072bc" stroke-width="0"/><circle cx="38" cy="3" r="3" fill="#0072bc" stroke-width="0"/><circle cx="10" cy="3" r="3" fill="#0072bc" stroke-width="0"/><path d="M24,8c1.38,0,2.51-1.12,2.51-2.51s-1.12-2.51-2.51-2.51-2.51,1.12-2.51,2.51,1.12,2.51,2.51,2.51Z" fill="#0072bc" stroke-width="0"/><path d="M46,30H2c-1.1,0-2,.9-2,2s.9,2,2,2h44c1.1,0,2-.9,2-2s-.9-2-2-2Z" fill="#0072bc" stroke-width="0"/></g></svg>