<svg xmlns="http://www.w3.org/2000/svg" width="350" height="148" viewBox="0 0 350 148"><rect width="350" height="148" fill="#f1f2f2"/><path d="M31.92,21.87V14.54h2.5a3.56,3.56,0,0,1,3.76,3.67,3.54,3.54,0,0,1-3.76,3.66Zm5.32-3.66a2.69,2.69,0,0,0-2.82-2.86H32.83v5.71h1.59A2.7,2.7,0,0,0,37.24,18.21Z" fill="#0072bc"/><path d="M39.26,19.21a2.63,2.63,0,1,1,5.26,0,2.63,2.63,0,1,1-5.26,0Zm4.39,0a1.78,1.78,0,1,0-3.52,0,1.78,1.78,0,1,0,3.52,0Z" fill="#0072bc"/><circle cx="17.55" cy="17.55" r="7.55" fill="#9dc5ff"/><circle cx="17.55" cy="17.55" r="4.8" fill="#0072bc"/><polyline points="14.8 17.55 16.63 19.38 20.29 15.72" fill="none" stroke="#fff" stroke-linecap="round" stroke-linejoin="round" stroke-width="0.75"/><path d="M201.92,21.87V14.54h2.5a3.56,3.56,0,0,1,3.76,3.67,3.54,3.54,0,0,1-3.76,3.66Zm5.32-3.66a2.69,2.69,0,0,0-2.82-2.86h-1.59v5.71h1.59A2.7,2.7,0,0,0,207.24,18.21Z" fill="#ef4a60"/><path d="M209.26,19.21a2.63,2.63,0,1,1,5.26,0,2.63,2.63,0,1,1-5.26,0Zm4.39,0a1.78,1.78,0,1,0-3.52,0,1.78,1.78,0,1,0,3.52,0Z" fill="#ef4a60"/><path d="M219.44,21.87V18.4c0-.95-.48-1.23-1.19-1.23a2.06,2.06,0,0,0-1.57.82v3.88h-.83V16.56h.83v.77a2.58,2.58,0,0,1,1.9-.9,1.5,1.5,0,0,1,1.68,1.71v3.73Z" fill="#ef4a60"/><path d="M222.07,16.93l-.42-.35a1.65,1.65,0,0,0,.71-1l-.15,0a.53.53,0,0,1-.53-.56.6.6,0,0,1,.58-.59c.38,0,.7.3.7.84A2.14,2.14,0,0,1,222.07,16.93Z" fill="#ef4a60"/><path d="M224.54,20.76V17.29h-.88v-.73h.88V15.11h.83v1.45h1.08v.73h-1.08v3.29c0,.4.18.68.53.68a.75.75,0,0,0,.56-.23l.24.63a1.32,1.32,0,0,1-1,.34A1.08,1.08,0,0,1,224.54,20.76Z" fill="#ef4a60"/><circle cx="187.55" cy="17.55" r="7.55" fill="#ffbcc1"/><circle cx="187.55" cy="17.55" r="4.8" fill="#ef4a60"/><line x1="189.55" y1="15.55" x2="185.55" y2="19.55" fill="none" stroke="#fff" stroke-linecap="round" stroke-linejoin="round" stroke-width="0.75"/><line x1="189.55" y1="19.55" x2="185.55" y2="15.55" fill="none" stroke="#fff" stroke-linecap="round" stroke-linejoin="round" stroke-width="0.75"/><line x1="214.6" y1="73.54" x2="214.6" y2="79.14" fill="none" stroke="#919191" stroke-linecap="round" stroke-linejoin="round" stroke-width="0.75"/><line x1="301.64" y1="73.54" x2="301.64" y2="79.14" fill="none" stroke="#919191" stroke-linecap="round" stroke-linejoin="round" stroke-width="0.75"/><line x1="214.6" y1="76.34" x2="229.39" y2="76.34" fill="none" stroke="#919191" stroke-linecap="round" stroke-linejoin="round" stroke-width="0.75"/><line x1="286.85" y1="76.34" x2="301.64" y2="76.34" fill="none" stroke="#919191" stroke-linecap="round" stroke-linejoin="round" stroke-width="0.75"/><rect x="229.39" y="70.6" width="26.93" height="11.48" fill="#9dc5ff"/><rect x="256.32" y="70.6" width="30.53" height="11.48" fill="#9dc5ff"/><line x1="256.88" y1="82" x2="256.88" y2="70.61" fill="none" stroke="#0072bc" stroke-miterlimit="10" stroke-width="0.75"/><rect x="202.47" y="101.32" width="8.47" height="3.04" fill="#bbbdbf"/><rect x="220.04" y="101.32" width="8.47" height="3.04" fill="#bbbdbf"/><rect x="237.62" y="101.32" width="8.47" height="3.04" fill="#bbbdbf"/><rect x="255.03" y="101.32" width="8.47" height="3.04" fill="#bbbdbf"/><rect x="272.76" y="101.32" width="8.47" height="3.04" fill="#bbbdbf"/><rect x="291.34" y="101.32" width="8.47" height="3.04" fill="#bbbdbf"/><rect x="309.06" y="101.32" width="8.47" height="3.04" fill="#bbbdbf"/><line x1="39.04" y1="105.9" x2="148.37" y2="105.9" fill="none" stroke="#d0d2d3" stroke-linecap="round" stroke-linejoin="round" stroke-width="0.25"/><line x1="39.04" y1="91.59" x2="148.37" y2="91.59" fill="none" stroke="#d0d2d3" stroke-linecap="round" stroke-linejoin="round" stroke-width="0.25"/><line x1="39.04" y1="77.29" x2="148.37" y2="77.29" fill="none" stroke="#d0d2d3" stroke-linecap="round" stroke-linejoin="round" stroke-width="0.25"/><line x1="39.04" y1="62.98" x2="148.37" y2="62.98" fill="none" stroke="#d0d2d3" stroke-linecap="round" stroke-linejoin="round" stroke-width="0.25"/><line x1="39.04" y1="48.68" x2="148.37" y2="48.68" fill="none" stroke="#d0d2d3" stroke-linecap="round" stroke-linejoin="round" stroke-width="0.25"/><line x1="39.04" y1="34.37" x2="148.37" y2="34.37" fill="none" stroke="#d0d2d3" stroke-linecap="round" stroke-linejoin="round" stroke-width="0.25"/><rect x="40.59" y="104.14" width="4.42" height="16.39" fill="#0072bc" stroke="#fff" stroke-miterlimit="10" stroke-width="0.25"/><rect x="45.01" y="95.95" width="4.42" height="24.58" fill="#0072bc" stroke="#fff" stroke-miterlimit="10" stroke-width="0.25"/><rect x="49.42" y="93.36" width="4.42" height="27.17" fill="#0072bc" stroke="#fff" stroke-miterlimit="10" stroke-width="0.25"/><rect x="53.84" y="89.79" width="4.42" height="30.74" fill="#0072bc" stroke="#fff" stroke-miterlimit="10" stroke-width="0.25"/><rect x="58.26" y="89.63" width="4.42" height="30.9" fill="#0072bc" stroke="#fff" stroke-miterlimit="10" stroke-width="0.25"/><rect x="62.67" y="85" width="4.42" height="35.53" fill="#0072bc" stroke="#fff" stroke-miterlimit="10" stroke-width="0.25"/><rect x="67.09" y="79.49" width="4.42" height="41.05" fill="#0072bc" stroke="#fff" stroke-miterlimit="10" stroke-width="0.25"/><rect x="71.51" y="67" width="4.42" height="53.53" fill="#0072bc" stroke="#fff" stroke-miterlimit="10" stroke-width="0.25"/><rect x="75.92" y="70.57" width="4.42" height="49.96" fill="#0072bc" stroke="#fff" stroke-miterlimit="10" stroke-width="0.25"/><rect x="80.34" y="70.97" width="4.42" height="49.56" fill="#0072bc" stroke="#fff" stroke-miterlimit="10" stroke-width="0.25"/><rect x="84.76" y="63.3" width="4.42" height="57.23" fill="#0072bc" stroke="#fff" stroke-miterlimit="10" stroke-width="0.25"/><rect x="89.17" y="48.99" width="4.42" height="71.54" fill="#0072bc" stroke="#fff" stroke-miterlimit="10" stroke-width="0.25"/><rect x="93.59" y="55.48" width="4.42" height="65.05" fill="#0072bc" stroke="#fff" stroke-miterlimit="10" stroke-width="0.25"/><rect x="98.01" y="44" width="4.42" height="76.53" fill="#0072bc" stroke="#fff" stroke-miterlimit="10" stroke-width="0.25"/><rect x="102.42" y="51.65" width="4.42" height="68.88" fill="#0072bc" stroke="#fff" stroke-miterlimit="10" stroke-width="0.25"/><rect x="106.84" y="44" width="4.42" height="76.53" fill="#0072bc" stroke="#fff" stroke-miterlimit="10" stroke-width="0.25"/><rect x="111.26" y="67.87" width="4.42" height="52.66" fill="#0072bc" stroke="#fff" stroke-miterlimit="10" stroke-width="0.25"/><rect x="115.67" y="72.45" width="4.42" height="48.08" fill="#0072bc" stroke="#fff" stroke-miterlimit="10" stroke-width="0.25"/><rect x="120.09" y="61" width="4.42" height="59.53" fill="#0072bc" stroke="#fff" stroke-miterlimit="10" stroke-width="0.25"/><rect x="124.51" y="90.33" width="4.42" height="30.2" fill="#0072bc" stroke="#fff" stroke-miterlimit="10" stroke-width="0.25"/><rect x="128.92" y="85.56" width="4.42" height="34.97" fill="#0072bc" stroke="#fff" stroke-miterlimit="10" stroke-width="0.25"/><rect x="133.34" y="80.8" width="4.42" height="39.74" fill="#0072bc" stroke="#fff" stroke-miterlimit="10" stroke-width="0.25"/><rect x="137.76" y="76.82" width="4.42" height="43.71" fill="#0072bc" stroke="#fff" stroke-miterlimit="10" stroke-width="0.25"/><rect x="142.17" y="82.39" width="4.42" height="38.15" fill="#0072bc" stroke="#fff" stroke-miterlimit="10" stroke-width="0.25"/><rect x="36.47" y="123.32" width="8.47" height="3.04" fill="#bbbdbf"/><rect x="28.47" y="119.32" width="8.47" height="3.04" fill="#bbbdbf"/><rect x="28.47" y="105.32" width="8.47" height="3.04" fill="#bbbdbf"/><rect x="28.47" y="90.32" width="8.47" height="3.04" fill="#bbbdbf"/><rect x="28.47" y="76.32" width="8.47" height="3.04" fill="#bbbdbf"/><rect x="28.47" y="61.32" width="8.47" height="3.04" fill="#bbbdbf"/><rect x="28.47" y="47.32" width="8.47" height="3.04" fill="#bbbdbf"/><rect x="28.47" y="33.32" width="8.47" height="3.04" fill="#bbbdbf"/><rect x="54.04" y="123.32" width="8.47" height="3.04" fill="#bbbdbf"/><rect x="71.62" y="123.32" width="8.47" height="3.04" fill="#bbbdbf"/><rect x="89.03" y="123.32" width="8.47" height="3.04" fill="#bbbdbf"/><rect x="106.76" y="123.32" width="8.47" height="3.04" fill="#bbbdbf"/><rect x="125.34" y="123.32" width="8.47" height="3.04" fill="#bbbdbf"/><rect x="143.06" y="123.32" width="8.47" height="3.04" fill="#bbbdbf"/><line x1="38.62" y1="120.53" x2="148.59" y2="120.53" fill="none" stroke="#000" stroke-miterlimit="10" stroke-width="0.5"/></svg>