<svg xmlns="http://www.w3.org/2000/svg" width="350" height="148" viewBox="0 0 350 148"><rect width="350" height="148" fill="#f1f2f2"/><path d="M31.92,21.87V14.54h2.5a3.56,3.56,0,0,1,3.76,3.67,3.54,3.54,0,0,1-3.76,3.66Zm5.32-3.66a2.69,2.69,0,0,0-2.82-2.86H32.83v5.71h1.59A2.7,2.7,0,0,0,37.24,18.21Z" fill="#0072bc"/><path d="M39.26,19.21a2.63,2.63,0,1,1,5.26,0,2.63,2.63,0,1,1-5.26,0Zm4.39,0a1.78,1.78,0,1,0-3.52,0,1.78,1.78,0,1,0,3.52,0Z" fill="#0072bc"/><circle cx="17.55" cy="17.55" r="7.55" fill="#9dc5ff"/><circle cx="17.55" cy="17.55" r="4.8" fill="#0072bc"/><polyline points="14.8 17.55 16.63 19.38 20.29 15.72" fill="none" stroke="#fff" stroke-linecap="round" stroke-linejoin="round" stroke-width="0.75"/><path d="M201.92,21.87V14.54h2.5a3.56,3.56,0,0,1,3.76,3.67,3.54,3.54,0,0,1-3.76,3.66Zm5.32-3.66a2.69,2.69,0,0,0-2.82-2.86h-1.59v5.71h1.59A2.7,2.7,0,0,0,207.24,18.21Z" fill="#ef4a60"/><path d="M209.26,19.21a2.63,2.63,0,1,1,5.26,0,2.63,2.63,0,1,1-5.26,0Zm4.39,0a1.78,1.78,0,1,0-3.52,0,1.78,1.78,0,1,0,3.52,0Z" fill="#ef4a60"/><path d="M219.44,21.87V18.4c0-.95-.48-1.23-1.19-1.23a2.06,2.06,0,0,0-1.57.82v3.88h-.83V16.56h.83v.77a2.58,2.58,0,0,1,1.9-.9,1.5,1.5,0,0,1,1.68,1.71v3.73Z" fill="#ef4a60"/><path d="M222.07,16.93l-.42-.35a1.65,1.65,0,0,0,.71-1l-.15,0a.53.53,0,0,1-.53-.56.6.6,0,0,1,.58-.59c.38,0,.7.3.7.84A2.14,2.14,0,0,1,222.07,16.93Z" fill="#ef4a60"/><path d="M224.54,20.76V17.29h-.88v-.73h.88V15.11h.83v1.45h1.08v.73h-1.08v3.29c0,.4.18.68.53.68a.75.75,0,0,0,.56-.23l.24.63a1.32,1.32,0,0,1-1,.34A1.08,1.08,0,0,1,224.54,20.76Z" fill="#ef4a60"/><circle cx="187.55" cy="17.55" r="7.55" fill="#ffbcc1"/><circle cx="187.55" cy="17.55" r="4.8" fill="#ef4a60"/><line x1="189.55" y1="15.55" x2="185.55" y2="19.55" fill="none" stroke="#fff" stroke-linecap="round" stroke-linejoin="round" stroke-width="0.75"/><line x1="189.55" y1="19.55" x2="185.55" y2="15.55" fill="none" stroke="#fff" stroke-linecap="round" stroke-linejoin="round" stroke-width="0.75"/><rect x="21.52" y="35.96" width="8.47" height="3.04" fill="#bbbdbf"/><rect x="21.52" y="50.96" width="8.47" height="3.04" fill="#bbbdbf"/><rect x="21.52" y="62.96" width="8.47" height="3.04" fill="#bbbdbf"/><rect x="21.52" y="76.96" width="8.47" height="3.04" fill="#bbbdbf"/><rect x="21.52" y="90.96" width="8.47" height="3.04" fill="#bbbdbf"/><rect x="21.52" y="104.96" width="8.47" height="3.04" fill="#bbbdbf"/><rect x="21.52" y="118.96" width="8.47" height="3.04" fill="#bbbdbf"/><line x1="31.44" y1="120.74" x2="155.88" y2="120.74" fill="none" stroke="#000" stroke-miterlimit="10" stroke-width="0.5"/><line x1="31.44" y1="106.78" x2="155.88" y2="106.78" fill="none" stroke="#d0d2d3" stroke-linecap="round" stroke-linejoin="round" stroke-width="0.25"/><line x1="31.44" y1="92.83" x2="155.88" y2="92.83" fill="none" stroke="#d0d2d3" stroke-linecap="round" stroke-linejoin="round" stroke-width="0.25"/><line x1="31.44" y1="78.87" x2="155.88" y2="78.87" fill="none" stroke="#d0d2d3" stroke-linecap="round" stroke-linejoin="round" stroke-width="0.25"/><line x1="31.44" y1="64.91" x2="155.88" y2="64.91" fill="none" stroke="#d0d2d3" stroke-linecap="round" stroke-linejoin="round" stroke-width="0.25"/><line x1="31.44" y1="50.96" x2="155.88" y2="50.96" fill="none" stroke="#d0d2d3" stroke-linecap="round" stroke-linejoin="round" stroke-width="0.25"/><line x1="31.44" y1="37" x2="155.88" y2="37" fill="none" stroke="#d0d2d3" stroke-linecap="round" stroke-linejoin="round" stroke-width="0.25"/><rect x="134.68" y="47.05" width="17.75" height="15.91" fill="#0072bc"/><rect x="36.05" y="96" width="17.75" height="24.74" fill="#0072bb"/><rect x="60.71" y="87" width="17.75" height="33.74" fill="#0072bb"/><rect x="85.37" y="77.14" width="17.75" height="43.6" fill="#0072bb"/><rect x="110.02" y="56" width="17.75" height="64.74" fill="#0072bb"/><rect x="134.68" y="47.37" width="17.75" height="73.37" fill="#0072bb"/><path d="M35.2,127.73l-1.62-4h.57l1.36,3.47,1.35-3.47h.58l-1.62,4Z" fill="#5e5e5e"/><path d="M37.41,126.27a1.46,1.46,0,0,1,1.44-1.52,1.42,1.42,0,0,1,1.4,1.56v.12H37.9a1,1,0,0,0,1,1,1.25,1.25,0,0,0,.9-.37l.22.29a1.62,1.62,0,0,1-1.16.46A1.46,1.46,0,0,1,37.41,126.27Zm1.43-1.15a1,1,0,0,0-1,1H39.8A1,1,0,0,0,38.84,125.12Z" fill="#5e5e5e"/><path d="M41,127.73v-2.91h.45v.47a1.26,1.26,0,0,1,1-.53v.46h-.17a1.07,1.07,0,0,0-.8.46v2.06Z" fill="#5e5e5e"/><path d="M42.88,128.46a.7.7,0,0,0,.25,0,.42.42,0,0,0,.43-.31l.19-.44-1.21-2.94H43l1,2.39,1-2.39h.49L44,128.32a.86.86,0,0,1-.85.6,1.14,1.14,0,0,1-.33,0Z" fill="#5e5e5e"/><path d="M47.49,127.73v-4h.45v1.55a1.2,1.2,0,0,1,1-.51,1.35,1.35,0,0,1,1.3,1.53c0,1-.54,1.53-1.3,1.53a1.24,1.24,0,0,1-1-.51v.43Zm1.32-.33c.59,0,.94-.47.94-1.12s-.35-1.13-.94-1.13a1.09,1.09,0,0,0-.87.47v1.32A1.06,1.06,0,0,0,48.81,127.4Z" fill="#5e5e5e"/><path d="M52.78,127.73v-.33a1.26,1.26,0,0,1-1,.41,1,1,0,0,1-1-1,.94.94,0,0,1,1-1,1.27,1.27,0,0,1,1,.39v-.52c0-.39-.32-.61-.74-.61a1.12,1.12,0,0,0-.89.41l-.21-.32a1.52,1.52,0,0,1,1.16-.48c.62,0,1.13.28,1.13,1v2Zm0-.61v-.56a1,1,0,0,0-.8-.35.65.65,0,0,0-.72.63.65.65,0,0,0,.72.64A1,1,0,0,0,52.78,127.12Z" fill="#5e5e5e"/><path d="M56.25,127.73v-.43a1.24,1.24,0,0,1-1,.51c-.76,0-1.3-.58-1.3-1.53a1.35,1.35,0,0,1,1.3-1.53,1.2,1.2,0,0,1,1,.51v-1.55h.45v4Zm0-.79v-1.32a1.09,1.09,0,0,0-.87-.47c-.59,0-.94.49-.94,1.13s.35,1.12.94,1.12A1.08,1.08,0,0,0,56.25,126.94Z" fill="#5e5e5e"/><path d="M64.79,127.73v-4h1.79a1,1,0,0,1,1.13,1,.92.92,0,0,1-.71.92,1,1,0,0,1,.79,1,1.05,1.05,0,0,1-1.17,1.08Zm2.4-2.92a.63.63,0,0,0-.69-.65H65.29v1.3H66.5A.63.63,0,0,0,67.19,124.81Zm.08,1.78a.68.68,0,0,0-.74-.69H65.29v1.39h1.24A.67.67,0,0,0,67.27,126.59Z" fill="#5e5e5e"/><path d="M70.39,127.73v-.33a1.25,1.25,0,0,1-1,.41,1,1,0,0,1-1-1,.94.94,0,0,1,1-1,1.27,1.27,0,0,1,1,.39v-.52c0-.39-.31-.61-.74-.61a1.12,1.12,0,0,0-.89.41l-.21-.32a1.54,1.54,0,0,1,1.16-.48c.62,0,1.13.28,1.13,1v2Zm0-.61v-.56a1,1,0,0,0-.8-.35.65.65,0,0,0-.72.63.66.66,0,0,0,.72.64A1,1,0,0,0,70.39,127.12Z" fill="#5e5e5e"/><path d="M73.86,127.73v-.43a1.23,1.23,0,0,1-1,.51c-.76,0-1.3-.58-1.3-1.53a1.35,1.35,0,0,1,1.3-1.53,1.2,1.2,0,0,1,1,.51v-1.55h.46v4Zm0-.79v-1.32a1.07,1.07,0,0,0-.86-.47c-.6,0-1,.49-1,1.13s.35,1.12,1,1.12A1.06,1.06,0,0,0,73.86,126.94Z" fill="#5e5e5e"/><path d="M91,125.73a2,2,0,1,1,2,2.08A2,2,0,0,1,91,125.73Zm3.48,0a1.49,1.49,0,1,0-3,0A1.49,1.49,0,0,0,93,127.36,1.5,1.5,0,0,0,94.51,125.73Z" fill="#5e5e5e"/><path d="M97.77,127.73l-1-1.3-.49.47v.83h-.45v-4h.45v2.66l1.53-1.55h.57l-1.29,1.32,1.3,1.59Z" fill="#5e5e5e"/><path d="M112.45,125.73a2,2,0,0,1,2.06-2.08,1.91,1.91,0,0,1,1.56.74l-.39.26a1.49,1.49,0,0,0-1.17-.56,1.64,1.64,0,0,0,0,3.27,1.62,1.62,0,0,0,1.09-.43v-.82h-1.39v-.44h1.88v1.44a2.08,2.08,0,0,1-1.58.7A2,2,0,0,1,112.45,125.73Z" fill="#5e5e5e"/><path d="M116.72,126.27a1.44,1.44,0,1,1,1.44,1.54A1.43,1.43,0,0,1,116.72,126.27Zm2.41,0a1,1,0,1,0-1,1.13A1,1,0,0,0,119.13,126.27Z" fill="#5e5e5e"/><path d="M120.17,126.27a1.44,1.44,0,1,1,1.44,1.54A1.43,1.43,0,0,1,120.17,126.27Zm2.41,0a1,1,0,1,0-1,1.13A1,1,0,0,0,122.58,126.27Z" fill="#5e5e5e"/><path d="M125.9,127.73v-.43a1.23,1.23,0,0,1-1,.51c-.76,0-1.3-.58-1.3-1.53a1.35,1.35,0,0,1,1.3-1.53,1.2,1.2,0,0,1,1,.51v-1.55h.45v4Zm0-.79v-1.32a1.08,1.08,0,0,0-.87-.47c-.59,0-.94.49-.94,1.13s.35,1.12.94,1.12A1.07,1.07,0,0,0,125.9,126.94Z" fill="#5e5e5e"/><path d="M135.2,127.73v-4h2.64v.45H135.7v1.3h2.09v.44H135.7v1.39h2.14v.44Z" fill="#5e5e5e"/><path d="M140.51,127.73l-.88-1.19-.87,1.19h-.52l1.11-1.49-1-1.42h.52l.81,1.11.81-1.11H141l-1.05,1.42,1.12,1.49Z" fill="#5e5e5e"/><path d="M141.16,126.27a1.44,1.44,0,0,1,1.46-1.52,1.23,1.23,0,0,1,1.06.51l-.3.27a.85.85,0,0,0-.74-.38,1.13,1.13,0,0,0,0,2.25.87.87,0,0,0,.74-.38l.3.28a1.23,1.23,0,0,1-1.06.51A1.45,1.45,0,0,1,141.16,126.27Z" fill="#5e5e5e"/><path d="M144.16,126.27a1.45,1.45,0,0,1,1.43-1.52,1.42,1.42,0,0,1,1.4,1.56v.12h-2.35a1,1,0,0,0,1,1,1.25,1.25,0,0,0,.9-.37l.22.29a1.61,1.61,0,0,1-1.16.46A1.45,1.45,0,0,1,144.16,126.27Zm1.42-1.15a1,1,0,0,0-1,1h1.91A.94.94,0,0,0,145.58,125.12Z" fill="#5e5e5e"/><path d="M147.72,127.73v-4h.45v4Z" fill="#5e5e5e"/><path d="M149.08,127.73v-4h.45v4Z" fill="#5e5e5e"/><path d="M150.27,126.27a1.45,1.45,0,0,1,1.43-1.52,1.42,1.42,0,0,1,1.4,1.56v.12h-2.35a1,1,0,0,0,1,1,1.25,1.25,0,0,0,.9-.37l.22.29a1.61,1.61,0,0,1-1.16.46A1.45,1.45,0,0,1,150.27,126.27Zm1.42-1.15a1,1,0,0,0-.95,1h1.91A.94.94,0,0,0,151.69,125.12Z" fill="#5e5e5e"/><path d="M155.8,127.73v-1.9c0-.52-.26-.68-.66-.68a1.14,1.14,0,0,0-.86.46v2.12h-.45v-2.91h.45v.42a1.47,1.47,0,0,1,1.05-.49.83.83,0,0,1,.92.94v2Z" fill="#5e5e5e"/><path d="M157.25,127.12v-1.9h-.48v-.4h.48V124h.46v.79h.59v.4h-.59V127c0,.22.1.37.29.37a.46.46,0,0,0,.31-.12l.13.34a.74.74,0,0,1-.54.19A.6.6,0,0,1,157.25,127.12Z" fill="#5e5e5e"/><rect x="191.52" y="35.96" width="8.47" height="3.04" fill="#bbbdbf"/><rect x="191.52" y="50.96" width="8.47" height="3.04" fill="#bbbdbf"/><rect x="191.52" y="62.96" width="8.47" height="3.04" fill="#bbbdbf"/><rect x="191.52" y="76.96" width="8.47" height="3.04" fill="#bbbdbf"/><rect x="191.52" y="90.96" width="8.47" height="3.04" fill="#bbbdbf"/><rect x="191.52" y="104.96" width="8.47" height="3.04" fill="#bbbdbf"/><rect x="191.52" y="118.96" width="8.47" height="3.04" fill="#bbbdbf"/><line x1="201.44" y1="120.74" x2="325.88" y2="120.74" fill="none" stroke="#000" stroke-miterlimit="10" stroke-width="0.5"/><line x1="201.44" y1="106.78" x2="325.88" y2="106.78" fill="none" stroke="#d0d2d3" stroke-linecap="round" stroke-linejoin="round" stroke-width="0.25"/><line x1="201.44" y1="92.83" x2="325.88" y2="92.83" fill="none" stroke="#d0d2d3" stroke-linecap="round" stroke-linejoin="round" stroke-width="0.25"/><line x1="201.44" y1="78.87" x2="325.88" y2="78.87" fill="none" stroke="#d0d2d3" stroke-linecap="round" stroke-linejoin="round" stroke-width="0.25"/><line x1="201.44" y1="64.91" x2="325.88" y2="64.91" fill="none" stroke="#d0d2d3" stroke-linecap="round" stroke-linejoin="round" stroke-width="0.25"/><line x1="201.44" y1="50.96" x2="325.88" y2="50.96" fill="none" stroke="#d0d2d3" stroke-linecap="round" stroke-linejoin="round" stroke-width="0.25"/><line x1="201.44" y1="37" x2="325.88" y2="37" fill="none" stroke="#d0d2d3" stroke-linecap="round" stroke-linejoin="round" stroke-width="0.25"/><rect x="206.05" y="96" width="23.29" height="24.74" fill="#0072bb"/><rect x="229.22" y="87" width="23.29" height="33.74" fill="#0072bb"/><rect x="252.38" y="75" width="23.29" height="45.74" fill="#0072bb"/><rect x="275.55" y="56" width="23.29" height="64.74" fill="#0072bb"/><rect x="298.71" y="47.37" width="23.29" height="73.37" fill="#0072bb"/><path d="M208.2,127.73l-1.62-4h.57l1.36,3.47,1.35-3.47h.58l-1.62,4Z" fill="#5e5e5e"/><path d="M210.41,126.27a1.46,1.46,0,0,1,1.44-1.52,1.42,1.42,0,0,1,1.4,1.56v.12H210.9a1,1,0,0,0,1,1,1.25,1.25,0,0,0,.9-.37l.22.29a1.62,1.62,0,0,1-1.16.46A1.46,1.46,0,0,1,210.41,126.27Zm1.43-1.15a1,1,0,0,0-1,1h1.91A1,1,0,0,0,211.84,125.12Z" fill="#5e5e5e"/><path d="M214,127.73v-2.91h.45v.47a1.26,1.26,0,0,1,1-.53v.46h-.17a1.07,1.07,0,0,0-.8.46v2.06Z" fill="#5e5e5e"/><path d="M215.88,128.46a.7.7,0,0,0,.25,0,.42.42,0,0,0,.43-.31l.19-.44-1.21-2.94H216l1,2.39,1-2.39h.49l-1.46,3.5a.86.86,0,0,1-.85.6,1.14,1.14,0,0,1-.33,0Z" fill="#5e5e5e"/><path d="M220.49,127.73v-4h.45v1.55a1.2,1.2,0,0,1,1-.51,1.35,1.35,0,0,1,1.3,1.53c0,1-.54,1.53-1.3,1.53a1.24,1.24,0,0,1-1-.51v.43Zm1.32-.33c.59,0,.94-.47.94-1.12s-.35-1.13-.94-1.13a1.09,1.09,0,0,0-.87.47v1.32A1.06,1.06,0,0,0,221.81,127.4Z" fill="#5e5e5e"/><path d="M225.78,127.73v-.33a1.26,1.26,0,0,1-1,.41,1,1,0,0,1-1-1,.94.94,0,0,1,1-1,1.27,1.27,0,0,1,1,.39v-.52c0-.39-.32-.61-.74-.61a1.12,1.12,0,0,0-.89.41l-.21-.32a1.52,1.52,0,0,1,1.16-.48c.62,0,1.13.28,1.13,1v2Zm0-.61v-.56a1,1,0,0,0-.8-.35.65.65,0,0,0-.72.63.65.65,0,0,0,.72.64A1,1,0,0,0,225.78,127.12Z" fill="#5e5e5e"/><path d="M229.25,127.73v-.43a1.24,1.24,0,0,1-1,.51c-.76,0-1.3-.58-1.3-1.53a1.35,1.35,0,0,1,1.3-1.53,1.2,1.2,0,0,1,1,.51v-1.55h.45v4Zm0-.79v-1.32a1.09,1.09,0,0,0-.87-.47c-.59,0-.94.49-.94,1.13s.35,1.12.94,1.12A1.08,1.08,0,0,0,229.25,126.94Z" fill="#5e5e5e"/><path d="M239,127.73v-4h1.79a1,1,0,0,1,1.12,1,.91.91,0,0,1-.7.92,1,1,0,0,1,.78,1,1,1,0,0,1-1.16,1.08Zm2.4-2.92a.64.64,0,0,0-.7-.65h-1.2v1.3h1.2A.63.63,0,0,0,241.35,124.81Zm.07,1.78a.68.68,0,0,0-.74-.69h-1.23v1.39h1.23A.66.66,0,0,0,241.42,126.59Z" fill="#5e5e5e"/><path d="M244.54,127.73v-.33a1.22,1.22,0,0,1-1,.41,1,1,0,0,1-1-1,.94.94,0,0,1,1-1,1.23,1.23,0,0,1,1,.39v-.52c0-.39-.31-.61-.73-.61a1.11,1.11,0,0,0-.89.41l-.22-.32a1.56,1.56,0,0,1,1.17-.48c.62,0,1.13.28,1.13,1v2Zm0-.61v-.56a1,1,0,0,0-.79-.35.66.66,0,0,0-.73.63.66.66,0,0,0,.73.64A1,1,0,0,0,244.54,127.12Z" fill="#5e5e5e"/><path d="M248,127.73v-.43a1.24,1.24,0,0,1-1,.51c-.76,0-1.3-.58-1.3-1.53a1.35,1.35,0,0,1,1.3-1.53,1.22,1.22,0,0,1,1,.51v-1.55h.45v4Zm0-.79v-1.32a1.11,1.11,0,0,0-.87-.47c-.59,0-.94.49-.94,1.13s.35,1.12.94,1.12A1.1,1.1,0,0,0,248,126.94Z" fill="#5e5e5e"/><path d="M262.76,125.73a2,2,0,1,1,2,2.08A2,2,0,0,1,262.76,125.73Zm3.48,0a1.49,1.49,0,1,0-1.48,1.63A1.5,1.5,0,0,0,266.24,125.73Z" fill="#5e5e5e"/><path d="M269.51,127.73l-1.05-1.3-.48.47v.83h-.46v-4H268v2.66l1.53-1.55h.57l-1.29,1.32,1.29,1.59Z" fill="#5e5e5e"/><path d="M282.32,125.73a2,2,0,0,1,2.07-2.08,1.93,1.93,0,0,1,1.56.74l-.4.26a1.47,1.47,0,0,0-1.16-.56,1.64,1.64,0,0,0,0,3.27,1.59,1.59,0,0,0,1.08-.43v-.82h-1.39v-.44H286v1.44a2.07,2.07,0,0,1-1.57.7A2,2,0,0,1,282.32,125.73Z" fill="#5e5e5e"/><path d="M286.59,126.27a1.45,1.45,0,1,1,1.45,1.54A1.43,1.43,0,0,1,286.59,126.27Zm2.41,0a1,1,0,1,0-1,1.13A1,1,0,0,0,289,126.27Z" fill="#5e5e5e"/><path d="M290.05,126.27a1.44,1.44,0,1,1,2.88,0,1.44,1.44,0,1,1-2.88,0Zm2.4,0a1,1,0,1,0-1.93,0,1,1,0,1,0,1.93,0Z" fill="#5e5e5e"/><path d="M295.77,127.73v-.43a1.23,1.23,0,0,1-1,.51c-.76,0-1.29-.58-1.29-1.53s.53-1.53,1.29-1.53a1.2,1.2,0,0,1,1,.51v-1.55h.46v4Zm0-.79v-1.32a1.07,1.07,0,0,0-.86-.47c-.59,0-.94.49-.94,1.13s.35,1.12.94,1.12A1.06,1.06,0,0,0,295.77,126.94Z" fill="#5e5e5e"/><path d="M305.2,127.73v-4h2.64v.45H305.7v1.3h2.09v.44H305.7v1.39h2.14v.44Z" fill="#5e5e5e"/><path d="M310.51,127.73l-.88-1.19-.87,1.19h-.52l1.11-1.49-1.05-1.42h.52l.81,1.11.81-1.11H311l-1,1.42,1.12,1.49Z" fill="#5e5e5e"/><path d="M311.16,126.27a1.44,1.44,0,0,1,1.46-1.52,1.23,1.23,0,0,1,1.06.51l-.3.27a.85.85,0,0,0-.74-.38,1.13,1.13,0,0,0,0,2.25.87.87,0,0,0,.74-.38l.3.28a1.23,1.23,0,0,1-1.06.51A1.45,1.45,0,0,1,311.16,126.27Z" fill="#5e5e5e"/><path d="M314.16,126.27a1.45,1.45,0,0,1,1.43-1.52,1.42,1.42,0,0,1,1.4,1.56v.12h-2.35a1,1,0,0,0,1,1,1.25,1.25,0,0,0,.9-.37l.22.29a1.61,1.61,0,0,1-1.16.46A1.45,1.45,0,0,1,314.16,126.27Zm1.42-1.15a1,1,0,0,0-.95,1h1.91A.94.94,0,0,0,315.58,125.12Z" fill="#5e5e5e"/><path d="M317.72,127.73v-4h.45v4Z" fill="#5e5e5e"/><path d="M319.08,127.73v-4h.45v4Z" fill="#5e5e5e"/><path d="M320.27,126.27a1.45,1.45,0,0,1,1.43-1.52,1.42,1.42,0,0,1,1.4,1.56v.12h-2.35a1,1,0,0,0,1,1,1.25,1.25,0,0,0,.9-.37l.22.29a1.61,1.61,0,0,1-1.16.46A1.45,1.45,0,0,1,320.27,126.27Zm1.42-1.15a1,1,0,0,0-.95,1h1.91A.94.94,0,0,0,321.69,125.12Z" fill="#5e5e5e"/><path d="M325.8,127.73v-1.9c0-.52-.26-.68-.66-.68a1.14,1.14,0,0,0-.86.46v2.12h-.45v-2.91h.45v.42a1.47,1.47,0,0,1,1.05-.49.83.83,0,0,1,.92.94v2Z" fill="#5e5e5e"/><path d="M327.25,127.12v-1.9h-.48v-.4h.48V124h.46v.79h.59v.4h-.59V127c0,.22.1.37.29.37a.46.46,0,0,0,.31-.12l.13.34a.74.74,0,0,1-.54.19A.6.6,0,0,1,327.25,127.12Z" fill="#5e5e5e"/></svg>