<svg xmlns="http://www.w3.org/2000/svg" width="350" height="148" viewBox="0 0 350 148"><rect width="350" height="148" fill="#f1f2f2"/><path d="M31.92,21.87V14.54h2.5a3.56,3.56,0,0,1,3.76,3.67,3.54,3.54,0,0,1-3.76,3.66Zm5.32-3.66a2.69,2.69,0,0,0-2.82-2.86H32.83v5.71h1.59A2.7,2.7,0,0,0,37.24,18.21Z" fill="#0072bc"/><path d="M39.26,19.21a2.63,2.63,0,1,1,5.26,0,2.63,2.63,0,1,1-5.26,0Zm4.39,0a1.78,1.78,0,1,0-3.52,0,1.78,1.78,0,1,0,3.52,0Z" fill="#0072bc"/><circle cx="17.55" cy="17.55" r="7.55" fill="#9dc5ff"/><circle cx="17.55" cy="17.55" r="4.8" fill="#0072bc"/><polyline points="14.8 17.55 16.63 19.38 20.29 15.72" fill="none" stroke="#fff" stroke-linecap="round" stroke-linejoin="round" stroke-width="0.75"/><path d="M201.92,21.87V14.54h2.5a3.56,3.56,0,0,1,3.76,3.67,3.54,3.54,0,0,1-3.76,3.66Zm5.32-3.66a2.69,2.69,0,0,0-2.82-2.86h-1.59v5.71h1.59A2.7,2.7,0,0,0,207.24,18.21Z" fill="#ef4a60"/><path d="M209.26,19.21a2.63,2.63,0,1,1,5.26,0,2.63,2.63,0,1,1-5.26,0Zm4.39,0a1.78,1.78,0,1,0-3.52,0,1.78,1.78,0,1,0,3.52,0Z" fill="#ef4a60"/><path d="M219.44,21.87V18.4c0-.95-.48-1.23-1.19-1.23a2.06,2.06,0,0,0-1.57.82v3.88h-.83V16.56h.83v.77a2.58,2.58,0,0,1,1.9-.9,1.5,1.5,0,0,1,1.68,1.71v3.73Z" fill="#ef4a60"/><path d="M222.07,16.93l-.42-.35a1.65,1.65,0,0,0,.71-1l-.15,0a.53.53,0,0,1-.53-.56.6.6,0,0,1,.58-.59c.38,0,.7.3.7.84A2.14,2.14,0,0,1,222.07,16.93Z" fill="#ef4a60"/><path d="M224.54,20.76V17.29h-.88v-.73h.88V15.11h.83v1.45h1.08v.73h-1.08v3.29c0,.4.18.68.53.68a.75.75,0,0,0,.56-.23l.24.63a1.32,1.32,0,0,1-1,.34A1.08,1.08,0,0,1,224.54,20.76Z" fill="#ef4a60"/><circle cx="187.55" cy="17.55" r="7.55" fill="#ffbcc1"/><circle cx="187.55" cy="17.55" r="4.8" fill="#ef4a60"/><line x1="189.55" y1="15.55" x2="185.55" y2="19.55" fill="none" stroke="#fff" stroke-linecap="round" stroke-linejoin="round" stroke-width="0.75"/><line x1="189.55" y1="19.55" x2="185.55" y2="15.55" fill="none" stroke="#fff" stroke-linecap="round" stroke-linejoin="round" stroke-width="0.75"/><path d="M248,74.5l.71.09.22.75-.26.7-.33.29-.57-.16-.63-.88.19-.64Z" fill="#c6c6c6" stroke="#fff" stroke-linecap="round" stroke-linejoin="round" stroke-width="0.5"/><path d="M269.93,60.81l-.52.12-1.14,0-1.38,0L266,61l-.26.69-.29.48-.83.84.07.58-.59,2-.22,1.18-.28.87.44.78-1.08,1-.72,1-.36.86,0,.64-.24.29-.95.14-.42.22-.45.53-.59.92-.59.58-.06.56-.49.24-.54.74-.61,0,.29-.76-.12-.24-.6-.26-.24-.27-.07-.46-.66,0,0-.25.43-.4L255.8,73l-.52,0-.25-.37.49-.45.45-1.4-.32-.82.26-.21.53.15.31-.18.14-.45.3-.17.26-.67L257,68h-.61l-.15-.7.48.09,1,0,.19-.13-.21-.61.19-.6,0-1.29-.38-2.09v-.29l.42-.3,0-.5-.33-.46.45-.64.19-.6-.29-.95-.51-.56-.22-.06-.12-1.17-.45-.7.16-.45-.66-.4-.35-.56V53.64l-.26-.57-.3-1,.2-.32-.07-.61,0-.6L256,50l-.13-.34-.41-.47.24-.85.43-.35.57-.22-.53-.94-.32-.35,0-.36-.22-.5-.34-1.26-.48-.23.17-.68-.17-.63.18-.69.87.17.07-1.46-.29-.52v-.71l.39-.68-.31-.27,0-.75-.52.1-.61-.18.09-.55.46-.26.31-.8.38.14.7,0,.29-.15,0-.37.51-.39.61-.08.6.14,1.61.83,1.49,1,1.35,1,1.74,1.49,1.26,1.2.45.6,1.58,1.43.58.62,1.94,1.87.68.77.56,1L273.05,49l.27.43.51.28.36.34-.44.53-.22.64-.38.33-.93,1.25-.5.83-.8,1.15-.86.55-.5,1.69.24.92.13.89-.08,1.64Z" fill="#c6c6c6" stroke="#fff" stroke-linecap="round" stroke-linejoin="round" stroke-width="0.5"/><path d="M255.49,51.11l.07.61-.2.32.3,1,.26.57v1.42l.35.56.66.4-.16.45.45.7.12,1.17.22.06.51.56.29.95-.19.6-.45.64.33.46,0,.5-.42.3v.29l.38,2.09,0,1.29-.19.6.21.61-.19.13-1,0-.48-.09.15.7H257l.41.43-.26.67-.3.17-.14.45-.31.18-.53-.15-.26.21.32.82-.45,1.4-.49.45.25.37.52,0,.09.58-.43.4,0,.25-.54.33,0,1.31-.23.68-.72.21-.4-.22-.07.36-.37.39-.38-.27-.23-.46-.28.17v.44l-.77.05v-.43l-.2-.32,0-.44.41-1.19.36-.08-.17-.62-.53.1-.44-.53-.08-.45.4-.17.37.12.06-.52.46-.14.54-.47-.4-.24h-.44v-.5l.34-.07.18-.62-.15-.51-.41-.31-.42.29-.76.08-.55-.43-.69-.06-.47.38-.58-.44-.27-.82,0-.62-.92-.37,1.32-.72-.12-.78.18-.37-.11-.6-.78-.18-1.84.14-.21.86-.41.74-.47,0-.27.45-.4-.09-1.43,1-1.18.35-.46.39-.84.22-1.07-.88-.17-.27-.61-.14-.34-.22-.54.27-.2-.32-.73-.38-.2-.42.1-.57-.48-.07-1-.45h-.59l-.21-.2-1.29-.12,0,.29-.7-.37-.36,0-.14-.3,0-.56-.85.2-.66-.52-.27-.56.31-.41-.05-.31.41-.39-.66-.33.6-1,1.33-1.39-.59-.13v-.79l.69-.39v-.28l-.48-.63-.64.22.25-.57-.81-1.26,0-.94-.89.54-.3.32-.29-.3-.14-.7-.79-.8-.44,0-1,.6-1,.09-.16.32-.49.1-.43.36-.69-.08-.42-.17-.48-.4-.27-.87.89-1.72,1.91-3.09.28-.07.11-.47,1.91-.36.78-.06.51.07.12-1.21-.18-.32.25-.46L229,46l.67-2.43,1.07-1.45.09-.65.32-.76.2.2.71,1.83-.07.42.29.36h1.1l.55-.52.49.41,1,.27,1.06.5,1-.11.31-.45,1.11,0,.86-.34.41-.43.24-.66h.31l.28.32.06.4.36-.09.27.21.76-.39.37.24.4-.19.22.16,1.26-.22.29-.37.34.1.43-.21.64.13-.41.31.1.25.57-.24.23.69.61.16.26.35-.09.52,1,.43.64-.21.66.6-.47.41.16.69.6.32.58.08.69.24.14.64-.07.4.09.6-.77.33.45,1.23.07.87.33.41h.93l.26-.21h.48l.15.45.45,0,.2-.27.93,0Z" fill="#c6c6c6" stroke="#fff" stroke-linecap="round" stroke-linejoin="round" stroke-width="0.5"/><path d="M232.81,65.64l-.54.42-.41-.18-.28.32-.51,0-.55.61-.71.35-.09.25-.54.21-.47.64.24.69-.34.67.39.19.23.43.07.53.22.32.5.11.58.54.58-.34.25.13.14.47-.38.63h-.63l-.41.38-.35-.17-.32.41,0,.31-.41.88L229,75l-.55-.27-.4,0,.18-.46-.16-.83-.59-.11-.28-.49-.82.06-.3-.11.06-1.09-.39-.09-.46-.49.05-.59-.67-.41-.77.14-.55-.67-.21-.73-.38-.41-.56,0-.44-.17h-.52l-.49.16-.23-.5-.66.84-.2.44-.28.13-.25.48.1.77-.2.55-.34.06-.75-.31-.34-.3h-.27l-.18.64-.18.2.11.48h-.45l.11.6-.2,1.09-.71.34.62.7h.23l.33.5-.53.27-2.15,0L214,71.18l.4-1.49.48-1.06.17-.89.67-.65.18-.88-.45-2.28.49-.56.63-1.11,1.12-.75.57.38.92.81.43-.06.83-1,0-.37-.33-.3.52-1.58-.28-.72.88-1.89,0-.46-.18-.34-.06-.61.42-.87.83-.35.21-.21.27.87.48.4.42.17.69.08.43-.36.49-.1.16-.32,1-.09,1-.6.44,0,.79.8.14.7.29.3.3-.32.89-.54,0,.94.81,1.26-.25.57.64-.22.48.63v.28l-.69.39v.79l.59.13-1.33,1.39-.6,1,.66.33-.41.39.05.31-.31.41.27.56.66.52.85-.2,0,.56.14.3.36,0Z" fill="#c6c6c6" stroke="#fff" stroke-linecap="round" stroke-linejoin="round" stroke-width="0.5"/><path d="M269.37,71.77l.11-.94.9-.6.23,0,.91.44,1.12-1.12.47-.07.64.46-.58.49h-.42l-.55.28.2.42-.62.59-.61-.24-.5.26-1-.13Z" fill="#c6c6c6" stroke="#fff" stroke-linecap="round" stroke-linejoin="round" stroke-width="0.5"/><path d="M221.44,85l.37.22,0,.6-.36.39h1.35l.6.61L223.3,88l-.28.37.34.41-.59.06-.47-.16-.22.27-.65,0-.44-.59-.64-.22-.48.22-.16.83.25.59.63.69-.47.7,1.06-.11.72.61L222,92,222,93.36l.1.57-.49.11-.19.56-.88.14-1-.24,0-.25-.68-1.79-.38-.46-.52-.37-.75-.14-.41-1.21L216,90l-.45,0-.46-.4-.53-1.1-1-.55v-1l-1-1.06-1.25-1-1.8-.62L206.82,84l-.32-.07-.27-.4-.17-.58.29-.52.65-.75.47-.28-.19-1.57.08-.31.67-.45.85.17.92-.2h.91l.59.67.41.05.58-.42.86-.09,1-.87.13-.68h.47l.48-.37.41.15.24.6.09.72-.32.8.25.1,1.27-.72.37.52,1.12.1.41.25v.37l.5.39.8,0,.39.2h.39l.47.28-.24.48.26.68-.23.46-.44,0-.29.23,0,.44-.36-.2-.14.45v.72l.46-.14.59.12Z" fill="#c6c6c6" stroke="#fff" stroke-linecap="round" stroke-linejoin="round" stroke-width="0.5"/><path d="M273,72.39l.23.17-.15.67.16.39-.27.21-.27-.24-.35.1-.63-.15.06-.56.32-.5.53.08Z" fill="#c6c6c6" stroke="#fff" stroke-linecap="round" stroke-linejoin="round" stroke-width="0.5"/><path d="M255.49,74.19l.66,0,.07.46.24.27.6.26.12.24-.29.76.61,0,.54-.74.49-.24.06-.56.59-.58.59-.92.45-.53.42-.22.95-.14.24-.29,1.08-.14.35.11.27.32-.5.14-.44-.07.11.61.82-.09.63-.25.31-.24.65-.24.68-.54.5,0,1.32.33.36-.31.74-.11.08.25.58.07.28-.14,1,.13.5-.26.61.24.62-.59-.2-.42.55-.28h.42l.58-.49h1.16l1.07-.39.34,0,.26.35,1.22.51.27-.21.31.37-.07.26-.43.21-.21-.15-.48.08-.19.36-.53.35-.53.2-.75.54.1.63.32.67.28.25-.26.38.33.24.43.67,1.17,1.28-.15.33,0,.68.43.45.1.58-.2.9-.84.25-.24.5-.24.83-.3.36-.32-.21-.36-.7-.27-1.44-.2-.27-1.3-.32-.43-.72-.34.18-1.06.85-.32.49v.74l-.57.89-.16.87-.1,1.71.32.5-.65,1.76.21.88,2.2.86.07.2,0,.89-.34.65,0,.32-.62.87-.15,1-.41.78v.37l-.46.27-.54.13-.3-.26-.59.37-.35.66-.51.49-.66-.75-.66-.57-.57-.16-.94-.42L265,91.9l-.43,0-1.24,1.28-.29.55,0,.36.16.87-.09,1.37.08.65,0,1.3.34.9-.65.2-.58.44-.86.47-.73.86-2.6.42-.55-.08-.46-.24-.67.81-.25.48-1,2.7-.16.89,0,.41-1.29,2.91-.2.22-.08.49-.37.92.16.54-.73,1.23-.83,1.25-.46.15-.93.52-1.3.12-2.11-.64-.76-.18-.5.2-.9-.07-1.46,0-.48-.29-.42-.56L237.12,110l-1.09-.66-.66-.65-1.1-.43H233l-.41-1.06.17-.18-.25-.77h1.31l.26-.6,0-1.35.23-1,.41-.61,1,.06.72-.06.26-.13.54.13.35.25.56,0,.73-.39.81-.33.12-.24.39,0,.34.21.45.06.31.25.35-.08v-.93l.25-.36.09-.83-.13-.57,1.05-.52.1-.41-.5-.32-.37-1.21-.47,0-.44-.36-.28.13-.19-1.14.45-.71.09-.41-.09-.54-.31-.36.08-.52.46-.59.3-.06.4.3.34-.19.26.29.71.28.15.34.55-.13.37.38-.06.4-.54.21-.31.55.19.35-.19.29-.61,0-.05.32,1,1.62.8.18.36-.54-.34-.09-.35-.37.25-.16.58-1.11.3-.12-.06-1.36.35-.32.66-.07,1,.34.46,0,.75.72.62,1,.54.16.57-.28-.2-.55.3-.67L250,92.57l-.76,0-.08-.31-.81-.22-.14-.21-.46,0-.35-.33-.51-.21,0-.3.54-.35-.18-1L247,89l-.46-.22-.27.26h-.48l-.27-.26-.46,0-.26-.25-.64.76-.12.29-.87.28-.39-.45.1-1,.19-.22,1.17-.7.1-.53.21-.15.24-.56.62-.26-.19-.59.08-.62.24-.57.34-.26.15-.38.27-.16.56-1.18-.31-.54,0-.35-.32-.5.37-.25.3.92.35.08V81l.24-.21-.47-.47.12-.48-.37-.58-.65-.19-.42.16-.28,1-.6.32-.29-.33,0-.51-.32-.26-.63.1-.41-.1-.41.22-.28-.1-.29.22-.43-.14-.47.31-.84-.11-.31.1-.28-.33-.39.21-.26-.44-.46,0-.3.48v.62l.33.21.77.26-.23.92.08.79-.46.08-.35-.46-.72.17.33.54-.23.66,0,1,.32.86-.27.52-.2.81-.35.27-.68.22-.61.52-.35.12-.48-.11-.54.11-.07-.26-.55-.5-.28,0-.36.54-1-.67-1.21-.52-.56.06-.42-.27-.9-.28-.49-.43-.68-.1-.22-.25.14-.45-.4-.66-1.07-.68.41-.78-.32-1-.69,0-.31.43.55.65-.27.36-.49.14-.55.35-.46,0-.25-.54-.63.09-.24.39-.3-.1-.13.48-.85.53-.08.38-.7,0-.28-.62-.59-.12-.46.14v-.72l.14-.45.36.2,0-.44.29-.23.44,0,.23-.46-.26-.68.24-.48-.47-.28h-.39l-.39-.2-.8,0-.5-.39v-.37l-.41-.25-1.12-.1-.37-.52-1.27.72-.25-.1.32-.8-.09-.72-.24-.6-.41-.15-.48.37h-.47l.07-2.25,2.15,0,.53-.27-.33-.5h-.23l-.62-.7.71-.34.2-1.09-.11-.6h.45l-.11-.48.18-.2.18-.64h.27l.34.3.75.31.34-.06.2-.55-.1-.77.25-.48.28-.13.2-.44.66-.84.23.5.49-.16h.52l.44.17.56,0,.38.41.21.73.55.67.77-.14.67.41-.05.59.46.49.39.09-.06,1.09.3.11.82-.06.28.49.59.11.16.83-.18.46.4,0L229,75l.09-.63.41-.88,0-.31.32-.41.35.17.41-.38h.63l.38-.63-.14-.47-.25-.13-.58.34-.58-.54-.5-.11-.22-.32-.07-.53-.23-.43-.39-.19.34-.67-.24-.69.47-.64.54-.21.09-.25.71-.35.55-.61.51,0,.28-.32.41.18.54-.42,0-.29,1.29.12.21.2h.59l1,.45.48.07-.1.57.2.42.73.38.2.32.54-.27.34.22.61.14.17.27,1.07.88.84-.22.46-.39,1.18-.35,1.43-1,.4.09.27-.45.47,0,.41-.74.21-.86,1.84-.14.78.18.11.6-.18.37.12.78-1.32.72.92.37,0,.62.27.82.58.44.47-.38.69.06.55.43.76-.08.42-.29.41.31.15.51-.18.62-.34.07v.5h.44l.4.24-.54.47-.46.14-.06.52-.37-.12-.4.17.08.45.44.53.53-.1.17.62-.36.08L251.31,76l0,.44.2.32v.43l.77-.05v-.44l.28-.17.23.46.38.27.37-.39.07-.36.4.22.72-.21.23-.68,0-1.31ZM248,74.5l-.67.15-.19.64.63.88.57.16.33-.29.26-.7-.22-.75ZM273,72.39l-.37.17-.53-.08-.32.5-.06.56.63.15.35-.1.27.24.27-.21-.16-.39.15-.67Z" fill="#c6c6c6" stroke="#fff" stroke-linecap="round" stroke-linejoin="round" stroke-width="0.5"/><path d="M233,108.25l-.49-.1-2.72.06-.44-.07h-1.2l-.68-.53,0-.79-.17-.08-1.09-1.14,0-2.06.32-.39-.18-.94.16-.45-2.12-.71h-.61l-.66.54-.36-.2-.24-.44.14-.5-1.34-.9v-.41l-.87-1.37-.07-.63.09-.36-.14-.52L220,96l-.46-1,0-.47,1,.24.88-.14.19-.56.49-.11-.1-.57L222,92l-.13-.34-.72-.61-1.06.11.47-.7-.63-.69-.25-.59.16-.83.48-.22.64.22.44.59.65,0,.22-.27.47.16.59-.06-.34-.41.28-.37.14-1.19-.6-.61h-1.35l.36-.39,0-.6-.37-.22.7,0,.08-.38.85-.53.13-.48.3.1.24-.39.63-.09.25.54.46,0,.55-.35.49-.14.27-.36-.55-.65.31-.43.69,0,.32,1-.41.78,1.07.68.4.66-.14.45.22.25.68.1.49.43.9.28.42.27.56-.06,1.21.52,1,.67.36-.54.28,0,.55.5.07.26.54-.11.48.11.35-.12.61-.52.68-.22.35-.27.2-.81.27-.52-.32-.86,0-1,.23-.66-.33-.54.72-.17.35.46.46-.08-.08-.79.23-.92-.77-.26-.33-.21v-.62l.3-.48.46,0,.26.44.39-.21.28.33.31-.1.84.11.47-.31.43.14.29-.22.28.1.41-.22.41.1.63-.1.32.26,0,.51.29.33.6-.32.28-1,.42-.16.65.19.37.58-.12.48.47.47-.24.21v.5l-.35-.08-.3-.92-.37.25.32.5,0,.35.31.54-.56,1.18-.27.16-.15.38-.34.26-.24.57-.08.62.19.59-.62.26-.24.56-.21.15-.1.53-1.17.7-.19.22-.1,1,.39.45.87-.28.12-.29.64-.76.26.25.46,0,.27.26h.48l.27-.26L247,89l.31.69.18,1L247,91l0,.3.51.21.35.33.46,0,.14.21.81.22.08.31.76,0,.45,1.84-.3.67.2.55-.57.28-.54-.16-.62-1-.75-.72-.46,0-1-.34-.66.07-.35.32.06,1.36-.3.12-.58,1.11-.25.16.35.37.34.09-.36.54-.8-.18-1-1.62.05-.32.61,0,.19-.29-.19-.35.31-.55.54-.21.06-.4-.37-.38-.55.13-.15-.34L242.7,93l-.26-.29-.34.19-.4-.3-.3.06-.46.59-.08.52.31.36.09.54-.09.41-.45.71.19,1.14.28-.13.44.36.47,0,.37,1.21.5.32-.1.41-1.05.52.13.57-.09.83-.25.36v.93l-.35.08-.31-.25-.45-.06-.34-.21-.39,0-.12.24-.81.33-.73.39-.56,0-.35-.25-.54-.13-.26.13-.72.06-1-.06-.41.61-.23,1,0,1.35-.26.6h-1.31l.25.77-.17.18Z" fill="#c6c6c6" stroke="#fff" stroke-linecap="round" stroke-linejoin="round" stroke-width="0.5"/><path d="M250.24,114.79l.93-.52.46-.15.83-1.25.73-1.23-.16-.54.37-.92.08-.49.2-.22,1.29-2.91,0-.41.16-.89,1-2.7.25-.48.67-.81.46.24.55.08,2.6-.42.73-.86.86-.47.58-.44.65-.2-.34-.9,0-1.3-.08-.65.09-1.37-.16-.87,0-.36.29-.55,1.24-1.28.43,0,.71.49.94.42.57.16.66.57.66.75.51-.49.35-.66.59-.37.3.26.54-.13.46-.27v-.37l.41-.78.15-1,.62-.87,0-.32.34-.65,0-.89-.07-.2-2.2-.86-.21-.88.65-1.76-.32-.5.1-1.71.16-.87.57-.89v-.74l.32-.49,1.06-.85.34-.18.43.72,1.3.32.2.27.27,1.44.36.7.32.21.3-.36.24-.83.24-.5.84-.25.2-.9-.1-.58-.43-.45,0-.68.15-.33-1.17-1.28-.43-.67-.33-.24.26-.38-.28-.25-.32-.67-.1-.63.75-.54.53-.2.53-.35.19-.36.48-.08.21.15.43-.21.07-.26-.31-.37-.27.21L276.58,70l-.26-.35-.34,0-1.07.39h-1.16l-.64-.46-.47.07-1.12,1.12-.91-.44-.23,0-.9.6-.11.94-.58-.07-.08-.25-.74.11-.36.31-1.32-.33-.5,0-.68.54-.65.24-.31.24-.63.25-.82.09-.11-.61.44.07.5-.14-.27-.32-.35-.11-1.08.14,0-.64.36-.86.72-1,1.08-1-.44-.78.28-.87.22-1.18.59-2-.07-.58.83-.84.29-.48L266,61l.9-.06,1.38,0,1.14,0,.52-.12.77.22.74.07.76-.4,1.69-.14,1-.32,1-.25.78.14.16.4.3.25.58,0,.19.19-1.11,1.27-.72,1.07.41.83.47.45.14.77.32.94.3.34.65.4.23.26.28.82.42.43.51,0,.32.29.26,1.29.17.36.32.11.43.46.29.52.1.49,1,.59.32-.14,2.77,2.52,4.64,1.53,2.55.85L297.58,79l3.11,1,3.57,1.2,3.33,1.13h7.06l-3.12,3-4.09,3.87-3.11,3.17-4.14,4.23-2,2.15-2.48,2.71-3.07,3.34-3.17-.2-3.84-.23-.92.35-1.22.16-1.42.5-1.22.54-1.19.59-1.25,1-.2.33-.17.66-.42.51-1,.33-.86.09-1.82.43-1.27-.05-.88.23-.83.64-.15.48-.34.38-.37.15-.83-.37-1.38.17-.48.2-2.09,0-.33-.12-.52-.53-.39-.56-1.63-1.3-.81.43-2,.77-.07.17-1.5.56-1.32.68-1,.42-.61,1.39L253.88,115l-.25.69-.44-.32-1.48-.18-.71,0Z" fill="#c6c6c6" stroke="#fff" stroke-linecap="round" stroke-linejoin="round" stroke-width="0.5"/><path d="M256.7,35.84l0,.37-.29.15-.7,0-.38-.14-.31.8-.46.26-.09.55.61.18.52-.1,0,.75.31.27-.39.68v.71l.29.52-.07,1.46-.87-.17-.18.69.17.63-.17.68.48.23.34,1.26.22.5,0,.36.32.35.53.94-.57.22-.43.35-.24.85.41.47L256,50l-.48.56,0,.6-.41.15-.93,0-.2.27-.45,0-.15-.45h-.48l-.26.21h-.93l-.33-.41-.07-.87-.45-1.23.77-.33-.09-.6.07-.4-.14-.64-.69-.24-.58-.08-.6-.32-.16-.69.47-.41-.66-.6-.64.21-1-.43.09-.52-.26-.35-.61-.16-.23-.69-.57.24-.1-.25.41-.31-.64-.13-.43.21-.34-.1-.29.37-1.26.22-.22-.16-.4.19-.37-.24-.76.39-.27-.21-.36.09-.06-.4-.28-.32h-.31l-.24.66-.41.43-.86.34-1.11,0-.31.45-1,.11-1.06-.5-1-.27-.49-.41-.55.52h-1.1l-.29-.36.07-.42-.71-1.83-.2-.2.24-.55-.29-.85.77-2.34.6-.2.36.08.44-.16h.85l.76.22.29.28.58-.14.08-.47.25-.52.56-.23.7,0,.2.23.49-.44h.62l.43.19.88-.42.39-.86.42-.22v-.59l.37-.51.31,0,.47-.33.22.11.34.68,1,.45.27-.11.53.16,0,.39.71.92.43.16.19.39,1.22-.17.63-.23.66,0,.39-.24.41,0,.51-.29.35-.66h.54l.74.16.19.31,0,.83.21.44.37-.14.09-.48.37-.4.93.18L253,34.6l.18-.53.52,0,.39.44.59.42.41.08.19.29.58.28.37.34Zm-3.46,6.33-.41.08-.12.43.44.26Z" fill="#c6c6c6" stroke="#fff" stroke-linecap="round" stroke-linejoin="round" stroke-width="0.5"/><circle cx="240.02" cy="53.06" r="2.24" fill="#589be5" stroke="#0072bc" stroke-miterlimit="10" stroke-width="0.3" opacity="0.6"/><circle cx="248.32" cy="38.78" r="1.88" fill="#589be5" stroke="#0072bc" stroke-miterlimit="10" stroke-width="0.3" opacity="0.6"/><circle cx="262.88" cy="52.69" r="6.14" fill="#589be5" stroke="#0072bc" stroke-miterlimit="10" stroke-width="0.3" opacity="0.6"/><circle cx="285.33" cy="90.73" r="7.86" fill="#589be5" stroke="#0072bc" stroke-miterlimit="10" stroke-width="0.3" opacity="0.6"/><circle cx="256.74" cy="84.75" r="10.26" fill="#589be5" stroke="#0072bc" stroke-miterlimit="10" stroke-width="0.3" opacity="0.6"/><circle cx="236.51" cy="90.74" r="5.35" fill="#589be5" stroke="#0072bc" stroke-miterlimit="10" stroke-width="0.3" opacity="0.6"/><circle cx="215.56" cy="84.38" r="3.46" fill="#589be5" stroke="#0072bc" stroke-miterlimit="10" stroke-width="0.3" opacity="0.6"/><circle cx="224.16" cy="62.48" r="2.49" fill="#589be5" stroke="#0072bc" stroke-miterlimit="10" stroke-width="0.3" opacity="0.6"/><circle cx="270.66" cy="71.27" r="2.35" fill="#589be5" stroke="#0072bc" stroke-miterlimit="10" stroke-width="0.3" opacity="0.6"/><path d="M89,74.5l.71.09.22.75-.26.7-.33.29-.57-.16-.63-.88.19-.64Z" fill="#c6c6c6" stroke="#fff" stroke-linecap="round" stroke-linejoin="round" stroke-width="0.5"/><path d="M110.93,60.81l-.52.12-1.14,0-1.38,0L107,61l-.26.69-.29.48-.83.84.07.58-.59,2-.22,1.18-.28.87.44.78-1.08,1-.72,1-.36.86,0,.64-.24.29-1,.14-.42.22-.45.53-.59.92-.59.58-.06.56-.49.24-.54.74-.61,0,.29-.76-.12-.24-.6-.26-.24-.27-.07-.46-.66,0,0-.25.43-.4L96.8,73l-.52,0L96,72.61l.49-.45.45-1.4-.32-.82.26-.21.53.15.31-.18.14-.45.3-.17.26-.67L98,68h-.61l-.15-.7.48.09,1,0,.19-.13-.21-.61.19-.6,0-1.29L98.6,62.7v-.29l.42-.3,0-.5-.33-.46.45-.64.19-.6L99.06,59l-.51-.56-.22-.06-.12-1.17-.45-.7.16-.45-.66-.4-.35-.56V53.64l-.26-.57-.3-1,.2-.32-.07-.61,0-.6L97,50l-.13-.34-.41-.47.24-.85.43-.35.57-.22-.53-.94-.32-.35,0-.36-.22-.5-.34-1.26-.48-.23L96,43.4l-.17-.63.18-.69.87.17.07-1.46-.29-.52v-.71l.39-.68-.31-.27,0-.75-.52.1-.61-.18.09-.55.46-.26.31-.8.38.14.7,0,.29-.15,0-.37.51-.39.61-.08.6.14,1.61.83,1.49,1,1.35,1,1.74,1.49,1.26,1.2.45.6,1.58,1.43.58.62,1.94,1.87.68.77.56,1L114.05,49l.27.43.51.28.36.34-.44.53-.22.64-.38.33-.93,1.25-.5.83-.8,1.15-.86.55-.5,1.69.24.92.13.89-.08,1.64Z" fill="#c6c6c6" stroke="#fff" stroke-linecap="round" stroke-linejoin="round" stroke-width="0.5"/><path d="M96.49,51.11l.07.61-.2.32.3,1,.26.57v1.42l.35.56.66.4-.16.45.45.7.12,1.17.22.06.51.56.29.95-.19.6-.45.64.33.46,0,.5-.42.3v.29L99,64.79l0,1.29-.19.6.21.61-.19.13-1,0-.48-.09.15.7H98l.41.43-.26.67-.3.17-.14.45-.31.18-.53-.15-.26.21.32.82-.45,1.4-.49.45.25.37.52,0,.09.58-.43.4,0,.25-.54.33,0,1.31-.23.68-.72.21-.4-.22-.07.36-.37.39L93.82,77l-.23-.46-.28.17v.44l-.77.05v-.43l-.2-.32,0-.44.41-1.19.36-.08-.17-.62-.53.1-.44-.53-.08-.45.4-.17.37.12.06-.52.46-.14.54-.47-.4-.24h-.44v-.5l.34-.07.18-.62-.15-.51-.41-.31-.42.29-.76.08-.55-.43-.69-.06-.47.38-.58-.44-.27-.82,0-.62-.92-.37,1.32-.72-.12-.78.18-.37-.11-.6-.78-.18-1.84.14-.21.86-.41.74-.47,0-.27.45-.4-.09-1.43,1-1.18.35L82,68.9l-.84.22-1.07-.88L79.92,68l-.61-.14L79,67.61l-.54.27-.2-.32-.73-.38-.2-.42.1-.57-.48-.07-1-.45h-.59l-.21-.2-1.29-.12,0,.29-.7-.37-.36,0-.14-.3,0-.56-.85.2-.66-.52-.27-.56.31-.41,0-.31.41-.39-.66-.33.6-1,1.33-1.39-.59-.13v-.79l.69-.39v-.28l-.48-.63-.64.22.25-.57-.81-1.26,0-.94-.89.54-.3.32-.29-.3-.14-.7-.79-.8-.44,0-1,.6-1,.09-.16.32-.49.1-.43.36-.69-.08-.42-.17-.48-.4L63.49,54l.89-1.72,1.91-3.09.28-.07.11-.47,1.91-.36.78-.06.51.07L70,47.07l-.18-.32.25-.46L70,46l.67-2.43,1.07-1.45.09-.65.32-.76.2.2L73,42.72l-.07.42.29.36h1.1l.55-.52.49.41,1,.27,1.06.5,1-.11.31-.45,1.11,0,.86-.34.41-.43.24-.66h.31l.28.32.06.4.36-.09.27.21.76-.39.37.24.4-.19.22.16,1.26-.22.29-.37.34.1.43-.21.64.13-.41.31.1.25.57-.24.23.69.61.16.26.35-.09.52,1,.43.64-.21.66.6-.47.41.16.69.6.32.58.08.69.24.14.64-.07.4.09.6-.77.33L92.28,50l.07.87.33.41h.93l.26-.21h.48l.15.45.45,0,.2-.27.93,0Z" fill="#c6c6c6" stroke="#fff" stroke-linecap="round" stroke-linejoin="round" stroke-width="0.5"/><path d="M73.81,65.64l-.54.42-.41-.18-.28.32-.51,0-.55.61-.71.35-.09.25-.54.21-.47.64.24.69-.34.67.39.19.23.43.07.53.22.32.5.11.58.54.58-.34.25.13.14.47-.38.63h-.63l-.41.38-.35-.17-.32.41,0,.31-.41.88L70,75l-.55-.27-.4,0,.18-.46-.16-.83-.59-.11-.28-.49-.82.06-.3-.11.06-1.09-.39-.09-.46-.49,0-.59-.67-.41-.77.14-.55-.67-.21-.73-.38-.41-.56,0-.44-.17h-.52l-.49.16-.23-.5-.66.84-.2.44-.28.13-.25.48.1.77-.2.55-.34.06-.75-.31-.34-.3h-.27l-.18.64-.18.2.11.48h-.45l.11.6-.2,1.09-.71.34.62.7h.23l.33.5-.53.27-2.15,0L55,71.18l.4-1.49.48-1.06.17-.89.67-.65.18-.88-.45-2.28.49-.56.63-1.11,1.12-.75.57.38.92.81.43-.06.83-1,0-.37-.33-.3.52-1.58-.28-.72.88-1.89,0-.46L62.09,56,62,55.41l.42-.87.83-.35.21-.21.27.87.48.4.42.17.69.08.43-.36.49-.1.16-.32,1-.09,1-.6.44,0,.79.8.14.7.29.3.3-.32.89-.54,0,.94.81,1.26-.25.57.64-.22.48.63v.28l-.69.39v.79l.59.13-1.33,1.39-.6,1,.66.33-.41.39,0,.31-.31.41.27.56.66.52.85-.2,0,.56.14.3.36,0Z" fill="#c6c6c6" stroke="#fff" stroke-linecap="round" stroke-linejoin="round" stroke-width="0.5"/><path d="M110.37,71.77l.11-.94.9-.6.23,0,.91.44,1.12-1.12.47-.07.64.46-.58.49h-.42l-.55.28.2.42-.62.59-.61-.24-.5.26-1-.13Z" fill="#c6c6c6" stroke="#fff" stroke-linecap="round" stroke-linejoin="round" stroke-width="0.5"/><path d="M62.44,85l.37.22,0,.6-.36.39h1.35l.6.61L64.3,88l-.28.37.34.41-.59.06-.47-.16-.22.27-.65,0L62,88.33l-.64-.22-.48.22-.16.83.25.59.63.69-.47.7L62.18,91l.72.61L63,92,63,93.36l.1.57-.49.11-.19.56-.88.14-1-.24,0-.25-.68-1.79L59.46,92l-.52-.37-.75-.14-.41-1.21L57,90l-.45,0-.46-.4-.53-1.1-1-.55v-1l-1-1.06-1.25-1-1.8-.62L47.82,84l-.32-.07-.27-.4L47.06,83l.29-.52.65-.75.47-.28-.19-1.57.08-.31.67-.45.85.17.92-.2h.91l.59.67.41.05.58-.42.86-.09,1-.87.13-.68h.47l.48-.37.41.15.24.6.09.72-.32.8.25.1L58.15,79l.37.52,1.12.1.41.25v.37l.5.39.8,0,.39.2h.39l.47.28-.24.48.26.68-.23.46-.44,0-.29.23,0,.44-.36-.2-.14.45v.72l.46-.14.59.12Z" fill="#c6c6c6" stroke="#fff" stroke-linecap="round" stroke-linejoin="round" stroke-width="0.5"/><path d="M114,72.39l.23.17-.15.67.16.39-.27.21-.27-.24-.35.1-.63-.15.06-.56.32-.5.53.08Z" fill="#c6c6c6" stroke="#fff" stroke-linecap="round" stroke-linejoin="round" stroke-width="0.5"/><path d="M96.49,74.19l.66,0,.07.46.24.27.6.26.12.24-.29.76.61,0,.54-.74.49-.24.06-.56.59-.58.59-.92.45-.53.42-.22,1-.14.24-.29,1.08-.14.35.11.27.32-.5.14-.44-.07.11.61.82-.09.63-.25.31-.24.65-.24.68-.54.5,0,1.32.33.36-.31.74-.11.08.25.58.07.28-.14,1,.13.5-.26.61.24.62-.59-.2-.42.55-.28h.42l.58-.49h1.16l1.07-.39.34,0,.26.35,1.22.51.27-.21.31.37-.07.26-.43.21-.21-.15-.48.08-.19.36-.53.35-.53.2-.75.54.1.63.32.67.28.25-.26.38.33.24.43.67,1.17,1.28-.15.33,0,.68.43.45.1.58-.2.9-.84.25-.24.5-.24.83-.3.36-.32-.21-.36-.7-.27-1.44-.2-.27-1.3-.32-.43-.72-.34.18-1.06.85-.32.49v.74l-.57.89-.16.87-.1,1.71.32.5-.65,1.76.21.88,2.2.86.07.2,0,.89-.34.65,0,.32-.62.87-.15,1-.41.78v.37l-.46.27-.54.13-.3-.26-.59.37-.35.66-.51.49-.66-.75-.66-.57-.57-.16-.94-.42L106,91.9l-.43,0-1.24,1.28-.29.55,0,.36.16.87-.09,1.37.08.65,0,1.3.34.9-.65.2-.58.44-.86.47-.73.86-2.6.42-.55-.08-.46-.24-.67.81-.25.48-1,2.7-.16.89,0,.41-1.29,2.91-.2.22-.08.49-.37.92.16.54-.73,1.23-.83,1.25-.46.15-.93.52-1.3.12-2.11-.64-.76-.18-.5.2-.9-.07-1.46,0-.48-.29-.42-.56L78.12,110,77,109.32l-.66-.65-1.1-.43H74l-.41-1.06.17-.18-.25-.77h1.31l.26-.6,0-1.35.23-1,.41-.61,1,.06.72-.06.26-.13.54.13.35.25.56,0,.73-.39.81-.33.12-.24.39,0,.34.21.45.06.31.25.35-.08v-.93l.25-.36.09-.83-.13-.57,1.05-.52.1-.41-.5-.32-.37-1.21-.47,0-.44-.36-.28.13-.19-1.14.45-.71.09-.41-.09-.54-.31-.36.08-.52.46-.59.3-.06.4.3.34-.19.26.29.71.28.15.34.55-.13.37.38-.06.4-.54.21-.31.55.19.35-.19.29-.61,0,0,.32,1,1.62.8.18.36-.54-.34-.09-.35-.37.25-.16.58-1.11.3-.12-.06-1.36.35-.32.66-.07,1,.34.46,0,.75.72.62,1,.54.16.57-.28-.2-.55.3-.67L91,92.57l-.76,0-.08-.31L89.39,92l-.14-.21-.46,0-.35-.33-.51-.21,0-.3.54-.35-.18-1L88,89l-.46-.22-.27.26H86.8l-.27-.26-.46,0-.26-.25-.64.76-.12.29-.87.28-.39-.45.1-1,.19-.22,1.17-.7.1-.53.21-.15.24-.56.62-.26-.19-.59.08-.62.24-.57.34-.26.15-.38.27-.16.56-1.18-.31-.54,0-.35-.32-.5.37-.25.3.92.35.08V81l.24-.21L88,80.36l.12-.48-.37-.58-.65-.19-.42.16-.28,1-.6.32-.29-.33,0-.51-.32-.26-.63.1-.41-.1-.41.22-.28-.1-.29.22-.43-.14-.47.31-.84-.11-.31.1-.28-.33-.39.21-.26-.44-.46,0-.3.48v.62l.33.21.77.26-.23.92.08.79-.46.08-.35-.46-.72.17.33.54-.23.66,0,1,.32.86L79,86.1l-.2.81-.35.27-.68.22-.61.52-.35.12-.48-.11-.54.11-.07-.26-.55-.5-.28,0-.36.54-1-.67-1.21-.52-.56.06-.42-.27-.9-.28L70,85.73l-.68-.1-.22-.25.14-.45-.4-.66-1.07-.68.41-.78-.32-1-.69,0-.31.43.55.65-.27.36-.49.14-.55.35-.46,0-.25-.54-.63.09-.24.39-.3-.1-.13.48-.85.53-.08.38-.7,0-.28-.62-.59-.12-.46.14v-.72l.14-.45.36.2,0-.44.29-.23.44,0,.23-.46-.26-.68.24-.48-.47-.28h-.39l-.39-.2-.8,0-.5-.39v-.37l-.41-.25-1.12-.1L58.15,79l-1.27.72-.25-.1.32-.8-.09-.72-.24-.6-.41-.15-.48.37h-.47l.07-2.25,2.15,0,.53-.27-.33-.5h-.23l-.62-.7.71-.34.2-1.09-.11-.6h.45L58,71.46l.18-.2.18-.64h.27l.34.3.75.31.34-.06.2-.55-.1-.77.25-.48.28-.13.2-.44.66-.84.23.5.49-.16h.52l.44.17.56,0,.38.41.21.73.55.67.77-.14.67.41,0,.59.46.49.39.09-.06,1.09.3.11.82-.06.28.49.59.11.16.83-.18.46.4,0L70,75l.09-.63.41-.88,0-.31.32-.41.35.17.41-.38h.63l.38-.63-.14-.47-.25-.13-.58.34L71,71.16l-.5-.11-.22-.32-.07-.53L70,69.77l-.39-.19.34-.67-.24-.69.47-.64.54-.21.09-.25.71-.35.55-.61.51,0,.28-.32.41.18.54-.42,0-.29,1.29.12.21.2h.59l1,.45.48.07-.1.57.2.42.73.38.2.32.54-.27.34.22.61.14.17.27,1.07.88L82,68.9l.46-.39,1.18-.35,1.43-1,.4.09.27-.45.47,0,.41-.74.21-.86,1.84-.14.78.18.11.6-.18.37.12.78-1.32.72.92.37,0,.62.27.82.58.44.47-.38.69.06.55.43.76-.08.42-.29.41.31.15.51-.18.62-.34.07v.5h.44l.4.24-.54.47-.46.14-.06.52-.37-.12-.4.17.08.45.44.53.53-.1.17.62-.36.08L92.31,76l0,.44.2.32v.43l.77-.05v-.44l.28-.17.23.46.38.27.37-.39.07-.36.4.22.72-.21.23-.68,0-1.31ZM89,74.5l-.67.15-.19.64.63.88.57.16.33-.29.26-.7-.22-.75ZM114,72.39l-.37.17-.53-.08-.32.5-.06.56.63.15.35-.1.27.24.27-.21-.16-.39.15-.67Z" fill="#c6c6c6" stroke="#fff" stroke-linecap="round" stroke-linejoin="round" stroke-width="0.5"/><path d="M74,108.25l-.49-.1-2.72.06-.44-.07h-1.2l-.68-.53,0-.79-.17-.08-1.09-1.14,0-2.06.32-.39-.18-.94.16-.45-2.12-.71h-.61l-.66.54-.36-.2-.24-.44.14-.5-1.34-.9v-.41l-.87-1.37-.07-.63.09-.36-.14-.52L61,96l-.46-1,0-.47,1,.24.88-.14.19-.56.49-.11-.1-.57L63,92l-.13-.34L62.18,91l-1.06.11.47-.7L61,89.75l-.25-.59.16-.83.48-.22.64.22.44.59.65,0,.22-.27.47.16.59-.06L64,88.36,64.3,88l.14-1.19-.6-.61H62.49l.36-.39,0-.6L62.44,85l.7,0,.08-.38.85-.53.13-.48.3.1.24-.39.63-.09.25.54.46,0,.55-.35.49-.14.27-.36-.55-.65.31-.43.69,0,.32,1-.41.78,1.07.68.4.66-.14.45.22.25.68.1.49.43.9.28.42.27.56-.06,1.21.52,1,.67.36-.54.28,0,.55.5.07.26.54-.11.48.11.35-.12.61-.52.68-.22.35-.27.2-.81.27-.52L79,84.72l0-1,.23-.66-.33-.54.72-.17.35.46.46-.08-.08-.79L80.6,81l-.77-.26-.33-.21v-.62l.3-.48.46,0,.26.44.39-.21.28.33.31-.1.84.11.47-.31.43.14.29-.22.28.1.41-.22.41.1.63-.1.32.26,0,.51.29.33.6-.32.28-1,.42-.16.65.19.37.58-.12.48.47.47-.24.21v.5l-.35-.08-.3-.92-.37.25.32.5,0,.35.31.54-.56,1.18-.27.16-.15.38-.34.26-.24.57-.08.62.19.59-.62.26-.24.56-.21.15-.1.53-1.17.7-.19.22-.1,1,.39.45.87-.28.12-.29.64-.76.26.25.46,0,.27.26h.48l.27-.26L88,89l.31.69.18,1L88,91l0,.3.51.21.35.33.46,0,.14.21.81.22.08.31.76,0,.45,1.84-.3.67.2.55-.57.28-.54-.16-.62-1L88.91,94l-.46,0-1-.34-.66.07-.35.32.06,1.36-.3.12L85.6,96.7l-.25.16.35.37.34.09-.36.54-.8-.18-1-1.62,0-.32.61,0,.19-.29-.19-.35.31-.55.54-.21.06-.4-.37-.38-.55.13-.15-.34L83.7,93l-.26-.29-.34.19-.4-.3-.3.06-.46.59-.08.52.31.36.09.54-.09.41-.45.71L81.91,97l.28-.13.44.36.47,0,.37,1.21.5.32-.1.41-1.05.52.13.57-.09.83-.25.36v.93l-.35.08L82,102.2l-.45-.06-.34-.21-.39,0-.12.24-.81.33-.73.39-.56,0-.35-.25-.54-.13-.26.13-.72.06-1-.06-.41.61-.23,1,0,1.35-.26.6H73.53l.25.77-.17.18Z" fill="#c6c6c6" stroke="#fff" stroke-linecap="round" stroke-linejoin="round" stroke-width="0.5"/><path d="M91.24,114.79l.93-.52.46-.15.83-1.25.73-1.23L94,111.1l.37-.92.08-.49.2-.22L96,106.56l0-.41.16-.89,1-2.7.25-.48.67-.81.46.24.55.08,2.6-.42.73-.86.86-.47.58-.44.65-.2-.34-.9,0-1.3-.08-.65.09-1.37-.16-.87,0-.36.29-.55,1.24-1.28.43,0,.71.49.94.42.57.16.66.57.66.75.51-.49.35-.66.59-.37.3.26.54-.13.46-.27v-.37l.41-.78.15-1,.62-.87,0-.32.34-.65,0-.89-.07-.2-2.2-.86-.21-.88.65-1.76-.32-.5.1-1.71.16-.87.57-.89v-.74l.32-.49,1.06-.85.34-.18.43.72,1.3.32.2.27.27,1.44.36.7.32.21.3-.36.24-.83.24-.5.84-.25.2-.9-.1-.58-.43-.45,0-.68.15-.33-1.17-1.28-.43-.67-.33-.24.26-.38-.28-.25-.32-.67-.1-.63.75-.54.53-.2.53-.35.19-.36.48-.08.21.15.43-.21.07-.26-.31-.37-.27.21L117.58,70l-.26-.35-.34,0-1.07.39h-1.16l-.64-.46-.47.07-1.12,1.12-.91-.44-.23,0-.9.6-.11.94-.58-.07-.08-.25-.74.11-.36.31-1.32-.33-.5,0-.68.54-.65.24-.31.24-.63.25-.82.09-.11-.61.44.07.5-.14-.27-.32-.35-.11-1.08.14,0-.64.36-.86.72-1,1.08-1-.44-.78.28-.87.22-1.18.59-2-.07-.58.83-.84.29-.48L107,61l.9-.06,1.38,0,1.14,0,.52-.12.77.22.74.07.76-.4,1.69-.14,1-.32,1-.25.78.14.16.4.3.25.58,0,.19.19-1.11,1.27-.72,1.07.41.83.47.45.14.77.32.94.3.34.65.4.23.26.28.82.42.43.51,0,.32.29.26,1.29.17.36.32.11.43.46.29.52.1.49,1,.59.32-.14,2.77,2.52,4.64,1.53,2.55.85L138.58,79l3.11,1,3.57,1.2,3.33,1.13h7.06l-3.12,3-4.09,3.87-3.11,3.17-4.14,4.23-2,2.15-2.48,2.71-3.07,3.34-3.17-.2-3.84-.23-.92.35-1.22.16-1.42.5-1.22.54-1.19.59-1.25,1-.2.33-.17.66-.42.51-1,.33-.86.09-1.82.43-1.27-.05-.88.23-.83.64-.15.48-.34.38-.37.15-.83-.37-1.38.17-.48.2-2.09,0-.33-.12-.52-.53-.39-.56-1.63-1.3-.81.43-2,.77-.07.17-1.5.56-1.32.68-1,.42-.61,1.39L94.88,115l-.25.69-.44-.32-1.48-.18-.71,0Z" fill="#c6c6c6" stroke="#fff" stroke-linecap="round" stroke-linejoin="round" stroke-width="0.5"/><path d="M97.7,35.84l0,.37-.29.15-.7,0-.38-.14-.31.8-.46.26-.09.55.61.18.52-.1,0,.75.31.27-.39.68v.71l.29.52-.07,1.46L96,42.08l-.18.69.17.63-.17.68.48.23.34,1.26.22.5,0,.36.32.35.53.94-.57.22-.43.35-.24.85.41.47L97,50l-.48.56,0,.6-.41.15-.93,0-.2.27-.45,0-.15-.45h-.48l-.26.21h-.93l-.33-.41L92.28,50l-.45-1.23.77-.33-.09-.6.07-.4-.14-.64-.69-.24-.58-.08-.6-.32-.16-.69.47-.41-.66-.6-.64.21-1-.43.09-.52-.26-.35-.61-.16-.23-.69-.57.24-.1-.25.41-.31-.64-.13-.43.21-.34-.1-.29.37-1.26.22-.22-.16-.4.19-.37-.24-.76.39-.27-.21-.36.09-.06-.4-.28-.32h-.31l-.24.66-.41.43-.86.34-1.11,0-.31.45-1,.11-1.06-.5-1-.27L74.91,43l-.55.52h-1.1L73,43.14l.07-.42-.71-1.83-.2-.2.24-.55-.29-.85L72.85,37l.6-.2.36.08.44-.16h.85l.76.22.29.28.58-.14.08-.47.25-.52.56-.23.7,0,.2.23.49-.44h.62l.43.19.88-.42.39-.86.42-.22v-.59l.37-.51.31,0,.47-.33.22.11.34.68,1,.45.27-.11.53.16,0,.39.71.92.43.16.19.39,1.22-.17.63-.23.66,0,.39-.24.41,0,.51-.29.35-.66h.54l.74.16.19.31,0,.83.21.44.37-.14.09-.48.37-.4.93.18L94,34.6l.18-.53.52,0,.39.44.59.42.41.08.19.29.58.28.37.34Zm-3.46,6.33-.41.08-.12.43.44.26Z" fill="#c6c6c6" stroke="#fff" stroke-linecap="round" stroke-linejoin="round" stroke-width="0.5"/><circle cx="81.02" cy="53.06" r="2.24" fill="#589be5" stroke="#0072bc" stroke-miterlimit="10" stroke-width="0.3" opacity="0.6"/><circle cx="89.32" cy="38.78" r="1.88" fill="#589be5" stroke="#0072bc" stroke-miterlimit="10" stroke-width="0.3" opacity="0.6"/><circle cx="103.88" cy="52.69" r="6.14" fill="#589be5" stroke="#0072bc" stroke-miterlimit="10" stroke-width="0.3" opacity="0.6"/><circle cx="35.74" cy="46.87" r="6.14" fill="none" stroke="#5e5e5e" stroke-miterlimit="10" stroke-width="0.3"/><circle cx="126.33" cy="90.73" r="7.86" fill="#589be5" stroke="#0072bc" stroke-miterlimit="10" stroke-width="0.3" opacity="0.6"/><circle cx="97.74" cy="84.75" r="10.26" fill="#589be5" stroke="#0072bc" stroke-miterlimit="10" stroke-width="0.3" opacity="0.6"/><circle cx="35.74" cy="42.75" r="10.26" fill="none" stroke="#5e5e5e" stroke-miterlimit="10" stroke-width="0.3"/><circle cx="77.51" cy="90.74" r="5.35" fill="#589be5" stroke="#0072bc" stroke-miterlimit="10" stroke-width="0.3" opacity="0.6"/><circle cx="56.56" cy="84.38" r="3.46" fill="#589be5" stroke="#0072bc" stroke-miterlimit="10" stroke-width="0.3" opacity="0.6"/><circle cx="35.74" cy="49.55" r="3.46" fill="none" stroke="#5e5e5e" stroke-miterlimit="10" stroke-width="0.3"/><circle cx="65.16" cy="62.48" r="2.49" fill="#589be5" stroke="#0072bc" stroke-miterlimit="10" stroke-width="0.3" opacity="0.6"/><circle cx="111.66" cy="71.27" r="2.35" fill="#589be5" stroke="#0072bc" stroke-miterlimit="10" stroke-width="0.3" opacity="0.6"/><line x1="36" y1="32.5" x2="48" y2="32.5" fill="none" stroke="#919191" stroke-miterlimit="10" stroke-width="0.3"/><line x1="36" y1="40.74" x2="48" y2="40.74" fill="none" stroke="#919191" stroke-miterlimit="10" stroke-width="0.3"/><line x1="36" y1="46.08" x2="48" y2="46.08" fill="none" stroke="#919191" stroke-miterlimit="10" stroke-width="0.3"/><path d="M52.36,34.63l-.87-1.18-.87,1.18H50.1l1.11-1.48-1.05-1.41h.52l.81,1.1.81-1.1h.51l-1.05,1.41,1.12,1.48Z" fill="#919191"/><path d="M55.29,34.63l-.88-1.18-.87,1.18H53l1.11-1.48-1.05-1.41h.53l.8,1.1.81-1.1h.51l-1,1.41,1.11,1.48Z" fill="#919191"/><path d="M58.21,34.63l-.88-1.18-.87,1.18H56l1.11-1.48L56,31.74h.52l.8,1.1.81-1.1h.52l-1,1.41,1.11,1.48Z" fill="#919191"/><path d="M52.36,41.63l-.87-1.18-.87,1.18H50.1l1.11-1.48-1.05-1.41h.52l.81,1.1.81-1.1h.51l-1.05,1.41,1.12,1.48Z" fill="#919191"/><path d="M55.29,41.63l-.88-1.18-.87,1.18H53l1.11-1.48-1.05-1.41h.53l.8,1.1.81-1.1h.51l-1,1.41,1.11,1.48Z" fill="#919191"/><path d="M58.21,41.63l-.88-1.18-.87,1.18H56l1.11-1.48L56,38.74h.52l.8,1.1.81-1.1h.52l-1,1.41,1.11,1.48Z" fill="#919191"/><path d="M52.36,47.63l-.87-1.18-.87,1.18H50.1l1.11-1.48-1.05-1.41h.52l.81,1.1.81-1.1h.51l-1.05,1.41,1.12,1.48Z" fill="#919191"/><path d="M55.29,47.63l-.88-1.18-.87,1.18H53l1.11-1.48-1.05-1.41h.53l.8,1.1.81-1.1h.51l-1,1.41,1.11,1.48Z" fill="#919191"/><path d="M58.21,47.63l-.88-1.18-.87,1.18H56l1.11-1.48L56,44.74h.52l.8,1.1.81-1.1h.52l-1,1.41,1.11,1.48Z" fill="#919191"/></svg>