<svg xmlns="http://www.w3.org/2000/svg" width="10cm" height="10cm" viewBox="0 0 283.46 283.46"><rect x="0.5" y="0.5" width="282.47" height="282.47" fill="#fff"/><rect width="283.46" height="283.46" fill="#fff"/><path d="M283.46,283.46H0V0H283.46ZM1,282.47H282.47V1H1Z" fill="#609ad2"/><path d="M115.85,142.22l1.49.19.45,1.57-.55,1.46-.69.6-1.19-.34-1.3-1.84.39-1.33Z" fill="#97bbe3" stroke="#fff" stroke-linecap="round" stroke-linejoin="round" stroke-width="0.5"/><path d="M161.73,113.64l-1.09.23-2.38.1-2.88-.07-1.87.13-.55,1.43-.62,1-1.72,1.75.15,1.21-1.24,4.26-.46,2.46-.58,1.83.91,1.61-2.26,2.1-1.49,2.1-.75,1.79-.08,1.34-.52.6-2,.29-.87.46-.95,1.12-1.23,1.91L138,142.51l-.11,1.17-1,.5-1.14,1.54-1.27.1.61-1.6-.24-.5-1.26-.53-.5-.59-.15-.95-1.38-.07-.07-.53.91-.85-.2-1.21-1.07,0-.53-.77,1-.94.94-2.93-.67-1.7.55-.45,1.11.33.64-.38.3-.94.63-.36.54-1.4-.86-.9-1.28,0-.3-1.46,1,.19,2.1.09.39-.29-.44-1.26.4-1.27.09-2.69-.79-4.36V117l.88-.63.05-1-.7-1,1-1.33.38-1.26-.6-2-1.06-1.16-.47-.13-.25-2.45-.93-1.46.33-.93-1.38-.83-.74-1.18,0-3-.53-1.2-.63-2.14.42-.69-.15-1.26,0-1.26,1-1.17-.27-.71-.85-1,.49-1.77.9-.74,1.2-.45-1.12-2-.67-.72,0-.76-.45-1-.72-2.63-1-.49.36-1.42L130.09,76l.38-1.43,1.8.34.16-3-.62-1.08V69.26l.79-1.42-.63-.57-.1-1.58-1.06.22-1.29-.38.18-1.15,1-.55.66-1.66.79.3,1.47.1.61-.32-.1-.76,1.08-.83,1.28-.17,1.25.3,3.35,1.74,3.12,2L147,66.75l3.64,3.11,2.62,2.51,1,1.25,3.29,3,1.21,1.29,4,3.9,1.42,1.61,1.17,2.12L168.24,89l.57.9,1.07.58.74.73-.91,1.1-.47,1.34-.8.68-1.94,2.62-1,1.73L163.8,101,162,102.19l-1.05,3.52.52,1.92.27,1.86-.17,3.43Z" fill="#97bbe3" stroke="#fff" stroke-linecap="round" stroke-linejoin="round" stroke-width="0.5"/><path d="M131.57,93.37l.15,1.26-.42.69.63,2.14.53,1.2,0,3,.74,1.18,1.38.83-.33.93.93,1.46.25,2.45.47.13,1.06,1.16.6,2-.38,1.26-1,1.33.7,1-.05,1L136,117v.6l.79,4.36-.09,2.69-.4,1.27.44,1.26-.39.29-2.1-.09-1-.19.3,1.46,1.28,0,.86.9-.54,1.4-.63.36-.3.94-.64.38-1.11-.33-.55.45.67,1.7-.94,2.93-1,.94.53.77,1.07,0,.2,1.21-.91.85.07.53-1.14.68.09,2.74-.47,1.42-1.51.44-.83-.47-.16.75-.77.81-.78-.56-.48-.95-.59.36,0,.91-1.61.09,0-.88-.43-.68,0-.92.84-2.49.76-.16-.36-1.28-1.11.2-.92-1.12-.17-.93.85-.34.77.24.13-1.08,1-.3,1.11-1-.83-.5H124l0-1,.72-.16.38-1.28-.33-1.07-.84-.64L123,133l-1.58.17-1.16-.9-1.43-.12-1,.79-1.22-.91-.58-1.72.09-1.29-1.92-.77,2.77-1.5-.26-1.63.38-.79-.23-1.25-1.62-.38-3.85.31-.45,1.8-.85,1.54-1-.1-.57.94-.83-.21-3,2-2.47.73-1,.83-1.74.46-2.24-1.85-.36-.57-1.28-.27-.7-.48-1.13.57-.4-.67-1.53-.78-.42-.89.21-1.18-1-.15-2-1-1.24,0-.44-.43-2.68-.25-.1.6-1.45-.77L82,123l-.28-.62.09-1.17-1.78.42-1.37-1.1-.55-1.16.64-.86-.1-.63.85-.83-1.38-.69,1.26-2.14,2.78-2.91L80.91,111v-1.65l1.44-.81,0-.6-1-1.3-1.33.45.52-1.19-1.69-2.62-.05-2L77,102.48l-.64.66-.59-.62-.31-1.47-1.65-1.67-.9.09-2,1.25-2.07.18-.33.68-1,.21-.91.75-1.44-.18-.87-.35-1-.82-.55-1.83,1.86-3.59,4-6.44.58-.17.23-1,4-.75,1.62-.13,1.06.14.26-2.52-.36-.66.5-1-.17-.65,1.38-5.07,2.25-3L80,73.2l.68-1.59.41.43,1.48,3.82-.14.86.61.75,2.3,0,1.15-1.07,1,.86,2,.56,2.21,1,2.06-.23.65-.94,2.31-.1,1.81-.72.86-.89.5-1.37h.63l.61.66.12.84.74-.18.57.43,1.58-.82.77.51.85-.41.45.34,2.64-.46.61-.77.7.21.89-.43,1.34.27-.86.65.22.52,1.19-.51.49,1.44,1.26.33.54.75-.18,1.07,2,.9,1.34-.42,1.37,1.23-1,.86.33,1.45,1.25.66,1.22.17,1.44.51.29,1.34-.16.83.2,1.26-1.61.67.94,2.58.14,1.81.69.86h1.94l.55-.43,1,0,.31.93.94-.08.41-.56,1.95.06Z" fill="#97bbe3" stroke="#fff" stroke-linecap="round" stroke-linejoin="round" stroke-width="0.5"/><path d="M84.2,123.71l-1.13.89-.85-.39-.59.68-1.06-.09-1.14,1.27-1.48.74-.2.52-1.12.44-1,1.33.49,1.44-.71,1.4.81.4.5.9.13,1.1.47.67,1,.23,1.2,1.13,1.22-.72.51.29.31,1-.81,1.32-1.31,0-.85.79-.73-.34-.67.86,0,.65L76.44,142l-.19,1.33-1.14-.57-.85,0,.39-1-.33-1.72-1.25-.24-.58-1-1.72.11-.61-.23.12-2.26-.82-.2-.95-1L68.6,134l-1.4-.87-1.6.3-1.16-1.41L64,130.54l-.8-.85-1.16-.05-.92-.34-1.08,0-1,.33-.47-1-1.37,1.73-.42.93-.58.26-.54,1,.23,1.61-.43,1.16-.72.12-1.56-.64-.7-.64h-.56l-.38,1.34-.37.4.21,1h-.92l.21,1.26-.4,2.27-1.49.71,1.3,1.46.47,0,.69,1.05-1.1.55-4.48.08-.74-8.93.82-3.1,1-2.23.35-1.85,1.4-1.36.38-1.83-.94-4.77,1-1.18,1.31-2.31,2.34-1.56,1.2.8,1.92,1.69.91-.13,1.73-2,0-.77-.68-.62,1.09-3.29-.58-1.52L60,105.29l.06-1-.37-.72-.13-1.27.87-1.82,1.75-.72.44-.45.55,1.83,1,.82.87.35,1.44.18.91-.75,1-.21.33-.68,2.07-.18,2-1.25.9-.09,1.65,1.67.31,1.47.59.62.64-.66,1.85-1.13.05,2,1.69,2.62L80,107.13l1.33-.45,1,1.3,0,.6-1.44.81V111l1.24.27-2.78,2.91-1.26,2.14,1.38.69-.85.83.1.63-.64.86.55,1.16,1.37,1.1,1.78-.42-.09,1.17L82,123l.76-.06Z" fill="#97bbe3" stroke="#fff" stroke-linecap="round" stroke-linejoin="round" stroke-width="0.5"/><path d="M160.56,136.51l.22-1.95,1.88-1.26.5.07,1.88.92,2.34-2.35,1-.15,1.34,1-1.22,1-.88,0-1.15.59.42.87-1.28,1.24-1.29-.51-1,.54-2.13-.28Z" fill="#97bbe3" stroke="#fff" stroke-linecap="round" stroke-linejoin="round" stroke-width="0.5"/><path d="M60.47,164.13l.76.46.09,1.24-.75.82H63.4l1.25,1.25-.3,2.5-.58.77.7.87-1.22.1-1-.33-.45.58-1.37,0-.91-1.24-1.33-.47-1,.46-.31,1.74.51,1.23,1.31,1.44-1,1.46,2.21-.21L61.43,178l.28.71-.19,2.88.21,1.19-1,.24-.38,1.15-1.83.31-2-.5,0-.53L55,179.73l-.79-1-1.1-.78-1.56-.27-.86-2.53-1.68-.68-.93-.08-1-.83-1.1-2.3L44,170.13v-2l-2.15-2.22-2.61-2-3.76-1.3-5.56-.56-.67-.14-.56-.84-.35-1.21.6-1.08,1.36-1.57,1-.59-.38-3.27.16-.65,1.4-.94,1.77.36,1.93-.43h1.9l1.23,1.39.85.11,1.22-.88,1.79-.18,2-1.81.28-1.42h1l1-.77.86.31.5,1.24L49,151.2l-.67,1.66.52.21,2.65-1.5.78,1.09,2.33.2.86.53v.78l1,.8,1.66.05.81.42h.83l1,.58-.51,1,.55,1.41-.48,1-.91,0-.61.47-.11.92-.76-.42-.28.94v1.51l1-.3,1.23.26Z" fill="#97bbe3" stroke="#fff" stroke-linecap="round" stroke-linejoin="round" stroke-width="0.5"/><path d="M168.18,137.82l.48.35-.31,1.39.34.82-.58.45-.55-.52-.74.21-1.32-.31.14-1.17.66-1,1.11.16Z" fill="#97bbe3" stroke="#fff" stroke-linecap="round" stroke-linejoin="round" stroke-width="0.5"/><path d="M131.57,141.58l1.38.07.15.95.5.59,1.26.53.24.5-.61,1.6,1.27-.1,1.14-1.54,1-.5.11-1.17,1.23-1.21,1.23-1.91.95-1.12.87-.46,2-.29.52-.6,2.25-.29.72.22.57.66-1.05.3-.92-.15.23,1.28,1.73-.19,1.32-.51.64-.52,1.34-.5,1.42-1.12,1.05-.07,2.76.69.75-.64,1.54-.23.17.51,1.22.15.58-.3,2.13.28,1-.54,1.29.51,1.28-1.24-.42-.87,1.15-.59.88,0,1.22-1,2.41,0,2.25-.81.7.09.55.72,2.53,1.08.57-.45.64.77-.14.55-.9.44-.44-.32-1,.18-.4.75-1.1.73-1.11.41L172.7,138l.21,1.31.67,1.4.59.53-.53.79.68.51.89,1.39,2.45,2.67-.32.7-.09,1.41.92.94.2,1.22-.42,1.87-1.76.53-.5,1-.5,1.74-.61.74-.69-.44-.74-1.45-.56-3-.41-.56-2.72-.68-.91-1.5-.71.38-2.21,1.77-.66,1v1.56l-1.19,1.84-.33,1.82-.21,3.57.68,1.06-1.36,3.66.43,1.84,4.59,1.81.16.41-.08,1.86-.71,1.36.07.67-1.3,1.82-.32,2.08-.85,1.62v.79l-1,.55-1.14.27-.62-.53-1.22.76-.74,1.37-1.07,1L157.44,182l-1.37-1.2-1.2-.33-2-.86-1.48-1-.9,0-2.59,2.67-.6,1.14-.05.76.34,1.81-.19,2.87.17,1.35-.05,2.71.72,1.89-1.37.41-1.19.93-1.82,1-1.51,1.81-5.42.87-1.16-.18-1-.48-1.38,1.69-.53,1-2.15,5.64-.33,1.86,0,.86-2.71,6.08-.41.45-.17,1-.76,1.91.32,1.13-1.51,2.57L123.51,225l-1,.31-1.94,1.09-2.7.25-4.41-1.32-1.59-.39-1,.42-1.88-.14-3.06,0-1-.61-.88-1.16L93.2,216.31l-2.27-1.39-1.37-1.35-2.3-.89H84.64l-.86-2.21.35-.37-.52-1.61,2.76,0,.53-1.27-.05-2.81.49-2,.85-1.28,2,.12,1.51-.11.53-.29,1.14.28.73.53,1.16-.11,1.52-.81,1.69-.69.26-.51.82-.1.7.45.95.12.65.51.72-.15v-1.94l.51-.76.19-1.73-.26-1.2,2.19-1.09.21-.86-1.05-.67-.77-2.51-1-.07-.92-.76-.59.27-.39-2.37.94-1.49.18-.85-.18-1.12-.65-.76.16-1.08,1-1.24.62-.13.85.64.71-.41.54.62,1.49.58.31.7,1.14-.27.77.79-.13.85-1.12.44-.64,1.14.4.74-.41.59-1.27.09-.11.67,2,3.38L109,191l.75-1.12-.71-.19-.73-.77.52-.32,1.22-2.33.61-.26-.11-2.83.72-.67,1.38-.15,2.13.72,1-.11,1.55,1.5,1.31,2.14,1.12.33,1.19-.59-.41-1.14.62-1.4-.95-3.85-1.58,0-.16-.65-1.69-.47-.3-.43-1,.1-.74-.68-1-.45.06-.62,1.12-.73-.37-2.12-.65-1.43-1-.47-.57.54h-1l-.56-.55-1-.05-.54-.52L107.93,173l-.25.6-1.82.59-.81-.94.21-2.07.4-.46,2.43-1.45.22-1.12.45-.32.48-1.16,1.3-.55-.39-1.22.17-1.3.49-1.18.72-.54.31-.81.55-.34,1.19-2.46-.67-1.12.06-.73-.68-1.05.77-.52.63,1.93.75.15,0-1,.51-.44-1-1,.24-1-.76-1.22-1.36-.4-.88.34-.58,2.06-1.25.68-.61-.69.06-1.06-.68-.56-1.3.21-.87-.21-.85.47-.58-.22-.6.46L103,153l-1,.64-1.74-.24-.65.22L99,153l-.81.45-.55-.91-1,0-.62,1v1.28l.68.45,1.62.55-.49,1.9.17,1.65-1,.17-.74-1-1.49.37.68,1.12-.49,1.38,0,2.19.66,1.79-.57,1.09-.42,1.7-.73.55-1.41.48-1.27,1.07-.74.25-1-.24-1.13.24-.14-.55-1.16-1-.57,0-.76,1.12-2.11-1.4-2.53-1.08-1.18.12-.87-.56-1.87-.59-1-.88-1.43-.23-.45-.51.29-.94-.82-1.38-2.25-1.42.85-1.62-.67-2-1.43-.06-.65.89,1.16,1.36-.57.76-1,.27-1.14.75-1-.08-.51-1.14-1.32.19-.5.81-.64-.2-.26,1-1.79,1.11-.15.78-1.46.1-.59-1.3-1.23-.26-1,.3v-1.51l.28-.94.76.42.11-.92.61-.47.91,0,.48-1L60.29,157l.51-1-1-.58H59l-.81-.42L56.52,155l-1-.8v-.78l-.86-.53-2.33-.2-.78-1.09-2.65,1.5-.52-.21L49,151.2l-.18-1.51-.5-1.24-.86-.31-1,.77h-1l.16-4.7,4.48-.08,1.1-.55-.69-1.05-.47,0-1.3-1.46,1.49-.71.4-2.27-.21-1.26h.92l-.21-1,.37-.4.38-1.34h.56l.7.64,1.56.64.72-.12.43-1.16-.23-1.61.54-1,.58-.26.42-.93,1.37-1.73.47,1,1-.33,1.08,0,.92.34,1.16.05.8.85.43,1.52,1.16,1.41,1.6-.3,1.4.87-.09,1.23.95,1,.82.2-.12,2.26.61.23,1.72-.11.58,1,1.25.24.33,1.72-.39,1,.85,0,1.14.57.19-1.33.86-1.82,0-.65.67-.86.73.34.85-.79,1.31,0,.81-1.32-.31-1-.51-.29-1.22.72-1.2-1.13-1-.23-.47-.67-.13-1.1-.5-.9-.81-.4.71-1.4-.49-1.44,1-1.33,1.12-.44.2-.52,1.48-.74,1.14-1.27,1.06.09.59-.68.85.39,1.13-.89.1-.6,2.68.25.44.43,1.24,0,2,1,1,.15-.21,1.18.42.89,1.53.78.4.67,1.13-.57.7.48,1.28.27.36.57L99.56,131l1.74-.46,1-.83,2.47-.73,3-2,.83.21.57-.94,1,.1.85-1.54.45-1.8,3.85-.31,1.62.38.23,1.25-.38.79.26,1.63-2.77,1.5,1.92.77-.09,1.29.58,1.72,1.22.91,1-.79,1.43.12,1.16.9L123,133l.88-.59.84.64.33,1.07-.38,1.28-.72.16,0,1h.91l.83.5-1.11,1-1,.3-.13,1.08-.77-.24-.85.34.17.93.92,1.12,1.11-.2.36,1.28-.76.16-.84,2.49,0,.92.43.68,0,.88,1.61-.09,0-.91.59-.36.48.95.78.56.77-.81.16-.75.83.47,1.51-.44.47-1.42-.09-2.74Zm-15.72.64-1.4.31-.39,1.33,1.3,1.84,1.19.34.69-.6.55-1.46-.45-1.57Zm52.33-4.4-.77.35L166.3,138l-.66,1-.14,1.17,1.32.31.74-.21.55.52.58-.45-.34-.82.31-1.39Z" fill="#609ad2" stroke="#fff" stroke-linecap="round" stroke-linejoin="round" stroke-width="0.5"/><path d="M84.64,212.69l-1-.19-5.68.11-.92-.13H74.52l-1.42-1.12,0-1.63-.35-.17-2.27-2.39.08-4.3.66-.82-.37-1.95.34-1-4.44-1.48H65.43l-1.38,1.14-.75-.41-.49-.92.29-1.05-2.81-1.89,0-.84-1.8-2.87-.16-1.31.18-.74-.27-1.1-.72-.69-.95-2-.1-1,2,.5,1.83-.31L60.7,183l1-.24-.21-1.19.19-2.88-.28-.71-1.51-1.26-2.21.21,1-1.46-1.31-1.44-.51-1.23.31-1.74,1-.46,1.33.47.91,1.24,1.37,0,.45-.58,1,.33,1.22-.1-.7-.87.58-.77.3-2.5-1.25-1.25H60.57l.75-.82-.09-1.24-.76-.46,1.46-.1.15-.78,1.79-1.11.26-1,.64.2.5-.81,1.32-.19.51,1.14,1,.08,1.14-.75,1-.27.57-.76-1.16-1.36.65-.89,1.43.06.67,2-.85,1.62,2.25,1.42.82,1.38-.29.94.45.51,1.43.23,1,.88,1.87.59.87.56,1.18-.12,2.53,1.08,2.11,1.4.76-1.12.57,0,1.16,1,.14.55,1.13-.24,1,.24.74-.25,1.27-1.07,1.41-.48.73-.55.42-1.7.57-1.09L95,163.56l0-2.19.49-1.38-.68-1.12,1.49-.37.74,1,1-.17-.17-1.65.49-1.9-1.62-.55-.68-.45v-1.28l.62-1,1,0,.55.91L99,153l.59.7.65-.22,1.74.24,1-.64.91.28.6-.46.58.22.85-.47.87.21,1.3-.21.68.56-.06,1.06.61.69,1.25-.68.58-2.06.88-.34,1.36.4.76,1.22-.24,1,1,1-.51.44,0,1-.75-.15-.63-1.93-.77.52.68,1.05-.06.73.67,1.12-1.19,2.46-.55.34-.31.81-.72.54-.49,1.18-.17,1.3.39,1.22-1.3.55-.48,1.16-.45.32-.22,1.12-2.43,1.45-.4.46-.21,2.07.81.94,1.82-.59.25-.6,1.33-1.58.54.52,1,.05.56.55h1l.57-.54,1,.47.65,1.43.37,2.12-1.12.73-.06.62,1,.45.74.68,1-.1.3.43,1.69.47.16.65,1.58,0,.95,3.85-.62,1.4.41,1.14-1.19.59-1.12-.33-1.31-2.14-1.55-1.5-1,.11-2.13-.72-1.38.15-.72.67.11,2.83-.61.26-1.22,2.33-.52.32.73.77.71.19L109,191l-1.67-.37-2-3.38.11-.67,1.27-.09.41-.59-.4-.74.64-1.14,1.12-.44.13-.85-.77-.79-1.14.27-.31-.7-1.49-.58-.54-.62-.71.41-.85-.64-.62.13-1,1.24-.16,1.08.65.76.18,1.12-.18.85-.94,1.49.39,2.37.59-.27.92.76,1,.07.77,2.51,1.05.67-.21.86L103,194.8l.26,1.2-.19,1.73-.51.76v1.94l-.72.15-.65-.51-.95-.12-.7-.45-.82.1-.26.51-1.69.69-1.52.81-1.16.11-.73-.53-1.14-.28-.53.29-1.51.11-2-.12-.85,1.28-.49,2,.05,2.81-.53,1.27-2.76,0,.52,1.61-.35.37Z" fill="#97bbe3" stroke="#fff" stroke-linecap="round" stroke-linejoin="round" stroke-width="0.5"/><path d="M120.6,226.35l1.94-1.09,1-.31,1.74-2.61,1.51-2.57-.32-1.13.76-1.91.17-1,.41-.45,2.71-6.08,0-.86.33-1.86,2.15-5.64.53-1,1.38-1.69,1,.48,1.16.18,5.42-.87,1.51-1.81,1.82-1,1.19-.93,1.37-.41-.72-1.89.05-2.71-.17-1.35.19-2.87-.34-1.81.05-.76.6-1.14,2.59-2.67.9,0,1.48,1,2,.86,1.2.33,1.37,1.2,1.38,1.56,1.07-1,.74-1.37,1.22-.76.62.53,1.14-.27,1-.55v-.79l.85-1.62.32-2.08,1.3-1.82-.07-.67.71-1.36.08-1.86-.16-.41L163,167.67l-.43-1.84,1.36-3.66-.68-1.06.21-3.57.33-1.82,1.19-1.84v-1.56l.66-1,2.21-1.77.71-.38.91,1.5,2.72.68.41.56.56,3,.74,1.45.69.44.61-.74.5-1.74.5-1,1.76-.53.42-1.87-.2-1.22-.92-.94.09-1.41.32-.7-2.45-2.67-.89-1.39-.68-.51.53-.79-.59-.53-.67-1.4L172.7,138l1.57-1.13,1.11-.41,1.1-.73.4-.75,1-.18.44.32.9-.44.14-.55-.64-.77-.57.45-2.53-1.08-.55-.72-.7-.09-2.25.81-2.41,0-1.34-1-1,.15L165,134.29l-1.88-.92-.5-.07-1.88,1.26-.22,1.95-1.22-.15-.17-.51-1.54.23-.75.64-2.76-.69-1.05.07-1.42,1.12-1.34.5-.64.52-1.32.51-1.73.19-.23-1.28.92.15,1.05-.3-.57-.66-.72-.22-2.25.29.08-1.34.75-1.79,1.49-2.1,2.26-2.1-.91-1.61.58-1.83.46-2.46,1.24-4.26-.15-1.21,1.72-1.75.62-1,.55-1.43,1.87-.13,2.88.07,2.38-.1,1.09-.23,1.61.45,1.53.14,1.6-.83,3.53-.3,2.15-.67,2.11-.5,1.63.29.32.82.63.53,1.21.09.4.41-2.32,2.64-1.5,2.23.87,1.74,1,.95.31,1.59.67,2,.61.71,1.35.83.5.55.58,1.71.89.89,1.06.1.67.6.54,2.69.34.76.69.23.88.95.62,1.08.21,1,2.14,1.24.66-.28,5.8,5.25,9.68,3.21L210,148.5l9.48,3.17,6.5,2.2,7.47,2.51,6.94,2.36,9,0,5.74,0-6.53,6.19L240.06,173l-6.5,6.62-8.64,8.83L220.78,193l-5.17,5.67-6.41,7-6.63-.42-8-.49-1.91.74-2.56.33-3,1.06-2.56,1.11-2.47,1.24-2.61,2.14-.43.67-.36,1.39-.86,1.07-2.05.69-1.79.18-3.82.89-2.63-.11-1.85.5L164,217.91l-.31,1-.71.8-.78.32-1.73-.78-2.89.36-1,.41-4.36.12-.69-.26-1.09-1.1-.81-1.17-3.42-2.71-1.68.9-4.14,1.59-.15.37-3.12,1.15-2.76,1.42-2,.9L131,224.12l-2.84,2.68-.52,1.43-.92-.66-3.09-.38-1.48-.05Z" fill="#97bbe3" stroke="#fff" stroke-linecap="round" stroke-linejoin="round" stroke-width="0.5"/><path d="M134.09,61.49l.1.76-.61.32-1.47-.1-.79-.3-.66,1.66-1,.55-.18,1.15,1.29.38,1.06-.22.1,1.58.63.57-.79,1.42v1.47l.62,1.08-.16,3-1.8-.34L130.09,76l.36,1.32-.36,1.42,1,.49.72,2.63.45,1,0,.76.67.72,1.12,2-1.2.45-.9.74-.49,1.77.85,1,.27.71-1,1.17,0,1.26-.85.31-1.95-.06-.41.56-.94.08-.31-.93-1,0-.55.43h-1.94l-.69-.86-.14-1.81-.94-2.58,1.61-.67-.2-1.26.16-.83-.29-1.34-1.44-.51-1.22-.17-1.25-.66-.33-1.45,1-.86-1.37-1.23-1.34.42-2-.9L115.3,78l-.54-.75-1.26-.33L113,75.49l-1.19.51-.22-.52.86-.65-1.34-.27-.89.43-.7-.21-.61.77-2.64.46-.45-.34-.85.41-.77-.51-1.58.82-.57-.43-.74.18-.12-.84-.61-.66H100L99.46,76l-.86.89-1.81.72-2.31.1-.65.94-2.06.23-2.21-1-2-.56-1-.86-1.15,1.07-2.3,0-.61-.75.14-.86L81.11,72l-.41-.43.5-1.16-.61-1.77,1.61-4.87,1.26-.43.75.17.92-.33h1.76l1.61.46.58.57L90.31,64l.16-1,.52-1.1,1.18-.47,1.45-.09.43.48,1-.91,1.3,0,.9.41,1.84-.88.81-1.81.89-.45V56.91l.76-1.06.65.08,1-.69.47.23.71,1.42,2,.93.56-.22,1.11.34,0,.8,1.48,1.92.89.35.4.81,2.55-.35,1.31-.48,1.38,0,.82-.49.86-.08,1-.62.74-1.37h1.12l1.56.33.39.65-.08,1.73.43.93.78-.29.19-1,.77-.83,1.94.38-.23-1.43.38-1.11,1.1.1.81.93,1.21.87.87.16.39.61,1.21.58.78.71ZM126.88,74.7l-.87.16-.24.9.92.55Z" fill="#97bbe3" stroke="#fff" stroke-linecap="round" stroke-linejoin="round" stroke-width="0.5"/></svg>