<svg xmlns="http://www.w3.org/2000/svg" width="350" height="148" viewBox="0 0 350 148"><rect width="350" height="148" fill="#f1f2f2"/><path d="M254.61,74.5l.71.09.21.75-.26.7-.33.29-.57-.16-.62-.88.19-.64Z" fill="#c6c6c6" stroke="#fff" stroke-linecap="round" stroke-linejoin="round" stroke-width="0.5"/><path d="M276.57,60.81l-.52.12-1.14,0-1.37,0-.9.06-.26.69-.3.48-.82.84.07.58-.6,2-.22,1.18-.27.87.43.78-1.08,1-.71,1-.36.86,0,.64-.25.29-1,.14-.41.22-.46.53-.59.92-.59.58-.05.56-.49.24-.55.74-.61,0,.3-.76-.12-.24-.6-.26-.24-.27-.07-.46-.67,0,0-.25.44-.4-.1-.58-.51,0-.26-.37.49-.45.45-1.4-.32-.82.27-.21.53.15.3-.18.15-.45.3-.17.26-.67-.41-.43h-.62l-.14-.7.48.09,1,0,.18-.13-.21-.61.19-.6.05-1.29-.38-2.09v-.29l.42-.3,0-.5-.34-.46.46-.64.18-.6-.28-.95-.51-.56-.23-.06-.12-1.17-.44-.7.16-.45-.67-.4-.35-.56V53.64l-.25-.57-.3-1,.2-.32-.08-.61,0-.6.48-.56-.13-.34-.4-.47.23-.85.43-.35.58-.22-.54-.94-.32-.35,0-.36-.21-.5-.35-1.26-.47-.23.17-.68-.18-.63.19-.69.86.17.07-1.46-.29-.52v-.71l.38-.68-.3-.27-.05-.75-.51.1-.62-.18.09-.55.46-.26.31-.8.38.14.71,0,.29-.15-.05-.37.52-.39.61-.08.6.14,1.6.83,1.5,1,1.34,1,1.75,1.49,1.25,1.2.46.6,1.57,1.43.59.62,1.93,1.87.68.77.56,1L279.69,49l.28.43.51.28.35.34-.43.53-.23.64-.38.33-.93,1.25-.5.83-.79,1.15-.87.55L276.2,57l.24.92.14.89-.09,1.64Z" fill="#589be5" stroke="#fff" stroke-linecap="round" stroke-linejoin="round" stroke-width="0.5"/><path d="M262.13,51.11l.08.61L262,52l.3,1,.25.57v1.42l.35.56.67.4-.16.45.44.7.12,1.17.23.06.51.56.28.95-.18.6-.46.64.34.46,0,.5-.42.3v.29l.38,2.09-.05,1.29-.19.6.21.61-.18.13-1,0-.48-.09.14.7h.62l.41.43-.26.67-.3.17-.15.45-.3.18-.53-.15-.27.21.32.82-.45,1.4-.49.45.26.37.51,0,.1.58-.44.4,0,.25-.54.33,0,1.31-.23.68-.72.21-.4-.22-.07.36-.37.39-.37-.27-.23-.46-.29.17v.44l-.77.05v-.43l-.2-.32,0-.44.4-1.19.37-.08-.18-.62-.53.1-.44-.53-.08-.45.41-.17.37.12.06-.52.46-.14.53-.47-.4-.24h-.44v-.5l.34-.07.19-.62-.16-.51-.41-.31-.42.29-.75.08-.56-.43-.68-.06-.47.38-.59-.44-.27-.82,0-.62-.92-.37,1.33-.72L255,66.3l.19-.37-.11-.6-.78-.18-1.85.14-.21.86-.41.74-.46,0-.28.45-.4-.09-1.42,1-1.19.35-.46.39-.84.22-1.07-.88-.17-.27-.61-.14-.34-.22-.54.27-.19-.32-.73-.38-.21-.42.11-.57-.49-.07-1-.45H241l-.21-.2-1.28-.12-.05.29-.69-.37-.37,0-.13-.3,0-.56-.85.2-.66-.52-.26-.56.31-.41-.05-.31.41-.39-.67-.33.61-1,1.33-1.39-.59-.13v-.79l.69-.39v-.28l-.48-.63-.63.22.25-.57-.81-1.26,0-.94-.88.54-.31.32-.28-.3-.15-.7-.79-.8L234,54l-1,.6-1,.09-.15.32-.5.1-.43.36-.69-.08-.42-.17-.48-.4-.26-.87.89-1.72,1.91-3.09.28-.07.1-.47,1.91-.36.78-.06.51.07.12-1.21-.17-.32.24-.46-.08-.31.66-2.43,1.08-1.45.08-.65.32-.76.2.2.71,1.83-.07.42.29.36H240l.55-.52.48.41,1,.27,1.06.5,1-.11.32-.45,1.1,0,.86-.34.42-.43.24-.66h.3l.29.32.06.4.35-.09.28.21.75-.39.37.24.41-.19.21.16,1.27-.22.29-.37.34.1.42-.21.64.13-.41.31.11.25.57-.24.23.69.6.16.26.35-.08.52,1,.43.64-.21.66.6-.46.41.16.69.59.32.59.08.69.24.13.64-.07.4.09.6-.76.33.45,1.23.06.87.33.41h.93l.26-.21H260l.15.45.44,0,.2-.27.94,0Z" fill="#0072bc" stroke="#fff" stroke-linecap="round" stroke-linejoin="round" stroke-width="0.5"/><path d="M239.45,65.64l-.54.42-.41-.18-.28.32-.51,0-.55.61-.7.35-.1.25-.53.21-.47.64.23.69-.34.67.39.19.24.43.06.53.23.32.5.11.57.54.59-.34.24.13.15.47-.39.63h-.63l-.4.38-.35-.17-.32.41,0,.31-.42.88-.09.63-.54-.27-.41,0,.19-.46-.16-.83-.6-.11-.28-.49L233,73l-.29-.11.06-1.09-.4-.09-.45-.49,0-.59-.67-.41-.77.14-.55-.67-.21-.73-.38-.41-.55,0-.45-.17h-.51l-.5.16-.23-.5-.65.84-.21.44-.27.13-.26.48.11.77-.2.55-.35.06-.75-.31-.34-.3H224l-.19.64-.17.2.1.48h-.44l.1.6-.19,1.09-.72.34.63.7h.22l.33.5-.53.27-2.14,0-.35-4.27.39-1.49.49-1.06.17-.89.67-.65.18-.88-.45-2.28.48-.56.63-1.11,1.12-.75.58.38.91.81.44-.06.83-1,0-.37-.33-.3.53-1.58-.28-.72.87-1.89,0-.46-.18-.34-.06-.61.42-.87.83-.35.22-.21.26.87.48.4.42.17.69.08.43-.36.5-.1.15-.32,1-.09,1-.6.43,0,.79.8.15.7.28.3.31-.32.88-.54,0,.94.81,1.26-.25.57.63-.22.48.63v.28l-.69.39v.79l.59.13-1.33,1.39-.61,1,.67.33-.41.39.05.31-.31.41.26.56.66.52.85-.2,0,.56.13.3.37,0Z" fill="#9dc5ff" stroke="#fff" stroke-linecap="round" stroke-linejoin="round" stroke-width="0.5"/><path d="M276,71.77l.1-.94.9-.6.24,0,.9.44,1.12-1.12.48-.07.64.46-.59.49h-.42l-.55.28.2.42-.61.59-.62-.24-.5.26-1-.13Z" fill="#c6c6c6" stroke="#fff" stroke-linecap="round" stroke-linejoin="round" stroke-width="0.5"/><path d="M228.09,85l.36.22,0,.6-.36.39h1.36l.6.61L230,88l-.28.37.33.41-.58.06-.47-.16-.22.27-.66,0-.43-.59-.64-.22-.49.22-.15.83.25.59.62.69-.46.7,1.06-.11.72.61.13.34-.09,1.38.1.57-.49.11-.18.56-.88.14-1-.24,0-.25-.67-1.79-.38-.46-.53-.37-.74-.14-.42-1.21-.8-.32-.45,0-.46-.4-.52-1.1-1-.55v-1l-1-1.06-1.26-1-1.79-.62L213.46,84l-.32-.07-.27-.4L212.7,83l.3-.52.64-.75.47-.28-.18-1.57.07-.31.67-.45.85.17.93-.2h.91l.58.67.41.05.59-.42.85-.09,1-.87.14-.68h.47l.48-.37.41.15.24.6.08.72-.32.8.25.1,1.27-.72.37.52,1.12.1.41.25v.37l.5.39.79,0,.39.2h.4l.47.28-.25.48.27.68-.24.46-.43,0-.29.23-.06.44-.36-.2-.13.45v.72l.46-.14.6.12Z" fill="#589be5" stroke="#fff" stroke-linecap="round" stroke-linejoin="round" stroke-width="0.5"/><path d="M279.66,72.39l.24.17-.16.67.17.39-.28.21-.26-.24-.36.1-.63-.15.07-.56.32-.5.53.08Z" fill="#c6c6c6" stroke="#fff" stroke-linecap="round" stroke-linejoin="round" stroke-width="0.5"/><path d="M262.13,74.19l.67,0,.07.46.24.27.6.26.12.24-.3.76.61,0,.55-.74.49-.24.05-.56.59-.58.59-.92.46-.53.41-.22,1-.14.25-.29,1.08-.14.34.11.27.32-.5.14-.44-.07.11.61.83-.09.63-.25.31-.24.64-.24.68-.54.5,0,1.32.33.36-.31.74-.11.08.25.59.07.27-.14,1,.13.5-.26.62.24.61-.59-.2-.42.55-.28h.42l.59-.49h1.15l1.08-.39.33,0,.27.35,1.21.51.27-.21.31.37-.07.26-.43.21-.21-.15-.48.08-.19.36-.53.35-.53.2-.75.54.1.63.32.67.28.25-.25.38.32.24.43.67,1.17,1.28-.15.33,0,.68.44.45.1.58-.21.9-.84.25-.24.5-.24.83-.29.36-.33-.21-.36-.7-.27-1.44-.19-.27-1.3-.32-.44-.72-.34.18-1.06.85-.31.49v.74l-.57.89-.16.87-.1,1.71.33.5L277,85.81l.21.88,2.19.86.08.2,0,.89-.34.65,0,.32-.63.87-.15,1-.41.78v.37l-.46.27-.55.13-.3-.26-.58.37-.35.66-.52.49-.66-.75-.65-.57-.58-.16-.94-.42-.7-.49-.44,0L270,93.2l-.28.55,0,.36.17.87-.1,1.37.09.65,0,1.3.34.9-.65.2-.57.44-.87.47-.73.86-2.59.42-.56-.08-.46-.24-.66.81-.26.48-1,2.7-.15.89,0,.41-1.3,2.91-.2.22-.08.49-.36.92.15.54-.72,1.23-.83,1.25-.47.15-.93.52-1.29.12-2.11-.64-.76-.18-.5.2-.9-.07-1.47,0-.47-.29-.42-.56-5.2-3.37-1.09-.66-.65-.65-1.1-.43h-1.26l-.41-1.06.17-.18-.25-.77h1.32l.25-.6,0-1.35.24-1,.4-.61,1,.06.72-.06.25-.13.55.13.35.25.55,0,.73-.39.81-.33.12-.24.4,0,.33.21.46.06.3.25.35-.08v-.93l.24-.36.09-.83-.12-.57,1.05-.52.1-.41-.5-.32-.38-1.21-.46,0-.45-.36-.28.13-.18-1.14.45-.71.08-.41-.09-.54-.3-.36.07-.52.46-.59.3-.06.41.3.34-.19.26.29.71.28.15.34.54-.13.37.38-.06.4-.54.21-.3.55.19.35-.2.29-.61,0,0,.32,1,1.62.8.18.36-.54-.35-.09-.35-.37.25-.16.59-1.11.29-.12-.05-1.36.34-.32.66-.07,1,.34.47,0,.74.72.63,1,.53.16.57-.28-.19-.55.3-.67-.46-1.84-.76,0-.07-.31L255,92l-.14-.21-.47,0-.35-.33-.5-.21,0-.3.53-.35-.18-1-.31-.69-.45-.22-.27.26h-.48l-.27-.26-.47,0-.26-.25-.64.76-.12.29-.87.28-.38-.45.1-1,.19-.22,1.16-.7.11-.53.21-.15.23-.56.62-.26-.19-.59.09-.62.23-.57.35-.26.15-.38.26-.16.57-1.18-.32-.54,0-.35-.32-.5.37-.25.3.92.36.08,0-.5.25-.21-.47-.47.11-.48-.36-.58-.65-.19-.43.16-.27,1-.6.32-.29-.33,0-.51-.33-.26-.62.1-.42-.1-.4.22-.28-.1-.29.22-.44-.14L248,80l-.83-.11-.32.1-.28-.33-.39.21-.26-.44-.46,0-.3.48v.62l.33.21.77.26-.23.92.08.79-.46.08-.36-.46-.71.17.32.54-.23.66,0,1,.31.86-.27.52-.2.81-.35.27-.68.22-.6.52-.36.12-.47-.11-.55.11-.06-.26-.55-.5-.28,0-.36.54-1-.67L238,86.65l-.56.06-.42-.27-.89-.28-.5-.43-.68-.1-.22-.25.14-.45-.39-.66-1.08-.68.41-.78-.32-1-.69,0-.31.43.56.65-.27.36-.5.14-.55.35-.46,0-.24-.54-.63.09-.24.39-.31-.1-.12.48-.86.53-.08.38-.69,0-.28-.62-.6-.12-.46.14v-.72l.13-.45.36.2.06-.44.29-.23.43,0,.24-.46-.27-.68.25-.48-.47-.28h-.4l-.39-.2-.79,0-.5-.39v-.37l-.41-.25-1.12-.1-.37-.52-1.27.72-.25-.1.32-.8-.08-.72-.24-.6-.41-.15-.48.37h-.47l.07-2.25,2.14,0,.53-.27-.33-.5h-.22l-.63-.7.72-.34.19-1.09-.1-.6h.44l-.1-.48.17-.2.19-.64h.26l.34.3.75.31.35-.06.2-.55-.11-.77.26-.48.27-.13.21-.44.65-.84.23.5.5-.16h.51l.45.17.55,0,.38.41.21.73.55.67.77-.14.67.41,0,.59.45.49.4.09-.06,1.09L233,73l.82-.06.28.49.6.11.16.83-.19.46.41,0,.54.27.09-.63.42-.88,0-.31.32-.41.35.17.4-.38h.63l.39-.63-.15-.47-.24-.13-.59.34-.57-.54-.5-.11-.23-.32-.06-.53-.24-.43-.39-.19.34-.67-.23-.69.47-.64.53-.21.1-.25.7-.35.55-.61.51,0,.28-.32.41.18.54-.42.05-.29,1.28.12.21.2h.59l1,.45.49.07-.11.57.21.42.73.38.19.32.54-.27.34.22.61.14.17.27,1.07.88.84-.22.46-.39,1.19-.35,1.42-1,.4.09.28-.45.46,0,.41-.74.21-.86,1.85-.14.78.18.11.6-.19.37.13.78-1.33.72.92.37,0,.62.27.82.59.44.47-.38.68.06.56.43.75-.08.42-.29.41.31.16.51-.19.62-.34.07v.5h.44l.4.24-.53.47-.46.14-.06.52-.37-.12-.41.17.08.45.44.53.53-.1.18.62-.37.08L258,76l0,.44.2.32v.43l.77-.05v-.44l.29-.17.23.46.37.27.37-.39.07-.36.4.22.72-.21.23-.68,0-1.31Zm-7.52.31-.67.15-.19.64.62.88.57.16.33-.29.26-.7-.21-.75Zm25.05-2.11-.36.17-.53-.08-.32.5-.07.56.63.15.36-.1.26.24.28-.21-.17-.39.16-.67Z" fill="#044f85" stroke="#fff" stroke-linecap="round" stroke-linejoin="round" stroke-width="0.5"/><path d="M239.66,108.25l-.48-.1-2.72.06-.44-.07h-1.2l-.69-.53,0-.79-.17-.08-1.08-1.14,0-2.06.31-.39-.18-.94.17-.45-2.13-.71h-.61l-.66.54-.36-.2-.23-.44.14-.5-1.35-.9v-.41l-.86-1.37-.08-.63.09-.36-.13-.52-.34-.33-.46-1,0-.47,1,.24.88-.14.18-.56.49-.11-.1-.57.09-1.38-.13-.34-.72-.61-1.06.11.46-.7-.62-.69-.25-.59.15-.83.49-.22.64.22.43.59.66,0,.22-.27.47.16.58-.06-.33-.41L230,88l.14-1.19-.6-.61h-1.36l.36-.39,0-.6-.36-.22.69,0,.08-.38.86-.53.12-.48.31.1.24-.39.63-.09.24.54.46,0,.55-.35.5-.14.27-.36-.56-.65.31-.43.69,0,.32,1-.41.78,1.08.68.39.66-.14.45.22.25.68.1.5.43.89.28.42.27.56-.06,1.22.52,1,.67.36-.54.28,0,.55.5.06.26.55-.11.47.11.36-.12.6-.52.68-.22.35-.27.2-.81.27-.52-.31-.86,0-1,.23-.66-.32-.54.71-.17.36.46.46-.08-.08-.79.23-.92-.77-.26-.33-.21v-.62l.3-.48.46,0,.26.44.39-.21.28.33.32-.1L248,80l.47-.31.44.14.29-.22.28.1.4-.22.42.1.62-.1.33.26,0,.51.29.33.6-.32.27-1,.43-.16.65.19.36.58-.11.48.47.47-.25.21,0,.5-.36-.08-.3-.92-.37.25.32.5,0,.35.32.54L253,83.36l-.26.16-.15.38-.35.26-.23.57-.09.62.19.59-.62.26-.23.56-.21.15-.11.53-1.16.7-.19.22-.1,1,.38.45.87-.28.12-.29.64-.76.26.25.47,0,.27.26h.48l.27-.26.45.22.31.69.18,1-.53.35,0,.3.5.21.35.33.47,0L255,92l.81.22.07.31.76,0,.46,1.84-.3.67.19.55-.57.28-.53-.16-.63-1-.74-.72-.47,0-1-.34-.66.07-.34.32.05,1.36-.29.12-.59,1.11-.25.16.35.37.35.09-.36.54-.8-.18-1-1.62,0-.32.61,0,.2-.29-.19-.35.3-.55.54-.21.06-.4-.37-.38-.54.13-.15-.34-.71-.28-.26-.29-.34.19-.41-.3-.3.06-.46.59-.07.52.3.36.09.54-.08.41-.45.71.18,1.14.28-.13.45.36.46,0,.38,1.21.5.32-.1.41-1.05.52.12.57-.09.83-.24.36v.93l-.35.08-.3-.25-.46-.06-.33-.21-.4,0-.12.24-.81.33-.73.39-.55,0-.35-.25-.55-.13-.25.13-.72.06-1-.06-.4.61-.24,1,0,1.35-.25.6h-1.32l.25.77-.17.18Z" fill="#dce9ff" stroke="#fff" stroke-linecap="round" stroke-linejoin="round" stroke-width="0.5"/><path d="M256.88,114.79l.93-.52.47-.15.83-1.25.72-1.23-.15-.54.36-.92.08-.49.2-.22,1.3-2.91,0-.41.15-.89,1-2.7.26-.48.66-.81.46.24.56.08,2.59-.42.73-.86.87-.47.57-.44.65-.2-.34-.9,0-1.3-.09-.65.1-1.37-.17-.87,0-.36.28-.55,1.24-1.28.44,0,.7.49.94.42.58.16.65.57.66.75.52-.49.35-.66.58-.37.3.26.55-.13.46-.27v-.37l.41-.78.15-1,.63-.87,0-.32.34-.65,0-.89-.08-.2-2.19-.86-.21-.88.65-1.76-.33-.5.1-1.71.16-.87.57-.89v-.74l.31-.49L279.5,78l.34-.18.44.72,1.3.32.19.27.27,1.44.36.7.33.21.29-.36.24-.83.24-.5.84-.25.21-.9-.1-.58-.44-.45,0-.68.15-.33L283,75.32l-.43-.67-.32-.24.25-.38-.28-.25-.32-.67-.1-.63.75-.54.53-.2.53-.35.19-.36.48-.08.21.15.43-.21.07-.26-.31-.37-.27.21L283.23,70l-.27-.35-.33,0-1.08.39H280.4l-.64-.46-.48.07-1.12,1.12-.9-.44-.24,0-.9.6-.1.94-.59-.07-.08-.25-.74.11-.36.31-1.32-.33-.5,0-.68.54-.64.24-.31.24-.63.25-.83.09-.11-.61.44.07.5-.14-.27-.32-.34-.11-1.08.14,0-.64.36-.86.71-1,1.08-1-.43-.78.27-.87.22-1.18.6-2-.07-.58.82-.84.3-.48.26-.69.9-.06,1.37,0,1.14,0,.52-.12.77.22.74.07.77-.4,1.69-.14,1-.32,1-.25.78.14.15.4.3.25.58,0,.19.19-1.11,1.27-.72,1.07.42.83.46.45.15.77.32.94.29.34.65.4.23.26.28.82.43.43.51,0,.32.29.26,1.29.16.36.33.11.42.46.3.52.1.49,1,.59.32-.14,2.78,2.52,4.63,1.53,2.55.85L304.22,79l3.11,1,3.58,1.2,3.32,1.13h7.07l-3.13,3-4.09,3.87L311,92.42l-4.14,4.23-2,2.15-2.48,2.71-3.06,3.34-3.18-.2-3.84-.23-.91.35-1.23.16-1.42.5-1.22.54-1.18.59-1.25,1-.21.33-.17.66-.41.51-1,.33-.86.09-1.82.43-1.26-.05-.89.23-.83.64-.15.48-.33.38-.38.15-.83-.37-1.38.17-.48.2-2.08,0-.33-.12-.52-.53-.39-.56-1.64-1.3-.81.43-2,.77-.07.17-1.49.56-1.32.68-1,.42-.61,1.39L260.52,115l-.25.69-.44-.32-1.48-.18-.71,0Z" fill="#9dc5ff" stroke="#fff" stroke-linecap="round" stroke-linejoin="round" stroke-width="0.5"/><path d="M263.34,35.84l.05.37-.29.15-.71,0-.38-.14-.31.8-.46.26-.09.55.62.18.51-.1.05.75.3.27-.38.68v.71l.29.52-.07,1.46-.86-.17-.19.69.18.63-.17.68.47.23.35,1.26.21.5,0,.36.32.35.54.94-.58.22-.43.35-.23.85.4.47.13.34-.48.56,0,.6-.4.15-.94,0-.2.27-.44,0-.15-.45h-.49l-.26.21h-.93L258,50.9l-.06-.87-.45-1.23.76-.33-.09-.6.07-.4-.13-.64-.69-.24-.59-.08-.59-.32-.16-.69.46-.41-.66-.6-.64.21-1-.43.08-.52-.26-.35-.6-.16-.23-.69-.57.24-.11-.25.41-.31-.64-.13-.42.21-.34-.1-.29.37L250,42.8l-.21-.16-.41.19-.37-.24-.75.39-.28-.21-.35.09-.06-.4-.29-.32H247l-.24.66-.42.43-.86.34-1.1,0-.32.45-1,.11-1.06-.5-1-.27-.48-.41-.55.52H238.9l-.29-.36.07-.42L238,40.89l-.2-.2.25-.55-.3-.85.77-2.34.61-.2.35.08.44-.16h.85l.77.22.28.28.59-.14.07-.47.25-.52.57-.23.69,0,.21.23.48-.44h.62l.43.19.89-.42.38-.86.43-.22v-.59l.37-.51.31,0,.47-.33.22.11.34.68,1,.45.27-.11.53.16,0,.39.71.92.42.16.19.39,1.22-.17.63-.23.66,0,.4-.24.4,0,.51-.29.35-.66h.54l.74.16.19.31,0,.83.21.44.37-.14.1-.48.36-.4.93.18-.11-.69.18-.53.53,0,.39.44.58.42.42.08.18.29.58.28.37.34Zm-3.45,6.33-.42.08-.11.43.44.26Z" fill="#589be5" stroke="#fff" stroke-linecap="round" stroke-linejoin="round" stroke-width="0.5"/><path d="M31.92,21.87V14.54h2.5a3.56,3.56,0,0,1,3.76,3.67,3.54,3.54,0,0,1-3.76,3.66Zm5.32-3.66a2.69,2.69,0,0,0-2.82-2.86H32.83v5.71h1.59A2.7,2.7,0,0,0,37.24,18.21Z" fill="#0072bc"/><path d="M39.26,19.21a2.63,2.63,0,1,1,5.26,0,2.63,2.63,0,1,1-5.26,0Zm4.39,0a1.78,1.78,0,1,0-3.52,0,1.78,1.78,0,1,0,3.52,0Z" fill="#0072bc"/><circle cx="17.55" cy="17.55" r="7.55" fill="#9dc5ff"/><circle cx="17.55" cy="17.55" r="4.8" fill="#0072bc"/><polyline points="14.8 17.55 16.63 19.38 20.29 15.72" fill="none" stroke="#fff" stroke-linecap="round" stroke-linejoin="round" stroke-width="0.75"/><path d="M201.92,21.87V14.54h2.5a3.56,3.56,0,0,1,3.76,3.67,3.54,3.54,0,0,1-3.76,3.66Zm5.32-3.66a2.69,2.69,0,0,0-2.82-2.86h-1.59v5.71h1.59A2.7,2.7,0,0,0,207.24,18.21Z" fill="#ef4a60"/><path d="M209.26,19.21a2.63,2.63,0,1,1,5.26,0,2.63,2.63,0,1,1-5.26,0Zm4.39,0a1.78,1.78,0,1,0-3.52,0,1.78,1.78,0,1,0,3.52,0Z" fill="#ef4a60"/><path d="M219.44,21.87V18.4c0-.95-.48-1.23-1.19-1.23a2.06,2.06,0,0,0-1.57.82v3.88h-.83V16.56h.83v.77a2.58,2.58,0,0,1,1.9-.9,1.5,1.5,0,0,1,1.68,1.71v3.73Z" fill="#ef4a60"/><path d="M222.07,16.93l-.42-.35a1.65,1.65,0,0,0,.71-1l-.15,0a.53.53,0,0,1-.53-.56.6.6,0,0,1,.58-.59c.38,0,.7.3.7.84A2.14,2.14,0,0,1,222.07,16.93Z" fill="#ef4a60"/><path d="M224.54,20.76V17.29h-.88v-.73h.88V15.11h.83v1.45h1.08v.73h-1.08v3.29c0,.4.18.68.53.68a.75.75,0,0,0,.56-.23l.24.63a1.32,1.32,0,0,1-1,.34A1.08,1.08,0,0,1,224.54,20.76Z" fill="#ef4a60"/><circle cx="187.55" cy="17.55" r="7.55" fill="#ffbcc1"/><circle cx="187.55" cy="17.55" r="4.8" fill="#ef4a60"/><line x1="189.55" y1="15.55" x2="185.55" y2="19.55" fill="none" stroke="#fff" stroke-linecap="round" stroke-linejoin="round" stroke-width="0.75"/><line x1="189.55" y1="19.55" x2="185.55" y2="15.55" fill="none" stroke="#fff" stroke-linecap="round" stroke-linejoin="round" stroke-width="0.75"/><path d="M77.61,74.5l.71.09.21.75-.26.7-.33.29-.57-.16-.62-.88.19-.64Z" fill="#9dc5ff" stroke="#fff" stroke-linecap="round" stroke-linejoin="round" stroke-width="0.5"/><path d="M99.57,60.81l-.52.12-1.14,0-1.37,0-.9.06-.26.69-.3.48-.82.84.07.58-.6,2-.22,1.18-.27.87.43.78-1.08,1-.71,1-.36.86,0,.64-.25.29-1,.14-.41.22-.46.53-.59.92-.59.58,0,.56-.49.24-.55.74-.61,0,.3-.76-.12-.24-.6-.26-.24-.27-.07-.46-.67,0,0-.25.44-.4-.1-.58-.51,0-.26-.37.49-.45.45-1.4-.32-.82.27-.21.53.15.3-.18.15-.45.3-.17.26-.67L86.69,68h-.62l-.14-.7.48.09,1,0,.18-.13-.21-.61.19-.6,0-1.29-.38-2.09v-.29l.42-.3,0-.5-.34-.46.46-.64.18-.6L87.71,59l-.51-.56L87,58.34l-.12-1.17-.44-.7.16-.45-.67-.4-.35-.56V53.64l-.25-.57L85,52l.2-.32-.08-.61,0-.6.48-.56-.13-.34-.4-.47.23-.85.43-.35.58-.22-.54-.94-.32-.35,0-.36-.21-.5-.35-1.26-.47-.23.17-.68-.18-.63.19-.69.86.17.07-1.46-.29-.52v-.71l.38-.68-.3-.27,0-.75-.51.1-.62-.18.09-.55L84.7,37l.31-.8.38.14.71,0,.29-.15,0-.37.52-.39.61-.08.6.14,1.6.83,1.5,1,1.34,1,1.75,1.49,1.25,1.2.46.6,1.57,1.43.59.62,1.93,1.87.68.77.56,1L102.69,49l.28.43.51.28.35.34-.43.53-.23.64-.38.33-.93,1.25-.5.83-.79,1.15-.87.55L99.2,57l.24.92.14.89-.09,1.64Z" fill="#589be5" stroke="#fff" stroke-linecap="round" stroke-linejoin="round" stroke-width="0.5"/><path d="M85.13,51.11l.08.61L85,52l.3,1,.25.57v1.42l.35.56.67.4-.16.45.44.7L87,58.34l.23.06.51.56.28.95-.18.6-.46.64.34.46,0,.5-.42.3v.29l.38,2.09,0,1.29-.19.6.21.61-.18.13-1,0-.48-.09.14.7h.62l.41.43-.26.67-.3.17-.15.45-.3.18-.53-.15-.27.21.32.82-.45,1.4-.49.45.26.37.51,0,.1.58-.44.4,0,.25-.54.33,0,1.31-.23.68-.72.21-.4-.22-.07.36-.37.39L82.47,77l-.23-.46-.29.17v.44l-.77.05v-.43l-.2-.32L81,76l.4-1.19.37-.08-.18-.62-.53.1-.44-.53-.08-.45.41-.17.37.12.06-.52.46-.14.53-.47-.4-.24h-.44v-.5l.34-.07.19-.62-.16-.51-.41-.31-.42.29-.75.08-.56-.43L79,69.67l-.47.38L78,69.61l-.27-.82,0-.62-.92-.37,1.33-.72L78,66.3l.19-.37-.11-.6-.78-.18-1.85.14-.21.86-.41.74-.46,0-.28.45-.4-.09-1.42,1-1.19.35-.46.39-.84.22-1.07-.88L68.56,68,68,67.83l-.34-.22-.54.27-.19-.32-.73-.38-.21-.42.11-.57-.49-.07-1-.45H64l-.21-.2-1.28-.12,0,.29-.69-.37-.37,0-.13-.3,0-.56-.85.2-.66-.52-.26-.56.31-.41-.05-.31.41-.39-.67-.33.61-1,1.33-1.39-.59-.13v-.79l.69-.39v-.28l-.48-.63-.63.22.25-.57-.81-1.26,0-.94-.88.54-.31.32-.28-.3-.15-.7-.79-.8L57,54l-1,.6-1,.09-.15.32-.5.1L54,55.5l-.69-.08-.42-.17-.48-.4L52.14,54,53,52.26l1.91-3.09.28-.07.1-.47,1.91-.36.78-.06.51.07.12-1.21-.17-.32.24-.46L58.63,46l.66-2.43,1.08-1.45.08-.65.32-.76.2.2.71,1.83-.07.42.29.36H63l.55-.52.48.41,1,.27,1.06.5,1-.11.32-.45,1.1,0,.86-.34.42-.43.24-.66h.3l.29.32.06.4.35-.09.28.21.75-.39.37.24.41-.19.21.16,1.27-.22.29-.37.34.1.42-.21.64.13-.41.31.11.25.57-.24.23.69.6.16.26.35-.08.52,1,.43.64-.21.66.6-.46.41.16.69.59.32.59.08.69.24.13.64-.07.4.09.6-.76.33L80.93,50l.06.87.33.41h.93l.26-.21H83l.15.45.44,0,.2-.27.94,0Z" fill="#589be5" stroke="#fff" stroke-linecap="round" stroke-linejoin="round" stroke-width="0.5"/><path d="M62.45,65.64l-.54.42-.41-.18-.28.32-.51,0-.55.61-.7.35-.1.25-.53.21-.47.64.23.69-.34.67.39.19.24.43.06.53.23.32.5.11.57.54.59-.34.24.13.15.47-.39.63H60.2l-.4.38-.35-.17-.32.41,0,.31-.42.88-.09.63-.54-.27-.41,0,.19-.46-.16-.83-.6-.11-.28-.49L56,73l-.29-.11.06-1.09-.4-.09-.45-.49,0-.59-.67-.41-.77.14L53,69.64l-.21-.73-.38-.41-.55,0-.45-.17h-.51l-.5.16-.23-.5-.65.84-.21.44-.27.13-.26.48.11.77-.2.55-.35.06-.75-.31-.34-.3H47l-.19.64-.17.2.1.48h-.44l.1.6-.19,1.09-.72.34.63.7h.22l.33.5-.53.27-2.14,0-.35-4.27L44,69.69l.49-1.06.17-.89.67-.65.18-.88-.45-2.28.48-.56.63-1.11,1.12-.75.58.38.91.81.44-.06.83-1,0-.37-.33-.3.53-1.58L50,58.71l.87-1.89,0-.46L50.73,56l-.06-.61.42-.87.83-.35.22-.21.26.87.48.4.42.17.69.08.43-.36.5-.1.15-.32,1-.09,1-.6.43,0,.79.8.15.7.28.3.31-.32.88-.54,0,.94.81,1.26-.25.57.63-.22.48.63v.28l-.69.39v.79l.59.13-1.33,1.39-.61,1,.67.33-.41.39.05.31-.31.41.26.56.66.52.85-.2,0,.56.13.3.37,0Z" fill="#589be5" stroke="#fff" stroke-linecap="round" stroke-linejoin="round" stroke-width="0.5"/><path d="M99,71.77l.1-.94.9-.6.24,0,.9.44,1.12-1.12.48-.07.64.46-.59.49h-.42l-.55.28.2.42-.61.59-.62-.24-.5.26-1-.13Z" fill="#9dc5ff" stroke="#fff" stroke-linecap="round" stroke-linejoin="round" stroke-width="0.5"/><path d="M51.09,85l.36.22,0,.6-.36.39h1.36l.6.61L53,88l-.28.37.33.41-.58.06L52,88.67l-.22.27-.66,0-.43-.59L50,88.11l-.49.22-.15.83.25.59.62.69-.46.7L50.83,91l.72.61.13.34-.09,1.38.1.57L51.2,94,51,94.6l-.88.14-1-.24,0-.25-.67-1.79L48.11,92l-.53-.37-.74-.14-.42-1.21-.8-.32-.45,0-.46-.4-.52-1.1-1-.55v-1l-1-1.06-1.26-1-1.79-.62L36.46,84l-.32-.07-.27-.4L35.7,83l.3-.52.64-.75.47-.28-.18-1.57.07-.31.67-.45.85.17.93-.2h.91l.58.67.41.05.59-.42.85-.09,1-.87.14-.68h.47l.48-.37.41.15.24.6.08.72-.32.8.25.1L46.79,79l.37.52,1.12.1.41.25v.37l.5.39.79,0,.39.2h.4l.47.28-.25.48.27.68-.24.46-.43,0-.29.23-.06.44-.36-.2-.13.45v.72l.46-.14.6.12Z" fill="#9dc5ff" stroke="#fff" stroke-linecap="round" stroke-linejoin="round" stroke-width="0.5"/><path d="M102.66,72.39l.24.17-.16.67.17.39-.28.21-.26-.24-.36.1-.63-.15.07-.56.32-.5.53.08Z" fill="#9dc5ff" stroke="#fff" stroke-linecap="round" stroke-linejoin="round" stroke-width="0.5"/><path d="M85.13,74.19l.67,0,.07.46.24.27.6.26.12.24-.3.76.61,0,.55-.74.49-.24,0-.56.59-.58.59-.92.46-.53.41-.22,1-.14.25-.29,1.08-.14.34.11.27.32-.5.14-.44-.07.11.61.83-.09.63-.25.31-.24.64-.24.68-.54.5,0,1.32.33.36-.31.74-.11.08.25.59.07.27-.14,1,.13.5-.26.62.24.61-.59-.2-.42.55-.28h.42l.59-.49h1.15l1.08-.39.33,0,.27.35,1.21.51.27-.21.31.37-.07.26-.43.21-.21-.15-.48.08-.19.36-.53.35-.53.2-.75.54.1.63.32.67.28.25-.25.38.32.24.43.67,1.17,1.28-.15.33,0,.68.44.45.1.58-.21.9-.84.25-.24.5-.24.83-.29.36-.33-.21-.36-.7-.27-1.44-.19-.27-1.3-.32-.44-.72-.34.18-1.06.85-.31.49v.74l-.57.89-.16.87-.1,1.71.33.5L100,85.81l.21.88,2.19.86.08.2,0,.89-.34.65,0,.32-.63.87-.15,1-.41.78v.37l-.46.27-.55.13-.3-.26-.58.37-.35.66-.52.49-.66-.75L96.87,93l-.58-.16-.94-.42-.7-.49-.44,0L93,93.2l-.28.55,0,.36.17.87-.1,1.37.09.65,0,1.3.34.9-.65.2-.57.44-.87.47-.73.86-2.59.42-.56-.08-.46-.24-.66.81-.26.48-1,2.7-.15.89,0,.41-1.3,2.91-.2.22-.08.49-.36.92.15.54-.72,1.23-.83,1.25-.47.15-.93.52-1.29.12-2.11-.64-.76-.18-.5.2-.9-.07-1.47,0-.47-.29-.42-.56L66.76,110l-1.09-.66-.65-.65-1.1-.43H62.66l-.41-1.06.17-.18-.25-.77h1.32l.25-.6,0-1.35.24-1,.4-.61,1,.06.72-.06.25-.13.55.13.35.25.55,0,.73-.39.81-.33.12-.24.4,0,.33.21.46.06.3.25.35-.08v-.93l.24-.36.09-.83-.12-.57,1-.52.1-.41-.5-.32-.38-1.21-.46,0-.45-.36-.28.13-.18-1.14.45-.71.08-.41-.09-.54-.3-.36.07-.52.46-.59.3-.06.41.3.34-.19.26.29.71.28.15.34.54-.13.37.38-.06.4-.54.21-.3.55.19.35-.2.29-.61,0,0,.32,1,1.62.8.18.36-.54-.35-.09L74,96.86l.25-.16.59-1.11.29-.12-.05-1.36.34-.32.66-.07,1,.34.47,0,.74.72.63,1,.53.16.57-.28-.19-.55.3-.67-.46-1.84-.76,0-.07-.31L78,92l-.14-.21-.47,0-.35-.33-.5-.21,0-.3.53-.35-.18-1L76.65,89l-.45-.22-.27.26h-.48l-.27-.26-.47,0-.26-.25-.64.76-.12.29-.87.28-.38-.45.1-1,.19-.22,1.16-.7.11-.53.21-.15.23-.56.62-.26-.19-.59.09-.62.23-.57.35-.26.15-.38.26-.16.57-1.18-.32-.54,0-.35-.32-.5.37-.25.3.92.36.08,0-.5.25-.21-.47-.47.11-.48-.36-.58-.65-.19-.43.16-.27,1-.6.32-.29-.33,0-.51-.33-.26-.62.1-.42-.1-.4.22-.28-.1-.29.22-.44-.14L71,80l-.83-.11-.32.1-.28-.33-.39.21-.26-.44-.46,0-.3.48v.62l.33.21.77.26-.23.92.08.79-.46.08-.36-.46-.71.17.32.54-.23.66,0,1,.31.86-.27.52-.2.81-.35.27-.68.22-.6.52-.36.12L65,87.93l-.55.11-.06-.26-.55-.5-.28,0-.36.54-1-.67L61,86.65l-.56.06L60,86.44l-.89-.28-.5-.43-.68-.1-.22-.25.14-.45-.39-.66-1.08-.68.41-.78-.32-1-.69,0-.31.43.56.65-.27.36-.5.14-.55.35-.46,0L54,83.18l-.63.09-.24.39-.31-.1-.12.48-.86.53-.08.38-.69,0-.28-.62-.6-.12-.46.14v-.72l.13-.45.36.2.06-.44.29-.23.43,0,.24-.46L51,81.59l.25-.48-.47-.28h-.4l-.39-.2-.79,0-.5-.39v-.37l-.41-.25-1.12-.1L46.79,79l-1.27.72-.25-.1.32-.8-.08-.72-.24-.6-.41-.15-.48.37h-.47L44,75.45l2.14,0,.53-.27-.33-.5H46.1l-.63-.7.72-.34.19-1.09-.1-.6h.44l-.1-.48.17-.2.19-.64h.26l.34.3.75.31.35-.06.2-.55-.11-.77.26-.48.27-.13.21-.44.65-.84.23.5.5-.16h.51l.45.17.55,0,.38.41.21.73.55.67.77-.14.67.41,0,.59.45.49.4.09-.06,1.09L56,73l.82-.06.28.49.6.11.16.83-.19.46.41,0,.54.27.09-.63.42-.88,0-.31.32-.41.35.17.4-.38h.63l.39-.63-.15-.47-.24-.13-.59.34-.57-.54-.5-.11-.23-.32-.06-.53-.24-.43-.39-.19.34-.67-.23-.69.47-.64.53-.21.1-.25.7-.35.55-.61.51,0,.28-.32.41.18.54-.42,0-.29,1.28.12.21.2h.59l1,.45.49.07-.11.57.21.42.73.38.19.32.54-.27.34.22.61.14.17.27,1.07.88.84-.22.46-.39,1.19-.35,1.42-1,.4.09.28-.45.46,0,.41-.74.21-.86,1.85-.14.78.18.11.6L78,66.3l.13.78-1.33.72.92.37,0,.62.27.82.59.44.47-.38.68.06.56.43.75-.08.42-.29.41.31.16.51-.19.62-.34.07v.5h.44l.4.24-.53.47-.46.14-.06.52-.37-.12-.41.17.08.45.44.53.53-.1.18.62-.37.08L81,76l0,.44.2.32v.43l.77-.05v-.44l.29-.17.23.46.37.27.37-.39.07-.36.4.22.72-.21.23-.68,0-1.31Zm-7.52.31-.67.15-.19.64.62.88.57.16.33-.29.26-.7-.21-.75Zm25-2.11-.36.17-.53-.08-.32.5-.07.56.63.15.36-.1.26.24.28-.21-.17-.39.16-.67Z" fill="#0072bc" stroke="#fff" stroke-linecap="round" stroke-linejoin="round" stroke-width="0.5"/><path d="M62.66,108.25l-.48-.1-2.72.06-.44-.07h-1.2l-.69-.53,0-.79-.17-.08-1.08-1.14,0-2.06.31-.39-.18-.94.17-.45-2.13-.71h-.61l-.66.54-.36-.2-.23-.44.14-.5L51,99.57v-.41l-.86-1.37-.08-.63.09-.36L50,96.28,49.69,96l-.46-1,0-.47,1,.24L51,94.6,51.2,94l.49-.11-.1-.57L51.68,92l-.13-.34L50.83,91l-1.06.11.46-.7-.62-.69-.25-.59.15-.83.49-.22.64.22.43.59.66,0,.22-.27.47.16.58-.06-.33-.41L53,88l.14-1.19-.6-.61H51.13l.36-.39,0-.6L51.09,85l.69,0,.08-.38.86-.53.12-.48.31.1.24-.39.63-.09.24.54.46,0,.55-.35.5-.14.27-.36-.56-.65.31-.43.69,0,.32,1-.41.78,1.08.68.39.66-.14.45.22.25.68.1.5.43.89.28.42.27.56-.06,1.22.52,1,.67.36-.54.28,0,.55.5.06.26.55-.11.47.11.36-.12.6-.52.68-.22.35-.27.2-.81.27-.52-.31-.86,0-1,.23-.66-.32-.54.71-.17.36.46.46-.08L69,81.89l.23-.92-.77-.26-.33-.21v-.62l.3-.48.46,0,.26.44.39-.21.28.33.32-.1L71,80l.47-.31.44.14.29-.22.28.1.4-.22.42.1.62-.1.33.26,0,.51.29.33.6-.32.27-1,.43-.16.65.19.36.58-.11.48.47.47-.25.21,0,.5-.36-.08-.3-.92-.37.25.32.5,0,.35.32.54L76,83.36l-.26.16-.15.38-.35.26-.23.57-.09.62.19.59-.62.26-.23.56-.21.15-.11.53-1.16.7-.19.22-.1,1,.38.45.87-.28.12-.29.64-.76.26.25.47,0,.27.26h.48l.27-.26.45.22.31.69.18,1-.53.35,0,.3.5.21.35.33.47,0L78,92l.81.22.07.31.76,0,.46,1.84-.3.67.19.55-.57.28-.53-.16-.63-1L77.56,94l-.47,0-1-.34-.66.07-.34.32.05,1.36-.29.12-.59,1.11-.25.16.35.37.35.09-.36.54-.8-.18-1-1.62,0-.32.61,0,.2-.29-.19-.35.3-.55.54-.21.06-.4-.37-.38-.54.13-.15-.34L72.35,93l-.26-.29-.34.19-.41-.3-.3.06-.46.59-.07.52.3.36.09.54-.08.41-.45.71L70.55,97l.28-.13.45.36.46,0,.38,1.21.5.32-.1.41-1,.52.12.57-.09.83-.24.36v.93l-.35.08-.3-.25-.46-.06-.33-.21-.4,0-.12.24-.81.33-.73.39-.55,0-.35-.25-.55-.13-.25.13-.72.06-1-.06-.4.61-.24,1,0,1.35-.25.6H62.17l.25.77-.17.18Z" fill="#9dc5ff" stroke="#fff" stroke-linecap="round" stroke-linejoin="round" stroke-width="0.5"/><path d="M79.88,114.79l.93-.52.47-.15.83-1.25.72-1.23-.15-.54.36-.92.08-.49.2-.22,1.3-2.91,0-.41.15-.89,1-2.7.26-.48.66-.81.46.24.56.08,2.59-.42.73-.86.87-.47.57-.44.65-.2-.34-.9,0-1.3-.09-.65.1-1.37-.17-.87,0-.36L93,93.2l1.24-1.28.44,0,.7.49.94.42.58.16.65.57.66.75.52-.49.35-.66.58-.37.3.26.55-.13.46-.27v-.37l.41-.78.15-1,.63-.87,0-.32.34-.65,0-.89-.08-.2-2.19-.86-.21-.88.65-1.76-.33-.5.1-1.71.16-.87.57-.89v-.74l.31-.49L102.5,78l.34-.18.44.72,1.3.32.19.27.27,1.44.36.7.33.21.29-.36.24-.83.24-.5.84-.25.21-.9-.1-.58-.44-.45,0-.68.15-.33L106,75.32l-.43-.67-.32-.24.25-.38-.28-.25-.32-.67-.1-.63.75-.54.53-.2.53-.35.19-.36.48-.08.21.15.43-.21.07-.26-.31-.37-.27.21L106.23,70l-.27-.35-.33,0-1.08.39H103.4l-.64-.46-.48.07-1.12,1.12-.9-.44-.24,0-.9.6-.1.94-.59-.07-.08-.25-.74.11-.36.31-1.32-.33-.5,0-.68.54-.64.24-.31.24-.63.25-.83.09-.11-.61.44.07.5-.14-.27-.32-.34-.11L91.48,72l0-.64.36-.86.71-1,1.08-1-.43-.78.27-.87.22-1.18.6-2L94.26,63l.82-.84.3-.48.26-.69.9-.06,1.37,0,1.14,0,.52-.12.77.22.74.07.77-.4,1.69-.14,1-.32,1-.25.78.14.15.4.3.25.58,0,.19.19-1.11,1.27-.72,1.07.42.83.46.45.15.77.32.94.29.34.65.4.23.26.28.82.43.43.51,0,.32.29.26,1.29.16.36.33.11.42.46.3.52.1.49,1,.59.32-.14,2.78,2.52,4.63,1.53,2.55.85L127.22,79l3.11,1,3.58,1.2,3.32,1.13h7.07l-3.13,3-4.09,3.87L134,92.42l-4.14,4.23-2,2.15-2.48,2.71-3.06,3.34-3.18-.2-3.84-.23-.91.35-1.23.16-1.42.5-1.22.54-1.18.59-1.25,1-.21.33-.17.66-.41.51-1,.33-.86.09-1.82.43-1.26-.05-.89.23-.83.64-.15.48-.33.38-.38.15-.83-.37-1.38.17-.48.2-2.08,0-.33-.12-.52-.53-.39-.56-1.64-1.3-.81.43-2,.77-.07.17-1.49.56-1.32.68-1,.42-.61,1.39L83.52,115l-.25.69-.44-.32-1.48-.18-.71,0Z" fill="#9dc5ff" stroke="#fff" stroke-linecap="round" stroke-linejoin="round" stroke-width="0.5"/><path d="M86.34,35.84l0,.37-.29.15-.71,0L85,36.17l-.31.8-.46.26-.09.55.62.18.51-.1,0,.75.3.27-.38.68v.71l.29.52-.07,1.46-.86-.17-.19.69.18.63-.17.68.47.23.35,1.26.21.5,0,.36.32.35.54.94-.58.22-.43.35-.23.85.4.47.13.34-.48.56,0,.6-.4.15-.94,0-.2.27-.44,0L83,51.09h-.49l-.26.21h-.93L81,50.9,80.93,50l-.45-1.23.76-.33-.09-.6.07-.4-.13-.64-.69-.24-.59-.08-.59-.32-.16-.69.46-.41-.66-.6-.64.21-1-.43.08-.52-.26-.35-.6-.16-.23-.69-.57.24-.11-.25.41-.31-.64-.13-.42.21-.34-.1-.29.37L73,42.8l-.21-.16-.41.19L72,42.59l-.75.39L71,42.77l-.35.09-.06-.4-.29-.32H70l-.24.66-.42.43-.86.34-1.1,0-.32.45-1,.11L65,43.67l-1-.27L63.56,43l-.55.52H61.9l-.29-.36.07-.42L61,40.89l-.2-.2.25-.55-.3-.85L61.49,37l.61-.2.35.08.44-.16h.85l.77.22.28.28.59-.14.07-.47L65.7,36l.57-.23.69,0,.21.23.48-.44h.62l.43.19.89-.42.38-.86.43-.22v-.59l.37-.51.31,0,.47-.33.22.11.34.68,1,.45.27-.11.53.16,0,.39.71.92.42.16.19.39,1.22-.17.63-.23.66,0,.4-.24.4,0,.51-.29.35-.66h.54l.74.16.19.31,0,.83.21.44.37-.14.1-.48.36-.4.93.18-.11-.69.18-.53.53,0,.39.44.58.42.42.08.18.29.58.28.37.34Zm-3.45,6.33-.42.08-.11.43.44.26Z" fill="#9dc5ff" stroke="#fff" stroke-linecap="round" stroke-linejoin="round" stroke-width="0.5"/></svg>