<svg xmlns="http://www.w3.org/2000/svg" width="350" height="148" viewBox="0 0 350 148"><rect width="350" height="148" fill="#f1f2f2"/><path d="M31.92,21.87V14.54h2.5a3.56,3.56,0,0,1,3.76,3.67,3.54,3.54,0,0,1-3.76,3.66Zm5.32-3.66a2.69,2.69,0,0,0-2.82-2.86H32.83v5.71h1.59A2.7,2.7,0,0,0,37.24,18.21Z" fill="#0072bc"/><path d="M39.26,19.21a2.63,2.63,0,1,1,5.26,0,2.63,2.63,0,1,1-5.26,0Zm4.39,0a1.78,1.78,0,1,0-3.52,0,1.78,1.78,0,1,0,3.52,0Z" fill="#0072bc"/><circle cx="17.55" cy="17.55" r="7.55" fill="#9dc5ff"/><circle cx="17.55" cy="17.55" r="4.8" fill="#0072bc"/><polyline points="14.8 17.55 16.63 19.38 20.29 15.72" fill="none" stroke="#fff" stroke-linecap="round" stroke-linejoin="round" stroke-width="0.75"/><path d="M201.92,21.87V14.54h2.5a3.56,3.56,0,0,1,3.76,3.67,3.54,3.54,0,0,1-3.76,3.66Zm5.32-3.66a2.69,2.69,0,0,0-2.82-2.86h-1.59v5.71h1.59A2.7,2.7,0,0,0,207.24,18.21Z" fill="#ef4a60"/><path d="M209.26,19.21a2.63,2.63,0,1,1,5.26,0,2.63,2.63,0,1,1-5.26,0Zm4.39,0a1.78,1.78,0,1,0-3.52,0,1.78,1.78,0,1,0,3.52,0Z" fill="#ef4a60"/><path d="M219.44,21.87V18.4c0-.95-.48-1.23-1.19-1.23a2.06,2.06,0,0,0-1.57.82v3.88h-.83V16.56h.83v.77a2.58,2.58,0,0,1,1.9-.9,1.5,1.5,0,0,1,1.68,1.71v3.73Z" fill="#ef4a60"/><path d="M222.07,16.93l-.42-.35a1.65,1.65,0,0,0,.71-1l-.15,0a.53.53,0,0,1-.53-.56.6.6,0,0,1,.58-.59c.38,0,.7.3.7.84A2.14,2.14,0,0,1,222.07,16.93Z" fill="#ef4a60"/><path d="M224.54,20.76V17.29h-.88v-.73h.88V15.11h.83v1.45h1.08v.73h-1.08v3.29c0,.4.18.68.53.68a.75.75,0,0,0,.56-.23l.24.63a1.32,1.32,0,0,1-1,.34A1.08,1.08,0,0,1,224.54,20.76Z" fill="#ef4a60"/><circle cx="187.55" cy="17.55" r="7.55" fill="#ffbcc1"/><circle cx="187.55" cy="17.55" r="4.8" fill="#ef4a60"/><line x1="189.55" y1="15.55" x2="185.55" y2="19.55" fill="none" stroke="#fff" stroke-linecap="round" stroke-linejoin="round" stroke-width="0.75"/><line x1="189.55" y1="19.55" x2="185.55" y2="15.55" fill="none" stroke="#fff" stroke-linecap="round" stroke-linejoin="round" stroke-width="0.75"/><path d="M77.61,72.32l.71.08.21.76-.26.7-.33.28L77.37,74l-.62-.88.19-.63Z" fill="#c6c6c6" stroke="#fff" stroke-linecap="round" stroke-linejoin="round" stroke-width="0.5"/><path d="M99.57,58.63l-.52.11-1.14,0-1.37,0-.9.06-.26.68-.3.49-.82.83.07.58-.6,2-.22,1.18-.27.88.43.77-1.08,1-.71,1-.36.86,0,.64-.25.29-1,.13-.41.23-.46.53-.59.92-.59.57,0,.56-.49.24-.55.74-.61.05.3-.76L86.71,73l-.6-.26-.24-.28L85.8,72l-.67,0,0-.25.44-.41-.1-.58-.51,0-.26-.36.49-.46.45-1.4-.32-.81.27-.22.53.16.3-.18.15-.45.3-.17.26-.67-.41-.44h-.62l-.14-.7.48.1,1,0,.18-.14-.21-.6.19-.61,0-1.29-.38-2.09v-.29l.42-.3,0-.49L87.35,59l.46-.63.18-.61-.28-.95-.51-.55L87,56.15,86.85,55l-.44-.7.16-.44-.67-.4-.35-.57V51.46l-.25-.58-.3-1,.2-.33-.08-.61,0-.6.48-.56-.13-.34-.4-.47.23-.84.43-.36.58-.22-.54-.93-.32-.35,0-.36-.21-.5-.35-1.26-.47-.23.17-.69-.18-.63.19-.68.86.16.07-1.46-.29-.52v-.7l.38-.68-.3-.28,0-.75-.51.1-.62-.18.09-.55.46-.26L85,34l.38.15.71,0,.29-.16,0-.36.52-.4.61-.08.6.14,1.6.84,1.5,1,1.34,1,1.75,1.49,1.25,1.2.46.59,1.57,1.43.59.62,1.93,1.87.68.77.56,1,1.39,1.64.28.43.51.28.35.35-.43.53-.23.64-.38.32-.93,1.26-.5.83-.79,1.15-.87.55-.5,1.68.24.92.14.89-.09,1.65Z" fill="#c6c6c6" stroke="#fff" stroke-linecap="round" stroke-linejoin="round" stroke-width="0.5"/><path d="M85.13,48.92l.08.61-.2.33.3,1,.25.58v1.41l.35.57.67.4-.16.44.44.7L87,56.15l.23.07.51.55.28.95-.18.61-.46.63.34.47,0,.49-.42.3v.29l.38,2.09,0,1.29-.19.61.21.6-.18.14-1,0-.48-.1.14.7h.62l.41.44-.26.67-.3.17-.15.45-.3.18-.53-.16-.27.22.32.81L85.16,70l-.49.46.26.36.51,0,.1.58-.44.41,0,.25-.54.32,0,1.32-.23.68-.72.21-.4-.23-.07.36-.37.39-.37-.27-.23-.45-.29.17v.43l-.77,0v-.42l-.2-.33,0-.44.4-1.19.37-.08-.18-.61L81,72l-.44-.53L80.5,71l.41-.16.37.12.06-.52.46-.15.53-.47-.4-.24h-.44v-.49l.34-.08.19-.61-.16-.51-.41-.31-.42.28-.75.08-.56-.43L79,67.48l-.47.38L78,67.43l-.27-.83,0-.61-.92-.38,1.33-.71L78,64.12l.19-.38-.11-.6L77.32,63l-1.85.15-.21.86-.41.74-.46,0-.28.45-.4-.1-1.42,1-1.19.35-.46.4-.84.22-1.07-.89-.17-.27L68,65.65l-.34-.23-.54.28-.19-.33L66.15,65l-.21-.43.11-.56-.49-.07-1-.46H64l-.21-.2-1.28-.12,0,.28-.69-.37-.37,0-.13-.3,0-.55-.85.2-.66-.53-.26-.55.31-.42-.05-.3.41-.4-.67-.33.61-1,1.33-1.4-.59-.12v-.8l.69-.38v-.29l-.48-.62-.63.21.25-.57-.81-1.25,0-.95-.88.55-.31.31-.28-.3-.15-.7-.79-.8-.43,0-1,.6-1,.09-.15.32-.5.11-.43.35-.69-.08-.42-.17-.48-.39-.26-.88L53,50.07,54.94,47l.28-.08.1-.46,1.91-.36L58,46l.51.06.12-1.2-.17-.32.24-.47-.08-.31.66-2.43,1.08-1.44.08-.65.32-.77.2.21.71,1.83-.07.41.29.36H63l.55-.51.48.41,1,.27,1.06.49,1-.1.32-.46,1.1,0,.86-.35.42-.42L70,40h.3l.29.32.06.4.35-.08.28.2L72,40.4l.37.25.41-.2.21.16,1.27-.22.29-.37.34.1.42-.2L76,40l-.41.32.11.24.57-.24.23.69.6.16.26.36-.08.51,1,.43.64-.2.66.59-.46.41.16.69.59.32.59.08.69.25.13.64-.07.39.09.61-.76.32.45,1.23.06.87.33.42h.93l.26-.2H83l.15.44.44,0,.2-.27.94,0Z" fill="#c6c6c6" stroke="#fff" stroke-linecap="round" stroke-linejoin="round" stroke-width="0.5"/><path d="M62.45,63.45l-.54.43-.41-.19-.28.33-.51,0-.55.61-.7.35-.1.26-.53.2-.47.64.23.69-.34.68.39.19.24.42.06.53.23.33.5.1.57.55.59-.35.24.14.15.47-.39.63H60.2l-.4.38-.35-.16-.32.41,0,.31-.42.87-.09.64-.54-.28-.41,0,.19-.46-.16-.82-.6-.12-.28-.48-.82.05-.29-.11.06-1.08-.4-.1L54.94,69l0-.59L54.31,68l-.77.15L53,67.45l-.21-.73-.38-.4-.55,0-.45-.16-.51,0-.5.16-.23-.49-.65.83-.21.44-.27.13-.26.48.11.77-.2.56-.35.06-.75-.31-.34-.31H47l-.19.64-.17.19.1.48h-.44l.1.61-.19,1.08-.72.34.63.71h.22l.33.5-.53.26-2.14,0L43.63,69,44,67.51l.49-1.07.17-.89.67-.65.18-.87-.45-2.29.48-.56.63-1.11,1.12-.75.58.39.91.81.44-.07.83-1,0-.36-.33-.3.53-1.58L50,56.52l.87-1.89,0-.45-.18-.35-.06-.61.42-.87.83-.34.22-.22.26.88.48.39.42.17.69.08.43-.35.5-.11.15-.32,1-.09,1-.6.43,0,.79.8.15.7.28.3.31-.31.88-.55,0,.95.81,1.25-.25.57.63-.21.48.62v.29l-.69.38v.8l.59.12-1.33,1.4-.61,1,.67.33-.41.4.05.3-.31.42.26.55.66.53.85-.2,0,.55.13.3.37,0Z" fill="#c6c6c6" stroke="#fff" stroke-linecap="round" stroke-linejoin="round" stroke-width="0.5"/><path d="M99,69.58l.1-.93L100,68l.24,0,.9.44,1.12-1.13.48-.07.64.46-.59.5h-.42l-.55.28.2.42-.61.59-.62-.25-.5.26-1-.13Z" fill="#c6c6c6" stroke="#fff" stroke-linecap="round" stroke-linejoin="round" stroke-width="0.5"/><path d="M51.09,82.81l.36.22,0,.59-.36.39h1.36l.6.6L53,85.81l-.28.37.33.41-.58,0L52,86.48l-.22.28-.66,0-.43-.6L50,85.92l-.49.22-.15.83.25.59.62.69-.46.7,1.06-.1.72.6.13.34-.09,1.38.1.57-.49.12-.18.55-.88.15-1-.24,0-.26-.67-1.78-.38-.47-.53-.37-.74-.13-.42-1.21-.8-.32-.45,0-.46-.4-.52-1.1-1-.56v-.94l-1-1.07-1.26-1-1.79-.62-2.67-.27-.32-.07-.27-.4-.17-.58.3-.51.64-.75.47-.29-.18-1.56.07-.32.67-.45.85.18.93-.21h.91l.58.67.41,0,.59-.42.85-.08,1-.87.14-.68h.47l.48-.37.41.15.24.59.08.73-.32.79.25.1,1.27-.72.37.53,1.12.09.41.25V78l.5.38.79,0,.39.2h.4l.47.28L51,79.4l.27.68-.24.47-.43,0-.29.22-.06.44-.36-.2-.13.45v.73l.46-.15.6.12Z" fill="#c6c6c6" stroke="#fff" stroke-linecap="round" stroke-linejoin="round" stroke-width="0.5"/><path d="M102.66,70.21l.24.17-.16.66.17.39-.28.22-.26-.25-.36.1-.63-.14.07-.57.32-.49.53.08Z" fill="#c6c6c6" stroke="#fff" stroke-linecap="round" stroke-linejoin="round" stroke-width="0.5"/><path d="M85.13,72l.67,0,.07.46.24.28.6.26.12.24-.3.76.61-.05.55-.74.49-.24,0-.56.59-.57.59-.92.46-.53.41-.23,1-.13.25-.29,1.08-.14.34.11.27.31-.5.14-.44-.07.11.61.83-.08.63-.25.31-.25.64-.24.68-.54.5,0,1.32.33.36-.3.74-.12.08.25.59.07.27-.14,1,.13.5-.26.62.25L102,69l-.2-.42.55-.28h.42l.59-.5h1.15l1.08-.39.33.05.27.34,1.21.52.27-.22.31.37-.07.27-.43.21-.21-.16-.48.09-.19.36-.53.35-.53.2-.75.53.1.63.32.67.28.26-.25.38.32.24.43.66,1.17,1.28-.15.34,0,.68.44.44.1.59-.21.89-.84.26-.24.5-.24.83-.29.35-.33-.21-.36-.69-.27-1.45-.19-.27-1.3-.32-.44-.72-.34.18-1.06.85-.31.49v.75l-.57.88-.16.87-.1,1.71.33.51L100,83.62l.21.88,2.19.87.08.2,0,.89-.34.65,0,.32-.63.87-.15,1-.41.77v.38l-.46.26-.55.13-.3-.25-.58.37-.35.65-.52.49-.66-.75-.65-.57-.58-.16-.94-.41-.7-.5-.44,0L93,91l-.28.54,0,.37.17.86-.1,1.38.09.64,0,1.3.34.9-.65.2-.57.45-.87.46-.73.87-2.59.41-.56-.08-.46-.23L86,99.9l-.26.47-1,2.7-.15.89,0,.42-1.3,2.91-.2.21L83,108l-.36.91.15.54-.72,1.23-.83,1.25-.47.15-.93.52-1.29.12-2.11-.63-.76-.19-.5.2-.9-.06-1.47,0-.47-.3-.42-.55-5.2-3.37-1.09-.67-.65-.65-1.1-.42H62.66L62.25,105l.17-.17-.25-.77h1.32l.25-.61,0-1.34.24-1,.4-.62,1,.06.72,0,.25-.14.55.13.35.26.55,0,.73-.39.81-.33.12-.25.4,0,.33.21.46.06.3.24.35-.07v-.93l.24-.36.09-.83-.12-.57,1-.53.1-.41-.5-.32L71.74,95l-.46,0-.45-.37-.28.13-.18-1.13.45-.72.08-.41L70.81,92l-.3-.37.07-.52L71,90.5l.3-.06.41.3.34-.19.26.3.71.27.15.34.54-.13.37.38-.06.4-.54.22-.3.54.19.36-.2.28-.61,0,0,.32,1,1.62.8.18.36-.54L74.34,95,74,94.67l.25-.15.59-1.12.29-.12-.05-1.35.34-.33.66-.07,1,.35.47,0,.74.71.63,1,.53.15.57-.28-.19-.54.3-.67-.46-1.85h-.76l-.07-.31L78,89.83l-.14-.21-.47,0-.35-.32-.5-.22,0-.29.53-.35-.18-1-.31-.68-.45-.23-.27.26h-.48l-.27-.26-.47,0-.26-.25-.64.75-.12.29-.87.29-.38-.46.1-1,.19-.22,1.16-.69.11-.54.21-.15.23-.56.62-.26-.19-.58.09-.63.23-.56.35-.26.15-.39.26-.16L76.52,80l-.32-.54,0-.34-.32-.51.37-.25.3.93.36.07,0-.49.25-.21-.47-.48.11-.47-.36-.59-.65-.19-.43.17-.27,1-.6.33-.29-.33,0-.51-.33-.27-.62.1-.42-.1-.4.22-.28-.1-.29.22-.44-.13-.47.31-.83-.12-.32.11-.28-.34-.39.21-.26-.43-.46,0-.3.48v.61l.33.22.77.26L69,79.7l.08.79-.46.08-.36-.46-.71.18.32.54-.23.66,0,1,.31.86-.27.52-.2.82-.35.26-.68.23-.6.52-.36.11L65,85.74l-.55.11-.06-.26-.55-.5-.28,0-.36.53-1-.67L61,84.47l-.56,0L60,84.25,59.12,84l-.5-.42-.68-.11-.22-.24.14-.46-.39-.66-1.08-.68.41-.77-.32-.95-.69,0-.31.42.56.66-.27.36-.5.13-.55.36-.46,0L54,81l-.63.1-.24.38-.31-.1-.12.48-.86.54-.08.37-.69,0-.28-.63-.6-.12-.46.15v-.73l.13-.45.36.2.06-.44.29-.22.43,0,.24-.47L51,79.4l.25-.48-.47-.28h-.4l-.39-.2-.79,0L48.7,78v-.38l-.41-.25-1.12-.09-.37-.53-1.27.72-.25-.1.32-.79-.08-.73-.24-.59-.41-.15-.48.37h-.47L44,73.27l2.14,0,.53-.26-.33-.5H46.1l-.63-.71.72-.34.19-1.08-.1-.61h.44l-.1-.48.17-.19.19-.64h.26l.34.31.75.31.35-.06.2-.56-.11-.77.26-.48.27-.13.21-.44.65-.83.23.49.5-.16.51,0,.45.16.55,0,.38.4.21.73.55.68.77-.15.67.42,0,.59.45.48.4.1-.06,1.08.29.11.82-.05.28.48.6.12.16.82-.19.46.41,0,.54.28.09-.64.42-.87,0-.31.32-.41.35.16.4-.38h.63l.39-.63-.15-.47-.24-.14-.59.35L59.67,69l-.5-.1-.23-.33L58.88,68l-.24-.42-.39-.19.34-.68L58.36,66l.47-.64.53-.2.1-.26.7-.35.55-.61.51,0,.28-.33.41.19.54-.43,0-.28,1.28.12.21.2h.59l1,.46.49.07-.11.56.21.43.73.37.19.33.54-.28.34.23.61.13.17.27,1.07.89.84-.22.46-.4L72.29,66l1.42-1,.4.1.28-.45.46,0,.41-.74.21-.86L77.32,63l.78.18.11.6-.19.38.13.78-1.33.71.92.38,0,.61.27.83.59.43.47-.38.68.06.56.43.75-.08.42-.28.41.31.16.51-.19.61-.34.08v.49h.44l.4.24-.53.47-.46.15-.06.52-.37-.12L80.5,71l.08.45L81,72l.53-.09.18.61-.37.08L81,73.8l0,.44.2.33V75l.77,0v-.43l.29-.17.23.45.37.27.37-.39.07-.36.4.23.72-.21.23-.68,0-1.32Zm-7.52.31-.67.15-.19.63.62.88.57.16.33-.28.26-.7-.21-.76Zm25-2.11-.36.17-.53-.08-.32.49-.07.57.63.14.36-.1.26.25.28-.22-.17-.39.16-.66Z" fill="#c6c6c6" stroke="#fff" stroke-linecap="round" stroke-linejoin="round" stroke-width="0.5"/><path d="M62.66,106.06l-.48-.09-2.72,0L59,106h-1.2l-.69-.54,0-.78-.17-.08-1.08-1.15,0-2.06.31-.39L56,100l.17-.46-2.13-.71h-.61l-.66.54-.36-.19-.23-.44.14-.51L51,97.38V97l-.86-1.38L50.07,95l.09-.36L50,94.09l-.34-.33-.46-1,0-.47,1,.24.88-.15.18-.55.49-.12-.1-.57.09-1.38-.13-.34-.72-.6-1.06.1.46-.7-.62-.69L49.36,87l.15-.83.49-.22.64.22.43.6.66,0,.22-.28.47.16.58,0-.33-.41.28-.37.14-1.2-.6-.6H51.13l.36-.39,0-.59-.36-.22.69,0,.08-.37.86-.54.12-.48.31.1.24-.38L54,81l.24.55.46,0,.55-.36.5-.13.27-.36-.56-.66.31-.42.69,0,.32.95-.41.77,1.08.68.39.66-.14.46.22.24.68.11.5.42.89.28.42.27.56,0,1.22.51,1,.67.36-.53.28,0,.55.5.06.26.55-.11.47.11.36-.11.6-.52.68-.23.35-.26.2-.82.27-.52-.31-.86,0-1,.23-.66-.32-.54.71-.18.36.46.46-.08L69,79.7l.23-.91-.77-.26-.33-.22V77.7l.3-.48.46,0,.26.43.39-.21.28.34.32-.11.83.12.47-.31.44.13.29-.22.28.1.4-.22.42.1.62-.1.33.27,0,.51.29.33.6-.33.27-1,.43-.17.65.19.36.59-.11.47.47.48-.25.21,0,.49-.36-.07-.3-.93-.37.25.32.51,0,.34.32.54L76,81.17l-.26.16-.15.39-.35.26-.23.56-.09.63.19.58-.62.26-.23.56-.21.15-.11.54L72.73,86l-.19.22-.1,1,.38.46.87-.29.12-.29.64-.75.26.25.47,0,.27.26h.48l.27-.26.45.23.31.68.18,1-.53.35,0,.29.5.22.35.32.47,0,.14.21.81.23.07.31h.76l.46,1.85-.3.67.19.54-.57.28-.53-.15-.63-1-.74-.71-.47,0-1-.35-.66.07-.34.33.05,1.35-.29.12-.59,1.12-.25.15.35.37.35.09-.36.54-.8-.18-1-1.62,0-.32.61,0,.2-.28-.19-.36.3-.54.54-.22.06-.4-.37-.38-.54.13-.15-.34-.71-.27-.26-.3-.34.19-.41-.3-.3.06-.46.59-.07.52.3.37.09.53-.08.41-.45.72.18,1.13.28-.13.45.37.46,0,.38,1.2.5.32-.1.41-1,.53.12.57-.09.83-.24.36v.93l-.35.07-.3-.24-.46-.06-.33-.21-.4,0-.12.25-.81.33-.73.39-.55,0-.35-.26-.55-.13-.25.14-.72,0-1-.06-.4.62-.24,1,0,1.34-.25.61H62.17l.25.77-.17.17Z" fill="#c6c6c6" stroke="#fff" stroke-linecap="round" stroke-linejoin="round" stroke-width="0.5"/><path d="M79.88,112.6l.93-.52.47-.15.83-1.25.72-1.23-.15-.54L83,108l.08-.5.2-.21,1.3-2.91,0-.42.15-.89,1-2.7L86,99.9l.66-.81.46.23.56.08L90.31,99l.73-.87.87-.46.57-.45.65-.2-.34-.9,0-1.3-.09-.64.1-1.38-.17-.86,0-.37L93,91l1.24-1.28.44,0,.7.5.94.41.58.16.65.57.66.75.52-.49.35-.65.58-.37.3.25.55-.13.46-.26v-.38l.41-.77.15-1,.63-.87,0-.32.34-.65,0-.89-.08-.2-2.19-.87-.21-.88.65-1.75-.33-.51.1-1.71.16-.87.57-.88v-.75l.31-.49,1.06-.85.34-.18.44.72,1.3.32.19.27.27,1.45.36.69.33.21.29-.35.24-.83.24-.5.84-.26.21-.89-.1-.59-.44-.44,0-.68.15-.34L106,73.13l-.43-.66-.32-.24.25-.38-.28-.26-.32-.67-.1-.63.75-.53.53-.2.53-.35.19-.36.48-.09.21.16.43-.21.07-.27-.31-.37-.27.22-1.21-.52-.27-.34-.33-.05-1.08.39H103.4l-.64-.46-.48.07-1.12,1.13-.9-.44L100,68l-.9.61-.1.93-.59-.07-.08-.25-.74.12-.36.3-1.32-.33-.5,0-.68.54-.64.24-.31.25-.63.25-.83.08-.11-.61.44.07.5-.14-.27-.31-.34-.11-1.08.14,0-.64.36-.86.71-1,1.08-1-.43-.77.27-.88.22-1.18.6-2-.07-.58.82-.83.3-.49.26-.68.9-.06,1.37,0,1.14,0,.52-.11.77.22.74.06.77-.39,1.69-.15,1-.32,1-.24.78.14.15.39.3.26.58,0,.19.2-1.11,1.26-.72,1.07.42.83.46.45.15.77.32.94.29.35.65.39.23.27.28.81.43.43.51,0,.32.28.26,1.3.16.36.33.11L111,69l.3.52.1.49,1,.59.32-.13,2.78,2.51,4.63,1.54,2.55.84,4.54,1.52,3.11,1,3.58,1.21,3.32,1.13,4.32,0,2.75,0-3.13,3-4.09,3.88L134,90.23l-4.14,4.23-2,2.15-2.48,2.72-3.06,3.34-3.18-.2-3.84-.24-.91.36-1.23.15-1.42.51-1.22.53-1.18.6-1.25,1-.21.32-.17.67-.41.51-1,.33-.86.09-1.82.42-1.26,0-.89.24-.83.63-.15.48-.33.38-.38.16L99,109.2l-1.38.18-.48.19-2.08.06-.33-.13-.52-.52-.39-.56-1.64-1.3-.81.43-2,.76-.07.18-1.49.55-1.32.68-1,.43-.61,1.38-1.36,1.29-.25.68-.44-.31L81.35,113l-.71,0Z" fill="#c6c6c6" stroke="#fff" stroke-linecap="round" stroke-linejoin="round" stroke-width="0.5"/><path d="M86.34,33.66l0,.36-.29.16-.71,0L85,34l-.31.8-.46.26-.09.55.62.18.51-.1,0,.75.3.28-.38.68v.7l.29.52-.07,1.46-.86-.16-.19.68.18.63-.17.69.47.23.35,1.26.21.5,0,.36.32.35.54.93-.58.22-.43.36-.23.84.4.47.13.34-.48.56,0,.6-.4.15-.94,0-.2.27-.44,0L83,48.91h-.49l-.26.2h-.93L81,48.71l-.06-.87-.45-1.23.76-.32-.09-.61.07-.39-.13-.64-.69-.25-.59-.08L79.22,44l-.16-.69.46-.41-.66-.59-.64.2-1-.43.08-.51-.26-.36-.6-.16-.23-.69-.57.24-.11-.24L76,40l-.64-.12-.42.2-.34-.1-.29.37L73,40.61l-.21-.16-.41.2L72,40.4l-.75.39-.28-.2-.35.08-.06-.4L70.3,40H70l-.24.66-.42.42-.86.35-1.1,0-.32.46-1,.1L65,41.49l-1-.27-.48-.41-.55.51H61.9L61.61,41l.07-.41L61,38.71l-.2-.21L61,38l-.3-.85.77-2.33.61-.21.35.08.44-.15h.85l.77.22.28.27.59-.13.07-.48.25-.52.57-.23.69,0,.21.23.48-.44h.62l.43.2.89-.42.38-.87.43-.22v-.58l.37-.51.31,0,.47-.34.22.11.34.68,1,.45.27-.1.53.16,0,.38.71.92.42.17.19.39,1.22-.17.63-.23h.66l.4-.23.4,0,.51-.29.35-.66h.54l.74.16.19.31,0,.83L81,34l.37-.14.1-.49.36-.4.93.18-.11-.68.18-.54.53.06.39.44.58.41.42.08.18.3.58.27.37.34ZM82.89,40l-.42.08-.11.43.44.26Z" fill="#c6c6c6" stroke="#fff" stroke-linecap="round" stroke-linejoin="round" stroke-width="0.5"/><path d="M79.93,75.51A32.82,32.82,0,0,0,86,82a33.89,33.89,0,0,0,7.42,4.72,32.56,32.56,0,0,0,8.24,2.68,34.18,34.18,0,0,0,4.27.56,19.05,19.05,0,0,0,2.14.06h2.32a2.06,2.06,0,1,1,0,4.12h-.24l-2.35-.27a20.44,20.44,0,0,1-2.33-.34,35.91,35.91,0,0,1-4.57-1.14,36.82,36.82,0,0,1-15.6-9.63A33.37,33.37,0,0,1,79.93,75.51Z" fill="#0072bc"/><polygon points="126.51 89.47 104.77 102.11 108.92 91.93 102.14 83.27 126.51 89.47" fill="#0072bc"/><path d="M93.1,36.54a65.24,65.24,0,0,0-4.94,6.08A68.83,68.83,0,0,0,84,49.2a52.9,52.9,0,0,0-3.24,7,37.77,37.77,0,0,0-1.87,7.37v0a1.27,1.27,0,1,1-2.5-.39s0-.06,0-.09A40.67,40.67,0,0,1,79,55.5a53.67,53.67,0,0,1,3.91-7,68.35,68.35,0,0,1,4.77-6.32A64.91,64.91,0,0,1,93.1,36.54Z" fill="#0072bc"/><polygon points="77.23 69.3 74.51 60.69 77.75 62.94 81.31 61.25 77.23 69.3" fill="#0072bc"/><path d="M40.42,79.66A105.31,105.31,0,0,1,54.5,75.17c2.4-.6,4.84-1.07,7.3-1.47a68,68,0,0,1,7.46-.76,1.25,1.25,0,1,1,.13,2.49h-.14a70.07,70.07,0,0,0-7.24.13c-2.42.19-4.85.45-7.26.84A104.18,104.18,0,0,0,40.42,79.66Z" fill="#0072bc"/><polygon points="75.17 74.56 66.65 77.54 68.8 74.23 66.99 70.72 75.17 74.56" fill="#0072bc"/><path d="M247.61,72.32l.71.08.21.76-.26.7-.33.28-.57-.16-.62-.88.19-.63Z" fill="#c6c6c6" stroke="#fff" stroke-linecap="round" stroke-linejoin="round" stroke-width="0.5"/><path d="M269.57,58.63l-.52.11-1.14,0-1.37,0-.9.06-.26.68-.3.49-.82.83.07.58-.6,2-.22,1.18-.27.88.43.77-1.08,1-.71,1-.36.86,0,.64-.25.29-1,.13-.41.23-.46.53-.59.92-.59.57-.05.56-.49.24-.55.74-.61.05.3-.76-.12-.24-.6-.26-.24-.28L255.8,72l-.67,0,0-.25.44-.41-.1-.58-.51,0-.26-.36.49-.46.45-1.4-.32-.81.27-.22.53.16.3-.18.15-.45.3-.17.26-.67-.41-.44h-.62l-.14-.7.48.1,1,0,.18-.14-.21-.6.19-.61.05-1.29-.38-2.09v-.29l.42-.3,0-.49-.34-.47.46-.63.18-.61-.28-.95-.51-.55-.23-.07L256.85,55l-.44-.7.16-.44-.67-.4-.35-.57V51.46l-.25-.58-.3-1,.2-.33-.08-.61,0-.6.48-.56-.13-.34-.4-.47.23-.84.43-.36.58-.22-.54-.93-.32-.35,0-.36-.21-.5-.35-1.26-.47-.23.17-.69-.18-.63.19-.68.86.16.07-1.46-.29-.52v-.7l.38-.68-.3-.28-.05-.75-.51.1-.62-.18.09-.55.46-.26L255,34l.38.15.71,0,.29-.16-.05-.36.52-.4.61-.08.6.14,1.6.84,1.5,1,1.34,1,1.75,1.49,1.25,1.2.46.59,1.57,1.43.59.62,1.93,1.87.68.77.56,1,1.39,1.64.28.43.51.28.35.35-.43.53-.23.64-.38.32-.93,1.26-.5.83-.79,1.15-.87.55-.5,1.68.24.92.14.89-.09,1.65Z" fill="#c6c6c6" stroke="#fff" stroke-linecap="round" stroke-linejoin="round" stroke-width="0.5"/><path d="M255.13,48.92l.08.61-.2.33.3,1,.25.58v1.41l.35.57.67.4-.16.44.44.7.12,1.17.23.07.51.55.28.95-.18.61-.46.63.34.47,0,.49-.42.3v.29l.38,2.09-.05,1.29-.19.61.21.6-.18.14-1,0-.48-.1.14.7h.62l.41.44-.26.67-.3.17-.15.45-.3.18-.53-.16-.27.22.32.81-.45,1.4-.49.46.26.36.51,0,.1.58-.44.41,0,.25-.54.32,0,1.32-.23.68-.72.21-.4-.23-.07.36-.37.39-.37-.27-.23-.45-.29.17v.43l-.77,0v-.42l-.2-.33,0-.44.4-1.19.37-.08-.18-.61L251,72l-.44-.53L250.5,71l.41-.16.37.12.06-.52.46-.15.53-.47-.4-.24h-.44v-.49l.34-.08.19-.61-.16-.51-.41-.31-.42.28-.75.08-.56-.43-.68-.06-.47.38-.59-.43-.27-.83,0-.61-.92-.38,1.33-.71-.13-.78.19-.38-.11-.6-.78-.18-1.85.15-.21.86-.41.74-.46,0-.28.45-.4-.1-1.42,1-1.19.35-.46.4-.84.22-1.07-.89-.17-.27-.61-.13-.34-.23-.54.28-.19-.33-.73-.37-.21-.43.11-.56-.49-.07-1-.46H234l-.21-.2-1.28-.12-.05.28-.69-.37-.37,0-.13-.3,0-.55-.85.2-.66-.53-.26-.55.31-.42-.05-.3.41-.4-.67-.33.61-1,1.33-1.4-.59-.12v-.8l.69-.38v-.29l-.48-.62-.63.21.25-.57-.81-1.25,0-.95-.88.55-.31.31-.28-.3-.15-.7-.79-.8-.43,0-1,.6-1,.09-.15.32-.5.11-.43.35-.69-.08-.42-.17-.48-.39-.26-.88.89-1.72L224.94,47l.28-.08.1-.46,1.91-.36L228,46l.51.06.12-1.2-.17-.32.24-.47-.08-.31.66-2.43,1.08-1.44.08-.65.32-.77.2.21.71,1.83-.07.41.29.36H233l.55-.51.48.41,1,.27,1.06.49,1-.1.32-.46,1.1,0,.86-.35.42-.42L240,40h.3l.29.32.06.4.35-.08.28.2.75-.39.37.25.41-.2.21.16,1.27-.22.29-.37.34.1.42-.2L246,40l-.41.32.11.24.57-.24.23.69.6.16.26.36-.08.51,1,.43.64-.2.66.59-.46.41.16.69.59.32.59.08.69.25.13.64-.07.39.09.61-.76.32.45,1.23.06.87.33.42h.93l.26-.2H253l.15.44.44,0,.2-.27.94,0Z" fill="#c6c6c6" stroke="#fff" stroke-linecap="round" stroke-linejoin="round" stroke-width="0.5"/><path d="M232.45,63.45l-.54.43-.41-.19-.28.33-.51,0-.55.61-.7.35-.1.26-.53.2-.47.64.23.69-.34.68.39.19.24.42.06.53.23.33.5.1.57.55.59-.35.24.14.15.47-.39.63h-.63l-.4.38-.35-.16-.32.41,0,.31-.42.87-.09.64-.54-.28-.41,0,.19-.46-.16-.82-.6-.12-.28-.48-.82.05-.29-.11.06-1.08-.4-.1-.45-.48,0-.59-.67-.42-.77.15-.55-.68-.21-.73-.38-.4-.55,0-.45-.16-.51,0-.5.16-.23-.49-.65.83-.21.44-.27.13-.26.48.11.77-.2.56-.35.06-.75-.31-.34-.31H217l-.19.64-.17.19.1.48h-.44l.1.61-.19,1.08-.72.34.63.71h.22l.33.5-.53.26-2.14,0L213.63,69l.39-1.48.49-1.07.17-.89.67-.65.18-.87-.45-2.29.48-.56.63-1.11,1.12-.75.58.39.91.81.44-.07.83-1,0-.36-.33-.3.53-1.58-.28-.73.87-1.89,0-.45-.18-.35-.06-.61.42-.87.83-.34.22-.22.26.88.48.39.42.17.69.08.43-.35.5-.11.15-.32,1-.09,1-.6.43,0,.79.8.15.7.28.3.31-.31.88-.55,0,.95.81,1.25-.25.57.63-.21.48.62v.29l-.69.38v.8l.59.12-1.33,1.4-.61,1,.67.33-.41.4.05.3-.31.42.26.55.66.53.85-.2,0,.55.13.3.37,0Z" fill="#c6c6c6" stroke="#fff" stroke-linecap="round" stroke-linejoin="round" stroke-width="0.5"/><path d="M269,69.58l.1-.93L270,68l.24,0,.9.44,1.12-1.13.48-.07.64.46-.59.5h-.42l-.55.28.2.42-.61.59-.62-.25-.5.26-1-.13Z" fill="#c6c6c6" stroke="#fff" stroke-linecap="round" stroke-linejoin="round" stroke-width="0.5"/><path d="M221.09,82.81l.36.22,0,.59-.36.39h1.36l.6.6-.14,1.2-.28.37.33.41-.58,0-.47-.16-.22.28-.66,0-.43-.6-.64-.22-.49.22-.15.83.25.59.62.69-.46.7,1.06-.1.72.6.13.34-.09,1.38.1.57-.49.12-.18.55-.88.15-1-.24,0-.26-.67-1.78-.38-.47-.53-.37-.74-.13-.42-1.21-.8-.32-.45,0-.46-.4-.52-1.1-1-.56v-.94l-1-1.07-1.26-1-1.79-.62-2.67-.27-.32-.07-.27-.4-.17-.58.3-.51.64-.75.47-.29-.18-1.56.07-.32.67-.45.85.18.93-.21h.91l.58.67.41,0,.59-.42.85-.08,1-.87.14-.68h.47l.48-.37.41.15.24.59.08.73-.32.79.25.1,1.27-.72.37.53,1.12.09.41.25V78l.5.38.79,0,.39.2h.4l.47.28-.25.48.27.68-.24.47-.43,0-.29.22-.06.44-.36-.2-.13.45v.73l.46-.15.6.12Z" fill="#c6c6c6" stroke="#fff" stroke-linecap="round" stroke-linejoin="round" stroke-width="0.5"/><path d="M272.66,70.21l.24.17-.16.66.17.39-.28.22-.26-.25-.36.1-.63-.14.07-.57.32-.49.53.08Z" fill="#c6c6c6" stroke="#fff" stroke-linecap="round" stroke-linejoin="round" stroke-width="0.5"/><path d="M255.13,72l.67,0,.07.46.24.28.6.26.12.24-.3.76.61-.05.55-.74.49-.24.05-.56.59-.57.59-.92.46-.53.41-.23,1-.13.25-.29,1.08-.14.34.11.27.31-.5.14-.44-.07.11.61.83-.08.63-.25.31-.25.64-.24.68-.54.5,0,1.32.33.36-.3.74-.12.08.25.59.07.27-.14,1,.13.5-.26.62.25L272,69l-.2-.42.55-.28h.42l.59-.5h1.15l1.08-.39.33.05.27.34,1.21.52.27-.22.31.37-.07.27-.43.21-.21-.16-.48.09-.19.36-.53.35-.53.2-.75.53.1.63.32.67.28.26-.25.38.32.24.43.66,1.17,1.28-.15.34,0,.68.44.44.1.59-.21.89-.84.26-.24.5-.24.83-.29.35-.33-.21-.36-.69-.27-1.45-.19-.27-1.3-.32-.44-.72-.34.18-1.06.85-.31.49v.75l-.57.88-.16.87-.1,1.71.33.51L270,83.62l.21.88,2.19.87.08.2,0,.89-.34.65,0,.32-.63.87-.15,1-.41.77v.38l-.46.26-.55.13-.3-.25-.58.37-.35.65-.52.49-.66-.75-.65-.57-.58-.16-.94-.41-.7-.5-.44,0L263,91l-.28.54,0,.37.17.86-.1,1.38.09.64,0,1.3.34.9-.65.2-.57.45-.87.46-.73.87-2.59.41-.56-.08-.46-.23-.66.81-.26.47-1,2.7-.15.89,0,.42-1.3,2.91-.2.21-.08.5-.36.91.15.54-.72,1.23-.83,1.25-.47.15-.93.52-1.29.12-2.11-.63-.76-.19-.5.2-.9-.06-1.47,0-.47-.3-.42-.55-5.2-3.37-1.09-.67-.65-.65-1.1-.42h-1.26l-.41-1.06.17-.17-.25-.77h1.32l.25-.61,0-1.34.24-1,.4-.62,1,.06.72,0,.25-.14.55.13.35.26.55,0,.73-.39.81-.33.12-.25.4,0,.33.21.46.06.3.24.35-.07v-.93l.24-.36.09-.83-.12-.57,1.05-.53.1-.41-.5-.32-.38-1.2-.46,0-.45-.37-.28.13-.18-1.13.45-.72.08-.41-.09-.53-.3-.37.07-.52.46-.59.3-.06.41.3.34-.19.26.3.71.27.15.34.54-.13.37.38-.06.4-.54.22-.3.54.19.36-.2.28-.61,0,0,.32,1,1.62.8.18.36-.54-.35-.09-.35-.37.25-.15.59-1.12.29-.12-.05-1.35.34-.33.66-.07,1,.35.47,0,.74.71.63,1,.53.15.57-.28-.19-.54.3-.67-.46-1.85h-.76l-.07-.31-.81-.23-.14-.21-.47,0-.35-.32-.5-.22,0-.29.53-.35-.18-1-.31-.68-.45-.23-.27.26h-.48l-.27-.26-.47,0-.26-.25-.64.75-.12.29-.87.29-.38-.46.1-1,.19-.22,1.16-.69.11-.54.21-.15.23-.56.62-.26-.19-.58.09-.63.23-.56.35-.26.15-.39.26-.16.57-1.18-.32-.54,0-.34-.32-.51.37-.25.3.93.36.07,0-.49.25-.21-.47-.48.11-.47-.36-.59-.65-.19-.43.17-.27,1-.6.33-.29-.33,0-.51-.33-.27-.62.1-.42-.1-.4.22-.28-.1-.29.22-.44-.13-.47.31-.83-.12-.32.11-.28-.34-.39.21-.26-.43-.46,0-.3.48v.61l.33.22.77.26-.23.91.08.79-.46.08-.36-.46-.71.18.32.54-.23.66,0,1,.31.86-.27.52-.2.82-.35.26-.68.23-.6.52-.36.11-.47-.11-.55.11-.06-.26-.55-.5-.28,0-.36.53-1-.67L231,84.47l-.56,0-.42-.27-.89-.28-.5-.42-.68-.11-.22-.24.14-.46-.39-.66-1.08-.68.41-.77-.32-.95-.69,0-.31.42.56.66-.27.36-.5.13-.55.36-.46,0L224,81l-.63.1-.24.38-.31-.1-.12.48-.86.54-.08.37-.69,0-.28-.63-.6-.12-.46.15v-.73l.13-.45.36.2.06-.44.29-.22.43,0,.24-.47L221,79.4l.25-.48-.47-.28h-.4l-.39-.2-.79,0-.5-.38v-.38l-.41-.25-1.12-.09-.37-.53-1.27.72-.25-.1.32-.79-.08-.73-.24-.59-.41-.15-.48.37h-.47l.07-2.25,2.14,0,.53-.26-.33-.5h-.22l-.63-.71.72-.34.19-1.08-.1-.61h.44l-.1-.48.17-.19.19-.64h.26l.34.31.75.31.35-.06.2-.56-.11-.77.26-.48.27-.13.21-.44.65-.83.23.49.5-.16.51,0,.45.16.55,0,.38.4.21.73.55.68.77-.15.67.42,0,.59.45.48.4.1-.06,1.08.29.11.82-.05.28.48.6.12.16.82-.19.46.41,0,.54.28.09-.64.42-.87,0-.31.32-.41.35.16.4-.38h.63l.39-.63-.15-.47-.24-.14-.59.35-.57-.55-.5-.1-.23-.33-.06-.53-.24-.42-.39-.19.34-.68-.23-.69.47-.64.53-.2.1-.26.7-.35.55-.61.51,0,.28-.33.41.19.54-.43.05-.28,1.28.12.21.2h.59l1,.46.49.07-.11.56.21.43.73.37.19.33.54-.28.34.23.61.13.17.27,1.07.89.84-.22.46-.4,1.19-.35,1.42-1,.4.1.28-.45.46,0,.41-.74.21-.86,1.85-.15.78.18.11.6-.19.38.13.78-1.33.71.92.38,0,.61.27.83.59.43.47-.38.68.06.56.43.75-.08.42-.28.41.31.16.51-.19.61-.34.08v.49h.44l.4.24-.53.47-.46.15-.06.52-.37-.12-.41.16.08.45L251,72l.53-.09.18.61-.37.08L251,73.8l0,.44.2.33V75l.77,0v-.43l.29-.17.23.45.37.27.37-.39.07-.36.4.23.72-.21.23-.68,0-1.32Zm-7.52.31-.67.15-.19.63.62.88.57.16.33-.28.26-.7-.21-.76Zm25.05-2.11-.36.17-.53-.08-.32.49-.07.57.63.14.36-.1.26.25.28-.22-.17-.39.16-.66Z" fill="#c6c6c6" stroke="#fff" stroke-linecap="round" stroke-linejoin="round" stroke-width="0.5"/><path d="M232.66,106.06l-.48-.09-2.72,0L229,106h-1.2l-.69-.54,0-.78-.17-.08-1.08-1.15,0-2.06.31-.39L226,100l.17-.46-2.13-.71h-.61l-.66.54-.36-.19-.23-.44.14-.51-1.35-.9V97l-.86-1.38-.08-.62.09-.36-.13-.53-.34-.33-.46-1,0-.47,1,.24.88-.15.18-.55.49-.12-.1-.57.09-1.38-.13-.34-.72-.6-1.06.1.46-.7-.62-.69-.25-.59.15-.83.49-.22.64.22.43.6.66,0,.22-.28.47.16.58,0-.33-.41.28-.37.14-1.2-.6-.6h-1.36l.36-.39,0-.59-.36-.22.69,0,.08-.37.86-.54.12-.48.31.1.24-.38L224,81l.24.55.46,0,.55-.36.5-.13.27-.36-.56-.66.31-.42.69,0,.32.95-.41.77,1.08.68.39.66-.14.46.22.24.68.11.5.42.89.28.42.27.56,0,1.22.51,1,.67.36-.53.28,0,.55.5.06.26.55-.11.47.11.36-.11.6-.52.68-.23.35-.26.2-.82.27-.52-.31-.86,0-1,.23-.66-.32-.54.71-.18.36.46.46-.08L239,79.7l.23-.91-.77-.26-.33-.22V77.7l.3-.48.46,0,.26.43.39-.21.28.34.32-.11.83.12.47-.31.44.13.29-.22.28.1.4-.22.42.1.62-.1.33.27,0,.51.29.33.6-.33.27-1,.43-.17.65.19.36.59-.11.47.47.48-.25.21,0,.49-.36-.07-.3-.93-.37.25.32.51,0,.34.32.54L246,81.17l-.26.16-.15.39-.35.26-.23.56-.09.63.19.58-.62.26-.23.56-.21.15-.11.54-1.16.69-.19.22-.1,1,.38.46.87-.29.12-.29.64-.75.26.25.47,0,.27.26h.48l.27-.26.45.23.31.68.18,1-.53.35,0,.29.5.22.35.32.47,0,.14.21.81.23.07.31h.76l.46,1.85-.3.67.19.54-.57.28-.53-.15-.63-1-.74-.71-.47,0-1-.35-.66.07-.34.33.05,1.35-.29.12-.59,1.12-.25.15.35.37.35.09-.36.54-.8-.18-1-1.62,0-.32.61,0,.2-.28-.19-.36.3-.54.54-.22.06-.4-.37-.38-.54.13-.15-.34-.71-.27-.26-.3-.34.19-.41-.3-.3.06-.46.59-.07.52.3.37.09.53-.08.41-.45.72.18,1.13.28-.13.45.37.46,0,.38,1.2.5.32-.1.41-1.05.53.12.57-.09.83-.24.36v.93l-.35.07-.3-.24-.46-.06-.33-.21-.4,0-.12.25-.81.33-.73.39-.55,0-.35-.26-.55-.13-.25.14-.72,0-1-.06-.4.62-.24,1,0,1.34-.25.61h-1.32l.25.77-.17.17Z" fill="#c6c6c6" stroke="#fff" stroke-linecap="round" stroke-linejoin="round" stroke-width="0.5"/><path d="M249.88,112.6l.93-.52.47-.15.83-1.25.72-1.23-.15-.54L253,108l.08-.5.2-.21,1.3-2.91,0-.42.15-.89,1-2.7.26-.47.66-.81.46.23.56.08,2.59-.41.73-.87.87-.46.57-.45.65-.2-.34-.9,0-1.3-.09-.64.1-1.38-.17-.86,0-.37L263,91l1.24-1.28.44,0,.7.5.94.41.58.16.65.57.66.75.52-.49.35-.65.58-.37.3.25.55-.13.46-.26v-.38l.41-.77.15-1,.63-.87,0-.32.34-.65,0-.89-.08-.2-2.19-.87-.21-.88.65-1.75-.33-.51.1-1.71.16-.87.57-.88v-.75l.31-.49,1.06-.85.34-.18.44.72,1.3.32.19.27.27,1.45.36.69.33.21.29-.35.24-.83.24-.5.84-.26.21-.89-.1-.59-.44-.44,0-.68.15-.34L276,73.13l-.43-.66-.32-.24.25-.38-.28-.26-.32-.67-.1-.63.75-.53.53-.2.53-.35.19-.36.48-.09.21.16.43-.21.07-.27-.31-.37-.27.22-1.21-.52-.27-.34-.33-.05-1.08.39H273.4l-.64-.46-.48.07-1.12,1.13-.9-.44L270,68l-.9.61-.1.93-.59-.07-.08-.25-.74.12-.36.3-1.32-.33-.5,0-.68.54-.64.24-.31.25-.63.25-.83.08-.11-.61.44.07.5-.14-.27-.31-.34-.11-1.08.14,0-.64.36-.86.71-1,1.08-1-.43-.77.27-.88.22-1.18.6-2-.07-.58.82-.83.3-.49.26-.68.9-.06,1.37,0,1.14,0,.52-.11.77.22.74.06.77-.39,1.69-.15,1-.32,1-.24.78.14.15.39.3.26.58,0,.19.2-1.11,1.26-.72,1.07.42.83.46.45.15.77.32.94.29.35.65.39.23.27.28.81.43.43.51,0,.32.28.26,1.3.16.36.33.11L281,69l.3.52.1.49,1,.59.32-.13,2.78,2.51,4.63,1.54,2.55.84,4.54,1.52,3.11,1,3.58,1.21,3.32,1.13,4.32,0,2.75,0-3.13,3-4.09,3.88L304,90.23l-4.14,4.23-2,2.15-2.48,2.72-3.06,3.34-3.18-.2-3.84-.24-.91.36-1.23.15-1.42.51-1.22.53-1.18.6-1.25,1-.21.32-.17.67-.41.51-1,.33-.86.09-1.82.42-1.26,0-.89.24-.83.63-.15.48-.33.38-.38.16-.83-.38-1.38.18-.48.19-2.08.06-.33-.13-.52-.52-.39-.56-1.64-1.3-.81.43-2,.76-.07.18-1.49.55-1.32.68-1,.43-.61,1.38-1.36,1.29-.25.68-.44-.31-1.48-.19-.71,0Z" fill="#c6c6c6" stroke="#fff" stroke-linecap="round" stroke-linejoin="round" stroke-width="0.5"/><path d="M256.34,33.66l.05.36-.29.16-.71,0L255,34l-.31.8-.46.26-.09.55.62.18.51-.1.05.75.3.28-.38.68v.7l.29.52-.07,1.46-.86-.16-.19.68.18.63-.17.69.47.23.35,1.26.21.5,0,.36.32.35.54.93-.58.22-.43.36-.23.84.4.47.13.34-.48.56,0,.6-.4.15-.94,0-.2.27-.44,0-.15-.44h-.49l-.26.2h-.93l-.33-.42-.06-.87-.45-1.23.76-.32-.09-.61.07-.39-.13-.64-.69-.25-.59-.08-.59-.32-.16-.69.46-.41-.66-.59-.64.2-1-.43.08-.51-.26-.36-.6-.16-.23-.69-.57.24-.11-.24L246,40l-.64-.12-.42.2-.34-.1-.29.37-1.27.22-.21-.16-.41.2L242,40.4l-.75.39-.28-.2-.35.08-.06-.4L240.3,40H240l-.24.66-.42.42-.86.35-1.1,0-.32.46-1,.1L235,41.49l-1-.27-.48-.41-.55.51H231.9l-.29-.36.07-.41L231,38.71l-.2-.21L231,38l-.3-.85.77-2.33.61-.21.35.08.44-.15h.85l.77.22.28.27.59-.13.07-.48.25-.52.57-.23.69,0,.21.23.48-.44h.62l.43.2.89-.42.38-.87.43-.22v-.58l.37-.51.31,0,.47-.34.22.11.34.68,1,.45.27-.1.53.16,0,.38.71.92.42.17.19.39,1.22-.17.63-.23h.66l.4-.23.4,0,.51-.29.35-.66h.54l.74.16.19.31,0,.83L251,34l.37-.14.1-.49.36-.4.93.18-.11-.68.18-.54.53.06.39.44.58.41.42.08.18.3.58.27.37.34ZM252.89,40l-.42.08-.11.43.44.26Z" fill="#c6c6c6" stroke="#fff" stroke-linecap="round" stroke-linejoin="round" stroke-width="0.5"/><path d="M245.93,71.51A35.45,35.45,0,0,0,264,85.23a21.58,21.58,0,0,0,2.75.78l1.38.34a11.17,11.17,0,0,0,1.41.22l2.82.39,2.85.08,1.42,0c.47,0,1-.07,1.42-.1l2.83-.24c1.88-.25,3.74-.69,5.6-1l.16,0a1.33,1.33,0,1,1,.47,2.62h-.07c-2,.24-3.95.59-5.93.74l-3,.08c-.5,0-1,0-1.5,0L275.15,89l-3-.25-2.93-.57a14.62,14.62,0,0,1-1.46-.32l-1.42-.44a22.73,22.73,0,0,1-2.81-1,35.11,35.11,0,0,1-10.09-6.07A34.35,34.35,0,0,1,245.93,71.51Z" fill="#0072bc"/><polygon points="292.51 85.47 285.28 90.88 286.34 87.08 283.56 84.28 292.51 85.47" fill="#0072bc"/><path d="M263.1,36.54a94.51,94.51,0,0,0-5.78,8.29q-2.67,4.29-4.91,8.81a79,79,0,0,0-3.83,9.25,57.86,57.86,0,0,0-2.33,9.62v0a1.31,1.31,0,1,1-2.58-.4s0-.06,0-.09a60.72,60.72,0,0,1,3.07-9.87A81.38,81.38,0,0,1,251.26,53a100.51,100.51,0,0,1,5.52-8.55A95.09,95.09,0,0,1,263.1,36.54Z" fill="#0072bc"/><polygon points="244.38 78.2 241.92 69.52 245.09 71.87 248.7 70.28 244.38 78.2" fill="#0072bc"/><path d="M210.42,79.66c3-1.44,6.09-2.7,9.22-3.86s6.31-2.18,9.54-3.07A93.7,93.7,0,0,1,239,70.58a71,71,0,0,1,10.12-.86,1.31,1.31,0,1,1,0,2.62h-.12a68.35,68.35,0,0,0-9.8.19A90.55,90.55,0,0,0,229.48,74q-4.84,1-9.64,2.42C216.66,77.37,213.51,78.42,210.42,79.66Z" fill="#0072bc"/><polygon points="255 71.59 246.39 74.3 248.65 71.06 246.96 67.49 255 71.59" fill="#0072bc"/></svg>