<svg xmlns="http://www.w3.org/2000/svg" width="350" height="148" viewBox="0 0 350 148"><rect width="350" height="148" fill="#f1f2f2"/><path d="M31.92,21.87V14.54h2.5a3.56,3.56,0,0,1,3.76,3.67,3.54,3.54,0,0,1-3.76,3.66Zm5.32-3.66a2.69,2.69,0,0,0-2.82-2.86H32.83v5.71h1.59A2.7,2.7,0,0,0,37.24,18.21Z" fill="#0072bc"/><path d="M39.26,19.21a2.63,2.63,0,1,1,5.26,0,2.63,2.63,0,1,1-5.26,0Zm4.39,0a1.78,1.78,0,1,0-3.52,0,1.78,1.78,0,1,0,3.52,0Z" fill="#0072bc"/><circle cx="17.55" cy="17.55" r="7.55" fill="#9dc5ff"/><circle cx="17.55" cy="17.55" r="4.8" fill="#0072bc"/><polyline points="14.8 17.55 16.63 19.38 20.29 15.72" fill="none" stroke="#fff" stroke-linecap="round" stroke-linejoin="round" stroke-width="0.75"/><path d="M201.92,21.87V14.54h2.5a3.56,3.56,0,0,1,3.76,3.67,3.54,3.54,0,0,1-3.76,3.66Zm5.32-3.66a2.69,2.69,0,0,0-2.82-2.86h-1.59v5.71h1.59A2.7,2.7,0,0,0,207.24,18.21Z" fill="#ef4a60"/><path d="M209.26,19.21a2.63,2.63,0,1,1,5.26,0,2.63,2.63,0,1,1-5.26,0Zm4.39,0a1.78,1.78,0,1,0-3.52,0,1.78,1.78,0,1,0,3.52,0Z" fill="#ef4a60"/><path d="M219.44,21.87V18.4c0-.95-.48-1.23-1.19-1.23a2.06,2.06,0,0,0-1.57.82v3.88h-.83V16.56h.83v.77a2.58,2.58,0,0,1,1.9-.9,1.5,1.5,0,0,1,1.68,1.71v3.73Z" fill="#ef4a60"/><path d="M222.07,16.93l-.42-.35a1.65,1.65,0,0,0,.71-1l-.15,0a.53.53,0,0,1-.53-.56.6.6,0,0,1,.58-.59c.38,0,.7.3.7.84A2.14,2.14,0,0,1,222.07,16.93Z" fill="#ef4a60"/><path d="M224.54,20.76V17.29h-.88v-.73h.88V15.11h.83v1.45h1.08v.73h-1.08v3.29c0,.4.18.68.53.68a.75.75,0,0,0,.56-.23l.24.63a1.32,1.32,0,0,1-1,.34A1.08,1.08,0,0,1,224.54,20.76Z" fill="#ef4a60"/><circle cx="187.55" cy="17.55" r="7.55" fill="#ffbcc1"/><circle cx="187.55" cy="17.55" r="4.8" fill="#ef4a60"/><line x1="189.55" y1="15.55" x2="185.55" y2="19.55" fill="none" stroke="#fff" stroke-linecap="round" stroke-linejoin="round" stroke-width="0.75"/><line x1="189.55" y1="19.55" x2="185.55" y2="15.55" fill="none" stroke="#fff" stroke-linecap="round" stroke-linejoin="round" stroke-width="0.75"/><path d="M80,75.62l.71.09.22.75-.26.7-.33.29-.57-.16-.63-.89.19-.63Z" fill="#c6c6c6" stroke="#fff" stroke-linecap="round" stroke-linejoin="round" stroke-width="0.5"/><path d="M101.93,61.93l-.52.11-1.14.05-1.38,0-.89.06-.27.68-.29.49-.83.83.07.59-.59,2-.22,1.17-.28.88.44.77-1.08,1-.72,1-.36.86,0,.64-.24.29-1,.14-.42.22-.45.53-.59.92-.59.58-.06.56-.49.23-.54.75-.61,0,.29-.76-.12-.24-.6-.26-.24-.28-.07-.46-.66,0,0-.25.43-.41-.09-.58-.52,0L87,73.73l.49-.46L88,71.88l-.32-.82.26-.21.53.15.31-.18.14-.45.3-.17.27-.67L89,69.1h-.61l-.14-.7.48.1,1,0L90,68.4l-.21-.6.19-.61,0-1.29-.38-2.09v-.29l.42-.29,0-.5-.33-.46.46-.64.18-.6-.29-1-.51-.56-.22-.06-.12-1.18-.45-.69.16-.45-.66-.4-.35-.57V54.76l-.26-.58-.3-1,.2-.33-.07-.6,0-.61.48-.56-.13-.34-.41-.47.24-.84.43-.36.57-.21-.53-.94-.32-.35,0-.36-.22-.5-.34-1.26-.48-.23.17-.69-.17-.62L87,43.2l.87.16.07-1.46-.29-.52v-.7L88,40l-.31-.27,0-.76-.51.11-.62-.18.09-.56.46-.26.31-.79.38.14.7,0,.3-.16,0-.36.51-.4.62-.08.59.14,1.61.84,1.49,1,1.35,1L96.61,41l1.26,1.2.46.6,1.57,1.42.58.62,1.94,1.87.68.77.56,1,1.39,1.65.27.42.51.28.36.35-.44.53-.22.64-.38.33-.93,1.25-.5.83-.8,1.15-.86.55-.5,1.69.24.92.13.89-.08,1.64Z" fill="#c6c6c6" stroke="#fff" stroke-linecap="round" stroke-linejoin="round" stroke-width="0.5"/><path d="M87.49,52.23l.07.6-.2.33.3,1,.26.58v1.41l.35.57.66.4-.16.45.45.69.12,1.18.22.06.51.56.29,1-.18.6-.46.64.33.46,0,.5-.42.29v.29L90,65.9l0,1.29-.19.61.21.6-.19.14-1,0-.48-.1.14.7H89l.42.43-.27.67-.3.17-.14.45-.31.18-.53-.15-.26.21.32.82-.45,1.39-.49.46.25.36.52,0,.09.58-.43.41,0,.25-.54.33L87,77l-.23.68-.72.21-.4-.22-.07.35-.37.39-.38-.27-.22-.45-.29.17v.44l-.77,0v-.42l-.2-.32,0-.45.4-1.19.36-.08-.17-.61-.53.1-.44-.54-.08-.45.4-.16.37.12.06-.52.46-.14.54-.47-.4-.24h-.44v-.5l.34-.08.18-.61-.15-.51-.41-.31-.42.28-.76.09-.55-.44-.68,0-.48.38-.58-.44-.27-.82,0-.62-.92-.37,1.32-.72-.12-.78.18-.38-.11-.6-.78-.18-1.84.15-.21.86-.41.74L76.74,68l-.27.45-.4-.1-1.43,1-1.18.35L73,70l-.84.22-1.07-.88-.17-.28L70.31,69,70,68.72l-.54.28-.2-.33-.73-.37-.2-.43.1-.56-.48-.07-1-.46h-.59l-.21-.2-1.29-.12,0,.29-.7-.38-.36,0-.14-.29,0-.56-.85.2-.66-.53-.26-.55.3-.42,0-.3.4-.4-.66-.33.6-1,1.33-1.39-.59-.13V59.9l.69-.39v-.29l-.48-.62-.64.22.25-.57L62.25,57l0-.94-.88.54L61,56.9l-.29-.29-.14-.7-.79-.81-.43,0-1,.6-1,.08-.16.33-.49.1-.43.35-.69-.08-.42-.17L54.76,56l-.27-.87.89-1.73,1.91-3.08.28-.08.11-.46,1.91-.36.78-.06.51.07L61,48.19l-.17-.32.24-.47L61,47.09l.66-2.42,1.07-1.45.09-.65.32-.76.2.2L64,43.84l-.07.41.29.36h1.1l.55-.51.49.41,1,.27,1.06.5,1-.11.31-.45,1.11,0,.86-.35.41-.42.24-.66h.31l.29.31L73,44l.36-.09.27.2.76-.39.37.25.4-.2.22.17,1.26-.23.3-.36.33.09.43-.2.64.13-.41.31.1.25.57-.24.24.68.6.16.26.36-.09.51,1,.43.64-.2.66.59-.46.41.15.7.6.32.58.07.69.25.14.64-.07.4.09.6-.77.32.45,1.24.07.87.33.41h.93l.26-.2h.49l.14.44.45,0,.2-.27.94,0Z" fill="#c6c6c6" stroke="#fff" stroke-linecap="round" stroke-linejoin="round" stroke-width="0.5"/><path d="M64.81,66.76l-.54.42L63.86,67l-.28.33-.51,0-.55.61-.71.35-.09.25-.54.21-.47.64L61,70l-.34.68.39.19.23.43.07.52.22.33.51.1.57.55.59-.35.24.14.14.47-.38.63h-.63l-.4.38-.36-.16-.32.41,0,.31-.41.87-.09.64-.54-.28-.41,0,.18-.46-.16-.82-.59-.12L59.2,74l-.82,0-.3-.11.06-1.08-.39-.1-.46-.48.05-.59-.67-.41-.77.14-.55-.68L55.14,70l-.38-.41-.56,0-.44-.17-.52,0-.49.16-.23-.49-.66.83-.2.44-.28.13-.25.49.1.76-.2.56-.34.06L49.94,72l-.34-.31h-.27l-.18.64-.18.19.11.48h-.45l.11.6-.19,1.09-.72.34.62.7h.23l.33.5-.53.26-2.14,0L46,72.29l.4-1.48.48-1.07.17-.88.67-.65.18-.88L47.43,65l.49-.56.63-1.1,1.12-.75.57.38.92.81.43-.07.83-1,0-.37-.33-.3.52-1.58-.27-.73.87-1.89,0-.45-.18-.35-.06-.6.42-.88.83-.34.21-.21.27.87.48.39.42.17.69.08.43-.35.49-.1.16-.33,1-.08,1-.6.43,0,.79.81.14.7.29.29.31-.31.88-.54,0,.94.81,1.26-.25.57.64-.22.48.62v.29l-.69.39v.79l.59.13-1.33,1.39-.6,1,.66.33-.4.4,0,.3-.3.42.26.55.66.53.85-.2,0,.56.14.29.36,0Z" fill="#c6c6c6" stroke="#fff" stroke-linecap="round" stroke-linejoin="round" stroke-width="0.5"/><path d="M101.37,72.88l.11-.93.9-.6.24,0,.9.44,1.12-1.12.47-.08.65.47-.59.49h-.42l-.55.28.2.42-.62.59-.61-.24-.5.26-1-.14Z" fill="#c6c6c6" stroke="#fff" stroke-linecap="round" stroke-linejoin="round" stroke-width="0.5"/><path d="M53.44,86.11l.37.22,0,.59-.36.39h1.36l.59.6-.14,1.2-.28.37.34.41-.58,0-.48-.16-.21.28-.66,0L53,89.45l-.64-.23-.48.22-.16.84.25.59.63.69-.47.7,1.06-.11.72.6.14.35L54,94.48l.1.57-.49.11-.19.55-.87.15-1-.24,0-.25-.68-1.79-.37-.47-.53-.37-.75-.13-.41-1.21-.8-.32-.45,0-.46-.4-.52-1.1-1-.56V88l-1-1.06-1.25-1-1.8-.62-2.66-.27-.32-.07-.27-.4-.17-.58.29-.51.65-.75.47-.29L39.29,81l.07-.32L40,80.2l.85.17.92-.21h.91l.59.66.41.06.58-.42.86-.09,1-.87.13-.68h.48l.47-.37.41.15.24.59.09.73-.32.8.25.09,1.27-.71.37.52,1.12.09.41.26v.37l.5.38.8,0,.39.2h.39l.47.28-.24.49.26.67-.23.47-.44,0-.28.22-.06.45-.36-.21-.14.45v.73l.46-.15.59.13Z" fill="#c6c6c6" stroke="#fff" stroke-linecap="round" stroke-linejoin="round" stroke-width="0.5"/><path d="M105,73.51l.23.17-.15.66.17.4L105,75l-.27-.24-.35.09-.63-.14.07-.56.31-.5.53.08Z" fill="#c6c6c6" stroke="#fff" stroke-linecap="round" stroke-linejoin="round" stroke-width="0.5"/><path d="M87.49,75.31l.66,0,.07.46.24.28.6.26.12.24-.29.76.61,0,.54-.75.49-.23.06-.56.59-.58.59-.92.45-.53.42-.22,1-.14.24-.29,1.08-.14.35.11.27.31-.5.15-.44-.08.11.62.82-.09.64-.25.3-.24.65-.25.68-.53.5,0,1.32.33.36-.3.74-.11.08.24.58.07.28-.14,1,.14.5-.26.61.24.62-.59-.2-.42.55-.28h.42l.59-.49h1.15l1.07-.4.34,0,.27.35,1.21.51.27-.22.31.38-.07.26-.43.21-.21-.16-.48.09-.19.36-.53.35-.53.2-.75.54.1.62.32.68.28.25-.25.38.32.24.43.67,1.17,1.27-.15.34,0,.68.43.44.1.59-.2.89-.84.26-.24.5-.24.83-.3.36-.32-.22-.36-.69-.27-1.44-.2-.27-1.3-.33-.43-.72-.34.18L103.8,80l-.32.5v.74l-.57.88-.16.88-.1,1.71.32.5-.65,1.75.21.88,2.2.87.07.2,0,.89-.34.65,0,.32-.62.87-.15,1-.41.78v.37l-.46.27-.54.13-.3-.26-.59.37-.35.65-.51.49-.66-.74-.66-.58-.57-.15-.94-.42L97,93l-.43,0-1.24,1.28-.29.54,0,.37.16.86-.09,1.38.08.64,0,1.3.34.91-.65.19-.58.45-.86.47-.73.86-2.59.41-.56-.08-.46-.23-.67.81-.25.47-1,2.7-.16.9,0,.41-1.29,2.91-.2.21-.08.5-.37.91.16.54L84.46,114l-.83,1.24-.46.15-.93.52-1.3.13-2.11-.64-.76-.18-.5.2-.9-.07-1.46,0-.47-.29-.43-.56-5.19-3.37L68,110.43l-.66-.64-1.1-.43H65l-.41-1.06.17-.17-.25-.77h1.32l.25-.61,0-1.34.23-1,.41-.62,1,.06.72,0,.26-.14.54.14.35.25.56,0,.73-.39.81-.33.12-.24.39,0,.34.21.45.06.31.24.35-.07v-.93l.25-.36.09-.83-.13-.57,1.05-.53.1-.41-.5-.32-.37-1.2-.47,0-.44-.37-.28.13-.19-1.13.45-.72.09-.4-.09-.54-.31-.37.08-.51.46-.59.3-.07.4.31.34-.2.26.3.71.28.15.33.55-.13.37.38-.06.41-.54.21-.31.54.19.36-.19.28-.61,0,0,.32,1,1.62.8.17.36-.54-.34-.08L76.35,98l.25-.16.58-1.11.3-.13,0-1.35.34-.32.66-.08,1,.35.47-.05.74.71.62,1,.54.16.57-.29-.2-.54.3-.67L82,93.69l-.76,0-.08-.31-.8-.23-.15-.2-.46,0-.35-.32-.51-.22,0-.29.54-.35-.18-1L79,90.09l-.45-.22-.28.25H77.8l-.27-.27-.46,0-.26-.25-.64.76-.12.29-.87.28-.39-.45.1-1,.19-.23,1.17-.69.1-.54.22-.15.23-.56.62-.26-.19-.58.09-.62.23-.57.34-.26.15-.39.27-.16.56-1.17-.31-.54,0-.35-.32-.51.37-.25.3.93.36.07,0-.49.24-.21L79,81.47l.12-.47-.37-.58-.65-.19-.42.16-.28,1-.6.32-.29-.33,0-.51-.32-.27-.63.1-.41-.1-.41.23-.28-.11-.29.23-.43-.14-.47.31L72.5,81l-.31.11-.28-.34-.39.21-.26-.43-.46,0-.3.48v.61l.32.22.78.26-.24.91.08.79-.46.08-.35-.45-.72.17.33.54-.23.66,0,1,.32.85-.27.53-.2.81-.35.26-.68.23L68.2,89l-.35.11L67.37,89l-.54.11-.07-.26-.55-.5-.27,0-.37.53-1-.67-1.22-.51-.56,0-.42-.26-.9-.29L61,86.85l-.68-.11-.22-.24.14-.45-.39-.67-1.08-.67.41-.78-.32-1-.69,0-.31.43.56.65-.28.36-.49.13-.55.36-.46,0-.25-.54-.63.09-.24.38-.3-.09-.13.48-.85.53-.08.37-.7,0-.28-.62-.59-.13-.46.15v-.73l.14-.45.36.21.06-.45.28-.22.44,0,.23-.47-.26-.67.24-.49-.47-.28h-.39l-.39-.2-.8,0-.5-.38V81l-.41-.26-1.12-.09-.37-.52-1.27.71-.25-.09.32-.8-.09-.73-.24-.59-.41-.15-.47.37h-.48l.08-2.25,2.14,0,.53-.26-.33-.5h-.23l-.62-.7.72-.34.19-1.09-.11-.6h.45L49,72.57l.18-.19.18-.64h.27l.34.31.75.31.34-.06.2-.56-.1-.76.25-.49.28-.13.2-.44.66-.83.23.49.49-.16.52,0,.44.17.56,0,.38.41.21.72.55.68.77-.14.67.41-.05.59.46.48.39.1L58.08,74l.3.11.82,0,.28.48.59.12.16.82-.18.46.41,0,.54.28.09-.64.41-.87,0-.31.32-.41.36.16.4-.38h.63l.38-.63-.14-.47-.24-.14-.59.35L62,72.27l-.51-.1-.22-.33-.07-.52L61,70.89l-.39-.19L61,70l-.24-.68.47-.64.54-.21.09-.25.71-.35.55-.61.51,0,.28-.33.41.19.54-.42,0-.29,1.29.12.21.2h.59l1,.46.48.07-.1.56.2.43.73.37.2.33.54-.28.34.23.61.13.17.28,1.07.88L73,70l.46-.4,1.18-.35,1.43-1,.4.1.27-.45.47.05.41-.74.21-.86,1.84-.15.78.18.11.6-.18.38.12.78-1.32.72.92.37,0,.62.27.82.58.44.48-.38.68,0,.55.44.76-.09.42-.28.41.31.15.51-.18.61-.34.08v.5h.44l.4.24-.54.47-.46.14-.06.52-.37-.12-.4.16.08.45.44.54.53-.1.17.61-.36.08-.4,1.19,0,.45.2.32v.42l.77,0v-.44l.29-.17.22.45.38.27.37-.39.07-.35.4.22.72-.21L87,77l0-1.31ZM80,75.62l-.67.15-.19.63.63.89.57.16.33-.29.26-.7-.22-.75ZM105,73.51l-.37.17-.53-.08-.31.5-.07.56.63.14.35-.09L105,75l.28-.21-.17-.4.15-.66Z" fill="#c6c6c6" stroke="#fff" stroke-linecap="round" stroke-linejoin="round" stroke-width="0.5"/><path d="M65,109.36l-.49-.09-2.72.06-.44-.07h-1.2l-.68-.54,0-.78-.17-.08-1.09-1.15,0-2,.32-.4-.18-.93.16-.46-2.12-.71h-.61l-.66.54-.36-.19-.24-.44.14-.5-1.34-.91v-.4l-.86-1.37-.08-.63.09-.36-.14-.52L52,97.06l-.45-1-.05-.47,1,.24.87-.15.19-.55.49-.11-.1-.57L54,93.1l-.14-.35-.72-.6-1.06.11.47-.7L52,90.87l-.25-.59.16-.84.48-.22.64.23.44.59.66,0,.21-.28.48.16.58,0L55,89.48l.28-.37.14-1.2-.59-.6H53.49l.36-.39,0-.59-.37-.22.7,0,.08-.37.85-.53.13-.48.3.09.24-.38.63-.09.25.54.46,0,.55-.36.49-.13L58.4,84l-.56-.65.31-.43.69,0,.32,1-.41.78,1.08.67.39.67-.14.45.22.24.68.11.49.42.9.29.42.26.56,0,1.22.51,1,.67.37-.53.27,0,.55.5.07.26.54-.11.48.11L68.2,89l.61-.52.68-.23.35-.26.2-.81.27-.53L70,85.84l0-1,.23-.66-.33-.54.72-.17.35.45.46-.08L71.37,83l.24-.91-.78-.26-.32-.22V81l.3-.48.46,0,.26.43.39-.21.28.34L72.5,81l.84.12.47-.31.43.14.29-.23.28.11.41-.23.41.1.63-.1.32.27,0,.51.29.33.6-.32.28-1,.42-.16.65.19.37.58-.12.47.47.48-.24.21,0,.49-.36-.07-.3-.93-.37.25.32.51,0,.35.31.54-.56,1.17-.27.16-.15.39-.34.26-.23.57-.09.62.19.58-.62.26-.23.56-.22.15-.1.54-1.17.69-.19.23-.1,1,.39.45.87-.28.12-.29.64-.76.26.25.46,0,.27.27h.48l.28-.25.45.22.31.68.18,1-.54.35,0,.29.51.22.35.32.46,0,.15.2.8.23.08.31.76,0,.45,1.84-.3.67.2.54-.57.29-.54-.16-.62-1-.74-.71-.47.05-1-.35-.66.08-.34.32,0,1.35-.3.13-.58,1.11-.25.16.35.37.34.08-.36.54-.8-.17-1-1.62,0-.32.61,0,.19-.28-.19-.36.31-.54.54-.21.06-.41-.37-.38-.55.13-.15-.33-.71-.28-.26-.3-.34.2-.4-.31-.3.07-.46.59-.08.51.31.37.09.54-.09.4-.45.72.19,1.13.28-.13.44.37.47,0,.37,1.2.5.32-.1.41-1.05.53.13.57-.09.83-.25.36v.93l-.35.07-.31-.24-.45-.06-.34-.21-.39,0-.12.24-.81.33-.73.39-.56,0-.35-.25-.54-.14-.26.14-.72,0-1-.06-.41.62-.23,1,0,1.34-.25.61H64.53l.25.77-.17.17Z" fill="#c6c6c6" stroke="#fff" stroke-linecap="round" stroke-linejoin="round" stroke-width="0.5"/><path d="M82.24,115.9l.93-.52.46-.15.83-1.24.73-1.24-.16-.54.37-.91.08-.5.2-.21L87,107.68l0-.41.16-.9,1-2.7.25-.47.67-.81.46.23.56.08,2.59-.41.73-.86.86-.47.58-.45.65-.19-.34-.91,0-1.3-.08-.64.09-1.38L95,95.23l0-.37.29-.54L96.57,93,97,93l.71.49.94.42.57.15.66.58.66.74.51-.49.35-.65.59-.37.3.26.54-.13.46-.27v-.37l.41-.78.15-1,.62-.87,0-.32.34-.65,0-.89-.07-.2-2.2-.87-.21-.88.65-1.75-.32-.5.1-1.71.16-.88.57-.88v-.74l.32-.5,1.06-.85.34-.18.43.72,1.3.33.2.27.27,1.44.36.69.32.22.3-.36.24-.83.24-.5.84-.26.2-.89-.1-.59-.43-.44,0-.68.15-.34-1.17-1.27-.43-.67-.32-.24.25-.38-.28-.25-.32-.68-.1-.62.75-.54.53-.2.53-.35.19-.36.48-.09.21.16.43-.21.07-.26-.31-.38-.27.22-1.21-.51-.27-.35-.34,0-1.07.4h-1.15l-.65-.47-.47.08-1.12,1.12-.9-.44-.24,0-.9.6-.11.93-.58-.07-.08-.24-.74.11-.36.3-1.32-.33-.5,0-.68.53-.65.25-.3.24-.64.25-.82.09-.11-.62.44.08.5-.15-.27-.31-.35-.11-1.08.14,0-.64.36-.86.72-1,1.08-1-.44-.77.28-.88.22-1.17.59-2-.07-.59.83-.83.29-.49.27-.68.89-.06,1.38,0,1.14-.05.52-.11.77.22.74.06.76-.39,1.69-.14,1-.33,1-.24.78.14.16.4.3.25.58,0,.19.2-1.11,1.26-.72,1.07.42.84.46.45.14.76.33,1,.29.34.65.39.23.27.28.82.43.43.5,0,.32.29.26,1.29.17.36.33.11.42.45.29.52.1.49,1,.59.32-.13,2.77,2.52,4.64,1.53,2.55.84,4.54,1.52,3.11,1.06,3.57,1.2,3.33,1.13,4.31,0,2.75,0-3.12,3-4.09,3.88-3.11,3.17-4.14,4.22-2,2.16-2.48,2.71L124.66,106l-3.17-.2-3.84-.24-.92.36-1.22.16-1.42.5-1.22.53-1.19.6-1.25,1-.2.32-.17.67-.42.51-1,.33-.86.09L106,111l-1.27-.05-.88.24-.83.63-.15.48-.34.38-.37.16-.83-.38-1.38.18-.48.19-2.09.06-.33-.12-.52-.53-.39-.56-1.63-1.3-.81.43-2,.76-.07.18-1.5.55-1.32.68-1,.43-.61,1.38-1.36,1.29-.25.68-.44-.31-1.48-.18-.71,0Z" fill="#c6c6c6" stroke="#fff" stroke-linecap="round" stroke-linejoin="round" stroke-width="0.5"/><path d="M88.7,37l0,.36-.3.16-.7,0-.38-.14-.31.79-.46.26-.09.56.62.18.51-.11,0,.76L88,40l-.39.68v.7l.29.52-.07,1.46L87,43.2l-.18.69.17.62-.17.69.48.23.34,1.26.22.5,0,.36.32.35.53.94-.57.21-.43.36-.24.84.41.47.13.34-.48.56,0,.61-.4.15-.94,0-.2.27-.45,0-.14-.44h-.49l-.26.2h-.93L83.35,52l-.07-.87-.45-1.24.77-.32-.09-.6.07-.4L83.44,48l-.69-.25-.58-.07-.6-.32-.15-.7.46-.41-.66-.59-.64.2-1-.43.09-.51-.26-.36-.6-.16-.24-.68-.57.24-.1-.25.41-.31-.64-.13-.43.2-.33-.09-.3.36-1.26.23-.22-.17-.4.2-.37-.25-.76.39-.27-.2L73,44l0-.41-.29-.31h-.31l-.24.66-.41.42-.86.35-1.11,0-.31.45-1,.11-1.06-.5-1-.27-.49-.41-.55.51h-1.1L64,44.25l.07-.41L63.33,42l-.2-.2.24-.56-.29-.85.77-2.33.6-.21.36.09.44-.16h.85l.76.22.29.27.58-.13.08-.47.25-.53.56-.22.7,0,.21.23.48-.43.62,0,.43.2.88-.42.39-.87.43-.21v-.59l.37-.51.31,0L73.9,34l.22.11.34.68,1,.44.27-.1.53.16,0,.38.71.92.43.17.19.39L78.79,37l.63-.23.66,0,.39-.24.41,0,.51-.29.35-.66h.54l.74.16.19.31,0,.83.21.45.37-.14.09-.49.37-.4.93.18L85,35.72l.18-.53.53.05.38.44.59.42.41.07.19.3.58.27.37.34Zm-3.46,6.33-.41.07-.12.43.44.26Z" fill="#c6c6c6" stroke="#fff" stroke-linecap="round" stroke-linejoin="round" stroke-width="0.5"/><path d="M128.55,81.73a3.61,3.61,0,0,0-1.27,7l.37,1.11.9,2.75.91-2.75.36-1.11a3.61,3.61,0,0,0-1.27-7Z" fill="#0072bc"/><circle cx="128.49" cy="85.34" r="1.09" fill="#fff"/><path d="M75.62,88.52a3.61,3.61,0,0,0-1.27,7l.36,1.11.91,2.75.9-2.75.37-1.11a3.61,3.61,0,0,0-1.27-7Z" fill="#0072bc"/><circle cx="75.56" cy="92.14" r="1.09" fill="#fff"/><path d="M48,75.76a3.61,3.61,0,0,0-1.27,7l.37,1.1.9,2.76.91-2.76.36-1.1a3.61,3.61,0,0,0-1.27-7Z" fill="#0072bc"/><circle cx="47.9" cy="79.38" r="1.09" fill="#fff"/><path d="M64.81,66.52a3.61,3.61,0,0,0-1.27,7l.36,1.1.91,2.76.9-2.76.37-1.1a3.61,3.61,0,0,0-1.27-7Z" fill="#0072bc"/><circle cx="64.75" cy="70.14" r="1.09" fill="#fff"/><path d="M70,43.55a3.61,3.61,0,0,0-1.26,7l.36,1.11.9,2.75.91-2.75.36-1.11a3.61,3.61,0,0,0-1.27-7Z" fill="#0072bc"/><circle cx="69.91" cy="47.17" r="1.09" fill="#fff"/><path d="M98.8,101.76a3.61,3.61,0,0,0-1.27,7l.36,1.1.91,2.76.9-2.76.37-1.1a3.61,3.61,0,0,0-1.27-7Z" fill="#0072bc"/><circle cx="98.74" cy="105.38" r="1.09" fill="#fff"/><path d="M112.83,70.19a3.61,3.61,0,0,0-1.27,7l.36,1.1.91,2.76.9-2.76.36-1.1a3.61,3.61,0,0,0-1.26-7Z" fill="#0072bc"/><circle cx="112.77" cy="73.81" r="1.09" fill="#fff"/><path d="M103.56,62.65a3.61,3.61,0,0,0-1.26,7l.36,1.11.9,2.75.91-2.75.36-1.11a3.61,3.61,0,0,0-1.27-7Z" fill="#0072bc"/><circle cx="103.5" cy="66.27" r="1.09" fill="#fff"/><path d="M246,75.62l.71.09.22.75-.26.7-.33.29-.57-.16-.63-.89.19-.63Z" fill="#c6c6c6" stroke="#fff" stroke-linecap="round" stroke-linejoin="round" stroke-width="0.5"/><path d="M267.93,61.93l-.52.11-1.14.05-1.38,0-.89.06-.27.68-.29.49-.83.83.07.59-.59,2-.22,1.17-.28.88.44.77-1.08,1-.72,1-.36.86,0,.64-.24.29-.95.14-.42.22-.45.53-.59.92-.59.58-.06.56-.49.23-.54.75-.61,0,.29-.76-.12-.24-.6-.26-.24-.28-.07-.46-.66,0,0-.25.43-.41-.09-.58-.52,0-.25-.36.49-.46.45-1.39-.32-.82.26-.21.53.15.31-.18.14-.45.3-.17.27-.67L255,69.1h-.61l-.14-.7.48.1,1,0,.19-.14-.21-.6.19-.61,0-1.29-.38-2.09v-.29l.42-.29,0-.5-.33-.46.46-.64.18-.6-.29-1-.51-.56-.22-.06-.12-1.18-.45-.69.16-.45-.66-.4-.35-.57V54.76l-.26-.58-.3-1,.2-.33-.07-.6,0-.61.48-.56-.13-.34-.41-.47.24-.84.43-.36.57-.21-.53-.94-.32-.35,0-.36-.22-.5-.34-1.26-.48-.23.17-.69-.17-.62.18-.69.87.16.07-1.46-.29-.52v-.7L254,40l-.31-.27,0-.76-.51.11-.62-.18.09-.56.46-.26.31-.79.38.14.7,0,.3-.16L254.7,37l.51-.4.62-.08.59.14,1.61.84,1.49,1,1.35,1L262.61,41l1.26,1.2.46.6,1.57,1.42.58.62,1.94,1.87.68.77.56,1,1.39,1.65.27.42.51.28.36.35-.44.53-.22.64-.38.33-.93,1.25-.5.83-.8,1.15-.86.55-.5,1.69.24.92.13.89-.08,1.64Z" fill="#c6c6c6" stroke="#fff" stroke-linecap="round" stroke-linejoin="round" stroke-width="0.5"/><path d="M253.49,52.23l.07.6-.2.33.3,1,.26.58v1.41l.35.57.66.4-.16.45.45.69.12,1.18.22.06.51.56.29,1-.18.6-.46.64.33.46,0,.5-.42.29v.29L256,65.9l0,1.29-.19.61.21.6-.19.14-1,0-.48-.1.14.7H255l.42.43-.27.67-.3.17-.14.45-.31.18-.53-.15-.26.21.32.82-.45,1.39-.49.46.25.36.52,0,.09.58-.43.41,0,.25-.54.33L253,77l-.23.68-.72.21-.4-.22-.07.35-.37.39-.38-.27-.22-.45-.29.17v.44l-.77,0v-.42l-.2-.32,0-.45.4-1.19.36-.08-.17-.61-.53.1-.44-.54-.08-.45.4-.16.37.12.06-.52.46-.14.54-.47-.4-.24h-.44v-.5l.34-.08.18-.61-.15-.51-.41-.31-.42.28-.76.09-.55-.44-.68,0-.48.38-.58-.44-.27-.82,0-.62-.92-.37,1.32-.72-.12-.78.18-.38-.11-.6-.78-.18-1.84.15-.21.86-.41.74-.47-.05-.27.45-.4-.1-1.43,1-1.18.35L239,70l-.84.22-1.07-.88-.17-.28-.61-.13-.34-.23-.54.28-.2-.33-.73-.37-.2-.43.1-.56-.48-.07-1-.46h-.59l-.21-.2-1.29-.12,0,.29-.7-.38-.36,0-.14-.29,0-.56-.85.2-.66-.53-.26-.55.3-.42,0-.3.4-.4-.66-.33.6-1,1.33-1.39-.59-.13V59.9l.69-.39v-.29l-.48-.62-.64.22.25-.57L228.25,57l0-.94-.88.54-.31.31-.29-.29-.14-.7-.79-.81-.43,0-1,.6-1,.08-.16.33-.49.1-.43.35-.69-.08-.42-.17-.48-.39-.27-.87.89-1.73,1.91-3.08.28-.08.11-.46,1.91-.36.78-.06.51.07.12-1.21-.17-.32.24-.47-.08-.31.66-2.42,1.07-1.45.09-.65.32-.76.2.2.71,1.83-.07.41.29.36h1.1l.55-.51.49.41,1,.27,1.06.5,1-.11.31-.45,1.11,0,.86-.35.41-.42.24-.66h.31l.29.31L239,44l.36-.09.27.2.76-.39.37.25.4-.2.22.17,1.26-.23.3-.36.33.09.43-.2.64.13-.41.31.1.25.57-.24.24.68.6.16.26.36-.09.51,1,.43.64-.2.66.59-.46.41.15.7.6.32.58.07.69.25.14.64-.07.4.09.6-.77.32.45,1.24.07.87.33.41h.93l.26-.2h.49l.14.44.45,0,.2-.27.94,0Z" fill="#c6c6c6" stroke="#fff" stroke-linecap="round" stroke-linejoin="round" stroke-width="0.5"/><path d="M230.81,66.76l-.54.42-.41-.19-.28.33-.51,0-.55.61-.71.35-.09.25-.54.21-.47.64L227,70l-.34.68.39.19.23.43.07.52.22.33.51.1.57.55.59-.35.24.14.14.47-.38.63h-.63l-.4.38-.36-.16-.32.41,0,.31-.41.87-.09.64-.54-.28-.41,0,.18-.46-.16-.82-.59-.12L225.2,74l-.82,0-.3-.11.06-1.08-.39-.1-.46-.48.05-.59-.67-.41-.77.14-.55-.68-.21-.72-.38-.41-.56,0-.44-.17-.52,0-.49.16-.23-.49-.66.83-.2.44-.28.13-.25.49.1.76-.2.56-.34.06-.75-.31-.34-.31h-.27l-.18.64-.18.19.11.48h-.45l.11.6-.19,1.09-.72.34.62.7h.23l.33.5-.53.26-2.14,0L212,72.29l.4-1.48.48-1.07.17-.88.67-.65.18-.88L213.43,65l.49-.56.63-1.1,1.12-.75.57.38.92.81.43-.07.83-1,0-.37-.33-.3.52-1.58-.27-.73.87-1.89,0-.45-.18-.35-.06-.6.42-.88.83-.34.21-.21.27.87.48.39.42.17.69.08.43-.35.49-.1.16-.33,1-.08,1-.6.43,0,.79.81.14.7.29.29.31-.31.88-.54,0,.94.81,1.26-.25.57.64-.22.48.62v.29l-.69.39v.79l.59.13-1.33,1.39-.6,1,.66.33-.4.4,0,.3-.3.42.26.55.66.53.85-.2,0,.56.14.29.36,0Z" fill="#c6c6c6" stroke="#fff" stroke-linecap="round" stroke-linejoin="round" stroke-width="0.5"/><path d="M267.37,72.88l.11-.93.9-.6.24,0,.9.44,1.12-1.12.47-.08.65.47-.59.49h-.42l-.55.28.2.42-.62.59-.61-.24-.5.26-1-.14Z" fill="#c6c6c6" stroke="#fff" stroke-linecap="round" stroke-linejoin="round" stroke-width="0.5"/><path d="M219.44,86.11l.37.22,0,.59-.36.39h1.36l.59.6-.14,1.2-.28.37.34.41-.58,0-.48-.16-.21.28-.66,0-.44-.59-.64-.23-.48.22-.16.84.25.59.63.69-.47.7,1.06-.11.72.6.14.35L220,94.48l.1.57-.49.11-.19.55-.87.15-1-.24,0-.25-.68-1.79-.37-.47-.53-.37-.75-.13-.41-1.21-.8-.32-.45,0-.46-.4-.52-1.1-1-.56V88l-1-1.06-1.25-1-1.8-.62-2.66-.27-.32-.07-.27-.4-.17-.58.29-.51.65-.75.47-.29L205.29,81l.07-.32.67-.44.85.17.92-.21h.91l.59.66.41.06.58-.42.86-.09,1-.87.13-.68h.48l.47-.37.41.15.24.59.09.73-.32.8.25.09,1.27-.71.37.52,1.12.09.41.26v.37l.5.38.8,0,.39.2h.39l.47.28-.24.49.26.67-.23.47-.44,0-.28.22-.06.45-.36-.21-.14.45v.73l.46-.15.59.13Z" fill="#c6c6c6" stroke="#fff" stroke-linecap="round" stroke-linejoin="round" stroke-width="0.5"/><path d="M271,73.51l.23.17-.15.66.17.4L271,75l-.27-.24-.35.09-.63-.14.07-.56.31-.5.53.08Z" fill="#c6c6c6" stroke="#fff" stroke-linecap="round" stroke-linejoin="round" stroke-width="0.5"/><path d="M253.49,75.31l.66,0,.07.46.24.28.6.26.12.24-.29.76.61,0,.54-.75.49-.23.06-.56.59-.58.59-.92.45-.53.42-.22.95-.14.24-.29,1.08-.14.35.11.27.31-.5.15-.44-.08.11.62.82-.09.64-.25.3-.24.65-.25.68-.53.5,0,1.32.33.36-.3.74-.11.08.24.58.07.28-.14,1,.14.5-.26.61.24.62-.59-.2-.42.55-.28h.42l.59-.49h1.15l1.07-.4.34,0,.27.35,1.21.51.27-.22.31.38-.07.26-.43.21-.21-.16-.48.09-.19.36-.53.35-.53.2-.75.54.1.62.32.68.28.25-.25.38.32.24.43.67,1.17,1.27-.15.34,0,.68.43.44.1.59-.2.89-.84.26-.24.5-.24.83-.3.36-.32-.22-.36-.69-.27-1.44-.2-.27-1.3-.33-.43-.72-.34.18L269.8,80l-.32.5v.74l-.57.88-.16.88-.1,1.71.32.5-.65,1.75.21.88,2.2.87.07.2,0,.89-.34.65,0,.32-.62.87-.15,1-.41.78v.37l-.46.27-.54.13-.3-.26-.59.37-.35.65-.51.49-.66-.74-.66-.58-.57-.15-.94-.42L263,93l-.43,0-1.24,1.28-.29.54,0,.37.16.86-.09,1.38.08.64,0,1.3.34.91-.65.19-.58.45-.86.47-.73.86-2.59.41-.56-.08-.46-.23-.67.81-.25.47-1,2.7-.16.9,0,.41-1.29,2.91-.2.21-.08.5-.37.91.16.54-.73,1.24-.83,1.24-.46.15-.93.52-1.3.13-2.11-.64-.76-.18-.5.2-.9-.07-1.46,0-.47-.29-.43-.56-5.19-3.37-1.09-.67-.66-.64-1.1-.43H231l-.41-1.06.17-.17-.25-.77h1.32l.25-.61,0-1.34.23-1,.41-.62,1,.06.72,0,.26-.14.54.14.35.25.56,0,.73-.39.81-.33.12-.24.39,0,.34.21.45.06.31.24.35-.07v-.93l.25-.36.09-.83-.13-.57,1.05-.53.1-.41-.5-.32-.37-1.2-.47,0-.44-.37-.28.13-.19-1.13.45-.72.09-.4-.09-.54-.31-.37.08-.51.46-.59.3-.07.4.31.34-.2.26.3.71.28.15.33.55-.13.37.38-.06.41-.54.21-.31.54.19.36-.19.28-.61,0-.05.32,1,1.62.8.17.36-.54-.34-.08-.35-.37.25-.16.58-1.11.3-.13,0-1.35.34-.32.66-.08,1,.35.47-.05.74.71.62,1,.54.16.57-.29-.2-.54.3-.67L248,93.69l-.76,0-.08-.31-.8-.23-.15-.2-.46,0-.35-.32-.51-.22,0-.29.54-.35-.18-1-.31-.68-.45-.22-.28.25h-.48l-.27-.27-.46,0-.26-.25-.64.76-.12.29-.87.28-.39-.45.1-1,.19-.23,1.17-.69.1-.54.22-.15.23-.56.62-.26-.19-.58.09-.62.23-.57.34-.26.15-.39.27-.16.56-1.17-.31-.54,0-.35-.32-.51.37-.25.3.93.36.07,0-.49.24-.21-.47-.48.12-.47-.37-.58-.65-.19-.42.16-.28,1-.6.32-.29-.33,0-.51-.32-.27-.63.1-.41-.1-.41.23-.28-.11-.29.23-.43-.14-.47.31L238.5,81l-.31.11-.28-.34-.39.21-.26-.43-.46,0-.3.48v.61l.32.22.78.26-.24.91.08.79-.46.08-.35-.45-.72.17.33.54-.23.66,0,1,.32.85-.27.53-.2.81-.35.26-.68.23-.61.52-.35.11-.48-.11-.54.11-.07-.26-.55-.5-.27,0-.37.53-1-.67-1.22-.51-.56,0-.42-.26-.9-.29-.49-.42-.68-.11-.22-.24.14-.45-.39-.67-1.08-.67.41-.78-.32-1-.69,0-.31.43.56.65-.28.36-.49.13-.55.36-.46,0-.25-.54-.63.09-.24.38-.3-.09-.13.48-.85.53-.08.37-.7,0-.28-.62-.59-.13-.46.15v-.73l.14-.45.36.21.06-.45.28-.22.44,0,.23-.47-.26-.67.24-.49-.47-.28h-.39l-.39-.2-.8,0-.5-.38V81l-.41-.26-1.12-.09-.37-.52-1.27.71-.25-.09.32-.8-.09-.73-.24-.59-.41-.15-.47.37h-.48l.08-2.25,2.14,0,.53-.26-.33-.5h-.23l-.62-.7.72-.34.19-1.09-.11-.6h.45l-.11-.48.18-.19.18-.64h.27l.34.31.75.31.34-.06.2-.56-.1-.76.25-.49.28-.13.2-.44.66-.83.23.49.49-.16.52,0,.44.17.56,0,.38.41.21.72.55.68.77-.14.67.41-.05.59.46.48.39.1L224.08,74l.3.11.82,0,.28.48.59.12.16.82-.18.46.41,0,.54.28.09-.64.41-.87,0-.31.32-.41.36.16.4-.38h.63l.38-.63-.14-.47-.24-.14-.59.35-.57-.55-.51-.1-.22-.33-.07-.52-.23-.43-.39-.19L227,70l-.24-.68.47-.64.54-.21.09-.25.71-.35.55-.61.51,0,.28-.33.41.19.54-.42,0-.29,1.29.12.21.2h.59l1,.46.48.07-.1.56.2.43.73.37.2.33.54-.28.34.23.61.13.17.28,1.07.88L239,70l.46-.4,1.18-.35,1.43-1,.4.1.27-.45.47.05.41-.74.21-.86,1.84-.15.78.18.11.6-.18.38.12.78-1.32.72.92.37,0,.62.27.82.58.44.48-.38.68,0,.55.44.76-.09.42-.28.41.31.15.51-.18.61-.34.08v.5h.44l.4.24-.54.47-.46.14-.06.52-.37-.12-.4.16.08.45.44.54.53-.1.17.61-.36.08-.4,1.19,0,.45.2.32v.42l.77,0v-.44l.29-.17.22.45.38.27.37-.39.07-.35.4.22.72-.21L253,77l0-1.31Zm-7.53.31-.67.15-.19.63.63.89.57.16.33-.29.26-.7-.22-.75ZM271,73.51l-.37.17-.53-.08-.31.5-.07.56.63.14.35-.09L271,75l.28-.21-.17-.4.15-.66Z" fill="#c6c6c6" stroke="#fff" stroke-linecap="round" stroke-linejoin="round" stroke-width="0.5"/><path d="M231,109.36l-.49-.09-2.72.06-.44-.07h-1.2l-.68-.54,0-.78-.17-.08-1.09-1.15,0-2,.32-.4-.18-.93.16-.46-2.12-.71h-.61l-.66.54-.36-.19-.24-.44.14-.5-1.34-.91v-.4l-.86-1.37-.08-.63.09-.36-.14-.52-.34-.34-.45-1-.05-.47,1,.24.87-.15.19-.55.49-.11-.1-.57L220,93.1l-.14-.35-.72-.6-1.06.11.47-.7-.63-.69-.25-.59.16-.84.48-.22.64.23.44.59.66,0,.21-.28.48.16.58,0-.34-.41.28-.37.14-1.2-.59-.6h-1.36l.36-.39,0-.59-.37-.22.7,0,.08-.37.85-.53.13-.48.3.09.24-.38.63-.09.25.54.46,0,.55-.36.49-.13.28-.36-.56-.65.31-.43.69,0,.32,1-.41.78,1.08.67.39.67-.14.45.22.24.68.11.49.42.9.29.42.26.56,0,1.22.51,1,.67.37-.53.27,0,.55.5.07.26.54-.11.48.11.35-.11.61-.52.68-.23.35-.26.2-.81.27-.53-.32-.85,0-1,.23-.66-.33-.54.72-.17.35.45.46-.08-.08-.79.24-.91-.78-.26-.32-.22V81l.3-.48.46,0,.26.43.39-.21.28.34.31-.11.84.12.47-.31.43.14.29-.23.28.11.41-.23.41.1.63-.1.32.27,0,.51.29.33.6-.32.28-1,.42-.16.65.19.37.58-.12.47.47.48-.24.21,0,.49-.36-.07-.3-.93-.37.25.32.51,0,.35.31.54-.56,1.17-.27.16-.15.39-.34.26-.23.57-.09.62.19.58-.62.26-.23.56-.22.15-.1.54-1.17.69-.19.23-.1,1,.39.45.87-.28.12-.29.64-.76.26.25.46,0,.27.27h.48l.28-.25.45.22.31.68.18,1-.54.35,0,.29.51.22.35.32.46,0,.15.2.8.23.08.31.76,0,.45,1.84-.3.67.2.54-.57.29-.54-.16-.62-1-.74-.71-.47.05-1-.35-.66.08-.34.32,0,1.35-.3.13-.58,1.11-.25.16.35.37.34.08-.36.54-.8-.17-1-1.62.05-.32.61,0,.19-.28-.19-.36.31-.54.54-.21.06-.41-.37-.38-.55.13-.15-.33-.71-.28-.26-.3-.34.2-.4-.31-.3.07-.46.59-.08.51.31.37.09.54-.09.4-.45.72.19,1.13.28-.13.44.37.47,0,.37,1.2.5.32-.1.41-1.05.53.13.57-.09.83-.25.36v.93l-.35.07-.31-.24-.45-.06-.34-.21-.39,0-.12.24-.81.33-.73.39-.56,0-.35-.25-.54-.14-.26.14-.72,0-1-.06-.41.62-.23,1,0,1.34-.25.61h-1.32l.25.77-.17.17Z" fill="#c6c6c6" stroke="#fff" stroke-linecap="round" stroke-linejoin="round" stroke-width="0.5"/><path d="M248.24,115.9l.93-.52.46-.15.83-1.24.73-1.24-.16-.54.37-.91.08-.5.2-.21,1.29-2.91,0-.41.16-.9,1-2.7.25-.47.67-.81.46.23.56.08,2.59-.41.73-.86.86-.47.58-.45.65-.19-.34-.91,0-1.3-.08-.64.09-1.38-.16-.86,0-.37.29-.54L262.57,93l.43,0,.71.49.94.42.57.15.66.58.66.74.51-.49.35-.65.59-.37.3.26.54-.13.46-.27v-.37l.41-.78.15-1,.62-.87,0-.32.34-.65,0-.89-.07-.2-2.2-.87-.21-.88.65-1.75-.32-.5.1-1.71.16-.88.57-.88v-.74l.32-.5,1.06-.85.34-.18.43.72,1.3.33.2.27.27,1.44.36.69.32.22.3-.36.24-.83.24-.5.84-.26.2-.89-.1-.59-.43-.44,0-.68.15-.34-1.17-1.27-.43-.67-.32-.24.25-.38-.28-.25-.32-.68-.1-.62.75-.54.53-.2.53-.35.19-.36.48-.09.21.16.43-.21.07-.26-.31-.38-.27.22-1.21-.51-.27-.35-.34,0-1.07.4h-1.15l-.65-.47-.47.08-1.12,1.12-.9-.44-.24,0-.9.6-.11.93-.58-.07-.08-.24-.74.11-.36.3-1.32-.33-.5,0-.68.53-.65.25-.3.24-.64.25-.82.09-.11-.62.44.08.5-.15-.27-.31-.35-.11-1.08.14,0-.64.36-.86.72-1,1.08-1-.44-.77.28-.88.22-1.17.59-2-.07-.59.83-.83.29-.49.27-.68.89-.06,1.38,0,1.14-.05.52-.11.77.22.74.06.76-.39,1.69-.14,1-.33,1-.24.78.14.16.4.3.25.58,0,.19.2-1.11,1.26-.72,1.07.42.84.46.45.14.76.33,1,.29.34.65.39.23.27.28.82.43.43.5,0,.32.29.26,1.29.17.36.33.11.42.45.29.52.1.49,1,.59.32-.13,2.77,2.52,4.64,1.53,2.55.84,4.54,1.52,3.11,1.06,3.57,1.2,3.33,1.13,4.31,0,2.75,0-3.12,3-4.09,3.88-3.11,3.17-4.14,4.22-2,2.16-2.48,2.71L290.66,106l-3.17-.2-3.84-.24-.92.36-1.22.16-1.42.5-1.22.53-1.19.6-1.25,1-.2.32-.17.67-.42.51-1,.33-.86.09L272,111l-1.27-.05-.88.24-.83.63-.15.48-.34.38-.37.16-.83-.38-1.38.18-.48.19-2.09.06-.33-.12-.52-.53-.39-.56-1.63-1.3-.81.43-2,.76-.07.18-1.5.55-1.32.68-1,.43-.61,1.38-1.36,1.29-.25.68-.44-.31-1.48-.18-.71,0Z" fill="#c6c6c6" stroke="#fff" stroke-linecap="round" stroke-linejoin="round" stroke-width="0.5"/><path d="M254.7,37l.05.36-.3.16-.7,0-.38-.14-.31.79-.46.26-.09.56.62.18.51-.11,0,.76L254,40l-.39.68v.7l.29.52-.07,1.46L253,43.2l-.18.69.17.62-.17.69.48.23.34,1.26.22.5,0,.36.32.35.53.94-.57.21-.43.36-.24.84.41.47.13.34-.48.56,0,.61-.4.15-.94,0-.2.27-.45,0-.14-.44h-.49l-.26.2h-.93l-.33-.41-.07-.87-.45-1.24.77-.32-.09-.6.07-.4-.14-.64-.69-.25-.58-.07-.6-.32-.15-.7.46-.41-.66-.59-.64.2-1-.43.09-.51-.26-.36-.6-.16-.24-.68-.57.24-.1-.25.41-.31-.64-.13-.43.2-.33-.09-.3.36-1.26.23-.22-.17-.4.2-.37-.25-.76.39-.27-.2L239,44l-.05-.41-.29-.31h-.31l-.24.66-.41.42-.86.35-1.11,0-.31.45-1,.11-1.06-.5-1-.27-.49-.41-.55.51h-1.1l-.29-.36.07-.41L229.33,42l-.2-.2.24-.56-.29-.85.77-2.33.6-.21.36.09.44-.16h.85l.76.22.29.27.58-.13.08-.47.25-.53.56-.22.7,0,.21.23.48-.43.62,0,.43.2.88-.42.39-.87.43-.21v-.59l.37-.51.31,0,.47-.33.22.11.34.68,1,.44.27-.1.53.16,0,.38.71.92.43.17.19.39,1.22-.17.63-.23.66,0,.39-.24.41,0,.51-.29.35-.66h.54l.74.16.19.31,0,.83.21.45.37-.14.09-.49.37-.4.93.18-.11-.68.18-.53.53.05.38.44.59.42.41.07.19.3.58.27.37.34Zm-3.46,6.33-.41.07-.12.43.44.26Z" fill="#c6c6c6" stroke="#fff" stroke-linecap="round" stroke-linejoin="round" stroke-width="0.5"/><path d="M294.55,81.73a3.61,3.61,0,0,0-1.27,7l.37,1.11.9,2.75.91-2.75.36-1.11a3.61,3.61,0,0,0-1.27-7Z" fill="#0072bc"/><circle cx="294.49" cy="85.34" r="1.09" fill="#fff"/><path d="M281.55,81.73a3.61,3.61,0,0,0-1.27,7l.37,1.11.9,2.75.91-2.75.36-1.11a3.61,3.61,0,0,0-1.27-7Z" fill="#0072bc"/><circle cx="281.49" cy="85.34" r="1.09" fill="#fff"/><path d="M241.62,88.52a3.61,3.61,0,0,0-1.27,7l.36,1.11.91,2.75.9-2.75.37-1.11a3.61,3.61,0,0,0-1.27-7Z" fill="#0072bc"/><circle cx="241.56" cy="92.14" r="1.09" fill="#fff"/><path d="M214,75.76a3.61,3.61,0,0,0-1.27,7l.37,1.1.9,2.76.91-2.76.36-1.1a3.61,3.61,0,0,0-1.27-7Z" fill="#0072bc"/><circle cx="213.9" cy="79.38" r="1.09" fill="#fff"/><path d="M230.81,66.52a3.61,3.61,0,0,0-1.27,7l.36,1.1.91,2.76.9-2.76.37-1.1a3.61,3.61,0,0,0-1.27-7Z" fill="#0072bc"/><circle cx="230.75" cy="70.14" r="1.09" fill="#fff"/><path d="M236,43.55a3.61,3.61,0,0,0-1.26,7l.36,1.11.9,2.75.91-2.75.36-1.11a3.61,3.61,0,0,0-1.27-7Z" fill="#0072bc"/><circle cx="235.91" cy="47.17" r="1.09" fill="#fff"/><path d="M264.8,101.76a3.61,3.61,0,0,0-1.27,7l.36,1.1.91,2.76.9-2.76.37-1.1a3.61,3.61,0,0,0-1.27-7Z" fill="#0072bc"/><circle cx="264.74" cy="105.38" r="1.09" fill="#fff"/><path d="M278.83,70.19a3.61,3.61,0,0,0-1.27,7l.36,1.1.91,2.76.9-2.76.36-1.1a3.61,3.61,0,0,0-1.26-7Z" fill="#0072bc"/><circle cx="278.77" cy="73.81" r="1.09" fill="#fff"/><path d="M273.83,73.19a3.61,3.61,0,0,0-1.27,7l.36,1.1.91,2.76.9-2.76.36-1.1a3.61,3.61,0,0,0-1.26-7Z" fill="#0072bc"/><circle cx="273.77" cy="76.81" r="1.09" fill="#fff"/><path d="M265.83,66.19a3.61,3.61,0,0,0-1.27,7l.36,1.1.91,2.76.9-2.76.36-1.1a3.61,3.61,0,0,0-1.26-7Z" fill="#0072bc"/><circle cx="265.77" cy="69.81" r="1.09" fill="#fff"/><path d="M268.83,68.19a3.61,3.61,0,0,0-1.27,7l.36,1.1.91,2.76.9-2.76.36-1.1a3.61,3.61,0,0,0-1.26-7Z" fill="#0072bc"/><circle cx="268.77" cy="71.81" r="1.09" fill="#fff"/><path d="M259.83,57.19a3.61,3.61,0,0,0-1.27,7l.36,1.1.91,2.76.9-2.76.36-1.1a3.61,3.61,0,0,0-1.26-7Z" fill="#0072bc"/><circle cx="259.77" cy="60.81" r="1.09" fill="#fff"/><path d="M260.83,43.19a3.61,3.61,0,0,0-1.27,7l.36,1.1.91,2.76.9-2.76.36-1.1a3.61,3.61,0,0,0-1.26-7Z" fill="#0072bc"/><circle cx="260.77" cy="46.81" r="1.09" fill="#fff"/><path d="M256.83,56.19a3.61,3.61,0,0,0-1.27,7l.36,1.1.91,2.76.9-2.76.36-1.1a3.61,3.61,0,0,0-1.26-7Z" fill="#0072bc"/><circle cx="256.77" cy="59.81" r="1.09" fill="#fff"/><path d="M239.83,45.19a3.61,3.61,0,0,0-1.27,7l.36,1.1.91,2.76.9-2.76.36-1.1a3.61,3.61,0,0,0-1.26-7Z" fill="#0072bc"/><circle cx="239.77" cy="48.81" r="1.09" fill="#fff"/><path d="M234.83,47.19a3.61,3.61,0,0,0-1.27,7l.36,1.1.91,2.76.9-2.76.36-1.1a3.61,3.61,0,0,0-1.26-7Z" fill="#0072bc"/><circle cx="234.77" cy="50.81" r="1.09" fill="#fff"/><path d="M233.83,70.19a3.61,3.61,0,0,0-1.27,7l.36,1.1.91,2.76.9-2.76.36-1.1a3.61,3.61,0,0,0-1.26-7Z" fill="#0072bc"/><circle cx="233.77" cy="73.81" r="1.09" fill="#fff"/><path d="M230.83,71.19a3.61,3.61,0,0,0-1.27,7l.36,1.1.91,2.76.9-2.76.36-1.1a3.61,3.61,0,0,0-1.26-7Z" fill="#0072bc"/><circle cx="230.77" cy="74.81" r="1.09" fill="#fff"/><path d="M216.83,79.19a3.61,3.61,0,0,0-1.27,7l.36,1.1.91,2.76.9-2.76.36-1.1a3.61,3.61,0,0,0-1.26-7Z" fill="#0072bc"/><circle cx="216.77" cy="82.81" r="1.09" fill="#fff"/><path d="M243.83,91.19a3.61,3.61,0,0,0-1.27,7l.36,1.1.91,2.76.9-2.76.36-1.1a3.61,3.61,0,0,0-1.26-7Z" fill="#0072bc"/><circle cx="243.77" cy="94.81" r="1.09" fill="#fff"/><path d="M249.83,79.19a3.61,3.61,0,0,0-1.27,7l.36,1.1.91,2.76.9-2.76.36-1.1a3.61,3.61,0,0,0-1.26-7Z" fill="#0072bc"/><circle cx="249.77" cy="82.81" r="1.09" fill="#fff"/><path d="M258.83,75.19a3.61,3.61,0,0,0-1.27,7l.36,1.1.91,2.76.9-2.76.36-1.1a3.61,3.61,0,0,0-1.26-7Z" fill="#0072bc"/><circle cx="258.77" cy="78.81" r="1.09" fill="#fff"/><path d="M252.83,66.19a3.61,3.61,0,0,0-1.27,7l.36,1.1.91,2.76.9-2.76.36-1.1a3.61,3.61,0,0,0-1.26-7Z" fill="#0072bc"/><circle cx="252.77" cy="69.81" r="1.09" fill="#fff"/><path d="M269.56,62.65a3.61,3.61,0,0,0-1.26,7l.36,1.11.9,2.75.91-2.75.36-1.11a3.61,3.61,0,0,0-1.27-7Z" fill="#0072bc"/><circle cx="269.5" cy="66.27" r="1.09" fill="#fff"/><path d="M259.56,64.65a3.61,3.61,0,0,0-1.26,7l.36,1.11.9,2.75.91-2.75.36-1.11a3.61,3.61,0,0,0-1.27-7Z" fill="#0072bc"/><circle cx="259.5" cy="68.27" r="1.09" fill="#fff"/><path d="M263.56,58.65a3.61,3.61,0,0,0-1.26,7l.36,1.11.9,2.75.91-2.75.36-1.11a3.61,3.61,0,0,0-1.27-7Z" fill="#0072bc"/><circle cx="263.5" cy="62.27" r="1.09" fill="#fff"/><path d="M252.56,59.65a3.61,3.61,0,0,0-1.26,7l.36,1.11.9,2.75.91-2.75.36-1.11a3.61,3.61,0,0,0-1.27-7Z" fill="#0072bc"/><circle cx="252.5" cy="63.27" r="1.09" fill="#fff"/><path d="M256.56,69.65a3.61,3.61,0,0,0-1.26,7l.36,1.11.9,2.75.91-2.75.36-1.11a3.61,3.61,0,0,0-1.27-7Z" fill="#0072bc"/><circle cx="256.5" cy="73.27" r="1.09" fill="#fff"/><path d="M248.56,68.65a3.61,3.61,0,0,0-1.26,7l.36,1.11.9,2.75.91-2.75.36-1.11a3.61,3.61,0,0,0-1.27-7Z" fill="#0072bc"/><circle cx="248.5" cy="72.27" r="1.09" fill="#fff"/><path d="M244.56,59.65a3.61,3.61,0,0,0-1.26,7l.36,1.11.9,2.75.91-2.75.36-1.11a3.61,3.61,0,0,0-1.27-7Z" fill="#0072bc"/><circle cx="244.5" cy="63.27" r="1.09" fill="#fff"/><path d="M241.56,49.65a3.61,3.61,0,0,0-1.26,7l.36,1.11.9,2.75.91-2.75.36-1.11a3.61,3.61,0,0,0-1.27-7Z" fill="#0072bc"/><circle cx="241.5" cy="53.27" r="1.09" fill="#fff"/><path d="M237.56,54.65a3.61,3.61,0,0,0-1.26,7l.36,1.11.9,2.75.91-2.75.36-1.11a3.61,3.61,0,0,0-1.27-7Z" fill="#0072bc"/><circle cx="237.5" cy="58.27" r="1.09" fill="#fff"/><path d="M241.56,61.65a3.61,3.61,0,0,0-1.26,7l.36,1.11.9,2.75.91-2.75.36-1.11a3.61,3.61,0,0,0-1.27-7Z" fill="#0072bc"/><circle cx="241.5" cy="65.27" r="1.09" fill="#fff"/><path d="M240.56,53.65a3.61,3.61,0,0,0-1.26,7l.36,1.11.9,2.75.91-2.75.36-1.11a3.61,3.61,0,0,0-1.27-7Z" fill="#0072bc"/><circle cx="240.5" cy="57.27" r="1.09" fill="#fff"/><path d="M246.56,51.65a3.61,3.61,0,0,0-1.26,7l.36,1.11.9,2.75.91-2.75.36-1.11a3.61,3.61,0,0,0-1.27-7Z" fill="#0072bc"/><circle cx="246.5" cy="55.27" r="1.09" fill="#fff"/><path d="M248.56,53.65a3.61,3.61,0,0,0-1.26,7l.36,1.11.9,2.75.91-2.75.36-1.11a3.61,3.61,0,0,0-1.27-7Z" fill="#0072bc"/><circle cx="248.5" cy="57.27" r="1.09" fill="#fff"/><path d="M264.56,72.65a3.61,3.61,0,0,0-1.26,7l.36,1.11.9,2.75.91-2.75.36-1.11a3.61,3.61,0,0,0-1.27-7Z" fill="#0072bc"/><circle cx="264.5" cy="76.27" r="1.09" fill="#fff"/></svg>