<svg xmlns="http://www.w3.org/2000/svg" width="350" height="148" viewBox="0 0 350 148"><rect width="350" height="148" fill="#f1f2f2"/><path d="M31.92,21.87V14.54h2.5a3.56,3.56,0,0,1,3.76,3.67,3.54,3.54,0,0,1-3.76,3.66Zm5.32-3.66a2.69,2.69,0,0,0-2.82-2.86H32.83v5.71h1.59A2.7,2.7,0,0,0,37.24,18.21Z" fill="#0072bc"/><path d="M39.26,19.21a2.63,2.63,0,1,1,5.26,0,2.63,2.63,0,1,1-5.26,0Zm4.39,0a1.78,1.78,0,1,0-3.52,0,1.78,1.78,0,1,0,3.52,0Z" fill="#0072bc"/><circle cx="17.55" cy="17.55" r="7.55" fill="#9dc5ff"/><circle cx="17.55" cy="17.55" r="4.8" fill="#0072bc"/><polyline points="14.8 17.55 16.63 19.38 20.29 15.72" fill="none" stroke="#fff" stroke-linecap="round" stroke-linejoin="round" stroke-width="0.75"/><path d="M201.92,21.87V14.54h2.5a3.56,3.56,0,0,1,3.76,3.67,3.54,3.54,0,0,1-3.76,3.66Zm5.32-3.66a2.69,2.69,0,0,0-2.82-2.86h-1.59v5.71h1.59A2.7,2.7,0,0,0,207.24,18.21Z" fill="#ef4a60"/><path d="M209.26,19.21a2.63,2.63,0,1,1,5.26,0,2.63,2.63,0,1,1-5.26,0Zm4.39,0a1.78,1.78,0,1,0-3.52,0,1.78,1.78,0,1,0,3.52,0Z" fill="#ef4a60"/><path d="M219.44,21.87V18.4c0-.95-.48-1.23-1.19-1.23a2.06,2.06,0,0,0-1.57.82v3.88h-.83V16.56h.83v.77a2.58,2.58,0,0,1,1.9-.9,1.5,1.5,0,0,1,1.68,1.71v3.73Z" fill="#ef4a60"/><path d="M222.07,16.93l-.42-.35a1.65,1.65,0,0,0,.71-1l-.15,0a.53.53,0,0,1-.53-.56.6.6,0,0,1,.58-.59c.38,0,.7.3.7.84A2.14,2.14,0,0,1,222.07,16.93Z" fill="#ef4a60"/><path d="M224.54,20.76V17.29h-.88v-.73h.88V15.11h.83v1.45h1.08v.73h-1.08v3.29c0,.4.18.68.53.68a.75.75,0,0,0,.56-.23l.24.63a1.32,1.32,0,0,1-1,.34A1.08,1.08,0,0,1,224.54,20.76Z" fill="#ef4a60"/><circle cx="187.55" cy="17.55" r="7.55" fill="#ffbcc1"/><circle cx="187.55" cy="17.55" r="4.8" fill="#ef4a60"/><line x1="189.55" y1="15.55" x2="185.55" y2="19.55" fill="none" stroke="#fff" stroke-linecap="round" stroke-linejoin="round" stroke-width="0.75"/><line x1="189.55" y1="19.55" x2="185.55" y2="15.55" fill="none" stroke="#fff" stroke-linecap="round" stroke-linejoin="round" stroke-width="0.75"/><path d="M80.78,78l.71.09.22.75-.27.7-.33.29-.57-.16-.62-.89.19-.63Z" fill="#c6c6c6" stroke="#fff" stroke-linecap="round" stroke-linejoin="round" stroke-width="0.5"/><path d="M102.75,64.28l-.53.11-1.14,0-1.37,0-.9.06-.26.68-.3.49-.82.83.07.59-.6,2-.22,1.17-.27.88.43.77-1.08,1-.71,1-.36.86,0,.64-.25.29-1,.13-.41.23-.46.53-.59.92-.59.57-.05.57-.49.23-.55.74-.61,0,.3-.76-.12-.24-.6-.26L89,78.15,89,77.69l-.67,0,0-.25.44-.41-.1-.58-.51,0-.26-.36.49-.46.45-1.4-.32-.81.27-.22.53.16.3-.18.15-.45.3-.17.26-.67-.41-.44h-.62l-.14-.7.48.1,1,0,.18-.14-.21-.6.19-.61,0-1.29-.38-2.09v-.29l.42-.3,0-.49-.34-.47L91,64l.18-.61-.28-.94-.51-.56-.23-.07L90,60.63l-.44-.69.16-.45-.66-.4-.36-.57V57.11l-.25-.58-.3-1,.2-.33-.07-.6,0-.61.47-.56-.12-.34-.41-.47.23-.84.43-.36.58-.22-.54-.93-.32-.35,0-.36-.21-.5-.35-1.26-.47-.23.17-.69-.18-.62.19-.69.86.16.07-1.46-.29-.52V43l.38-.68-.3-.28,0-.75-.51.1-.62-.17.09-.56.46-.26.31-.8.38.15.71,0,.29-.16,0-.36.52-.4.61-.08.6.14,1.6.84,1.5,1,1.35,1,1.74,1.49,1.25,1.2.46.6,1.57,1.42.59.62L103.23,49l.68.77.56,1,1.39,1.64.28.43.51.28.35.35-.43.53-.23.64L106,55,105,56.27l-.5.83-.79,1.15-.87.55-.5,1.69.25.91.13.9-.09,1.64Z" fill="#c6c6c6" stroke="#fff" stroke-linecap="round" stroke-linejoin="round" stroke-width="0.5"/><path d="M88.31,54.58l.07.6-.2.33.3,1,.25.58v1.41l.36.57.66.4-.16.45.44.69.12,1.17.23.07.51.56.28.94L91,64l-.46.63.34.47,0,.49-.42.3v.29l.38,2.09,0,1.29-.19.61.21.6-.18.14-1,0-.48-.1.14.7h.62l.41.44-.26.67-.3.17-.15.45-.3.18-.53-.16-.27.22.32.81-.45,1.4-.49.46.26.36.51,0,.1.58-.44.41,0,.25-.54.33,0,1.31-.23.68-.72.21-.4-.22-.07.35-.37.39-.37-.27L85.41,80l-.29.17v.44l-.78,0v-.42l-.2-.33,0-.44.4-1.19.37-.08-.18-.61-.53.09-.44-.53-.08-.45.41-.16.37.12.06-.52L85,76l.53-.47-.4-.24h-.44v-.49l.35-.08.18-.61L85,73.57l-.4-.31-.43.28-.75.09-.56-.44-.68-.06-.47.38-.58-.43-.28-.83,0-.61L80,71.27l1.33-.72-.13-.78.19-.38-.11-.6-.78-.18-1.85.15-.21.86-.41.74-.46,0-.28.45-.4-.1-1.42,1L74.27,72l-.46.4-.84.22-1.06-.89-.18-.27-.61-.13-.33-.23-.55.28L70.05,71l-.73-.37-.2-.43.1-.56-.49-.07-1-.46h-.6l-.21-.2-1.28-.12,0,.28-.69-.37-.37,0-.13-.29,0-.56-.85.2L63,67.58,62.7,67l.31-.42,0-.3.41-.4-.67-.33.61-1,1.33-1.39L64.05,63v-.8l.69-.38v-.29L64.26,61l-.63.22.25-.58-.81-1.25,0-1-.88.55-.31.31L61.57,59l-.15-.71-.79-.8-.43,0-1,.59-1,.09-.16.32-.5.11-.43.35-.69-.08-.42-.17-.48-.39-.26-.87.89-1.73,1.91-3.08.28-.08.1-.46,1.91-.36.78-.06.51.06.12-1.2-.17-.32.24-.47-.08-.31L62.46,47l1.08-1.44.08-.65.32-.77.2.21.71,1.83-.07.41.29.36h1.11l.55-.51.48.41,1,.27,1.06.49,1-.1.32-.46,1.1,0,.86-.35.42-.42.24-.66h.3l.29.31.06.41.36-.09.27.2.75-.39.37.25.41-.2.21.16L77.46,46l.29-.36.34.09.42-.2.64.12-.41.32.11.25.57-.25.23.69.6.16.26.36-.08.51,1,.43L82,48l.66.59-.46.41.16.7L83,50l.59.08.69.25.14.64-.08.4.1.6-.77.32.45,1.24.06.87.33.41h.93l.26-.2h.49l.15.44.45,0,.19-.27.94,0Z" fill="#c6c6c6" stroke="#fff" stroke-linecap="round" stroke-linejoin="round" stroke-width="0.5"/><path d="M65.62,69.1l-.54.43-.41-.19-.28.33-.51,0-.55.61-.7.36-.1.25-.53.21-.47.63.23.69-.34.68.39.19.24.42.06.53.23.33.5.1.57.55.59-.35.24.14.15.47-.39.63h-.63l-.4.38-.35-.16-.32.41,0,.31-.42.87-.08.64-.55-.28-.41,0,.19-.46L60.89,77l-.6-.12L60,76.36l-.83,0-.29-.11L59,75.22l-.4-.1-.45-.48,0-.59-.67-.41-.76.14-.56-.68L56,72.37l-.38-.4-.55,0-.45-.16-.51,0-.5.16-.23-.49-.65.83-.21.44-.27.13-.26.48.11.77-.2.56-.35.06-.75-.31-.33-.31h-.27l-.18.64-.18.19.1.48h-.44l.1.61-.19,1.09-.72.33.63.71h.23l.32.5-.53.26-2.14,0-.35-4.28.39-1.48.49-1.07.17-.89.67-.64.18-.88-.45-2.29.48-.56.63-1.11L50.48,65l.58.38.91.81.44-.07.83-1,0-.36-.32-.3.52-1.58-.28-.73.87-1.89,0-.45-.18-.35-.06-.61.42-.87.83-.34.22-.21.26.87.48.39.42.17.69.08.43-.35.5-.11.16-.32,1-.09,1-.59.43,0,.79.8.15.71.28.29.31-.31.88-.55,0,1,.81,1.25-.25.58.63-.22.48.62v.29l-.69.38V63l.59.13-1.33,1.39-.61,1,.67.33-.41.4,0,.3L62.7,67l.26.55.66.53.85-.2,0,.56.13.29.37,0Z" fill="#c6c6c6" stroke="#fff" stroke-linecap="round" stroke-linejoin="round" stroke-width="0.5"/><path d="M102.19,75.23l.1-.93.9-.61.24,0,.9.44L105.45,73l.48-.07.64.47-.59.49h-.42l-.55.28.2.42-.61.59L104,75l-.5.26-1-.13Z" fill="#c6c6c6" stroke="#fff" stroke-linecap="round" stroke-linejoin="round" stroke-width="0.5"/><path d="M54.26,88.46l.36.22,0,.59-.36.39h1.36l.6.6-.14,1.2-.28.37.33.41-.58.05-.47-.16-.22.28-.65,0-.44-.59-.64-.23-.49.22-.15.83.25.6.62.69-.46.69L54,94.5l.72.6.13.35-.09,1.37.1.58-.49.11-.18.55-.88.15-1-.24,0-.25-.67-1.79-.38-.47-.53-.37L50,95l-.42-1.21-.8-.32-.44,0-.47-.4-.52-1.1-1-.56v-.94l-1-1.07-1.26-1-1.79-.62-2.67-.27-.32-.07L39,87l-.16-.58.29-.51.64-.75.47-.29-.18-1.56.07-.32.67-.44.85.17.93-.21h.91l.58.67.41,0,.59-.42.85-.08,1-.87.14-.68h.47L48,80.8l.41.15.24.59.08.73-.31.79.24.1L50,82.44l.37.53,1.12.09.41.26v.37l.5.38.79,0,.39.2H54l.47.28-.25.48.27.68-.24.47-.43,0-.29.22-.06.44-.36-.2-.13.45v.73l.46-.15.59.13Z" fill="#c6c6c6" stroke="#fff" stroke-linecap="round" stroke-linejoin="round" stroke-width="0.5"/><path d="M105.83,75.86l.24.17-.16.66.17.39-.28.22-.26-.25-.36.1-.63-.14.07-.56.32-.5.53.08Z" fill="#c6c6c6" stroke="#fff" stroke-linecap="round" stroke-linejoin="round" stroke-width="0.5"/><path d="M88.3,77.66l.67,0,.07.46.24.28.6.26.12.24-.3.76.61,0,.55-.74.49-.23.05-.57.59-.57.59-.92.46-.53.41-.23,1-.13.25-.29,1.08-.14.34.11.27.31-.5.15-.44-.08.11.61.83-.08.63-.25.31-.25.64-.24L98.6,75l.5,0,1.32.33.36-.3.74-.11.08.24.59.07.28-.14,1,.13L104,75l.62.25.61-.59-.2-.42.55-.28H106l.59-.49,1.15,0L108.8,73l.34,0,.26.34,1.21.52.27-.22.31.37-.07.27-.43.21-.21-.16-.48.09-.19.36-.53.35-.53.2L108,76l.1.62.32.67.29.26-.26.38.33.24.42.66,1.18,1.28-.16.34,0,.68.44.44.1.59-.21.89-.84.26-.24.5-.24.83-.29.35-.33-.21-.35-.69L108,82.59l-.2-.27-1.3-.32-.44-.72-.34.18-1.06.85-.31.49v.75l-.56.88-.16.87L103.47,87l.33.51-.65,1.75.21.88,2.19.87.08.2,0,.89-.34.65,0,.32-.63.87-.15,1-.41.77v.38l-.46.27-.55.12-.3-.25-.58.37-.35.65-.52.49-.66-.75-.65-.57-.58-.15-.94-.42-.7-.49-.44,0-1.24,1.28-.28.54,0,.37.17.86-.1,1.38.09.64,0,1.3.34.9-.65.2-.57.45-.87.46-.73.87-2.59.41-.55-.08-.47-.23-.66.81L89,106l-1,2.7-.15.9,0,.41-1.3,2.91-.2.21-.08.5-.36.91.15.54-.72,1.23-.83,1.25-.47.15-.93.52-1.29.12-2.11-.63-.76-.18-.5.19-.9-.06-1.47,0-.47-.3-.42-.55-5.2-3.37-1.09-.67-.65-.65-1.1-.42H65.83l-.41-1.06.17-.17-.25-.77h1.32l.25-.61,0-1.34.24-1,.4-.62,1,.06.72-.05.25-.14.55.14.35.25.55,0,.73-.39.81-.33.12-.24.4,0,.33.21.46.06.31.24.34-.07v-.93l.24-.36.09-.83-.12-.57,1-.53.1-.41-.5-.32-.37-1.2-.47,0-.44-.37-.29.13-.18-1.13.45-.72.08-.41L74,97.63l-.3-.37.07-.51.46-.6.3-.06.41.31.34-.2.26.3.71.27.15.34.54-.13.37.38-.06.41-.54.21-.3.54.19.36-.2.28-.61,0,0,.32,1,1.62.8.18.36-.54-.35-.09-.35-.36.26-.16L78,99.05l.29-.12-.05-1.35.34-.33.67-.07,1,.35.47,0,.74.71.63,1,.53.16.57-.29L83,98.55l.3-.67L82.85,96h-.76L82,95.71l-.81-.23-.14-.2-.47,0L80.25,95l-.5-.22,0-.29.53-.35-.18-1-.31-.68-.45-.23-.27.26h-.48l-.27-.26-.47,0-.26-.25L77,92.7l-.12.28-.88.29-.38-.45.1-1,.19-.22,1.16-.69.11-.54.21-.15.23-.56.62-.26-.18-.58.08-.63.23-.56.35-.26.15-.39.26-.16.57-1.18-.32-.53,0-.35-.33-.51.37-.25.3.93.36.07,0-.49.25-.21-.47-.48.11-.47-.36-.58-.65-.2-.43.17-.27,1-.6.33-.29-.33,0-.51-.33-.27-.62.1-.42-.1-.4.23-.28-.11-.29.22-.44-.13-.47.31-.83-.12-.32.11-.28-.34-.39.21-.26-.43-.46,0-.3.48V84l.33.22.77.26-.23.91.08.79-.46.08-.35-.46-.72.18.32.54-.23.66,0,1,.31.85-.27.53-.2.81-.35.26-.68.23-.6.52-.36.11-.47-.11-.54.11-.07-.26-.55-.5-.28,0-.36.53-1-.67-1.22-.51-.56,0-.42-.27-.89-.28-.5-.42-.68-.11-.22-.24.15-.46-.4-.66-1.08-.68.41-.77-.32-1-.69,0-.31.43.56.65-.27.36-.5.13-.54.36-.47,0-.24-.55-.63.1-.24.38L56,87l-.12.49L55,88l-.07.37-.7,0L54,87.84l-.59-.13-.46.15v-.73l.13-.45.36.2.06-.44.29-.22.43,0,.24-.47-.27-.68.25-.48L54,84.29h-.4l-.39-.2-.79,0-.5-.38v-.37l-.41-.26L50.33,83,50,82.44l-1.27.72-.24-.1.31-.79-.08-.73L48.44,81,48,80.8l-.48.37h-.47l.07-2.25,2.14,0,.53-.26-.32-.5h-.23l-.63-.71.72-.33L49.55,76l-.1-.61h.44l-.1-.48.18-.19.18-.64h.27l.33.31.75.31.35-.06.2-.56-.11-.77.26-.48.27-.13.21-.44.65-.83.23.49.5-.16.51,0,.45.16.55,0,.38.4.21.73.56.68.76-.14.67.41,0,.59.45.48.4.1L58.9,76.3l.29.11.83,0,.27.48.6.12.16.82-.19.46.41,0,.55.28.08-.64.42-.87,0-.31.32-.41.35.16.4-.38H64l.39-.63L64.24,75,64,74.82l-.59.35-.57-.55-.5-.1-.23-.33-.06-.53-.24-.42-.39-.19.34-.68-.23-.69.47-.63.53-.21.1-.25.7-.36.55-.61.51,0,.28-.33.41.19.54-.43,0-.28,1.28.12.21.2h.6l1,.46.49.07-.1.56.2.43.73.37.19.33.55-.28.33.23.61.13.18.27,1.06.89.84-.22.46-.4,1.19-.35,1.42-1,.4.1.28-.45.46,0,.41-.74.21-.86,1.85-.15.78.18.11.6-.19.38.13.78L80,71.27l.92.37,0,.61.28.83.58.43.47-.38.68.06.56.44.75-.09.43-.28.4.31.16.51-.18.61-.35.08v.49h.44l.4.24L85,76l-.46.15-.06.52-.37-.12-.41.16.08.45.44.53.53-.09.18.61-.37.08-.4,1.19,0,.44.2.33v.42l.78,0v-.44l.29-.17.23.45.37.27.37-.39.07-.35.4.22.72-.21.23-.68,0-1.31ZM80.78,78l-.67.15-.19.63.62.89.57.16.33-.29.27-.7-.22-.75Zm25-2.11-.36.17-.53-.08-.32.5-.07.56.63.14.36-.1.26.25.28-.22-.17-.39.16-.66Z" fill="#c6c6c6" stroke="#fff" stroke-linecap="round" stroke-linejoin="round" stroke-width="0.5"/><path d="M65.83,111.71l-.48-.09-2.72,0-.44-.06H61l-.68-.54,0-.78-.17-.08L59,109.07l0-2.06.31-.39-.18-.93.17-.46-2.13-.71h-.61l-.66.54-.36-.19-.23-.44.14-.5L54.17,103v-.4l-.86-1.38-.08-.62.09-.36-.13-.53-.34-.33-.46-1,0-.47,1,.24.88-.15.18-.55.49-.11-.1-.58.09-1.37-.13-.35L54,94.5l-1.06.1.46-.69-.62-.69-.25-.6.15-.83.49-.22.64.23.44.59.65,0,.22-.28.47.16.58-.05-.33-.41.28-.37.14-1.2-.6-.6H54.3l.36-.39,0-.59-.36-.22.7,0L55,88l.86-.53L56,87l.31.1.24-.38.63-.1.24.55.47,0,.54-.36.5-.13.27-.36-.56-.65L59,85.3l.69,0,.32,1-.41.77,1.08.68.4.66-.15.46.22.24.68.11.5.42.89.28.42.27.56,0,1.22.51,1,.67.36-.53.28,0,.55.5.07.26.54-.11.47.11.36-.11.6-.52.68-.23.35-.26.2-.81.27-.53-.31-.85,0-1,.23-.66-.32-.54.72-.18.35.46.46-.08-.08-.79.23-.91-.77-.26L71.32,84v-.61l.3-.48.46,0,.26.43.39-.21.28.34.32-.11.83.12.47-.31.44.13.29-.22.28.11.4-.23.42.1.62-.1.33.27,0,.51.29.33.6-.33.27-1,.43-.17.65.2.36.58-.11.47.47.48-.25.21,0,.49-.36-.07-.3-.93-.37.25.33.51,0,.35.32.53-.57,1.18-.26.16-.15.39-.35.26-.23.56-.08.63.18.58-.62.26-.23.56-.21.15-.11.54-1.16.69-.19.22-.1,1,.38.45.88-.29L77,92.7l.63-.76.26.25.47,0,.27.26h.48l.27-.26.45.23.31.68.18,1-.53.35,0,.29.5.22.35.32.47,0,.14.2.81.23.07.31h.76l.46,1.85-.3.67.19.54-.57.29-.53-.16-.63-1-.74-.71-.47,0-1-.35-.67.07-.34.33.05,1.35-.29.12-.58,1.12-.26.16.35.36.35.09-.36.54-.8-.18-1-1.62,0-.32.61,0,.2-.28-.19-.36.3-.54.54-.21.06-.41L76.92,97l-.54.13-.15-.34-.71-.27-.26-.3-.34.2-.41-.31-.3.06-.46.6-.07.51.3.37.09.53-.08.41-.45.72.18,1.13.29-.13.44.37.47,0,.37,1.2.5.32-.1.41-1,.53.12.57-.09.83-.24.36v.93l-.34.07-.31-.24-.46-.06L73,105.4l-.4,0-.12.24-.81.33-.73.39-.55,0-.35-.25-.55-.14-.25.14-.72.05-1-.06-.4.62-.24,1,0,1.34-.25.61H65.34l.25.77-.17.17Z" fill="#c6c6c6" stroke="#fff" stroke-linecap="round" stroke-linejoin="round" stroke-width="0.5"/><path d="M83.05,118.25l.93-.52.47-.15.83-1.25L86,115.1l-.15-.54.36-.91.08-.5.2-.21,1.3-2.91,0-.41.15-.9,1-2.7.26-.47.66-.81.47.23.55.08,2.59-.41.73-.87.87-.46.57-.45.65-.2-.34-.9,0-1.3-.09-.64.1-1.38-.17-.86,0-.37.28-.54,1.24-1.28.44,0,.7.49.94.42.58.15.65.57.66.75.52-.49.35-.65.58-.37.3.25.55-.12.46-.27v-.38l.41-.77.15-1,.63-.87,0-.32.34-.65,0-.89-.08-.2-2.19-.87-.21-.88.65-1.75-.33-.51.11-1.71.16-.87.56-.88V82.8l.31-.49,1.06-.85.34-.18.44.72,1.3.32.2.27.27,1.45.35.69.33.21.29-.35.24-.83.24-.5.84-.26.21-.89-.1-.59-.44-.44,0-.68.16-.34-1.18-1.28-.42-.66-.33-.24.26-.38-.29-.26-.32-.67L108,76l.75-.54.53-.2.53-.35.19-.36.48-.09.21.16.43-.21.07-.27-.31-.37-.27.22-1.21-.52-.26-.34-.34,0-1.08.39-1.15,0-.64-.47-.48.07-1.12,1.13-.9-.44-.24,0-.9.61-.1.93-.59-.07-.08-.24-.74.11-.36.3L99.1,75l-.5,0-.68.54-.64.24-.31.25-.63.25-.83.08-.11-.61.44.08.5-.15-.27-.31-.34-.11-1.08.14,0-.64.36-.86.71-1,1.08-1-.43-.77.27-.88.22-1.17.6-2-.07-.59.82-.83.3-.49.26-.68.9-.06,1.37,0,1.14,0,.53-.11.77.22.73.06.77-.39,1.69-.15,1-.32,1-.24.78.14.15.4.3.25.58,0,.19.2-1.11,1.26-.72,1.07.42.83.46.46.15.76.32.95.29.34.65.39.24.27.27.82.43.42.51,0,.32.29.26,1.29.16.36.33.11.42.45.3.52.1.49,1,.59.32-.13,2.78,2.51,4.63,1.54,2.55.84,4.54,1.52,3.11,1.05,3.58,1.21,3.32,1.13,4.32,0,2.75,0-3.13,3-4.09,3.88-3.11,3.17L133,100.11l-2,2.15L128.55,105l-3.07,3.34-3.17-.2-3.85-.24-.91.36-1.23.16-1.42.5-1.22.53-1.18.6-1.25,1-.21.32-.17.67-.41.51-1,.33-.85.09-1.83.42-1.26,0-.89.24-.82.63-.15.48-.34.38-.38.16-.83-.38-1.38.18-.48.19-2.08.06-.33-.13-.52-.52-.39-.56-1.64-1.3-.81.43-2,.76-.07.18-1.49.55-1.32.68-1,.43-.61,1.38-1.36,1.29-.25.68-.44-.31-1.48-.19-.71,0Z" fill="#c6c6c6" stroke="#fff" stroke-linecap="round" stroke-linejoin="round" stroke-width="0.5"/><path d="M89.51,39.31l0,.36-.29.16-.71,0-.38-.15-.31.8-.46.26-.09.56.62.17.51-.1,0,.75.3.28-.38.68v.7l.29.52-.07,1.46-.86-.16-.19.69.18.62-.17.69.47.23L88.42,49l.21.5,0,.36.32.35.54.93-.58.22-.43.36-.23.84.41.47.12.34-.47.56,0,.61-.41.15-.94,0-.19.27-.45,0-.15-.44h-.49l-.26.2h-.93l-.33-.41-.06-.87-.45-1.24.77-.32-.1-.6.08-.4-.14-.64-.69-.25L83,50l-.59-.31-.16-.7.46-.41L82,48l-.64.2-1-.43.08-.51-.26-.36-.6-.16L79.42,46l-.57.25L78.74,46l.41-.32-.64-.12-.42.2-.34-.09-.29.36-1.27.22L76,46.1l-.41.2-.37-.25-.75.39-.27-.2-.36.09-.06-.41-.29-.31h-.3l-.24.66-.42.42-.86.35-1.1,0-.32.46-1,.1-1.06-.49-1-.27-.48-.41-.55.51H65.07l-.29-.36.07-.41-.71-1.83-.2-.21.25-.55-.3-.85.77-2.33.61-.21.36.09.44-.16h.84l.77.22.28.27.59-.13.07-.48.25-.52.57-.23.69,0,.21.23.48-.43.62,0,.44.2.88-.42.38-.87.43-.22v-.58l.37-.51.31,0,.47-.33.22.1.34.68,1,.45.27-.1.53.16,0,.38.71.92.42.17.19.39,1.22-.17.63-.23h.66l.4-.23.41,0,.5-.29.35-.66h.54l.74.16.19.31,0,.83.21.45.37-.14.1-.49.36-.4.94.18-.12-.68.18-.53.53.05.39.44.58.42.42.07.18.3.58.27.37.34Zm-3.45,6.32-.42.08-.11.43.44.26Z" fill="#c6c6c6" stroke="#fff" stroke-linecap="round" stroke-linejoin="round" stroke-width="0.5"/><path d="M89.56,89.5l-9.75,3.17a10.26,10.26,0,0,1,6.58-12.92,9.78,9.78,0,0,1,3.17-.5Z" fill="#0072bc" stroke="#fff" stroke-miterlimit="10" stroke-width="0.5" fill-rule="evenodd"/><path d="M89.56,89.5l-6,8.3a9.81,9.81,0,0,1-3.72-5.13Z" fill="#9dc5ff" stroke="#fff" stroke-miterlimit="10" stroke-width="0.5" fill-rule="evenodd"/><path d="M89.56,89.5V79.25a10.26,10.26,0,0,1,0,20.51,9.85,9.85,0,0,1-6-2Z" fill="#18375f" stroke="#fff" stroke-miterlimit="10" stroke-width="0.5" fill-rule="evenodd"/><path d="M62.33,98.21l-6.07,2a6.38,6.38,0,0,1,4.1-8,6,6,0,0,1,2-.31Z" fill="#0072bc" stroke="#fff" stroke-miterlimit="10" stroke-width="0.5" fill-rule="evenodd"/><path d="M62.33,98.21l-3.75,5.16a6.1,6.1,0,0,1-2.32-3.19Z" fill="#9dc5ff" stroke="#fff" stroke-miterlimit="10" stroke-width="0.5" fill-rule="evenodd"/><path d="M62.33,98.21V91.83a6.38,6.38,0,0,1,0,12.76,6.1,6.1,0,0,1-3.75-1.22Z" fill="#18375f" stroke="#fff" stroke-miterlimit="10" stroke-width="0.5" fill-rule="evenodd"/><path d="M48.37,87.84l-4,1.32a4.27,4.27,0,0,1,2.74-5.37,4.13,4.13,0,0,1,1.31-.21Z" fill="#0072bc" stroke="#fff" stroke-miterlimit="10" stroke-width="0.5" fill-rule="evenodd"/><path d="M48.37,87.84l-2.5,3.44a4.07,4.07,0,0,1-1.55-2.12Z" fill="#9dc5ff" stroke="#fff" stroke-miterlimit="10" stroke-width="0.5" fill-rule="evenodd"/><path d="M48.37,87.84V83.58a4.26,4.26,0,1,1,0,8.52,4,4,0,0,1-2.5-.82Z" fill="#18375f" stroke="#fff" stroke-miterlimit="10" stroke-width="0.5" fill-rule="evenodd"/><path d="M57,66l-2.9.94a3.05,3.05,0,0,1,2.9-4Z" fill="#0072bc" stroke="#fff" stroke-miterlimit="10" stroke-width="0.5" fill-rule="evenodd"/><path d="M57,66l-1.79,2.47a3,3,0,0,1-1.11-1.53Z" fill="#9dc5ff" stroke="#fff" stroke-miterlimit="10" stroke-width="0.5" fill-rule="evenodd"/><path d="M57,66V62.9A3,3,0,1,1,57,69a3,3,0,0,1-1.79-.58Z" fill="#18375f" stroke="#fff" stroke-miterlimit="10" stroke-width="0.5" fill-rule="evenodd"/><path d="M72.83,56.52l-2.75.9a2.9,2.9,0,0,1,1.86-3.65,2.67,2.67,0,0,1,.89-.14Z" fill="#0072bc" stroke="#fff" stroke-miterlimit="10" stroke-width="0.5" fill-rule="evenodd"/><path d="M72.83,56.52l-1.7,2.34a2.76,2.76,0,0,1-1-1.44Z" fill="#9dc5ff" stroke="#fff" stroke-miterlimit="10" stroke-width="0.5" fill-rule="evenodd"/><path d="M72.83,56.52V53.63a2.9,2.9,0,1,1,0,5.79,2.75,2.75,0,0,1-1.7-.56Z" fill="#18375f" stroke="#fff" stroke-miterlimit="10" stroke-width="0.5" fill-rule="evenodd"/><path d="M118.15,94.19l-8,2.61a8.45,8.45,0,0,1,5.43-10.64,7.92,7.92,0,0,1,2.61-.41Z" fill="#0072bc" stroke="#fff" stroke-miterlimit="10" stroke-width="0.5" fill-rule="evenodd"/><path d="M118.15,94.19l-5,6.83a8.06,8.06,0,0,1-3.07-4.22Z" fill="#9dc5ff" stroke="#fff" stroke-miterlimit="10" stroke-width="0.5" fill-rule="evenodd"/><path d="M118.15,94.19V85.75a8.45,8.45,0,0,1,0,16.89,8.09,8.09,0,0,1-5-1.62Z" fill="#18375f" stroke="#fff" stroke-miterlimit="10" stroke-width="0.5" fill-rule="evenodd"/><path d="M95.7,56.16l-4.59,1.49a4.82,4.82,0,0,1,3.09-6.08,4.76,4.76,0,0,1,1.5-.24Z" fill="#0072bc" stroke="#fff" stroke-miterlimit="10" stroke-width="0.5" fill-rule="evenodd"/><path d="M95.7,56.16l-2.84,3.9a4.62,4.62,0,0,1-1.75-2.41Z" fill="#9dc5ff" stroke="#fff" stroke-miterlimit="10" stroke-width="0.5" fill-rule="evenodd"/><path d="M95.7,56.16V51.33a4.83,4.83,0,0,1,0,9.66,4.61,4.61,0,0,1-2.84-.93Z" fill="#18375f" stroke="#fff" stroke-miterlimit="10" stroke-width="0.5" fill-rule="evenodd"/><path d="M103.48,74.74,100,75.86a3.64,3.64,0,0,1,2.33-4.57,3.54,3.54,0,0,1,1.12-.17Z" fill="#0072bc" stroke="#fff" stroke-miterlimit="10" stroke-width="0.5" fill-rule="evenodd"/><path d="M103.48,74.74l-2.13,2.92a3.45,3.45,0,0,1-1.32-1.8Z" fill="#9dc5ff" stroke="#fff" stroke-miterlimit="10" stroke-width="0.5" fill-rule="evenodd"/><path d="M103.48,74.74V71.12a3.62,3.62,0,0,1,0,7.24,3.49,3.49,0,0,1-2.13-.7Z" fill="#18375f" stroke="#fff" stroke-miterlimit="10" stroke-width="0.5" fill-rule="evenodd"/><path d="M81.14,42.24l-4.41,1.44a4.63,4.63,0,0,1,3-5.84,4.39,4.39,0,0,1,1.44-.23Z" fill="#6099d1" stroke="#fff" stroke-miterlimit="10" stroke-width="0.5" fill-rule="evenodd"/><path d="M81.14,42.24,78.41,46a4.38,4.38,0,0,1-1.68-2.31Z" fill="#6099d1" stroke="#fff" stroke-miterlimit="10" stroke-width="0.5" fill-rule="evenodd"/><path d="M81.14,42.24V37.61a4.64,4.64,0,0,1,0,9.27A4.4,4.4,0,0,1,78.41,46Z" fill="#18375f" stroke="#fff" stroke-miterlimit="10" stroke-width="0.5" fill-rule="evenodd"/><path d="M257.78,78l.71.09.22.75-.27.7-.33.29-.57-.16-.62-.89.19-.63Z" fill="#c6c6c6" stroke="#fff" stroke-linecap="round" stroke-linejoin="round" stroke-width="0.5"/><path d="M279.75,64.28l-.53.11-1.14,0-1.37,0-.9.06-.26.68-.3.49-.82.83.07.59-.6,2-.22,1.17-.27.88.43.77-1.08,1-.71,1-.36.86,0,.64-.25.29-.95.13-.41.23-.46.53-.59.92-.59.57,0,.57-.49.23-.55.74-.61,0,.3-.76-.12-.24-.6-.26-.24-.28-.07-.46-.67,0,0-.25.44-.41-.1-.58-.51,0-.26-.36.49-.46.45-1.4-.32-.81.27-.22.53.16.3-.18.15-.45.3-.17.26-.67-.41-.44h-.62l-.14-.7.48.1,1,0,.18-.14-.21-.6.19-.61.05-1.29-.38-2.09v-.29l.42-.3,0-.49-.34-.47L268,64l.18-.61-.28-.94-.51-.56-.23-.07L267,60.63l-.44-.69.16-.45-.66-.4-.36-.57V57.11l-.25-.58-.3-1,.2-.33-.07-.6,0-.61.47-.56-.12-.34-.41-.47.23-.84.43-.36.58-.22-.54-.93-.32-.35,0-.36-.21-.5-.35-1.26-.47-.23.17-.69-.18-.62.19-.69.86.16.07-1.46-.29-.52V43l.38-.68-.3-.28-.05-.75-.51.1-.62-.17.09-.56.46-.26.31-.8.38.15.71,0,.29-.16-.05-.36.52-.4.61-.08.6.14,1.6.84,1.5,1,1.35,1,1.74,1.49,1.25,1.2.46.6,1.57,1.42.59.62L280.23,49l.68.77.56,1,1.39,1.64.28.43.51.28.35.35-.43.53-.23.64L283,55,282,56.27l-.5.83-.79,1.15-.87.55-.5,1.69.25.91.13.9-.09,1.64Z" fill="#c6c6c6" stroke="#fff" stroke-linecap="round" stroke-linejoin="round" stroke-width="0.5"/><path d="M265.31,54.58l.07.6-.2.33.3,1,.25.58v1.41l.36.57.66.4-.16.45.44.69.12,1.17.23.07.51.56.28.94L268,64l-.46.63.34.47,0,.49-.42.3v.29l.38,2.09-.05,1.29-.19.61.21.6-.18.14-1,0-.48-.1.14.7h.62l.41.44-.26.67-.3.17-.15.45-.3.18-.53-.16-.27.22.32.81-.45,1.4-.49.46.26.36.51,0,.1.58-.44.41,0,.25-.54.33,0,1.31-.23.68-.72.21-.4-.22-.07.35-.37.39-.37-.27-.23-.45-.29.17v.44l-.78,0v-.42l-.2-.33,0-.44.4-1.19.37-.08-.18-.61-.53.09-.44-.53-.08-.45.41-.16.37.12.06-.52L262,76l.53-.47-.4-.24h-.44v-.49l.35-.08.18-.61-.16-.51-.4-.31-.43.28-.75.09-.56-.44-.68-.06-.47.38-.58-.43-.28-.83,0-.61-.92-.37,1.33-.72-.13-.78.19-.38-.11-.6-.78-.18-1.85.15-.21.86-.41.74-.46,0-.28.45-.4-.1-1.42,1-1.19.35-.46.4-.84.22-1.06-.89-.18-.27-.61-.13-.33-.23-.55.28-.19-.33-.73-.37-.2-.43.1-.56-.49-.07-1-.46h-.6l-.21-.2-1.28-.12,0,.28-.69-.37-.37,0-.13-.29,0-.56-.85.2-.66-.53L239.7,67l.31-.42,0-.3.41-.4-.67-.33.61-1,1.33-1.39-.59-.13v-.8l.69-.38v-.29l-.48-.62-.63.22.25-.58-.81-1.25,0-1-.88.55-.31.31-.28-.29-.15-.71-.79-.8-.43,0-1,.59-1,.09-.16.32-.5.11-.43.35-.69-.08-.42-.17-.48-.39-.26-.87.89-1.73,1.91-3.08.28-.08.1-.46,1.91-.36.78-.06.51.06.12-1.2-.17-.32.24-.47-.08-.31.66-2.43,1.08-1.44.08-.65.32-.77.2.21.71,1.83-.07.41.29.36h1.11l.55-.51.48.41,1,.27,1.06.49,1-.1.32-.46,1.1,0,.86-.35.42-.42.24-.66h.3l.29.31.06.41.36-.09.27.2.75-.39.37.25.41-.2.21.16,1.27-.22.29-.36.34.09.42-.2.64.12-.41.32.11.25.57-.25.23.69.6.16.26.36-.08.51,1,.43L259,48l.66.59-.46.41.16.7L260,50l.59.08.69.25.14.64-.08.4.1.6-.77.32.45,1.24.06.87.33.41h.93l.26-.2h.49l.15.44.45,0,.19-.27.94,0Z" fill="#c6c6c6" stroke="#fff" stroke-linecap="round" stroke-linejoin="round" stroke-width="0.5"/><path d="M242.62,69.1l-.54.43-.41-.19-.28.33-.51,0-.55.61-.7.36-.1.25-.53.21-.47.63.23.69-.34.68.39.19.24.42.06.53.23.33.5.1.57.55.59-.35.24.14.15.47-.39.63h-.63l-.4.38-.35-.16-.32.41,0,.31-.42.87-.08.64-.55-.28-.41,0,.19-.46-.16-.82-.6-.12-.27-.48-.83,0-.29-.11.06-1.08-.4-.1-.45-.48,0-.59-.67-.41-.76.14-.56-.68-.21-.73-.38-.4-.55,0-.45-.16-.51,0-.5.16-.23-.49-.65.83-.21.44-.27.13-.26.48.11.77-.2.56-.35.06-.75-.31-.33-.31h-.27l-.18.64-.18.19.1.48h-.44l.1.61-.19,1.09-.72.33.63.71h.23l.32.5-.53.26-2.14,0-.35-4.28.39-1.48.49-1.07.17-.89.67-.64.18-.88-.45-2.29.48-.56.63-1.11,1.12-.74.58.38.91.81.44-.07.83-1,0-.36-.32-.3.52-1.58-.28-.73.87-1.89,0-.45-.18-.35-.06-.61.42-.87.83-.34.22-.21.26.87.48.39.42.17.69.08.43-.35.5-.11.16-.32,1-.09,1-.59.43,0,.79.8.15.71.28.29.31-.31.88-.55,0,1,.81,1.25-.25.58.63-.22.48.62v.29l-.69.38V63l.59.13-1.33,1.39-.61,1,.67.33-.41.4,0,.3-.31.42.26.55.66.53.85-.2,0,.56.13.29.37,0Z" fill="#c6c6c6" stroke="#fff" stroke-linecap="round" stroke-linejoin="round" stroke-width="0.5"/><path d="M279.19,75.23l.1-.93.9-.61.24,0,.9.44L282.45,73l.48-.07.64.47-.59.49h-.42l-.55.28.2.42-.61.59L281,75l-.5.26-1-.13Z" fill="#c6c6c6" stroke="#fff" stroke-linecap="round" stroke-linejoin="round" stroke-width="0.5"/><path d="M231.26,88.46l.36.22,0,.59-.36.39h1.36l.6.6-.14,1.2-.28.37.33.41-.58.05-.47-.16-.22.28-.65,0-.44-.59-.64-.23-.49.22-.15.83.25.6.62.69-.46.69,1.06-.1.72.6.13.35-.09,1.37.1.58-.49.11-.18.55-.88.15-1-.24,0-.25-.67-1.79-.38-.47-.53-.37L227,95l-.42-1.21-.8-.32-.44,0-.47-.4-.52-1.1-1-.56v-.94l-1-1.07-1.26-1-1.79-.62-2.67-.27-.32-.07L216,87l-.16-.58.29-.51.64-.75.47-.29-.18-1.56.07-.32.67-.44.85.17.93-.21h.91l.58.67.41,0,.59-.42.85-.08,1-.87.14-.68h.47l.48-.37.41.15.24.59.08.73-.31.79.24.1,1.27-.72.37.53,1.12.09.41.26v.37l.5.38.79,0,.39.2h.4l.47.28-.25.48.27.68-.24.47-.43,0-.29.22-.06.44-.36-.2-.13.45v.73l.46-.15.59.13Z" fill="#c6c6c6" stroke="#fff" stroke-linecap="round" stroke-linejoin="round" stroke-width="0.5"/><path d="M282.83,75.86l.24.17-.16.66.17.39-.28.22-.26-.25-.36.1-.63-.14.07-.56.32-.5.53.08Z" fill="#c6c6c6" stroke="#fff" stroke-linecap="round" stroke-linejoin="round" stroke-width="0.5"/><path d="M265.3,77.66l.67,0,.07.46.24.28.6.26.12.24-.3.76.61,0,.55-.74.49-.23,0-.57.59-.57.59-.92.46-.53.41-.23.95-.13.25-.29,1.08-.14.34.11.27.31-.5.15-.44-.08.11.61.83-.08.63-.25.31-.25.64-.24.68-.54.5,0,1.32.33.36-.3.74-.11.08.24.59.07.28-.14,1,.13L281,75l.62.25.61-.59-.2-.42.55-.28H283l.59-.49,1.15,0L285.8,73l.34,0,.26.34,1.21.52.27-.22.31.37-.07.27-.43.21-.21-.16-.48.09-.19.36-.53.35-.53.2L285,76l.1.62.32.67.29.26-.26.38.33.24.42.66,1.18,1.28-.16.34,0,.68.44.44.1.59-.21.89-.84.26-.24.5-.24.83-.29.35-.33-.21-.35-.69L285,82.59l-.2-.27-1.3-.32-.44-.72-.34.18-1.06.85-.31.49v.75l-.56.88-.16.87L280.47,87l.33.51-.65,1.75.21.88,2.19.87.08.2,0,.89-.34.65,0,.32-.63.87-.15,1-.41.77v.38l-.46.27-.55.12-.3-.25-.58.37-.35.65-.52.49-.66-.75-.65-.57-.58-.15-.94-.42-.7-.49-.44,0-1.24,1.28-.28.54,0,.37.17.86-.1,1.38.09.64,0,1.3.34.9-.65.2-.57.45-.87.46-.73.87-2.59.41-.55-.08-.47-.23-.66.81L266,106l-1,2.7-.15.9,0,.41-1.3,2.91-.2.21-.08.5-.36.91.15.54-.72,1.23-.83,1.25-.47.15-.93.52-1.29.12-2.11-.63-.76-.18-.5.19-.9-.06-1.47,0-.47-.3-.42-.55-5.2-3.37-1.09-.67-.65-.65-1.1-.42h-1.26l-.41-1.06.17-.17-.25-.77h1.32l.25-.61,0-1.34.24-1,.4-.62,1,.06.72-.05.25-.14.55.14.35.25.55,0,.73-.39.81-.33.12-.24.4,0,.33.21.46.06.31.24.34-.07v-.93l.24-.36.09-.83-.12-.57,1.05-.53.1-.41-.5-.32-.37-1.2-.47,0-.44-.37-.29.13-.18-1.13.45-.72.08-.41-.09-.53-.3-.37.07-.51.46-.6.3-.06.41.31.34-.2.26.3.71.27.15.34.54-.13.37.38-.06.41-.54.21-.3.54.19.36-.2.28-.61,0-.05.32,1,1.62.8.18.36-.54-.35-.09-.35-.36.26-.16.58-1.12.29-.12,0-1.35.34-.33.67-.07,1,.35.47,0,.74.71.63,1,.53.16.57-.29-.19-.54.3-.67L259.85,96h-.76l-.07-.31-.81-.23-.14-.2-.47,0-.35-.32-.5-.22,0-.29.53-.35-.18-1-.31-.68-.45-.23-.27.26h-.48l-.27-.26-.47,0-.26-.25-.63.76-.12.28-.88.29-.38-.45.1-1,.19-.22,1.16-.69.11-.54.21-.15.23-.56.62-.26-.18-.58.08-.63.23-.56.35-.26.15-.39.26-.16.57-1.18-.32-.53,0-.35-.33-.51.37-.25.3.93.36.07,0-.49.25-.21-.47-.48.11-.47-.36-.58-.65-.2-.43.17-.27,1-.6.33-.29-.33,0-.51-.33-.27-.62.1-.42-.1-.4.23-.28-.11-.29.22-.44-.13-.47.31-.83-.12-.32.11-.28-.34-.39.21-.26-.43-.46,0-.3.48V84l.33.22.77.26-.23.91.08.79-.46.08-.35-.46-.72.18.32.54-.23.66,0,1,.31.85-.27.53-.2.81-.35.26-.68.23-.6.52-.36.11-.47-.11-.54.11-.07-.26-.55-.5-.28,0-.36.53-1-.67-1.22-.51-.56,0-.42-.27-.89-.28-.5-.42-.68-.11-.22-.24.15-.46-.4-.66-1.08-.68.41-.77-.32-1-.69,0-.31.43.56.65-.27.36-.5.13-.54.36-.47,0-.24-.55-.63.1-.24.38L233,87l-.12.49L232,88l-.07.37-.7,0-.28-.62-.59-.13-.46.15v-.73l.13-.45.36.2.06-.44.29-.22.43,0,.24-.47-.27-.68.25-.48-.47-.28h-.4l-.39-.2-.79,0-.5-.38v-.37l-.41-.26L227.33,83l-.37-.53-1.27.72-.24-.1.31-.79-.08-.73-.24-.59L225,80.8l-.48.37h-.47l.07-2.25,2.14,0,.53-.26-.32-.5h-.23l-.63-.71.72-.33.19-1.09-.1-.61h.44l-.1-.48.18-.19.18-.64h.27l.33.31.75.31.35-.06.2-.56-.11-.77.26-.48.27-.13.21-.44.65-.83.23.49.5-.16.51,0,.45.16.55,0,.38.4.21.73.56.68.76-.14.67.41,0,.59.45.48.4.1-.06,1.08.29.11.83,0,.27.48.6.12.16.82-.19.46.41,0,.55.28.08-.64.42-.87,0-.31.32-.41.35.16.4-.38H241l.39-.63-.15-.47-.24-.14-.59.35-.57-.55-.5-.1-.23-.33-.06-.53-.24-.42-.39-.19.34-.68-.23-.69.47-.63.53-.21.1-.25.7-.36.55-.61.51,0,.28-.33.41.19.54-.43,0-.28,1.28.12.21.2h.6l1,.46.49.07-.1.56.2.43.73.37.19.33.55-.28.33.23.61.13.18.27,1.06.89.84-.22.46-.4,1.19-.35,1.42-1,.4.1.28-.45.46,0,.41-.74.21-.86,1.85-.15.78.18.11.6-.19.38.13.78-1.33.72.92.37,0,.61.28.83.58.43.47-.38.68.06.56.44.75-.09.43-.28.4.31.16.51-.18.61-.35.08v.49h.44l.4.24L262,76l-.46.15-.06.52-.37-.12-.41.16.08.45.44.53.53-.09.18.61-.37.08-.4,1.19,0,.44.2.33v.42l.78,0v-.44l.29-.17.23.45.37.27.37-.39.07-.35.4.22.72-.21.23-.68,0-1.31Zm-7.52.31-.67.15-.19.63.62.89.57.16.33-.29.27-.7-.22-.75Zm25.05-2.11-.36.17-.53-.08-.32.5-.07.56.63.14.36-.1.26.25.28-.22-.17-.39.16-.66Z" fill="#c6c6c6" stroke="#fff" stroke-linecap="round" stroke-linejoin="round" stroke-width="0.5"/><path d="M242.83,111.71l-.48-.09-2.72,0-.44-.06H238l-.68-.54,0-.78-.17-.08L236,109.07l0-2.06.31-.39-.18-.93.17-.46-2.13-.71h-.61l-.66.54-.36-.19-.23-.44.14-.5-1.35-.91v-.4l-.86-1.38-.08-.62.09-.36-.13-.53-.34-.33-.46-1-.05-.47,1,.24.88-.15.18-.55.49-.11-.1-.58.09-1.37-.13-.35-.72-.6-1.06.1.46-.69-.62-.69-.25-.6.15-.83.49-.22.64.23.44.59.65,0,.22-.28.47.16.58-.05-.33-.41.28-.37.14-1.2-.6-.6H231.3l.36-.39,0-.59-.36-.22.7,0L232,88l.86-.53L233,87l.31.1.24-.38.63-.1.24.55.47,0,.54-.36.5-.13.27-.36-.56-.65.31-.43.69,0,.32,1-.41.77,1.08.68.4.66-.15.46.22.24.68.11.5.42.89.28.42.27.56,0,1.22.51,1,.67.36-.53.28,0,.55.5.07.26.54-.11.47.11.36-.11.6-.52.68-.23.35-.26.2-.81.27-.53-.31-.85,0-1,.23-.66-.32-.54.72-.18.35.46.46-.08-.08-.79.23-.91-.77-.26-.33-.22v-.61l.3-.48.46,0,.26.43.39-.21.28.34.32-.11.83.12.47-.31.44.13.29-.22.28.11.4-.23.42.1.62-.1.33.27,0,.51.29.33.6-.33.27-1,.43-.17.65.2.36.58-.11.47.47.48-.25.21,0,.49-.36-.07-.3-.93-.37.25.33.51,0,.35.32.53-.57,1.18-.26.16-.15.39-.35.26-.23.56-.08.63.18.58-.62.26-.23.56-.21.15-.11.54-1.16.69-.19.22-.1,1,.38.45.88-.29.12-.28.63-.76.26.25.47,0,.27.26h.48l.27-.26.45.23.31.68.18,1-.53.35,0,.29.5.22.35.32.47,0,.14.2.81.23.07.31h.76l.46,1.85-.3.67.19.54-.57.29-.53-.16-.63-1-.74-.71-.47,0-1-.35-.67.07-.34.33,0,1.35-.29.12-.58,1.12-.26.16.35.36.35.09-.36.54-.8-.18-1-1.62.05-.32.61,0,.2-.28-.19-.36.3-.54.54-.21.06-.41-.37-.38-.54.13-.15-.34-.71-.27-.26-.3-.34.2-.41-.31-.3.06-.46.6-.07.51.3.37.09.53-.08.41-.45.72.18,1.13.29-.13.44.37.47,0,.37,1.2.5.32-.1.41-1.05.53.12.57-.09.83-.24.36v.93l-.34.07-.31-.24-.46-.06-.33-.21-.4,0-.12.24-.81.33-.73.39-.55,0-.35-.25-.55-.14-.25.14-.72.05-1-.06-.4.62-.24,1,0,1.34-.25.61h-1.32l.25.77-.17.17Z" fill="#c6c6c6" stroke="#fff" stroke-linecap="round" stroke-linejoin="round" stroke-width="0.5"/><path d="M260.05,118.25l.93-.52.47-.15.83-1.25.72-1.23-.15-.54.36-.91.08-.5.2-.21,1.3-2.91,0-.41.15-.9,1-2.7.26-.47.66-.81.47.23.55.08,2.59-.41.73-.87.87-.46.57-.45.65-.2-.34-.9,0-1.3-.09-.64.1-1.38-.17-.86,0-.37.28-.54,1.24-1.28.44,0,.7.49.94.42.58.15.65.57.66.75.52-.49.35-.65.58-.37.3.25.55-.12.46-.27v-.38l.41-.77.15-1,.63-.87,0-.32.34-.65,0-.89-.08-.2-2.19-.87-.21-.88.65-1.75-.33-.51.11-1.71.16-.87.56-.88V82.8l.31-.49,1.06-.85.34-.18.44.72,1.3.32.2.27.27,1.45.35.69.33.21.29-.35.24-.83.24-.5.84-.26.21-.89-.1-.59-.44-.44,0-.68.16-.34-1.18-1.28-.42-.66-.33-.24.26-.38-.29-.26-.32-.67L285,76l.75-.54.53-.2.53-.35.19-.36.48-.09.21.16.43-.21.07-.27-.31-.37-.27.22-1.21-.52-.26-.34-.34,0-1.08.39-1.15,0-.64-.47-.48.07-1.12,1.13-.9-.44-.24,0-.9.61-.1.93-.59-.07-.08-.24-.74.11-.36.3L276.1,75l-.5,0-.68.54-.64.24-.31.25-.63.25-.83.08-.11-.61.44.08.5-.15-.27-.31-.34-.11-1.08.14,0-.64.36-.86.71-1,1.08-1-.43-.77.27-.88.22-1.17.6-2-.07-.59.82-.83.3-.49.26-.68.9-.06,1.37,0,1.14,0,.53-.11.77.22.73.06.77-.39,1.69-.15,1-.32,1-.24.78.14.15.4.3.25.58,0,.19.2-1.11,1.26-.72,1.07.42.83.46.46.15.76.32.95.29.34.65.39.24.27.27.82.43.42.51,0,.32.29.26,1.29.16.36.33.11.42.45.3.52.1.49,1,.59.32-.13,2.78,2.51,4.63,1.54,2.55.84,4.54,1.52,3.11,1.05,3.58,1.21,3.32,1.13,4.32,0,2.75,0-3.13,3-4.09,3.88-3.11,3.17L310,100.11l-2,2.15L305.55,105l-3.07,3.34-3.17-.2-3.85-.24-.91.36-1.23.16-1.42.5-1.22.53-1.18.6-1.25,1-.21.32-.17.67-.41.51-1,.33-.85.09-1.83.42-1.26,0-.89.24-.82.63-.15.48-.34.38-.38.16-.83-.38-1.38.18-.48.19-2.08.06-.33-.13-.52-.52-.39-.56-1.64-1.3-.81.43-2,.76-.07.18-1.49.55-1.32.68-1,.43-.61,1.38-1.36,1.29-.25.68-.44-.31-1.48-.19-.71,0Z" fill="#c6c6c6" stroke="#fff" stroke-linecap="round" stroke-linejoin="round" stroke-width="0.5"/><path d="M266.51,39.31l.05.36-.29.16-.71,0-.38-.15-.31.8-.46.26-.09.56.62.17.51-.1.05.75.3.28-.38.68v.7l.29.52-.07,1.46-.86-.16-.19.69.18.62-.17.69.47.23.35,1.26.21.5,0,.36.32.35.54.93-.58.22-.43.36-.23.84.41.47.12.34-.47.56,0,.61-.41.15-.94,0-.19.27-.45,0-.15-.44h-.49l-.26.2h-.93l-.33-.41-.06-.87-.45-1.24.77-.32-.1-.6.08-.4-.14-.64-.69-.25L260,50l-.59-.31-.16-.7.46-.41L259,48l-.64.2-1-.43.08-.51-.26-.36-.6-.16-.23-.69-.57.25-.11-.25.41-.32-.64-.12-.42.2-.34-.09-.29.36-1.27.22L253,46.1l-.41.2-.37-.25-.75.39-.27-.2-.36.09-.06-.41-.29-.31h-.3l-.24.66-.42.42-.86.35-1.1,0-.32.46-1,.1-1.06-.49-1-.27-.48-.41-.55.51h-1.11l-.29-.36.07-.41-.71-1.83-.2-.21.25-.55-.3-.85.77-2.33.61-.21.36.09.44-.16h.84l.77.22.28.27.59-.13.07-.48.25-.52.57-.23.69,0,.21.23.48-.43.62,0,.44.2.88-.42.38-.87.43-.22v-.58l.37-.51.31,0,.47-.33.22.1.34.68,1,.45.27-.1.53.16,0,.38.71.92.42.17.19.39,1.22-.17.63-.23h.66l.4-.23.41,0,.5-.29.35-.66h.54l.74.16.19.31,0,.83.21.45.37-.14.1-.49.36-.4.94.18-.12-.68.18-.53.53.05.39.44.58.42.42.07.18.3.58.27.37.34Zm-3.45,6.32-.42.08-.11.43.44.26Z" fill="#c6c6c6" stroke="#fff" stroke-linecap="round" stroke-linejoin="round" stroke-width="0.5"/><path d="M266.56,89.5l-9.75,3.17a10.26,10.26,0,0,1,6.58-12.92,9.78,9.78,0,0,1,3.17-.5Z" fill="#0072bc" stroke="#fff" stroke-miterlimit="10" stroke-width="0.5" fill-rule="evenodd"/><path d="M266.56,89.5l-6,8.3a9.81,9.81,0,0,1-3.72-5.13Z" fill="#9dc5ff" stroke="#fff" stroke-miterlimit="10" stroke-width="0.5" fill-rule="evenodd"/><path d="M266.56,89.5V79.25a10.26,10.26,0,0,1,0,20.51,9.85,9.85,0,0,1-6-2Z" fill="#18375f" stroke="#fff" stroke-miterlimit="10" stroke-width="0.5" fill-rule="evenodd"/><path d="M239.33,98.21l-6.07,2a6.38,6.38,0,0,1,4.1-8,6,6,0,0,1,2-.31Z" fill="#0072bc" stroke="#fff" stroke-miterlimit="10" stroke-width="0.5" fill-rule="evenodd"/><path d="M239.33,98.21l-3.75,5.16a6.1,6.1,0,0,1-2.32-3.19Z" fill="#9dc5ff" stroke="#fff" stroke-miterlimit="10" stroke-width="0.5" fill-rule="evenodd"/><path d="M239.33,98.21V91.83a6.38,6.38,0,0,1,0,12.76,6.1,6.1,0,0,1-3.75-1.22Z" fill="#18375f" stroke="#fff" stroke-miterlimit="10" stroke-width="0.5" fill-rule="evenodd"/><path d="M225.37,87.84l-4.05,1.32a4.27,4.27,0,0,1,2.74-5.37,4.13,4.13,0,0,1,1.31-.21Z" fill="#0072bc" stroke="#fff" stroke-miterlimit="10" stroke-width="0.5" fill-rule="evenodd"/><path d="M225.37,87.84l-2.5,3.44a4.07,4.07,0,0,1-1.55-2.12Z" fill="#9dc5ff" stroke="#fff" stroke-miterlimit="10" stroke-width="0.5" fill-rule="evenodd"/><path d="M225.37,87.84V83.58a4.26,4.26,0,0,1,0,8.52,4,4,0,0,1-2.5-.82Z" fill="#18375f" stroke="#fff" stroke-miterlimit="10" stroke-width="0.5" fill-rule="evenodd"/><path d="M234,66l-2.9.94a3.05,3.05,0,0,1,2.9-4Z" fill="#0072bc" stroke="#fff" stroke-miterlimit="10" stroke-width="0.5" fill-rule="evenodd"/><path d="M234,66l-1.79,2.47a3,3,0,0,1-1.11-1.53Z" fill="#9dc5ff" stroke="#fff" stroke-miterlimit="10" stroke-width="0.5" fill-rule="evenodd"/><path d="M234,66V62.9a3,3,0,1,1,0,6.1,3,3,0,0,1-1.79-.58Z" fill="#18375f" stroke="#fff" stroke-miterlimit="10" stroke-width="0.5" fill-rule="evenodd"/><path d="M249.83,56.52l-2.75.9a2.9,2.9,0,0,1,1.86-3.65,2.67,2.67,0,0,1,.89-.14Z" fill="#0072bc" stroke="#fff" stroke-miterlimit="10" stroke-width="0.5" fill-rule="evenodd"/><path d="M249.83,56.52l-1.7,2.34a2.76,2.76,0,0,1-1-1.44Z" fill="#9dc5ff" stroke="#fff" stroke-miterlimit="10" stroke-width="0.5" fill-rule="evenodd"/><path d="M249.83,56.52V53.63a2.9,2.9,0,1,1,0,5.79,2.75,2.75,0,0,1-1.7-.56Z" fill="#18375f" stroke="#fff" stroke-miterlimit="10" stroke-width="0.5" fill-rule="evenodd"/><path d="M295.15,94.19l-8,2.61a8.45,8.45,0,0,1,5.43-10.64,7.92,7.92,0,0,1,2.61-.41Z" fill="#0072bc" stroke="#fff" stroke-miterlimit="10" stroke-width="0.5" fill-rule="evenodd"/><path d="M295.15,94.19l-5,6.83a8.06,8.06,0,0,1-3.07-4.22Z" fill="#9dc5ff" stroke="#fff" stroke-miterlimit="10" stroke-width="0.5" fill-rule="evenodd"/><path d="M295.15,94.19V85.75a8.45,8.45,0,0,1,0,16.89,8.09,8.09,0,0,1-5-1.62Z" fill="#18375f" stroke="#fff" stroke-miterlimit="10" stroke-width="0.5" fill-rule="evenodd"/><path d="M272.7,56.16l-4.59,1.49a4.82,4.82,0,0,1,3.09-6.08,4.76,4.76,0,0,1,1.5-.24Z" fill="#0072bc" stroke="#fff" stroke-miterlimit="10" stroke-width="0.5" fill-rule="evenodd"/><path d="M272.7,56.16l-2.84,3.9a4.62,4.62,0,0,1-1.75-2.41Z" fill="#9dc5ff" stroke="#fff" stroke-miterlimit="10" stroke-width="0.5" fill-rule="evenodd"/><path d="M272.7,56.16V51.33a4.83,4.83,0,0,1,0,9.66,4.61,4.61,0,0,1-2.84-.93Z" fill="#18375f" stroke="#fff" stroke-miterlimit="10" stroke-width="0.5" fill-rule="evenodd"/><path d="M280.48,74.74,277,75.86a3.64,3.64,0,0,1,2.33-4.57,3.54,3.54,0,0,1,1.12-.17Z" fill="#0072bc" stroke="#fff" stroke-miterlimit="10" stroke-width="0.5" fill-rule="evenodd"/><path d="M280.48,74.74l-2.13,2.92a3.45,3.45,0,0,1-1.32-1.8Z" fill="#9dc5ff" stroke="#fff" stroke-miterlimit="10" stroke-width="0.5" fill-rule="evenodd"/><path d="M280.48,74.74V71.12a3.62,3.62,0,1,1,0,7.24,3.49,3.49,0,0,1-2.13-.7Z" fill="#18375f" stroke="#fff" stroke-miterlimit="10" stroke-width="0.5" fill-rule="evenodd"/><path d="M258.14,42.24l-4.41,1.44a4.63,4.63,0,0,1,3-5.84,4.39,4.39,0,0,1,1.44-.23Z" fill="#6099d1" stroke="#fff" stroke-miterlimit="10" stroke-width="0.5" fill-rule="evenodd"/><path d="M258.14,42.24,255.41,46a4.38,4.38,0,0,1-1.68-2.31Z" fill="#6099d1" stroke="#fff" stroke-miterlimit="10" stroke-width="0.5" fill-rule="evenodd"/><path d="M258.14,42.24V37.61a4.64,4.64,0,0,1,0,9.27,4.4,4.4,0,0,1-2.73-.89Z" fill="#18375f" stroke="#fff" stroke-miterlimit="10" stroke-width="0.5" fill-rule="evenodd"/><rect x="26.5" y="35.5" width="11" height="5" fill="#18375f" stroke="#fff" stroke-linecap="round" stroke-linejoin="round" stroke-width="0.5"/><rect x="26.5" y="42.5" width="11" height="5" fill="#0072bc" stroke="#fff" stroke-linecap="round" stroke-linejoin="round" stroke-width="0.5"/><rect x="26.5" y="49.5" width="11" height="5" fill="#9dc5ff" stroke="#fff" stroke-linecap="round" stroke-linejoin="round" stroke-width="0.5"/><path d="M42.57,40.18l-1-1.38-1,1.38h-.6l1.3-1.73L40,36.8h.61l.94,1.29.94-1.29h.6l-1.22,1.65,1.3,1.73Z" fill="#919191"/><path d="M46,40.18,45,38.8l-1,1.38h-.6l1.29-1.73L43.41,36.8H44L45,38.09l.94-1.29h.6l-1.22,1.65,1.3,1.73Z" fill="#919191"/><path d="M49.39,40.18l-1-1.38-1,1.38h-.6L48,38.45,46.82,36.8h.61l.94,1.29.94-1.29h.6l-1.22,1.65L50,40.18Z" fill="#919191"/><path d="M42.57,47.18l-1-1.38-1,1.38h-.6l1.3-1.73L40,43.8h.61l.94,1.29.94-1.29h.6l-1.22,1.65,1.3,1.73Z" fill="#919191"/><path d="M46,47.18,45,45.8l-1,1.38h-.6l1.29-1.73L43.41,43.8H44L45,45.09l.94-1.29h.6l-1.22,1.65,1.3,1.73Z" fill="#919191"/><path d="M49.39,47.18l-1-1.38-1,1.38h-.6L48,45.45,46.82,43.8h.61l.94,1.29.94-1.29h.6l-1.22,1.65L50,47.18Z" fill="#919191"/><path d="M42.57,54.18l-1-1.38-1,1.38h-.6l1.3-1.73L40,50.8h.61l.94,1.29.94-1.29h.6l-1.22,1.65,1.3,1.73Z" fill="#919191"/><path d="M46,54.18,45,52.8l-1,1.38h-.6l1.29-1.73L43.41,50.8H44L45,52.09l.94-1.29h.6l-1.22,1.65,1.3,1.73Z" fill="#919191"/><path d="M49.39,54.18l-1-1.38-1,1.38h-.6L48,52.45,46.82,50.8h.61l.94,1.29.94-1.29h.6l-1.22,1.65L50,54.18Z" fill="#919191"/></svg>