<svg xmlns="http://www.w3.org/2000/svg" width="350" height="148" viewBox="0 0 350 148"><rect width="350" height="148" fill="#f1f2f2"/><line x1="50.5" y1="33.24" x2="50.5" y2="125" fill="none" stroke="#000" stroke-miterlimit="10" stroke-width="0.5"/><line x1="65.33" y1="33.24" x2="65.33" y2="125" fill="none" stroke="#d0d2d3" stroke-linecap="round" stroke-linejoin="round" stroke-width="0.25"/><line x1="80.16" y1="33.24" x2="80.16" y2="125" fill="none" stroke="#d0d2d3" stroke-linecap="round" stroke-linejoin="round" stroke-width="0.25"/><line x1="95" y1="33.24" x2="95" y2="125" fill="none" stroke="#d0d2d3" stroke-linecap="round" stroke-linejoin="round" stroke-width="0.25"/><line x1="109.83" y1="33.24" x2="109.83" y2="125" fill="none" stroke="#d0d2d3" stroke-linecap="round" stroke-linejoin="round" stroke-width="0.25"/><line x1="124.66" y1="33.24" x2="124.66" y2="125" fill="none" stroke="#d0d2d3" stroke-linecap="round" stroke-linejoin="round" stroke-width="0.25"/><line x1="139.5" y1="33.24" x2="139.5" y2="125" fill="none" stroke="#d0d2d3" stroke-linecap="round" stroke-linejoin="round" stroke-width="0.25"/><rect x="50.87" y="36.17" width="86.26" height="13.12" fill="#9dc5ff"/><rect x="50.87" y="36.17" width="59.34" height="13.12" fill="#0072bb"/><rect x="50.87" y="54.39" width="71.68" height="13.12" fill="#9dc5ff"/><rect x="50.87" y="54.39" width="54.86" height="13.12" fill="#0072bb"/><rect x="50.87" y="72.61" width="67.2" height="13.12" fill="#9dc5ff"/><rect x="50.87" y="72.61" width="50.37" height="13.12" fill="#0072bb"/><rect x="50.87" y="90.83" width="62.71" height="13.12" fill="#9dc5ff"/><rect x="50.87" y="90.83" width="40.63" height="13.12" fill="#0072bb"/><rect x="50.87" y="109.05" width="59.34" height="13.12" fill="#9dc5ff"/><rect x="50.87" y="109.05" width="36.63" height="13.12" fill="#0072bb"/><path d="M49.33,129.78c0-.93.42-2,1.46-2s1.46,1,1.46,2-.42,2-1.46,2S49.33,130.71,49.33,129.78Zm2.44,0c0-.76-.25-1.55-1-1.55s-1,.79-1,1.55.25,1.55,1,1.55S51.77,130.54,51.77,129.78Z" fill="#5e5e5e"/><path d="M58.49,131.68v-.38c1.37-1.08,2.12-1.71,2.12-2.37a.71.71,0,0,0-.8-.7,1.27,1.27,0,0,0-1,.48l-.3-.3a1.65,1.65,0,0,1,1.33-.6,1.16,1.16,0,0,1,1.28,1.12c0,.78-.79,1.49-1.85,2.33h1.87v.42Z" fill="#5e5e5e"/><path d="M61.83,129.78c0-.93.42-2,1.46-2s1.46,1,1.46,2-.41,2-1.46,2S61.83,130.71,61.83,129.78Zm2.44,0c0-.76-.25-1.55-1-1.55s-1,.79-1,1.55.25,1.55,1,1.55S64.27,130.54,64.27,129.78Z" fill="#5e5e5e"/><path d="M65.33,129.78c0-.93.42-2,1.46-2s1.46,1,1.46,2-.42,2-1.46,2S65.33,130.71,65.33,129.78Zm2.44,0c0-.76-.25-1.55-1-1.55s-1,.79-1,1.55.25,1.55,1,1.55S67.77,130.54,67.77,129.78Z" fill="#5e5e5e"/><path d="M76.35,131.68v-1H74.54v-.4l1.63-2.45h.66v2.43h.53v.42h-.53v1Zm0-3.37-1.34,2h1.34Z" fill="#5e5e5e"/><path d="M77.83,129.78c0-.93.42-2,1.46-2s1.46,1,1.46,2-.41,2-1.46,2S77.83,130.71,77.83,129.78Zm2.44,0c0-.76-.25-1.55-1-1.55s-1,.79-1,1.55.25,1.55,1,1.55S80.27,130.54,80.27,129.78Z" fill="#5e5e5e"/><path d="M81.33,129.78c0-.93.42-2,1.46-2s1.46,1,1.46,2-.42,2-1.46,2S81.33,130.71,81.33,129.78Zm2.44,0c0-.76-.25-1.55-1-1.55s-1,.79-1,1.55.25,1.55,1,1.55S83.77,130.54,83.77,129.78Z" fill="#5e5e5e"/><path d="M89.46,129.78c0-1,.48-2,1.55-2a1.31,1.31,0,0,1,1.06.46l-.24.35a1,1,0,0,0-.82-.39c-.74,0-1.07.75-1.07,1.5v.15a1.37,1.37,0,0,1,1.08-.59,1.15,1.15,0,0,1,1.25,1.21,1.26,1.26,0,0,1-1.34,1.25C89.86,131.75,89.46,130.82,89.46,129.78Zm2.33.74a.79.79,0,0,0-.88-.82,1.18,1.18,0,0,0-1,.56,1,1,0,0,0,1,1.07A.84.84,0,0,0,91.79,130.52Z" fill="#5e5e5e"/><path d="M92.83,129.78c0-.93.42-2,1.46-2s1.46,1,1.46,2-.41,2-1.46,2S92.83,130.71,92.83,129.78Zm2.44,0c0-.76-.25-1.55-1-1.55s-1,.79-1,1.55.25,1.55,1,1.55S95.27,130.54,95.27,129.78Z" fill="#5e5e5e"/><path d="M96.33,129.78c0-.93.42-2,1.46-2s1.46,1,1.46,2-.42,2-1.46,2S96.33,130.71,96.33,129.78Zm2.44,0c0-.76-.25-1.55-1-1.55s-1,.79-1,1.55.25,1.55,1,1.55S98.77,130.54,98.77,129.78Z" fill="#5e5e5e"/><path d="M104.51,130.72a1.15,1.15,0,0,1,.91-1,1,1,0,0,1-.84-.91c0-.69.67-1,1.3-1s1.31.3,1.31,1a1,1,0,0,1-.85.91,1.15,1.15,0,0,1,.91,1c0,.64-.62,1-1.37,1S104.51,131.37,104.51,130.72Zm2.26-.05c0-.5-.65-.71-.89-.74s-.89.24-.89.74.42.66.89.66S106.77,131.08,106.77,130.67Zm-.06-1.81c0-.39-.37-.63-.83-.63s-.82.24-.82.63.59.62.82.66S106.71,129.33,106.71,128.86Z" fill="#5e5e5e"/><path d="M107.83,129.78c0-.93.42-2,1.46-2s1.46,1,1.46,2-.41,2-1.46,2S107.83,130.71,107.83,129.78Zm2.44,0c0-.76-.25-1.55-1-1.55s-1,.79-1,1.55.25,1.55,1,1.55S110.27,130.54,110.27,129.78Z" fill="#5e5e5e"/><path d="M111.33,129.78c0-.93.42-2,1.46-2s1.46,1,1.46,2-.42,2-1.46,2S111.33,130.71,111.33,129.78Zm2.44,0c0-.76-.25-1.55-1-1.55s-1,.79-1,1.55.25,1.55,1,1.55S113.77,130.54,113.77,129.78Z" fill="#5e5e5e"/><path d="M119.12,131.68v-3.19l-.61.65-.28-.29,1-1h.42v3.81Z" fill="#5e5e5e"/><path d="M120.34,129.78c0-.93.41-2,1.46-2s1.45,1,1.45,2-.41,2-1.45,2S120.34,130.71,120.34,129.78Zm2.43,0c0-.76-.25-1.55-1-1.55s-1,.79-1,1.55.25,1.55,1,1.55S122.77,130.54,122.77,129.78Z" fill="#5e5e5e"/><path d="M123.83,129.78c0-.93.42-2,1.46-2s1.46,1,1.46,2-.41,2-1.46,2S123.83,130.71,123.83,129.78Zm2.44,0c0-.76-.25-1.55-1-1.55s-1,.79-1,1.55.25,1.55,1,1.55S126.27,130.54,126.27,129.78Z" fill="#5e5e5e"/><path d="M127.33,129.78c0-.93.42-2,1.46-2s1.46,1,1.46,2-.42,2-1.46,2S127.33,130.71,127.33,129.78Zm2.44,0c0-.76-.25-1.55-1-1.55s-1,.79-1,1.55.25,1.55,1,1.55S129.77,130.54,129.77,129.78Z" fill="#5e5e5e"/><path d="M134.26,131.68v-3.19l-.61.65-.29-.29,1-1h.42v3.81Z" fill="#5e5e5e"/><path d="M135.49,131.68v-.38c1.37-1.08,2.12-1.71,2.12-2.37a.71.71,0,0,0-.8-.7,1.27,1.27,0,0,0-1,.48l-.3-.3a1.65,1.65,0,0,1,1.33-.6,1.16,1.16,0,0,1,1.28,1.12c0,.78-.79,1.49-1.85,2.33h1.87v.42Z" fill="#5e5e5e"/><path d="M138.83,129.78c0-.93.42-2,1.46-2s1.46,1,1.46,2-.41,2-1.46,2S138.83,130.71,138.83,129.78Zm2.44,0c0-.76-.25-1.55-1-1.55s-1,.79-1,1.55.25,1.55,1,1.55S141.27,130.54,141.27,129.78Z" fill="#5e5e5e"/><path d="M142.33,129.78c0-.93.42-2,1.46-2s1.46,1,1.46,2-.42,2-1.46,2S142.33,130.71,142.33,129.78Zm2.44,0c0-.76-.25-1.55-1-1.55s-1,.79-1,1.55.25,1.55,1,1.55S144.77,130.54,144.77,129.78Z" fill="#5e5e5e"/><rect x="34.46" y="114.16" width="10.03" height="3.15" fill="#bbbdbf"/><rect x="34.46" y="96.16" width="10.03" height="3.15" fill="#bbbdbf"/><rect x="34.46" y="79.16" width="10.03" height="3.15" fill="#bbbdbf"/><rect x="34.46" y="61.16" width="10.03" height="3.15" fill="#bbbdbf"/><rect x="34.46" y="41.16" width="10.03" height="3.15" fill="#bbbdbf"/><line x1="224.96" y1="33.24" x2="224.96" y2="125" fill="none" stroke="#000" stroke-miterlimit="10" stroke-width="0.5"/><line x1="244.8" y1="33.24" x2="244.8" y2="125" fill="none" stroke="#d0d2d3" stroke-linecap="round" stroke-linejoin="round" stroke-width="0.25"/><line x1="264.63" y1="33.24" x2="264.63" y2="125" fill="none" stroke="#d0d2d3" stroke-linecap="round" stroke-linejoin="round" stroke-width="0.25"/><line x1="284.47" y1="33.24" x2="284.47" y2="125" fill="none" stroke="#d0d2d3" stroke-linecap="round" stroke-linejoin="round" stroke-width="0.25"/><line x1="304.31" y1="33.24" x2="304.31" y2="125" fill="none" stroke="#d0d2d3" stroke-linecap="round" stroke-linejoin="round" stroke-width="0.25"/><rect x="225.29" y="36.17" width="75.91" height="13.12" fill="#9dc5ff"/><rect x="225.29" y="36.17" width="38.91" height="13.12" fill="#0072bb"/><rect x="225.29" y="54.39" width="56.91" height="13.12" fill="#9dc5ff"/><rect x="225.29" y="54.39" width="34.91" height="13.12" fill="#0072bb"/><rect x="225.29" y="72.61" width="50.91" height="13.12" fill="#9dc5ff"/><rect x="225.29" y="72.61" width="25.91" height="13.12" fill="#0072bb"/><rect x="225.29" y="90.83" width="45.91" height="13.12" fill="#9dc5ff"/><rect x="225.29" y="90.83" width="16.91" height="13.12" fill="#0072bb"/><rect x="225.29" y="109.05" width="38.91" height="13.12" fill="#9dc5ff"/><rect x="225.29" y="109.05" width="10.91" height="13.12" fill="#0072bb"/><path d="M221.65,131.58v-1h-1.82v-.39l1.64-2.46h.65v2.44h.54v.41h-.54v1Zm0-3.37-1.34,2h1.34Z" fill="#5e5e5e"/><path d="M223.13,129.68c0-.94.41-2,1.46-2s1.46,1,1.46,2-.42,2-1.46,2S223.13,130.6,223.13,129.68Zm2.43,0c0-.76-.24-1.55-1-1.55s-1,.79-1,1.55.24,1.55,1,1.55S225.56,130.44,225.56,129.68Z" fill="#5e5e5e"/><path d="M226.63,129.68c0-.94.41-2,1.46-2s1.46,1,1.46,2-.42,2-1.46,2S226.63,130.6,226.63,129.68Zm2.43,0c0-.76-.25-1.55-1-1.55s-1,.79-1,1.55.24,1.55,1,1.55S229.06,130.44,229.06,129.68Z" fill="#5e5e5e"/><path d="M239.75,129.68c0-1,.48-2,1.56-2a1.29,1.29,0,0,1,1.05.46l-.24.35a1,1,0,0,0-.81-.39c-.75,0-1.08.75-1.08,1.5v.15a1.39,1.39,0,0,1,1.08-.6,1.16,1.16,0,0,1,1.25,1.22,1.25,1.25,0,0,1-1.33,1.25C240.16,131.65,239.75,130.72,239.75,129.68Zm2.33.74a.78.78,0,0,0-.87-.82,1.17,1.17,0,0,0-1,.56c0,.48.29,1.07,1,1.07A.83.83,0,0,0,242.08,130.42Z" fill="#5e5e5e"/><path d="M243.13,129.68c0-.94.41-2,1.46-2s1.46,1,1.46,2-.42,2-1.46,2S243.13,130.6,243.13,129.68Zm2.43,0c0-.76-.24-1.55-1-1.55s-1,.79-1,1.55.24,1.55,1,1.55S245.56,130.44,245.56,129.68Z" fill="#5e5e5e"/><path d="M246.63,129.68c0-.94.41-2,1.46-2s1.46,1,1.46,2-.42,2-1.46,2S246.63,130.6,246.63,129.68Zm2.43,0c0-.76-.25-1.55-1-1.55s-1,.79-1,1.55.24,1.55,1,1.55S249.06,130.44,249.06,129.68Z" fill="#5e5e5e"/><path d="M259.81,130.61a1.14,1.14,0,0,1,.91-1,1,1,0,0,1-.85-.91c0-.69.67-1,1.31-1s1.31.3,1.31,1a1,1,0,0,1-.86.91,1.14,1.14,0,0,1,.91,1c0,.65-.61,1-1.36,1S259.81,131.27,259.81,130.61Zm2.25-.05c0-.49-.65-.71-.88-.74s-.89.25-.89.74.41.67.89.67S262.06,131,262.06,130.56Zm-.05-1.8c0-.39-.38-.63-.83-.63s-.83.24-.83.63.6.62.83.66S262,129.22,262,128.76Z" fill="#5e5e5e"/><path d="M263.13,129.68c0-.94.41-2,1.46-2s1.46,1,1.46,2-.42,2-1.46,2S263.13,130.6,263.13,129.68Zm2.43,0c0-.76-.24-1.55-1-1.55s-1,.79-1,1.55.24,1.55,1,1.55S265.56,130.44,265.56,129.68Z" fill="#5e5e5e"/><path d="M266.63,129.68c0-.94.41-2,1.46-2s1.46,1,1.46,2-.42,2-1.46,2S266.63,130.6,266.63,129.68Zm2.43,0c0-.76-.25-1.55-1-1.55s-1,.79-1,1.55.24,1.55,1,1.55S269.06,130.44,269.06,129.68Z" fill="#5e5e5e"/><path d="M278.42,131.58v-3.19l-.61.65-.29-.29,1-1h.42v3.82Z" fill="#5e5e5e"/><path d="M279.63,129.68c0-.94.41-2,1.46-2s1.46,1,1.46,2-.42,2-1.46,2S279.63,130.6,279.63,129.68Zm2.43,0c0-.76-.24-1.55-1-1.55s-1,.79-1,1.55.24,1.55,1,1.55S282.06,130.44,282.06,129.68Z" fill="#5e5e5e"/><path d="M283.13,129.68c0-.94.41-2,1.46-2s1.46,1,1.46,2-.42,2-1.46,2S283.13,130.6,283.13,129.68Zm2.43,0c0-.76-.24-1.55-1-1.55s-1,.79-1,1.55.24,1.55,1,1.55S285.56,130.44,285.56,129.68Z" fill="#5e5e5e"/><path d="M286.63,129.68c0-.94.41-2,1.46-2s1.46,1,1.46,2-.42,2-1.46,2S286.63,130.6,286.63,129.68Zm2.43,0c0-.76-.25-1.55-1-1.55s-1,.79-1,1.55.24,1.55,1,1.55S289.06,130.44,289.06,129.68Z" fill="#5e5e5e"/><path d="M298.56,131.58v-3.19L298,129l-.29-.29,1-1H299v3.82Z" fill="#5e5e5e"/><path d="M299.79,131.58v-.38c1.37-1.08,2.12-1.71,2.12-2.37a.72.72,0,0,0-.8-.7,1.31,1.31,0,0,0-1,.48l-.29-.3a1.63,1.63,0,0,1,1.33-.6,1.16,1.16,0,0,1,1.28,1.12c0,.78-.79,1.49-1.85,2.33h1.87v.42Z" fill="#5e5e5e"/><path d="M303.13,129.68c0-.94.41-2,1.46-2s1.46,1,1.46,2-.42,2-1.46,2S303.13,130.6,303.13,129.68Zm2.43,0c0-.76-.24-1.55-1-1.55s-1,.79-1,1.55.24,1.55,1,1.55S305.56,130.44,305.56,129.68Z" fill="#5e5e5e"/><path d="M306.63,129.68c0-.94.41-2,1.46-2s1.46,1,1.46,2-.42,2-1.46,2S306.63,130.6,306.63,129.68Zm2.43,0c0-.76-.25-1.55-1-1.55s-1,.79-1,1.55.24,1.55,1,1.55S309.06,130.44,309.06,129.68Z" fill="#5e5e5e"/><rect x="210.16" y="114.16" width="10.03" height="3.15" fill="#bbbdbf"/><rect x="210.16" y="96.16" width="10.03" height="3.15" fill="#bbbdbf"/><rect x="210.16" y="79.16" width="10.03" height="3.15" fill="#bbbdbf"/><rect x="210.16" y="61.16" width="10.03" height="3.15" fill="#bbbdbf"/><rect x="210.16" y="41.16" width="10.03" height="3.15" fill="#bbbdbf"/><path d="M31.92,21.87V14.54h2.5a3.56,3.56,0,0,1,3.76,3.67,3.54,3.54,0,0,1-3.76,3.66Zm5.32-3.66a2.69,2.69,0,0,0-2.82-2.86H32.83v5.71h1.59A2.7,2.7,0,0,0,37.24,18.21Z" fill="#0072bc"/><path d="M39.26,19.21a2.63,2.63,0,1,1,5.26,0,2.63,2.63,0,1,1-5.26,0Zm4.39,0a1.78,1.78,0,1,0-3.52,0,1.78,1.78,0,1,0,3.52,0Z" fill="#0072bc"/><circle cx="17.55" cy="17.55" r="7.55" fill="#9dc5ff"/><circle cx="17.55" cy="17.55" r="4.8" fill="#0072bc"/><polyline points="14.8 17.55 16.63 19.38 20.29 15.72" fill="none" stroke="#fff" stroke-linecap="round" stroke-linejoin="round" stroke-width="0.75"/><path d="M201.92,21.87V14.54h2.5a3.56,3.56,0,0,1,3.76,3.67,3.54,3.54,0,0,1-3.76,3.66Zm5.32-3.66a2.69,2.69,0,0,0-2.82-2.86h-1.59v5.71h1.59A2.7,2.7,0,0,0,207.24,18.21Z" fill="#ef4a60"/><path d="M209.27,19.21a2.63,2.63,0,1,1,5.25,0,2.63,2.63,0,1,1-5.25,0Zm4.38,0a1.78,1.78,0,1,0-3.52,0,1.78,1.78,0,1,0,3.52,0Z" fill="#ef4a60"/><path d="M219.44,21.87V18.4c0-.95-.48-1.23-1.19-1.23a2.06,2.06,0,0,0-1.57.82v3.88h-.83V16.56h.83v.77a2.58,2.58,0,0,1,1.9-.9,1.5,1.5,0,0,1,1.68,1.71v3.73Z" fill="#ef4a60"/><path d="M222.07,16.93l-.42-.35a1.65,1.65,0,0,0,.71-1l-.15,0a.53.53,0,0,1-.53-.56.6.6,0,0,1,.59-.59c.37,0,.69.3.69.84A2.14,2.14,0,0,1,222.07,16.93Z" fill="#ef4a60"/><path d="M224.54,20.76V17.29h-.88v-.73h.88V15.11h.83v1.45h1.08v.73h-1.08v3.29c0,.4.18.68.53.68a.75.75,0,0,0,.56-.23l.24.63a1.32,1.32,0,0,1-1,.34A1.08,1.08,0,0,1,224.54,20.76Z" fill="#ef4a60"/><circle cx="187.55" cy="17.55" r="7.55" fill="#ffbcc1"/><circle cx="187.55" cy="17.55" r="4.8" fill="#ef4a60"/><line x1="189.55" y1="15.55" x2="185.55" y2="19.55" fill="none" stroke="#fff" stroke-linecap="round" stroke-linejoin="round" stroke-width="0.75"/><line x1="189.55" y1="19.55" x2="185.55" y2="15.55" fill="none" stroke="#fff" stroke-linecap="round" stroke-linejoin="round" stroke-width="0.75"/></svg>