<svg xmlns="http://www.w3.org/2000/svg" width="350" height="148" viewBox="0 0 350 148"><rect width="350" height="148" fill="#f1f2f2"/><line x1="49.21" y1="36" x2="49.21" y2="123" fill="none" stroke="#000" stroke-miterlimit="10" stroke-width="0.5"/><line x1="64.87" y1="36" x2="64.87" y2="123" fill="none" stroke="#d0d2d3" stroke-linecap="round" stroke-linejoin="round" stroke-width="0.25"/><line x1="80.58" y1="36" x2="80.58" y2="123" fill="none" stroke="#d0d2d3" stroke-linecap="round" stroke-linejoin="round" stroke-width="0.25"/><line x1="96.3" y1="36" x2="96.3" y2="123" fill="none" stroke="#d0d2d3" stroke-linecap="round" stroke-linejoin="round" stroke-width="0.25"/><line x1="112.02" y1="36" x2="112.02" y2="123" fill="none" stroke="#d0d2d3" stroke-linecap="round" stroke-linejoin="round" stroke-width="0.25"/><line x1="127.74" y1="36" x2="127.74" y2="123" fill="none" stroke="#d0d2d3" stroke-linecap="round" stroke-linejoin="round" stroke-width="0.25"/><line x1="143.46" y1="36" x2="143.46" y2="123" fill="none" stroke="#d0d2d3" stroke-linecap="round" stroke-linejoin="round" stroke-width="0.25"/><rect x="49.54" y="38.78" width="91.41" height="12.44" fill="#0072bb"/><rect x="49.54" y="56.05" width="69.91" height="12.44" fill="#0072bb"/><rect x="49.54" y="73.33" width="62.91" height="12.44" fill="#0072bb"/><rect x="49.54" y="90.6" width="49.91" height="12.44" fill="#0072bb"/><rect x="49.54" y="107.88" width="37.91" height="12.44" fill="#0072bb"/><rect x="31.42" y="43.16" width="10.03" height="3.15" fill="#bbbdbf"/><rect x="31.42" y="61.38" width="10.03" height="3.15" fill="#bbbdbf"/><rect x="31.42" y="78.24" width="10.03" height="3.15" fill="#bbbdbf"/><rect x="31.42" y="95.24" width="10.03" height="3.15" fill="#bbbdbf"/><rect x="31.42" y="112.24" width="10.03" height="3.15" fill="#bbbdbf"/><rect x="59.42" y="125.24" width="10.03" height="3.15" fill="#bbbdbf"/><rect x="43.42" y="125.24" width="10.03" height="3.15" fill="#bbbdbf"/><rect x="91.42" y="125.24" width="10.03" height="3.15" fill="#bbbdbf"/><rect x="75.42" y="125.24" width="10.03" height="3.15" fill="#bbbdbf"/><rect x="122.42" y="125.24" width="10.03" height="3.15" fill="#bbbdbf"/><rect x="107.42" y="125.24" width="10.03" height="3.15" fill="#bbbdbf"/><rect x="138.55" y="125.24" width="10.03" height="3.15" fill="#bbbdbf"/><line x1="218.97" y1="36" x2="218.97" y2="123" fill="none" stroke="#000" stroke-miterlimit="10" stroke-width="0.5"/><line x1="234.62" y1="36" x2="234.62" y2="123" fill="none" stroke="#d0d2d3" stroke-linecap="round" stroke-linejoin="round" stroke-width="0.25"/><line x1="250.34" y1="36" x2="250.34" y2="123" fill="none" stroke="#d0d2d3" stroke-linecap="round" stroke-linejoin="round" stroke-width="0.25"/><line x1="266.06" y1="36" x2="266.06" y2="123" fill="none" stroke="#d0d2d3" stroke-linecap="round" stroke-linejoin="round" stroke-width="0.25"/><line x1="281.78" y1="36" x2="281.78" y2="123" fill="none" stroke="#d0d2d3" stroke-linecap="round" stroke-linejoin="round" stroke-width="0.25"/><line x1="297.5" y1="36" x2="297.5" y2="123" fill="none" stroke="#d0d2d3" stroke-linecap="round" stroke-linejoin="round" stroke-width="0.25"/><line x1="313.21" y1="36" x2="313.21" y2="123" fill="none" stroke="#d0d2d3" stroke-linecap="round" stroke-linejoin="round" stroke-width="0.25"/><rect x="219.3" y="38.78" width="91.41" height="12.44" fill="#0072bb"/><rect x="219.3" y="56.05" width="69.91" height="12.44" fill="#0072bb"/><rect x="219.3" y="73.33" width="62.91" height="12.44" fill="#0072bb"/><rect x="219.3" y="90.6" width="49.91" height="12.44" fill="#0072bb"/><rect x="219.3" y="107.88" width="37.91" height="12.44" fill="#0072bb"/><rect x="201.18" y="43.16" width="10.03" height="3.15" fill="#bbbdbf"/><rect x="201.18" y="61.38" width="10.03" height="3.15" fill="#bbbdbf"/><rect x="201.18" y="78.24" width="10.03" height="3.15" fill="#bbbdbf"/><rect x="201.18" y="95.24" width="10.03" height="3.15" fill="#bbbdbf"/><rect x="201.18" y="112.24" width="10.03" height="3.15" fill="#bbbdbf"/><rect x="229.18" y="125.24" width="10.03" height="3.15" fill="#bbbdbf"/><rect x="213.18" y="125.24" width="10.03" height="3.15" fill="#bbbdbf"/><rect x="261.18" y="125.24" width="10.03" height="3.15" fill="#bbbdbf"/><rect x="245.18" y="125.24" width="10.03" height="3.15" fill="#bbbdbf"/><rect x="292.18" y="125.24" width="10.03" height="3.15" fill="#bbbdbf"/><rect x="277.18" y="125.24" width="10.03" height="3.15" fill="#bbbdbf"/><rect x="308.31" y="125.24" width="10.03" height="3.15" fill="#bbbdbf"/><path d="M312.64,46.1V42.91l-.61.65-.29-.29,1-1h.41V46.1Z" fill="#5e5e5e"/><path d="M314.58,46.1V42.91l-.62.65-.28-.29.95-1h.42V46.1Z" fill="#5e5e5e"/><path d="M315.79,45.13a1.13,1.13,0,0,1,.91-1,1,1,0,0,1-.84-.91c0-.69.67-1,1.3-1s1.31.3,1.31,1a1,1,0,0,1-.85.91,1.13,1.13,0,0,1,.91,1c0,.65-.62,1-1.37,1S315.79,45.79,315.79,45.13Zm2.26-.05c0-.5-.65-.71-.89-.74s-.88.24-.88.74.41.67.88.67S318.05,45.49,318.05,45.08Zm-.06-1.8c0-.4-.37-.63-.83-.63s-.82.23-.82.63.59.62.82.66S318,43.74,318,43.28Z" fill="#5e5e5e"/><path d="M291.47,64.13a1.12,1.12,0,0,1,.91-1,1,1,0,0,1-.85-.91c0-.69.67-1,1.3-1s1.32.3,1.32,1c0,.49-.42.78-.86.91a1.12,1.12,0,0,1,.91,1c0,.65-.62,1-1.37,1S291.47,64.79,291.47,64.13Zm2.25,0c0-.5-.65-.71-.89-.74s-.88.24-.88.74.41.67.88.67S293.72,64.49,293.72,64.08Zm-.05-1.8c0-.4-.38-.63-.84-.63s-.82.23-.82.63.6.62.82.66S293.67,62.74,293.67,62.28Z" fill="#5e5e5e"/><path d="M294.79,64.13a1.13,1.13,0,0,1,.91-1,1,1,0,0,1-.84-.91c0-.69.67-1,1.3-1s1.31.3,1.31,1a1,1,0,0,1-.85.91,1.13,1.13,0,0,1,.91,1c0,.65-.62,1-1.37,1S294.79,64.79,294.79,64.13Zm2.26,0c0-.5-.65-.71-.89-.74s-.88.24-.88.74.41.67.88.67S297.05,64.49,297.05,64.08Zm-.06-1.8c0-.4-.37-.63-.83-.63s-.82.23-.82.63.59.62.82.66S297,62.74,297,62.28Z" fill="#5e5e5e"/><path d="M284.3,81.13a1.12,1.12,0,0,1,.91-1,1,1,0,0,1-.85-.91c0-.69.67-1,1.3-1s1.31.3,1.31,1a1,1,0,0,1-.85.91,1.12,1.12,0,0,1,.91,1c0,.65-.62,1-1.37,1S284.3,81.79,284.3,81.13Zm2.25,0c0-.5-.65-.71-.89-.74s-.88.24-.88.74.41.67.88.67S286.55,81.49,286.55,81.08Zm-.06-1.8c0-.4-.37-.63-.83-.63s-.82.23-.82.63.6.62.82.66S286.49,79.74,286.49,79.28Z" fill="#5e5e5e"/><path d="M287.62,80.19c0-.93.41-2,1.46-2s1.46,1,1.46,2-.42,2-1.46,2S287.62,81.12,287.62,80.19Zm2.43,0c0-.76-.25-1.54-1-1.54s-1,.78-1,1.54.25,1.56,1,1.56S290.05,81,290.05,80.19Z" fill="#5e5e5e"/><path d="M271.55,96.19c0-1,.48-2,1.56-2a1.3,1.3,0,0,1,1.05.45l-.24.36a1,1,0,0,0-.81-.39c-.74,0-1.08.75-1.08,1.5v.15a1.37,1.37,0,0,1,1.09-.6,1.15,1.15,0,0,1,1.24,1.22A1.25,1.25,0,0,1,273,98.17C272,98.17,271.55,97.24,271.55,96.19Zm2.33.75a.79.79,0,0,0-.87-.83,1.18,1.18,0,0,0-1,.57c0,.48.29,1.07,1,1.07A.83.83,0,0,0,273.88,96.94Z" fill="#5e5e5e"/><path d="M274.81,97.54l.28-.3a1.31,1.31,0,0,0,1.06.51c.56,0,.89-.29.89-.72s-.38-.68-1-.68h-.39v-.44h.39c.48,0,.89-.19.89-.63s-.39-.65-.85-.65a1.3,1.3,0,0,0-1,.46l-.26-.29a1.62,1.62,0,0,1,1.31-.59c.73,0,1.29.37,1.29,1a.94.94,0,0,1-.82.89,1,1,0,0,1,.88.94c0,.64-.52,1.1-1.36,1.1A1.61,1.61,0,0,1,274.81,97.54Z" fill="#5e5e5e"/><path d="M261.3,116.1v-1h-1.81v-.39l1.64-2.46h.65v2.43h.54v.42h-.54v1Zm0-3.38-1.33,2h1.33Z" fill="#5e5e5e"/><path d="M262.79,115.13a1.13,1.13,0,0,1,.91-1,1,1,0,0,1-.84-.91c0-.69.67-1,1.3-1s1.31.3,1.31,1a1,1,0,0,1-.85.91,1.13,1.13,0,0,1,.91,1c0,.65-.62,1-1.37,1S262.79,115.79,262.79,115.13Zm2.26,0c0-.5-.65-.71-.89-.74s-.88.24-.88.74.41.67.88.67S265.05,115.49,265.05,115.08Zm-.06-1.8c0-.4-.37-.63-.83-.63s-.82.23-.82.63.59.62.82.66S265,113.74,265,113.28Z" fill="#5e5e5e"/><path d="M31.92,21.87V14.54h2.5a3.56,3.56,0,0,1,3.76,3.67,3.54,3.54,0,0,1-3.76,3.66Zm5.32-3.66a2.69,2.69,0,0,0-2.82-2.86H32.83v5.71h1.59A2.7,2.7,0,0,0,37.24,18.21Z" fill="#0072bc"/><path d="M39.26,19.21a2.63,2.63,0,1,1,5.26,0,2.63,2.63,0,1,1-5.26,0Zm4.39,0a1.78,1.78,0,1,0-3.52,0,1.78,1.78,0,1,0,3.52,0Z" fill="#0072bc"/><circle cx="17.55" cy="17.55" r="7.55" fill="#9dc5ff"/><circle cx="17.55" cy="17.55" r="4.8" fill="#0072bc"/><polyline points="14.8 17.55 16.63 19.38 20.29 15.72" fill="none" stroke="#fff" stroke-linecap="round" stroke-linejoin="round" stroke-width="0.75"/><path d="M201.92,21.87V14.54h2.5a3.56,3.56,0,0,1,3.76,3.67,3.54,3.54,0,0,1-3.76,3.66Zm5.32-3.66a2.69,2.69,0,0,0-2.82-2.86h-1.59v5.71h1.59A2.7,2.7,0,0,0,207.24,18.21Z" fill="#ef4a60"/><path d="M209.27,19.21a2.63,2.63,0,1,1,5.25,0,2.63,2.63,0,1,1-5.25,0Zm4.38,0a1.78,1.78,0,1,0-3.52,0,1.78,1.78,0,1,0,3.52,0Z" fill="#ef4a60"/><path d="M219.44,21.87V18.4c0-.95-.48-1.23-1.19-1.23a2.06,2.06,0,0,0-1.57.82v3.88h-.83V16.56h.83v.77a2.58,2.58,0,0,1,1.9-.9,1.5,1.5,0,0,1,1.68,1.71v3.73Z" fill="#ef4a60"/><path d="M222.07,16.93l-.42-.35a1.65,1.65,0,0,0,.71-1l-.15,0a.53.53,0,0,1-.53-.56.6.6,0,0,1,.59-.59c.37,0,.69.3.69.84A2.14,2.14,0,0,1,222.07,16.93Z" fill="#ef4a60"/><path d="M224.54,20.76V17.29h-.88v-.73h.88V15.11h.83v1.45h1.08v.73h-1.08v3.29c0,.4.18.68.53.68a.75.75,0,0,0,.56-.23l.24.63a1.32,1.32,0,0,1-1,.34A1.08,1.08,0,0,1,224.54,20.76Z" fill="#ef4a60"/><circle cx="187.55" cy="17.55" r="7.55" fill="#ffbcc1"/><circle cx="187.55" cy="17.55" r="4.8" fill="#ef4a60"/><line x1="189.55" y1="15.55" x2="185.55" y2="19.55" fill="none" stroke="#fff" stroke-linecap="round" stroke-linejoin="round" stroke-width="0.75"/><line x1="189.55" y1="19.55" x2="185.55" y2="15.55" fill="none" stroke="#fff" stroke-linecap="round" stroke-linejoin="round" stroke-width="0.75"/></svg>