<svg xmlns="http://www.w3.org/2000/svg" width="350" height="148" viewBox="0 0 350 148"><rect width="350" height="148" fill="#f1f2f2"/><line x1="47.71" y1="47.24" x2="47.71" y2="122.24" fill="none" stroke="#000" stroke-miterlimit="10" stroke-width="0.5"/><line x1="63.37" y1="47.24" x2="63.37" y2="122.24" fill="none" stroke="#d0d2d3" stroke-linecap="round" stroke-linejoin="round" stroke-width="0.25"/><line x1="79.08" y1="47.24" x2="79.08" y2="122.24" fill="none" stroke="#d0d2d3" stroke-linecap="round" stroke-linejoin="round" stroke-width="0.25"/><line x1="94.8" y1="47.24" x2="94.8" y2="122.24" fill="none" stroke="#d0d2d3" stroke-linecap="round" stroke-linejoin="round" stroke-width="0.25"/><line x1="110.52" y1="47.24" x2="110.52" y2="122.24" fill="none" stroke="#d0d2d3" stroke-linecap="round" stroke-linejoin="round" stroke-width="0.25"/><line x1="126.24" y1="47.24" x2="126.24" y2="122.24" fill="none" stroke="#d0d2d3" stroke-linecap="round" stroke-linejoin="round" stroke-width="0.25"/><line x1="141.96" y1="47.24" x2="141.96" y2="122.24" fill="none" stroke="#d0d2d3" stroke-linecap="round" stroke-linejoin="round" stroke-width="0.25"/><rect x="48.04" y="49.63" width="91.41" height="10.72" fill="#9dc5ff"/><rect x="48.04" y="64.53" width="69.91" height="10.72" fill="#9dc5ff"/><rect x="48.04" y="79.42" width="62.91" height="10.72" fill="#9dc5ff"/><rect x="48.04" y="94.31" width="49.91" height="10.72" fill="#9dc5ff"/><rect x="48.04" y="109.2" width="37.91" height="10.72" fill="#9dc5ff"/><rect x="48.04" y="49.63" width="54.91" height="10.72" fill="#0072bb"/><rect x="48.04" y="64.53" width="42" height="10.72" fill="#0072bb"/><rect x="48.04" y="79.42" width="37.8" height="10.72" fill="#0072bb"/><rect x="48.04" y="94.31" width="29.99" height="10.72" fill="#0072bb"/><rect x="48.04" y="109.2" width="22.78" height="10.72" fill="#0072bb"/><rect x="48.04" y="49.63" width="24.91" height="10.72" fill="#18375f"/><rect x="48.04" y="64.53" width="19.06" height="10.72" fill="#18375f"/><rect x="48.04" y="79.42" width="17.15" height="10.72" fill="#18375f"/><rect x="48.04" y="94.31" width="13.61" height="10.72" fill="#18375f"/><rect x="48.04" y="109.2" width="10.33" height="10.72" fill="#18375f"/><rect x="32.92" y="53.39" width="10.03" height="3.15" fill="#bbbdbf"/><rect x="45.92" y="34.39" width="10.03" height="3.15" fill="#bbbdbf"/><rect x="74.92" y="34.39" width="10.03" height="3.15" fill="#bbbdbf"/><rect x="104.92" y="34.39" width="10.03" height="3.15" fill="#bbbdbf"/><rect x="32.92" y="67.62" width="10.03" height="3.15" fill="#bbbdbf"/><rect x="32.92" y="83.48" width="10.03" height="3.15" fill="#bbbdbf"/><rect x="32.92" y="98.48" width="10.03" height="3.15" fill="#bbbdbf"/><rect x="32.92" y="113.48" width="10.03" height="3.15" fill="#bbbdbf"/><rect x="57.92" y="124.48" width="10.03" height="3.15" fill="#bbbdbf"/><rect x="41.92" y="124.48" width="10.03" height="3.15" fill="#bbbdbf"/><rect x="89.92" y="124.48" width="10.03" height="3.15" fill="#bbbdbf"/><rect x="73.92" y="124.48" width="10.03" height="3.15" fill="#bbbdbf"/><rect x="120.92" y="124.48" width="10.03" height="3.15" fill="#bbbdbf"/><rect x="105.92" y="124.48" width="10.03" height="3.15" fill="#bbbdbf"/><rect x="137.05" y="124.48" width="10.03" height="3.15" fill="#bbbdbf"/><rect x="32.96" y="33.24" width="11" height="6" fill="#18375f"/><rect x="61.96" y="33.24" width="11" height="6" fill="#0072bb"/><rect x="91.96" y="33.24" width="11" height="6" fill="#9dc5ff"/><line x1="217.71" y1="47.24" x2="217.71" y2="122.24" fill="none" stroke="#000" stroke-miterlimit="10" stroke-width="0.5"/><line x1="233.37" y1="47.24" x2="233.37" y2="122.24" fill="none" stroke="#d0d2d3" stroke-linecap="round" stroke-linejoin="round" stroke-width="0.25"/><line x1="249.08" y1="47.24" x2="249.08" y2="122.24" fill="none" stroke="#d0d2d3" stroke-linecap="round" stroke-linejoin="round" stroke-width="0.25"/><line x1="264.8" y1="47.24" x2="264.8" y2="122.24" fill="none" stroke="#d0d2d3" stroke-linecap="round" stroke-linejoin="round" stroke-width="0.25"/><line x1="280.52" y1="47.24" x2="280.52" y2="122.24" fill="none" stroke="#d0d2d3" stroke-linecap="round" stroke-linejoin="round" stroke-width="0.25"/><line x1="296.24" y1="47.24" x2="296.24" y2="122.24" fill="none" stroke="#d0d2d3" stroke-linecap="round" stroke-linejoin="round" stroke-width="0.25"/><line x1="311.96" y1="47.24" x2="311.96" y2="122.24" fill="none" stroke="#d0d2d3" stroke-linecap="round" stroke-linejoin="round" stroke-width="0.25"/><rect x="218.04" y="49.63" width="91.41" height="10.72" fill="#9dc5ff"/><rect x="218.04" y="64.53" width="69.91" height="10.72" fill="#9dc5ff"/><rect x="218.04" y="79.42" width="62.91" height="10.72" fill="#9dc5ff"/><rect x="218.04" y="94.31" width="49.91" height="10.72" fill="#9dc5ff"/><rect x="218.04" y="109.2" width="37.91" height="10.72" fill="#9dc5ff"/><rect x="218.04" y="49.63" width="54.91" height="10.72" fill="#0072bb"/><rect x="218.04" y="64.53" width="42" height="10.72" fill="#0072bb"/><rect x="218.04" y="79.42" width="37.8" height="10.72" fill="#0072bb"/><rect x="218.04" y="94.31" width="29.99" height="10.72" fill="#0072bb"/><rect x="218.04" y="109.2" width="22.78" height="10.72" fill="#0072bb"/><rect x="218.04" y="49.63" width="24.91" height="10.72" fill="#18375f"/><rect x="218.04" y="64.53" width="19.06" height="10.72" fill="#18375f"/><rect x="218.04" y="79.42" width="17.15" height="10.72" fill="#18375f"/><rect x="218.04" y="94.31" width="13.61" height="10.72" fill="#18375f"/><rect x="218.04" y="109.2" width="10.33" height="10.72" fill="#18375f"/><rect x="202.92" y="53.39" width="10.03" height="3.15" fill="#bbbdbf"/><rect x="215.92" y="34.39" width="10.03" height="3.15" fill="#bbbdbf"/><rect x="244.92" y="34.39" width="10.03" height="3.15" fill="#bbbdbf"/><rect x="274.92" y="34.39" width="10.03" height="3.15" fill="#bbbdbf"/><rect x="202.92" y="67.62" width="10.03" height="3.15" fill="#bbbdbf"/><rect x="202.92" y="83.48" width="10.03" height="3.15" fill="#bbbdbf"/><rect x="202.92" y="98.48" width="10.03" height="3.15" fill="#bbbdbf"/><rect x="202.92" y="113.48" width="10.03" height="3.15" fill="#bbbdbf"/><rect x="227.92" y="124.48" width="10.03" height="3.15" fill="#bbbdbf"/><rect x="211.92" y="124.48" width="10.03" height="3.15" fill="#bbbdbf"/><rect x="259.92" y="124.48" width="10.03" height="3.15" fill="#bbbdbf"/><rect x="243.92" y="124.48" width="10.03" height="3.15" fill="#bbbdbf"/><rect x="290.92" y="124.48" width="10.03" height="3.15" fill="#bbbdbf"/><rect x="275.92" y="124.48" width="10.03" height="3.15" fill="#bbbdbf"/><rect x="307.05" y="124.48" width="10.03" height="3.15" fill="#bbbdbf"/><rect x="202.96" y="33.24" width="11" height="6" fill="#0072bc"/><rect x="231.96" y="33.24" width="11" height="6" fill="#9dc5ff"/><rect x="261.96" y="33.24" width="11" height="6" fill="#18375f"/><path d="M31.92,21.87V14.54h2.5a3.56,3.56,0,0,1,3.76,3.67,3.54,3.54,0,0,1-3.76,3.66Zm5.32-3.66a2.69,2.69,0,0,0-2.82-2.86H32.83v5.71h1.59A2.7,2.7,0,0,0,37.24,18.21Z" fill="#0072bc"/><path d="M39.26,19.21a2.63,2.63,0,1,1,5.26,0,2.63,2.63,0,1,1-5.26,0Zm4.39,0a1.78,1.78,0,1,0-3.52,0,1.78,1.78,0,1,0,3.52,0Z" fill="#0072bc"/><circle cx="17.55" cy="17.55" r="7.55" fill="#9dc5ff"/><circle cx="17.55" cy="17.55" r="4.8" fill="#0072bc"/><polyline points="14.8 17.55 16.63 19.38 20.29 15.72" fill="none" stroke="#fff" stroke-linecap="round" stroke-linejoin="round" stroke-width="0.75"/><path d="M201.92,21.87V14.54h2.5a3.56,3.56,0,0,1,3.76,3.67,3.54,3.54,0,0,1-3.76,3.66Zm5.32-3.66a2.69,2.69,0,0,0-2.82-2.86h-1.59v5.71h1.59A2.7,2.7,0,0,0,207.24,18.21Z" fill="#ef4a60"/><path d="M209.27,19.21a2.63,2.63,0,1,1,5.25,0,2.63,2.63,0,1,1-5.25,0Zm4.38,0a1.78,1.78,0,1,0-3.52,0,1.78,1.78,0,1,0,3.52,0Z" fill="#ef4a60"/><path d="M219.44,21.87V18.4c0-.95-.48-1.23-1.19-1.23a2.06,2.06,0,0,0-1.57.82v3.88h-.83V16.56h.83v.77a2.58,2.58,0,0,1,1.9-.9,1.5,1.5,0,0,1,1.68,1.71v3.73Z" fill="#ef4a60"/><path d="M222.07,16.93l-.42-.35a1.65,1.65,0,0,0,.71-1l-.15,0a.53.53,0,0,1-.53-.56.6.6,0,0,1,.59-.59c.37,0,.69.3.69.84A2.14,2.14,0,0,1,222.07,16.93Z" fill="#ef4a60"/><path d="M224.54,20.76V17.29h-.88v-.73h.88V15.11h.83v1.45h1.08v.73h-1.08v3.29c0,.4.18.68.53.68a.75.75,0,0,0,.56-.23l.24.63a1.32,1.32,0,0,1-1,.34A1.08,1.08,0,0,1,224.54,20.76Z" fill="#ef4a60"/><circle cx="187.55" cy="17.55" r="7.55" fill="#ffbcc1"/><circle cx="187.55" cy="17.55" r="4.8" fill="#ef4a60"/><line x1="189.55" y1="15.55" x2="185.55" y2="19.55" fill="none" stroke="#fff" stroke-linecap="round" stroke-linejoin="round" stroke-width="0.75"/><line x1="189.55" y1="19.55" x2="185.55" y2="15.55" fill="none" stroke="#fff" stroke-linecap="round" stroke-linejoin="round" stroke-width="0.75"/></svg>