<svg xmlns="http://www.w3.org/2000/svg" width="350" height="148" viewBox="0 0 350 148"><rect width="350" height="148" fill="#f1f2f2"/><line x1="49.21" y1="33.24" x2="49.21" y2="120.24" fill="none" stroke="#000" stroke-miterlimit="10" stroke-width="0.5"/><line x1="64.87" y1="33.24" x2="64.87" y2="120.24" fill="none" stroke="#d0d2d3" stroke-linecap="round" stroke-linejoin="round" stroke-width="0.25"/><line x1="80.58" y1="33.24" x2="80.58" y2="120.24" fill="none" stroke="#d0d2d3" stroke-linecap="round" stroke-linejoin="round" stroke-width="0.25"/><line x1="96.3" y1="33.24" x2="96.3" y2="120.24" fill="none" stroke="#d0d2d3" stroke-linecap="round" stroke-linejoin="round" stroke-width="0.25"/><line x1="112.02" y1="33.24" x2="112.02" y2="120.24" fill="none" stroke="#d0d2d3" stroke-linecap="round" stroke-linejoin="round" stroke-width="0.25"/><line x1="127.74" y1="33.24" x2="127.74" y2="120.24" fill="none" stroke="#d0d2d3" stroke-linecap="round" stroke-linejoin="round" stroke-width="0.25"/><line x1="143.46" y1="33.24" x2="143.46" y2="120.24" fill="none" stroke="#d0d2d3" stroke-linecap="round" stroke-linejoin="round" stroke-width="0.25"/><rect x="49.54" y="36.02" width="91.41" height="12.44" fill="#9dc5ff"/><rect x="49.54" y="53.29" width="69.91" height="12.44" fill="#9dc5ff"/><rect x="49.54" y="70.57" width="62.91" height="12.44" fill="#9dc5ff"/><rect x="49.54" y="87.84" width="49.91" height="12.44" fill="#9dc5ff"/><rect x="49.54" y="105.12" width="37.91" height="12.44" fill="#9dc5ff"/><rect x="49.54" y="36.02" width="45.7" height="12.44" fill="#0072bb"/><rect x="49.54" y="53.29" width="34.96" height="12.44" fill="#0072bb"/><rect x="49.54" y="70.57" width="31.46" height="12.44" fill="#0072bb"/><rect x="49.54" y="87.84" width="24.96" height="12.44" fill="#0072bb"/><rect x="49.54" y="105.12" width="18.96" height="12.44" fill="#0072bb"/><rect x="31.42" y="58.62" width="10.03" height="3.15" fill="#bbbdbf"/><rect x="31.42" y="40.62" width="10.03" height="3.15" fill="#bbbdbf"/><rect x="31.42" y="75.48" width="10.03" height="3.15" fill="#bbbdbf"/><rect x="31.42" y="92.48" width="10.03" height="3.15" fill="#bbbdbf"/><rect x="31.42" y="109.48" width="10.03" height="3.15" fill="#bbbdbf"/><rect x="59.42" y="122.48" width="10.03" height="3.15" fill="#bbbdbf"/><rect x="43.42" y="122.48" width="10.03" height="3.15" fill="#bbbdbf"/><rect x="91.42" y="122.48" width="10.03" height="3.15" fill="#bbbdbf"/><rect x="75.42" y="122.48" width="10.03" height="3.15" fill="#bbbdbf"/><rect x="122.42" y="122.48" width="10.03" height="3.15" fill="#bbbdbf"/><rect x="107.42" y="122.48" width="10.03" height="3.15" fill="#bbbdbf"/><rect x="138.55" y="122.48" width="10.03" height="3.15" fill="#bbbdbf"/><line x1="219.21" y1="33.24" x2="219.21" y2="120.24" fill="none" stroke="#000" stroke-miterlimit="10" stroke-width="0.5"/><line x1="234.87" y1="33.24" x2="234.87" y2="120.24" fill="none" stroke="#d0d2d3" stroke-linecap="round" stroke-linejoin="round" stroke-width="0.25"/><line x1="250.58" y1="33.24" x2="250.58" y2="120.24" fill="none" stroke="#d0d2d3" stroke-linecap="round" stroke-linejoin="round" stroke-width="0.25"/><line x1="266.3" y1="33.24" x2="266.3" y2="120.24" fill="none" stroke="#d0d2d3" stroke-linecap="round" stroke-linejoin="round" stroke-width="0.25"/><line x1="282.02" y1="33.24" x2="282.02" y2="120.24" fill="none" stroke="#d0d2d3" stroke-linecap="round" stroke-linejoin="round" stroke-width="0.25"/><line x1="297.74" y1="33.24" x2="297.74" y2="120.24" fill="none" stroke="#d0d2d3" stroke-linecap="round" stroke-linejoin="round" stroke-width="0.25"/><line x1="313.46" y1="33.24" x2="313.46" y2="120.24" fill="none" stroke="#d0d2d3" stroke-linecap="round" stroke-linejoin="round" stroke-width="0.25"/><rect x="219.54" y="36.02" width="91.41" height="12.44" fill="#ef4a60"/><rect x="219.54" y="53.29" width="69.91" height="12.44" fill="#ef4a60"/><rect x="219.54" y="70.57" width="62.91" height="12.44" fill="#ef4a60"/><rect x="219.54" y="87.84" width="49.91" height="12.44" fill="#ef4a60"/><rect x="219.54" y="105.12" width="37.91" height="12.44" fill="#ef4a60"/><rect x="219.54" y="36.02" width="82.91" height="12.44" fill="#919191"/><rect x="219.54" y="53.29" width="63.42" height="12.44" fill="#919191"/><rect x="219.54" y="70.57" width="57.07" height="12.44" fill="#919191"/><rect x="219.54" y="87.84" width="45.28" height="12.44" fill="#919191"/><rect x="219.54" y="105.12" width="34.39" height="12.44" fill="#919191"/><rect x="219.54" y="36.02" width="72.91" height="12.44" fill="#00b398"/><rect x="219.54" y="53.29" width="55.77" height="12.44" fill="#00b398"/><rect x="219.54" y="70.57" width="50.19" height="12.44" fill="#00b398"/><rect x="219.54" y="87.84" width="39.82" height="12.44" fill="#00b398"/><rect x="219.54" y="105.12" width="30.24" height="12.44" fill="#00b398"/><rect x="219.54" y="36.02" width="60.91" height="12.44" fill="#9dc5ff"/><rect x="219.54" y="53.29" width="46.59" height="12.44" fill="#9dc5ff"/><rect x="219.54" y="70.57" width="41.93" height="12.44" fill="#9dc5ff"/><rect x="219.54" y="87.84" width="33.26" height="12.44" fill="#9dc5ff"/><rect x="219.54" y="105.12" width="25.27" height="12.44" fill="#9dc5ff"/><rect x="219.54" y="36.02" width="44.91" height="12.44" fill="#0072bb"/><rect x="219.54" y="53.29" width="34.35" height="12.44" fill="#0072bb"/><rect x="219.54" y="70.57" width="30.91" height="12.44" fill="#0072bb"/><rect x="219.54" y="87.84" width="24.53" height="12.44" fill="#0072bb"/><rect x="219.54" y="105.12" width="18.63" height="12.44" fill="#0072bb"/><rect x="219.54" y="36.02" width="22.91" height="12.44" fill="#18375f"/><rect x="219.54" y="53.29" width="17.53" height="12.44" fill="#18375f"/><rect x="219.54" y="70.57" width="15.77" height="12.44" fill="#18375f"/><rect x="219.54" y="87.84" width="12.51" height="12.44" fill="#18375f"/><rect x="219.54" y="105.12" width="9.5" height="12.44" fill="#18375f"/><rect x="201.42" y="58.62" width="10.03" height="3.15" fill="#bbbdbf"/><rect x="201.42" y="40.62" width="10.03" height="3.15" fill="#bbbdbf"/><rect x="201.42" y="75.48" width="10.03" height="3.15" fill="#bbbdbf"/><rect x="201.42" y="92.48" width="10.03" height="3.15" fill="#bbbdbf"/><rect x="201.42" y="109.48" width="10.03" height="3.15" fill="#bbbdbf"/><rect x="229.42" y="122.48" width="10.03" height="3.15" fill="#bbbdbf"/><rect x="213.42" y="122.48" width="10.03" height="3.15" fill="#bbbdbf"/><rect x="261.42" y="122.48" width="10.03" height="3.15" fill="#bbbdbf"/><rect x="245.42" y="122.48" width="10.03" height="3.15" fill="#bbbdbf"/><rect x="292.42" y="122.48" width="10.03" height="3.15" fill="#bbbdbf"/><rect x="277.42" y="122.48" width="10.03" height="3.15" fill="#bbbdbf"/><rect x="308.55" y="122.48" width="10.03" height="3.15" fill="#bbbdbf"/><path d="M31.92,21.87V14.54h2.5a3.56,3.56,0,0,1,3.76,3.67,3.54,3.54,0,0,1-3.76,3.66Zm5.32-3.66a2.69,2.69,0,0,0-2.82-2.86H32.83v5.71h1.59A2.7,2.7,0,0,0,37.24,18.21Z" fill="#0072bc"/><path d="M39.26,19.21a2.63,2.63,0,1,1,5.26,0,2.63,2.63,0,1,1-5.26,0Zm4.39,0a1.78,1.78,0,1,0-3.52,0,1.78,1.78,0,1,0,3.52,0Z" fill="#0072bc"/><circle cx="17.55" cy="17.55" r="7.55" fill="#9dc5ff"/><circle cx="17.55" cy="17.55" r="4.8" fill="#0072bc"/><polyline points="14.8 17.55 16.63 19.38 20.29 15.72" fill="none" stroke="#fff" stroke-linecap="round" stroke-linejoin="round" stroke-width="0.75"/><path d="M201.92,21.87V14.54h2.5a3.56,3.56,0,0,1,3.76,3.67,3.54,3.54,0,0,1-3.76,3.66Zm5.32-3.66a2.69,2.69,0,0,0-2.82-2.86h-1.59v5.71h1.59A2.7,2.7,0,0,0,207.24,18.21Z" fill="#ef4a60"/><path d="M209.26,19.21a2.63,2.63,0,1,1,5.26,0,2.63,2.63,0,1,1-5.26,0Zm4.39,0a1.78,1.78,0,1,0-3.52,0,1.78,1.78,0,1,0,3.52,0Z" fill="#ef4a60"/><path d="M219.44,21.87V18.4c0-.95-.48-1.23-1.19-1.23a2.06,2.06,0,0,0-1.57.82v3.88h-.83V16.56h.83v.77a2.58,2.58,0,0,1,1.9-.9,1.5,1.5,0,0,1,1.68,1.71v3.73Z" fill="#ef4a60"/><path d="M222.07,16.93l-.42-.35a1.65,1.65,0,0,0,.71-1l-.15,0a.53.53,0,0,1-.53-.56.6.6,0,0,1,.58-.59c.38,0,.7.3.7.84A2.14,2.14,0,0,1,222.07,16.93Z" fill="#ef4a60"/><path d="M224.54,20.76V17.29h-.88v-.73h.88V15.11h.83v1.45h1.08v.73h-1.08v3.29c0,.4.18.68.53.68a.75.75,0,0,0,.56-.23l.24.63a1.32,1.32,0,0,1-1,.34A1.08,1.08,0,0,1,224.54,20.76Z" fill="#ef4a60"/><circle cx="187.55" cy="17.55" r="7.55" fill="#ffbcc1"/><circle cx="187.55" cy="17.55" r="4.8" fill="#ef4a60"/><line x1="189.55" y1="15.55" x2="185.55" y2="19.55" fill="none" stroke="#fff" stroke-linecap="round" stroke-linejoin="round" stroke-width="0.75"/><line x1="189.55" y1="19.55" x2="185.55" y2="15.55" fill="none" stroke="#fff" stroke-linecap="round" stroke-linejoin="round" stroke-width="0.75"/></svg>