<svg xmlns="http://www.w3.org/2000/svg" width="350" height="148" viewBox="0 0 350 148"><rect width="350" height="148" fill="#f1f2f2"/><line x1="42.76" y1="38" x2="42.76" y2="125" fill="none" stroke="#000" stroke-miterlimit="10" stroke-width="0.5"/><line x1="58.41" y1="38" x2="58.41" y2="125" fill="none" stroke="#d0d2d3" stroke-linecap="round" stroke-linejoin="round" stroke-width="0.25"/><line x1="74.13" y1="38" x2="74.13" y2="125" fill="none" stroke="#d0d2d3" stroke-linecap="round" stroke-linejoin="round" stroke-width="0.25"/><line x1="89.85" y1="38" x2="89.85" y2="125" fill="none" stroke="#d0d2d3" stroke-linecap="round" stroke-linejoin="round" stroke-width="0.25"/><line x1="105.56" y1="38" x2="105.56" y2="125" fill="none" stroke="#d0d2d3" stroke-linecap="round" stroke-linejoin="round" stroke-width="0.25"/><line x1="121.28" y1="38" x2="121.28" y2="125" fill="none" stroke="#d0d2d3" stroke-linecap="round" stroke-linejoin="round" stroke-width="0.25"/><line x1="137" y1="38" x2="137" y2="125" fill="none" stroke="#d0d2d3" stroke-linecap="round" stroke-linejoin="round" stroke-width="0.25"/><rect x="43.09" y="40.78" width="91.41" height="12.44" fill="#0072bb"/><rect x="43.09" y="58.05" width="69.91" height="12.44" fill="#0072bb"/><rect x="43.09" y="75.33" width="62.91" height="12.44" fill="#0072bb"/><rect x="43.09" y="92.6" width="49.91" height="12.44" fill="#0072bb"/><rect x="43.09" y="109.88" width="37.91" height="12.44" fill="#0072bb"/><rect x="24.96" y="45.16" width="10.03" height="3.15" fill="#bbbdbf"/><rect x="24.96" y="63.38" width="10.03" height="3.15" fill="#bbbdbf"/><rect x="24.96" y="80.24" width="10.03" height="3.15" fill="#bbbdbf"/><rect x="24.96" y="97.24" width="10.03" height="3.15" fill="#bbbdbf"/><rect x="24.96" y="114.24" width="10.03" height="3.15" fill="#bbbdbf"/><rect x="52.96" y="127.24" width="10.03" height="3.15" fill="#bbbdbf"/><rect x="36.96" y="127.24" width="10.03" height="3.15" fill="#bbbdbf"/><rect x="84.96" y="127.24" width="10.03" height="3.15" fill="#bbbdbf"/><rect x="68.96" y="127.24" width="10.03" height="3.15" fill="#bbbdbf"/><rect x="115.96" y="127.24" width="10.03" height="3.15" fill="#bbbdbf"/><rect x="100.96" y="127.24" width="10.03" height="3.15" fill="#bbbdbf"/><rect x="132.1" y="127.24" width="10.03" height="3.15" fill="#bbbdbf"/><line x1="212.76" y1="38" x2="212.76" y2="125" fill="none" stroke="#000" stroke-miterlimit="10" stroke-width="0.5"/><line x1="228.41" y1="38" x2="228.41" y2="125" fill="none" stroke="#d0d2d3" stroke-linecap="round" stroke-linejoin="round" stroke-width="0.25"/><line x1="244.13" y1="38" x2="244.13" y2="125" fill="none" stroke="#d0d2d3" stroke-linecap="round" stroke-linejoin="round" stroke-width="0.25"/><line x1="259.85" y1="38" x2="259.85" y2="125" fill="none" stroke="#d0d2d3" stroke-linecap="round" stroke-linejoin="round" stroke-width="0.25"/><line x1="275.56" y1="38" x2="275.56" y2="125" fill="none" stroke="#d0d2d3" stroke-linecap="round" stroke-linejoin="round" stroke-width="0.25"/><line x1="291.28" y1="38" x2="291.28" y2="125" fill="none" stroke="#d0d2d3" stroke-linecap="round" stroke-linejoin="round" stroke-width="0.25"/><line x1="307" y1="38" x2="307" y2="125" fill="none" stroke="#d0d2d3" stroke-linecap="round" stroke-linejoin="round" stroke-width="0.25"/><rect x="213.09" y="40.78" width="69.91" height="12.44" fill="#0072bb"/><rect x="213.09" y="58.05" width="91.91" height="12.44" fill="#0072bb"/><rect x="213.09" y="75.33" width="36.91" height="12.44" fill="#0072bb"/><rect x="213.09" y="92.6" width="62.91" height="12.44" fill="#0072bb"/><rect x="213.09" y="109.88" width="49.91" height="12.44" fill="#0072bb"/><rect x="194.96" y="45.16" width="10.03" height="3.15" fill="#bbbdbf"/><rect x="194.96" y="63.38" width="10.03" height="3.15" fill="#bbbdbf"/><rect x="194.96" y="80.24" width="10.03" height="3.15" fill="#bbbdbf"/><rect x="194.96" y="97.24" width="10.03" height="3.15" fill="#bbbdbf"/><rect x="194.96" y="114.24" width="10.03" height="3.15" fill="#bbbdbf"/><rect x="222.96" y="127.24" width="10.03" height="3.15" fill="#bbbdbf"/><rect x="206.96" y="127.24" width="10.03" height="3.15" fill="#bbbdbf"/><rect x="254.96" y="127.24" width="10.03" height="3.15" fill="#bbbdbf"/><rect x="238.96" y="127.24" width="10.03" height="3.15" fill="#bbbdbf"/><rect x="285.96" y="127.24" width="10.03" height="3.15" fill="#bbbdbf"/><rect x="270.96" y="127.24" width="10.03" height="3.15" fill="#bbbdbf"/><rect x="302.1" y="127.24" width="10.03" height="3.15" fill="#bbbdbf"/><path d="M31.92,21.87V14.54h2.5a3.56,3.56,0,0,1,3.76,3.67,3.54,3.54,0,0,1-3.76,3.66Zm5.32-3.66a2.69,2.69,0,0,0-2.82-2.86H32.83v5.71h1.59A2.7,2.7,0,0,0,37.24,18.21Z" fill="#0072bc"/><path d="M39.26,19.21a2.63,2.63,0,1,1,5.26,0,2.63,2.63,0,1,1-5.26,0Zm4.39,0a1.78,1.78,0,1,0-3.52,0,1.78,1.78,0,1,0,3.52,0Z" fill="#0072bc"/><circle cx="17.55" cy="17.55" r="7.55" fill="#9dc5ff"/><circle cx="17.55" cy="17.55" r="4.8" fill="#0072bc"/><polyline points="14.8 17.55 16.63 19.38 20.29 15.72" fill="none" stroke="#fff" stroke-linecap="round" stroke-linejoin="round" stroke-width="0.75"/><path d="M201.92,21.87V14.54h2.5a3.56,3.56,0,0,1,3.76,3.67,3.54,3.54,0,0,1-3.76,3.66Zm5.32-3.66a2.69,2.69,0,0,0-2.82-2.86h-1.59v5.71h1.59A2.7,2.7,0,0,0,207.24,18.21Z" fill="#ef4a60"/><path d="M209.26,19.21a2.63,2.63,0,1,1,5.26,0,2.63,2.63,0,1,1-5.26,0Zm4.39,0a1.78,1.78,0,1,0-3.52,0,1.78,1.78,0,1,0,3.52,0Z" fill="#ef4a60"/><path d="M219.44,21.87V18.4c0-.95-.48-1.23-1.19-1.23a2.06,2.06,0,0,0-1.57.82v3.88h-.83V16.56h.83v.77a2.58,2.58,0,0,1,1.9-.9,1.5,1.5,0,0,1,1.68,1.71v3.73Z" fill="#ef4a60"/><path d="M222.07,16.93l-.42-.35a1.65,1.65,0,0,0,.71-1l-.15,0a.53.53,0,0,1-.53-.56.6.6,0,0,1,.58-.59c.38,0,.7.3.7.84A2.14,2.14,0,0,1,222.07,16.93Z" fill="#ef4a60"/><path d="M224.54,20.76V17.29h-.88v-.73h.88V15.11h.83v1.45h1.08v.73h-1.08v3.29c0,.4.18.68.53.68a.75.75,0,0,0,.56-.23l.24.63a1.32,1.32,0,0,1-1,.34A1.08,1.08,0,0,1,224.54,20.76Z" fill="#ef4a60"/><circle cx="187.55" cy="17.55" r="7.55" fill="#ffbcc1"/><circle cx="187.55" cy="17.55" r="4.8" fill="#ef4a60"/><line x1="189.55" y1="15.55" x2="185.55" y2="19.55" fill="none" stroke="#fff" stroke-linecap="round" stroke-linejoin="round" stroke-width="0.75"/><line x1="189.55" y1="19.55" x2="185.55" y2="15.55" fill="none" stroke="#fff" stroke-linecap="round" stroke-linejoin="round" stroke-width="0.75"/></svg>