<svg xmlns="http://www.w3.org/2000/svg" width="350" height="148" viewBox="0 0 350 148"><rect width="350" height="148" fill="#f1f2f2"/><path d="M31.92,21.87V14.54h2.5a3.56,3.56,0,0,1,3.76,3.67,3.54,3.54,0,0,1-3.76,3.66Zm5.32-3.66a2.69,2.69,0,0,0-2.82-2.86H32.83v5.71h1.59A2.7,2.7,0,0,0,37.24,18.21Z" fill="#0072bc"/><path d="M39.26,19.21a2.63,2.63,0,1,1,5.26,0,2.63,2.63,0,1,1-5.26,0Zm4.39,0a1.78,1.78,0,1,0-3.52,0,1.78,1.78,0,1,0,3.52,0Z" fill="#0072bc"/><circle cx="17.55" cy="17.55" r="7.55" fill="#9dc5ff"/><circle cx="17.55" cy="17.55" r="4.8" fill="#0072bc"/><polyline points="14.8 17.55 16.63 19.38 20.29 15.72" fill="none" stroke="#fff" stroke-linecap="round" stroke-linejoin="round" stroke-width="0.75"/><path d="M201.92,21.87V14.54h2.5a3.56,3.56,0,0,1,3.76,3.67,3.54,3.54,0,0,1-3.76,3.66Zm5.32-3.66a2.69,2.69,0,0,0-2.82-2.86h-1.59v5.71h1.59A2.7,2.7,0,0,0,207.24,18.21Z" fill="#ef4a60"/><path d="M209.27,19.21a2.63,2.63,0,1,1,5.25,0,2.63,2.63,0,1,1-5.25,0Zm4.38,0a1.78,1.78,0,1,0-3.52,0,1.78,1.78,0,1,0,3.52,0Z" fill="#ef4a60"/><path d="M219.44,21.87V18.4c0-.95-.48-1.23-1.19-1.23a2.06,2.06,0,0,0-1.57.82v3.88h-.83V16.56h.83v.77a2.58,2.58,0,0,1,1.9-.9,1.5,1.5,0,0,1,1.68,1.71v3.73Z" fill="#ef4a60"/><path d="M222.07,16.93l-.42-.35a1.65,1.65,0,0,0,.71-1l-.15,0a.53.53,0,0,1-.53-.56.6.6,0,0,1,.59-.59c.37,0,.69.3.69.84A2.14,2.14,0,0,1,222.07,16.93Z" fill="#ef4a60"/><path d="M224.54,20.76V17.29h-.88v-.73h.88V15.11h.83v1.45h1.08v.73h-1.08v3.29c0,.4.18.68.53.68a.75.75,0,0,0,.56-.23l.24.63a1.32,1.32,0,0,1-1,.34A1.08,1.08,0,0,1,224.54,20.76Z" fill="#ef4a60"/><circle cx="187.55" cy="17.55" r="7.55" fill="#ffbcc1"/><circle cx="187.55" cy="17.55" r="4.8" fill="#ef4a60"/><line x1="189.55" y1="15.55" x2="185.55" y2="19.55" fill="none" stroke="#fff" stroke-linecap="round" stroke-linejoin="round" stroke-width="0.75"/><line x1="189.55" y1="19.55" x2="185.55" y2="15.55" fill="none" stroke="#fff" stroke-linecap="round" stroke-linejoin="round" stroke-width="0.75"/><line x1="55.73" y1="33.24" x2="55.73" y2="125" fill="none" stroke="#000" stroke-miterlimit="10" stroke-width="0.5"/><line x1="68.96" y1="33.24" x2="68.96" y2="125" fill="none" stroke="#d0d2d3" stroke-linecap="round" stroke-linejoin="round" stroke-width="0.25"/><line x1="82.19" y1="33.24" x2="82.19" y2="125" fill="none" stroke="#d0d2d3" stroke-linecap="round" stroke-linejoin="round" stroke-width="0.25"/><line x1="95.41" y1="33.24" x2="95.41" y2="125" fill="none" stroke="#d0d2d3" stroke-linecap="round" stroke-linejoin="round" stroke-width="0.25"/><line x1="108.64" y1="33.24" x2="108.64" y2="125" fill="none" stroke="#d0d2d3" stroke-linecap="round" stroke-linejoin="round" stroke-width="0.25"/><line x1="121.86" y1="33.24" x2="121.86" y2="125" fill="none" stroke="#d0d2d3" stroke-linecap="round" stroke-linejoin="round" stroke-width="0.25"/><line x1="135.09" y1="33.24" x2="135.09" y2="125" fill="none" stroke="#d0d2d3" stroke-linecap="round" stroke-linejoin="round" stroke-width="0.25"/><rect x="56.06" y="35.17" width="76.91" height="6.56" fill="#0072bb"/><rect x="56.06" y="42.73" width="65.91" height="6.56" fill="#9dc5ff"/><rect x="56.06" y="53.39" width="63.91" height="6.56" fill="#0072bb"/><rect x="56.06" y="60.95" width="59.91" height="6.56" fill="#9dc5ff"/><rect x="56.06" y="71.61" width="59.91" height="6.56" fill="#0072bb"/><rect x="56.06" y="79.17" width="56.91" height="6.56" fill="#9dc5ff"/><rect x="56.06" y="89.83" width="55.91" height="6.56" fill="#0072bb"/><rect x="56.06" y="97.39" width="55.91" height="6.56" fill="#9dc5ff"/><rect x="56.06" y="108.05" width="52.91" height="6.56" fill="#0072bb"/><rect x="56.06" y="115.61" width="52.91" height="6.56" fill="#9dc5ff"/><path d="M53.81,129.78c0-.93.42-2,1.46-2s1.46,1,1.46,2-.41,2-1.46,2S53.81,130.71,53.81,129.78Zm2.44,0c0-.76-.25-1.55-1-1.55s-1,.79-1,1.55.25,1.55,1,1.55S56.25,130.54,56.25,129.78Z" fill="#5e5e5e"/><path d="M67.33,131.68v-1H65.52v-.4l1.63-2.45h.65v2.43h.54v.42H67.8v1Zm0-3.37-1.34,2h1.34Z" fill="#5e5e5e"/><path d="M68.81,129.78c0-.93.42-2,1.46-2s1.46,1,1.46,2-.41,2-1.46,2S68.81,130.71,68.81,129.78Zm2.44,0c0-.76-.25-1.55-1-1.55s-1,.79-1,1.55.25,1.55,1,1.55S71.25,130.54,71.25,129.78Z" fill="#5e5e5e"/><path d="M78.49,130.72a1.15,1.15,0,0,1,.91-1,1,1,0,0,1-.84-.91c0-.69.67-1,1.3-1s1.31.3,1.31,1a1,1,0,0,1-.85.91,1.15,1.15,0,0,1,.91,1c0,.64-.62,1-1.37,1S78.49,131.37,78.49,130.72Zm2.26-.05c0-.5-.65-.71-.89-.74s-.89.24-.89.74.42.66.89.66S80.75,131.08,80.75,130.67Zm-.06-1.81c0-.39-.37-.63-.83-.63s-.82.24-.82.63.59.62.82.66S80.69,129.33,80.69,128.86Z" fill="#5e5e5e"/><path d="M81.81,129.78c0-.93.42-2,1.46-2s1.46,1,1.46,2-.41,2-1.46,2S81.81,130.71,81.81,129.78Zm2.44,0c0-.76-.25-1.55-1-1.55s-1,.79-1,1.55.25,1.55,1,1.55S84.25,130.54,84.25,129.78Z" fill="#5e5e5e"/><path d="M91.24,131.68v-3.19l-.61.65-.29-.29,1-1h.42v3.81Z" fill="#5e5e5e"/><path d="M92.47,131.68v-.38c1.37-1.08,2.12-1.71,2.12-2.37a.71.71,0,0,0-.8-.7,1.27,1.27,0,0,0-1,.48l-.3-.3a1.65,1.65,0,0,1,1.33-.6,1.16,1.16,0,0,1,1.28,1.12c0,.78-.79,1.49-1.85,2.33h1.87v.42Z" fill="#5e5e5e"/><path d="M95.81,129.78c0-.93.42-2,1.46-2s1.46,1,1.46,2-.41,2-1.46,2S95.81,130.71,95.81,129.78Zm2.44,0c0-.76-.25-1.55-1-1.55s-1,.79-1,1.55.25,1.55,1,1.55S98.25,130.54,98.25,129.78Z" fill="#5e5e5e"/><path d="M104.23,131.68v-3.19l-.62.65-.28-.29,1-1h.42v3.81Z" fill="#5e5e5e"/><path d="M105.44,129.78c0-1,.48-2,1.55-2a1.31,1.31,0,0,1,1.06.46l-.24.35a1,1,0,0,0-.82-.39c-.74,0-1.07.75-1.07,1.5v.15a1.37,1.37,0,0,1,1.08-.59,1.15,1.15,0,0,1,1.25,1.21,1.26,1.26,0,0,1-1.34,1.25C105.84,131.75,105.44,130.82,105.44,129.78Zm2.33.74a.79.79,0,0,0-.88-.82,1.18,1.18,0,0,0-1,.56,1,1,0,0,0,1,1.07A.84.84,0,0,0,107.77,130.52Z" fill="#5e5e5e"/><path d="M108.81,129.78c0-.93.42-2,1.46-2s1.46,1,1.46,2-.41,2-1.46,2S108.81,130.71,108.81,129.78Zm2.44,0c0-.76-.25-1.55-1-1.55s-1,.79-1,1.55.25,1.55,1,1.55S111.25,130.54,111.25,129.78Z" fill="#5e5e5e"/><path d="M116,131.68v-.38c1.38-1.08,2.12-1.71,2.12-2.37a.71.71,0,0,0-.8-.7,1.29,1.29,0,0,0-1,.48l-.29-.3a1.63,1.63,0,0,1,1.32-.6,1.17,1.17,0,0,1,1.29,1.12c0,.78-.79,1.49-1.86,2.33h1.87v.42Z" fill="#5e5e5e"/><path d="M119.32,129.78c0-.93.41-2,1.46-2s1.45,1,1.45,2-.41,2-1.45,2S119.32,130.71,119.32,129.78Zm2.43,0c0-.76-.25-1.55-1-1.55s-1,.79-1,1.55.25,1.55,1,1.55S121.75,130.54,121.75,129.78Z" fill="#5e5e5e"/><path d="M122.81,129.78c0-.93.42-2,1.46-2s1.46,1,1.46,2-.41,2-1.46,2S122.81,130.71,122.81,129.78Zm2.44,0c0-.76-.25-1.55-1-1.55s-1,.79-1,1.55.25,1.55,1,1.55S125.25,130.54,125.25,129.78Z" fill="#5e5e5e"/><path d="M130.28,131.68v-.38c1.37-1.08,2.12-1.71,2.12-2.37a.71.71,0,0,0-.8-.7,1.27,1.27,0,0,0-1,.48l-.3-.3a1.65,1.65,0,0,1,1.33-.6,1.16,1.16,0,0,1,1.28,1.12c0,.78-.79,1.49-1.85,2.33h1.87v.42Z" fill="#5e5e5e"/><path d="M135.33,131.68v-1h-1.81v-.4l1.63-2.45h.65v2.43h.54v.42h-.54v1Zm0-3.37-1.34,2h1.34Z" fill="#5e5e5e"/><path d="M136.81,129.78c0-.93.42-2,1.46-2s1.46,1,1.46,2-.41,2-1.46,2S136.81,130.71,136.81,129.78Zm2.44,0c0-.76-.25-1.55-1-1.55s-1,.79-1,1.55.25,1.55,1,1.55S139.25,130.54,139.25,129.78Z" fill="#5e5e5e"/><rect x="39.98" y="40.16" width="10.58" height="3.15" fill="#bbbdbf"/><rect x="39.98" y="58.16" width="10.58" height="3.15" fill="#bbbdbf"/><rect x="39.98" y="77.16" width="10.58" height="3.15" fill="#bbbdbf"/><rect x="39.98" y="95.16" width="10.58" height="3.15" fill="#bbbdbf"/><rect x="39.98" y="113.16" width="10.58" height="3.15" fill="#bbbdbf"/><line x1="225.44" y1="33.24" x2="225.44" y2="125" fill="none" stroke="#000" stroke-miterlimit="10" stroke-width="0.5"/><line x1="245.28" y1="33.24" x2="245.28" y2="125" fill="none" stroke="#d0d2d3" stroke-linecap="round" stroke-linejoin="round" stroke-width="0.25"/><line x1="265.12" y1="33.24" x2="265.12" y2="125" fill="none" stroke="#d0d2d3" stroke-linecap="round" stroke-linejoin="round" stroke-width="0.25"/><line x1="284.96" y1="33.24" x2="284.96" y2="125" fill="none" stroke="#d0d2d3" stroke-linecap="round" stroke-linejoin="round" stroke-width="0.25"/><line x1="304.79" y1="33.24" x2="304.79" y2="125" fill="none" stroke="#d0d2d3" stroke-linecap="round" stroke-linejoin="round" stroke-width="0.25"/><rect x="225.77" y="42.73" width="38.91" height="6.56" fill="#9dc5ff"/><rect x="225.77" y="35.17" width="71.91" height="6.56" fill="#0072bb"/><rect x="225.77" y="60.95" width="19.91" height="6.56" fill="#9dc5ff"/><rect x="225.77" y="53.39" width="32.91" height="6.56" fill="#0072bb"/><rect x="225.77" y="79.17" width="13.91" height="6.56" fill="#9dc5ff"/><rect x="225.77" y="71.61" width="19.91" height="6.56" fill="#0072bb"/><rect x="225.77" y="97.39" width="9.92" height="6.56" fill="#9dc5ff"/><rect x="225.77" y="89.83" width="12.91" height="6.56" fill="#0072bb"/><rect x="225.77" y="115.61" width="6.91" height="6.56" fill="#9dc5ff"/><rect x="225.77" y="108.05" width="6.91" height="6.56" fill="#0072bb"/><path d="M220.52,131.58v-3.19l-.61.65-.29-.29,1-1H221v3.82Z" fill="#5e5e5e"/><path d="M221.73,129.68c0-1,.48-2,1.56-2a1.29,1.29,0,0,1,1.05.46l-.24.35a1,1,0,0,0-.81-.39c-.75,0-1.08.75-1.08,1.5v.15a1.39,1.39,0,0,1,1.08-.6,1.16,1.16,0,0,1,1.25,1.22,1.25,1.25,0,0,1-1.33,1.25C222.14,131.65,221.73,130.72,221.73,129.68Zm2.33.74a.78.78,0,0,0-.87-.82,1.17,1.17,0,0,0-1,.56c0,.48.29,1.07,1,1.07A.83.83,0,0,0,224.06,130.42Z" fill="#5e5e5e"/><path d="M225.11,129.68c0-.94.41-2,1.46-2s1.46,1,1.46,2-.42,2-1.46,2S225.11,130.6,225.11,129.68Zm2.43,0c0-.76-.24-1.55-1-1.55s-1,.79-1,1.55.24,1.55,1,1.55S227.54,130.44,227.54,129.68Z" fill="#5e5e5e"/><path d="M242.57,131.58v-3.19L242,129l-.29-.29,1-1h.42v3.82Z" fill="#5e5e5e"/><path d="M243.79,130.61a1.14,1.14,0,0,1,.91-1,1,1,0,0,1-.85-.91c0-.69.67-1,1.31-1s1.31.3,1.31,1a1,1,0,0,1-.86.91,1.14,1.14,0,0,1,.91,1c0,.65-.61,1-1.36,1S243.79,131.27,243.79,130.61Zm2.25-.05c0-.49-.65-.71-.88-.74s-.89.25-.89.74.41.67.89.67S246,131,246,130.56Zm0-1.8c0-.39-.38-.63-.83-.63s-.83.24-.83.63.6.62.83.66S246,129.22,246,128.76Z" fill="#5e5e5e"/><path d="M247.11,129.68c0-.94.41-2,1.46-2s1.46,1,1.46,2-.42,2-1.46,2S247.11,130.6,247.11,129.68Zm2.43,0c0-.76-.24-1.55-1-1.55s-1,.79-1,1.55.24,1.55,1,1.55S249.54,130.44,249.54,129.68Z" fill="#5e5e5e"/><path d="M260.27,131.58v-.38c1.37-1.08,2.12-1.71,2.12-2.37a.72.72,0,0,0-.8-.7,1.31,1.31,0,0,0-1,.48l-.29-.3a1.63,1.63,0,0,1,1.33-.6,1.16,1.16,0,0,1,1.28,1.12c0,.78-.79,1.49-1.85,2.33h1.87v.42Z" fill="#5e5e5e"/><path d="M263.61,129.68c0-.94.41-2,1.46-2s1.46,1,1.46,2-.42,2-1.46,2S263.61,130.6,263.61,129.68Zm2.43,0c0-.76-.24-1.55-1-1.55s-1,.79-1,1.55.24,1.55,1,1.55S266,130.44,266,129.68Z" fill="#5e5e5e"/><path d="M267.11,129.68c0-.94.41-2,1.46-2s1.46,1,1.46,2-.42,2-1.46,2S267.11,130.6,267.11,129.68Zm2.43,0c0-.76-.24-1.55-1-1.55s-1,.79-1,1.55.24,1.55,1,1.55S269.54,130.44,269.54,129.68Z" fill="#5e5e5e"/><path d="M280.4,131.58v-.38c1.38-1.08,2.13-1.71,2.13-2.37a.72.72,0,0,0-.8-.7,1.29,1.29,0,0,0-1,.48l-.29-.3a1.63,1.63,0,0,1,1.33-.6,1.16,1.16,0,0,1,1.28,1.12c0,.78-.79,1.49-1.86,2.33H283v.42Z" fill="#5e5e5e"/><path d="M283.77,131.58v-.38c1.37-1.08,2.12-1.71,2.12-2.37a.72.72,0,0,0-.8-.7,1.31,1.31,0,0,0-1,.48l-.29-.3a1.63,1.63,0,0,1,1.33-.6,1.16,1.16,0,0,1,1.28,1.12c0,.78-.79,1.49-1.85,2.33h1.87v.42Z" fill="#5e5e5e"/><path d="M287.11,129.68c0-.94.41-2,1.46-2s1.46,1,1.46,2-.42,2-1.46,2S287.11,130.6,287.11,129.68Zm2.43,0c0-.76-.24-1.55-1-1.55s-1,.79-1,1.55.24,1.55,1,1.55S289.54,130.44,289.54,129.68Z" fill="#5e5e5e"/><path d="M300.58,131.58v-.38c1.37-1.08,2.12-1.71,2.12-2.37a.72.72,0,0,0-.8-.7,1.31,1.31,0,0,0-1,.48l-.29-.3a1.63,1.63,0,0,1,1.33-.6,1.16,1.16,0,0,1,1.28,1.12c0,.78-.79,1.49-1.85,2.33h1.87v.42Z" fill="#5e5e5e"/><path d="M305.63,131.58v-1h-1.82v-.39l1.64-2.46h.65v2.44h.54v.41h-.54v1Zm0-3.37-1.34,2h1.34Z" fill="#5e5e5e"/><path d="M307.11,129.68c0-.94.41-2,1.46-2s1.46,1,1.46,2-.42,2-1.46,2S307.11,130.6,307.11,129.68Zm2.43,0c0-.76-.24-1.55-1-1.55s-1,.79-1,1.55.24,1.55,1,1.55S309.54,130.44,309.54,129.68Z" fill="#5e5e5e"/><rect x="209.68" y="40.16" width="10.58" height="3.15" fill="#bbbdbf"/><rect x="209.68" y="58.16" width="10.58" height="3.15" fill="#bbbdbf"/><rect x="209.68" y="77.16" width="10.58" height="3.15" fill="#bbbdbf"/><rect x="209.68" y="95.16" width="10.58" height="3.15" fill="#bbbdbf"/><rect x="209.68" y="113.16" width="10.58" height="3.15" fill="#bbbdbf"/></svg>