<svg xmlns="http://www.w3.org/2000/svg" width="350" height="148" viewBox="0 0 350 148"><rect width="350" height="148" fill="#f1f2f2"/><line x1="55.47" y1="33.24" x2="55.47" y2="125" fill="none" stroke="#000" stroke-miterlimit="10" stroke-width="0.5"/><line x1="68.69" y1="33.24" x2="68.69" y2="125" fill="none" stroke="#d0d2d3" stroke-linecap="round" stroke-linejoin="round" stroke-width="0.25"/><line x1="81.92" y1="33.24" x2="81.92" y2="125" fill="none" stroke="#d0d2d3" stroke-linecap="round" stroke-linejoin="round" stroke-width="0.25"/><line x1="95.14" y1="33.24" x2="95.14" y2="125" fill="none" stroke="#d0d2d3" stroke-linecap="round" stroke-linejoin="round" stroke-width="0.25"/><line x1="108.37" y1="33.24" x2="108.37" y2="125" fill="none" stroke="#d0d2d3" stroke-linecap="round" stroke-linejoin="round" stroke-width="0.25"/><line x1="121.6" y1="33.24" x2="121.6" y2="125" fill="none" stroke="#d0d2d3" stroke-linecap="round" stroke-linejoin="round" stroke-width="0.25"/><line x1="134.82" y1="33.24" x2="134.82" y2="125" fill="none" stroke="#d0d2d3" stroke-linecap="round" stroke-linejoin="round" stroke-width="0.25"/><rect x="55.8" y="35.17" width="76.91" height="6.56" fill="#0072bb"/><rect x="55.8" y="42.73" width="65.91" height="6.56" fill="#18375f"/><rect x="55.8" y="53.39" width="63.91" height="6.56" fill="#0072bb"/><rect x="55.8" y="60.95" width="59.91" height="6.56" fill="#18375f"/><rect x="55.8" y="71.61" width="45.91" height="6.56" fill="#0072bb"/><rect x="55.8" y="79.17" width="43.62" height="6.56" fill="#18375f"/><rect x="55.8" y="89.83" width="32.91" height="6.56" fill="#0072bb"/><rect x="55.8" y="97.39" width="32.91" height="6.56" fill="#18375f"/><rect x="55.8" y="108.05" width="23.91" height="6.56" fill="#0072bb"/><rect x="55.8" y="115.61" width="23.91" height="6.56" fill="#18375f"/><rect x="39.71" y="40.16" width="10.58" height="3.15" fill="#bbbdbf"/><rect x="39.71" y="58.16" width="10.58" height="3.15" fill="#bbbdbf"/><rect x="39.71" y="77.16" width="10.58" height="3.15" fill="#bbbdbf"/><rect x="39.71" y="95.16" width="10.58" height="3.15" fill="#bbbdbf"/><rect x="39.71" y="113.16" width="10.58" height="3.15" fill="#bbbdbf"/><rect x="49.71" y="128.16" width="10.58" height="3.15" fill="#bbbdbf"/><rect x="63.71" y="128.16" width="10.58" height="3.15" fill="#bbbdbf"/><rect x="77.71" y="128.16" width="10.58" height="3.15" fill="#bbbdbf"/><rect x="90.71" y="128.16" width="10.58" height="3.15" fill="#bbbdbf"/><rect x="103.71" y="128.16" width="10.58" height="3.15" fill="#bbbdbf"/><rect x="116.71" y="128.16" width="10.58" height="3.15" fill="#bbbdbf"/><rect x="129.71" y="128.16" width="10.58" height="3.15" fill="#bbbdbf"/><line x1="225.47" y1="33.24" x2="225.47" y2="125" fill="none" stroke="#000" stroke-miterlimit="10" stroke-width="0.5"/><line x1="238.69" y1="33.24" x2="238.69" y2="125" fill="none" stroke="#d0d2d3" stroke-linecap="round" stroke-linejoin="round" stroke-width="0.25"/><line x1="251.92" y1="33.24" x2="251.92" y2="125" fill="none" stroke="#d0d2d3" stroke-linecap="round" stroke-linejoin="round" stroke-width="0.25"/><line x1="265.14" y1="33.24" x2="265.14" y2="125" fill="none" stroke="#d0d2d3" stroke-linecap="round" stroke-linejoin="round" stroke-width="0.25"/><line x1="278.37" y1="33.24" x2="278.37" y2="125" fill="none" stroke="#d0d2d3" stroke-linecap="round" stroke-linejoin="round" stroke-width="0.25"/><line x1="291.6" y1="33.24" x2="291.6" y2="125" fill="none" stroke="#d0d2d3" stroke-linecap="round" stroke-linejoin="round" stroke-width="0.25"/><line x1="304.82" y1="33.24" x2="304.82" y2="125" fill="none" stroke="#d0d2d3" stroke-linecap="round" stroke-linejoin="round" stroke-width="0.25"/><rect x="225.8" y="36.34" width="76.91" height="5.59" fill="#18375f"/><rect x="225.8" y="42.78" width="65.91" height="5.59" fill="#0072bc"/><rect x="225.8" y="49.31" width="63.91" height="5.59" fill="#9dc5ff"/><rect x="225.8" y="55.75" width="59.91" height="5.59" fill="#00b398"/><rect x="225.8" y="67.8" width="45.91" height="5.59" fill="#18375f"/><rect x="225.8" y="74.25" width="43.62" height="5.59" fill="#0072bc"/><rect x="225.8" y="80.77" width="32.91" height="5.59" fill="#9dc5ff"/><rect x="225.8" y="87.22" width="32.91" height="5.59" fill="#00b398"/><rect x="225.8" y="109.96" width="23.91" height="5.63" fill="#9dc5ff"/><rect x="225.8" y="116.45" width="23.91" height="5.63" fill="#00b398"/><rect x="225.8" y="97.08" width="23.91" height="5.63" fill="#18375f"/><rect x="225.8" y="103.57" width="23.91" height="5.63" fill="#0072bc"/><rect x="209.71" y="47.16" width="10.58" height="3.15" fill="#bbbdbf"/><rect x="209.71" y="79.16" width="10.58" height="3.15" fill="#bbbdbf"/><rect x="209.71" y="108.16" width="10.58" height="3.15" fill="#bbbdbf"/><rect x="219.71" y="128.16" width="10.58" height="3.15" fill="#bbbdbf"/><rect x="233.71" y="128.16" width="10.58" height="3.15" fill="#bbbdbf"/><rect x="247.71" y="128.16" width="10.58" height="3.15" fill="#bbbdbf"/><rect x="260.71" y="128.16" width="10.58" height="3.15" fill="#bbbdbf"/><rect x="273.71" y="128.16" width="10.58" height="3.15" fill="#bbbdbf"/><rect x="286.71" y="128.16" width="10.58" height="3.15" fill="#bbbdbf"/><rect x="299.71" y="128.16" width="10.58" height="3.15" fill="#bbbdbf"/><path d="M31.92,21.87V14.54h2.5a3.56,3.56,0,0,1,3.76,3.67,3.54,3.54,0,0,1-3.76,3.66Zm5.32-3.66a2.69,2.69,0,0,0-2.82-2.86H32.83v5.71h1.59A2.7,2.7,0,0,0,37.24,18.21Z" fill="#0072bc"/><path d="M39.26,19.21a2.63,2.63,0,1,1,5.26,0,2.63,2.63,0,1,1-5.26,0Zm4.39,0a1.78,1.78,0,1,0-3.52,0,1.78,1.78,0,1,0,3.52,0Z" fill="#0072bc"/><circle cx="17.55" cy="17.55" r="7.55" fill="#9dc5ff"/><circle cx="17.55" cy="17.55" r="4.8" fill="#0072bc"/><polyline points="14.8 17.55 16.63 19.38 20.29 15.72" fill="none" stroke="#fff" stroke-linecap="round" stroke-linejoin="round" stroke-width="0.75"/><path d="M201.92,21.87V14.54h2.5a3.56,3.56,0,0,1,3.76,3.67,3.54,3.54,0,0,1-3.76,3.66Zm5.32-3.66a2.69,2.69,0,0,0-2.82-2.86h-1.59v5.71h1.59A2.7,2.7,0,0,0,207.24,18.21Z" fill="#ef4a60"/><path d="M209.26,19.21a2.63,2.63,0,1,1,5.26,0,2.63,2.63,0,1,1-5.26,0Zm4.39,0a1.78,1.78,0,1,0-3.52,0,1.78,1.78,0,1,0,3.52,0Z" fill="#ef4a60"/><path d="M219.44,21.87V18.4c0-.95-.48-1.23-1.19-1.23a2.06,2.06,0,0,0-1.57.82v3.88h-.83V16.56h.83v.77a2.58,2.58,0,0,1,1.9-.9,1.5,1.5,0,0,1,1.68,1.71v3.73Z" fill="#ef4a60"/><path d="M222.07,16.93l-.42-.35a1.65,1.65,0,0,0,.71-1l-.15,0a.53.53,0,0,1-.53-.56.6.6,0,0,1,.58-.59c.38,0,.7.3.7.84A2.14,2.14,0,0,1,222.07,16.93Z" fill="#ef4a60"/><path d="M224.54,20.76V17.29h-.88v-.73h.88V15.11h.83v1.45h1.08v.73h-1.08v3.29c0,.4.18.68.53.68a.75.75,0,0,0,.56-.23l.24.63a1.32,1.32,0,0,1-1,.34A1.08,1.08,0,0,1,224.54,20.76Z" fill="#ef4a60"/><circle cx="187.55" cy="17.55" r="7.55" fill="#ffbcc1"/><circle cx="187.55" cy="17.55" r="4.8" fill="#ef4a60"/><line x1="189.55" y1="15.55" x2="185.55" y2="19.55" fill="none" stroke="#fff" stroke-linecap="round" stroke-linejoin="round" stroke-width="0.75"/><line x1="189.55" y1="19.55" x2="185.55" y2="15.55" fill="none" stroke="#fff" stroke-linecap="round" stroke-linejoin="round" stroke-width="0.75"/></svg>