<svg xmlns="http://www.w3.org/2000/svg" width="350" height="148" viewBox="0 0 350 148"><rect width="350" height="148" fill="#f1f2f2"/><line x1="31.95" y1="124.07" x2="157.46" y2="124.07" fill="none" stroke="#000" stroke-miterlimit="10" stroke-width="0.5"/><line x1="31.95" y1="110.84" x2="157.46" y2="110.84" fill="none" stroke="#d0d2d3" stroke-linecap="round" stroke-linejoin="round" stroke-width="0.25"/><line x1="31.95" y1="97.61" x2="157.46" y2="97.61" fill="none" stroke="#d0d2d3" stroke-linecap="round" stroke-linejoin="round" stroke-width="0.25"/><line x1="31.95" y1="84.39" x2="157.46" y2="84.39" fill="none" stroke="#d0d2d3" stroke-linecap="round" stroke-linejoin="round" stroke-width="0.25"/><line x1="31.95" y1="71.16" x2="157.46" y2="71.16" fill="none" stroke="#d0d2d3" stroke-linecap="round" stroke-linejoin="round" stroke-width="0.25"/><line x1="31.95" y1="57.94" x2="157.46" y2="57.94" fill="none" stroke="#d0d2d3" stroke-linecap="round" stroke-linejoin="round" stroke-width="0.25"/><line x1="31.95" y1="44.71" x2="157.46" y2="44.71" fill="none" stroke="#d0d2d3" stroke-linecap="round" stroke-linejoin="round" stroke-width="0.25"/><rect x="111.2" y="55.29" width="17.9" height="14.81" fill="#0072bc"/><rect x="136.07" y="54.23" width="17.9" height="15.08" fill="#0072bc"/><rect x="36.6" y="78.57" width="17.9" height="45.5" fill="#0072bb"/><rect x="61.47" y="71.43" width="17.9" height="52.64" fill="#0072bb"/><rect x="86.34" y="70.1" width="17.9" height="53.96" fill="#0072bb"/><rect x="111.2" y="55.91" width="17.9" height="68.15" fill="#0072bb"/><rect x="136.07" y="54.54" width="17.9" height="69.53" fill="#0072bb"/><rect x="18.83" y="43.14" width="10.03" height="3.15" fill="#bbbdbf"/><rect x="18.83" y="56.55" width="10.03" height="3.15" fill="#bbbdbf"/><rect x="18.83" y="69.96" width="10.03" height="3.15" fill="#bbbdbf"/><rect x="18.83" y="82.95" width="10.03" height="3.15" fill="#bbbdbf"/><rect x="18.83" y="95.94" width="10.03" height="3.15" fill="#bbbdbf"/><rect x="18.83" y="109.35" width="10.03" height="3.15" fill="#bbbdbf"/><rect x="18.83" y="122.34" width="10.03" height="3.15" fill="#bbbdbf"/><line x1="206.26" y1="124.07" x2="331.77" y2="124.07" fill="none" stroke="#000" stroke-miterlimit="10" stroke-width="0.5"/><line x1="206.26" y1="110.84" x2="331.77" y2="110.84" fill="none" stroke="#d0d2d3" stroke-linecap="round" stroke-linejoin="round" stroke-width="0.25"/><line x1="206.26" y1="97.61" x2="331.77" y2="97.61" fill="none" stroke="#d0d2d3" stroke-linecap="round" stroke-linejoin="round" stroke-width="0.25"/><line x1="206.26" y1="84.39" x2="331.77" y2="84.39" fill="none" stroke="#d0d2d3" stroke-linecap="round" stroke-linejoin="round" stroke-width="0.25"/><line x1="206.26" y1="71.16" x2="331.77" y2="71.16" fill="none" stroke="#d0d2d3" stroke-linecap="round" stroke-linejoin="round" stroke-width="0.25"/><line x1="206.26" y1="57.94" x2="331.77" y2="57.94" fill="none" stroke="#d0d2d3" stroke-linecap="round" stroke-linejoin="round" stroke-width="0.25"/><line x1="206.26" y1="44.71" x2="331.77" y2="44.71" fill="none" stroke="#d0d2d3" stroke-linecap="round" stroke-linejoin="round" stroke-width="0.25"/><rect x="214.87" y="78.57" width="10" height="45.5" fill="#0072bb"/><rect x="239.74" y="71.43" width="10" height="52.64" fill="#0072bb"/><rect x="264.6" y="70.1" width="10" height="53.96" fill="#0072bb"/><rect x="289.47" y="55.91" width="10" height="68.15" fill="#0072bb"/><rect x="314.34" y="54.54" width="10" height="69.53" fill="#0072bb"/><rect x="193.14" y="43.14" width="10.03" height="3.15" fill="#bbbdbf"/><rect x="193.14" y="56.55" width="10.03" height="3.15" fill="#bbbdbf"/><rect x="193.14" y="69.96" width="10.03" height="3.15" fill="#bbbdbf"/><rect x="193.14" y="82.95" width="10.03" height="3.15" fill="#bbbdbf"/><rect x="193.14" y="95.94" width="10.03" height="3.15" fill="#bbbdbf"/><rect x="193.14" y="109.35" width="10.03" height="3.15" fill="#bbbdbf"/><rect x="193.14" y="122.34" width="10.03" height="3.15" fill="#bbbdbf"/><path d="M31.92,21.87V14.54h2.5a3.56,3.56,0,0,1,3.76,3.67,3.54,3.54,0,0,1-3.76,3.66Zm5.32-3.66a2.69,2.69,0,0,0-2.82-2.86H32.83v5.71h1.59A2.7,2.7,0,0,0,37.24,18.21Z" fill="#0072bc"/><path d="M39.26,19.21a2.63,2.63,0,1,1,5.26,0,2.63,2.63,0,1,1-5.26,0Zm4.39,0a1.78,1.78,0,1,0-3.52,0,1.78,1.78,0,1,0,3.52,0Z" fill="#0072bc"/><circle cx="17.55" cy="17.55" r="7.55" fill="#9dc5ff"/><circle cx="17.55" cy="17.55" r="4.8" fill="#0072bc"/><polyline points="14.8 17.55 16.63 19.38 20.29 15.72" fill="none" stroke="#fff" stroke-linecap="round" stroke-linejoin="round" stroke-width="0.75"/><path d="M201.92,21.87V14.54h2.5a3.56,3.56,0,0,1,3.76,3.67,3.54,3.54,0,0,1-3.76,3.66Zm5.32-3.66a2.69,2.69,0,0,0-2.82-2.86h-1.59v5.71h1.59A2.7,2.7,0,0,0,207.24,18.21Z" fill="#ef4a60"/><path d="M209.26,19.21a2.63,2.63,0,1,1,5.26,0,2.63,2.63,0,1,1-5.26,0Zm4.39,0a1.78,1.78,0,1,0-3.52,0,1.78,1.78,0,1,0,3.52,0Z" fill="#ef4a60"/><path d="M219.44,21.87V18.4c0-.95-.48-1.23-1.19-1.23a2.06,2.06,0,0,0-1.57.82v3.88h-.83V16.56h.83v.77a2.58,2.58,0,0,1,1.9-.9,1.5,1.5,0,0,1,1.68,1.71v3.73Z" fill="#ef4a60"/><path d="M222.07,16.93l-.42-.35a1.65,1.65,0,0,0,.71-1l-.15,0a.53.53,0,0,1-.53-.56.6.6,0,0,1,.58-.59c.38,0,.7.3.7.84A2.14,2.14,0,0,1,222.07,16.93Z" fill="#ef4a60"/><path d="M224.54,20.76V17.29h-.88v-.73h.88V15.11h.83v1.45h1.08v.73h-1.08v3.29c0,.4.18.68.53.68a.75.75,0,0,0,.56-.23l.24.63a1.32,1.32,0,0,1-1,.34A1.08,1.08,0,0,1,224.54,20.76Z" fill="#ef4a60"/><circle cx="187.55" cy="17.55" r="7.55" fill="#ffbcc1"/><circle cx="187.55" cy="17.55" r="4.8" fill="#ef4a60"/><line x1="189.55" y1="15.55" x2="185.55" y2="19.55" fill="none" stroke="#fff" stroke-linecap="round" stroke-linejoin="round" stroke-width="0.75"/><line x1="189.55" y1="19.55" x2="185.55" y2="15.55" fill="none" stroke="#fff" stroke-linecap="round" stroke-linejoin="round" stroke-width="0.75"/><rect x="41.65" y="126.86" width="10.03" height="3.15" fill="#bbbdbf"/><rect x="66.35" y="126.86" width="10.03" height="3.15" fill="#bbbdbf"/><rect x="91.06" y="126.86" width="10.03" height="3.15" fill="#bbbdbf"/><rect x="115.76" y="126.86" width="10.03" height="3.15" fill="#bbbdbf"/><rect x="140.47" y="126.86" width="10.03" height="3.15" fill="#bbbdbf"/><rect x="215.65" y="126.86" width="10.03" height="3.15" fill="#bbbdbf"/><rect x="240.35" y="126.86" width="10.03" height="3.15" fill="#bbbdbf"/><rect x="265.06" y="126.86" width="10.03" height="3.15" fill="#bbbdbf"/><rect x="289.76" y="126.86" width="10.03" height="3.15" fill="#bbbdbf"/><rect x="314.47" y="126.86" width="10.03" height="3.15" fill="#bbbdbf"/></svg>