<svg xmlns="http://www.w3.org/2000/svg" width="350" height="148" viewBox="0 0 350 148"><rect width="350" height="148" fill="#f1f2f2"/><path d="M31.92,21.87V14.54h2.5a3.56,3.56,0,0,1,3.76,3.67,3.54,3.54,0,0,1-3.76,3.66Zm5.32-3.66a2.69,2.69,0,0,0-2.82-2.86H32.83v5.71h1.59A2.7,2.7,0,0,0,37.24,18.21Z" fill="#0072bc"/><path d="M39.26,19.21a2.63,2.63,0,1,1,5.26,0,2.63,2.63,0,1,1-5.26,0Zm4.39,0a1.78,1.78,0,1,0-3.52,0,1.78,1.78,0,1,0,3.52,0Z" fill="#0072bc"/><circle cx="17.55" cy="17.55" r="7.55" fill="#9dc5ff"/><circle cx="17.55" cy="17.55" r="4.8" fill="#0072bc"/><polyline points="14.8 17.55 16.63 19.38 20.29 15.72" fill="none" stroke="#fff" stroke-linecap="round" stroke-linejoin="round" stroke-width="0.75"/><line x1="32.7" y1="124.07" x2="158.21" y2="124.07" fill="none" stroke="#000" stroke-miterlimit="10" stroke-width="0.5"/><line x1="32.7" y1="110.84" x2="158.21" y2="110.84" fill="none" stroke="#d0d2d3" stroke-linecap="round" stroke-linejoin="round" stroke-width="0.25"/><line x1="32.7" y1="97.61" x2="158.21" y2="97.61" fill="none" stroke="#d0d2d3" stroke-linecap="round" stroke-linejoin="round" stroke-width="0.25"/><line x1="32.7" y1="84.39" x2="158.21" y2="84.39" fill="none" stroke="#d0d2d3" stroke-linecap="round" stroke-linejoin="round" stroke-width="0.25"/><line x1="32.7" y1="71.16" x2="158.21" y2="71.16" fill="none" stroke="#d0d2d3" stroke-linecap="round" stroke-linejoin="round" stroke-width="0.25"/><line x1="32.7" y1="57.94" x2="158.21" y2="57.94" fill="none" stroke="#d0d2d3" stroke-linecap="round" stroke-linejoin="round" stroke-width="0.25"/><line x1="32.7" y1="44.71" x2="158.21" y2="44.71" fill="none" stroke="#d0d2d3" stroke-linecap="round" stroke-linejoin="round" stroke-width="0.25"/><rect x="111.96" y="55.29" width="17.9" height="14.81" fill="#0072bc"/><rect x="136.83" y="54.23" width="17.9" height="15.08" fill="#0072bc"/><rect x="37.36" y="78.57" width="17.9" height="45.5" fill="#0072bb"/><rect x="62.23" y="71.43" width="17.9" height="52.64" fill="#0072bb"/><rect x="87.09" y="70.1" width="17.9" height="53.96" fill="#0072bb"/><rect x="111.96" y="55.91" width="17.9" height="68.15" fill="#0072bb"/><rect x="136.83" y="54.54" width="17.9" height="69.53" fill="#0072bb"/><path d="M27.52,123.79c0-.94.41-2,1.46-2s1.46,1,1.46,2-.42,2-1.46,2S27.52,124.71,27.52,123.79Zm2.43,0c0-.76-.25-1.55-1-1.55s-1,.79-1,1.55.25,1.55,1,1.55S30,124.55,30,123.79Z" fill="#5e5e5e"/><path d="M24.17,113.69v-.38c1.38-1.08,2.13-1.71,2.13-2.37a.72.72,0,0,0-.8-.7,1.29,1.29,0,0,0-1,.48l-.29-.3a1.63,1.63,0,0,1,1.33-.6,1.16,1.16,0,0,1,1.28,1.12c0,.78-.79,1.49-1.86,2.33h1.87v.42Z" fill="#5e5e5e"/><path d="M27.52,111.79c0-.94.41-2,1.46-2s1.46,1,1.46,2-.42,2-1.46,2S27.52,112.71,27.52,111.79Zm2.43,0c0-.76-.25-1.55-1-1.55s-1,.79-1,1.55.25,1.55,1,1.55S30,112.55,30,111.79Z" fill="#5e5e5e"/><path d="M26,99.69v-1H24.22v-.4l1.64-2.45h.65v2.43h.54v.42h-.54v1Zm0-3.37-1.34,2H26Z" fill="#5e5e5e"/><path d="M27.52,97.79c0-.94.41-2,1.46-2s1.46,1,1.46,2-.42,2-1.46,2S27.52,98.71,27.52,97.79Zm2.43,0c0-.76-.25-1.55-1-1.55s-1,.79-1,1.55.25,1.55,1,1.55S30,98.55,30,97.79Z" fill="#5e5e5e"/><path d="M24.14,84.79c0-1,.48-2,1.56-2a1.3,1.3,0,0,1,1.05.46l-.24.35a1,1,0,0,0-.81-.39c-.75,0-1.08.75-1.08,1.5v.15a1.39,1.39,0,0,1,1.08-.6A1.16,1.16,0,0,1,27,85.51a1.25,1.25,0,0,1-1.33,1.25C24.55,86.76,24.14,85.83,24.14,84.79Zm2.33.74a.79.79,0,0,0-.88-.82,1.15,1.15,0,0,0-.95.56c0,.48.29,1.07.95,1.07A.84.84,0,0,0,26.47,85.53Z" fill="#5e5e5e"/><path d="M27.52,84.79c0-.94.41-2,1.46-2s1.46,1,1.46,2-.42,2-1.46,2S27.52,85.71,27.52,84.79Zm2.43,0c0-.76-.25-1.55-1-1.55s-1,.79-1,1.55.25,1.55,1,1.55S30,85.55,30,84.79Z" fill="#5e5e5e"/><path d="M24.2,71.73a1.14,1.14,0,0,1,.91-1,1,1,0,0,1-.85-.91c0-.69.67-1,1.3-1s1.32.3,1.32,1a1,1,0,0,1-.86.91,1.14,1.14,0,0,1,.91,1c0,.64-.62,1-1.37,1S24.2,72.38,24.2,71.73Zm2.25-.06c0-.49-.65-.71-.89-.73s-.88.24-.88.73.41.67.88.67S26.45,72.09,26.45,71.67Zm-.06-1.8c0-.39-.37-.63-.83-.63s-.82.24-.82.63.59.62.82.66S26.39,70.34,26.39,69.87Z" fill="#5e5e5e"/><path d="M27.52,70.79c0-.94.41-2,1.46-2s1.46,1,1.46,2-.42,2-1.46,2S27.52,71.71,27.52,70.79Zm2.43,0c0-.76-.25-1.55-1-1.55s-1,.79-1,1.55.25,1.55,1,1.55S30,71.55,30,70.79Z" fill="#5e5e5e"/><path d="M22.81,59.69V56.5l-.61.65-.29-.29,1-1h.41v3.81Z" fill="#5e5e5e"/><path d="M24,57.79c0-.94.41-2,1.46-2s1.46,1,1.46,2-.42,2-1.46,2S24,58.71,24,57.79Zm2.43,0c0-.76-.24-1.55-1-1.55s-1,.79-1,1.55.24,1.55,1,1.55S26.45,58.55,26.45,57.79Z" fill="#5e5e5e"/><path d="M27.52,57.79c0-.94.41-2,1.46-2s1.46,1,1.46,2-.42,2-1.46,2S27.52,58.71,27.52,57.79Zm2.43,0c0-.76-.25-1.55-1-1.55s-1,.79-1,1.55.25,1.55,1,1.55S30,58.55,30,57.79Z" fill="#5e5e5e"/><path d="M23,46.69V43.5l-.62.65-.28-.29.95-1h.42v3.81Z" fill="#5e5e5e"/><path d="M24.17,46.69v-.38c1.38-1.08,2.13-1.71,2.13-2.37a.72.72,0,0,0-.8-.7,1.29,1.29,0,0,0-1,.48l-.29-.3a1.63,1.63,0,0,1,1.33-.6,1.16,1.16,0,0,1,1.28,1.12c0,.78-.79,1.49-1.86,2.33h1.87v.42Z" fill="#5e5e5e"/><path d="M27.52,44.79c0-.94.41-2,1.46-2s1.46,1,1.46,2-.42,2-1.46,2S27.52,45.71,27.52,44.79Zm2.43,0c0-.76-.25-1.55-1-1.55s-1,.79-1,1.55.25,1.55,1,1.55S30,45.55,30,44.79Z" fill="#5e5e5e"/><path d="M193.48,123.79c0-1,.48-2,1.56-2a1.27,1.27,0,0,1,1.05.46l-.24.35a1,1,0,0,0-.81-.39c-.74,0-1.08.75-1.08,1.5v.15a1.39,1.39,0,0,1,1.08-.6,1.16,1.16,0,0,1,1.25,1.22,1.25,1.25,0,0,1-1.33,1.25C193.89,125.76,193.48,124.83,193.48,123.79Zm2.33.74a.78.78,0,0,0-.87-.82,1.17,1.17,0,0,0-1,.56c0,.48.29,1.07,1,1.07A.83.83,0,0,0,195.81,124.53Z" fill="#5e5e5e"/><path d="M196.86,123.79c0-.94.41-2,1.46-2s1.46,1,1.46,2-.42,2-1.46,2S196.86,124.71,196.86,123.79Zm2.43,0c0-.76-.24-1.55-1-1.55s-1,.79-1,1.55.24,1.55,1,1.55S199.29,124.55,199.29,123.79Z" fill="#5e5e5e"/><path d="M194.32,113.69l1.54-3.39H193.8v-.42h2.61v.32l-1.57,3.49Z" fill="#5e5e5e"/><path d="M196.86,111.79c0-.94.41-2,1.46-2s1.46,1,1.46,2-.42,2-1.46,2S196.86,112.71,196.86,111.79Zm2.43,0c0-.76-.24-1.55-1-1.55s-1,.79-1,1.55.24,1.55,1,1.55S199.29,112.55,199.29,111.79Z" fill="#5e5e5e"/><path d="M193.54,98.73a1.14,1.14,0,0,1,.91-1,1,1,0,0,1-.85-.91c0-.69.67-1,1.31-1s1.31.3,1.31,1a1,1,0,0,1-.85.91,1.14,1.14,0,0,1,.9,1c0,.64-.61,1-1.36,1S193.54,99.38,193.54,98.73Zm2.25-.06c0-.49-.65-.71-.88-.73s-.89.24-.89.73.41.67.89.67S195.79,99.09,195.79,98.67Zm0-1.8c0-.39-.37-.63-.83-.63s-.83.24-.83.63.6.62.83.66S195.74,97.34,195.74,96.87Z" fill="#5e5e5e"/><path d="M196.86,97.79c0-.94.41-2,1.46-2s1.46,1,1.46,2-.42,2-1.46,2S196.86,98.71,196.86,97.79Zm2.43,0c0-.76-.24-1.55-1-1.55s-1,.79-1,1.55.24,1.55,1,1.55S199.29,98.55,199.29,97.79Z" fill="#5e5e5e"/><path d="M193.67,86.3l.24-.36a1,1,0,0,0,.82.39c.77,0,1.08-.77,1.08-1.5a.86.86,0,0,0,0-.15,1.36,1.36,0,0,1-1.08.6,1.16,1.16,0,0,1-1.25-1.22,1.26,1.26,0,0,1,1.34-1.25c1.06,0,1.48.94,1.48,2s-.49,2-1.56,2A1.34,1.34,0,0,1,193.67,86.3Zm2.12-2c0-.46-.3-1.05-1-1.05a.83.83,0,0,0-.88.8.8.8,0,0,0,.88.83A1.18,1.18,0,0,0,195.79,84.29Z" fill="#5e5e5e"/><path d="M196.86,84.79c0-.94.41-2,1.46-2s1.46,1,1.46,2-.42,2-1.46,2S196.86,85.71,196.86,84.79Zm2.43,0c0-.76-.24-1.55-1-1.55s-1,.79-1,1.55.24,1.55,1,1.55S199.29,85.55,199.29,84.79Z" fill="#5e5e5e"/><path d="M192.15,72.69V69.5l-.61.65-.29-.29,1-1h.42v3.81Z" fill="#5e5e5e"/><path d="M193.36,70.79c0-.94.41-2,1.46-2s1.46,1,1.46,2-.42,2-1.46,2S193.36,71.71,193.36,70.79Zm2.43,0c0-.76-.24-1.55-1-1.55s-1,.79-1,1.55.25,1.55,1,1.55S195.79,71.55,195.79,70.79Z" fill="#5e5e5e"/><path d="M196.86,70.79c0-.94.41-2,1.46-2s1.46,1,1.46,2-.42,2-1.46,2S196.86,71.71,196.86,70.79Zm2.43,0c0-.76-.24-1.55-1-1.55s-1,.79-1,1.55.24,1.55,1,1.55S199.29,71.55,199.29,70.79Z" fill="#5e5e5e"/><path d="M193.71,59.69V56.5l-.61.65-.29-.29,1-1h.42v3.81Z" fill="#5e5e5e"/><path d="M195.65,59.69V56.5l-.61.65-.29-.29,1-1h.42v3.81Z" fill="#5e5e5e"/><path d="M196.86,57.79c0-.94.41-2,1.46-2s1.46,1,1.46,2-.42,2-1.46,2S196.86,58.71,196.86,57.79Zm2.43,0c0-.76-.24-1.55-1-1.55s-1,.79-1,1.55.24,1.55,1,1.55S199.29,58.55,199.29,57.79Z" fill="#5e5e5e"/><path d="M192.29,46.69V43.5l-.61.65-.29-.29,1-1h.41v3.81Z" fill="#5e5e5e"/><path d="M193.52,46.69v-.38c1.37-1.08,2.12-1.71,2.12-2.37a.72.72,0,0,0-.8-.7,1.31,1.31,0,0,0-1,.48l-.29-.3a1.63,1.63,0,0,1,1.33-.6,1.16,1.16,0,0,1,1.28,1.12c0,.78-.79,1.49-1.85,2.33h1.87v.42Z" fill="#5e5e5e"/><path d="M196.86,44.79c0-.94.41-2,1.46-2s1.46,1,1.46,2-.42,2-1.46,2S196.86,45.71,196.86,44.79Zm2.43,0c0-.76-.24-1.55-1-1.55s-1,.79-1,1.55.24,1.55,1,1.55S199.29,45.55,199.29,44.79Z" fill="#5e5e5e"/><line x1="203.36" y1="124.07" x2="328.87" y2="124.07" fill="none" stroke="#000" stroke-miterlimit="10" stroke-width="0.5"/><line x1="203.36" y1="110.84" x2="328.87" y2="110.84" fill="none" stroke="#d0d2d3" stroke-linecap="round" stroke-linejoin="round" stroke-width="0.25"/><line x1="203.36" y1="97.61" x2="328.87" y2="97.61" fill="none" stroke="#d0d2d3" stroke-linecap="round" stroke-linejoin="round" stroke-width="0.25"/><line x1="203.36" y1="84.39" x2="328.87" y2="84.39" fill="none" stroke="#d0d2d3" stroke-linecap="round" stroke-linejoin="round" stroke-width="0.25"/><line x1="203.36" y1="71.16" x2="328.87" y2="71.16" fill="none" stroke="#d0d2d3" stroke-linecap="round" stroke-linejoin="round" stroke-width="0.25"/><line x1="203.36" y1="57.94" x2="328.87" y2="57.94" fill="none" stroke="#d0d2d3" stroke-linecap="round" stroke-linejoin="round" stroke-width="0.25"/><line x1="203.36" y1="44.71" x2="328.87" y2="44.71" fill="none" stroke="#d0d2d3" stroke-linecap="round" stroke-linejoin="round" stroke-width="0.25"/><rect x="307.48" y="63" width="17.9" height="61" fill="#0072bc"/><rect x="208.02" y="114" width="17.9" height="10.07" fill="#0072bb"/><rect x="232.88" y="98" width="17.9" height="26.07" fill="#0072bb"/><rect x="257.75" y="94" width="17.9" height="30.07" fill="#0072bb"/><rect x="282.62" y="67" width="17.9" height="57.07" fill="#0072bb"/><path d="M201.92,21.87V14.54h2.5a3.56,3.56,0,0,1,3.76,3.67,3.54,3.54,0,0,1-3.76,3.66Zm5.32-3.66a2.69,2.69,0,0,0-2.82-2.86h-1.59v5.71h1.59A2.7,2.7,0,0,0,207.24,18.21Z" fill="#ef4a60"/><path d="M209.27,19.21a2.63,2.63,0,1,1,5.25,0,2.63,2.63,0,1,1-5.25,0Zm4.38,0a1.78,1.78,0,1,0-3.52,0,1.78,1.78,0,1,0,3.52,0Z" fill="#ef4a60"/><path d="M219.44,21.87V18.4c0-.95-.48-1.23-1.19-1.23a2.06,2.06,0,0,0-1.57.82v3.88h-.83V16.56h.83v.77a2.58,2.58,0,0,1,1.9-.9,1.5,1.5,0,0,1,1.68,1.71v3.73Z" fill="#ef4a60"/><path d="M222.07,16.93l-.42-.35a1.65,1.65,0,0,0,.71-1l-.15,0a.53.53,0,0,1-.53-.56.6.6,0,0,1,.59-.59c.37,0,.69.3.69.84A2.14,2.14,0,0,1,222.07,16.93Z" fill="#ef4a60"/><path d="M224.54,20.76V17.29h-.88v-.73h.88V15.11h.83v1.45h1.08v.73h-1.08v3.29c0,.4.18.68.53.68a.75.75,0,0,0,.56-.23l.24.63a1.32,1.32,0,0,1-1,.34A1.08,1.08,0,0,1,224.54,20.76Z" fill="#ef4a60"/><circle cx="187.55" cy="17.55" r="7.55" fill="#ffbcc1"/><circle cx="187.55" cy="17.55" r="4.8" fill="#ef4a60"/><line x1="189.55" y1="15.55" x2="185.55" y2="19.55" fill="none" stroke="#fff" stroke-linecap="round" stroke-linejoin="round" stroke-width="0.75"/><line x1="189.55" y1="19.55" x2="185.55" y2="15.55" fill="none" stroke="#fff" stroke-linecap="round" stroke-linejoin="round" stroke-width="0.75"/><rect x="212.65" y="126.86" width="10.03" height="3.15" fill="#bbbdbf"/><rect x="237.35" y="126.86" width="10.03" height="3.15" fill="#bbbdbf"/><rect x="262.06" y="126.86" width="10.03" height="3.15" fill="#bbbdbf"/><rect x="286.76" y="126.86" width="10.03" height="3.15" fill="#bbbdbf"/><rect x="311.47" y="126.86" width="10.03" height="3.15" fill="#bbbdbf"/><rect x="40.65" y="126.86" width="10.03" height="3.15" fill="#bbbdbf"/><rect x="65.35" y="126.86" width="10.03" height="3.15" fill="#bbbdbf"/><rect x="90.06" y="126.86" width="10.03" height="3.15" fill="#bbbdbf"/><rect x="114.76" y="126.86" width="10.03" height="3.15" fill="#bbbdbf"/><rect x="139.47" y="126.86" width="10.03" height="3.15" fill="#bbbdbf"/></svg>