<svg xmlns="http://www.w3.org/2000/svg" width="350" height="148" viewBox="0 0 350 148"><rect width="350" height="148" fill="#f1f2f2"/><line x1="141.71" y1="120.58" x2="49.95" y2="120.58" fill="none" stroke="#000" stroke-miterlimit="10" stroke-width="0.5"/><line x1="141.71" y1="107.35" x2="49.95" y2="107.35" fill="none" stroke="#d0d2d3" stroke-linecap="round" stroke-linejoin="round" stroke-width="0.25"/><line x1="141.71" y1="94.13" x2="49.95" y2="94.13" fill="none" stroke="#d0d2d3" stroke-linecap="round" stroke-linejoin="round" stroke-width="0.25"/><line x1="141.71" y1="80.9" x2="49.95" y2="80.9" fill="none" stroke="#d0d2d3" stroke-linecap="round" stroke-linejoin="round" stroke-width="0.25"/><line x1="141.71" y1="67.68" x2="49.95" y2="67.68" fill="none" stroke="#d0d2d3" stroke-linecap="round" stroke-linejoin="round" stroke-width="0.25"/><line x1="141.71" y1="54.45" x2="49.95" y2="54.45" fill="none" stroke="#d0d2d3" stroke-linecap="round" stroke-linejoin="round" stroke-width="0.25"/><line x1="141.71" y1="41.22" x2="49.95" y2="41.22" fill="none" stroke="#d0d2d3" stroke-linecap="round" stroke-linejoin="round" stroke-width="0.25"/><rect x="133.22" y="43.33" width="6.56" height="76.91" fill="#0072bb"/><rect x="125.66" y="54.33" width="6.56" height="65.91" fill="#18375f"/><rect x="115" y="56.33" width="6.56" height="63.91" fill="#0072bb"/><rect x="107.44" y="60.33" width="6.56" height="59.91" fill="#18375f"/><rect x="96.78" y="74.33" width="6.56" height="45.91" fill="#0072bb"/><rect x="89.22" y="76.63" width="6.56" height="43.62" fill="#18375f"/><rect x="78.56" y="87.33" width="6.56" height="32.91" fill="#0072bb"/><rect x="71" y="87.33" width="6.56" height="32.91" fill="#18375f"/><rect x="60.34" y="96.33" width="6.56" height="23.91" fill="#0072bb"/><rect x="52.78" y="96.33" width="6.56" height="23.91" fill="#18375f"/><rect x="127.39" y="123.93" width="10.58" height="3.15" transform="translate(265.35 251.01) rotate(-180)" fill="#bbbdbf"/><rect x="109.39" y="123.93" width="10.58" height="3.15" transform="translate(229.35 251.01) rotate(-180)" fill="#bbbdbf"/><rect x="91.39" y="123.93" width="10.58" height="3.15" transform="translate(193.35 251.01) rotate(-180)" fill="#bbbdbf"/><rect x="55.39" y="123.93" width="10.58" height="3.15" transform="translate(121.35 251.01) rotate(-180)" fill="#bbbdbf"/><rect x="73.39" y="123.93" width="10.58" height="3.15" transform="translate(157.35 251.01) rotate(-180)" fill="#bbbdbf"/><rect x="38.29" y="119.31" width="10.58" height="2.77" fill="#bbbdbf"/><rect x="38.29" y="106.31" width="10.58" height="2.77" fill="#bbbdbf"/><rect x="38.29" y="93.31" width="10.58" height="2.77" fill="#bbbdbf"/><rect x="38.29" y="79.31" width="10.58" height="2.77" fill="#bbbdbf"/><rect x="38.29" y="66.31" width="10.58" height="2.77" fill="#bbbdbf"/><rect x="38.29" y="53.31" width="10.58" height="2.77" fill="#bbbdbf"/><rect x="38.29" y="39.31" width="10.58" height="2.77" fill="#bbbdbf"/><line x1="312.36" y1="120.58" x2="220.6" y2="120.58" fill="none" stroke="#000" stroke-miterlimit="10" stroke-width="0.5"/><line x1="312.36" y1="107.35" x2="220.6" y2="107.35" fill="none" stroke="#d0d2d3" stroke-linecap="round" stroke-linejoin="round" stroke-width="0.25"/><line x1="312.36" y1="94.13" x2="220.6" y2="94.13" fill="none" stroke="#d0d2d3" stroke-linecap="round" stroke-linejoin="round" stroke-width="0.25"/><line x1="312.36" y1="80.9" x2="220.6" y2="80.9" fill="none" stroke="#d0d2d3" stroke-linecap="round" stroke-linejoin="round" stroke-width="0.25"/><line x1="312.36" y1="67.68" x2="220.6" y2="67.68" fill="none" stroke="#d0d2d3" stroke-linecap="round" stroke-linejoin="round" stroke-width="0.25"/><line x1="312.36" y1="54.45" x2="220.6" y2="54.45" fill="none" stroke="#d0d2d3" stroke-linecap="round" stroke-linejoin="round" stroke-width="0.25"/><line x1="312.36" y1="41.22" x2="220.6" y2="41.22" fill="none" stroke="#d0d2d3" stroke-linecap="round" stroke-linejoin="round" stroke-width="0.25"/><rect x="303.67" y="43.33" width="5.59" height="76.91" fill="#18375f"/><rect x="297.23" y="54.33" width="5.59" height="65.91" fill="#0072bc"/><rect x="290.7" y="56.33" width="5.59" height="63.91" fill="#9dc5ff"/><rect x="284.26" y="60.33" width="5.59" height="59.91" fill="#00b398"/><rect x="272.2" y="74.33" width="5.59" height="45.91" fill="#18375f"/><rect x="265.76" y="76.63" width="5.59" height="43.62" fill="#0072bc"/><rect x="259.23" y="87.33" width="5.59" height="32.91" fill="#9dc5ff"/><rect x="252.79" y="87.33" width="5.59" height="32.91" fill="#00b398"/><rect x="230" y="96.33" width="5.63" height="23.91" fill="#9dc5ff"/><rect x="223.51" y="96.33" width="5.63" height="23.91" fill="#00b398"/><rect x="242.88" y="96.33" width="5.63" height="23.91" fill="#18375f"/><rect x="236.39" y="96.33" width="5.63" height="23.91" fill="#0072bc"/><rect x="230.04" y="123.93" width="10.58" height="3.15" fill="#bbbdbf"/><rect x="261.04" y="123.93" width="10.58" height="3.15" fill="#bbbdbf"/><rect x="291.04" y="123.93" width="10.58" height="3.15" fill="#bbbdbf"/><rect x="207.64" y="119.31" width="10.58" height="2.77" fill="#bbbdbf"/><rect x="207.64" y="106.31" width="10.58" height="2.77" fill="#bbbdbf"/><rect x="207.64" y="93.31" width="10.58" height="2.77" fill="#bbbdbf"/><rect x="207.64" y="79.31" width="10.58" height="2.77" fill="#bbbdbf"/><rect x="207.64" y="66.31" width="10.58" height="2.77" fill="#bbbdbf"/><rect x="207.64" y="53.31" width="10.58" height="2.77" fill="#bbbdbf"/><rect x="207.64" y="39.31" width="10.58" height="2.77" fill="#bbbdbf"/><path d="M31.92,21.87V14.54h2.5a3.56,3.56,0,0,1,3.76,3.67,3.54,3.54,0,0,1-3.76,3.66Zm5.32-3.66a2.69,2.69,0,0,0-2.82-2.86H32.83v5.71h1.59A2.7,2.7,0,0,0,37.24,18.21Z" fill="#0072bc"/><path d="M39.26,19.21a2.63,2.63,0,1,1,5.26,0,2.63,2.63,0,1,1-5.26,0Zm4.39,0a1.78,1.78,0,1,0-3.52,0,1.78,1.78,0,1,0,3.52,0Z" fill="#0072bc"/><circle cx="17.55" cy="17.55" r="7.55" fill="#9dc5ff"/><circle cx="17.55" cy="17.55" r="4.8" fill="#0072bc"/><polyline points="14.8 17.55 16.63 19.38 20.29 15.72" fill="none" stroke="#fff" stroke-linecap="round" stroke-linejoin="round" stroke-width="0.75"/><path d="M201.92,21.87V14.54h2.5a3.56,3.56,0,0,1,3.76,3.67,3.54,3.54,0,0,1-3.76,3.66Zm5.32-3.66a2.69,2.69,0,0,0-2.82-2.86h-1.59v5.71h1.59A2.7,2.7,0,0,0,207.24,18.21Z" fill="#ef4a60"/><path d="M209.26,19.21a2.63,2.63,0,1,1,5.26,0,2.63,2.63,0,1,1-5.26,0Zm4.39,0a1.78,1.78,0,1,0-3.52,0,1.78,1.78,0,1,0,3.52,0Z" fill="#ef4a60"/><path d="M219.44,21.87V18.4c0-.95-.48-1.23-1.19-1.23a2.06,2.06,0,0,0-1.57.82v3.88h-.83V16.56h.83v.77a2.58,2.58,0,0,1,1.9-.9,1.5,1.5,0,0,1,1.68,1.71v3.73Z" fill="#ef4a60"/><path d="M222.07,16.93l-.42-.35a1.65,1.65,0,0,0,.71-1l-.15,0a.53.53,0,0,1-.53-.56.6.6,0,0,1,.58-.59c.38,0,.7.3.7.84A2.14,2.14,0,0,1,222.07,16.93Z" fill="#ef4a60"/><path d="M224.54,20.76V17.29h-.88v-.73h.88V15.11h.83v1.45h1.08v.73h-1.08v3.29c0,.4.18.68.53.68a.75.75,0,0,0,.56-.23l.24.63a1.32,1.32,0,0,1-1,.34A1.08,1.08,0,0,1,224.54,20.76Z" fill="#ef4a60"/><circle cx="187.55" cy="17.55" r="7.55" fill="#ffbcc1"/><circle cx="187.55" cy="17.55" r="4.8" fill="#ef4a60"/><line x1="189.55" y1="15.55" x2="185.55" y2="19.55" fill="none" stroke="#fff" stroke-linecap="round" stroke-linejoin="round" stroke-width="0.75"/><line x1="189.55" y1="19.55" x2="185.55" y2="15.55" fill="none" stroke="#fff" stroke-linecap="round" stroke-linejoin="round" stroke-width="0.75"/></svg>