<svg xmlns="http://www.w3.org/2000/svg" width="350" height="148" viewBox="0 0 350 148"><rect width="350" height="148" fill="#f1f2f2"/><line x1="142.02" y1="128" x2="51.31" y2="128" fill="none" stroke="#000" stroke-miterlimit="10" stroke-width="0.5"/><line x1="142.02" y1="115.94" x2="51.31" y2="115.94" fill="none" stroke="#d0d2d3" stroke-linecap="round" stroke-linejoin="round" stroke-width="0.25"/><line x1="142.02" y1="103.88" x2="51.31" y2="103.88" fill="none" stroke="#d0d2d3" stroke-linecap="round" stroke-linejoin="round" stroke-width="0.25"/><line x1="142.02" y1="91.81" x2="51.31" y2="91.81" fill="none" stroke="#d0d2d3" stroke-linecap="round" stroke-linejoin="round" stroke-width="0.25"/><line x1="142.02" y1="79.75" x2="51.31" y2="79.75" fill="none" stroke="#d0d2d3" stroke-linecap="round" stroke-linejoin="round" stroke-width="0.25"/><line x1="142.02" y1="67.69" x2="51.31" y2="67.69" fill="none" stroke="#d0d2d3" stroke-linecap="round" stroke-linejoin="round" stroke-width="0.25"/><line x1="142.02" y1="55.63" x2="51.31" y2="55.63" fill="none" stroke="#d0d2d3" stroke-linecap="round" stroke-linejoin="round" stroke-width="0.25"/><rect x="38.55" y="39.31" width="10.19" height="3.94" fill="#18375f"/><rect x="67.25" y="39.31" width="10.19" height="3.94" fill="#0072bc"/><rect x="134.79" y="57.55" width="5.44" height="70.15" fill="#9dc5ff"/><rect x="128.89" y="67.58" width="5.44" height="60.11" fill="#0072bc"/><rect x="122.98" y="72.85" width="5.44" height="54.85" fill="#18375f"/><rect x="111.64" y="76.95" width="5.44" height="50.75" fill="#9dc5ff"/><rect x="105.74" y="84.21" width="5.44" height="43.49" fill="#0072bc"/><rect x="99.84" y="88.02" width="5.44" height="39.68" fill="#18375f"/><rect x="88.5" y="87.61" width="5.44" height="40.09" fill="#9dc5ff"/><rect x="82.6" y="93.35" width="5.44" height="34.35" fill="#0072bc"/><rect x="76.7" y="96.35" width="5.44" height="31.34" fill="#18375f"/><rect x="65.36" y="105.66" width="5.44" height="22.04" fill="#9dc5ff"/><rect x="59.45" y="108.81" width="5.44" height="18.89" fill="#0072bc"/><rect x="53.55" y="110.46" width="5.44" height="17.24" fill="#18375f"/><rect x="49.98" y="39.98" width="10.58" height="2.6" fill="#bbbdbf"/><rect x="78.45" y="39.98" width="10.58" height="2.6" fill="#bbbdbf"/><rect x="94.67" y="39.31" width="10.19" height="3.94" fill="#9dc5ff"/><rect x="105.88" y="39.98" width="10.58" height="2.6" fill="#bbbdbf"/><rect x="56.98" y="130.84" width="10.58" height="2.77" fill="#bbbdbf"/><rect x="37.98" y="126.45" width="10.58" height="2.77" fill="#bbbdbf"/><rect x="37.98" y="115.01" width="10.58" height="2.77" fill="#bbbdbf"/><rect x="37.98" y="102.69" width="10.58" height="2.77" fill="#bbbdbf"/><rect x="37.98" y="90.38" width="10.58" height="2.77" fill="#bbbdbf"/><rect x="37.98" y="78.94" width="10.58" height="2.77" fill="#bbbdbf"/><rect x="37.98" y="66.63" width="10.58" height="2.77" fill="#bbbdbf"/><rect x="37.98" y="54.31" width="10.58" height="2.77" fill="#bbbdbf"/><rect x="79.98" y="130.84" width="10.58" height="2.77" fill="#bbbdbf"/><rect x="102.98" y="130.84" width="10.58" height="2.77" fill="#bbbdbf"/><rect x="126.98" y="130.84" width="10.58" height="2.77" fill="#bbbdbf"/><rect x="207.76" y="39.31" width="10.19" height="3.94" fill="#9dc5ff"/><rect x="236.47" y="39.31" width="10.19" height="3.94" fill="#18375f"/><rect x="219.19" y="39.98" width="10.58" height="2.6" fill="#bbbdbf"/><rect x="247.67" y="39.98" width="10.58" height="2.6" fill="#bbbdbf"/><rect x="263.89" y="39.31" width="10.19" height="3.94" fill="#0072bc"/><rect x="275.09" y="39.98" width="10.58" height="2.6" fill="#bbbdbf"/><line x1="312.24" y1="128" x2="221.53" y2="128" fill="none" stroke="#000" stroke-miterlimit="10" stroke-width="0.5"/><line x1="312.24" y1="115.94" x2="221.53" y2="115.94" fill="none" stroke="#d0d2d3" stroke-linecap="round" stroke-linejoin="round" stroke-width="0.25"/><line x1="312.24" y1="103.88" x2="221.53" y2="103.88" fill="none" stroke="#d0d2d3" stroke-linecap="round" stroke-linejoin="round" stroke-width="0.25"/><line x1="312.24" y1="91.81" x2="221.53" y2="91.81" fill="none" stroke="#d0d2d3" stroke-linecap="round" stroke-linejoin="round" stroke-width="0.25"/><line x1="312.24" y1="79.75" x2="221.53" y2="79.75" fill="none" stroke="#d0d2d3" stroke-linecap="round" stroke-linejoin="round" stroke-width="0.25"/><line x1="312.24" y1="67.69" x2="221.53" y2="67.69" fill="none" stroke="#d0d2d3" stroke-linecap="round" stroke-linejoin="round" stroke-width="0.25"/><line x1="312.24" y1="55.63" x2="221.53" y2="55.63" fill="none" stroke="#d0d2d3" stroke-linecap="round" stroke-linejoin="round" stroke-width="0.25"/><rect x="305" y="57.55" width="5.44" height="70.15" fill="#9dc5ff"/><rect x="299.1" y="67.58" width="5.44" height="60.11" fill="#0072bc"/><rect x="293.2" y="72.85" width="5.44" height="54.85" fill="#18375f"/><rect x="281.86" y="76.95" width="5.44" height="50.75" fill="#9dc5ff"/><rect x="275.96" y="84.21" width="5.44" height="43.49" fill="#0072bc"/><rect x="270.06" y="88.02" width="5.44" height="39.68" fill="#18375f"/><rect x="258.72" y="87.61" width="5.44" height="40.09" fill="#9dc5ff"/><rect x="252.81" y="93.35" width="5.44" height="34.35" fill="#0072bc"/><rect x="246.91" y="96.35" width="5.44" height="31.34" fill="#18375f"/><rect x="235.57" y="105.66" width="5.44" height="22.04" fill="#9dc5ff"/><rect x="229.67" y="108.81" width="5.44" height="18.89" fill="#0072bc"/><rect x="223.77" y="110.46" width="5.44" height="17.24" fill="#18375f"/><rect x="227.19" y="130.84" width="10.58" height="2.77" fill="#bbbdbf"/><rect x="208.19" y="126.45" width="10.58" height="2.77" fill="#bbbdbf"/><rect x="208.19" y="115.01" width="10.58" height="2.77" fill="#bbbdbf"/><rect x="208.19" y="102.69" width="10.58" height="2.77" fill="#bbbdbf"/><rect x="208.19" y="90.38" width="10.58" height="2.77" fill="#bbbdbf"/><rect x="208.19" y="78.94" width="10.58" height="2.77" fill="#bbbdbf"/><rect x="208.19" y="66.63" width="10.58" height="2.77" fill="#bbbdbf"/><rect x="208.19" y="54.31" width="10.58" height="2.77" fill="#bbbdbf"/><rect x="250.19" y="130.84" width="10.58" height="2.77" fill="#bbbdbf"/><rect x="273.19" y="130.84" width="10.58" height="2.77" fill="#bbbdbf"/><rect x="297.19" y="130.84" width="10.58" height="2.77" fill="#bbbdbf"/><path d="M31.92,21.87V14.54h2.5a3.56,3.56,0,0,1,3.76,3.67,3.54,3.54,0,0,1-3.76,3.66Zm5.32-3.66a2.69,2.69,0,0,0-2.82-2.86H32.83v5.71h1.59A2.7,2.7,0,0,0,37.24,18.21Z" fill="#0072bc"/><path d="M39.26,19.21a2.63,2.63,0,1,1,5.26,0,2.63,2.63,0,1,1-5.26,0Zm4.39,0a1.78,1.78,0,1,0-3.52,0,1.78,1.78,0,1,0,3.52,0Z" fill="#0072bc"/><circle cx="17.55" cy="17.55" r="7.55" fill="#9dc5ff"/><circle cx="17.55" cy="17.55" r="4.8" fill="#0072bc"/><polyline points="14.8 17.55 16.63 19.38 20.29 15.72" fill="none" stroke="#fff" stroke-linecap="round" stroke-linejoin="round" stroke-width="0.75"/><path d="M201.92,21.87V14.54h2.5a3.56,3.56,0,0,1,3.76,3.67,3.54,3.54,0,0,1-3.76,3.66Zm5.32-3.66a2.69,2.69,0,0,0-2.82-2.86h-1.59v5.71h1.59A2.7,2.7,0,0,0,207.24,18.21Z" fill="#ef4a60"/><path d="M209.27,19.21a2.63,2.63,0,1,1,5.25,0,2.63,2.63,0,1,1-5.25,0Zm4.38,0a1.78,1.78,0,1,0-3.52,0,1.78,1.78,0,1,0,3.52,0Z" fill="#ef4a60"/><path d="M219.44,21.87V18.4c0-.95-.48-1.23-1.19-1.23a2.06,2.06,0,0,0-1.57.82v3.88h-.83V16.56h.83v.77a2.58,2.58,0,0,1,1.9-.9,1.5,1.5,0,0,1,1.68,1.71v3.73Z" fill="#ef4a60"/><path d="M222.07,16.93l-.42-.35a1.65,1.65,0,0,0,.71-1l-.15,0a.53.53,0,0,1-.53-.56.6.6,0,0,1,.59-.59c.37,0,.69.3.69.84A2.14,2.14,0,0,1,222.07,16.93Z" fill="#ef4a60"/><path d="M224.54,20.76V17.29h-.88v-.73h.88V15.11h.83v1.45h1.08v.73h-1.08v3.29c0,.4.18.68.53.68a.75.75,0,0,0,.56-.23l.24.63a1.32,1.32,0,0,1-1,.34A1.08,1.08,0,0,1,224.54,20.76Z" fill="#ef4a60"/><circle cx="187.55" cy="17.55" r="7.55" fill="#ffbcc1"/><circle cx="187.55" cy="17.55" r="4.8" fill="#ef4a60"/><line x1="189.55" y1="15.55" x2="185.55" y2="19.55" fill="none" stroke="#fff" stroke-linecap="round" stroke-linejoin="round" stroke-width="0.75"/><line x1="189.55" y1="19.55" x2="185.55" y2="15.55" fill="none" stroke="#fff" stroke-linecap="round" stroke-linejoin="round" stroke-width="0.75"/></svg>