<svg xmlns="http://www.w3.org/2000/svg" width="350" height="148" viewBox="0 0 350 148"><rect width="350" height="148" fill="#f1f2f2"/><path d="M31.92,21.87V14.54h2.5a3.56,3.56,0,0,1,3.76,3.67,3.54,3.54,0,0,1-3.76,3.66Zm5.32-3.66a2.69,2.69,0,0,0-2.82-2.86H32.83v5.71h1.59A2.7,2.7,0,0,0,37.24,18.21Z" fill="#0072bc"/><path d="M39.26,19.21a2.63,2.63,0,1,1,5.26,0,2.63,2.63,0,1,1-5.26,0Zm4.39,0a1.78,1.78,0,1,0-3.52,0,1.78,1.78,0,1,0,3.52,0Z" fill="#0072bc"/><circle cx="17.55" cy="17.55" r="7.55" fill="#9dc5ff"/><circle cx="17.55" cy="17.55" r="4.8" fill="#0072bc"/><polyline points="14.8 17.55 16.63 19.38 20.29 15.72" fill="none" stroke="#fff" stroke-linecap="round" stroke-linejoin="round" stroke-width="0.75"/><path d="M201.92,21.87V14.54h2.5a3.56,3.56,0,0,1,3.76,3.67,3.54,3.54,0,0,1-3.76,3.66Zm5.32-3.66a2.69,2.69,0,0,0-2.82-2.86h-1.59v5.71h1.59A2.7,2.7,0,0,0,207.24,18.21Z" fill="#ef4a60"/><path d="M209.26,19.21a2.63,2.63,0,1,1,5.26,0,2.63,2.63,0,1,1-5.26,0Zm4.39,0a1.78,1.78,0,1,0-3.52,0,1.78,1.78,0,1,0,3.52,0Z" fill="#ef4a60"/><path d="M219.44,21.87V18.4c0-.95-.48-1.23-1.19-1.23a2.06,2.06,0,0,0-1.57.82v3.88h-.83V16.56h.83v.77a2.58,2.58,0,0,1,1.9-.9,1.5,1.5,0,0,1,1.68,1.71v3.73Z" fill="#ef4a60"/><path d="M222.07,16.93l-.42-.35a1.65,1.65,0,0,0,.71-1l-.15,0a.53.53,0,0,1-.53-.56.6.6,0,0,1,.58-.59c.38,0,.7.3.7.84A2.14,2.14,0,0,1,222.07,16.93Z" fill="#ef4a60"/><path d="M224.54,20.76V17.29h-.88v-.73h.88V15.11h.83v1.45h1.08v.73h-1.08v3.29c0,.4.18.68.53.68a.75.75,0,0,0,.56-.23l.24.63a1.32,1.32,0,0,1-1,.34A1.08,1.08,0,0,1,224.54,20.76Z" fill="#ef4a60"/><circle cx="187.55" cy="17.55" r="7.55" fill="#ffbcc1"/><circle cx="187.55" cy="17.55" r="4.8" fill="#ef4a60"/><line x1="189.55" y1="15.55" x2="185.55" y2="19.55" fill="none" stroke="#fff" stroke-linecap="round" stroke-linejoin="round" stroke-width="0.75"/><line x1="189.55" y1="19.55" x2="185.55" y2="15.55" fill="none" stroke="#fff" stroke-linecap="round" stroke-linejoin="round" stroke-width="0.75"/><line x1="318.1" y1="120.96" x2="215.29" y2="120.96" fill="none" stroke="#000" stroke-miterlimit="10" stroke-width="0.5"/><line x1="318.1" y1="106.64" x2="215.29" y2="106.64" fill="none" stroke="#d0d2d3" stroke-linecap="round" stroke-linejoin="round" stroke-width="0.25"/><line x1="318.1" y1="92.26" x2="215.29" y2="92.26" fill="none" stroke="#d0d2d3" stroke-linecap="round" stroke-linejoin="round" stroke-width="0.25"/><line x1="318.1" y1="77.88" x2="215.29" y2="77.88" fill="none" stroke="#d0d2d3" stroke-linecap="round" stroke-linejoin="round" stroke-width="0.25"/><line x1="318.1" y1="63.5" x2="215.29" y2="63.5" fill="none" stroke="#d0d2d3" stroke-linecap="round" stroke-linejoin="round" stroke-width="0.25"/><line x1="318.1" y1="49.12" x2="215.29" y2="49.12" fill="none" stroke="#d0d2d3" stroke-linecap="round" stroke-linejoin="round" stroke-width="0.25"/><line x1="318.1" y1="34.74" x2="215.29" y2="34.74" fill="none" stroke="#d0d2d3" stroke-linecap="round" stroke-linejoin="round" stroke-width="0.25"/><rect x="300.12" y="37.03" width="14.7" height="83.62" fill="#9dc5ff"/><rect x="279.71" y="56.69" width="14.7" height="63.96" fill="#9dc5ff"/><rect x="259.29" y="63.1" width="14.7" height="57.56" fill="#9dc5ff"/><rect x="238.88" y="74.99" width="14.7" height="45.67" fill="#9dc5ff"/><rect x="218.47" y="85.97" width="14.7" height="34.69" fill="#9dc5ff"/><rect x="300.12" y="78.85" width="14.7" height="41.81" fill="#0072bb"/><rect x="279.71" y="88.68" width="14.7" height="31.98" fill="#0072bb"/><rect x="259.29" y="91.88" width="14.7" height="28.78" fill="#0072bb"/><rect x="238.88" y="97.83" width="14.7" height="22.83" fill="#0072bb"/><rect x="218.47" y="103.31" width="14.7" height="17.34" fill="#0072bb"/><rect x="202.52" y="119.22" width="10.03" height="3.15" fill="#bbbdbf"/><rect x="202.52" y="105.22" width="10.03" height="3.15" fill="#bbbdbf"/><rect x="202.52" y="90.22" width="10.03" height="3.15" fill="#bbbdbf"/><rect x="202.52" y="76.22" width="10.03" height="3.15" fill="#bbbdbf"/><rect x="202.52" y="62.22" width="10.03" height="3.15" fill="#bbbdbf"/><rect x="202.52" y="47.22" width="10.03" height="3.15" fill="#bbbdbf"/><rect x="202.52" y="33.22" width="10.03" height="3.15" fill="#bbbdbf"/><path d="M309.11,135.84h-.4c-1.13-1.44-1.8-2.23-2.49-2.23a.75.75,0,0,0-.73.84,1.36,1.36,0,0,0,.51,1.09l-.32.3a1.69,1.69,0,0,1-.63-1.39,1.22,1.22,0,0,1,1.17-1.34c.82,0,1.56.83,2.44,1.94v-2h.45Z" fill="#5e5e5e"/><path d="M307.11,132.33c-1,0-2.06-.43-2.06-1.53s1.08-1.53,2.06-1.53,2.07.44,2.07,1.53S308.08,132.33,307.11,132.33Zm0-2.55c-.8,0-1.62.26-1.62,1s.82,1,1.62,1,1.63-.26,1.63-1S307.91,129.78,307.11,129.78Z" fill="#5e5e5e"/><path d="M309.11,128.64h-.4c-1.13-1.44-1.8-2.23-2.49-2.23a.75.75,0,0,0-.73.84,1.36,1.36,0,0,0,.51,1.09l-.32.3a1.69,1.69,0,0,1-.63-1.39,1.22,1.22,0,0,1,1.17-1.34c.82,0,1.56.83,2.44,1.94v-2h.45Z" fill="#5e5e5e"/><path d="M309.11,124.37h-3.35l.69.64-.31.3-1-1v-.44h4Z" fill="#5e5e5e"/><path d="M289.11,137.48h-.4c-1.13-1.44-1.8-2.23-2.49-2.23a.75.75,0,0,0-.73.84,1.36,1.36,0,0,0,.51,1.09l-.32.3a1.69,1.69,0,0,1-.63-1.39,1.22,1.22,0,0,1,1.17-1.34c.82,0,1.56.83,2.44,1.94v-2h.45Z" fill="#5e5e5e"/><path d="M287.11,134c-1,0-2.06-.43-2.06-1.53s1.08-1.53,2.06-1.53,2.07.44,2.07,1.53S288.08,134,287.11,134Zm0-2.55c-.8,0-1.62.26-1.62,1s.82,1,1.62,1,1.63-.26,1.63-1S287.91,131.42,287.11,131.42Z" fill="#5e5e5e"/><path d="M289.11,130.28h-.4c-1.13-1.44-1.8-2.23-2.49-2.23a.75.75,0,0,0-.73.84A1.36,1.36,0,0,0,286,130l-.32.3a1.69,1.69,0,0,1-.63-1.39,1.22,1.22,0,0,1,1.17-1.34c.82,0,1.56.83,2.44,1.94v-2h.45Z" fill="#5e5e5e"/><path d="M287.11,126.77c-1,0-2.06-.43-2.06-1.53s1.08-1.53,2.06-1.53,2.07.44,2.07,1.53S288.08,126.77,287.11,126.77Zm0-2.55c-.8,0-1.62.26-1.62,1s.82,1,1.62,1,1.63-.26,1.63-1S287.91,124.22,287.11,124.22Z" fill="#5e5e5e"/><path d="M269.11,135.86h-.4c-1.13-1.44-1.8-2.23-2.49-2.23a.75.75,0,0,0-.73.84,1.36,1.36,0,0,0,.51,1.09l-.32.3a1.69,1.69,0,0,1-.63-1.39,1.22,1.22,0,0,1,1.17-1.34c.82,0,1.56.83,2.44,1.94v-2h.45Z" fill="#5e5e5e"/><path d="M267.11,132.35c-1,0-2.06-.43-2.06-1.53s1.08-1.53,2.06-1.53,2.07.44,2.07,1.53S268.08,132.35,267.11,132.35Zm0-2.55c-.8,0-1.62.26-1.62,1s.82,1,1.62,1,1.63-.26,1.63-1S267.91,129.8,267.11,129.8Z" fill="#5e5e5e"/><path d="M269.11,127.91h-3.35l.69.64-.31.3-1-1v-.43h4Z" fill="#5e5e5e"/><path d="M268.69,126.44l-.37-.25a1,1,0,0,0,.41-.86c0-.81-.81-1.12-1.57-1.12H267a1.44,1.44,0,0,1,.63,1.13,1.21,1.21,0,0,1-1.28,1.31,1.32,1.32,0,0,1-1.31-1.4c0-1.12,1-1.55,2.07-1.55s2.06.51,2.06,1.63A1.38,1.38,0,0,1,268.69,126.44Zm-2.1-2.22a1.08,1.08,0,0,0-1.1,1,.87.87,0,0,0,.84.92.82.82,0,0,0,.86-.92A1.22,1.22,0,0,0,266.59,124.22Z" fill="#5e5e5e"/><path d="M248.11,135.8h-.4c-1.13-1.44-1.8-2.22-2.49-2.22a.75.75,0,0,0-.73.84,1.32,1.32,0,0,0,.51,1.08l-.32.31a1.72,1.72,0,0,1-.63-1.39,1.22,1.22,0,0,1,1.17-1.35c.82,0,1.56.83,2.44,2v-2h.45Z" fill="#5e5e5e"/><path d="M246.11,132.29c-1,0-2.06-.43-2.06-1.53s1.08-1.53,2.06-1.53,2.07.44,2.07,1.53S247.08,132.29,246.11,132.29Zm0-2.55c-.8,0-1.62.26-1.62,1s.82,1,1.62,1,1.63-.26,1.63-1S246.91,129.74,246.11,129.74Z" fill="#5e5e5e"/><path d="M248.11,127.86h-3.35l.69.64-.31.3-1-1v-.44h4Z" fill="#5e5e5e"/><path d="M247.09,126.58a1.2,1.2,0,0,1-1.05-1,1,1,0,0,1-1,.88c-.71,0-1-.7-1-1.36s.32-1.38,1-1.38a1.06,1.06,0,0,1,1,.9,1.2,1.2,0,0,1,1.05-1c.68,0,1.09.65,1.09,1.44S247.78,126.58,247.09,126.58Zm-1.94-2.3c-.41,0-.66.39-.66.87s.25.86.66.86.65-.62.69-.86S245.64,124.28,245.15,124.28Zm1.89-.06c-.52,0-.74.68-.77.93s.25.93.77.93.7-.44.7-.93S247.47,124.22,247,124.22Z" fill="#5e5e5e"/><path d="M227.11,135.4h-.4c-1.13-1.44-1.8-2.22-2.49-2.22a.75.75,0,0,0-.73.84,1.32,1.32,0,0,0,.51,1.08l-.32.31a1.72,1.72,0,0,1-.63-1.39,1.22,1.22,0,0,1,1.17-1.35c.82,0,1.56.83,2.44,2v-2h.45Z" fill="#5e5e5e"/><path d="M225.11,131.89c-1,0-2.06-.43-2.06-1.53s1.08-1.53,2.06-1.53,2.07.44,2.07,1.53S226.08,131.89,225.11,131.89Zm0-2.55c-.8,0-1.62.26-1.62,1s.82,1,1.62,1,1.63-.26,1.63-1S225.91,129.34,225.11,129.34Z" fill="#5e5e5e"/><path d="M227.11,127.46h-3.35l.69.64-.31.3-1-1V127h4Z" fill="#5e5e5e"/><path d="M227.11,125.76l-3.56-1.61v2.15h-.44v-2.72h.34l3.66,1.63Z" fill="#5e5e5e"/><line x1="148.1" y1="125.22" x2="45.29" y2="125.22" fill="none" stroke="#000" stroke-miterlimit="10" stroke-width="0.5"/><line x1="148.1" y1="110.9" x2="45.29" y2="110.9" fill="none" stroke="#d0d2d3" stroke-linecap="round" stroke-linejoin="round" stroke-width="0.25"/><line x1="148.1" y1="96.52" x2="45.29" y2="96.52" fill="none" stroke="#d0d2d3" stroke-linecap="round" stroke-linejoin="round" stroke-width="0.25"/><line x1="148.1" y1="82.14" x2="45.29" y2="82.14" fill="none" stroke="#d0d2d3" stroke-linecap="round" stroke-linejoin="round" stroke-width="0.25"/><line x1="148.1" y1="67.76" x2="45.29" y2="67.76" fill="none" stroke="#d0d2d3" stroke-linecap="round" stroke-linejoin="round" stroke-width="0.25"/><line x1="148.1" y1="53.38" x2="45.29" y2="53.38" fill="none" stroke="#d0d2d3" stroke-linecap="round" stroke-linejoin="round" stroke-width="0.25"/><line x1="148.1" y1="39" x2="45.29" y2="39" fill="none" stroke="#d0d2d3" stroke-linecap="round" stroke-linejoin="round" stroke-width="0.25"/><rect x="130.12" y="41.3" width="14.7" height="83.62" fill="#9dc5ff"/><rect x="109.71" y="60.96" width="14.7" height="63.96" fill="#9dc5ff"/><rect x="89.29" y="67.36" width="14.7" height="57.56" fill="#9dc5ff"/><rect x="68.88" y="79.25" width="14.7" height="45.67" fill="#9dc5ff"/><rect x="48.47" y="90.23" width="14.7" height="34.69" fill="#9dc5ff"/><rect x="130.12" y="83.11" width="14.7" height="41.81" fill="#0072bb"/><rect x="109.71" y="92.94" width="14.7" height="31.98" fill="#0072bb"/><rect x="89.29" y="96.14" width="14.7" height="28.78" fill="#0072bb"/><rect x="68.88" y="102.09" width="14.7" height="22.83" fill="#0072bb"/><rect x="48.47" y="107.58" width="14.7" height="17.34" fill="#0072bb"/><rect x="32.52" y="123.48" width="10.03" height="3.15" fill="#bbbdbf"/><rect x="32.52" y="109.48" width="10.03" height="3.15" fill="#bbbdbf"/><rect x="32.52" y="94.48" width="10.03" height="3.15" fill="#bbbdbf"/><rect x="32.52" y="80.48" width="10.03" height="3.15" fill="#bbbdbf"/><rect x="32.52" y="66.48" width="10.03" height="3.15" fill="#bbbdbf"/><rect x="32.52" y="51.48" width="10.03" height="3.15" fill="#bbbdbf"/><rect x="32.52" y="37.48" width="10.03" height="3.15" fill="#bbbdbf"/><path d="M131.18,132.91v-.4c1.44-1.13,2.22-1.79,2.22-2.48a.74.74,0,0,0-.84-.73,1.32,1.32,0,0,0-1.08.5l-.31-.32a1.75,1.75,0,0,1,1.39-.63,1.22,1.22,0,0,1,1.35,1.18c0,.81-.83,1.56-1.95,2.44h2v.44Z" fill="#5e5e5e"/><path d="M134.69,130.92c0-1,.43-2.07,1.53-2.07s1.53,1.09,1.53,2.07-.44,2.07-1.53,2.07S134.69,131.89,134.69,130.92Zm2.55,0c0-.8-.26-1.62-1-1.62s-1,.82-1,1.62.26,1.62,1,1.62S137.24,131.71,137.24,130.92Z" fill="#5e5e5e"/><path d="M138.38,132.91v-.4c1.44-1.13,2.22-1.79,2.22-2.48a.74.74,0,0,0-.84-.73,1.33,1.33,0,0,0-1.08.5l-.31-.32a1.75,1.75,0,0,1,1.39-.63,1.22,1.22,0,0,1,1.35,1.18c0,.81-.83,1.56-1.94,2.44h2v.44Z" fill="#5e5e5e"/><path d="M142.65,132.91v-3.34l-.64.68-.3-.31,1-1h.44v4Z" fill="#5e5e5e"/><path d="M109.54,132.91v-.4c1.44-1.13,2.23-1.79,2.23-2.48a.75.75,0,0,0-.84-.73,1.34,1.34,0,0,0-1.09.5l-.31-.32a1.75,1.75,0,0,1,1.4-.63,1.22,1.22,0,0,1,1.34,1.18c0,.81-.83,1.56-1.94,2.44h2v.44Z" fill="#5e5e5e"/><path d="M113.05,130.92c0-1,.43-2.07,1.53-2.07s1.53,1.09,1.53,2.07-.44,2.07-1.53,2.07S113.05,131.89,113.05,130.92Zm2.55,0c0-.8-.26-1.62-1-1.62s-1,.82-1,1.62.26,1.62,1,1.62S115.6,131.71,115.6,130.92Z" fill="#5e5e5e"/><path d="M116.74,132.91v-.4c1.44-1.13,2.23-1.79,2.23-2.48a.75.75,0,0,0-.84-.73,1.34,1.34,0,0,0-1.09.5l-.31-.32a1.75,1.75,0,0,1,1.4-.63,1.22,1.22,0,0,1,1.34,1.18c0,.81-.83,1.56-1.94,2.44h2v.44Z" fill="#5e5e5e"/><path d="M120.25,130.92c0-1,.43-2.07,1.53-2.07s1.53,1.09,1.53,2.07-.44,2.07-1.53,2.07S120.25,131.89,120.25,130.92Zm2.55,0c0-.8-.26-1.62-1-1.62s-1,.82-1,1.62.26,1.62,1,1.62S122.8,131.71,122.8,130.92Z" fill="#5e5e5e"/><path d="M91.16,132.91v-.4c1.44-1.13,2.23-1.79,2.23-2.48a.75.75,0,0,0-.84-.73,1.34,1.34,0,0,0-1.09.5l-.31-.32a1.75,1.75,0,0,1,1.4-.63A1.22,1.22,0,0,1,93.89,130c0,.81-.83,1.56-1.94,2.44h2v.44Z" fill="#5e5e5e"/><path d="M94.67,130.92c0-1,.43-2.07,1.53-2.07s1.53,1.09,1.53,2.07S97.29,133,96.2,133,94.67,131.89,94.67,130.92Zm2.55,0c0-.8-.26-1.62-1-1.62s-1,.82-1,1.62.26,1.62,1,1.62S97.22,131.71,97.22,130.92Z" fill="#5e5e5e"/><path d="M99.1,132.91v-3.34l-.64.68-.3-.31,1-1h.44v4Z" fill="#5e5e5e"/><path d="M100.58,132.5l.25-.37a1,1,0,0,0,.85.41c.81,0,1.13-.81,1.13-1.58v-.15a1.46,1.46,0,0,1-1.13.62,1.21,1.21,0,0,1-1.31-1.28,1.31,1.31,0,0,1,1.4-1.3c1.11,0,1.55,1,1.55,2.07s-.51,2.06-1.64,2.06A1.39,1.39,0,0,1,100.58,132.5Zm2.21-2.1a1.07,1.07,0,0,0-1-1.11.87.87,0,0,0-.92.85.83.83,0,0,0,.92.86A1.21,1.21,0,0,0,102.79,130.4Z" fill="#5e5e5e"/><path d="M70.22,132.91v-.4c1.43-1.13,2.22-1.79,2.22-2.48a.75.75,0,0,0-.84-.73,1.32,1.32,0,0,0-1.08.5l-.31-.32a1.75,1.75,0,0,1,1.39-.63A1.21,1.21,0,0,1,72.94,130c0,.81-.82,1.56-1.94,2.44h2v.44Z" fill="#5e5e5e"/><path d="M73.73,130.92c0-1,.43-2.07,1.52-2.07s1.53,1.09,1.53,2.07S76.35,133,75.25,133,73.73,131.89,73.73,130.92Zm2.54,0c0-.8-.25-1.62-1-1.62s-1,.82-1,1.62.25,1.62,1,1.62S76.27,131.71,76.27,130.92Z" fill="#5e5e5e"/><path d="M78.16,132.91v-3.34l-.64.68-.3-.31,1-1h.44v4Z" fill="#5e5e5e"/><path d="M79.44,131.9a1.18,1.18,0,0,1,1-1.05,1.06,1.06,0,0,1-.89-1c0-.72.71-1,1.37-1s1.37.32,1.37,1a1.06,1.06,0,0,1-.89,1,1.18,1.18,0,0,1,1,1.05c0,.68-.64,1.09-1.43,1.09S79.44,132.58,79.44,131.9Zm2.36-.05c0-.53-.68-.75-.93-.78s-.93.25-.93.78.43.69.93.69S81.8,132.28,81.8,131.85ZM81.74,130c0-.42-.39-.66-.87-.66s-.86.24-.86.66.62.64.86.69S81.74,130.44,81.74,130Z" fill="#5e5e5e"/><path d="M49.62,132.91v-.4c1.44-1.13,2.22-1.79,2.22-2.48a.74.74,0,0,0-.84-.73,1.32,1.32,0,0,0-1.08.5l-.31-.32a1.75,1.75,0,0,1,1.39-.63A1.22,1.22,0,0,1,52.35,130c0,.81-.83,1.56-2,2.44h2v.44Z" fill="#5e5e5e"/><path d="M53.13,130.92c0-1,.43-2.07,1.53-2.07s1.53,1.09,1.53,2.07S55.75,133,54.66,133,53.13,131.89,53.13,130.92Zm2.55,0c0-.8-.26-1.62-1-1.62s-1,.82-1,1.62.25,1.62,1,1.62S55.68,131.71,55.68,130.92Z" fill="#5e5e5e"/><path d="M57.56,132.91v-3.34l-.64.68-.3-.31,1-1h.44v4Z" fill="#5e5e5e"/><path d="M59.25,132.91l1.62-3.55H58.71v-.45h2.73v.34l-1.64,3.66Z" fill="#5e5e5e"/></svg>