<svg xmlns="http://www.w3.org/2000/svg" width="350" height="148" viewBox="0 0 350 148"><rect width="350" height="148" fill="#f1f2f2"/><line x1="148.1" y1="125.22" x2="45.29" y2="125.22" fill="none" stroke="#000" stroke-miterlimit="10" stroke-width="0.5"/><line x1="148.1" y1="110.9" x2="45.29" y2="110.9" fill="none" stroke="#d0d2d3" stroke-linecap="round" stroke-linejoin="round" stroke-width="0.25"/><line x1="148.1" y1="96.52" x2="45.29" y2="96.52" fill="none" stroke="#d0d2d3" stroke-linecap="round" stroke-linejoin="round" stroke-width="0.25"/><line x1="148.1" y1="82.14" x2="45.29" y2="82.14" fill="none" stroke="#d0d2d3" stroke-linecap="round" stroke-linejoin="round" stroke-width="0.25"/><line x1="148.1" y1="67.76" x2="45.29" y2="67.76" fill="none" stroke="#d0d2d3" stroke-linecap="round" stroke-linejoin="round" stroke-width="0.25"/><line x1="148.1" y1="53.38" x2="45.29" y2="53.38" fill="none" stroke="#d0d2d3" stroke-linecap="round" stroke-linejoin="round" stroke-width="0.25"/><line x1="148.1" y1="39" x2="45.29" y2="39" fill="none" stroke="#d0d2d3" stroke-linecap="round" stroke-linejoin="round" stroke-width="0.25"/><rect x="130.12" y="41.3" width="14.7" height="83.62" fill="#9dc5ff"/><rect x="109.71" y="60.96" width="14.7" height="63.96" fill="#9dc5ff"/><rect x="89.29" y="67.36" width="14.7" height="57.56" fill="#9dc5ff"/><rect x="68.88" y="79.25" width="14.7" height="45.67" fill="#9dc5ff"/><rect x="48.47" y="90.23" width="14.7" height="34.69" fill="#9dc5ff"/><rect x="130.12" y="83.11" width="14.7" height="41.81" fill="#0072bb"/><rect x="109.71" y="92.94" width="14.7" height="31.98" fill="#0072bb"/><rect x="89.29" y="96.14" width="14.7" height="28.78" fill="#0072bb"/><rect x="68.88" y="102.09" width="14.7" height="22.83" fill="#0072bb"/><rect x="48.47" y="107.58" width="14.7" height="17.34" fill="#0072bb"/><rect x="132.52" y="128.48" width="10.03" height="3.15" fill="#bbbdbf"/><rect x="112.52" y="128.48" width="10.03" height="3.15" fill="#bbbdbf"/><rect x="91.52" y="128.48" width="10.03" height="3.15" fill="#bbbdbf"/><rect x="71.52" y="128.48" width="10.03" height="3.15" fill="#bbbdbf"/><rect x="50.52" y="128.48" width="10.03" height="3.15" fill="#bbbdbf"/><rect x="32.52" y="123.48" width="10.03" height="3.15" fill="#bbbdbf"/><rect x="32.52" y="109.48" width="10.03" height="3.15" fill="#bbbdbf"/><rect x="32.52" y="94.48" width="10.03" height="3.15" fill="#bbbdbf"/><rect x="32.52" y="80.48" width="10.03" height="3.15" fill="#bbbdbf"/><rect x="32.52" y="66.48" width="10.03" height="3.15" fill="#bbbdbf"/><rect x="32.52" y="51.48" width="10.03" height="3.15" fill="#bbbdbf"/><rect x="32.52" y="37.48" width="10.03" height="3.15" fill="#bbbdbf"/><line x1="317.65" y1="126" x2="214.84" y2="126" fill="none" stroke="#000" stroke-miterlimit="10" stroke-width="0.5"/><line x1="317.65" y1="111.55" x2="214.84" y2="111.55" fill="none" stroke="#d0d2d3" stroke-linecap="round" stroke-linejoin="round" stroke-width="0.25"/><line x1="317.65" y1="97.04" x2="214.84" y2="97.04" fill="none" stroke="#d0d2d3" stroke-linecap="round" stroke-linejoin="round" stroke-width="0.25"/><line x1="317.65" y1="82.53" x2="214.84" y2="82.53" fill="none" stroke="#d0d2d3" stroke-linecap="round" stroke-linejoin="round" stroke-width="0.25"/><line x1="317.65" y1="68.02" x2="214.84" y2="68.02" fill="none" stroke="#d0d2d3" stroke-linecap="round" stroke-linejoin="round" stroke-width="0.25"/><line x1="317.65" y1="53.51" x2="214.84" y2="53.51" fill="none" stroke="#d0d2d3" stroke-linecap="round" stroke-linejoin="round" stroke-width="0.25"/><line x1="317.65" y1="39" x2="214.84" y2="39" fill="none" stroke="#d0d2d3" stroke-linecap="round" stroke-linejoin="round" stroke-width="0.25"/><rect x="299.67" y="41.32" width="14.7" height="84.38" fill="#ef4a60"/><rect x="279.25" y="61.16" width="14.7" height="64.54" fill="#ef4a60"/><rect x="258.84" y="67.62" width="14.7" height="58.08" fill="#ef4a60"/><rect x="238.43" y="79.62" width="14.7" height="46.08" fill="#ef4a60"/><rect x="218.02" y="90.7" width="14.7" height="35" fill="#ef4a60"/><rect x="299.67" y="49.15" width="14.7" height="76.54" fill="#919191"/><rect x="279.25" y="67.15" width="14.7" height="58.54" fill="#919191"/><rect x="258.84" y="73.01" width="14.7" height="52.68" fill="#919191"/><rect x="238.43" y="83.9" width="14.7" height="41.8" fill="#919191"/><rect x="218.02" y="93.95" width="14.7" height="31.75" fill="#919191"/><rect x="299.67" y="58.39" width="14.7" height="67.31" fill="#00b398"/><rect x="279.25" y="74.21" width="14.7" height="51.48" fill="#00b398"/><rect x="258.84" y="79.37" width="14.7" height="46.33" fill="#00b398"/><rect x="238.43" y="88.94" width="14.7" height="36.76" fill="#00b398"/><rect x="218.02" y="97.78" width="14.7" height="27.92" fill="#00b398"/><rect x="299.67" y="69.46" width="14.7" height="56.23" fill="#9dc5ff"/><rect x="279.25" y="82.68" width="14.7" height="43.01" fill="#9dc5ff"/><rect x="258.84" y="86.99" width="14.7" height="38.7" fill="#9dc5ff"/><rect x="238.43" y="94.99" width="14.7" height="30.71" fill="#9dc5ff"/><rect x="218.02" y="102.37" width="14.7" height="23.32" fill="#9dc5ff"/><rect x="299.67" y="84.23" width="14.7" height="41.46" fill="#0072bb"/><rect x="279.25" y="93.98" width="14.7" height="31.71" fill="#0072bb"/><rect x="258.84" y="97.16" width="14.7" height="28.54" fill="#0072bb"/><rect x="238.43" y="103.05" width="14.7" height="22.64" fill="#0072bb"/><rect x="218.02" y="108.5" width="14.7" height="17.2" fill="#0072bb"/><rect x="299.67" y="104.54" width="14.7" height="21.15" fill="#18375f"/><rect x="279.25" y="109.52" width="14.7" height="16.18" fill="#18375f"/><rect x="258.84" y="111.14" width="14.7" height="14.56" fill="#18375f"/><rect x="238.43" y="114.14" width="14.7" height="11.55" fill="#18375f"/><rect x="218.02" y="116.92" width="14.7" height="8.77" fill="#18375f"/><rect x="301.97" y="128.48" width="10.03" height="3.15" fill="#bbbdbf"/><rect x="281.97" y="128.48" width="10.03" height="3.15" fill="#bbbdbf"/><rect x="260.97" y="128.48" width="10.03" height="3.15" fill="#bbbdbf"/><rect x="240.97" y="128.48" width="10.03" height="3.15" fill="#bbbdbf"/><rect x="219.97" y="128.48" width="10.03" height="3.15" fill="#bbbdbf"/><rect x="202.97" y="124.48" width="10.03" height="3.15" fill="#bbbdbf"/><rect x="202.97" y="110.48" width="10.03" height="3.15" fill="#bbbdbf"/><rect x="202.97" y="95.48" width="10.03" height="3.15" fill="#bbbdbf"/><rect x="202.97" y="81.48" width="10.03" height="3.15" fill="#bbbdbf"/><rect x="202.97" y="67.48" width="10.03" height="3.15" fill="#bbbdbf"/><rect x="202.97" y="52.48" width="10.03" height="3.15" fill="#bbbdbf"/><rect x="202.97" y="38.48" width="10.03" height="3.15" fill="#bbbdbf"/><path d="M31.92,21.87V14.54h2.5a3.56,3.56,0,0,1,3.76,3.67,3.54,3.54,0,0,1-3.76,3.66Zm5.32-3.66a2.69,2.69,0,0,0-2.82-2.86H32.83v5.71h1.59A2.7,2.7,0,0,0,37.24,18.21Z" fill="#0072bc"/><path d="M39.26,19.21a2.63,2.63,0,1,1,5.26,0,2.63,2.63,0,1,1-5.26,0Zm4.39,0a1.78,1.78,0,1,0-3.52,0,1.78,1.78,0,1,0,3.52,0Z" fill="#0072bc"/><circle cx="17.55" cy="17.55" r="7.55" fill="#9dc5ff"/><circle cx="17.55" cy="17.55" r="4.8" fill="#0072bc"/><polyline points="14.8 17.55 16.63 19.38 20.29 15.72" fill="none" stroke="#fff" stroke-linecap="round" stroke-linejoin="round" stroke-width="0.75"/><path d="M201.92,21.87V14.54h2.5a3.56,3.56,0,0,1,3.76,3.67,3.54,3.54,0,0,1-3.76,3.66Zm5.32-3.66a2.69,2.69,0,0,0-2.82-2.86h-1.59v5.71h1.59A2.7,2.7,0,0,0,207.24,18.21Z" fill="#ef4a60"/><path d="M209.26,19.21a2.63,2.63,0,1,1,5.26,0,2.63,2.63,0,1,1-5.26,0Zm4.39,0a1.78,1.78,0,1,0-3.52,0,1.78,1.78,0,1,0,3.52,0Z" fill="#ef4a60"/><path d="M219.44,21.87V18.4c0-.95-.48-1.23-1.19-1.23a2.06,2.06,0,0,0-1.57.82v3.88h-.83V16.56h.83v.77a2.58,2.58,0,0,1,1.9-.9,1.5,1.5,0,0,1,1.68,1.71v3.73Z" fill="#ef4a60"/><path d="M222.07,16.93l-.42-.35a1.65,1.65,0,0,0,.71-1l-.15,0a.53.53,0,0,1-.53-.56.6.6,0,0,1,.58-.59c.38,0,.7.3.7.84A2.14,2.14,0,0,1,222.07,16.93Z" fill="#ef4a60"/><path d="M224.54,20.76V17.29h-.88v-.73h.88V15.11h.83v1.45h1.08v.73h-1.08v3.29c0,.4.18.68.53.68a.75.75,0,0,0,.56-.23l.24.63a1.32,1.32,0,0,1-1,.34A1.08,1.08,0,0,1,224.54,20.76Z" fill="#ef4a60"/><circle cx="187.55" cy="17.55" r="7.55" fill="#ffbcc1"/><circle cx="187.55" cy="17.55" r="4.8" fill="#ef4a60"/><line x1="189.55" y1="15.55" x2="185.55" y2="19.55" fill="none" stroke="#fff" stroke-linecap="round" stroke-linejoin="round" stroke-width="0.75"/><line x1="189.55" y1="19.55" x2="185.55" y2="15.55" fill="none" stroke="#fff" stroke-linecap="round" stroke-linejoin="round" stroke-width="0.75"/></svg>