<svg xmlns="http://www.w3.org/2000/svg" width="10cm" height="10cm" viewBox="0 0 283.46 283.46"><rect x="0.5" y="0.5" width="282.47" height="282.47" fill="#fff"/><rect x="0.5" y="0.5" width="282.47" height="282.47" fill="#fff"/><path d="M283.46,283.46H0V0H283.46ZM1,282.47H282.47V1H1Z" fill="#0d73bb"/><rect x="28.35" y="126.75" width="31.5" height="116.09" fill="#0d73bb"/><rect x="59.84" y="148.78" width="31.5" height="94.06" fill="#0d73bb"/><rect x="110.24" y="40.63" width="31.5" height="202.21" fill="#0d73bb"/><rect x="141.73" y="75.77" width="31.5" height="167.07" fill="#0d73bb"/><rect x="192.13" y="91.66" width="31.5" height="151.18" fill="#0d73bb"/><rect x="223.62" y="152.76" width="31.5" height="90.08" fill="#0d73bb"/><rect x="28.35" y="126.75" width="31.5" height="116.09" fill="#0d73bb"/><rect x="59.84" y="148.78" width="31.5" height="94.06" fill="#0d73bb"/><rect x="110.24" y="40.63" width="31.5" height="202.21" fill="#0d73bb"/><rect x="141.73" y="75.77" width="31.5" height="167.07" fill="#0d73bb"/><rect x="192.13" y="91.66" width="31.5" height="151.18" fill="#0d73bb"/><rect x="223.62" y="152.76" width="31.5" height="90.08" fill="#0d73bb"/><rect x="28.35" y="126.75" width="31.5" height="116.09" fill="none" stroke="#fff" stroke-miterlimit="10"/><rect x="59.84" y="148.78" width="31.5" height="94.06" fill="none" stroke="#fff" stroke-miterlimit="10"/><rect x="110.24" y="40.63" width="31.5" height="202.21" fill="none" stroke="#fff" stroke-miterlimit="10"/><rect x="141.73" y="75.77" width="31.5" height="167.07" fill="none" stroke="#fff" stroke-miterlimit="10"/><rect x="192.13" y="91.66" width="31.5" height="151.18" fill="none" stroke="#fff" stroke-miterlimit="10"/><rect x="223.62" y="152.76" width="31.5" height="90.08" fill="none" stroke="#fff" stroke-miterlimit="10"/></svg>