<svg xmlns="http://www.w3.org/2000/svg" width="350" height="148" viewBox="0 0 350 148"><rect width="350" height="148" fill="#f1f2f2"/><path d="M31.92,21.87V14.54h2.5a3.56,3.56,0,0,1,3.76,3.67,3.54,3.54,0,0,1-3.76,3.66Zm5.32-3.66a2.69,2.69,0,0,0-2.82-2.86H32.83v5.71h1.59A2.7,2.7,0,0,0,37.24,18.21Z" fill="#0072bc"/><path d="M39.26,19.21a2.63,2.63,0,1,1,5.26,0,2.63,2.63,0,1,1-5.26,0Zm4.39,0a1.78,1.78,0,1,0-3.52,0,1.78,1.78,0,1,0,3.52,0Z" fill="#0072bc"/><circle cx="17.55" cy="17.55" r="7.55" fill="#9dc5ff"/><circle cx="17.55" cy="17.55" r="4.8" fill="#0072bc"/><polyline points="14.8 17.55 16.63 19.38 20.29 15.72" fill="none" stroke="#fff" stroke-linecap="round" stroke-linejoin="round" stroke-width="0.75"/><path d="M201.92,21.87V14.54h2.5a3.56,3.56,0,0,1,3.76,3.67,3.54,3.54,0,0,1-3.76,3.66Zm5.32-3.66a2.69,2.69,0,0,0-2.82-2.86h-1.59v5.71h1.59A2.7,2.7,0,0,0,207.24,18.21Z" fill="#ef4a60"/><path d="M209.26,19.21a2.63,2.63,0,1,1,5.26,0,2.63,2.63,0,1,1-5.26,0Zm4.39,0a1.78,1.78,0,1,0-3.52,0,1.78,1.78,0,1,0,3.52,0Z" fill="#ef4a60"/><path d="M219.44,21.87V18.4c0-.95-.48-1.23-1.19-1.23a2.06,2.06,0,0,0-1.57.82v3.88h-.83V16.56h.83v.77a2.58,2.58,0,0,1,1.9-.9,1.5,1.5,0,0,1,1.68,1.71v3.73Z" fill="#ef4a60"/><path d="M222.07,16.93l-.42-.35a1.65,1.65,0,0,0,.71-1l-.15,0a.53.53,0,0,1-.53-.56.6.6,0,0,1,.58-.59c.38,0,.7.3.7.84A2.14,2.14,0,0,1,222.07,16.93Z" fill="#ef4a60"/><path d="M224.54,20.76V17.29h-.88v-.73h.88V15.11h.83v1.45h1.08v.73h-1.08v3.29c0,.4.18.68.53.68a.75.75,0,0,0,.56-.23l.24.63a1.32,1.32,0,0,1-1,.34A1.08,1.08,0,0,1,224.54,20.76Z" fill="#ef4a60"/><circle cx="187.55" cy="17.55" r="7.55" fill="#ffbcc1"/><circle cx="187.55" cy="17.55" r="4.8" fill="#ef4a60"/><line x1="189.55" y1="15.55" x2="185.55" y2="19.55" fill="none" stroke="#fff" stroke-linecap="round" stroke-linejoin="round" stroke-width="0.75"/><line x1="189.55" y1="19.55" x2="185.55" y2="15.55" fill="none" stroke="#fff" stroke-linecap="round" stroke-linejoin="round" stroke-width="0.75"/><line x1="148.1" y1="120.96" x2="45.29" y2="120.96" fill="none" stroke="#000" stroke-miterlimit="10" stroke-width="0.5"/><line x1="148.1" y1="106.64" x2="45.29" y2="106.64" fill="none" stroke="#d0d2d3" stroke-linecap="round" stroke-linejoin="round" stroke-width="0.25"/><line x1="148.1" y1="92.26" x2="45.29" y2="92.26" fill="none" stroke="#d0d2d3" stroke-linecap="round" stroke-linejoin="round" stroke-width="0.25"/><line x1="148.1" y1="77.88" x2="45.29" y2="77.88" fill="none" stroke="#d0d2d3" stroke-linecap="round" stroke-linejoin="round" stroke-width="0.25"/><line x1="148.1" y1="63.5" x2="45.29" y2="63.5" fill="none" stroke="#d0d2d3" stroke-linecap="round" stroke-linejoin="round" stroke-width="0.25"/><line x1="148.1" y1="49.12" x2="45.29" y2="49.12" fill="none" stroke="#d0d2d3" stroke-linecap="round" stroke-linejoin="round" stroke-width="0.25"/><line x1="148.1" y1="34.74" x2="45.29" y2="34.74" fill="none" stroke="#d0d2d3" stroke-linecap="round" stroke-linejoin="round" stroke-width="0.25"/><rect x="130.12" y="37.03" width="14.7" height="83.62" fill="#9dc5ff"/><rect x="109.71" y="56.69" width="14.7" height="63.96" fill="#9dc5ff"/><rect x="89.29" y="63.1" width="14.7" height="57.56" fill="#9dc5ff"/><rect x="68.88" y="74.99" width="14.7" height="45.67" fill="#9dc5ff"/><rect x="48.47" y="85.97" width="14.7" height="34.69" fill="#9dc5ff"/><rect x="130.12" y="78.85" width="14.7" height="41.81" fill="#0072bb"/><rect x="109.71" y="88.68" width="14.7" height="31.98" fill="#0072bb"/><rect x="89.29" y="91.88" width="14.7" height="28.78" fill="#0072bb"/><rect x="68.88" y="97.83" width="14.7" height="22.83" fill="#0072bb"/><rect x="48.47" y="103.31" width="14.7" height="17.34" fill="#0072bb"/><rect x="32.52" y="119.22" width="10.03" height="3.15" fill="#bbbdbf"/><rect x="32.52" y="105.22" width="10.03" height="3.15" fill="#bbbdbf"/><rect x="32.52" y="90.22" width="10.03" height="3.15" fill="#bbbdbf"/><rect x="32.52" y="76.22" width="10.03" height="3.15" fill="#bbbdbf"/><rect x="32.52" y="62.22" width="10.03" height="3.15" fill="#bbbdbf"/><rect x="32.52" y="47.22" width="10.03" height="3.15" fill="#bbbdbf"/><rect x="32.52" y="33.22" width="10.03" height="3.15" fill="#bbbdbf"/><rect x="50.52" y="124.22" width="10.03" height="3.15" fill="#bbbdbf"/><rect x="71.52" y="124.22" width="10.03" height="3.15" fill="#bbbdbf"/><rect x="91.52" y="124.22" width="10.03" height="3.15" fill="#bbbdbf"/><rect x="112.52" y="124.22" width="10.03" height="3.15" fill="#bbbdbf"/><rect x="132.52" y="124.22" width="10.03" height="3.15" fill="#bbbdbf"/><rect x="220.52" y="124.22" width="10.03" height="3.15" fill="#bbbdbf"/><rect x="241.52" y="124.22" width="10.03" height="3.15" fill="#bbbdbf"/><rect x="261.52" y="124.22" width="10.03" height="3.15" fill="#bbbdbf"/><rect x="282.52" y="124.22" width="10.03" height="3.15" fill="#bbbdbf"/><rect x="302.52" y="124.22" width="10.03" height="3.15" fill="#bbbdbf"/><line x1="318.1" y1="120.96" x2="215.29" y2="120.96" fill="none" stroke="#000" stroke-miterlimit="10" stroke-width="0.5"/><line x1="318.1" y1="106.64" x2="215.29" y2="106.64" fill="none" stroke="#d0d2d3" stroke-linecap="round" stroke-linejoin="round" stroke-width="0.25"/><line x1="318.1" y1="92.26" x2="215.29" y2="92.26" fill="none" stroke="#d0d2d3" stroke-linecap="round" stroke-linejoin="round" stroke-width="0.25"/><line x1="318.1" y1="77.88" x2="215.29" y2="77.88" fill="none" stroke="#d0d2d3" stroke-linecap="round" stroke-linejoin="round" stroke-width="0.25"/><line x1="318.1" y1="63.5" x2="215.29" y2="63.5" fill="none" stroke="#d0d2d3" stroke-linecap="round" stroke-linejoin="round" stroke-width="0.25"/><line x1="318.1" y1="49.12" x2="215.29" y2="49.12" fill="none" stroke="#d0d2d3" stroke-linecap="round" stroke-linejoin="round" stroke-width="0.25"/><line x1="318.1" y1="34.74" x2="215.29" y2="34.74" fill="none" stroke="#d0d2d3" stroke-linecap="round" stroke-linejoin="round" stroke-width="0.25"/><rect x="303.79" y="37.03" width="7.35" height="83.62" fill="#9dc5ff"/><rect x="283.38" y="56.69" width="7.35" height="63.96" fill="#9dc5ff"/><rect x="262.97" y="63.1" width="7.35" height="57.56" fill="#9dc5ff"/><rect x="242.55" y="74.99" width="7.35" height="45.67" fill="#9dc5ff"/><rect x="222.14" y="85.97" width="7.35" height="34.69" fill="#9dc5ff"/><rect x="303.79" y="78.85" width="7.35" height="41.81" fill="#0072bb"/><rect x="283.38" y="88.68" width="7.35" height="31.98" fill="#0072bb"/><rect x="262.97" y="91.88" width="7.35" height="28.78" fill="#0072bb"/><rect x="242.55" y="97.83" width="7.35" height="22.83" fill="#0072bb"/><rect x="222.14" y="103.31" width="7.35" height="17.34" fill="#0072bb"/><rect x="202.52" y="119.22" width="10.03" height="3.15" fill="#bbbdbf"/><rect x="202.52" y="105.22" width="10.03" height="3.15" fill="#bbbdbf"/><rect x="202.52" y="90.22" width="10.03" height="3.15" fill="#bbbdbf"/><rect x="202.52" y="76.22" width="10.03" height="3.15" fill="#bbbdbf"/><rect x="202.52" y="62.22" width="10.03" height="3.15" fill="#bbbdbf"/><rect x="202.52" y="47.22" width="10.03" height="3.15" fill="#bbbdbf"/><rect x="202.52" y="33.22" width="10.03" height="3.15" fill="#bbbdbf"/></svg>