<svg xmlns="http://www.w3.org/2000/svg" width="350" height="148" viewBox="0 0 350 148"><rect width="350" height="148" fill="#f1f2f2"/><line x1="313.23" y1="121.14" x2="221.47" y2="121.14" fill="none" stroke="#000" stroke-miterlimit="10" stroke-width="0.5"/><line x1="313.23" y1="99.99" x2="221.47" y2="99.99" fill="none" stroke="#d0d2d3" stroke-linecap="round" stroke-linejoin="round" stroke-width="0.25"/><line x1="313.23" y1="78.84" x2="221.47" y2="78.84" fill="none" stroke="#d0d2d3" stroke-linecap="round" stroke-linejoin="round" stroke-width="0.25"/><line x1="313.23" y1="57.69" x2="221.47" y2="57.69" fill="none" stroke="#d0d2d3" stroke-linecap="round" stroke-linejoin="round" stroke-width="0.25"/><line x1="313.23" y1="36.54" x2="221.47" y2="36.54" fill="none" stroke="#d0d2d3" stroke-linecap="round" stroke-linejoin="round" stroke-width="0.25"/><rect x="297.18" y="39.86" width="13.12" height="80.93" fill="#9dc5ff"/><rect x="297.18" y="79.3" width="13.12" height="41.48" fill="#0072bb"/><rect x="278.96" y="60.11" width="13.12" height="60.67" fill="#9dc5ff"/><rect x="278.96" y="83.56" width="13.12" height="37.22" fill="#0072bb"/><rect x="260.74" y="66.51" width="13.12" height="54.28" fill="#9dc5ff"/><rect x="260.74" y="93.16" width="13.12" height="27.63" fill="#0072bb"/><rect x="242.52" y="71.84" width="13.12" height="48.95" fill="#9dc5ff"/><rect x="242.52" y="102.75" width="13.12" height="18.03" fill="#0072bb"/><rect x="224.3" y="79.3" width="13.12" height="41.48" fill="#9dc5ff"/><rect x="224.3" y="109.15" width="13.12" height="11.63" fill="#0072bb"/><path d="M211,123.27v-1H209.2v-.4l1.63-2.45h.66v2.43H212v.42h-.53v1Zm0-3.38-1.34,2H211Z" fill="#5e5e5e"/><path d="M212.5,121.36c0-.93.41-2,1.45-2s1.46,1,1.46,2-.41,2-1.46,2S212.5,122.29,212.5,121.36Zm2.43,0c0-.76-.25-1.54-1-1.54s-1,.78-1,1.54.25,1.55,1,1.55S214.93,122.12,214.93,121.36Z" fill="#5e5e5e"/><path d="M216,121.36c0-.93.42-2,1.46-2s1.46,1,1.46,2-.42,2-1.46,2S216,122.29,216,121.36Zm2.44,0c0-.76-.25-1.54-1-1.54s-1,.78-1,1.54.25,1.55,1,1.55S218.43,122.12,218.43,121.36Z" fill="#5e5e5e"/><path d="M209.12,100c0-1,.48-2,1.55-2a1.34,1.34,0,0,1,1.06.46l-.24.35a1,1,0,0,0-.82-.38c-.74,0-1.07.75-1.07,1.5v.14a1.37,1.37,0,0,1,1.08-.59,1.16,1.16,0,0,1,1.25,1.22,1.26,1.26,0,0,1-1.34,1.25C209.52,102,209.12,101.08,209.12,100Zm2.33.75a.79.79,0,0,0-.88-.83,1.19,1.19,0,0,0-1,.57,1,1,0,0,0,1,1.06A.83.83,0,0,0,211.45,100.79Z" fill="#5e5e5e"/><path d="M212.5,100c0-.93.41-2,1.45-2s1.46,1,1.46,2-.41,2-1.46,2S212.5,101,212.5,100Zm2.43,0c0-.76-.25-1.54-1-1.54s-1,.78-1,1.54.25,1.55,1,1.55S214.93,100.8,214.93,100Z" fill="#5e5e5e"/><path d="M216,100c0-.93.42-2,1.46-2s1.46,1,1.46,2-.42,2-1.46,2S216,101,216,100Zm2.44,0c0-.76-.25-1.54-1-1.54s-1,.78-1,1.54.25,1.55,1,1.55S218.43,100.8,218.43,100Z" fill="#5e5e5e"/><path d="M209.17,79.66a1.13,1.13,0,0,1,.91-1,1,1,0,0,1-.84-.92c0-.68.67-1,1.3-1s1.31.31,1.31,1a1,1,0,0,1-.85.92,1.13,1.13,0,0,1,.91,1c0,.65-.62,1-1.37,1S209.17,80.31,209.17,79.66Zm2.26,0c0-.5-.65-.71-.89-.74s-.89.24-.89.74.42.66.89.66S211.43,80,211.43,79.61Zm-.06-1.81c0-.39-.37-.62-.83-.62s-.82.23-.82.62.59.62.82.66S211.37,78.27,211.37,77.8Z" fill="#5e5e5e"/><path d="M212.5,78.72c0-.93.41-2,1.45-2s1.46,1,1.46,2-.41,2-1.46,2S212.5,79.65,212.5,78.72Zm2.43,0c0-.76-.25-1.54-1-1.54s-1,.78-1,1.54.25,1.55,1,1.55S214.93,79.48,214.93,78.72Z" fill="#5e5e5e"/><path d="M216,78.72c0-.93.42-2,1.46-2s1.46,1,1.46,2-.42,2-1.46,2S216,79.65,216,78.72Zm2.44,0c0-.76-.25-1.54-1-1.54s-1,.78-1,1.54.25,1.55,1,1.55S218.43,79.48,218.43,78.72Z" fill="#5e5e5e"/><path d="M207.79,60.37V57.18l-.62.65-.28-.29,1-1h.42v3.82Z" fill="#5e5e5e"/><path d="M209,58.47c0-.94.41-2,1.46-2s1.46,1,1.46,2-.42,2-1.46,2S209,59.39,209,58.47Zm2.43,0c0-.77-.25-1.55-1-1.55s-1,.78-1,1.55.25,1.55,1,1.55S211.43,59.23,211.43,58.47Z" fill="#5e5e5e"/><path d="M212.5,58.47c0-.94.41-2,1.45-2s1.46,1,1.46,2-.41,2-1.46,2S212.5,59.39,212.5,58.47Zm2.43,0c0-.77-.25-1.55-1-1.55s-1,.78-1,1.55.25,1.55,1,1.55S214.93,59.23,214.93,58.47Z" fill="#5e5e5e"/><path d="M216,58.47c0-.94.42-2,1.46-2s1.46,1,1.46,2-.42,2-1.46,2S216,59.39,216,58.47Zm2.44,0c0-.77-.25-1.55-1-1.55s-1,.78-1,1.55.25,1.55,1,1.55S218.43,59.23,218.43,58.47Z" fill="#5e5e5e"/><path d="M207.92,38v-3.2l-.61.65-.29-.29,1-1h.42V38Z" fill="#5e5e5e"/><path d="M209.15,38V37.6c1.37-1.07,2.12-1.71,2.12-2.37a.71.71,0,0,0-.8-.69,1.26,1.26,0,0,0-1,.48l-.29-.31a1.63,1.63,0,0,1,1.32-.6,1.16,1.16,0,0,1,1.28,1.12c0,.78-.78,1.49-1.85,2.33h1.87V38Z" fill="#5e5e5e"/><path d="M212.5,36.08c0-.93.41-2,1.45-2s1.46,1,1.46,2-.41,2-1.46,2S212.5,37,212.5,36.08Zm2.43,0c0-.76-.25-1.54-1-1.54s-1,.78-1,1.54.25,1.55,1,1.55S214.93,36.84,214.93,36.08Z" fill="#5e5e5e"/><path d="M216,36.08c0-.93.42-2,1.46-2s1.46,1,1.46,2-.42,2-1.46,2S216,37,216,36.08Zm2.44,0c0-.76-.25-1.54-1-1.54s-1,.78-1,1.54.25,1.55,1,1.55S218.43,36.84,218.43,36.08Z" fill="#5e5e5e"/><rect x="225.73" y="124.55" width="10.03" height="3.35" fill="#bbbdbf"/><rect x="243.73" y="124.55" width="10.03" height="3.35" fill="#bbbdbf"/><rect x="262.73" y="124.55" width="10.03" height="3.35" fill="#bbbdbf"/><rect x="280.73" y="124.55" width="10.03" height="3.35" fill="#bbbdbf"/><rect x="298.73" y="124.55" width="10.03" height="3.35" fill="#bbbdbf"/><line x1="142.99" y1="124.56" x2="51.23" y2="124.56" fill="none" stroke="#000" stroke-miterlimit="10" stroke-width="0.5"/><line x1="142.99" y1="109.73" x2="51.23" y2="109.73" fill="none" stroke="#d0d2d3" stroke-linecap="round" stroke-linejoin="round" stroke-width="0.25"/><line x1="142.99" y1="94.9" x2="51.23" y2="94.9" fill="none" stroke="#d0d2d3" stroke-linecap="round" stroke-linejoin="round" stroke-width="0.25"/><line x1="142.99" y1="80.06" x2="51.23" y2="80.06" fill="none" stroke="#d0d2d3" stroke-linecap="round" stroke-linejoin="round" stroke-width="0.25"/><line x1="142.99" y1="65.23" x2="51.23" y2="65.23" fill="none" stroke="#d0d2d3" stroke-linecap="round" stroke-linejoin="round" stroke-width="0.25"/><line x1="142.99" y1="50.4" x2="51.23" y2="50.4" fill="none" stroke="#d0d2d3" stroke-linecap="round" stroke-linejoin="round" stroke-width="0.25"/><line x1="142.99" y1="35.56" x2="51.23" y2="35.56" fill="none" stroke="#d0d2d3" stroke-linecap="round" stroke-linejoin="round" stroke-width="0.25"/><rect x="126.94" y="37.93" width="13.12" height="86.26" fill="#9dc5ff"/><rect x="126.94" y="65.05" width="13.12" height="59.34" fill="#0072bb"/><rect x="108.72" y="52.51" width="13.12" height="71.68" fill="#9dc5ff"/><rect x="108.72" y="69.53" width="13.12" height="54.86" fill="#0072bb"/><rect x="90.5" y="57" width="13.12" height="67.2" fill="#9dc5ff"/><rect x="90.5" y="74.02" width="13.12" height="50.37" fill="#0072bb"/><rect x="72.28" y="61.48" width="13.12" height="62.71" fill="#9dc5ff"/><rect x="72.28" y="83.76" width="13.12" height="40.63" fill="#0072bb"/><rect x="54.06" y="64.85" width="13.12" height="59.34" fill="#9dc5ff"/><rect x="54.06" y="87.76" width="13.12" height="36.63" fill="#0072bb"/><path d="M39.39,112v-.39c1.38-1.07,2.13-1.71,2.13-2.37,0-.49-.41-.69-.81-.69a1.26,1.26,0,0,0-1,.48l-.29-.31a1.63,1.63,0,0,1,1.32-.6A1.17,1.17,0,0,1,42,109.23c0,.78-.79,1.49-1.86,2.33H42V112Z" fill="#5e5e5e"/><path d="M42.74,110.08c0-.93.41-2,1.46-2s1.46,1,1.46,2-.42,2-1.46,2S42.74,111,42.74,110.08Zm2.43,0c0-.76-.25-1.54-1-1.54s-1,.78-1,1.54.25,1.55,1,1.55S45.17,110.84,45.17,110.08Z" fill="#5e5e5e"/><path d="M46.24,110.08c0-.93.41-2,1.45-2s1.46,1,1.46,2-.41,2-1.46,2S46.24,111,46.24,110.08Zm2.43,0c0-.76-.25-1.54-1-1.54s-1,.78-1,1.54.25,1.55,1,1.55S48.67,110.84,48.67,110.08Z" fill="#5e5e5e"/><path d="M46.24,124.08c0-.93.41-2,1.45-2s1.46,1,1.46,2-.41,2-1.46,2S46.24,125,46.24,124.08Zm2.43,0c0-.76-.25-1.54-1-1.54s-1,.78-1,1.54.25,1.55,1,1.55S48.67,124.84,48.67,124.08Z" fill="#5e5e5e"/><path d="M41.25,97V96H39.44v-.4l1.64-2.45h.65V95.6h.54V96h-.54v1Zm0-3.38-1.34,2h1.34Z" fill="#5e5e5e"/><path d="M42.74,95.08c0-.93.41-2,1.46-2s1.46,1,1.46,2-.42,2-1.46,2S42.74,96,42.74,95.08Zm2.43,0c0-.76-.25-1.54-1-1.54s-1,.78-1,1.54.25,1.55,1,1.55S45.17,95.84,45.17,95.08Z" fill="#5e5e5e"/><path d="M46.24,95.08c0-.93.41-2,1.45-2s1.46,1,1.46,2-.41,2-1.46,2S46.24,96,46.24,95.08Zm2.43,0c0-.76-.25-1.54-1-1.54s-1,.78-1,1.54.25,1.55,1,1.55S48.67,95.84,48.67,95.08Z" fill="#5e5e5e"/><path d="M39.36,80.08c0-1,.48-2,1.56-2a1.3,1.3,0,0,1,1,.46l-.24.35a1,1,0,0,0-.81-.38c-.75,0-1.08.74-1.08,1.49v.15a1.38,1.38,0,0,1,1.08-.59,1.15,1.15,0,0,1,1.25,1.22,1.26,1.26,0,0,1-1.34,1.24C39.77,82.05,39.36,81.12,39.36,80.08Zm2.33.74a.79.79,0,0,0-.88-.82,1.14,1.14,0,0,0-1,.57c0,.47.29,1.06,1,1.06A.84.84,0,0,0,41.69,80.82Z" fill="#5e5e5e"/><path d="M42.74,80.08c0-.93.41-2,1.46-2s1.46,1,1.46,2-.42,2-1.46,2S42.74,81,42.74,80.08Zm2.43,0c0-.76-.25-1.54-1-1.54s-1,.78-1,1.54.25,1.55,1,1.55S45.17,80.84,45.17,80.08Z" fill="#5e5e5e"/><path d="M46.24,80.08c0-.93.41-2,1.45-2s1.46,1,1.46,2-.41,2-1.46,2S46.24,81,46.24,80.08Zm2.43,0c0-.76-.25-1.54-1-1.54s-1,.78-1,1.54.25,1.55,1,1.55S48.67,80.84,48.67,80.08Z" fill="#5e5e5e"/><path d="M39.42,66a1.12,1.12,0,0,1,.91-1,1,1,0,0,1-.85-.92c0-.69.67-1,1.3-1s1.31.3,1.31,1a1,1,0,0,1-.85.92,1.12,1.12,0,0,1,.91,1c0,.65-.62,1-1.37,1S39.42,66.67,39.42,66Zm2.25,0c0-.5-.65-.71-.89-.74s-.88.24-.88.74.41.66.88.66S41.67,66.38,41.67,66Zm-.06-1.81c0-.39-.37-.62-.83-.62s-.82.23-.82.62.59.62.82.66S41.61,64.63,41.61,64.16Z" fill="#5e5e5e"/><path d="M42.74,65.08c0-.93.41-2,1.46-2s1.46,1,1.46,2-.42,2-1.46,2S42.74,66,42.74,65.08Zm2.43,0c0-.76-.25-1.54-1-1.54s-1,.78-1,1.54.25,1.55,1,1.55S45.17,65.84,45.17,65.08Z" fill="#5e5e5e"/><path d="M46.24,65.08c0-.93.41-2,1.45-2s1.46,1,1.46,2-.41,2-1.46,2S46.24,66,46.24,65.08Zm2.43,0c0-.76-.25-1.54-1-1.54s-1,.78-1,1.54.25,1.55,1,1.55S48.67,65.84,48.67,65.08Z" fill="#5e5e5e"/><path d="M38,53v-3.2l-.61.65-.29-.29.95-1h.42V53Z" fill="#5e5e5e"/><path d="M39.24,51.08c0-.93.41-2,1.46-2s1.46,1,1.46,2-.42,2-1.46,2S39.24,52,39.24,51.08Zm2.43,0c0-.76-.25-1.54-1-1.54s-1,.78-1,1.54.24,1.55,1,1.55S41.67,51.84,41.67,51.08Z" fill="#5e5e5e"/><path d="M42.74,51.08c0-.93.41-2,1.46-2s1.46,1,1.46,2-.42,2-1.46,2S42.74,52,42.74,51.08Zm2.43,0c0-.76-.25-1.54-1-1.54s-1,.78-1,1.54.25,1.55,1,1.55S45.17,51.84,45.17,51.08Z" fill="#5e5e5e"/><path d="M46.24,51.08c0-.93.41-2,1.45-2s1.46,1,1.46,2-.41,2-1.46,2S46.24,52,46.24,51.08Zm2.43,0c0-.76-.25-1.54-1-1.54s-1,.78-1,1.54.25,1.55,1,1.55S48.67,51.84,48.67,51.08Z" fill="#5e5e5e"/><path d="M38.16,38v-3.2l-.61.65-.28-.29.95-1h.42V38Z" fill="#5e5e5e"/><path d="M39.39,38V37.6c1.38-1.07,2.13-1.71,2.13-2.37,0-.49-.41-.69-.81-.69a1.26,1.26,0,0,0-1,.48l-.29-.31a1.63,1.63,0,0,1,1.32-.6A1.17,1.17,0,0,1,42,35.23c0,.78-.79,1.49-1.86,2.33H42V38Z" fill="#5e5e5e"/><path d="M42.74,36.08c0-.93.41-2,1.46-2s1.46,1,1.46,2-.42,2-1.46,2S42.74,37,42.74,36.08Zm2.43,0c0-.76-.25-1.54-1-1.54s-1,.78-1,1.54.25,1.55,1,1.55S45.17,36.84,45.17,36.08Z" fill="#5e5e5e"/><path d="M46.24,36.08c0-.93.41-2,1.45-2s1.46,1,1.46,2-.41,2-1.46,2S46.24,37,46.24,36.08Zm2.43,0c0-.76-.25-1.54-1-1.54s-1,.78-1,1.54.25,1.55,1,1.55S48.67,36.84,48.67,36.08Z" fill="#5e5e5e"/><rect x="55.64" y="128.26" width="10.03" height="3.15" fill="#bbbdbf"/><rect x="73.64" y="128.26" width="10.03" height="3.15" fill="#bbbdbf"/><rect x="92.64" y="128.26" width="10.03" height="3.15" fill="#bbbdbf"/><rect x="110.64" y="128.26" width="10.03" height="3.15" fill="#bbbdbf"/><rect x="128.64" y="128.26" width="10.03" height="3.15" fill="#bbbdbf"/><path d="M31.92,21.87V14.54h2.5a3.56,3.56,0,0,1,3.76,3.67,3.54,3.54,0,0,1-3.76,3.66Zm5.32-3.66a2.69,2.69,0,0,0-2.82-2.86H32.83v5.71h1.59A2.7,2.7,0,0,0,37.24,18.21Z" fill="#0072bc"/><path d="M39.26,19.21a2.63,2.63,0,1,1,5.26,0,2.63,2.63,0,1,1-5.26,0Zm4.39,0a1.78,1.78,0,1,0-3.52,0,1.78,1.78,0,1,0,3.52,0Z" fill="#0072bc"/><circle cx="17.55" cy="17.55" r="7.55" fill="#9dc5ff"/><circle cx="17.55" cy="17.55" r="4.8" fill="#0072bc"/><polyline points="14.8 17.55 16.63 19.38 20.29 15.72" fill="none" stroke="#fff" stroke-linecap="round" stroke-linejoin="round" stroke-width="0.75"/><path d="M201.92,21.87V14.54h2.5a3.56,3.56,0,0,1,3.76,3.67,3.54,3.54,0,0,1-3.76,3.66Zm5.32-3.66a2.69,2.69,0,0,0-2.82-2.86h-1.59v5.71h1.59A2.7,2.7,0,0,0,207.24,18.21Z" fill="#ef4a60"/><path d="M209.27,19.21a2.63,2.63,0,1,1,5.25,0,2.63,2.63,0,1,1-5.25,0Zm4.38,0a1.78,1.78,0,1,0-3.52,0,1.78,1.78,0,1,0,3.52,0Z" fill="#ef4a60"/><path d="M219.44,21.87V18.4c0-.95-.48-1.23-1.19-1.23a2.06,2.06,0,0,0-1.57.82v3.88h-.83V16.56h.83v.77a2.58,2.58,0,0,1,1.9-.9,1.5,1.5,0,0,1,1.68,1.71v3.73Z" fill="#ef4a60"/><path d="M222.07,16.93l-.42-.35a1.65,1.65,0,0,0,.71-1l-.15,0a.53.53,0,0,1-.53-.56.6.6,0,0,1,.59-.59c.37,0,.69.3.69.84A2.14,2.14,0,0,1,222.07,16.93Z" fill="#ef4a60"/><path d="M224.54,20.76V17.29h-.88v-.73h.88V15.11h.83v1.45h1.08v.73h-1.08v3.29c0,.4.18.68.53.68a.75.75,0,0,0,.56-.23l.24.63a1.32,1.32,0,0,1-1,.34A1.08,1.08,0,0,1,224.54,20.76Z" fill="#ef4a60"/><circle cx="187.55" cy="17.55" r="7.55" fill="#ffbcc1"/><circle cx="187.55" cy="17.55" r="4.8" fill="#ef4a60"/><line x1="189.55" y1="15.55" x2="185.55" y2="19.55" fill="none" stroke="#fff" stroke-linecap="round" stroke-linejoin="round" stroke-width="0.75"/><line x1="189.55" y1="19.55" x2="185.55" y2="15.55" fill="none" stroke="#fff" stroke-linecap="round" stroke-linejoin="round" stroke-width="0.75"/></svg>