<svg xmlns="http://www.w3.org/2000/svg" width="350" height="148" viewBox="0 0 350 148"><rect width="350" height="148" fill="#f1f2f2"/><path d="M31.92,21.87V14.54h2.5a3.56,3.56,0,0,1,3.76,3.67,3.54,3.54,0,0,1-3.76,3.66Zm5.32-3.66a2.69,2.69,0,0,0-2.82-2.86H32.83v5.71h1.59A2.7,2.7,0,0,0,37.24,18.21Z" fill="#0072bc"/><path d="M39.26,19.21a2.63,2.63,0,1,1,5.26,0,2.63,2.63,0,1,1-5.26,0Zm4.39,0a1.78,1.78,0,1,0-3.52,0,1.78,1.78,0,1,0,3.52,0Z" fill="#0072bc"/><circle cx="17.55" cy="17.55" r="7.55" fill="#9dc5ff"/><circle cx="17.55" cy="17.55" r="4.8" fill="#0072bc"/><polyline points="14.8 17.55 16.63 19.38 20.29 15.72" fill="none" stroke="#fff" stroke-linecap="round" stroke-linejoin="round" stroke-width="0.75"/><path d="M201.92,21.87V14.54h2.5a3.56,3.56,0,0,1,3.76,3.67,3.54,3.54,0,0,1-3.76,3.66Zm5.32-3.66a2.69,2.69,0,0,0-2.82-2.86h-1.59v5.71h1.59A2.7,2.7,0,0,0,207.24,18.21Z" fill="#ef4a60"/><path d="M209.27,19.21a2.63,2.63,0,1,1,5.25,0,2.63,2.63,0,1,1-5.25,0Zm4.38,0a1.78,1.78,0,1,0-3.52,0,1.78,1.78,0,1,0,3.52,0Z" fill="#ef4a60"/><path d="M219.44,21.87V18.4c0-.95-.48-1.23-1.19-1.23a2.06,2.06,0,0,0-1.57.82v3.88h-.83V16.56h.83v.77a2.58,2.58,0,0,1,1.9-.9,1.5,1.5,0,0,1,1.68,1.71v3.73Z" fill="#ef4a60"/><path d="M222.07,16.93l-.42-.35a1.65,1.65,0,0,0,.71-1l-.15,0a.53.53,0,0,1-.53-.56.6.6,0,0,1,.59-.59c.37,0,.69.3.69.84A2.14,2.14,0,0,1,222.07,16.93Z" fill="#ef4a60"/><path d="M224.54,20.76V17.29h-.88v-.73h.88V15.11h.83v1.45h1.08v.73h-1.08v3.29c0,.4.18.68.53.68a.75.75,0,0,0,.56-.23l.24.63a1.32,1.32,0,0,1-1,.34A1.08,1.08,0,0,1,224.54,20.76Z" fill="#ef4a60"/><circle cx="187.55" cy="17.55" r="7.55" fill="#ffbcc1"/><circle cx="187.55" cy="17.55" r="4.8" fill="#ef4a60"/><line x1="189.55" y1="15.55" x2="185.55" y2="19.55" fill="none" stroke="#fff" stroke-linecap="round" stroke-linejoin="round" stroke-width="0.75"/><line x1="189.55" y1="19.55" x2="185.55" y2="15.55" fill="none" stroke="#fff" stroke-linecap="round" stroke-linejoin="round" stroke-width="0.75"/><line x1="141.67" y1="121.33" x2="49.91" y2="121.33" fill="none" stroke="#000" stroke-miterlimit="10" stroke-width="0.5"/><line x1="141.67" y1="108.1" x2="49.91" y2="108.1" fill="none" stroke="#d0d2d3" stroke-linecap="round" stroke-linejoin="round" stroke-width="0.25"/><line x1="141.67" y1="94.88" x2="49.91" y2="94.88" fill="none" stroke="#d0d2d3" stroke-linecap="round" stroke-linejoin="round" stroke-width="0.25"/><line x1="141.67" y1="81.65" x2="49.91" y2="81.65" fill="none" stroke="#d0d2d3" stroke-linecap="round" stroke-linejoin="round" stroke-width="0.25"/><line x1="141.67" y1="68.42" x2="49.91" y2="68.42" fill="none" stroke="#d0d2d3" stroke-linecap="round" stroke-linejoin="round" stroke-width="0.25"/><line x1="141.67" y1="55.2" x2="49.91" y2="55.2" fill="none" stroke="#d0d2d3" stroke-linecap="round" stroke-linejoin="round" stroke-width="0.25"/><line x1="141.67" y1="41.97" x2="49.91" y2="41.97" fill="none" stroke="#d0d2d3" stroke-linecap="round" stroke-linejoin="round" stroke-width="0.25"/><rect x="133.18" y="44.08" width="6.56" height="76.91" fill="#0072bb"/><rect x="125.62" y="55.08" width="6.56" height="65.91" fill="#18375f"/><rect x="114.96" y="57.08" width="6.56" height="63.91" fill="#0072bb"/><rect x="107.4" y="61.08" width="6.56" height="59.91" fill="#18375f"/><rect x="96.74" y="61.08" width="6.56" height="59.91" fill="#0072bb"/><rect x="89.18" y="64.08" width="6.56" height="56.91" fill="#18375f"/><rect x="78.52" y="65.08" width="6.56" height="55.91" fill="#0072bb"/><rect x="70.96" y="65.08" width="6.56" height="55.91" fill="#18375f"/><rect x="60.3" y="68.08" width="6.56" height="52.91" fill="#0072bb"/><rect x="52.74" y="68.08" width="6.56" height="52.91" fill="#18375f"/><path d="M45.48,121.17c0-.93.42-2,1.46-2s1.46,1,1.46,2-.42,2-1.46,2S45.48,122.1,45.48,121.17Zm2.44,0c0-.76-.25-1.55-1-1.55s-1,.79-1,1.55.25,1.55,1,1.55S47.92,121.93,47.92,121.17Z" fill="#5e5e5e"/><path d="M44,110.07v-1H42.18v-.4l1.64-2.45h.65v2.43H45v.42h-.54v1Zm0-3.37-1.34,2H44Z" fill="#5e5e5e"/><path d="M45.48,108.17c0-.93.42-2,1.46-2s1.46,1,1.46,2-.42,2-1.46,2S45.48,109.1,45.48,108.17Zm2.44,0c0-.76-.25-1.55-1-1.55s-1,.79-1,1.55.25,1.55,1,1.55S47.92,108.93,47.92,108.17Z" fill="#5e5e5e"/><path d="M42.16,96.11a1.13,1.13,0,0,1,.91-1,1,1,0,0,1-.85-.92c0-.69.67-1,1.31-1s1.31.3,1.31,1a1,1,0,0,1-.85.92,1.13,1.13,0,0,1,.91,1c0,.64-.62,1-1.37,1S42.16,96.76,42.16,96.11Zm2.26,0c0-.5-.66-.71-.89-.74s-.89.24-.89.74.41.66.89.66S44.42,96.47,44.42,96.06Zm-.06-1.81c0-.39-.37-.63-.83-.63s-.82.24-.82.63.59.62.82.66S44.36,94.72,44.36,94.25Z" fill="#5e5e5e"/><path d="M45.48,95.17c0-.93.42-2,1.46-2s1.46,1,1.46,2-.42,2-1.46,2S45.48,96.1,45.48,95.17Zm2.44,0c0-.76-.25-1.55-1-1.55s-1,.79-1,1.55.25,1.55,1,1.55S47.92,95.93,47.92,95.17Z" fill="#5e5e5e"/><path d="M40.91,84.07V80.88l-.61.65L40,81.24l1-1h.42v3.81Z" fill="#5e5e5e"/><path d="M42.14,84.07v-.38c1.37-1.07,2.12-1.71,2.12-2.37a.71.71,0,0,0-.8-.7,1.27,1.27,0,0,0-1,.48l-.3-.3a1.65,1.65,0,0,1,1.33-.6,1.16,1.16,0,0,1,1.28,1.12c0,.78-.79,1.49-1.85,2.33h1.87v.42Z" fill="#5e5e5e"/><path d="M45.48,82.17c0-.93.42-2,1.46-2s1.46,1,1.46,2-.42,2-1.46,2S45.48,83.1,45.48,82.17Zm2.44,0c0-.76-.25-1.55-1-1.55s-1,.79-1,1.55.25,1.55,1,1.55S47.92,82.93,47.92,82.17Z" fill="#5e5e5e"/><path d="M40.89,70.07V66.88l-.61.65L40,67.24l1-1h.42v3.81Z" fill="#5e5e5e"/><path d="M42.1,68.17c0-1,.49-2,1.56-2a1.27,1.27,0,0,1,1.05.46l-.24.35a1,1,0,0,0-.81-.39c-.74,0-1.07.75-1.07,1.5v.15a1.35,1.35,0,0,1,1.08-.59,1.15,1.15,0,0,1,1.24,1.22,1.25,1.25,0,0,1-1.33,1.24C42.51,70.14,42.1,69.21,42.1,68.17Zm2.33.74a.78.78,0,0,0-.87-.82,1.15,1.15,0,0,0-1,.57,1,1,0,0,0,1,1.06A.83.83,0,0,0,44.43,68.91Z" fill="#5e5e5e"/><path d="M45.48,68.17c0-.93.42-2,1.46-2s1.46,1,1.46,2-.42,2-1.46,2S45.48,69.1,45.48,68.17Zm2.44,0c0-.76-.25-1.55-1-1.55s-1,.79-1,1.55.25,1.55,1,1.55S47.92,68.93,47.92,68.17Z" fill="#5e5e5e"/><path d="M38.64,57.07v-.38C40,55.62,40.76,55,40.76,54.32a.71.71,0,0,0-.8-.7,1.27,1.27,0,0,0-1,.48l-.3-.3A1.65,1.65,0,0,1,40,53.2a1.16,1.16,0,0,1,1.28,1.12c0,.78-.79,1.49-1.85,2.33h1.87v.42Z" fill="#5e5e5e"/><path d="M42,55.17c0-.93.42-2,1.46-2s1.46,1,1.46,2-.41,2-1.46,2S42,56.1,42,55.17Zm2.44,0c0-.76-.25-1.55-1-1.55s-1,.79-1,1.55.25,1.55,1,1.55S44.42,55.93,44.42,55.17Z" fill="#5e5e5e"/><path d="M45.48,55.17c0-.93.42-2,1.46-2s1.46,1,1.46,2-.42,2-1.46,2S45.48,56.1,45.48,55.17Zm2.44,0c0-.76-.25-1.55-1-1.55s-1,.79-1,1.55.25,1.55,1,1.55S47.92,55.93,47.92,55.17Z" fill="#5e5e5e"/><path d="M39,44.07v-.38c1.37-1.07,2.12-1.71,2.12-2.37a.71.71,0,0,0-.8-.7,1.27,1.27,0,0,0-1,.48l-.3-.3a1.65,1.65,0,0,1,1.33-.6,1.16,1.16,0,0,1,1.28,1.12c0,.78-.79,1.49-1.85,2.33h1.87v.42Z" fill="#5e5e5e"/><path d="M44,44.07v-1H42.18v-.4l1.64-2.45h.65v2.43H45v.42h-.54v1Zm0-3.37-1.34,2H44Z" fill="#5e5e5e"/><path d="M45.48,42.17c0-.93.42-2,1.46-2s1.46,1,1.46,2-.42,2-1.46,2S45.48,43.1,45.48,42.17Zm2.44,0c0-.76-.25-1.55-1-1.55s-1,.79-1,1.55.25,1.55,1,1.55S47.92,42.93,47.92,42.17Z" fill="#5e5e5e"/><rect x="55.03" y="124.16" width="10.58" height="3.15" fill="#bbbdbf"/><rect x="73.03" y="124.16" width="10.58" height="3.15" fill="#bbbdbf"/><rect x="91.03" y="124.16" width="10.58" height="3.15" fill="#bbbdbf"/><rect x="109.03" y="124.16" width="10.58" height="3.15" fill="#bbbdbf"/><rect x="127.03" y="124.16" width="10.58" height="3.15" fill="#bbbdbf"/><line x1="312.16" y1="121.77" x2="220.4" y2="121.77" fill="none" stroke="#000" stroke-miterlimit="10" stroke-width="0.5"/><line x1="312.16" y1="101.93" x2="220.4" y2="101.93" fill="none" stroke="#d0d2d3" stroke-linecap="round" stroke-linejoin="round" stroke-width="0.25"/><line x1="312.16" y1="82.09" x2="220.4" y2="82.09" fill="none" stroke="#d0d2d3" stroke-linecap="round" stroke-linejoin="round" stroke-width="0.25"/><line x1="312.16" y1="62.25" x2="220.4" y2="62.25" fill="none" stroke="#d0d2d3" stroke-linecap="round" stroke-linejoin="round" stroke-width="0.25"/><line x1="312.16" y1="42.41" x2="220.4" y2="42.41" fill="none" stroke="#d0d2d3" stroke-linecap="round" stroke-linejoin="round" stroke-width="0.25"/><rect x="296.12" y="82.52" width="6.56" height="38.91" fill="#18375f"/><rect x="303.68" y="49.52" width="6.56" height="71.91" fill="#0072bb"/><rect x="277.9" y="101.52" width="6.56" height="19.91" fill="#18375f"/><rect x="285.45" y="88.52" width="6.56" height="32.91" fill="#0072bb"/><rect x="259.68" y="107.52" width="6.56" height="13.91" fill="#18375f"/><rect x="267.23" y="101.52" width="6.56" height="19.91" fill="#0072bb"/><rect x="241.45" y="111.52" width="6.56" height="9.92" fill="#18375f"/><rect x="249.01" y="108.52" width="6.56" height="12.91" fill="#0072bb"/><rect x="223.23" y="114.52" width="6.56" height="6.91" fill="#18375f"/><rect x="230.79" y="114.52" width="6.56" height="6.91" fill="#0072bb"/><path d="M210.4,124.07v-3.19l-.61.65-.29-.29.95-1h.42v3.81Z" fill="#5e5e5e"/><path d="M211.61,122.17c0-1,.48-2,1.56-2a1.3,1.3,0,0,1,1.05.46L214,121a1,1,0,0,0-.81-.39c-.75,0-1.08.75-1.08,1.5v.15a1.37,1.37,0,0,1,1.08-.59,1.15,1.15,0,0,1,1.25,1.22,1.26,1.26,0,0,1-1.34,1.24C212,124.14,211.61,123.21,211.61,122.17Zm2.33.74a.79.79,0,0,0-.88-.82,1.14,1.14,0,0,0-.95.57c0,.47.29,1.06.95,1.06A.84.84,0,0,0,213.94,122.91Z" fill="#5e5e5e"/><path d="M215,122.17c0-.93.41-2,1.46-2s1.46,1,1.46,2-.42,2-1.46,2S215,123.1,215,122.17Zm2.43,0c0-.76-.25-1.55-1-1.55s-1,.79-1,1.55.25,1.55,1,1.55S217.42,122.93,217.42,122.17Z" fill="#5e5e5e"/><path d="M210.45,104.07v-3.19l-.61.65-.29-.29,1-1h.41v3.81Z" fill="#5e5e5e"/><path d="M211.67,103.11a1.12,1.12,0,0,1,.91-1,1,1,0,0,1-.85-.92c0-.69.67-1,1.3-1s1.31.3,1.31,1a1,1,0,0,1-.85.92,1.12,1.12,0,0,1,.91,1c0,.64-.62,1-1.37,1S211.67,103.76,211.67,103.11Zm2.25,0c0-.5-.65-.71-.89-.74s-.88.24-.88.74.41.66.88.66S213.92,103.47,213.92,103.06Zm-.06-1.81c0-.39-.37-.63-.83-.63s-.82.24-.82.63.59.62.82.66S213.86,101.72,213.86,101.25Z" fill="#5e5e5e"/><path d="M215,102.17c0-.93.41-2,1.46-2s1.46,1,1.46,2-.42,2-1.46,2S215,103.1,215,102.17Zm2.43,0c0-.76-.25-1.55-1-1.55s-1,.79-1,1.55.25,1.55,1,1.55S217.42,102.93,217.42,102.17Z" fill="#5e5e5e"/><path d="M208.14,84.07v-.38c1.38-1.07,2.13-1.71,2.13-2.37a.72.72,0,0,0-.8-.7,1.29,1.29,0,0,0-1,.48l-.29-.3a1.63,1.63,0,0,1,1.33-.6,1.16,1.16,0,0,1,1.28,1.12c0,.78-.79,1.49-1.86,2.33h1.87v.42Z" fill="#5e5e5e"/><path d="M211.49,82.17c0-.93.41-2,1.46-2s1.46,1,1.46,2-.42,2-1.46,2S211.49,83.1,211.49,82.17Zm2.43,0c0-.76-.25-1.55-1-1.55s-1,.79-1,1.55.25,1.55,1,1.55S213.92,82.93,213.92,82.17Z" fill="#5e5e5e"/><path d="M215,82.17c0-.93.41-2,1.46-2s1.46,1,1.46,2-.42,2-1.46,2S215,83.1,215,82.17Zm2.43,0c0-.76-.25-1.55-1-1.55s-1,.79-1,1.55.25,1.55,1,1.55S217.42,82.93,217.42,82.17Z" fill="#5e5e5e"/><path d="M208.28,64.07v-.38c1.37-1.07,2.12-1.71,2.12-2.37a.71.71,0,0,0-.8-.7,1.29,1.29,0,0,0-1,.48l-.29-.3a1.63,1.63,0,0,1,1.32-.6,1.16,1.16,0,0,1,1.28,1.12c0,.78-.78,1.49-1.85,2.33h1.87v.42Z" fill="#5e5e5e"/><path d="M211.64,64.07v-.38c1.38-1.07,2.13-1.71,2.13-2.37a.72.72,0,0,0-.81-.7,1.29,1.29,0,0,0-1,.48l-.29-.3a1.63,1.63,0,0,1,1.32-.6,1.17,1.17,0,0,1,1.29,1.12c0,.78-.79,1.49-1.86,2.33h1.87v.42Z" fill="#5e5e5e"/><path d="M215,62.17c0-.93.41-2,1.46-2s1.46,1,1.46,2-.42,2-1.46,2S215,63.1,215,62.17Zm2.43,0c0-.76-.25-1.55-1-1.55s-1,.79-1,1.55.25,1.55,1,1.55S217.42,62.93,217.42,62.17Z" fill="#5e5e5e"/><path d="M208.45,44.07v-.38c1.38-1.07,2.13-1.71,2.13-2.37a.72.72,0,0,0-.81-.7,1.29,1.29,0,0,0-1,.48l-.29-.3a1.63,1.63,0,0,1,1.32-.6,1.17,1.17,0,0,1,1.29,1.12c0,.78-.79,1.49-1.86,2.33h1.87v.42Z" fill="#5e5e5e"/><path d="M213.5,44.07v-1h-1.81v-.4l1.64-2.45H214v2.43h.53v.42H214v1Zm0-3.37-1.34,2h1.34Z" fill="#5e5e5e"/><path d="M215,42.17c0-.93.41-2,1.46-2s1.46,1,1.46,2-.42,2-1.46,2S215,43.1,215,42.17Zm2.43,0c0-.76-.25-1.55-1-1.55s-1,.79-1,1.55.25,1.55,1,1.55S217.42,42.93,217.42,42.17Z" fill="#5e5e5e"/><rect x="225.08" y="125.55" width="10.58" height="3.15" fill="#bbbdbf"/><rect x="243.08" y="125.55" width="10.58" height="3.15" fill="#bbbdbf"/><rect x="262.08" y="125.55" width="10.58" height="3.15" fill="#bbbdbf"/><rect x="280.08" y="125.55" width="10.58" height="3.15" fill="#bbbdbf"/><rect x="299.08" y="125.55" width="10.58" height="3.15" fill="#bbbdbf"/></svg>