<svg xmlns="http://www.w3.org/2000/svg" width="10cm" height="10cm" viewBox="0 0 283.46 283.46"><rect x="0.5" y="0.5" width="282.47" height="282.47" fill="#fff"/><rect width="283.46" height="283.46" fill="#fff"/><path d="M283.46,283.46H0V0H283.46ZM1,282.47H282.47V1H1Z" fill="#676767"/><rect x="28.35" y="87.24" width="59.55" height="31.9" fill="#676767"/><rect x="195.57" y="87.99" width="59.55" height="31.9" rx="1.78" fill="#676767"/><rect x="195.57" y="163.58" width="59.55" height="31.9" rx="1.78" fill="#676767"/><polygon points="176.13 179.53 142.26 203.5 108.4 179.53 142.26 155.56 176.13 179.53" fill="#676767"/><polygon points="176.13 103.94 142.26 127.91 108.4 103.94 142.26 79.97 176.13 103.94" fill="#676767"/><line x1="85.42" y1="103.94" x2="102.75" y2="103.94" fill="none" stroke="#676767" stroke-miterlimit="10" stroke-width="2"/><polygon points="108.4 103.94 100.44 107.19 102.33 103.94 100.44 100.69 108.4 103.94" fill="#676767"/><line x1="174.82" y1="103.94" x2="190.65" y2="104.11" fill="none" stroke="#676767" stroke-miterlimit="10" stroke-width="2"/><polygon points="196.3 104.17 188.31 107.34 190.23 104.11 188.38 100.83 196.3 104.17" fill="#676767"/><line x1="225.34" y1="119.89" x2="225.34" y2="163.58" fill="none"/><line x1="197.38" y1="179.53" x2="180.88" y2="179.53" fill="none" stroke="#676767" stroke-miterlimit="10" stroke-width="2"/><polygon points="175.24 179.53 183.19 176.28 181.31 179.53 183.19 182.78 175.24 179.53" fill="#676767"/><line x1="225.35" y1="117.41" x2="225.35" y2="157.93" fill="none" stroke="#676767" stroke-miterlimit="10" stroke-width="2"/><polygon points="225.34 163.58 222.09 155.62 225.34 157.51 228.6 155.62 225.34 163.58" fill="#676767"/></svg>