<svg xmlns="http://www.w3.org/2000/svg" width="350" height="148" viewBox="0 0 350 148"><rect width="350" height="148" fill="#f1f2f2"/><path d="M31.92,21.87V14.54h2.5a3.56,3.56,0,0,1,3.76,3.67,3.54,3.54,0,0,1-3.76,3.66Zm5.32-3.66a2.69,2.69,0,0,0-2.82-2.86H32.83v5.71h1.59A2.7,2.7,0,0,0,37.24,18.21Z" fill="#0072bc"/><path d="M39.26,19.21a2.63,2.63,0,1,1,5.26,0,2.63,2.63,0,1,1-5.26,0Zm4.39,0a1.78,1.78,0,1,0-3.52,0,1.78,1.78,0,1,0,3.52,0Z" fill="#0072bc"/><circle cx="17.55" cy="17.55" r="7.55" fill="#9dc5ff"/><circle cx="17.55" cy="17.55" r="4.8" fill="#0072bc"/><polyline points="14.8 17.55 16.63 19.38 20.29 15.72" fill="none" stroke="#fff" stroke-linecap="round" stroke-linejoin="round" stroke-width="0.75"/><path d="M201.92,21.87V14.54h2.5a3.56,3.56,0,0,1,3.76,3.67,3.54,3.54,0,0,1-3.76,3.66Zm5.32-3.66a2.69,2.69,0,0,0-2.82-2.86h-1.59v5.71h1.59A2.7,2.7,0,0,0,207.24,18.21Z" fill="#ef4a60"/><path d="M209.26,19.21a2.63,2.63,0,1,1,5.26,0,2.63,2.63,0,1,1-5.26,0Zm4.39,0a1.78,1.78,0,1,0-3.52,0,1.78,1.78,0,1,0,3.52,0Z" fill="#ef4a60"/><path d="M219.44,21.87V18.4c0-.95-.48-1.23-1.19-1.23a2.06,2.06,0,0,0-1.57.82v3.88h-.83V16.56h.83v.77a2.58,2.58,0,0,1,1.9-.9,1.5,1.5,0,0,1,1.68,1.71v3.73Z" fill="#ef4a60"/><path d="M222.07,16.93l-.42-.35a1.65,1.65,0,0,0,.71-1l-.15,0a.53.53,0,0,1-.53-.56.6.6,0,0,1,.58-.59c.38,0,.7.3.7.84A2.14,2.14,0,0,1,222.07,16.93Z" fill="#ef4a60"/><path d="M224.54,20.76V17.29h-.88v-.73h.88V15.11h.83v1.45h1.08v.73h-1.08v3.29c0,.4.18.68.53.68a.75.75,0,0,0,.56-.23l.24.63a1.32,1.32,0,0,1-1,.34A1.08,1.08,0,0,1,224.54,20.76Z" fill="#ef4a60"/><circle cx="187.55" cy="17.55" r="7.55" fill="#ffbcc1"/><circle cx="187.55" cy="17.55" r="4.8" fill="#ef4a60"/><line x1="189.55" y1="15.55" x2="185.55" y2="19.55" fill="none" stroke="#fff" stroke-linecap="round" stroke-linejoin="round" stroke-width="0.75"/><line x1="189.55" y1="19.55" x2="185.55" y2="15.55" fill="none" stroke="#fff" stroke-linecap="round" stroke-linejoin="round" stroke-width="0.75"/><path d="M131.86,72.06c-20.7,0-31.22,0-41.4,0S69.78,72,49.1,72V43l41.4,0c10.17,0,20.68,0,41.36,0Z" fill="#0072bc" opacity="0.6"/><path d="M131.86,125a328.88,328.88,0,0,1-42-2.33,316,316,0,0,0-40.78-2.25v-9.6a329.35,329.35,0,0,1,42,2.32,316.22,316.22,0,0,0,40.78,2.25Z" fill="#5e5e5e" opacity="0.6"/><path d="M49.07,94.63V80.43c20.53,0,31-.44,41.06-.86,10.26-.43,20.87-.88,41.73-.88v14.2c-20.53,0-31,.44-41.06.86C80.54,94.19,69.94,94.63,49.07,94.63Z" fill="#18375f" opacity="0.6"/><path d="M131.86,109.17A348.31,348.31,0,0,1,90.05,107a343.18,343.18,0,0,0-40.95-2.12V97.47a348.37,348.37,0,0,1,41.82,2.17,342.84,342.84,0,0,0,40.94,2.12Z" fill="#00b398" opacity="0.6"/><path d="M131.86,102.06c-21.63,0-32.56-6.53-43.12-12.85C78.51,83.1,68.84,77.33,49.1,77.33V71.24c21.64,0,32.57,6.53,43.13,12.84C102.46,90.19,112.12,96,131.86,96Z" fill="#0072bc" opacity="0.6"/><path d="M49.1,127v-4c19.64,0,29.38-12.18,39.7-25.08,10.48-13.1,21.32-26.66,43.06-26.66v4c-19.63,0-29.37,12.19-39.69,25.08C81.69,113.47,70.85,127,49.1,127Z" fill="#ef4a60" opacity="0.6"/><path d="M131.86,115.32a207.68,207.68,0,0,1-41.68-3.66,205.11,205.11,0,0,0-41.08-3.6V105a207.6,207.6,0,0,1,41.68,3.66,205.19,205.19,0,0,0,41.08,3.6Z" fill="#00b398" opacity="0.6"/><rect x="45.68" y="43.02" width="3.64" height="34.31" fill="#5e5e5e"/><rect x="131.56" y="95.96" width="3.12" height="13.21" fill="#5e5e5e"/><rect x="131.56" y="112.26" width="3.12" height="12.73" fill="#5e5e5e"/><rect x="45.68" y="80.4" width="3.64" height="14.24" fill="#5e5e5e"/><rect x="45.68" y="123.07" width="3.64" height="3.96" fill="#5e5e5e"/><rect x="45.68" y="110.82" width="3.64" height="9.62" fill="#5e5e5e"/><rect x="45.68" y="97.47" width="3.64" height="10.66" fill="#5e5e5e"/><rect x="131.56" y="43.02" width="3.12" height="32.28" fill="#5e5e5e"/><rect x="131.56" y="78.69" width="3.12" height="14.2" fill="#5e5e5e"/><rect x="31.99" y="58.15" width="10.03" height="3.15" fill="#bbbdbf"/><rect x="137.99" y="58.15" width="10.03" height="3.15" fill="#bbbdbf"/><rect x="137.99" y="85.15" width="10.03" height="3.15" fill="#bbbdbf"/><rect x="137.99" y="101.15" width="10.03" height="3.15" fill="#bbbdbf"/><rect x="137.99" y="117.15" width="10.03" height="3.15" fill="#bbbdbf"/><rect x="31.99" y="86.15" width="10.03" height="3.15" fill="#bbbdbf"/><rect x="31.99" y="101.15" width="10.03" height="3.15" fill="#bbbdbf"/><rect x="31.99" y="114.15" width="10.03" height="3.15" fill="#bbbdbf"/><rect x="31.99" y="123.15" width="10.03" height="3.15" fill="#bbbdbf"/><path d="M301.86,109.17A348.31,348.31,0,0,1,260.05,107a343.18,343.18,0,0,0-41-2.12V97.47a348.37,348.37,0,0,1,41.82,2.17,342.84,342.84,0,0,0,40.94,2.12Z" fill="#00b398"/><path d="M301.86,115.32a207.68,207.68,0,0,1-41.68-3.66,205.11,205.11,0,0,0-41.08-3.6V105a207.6,207.6,0,0,1,41.68,3.66,205.19,205.19,0,0,0,41.08,3.6Z" fill="#00b398"/><path d="M301.86,72.06l-41.4,0c-10.16,0-20.68,0-41.36,0V43l41.4,0c10.17,0,20.68,0,41.36,0Z" fill="#0072bc"/><path d="M301.86,125a328.88,328.88,0,0,1-42-2.33,316,316,0,0,0-40.78-2.25v-9.6a329.35,329.35,0,0,1,42,2.32,316.22,316.22,0,0,0,40.78,2.25Z" fill="#919191"/><path d="M219.07,94.63V80.43c20.53,0,31-.44,41.06-.86,10.26-.43,20.87-.88,41.73-.88v14.2c-20.53,0-31,.44-41.06.86C250.54,94.19,239.94,94.63,219.07,94.63Z" fill="#18375f"/><path d="M301.86,102.06c-21.63,0-32.56-6.53-43.12-12.85-10.23-6.11-19.9-11.88-39.64-11.88V71.24c21.64,0,32.57,6.53,43.13,12.84C272.46,90.19,282.12,96,301.86,96Z" fill="#0072bc"/><path d="M219.1,127v-4c19.64,0,29.38-12.18,39.7-25.08,10.48-13.1,21.32-26.66,43.06-26.66v4c-19.63,0-29.37,12.19-39.69,25.08C251.69,113.47,240.85,127,219.1,127Z" fill="#ef4a60"/><rect x="215.68" y="43.02" width="3.64" height="34.31" fill="#5e5e5e"/><rect x="301.56" y="95.96" width="3.12" height="13.21" fill="#5e5e5e"/><rect x="301.56" y="112.26" width="3.12" height="12.73" fill="#5e5e5e"/><rect x="215.68" y="80.4" width="3.64" height="14.24" fill="#5e5e5e"/><rect x="215.68" y="123.07" width="3.64" height="3.96" fill="#5e5e5e"/><rect x="215.68" y="110.82" width="3.64" height="9.62" fill="#5e5e5e"/><rect x="215.68" y="97.47" width="3.64" height="10.66" fill="#5e5e5e"/><rect x="301.56" y="43.02" width="3.12" height="32.28" fill="#5e5e5e"/><rect x="301.56" y="78.69" width="3.12" height="14.2" fill="#5e5e5e"/><rect x="201.99" y="58.15" width="10.03" height="3.15" fill="#bbbdbf"/><rect x="307.99" y="58.15" width="10.03" height="3.15" fill="#bbbdbf"/><rect x="307.99" y="85.15" width="10.03" height="3.15" fill="#bbbdbf"/><rect x="307.99" y="101.15" width="10.03" height="3.15" fill="#bbbdbf"/><rect x="307.99" y="117.15" width="10.03" height="3.15" fill="#bbbdbf"/><rect x="201.99" y="86.15" width="10.03" height="3.15" fill="#bbbdbf"/><rect x="201.99" y="101.15" width="10.03" height="3.15" fill="#bbbdbf"/><rect x="201.99" y="114.15" width="10.03" height="3.15" fill="#bbbdbf"/><rect x="201.99" y="123.15" width="10.03" height="3.15" fill="#bbbdbf"/></svg>