<?xml version="1.0" encoding="UTF-8"?><svg id="b" xmlns="http://www.w3.org/2000/svg" width="48" height="30" viewBox="0 0 48 30"><g id="c"><path d="m47,0H6c-.55,0-1,.45-1,1v6h16.02c1.16-1.8,3.18-3,5.48-3s4.32,1.2,5.48,3h10.02c1.65,0,3,1.35,3,3v11h2c.55,0,1-.45,1-1V1c0-.55-.45-1-1-1Z" fill="#0072bc" stroke-width="0"/><path d="m42,9H1c-.55,0-1,.45-1,1v19c0,.55.45,1,1,1h41c.55,0,1-.45,1-1V10c0-.55-.45-1-1-1ZM6,23c-1.66,0-3-1.34-3-3,0-1.31.83-2.42,2-2.82.31-.12.65-.18,1-.18,1.66,0,3,1.34,3,3,0,.35-.06.69-.18,1-.4,1.17-1.51,2-2.82,2Zm15.5,3c-3.07,0-5.65-2.13-6.32-5-.12-.48-.18-.98-.18-1.5,0-3.26,2.4-5.96,5.53-6.42.32-.06.64-.08.97-.08,2.67,0,4.97,1.61,5.97,3.92.34.79.53,1.66.53,2.58,0,.52-.06,1.02-.18,1.5-.67,2.87-3.25,5-6.32,5Zm15.5-3.5c-1.11,0-2.08-.6-2.6-1.5-.25-.44-.4-.95-.4-1.5,0-1.66,1.34-3,3-3s3,1.34,3,3c0,.55-.15,1.06-.4,1.5-.52.9-1.49,1.5-2.6,1.5Z" fill="#0072bc" stroke-width="0"/></g></svg>