<?xml version="1.0" encoding="UTF-8"?><svg id="a" xmlns="http://www.w3.org/2000/svg" width="34" height="48" viewBox="0 0 34 48"><path d="M21,3c0-1.66-1.34-3-3-3s-3,1.34-3,3v3h6v-3Z" fill="#0072bc" stroke-width="0"/><path d="M15,26h6v-2h5c4.41,0,8-3.59,8-8s-3.59-8-8-8h-14.36c-.71-.62-1.63-1-2.64-1h-5c-1.1,0-2.1.45-2.83,1.17-.72.73-1.17,1.73-1.17,2.83,0,2.21,1.79,4,4,4h5c1.01,0,1.93-.38,2.64-1h14.36c1.1,0,2,.9,2,2s-.9,2-2,2h-5v-2h-6v2h-3c-4.41,0-8,3.59-8,8s3.59,8,8,8h10c1.1,0,2,.9,2,2s-.9,2-2,2h-1v-2h-6v2h-2c-1.66,0-3,1.34-3,3s1.34,3,3,3h2v1c0,.35.06.69.18,1,.05.15.11.29.18.42.03.07.07.14.12.2.03.05.06.1.1.15.34.47.81.83,1.36,1.03.05.03.11.05.17.06.07.03.14.05.21.06.05.02.11.02.17.03.17.04.34.05.51.05s.34-.01.51-.05c.06-.01.12-.01.17-.03.71-.16,1.33-.58,1.74-1.15.04-.05.07-.1.1-.15.05-.06.09-.13.12-.2.07-.13.13-.27.18-.42.12-.31.18-.65.18-1v-1h1c4.41,0,8-3.59,8-8s-3.59-8-8-8h-10c-1.1,0-2-.9-2-2s.9-2,2-2h3v2ZM4,11c-.55,0-1-.45-1-1s.45-1,1-1,1,.45,1,1-.45,1-1,1Z" fill="#0072bc" stroke-width="0"/></svg>