<?xml version="1.0" encoding="UTF-8"?><svg id="b" xmlns="http://www.w3.org/2000/svg" width="48" height="48" viewBox="0 0 48 48"><g id="c"><path d="m24,17.99c-5.99,0-10.5,4.08-10.5,9.5,0,.83.67,1.5,1.5,1.5s1.5-.67,1.5-1.5c0-2.41,1.37-4.43,3.5-5.55v9.06h0v15.5c0,.83.67,1.5,1.5,1.5s1.5-.67,1.5-1.5v-12.5h2v12.5c0,.83.67,1.5,1.5,1.5s1.5-.67,1.5-1.5v-24.56c2.13,1.12,3.5,3.14,3.5,5.55,0,.83.67,1.5,1.5,1.5s1.5-.67,1.5-1.5c0-5.42-4.51-9.5-10.5-9.5Z" fill="#0072bc" stroke-width="0"/><circle cx="24.05" cy="13" r="3" fill="#0072bc" stroke-width="0"/><path d="m46.76,12.84L25.26.34c-.78-.45-1.74-.45-2.51,0L1.24,12.84c-.77.45-1.24,1.27-1.24,2.16v30.5c0,1.38,1.12,2.5,2.5,2.5s2.5-1.12,2.5-2.5v-29.06L24,5.39l19,11.05v29.06c0,1.38,1.12,2.5,2.5,2.5s2.5-1.12,2.5-2.5V15c0-.89-.47-1.71-1.24-2.16Z" fill="#0072bc" stroke-width="0"/></g></svg>