<svg xmlns="http://www.w3.org/2000/svg" width="10cm" height="10cm" viewBox="0 0 283.46 283.46"><rect x="0.5" y="0.5" width="282.47" height="282.47" fill="#fff"/><rect width="283.46" height="283.46" fill="#fff"/><path d="M283.46,283.46H0V0H283.46ZM1,282.47H282.47V1H1Z" fill="#f38391"/><line x1="46.68" y1="108.41" x2="46.68" y2="85.35" fill="none" stroke="#f38391" stroke-linecap="round" stroke-linejoin="round" stroke-width="3"/><line x1="255.12" y1="108.41" x2="255.12" y2="85.35" fill="none" stroke="#f38391" stroke-linecap="round" stroke-linejoin="round" stroke-width="3"/><line x1="46.68" y1="96.88" x2="82.1" y2="96.88" fill="none" stroke="#f38391" stroke-linecap="round" stroke-linejoin="round" stroke-width="3"/><line x1="219.7" y1="96.88" x2="255.12" y2="96.88" fill="none" stroke="#f38391" stroke-linecap="round" stroke-linejoin="round" stroke-width="3"/><rect x="82.1" y="73.23" width="64.5" height="47.3" fill="#f38391"/><rect x="146.59" y="73.23" width="73.11" height="47.3" fill="#f9bbc1"/><line x1="28.35" y1="198.12" x2="28.35" y2="175.06" fill="none" stroke="#f38391" stroke-linecap="round" stroke-linejoin="round" stroke-width="3"/><line x1="213.38" y1="198.12" x2="213.38" y2="175.06" fill="none" stroke="#f38391" stroke-linecap="round" stroke-linejoin="round" stroke-width="3"/><line x1="28.35" y1="186.59" x2="63.76" y2="186.59" fill="none" stroke="#f38391" stroke-linecap="round" stroke-linejoin="round" stroke-width="3"/><line x1="177.96" y1="186.59" x2="213.38" y2="186.59" fill="none" stroke="#f38391" stroke-linecap="round" stroke-linejoin="round" stroke-width="3"/><rect x="63.76" y="162.94" width="41.09" height="47.3" fill="#f38391"/><rect x="104.86" y="162.94" width="73.11" height="47.3" fill="#f9bbc1"/></svg>