<svg xmlns="http://www.w3.org/2000/svg" width="350" height="148" viewBox="0 0 350 148"><rect width="350" height="148" fill="#f1f2f2"/><path d="M31.92,21.87V14.54h2.5a3.56,3.56,0,0,1,3.76,3.67,3.54,3.54,0,0,1-3.76,3.66Zm5.32-3.66a2.69,2.69,0,0,0-2.82-2.86H32.83v5.71h1.59A2.7,2.7,0,0,0,37.24,18.21Z" fill="#0072bc"/><path d="M39.26,19.21a2.63,2.63,0,1,1,5.26,0,2.63,2.63,0,1,1-5.26,0Zm4.39,0a1.78,1.78,0,1,0-3.52,0,1.78,1.78,0,1,0,3.52,0Z" fill="#0072bc"/><circle cx="17.55" cy="17.55" r="7.55" fill="#9dc5ff"/><circle cx="17.55" cy="17.55" r="4.8" fill="#0072bc"/><polyline points="14.8 17.55 16.63 19.38 20.29 15.72" fill="none" stroke="#fff" stroke-linecap="round" stroke-linejoin="round" stroke-width="0.75"/><path d="M201.92,21.87V14.54h2.5a3.56,3.56,0,0,1,3.76,3.67,3.54,3.54,0,0,1-3.76,3.66Zm5.32-3.66a2.69,2.69,0,0,0-2.82-2.86h-1.59v5.71h1.59A2.7,2.7,0,0,0,207.24,18.21Z" fill="#ef4a60"/><path d="M209.26,19.21a2.63,2.63,0,1,1,5.26,0,2.63,2.63,0,1,1-5.26,0Zm4.39,0a1.78,1.78,0,1,0-3.52,0,1.78,1.78,0,1,0,3.52,0Z" fill="#ef4a60"/><path d="M219.44,21.87V18.4c0-.95-.48-1.23-1.19-1.23a2.06,2.06,0,0,0-1.57.82v3.88h-.83V16.56h.83v.77a2.58,2.58,0,0,1,1.9-.9,1.5,1.5,0,0,1,1.68,1.71v3.73Z" fill="#ef4a60"/><path d="M222.07,16.93l-.42-.35a1.65,1.65,0,0,0,.71-1l-.15,0a.53.53,0,0,1-.53-.56.6.6,0,0,1,.58-.59c.38,0,.7.3.7.84A2.14,2.14,0,0,1,222.07,16.93Z" fill="#ef4a60"/><path d="M224.54,20.76V17.29h-.88v-.73h.88V15.11h.83v1.45h1.08v.73h-1.08v3.29c0,.4.18.68.53.68a.75.75,0,0,0,.56-.23l.24.63a1.32,1.32,0,0,1-1,.34A1.08,1.08,0,0,1,224.54,20.76Z" fill="#ef4a60"/><circle cx="187.55" cy="17.55" r="7.55" fill="#ffbcc1"/><circle cx="187.55" cy="17.55" r="4.8" fill="#ef4a60"/><line x1="189.55" y1="15.55" x2="185.55" y2="19.55" fill="none" stroke="#fff" stroke-linecap="round" stroke-linejoin="round" stroke-width="0.75"/><line x1="189.55" y1="19.55" x2="185.55" y2="15.55" fill="none" stroke="#fff" stroke-linecap="round" stroke-linejoin="round" stroke-width="0.75"/><line x1="244.06" y1="96.28" x2="238.46" y2="96.28" fill="none" stroke="#919191" stroke-linecap="round" stroke-linejoin="round" stroke-width="0.75"/><line x1="244.06" y1="51.96" x2="238.46" y2="51.96" fill="none" stroke="#919191" stroke-linecap="round" stroke-linejoin="round" stroke-width="0.75"/><line x1="241.26" y1="96.28" x2="241.26" y2="88.75" fill="none" stroke="#919191" stroke-linecap="round" stroke-linejoin="round" stroke-width="0.75"/><line x1="241.26" y1="59.49" x2="241.26" y2="51.96" fill="none" stroke="#919191" stroke-linecap="round" stroke-linejoin="round" stroke-width="0.75"/><rect x="234.4" y="76.16" width="13.71" height="11.48" transform="translate(159.37 323.16) rotate(-90)" fill="#9dc5ff"/><rect x="233.49" y="61.53" width="15.55" height="11.48" transform="translate(174 308.53) rotate(-90)" fill="#9dc5ff"/><line x1="235.6" y1="74.75" x2="246.98" y2="74.75" fill="none" stroke="#0072bc" stroke-miterlimit="10" stroke-width="0.75"/><line x1="263.97" y1="109" x2="258.38" y2="109" fill="none" stroke="#919191" stroke-linecap="round" stroke-linejoin="round" stroke-width="0.75"/><line x1="263.97" y1="72.79" x2="258.38" y2="72.79" fill="none" stroke="#919191" stroke-linecap="round" stroke-linejoin="round" stroke-width="0.75"/><line x1="261.18" y1="109" x2="261.18" y2="102.07" fill="none" stroke="#919191" stroke-linecap="round" stroke-linejoin="round" stroke-width="0.75"/><line x1="261.18" y1="79.72" x2="261.18" y2="72.79" fill="none" stroke="#919191" stroke-linecap="round" stroke-linejoin="round" stroke-width="0.75"/><rect x="257.16" y="92.31" width="8.04" height="11.48" transform="translate(163.13 359.22) rotate(-90)" fill="#9dc5ff"/><rect x="254.02" y="81.14" width="14.31" height="11.48" transform="translate(174.3 348.05) rotate(-90)" fill="#9dc5ff"/><line x1="255.44" y1="93.75" x2="266.82" y2="93.75" fill="none" stroke="#0072bc" stroke-miterlimit="10" stroke-width="0.75"/><line x1="303.97" y1="103.29" x2="298.37" y2="103.29" fill="none" stroke="#919191" stroke-linecap="round" stroke-linejoin="round" stroke-width="0.75"/><line x1="303.97" y1="50.87" x2="298.37" y2="50.87" fill="none" stroke="#919191" stroke-linecap="round" stroke-linejoin="round" stroke-width="0.75"/><line x1="301.17" y1="103.29" x2="301.17" y2="93.25" fill="none" stroke="#919191" stroke-linecap="round" stroke-linejoin="round" stroke-width="0.75"/><line x1="301.17" y1="60.91" x2="301.17" y2="50.87" fill="none" stroke="#919191" stroke-linecap="round" stroke-linejoin="round" stroke-width="0.75"/><rect x="295.35" y="81.7" width="11.64" height="11.48" transform="translate(213.74 388.61) rotate(-90)" fill="#9dc5ff"/><rect x="290.82" y="65.52" width="20.71" height="11.48" transform="translate(229.91 372.43) rotate(-90)" fill="#9dc5ff"/><line x1="295.43" y1="81.21" x2="306.82" y2="81.21" fill="none" stroke="#0072bc" stroke-miterlimit="10" stroke-width="0.75"/><line x1="283.89" y1="90.64" x2="278.29" y2="90.64" fill="none" stroke="#919191" stroke-linecap="round" stroke-linejoin="round" stroke-width="0.75"/><line x1="283.89" y1="41.2" x2="278.29" y2="41.2" fill="none" stroke="#919191" stroke-linecap="round" stroke-linejoin="round" stroke-width="0.75"/><line x1="281.09" y1="90.64" x2="281.09" y2="81.17" fill="none" stroke="#919191" stroke-linecap="round" stroke-linejoin="round" stroke-width="0.75"/><line x1="281.09" y1="50.66" x2="281.09" y2="41.2" fill="none" stroke="#919191" stroke-linecap="round" stroke-linejoin="round" stroke-width="0.75"/><rect x="275.6" y="69.95" width="10.98" height="11.48" transform="translate(205.41 356.77) rotate(-90)" fill="#9dc5ff"/><rect x="271.32" y="54.69" width="19.53" height="11.48" transform="translate(220.66 341.52) rotate(-90)" fill="#9dc5ff"/><line x1="275.35" y1="70.19" x2="286.74" y2="70.19" fill="none" stroke="#0072bc" stroke-miterlimit="10" stroke-width="0.75"/><rect x="213.09" y="109.48" width="10.03" height="3.15" fill="#bbbdbf"/><rect x="213.09" y="91.73" width="10.03" height="3.15" fill="#bbbdbf"/><rect x="213.09" y="73.98" width="10.03" height="3.15" fill="#bbbdbf"/><rect x="213.09" y="56.23" width="10.03" height="3.15" fill="#bbbdbf"/><rect x="213.09" y="38.48" width="10.03" height="3.15" fill="#bbbdbf"/><path d="M230.72,133.11l-.07-.43a.91.91,0,0,0,.77-.24.75.75,0,0,0,0-1.11l-1.89-1.88.34-.34,1.88,1.89a1.12,1.12,0,0,1,0,1.72A1.25,1.25,0,0,1,230.72,133.11Z" fill="#5e5e5e"/><path d="M234.39,130l-.23-.22a1.15,1.15,0,0,1-.37.92.92.92,0,0,1-1.33,0,.9.9,0,0,1,0-1.32,1.15,1.15,0,0,1,.91-.39l-.35-.35a.61.61,0,0,0-.91.09,1.06,1.06,0,0,0-.32.87l-.36-.07a1.49,1.49,0,0,1,.46-1.11.92.92,0,0,1,1.42-.09l1.34,1.34Zm-.42-.41-.37-.37a.93.93,0,0,0-.77.29.62.62,0,0,0-.06.91.62.62,0,0,0,.91,0A.91.91,0,0,0,234,129.56Z" fill="#5e5e5e"/><path d="M236.62,127.74l-1.28-1.28a.54.54,0,0,0-.89,0,1,1,0,0,0-.27.88l1.42,1.43-.3.3-2-2,.3-.31.28.29a1.35,1.35,0,0,1,.37-1,.78.78,0,0,1,1.25,0l1.37,1.37Z" fill="#5e5e5e"/><path d="M238.85,125.51l-.28-.27a1.31,1.31,0,0,1-.37,1,.77.77,0,0,1-1.24,0l-1.38-1.38.3-.31,1.29,1.29a.54.54,0,0,0,.88,0,1,1,0,0,0,.28-.87l-1.43-1.43.3-.31,2,2Z" fill="#5e5e5e"/><path d="M241,123.38l-.22-.22a1.22,1.22,0,0,1-.38.92.93.93,0,0,1-1.33,0,.9.9,0,0,1,0-1.32,1.16,1.16,0,0,1,.91-.39l-.35-.35a.61.61,0,0,0-.9.08,1.06,1.06,0,0,0-.33.87l-.35-.06a1.44,1.44,0,0,1,.45-1.11.92.92,0,0,1,1.42-.1l1.34,1.35Zm-.41-.41-.38-.37a.9.9,0,0,0-.77.29.62.62,0,0,0-.06.91.63.63,0,0,0,.92-.06A.92.92,0,0,0,240.57,123Z" fill="#5e5e5e"/><path d="M241.89,122.47l-1.95-2,.3-.3.31.31a1.21,1.21,0,0,1,.3-1l.31.32-.13.11a1,1,0,0,0-.22.84l1.38,1.38Z" fill="#5e5e5e"/><path d="M243.65,121.68a.53.53,0,0,0,.2-.13.4.4,0,0,0,.09-.5l-.17-.42L241,119.47l.33-.33,2.25,1-.95-2.25.33-.33,1.37,3.33a.81.81,0,0,1-.18,1,1,1,0,0,1-.24.19Z" fill="#5e5e5e"/><path d="M249,135l-2.7-2.7,1.77-1.77.3.3-1.43,1.43.87.87,1.4-1.4.3.3-1.4,1.4,1.23,1.23Z" fill="#5e5e5e"/><path d="M250.08,131.9a1.39,1.39,0,0,1-.06-2,1.34,1.34,0,0,1,2,.11l.08.08-1.58,1.58a1,1,0,0,0,1.37,0,1.22,1.22,0,0,0,.36-.86l.34.06a1.5,1.5,0,0,1-.47,1.08A1.38,1.38,0,0,1,250.08,131.9Zm.19-1.73a.91.91,0,0,0,0,1.28l1.28-1.28A.89.89,0,0,0,250.27,130.17Z" fill="#5e5e5e"/><path d="M253.45,130.49l-2.7-2.7.31-.3,1,1a1.16,1.16,0,0,1,.31-1,1.28,1.28,0,0,1,1.9.16,1.26,1.26,0,0,1,.15,1.89,1.12,1.12,0,0,1-1,.32l.29.29Zm.67-1.11a1.09,1.09,0,0,0-1.51-1.51,1,1,0,0,0-.27.9l.89.88A1,1,0,0,0,254.12,129.38Z" fill="#5e5e5e"/><path d="M255.78,128.16l-2-2,.31-.3.31.31a1.2,1.2,0,0,1,.29-1l.31.31-.12.11a1,1,0,0,0-.22.85l1.38,1.38Z" fill="#5e5e5e"/><path d="M258.43,125.51l-.28-.27a1.38,1.38,0,0,1-.37,1,.78.78,0,0,1-1.24,0l-1.38-1.38.3-.31,1.29,1.29a.54.54,0,0,0,.88,0,1,1,0,0,0,.28-.87l-1.44-1.43.31-.31,2,2Z" fill="#5e5e5e"/><path d="M260.56,123.38l-.22-.22a1.22,1.22,0,0,1-.38.92.93.93,0,0,1-1.33,0,.9.9,0,0,1,0-1.32,1.16,1.16,0,0,1,.91-.39l-.35-.35a.61.61,0,0,0-.9.08,1.06,1.06,0,0,0-.33.87l-.35-.06a1.44,1.44,0,0,1,.45-1.11.92.92,0,0,1,1.42-.1l1.34,1.35Zm-.41-.41-.38-.37a.93.93,0,0,0-.77.29.61.61,0,1,0,.85.85A.89.89,0,0,0,260.15,123Z" fill="#5e5e5e"/><path d="M261.47,122.47l-2-2,.3-.3.31.31a1.21,1.21,0,0,1,.3-1l.31.32-.13.11a1,1,0,0,0-.22.84l1.38,1.38Z" fill="#5e5e5e"/><path d="M263.23,121.68a.53.53,0,0,0,.2-.13.4.4,0,0,0,.09-.5l-.17-.42-2.79-1.16.33-.33,2.25,1-.95-2.25.33-.33,1.37,3.33a.81.81,0,0,1-.18,1,.87.87,0,0,1-.25.19Z" fill="#5e5e5e"/><path d="M275.86,127.81l-2.27-2.27,1.36,3.18-.14.14-3.19-1.35,2.27,2.27-.33.34-2.7-2.7.48-.48,2.92,1.23L273,125.26l.48-.48,2.7,2.69Z" fill="#5e5e5e"/><path d="M278,125.64l-.23-.23a1.19,1.19,0,0,1-.37.92.92.92,0,0,1-1.33,0,.9.9,0,0,1,0-1.32,1.14,1.14,0,0,1,.91-.38l-.35-.36a.63.63,0,0,0-.91.09,1.08,1.08,0,0,0-.32.87l-.36-.07a1.47,1.47,0,0,1,.46-1.1A.92.92,0,0,1,277,124l1.34,1.34Zm-.42-.42-.37-.37a.94.94,0,0,0-.77.3.61.61,0,1,0,.85.85A.91.91,0,0,0,277.62,125.22Z" fill="#5e5e5e"/><path d="M279,124.72l-1.95-2,.3-.3.31.31a1.21,1.21,0,0,1,.3-1l.31.31-.13.11a1,1,0,0,0-.22.85l1.38,1.38Z" fill="#5e5e5e"/><path d="M279.19,122.52a1.36,1.36,0,0,1-.05-2,1.17,1.17,0,0,1,1.06-.38l0,.38a.82.82,0,0,0-.75.25,1.07,1.07,0,0,0,1.51,1.51.82.82,0,0,0,.24-.75l.39,0a1.17,1.17,0,0,1-.38,1.06A1.37,1.37,0,0,1,279.19,122.52Z" fill="#5e5e5e"/><path d="M283.61,120.06l-1.29-1.28a.53.53,0,0,0-.88,0,1,1,0,0,0-.27.88l1.43,1.43-.31.3-2.7-2.7.31-.3,1,1a1.28,1.28,0,0,1,.36-1,.78.78,0,0,1,1.25,0l1.38,1.38Z" fill="#5e5e5e"/><path d="M298,125.34l-.84-.36-1.34,1.34.36.84-.39.38-1.61-3.78.42-.42L298.4,125Zm-3.26-1.44.88,2,1.15-1.14Z" fill="#5e5e5e"/><path d="M298.75,124l1,1-.3.3-2.7-2.7.3-.3.29.29a1.17,1.17,0,0,1,.32-1,1.47,1.47,0,0,1,2.05,2.06A1.16,1.16,0,0,1,298.75,124Zm.52-1.89a.92.92,0,0,0-1.37-.13,1,1,0,0,0-.28.89l.89.89a1,1,0,0,0,.89-.27A.92.92,0,0,0,299.27,122.13Z" fill="#5e5e5e"/><path d="M301.05,122.31l-1.95-2,.3-.3.31.31a1.21,1.21,0,0,1,.3-1l.31.31-.12.11a1,1,0,0,0-.23.85l1.39,1.38Z" fill="#5e5e5e"/><path d="M299.9,118.59a.3.3,0,0,1,0-.41.29.29,0,0,1,.41,0,.29.29,0,1,1-.41.41Zm2.49,2.38-2-2,.31-.31,1.95,2Z" fill="#5e5e5e"/><path d="M303.3,120.06l-2.7-2.69.3-.31,2.7,2.7Z" fill="#5e5e5e"/><line x1="69.1" y1="47.94" x2="69.1" y2="42.34" fill="none" stroke="#919191" stroke-linecap="round" stroke-linejoin="round" stroke-width="0.75"/><line x1="124.07" y1="47.94" x2="124.07" y2="42.34" fill="none" stroke="#919191" stroke-linecap="round" stroke-linejoin="round" stroke-width="0.75"/><line x1="69.1" y1="45.14" x2="78.44" y2="45.14" fill="none" stroke="#919191" stroke-linecap="round" stroke-linejoin="round" stroke-width="0.75"/><line x1="114.73" y1="45.14" x2="124.07" y2="45.14" fill="none" stroke="#919191" stroke-linecap="round" stroke-linejoin="round" stroke-width="0.75"/><rect x="78.44" y="39.4" width="17.01" height="11.48" fill="#9dc5ff"/><rect x="95.45" y="39.4" width="19.28" height="11.48" fill="#9dc5ff"/><line x1="95.8" y1="39.48" x2="95.8" y2="50.87" fill="none" stroke="#0072bc" stroke-miterlimit="10" stroke-width="0.75"/><line x1="53.33" y1="67.86" x2="53.33" y2="62.26" fill="none" stroke="#919191" stroke-linecap="round" stroke-linejoin="round" stroke-width="0.75"/><line x1="98.23" y1="67.86" x2="98.23" y2="62.26" fill="none" stroke="#919191" stroke-linecap="round" stroke-linejoin="round" stroke-width="0.75"/><line x1="53.33" y1="65.06" x2="61.93" y2="65.06" fill="none" stroke="#919191" stroke-linecap="round" stroke-linejoin="round" stroke-width="0.75"/><line x1="89.64" y1="65.06" x2="98.23" y2="65.06" fill="none" stroke="#919191" stroke-linecap="round" stroke-linejoin="round" stroke-width="0.75"/><rect x="61.93" y="59.32" width="9.97" height="11.48" fill="#9dc5ff"/><rect x="71.9" y="59.32" width="17.74" height="11.48" fill="#9dc5ff"/><line x1="72.24" y1="59.32" x2="72.24" y2="70.7" fill="none" stroke="#0072bc" stroke-miterlimit="10" stroke-width="0.75"/><line x1="60.42" y1="107.85" x2="60.42" y2="102.25" fill="none" stroke="#919191" stroke-linecap="round" stroke-linejoin="round" stroke-width="0.75"/><line x1="125.42" y1="107.85" x2="125.42" y2="102.25" fill="none" stroke="#919191" stroke-linecap="round" stroke-linejoin="round" stroke-width="0.75"/><line x1="60.42" y1="105.05" x2="72.86" y2="105.05" fill="none" stroke="#919191" stroke-linecap="round" stroke-linejoin="round" stroke-width="0.75"/><line x1="112.97" y1="105.05" x2="125.42" y2="105.05" fill="none" stroke="#919191" stroke-linecap="round" stroke-linejoin="round" stroke-width="0.75"/><rect x="72.86" y="99.31" width="14.44" height="11.48" fill="#9dc5ff"/><rect x="87.29" y="99.31" width="25.68" height="11.48" fill="#9dc5ff"/><line x1="87.79" y1="99.31" x2="87.79" y2="110.7" fill="none" stroke="#0072bc" stroke-miterlimit="10" stroke-width="0.75"/><line x1="76.1" y1="87.77" x2="76.1" y2="82.17" fill="none" stroke="#919191" stroke-linecap="round" stroke-linejoin="round" stroke-width="0.75"/><line x1="137.42" y1="87.77" x2="137.42" y2="82.17" fill="none" stroke="#919191" stroke-linecap="round" stroke-linejoin="round" stroke-width="0.75"/><line x1="76.1" y1="84.97" x2="87.84" y2="84.97" fill="none" stroke="#919191" stroke-linecap="round" stroke-linejoin="round" stroke-width="0.75"/><line x1="125.68" y1="84.97" x2="137.42" y2="84.97" fill="none" stroke="#919191" stroke-linecap="round" stroke-linejoin="round" stroke-width="0.75"/><rect x="87.84" y="79.23" width="13.62" height="11.48" fill="#9dc5ff"/><rect x="101.45" y="79.23" width="24.22" height="11.48" fill="#9dc5ff"/><line x1="101.45" y1="79.23" x2="101.45" y2="90.62" fill="none" stroke="#0072bc" stroke-miterlimit="10" stroke-width="0.75"/><rect x="46.25" y="117.48" width="10.03" height="3.15" fill="#bbbdbf"/><rect x="71" y="117.48" width="10.03" height="3.15" fill="#bbbdbf"/><rect x="95.75" y="117.48" width="10.03" height="3.15" fill="#bbbdbf"/><rect x="120.5" y="117.48" width="10.03" height="3.15" fill="#bbbdbf"/><rect x="145.25" y="117.48" width="10.03" height="3.15" fill="#bbbdbf"/><path d="M24.79,44.46,25,44.1a.89.89,0,0,0,.71.38.74.74,0,0,0,.77-.8V41H27v2.67a1.13,1.13,0,0,1-1.22,1.21A1.21,1.21,0,0,1,24.79,44.46Z" fill="#5e5e5e"/><path d="M29.6,44.84v-.32a1.21,1.21,0,0,1-.92.38.92.92,0,0,1-1-.91.89.89,0,0,1,1-.91,1.19,1.19,0,0,1,.92.37V43c0-.36-.3-.57-.7-.57a1.09,1.09,0,0,0-.85.38l-.2-.3A1.45,1.45,0,0,1,29,42c.58,0,1.07.27,1.07.94v1.9Zm0-.59v-.52a.93.93,0,0,0-.76-.34.63.63,0,0,0-.69.6.63.63,0,0,0,.69.61A.94.94,0,0,0,29.6,44.25Z" fill="#5e5e5e"/><path d="M32.76,44.84V43c0-.49-.25-.64-.63-.64a1,1,0,0,0-.81.43v2h-.43V42.07h.43v.4a1.36,1.36,0,0,1,1-.47.78.78,0,0,1,.87.9v1.94Z" fill="#5e5e5e"/><path d="M35.91,44.84v-.39a1.34,1.34,0,0,1-1,.45A.78.78,0,0,1,34,44v-2h.43v1.82c0,.49.25.63.63.63a1,1,0,0,0,.81-.42v-2h.43v2.77Z" fill="#5e5e5e"/><path d="M38.92,44.84v-.32a1.18,1.18,0,0,1-.92.38A.92.92,0,0,1,37,44a.9.9,0,0,1,1-.91,1.18,1.18,0,0,1,.92.37V43c0-.36-.3-.57-.7-.57a1.05,1.05,0,0,0-.84.38l-.2-.3a1.43,1.43,0,0,1,1.1-.46c.59,0,1.07.27,1.07.94v1.9Zm0-.59v-.52a.92.92,0,0,0-.75-.34.62.62,0,0,0-.69.6.63.63,0,0,0,.69.61A.93.93,0,0,0,38.92,44.25Z" fill="#5e5e5e"/><path d="M40.21,44.84V42.07h.43v.44a1.19,1.19,0,0,1,.92-.5v.44H41.4a1,1,0,0,0-.76.44v2Z" fill="#5e5e5e"/><path d="M42,45.53a.64.64,0,0,0,.24,0,.4.4,0,0,0,.41-.29l.18-.42-1.15-2.79h.46l.92,2.27L44,42.07h.46L43.07,45.4a.83.83,0,0,1-.81.56,1.46,1.46,0,0,1-.31,0Z" fill="#5e5e5e"/><path d="M25.17,65.84V62h2.5v.42h-2v1.23h2v.43h-2v1.74Z" fill="#5e5e5e"/><path d="M28.14,64.45A1.39,1.39,0,0,1,29.5,63a1.34,1.34,0,0,1,1.33,1.48v.11H28.6a1,1,0,0,0,1,1,1.2,1.2,0,0,0,.86-.36l.2.29a1.53,1.53,0,0,1-1.09.42A1.37,1.37,0,0,1,28.14,64.45Zm1.36-1.09a.92.92,0,0,0-.9.91h1.81A.9.9,0,0,0,29.5,63.36Z" fill="#5e5e5e"/><path d="M31.52,65.84V62H32v1.47a1.16,1.16,0,0,1,.93-.49c.73,0,1.23.57,1.23,1.46a1.27,1.27,0,0,1-1.23,1.44,1.16,1.16,0,0,1-.93-.48v.42Zm1.26-.32c.56,0,.89-.45.89-1.06s-.33-1.07-.89-1.07a1,1,0,0,0-.83.44v1.26A1,1,0,0,0,32.78,65.52Z" fill="#5e5e5e"/><path d="M34.81,65.84V63.07h.43v.44a1.19,1.19,0,0,1,.92-.5v.44H36a1,1,0,0,0-.75.44v2Z" fill="#5e5e5e"/><path d="M38.56,65.84v-.39a1.34,1.34,0,0,1-1,.45.78.78,0,0,1-.89-.88V63.07h.43v1.82c0,.49.25.63.63.63a1,1,0,0,0,.81-.42v-2H39v2.77Z" fill="#5e5e5e"/><path d="M41.57,65.84v-.32a1.18,1.18,0,0,1-.91.38.91.91,0,0,1-1-.91.89.89,0,0,1,1-.91,1.17,1.17,0,0,1,.91.37V64c0-.36-.29-.57-.7-.57a1.05,1.05,0,0,0-.84.38l-.2-.3a1.43,1.43,0,0,1,1.1-.46c.59,0,1.07.27,1.07.94v1.9Zm0-.59v-.52a.91.91,0,0,0-.75-.34.62.62,0,0,0-.69.6.63.63,0,0,0,.69.61A.92.92,0,0,0,41.57,65.25Z" fill="#5e5e5e"/><path d="M42.86,65.84V63.07h.43v.44a1.23,1.23,0,0,1,.92-.5v.44h-.16a1,1,0,0,0-.76.44v2Z" fill="#5e5e5e"/><path d="M44.66,66.53a.67.67,0,0,0,.24,0,.39.39,0,0,0,.41-.29l.18-.42-1.15-2.79h.47l.91,2.27.92-2.27h.47L45.72,66.4a.82.82,0,0,1-.81.56,1.55,1.55,0,0,1-.31,0Z" fill="#5e5e5e"/><path d="M28.43,84.83V81.62l-1.29,3.21h-.2l-1.29-3.21v3.21h-.48V81h.68L27,84,28.23,81h.68v3.81Z" fill="#5e5e5e"/><path d="M31.51,84.83v-.31a1.21,1.21,0,0,1-.92.38.92.92,0,0,1-1-.91.89.89,0,0,1,1-.91,1.19,1.19,0,0,1,.92.37V83c0-.36-.3-.57-.7-.57a1.09,1.09,0,0,0-.85.38l-.2-.3a1.44,1.44,0,0,1,1.1-.46c.59,0,1.08.27,1.08.94v1.89Zm0-.58v-.52a.93.93,0,0,0-.76-.34.61.61,0,1,0,0,1.2A.93.93,0,0,0,31.51,84.25Z" fill="#5e5e5e"/><path d="M32.8,84.83V82.07h.43v.44a1.19,1.19,0,0,1,.92-.5v.44H34a1,1,0,0,0-.75.44v2Z" fill="#5e5e5e"/><path d="M34.52,83.45A1.37,1.37,0,0,1,35.9,82a1.19,1.19,0,0,1,1,.48l-.28.26a.83.83,0,0,0-.71-.35,1.07,1.07,0,0,0,0,2.13.84.84,0,0,0,.71-.36l.28.26a1.17,1.17,0,0,1-1,.48A1.37,1.37,0,0,1,34.52,83.45Z" fill="#5e5e5e"/><path d="M39.39,84.83V83c0-.5-.25-.63-.62-.63a1,1,0,0,0-.82.43v2h-.43V81H38v1.45a1.36,1.36,0,0,1,1-.47.78.78,0,0,1,.88.88v2Z" fill="#5e5e5e"/><path d="M27.89,106.83l-.33-.85h-1.9l-.34.85h-.54L26.31,103h.59l1.54,3.81Zm-1.28-3.33-.81,2.06h1.62Z" fill="#5e5e5e"/><path d="M29.34,106.42v1.47h-.43v-3.82h.43v.41a1.17,1.17,0,0,1,.94-.48c.72,0,1.23.55,1.23,1.45s-.51,1.45-1.23,1.45A1.17,1.17,0,0,1,29.34,106.42Zm1.71-1c0-.61-.33-1.06-.88-1.06a1,1,0,0,0-.83.44v1.24a1,1,0,0,0,.83.45C30.72,106.52,31.05,106.06,31.05,105.45Z" fill="#5e5e5e"/><path d="M32.18,106.83v-2.76h.43v.44a1.23,1.23,0,0,1,.93-.5v.44h-.17a1,1,0,0,0-.76.44v2Z" fill="#5e5e5e"/><path d="M34,103.39a.29.29,0,0,1,.29-.29.29.29,0,0,1,0,.58A.29.29,0,0,1,34,103.39Zm.07,3.44v-2.76h.43v2.76Z" fill="#5e5e5e"/><path d="M35.36,106.83V103h.43v3.81Z" fill="#5e5e5e"/></svg>