<svg xmlns="http://www.w3.org/2000/svg" width="350" height="148" viewBox="0 0 350 148"><rect width="350" height="148" fill="#f1f2f2"/><path d="M31.92,21.87V14.54h2.5a3.56,3.56,0,0,1,3.76,3.67,3.54,3.54,0,0,1-3.76,3.66Zm5.32-3.66a2.69,2.69,0,0,0-2.82-2.86H32.83v5.71h1.59A2.7,2.7,0,0,0,37.24,18.21Z" fill="#0072bc"/><path d="M39.26,19.21a2.63,2.63,0,1,1,5.26,0,2.63,2.63,0,1,1-5.26,0Zm4.39,0a1.78,1.78,0,1,0-3.52,0,1.78,1.78,0,1,0,3.52,0Z" fill="#0072bc"/><circle cx="17.55" cy="17.55" r="7.55" fill="#9dc5ff"/><circle cx="17.55" cy="17.55" r="4.8" fill="#0072bc"/><polyline points="14.8 17.55 16.63 19.38 20.29 15.72" fill="none" stroke="#fff" stroke-linecap="round" stroke-linejoin="round" stroke-width="0.75"/><path d="M201.92,21.87V14.54h2.5a3.56,3.56,0,0,1,3.76,3.67,3.54,3.54,0,0,1-3.76,3.66Zm5.32-3.66a2.69,2.69,0,0,0-2.82-2.86h-1.59v5.71h1.59A2.7,2.7,0,0,0,207.24,18.21Z" fill="#ef4a60"/><path d="M209.26,19.21a2.63,2.63,0,1,1,5.26,0,2.63,2.63,0,1,1-5.26,0Zm4.39,0a1.78,1.78,0,1,0-3.52,0,1.78,1.78,0,1,0,3.52,0Z" fill="#ef4a60"/><path d="M219.44,21.87V18.4c0-.95-.48-1.23-1.19-1.23a2.06,2.06,0,0,0-1.57.82v3.88h-.83V16.56h.83v.77a2.58,2.58,0,0,1,1.9-.9,1.5,1.5,0,0,1,1.68,1.71v3.73Z" fill="#ef4a60"/><path d="M222.07,16.93l-.42-.35a1.65,1.65,0,0,0,.71-1l-.15,0a.53.53,0,0,1-.53-.56.6.6,0,0,1,.58-.59c.38,0,.7.3.7.84A2.14,2.14,0,0,1,222.07,16.93Z" fill="#ef4a60"/><path d="M224.54,20.76V17.29h-.88v-.73h.88V15.11h.83v1.45h1.08v.73h-1.08v3.29c0,.4.18.68.53.68a.75.75,0,0,0,.56-.23l.24.63a1.32,1.32,0,0,1-1,.34A1.08,1.08,0,0,1,224.54,20.76Z" fill="#ef4a60"/><circle cx="187.55" cy="17.55" r="7.55" fill="#ffbcc1"/><circle cx="187.55" cy="17.55" r="4.8" fill="#ef4a60"/><line x1="189.55" y1="15.55" x2="185.55" y2="19.55" fill="none" stroke="#fff" stroke-linecap="round" stroke-linejoin="round" stroke-width="0.75"/><line x1="189.55" y1="19.55" x2="185.55" y2="15.55" fill="none" stroke="#fff" stroke-linecap="round" stroke-linejoin="round" stroke-width="0.75"/><line x1="71.75" y1="66.85" x2="71.75" y2="61.26" fill="none" stroke="#919191" stroke-linecap="round" stroke-linejoin="round" stroke-width="0.75"/><line x1="126.72" y1="66.85" x2="126.72" y2="61.26" fill="none" stroke="#919191" stroke-linecap="round" stroke-linejoin="round" stroke-width="0.75"/><line x1="71.75" y1="64.05" x2="81.09" y2="64.05" fill="none" stroke="#919191" stroke-linecap="round" stroke-linejoin="round" stroke-width="0.75"/><line x1="117.38" y1="64.05" x2="126.72" y2="64.05" fill="none" stroke="#919191" stroke-linecap="round" stroke-linejoin="round" stroke-width="0.75"/><rect x="81.09" y="58.31" width="17.01" height="11.48" fill="#9dc5ff"/><rect x="98.1" y="58.31" width="19.28" height="11.48" fill="#9dc5ff"/><line x1="98.45" y1="58.39" x2="98.45" y2="69.78" fill="none" stroke="#0072bc" stroke-miterlimit="10" stroke-width="0.75"/><line x1="55.98" y1="107.85" x2="55.98" y2="102.25" fill="none" stroke="#919191" stroke-linecap="round" stroke-linejoin="round" stroke-width="0.75"/><line x1="100.89" y1="107.85" x2="100.89" y2="102.25" fill="none" stroke="#919191" stroke-linecap="round" stroke-linejoin="round" stroke-width="0.75"/><line x1="55.98" y1="105.05" x2="64.58" y2="105.05" fill="none" stroke="#919191" stroke-linecap="round" stroke-linejoin="round" stroke-width="0.75"/><line x1="92.29" y1="105.05" x2="100.89" y2="105.05" fill="none" stroke="#919191" stroke-linecap="round" stroke-linejoin="round" stroke-width="0.75"/><rect x="64.58" y="99.31" width="9.97" height="11.48" fill="#9dc5ff"/><rect x="74.55" y="99.31" width="17.74" height="11.48" fill="#9dc5ff"/><line x1="74.9" y1="99.31" x2="74.9" y2="110.7" fill="none" stroke="#0072bc" stroke-miterlimit="10" stroke-width="0.75"/><line x1="63.07" y1="85.85" x2="63.07" y2="80.25" fill="none" stroke="#919191" stroke-linecap="round" stroke-linejoin="round" stroke-width="0.75"/><line x1="128.07" y1="85.85" x2="128.07" y2="80.25" fill="none" stroke="#919191" stroke-linecap="round" stroke-linejoin="round" stroke-width="0.75"/><line x1="63.07" y1="83.05" x2="75.51" y2="83.05" fill="none" stroke="#919191" stroke-linecap="round" stroke-linejoin="round" stroke-width="0.75"/><line x1="115.63" y1="83.05" x2="128.07" y2="83.05" fill="none" stroke="#919191" stroke-linecap="round" stroke-linejoin="round" stroke-width="0.75"/><rect x="75.51" y="77.31" width="14.44" height="11.48" fill="#9dc5ff"/><rect x="89.95" y="77.31" width="25.68" height="11.48" fill="#9dc5ff"/><line x1="90.44" y1="77.31" x2="90.44" y2="88.7" fill="none" stroke="#0072bc" stroke-miterlimit="10" stroke-width="0.75"/><line x1="78.75" y1="45.85" x2="78.75" y2="40.26" fill="none" stroke="#919191" stroke-linecap="round" stroke-linejoin="round" stroke-width="0.75"/><line x1="140.07" y1="45.85" x2="140.07" y2="40.26" fill="none" stroke="#919191" stroke-linecap="round" stroke-linejoin="round" stroke-width="0.75"/><line x1="78.75" y1="43.05" x2="90.49" y2="43.05" fill="none" stroke="#919191" stroke-linecap="round" stroke-linejoin="round" stroke-width="0.75"/><line x1="128.33" y1="43.05" x2="140.07" y2="43.05" fill="none" stroke="#919191" stroke-linecap="round" stroke-linejoin="round" stroke-width="0.75"/><rect x="90.49" y="37.31" width="13.62" height="11.48" fill="#9dc5ff"/><rect x="104.11" y="37.31" width="24.22" height="11.48" fill="#9dc5ff"/><line x1="104.11" y1="37.31" x2="104.11" y2="48.7" fill="none" stroke="#0072bc" stroke-miterlimit="10" stroke-width="0.75"/><rect x="48.9" y="117.48" width="10.03" height="3.15" fill="#bbbdbf"/><rect x="73.65" y="117.48" width="10.03" height="3.15" fill="#bbbdbf"/><rect x="98.4" y="117.48" width="10.03" height="3.15" fill="#bbbdbf"/><rect x="123.15" y="117.48" width="10.03" height="3.15" fill="#bbbdbf"/><rect x="147.9" y="117.48" width="10.03" height="3.15" fill="#bbbdbf"/><path d="M22.36,42.93a1.91,1.91,0,0,1,2-2,1.69,1.69,0,0,1,1.44.75l-.39.22a1.3,1.3,0,0,0-1.05-.55,1.55,1.55,0,0,0,0,3.1,1.3,1.3,0,0,0,1.05-.55l.4.21a1.72,1.72,0,0,1-1.45.76A1.91,1.91,0,0,1,22.36,42.93Z" fill="#5e5e5e"/><path d="M26.21,43.45a1.37,1.37,0,1,1,1.36,1.45A1.35,1.35,0,0,1,26.21,43.45Zm2.28,0a.93.93,0,1,0-.92,1.07A1,1,0,0,0,28.49,43.45Z" fill="#5e5e5e"/><path d="M31.5,44.84v-.39a1.34,1.34,0,0,1-1,.45.78.78,0,0,1-.89-.88v-2h.43v1.82c0,.49.25.63.63.63a1,1,0,0,0,.81-.42v-2h.43v2.77Z" fill="#5e5e5e"/><path d="M34.66,44.84V43c0-.49-.26-.64-.63-.64a1.06,1.06,0,0,0-.82.43v2h-.42V42.07h.42v.4a1.4,1.4,0,0,1,1-.47.79.79,0,0,1,.88.9v1.94Z" fill="#5e5e5e"/><path d="M36,44.26V42.45h-.46v-.38H36v-.75h.43v.75H37v.38h-.56v1.72c0,.2.09.35.28.35A.43.43,0,0,0,37,44.4l.12.33a.71.71,0,0,1-.51.17A.56.56,0,0,1,36,44.26Z" fill="#5e5e5e"/><path d="M37.62,44.84V42.07h.43v.44A1.19,1.19,0,0,1,39,42v.44h-.16a1,1,0,0,0-.76.44v2Z" fill="#5e5e5e"/><path d="M39.42,45.53a.64.64,0,0,0,.24,0,.4.4,0,0,0,.41-.29l.18-.42-1.16-2.79h.47l.92,2.27.92-2.27h.46L40.48,45.4a.83.83,0,0,1-.81.56,1.46,1.46,0,0,1-.31,0Z" fill="#5e5e5e"/><path d="M46.53,44.84,46.19,44h-1.9l-.33.86h-.55L45,41h.59l1.53,3.82Zm-1.29-3.33-.8,2.05h1.61Z" fill="#5e5e5e"/><path d="M22.36,63.93a1.91,1.91,0,0,1,2-2,1.69,1.69,0,0,1,1.44.75l-.39.22a1.3,1.3,0,0,0-1.05-.55,1.55,1.55,0,0,0,0,3.1,1.3,1.3,0,0,0,1.05-.55l.4.21a1.72,1.72,0,0,1-1.45.76A1.91,1.91,0,0,1,22.36,63.93Z" fill="#5e5e5e"/><path d="M26.21,64.45a1.37,1.37,0,1,1,1.36,1.45A1.35,1.35,0,0,1,26.21,64.45Zm2.28,0a.93.93,0,1,0-.92,1.07A1,1,0,0,0,28.49,64.45Z" fill="#5e5e5e"/><path d="M31.5,65.84v-.39a1.34,1.34,0,0,1-1,.45.78.78,0,0,1-.89-.88V63.07h.43v1.82c0,.49.25.63.63.63a1,1,0,0,0,.81-.42v-2h.43v2.77Z" fill="#5e5e5e"/><path d="M34.66,65.84V64c0-.49-.26-.64-.63-.64a1.06,1.06,0,0,0-.82.43v2h-.42V63.07h.42v.4a1.4,1.4,0,0,1,1-.47.79.79,0,0,1,.88.9v1.94Z" fill="#5e5e5e"/><path d="M36,65.26V63.45h-.46v-.38H36v-.75h.43v.75H37v.38h-.56v1.72c0,.2.09.35.28.35A.43.43,0,0,0,37,65.4l.12.33a.71.71,0,0,1-.51.17A.56.56,0,0,1,36,65.26Z" fill="#5e5e5e"/><path d="M37.62,65.84V63.07h.43v.44A1.19,1.19,0,0,1,39,63v.44h-.16a1,1,0,0,0-.76.44v2Z" fill="#5e5e5e"/><path d="M39.42,66.53a.64.64,0,0,0,.24,0,.4.4,0,0,0,.41-.29l.18-.42-1.16-2.79h.47l.92,2.27.92-2.27h.46L40.48,66.4a.83.83,0,0,1-.81.56,1.46,1.46,0,0,1-.31,0Z" fill="#5e5e5e"/><path d="M43.81,65.84V62h1.7a1,1,0,0,1,1.07,1,.89.89,0,0,1-.67.88,1,1,0,0,1,.74.94,1,1,0,0,1-1.1,1Zm2.27-2.78a.6.6,0,0,0-.66-.62H44.28v1.23h1.14A.59.59,0,0,0,46.08,63.06Zm.08,1.69a.64.64,0,0,0-.71-.65H44.28v1.31h1.17A.63.63,0,0,0,46.16,64.75Z" fill="#5e5e5e"/><path d="M22.36,82.93a1.91,1.91,0,0,1,2-2,1.69,1.69,0,0,1,1.44.75l-.39.22a1.3,1.3,0,0,0-1.05-.55,1.55,1.55,0,0,0,0,3.1,1.3,1.3,0,0,0,1.05-.55l.4.21a1.72,1.72,0,0,1-1.45.76A1.91,1.91,0,0,1,22.36,82.93Z" fill="#5e5e5e"/><path d="M26.21,83.45a1.37,1.37,0,1,1,1.36,1.45A1.35,1.35,0,0,1,26.21,83.45Zm2.28,0a.93.93,0,1,0-.92,1.07A1,1,0,0,0,28.49,83.45Z" fill="#5e5e5e"/><path d="M31.5,84.83v-.38a1.34,1.34,0,0,1-1,.45.78.78,0,0,1-.89-.88v-2h.43v1.82c0,.49.25.63.63.63a1,1,0,0,0,.81-.42v-2h.43v2.76Z" fill="#5e5e5e"/><path d="M34.66,84.83V83c0-.49-.26-.64-.63-.64a1.06,1.06,0,0,0-.82.43v2h-.42V82.07h.42v.4a1.4,1.4,0,0,1,1-.47.79.79,0,0,1,.88.9v1.93Z" fill="#5e5e5e"/><path d="M36,84.26V82.45h-.46v-.38H36v-.75h.43v.75H37v.38h-.56v1.72c0,.2.09.35.28.35A.43.43,0,0,0,37,84.4l.12.33a.71.71,0,0,1-.51.17A.56.56,0,0,1,36,84.26Z" fill="#5e5e5e"/><path d="M37.62,84.83V82.07h.43v.44A1.19,1.19,0,0,1,39,82v.44h-.16a1,1,0,0,0-.76.44v2Z" fill="#5e5e5e"/><path d="M39.42,85.53a.64.64,0,0,0,.24,0,.4.4,0,0,0,.41-.29l.18-.42-1.16-2.79h.47l.92,2.27.92-2.27h.46L40.48,85.4a.83.83,0,0,1-.81.56,1.46,1.46,0,0,1-.31,0Z" fill="#5e5e5e"/><path d="M43.65,82.93a1.91,1.91,0,0,1,2-2,1.69,1.69,0,0,1,1.45.75l-.39.22a1.3,1.3,0,0,0-1.06-.55,1.55,1.55,0,0,0,0,3.1,1.3,1.3,0,0,0,1.06-.55l.4.21a1.72,1.72,0,0,1-1.46.76A1.91,1.91,0,0,1,43.65,82.93Z" fill="#5e5e5e"/><path d="M22.36,104.93a1.91,1.91,0,0,1,2-2,1.69,1.69,0,0,1,1.44.75l-.39.22a1.3,1.3,0,0,0-1.05-.55,1.55,1.55,0,0,0,0,3.1,1.3,1.3,0,0,0,1.05-.55l.4.21a1.72,1.72,0,0,1-1.45.76A1.91,1.91,0,0,1,22.36,104.93Z" fill="#5e5e5e"/><path d="M26.21,105.45a1.37,1.37,0,1,1,1.36,1.45A1.35,1.35,0,0,1,26.21,105.45Zm2.28,0a.93.93,0,1,0-.92,1.07A1,1,0,0,0,28.49,105.45Z" fill="#5e5e5e"/><path d="M31.5,106.83v-.38a1.34,1.34,0,0,1-1,.45.78.78,0,0,1-.89-.88v-2h.43v1.82c0,.49.25.63.63.63a1,1,0,0,0,.81-.42v-2h.43v2.76Z" fill="#5e5e5e"/><path d="M34.66,106.83V105c0-.49-.26-.64-.63-.64a1.06,1.06,0,0,0-.82.43v2h-.42v-2.76h.42v.4a1.4,1.4,0,0,1,1-.47.79.79,0,0,1,.88.9v1.93Z" fill="#5e5e5e"/><path d="M36,106.26v-1.81h-.46v-.38H36v-.75h.43v.75H37v.38h-.56v1.72c0,.2.09.35.28.35a.43.43,0,0,0,.29-.12l.12.33a.71.71,0,0,1-.51.17A.56.56,0,0,1,36,106.26Z" fill="#5e5e5e"/><path d="M37.62,106.83v-2.76h.43v.44A1.19,1.19,0,0,1,39,104v.44h-.16a1,1,0,0,0-.76.44v2Z" fill="#5e5e5e"/><path d="M39.42,107.53a.64.64,0,0,0,.24,0,.4.4,0,0,0,.41-.29l.18-.42-1.16-2.79h.47l.92,2.27.92-2.27h.46l-1.38,3.33a.83.83,0,0,1-.81.56,1.46,1.46,0,0,1-.31,0Z" fill="#5e5e5e"/><path d="M43.81,106.83V103h1.3a1.91,1.91,0,1,1,0,3.81Zm2.77-1.9a1.41,1.41,0,0,0-1.47-1.49h-.83v3h.83A1.4,1.4,0,0,0,46.58,104.93Z" fill="#5e5e5e"/><line x1="241.75" y1="47.94" x2="241.75" y2="42.34" fill="none" stroke="#919191" stroke-linecap="round" stroke-linejoin="round" stroke-width="0.75"/><line x1="296.72" y1="47.94" x2="296.72" y2="42.34" fill="none" stroke="#919191" stroke-linecap="round" stroke-linejoin="round" stroke-width="0.75"/><line x1="241.75" y1="45.14" x2="251.09" y2="45.14" fill="none" stroke="#919191" stroke-linecap="round" stroke-linejoin="round" stroke-width="0.75"/><line x1="287.38" y1="45.14" x2="296.72" y2="45.14" fill="none" stroke="#919191" stroke-linecap="round" stroke-linejoin="round" stroke-width="0.75"/><rect x="251.09" y="39.4" width="17.01" height="11.48" fill="#9dc5ff"/><rect x="268.1" y="39.4" width="19.28" height="11.48" fill="#9dc5ff"/><line x1="268.45" y1="39.48" x2="268.45" y2="50.87" fill="none" stroke="#0072bc" stroke-miterlimit="10" stroke-width="0.75"/><line x1="225.98" y1="67.86" x2="225.98" y2="62.26" fill="none" stroke="#919191" stroke-linecap="round" stroke-linejoin="round" stroke-width="0.75"/><line x1="270.89" y1="67.86" x2="270.89" y2="62.26" fill="none" stroke="#919191" stroke-linecap="round" stroke-linejoin="round" stroke-width="0.75"/><line x1="225.98" y1="65.06" x2="234.58" y2="65.06" fill="none" stroke="#919191" stroke-linecap="round" stroke-linejoin="round" stroke-width="0.75"/><line x1="262.29" y1="65.06" x2="270.89" y2="65.06" fill="none" stroke="#919191" stroke-linecap="round" stroke-linejoin="round" stroke-width="0.75"/><rect x="234.58" y="59.32" width="9.97" height="11.48" fill="#9dc5ff"/><rect x="244.55" y="59.32" width="17.74" height="11.48" fill="#9dc5ff"/><line x1="244.89" y1="59.32" x2="244.89" y2="70.7" fill="none" stroke="#0072bc" stroke-miterlimit="10" stroke-width="0.75"/><line x1="233.07" y1="107.85" x2="233.07" y2="102.25" fill="none" stroke="#919191" stroke-linecap="round" stroke-linejoin="round" stroke-width="0.75"/><line x1="298.07" y1="107.85" x2="298.07" y2="102.25" fill="none" stroke="#919191" stroke-linecap="round" stroke-linejoin="round" stroke-width="0.75"/><line x1="233.07" y1="105.05" x2="245.51" y2="105.05" fill="none" stroke="#919191" stroke-linecap="round" stroke-linejoin="round" stroke-width="0.75"/><line x1="285.63" y1="105.05" x2="298.07" y2="105.05" fill="none" stroke="#919191" stroke-linecap="round" stroke-linejoin="round" stroke-width="0.75"/><rect x="245.51" y="99.31" width="14.44" height="11.48" fill="#9dc5ff"/><rect x="259.94" y="99.31" width="25.68" height="11.48" fill="#9dc5ff"/><line x1="260.44" y1="99.31" x2="260.44" y2="110.7" fill="none" stroke="#0072bc" stroke-miterlimit="10" stroke-width="0.75"/><line x1="248.75" y1="87.77" x2="248.75" y2="82.17" fill="none" stroke="#919191" stroke-linecap="round" stroke-linejoin="round" stroke-width="0.75"/><line x1="310.07" y1="87.77" x2="310.07" y2="82.17" fill="none" stroke="#919191" stroke-linecap="round" stroke-linejoin="round" stroke-width="0.75"/><line x1="248.75" y1="84.97" x2="260.49" y2="84.97" fill="none" stroke="#919191" stroke-linecap="round" stroke-linejoin="round" stroke-width="0.75"/><line x1="298.33" y1="84.97" x2="310.07" y2="84.97" fill="none" stroke="#919191" stroke-linecap="round" stroke-linejoin="round" stroke-width="0.75"/><rect x="260.49" y="79.23" width="13.62" height="11.48" fill="#9dc5ff"/><rect x="274.11" y="79.23" width="24.22" height="11.48" fill="#9dc5ff"/><line x1="274.11" y1="79.23" x2="274.11" y2="90.62" fill="none" stroke="#0072bc" stroke-miterlimit="10" stroke-width="0.75"/><rect x="218.9" y="117.48" width="10.03" height="3.15" fill="#bbbdbf"/><rect x="243.65" y="117.48" width="10.03" height="3.15" fill="#bbbdbf"/><rect x="268.4" y="117.48" width="10.03" height="3.15" fill="#bbbdbf"/><rect x="293.15" y="117.48" width="10.03" height="3.15" fill="#bbbdbf"/><rect x="317.9" y="117.48" width="10.03" height="3.15" fill="#bbbdbf"/><path d="M192.36,42.93a1.91,1.91,0,0,1,2-2,1.69,1.69,0,0,1,1.44.75l-.39.22a1.3,1.3,0,0,0-1-.55,1.55,1.55,0,0,0,0,3.1,1.3,1.3,0,0,0,1-.55l.4.21a1.72,1.72,0,0,1-1.45.76A1.91,1.91,0,0,1,192.36,42.93Z" fill="#5e5e5e"/><path d="M196.2,43.45a1.37,1.37,0,1,1,1.37,1.45A1.36,1.36,0,0,1,196.2,43.45Zm2.29,0a.93.93,0,1,0-.92,1.07A1,1,0,0,0,198.49,43.45Z" fill="#5e5e5e"/><path d="M201.5,44.84v-.39a1.34,1.34,0,0,1-1,.45.78.78,0,0,1-.89-.88v-2h.43v1.82c0,.49.25.63.63.63a1,1,0,0,0,.81-.42v-2h.43v2.77Z" fill="#5e5e5e"/><path d="M204.66,44.84V43c0-.49-.26-.64-.63-.64a1.06,1.06,0,0,0-.82.43v2h-.43V42.07h.43v.4a1.4,1.4,0,0,1,1-.47.79.79,0,0,1,.88.9v1.94Z" fill="#5e5e5e"/><path d="M206,44.26V42.45h-.46v-.38H206v-.75h.43v.75H207v.38h-.56v1.72c0,.2.09.35.28.35a.43.43,0,0,0,.29-.12l.12.33a.71.71,0,0,1-.51.17A.56.56,0,0,1,206,44.26Z" fill="#5e5e5e"/><path d="M207.62,44.84V42.07h.43v.44A1.19,1.19,0,0,1,209,42v.44h-.16a1,1,0,0,0-.76.44v2Z" fill="#5e5e5e"/><path d="M209.42,45.53a.64.64,0,0,0,.24,0,.4.4,0,0,0,.41-.29l.18-.42-1.16-2.79h.47l.92,2.27.92-2.27h.46l-1.38,3.33a.83.83,0,0,1-.81.56,1.46,1.46,0,0,1-.31,0Z" fill="#5e5e5e"/><path d="M216.53,44.84l-.34-.86h-1.9l-.34.86h-.54L215,41h.59l1.53,3.82Zm-1.29-3.33-.8,2.05h1.61Z" fill="#5e5e5e"/><path d="M192.36,63.93a1.91,1.91,0,0,1,2-2,1.69,1.69,0,0,1,1.44.75l-.39.22a1.3,1.3,0,0,0-1-.55,1.55,1.55,0,0,0,0,3.1,1.3,1.3,0,0,0,1-.55l.4.21a1.72,1.72,0,0,1-1.45.76A1.91,1.91,0,0,1,192.36,63.93Z" fill="#5e5e5e"/><path d="M196.2,64.45a1.37,1.37,0,1,1,1.37,1.45A1.36,1.36,0,0,1,196.2,64.45Zm2.29,0a.93.93,0,1,0-.92,1.07A1,1,0,0,0,198.49,64.45Z" fill="#5e5e5e"/><path d="M201.5,65.84v-.39a1.34,1.34,0,0,1-1,.45.78.78,0,0,1-.89-.88V63.07h.43v1.82c0,.49.25.63.63.63a1,1,0,0,0,.81-.42v-2h.43v2.77Z" fill="#5e5e5e"/><path d="M204.66,65.84V64c0-.49-.26-.64-.63-.64a1.06,1.06,0,0,0-.82.43v2h-.43V63.07h.43v.4a1.4,1.4,0,0,1,1-.47.79.79,0,0,1,.88.9v1.94Z" fill="#5e5e5e"/><path d="M206,65.26V63.45h-.46v-.38H206v-.75h.43v.75H207v.38h-.56v1.72c0,.2.09.35.28.35a.43.43,0,0,0,.29-.12l.12.33a.71.71,0,0,1-.51.17A.56.56,0,0,1,206,65.26Z" fill="#5e5e5e"/><path d="M207.62,65.84V63.07h.43v.44A1.19,1.19,0,0,1,209,63v.44h-.16a1,1,0,0,0-.76.44v2Z" fill="#5e5e5e"/><path d="M209.42,66.53a.64.64,0,0,0,.24,0,.4.4,0,0,0,.41-.29l.18-.42-1.16-2.79h.47l.92,2.27.92-2.27h.46l-1.38,3.33a.83.83,0,0,1-.81.56,1.46,1.46,0,0,1-.31,0Z" fill="#5e5e5e"/><path d="M213.81,65.84V62h1.7a1,1,0,0,1,1.07,1,.89.89,0,0,1-.67.88,1,1,0,0,1,.74.94,1,1,0,0,1-1.1,1Zm2.27-2.78a.6.6,0,0,0-.66-.62h-1.14v1.23h1.14A.59.59,0,0,0,216.08,63.06Zm.08,1.69a.64.64,0,0,0-.71-.65h-1.17v1.31h1.17A.63.63,0,0,0,216.16,64.75Z" fill="#5e5e5e"/><path d="M192.36,82.93a1.91,1.91,0,0,1,2-2,1.69,1.69,0,0,1,1.44.75l-.39.22a1.3,1.3,0,0,0-1-.55,1.55,1.55,0,0,0,0,3.1,1.3,1.3,0,0,0,1-.55l.4.21a1.72,1.72,0,0,1-1.45.76A1.91,1.91,0,0,1,192.36,82.93Z" fill="#5e5e5e"/><path d="M196.2,83.45a1.37,1.37,0,1,1,1.37,1.45A1.36,1.36,0,0,1,196.2,83.45Zm2.29,0a.93.93,0,1,0-.92,1.07A1,1,0,0,0,198.49,83.45Z" fill="#5e5e5e"/><path d="M201.5,84.83v-.38a1.34,1.34,0,0,1-1,.45.78.78,0,0,1-.89-.88v-2h.43v1.82c0,.49.25.63.63.63a1,1,0,0,0,.81-.42v-2h.43v2.76Z" fill="#5e5e5e"/><path d="M204.66,84.83V83c0-.49-.26-.64-.63-.64a1.06,1.06,0,0,0-.82.43v2h-.43V82.07h.43v.4a1.4,1.4,0,0,1,1-.47.79.79,0,0,1,.88.9v1.93Z" fill="#5e5e5e"/><path d="M206,84.26V82.45h-.46v-.38H206v-.75h.43v.75H207v.38h-.56v1.72c0,.2.09.35.28.35a.43.43,0,0,0,.29-.12l.12.33a.71.71,0,0,1-.51.17A.56.56,0,0,1,206,84.26Z" fill="#5e5e5e"/><path d="M207.62,84.83V82.07h.43v.44A1.19,1.19,0,0,1,209,82v.44h-.16a1,1,0,0,0-.76.44v2Z" fill="#5e5e5e"/><path d="M209.42,85.53a.64.64,0,0,0,.24,0,.4.4,0,0,0,.41-.29l.18-.42-1.16-2.79h.47l.92,2.27.92-2.27h.46l-1.38,3.33a.83.83,0,0,1-.81.56,1.46,1.46,0,0,1-.31,0Z" fill="#5e5e5e"/><path d="M213.65,82.93a1.91,1.91,0,0,1,2-2,1.69,1.69,0,0,1,1.45.75l-.39.22a1.3,1.3,0,0,0-1.06-.55,1.55,1.55,0,0,0,0,3.1,1.3,1.3,0,0,0,1.06-.55l.4.21a1.72,1.72,0,0,1-1.46.76A1.91,1.91,0,0,1,213.65,82.93Z" fill="#5e5e5e"/><path d="M192.36,104.93a1.91,1.91,0,0,1,2-2,1.69,1.69,0,0,1,1.44.75l-.39.22a1.3,1.3,0,0,0-1-.55,1.55,1.55,0,0,0,0,3.1,1.3,1.3,0,0,0,1-.55l.4.21a1.72,1.72,0,0,1-1.45.76A1.91,1.91,0,0,1,192.36,104.93Z" fill="#5e5e5e"/><path d="M196.2,105.45a1.37,1.37,0,1,1,1.37,1.45A1.36,1.36,0,0,1,196.2,105.45Zm2.29,0a.93.93,0,1,0-.92,1.07A1,1,0,0,0,198.49,105.45Z" fill="#5e5e5e"/><path d="M201.5,106.83v-.38a1.34,1.34,0,0,1-1,.45.78.78,0,0,1-.89-.88v-2h.43v1.82c0,.49.25.63.63.63a1,1,0,0,0,.81-.42v-2h.43v2.76Z" fill="#5e5e5e"/><path d="M204.66,106.83V105c0-.49-.26-.64-.63-.64a1.06,1.06,0,0,0-.82.43v2h-.43v-2.76h.43v.4a1.4,1.4,0,0,1,1-.47.79.79,0,0,1,.88.9v1.93Z" fill="#5e5e5e"/><path d="M206,106.26v-1.81h-.46v-.38H206v-.75h.43v.75H207v.38h-.56v1.72c0,.2.09.35.28.35a.43.43,0,0,0,.29-.12l.12.33a.71.71,0,0,1-.51.17A.56.56,0,0,1,206,106.26Z" fill="#5e5e5e"/><path d="M207.62,106.83v-2.76h.43v.44a1.19,1.19,0,0,1,.92-.5v.44h-.16a1,1,0,0,0-.76.44v2Z" fill="#5e5e5e"/><path d="M209.42,107.53a.64.64,0,0,0,.24,0,.4.4,0,0,0,.41-.29l.18-.42-1.16-2.79h.47l.92,2.27.92-2.27h.46l-1.38,3.33a.83.83,0,0,1-.81.56,1.46,1.46,0,0,1-.31,0Z" fill="#5e5e5e"/><path d="M213.81,106.83V103h1.3a1.91,1.91,0,1,1,0,3.81Zm2.77-1.9a1.41,1.41,0,0,0-1.47-1.49h-.83v3h.83A1.4,1.4,0,0,0,216.58,104.93Z" fill="#5e5e5e"/></svg>