<svg xmlns="http://www.w3.org/2000/svg" width="350" height="148" viewBox="0 0 350 148"><rect width="350" height="148" fill="#f1f2f2"/><path d="M31.92,21.87V14.54h2.5a3.56,3.56,0,0,1,3.76,3.67,3.54,3.54,0,0,1-3.76,3.66Zm5.32-3.66a2.69,2.69,0,0,0-2.82-2.86H32.83v5.71h1.59A2.7,2.7,0,0,0,37.24,18.21Z" fill="#0072bc"/><path d="M39.26,19.21a2.63,2.63,0,1,1,5.26,0,2.63,2.63,0,1,1-5.26,0Zm4.39,0a1.78,1.78,0,1,0-3.52,0,1.78,1.78,0,1,0,3.52,0Z" fill="#0072bc"/><circle cx="17.55" cy="17.55" r="7.55" fill="#9dc5ff"/><circle cx="17.55" cy="17.55" r="4.8" fill="#0072bc"/><polyline points="14.8 17.55 16.63 19.38 20.29 15.72" fill="none" stroke="#fff" stroke-linecap="round" stroke-linejoin="round" stroke-width="0.75"/><path d="M201.92,21.87V14.54h2.5a3.56,3.56,0,0,1,3.76,3.67,3.54,3.54,0,0,1-3.76,3.66Zm5.32-3.66a2.69,2.69,0,0,0-2.82-2.86h-1.59v5.71h1.59A2.7,2.7,0,0,0,207.24,18.21Z" fill="#ef4a60"/><path d="M209.26,19.21a2.63,2.63,0,1,1,5.26,0,2.63,2.63,0,1,1-5.26,0Zm4.39,0a1.78,1.78,0,1,0-3.52,0,1.78,1.78,0,1,0,3.52,0Z" fill="#ef4a60"/><path d="M219.44,21.87V18.4c0-.95-.48-1.23-1.19-1.23a2.06,2.06,0,0,0-1.57.82v3.88h-.83V16.56h.83v.77a2.58,2.58,0,0,1,1.9-.9,1.5,1.5,0,0,1,1.68,1.71v3.73Z" fill="#ef4a60"/><path d="M222.07,16.93l-.42-.35a1.65,1.65,0,0,0,.71-1l-.15,0a.53.53,0,0,1-.53-.56.6.6,0,0,1,.58-.59c.38,0,.7.3.7.84A2.14,2.14,0,0,1,222.07,16.93Z" fill="#ef4a60"/><path d="M224.54,20.76V17.29h-.88v-.73h.88V15.11h.83v1.45h1.08v.73h-1.08v3.29c0,.4.18.68.53.68a.75.75,0,0,0,.56-.23l.24.63a1.32,1.32,0,0,1-1,.34A1.08,1.08,0,0,1,224.54,20.76Z" fill="#ef4a60"/><circle cx="187.55" cy="17.55" r="7.55" fill="#ffbcc1"/><circle cx="187.55" cy="17.55" r="4.8" fill="#ef4a60"/><line x1="189.55" y1="15.55" x2="185.55" y2="19.55" fill="none" stroke="#fff" stroke-linecap="round" stroke-linejoin="round" stroke-width="0.75"/><line x1="189.55" y1="19.55" x2="185.55" y2="15.55" fill="none" stroke="#fff" stroke-linecap="round" stroke-linejoin="round" stroke-width="0.75"/><line x1="39.45" y1="108.54" x2="148.78" y2="108.54" fill="none" stroke="#d0d2d3" stroke-linecap="round" stroke-linejoin="round" stroke-width="0.25"/><line x1="39.45" y1="94.23" x2="148.78" y2="94.23" fill="none" stroke="#d0d2d3" stroke-linecap="round" stroke-linejoin="round" stroke-width="0.25"/><line x1="39.45" y1="79.93" x2="148.78" y2="79.93" fill="none" stroke="#d0d2d3" stroke-linecap="round" stroke-linejoin="round" stroke-width="0.25"/><line x1="39.45" y1="65.62" x2="148.78" y2="65.62" fill="none" stroke="#d0d2d3" stroke-linecap="round" stroke-linejoin="round" stroke-width="0.25"/><line x1="39.45" y1="51.31" x2="148.78" y2="51.31" fill="none" stroke="#d0d2d3" stroke-linecap="round" stroke-linejoin="round" stroke-width="0.25"/><line x1="39.45" y1="37.01" x2="148.78" y2="37.01" fill="none" stroke="#d0d2d3" stroke-linecap="round" stroke-linejoin="round" stroke-width="0.25"/><path d="M34.25,122.54c0-1,.45-2.12,1.58-2.12s1.58,1.12,1.58,2.12-.45,2.14-1.58,2.14S34.25,123.55,34.25,122.54Zm2.63,0c0-.82-.26-1.66-1.05-1.66s-1,.84-1,1.66.27,1.68,1,1.68S36.88,123.37,36.88,122.54Z" fill="#5e5e5e"/><path d="M30.64,110.62v-.41c1.48-1.16,2.29-1.85,2.29-2.56a.77.77,0,0,0-.87-.75,1.36,1.36,0,0,0-1.11.52l-.32-.33a1.77,1.77,0,0,1,1.43-.65,1.26,1.26,0,0,1,1.39,1.21c0,.84-.85,1.61-2,2.52h2v.45Z" fill="#5e5e5e"/><path d="M34.25,108.57c0-1,.45-2.13,1.58-2.13s1.58,1.12,1.58,2.13-.45,2.13-1.58,2.13S34.25,109.57,34.25,108.57Zm2.63,0c0-.83-.26-1.67-1.05-1.67s-1,.84-1,1.67.27,1.67,1,1.67S36.88,109.39,36.88,108.57Z" fill="#5e5e5e"/><path d="M32.65,96.48v-1h-2V95l1.76-2.65h.71V95h.58v.45h-.58v1Zm0-3.65L31.2,95h1.45Z" fill="#5e5e5e"/><path d="M34.25,94.42c0-1,.45-2.12,1.58-2.12s1.58,1.12,1.58,2.12-.45,2.13-1.58,2.13S34.25,95.42,34.25,94.42Zm2.63,0c0-.82-.26-1.67-1.05-1.67s-1,.85-1,1.67.27,1.68,1,1.68S36.88,95.24,36.88,94.42Z" fill="#5e5e5e"/><path d="M30.6,80.36c0-1.11.52-2.12,1.68-2.12a1.39,1.39,0,0,1,1.14.49l-.26.38a1.07,1.07,0,0,0-.88-.42c-.8,0-1.16.81-1.16,1.62v.16a1.5,1.5,0,0,1,1.17-.64,1.24,1.24,0,0,1,1.34,1.32,1.35,1.35,0,0,1-1.44,1.34C31,82.49,30.6,81.49,30.6,80.36Zm2.52.81a.85.85,0,0,0-.95-.89,1.25,1.25,0,0,0-1,.61,1.1,1.1,0,0,0,1,1.15A.9.9,0,0,0,33.12,81.17Z" fill="#5e5e5e"/><path d="M34.25,80.36c0-1,.45-2.12,1.58-2.12s1.58,1.11,1.58,2.12-.45,2.13-1.58,2.13S34.25,81.36,34.25,80.36Zm2.63,0c0-.82-.26-1.67-1.05-1.67s-1,.85-1,1.67.27,1.68,1,1.68S36.88,81.18,36.88,80.36Z" fill="#5e5e5e"/><path d="M30.66,66.23a1.22,1.22,0,0,1,1-1.08,1.09,1.09,0,0,1-.91-1c0-.74.72-1.07,1.41-1.07s1.41.33,1.41,1.07a1.09,1.09,0,0,1-.92,1,1.22,1.22,0,0,1,1,1.08c0,.7-.67,1.12-1.48,1.12S30.66,66.94,30.66,66.23Zm2.44,0c0-.54-.71-.77-1-.8s-1,.26-1,.8.45.71,1,.71S33.1,66.62,33.1,66.18Zm-.06-2c0-.43-.41-.68-.9-.68s-.89.25-.89.68.64.67.89.71S33,64.73,33,64.23Z" fill="#5e5e5e"/><path d="M34.25,65.22c0-1,.45-2.13,1.58-2.13s1.58,1.12,1.58,2.13-.45,2.13-1.58,2.13S34.25,66.22,34.25,65.22Zm2.63,0c0-.82-.26-1.67-1.05-1.67s-1,.85-1,1.67.27,1.67,1,1.67S36.88,66,36.88,65.22Z" fill="#5e5e5e"/><path d="M29.16,53.21V49.77l-.66.7-.31-.31,1-1.07h.45v4.12Z" fill="#5e5e5e"/><path d="M30.47,51.16c0-1,.45-2.13,1.58-2.13s1.57,1.12,1.57,2.13-.45,2.13-1.57,2.13S30.47,52.16,30.47,51.16Zm2.63,0c0-.83-.27-1.67-1.05-1.67s-1,.84-1,1.67.26,1.67,1,1.67S33.1,52,33.1,51.16Z" fill="#5e5e5e"/><path d="M34.25,51.16c0-1,.45-2.13,1.58-2.13s1.58,1.12,1.58,2.13-.45,2.13-1.58,2.13S34.25,52.16,34.25,51.16Zm2.63,0c0-.83-.26-1.67-1.05-1.67s-1,.84-1,1.67.27,1.67,1,1.67S36.88,52,36.88,51.16Z" fill="#5e5e5e"/><path d="M29.31,39.15V35.71l-.66.7-.31-.32,1-1.06h.45v4.12Z" fill="#5e5e5e"/><path d="M30.64,39.15v-.41c1.48-1.16,2.29-1.85,2.29-2.56a.77.77,0,0,0-.87-.75A1.36,1.36,0,0,0,31,36l-.32-.33A1.77,1.77,0,0,1,32.06,35a1.26,1.26,0,0,1,1.39,1.21c0,.84-.85,1.61-2,2.52h2v.45Z" fill="#5e5e5e"/><path d="M34.25,37.1c0-1,.45-2.13,1.58-2.13s1.58,1.12,1.58,2.13-.45,2.13-1.58,2.13S34.25,38.1,34.25,37.1Zm2.63,0c0-.83-.26-1.67-1.05-1.67s-1,.84-1,1.67.27,1.67,1,1.67S36.88,37.92,36.88,37.1Z" fill="#5e5e5e"/><rect x="41" y="106.78" width="4.42" height="16.39" fill="#0072bc" stroke="#fff" stroke-miterlimit="10" stroke-width="0.25"/><rect x="45.42" y="98.58" width="4.42" height="24.58" fill="#0072bc" stroke="#fff" stroke-miterlimit="10" stroke-width="0.25"/><rect x="49.83" y="96" width="4.42" height="27.17" fill="#0072bc" stroke="#fff" stroke-miterlimit="10" stroke-width="0.25"/><rect x="54.25" y="92.43" width="4.42" height="30.74" fill="#0072bc" stroke="#fff" stroke-miterlimit="10" stroke-width="0.25"/><rect x="58.67" y="67.28" width="4.42" height="55.89" fill="#0072bc" stroke="#fff" stroke-miterlimit="10" stroke-width="0.25"/><rect x="63.08" y="58.9" width="4.42" height="64.27" fill="#0072bc" stroke="#fff" stroke-miterlimit="10" stroke-width="0.25"/><rect x="67.5" y="75.66" width="4.42" height="47.5" fill="#0072bc" stroke="#fff" stroke-miterlimit="10" stroke-width="0.25"/><rect x="71.92" y="81.25" width="4.42" height="41.91" fill="#0072bc" stroke="#fff" stroke-miterlimit="10" stroke-width="0.25"/><rect x="76.33" y="84.05" width="4.42" height="39.12" fill="#0072bc" stroke="#fff" stroke-miterlimit="10" stroke-width="0.25"/><rect x="80.75" y="89.64" width="4.42" height="33.53" fill="#0072bc" stroke="#fff" stroke-miterlimit="10" stroke-width="0.25"/><rect x="85.17" y="107.34" width="4.42" height="15.83" fill="#0072bc" stroke="#fff" stroke-miterlimit="10" stroke-width="0.25"/><rect x="89.58" y="103.38" width="4.42" height="19.79" fill="#0072bc" stroke="#fff" stroke-miterlimit="10" stroke-width="0.25"/><rect x="94" y="105.18" width="4.42" height="17.99" fill="#0072bc" stroke="#fff" stroke-miterlimit="10" stroke-width="0.25"/><rect x="98.42" y="102" width="4.42" height="21.17" fill="#0072bc" stroke="#fff" stroke-miterlimit="10" stroke-width="0.25"/><rect x="102.83" y="104.12" width="4.42" height="19.05" fill="#0072bc" stroke="#fff" stroke-miterlimit="10" stroke-width="0.25"/><rect x="107.25" y="102" width="4.42" height="21.17" fill="#0072bc" stroke="#fff" stroke-miterlimit="10" stroke-width="0.25"/><rect x="111.67" y="88.79" width="4.42" height="34.38" fill="#0072bc" stroke="#fff" stroke-miterlimit="10" stroke-width="0.25"/><rect x="116.08" y="91.78" width="4.42" height="31.39" fill="#0072bc" stroke="#fff" stroke-miterlimit="10" stroke-width="0.25"/><rect x="120.5" y="84.31" width="4.42" height="38.86" fill="#0072bc" stroke="#fff" stroke-miterlimit="10" stroke-width="0.25"/><rect x="124.92" y="66.37" width="4.42" height="56.8" fill="#0072bc" stroke="#fff" stroke-miterlimit="10" stroke-width="0.25"/><rect x="129.33" y="57.4" width="4.42" height="65.76" fill="#0072bc" stroke="#fff" stroke-miterlimit="10" stroke-width="0.25"/><rect x="133.75" y="48.44" width="4.42" height="74.73" fill="#0072bc" stroke="#fff" stroke-miterlimit="10" stroke-width="0.25"/><rect x="138.17" y="40.96" width="4.42" height="82.2" fill="#0072bc" stroke="#fff" stroke-miterlimit="10" stroke-width="0.25"/><rect x="142.58" y="51.43" width="4.42" height="71.74" fill="#0072bc" stroke="#fff" stroke-miterlimit="10" stroke-width="0.25"/><rect x="32.88" y="125.96" width="8.47" height="3.04" fill="#bbbdbf"/><rect x="51.45" y="125.96" width="8.47" height="3.04" fill="#bbbdbf"/><rect x="70.02" y="125.96" width="8.47" height="3.04" fill="#bbbdbf"/><rect x="89.44" y="125.96" width="8.47" height="3.04" fill="#bbbdbf"/><rect x="107.17" y="125.96" width="8.47" height="3.04" fill="#bbbdbf"/><rect x="125.74" y="125.96" width="8.47" height="3.04" fill="#bbbdbf"/><rect x="143.47" y="125.96" width="8.47" height="3.04" fill="#bbbdbf"/><line x1="39.03" y1="123.17" x2="149" y2="123.17" fill="none" stroke="#000" stroke-miterlimit="10" stroke-width="0.5"/><line x1="208.45" y1="94.23" x2="317.78" y2="94.23" fill="none" stroke="#d0d2d3" stroke-linecap="round" stroke-linejoin="round" stroke-width="0.25"/><line x1="208.45" y1="65.62" x2="317.78" y2="65.62" fill="none" stroke="#d0d2d3" stroke-linecap="round" stroke-linejoin="round" stroke-width="0.25"/><line x1="208.45" y1="37.01" x2="317.78" y2="37.01" fill="none" stroke="#d0d2d3" stroke-linecap="round" stroke-linejoin="round" stroke-width="0.25"/><path d="M199.64,124.6v-.41c1.48-1.16,2.29-1.85,2.29-2.56a.77.77,0,0,0-.87-.75,1.36,1.36,0,0,0-1.11.52l-.32-.33a1.77,1.77,0,0,1,1.43-.65,1.26,1.26,0,0,1,1.39,1.21c0,.84-.85,1.61-2,2.52h2v.45Z" fill="#5e5e5e"/><path d="M203.25,122.54c0-1,.45-2.12,1.58-2.12s1.58,1.12,1.58,2.12-.45,2.14-1.58,2.14S203.25,123.55,203.25,122.54Zm2.63,0c0-.82-.26-1.66-1-1.66s-1.05.84-1.05,1.66.27,1.68,1.05,1.68S205.88,123.37,205.88,122.54Z" fill="#5e5e5e"/><path d="M199.6,94.42c0-1.11.52-2.12,1.68-2.12a1.39,1.39,0,0,1,1.14.49l-.26.38a1.07,1.07,0,0,0-.88-.42c-.8,0-1.16.81-1.16,1.62v.16a1.5,1.5,0,0,1,1.17-.64,1.24,1.24,0,0,1,1.34,1.32,1.35,1.35,0,0,1-1.44,1.34C200,96.55,199.6,95.55,199.6,94.42Zm2.52.81a.85.85,0,0,0-1-.89,1.25,1.25,0,0,0-1,.61,1.1,1.1,0,0,0,1,1.15A.9.9,0,0,0,202.12,95.23Z" fill="#5e5e5e"/><path d="M203.25,94.42c0-1,.45-2.12,1.58-2.12s1.58,1.12,1.58,2.12-.45,2.13-1.58,2.13S203.25,95.42,203.25,94.42Zm2.63,0c0-.82-.26-1.67-1-1.67s-1.05.85-1.05,1.67.27,1.68,1.05,1.68S205.88,95.24,205.88,94.42Z" fill="#5e5e5e"/><path d="M198.16,67.28V63.83l-.66.7-.31-.31,1-1.07h.45v4.13Z" fill="#5e5e5e"/><path d="M199.47,65.22c0-1,.45-2.13,1.58-2.13s1.57,1.12,1.57,2.13-.45,2.13-1.57,2.13S199.47,66.22,199.47,65.22Zm2.63,0c0-.82-.27-1.67-1-1.67S200,64.4,200,65.22s.26,1.67,1.05,1.67S202.1,66,202.1,65.22Z" fill="#5e5e5e"/><path d="M203.25,65.22c0-1,.45-2.13,1.58-2.13s1.58,1.12,1.58,2.13-.45,2.13-1.58,2.13S203.25,66.22,203.25,65.22Zm2.63,0c0-.82-.26-1.67-1-1.67s-1.05.85-1.05,1.67.27,1.67,1.05,1.67S205.88,66,205.88,65.22Z" fill="#5e5e5e"/><path d="M198.49,39.15V35.71l-.66.7-.31-.32,1-1.06H199v4.12Z" fill="#5e5e5e"/><path d="M201.65,39.15v-1h-2v-.43L201.45,35h.71v2.63h.58v.45h-.58v1Zm0-3.64-1.45,2.15h1.45Z" fill="#5e5e5e"/><path d="M203.25,37.1c0-1,.45-2.13,1.58-2.13s1.58,1.12,1.58,2.13-.45,2.13-1.58,2.13S203.25,38.1,203.25,37.1Zm2.63,0c0-.83-.26-1.67-1-1.67s-1.05.84-1.05,1.67.27,1.67,1.05,1.67S205.88,37.92,205.88,37.1Z" fill="#5e5e5e"/><rect x="201.88" y="125.96" width="8.47" height="3.04" fill="#bbbdbf"/><rect x="220.45" y="125.96" width="8.47" height="3.04" fill="#bbbdbf"/><rect x="239.02" y="125.96" width="8.47" height="3.04" fill="#bbbdbf"/><rect x="258.44" y="125.96" width="8.47" height="3.04" fill="#bbbdbf"/><rect x="276.17" y="125.96" width="8.47" height="3.04" fill="#bbbdbf"/><rect x="294.74" y="125.96" width="8.47" height="3.04" fill="#bbbdbf"/><rect x="312.47" y="125.96" width="8.47" height="3.04" fill="#bbbdbf"/><rect x="210" y="121.78" width="4.42" height="1.24" fill="#0072bc" stroke="#fff" stroke-miterlimit="10" stroke-width="0.25"/><polygon points="218.83 123.02 218.83 113.46 214.42 113.46 214.42 121.78 214.42 123.02 218.83 123.02" fill="#0072bc" stroke="#fff" stroke-miterlimit="10" stroke-width="0.25"/><polygon points="223.25 123.02 223.25 110.84 218.83 110.84 218.83 113.46 218.83 123.02 223.25 123.02" fill="#0072bc" stroke="#fff" stroke-miterlimit="10" stroke-width="0.25"/><polygon points="227.67 123.02 227.67 107.22 223.25 107.22 223.25 110.84 223.25 123.02 227.67 123.02" fill="#0072bc" stroke="#fff" stroke-miterlimit="10" stroke-width="0.25"/><polygon points="232.08 123.02 232.08 81.7 227.67 81.7 227.67 107.22 227.67 123.02 232.08 123.02" fill="#0072bc" stroke="#fff" stroke-miterlimit="10" stroke-width="0.25"/><polygon points="236.5 123.02 236.5 90.21 236.5 73.2 232.08 73.2 232.08 81.7 232.08 123.02 236.5 123.02" fill="#0072bc" stroke="#fff" stroke-miterlimit="10" stroke-width="0.25"/><polygon points="240.92 123.02 240.92 95.88 240.92 90.21 236.5 90.21 236.5 123.02 240.92 123.02" fill="#0072bc" stroke="#fff" stroke-miterlimit="10" stroke-width="0.25"/><polygon points="245.33 123.02 245.33 98.72 245.33 95.88 240.92 95.88 240.92 123.02 245.33 123.02" fill="#0072bc" stroke="#fff" stroke-miterlimit="10" stroke-width="0.25"/><polygon points="249.75 123.02 249.75 104.39 249.75 98.72 245.33 98.72 245.33 123.02 249.75 123.02" fill="#0072bc" stroke="#fff" stroke-miterlimit="10" stroke-width="0.25"/><polygon points="254.17 123.02 254.17 115.73 254.17 104.39 249.75 104.39 249.75 123.02 254.17 123.02" fill="#0072bc" stroke="#fff" stroke-miterlimit="10" stroke-width="0.25"/><rect x="254.17" y="119.59" width="4.42" height="3.43" fill="#0072bc" stroke="#fff" stroke-miterlimit="10" stroke-width="0.25"/><polygon points="263 123.02 263 118.14 263 116.93 258.58 116.93 258.58 119.59 258.58 123.02 263 123.02" fill="#0072bc" stroke="#fff" stroke-miterlimit="10" stroke-width="0.25"/><rect x="263" y="118.14" width="4.42" height="4.88" fill="#0072bc" stroke="#fff" stroke-miterlimit="10" stroke-width="0.25"/><polygon points="271.83 123.02 271.83 117.42 271.83 116 267.42 116 267.42 118.14 267.42 123.02 271.83 123.02" fill="#0072bc" stroke="#fff" stroke-miterlimit="10" stroke-width="0.25"/><rect x="271.83" y="117.42" width="4.42" height="5.59" fill="#0072bc" stroke="#fff" stroke-miterlimit="10" stroke-width="0.25"/><polygon points="280.67 123.02 280.67 116 276.25 116 276.25 117.42 276.25 123.02 280.67 123.02" fill="#0072bc" stroke="#fff" stroke-miterlimit="10" stroke-width="0.25"/><polygon points="285.08 123.02 285.08 106.56 285.08 103.53 280.67 103.53 280.67 108.08 280.67 123.02 285.08 123.02" fill="#0072bc" stroke="#fff" stroke-miterlimit="10" stroke-width="0.25"/><rect x="285.08" y="106.56" width="4.42" height="16.46" fill="#0072bc" stroke="#fff" stroke-miterlimit="10" stroke-width="0.25"/><polygon points="293.92 123.02 293.92 98.98 289.5 98.98 289.5 106.56 289.5 123.02 293.92 123.02" fill="#0072bc" stroke="#fff" stroke-miterlimit="10" stroke-width="0.25"/><polygon points="298.33 123.02 298.33 80.78 293.92 80.78 293.92 98.98 293.92 123.02 298.33 123.02" fill="#0072bc" stroke="#fff" stroke-miterlimit="10" stroke-width="0.25"/><polygon points="302.75 123.02 302.75 71.68 298.33 71.68 298.33 80.78 298.33 123.02 302.75 123.02" fill="#0072bc" stroke="#fff" stroke-miterlimit="10" stroke-width="0.25"/><polygon points="307.17 123.02 307.17 62.58 302.75 62.58 302.75 71.68 302.75 123.02 307.17 123.02" fill="#0072bc" stroke="#fff" stroke-miterlimit="10" stroke-width="0.25"/><polygon points="311.58 123.02 311.58 65.62 311.58 55 307.17 55 307.17 62.58 307.17 123.02 311.58 123.02" fill="#0072bc" stroke="#fff" stroke-miterlimit="10" stroke-width="0.25"/><rect x="311.58" y="65.62" width="4.42" height="57.4" fill="#0072bc" stroke="#fff" stroke-miterlimit="10" stroke-width="0.25"/><line x1="208.03" y1="123.17" x2="318" y2="123.17" fill="none" stroke="#000" stroke-miterlimit="10" stroke-width="0.5"/></svg>