<svg xmlns="http://www.w3.org/2000/svg" width="350" height="148" viewBox="0 0 350 148"><rect width="350" height="148" fill="#f1f2f2"/><path d="M31.92,21.87V14.54h2.5a3.56,3.56,0,0,1,3.76,3.67,3.54,3.54,0,0,1-3.76,3.66Zm5.32-3.66a2.69,2.69,0,0,0-2.82-2.86H32.83v5.71h1.59A2.7,2.7,0,0,0,37.24,18.21Z" fill="#0072bc"/><path d="M39.26,19.21a2.63,2.63,0,1,1,5.26,0,2.63,2.63,0,1,1-5.26,0Zm4.39,0a1.78,1.78,0,1,0-3.52,0,1.78,1.78,0,1,0,3.52,0Z" fill="#0072bc"/><circle cx="17.55" cy="17.55" r="7.55" fill="#9dc5ff"/><circle cx="17.55" cy="17.55" r="4.8" fill="#0072bc"/><polyline points="14.8 17.55 16.63 19.38 20.29 15.72" fill="none" stroke="#fff" stroke-linecap="round" stroke-linejoin="round" stroke-width="0.75"/><path d="M201.92,21.87V14.54h2.5a3.56,3.56,0,0,1,3.76,3.67,3.54,3.54,0,0,1-3.76,3.66Zm5.32-3.66a2.69,2.69,0,0,0-2.82-2.86h-1.59v5.71h1.59A2.7,2.7,0,0,0,207.24,18.21Z" fill="#ef4a60"/><path d="M209.26,19.21a2.63,2.63,0,1,1,5.26,0,2.63,2.63,0,1,1-5.26,0Zm4.39,0a1.78,1.78,0,1,0-3.52,0,1.78,1.78,0,1,0,3.52,0Z" fill="#ef4a60"/><path d="M219.44,21.87V18.4c0-.95-.48-1.23-1.19-1.23a2.06,2.06,0,0,0-1.57.82v3.88h-.83V16.56h.83v.77a2.58,2.58,0,0,1,1.9-.9,1.5,1.5,0,0,1,1.68,1.71v3.73Z" fill="#ef4a60"/><path d="M222.07,16.93l-.42-.35a1.65,1.65,0,0,0,.71-1l-.15,0a.53.53,0,0,1-.53-.56.6.6,0,0,1,.58-.59c.38,0,.7.3.7.84A2.14,2.14,0,0,1,222.07,16.93Z" fill="#ef4a60"/><path d="M224.54,20.76V17.29h-.88v-.73h.88V15.11h.83v1.45h1.08v.73h-1.08v3.29c0,.4.18.68.53.68a.75.75,0,0,0,.56-.23l.24.63a1.32,1.32,0,0,1-1,.34A1.08,1.08,0,0,1,224.54,20.76Z" fill="#ef4a60"/><circle cx="187.55" cy="17.55" r="7.55" fill="#ffbcc1"/><circle cx="187.55" cy="17.55" r="4.8" fill="#ef4a60"/><line x1="189.55" y1="15.55" x2="185.55" y2="19.55" fill="none" stroke="#fff" stroke-linecap="round" stroke-linejoin="round" stroke-width="0.75"/><line x1="189.55" y1="19.55" x2="185.55" y2="15.55" fill="none" stroke="#fff" stroke-linecap="round" stroke-linejoin="round" stroke-width="0.75"/><line x1="39.04" y1="108.54" x2="148.37" y2="108.54" fill="none" stroke="#d0d2d3" stroke-linecap="round" stroke-linejoin="round" stroke-width="0.25"/><line x1="39.04" y1="94.23" x2="148.37" y2="94.23" fill="none" stroke="#d0d2d3" stroke-linecap="round" stroke-linejoin="round" stroke-width="0.25"/><line x1="39.04" y1="79.93" x2="148.37" y2="79.93" fill="none" stroke="#d0d2d3" stroke-linecap="round" stroke-linejoin="round" stroke-width="0.25"/><line x1="39.04" y1="65.62" x2="148.37" y2="65.62" fill="none" stroke="#d0d2d3" stroke-linecap="round" stroke-linejoin="round" stroke-width="0.25"/><line x1="39.04" y1="51.31" x2="148.37" y2="51.31" fill="none" stroke="#d0d2d3" stroke-linecap="round" stroke-linejoin="round" stroke-width="0.25"/><line x1="39.04" y1="37.01" x2="148.37" y2="37.01" fill="none" stroke="#d0d2d3" stroke-linecap="round" stroke-linejoin="round" stroke-width="0.25"/><rect x="40.59" y="106.78" width="4.42" height="16.39" fill="#0072bc" stroke="#fff" stroke-miterlimit="10" stroke-width="0.25"/><rect x="45.01" y="98.58" width="4.42" height="24.58" fill="#0072bc" stroke="#fff" stroke-miterlimit="10" stroke-width="0.25"/><rect x="49.42" y="96" width="4.42" height="27.17" fill="#0072bc" stroke="#fff" stroke-miterlimit="10" stroke-width="0.25"/><rect x="53.84" y="92.43" width="4.42" height="30.74" fill="#0072bc" stroke="#fff" stroke-miterlimit="10" stroke-width="0.25"/><rect x="58.26" y="67.28" width="4.42" height="55.89" fill="#0072bc" stroke="#fff" stroke-miterlimit="10" stroke-width="0.25"/><rect x="62.67" y="58.9" width="4.42" height="64.27" fill="#0072bc" stroke="#fff" stroke-miterlimit="10" stroke-width="0.25"/><rect x="67.09" y="75.66" width="4.42" height="47.5" fill="#0072bc" stroke="#fff" stroke-miterlimit="10" stroke-width="0.25"/><rect x="71.51" y="81.25" width="4.42" height="41.91" fill="#0072bc" stroke="#fff" stroke-miterlimit="10" stroke-width="0.25"/><rect x="75.92" y="84.05" width="4.42" height="39.12" fill="#0072bc" stroke="#fff" stroke-miterlimit="10" stroke-width="0.25"/><rect x="80.34" y="89.64" width="4.42" height="33.53" fill="#0072bc" stroke="#fff" stroke-miterlimit="10" stroke-width="0.25"/><rect x="84.76" y="107.34" width="4.42" height="15.83" fill="#0072bc" stroke="#fff" stroke-miterlimit="10" stroke-width="0.25"/><rect x="89.17" y="103.38" width="4.42" height="19.79" fill="#0072bc" stroke="#fff" stroke-miterlimit="10" stroke-width="0.25"/><rect x="93.59" y="105.18" width="4.42" height="17.99" fill="#0072bc" stroke="#fff" stroke-miterlimit="10" stroke-width="0.25"/><rect x="98.01" y="102" width="4.42" height="21.17" fill="#0072bc" stroke="#fff" stroke-miterlimit="10" stroke-width="0.25"/><rect x="102.42" y="104.12" width="4.42" height="19.05" fill="#0072bc" stroke="#fff" stroke-miterlimit="10" stroke-width="0.25"/><rect x="106.84" y="102" width="4.42" height="21.17" fill="#0072bc" stroke="#fff" stroke-miterlimit="10" stroke-width="0.25"/><rect x="111.26" y="88.79" width="4.42" height="34.38" fill="#0072bc" stroke="#fff" stroke-miterlimit="10" stroke-width="0.25"/><rect x="115.67" y="91.78" width="4.42" height="31.39" fill="#0072bc" stroke="#fff" stroke-miterlimit="10" stroke-width="0.25"/><rect x="120.09" y="84.31" width="4.42" height="38.86" fill="#0072bc" stroke="#fff" stroke-miterlimit="10" stroke-width="0.25"/><rect x="124.51" y="66.37" width="4.42" height="56.8" fill="#0072bc" stroke="#fff" stroke-miterlimit="10" stroke-width="0.25"/><rect x="128.92" y="57.4" width="4.42" height="65.76" fill="#0072bc" stroke="#fff" stroke-miterlimit="10" stroke-width="0.25"/><rect x="133.34" y="48.44" width="4.42" height="74.73" fill="#0072bc" stroke="#fff" stroke-miterlimit="10" stroke-width="0.25"/><rect x="137.76" y="40.96" width="4.42" height="82.2" fill="#0072bc" stroke="#fff" stroke-miterlimit="10" stroke-width="0.25"/><rect x="142.17" y="51.43" width="4.42" height="71.74" fill="#0072bc" stroke="#fff" stroke-miterlimit="10" stroke-width="0.25"/><rect x="28.47" y="121.96" width="8.47" height="3.04" fill="#bbbdbf"/><rect x="28.47" y="107.96" width="8.47" height="3.04" fill="#bbbdbf"/><rect x="28.47" y="92.96" width="8.47" height="3.04" fill="#bbbdbf"/><rect x="28.47" y="78.96" width="8.47" height="3.04" fill="#bbbdbf"/><rect x="28.47" y="63.96" width="8.47" height="3.04" fill="#bbbdbf"/><rect x="28.47" y="49.96" width="8.47" height="3.04" fill="#bbbdbf"/><rect x="28.47" y="35.96" width="8.47" height="3.04" fill="#bbbdbf"/><line x1="38.62" y1="123.17" x2="148.59" y2="123.17" fill="none" stroke="#000" stroke-miterlimit="10" stroke-width="0.5"/><path d="M39.44,127.7c0-1,.43-2.06,1.52-2.06s1.53,1.08,1.53,2.06-.43,2.07-1.53,2.07S39.44,128.67,39.44,127.7Zm2.54,0c0-.8-.25-1.62-1-1.62s-1,.82-1,1.62.25,1.63,1,1.63S42,128.5,42,127.7Z" fill="#919191"/><path d="M58.22,129.7v-1h-1.9v-.41L58,125.7h.68v2.55h.56v.43h-.56v1Zm0-3.54-1.4,2.09h1.4Z" fill="#919191"/><path d="M74.44,128.68a1.18,1.18,0,0,1,1-1c-.47-.14-.89-.44-.89-1,0-.72.7-1,1.37-1s1.37.32,1.37,1c0,.52-.43.82-.9,1a1.18,1.18,0,0,1,1,1c0,.68-.65,1.09-1.43,1.09S74.44,129.37,74.44,128.68Zm2.36-.05c0-.52-.68-.74-.92-.77s-.93.25-.93.77.43.7.93.7S76.8,129.06,76.8,128.63Zm-.06-1.89c0-.41-.39-.66-.86-.66s-.87.25-.87.66.63.65.87.69S76.74,127.23,76.74,126.74Z" fill="#919191"/><path d="M93.2,129.7v-3.35l-.64.69-.3-.31,1-1h.43v4Z" fill="#919191"/><path d="M94.47,127.7c0-1,.43-2.06,1.53-2.06s1.53,1.08,1.53,2.06-.44,2.07-1.53,2.07S94.47,128.67,94.47,127.7Zm2.55,0c0-.8-.26-1.62-1-1.62s-1,.82-1,1.62.26,1.63,1,1.63S97,128.5,97,127.7Z" fill="#919191"/><path d="M110.2,129.7v-3.35l-.64.69-.3-.31,1-1h.43v4Z" fill="#919191"/><path d="M113.26,129.7v-1h-1.9v-.41l1.71-2.57h.68v2.55h.57v.43h-.57v1Zm0-3.54-1.41,2.09h1.41Z" fill="#919191"/><path d="M128.2,129.7v-3.35l-.64.69-.3-.31,1-1h.43v4Z" fill="#919191"/><path d="M129.48,128.68a1.17,1.17,0,0,1,1-1c-.46-.14-.89-.44-.89-1,0-.72.7-1,1.37-1s1.37.32,1.37,1c0,.52-.43.82-.89,1a1.17,1.17,0,0,1,1,1c0,.68-.65,1.09-1.43,1.09S129.48,129.37,129.48,128.68Zm2.36-.05c0-.52-.69-.74-.93-.77s-.93.25-.93.77.43.7.93.7S131.84,129.06,131.84,128.63Zm-.06-1.89c0-.41-.39-.66-.87-.66s-.86.25-.86.66.62.65.86.69S131.78,127.23,131.78,126.74Z" fill="#919191"/><path d="M143.45,129.7v-.4c1.44-1.13,2.23-1.8,2.23-2.49a.75.75,0,0,0-.84-.73,1.36,1.36,0,0,0-1.09.51l-.3-.32a1.7,1.7,0,0,1,1.39-.63,1.22,1.22,0,0,1,1.34,1.17c0,.82-.83,1.56-1.94,2.44h2v.45Z" fill="#919191"/><path d="M147,127.7c0-1,.44-2.06,1.53-2.06s1.53,1.08,1.53,2.06-.44,2.07-1.53,2.07S147,128.67,147,127.7Zm2.55,0c0-.8-.26-1.62-1-1.62s-1,.82-1,1.62.26,1.63,1,1.63S149.51,128.5,149.51,127.7Z" fill="#919191"/><line x1="209.04" y1="108.54" x2="318.37" y2="108.54" fill="none" stroke="#d0d2d3" stroke-linecap="round" stroke-linejoin="round" stroke-width="0.25"/><line x1="209.04" y1="94.23" x2="318.37" y2="94.23" fill="none" stroke="#d0d2d3" stroke-linecap="round" stroke-linejoin="round" stroke-width="0.25"/><line x1="209.04" y1="79.93" x2="318.37" y2="79.93" fill="none" stroke="#d0d2d3" stroke-linecap="round" stroke-linejoin="round" stroke-width="0.25"/><line x1="209.04" y1="65.62" x2="318.37" y2="65.62" fill="none" stroke="#d0d2d3" stroke-linecap="round" stroke-linejoin="round" stroke-width="0.25"/><line x1="209.04" y1="51.31" x2="318.37" y2="51.31" fill="none" stroke="#d0d2d3" stroke-linecap="round" stroke-linejoin="round" stroke-width="0.25"/><line x1="209.04" y1="37.01" x2="318.37" y2="37.01" fill="none" stroke="#d0d2d3" stroke-linecap="round" stroke-linejoin="round" stroke-width="0.25"/><polygon points="215.01 106.78 210.59 106.78 210.59 123.17 215.01 123.17 219.43 123.17 219.43 106.78 215.01 106.78" fill="#0072bc" stroke="#fff" stroke-miterlimit="10" stroke-width="0.25"/><polygon points="223.84 96 219.43 96 219.43 123.17 223.84 123.17 228.26 123.17 228.26 96 223.84 96" fill="#0072bc" stroke="#fff" stroke-miterlimit="10" stroke-width="0.25"/><polygon points="241.51 59 237.09 59 237.09 58.9 232.68 58.9 232.68 59 228.26 59 228.26 123.17 232.68 123.17 237.09 123.17 241.51 123.17 245.93 123.17 245.93 59 241.51 59" fill="#0072bc" stroke="#fff" stroke-miterlimit="10" stroke-width="0.25"/><polygon points="250.34 89.64 245.93 89.64 245.93 123.17 250.34 123.17 254.76 123.17 254.76 89.64 250.34 89.64" fill="#0072bc" stroke="#fff" stroke-miterlimit="10" stroke-width="0.25"/><rect x="254.76" y="107.34" width="4.42" height="15.83" fill="#0072bc" stroke="#fff" stroke-miterlimit="10" stroke-width="0.25"/><rect x="259.17" y="103.38" width="4.42" height="19.79" fill="#0072bc" stroke="#fff" stroke-miterlimit="10" stroke-width="0.25"/><polygon points="268.01 102 263.59 102 263.59 123.17 268.01 123.17 272.43 123.17 272.43 102 268.01 102" fill="#0072bc" stroke="#fff" stroke-miterlimit="10" stroke-width="0.25"/><rect x="272.42" y="104.12" width="4.42" height="19.05" fill="#0072bc" stroke="#fff" stroke-miterlimit="10" stroke-width="0.25"/><rect x="276.84" y="102" width="4.42" height="21.17" fill="#0072bc" stroke="#fff" stroke-miterlimit="10" stroke-width="0.25"/><rect x="281.26" y="88.79" width="4.42" height="34.38" fill="#0072bc" stroke="#fff" stroke-miterlimit="10" stroke-width="0.25"/><polygon points="290.09 91.78 285.68 91.78 285.68 123.17 290.09 123.17 294.51 123.17 294.51 91.78 290.09 91.78" fill="#0072bc" stroke="#fff" stroke-miterlimit="10" stroke-width="0.25"/><rect x="294.51" y="66.37" width="4.42" height="56.8" fill="#0072bc" stroke="#fff" stroke-miterlimit="10" stroke-width="0.25"/><rect x="298.92" y="57.4" width="4.42" height="65.76" fill="#0072bc" stroke="#fff" stroke-miterlimit="10" stroke-width="0.25"/><polygon points="312.18 40.96 307.76 40.96 303.34 40.96 303.34 123.17 307.76 123.17 312.18 123.17 316.59 123.17 316.59 40.96 312.18 40.96" fill="#0072bc" stroke="#fff" stroke-miterlimit="10" stroke-width="0.25"/><rect x="198.47" y="121.96" width="8.47" height="3.04" fill="#bbbdbf"/><rect x="198.47" y="107.96" width="8.47" height="3.04" fill="#bbbdbf"/><rect x="198.47" y="92.96" width="8.47" height="3.04" fill="#bbbdbf"/><rect x="198.47" y="78.96" width="8.47" height="3.04" fill="#bbbdbf"/><rect x="198.47" y="63.96" width="8.47" height="3.04" fill="#bbbdbf"/><rect x="198.47" y="49.96" width="8.47" height="3.04" fill="#bbbdbf"/><rect x="198.47" y="35.96" width="8.47" height="3.04" fill="#bbbdbf"/><line x1="208.62" y1="123.17" x2="318.59" y2="123.17" fill="none" stroke="#000" stroke-miterlimit="10" stroke-width="0.5"/><path d="M209.44,127.7c0-1,.43-2.06,1.52-2.06s1.53,1.08,1.53,2.06-.43,2.07-1.53,2.07S209.44,128.67,209.44,127.7Zm2.54,0c0-.8-.25-1.62-1-1.62s-1,.82-1,1.62.25,1.63,1,1.63S212,128.5,212,127.7Z" fill="#919191"/><path d="M228.22,129.7v-1h-1.9v-.41L228,125.7h.68v2.55h.56v.43h-.56v1Zm0-3.54-1.4,2.09h1.4Z" fill="#919191"/><path d="M244.44,128.68a1.18,1.18,0,0,1,1-1c-.47-.14-.89-.44-.89-1,0-.72.7-1,1.37-1s1.37.32,1.37,1c0,.52-.43.82-.9,1a1.18,1.18,0,0,1,1,1c0,.68-.65,1.09-1.43,1.09S244.44,129.37,244.44,128.68Zm2.36-.05c0-.52-.68-.74-.92-.77s-.93.25-.93.77.43.7.93.7S246.8,129.06,246.8,128.63Zm-.06-1.89c0-.41-.39-.66-.86-.66s-.87.25-.87.66.63.65.87.69S246.74,127.23,246.74,126.74Z" fill="#919191"/><path d="M263.2,129.7v-3.35l-.64.69-.3-.31,1-1h.43v4Z" fill="#919191"/><path d="M264.47,127.7c0-1,.43-2.06,1.53-2.06s1.53,1.08,1.53,2.06-.44,2.07-1.53,2.07S264.47,128.67,264.47,127.7Zm2.55,0c0-.8-.26-1.62-1-1.62s-1,.82-1,1.62.26,1.63,1,1.63S267,128.5,267,127.7Z" fill="#919191"/><path d="M280.2,129.7v-3.35l-.64.69-.3-.31,1-1h.43v4Z" fill="#919191"/><path d="M283.26,129.7v-1h-1.9v-.41l1.71-2.57h.68v2.55h.57v.43h-.57v1Zm0-3.54-1.41,2.09h1.41Z" fill="#919191"/><path d="M298.2,129.7v-3.35l-.64.69-.3-.31,1-1h.43v4Z" fill="#919191"/><path d="M299.48,128.68a1.17,1.17,0,0,1,.95-1c-.46-.14-.89-.44-.89-1,0-.72.7-1,1.37-1s1.37.32,1.37,1c0,.52-.43.82-.89,1a1.17,1.17,0,0,1,.95,1c0,.68-.65,1.09-1.43,1.09S299.48,129.37,299.48,128.68Zm2.36-.05c0-.52-.69-.74-.93-.77s-.93.25-.93.77.43.7.93.7S301.84,129.06,301.84,128.63Zm-.06-1.89c0-.41-.39-.66-.87-.66s-.86.25-.86.66.62.65.86.69S301.78,127.23,301.78,126.74Z" fill="#919191"/><path d="M313.45,129.7v-.4c1.44-1.13,2.23-1.8,2.23-2.49a.75.75,0,0,0-.84-.73,1.36,1.36,0,0,0-1.09.51l-.3-.32a1.7,1.7,0,0,1,1.39-.63,1.22,1.22,0,0,1,1.34,1.17c0,.82-.83,1.56-1.94,2.44h2v.45Z" fill="#919191"/><path d="M317,127.7c0-1,.44-2.06,1.53-2.06s1.53,1.08,1.53,2.06-.44,2.07-1.53,2.07S317,128.67,317,127.7Zm2.55,0c0-.8-.26-1.62-1-1.62s-1,.82-1,1.62.26,1.63,1,1.63S319.51,128.5,319.51,127.7Z" fill="#919191"/></svg>