<svg xmlns="http://www.w3.org/2000/svg" width="350" height="148" viewBox="0 0 350 148"><rect width="350" height="148" fill="#f1f2f2"/><path d="M31.92,21.87V14.54h2.5a3.56,3.56,0,0,1,3.76,3.67,3.54,3.54,0,0,1-3.76,3.66Zm5.32-3.66a2.69,2.69,0,0,0-2.82-2.86H32.83v5.71h1.59A2.7,2.7,0,0,0,37.24,18.21Z" fill="#0072bc"/><path d="M39.26,19.21a2.63,2.63,0,1,1,5.26,0,2.63,2.63,0,1,1-5.26,0Zm4.39,0a1.78,1.78,0,1,0-3.52,0,1.78,1.78,0,1,0,3.52,0Z" fill="#0072bc"/><circle cx="17.55" cy="17.55" r="7.55" fill="#9dc5ff"/><circle cx="17.55" cy="17.55" r="4.8" fill="#0072bc"/><polyline points="14.8 17.55 16.63 19.38 20.29 15.72" fill="none" stroke="#fff" stroke-linecap="round" stroke-linejoin="round" stroke-width="0.75"/><path d="M201.92,21.87V14.54h2.5a3.56,3.56,0,0,1,3.76,3.67,3.54,3.54,0,0,1-3.76,3.66Zm5.32-3.66a2.69,2.69,0,0,0-2.82-2.86h-1.59v5.71h1.59A2.7,2.7,0,0,0,207.24,18.21Z" fill="#ef4a60"/><path d="M209.26,19.21a2.63,2.63,0,1,1,5.26,0,2.63,2.63,0,1,1-5.26,0Zm4.39,0a1.78,1.78,0,1,0-3.52,0,1.78,1.78,0,1,0,3.52,0Z" fill="#ef4a60"/><path d="M219.44,21.87V18.4c0-.95-.48-1.23-1.19-1.23a2.06,2.06,0,0,0-1.57.82v3.88h-.83V16.56h.83v.77a2.58,2.58,0,0,1,1.9-.9,1.5,1.5,0,0,1,1.68,1.71v3.73Z" fill="#ef4a60"/><path d="M222.07,16.93l-.42-.35a1.65,1.65,0,0,0,.71-1l-.15,0a.53.53,0,0,1-.53-.56.6.6,0,0,1,.58-.59c.38,0,.7.3.7.84A2.14,2.14,0,0,1,222.07,16.93Z" fill="#ef4a60"/><path d="M224.54,20.76V17.29h-.88v-.73h.88V15.11h.83v1.45h1.08v.73h-1.08v3.29c0,.4.18.68.53.68a.75.75,0,0,0,.56-.23l.24.63a1.32,1.32,0,0,1-1,.34A1.08,1.08,0,0,1,224.54,20.76Z" fill="#ef4a60"/><circle cx="187.55" cy="17.55" r="7.55" fill="#ffbcc1"/><circle cx="187.55" cy="17.55" r="4.8" fill="#ef4a60"/><line x1="189.55" y1="15.55" x2="185.55" y2="19.55" fill="none" stroke="#fff" stroke-linecap="round" stroke-linejoin="round" stroke-width="0.75"/><line x1="189.55" y1="19.55" x2="185.55" y2="15.55" fill="none" stroke="#fff" stroke-linecap="round" stroke-linejoin="round" stroke-width="0.75"/><line x1="37.45" y1="108.54" x2="146.78" y2="108.54" fill="none" stroke="#d0d2d3" stroke-linecap="round" stroke-linejoin="round" stroke-width="0.25"/><line x1="37.45" y1="94.23" x2="146.78" y2="94.23" fill="none" stroke="#d0d2d3" stroke-linecap="round" stroke-linejoin="round" stroke-width="0.25"/><line x1="37.45" y1="79.93" x2="146.78" y2="79.93" fill="none" stroke="#d0d2d3" stroke-linecap="round" stroke-linejoin="round" stroke-width="0.25"/><line x1="37.45" y1="65.62" x2="146.78" y2="65.62" fill="none" stroke="#d0d2d3" stroke-linecap="round" stroke-linejoin="round" stroke-width="0.25"/><line x1="37.45" y1="51.31" x2="146.78" y2="51.31" fill="none" stroke="#d0d2d3" stroke-linecap="round" stroke-linejoin="round" stroke-width="0.25"/><line x1="37.45" y1="37.01" x2="146.78" y2="37.01" fill="none" stroke="#d0d2d3" stroke-linecap="round" stroke-linejoin="round" stroke-width="0.25"/><rect x="39" y="106.78" width="4.42" height="16.39" fill="#0072bc" stroke="#fff" stroke-miterlimit="10" stroke-width="0.25"/><rect x="43.42" y="98.58" width="4.42" height="24.58" fill="#0072bc" stroke="#fff" stroke-miterlimit="10" stroke-width="0.25"/><rect x="47.83" y="96" width="4.42" height="27.17" fill="#0072bc" stroke="#fff" stroke-miterlimit="10" stroke-width="0.25"/><rect x="52.25" y="92.43" width="4.42" height="30.74" fill="#0072bc" stroke="#fff" stroke-miterlimit="10" stroke-width="0.25"/><rect x="56.67" y="67.28" width="4.42" height="55.89" fill="#0072bc" stroke="#fff" stroke-miterlimit="10" stroke-width="0.25"/><rect x="61.08" y="58.9" width="4.42" height="64.27" fill="#0072bc" stroke="#fff" stroke-miterlimit="10" stroke-width="0.25"/><rect x="65.5" y="75.66" width="4.42" height="47.5" fill="#0072bc" stroke="#fff" stroke-miterlimit="10" stroke-width="0.25"/><rect x="69.92" y="81.25" width="4.42" height="41.91" fill="#0072bc" stroke="#fff" stroke-miterlimit="10" stroke-width="0.25"/><rect x="74.33" y="84.05" width="4.42" height="39.12" fill="#0072bc" stroke="#fff" stroke-miterlimit="10" stroke-width="0.25"/><rect x="78.75" y="89.64" width="4.42" height="33.53" fill="#0072bc" stroke="#fff" stroke-miterlimit="10" stroke-width="0.25"/><rect x="83.17" y="107.34" width="4.42" height="15.83" fill="#0072bc" stroke="#fff" stroke-miterlimit="10" stroke-width="0.25"/><rect x="87.58" y="103.38" width="4.42" height="19.79" fill="#0072bc" stroke="#fff" stroke-miterlimit="10" stroke-width="0.25"/><rect x="92" y="105.18" width="4.42" height="17.99" fill="#0072bc" stroke="#fff" stroke-miterlimit="10" stroke-width="0.25"/><rect x="96.42" y="102" width="4.42" height="21.17" fill="#0072bc" stroke="#fff" stroke-miterlimit="10" stroke-width="0.25"/><rect x="100.83" y="104.12" width="4.42" height="19.05" fill="#0072bc" stroke="#fff" stroke-miterlimit="10" stroke-width="0.25"/><rect x="105.25" y="102" width="4.42" height="21.17" fill="#0072bc" stroke="#fff" stroke-miterlimit="10" stroke-width="0.25"/><rect x="109.67" y="88.79" width="4.42" height="34.38" fill="#0072bc" stroke="#fff" stroke-miterlimit="10" stroke-width="0.25"/><rect x="114.08" y="91.78" width="4.42" height="31.39" fill="#0072bc" stroke="#fff" stroke-miterlimit="10" stroke-width="0.25"/><rect x="118.5" y="84.31" width="4.42" height="38.86" fill="#0072bc" stroke="#fff" stroke-miterlimit="10" stroke-width="0.25"/><rect x="122.92" y="66.37" width="4.42" height="56.8" fill="#0072bc" stroke="#fff" stroke-miterlimit="10" stroke-width="0.25"/><rect x="127.33" y="57.4" width="4.42" height="65.76" fill="#0072bc" stroke="#fff" stroke-miterlimit="10" stroke-width="0.25"/><rect x="131.75" y="48.44" width="4.42" height="74.73" fill="#0072bc" stroke="#fff" stroke-miterlimit="10" stroke-width="0.25"/><rect x="136.17" y="40.96" width="4.42" height="82.2" fill="#0072bc" stroke="#fff" stroke-miterlimit="10" stroke-width="0.25"/><rect x="140.58" y="51.43" width="4.42" height="71.74" fill="#0072bc" stroke="#fff" stroke-miterlimit="10" stroke-width="0.25"/><rect x="34.88" y="125.96" width="8.47" height="3.04" fill="#bbbdbf"/><rect x="26.88" y="121.96" width="8.47" height="3.04" fill="#bbbdbf"/><rect x="26.88" y="107.96" width="8.47" height="3.04" fill="#bbbdbf"/><rect x="26.88" y="92.96" width="8.47" height="3.04" fill="#bbbdbf"/><rect x="26.88" y="78.96" width="8.47" height="3.04" fill="#bbbdbf"/><rect x="26.88" y="63.96" width="8.47" height="3.04" fill="#bbbdbf"/><rect x="26.88" y="49.96" width="8.47" height="3.04" fill="#bbbdbf"/><rect x="26.88" y="35.96" width="8.47" height="3.04" fill="#bbbdbf"/><rect x="52.45" y="125.96" width="8.47" height="3.04" fill="#bbbdbf"/><rect x="70.02" y="125.96" width="8.47" height="3.04" fill="#bbbdbf"/><rect x="87.44" y="125.96" width="8.47" height="3.04" fill="#bbbdbf"/><rect x="105.17" y="125.96" width="8.47" height="3.04" fill="#bbbdbf"/><rect x="123.74" y="125.96" width="8.47" height="3.04" fill="#bbbdbf"/><rect x="141.47" y="125.96" width="8.47" height="3.04" fill="#bbbdbf"/><line x1="37.03" y1="123.17" x2="147" y2="123.17" fill="none" stroke="#000" stroke-miterlimit="10" stroke-width="0.5"/><line x1="212.45" y1="108.54" x2="321.78" y2="108.54" fill="none" stroke="#d0d2d3" stroke-linecap="round" stroke-linejoin="round" stroke-width="0.25"/><line x1="212.45" y1="94.23" x2="321.78" y2="94.23" fill="none" stroke="#d0d2d3" stroke-linecap="round" stroke-linejoin="round" stroke-width="0.25"/><line x1="212.45" y1="79.93" x2="321.78" y2="79.93" fill="none" stroke="#d0d2d3" stroke-linecap="round" stroke-linejoin="round" stroke-width="0.25"/><line x1="212.45" y1="65.62" x2="321.78" y2="65.62" fill="none" stroke="#d0d2d3" stroke-linecap="round" stroke-linejoin="round" stroke-width="0.25"/><line x1="212.45" y1="51.31" x2="321.78" y2="51.31" fill="none" stroke="#d0d2d3" stroke-linecap="round" stroke-linejoin="round" stroke-width="0.25"/><line x1="212.45" y1="37.01" x2="321.78" y2="37.01" fill="none" stroke="#d0d2d3" stroke-linecap="round" stroke-linejoin="round" stroke-width="0.25"/><rect x="219.37" y="108" width="1" height="15.17" fill="#0072bc" stroke="#fff" stroke-miterlimit="10" stroke-width="0.25"/><rect x="216.37" y="104" width="1" height="19.17" fill="#0072bc" stroke="#fff" stroke-miterlimit="10" stroke-width="0.25"/><rect x="217.37" y="106" width="1" height="17.17" fill="#0072bc" stroke="#fff" stroke-miterlimit="10" stroke-width="0.25"/><rect x="214.37" y="106.78" width="1" height="16.39" fill="#0072bc" stroke="#fff" stroke-miterlimit="10" stroke-width="0.25"/><rect x="224.37" y="103" width="1" height="20.17" fill="#0072bc" stroke="#fff" stroke-miterlimit="10" stroke-width="0.25"/><rect x="228.36" y="94" width="1" height="29.17" fill="#0072bc" stroke="#fff" stroke-miterlimit="10" stroke-width="0.25"/><rect x="233.36" y="92.43" width="1" height="30.74" fill="#0072bc" stroke="#fff" stroke-miterlimit="10" stroke-width="0.25"/><rect x="237.36" y="67.28" width="1" height="55.89" fill="#0072bc" stroke="#fff" stroke-miterlimit="10" stroke-width="0.25"/><rect x="241.35" y="62" width="1" height="61.17" fill="#0072bc" stroke="#fff" stroke-miterlimit="10" stroke-width="0.25"/><rect x="245.35" y="75.66" width="1" height="47.5" fill="#0072bc" stroke="#fff" stroke-miterlimit="10" stroke-width="0.25"/><rect x="249.35" y="83" width="1" height="40.17" fill="#0072bc" stroke="#fff" stroke-miterlimit="10" stroke-width="0.25"/><rect x="253.34" y="87" width="1" height="36.17" fill="#0072bc" stroke="#fff" stroke-miterlimit="10" stroke-width="0.25"/><rect x="257.34" y="93" width="1" height="30.17" fill="#0072bc" stroke="#fff" stroke-miterlimit="10" stroke-width="0.25"/><rect x="261.34" y="105" width="1" height="18.17" fill="#0072bc" stroke="#fff" stroke-miterlimit="10" stroke-width="0.25"/><rect x="265.33" y="100" width="1" height="23.17" fill="#0072bc" stroke="#fff" stroke-miterlimit="10" stroke-width="0.25"/><rect x="270.33" y="101" width="1" height="22.17" fill="#0072bc" stroke="#fff" stroke-miterlimit="10" stroke-width="0.25"/><rect x="275.33" y="100" width="1" height="23.17" fill="#0072bc" stroke="#fff" stroke-miterlimit="10" stroke-width="0.25"/><rect x="280.32" y="104.12" width="1" height="19.05" fill="#0072bc" stroke="#fff" stroke-miterlimit="10" stroke-width="0.25"/><rect x="285.32" y="98" width="1" height="25.17" fill="#0072bc" stroke="#fff" stroke-miterlimit="10" stroke-width="0.25"/><rect x="290.31" y="88.79" width="1" height="34.38" fill="#0072bc" stroke="#fff" stroke-miterlimit="10" stroke-width="0.25"/><rect x="295.31" y="97" width="1" height="26.17" fill="#0072bc" stroke="#fff" stroke-miterlimit="10" stroke-width="0.25"/><rect x="300.31" y="87" width="1" height="36.17" fill="#0072bc" stroke="#fff" stroke-miterlimit="10" stroke-width="0.25"/><rect x="304.3" y="66.37" width="1" height="56.8" fill="#0072bc" stroke="#fff" stroke-miterlimit="10" stroke-width="0.25"/><rect x="308.3" y="57.4" width="1" height="65.76" fill="#0072bc" stroke="#fff" stroke-miterlimit="10" stroke-width="0.25"/><rect x="312.3" y="46" width="1" height="77.17" fill="#0072bc" stroke="#fff" stroke-miterlimit="10" stroke-width="0.25"/><rect x="315.29" y="39" width="1" height="84.17" fill="#0072bc" stroke="#fff" stroke-miterlimit="10" stroke-width="0.25"/><rect x="318.29" y="55" width="1" height="68.17" fill="#0072bc" stroke="#fff" stroke-miterlimit="10" stroke-width="0.25"/><rect x="222.37" y="98.58" width="1" height="24.58" fill="#0072bc" stroke="#fff" stroke-miterlimit="10" stroke-width="0.25"/><rect x="227.36" y="96" width="1" height="27.17" fill="#0072bc" stroke="#fff" stroke-miterlimit="10" stroke-width="0.25"/><rect x="232.36" y="96" width="1" height="27.17" fill="#0072bc" stroke="#fff" stroke-miterlimit="10" stroke-width="0.25"/><rect x="236.36" y="69" width="1" height="54.17" fill="#0072bc" stroke="#fff" stroke-miterlimit="10" stroke-width="0.25"/><rect x="240.35" y="58.9" width="1" height="64.27" fill="#0072bc" stroke="#fff" stroke-miterlimit="10" stroke-width="0.25"/><rect x="244.35" y="77" width="1" height="46.17" fill="#0072bc" stroke="#fff" stroke-miterlimit="10" stroke-width="0.25"/><rect x="248.35" y="80" width="1" height="43.17" fill="#0072bc" stroke="#fff" stroke-miterlimit="10" stroke-width="0.25"/><rect x="252.34" y="84.05" width="1" height="39.12" fill="#0072bc" stroke="#fff" stroke-miterlimit="10" stroke-width="0.25"/><rect x="256.34" y="89.64" width="1" height="33.53" fill="#0072bc" stroke="#fff" stroke-miterlimit="10" stroke-width="0.25"/><rect x="260.34" y="110" width="1" height="13.17" fill="#0072bc" stroke="#fff" stroke-miterlimit="10" stroke-width="0.25"/><rect x="264.33" y="103.38" width="1" height="19.79" fill="#0072bc" stroke="#fff" stroke-miterlimit="10" stroke-width="0.25"/><rect x="269.33" y="105.18" width="1" height="17.99" fill="#0072bc" stroke="#fff" stroke-miterlimit="10" stroke-width="0.25"/><rect x="274.33" y="105" width="1" height="18.17" fill="#0072bc" stroke="#fff" stroke-miterlimit="10" stroke-width="0.25"/><rect x="279.32" y="100" width="1" height="23.17" fill="#0072bc" stroke="#fff" stroke-miterlimit="10" stroke-width="0.25"/><rect x="284.32" y="100" width="1" height="23.17" fill="#0072bc" stroke="#fff" stroke-miterlimit="10" stroke-width="0.25"/><rect x="289.32" y="87" width="1" height="36.17" fill="#0072bc" stroke="#fff" stroke-miterlimit="10" stroke-width="0.25"/><rect x="294.31" y="87" width="1" height="36.17" fill="#0072bc" stroke="#fff" stroke-miterlimit="10" stroke-width="0.25"/><rect x="299.31" y="92" width="1" height="31.17" fill="#0072bc" stroke="#fff" stroke-miterlimit="10" stroke-width="0.25"/><rect x="303.3" y="74" width="1" height="49.17" fill="#0072bc" stroke="#fff" stroke-miterlimit="10" stroke-width="0.25"/><rect x="307.3" y="57.4" width="1" height="65.76" fill="#0072bc" stroke="#fff" stroke-miterlimit="10" stroke-width="0.25"/><rect x="311.3" y="49" width="1" height="74.17" fill="#0072bc" stroke="#fff" stroke-miterlimit="10" stroke-width="0.25"/><rect x="314.3" y="44" width="1" height="79.17" fill="#0072bc" stroke="#fff" stroke-miterlimit="10" stroke-width="0.25"/><rect x="317.29" y="53" width="1" height="70.17" fill="#0072bc" stroke="#fff" stroke-miterlimit="10" stroke-width="0.25"/><rect x="229.36" y="98.58" width="1" height="24.58" fill="#0072bc" stroke="#fff" stroke-miterlimit="10" stroke-width="0.25"/><rect x="215.37" y="96" width="1" height="27.17" fill="#0072bc" stroke="#fff" stroke-miterlimit="10" stroke-width="0.25"/><rect x="221.37" y="92.43" width="1" height="30.74" fill="#0072bc" stroke="#fff" stroke-miterlimit="10" stroke-width="0.25"/><rect x="226.36" y="92" width="1" height="31.17" fill="#0072bc" stroke="#fff" stroke-miterlimit="10" stroke-width="0.25"/><rect x="231.36" y="89" width="1" height="34.17" fill="#0072bc" stroke="#fff" stroke-miterlimit="10" stroke-width="0.25"/><rect x="235.36" y="75.66" width="1" height="47.5" fill="#0072bc" stroke="#fff" stroke-miterlimit="10" stroke-width="0.25"/><rect x="239.35" y="81.25" width="1" height="41.91" fill="#0072bc" stroke="#fff" stroke-miterlimit="10" stroke-width="0.25"/><rect x="243.35" y="84.05" width="1" height="39.12" fill="#0072bc" stroke="#fff" stroke-miterlimit="10" stroke-width="0.25"/><rect x="247.35" y="89.64" width="1" height="33.53" fill="#0072bc" stroke="#fff" stroke-miterlimit="10" stroke-width="0.25"/><rect x="251.35" y="107.34" width="1" height="15.83" fill="#0072bc" stroke="#fff" stroke-miterlimit="10" stroke-width="0.25"/><rect x="255.34" y="103.38" width="1" height="19.79" fill="#0072bc" stroke="#fff" stroke-miterlimit="10" stroke-width="0.25"/><rect x="259.34" y="105.18" width="1" height="17.99" fill="#0072bc" stroke="#fff" stroke-miterlimit="10" stroke-width="0.25"/><rect x="263.34" y="102" width="1" height="21.17" fill="#0072bc" stroke="#fff" stroke-miterlimit="10" stroke-width="0.25"/><rect x="268.33" y="104.12" width="1" height="19.05" fill="#0072bc" stroke="#fff" stroke-miterlimit="10" stroke-width="0.25"/><rect x="273.33" y="102" width="1" height="21.17" fill="#0072bc" stroke="#fff" stroke-miterlimit="10" stroke-width="0.25"/><rect x="278.32" y="88.79" width="1" height="34.38" fill="#0072bc" stroke="#fff" stroke-miterlimit="10" stroke-width="0.25"/><rect x="283.32" y="91.78" width="1" height="31.39" fill="#0072bc" stroke="#fff" stroke-miterlimit="10" stroke-width="0.25"/><rect x="288.32" y="84.31" width="1" height="38.86" fill="#0072bc" stroke="#fff" stroke-miterlimit="10" stroke-width="0.25"/><rect x="293.31" y="66.37" width="1" height="56.8" fill="#0072bc" stroke="#fff" stroke-miterlimit="10" stroke-width="0.25"/><rect x="298.31" y="52" width="1" height="71.17" fill="#0072bc" stroke="#fff" stroke-miterlimit="10" stroke-width="0.25"/><rect x="302.31" y="60" width="1" height="63.17" fill="#0072bc" stroke="#fff" stroke-miterlimit="10" stroke-width="0.25"/><rect x="306.3" y="45" width="1" height="78.17" fill="#0072bc" stroke="#fff" stroke-miterlimit="10" stroke-width="0.25"/><rect x="218.37" y="98.58" width="1" height="24.58" fill="#0072bc" stroke="#fff" stroke-miterlimit="10" stroke-width="0.25"/><rect x="223.37" y="96" width="1" height="27.17" fill="#0072bc" stroke="#fff" stroke-miterlimit="10" stroke-width="0.25"/><rect x="213.37" y="109" width="1" height="14.17" fill="#0072bc" stroke="#fff" stroke-miterlimit="10" stroke-width="0.25"/><rect x="220.37" y="95" width="1" height="28.17" fill="#0072bc" stroke="#fff" stroke-miterlimit="10" stroke-width="0.25"/><rect x="267.33" y="88.79" width="1" height="34.38" fill="#0072bc" stroke="#fff" stroke-miterlimit="10" stroke-width="0.25"/><rect x="272.33" y="91.78" width="1" height="31.39" fill="#0072bc" stroke="#fff" stroke-miterlimit="10" stroke-width="0.25"/><rect x="277.32" y="84.31" width="1" height="38.86" fill="#0072bc" stroke="#fff" stroke-miterlimit="10" stroke-width="0.25"/><rect x="282.32" y="77" width="1" height="46.17" fill="#0072bc" stroke="#fff" stroke-miterlimit="10" stroke-width="0.25"/><rect x="287.32" y="74" width="1" height="49.17" fill="#0072bc" stroke="#fff" stroke-miterlimit="10" stroke-width="0.25"/><rect x="292.31" y="59" width="1" height="64.17" fill="#0072bc" stroke="#fff" stroke-miterlimit="10" stroke-width="0.25"/><rect x="297.31" y="70" width="1" height="53.17" fill="#0072bc" stroke="#fff" stroke-miterlimit="10" stroke-width="0.25"/><rect x="310.3" y="51.43" width="1" height="71.74" fill="#0072bc" stroke="#fff" stroke-miterlimit="10" stroke-width="0.25"/><rect x="225.37" y="97" width="1" height="26.17" fill="#0072bc" stroke="#fff" stroke-miterlimit="10" stroke-width="0.25"/><rect x="230.36" y="96" width="1" height="27.17" fill="#0072bc" stroke="#fff" stroke-miterlimit="10" stroke-width="0.25"/><rect x="234.36" y="90" width="1" height="33.17" fill="#0072bc" stroke="#fff" stroke-miterlimit="10" stroke-width="0.25"/><rect x="238.36" y="66" width="1" height="57.17" fill="#0072bc" stroke="#fff" stroke-miterlimit="10" stroke-width="0.25"/><rect x="242.35" y="58" width="1" height="65.17" fill="#0072bc" stroke="#fff" stroke-miterlimit="10" stroke-width="0.25"/><rect x="246.35" y="78" width="1" height="45.17" fill="#0072bc" stroke="#fff" stroke-miterlimit="10" stroke-width="0.25"/><rect x="250.35" y="85" width="1" height="38.17" fill="#0072bc" stroke="#fff" stroke-miterlimit="10" stroke-width="0.25"/><rect x="254.34" y="83" width="1" height="40.17" fill="#0072bc" stroke="#fff" stroke-miterlimit="10" stroke-width="0.25"/><rect x="258.34" y="96" width="1" height="27.17" fill="#0072bc" stroke="#fff" stroke-miterlimit="10" stroke-width="0.25"/><rect x="262.34" y="107.34" width="1" height="15.83" fill="#0072bc" stroke="#fff" stroke-miterlimit="10" stroke-width="0.25"/><rect x="266.33" y="105" width="1" height="18.17" fill="#0072bc" stroke="#fff" stroke-miterlimit="10" stroke-width="0.25"/><rect x="271.33" y="105.18" width="1" height="17.99" fill="#0072bc" stroke="#fff" stroke-miterlimit="10" stroke-width="0.25"/><rect x="276.33" y="106" width="1" height="17.17" fill="#0072bc" stroke="#fff" stroke-miterlimit="10" stroke-width="0.25"/><rect x="281.32" y="107" width="1" height="16.17" fill="#0072bc" stroke="#fff" stroke-miterlimit="10" stroke-width="0.25"/><rect x="286.32" y="105" width="1" height="18.17" fill="#0072bc" stroke="#fff" stroke-miterlimit="10" stroke-width="0.25"/><rect x="291.31" y="92" width="1" height="31.17" fill="#0072bc" stroke="#fff" stroke-miterlimit="10" stroke-width="0.25"/><rect x="296.31" y="86" width="1" height="37.17" fill="#0072bc" stroke="#fff" stroke-miterlimit="10" stroke-width="0.25"/><rect x="301.31" y="84.31" width="1" height="38.86" fill="#0072bc" stroke="#fff" stroke-miterlimit="10" stroke-width="0.25"/><rect x="305.3" y="61" width="1" height="62.17" fill="#0072bc" stroke="#fff" stroke-miterlimit="10" stroke-width="0.25"/><rect x="309.3" y="57.4" width="1" height="65.76" fill="#0072bc" stroke="#fff" stroke-miterlimit="10" stroke-width="0.25"/><rect x="313.3" y="50" width="1" height="73.17" fill="#0072bc" stroke="#fff" stroke-miterlimit="10" stroke-width="0.25"/><rect x="316.29" y="40.96" width="1" height="82.2" fill="#0072bc" stroke="#fff" stroke-miterlimit="10" stroke-width="0.25"/><rect x="319.29" y="54" width="1" height="69.17" fill="#0072bc" stroke="#fff" stroke-miterlimit="10" stroke-width="0.25"/><rect x="208.88" y="125.96" width="8.47" height="3.04" fill="#bbbdbf"/><rect x="201.88" y="121.96" width="8.47" height="3.04" fill="#bbbdbf"/><rect x="201.88" y="107.96" width="8.47" height="3.04" fill="#bbbdbf"/><rect x="201.88" y="92.96" width="8.47" height="3.04" fill="#bbbdbf"/><rect x="201.88" y="78.96" width="8.47" height="3.04" fill="#bbbdbf"/><rect x="201.88" y="63.96" width="8.47" height="3.04" fill="#bbbdbf"/><rect x="201.88" y="49.96" width="8.47" height="3.04" fill="#bbbdbf"/><rect x="201.88" y="35.96" width="8.47" height="3.04" fill="#bbbdbf"/><rect x="225.45" y="125.96" width="8.47" height="3.04" fill="#bbbdbf"/><rect x="243.02" y="125.96" width="8.47" height="3.04" fill="#bbbdbf"/><rect x="262.44" y="125.96" width="8.47" height="3.04" fill="#bbbdbf"/><rect x="280.17" y="125.96" width="8.47" height="3.04" fill="#bbbdbf"/><rect x="298.74" y="125.96" width="8.47" height="3.04" fill="#bbbdbf"/><rect x="316.47" y="125.96" width="8.47" height="3.04" fill="#bbbdbf"/><line x1="212.03" y1="123.17" x2="322" y2="123.17" fill="none" stroke="#000" stroke-miterlimit="10" stroke-width="0.5"/></svg>