<svg xmlns="http://www.w3.org/2000/svg" width="350" height="148" viewBox="0 0 350 148"><rect width="350" height="148" fill="#f1f2f2"/><path d="M31.92,21.87V14.54h2.5a3.56,3.56,0,0,1,3.76,3.67,3.54,3.54,0,0,1-3.76,3.66Zm5.32-3.66a2.69,2.69,0,0,0-2.82-2.86H32.83v5.71h1.59A2.7,2.7,0,0,0,37.24,18.21Z" fill="#0072bc"/><path d="M39.26,19.21a2.63,2.63,0,1,1,5.26,0,2.63,2.63,0,1,1-5.26,0Zm4.39,0a1.78,1.78,0,1,0-3.52,0,1.78,1.78,0,1,0,3.52,0Z" fill="#0072bc"/><circle cx="17.55" cy="17.55" r="7.55" fill="#9dc5ff"/><circle cx="17.55" cy="17.55" r="4.8" fill="#0072bc"/><polyline points="14.8 17.55 16.63 19.38 20.29 15.72" fill="none" stroke="#fff" stroke-linecap="round" stroke-linejoin="round" stroke-width="0.75"/><path d="M201.92,21.87V14.54h2.5a3.56,3.56,0,0,1,3.76,3.67,3.54,3.54,0,0,1-3.76,3.66Zm5.32-3.66a2.69,2.69,0,0,0-2.82-2.86h-1.59v5.71h1.59A2.7,2.7,0,0,0,207.24,18.21Z" fill="#ef4a60"/><path d="M209.26,19.21a2.63,2.63,0,1,1,5.26,0,2.63,2.63,0,1,1-5.26,0Zm4.39,0a1.78,1.78,0,1,0-3.52,0,1.78,1.78,0,1,0,3.52,0Z" fill="#ef4a60"/><path d="M219.44,21.87V18.4c0-.95-.48-1.23-1.19-1.23a2.06,2.06,0,0,0-1.57.82v3.88h-.83V16.56h.83v.77a2.58,2.58,0,0,1,1.9-.9,1.5,1.5,0,0,1,1.68,1.71v3.73Z" fill="#ef4a60"/><path d="M222.07,16.93l-.42-.35a1.65,1.65,0,0,0,.71-1l-.15,0a.53.53,0,0,1-.53-.56.6.6,0,0,1,.58-.59c.38,0,.7.3.7.84A2.14,2.14,0,0,1,222.07,16.93Z" fill="#ef4a60"/><path d="M224.54,20.76V17.29h-.88v-.73h.88V15.11h.83v1.45h1.08v.73h-1.08v3.29c0,.4.18.68.53.68a.75.75,0,0,0,.56-.23l.24.63a1.32,1.32,0,0,1-1,.34A1.08,1.08,0,0,1,224.54,20.76Z" fill="#ef4a60"/><circle cx="187.55" cy="17.55" r="7.55" fill="#ffbcc1"/><circle cx="187.55" cy="17.55" r="4.8" fill="#ef4a60"/><line x1="189.55" y1="15.55" x2="185.55" y2="19.55" fill="none" stroke="#fff" stroke-linecap="round" stroke-linejoin="round" stroke-width="0.75"/><line x1="189.55" y1="19.55" x2="185.55" y2="15.55" fill="none" stroke="#fff" stroke-linecap="round" stroke-linejoin="round" stroke-width="0.75"/><rect x="77.26" y="35.29" width="17" height="18" fill="#0072bc" stroke="#fff" stroke-miterlimit="10" stroke-width="0.75"/><rect x="93.88" y="35.29" width="17" height="18" fill="#18375f" stroke="#fff" stroke-miterlimit="10" stroke-width="0.75"/><rect x="66.88" y="53.29" width="27" height="18" fill="#0072bc" stroke="#fff" stroke-miterlimit="10" stroke-width="0.75"/><rect x="93.88" y="53.29" width="30" height="18" fill="#18375f" stroke="#fff" stroke-miterlimit="10" stroke-width="0.75"/><rect x="59.88" y="71.29" width="34" height="18" fill="#0072bc" stroke="#fff" stroke-miterlimit="10" stroke-width="0.75"/><rect x="93.88" y="71.29" width="34" height="18" fill="#18375f" stroke="#fff" stroke-miterlimit="10" stroke-width="0.75"/><rect x="48.88" y="89.29" width="45" height="18" fill="#0072bc" stroke="#fff" stroke-miterlimit="10" stroke-width="0.75"/><rect x="93.88" y="89.29" width="45" height="18" fill="#18375f" stroke="#fff" stroke-miterlimit="10" stroke-width="0.75"/><rect x="71.38" y="107.29" width="22.5" height="18" fill="#0072bc" stroke="#fff" stroke-miterlimit="10" stroke-width="0.75"/><rect x="93.88" y="107.29" width="22.5" height="18" fill="#18375f" stroke="#fff" stroke-miterlimit="10" stroke-width="0.75"/><path d="M34.84,44.17c0-1,.48-2,1.55-2a1.31,1.31,0,0,1,1.06.46l-.24.35a1,1,0,0,0-.82-.39c-.74,0-1.07.75-1.07,1.5v.15a1.37,1.37,0,0,1,1.08-.59,1.15,1.15,0,0,1,1.25,1.22,1.26,1.26,0,0,1-1.34,1.24C35.24,46.14,34.84,45.21,34.84,44.17Zm2.33.74a.79.79,0,0,0-.88-.82,1.15,1.15,0,0,0-.95.56c0,.48.29,1.07.95,1.07A.84.84,0,0,0,37.17,44.91Z" fill="#5e5e5e"/><path d="M38.22,44.17c0-.93.41-2,1.46-2s1.45,1,1.45,2-.41,2-1.45,2S38.22,45.1,38.22,44.17Zm2.43,0c0-.76-.25-1.55-1-1.55s-1,.79-1,1.55.25,1.55,1,1.55S40.65,44.93,40.65,44.17Z" fill="#5e5e5e"/><path d="M43,44.29v1.22h-.32V44.29h-1.1V44h1.1V42.81H43V44h1.1v.29Z" fill="#5e5e5e"/><path d="M82.84,31.07V27.86l-1.3,3.21h-.19l-1.3-3.21v3.21h-.48V27.26h.69l1.19,2.94,1.18-2.94h.68v3.81Z" fill="#5e5e5e"/><path d="M85.91,31.07v-.31a1.18,1.18,0,0,1-.92.38.92.92,0,0,1-1-.91.89.89,0,0,1,1-.91,1.18,1.18,0,0,1,.92.37v-.5c0-.36-.3-.58-.7-.58a1.1,1.1,0,0,0-.85.39l-.2-.3a1.46,1.46,0,0,1,1.11-.46c.59,0,1.07.26,1.07.93v1.9Zm0-.58V30a1,1,0,0,0-.76-.33.6.6,0,1,0,0,1.2A.93.93,0,0,0,85.91,30.49Z" fill="#5e5e5e"/><path d="M87.2,31.07V27.26h.43v3.81Z" fill="#5e5e5e"/><path d="M88.33,29.69a1.38,1.38,0,0,1,1.36-1.45A1.35,1.35,0,0,1,91,29.72v.11H88.78a1,1,0,0,0,1,1,1.2,1.2,0,0,0,.86-.36l.21.28a1.5,1.5,0,0,1-1.1.43A1.37,1.37,0,0,1,88.33,29.69Zm1.35-1.09a.91.91,0,0,0-.9.91h1.81A.89.89,0,0,0,89.68,28.6Z" fill="#5e5e5e"/><path d="M97.21,31.07V27.26h2.5v.42h-2v1.23h2v.42h-2v1.74Z" fill="#5e5e5e"/><path d="M100.18,29.69a1.39,1.39,0,0,1,1.37-1.45,1.34,1.34,0,0,1,1.32,1.48v.11h-2.23a1,1,0,0,0,1,1,1.2,1.2,0,0,0,.86-.36l.21.28a1.52,1.52,0,0,1-1.1.43A1.37,1.37,0,0,1,100.18,29.69Zm1.36-1.09a.91.91,0,0,0-.9.91h1.81A.9.9,0,0,0,101.54,28.6Z" fill="#5e5e5e"/><path d="M106.9,31.07V29.2c0-.35-.15-.58-.51-.58a1,1,0,0,0-.73.43v2h-.43V29.2c0-.35-.15-.58-.51-.58a1,1,0,0,0-.73.43v2h-.43V28.31H104v.4a1.21,1.21,0,0,1,.9-.47.71.71,0,0,1,.74.52,1.13,1.13,0,0,1,.93-.52c.5,0,.77.28.77.84v2Z" fill="#5e5e5e"/><path d="M109.91,31.07v-.31a1.18,1.18,0,0,1-.92.38.92.92,0,0,1-1-.91.89.89,0,0,1,1-.91,1.18,1.18,0,0,1,.92.37v-.5c0-.36-.3-.58-.7-.58a1.1,1.1,0,0,0-.85.39l-.2-.3a1.46,1.46,0,0,1,1.11-.46c.59,0,1.07.26,1.07.93v1.9Zm0-.58V30a1,1,0,0,0-.76-.33.6.6,0,1,0,0,1.2A.93.93,0,0,0,109.91,30.49Z" fill="#5e5e5e"/><path d="M111.2,31.07V27.26h.43v3.81Z" fill="#5e5e5e"/><path d="M112.33,29.69a1.38,1.38,0,0,1,1.36-1.45A1.35,1.35,0,0,1,115,29.72v.11h-2.24a1,1,0,0,0,1,1,1.2,1.2,0,0,0,.86-.36l.21.28a1.5,1.5,0,0,1-1.1.43A1.37,1.37,0,0,1,112.33,29.69Zm1.35-1.09a.91.91,0,0,0-.9.91h1.81A.89.89,0,0,0,113.68,28.6Z" fill="#5e5e5e"/><path d="M31.56,63.07V59.88l-.61.65-.29-.29,1-1H32v3.81Z" fill="#5e5e5e"/><path d="M32.78,62.11a1.12,1.12,0,0,1,.91-1,1,1,0,0,1-.85-.92c0-.69.67-1,1.31-1s1.31.3,1.31,1a1,1,0,0,1-.85.92,1.13,1.13,0,0,1,.91,1c0,.64-.62,1-1.37,1S32.78,62.76,32.78,62.11Zm2.25,0c0-.5-.65-.71-.88-.74s-.89.24-.89.74.41.66.89.66S35,62.47,35,62.06ZM35,60.25c0-.39-.37-.63-.83-.63s-.83.24-.83.63.6.62.83.66S35,60.72,35,60.25Z" fill="#5e5e5e"/><path d="M36,61.88V61.5h1.37v.38Z" fill="#5e5e5e"/><path d="M37.9,62.53l.29-.32a1.26,1.26,0,0,0,1.06.51.83.83,0,0,0,.88-.82.8.8,0,0,0-.88-.82,1.25,1.25,0,0,0-.88.35L38,61.31V59.26h2.34v.42H38.5V61a1.32,1.32,0,0,1,.89-.35,1.17,1.17,0,0,1,1.22,1.22,1.26,1.26,0,0,1-1.36,1.26A1.57,1.57,0,0,1,37.9,62.53Z" fill="#5e5e5e"/><path d="M41.38,62.68l.24-.36a1,1,0,0,0,.82.39c.77,0,1.07-.77,1.07-1.5v-.14a1.38,1.38,0,0,1-1.08.59,1.16,1.16,0,0,1-1.25-1.22,1.26,1.26,0,0,1,1.34-1.25c1.06,0,1.47.94,1.47,2s-.48,2-1.55,2A1.34,1.34,0,0,1,41.38,62.68Zm2.11-2a1,1,0,0,0-1-1.06.82.82,0,0,0-.87.8.79.79,0,0,0,.88.83A1.16,1.16,0,0,0,43.49,60.68Z" fill="#5e5e5e"/><path d="M33.4,82.07V78.88l-.61.65-.29-.29,1-1h.41v3.81Z" fill="#5e5e5e"/><path d="M34.63,82.07v-.38C36,80.62,36.75,80,36.75,79.32a.72.72,0,0,0-.8-.7,1.31,1.31,0,0,0-1,.48l-.29-.3A1.63,1.63,0,0,1,36,78.2a1.16,1.16,0,0,1,1.28,1.12c0,.78-.79,1.49-1.85,2.33h1.87v.42Z" fill="#5e5e5e"/><path d="M37.85,80.88V80.5h1.37v.38Z" fill="#5e5e5e"/><path d="M40.41,82.07V78.88l-.61.65-.29-.29,1-1h.42v3.81Z" fill="#5e5e5e"/><path d="M42,82.07l1.54-3.39H41.51v-.42h2.6v.32l-1.56,3.49Z" fill="#5e5e5e"/><path d="M35.69,100.53l.29-.32a1.24,1.24,0,0,0,1.05.51.83.83,0,0,0,.89-.82.8.8,0,0,0-.88-.82,1.25,1.25,0,0,0-.88.35l-.35-.12v-2h2.33v.42H36.28V99a1.32,1.32,0,0,1,.9-.34,1.16,1.16,0,0,1,1.22,1.21A1.26,1.26,0,0,1,37,101.14,1.56,1.56,0,0,1,35.69,100.53Z" fill="#5e5e5e"/><path d="M38.86,99.88V99.5h1.37v.38Z" fill="#5e5e5e"/><path d="M41.42,101.07V97.88l-.61.65-.29-.29,1-1h.41v3.81Z" fill="#5e5e5e"/><path d="M43.36,101.07V97.88l-.62.65-.28-.29.95-1h.42v3.81Z" fill="#5e5e5e"/><path d="M36.16,116.17c0-.93.42-2,1.46-2s1.46,1,1.46,2-.42,2-1.46,2S36.16,117.1,36.16,116.17Zm2.44,0c0-.76-.25-1.55-1-1.55s-1,.79-1,1.55.25,1.55,1,1.55S38.6,116.93,38.6,116.17Z" fill="#5e5e5e"/><path d="M39.54,116.88v-.38h1.38v.38Z" fill="#5e5e5e"/><path d="M43.08,118.07v-1H41.27v-.4l1.64-2.45h.65v2.43h.54v.42h-.54v1Zm0-3.37-1.34,2h1.34Z" fill="#5e5e5e"/><rect x="252.05" y="35.29" width="17" height="18" fill="#0072bc" stroke="#fff" stroke-miterlimit="10" stroke-width="0.75"/><rect x="268.67" y="35.29" width="17" height="18" fill="#18375f" stroke="#fff" stroke-miterlimit="10" stroke-width="0.75"/><rect x="241.67" y="53.29" width="27" height="18" fill="#0072bc" stroke="#fff" stroke-miterlimit="10" stroke-width="0.75"/><rect x="268.67" y="53.29" width="30" height="18" fill="#18375f" stroke="#fff" stroke-miterlimit="10" stroke-width="0.75"/><rect x="234.67" y="71.29" width="34" height="18" fill="#0072bc" stroke="#fff" stroke-miterlimit="10" stroke-width="0.75"/><rect x="268.67" y="71.29" width="34" height="18" fill="#18375f" stroke="#fff" stroke-miterlimit="10" stroke-width="0.75"/><rect x="223.67" y="89.29" width="45" height="18" fill="#0072bc" stroke="#fff" stroke-miterlimit="10" stroke-width="0.75"/><rect x="268.67" y="89.29" width="45" height="18" fill="#18375f" stroke="#fff" stroke-miterlimit="10" stroke-width="0.75"/><rect x="246.17" y="107.29" width="22.5" height="18" fill="#0072bc" stroke="#fff" stroke-miterlimit="10" stroke-width="0.75"/><rect x="268.67" y="107.29" width="22.5" height="18" fill="#18375f" stroke="#fff" stroke-miterlimit="10" stroke-width="0.75"/><path d="M209.62,116.17c0-1,.48-2,1.56-2a1.27,1.27,0,0,1,1,.46L212,115a1,1,0,0,0-.81-.39c-.74,0-1.08.75-1.08,1.5v.15a1.39,1.39,0,0,1,1.09-.59,1.15,1.15,0,0,1,1.24,1.22,1.25,1.25,0,0,1-1.33,1.24C210,118.14,209.62,117.21,209.62,116.17Zm2.33.74a.78.78,0,0,0-.87-.82,1.15,1.15,0,0,0-1,.57,1,1,0,0,0,1,1.06A.83.83,0,0,0,212,116.91Z" fill="#5e5e5e"/><path d="M213,116.17c0-.93.41-2,1.46-2s1.46,1,1.46,2-.42,2-1.46,2S213,117.1,213,116.17Zm2.43,0c0-.76-.24-1.55-1-1.55s-1,.79-1,1.55.25,1.55,1,1.55S215.43,116.93,215.43,116.17Z" fill="#5e5e5e"/><path d="M217.8,116.29v1.22h-.33v-1.22h-1.09V116h1.09v-1.19h.33V116h1.1v.29Z" fill="#5e5e5e"/><path d="M257.62,31.07V27.86l-1.29,3.21h-.2l-1.29-3.21v3.21h-.48V27.26H255l1.19,2.94,1.19-2.94h.68v3.81Z" fill="#5e5e5e"/><path d="M260.7,31.07v-.31a1.21,1.21,0,0,1-.92.38.92.92,0,0,1-1-.91.89.89,0,0,1,1-.91,1.19,1.19,0,0,1,.92.37v-.5c0-.36-.3-.58-.7-.58a1.1,1.1,0,0,0-.85.39l-.2-.3a1.45,1.45,0,0,1,1.11-.46c.59,0,1.07.26,1.07.93v1.9Zm0-.58V30a1,1,0,0,0-.76-.33.61.61,0,1,0,0,1.2A.93.93,0,0,0,260.7,30.49Z" fill="#5e5e5e"/><path d="M262,31.07V27.26h.43v3.81Z" fill="#5e5e5e"/><path d="M263.11,29.69a1.39,1.39,0,0,1,1.36-1.45,1.34,1.34,0,0,1,1.33,1.48v.11h-2.23a1,1,0,0,0,1,1,1.2,1.2,0,0,0,.86-.36l.2.28a1.49,1.49,0,0,1-1.09.43A1.37,1.37,0,0,1,263.11,29.69Zm1.36-1.09a.92.92,0,0,0-.91.91h1.82A.9.9,0,0,0,264.47,28.6Z" fill="#5e5e5e"/><path d="M271,31.07V27.26h2.5v.42h-2v1.23h2v.42h-2v1.74Z" fill="#5e5e5e"/><path d="M274,29.69a1.38,1.38,0,0,1,1.36-1.45,1.34,1.34,0,0,1,1.33,1.48v.11h-2.23a1,1,0,0,0,1,1,1.22,1.22,0,0,0,.86-.36l.2.28a1.5,1.5,0,0,1-1.1.43A1.37,1.37,0,0,1,274,29.69Zm1.36-1.09a.92.92,0,0,0-.91.91h1.82A.9.9,0,0,0,275.33,28.6Z" fill="#5e5e5e"/><path d="M280.69,31.07V29.2c0-.35-.15-.58-.51-.58a1,1,0,0,0-.74.43v2H279V29.2c0-.35-.14-.58-.51-.58a1,1,0,0,0-.72.43v2h-.43V28.31h.43v.4a1.19,1.19,0,0,1,.9-.47.7.7,0,0,1,.73.52,1.16,1.16,0,0,1,.93-.52c.51,0,.77.28.77.84v2Z" fill="#5e5e5e"/><path d="M283.7,31.07v-.31a1.21,1.21,0,0,1-.92.38.92.92,0,0,1-1-.91.89.89,0,0,1,1-.91,1.19,1.19,0,0,1,.92.37v-.5c0-.36-.3-.58-.7-.58a1.1,1.1,0,0,0-.85.39l-.2-.3a1.45,1.45,0,0,1,1.11-.46c.59,0,1.07.26,1.07.93v1.9Zm0-.58V30a1,1,0,0,0-.76-.33.61.61,0,1,0,0,1.2A.93.93,0,0,0,283.7,30.49Z" fill="#5e5e5e"/><path d="M285,31.07V27.26h.43v3.81Z" fill="#5e5e5e"/><path d="M286.11,29.69a1.38,1.38,0,0,1,1.36-1.45,1.34,1.34,0,0,1,1.33,1.48v.11h-2.23a1,1,0,0,0,1,1,1.22,1.22,0,0,0,.86-.36l.2.28a1.49,1.49,0,0,1-1.09.43A1.37,1.37,0,0,1,286.11,29.69Zm1.36-1.09a.92.92,0,0,0-.91.91h1.82A.9.9,0,0,0,287.47,28.6Z" fill="#5e5e5e"/><path d="M207.35,101.07V97.88l-.61.65-.29-.29,1-1h.41v3.81Z" fill="#5e5e5e"/><path d="M208.57,100.11a1.12,1.12,0,0,1,.91-1,1,1,0,0,1-.85-.92c0-.69.67-1,1.3-1s1.31.3,1.31,1a1,1,0,0,1-.85.92,1.12,1.12,0,0,1,.91,1c0,.64-.62,1-1.37,1S208.57,100.76,208.57,100.11Zm2.25,0c0-.5-.65-.71-.89-.74s-.88.24-.88.74.41.66.88.66S210.82,100.47,210.82,100.06Zm-.06-1.81c0-.39-.37-.63-.83-.63s-.82.24-.82.63.6.62.82.66S210.76,98.72,210.76,98.25Z" fill="#5e5e5e"/><path d="M211.77,99.88V99.5h1.37v.38Z" fill="#5e5e5e"/><path d="M213.69,100.53l.29-.32a1.24,1.24,0,0,0,1.05.51.83.83,0,0,0,.88-.82.8.8,0,0,0-.87-.82,1.25,1.25,0,0,0-.88.35l-.35-.12v-2h2.33v.42h-1.86V99a1.32,1.32,0,0,1,.9-.34,1.15,1.15,0,0,1,1.21,1.21,1.25,1.25,0,0,1-1.36,1.26A1.54,1.54,0,0,1,213.69,100.53Z" fill="#5e5e5e"/><path d="M217.16,100.68l.24-.36a1,1,0,0,0,.82.39c.78,0,1.08-.77,1.08-1.5a.71.71,0,0,0,0-.14,1.36,1.36,0,0,1-1.07.59A1.16,1.16,0,0,1,217,98.44a1.26,1.26,0,0,1,1.34-1.25c1.07,0,1.48.94,1.48,2s-.49,2-1.56,2A1.35,1.35,0,0,1,217.16,100.68Zm2.12-2a1,1,0,0,0-1-1.06.83.83,0,0,0-.88.8.79.79,0,0,0,.89.83A1.17,1.17,0,0,0,219.28,98.68Z" fill="#5e5e5e"/><path d="M208.18,82.07V78.88l-.61.65-.28-.29,1-1h.42v3.81Z" fill="#5e5e5e"/><path d="M209.41,82.07v-.38c1.38-1.07,2.13-1.71,2.13-2.37a.72.72,0,0,0-.81-.7,1.29,1.29,0,0,0-1,.48l-.29-.3a1.63,1.63,0,0,1,1.32-.6A1.17,1.17,0,0,1,212,79.32c0,.78-.79,1.49-1.86,2.33H212v.42Z" fill="#5e5e5e"/><path d="M212.64,80.88V80.5H214v.38Z" fill="#5e5e5e"/><path d="M215.2,82.07V78.88l-.61.65-.29-.29,1-1h.41v3.81Z" fill="#5e5e5e"/><path d="M216.81,82.07l1.54-3.39h-2v-.42h2.6v.32l-1.56,3.49Z" fill="#5e5e5e"/><path d="M210.48,61.53l.29-.32a1.24,1.24,0,0,0,1,.51.83.83,0,0,0,.88-.82.8.8,0,0,0-.87-.82,1.21,1.21,0,0,0-.88.35l-.35-.12V58.26h2.33v.42h-1.86V60a1.32,1.32,0,0,1,.89-.35,1.17,1.17,0,0,1,1.22,1.22,1.25,1.25,0,0,1-1.36,1.26A1.54,1.54,0,0,1,210.48,61.53Z" fill="#5e5e5e"/><path d="M213.64,60.88V60.5H215v.38Z" fill="#5e5e5e"/><path d="M216.21,62.07V58.88l-.62.65-.28-.29.95-1h.42v3.81Z" fill="#5e5e5e"/><path d="M218.14,62.07V58.88l-.61.65-.29-.29,1-1h.42v3.81Z" fill="#5e5e5e"/><path d="M211,42.17c0-.93.41-2,1.46-2s1.46,1,1.46,2-.42,2-1.46,2S211,43.1,211,42.17Zm2.43,0c0-.76-.24-1.55-1-1.55s-1,.79-1,1.55.24,1.55,1,1.55S213.38,42.93,213.38,42.17Z" fill="#5e5e5e"/><path d="M214.33,42.88V42.5h1.37v.38Z" fill="#5e5e5e"/><path d="M217.87,44.07v-1h-1.81v-.4l1.63-2.45h.65v2.43h.54v.42h-.54v1Zm0-3.37-1.34,2h1.34Z" fill="#5e5e5e"/></svg>