<svg xmlns="http://www.w3.org/2000/svg" width="350" height="148" viewBox="0 0 350 148"><rect width="350" height="148" fill="#f1f2f2"/><path d="M31.92,21.87V14.54h2.5a3.56,3.56,0,0,1,3.76,3.67,3.54,3.54,0,0,1-3.76,3.66Zm5.32-3.66a2.69,2.69,0,0,0-2.82-2.86H32.83v5.71h1.59A2.7,2.7,0,0,0,37.24,18.21Z" fill="#0072bc"/><path d="M39.26,19.21a2.63,2.63,0,1,1,5.26,0,2.63,2.63,0,1,1-5.26,0Zm4.39,0a1.78,1.78,0,1,0-3.52,0,1.78,1.78,0,1,0,3.52,0Z" fill="#0072bc"/><circle cx="17.55" cy="17.55" r="7.55" fill="#9dc5ff"/><circle cx="17.55" cy="17.55" r="4.8" fill="#0072bc"/><polyline points="14.8 17.55 16.63 19.38 20.29 15.72" fill="none" stroke="#fff" stroke-linecap="round" stroke-linejoin="round" stroke-width="0.75"/><path d="M201.92,21.87V14.54h2.5a3.56,3.56,0,0,1,3.76,3.67,3.54,3.54,0,0,1-3.76,3.66Zm5.32-3.66a2.69,2.69,0,0,0-2.82-2.86h-1.59v5.71h1.59A2.7,2.7,0,0,0,207.24,18.21Z" fill="#ef4a60"/><path d="M209.26,19.21a2.63,2.63,0,1,1,5.26,0,2.63,2.63,0,1,1-5.26,0Zm4.39,0a1.78,1.78,0,1,0-3.52,0,1.78,1.78,0,1,0,3.52,0Z" fill="#ef4a60"/><path d="M219.44,21.87V18.4c0-.95-.48-1.23-1.19-1.23a2.06,2.06,0,0,0-1.57.82v3.88h-.83V16.56h.83v.77a2.58,2.58,0,0,1,1.9-.9,1.5,1.5,0,0,1,1.68,1.71v3.73Z" fill="#ef4a60"/><path d="M222.07,16.93l-.42-.35a1.65,1.65,0,0,0,.71-1l-.15,0a.53.53,0,0,1-.53-.56.6.6,0,0,1,.58-.59c.38,0,.7.3.7.84A2.14,2.14,0,0,1,222.07,16.93Z" fill="#ef4a60"/><path d="M224.54,20.76V17.29h-.88v-.73h.88V15.11h.83v1.45h1.08v.73h-1.08v3.29c0,.4.18.68.53.68a.75.75,0,0,0,.56-.23l.24.63a1.32,1.32,0,0,1-1,.34A1.08,1.08,0,0,1,224.54,20.76Z" fill="#ef4a60"/><circle cx="187.55" cy="17.55" r="7.55" fill="#ffbcc1"/><circle cx="187.55" cy="17.55" r="4.8" fill="#ef4a60"/><line x1="189.55" y1="15.55" x2="185.55" y2="19.55" fill="none" stroke="#fff" stroke-linecap="round" stroke-linejoin="round" stroke-width="0.75"/><line x1="189.55" y1="19.55" x2="185.55" y2="15.55" fill="none" stroke="#fff" stroke-linecap="round" stroke-linejoin="round" stroke-width="0.75"/><rect x="71.26" y="35.29" width="17" height="18" fill="#0072bc" stroke="#fff" stroke-miterlimit="10" stroke-width="0.75"/><rect x="87.88" y="35.29" width="17" height="18" fill="#18375f" stroke="#fff" stroke-miterlimit="10" stroke-width="0.75"/><rect x="60.88" y="53.29" width="27" height="18" fill="#0072bc" stroke="#fff" stroke-miterlimit="10" stroke-width="0.75"/><rect x="87.88" y="53.29" width="30" height="18" fill="#18375f" stroke="#fff" stroke-miterlimit="10" stroke-width="0.75"/><rect x="53.88" y="71.29" width="34" height="18" fill="#0072bc" stroke="#fff" stroke-miterlimit="10" stroke-width="0.75"/><rect x="87.88" y="71.29" width="34" height="18" fill="#18375f" stroke="#fff" stroke-miterlimit="10" stroke-width="0.75"/><rect x="42.88" y="89.29" width="45" height="18" fill="#0072bc" stroke="#fff" stroke-miterlimit="10" stroke-width="0.75"/><rect x="87.88" y="89.29" width="45" height="18" fill="#18375f" stroke="#fff" stroke-miterlimit="10" stroke-width="0.75"/><rect x="65.38" y="107.29" width="22.5" height="18" fill="#0072bc" stroke="#fff" stroke-miterlimit="10" stroke-width="0.75"/><rect x="87.88" y="107.29" width="22.5" height="18" fill="#18375f" stroke="#fff" stroke-miterlimit="10" stroke-width="0.75"/><rect x="24.67" y="42.72" width="10.03" height="3.15" fill="#bbbdbf"/><rect x="74.67" y="26.72" width="10.03" height="3.15" fill="#bbbdbf"/><rect x="91.67" y="26.72" width="10.03" height="3.15" fill="#bbbdbf"/><rect x="24.67" y="60.72" width="10.03" height="3.15" fill="#bbbdbf"/><rect x="24.67" y="78.72" width="10.03" height="3.15" fill="#bbbdbf"/><rect x="24.67" y="96.72" width="10.03" height="3.15" fill="#bbbdbf"/><rect x="24.67" y="114.72" width="10.03" height="3.15" fill="#bbbdbf"/><rect x="250.26" y="35.29" width="17" height="18" fill="#9dc5ff" stroke="#fff" stroke-miterlimit="10" stroke-width="0.75"/><rect x="266.88" y="35.29" width="17" height="18" fill="#8395b9" stroke="#fff" stroke-miterlimit="10" stroke-width="0.75"/><rect x="239.88" y="53.29" width="27" height="18" fill="#589be5" stroke="#fff" stroke-miterlimit="10" stroke-width="0.75"/><rect x="266.88" y="53.29" width="30" height="18" fill="#506489" stroke="#fff" stroke-miterlimit="10" stroke-width="0.75"/><rect x="232.88" y="71.29" width="34" height="18" fill="#589be5" stroke="#fff" stroke-miterlimit="10" stroke-width="0.75"/><rect x="266.88" y="71.29" width="34" height="18" fill="#506489" stroke="#fff" stroke-miterlimit="10" stroke-width="0.75"/><rect x="221.88" y="89.29" width="45" height="18" fill="#0072bc" stroke="#fff" stroke-miterlimit="10" stroke-width="0.75"/><rect x="266.88" y="89.29" width="45" height="18" fill="#18375f" stroke="#fff" stroke-miterlimit="10" stroke-width="0.75"/><rect x="244.38" y="107.29" width="22.5" height="18" fill="#9dc5ff" stroke="#fff" stroke-miterlimit="10" stroke-width="0.75"/><rect x="266.88" y="107.29" width="22.5" height="18" fill="#8395b9" stroke="#fff" stroke-miterlimit="10" stroke-width="0.75"/><rect x="203.67" y="42.72" width="10.03" height="3.15" fill="#bbbdbf"/><rect x="253.67" y="26.72" width="10.03" height="3.15" fill="#bbbdbf"/><rect x="270.67" y="26.72" width="10.03" height="3.15" fill="#bbbdbf"/><rect x="203.67" y="60.72" width="10.03" height="3.15" fill="#bbbdbf"/><rect x="203.67" y="78.72" width="10.03" height="3.15" fill="#bbbdbf"/><rect x="203.67" y="96.72" width="10.03" height="3.15" fill="#bbbdbf"/><rect x="203.67" y="114.72" width="10.03" height="3.15" fill="#bbbdbf"/></svg>