<svg xmlns="http://www.w3.org/2000/svg" width="41" height="38.74" viewBox="0 0 41 38.74"><path d="M27.16,18.15C30.27,16.74,30.74,6,28.9,2.83,26.5-1.3,15.1-.47,11.5,2.48a27.93,27.93,0,0,0-.36,6.25H22.45v1H11.15l-5,0c-8.68,0-8.5,18.84,3,18.84a37.11,37.11,0,0,1,1.15-6.26C12.5,15.87,22,20.47,27.16,18.15ZM15.33,7.2a2.36,2.36,0,1,1,2.36-2.36A2.36,2.36,0,0,1,15.33,7.2Z" fill="#333"/><path d="M31.54,10.15a32.42,32.42,0,0,1-1,6.26c-2.27,6.45-11.81,1.86-16.93,4.18C10.46,22,10,32.74,11.83,35.9c2.39,4.13,13.8,3.31,17.4.35A27.85,27.85,0,0,0,29.58,30H18.28V29h11.3l5.57,0C43.14,29,43.86,10.15,31.54,10.15ZM25,31.13a2.36,2.36,0,1,1-2.36,2.36A2.36,2.36,0,0,1,25,31.13Z" fill="#333"/></svg>