<svg xmlns="http://www.w3.org/2000/svg" width="41" height="41" viewBox="0 0 41 41"><rect width="41" height="41" fill="#333"/><path d="M26.26,31.4H24a1,1,0,0,1-.63-.19,1.22,1.22,0,0,1-.36-.5l-2-5.19H11.36l-2,5.19a1.17,1.17,0,0,1-.36.48,1,1,0,0,1-.63.21H6.11l8.6-21.49h2.95Zm-14.09-8h8l-3.38-8.74a16.53,16.53,0,0,1-.64-2q-.16.62-.33,1.14t-.3.9Z" fill="#fff"/><path d="M32.12,11.44a1.58,1.58,0,0,1-.16.72,2.11,2.11,0,0,1-1,1,1.85,1.85,0,0,1-.74.15,1.8,1.8,0,0,1-.73-.15,2,2,0,0,1-.6-.42,1.94,1.94,0,0,1-.41-.6,1.72,1.72,0,0,1-.15-.72,1.85,1.85,0,0,1,.15-.74,1.92,1.92,0,0,1,.41-.62,2,2,0,0,1,.6-.41,1.8,1.8,0,0,1,.73-.15,1.85,1.85,0,0,1,.74.15,2,2,0,0,1,1,1A1.7,1.7,0,0,1,32.12,11.44Zm-.6,4.77V31.4H28.85V16.21Z" fill="#fff"/></svg>