<svg xmlns="http://www.w3.org/2000/svg" width="41" height="38.84" viewBox="0 0 41 38.84"><path d="M40.94,28.14c-.08.8-13.18-13-13.18-13h.31S41,27.38,41,27.6l0,.54Z" fill="#333"/><path d="M13.37,23.88c.18-.39,6.7,5.58,6.3,6.19l-.07.11-.07.1C19,31,12.85,25,13.27,24.11l.05-.11,0-.12Z" fill="#333"/><path d="M22.1,32.38c.64.25,6.32,6.39,6.32,6.39h-.54s-6.05-6-6-6a2,2,0,0,0,.25-.36Z" fill="#333"/><path d="M41,27.48c0,.18,0,.35,0,.52L27.88,15.12H25.76a22.21,22.21,0,0,1,.41,4.3,22.64,22.64,0,0,1-.4,4.23h3.41a3.3,3.3,0,0,1,0,6.6H23.42A21.85,21.85,0,0,1,22,32.54l6.33,6.23h.86A11.82,11.82,0,0,0,41,27.49ZM22.86,19.42A19.26,19.26,0,0,1,19.6,30.18L13.32,24a10.85,10.85,0,0,0,1-4.58A10.9,10.9,0,0,0,3.44,8.53H0V0H3.44A19.44,19.44,0,0,1,22.86,19.42Z" fill="#333"/><path d="M41,11.82a11.77,11.77,0,0,1-2.74,7.56A11.77,11.77,0,0,1,41,26.94L41,28,27.88,15.12h1.3a3.3,3.3,0,1,0,0-6.59H23.39A22.83,22.83,0,0,0,15.25,0H29.18A11.83,11.83,0,0,1,41,11.82Z" fill="#333"/><path d="M22,32.54a22.94,22.94,0,0,1-6.64,6.23h13ZM19.6,30.18A19.44,19.44,0,0,1,3.44,38.84H0V30.31H3.44A10.91,10.91,0,0,0,13.32,24l6.28,6.18Z" fill="#333"/></svg>