<svg xmlns="http://www.w3.org/2000/svg" width="41.13" height="43.11" viewBox="0 0 41.13 43.11"><path d="M13.11,34.58a2.69,2.69,0,0,1-2.67,2.68,2.61,2.61,0,0,1-2.67-2.68V23.12a2.68,2.68,0,0,1,2.67-2.67,2.6,2.6,0,0,1,2.67,2.67Z" fill="#333"/><path d="M20.75,37.64a2.68,2.68,0,0,1-2.67,2.67,2.51,2.51,0,0,1-2.55-2.67V20.19a2.69,2.69,0,0,1,2.68-2.67,2.61,2.61,0,0,1,2.67,2.67V37.64Z" fill="#333"/><path d="M5.35,32a2.69,2.69,0,0,1-2.68,2.67A2.61,2.61,0,0,1,0,32V25.8a2.7,2.7,0,0,1,2.67-2.68A2.7,2.7,0,0,1,5.35,25.8Z" fill="#333"/><path d="M28.39,40.44a2.61,2.61,0,1,1-5.22,0V17.27a2.68,2.68,0,1,1,5.35,0V40.44Z" fill="#333"/><path d="M36.8,39.29A5.29,5.29,0,0,1,35.4,39l-3.19-1a1,1,0,0,1,.64-1.91l3.31,1A2.28,2.28,0,0,0,39.09,35V13.7a2.21,2.21,0,0,0-1.53-2.16L6.37,2.11a2.37,2.37,0,0,0-2,.26,2.69,2.69,0,0,0-.89,1.91V18.92a1,1,0,0,1-1,1,1,1,0,0,1-1-1V4.28A4.07,4.07,0,0,1,3.18.84,4.17,4.17,0,0,1,7,.2L38.07,9.63a4.39,4.39,0,0,1,3.06,4.2V35.09a4.47,4.47,0,0,1-1.79,3.57,8.38,8.38,0,0,1-2.54.63" fill="#333"/></svg>