<svg xmlns="http://www.w3.org/2000/svg" width="41" height="31.62" viewBox="0 0 41 31.62"><path d="M20.5,27.46C9.18,27.46,0,21.31,0,13.73S9.18,0,20.5,0,41,6.15,41,13.73,31.82,27.46,20.5,27.46ZM23.64,5.37C15,5.37,8.06,9.57,8.06,14.75s7,9.39,15.58,9.39,15-2.87,15-9.39S32.24,5.37,23.64,5.37Z" fill="#333" fill-rule="evenodd"/><path d="M31.22,21.26a16.3,16.3,0,0,1,2,.74,4.07,4.07,0,0,1,1,.71,2.86,2.86,0,0,1,.45.66l4.89,8.24h-7.9l-3.7-6.94A8.78,8.78,0,0,0,26.7,23a1.27,1.27,0,0,0-.94-.43H23.88v9h-7V8.53H30.94s6.39.11,6.39,6.2S31.22,21.26,31.22,21.26Zm-3-7.73H23.94v3.93h4.24a1.94,1.94,0,0,0,2-2A1.83,1.83,0,0,0,28.18,13.53Z" fill="#333" fill-rule="evenodd"/></svg>