<?xml version="1.0" encoding="UTF-8"?>
<svg xmlns="http://www.w3.org/2000/svg" version="1.1" viewBox="0 0 105.5 61.7">
  <defs>
    <style>
      .cls-1 {
        fill: #58595b;
      }

      .cls-2 {
        fill: none;
        stroke: #4d4d4d;
        stroke-miterlimit: 10;
        stroke-width: .5px;
      }
    </style>
  </defs>
  <!-- Generator: Adobe Illustrator 28.7.1, SVG Export Plug-In . SVG Version: 1.2.0 Build 142)  -->
  <g>
    <g id="Layer_1">
      <g id="a">
        <path class="cls-2" d="M29.3,3.3c16.1,0,29.1,13,29.1,29.1s-13,29.1-29.1,29.1S.2,48.5.2,32.4,13.3,3.3,29.3,3.3h0"/>
        <path class="cls-2" d="M29.3,32.4c8,0,14.5,6.5,14.5,14.5s-6.5,14.5-14.5,14.5-14.5-6.5-14.5-14.5,6.5-14.5,14.5-14.5h0"/>
        <path class="cls-2" d="M29.3,48.5c3.6,0,6.5,2.9,6.5,6.5s-2.9,6.5-6.5,6.5-6.5-2.9-6.5-6.5,2.9-6.5,6.5-6.5h0"/>
        <path class="cls-1" d="M70.7,7.2v-.6l.8-.7c1.8-1.7,2.6-2.6,2.6-3.7s-.3-1.4-1.4-1.4-1.2.3-1.5.6l-.3-.7C71.4.3,72.1,0,72.9,0,74.4,0,75.1,1,75.1,2.1s-.9,2.4-2.4,3.8l-.6.5h3.2v.8h-4.6Z"/>
        <path class="cls-1" d="M81,3.6c0,2.4-.9,3.7-2.5,3.7s-2.3-1.3-2.3-3.6S77.2,0,78.7,0s2.3,1.3,2.3,3.6ZM77.1,3.7c0,1.8.6,2.9,1.4,2.9s1.4-1.1,1.4-2.9-.4-2.9-1.4-2.9-1.5,1-1.5,2.9h0Z"/>
        <path class="cls-1" d="M86.5,3.6c0,2.4-.9,3.7-2.5,3.7s-2.3-1.3-2.3-3.6S82.7,0,84.2,0s2.3,1.3,2.3,3.6ZM82.7,3.7c0,1.8.6,2.9,1.4,2.9s1.4-1.1,1.4-2.9-.4-2.9-1.4-2.9-1.5,1-1.5,2.9h0Z"/>
        <path class="cls-1" d="M94.4,3.6c0,2.4-.9,3.7-2.5,3.7s-2.3-1.3-2.3-3.6S90.6,0,92.1,0s2.3,1.3,2.3,3.6ZM90.5,3.7c0,1.8.6,2.9,1.4,2.9s1.5-1.1,1.5-2.9-.4-2.9-1.4-2.9-1.4,1-1.4,2.9h0Z"/>
        <path class="cls-1" d="M100,3.6c0,2.4-.9,3.7-2.5,3.7s-2.3-1.3-2.3-3.6S96.2,0,97.7,0s2.3,1.3,2.3,3.6ZM96.1,3.7c0,1.8.6,2.9,1.4,2.9s1.4-1.1,1.4-2.9-.4-2.9-1.4-2.9-1.5,1-1.5,2.9h0Z"/>
        <path class="cls-1" d="M105.5,3.6c0,2.4-.9,3.7-2.5,3.7s-2.3-1.3-2.3-3.6S101.7,0,103.2,0s2.3,1.3,2.3,3.6ZM101.7,3.7c0,1.8.6,2.9,1.4,2.9s1.4-1.1,1.4-2.9-.4-2.9-1.4-2.9-1.5,1-1.5,2.9h0Z"/>
        <path class="cls-1" d="M74.9,28.8h-2.7l-.3,1.8h.6c.5,0,1.1.1,1.5.4.6.3,1,.9,1,1.8,0,1.4-1.1,2.4-2.6,2.4s-1.4-.2-1.8-.4l.2-.7c.3.2.9.4,1.5.4s1.7-.6,1.7-1.5-.6-1.6-2-1.6-.7,0-1,0l.5-3.4h3.4v.8h0Z"/>
        <path class="cls-1" d="M81,31.4c0,2.4-.9,3.7-2.5,3.7s-2.3-1.3-2.3-3.6,1-3.7,2.5-3.7,2.3,1.3,2.3,3.6ZM77.1,31.6c0,1.8.6,2.9,1.4,2.9s1.4-1.1,1.4-2.9-.4-2.9-1.4-2.9-1.5,1-1.5,2.9h0Z"/>
        <path class="cls-1" d="M88.8,31.4c0,2.4-.9,3.7-2.5,3.7s-2.3-1.3-2.3-3.6,1-3.7,2.5-3.7,2.3,1.3,2.3,3.6ZM85,31.6c0,1.8.6,2.9,1.4,2.9s1.5-1.1,1.5-2.9-.4-2.9-1.4-2.9-1.4,1-1.4,2.9h0Z"/>
        <path class="cls-1" d="M94.4,31.4c0,2.4-.9,3.7-2.5,3.7s-2.3-1.3-2.3-3.6,1-3.7,2.5-3.7,2.3,1.3,2.3,3.6ZM90.5,31.6c0,1.8.6,2.9,1.4,2.9s1.5-1.1,1.5-2.9-.4-2.9-1.4-2.9-1.4,1-1.4,2.9h0Z"/>
        <path class="cls-1" d="M100,31.4c0,2.4-.9,3.7-2.5,3.7s-2.3-1.3-2.3-3.6,1-3.7,2.5-3.7,2.3,1.3,2.3,3.6ZM96.1,31.6c0,1.8.6,2.9,1.4,2.9s1.4-1.1,1.4-2.9-.4-2.9-1.4-2.9-1.5,1-1.5,2.9h0Z"/>
        <path class="cls-1" d="M72.8,46.5h0l-1.2.7-.2-.7,1.5-.8h.8v7.1h-.9v-6.2h0Z"/>
        <path class="cls-1" d="M81,49c0,2.4-.9,3.7-2.5,3.7s-2.3-1.3-2.3-3.6,1-3.7,2.5-3.7,2.3,1.3,2.3,3.6ZM77.1,49.2c0,1.8.6,2.9,1.4,2.9s1.4-1.1,1.4-2.9-.4-2.9-1.4-2.9-1.5,1-1.5,2.9h0Z"/>
        <path class="cls-1" d="M88.8,49c0,2.4-.9,3.7-2.5,3.7s-2.3-1.3-2.3-3.6,1-3.7,2.5-3.7,2.3,1.3,2.3,3.6ZM85,49.2c0,1.8.6,2.9,1.4,2.9s1.5-1.1,1.5-2.9-.4-2.9-1.4-2.9-1.4,1-1.4,2.9h0Z"/>
        <path class="cls-1" d="M94.4,49c0,2.4-.9,3.7-2.5,3.7s-2.3-1.3-2.3-3.6,1-3.7,2.5-3.7,2.3,1.3,2.3,3.6ZM90.5,49.2c0,1.8.6,2.9,1.4,2.9s1.5-1.1,1.5-2.9-.4-2.9-1.4-2.9-1.4,1-1.4,2.9h0Z"/>
        <path class="cls-1" d="M100,49c0,2.4-.9,3.7-2.5,3.7s-2.3-1.3-2.3-3.6,1-3.7,2.5-3.7,2.3,1.3,2.3,3.6ZM96.1,49.2c0,1.8.6,2.9,1.4,2.9s1.4-1.1,1.4-2.9-.4-2.9-1.4-2.9-1.5,1-1.5,2.9h0Z"/>
        <line class="cls-2" x1="29.3" y1="3.3" x2="67.4" y2="3.3"/>
        <line class="cls-2" x1="29.3" y1="32.4" x2="67.4" y2="32.4"/>
        <line class="cls-2" x1="29.3" y1="48.5" x2="67.4" y2="48.5"/>
      </g>
    </g>
  </g>
</svg>