<?xml version="1.0" encoding="UTF-8"?><svg id="a" xmlns="http://www.w3.org/2000/svg" width="125.52" height="77.95" viewBox="0 0 125.52 77.95"><path d="M35.9,6.39c19.69,0,35.65,15.96,35.65,35.65s-15.96,35.65-35.65,35.65S.25,61.74.25,42.05,16.21,6.39,35.9,6.39h0" fill="none" stroke="#4d4d4d" stroke-miterlimit="10" stroke-width=".5"/><path d="M35.9,42.05c9.85,0,17.83,7.98,17.83,17.83s-7.98,17.83-17.83,17.83-17.83-7.98-17.83-17.83,7.98-17.83,17.83-17.83h0" fill="none" stroke="#4d4d4d" stroke-miterlimit="10" stroke-width=".5"/><path d="M35.9,61.76c4.4,0,7.97,3.57,7.97,7.97s-3.57,7.97-7.97,7.97-7.97-3.57-7.97-7.97,3.57-7.97,7.97-7.97h0" fill="none" stroke="#4d4d4d" stroke-miterlimit="10" stroke-width=".5"/><path d="M86.64,10.04v-.65l.83-.8c1.99-1.9,2.89-2.9,2.9-4.08,0-.79-.38-1.52-1.55-1.52-.71,0-1.29.36-1.66.66l-.34-.74c.54-.46,1.31-.79,2.21-.79,1.68,0,2.39,1.15,2.39,2.27,0,1.44-1.04,2.6-2.69,4.19l-.62.58v.02h3.5v.88h-4.98Z" fill="#58595b" stroke-width="0"/><path d="M97.97,6.06c0,2.65-.98,4.11-2.71,4.11-1.52,0-2.55-1.43-2.58-4.01,0-2.61,1.13-4.05,2.71-4.05s2.58,1.46,2.58,3.95ZM93.74,6.18c0,2.03.62,3.18,1.58,3.18,1.08,0,1.59-1.26,1.59-3.25s-.49-3.18-1.58-3.18c-.92,0-1.6,1.13-1.6,3.25Z" fill="#58595b" stroke-width="0"/><path d="M104.13,6.06c0,2.65-.98,4.11-2.71,4.11-1.52,0-2.55-1.43-2.58-4.01,0-2.61,1.13-4.05,2.71-4.05s2.58,1.46,2.58,3.95ZM99.9,6.18c0,2.03.62,3.18,1.58,3.18,1.08,0,1.59-1.26,1.59-3.25s-.49-3.18-1.58-3.18c-.92,0-1.6,1.13-1.6,3.25Z" fill="#58595b" stroke-width="0"/><path d="M104.76,11.52c.26-.71.59-1.99.72-2.87l1.18-.12c-.28,1.02-.8,2.35-1.14,2.91l-.75.07Z" fill="#58595b" stroke-width="0"/><path d="M112.77,6.06c0,2.65-.98,4.11-2.71,4.11-1.52,0-2.55-1.43-2.58-4.01,0-2.61,1.13-4.05,2.71-4.05s2.58,1.46,2.58,3.95ZM108.54,6.18c0,2.03.62,3.18,1.58,3.18,1.08,0,1.6-1.26,1.6-3.25s-.49-3.18-1.58-3.18c-.92,0-1.59,1.13-1.59,3.25Z" fill="#58595b" stroke-width="0"/><path d="M118.93,6.06c0,2.65-.98,4.11-2.71,4.11-1.52,0-2.55-1.43-2.58-4.01,0-2.61,1.13-4.05,2.71-4.05s2.58,1.46,2.58,3.95ZM114.69,6.18c0,2.03.62,3.18,1.58,3.18,1.08,0,1.59-1.26,1.59-3.25s-.49-3.18-1.58-3.18c-.92,0-1.6,1.13-1.6,3.25Z" fill="#58595b" stroke-width="0"/><path d="M125.08,6.06c0,2.65-.98,4.11-2.71,4.11-1.52,0-2.55-1.43-2.58-4.01,0-2.61,1.13-4.05,2.71-4.05s2.58,1.46,2.58,3.95ZM120.85,6.18c0,2.03.62,3.18,1.58,3.18,1.08,0,1.59-1.26,1.59-3.25s-.49-3.18-1.58-3.18c-.92,0-1.6,1.13-1.6,3.25Z" fill="#58595b" stroke-width="0"/><path d="M91.29,38.27h-2.97l-.3,2c.18-.02.35-.05.64-.05.6,0,1.2.13,1.68.42.61.35,1.12,1.02,1.12,2,0,1.52-1.21,2.66-2.9,2.66-.85,0-1.57-.24-1.94-.48l.26-.8c.32.19.96.43,1.67.43,1,0,1.85-.65,1.85-1.69-.01-1.01-.68-1.73-2.24-1.73-.44,0-.79.05-1.08.08l.5-3.74h3.73v.89Z" fill="#58595b" stroke-width="0"/><path d="M97.97,41.2c0,2.65-.98,4.11-2.71,4.11-1.52,0-2.55-1.43-2.58-4.01,0-2.61,1.13-4.05,2.71-4.05s2.58,1.46,2.58,3.95ZM93.74,41.32c0,2.03.62,3.18,1.58,3.18,1.08,0,1.59-1.26,1.59-3.25s-.49-3.18-1.58-3.18c-.92,0-1.6,1.13-1.6,3.25Z" fill="#58595b" stroke-width="0"/><path d="M98.6,46.66c.26-.71.59-1.99.72-2.87l1.18-.12c-.28,1.02-.8,2.35-1.14,2.91l-.75.07Z" fill="#58595b" stroke-width="0"/><path d="M106.61,41.2c0,2.65-.98,4.11-2.71,4.11-1.52,0-2.55-1.43-2.58-4.01,0-2.61,1.13-4.05,2.71-4.05s2.58,1.46,2.58,3.95ZM102.38,41.32c0,2.03.62,3.18,1.58,3.18,1.08,0,1.6-1.26,1.6-3.25s-.49-3.18-1.58-3.18c-.92,0-1.59,1.13-1.59,3.25Z" fill="#58595b" stroke-width="0"/><path d="M112.77,41.2c0,2.65-.98,4.11-2.71,4.11-1.52,0-2.55-1.43-2.58-4.01,0-2.61,1.13-4.05,2.71-4.05s2.58,1.46,2.58,3.95ZM108.54,41.32c0,2.03.62,3.18,1.58,3.18,1.08,0,1.6-1.26,1.6-3.25s-.49-3.18-1.58-3.18c-.92,0-1.59,1.13-1.59,3.25Z" fill="#58595b" stroke-width="0"/><path d="M118.93,41.2c0,2.65-.98,4.11-2.71,4.11-1.52,0-2.55-1.43-2.58-4.01,0-2.61,1.13-4.05,2.71-4.05s2.58,1.46,2.58,3.95ZM114.69,41.32c0,2.03.62,3.18,1.58,3.18,1.08,0,1.59-1.26,1.59-3.25s-.49-3.18-1.58-3.18c-.92,0-1.6,1.13-1.6,3.25Z" fill="#58595b" stroke-width="0"/><path d="M88.93,57.78h-.02l-1.36.73-.2-.8,1.7-.91h.9v7.8h-1.02v-6.81Z" fill="#58595b" stroke-width="0"/><path d="M97.97,60.61c0,2.65-.98,4.11-2.71,4.11-1.52,0-2.55-1.43-2.58-4.01,0-2.61,1.13-4.05,2.71-4.05s2.58,1.46,2.58,3.95ZM93.74,60.73c0,2.03.62,3.18,1.58,3.18,1.08,0,1.59-1.26,1.59-3.25s-.49-3.18-1.58-3.18c-.92,0-1.6,1.13-1.6,3.25Z" fill="#58595b" stroke-width="0"/><path d="M98.6,66.07c.26-.71.59-1.99.72-2.87l1.18-.12c-.28,1.02-.8,2.35-1.14,2.91l-.75.07Z" fill="#58595b" stroke-width="0"/><path d="M106.61,60.61c0,2.65-.98,4.11-2.71,4.11-1.52,0-2.55-1.43-2.58-4.01,0-2.61,1.13-4.05,2.71-4.05s2.58,1.46,2.58,3.95ZM102.38,60.73c0,2.03.62,3.18,1.58,3.18,1.08,0,1.6-1.26,1.6-3.25s-.49-3.18-1.58-3.18c-.92,0-1.59,1.13-1.59,3.25Z" fill="#58595b" stroke-width="0"/><path d="M112.77,60.61c0,2.65-.98,4.11-2.71,4.11-1.52,0-2.55-1.43-2.58-4.01,0-2.61,1.13-4.05,2.71-4.05s2.58,1.46,2.58,3.95ZM108.54,60.73c0,2.03.62,3.18,1.58,3.18,1.08,0,1.6-1.26,1.6-3.25s-.49-3.18-1.58-3.18c-.92,0-1.59,1.13-1.59,3.25Z" fill="#58595b" stroke-width="0"/><path d="M118.93,60.61c0,2.65-.98,4.11-2.71,4.11-1.52,0-2.55-1.43-2.58-4.01,0-2.61,1.13-4.05,2.71-4.05s2.58,1.46,2.58,3.95ZM114.69,60.73c0,2.03.62,3.18,1.58,3.18,1.08,0,1.59-1.26,1.59-3.25s-.49-3.18-1.58-3.18c-.92,0-1.6,1.13-1.6,3.25Z" fill="#58595b" stroke-width="0"/><line x1="35.9" y1="6.39" x2="82.61" y2="6.39" fill="none" stroke="#4d4d4d" stroke-miterlimit="10" stroke-width=".5"/><line x1="35.9" y1="42.05" x2="82.61" y2="42.05" fill="none" stroke="#4d4d4d" stroke-miterlimit="10" stroke-width=".5"/><line x1="35.9" y1="61.76" x2="82.61" y2="61.76" fill="none" stroke="#4d4d4d" stroke-miterlimit="10" stroke-width=".5"/></svg>