<svg xmlns="http://www.w3.org/2000/svg" width="350" height="148" viewBox="0 0 350 148"><rect width="350" height="148" fill="#f1f2f2"/><path d="M31.92,21.87V14.54h2.5a3.56,3.56,0,0,1,3.76,3.67,3.54,3.54,0,0,1-3.76,3.66Zm5.32-3.66a2.69,2.69,0,0,0-2.82-2.86H32.83v5.71h1.59A2.7,2.7,0,0,0,37.24,18.21Z" fill="#0072bc"/><path d="M39.26,19.21a2.63,2.63,0,1,1,5.26,0,2.63,2.63,0,1,1-5.26,0Zm4.39,0a1.78,1.78,0,1,0-3.52,0,1.78,1.78,0,1,0,3.52,0Z" fill="#0072bc"/><circle cx="17.55" cy="17.55" r="7.55" fill="#9dc5ff"/><circle cx="17.55" cy="17.55" r="4.8" fill="#0072bc"/><polyline points="14.8 17.55 16.63 19.38 20.29 15.72" fill="none" stroke="#fff" stroke-linecap="round" stroke-linejoin="round" stroke-width="0.75"/><path d="M201.92,21.87V14.54h2.5a3.56,3.56,0,0,1,3.76,3.67,3.54,3.54,0,0,1-3.76,3.66Zm5.32-3.66a2.69,2.69,0,0,0-2.82-2.86h-1.59v5.71h1.59A2.7,2.7,0,0,0,207.24,18.21Z" fill="#ef4a60"/><path d="M209.26,19.21a2.63,2.63,0,1,1,5.26,0,2.63,2.63,0,1,1-5.26,0Zm4.39,0a1.78,1.78,0,1,0-3.52,0,1.78,1.78,0,1,0,3.52,0Z" fill="#ef4a60"/><path d="M219.44,21.87V18.4c0-.95-.48-1.23-1.19-1.23a2.06,2.06,0,0,0-1.57.82v3.88h-.83V16.56h.83v.77a2.58,2.58,0,0,1,1.9-.9,1.5,1.5,0,0,1,1.68,1.71v3.73Z" fill="#ef4a60"/><path d="M222.07,16.93l-.42-.35a1.65,1.65,0,0,0,.71-1l-.15,0a.53.53,0,0,1-.53-.56.6.6,0,0,1,.58-.59c.38,0,.7.3.7.84A2.14,2.14,0,0,1,222.07,16.93Z" fill="#ef4a60"/><path d="M224.54,20.76V17.29h-.88v-.73h.88V15.11h.83v1.45h1.08v.73h-1.08v3.29c0,.4.18.68.53.68a.75.75,0,0,0,.56-.23l.24.63a1.32,1.32,0,0,1-1,.34A1.08,1.08,0,0,1,224.54,20.76Z" fill="#ef4a60"/><circle cx="187.55" cy="17.55" r="7.55" fill="#ffbcc1"/><circle cx="187.55" cy="17.55" r="4.8" fill="#ef4a60"/><line x1="189.55" y1="15.55" x2="185.55" y2="19.55" fill="none" stroke="#fff" stroke-linecap="round" stroke-linejoin="round" stroke-width="0.75"/><line x1="189.55" y1="19.55" x2="185.55" y2="15.55" fill="none" stroke="#fff" stroke-linecap="round" stroke-linejoin="round" stroke-width="0.75"/><path d="M31.25,102.08a59.08,59.08,0,0,1,118.16,0" fill="none" stroke="#0072bc" stroke-linecap="round" stroke-linejoin="round"/><path d="M31.25,102.08a29.54,29.54,0,0,1,59.08,0" fill="none" stroke="#0072bc" stroke-linecap="round" stroke-linejoin="round"/><path d="M31.25,102.08a44.31,44.31,0,0,1,88.62,0" fill="none" stroke="#0072bc" stroke-linecap="round" stroke-linejoin="round"/><path d="M90.49,102.08a29.54,29.54,0,1,1,59.08,0" fill="none" stroke="#0072bc" stroke-linecap="round" stroke-linejoin="round" stroke-width="0.25"/><path d="M60.87,102.08a29.54,29.54,0,0,1,59.08,0" fill="none" stroke="#0072bc" stroke-linecap="round" stroke-linejoin="round" stroke-width="0.75"/><path d="M90.33,102.08a14.77,14.77,0,0,1,29.54,0" fill="none" stroke="#0072bc" stroke-linecap="round" stroke-linejoin="round" stroke-width="0.5"/><path d="M31.25,102.08a14.77,14.77,0,1,1,29.54,0" fill="none" stroke="#0072bc" stroke-linecap="round" stroke-linejoin="round" stroke-width="0.5"/><path d="M119.87,102.08a14.77,14.77,0,0,1,29.54,0" fill="none" stroke="#0072bc" stroke-linecap="round" stroke-linejoin="round" stroke-width="0.5"/><circle cx="31.47" cy="102.01" r="5.49" fill="#0072bc"/><circle cx="60.54" cy="102.56" r="1.65" fill="#0072bc"/><circle cx="90.16" cy="102.56" r="3.29" fill="#0072bc"/><circle cx="119.79" cy="102.56" r="3.84" fill="#0072bc"/><circle cx="149.41" cy="102.56" r="3.29" fill="#0072bc"/><rect x="25.5" y="109.43" width="10.03" height="3.15" fill="#bbbdbf"/><rect x="56.5" y="109.43" width="10.03" height="3.15" fill="#bbbdbf"/><rect x="85.5" y="109.43" width="10.03" height="3.15" fill="#bbbdbf"/><rect x="114.5" y="109.43" width="10.03" height="3.15" fill="#bbbdbf"/><rect x="144.47" y="109.43" width="10.03" height="3.15" fill="#bbbdbf"/><path d="M201.86,102.08a59.08,59.08,0,0,1,118.16,0" fill="none" stroke="#0072bc" stroke-linecap="round" stroke-linejoin="round"/><path d="M201.94,102.08a29.54,29.54,0,0,1,59.08,0" fill="none" stroke="#0072bc" stroke-linecap="round" stroke-linejoin="round"/><path d="M201.4,102.08a44.31,44.31,0,1,1,88.62,0" fill="none" stroke="#0072bc" stroke-linecap="round" stroke-linejoin="round"/><path d="M231.4,102.08a44.31,44.31,0,0,1,88.62,0" fill="none" stroke="#0072bc" stroke-linecap="round" stroke-linejoin="round" stroke-width="2"/><path d="M216.4,102.08a44.31,44.31,0,0,1,88.62,0" fill="none" stroke="#0072bc" stroke-linecap="round" stroke-linejoin="round"/><path d="M260.94,102.08a29.54,29.54,0,1,1,59.08,0" fill="none" stroke="#0072bc" stroke-linecap="round" stroke-linejoin="round" stroke-width="0.25"/><path d="M245.94,102.08a29.54,29.54,0,1,1,59.08,0" fill="none" stroke="#0072bc" stroke-linecap="round" stroke-linejoin="round"/><path d="M215.94,102.08a29.54,29.54,0,0,1,59.08,0" fill="none" stroke="#0072bc" stroke-linecap="round" stroke-linejoin="round" stroke-width="0.25"/><path d="M230.94,102.08a29.54,29.54,0,1,1,59.08,0" fill="none" stroke="#0072bc" stroke-linecap="round" stroke-linejoin="round" stroke-width="0.75"/><path d="M260.48,102.08a14.77,14.77,0,1,1,29.54,0" fill="none" stroke="#0072bc" stroke-linecap="round" stroke-linejoin="round" stroke-width="0.5"/><path d="M201.25,102.08a14.77,14.77,0,1,1,29.54,0" fill="none" stroke="#0072bc" stroke-linecap="round" stroke-linejoin="round" stroke-width="0.5"/><path d="M246.25,102.08a14.77,14.77,0,0,1,29.54,0" fill="none" stroke="#0072bc" stroke-linecap="round" stroke-linejoin="round" stroke-width="0.5"/><path d="M275.25,102.08a14.77,14.77,0,0,1,29.54,0" fill="none" stroke="#0072bc" stroke-linecap="round" stroke-linejoin="round" stroke-width="0.5"/><path d="M216.48,102.08a14.77,14.77,0,1,1,29.54,0" fill="none" stroke="#0072bc" stroke-linecap="round" stroke-linejoin="round" stroke-width="0.5"/><path d="M201.25,102.08a7.39,7.39,0,0,1,14.77,0" fill="none" stroke="#0072bc" stroke-linecap="round" stroke-linejoin="round" stroke-width="0.5"/><path d="M216.25,102.08a7.39,7.39,0,0,1,14.77,0" fill="none" stroke="#0072bc" stroke-linecap="round" stroke-linejoin="round" stroke-width="0.5"/><path d="M231.25,102.08a7.39,7.39,0,0,1,14.77,0" fill="none" stroke="#0072bc" stroke-linecap="round" stroke-linejoin="round" stroke-width="0.5"/><path d="M246.25,102.08a7.39,7.39,0,0,1,14.77,0" fill="none" stroke="#0072bc" stroke-linecap="round" stroke-linejoin="round" stroke-width="0.5"/><path d="M261.25,102.08a7.39,7.39,0,0,1,14.77,0" fill="none" stroke="#0072bc" stroke-linecap="round" stroke-linejoin="round" stroke-width="0.5"/><path d="M275.25,102.08a7.39,7.39,0,0,1,14.77,0" fill="none" stroke="#0072bc" stroke-linecap="round" stroke-linejoin="round" stroke-width="0.5"/><path d="M290.25,102.08a7.39,7.39,0,0,1,14.77,0" fill="none" stroke="#0072bc" stroke-linecap="round" stroke-linejoin="round" stroke-width="0.5"/><path d="M305.25,102.08a7.39,7.39,0,0,1,14.77,0" fill="none" stroke="#0072bc" stroke-linecap="round" stroke-linejoin="round" stroke-width="0.5"/><path d="M231.48,102.08a14.77,14.77,0,1,1,29.54,0" fill="none" stroke="#0072bc" stroke-linecap="round" stroke-linejoin="round" stroke-width="0.5"/><path d="M290.48,102.08a14.77,14.77,0,1,1,29.54,0" fill="none" stroke="#0072bc" stroke-linecap="round" stroke-linejoin="round" stroke-width="0.5"/><circle cx="201.47" cy="102.01" r="5.49" fill="#0072bc"/><circle cx="231.54" cy="102.56" r="5" fill="#0072bc"/><circle cx="275.54" cy="102.56" r="3" fill="#0072bc"/><circle cx="216.54" cy="102.56" r="1.65" fill="#0072bc"/><circle cx="246.54" cy="102.56" r="1.65" fill="#0072bc"/><circle cx="261.16" cy="102.56" r="3.29" fill="#0072bc"/><circle cx="289.79" cy="102.56" r="4.5" fill="#0072bc"/><circle cx="304.79" cy="102.56" r="3.21" fill="#0072bc"/><circle cx="319.41" cy="102.56" r="3.29" fill="#0072bc"/><rect x="195.5" y="109.43" width="10.03" height="3.15" fill="#bbbdbf"/><rect x="226.5" y="109.43" width="10.03" height="3.15" fill="#bbbdbf"/><rect x="211.5" y="109.43" width="10.03" height="3.15" fill="#bbbdbf"/><rect x="241.5" y="109.43" width="10.03" height="3.15" fill="#bbbdbf"/><rect x="270.5" y="109.43" width="10.03" height="3.15" fill="#bbbdbf"/><rect x="299.5" y="109.43" width="10.03" height="3.15" fill="#bbbdbf"/><rect x="255.5" y="109.43" width="10.03" height="3.15" fill="#bbbdbf"/><rect x="284.5" y="109.43" width="10.03" height="3.15" fill="#bbbdbf"/><rect x="314.47" y="109.43" width="10.03" height="3.15" fill="#bbbdbf"/></svg>