<svg xmlns="http://www.w3.org/2000/svg" width="10cm" height="10cm" viewBox="0 0 283.46 283.46"><rect x="0.5" y="0.5" width="282.47" height="282.47" fill="#fff"/><rect width="283.46" height="283.46" fill="#fff"/><path d="M283.46,283.46H0V0H283.46ZM1,282.47H282.47V1H1Z" transform="translate(0 0)" fill="#676767"/><path d="M28.35,198.43a113.39,113.39,0,1,1,226.77,0" transform="translate(0 0)" fill="none" stroke="#676767" stroke-linecap="round" stroke-linejoin="round" stroke-width="3"/><path d="M28.35,198.43a56.69,56.69,0,1,1,113.38,0" transform="translate(0 0)" fill="none" stroke="#676767" stroke-linecap="round" stroke-linejoin="round" stroke-width="3"/><path d="M85,198.43a56.7,56.7,0,1,1,113.39,0" transform="translate(0 0)" fill="none" stroke="#676767" stroke-linecap="round" stroke-linejoin="round" stroke-width="3"/><path d="M141.73,198.43a28.35,28.35,0,1,1,56.7,0" transform="translate(0 0)" fill="none" stroke="#676767" stroke-linecap="round" stroke-linejoin="round" stroke-width="3"/><path d="M85,198.43a28.35,28.35,0,1,1,56.69,0" transform="translate(0 0)" fill="none" stroke="#676767" stroke-linecap="round" stroke-linejoin="round" stroke-width="3"/><path d="M28.35,198.43a28.35,28.35,0,1,1,56.69,0" transform="translate(0 0)" fill="none" stroke="#676767" stroke-linecap="round" stroke-linejoin="round" stroke-width="3"/><path d="M198.43,198.43a28.35,28.35,0,1,1,56.69,0" transform="translate(0 0)" fill="none" stroke="#676767" stroke-linecap="round" stroke-linejoin="round" stroke-width="3"/><line x1="28.35" y1="198.43" x2="255.12" y2="198.43" fill="none" stroke="#676767" stroke-linecap="round" stroke-linejoin="round" stroke-width="3"/></svg>