<svg xmlns="http://www.w3.org/2000/svg" width="10cm" height="10cm" viewBox="0 0 283.46 283.46"><rect x="0.5" y="0.5" width="282.47" height="282.47" fill="#fff"/><rect width="283.46" height="283.46" fill="#fff"/><path d="M283.46,283.46H0V0H283.46ZM1,282.47H282.47V1H1Z" fill="#676767"/><path d="M141.73,28.35A113.39,113.39,0,1,0,255.12,141.73,113.38,113.38,0,0,0,141.73,28.35Zm0,215.19A101.81,101.81,0,1,1,243.54,141.73,101.81,101.81,0,0,1,141.73,243.54Z" fill="#676767"/><path d="M217.88,217.88c-77.84-45.23-152.3,0-152.3,0s50.36-101.94,183.63-76.15" fill="none" stroke="#676767" stroke-linecap="round" stroke-linejoin="round" stroke-width="3"/><path d="M34,141.73s41.75,27.77,31.56,76.15" fill="none" stroke="#676767" stroke-linecap="round" stroke-linejoin="round" stroke-width="3"/><path d="M141.73,39.69" fill="none" stroke="#2c2e31" stroke-linecap="round" stroke-linejoin="round" stroke-width="3"/><path d="M141.73,34S108.07,147.4,217.88,217.88" fill="none" stroke="#676767" stroke-linecap="round" stroke-linejoin="round" stroke-width="3"/><path d="M65.65,65.65s70.41,43.2,152.29-.12c0,0-15.36,55.14,31.27,76.2" fill="none" stroke="#676767" stroke-linecap="round" stroke-linejoin="round" stroke-width="3"/><path d="M65.65,65.65" fill="none" stroke="#2c2e31" stroke-linecap="round" stroke-linejoin="round" stroke-width="3"/><path d="M141.73,249.21S128.55,147.4,249.21,141.73" fill="none" stroke="#676767" stroke-linecap="round" stroke-linejoin="round" stroke-width="3"/><circle cx="65.58" cy="217.88" r="5.67" fill="#fff"/><circle cx="217.88" cy="217.88" r="5.67" fill="#fff"/><circle cx="249.21" cy="141.73" r="5.67" fill="#fff"/><circle cx="217.94" cy="65.53" r="5.67" fill="#fff"/><circle cx="141.73" cy="34.02" r="5.67" fill="#fff"/><circle cx="65.65" cy="65.65" r="5.67" fill="#fff"/><circle cx="34.02" cy="141.73" r="5.67" fill="#fff"/></svg>