<svg xmlns="http://www.w3.org/2000/svg" xmlns:xlink="http://www.w3.org/1999/xlink" width="350" height="148" viewBox="0 0 350 148"><defs><linearGradient id="a" x1="-257.99" y1="337.6" x2="-305.84" y2="389.29" gradientTransform="matrix(1, 0, 0, -1, 387.5, 427)" gradientUnits="userSpaceOnUse"><stop offset="0" stop-color="#0072bc"/><stop offset="1" stop-color="#00b398"/></linearGradient><linearGradient id="b" x1="-272.83" y1="385.29" x2="-324.38" y2="314.36" gradientTransform="matrix(1, 0, 0, -1, 387.5, 427)" gradientUnits="userSpaceOnUse"><stop offset="0" stop-color="#ef4a60"/><stop offset="1" stop-color="#00b398"/></linearGradient><linearGradient id="c" x1="-261.46" y1="374.03" x2="-335.59" y2="327.28" xlink:href="#b"/><linearGradient id="d" x1="-281.4" y1="389.82" x2="-310.79" y2="307.22" xlink:href="#b"/><linearGradient id="e" x1="-259.96" y1="327.01" x2="-321.81" y2="385.1" xlink:href="#a"/><linearGradient id="f" x1="-278.25" y1="309.86" x2="-329" y2="379.2" xlink:href="#a"/><linearGradient id="g" x1="-263.96" y1="324.15" x2="-338.04" y2="339.03" xlink:href="#a"/><linearGradient id="h" x1="-288.92" y1="383.14" x2="-323.28" y2="372.94" xlink:href="#b"/><linearGradient id="i" x1="-282.78" y1="312.38" x2="-336.97" y2="348.02" xlink:href="#a"/><linearGradient id="j" x1="-261.22" y1="360.21" x2="-312.02" y2="384.09" xlink:href="#b"/><linearGradient id="k" x1="-272.68" y1="322.56" x2="-317.35" y2="318.66" xlink:href="#a"/><linearGradient id="l" x1="-255.49" y1="357.83" x2="-337.74" y2="363.92" xlink:href="#b"/><linearGradient id="m" x1="-267.88" y1="371.22" x2="-317.17" y2="380.36" xlink:href="#b"/><linearGradient id="n" x1="-289.84" y1="314.47" x2="-326.49" y2="328.73" xlink:href="#a"/><linearGradient id="o" x1="-293.75" y1="309.79" x2="-335.68" y2="358.79" xlink:href="#a"/><linearGradient id="p" x1="-298.62" y1="307.96" x2="-329.7" y2="374.51" xlink:href="#a"/><linearGradient id="q" x1="-253.87" y1="351.47" x2="-340.06" y2="358.89" xlink:href="#b"/><linearGradient id="r" x1="-254.15" y1="355.64" x2="-341.31" y2="347.39" xlink:href="#b"/></defs><rect width="350" height="148" fill="#f1f2f2"/><path d="M31.92,21.87V14.54h2.5a3.56,3.56,0,0,1,3.76,3.67,3.54,3.54,0,0,1-3.76,3.66Zm5.32-3.66a2.69,2.69,0,0,0-2.82-2.86H32.83v5.71h1.59A2.7,2.7,0,0,0,37.24,18.21Z" fill="#0072bc"/><path d="M39.26,19.21a2.63,2.63,0,1,1,5.26,0,2.63,2.63,0,1,1-5.26,0Zm4.39,0a1.78,1.78,0,1,0-3.52,0,1.78,1.78,0,1,0,3.52,0Z" fill="#0072bc"/><circle cx="17.55" cy="17.55" r="7.55" fill="#9dc5ff"/><circle cx="17.55" cy="17.55" r="4.8" fill="#0072bc"/><polyline points="14.8 17.55 16.63 19.38 20.29 15.72" fill="none" stroke="#fff" stroke-linecap="round" stroke-linejoin="round" stroke-width="0.75"/><path d="M201.92,21.87V14.54h2.5a3.56,3.56,0,0,1,3.76,3.67,3.54,3.54,0,0,1-3.76,3.66Zm5.32-3.66a2.69,2.69,0,0,0-2.82-2.86h-1.59v5.71h1.59A2.7,2.7,0,0,0,207.24,18.21Z" fill="#ef4a60"/><path d="M209.26,19.21a2.63,2.63,0,1,1,5.26,0,2.63,2.63,0,1,1-5.26,0Zm4.39,0a1.78,1.78,0,1,0-3.52,0,1.78,1.78,0,1,0,3.52,0Z" fill="#ef4a60"/><path d="M219.44,21.87V18.4c0-.95-.48-1.23-1.19-1.23a2.06,2.06,0,0,0-1.57.82v3.88h-.83V16.56h.83v.77a2.58,2.58,0,0,1,1.9-.9,1.5,1.5,0,0,1,1.68,1.71v3.73Z" fill="#ef4a60"/><path d="M222.07,16.93l-.42-.35a1.65,1.65,0,0,0,.71-1l-.15,0a.53.53,0,0,1-.53-.56.6.6,0,0,1,.58-.59c.38,0,.7.3.7.84A2.14,2.14,0,0,1,222.07,16.93Z" fill="#ef4a60"/><path d="M224.54,20.76V17.29h-.88v-.73h.88V15.11h.83v1.45h1.08v.73h-1.08v3.29c0,.4.18.68.53.68a.75.75,0,0,0,.56-.23l.24.63a1.32,1.32,0,0,1-1,.34A1.08,1.08,0,0,1,224.54,20.76Z" fill="#ef4a60"/><circle cx="187.55" cy="17.55" r="7.55" fill="#ffbcc1"/><circle cx="187.55" cy="17.55" r="4.8" fill="#ef4a60"/><line x1="189.55" y1="15.55" x2="185.55" y2="19.55" fill="none" stroke="#fff" stroke-linecap="round" stroke-linejoin="round" stroke-width="0.75"/><line x1="189.55" y1="19.55" x2="185.55" y2="15.55" fill="none" stroke="#fff" stroke-linecap="round" stroke-linejoin="round" stroke-width="0.75"/><path d="M90,31.81A46.16,46.16,0,0,1,136.13,76l-2.3.1A43.87,43.87,0,0,0,90,34.12Z" fill="#ef4a60"/><path d="M56.65,46.06a46.17,46.17,0,0,1,66.72,63.84h0" fill="none"/><path d="M136.18,77.56a46.18,46.18,0,0,1-45.76,46.59,45.38,45.38,0,0,1-9.08-.82l.43-2.26a43.87,43.87,0,0,0,51.32-34.85,44.72,44.72,0,0,0,.78-8.64Z" fill="#0072bc"/><path d="M54.56,107.57a46.17,46.17,0,0,0,70.91-59.16l0,0" fill="none"/><path d="M79.76,123a46,46,0,0,1-12.2-4.67l1.12-2a43.83,43.83,0,0,0,11.59,4.44Z" fill="#00b398"/><path d="M46.89,61.47a46.17,46.17,0,1,0,86.23,33" fill="none"/><path d="M66.16,117.52A46.16,46.16,0,0,1,54,106.91l1.79-1.45a44.18,44.18,0,0,0,11.54,10.09Z" fill="#00b398"/><path d="M55.24,47.6a46.17,46.17,0,1,0,69.52,60.78v0" fill="none"/><path d="M53,105.63a46.18,46.18,0,0,1-7.45-15L47.8,90a43.79,43.79,0,0,0,7.08,14.3Z" fill="#00b398"/><path d="M69.54,36.59a46.18,46.18,0,1,0,40.92,82.79h0" fill="none"/><path d="M45.17,89a46.82,46.82,0,0,1-1.34-11.49l2.31,0a44.12,44.12,0,0,0,1.27,10.92Z" fill="#00b398"/><path d="M84.67,32.12a46.17,46.17,0,0,0,10.67,91.73" fill="none"/><path d="M43.88,75.92A45.87,45.87,0,0,1,46.1,63.69l2.19.71A44.17,44.17,0,0,0,46.18,76Z" fill="#00b398"/><path d="M81.75,123.41a46.17,46.17,0,0,1,16.5-90.86h0" fill="none"/><path d="M46.63,62.17a46.19,46.19,0,0,1,5.71-10.89l1.88,1.34A43.82,43.82,0,0,0,48.79,63Z" fill="#00b398"/><path d="M68.56,118.87a46.17,46.17,0,0,1,42.89-81.78" fill="none"/><path d="M53.29,50a46.23,46.23,0,0,1,8.11-8.25l1.43,1.82a43.91,43.91,0,0,0-7.7,7.83Z" fill="#00b398"/><path d="M57.63,110.9a46.17,46.17,0,1,1,64.75-65.83" fill="none"/><path d="M62.69,40.76A45.82,45.82,0,0,1,73.6,34.82L74.42,37a43.83,43.83,0,0,0-10.37,5.64Z" fill="#00b398"/><path d="M49.44,100A46.18,46.18,0,0,1,130.56,55.9v0" fill="none"/><path d="M75.12,34.27a46.14,46.14,0,0,1,13.27-2.43l.08,2.3a43.75,43.75,0,0,0-12.61,2.32Z" fill="#00b398"/><path d="M44.59,86.32a46.17,46.17,0,0,1,90.83-16.68" fill="none"/><path d="M133.41,77.59a43.4,43.4,0,0,1-3.09,16.47Q90,78,82.17,35.29a43.3,43.3,0,0,1,6.32-.68Q90,78,133.41,77.59Z" stroke="#fff" stroke-opacity="0.15" opacity="0.7" fill="url(#a)"/><g opacity="0" style="isolation:isolate"><g style="isolation:isolate"><path d="M126.19,82.84l-.53.06a.34.34,0,0,0-.1-.24.29.29,0,0,0-.21-.08.35.35,0,0,0-.3.16,1.29,1.29,0,0,0-.15.65.65.65,0,0,1,.51-.24.75.75,0,0,1,.59.26.91.91,0,0,1,.25.67,1,1,0,0,1-.26.71.87.87,0,0,1-.66.27.92.92,0,0,1-.72-.34,1.78,1.78,0,0,1-.28-1.11,1.72,1.72,0,0,1,.3-1.13.93.93,0,0,1,.75-.35.8.8,0,0,1,.54.18A.85.85,0,0,1,126.19,82.84ZM125,84a.66.66,0,0,0,.12.42.38.38,0,0,0,.28.14.32.32,0,0,0,.26-.12.59.59,0,0,0,.1-.39.65.65,0,0,0-.11-.41.35.35,0,0,0-.54,0A.53.53,0,0,0,125,84Z" fill="none" stroke="#fff" stroke-width="4.2"/><path d="M128.42,82.84l-.53.06a.38.38,0,0,0-.1-.24.33.33,0,0,0-.22-.08.35.35,0,0,0-.29.16,1.29,1.29,0,0,0-.15.65.63.63,0,0,1,.51-.24.77.77,0,0,1,.59.26,1.08,1.08,0,0,1,0,1.38.87.87,0,0,1-.66.27.89.89,0,0,1-.71-.34,1.72,1.72,0,0,1-.28-1.11,1.78,1.78,0,0,1,.29-1.13,1,1,0,0,1,.76-.35.84.84,0,0,1,.54.18A.9.9,0,0,1,128.42,82.84ZM127.17,84a.66.66,0,0,0,.13.42.37.37,0,0,0,.28.14.3.3,0,0,0,.25-.12.59.59,0,0,0,.1-.39.65.65,0,0,0-.1-.41.35.35,0,0,0-.28-.13.35.35,0,0,0-.27.13A.53.53,0,0,0,127.17,84Z" fill="none" stroke="#fff" stroke-width="4.2"/><path d="M128.79,84.27l.55-.06a.43.43,0,0,0,.14.3.36.36,0,0,0,.26.11.36.36,0,0,0,.29-.14.66.66,0,0,0,.12-.42.64.64,0,0,0-.11-.4.4.4,0,0,0-.31-.13.57.57,0,0,0-.43.21l-.44-.07.28-1.49h1.45v.52h-1l-.09.48a.84.84,0,0,1,.37-.09.81.81,0,0,1,.62.27.94.94,0,0,1,.26.69,1,1,0,0,1-.21.63.9.9,0,0,1-.77.38,1,1,0,0,1-.65-.22A.84.84,0,0,1,128.79,84.27Z" fill="none" stroke="#fff" stroke-width="4.2"/></g><g style="isolation:isolate"><path d="M84.57,39.55v.51H82.65a1.32,1.32,0,0,1,.18-.55,3.71,3.71,0,0,1,.62-.69,4.33,4.33,0,0,0,.46-.47A.62.62,0,0,0,84,38a.38.38,0,0,0-.1-.29.4.4,0,0,0-.27-.09.37.37,0,0,0-.28.1.57.57,0,0,0-.11.34l-.55,0a.9.9,0,0,1,.31-.65,1,1,0,0,1,.64-.2,1,1,0,0,1,.67.23.75.75,0,0,1,.24.57.94.94,0,0,1-.07.37,1.84,1.84,0,0,1-.22.36,3.77,3.77,0,0,1-.36.37l-.33.31-.11.16Z" fill="none" stroke="#fff" stroke-width="4.2"/><path d="M85,39.32l.55-.06a.49.49,0,0,0,.13.3.4.4,0,0,0,.27.11.37.37,0,0,0,.29-.14.67.67,0,0,0,.12-.43.57.57,0,0,0-.12-.39.39.39,0,0,0-.31-.13.57.57,0,0,0-.42.21L85,38.72l.28-1.49h1.45v.52h-1l-.08.48a.83.83,0,0,1,1,.18.93.93,0,0,1,.26.68,1,1,0,0,1-.21.64.91.91,0,0,1-.78.37,1,1,0,0,1-.64-.21A.84.84,0,0,1,85,39.32Z" fill="none" stroke="#fff" stroke-width="4.2"/><path d="M88.57,40.06H88V38a2,2,0,0,1-.71.41v-.49a1.65,1.65,0,0,0,.47-.27,1,1,0,0,0,.34-.46h.45Z" fill="none" stroke="#fff" stroke-width="4.2"/></g><g style="isolation:isolate"><path d="M126.19,82.84l-.53.06a.34.34,0,0,0-.1-.24.29.29,0,0,0-.21-.08.35.35,0,0,0-.3.16,1.29,1.29,0,0,0-.15.65.65.65,0,0,1,.51-.24.75.75,0,0,1,.59.26.91.91,0,0,1,.25.67,1,1,0,0,1-.26.71.87.87,0,0,1-.66.27.92.92,0,0,1-.72-.34,1.78,1.78,0,0,1-.28-1.11,1.72,1.72,0,0,1,.3-1.13.93.93,0,0,1,.75-.35.8.8,0,0,1,.54.18A.85.85,0,0,1,126.19,82.84ZM125,84a.66.66,0,0,0,.12.42.38.38,0,0,0,.28.14.32.32,0,0,0,.26-.12.59.59,0,0,0,.1-.39.65.65,0,0,0-.11-.41.35.35,0,0,0-.54,0A.53.53,0,0,0,125,84Z" fill="#0072bc"/><path d="M128.42,82.84l-.53.06a.38.38,0,0,0-.1-.24.33.33,0,0,0-.22-.08.35.35,0,0,0-.29.16,1.29,1.29,0,0,0-.15.65.63.63,0,0,1,.51-.24.77.77,0,0,1,.59.26,1.08,1.08,0,0,1,0,1.38.87.87,0,0,1-.66.27.89.89,0,0,1-.71-.34,1.72,1.72,0,0,1-.28-1.11,1.78,1.78,0,0,1,.29-1.13,1,1,0,0,1,.76-.35.84.84,0,0,1,.54.18A.9.9,0,0,1,128.42,82.84ZM127.17,84a.66.66,0,0,0,.13.42.37.37,0,0,0,.28.14.3.3,0,0,0,.25-.12.59.59,0,0,0,.1-.39.65.65,0,0,0-.1-.41.35.35,0,0,0-.28-.13.35.35,0,0,0-.27.13A.53.53,0,0,0,127.17,84Z" fill="#0072bc"/><path d="M128.79,84.27l.55-.06a.43.43,0,0,0,.14.3.36.36,0,0,0,.26.11.36.36,0,0,0,.29-.14.66.66,0,0,0,.12-.42.64.64,0,0,0-.11-.4.4.4,0,0,0-.31-.13.57.57,0,0,0-.43.21l-.44-.07.28-1.49h1.45v.52h-1l-.09.48a.84.84,0,0,1,.37-.09.81.81,0,0,1,.62.27.94.94,0,0,1,.26.69,1,1,0,0,1-.21.63.9.9,0,0,1-.77.38,1,1,0,0,1-.65-.22A.84.84,0,0,1,128.79,84.27Z" fill="#0072bc"/></g><g style="isolation:isolate"><path d="M84.57,39.55v.51H82.65a1.32,1.32,0,0,1,.18-.55,3.71,3.71,0,0,1,.62-.69,4.33,4.33,0,0,0,.46-.47A.62.62,0,0,0,84,38a.38.38,0,0,0-.1-.29.4.4,0,0,0-.27-.09.37.37,0,0,0-.28.1.57.57,0,0,0-.11.34l-.55,0a.9.9,0,0,1,.31-.65,1,1,0,0,1,.64-.2,1,1,0,0,1,.67.23.75.75,0,0,1,.24.57.94.94,0,0,1-.07.37,1.84,1.84,0,0,1-.22.36,3.77,3.77,0,0,1-.36.37l-.33.31-.11.16Z" fill="#00b398"/><path d="M85,39.32l.55-.06a.49.49,0,0,0,.13.3.4.4,0,0,0,.27.11.37.37,0,0,0,.29-.14.67.67,0,0,0,.12-.43.57.57,0,0,0-.12-.39.39.39,0,0,0-.31-.13.57.57,0,0,0-.42.21L85,38.72l.28-1.49h1.45v.52h-1l-.08.48a.83.83,0,0,1,1,.18.93.93,0,0,1,.26.68,1,1,0,0,1-.21.64.91.91,0,0,1-.78.37,1,1,0,0,1-.64-.21A.84.84,0,0,1,85,39.32Z" fill="#00b398"/><path d="M88.57,40.06H88V38a2,2,0,0,1-.71.41v-.49a1.65,1.65,0,0,0,.47-.27,1,1,0,0,0,.34-.46h.45Z" fill="#00b398"/></g></g><path d="M110.33,39.63A43.73,43.73,0,0,1,118.16,45a529.42,529.42,0,0,0-50.57,70.2,43.16,43.16,0,0,1-8.05-6.26A294.63,294.63,0,0,0,110.33,39.63Z" stroke="#fff" stroke-opacity="0.15" opacity="0.7" fill="url(#b)"/><g opacity="0" style="isolation:isolate"><g style="isolation:isolate"><path d="M108.25,45.66l.53-.06a.56.56,0,0,0,.14.31.37.37,0,0,0,.27.11.41.41,0,0,0,.29-.13.54.54,0,0,0,.11-.35.49.49,0,0,0-.11-.33.34.34,0,0,0-.27-.12.81.81,0,0,0-.25,0l.06-.45a.45.45,0,0,0,.34-.09.33.33,0,0,0,.11-.27.32.32,0,0,0-.08-.24.36.36,0,0,0-.23-.08.33.33,0,0,0-.24.1.41.41,0,0,0-.12.28l-.51-.08a1.19,1.19,0,0,1,.16-.42.73.73,0,0,1,.3-.24,1,1,0,0,1,.43-.09.82.82,0,0,1,.64.26.64.64,0,0,1,.21.47.67.67,0,0,1-.42.6.71.71,0,0,1,.4.24.72.72,0,0,1,.14.44.89.89,0,0,1-.27.65,1,1,0,0,1-.69.26.92.92,0,0,1-.64-.22A.91.91,0,0,1,108.25,45.66Z" fill="none" stroke="#fff" stroke-width="4.2"/><path d="M110.5,44.11V43.6h1.87V44a3.13,3.13,0,0,0-.47.65,4.24,4.24,0,0,0-.37.91,3.61,3.61,0,0,0-.12.86h-.53a3.59,3.59,0,0,1,.25-1.21,4,4,0,0,1,.61-1.1Z" fill="none" stroke="#fff" stroke-width="4.2"/><path d="M113.8,46.42v-.57h-1.18v-.48l1.25-1.82h.46v1.81h.35v.49h-.35v.57Zm0-1.06v-1l-.66,1Z" fill="none" stroke="#fff" stroke-width="4.2"/></g><g opacity="0.7" style="isolation:isolate"><path d="M64.51,108.11v-.58H63.34v-.48l1.24-1.81H65v1.81h.36v.48H65v.58Zm0-1.06v-1l-.66,1Z" fill="none" stroke="#fff" stroke-width="4.2"/><path d="M66.59,105.24a.77.77,0,0,1,.65.29,2.58,2.58,0,0,1,0,2.34.8.8,0,0,1-.65.29.82.82,0,0,1-.67-.32,1.93,1.93,0,0,1-.26-1.15,1.85,1.85,0,0,1,.28-1.16A.77.77,0,0,1,66.59,105.24Zm0,.45a.28.28,0,0,0-.18.06.49.49,0,0,0-.12.23,3,3,0,0,0-.06.72,2.68,2.68,0,0,0,.06.69.44.44,0,0,0,.12.25.3.3,0,0,0,.36,0,.45.45,0,0,0,.12-.23,2.92,2.92,0,0,0,.06-.71,2.58,2.58,0,0,0-.06-.69.52.52,0,0,0-.12-.26A.28.28,0,0,0,66.59,105.69Z" fill="none" stroke="#fff" stroke-width="4.2"/><path d="M67.87,107.35l.53-.06a.5.5,0,0,0,.14.31.35.35,0,0,0,.26.1.38.38,0,0,0,.29-.12.51.51,0,0,0,.12-.35.49.49,0,0,0-.11-.33.38.38,0,0,0-.28-.12.85.85,0,0,0-.25,0l.06-.45a.49.49,0,0,0,.34-.09.35.35,0,0,0,.12-.28.32.32,0,0,0-.09-.23.27.27,0,0,0-.22-.08.32.32,0,0,0-.24.09.49.49,0,0,0-.13.29l-.5-.09a1,1,0,0,1,.16-.41.71.71,0,0,1,.29-.25,1,1,0,0,1,.43-.08.85.85,0,0,1,.65.25.69.69,0,0,1,.2.48.68.68,0,0,1-.41.6.68.68,0,0,1,.54.68.83.83,0,0,1-.28.64.93.93,0,0,1-.68.27,1,1,0,0,1-.65-.22A.86.86,0,0,1,67.87,107.35Z" fill="none" stroke="#fff" stroke-width="4.2"/></g><g style="isolation:isolate"><path d="M108.25,45.66l.53-.06a.56.56,0,0,0,.14.31.37.37,0,0,0,.27.11.41.41,0,0,0,.29-.13.54.54,0,0,0,.11-.35.49.49,0,0,0-.11-.33.34.34,0,0,0-.27-.12.81.81,0,0,0-.25,0l.06-.45a.45.45,0,0,0,.34-.09.33.33,0,0,0,.11-.27.32.32,0,0,0-.08-.24.36.36,0,0,0-.23-.08.33.33,0,0,0-.24.1.41.41,0,0,0-.12.28l-.51-.08a1.19,1.19,0,0,1,.16-.42.73.73,0,0,1,.3-.24,1,1,0,0,1,.43-.09.82.82,0,0,1,.64.26.64.64,0,0,1,.21.47.67.67,0,0,1-.42.6.71.71,0,0,1,.4.24.72.72,0,0,1,.14.44.89.89,0,0,1-.27.65,1,1,0,0,1-.69.26.92.92,0,0,1-.64-.22A.91.91,0,0,1,108.25,45.66Z" fill="#ef4a60"/><path d="M110.5,44.11V43.6h1.87V44a3.13,3.13,0,0,0-.47.65,4.24,4.24,0,0,0-.37.91,3.61,3.61,0,0,0-.12.86h-.53a3.59,3.59,0,0,1,.25-1.21,4,4,0,0,1,.61-1.1Z" fill="#ef4a60"/><path d="M113.8,46.42v-.57h-1.18v-.48l1.25-1.82h.46v1.81h.35v.49h-.35v.57Zm0-1.06v-1l-.66,1Z" fill="#ef4a60"/></g><g opacity="0.7" style="isolation:isolate"><path d="M64.51,108.11v-.58H63.34v-.48l1.24-1.81H65v1.81h.36v.48H65v.58Zm0-1.06v-1l-.66,1Z" fill="#00b398"/><path d="M66.59,105.24a.77.77,0,0,1,.65.29,2.58,2.58,0,0,1,0,2.34.8.8,0,0,1-.65.29.82.82,0,0,1-.67-.32,1.93,1.93,0,0,1-.26-1.15,1.85,1.85,0,0,1,.28-1.16A.77.77,0,0,1,66.59,105.24Zm0,.45a.28.28,0,0,0-.18.06.49.49,0,0,0-.12.23,3,3,0,0,0-.06.72,2.68,2.68,0,0,0,.06.69.44.44,0,0,0,.12.25.3.3,0,0,0,.36,0,.45.45,0,0,0,.12-.23,2.92,2.92,0,0,0,.06-.71,2.58,2.58,0,0,0-.06-.69.52.52,0,0,0-.12-.26A.28.28,0,0,0,66.59,105.69Z" fill="#00b398"/><path d="M67.87,107.35l.53-.06a.5.5,0,0,0,.14.31.35.35,0,0,0,.26.1.38.38,0,0,0,.29-.12.51.51,0,0,0,.12-.35.49.49,0,0,0-.11-.33.38.38,0,0,0-.28-.12.85.85,0,0,0-.25,0l.06-.45a.49.49,0,0,0,.34-.09.35.35,0,0,0,.12-.28.32.32,0,0,0-.09-.23.27.27,0,0,0-.22-.08.32.32,0,0,0-.24.09.49.49,0,0,0-.13.29l-.5-.09a1,1,0,0,1,.16-.41.71.71,0,0,1,.29-.25,1,1,0,0,1,.43-.08.85.85,0,0,1,.65.25.69.69,0,0,1,.2.48.68.68,0,0,1-.41.6.68.68,0,0,1,.54.68.83.83,0,0,1-.28.64.93.93,0,0,1-.68.27,1,1,0,0,1-.65-.22A.86.86,0,0,1,67.87,107.35Z" fill="#00b398"/></g></g><path d="M123.39,50.25a43.33,43.33,0,0,1,4.24,6.09A723.05,723.05,0,0,0,55.25,104a43.57,43.57,0,0,1-5.34-9.36A285.67,285.67,0,0,0,123.39,50.25Z" stroke="#fff" stroke-opacity="0.15" opacity="0.7" fill="url(#c)"/><g opacity="0" style="isolation:isolate"><g style="isolation:isolate"><path d="M120,55.69v.51h-1.92a1.21,1.21,0,0,1,.19-.54,3.3,3.3,0,0,1,.61-.69,4.33,4.33,0,0,0,.46-.47.62.62,0,0,0,.11-.33.38.38,0,0,0-.1-.29.4.4,0,0,0-.54,0,.51.51,0,0,0-.12.34l-.55,0a.91.91,0,0,1,.31-.65,1,1,0,0,1,.64-.2.94.94,0,0,1,.67.23.75.75,0,0,1,.24.57.89.89,0,0,1-.07.36,1.33,1.33,0,0,1-.22.37,2.31,2.31,0,0,1-.36.37,3.29,3.29,0,0,0-.32.31.79.79,0,0,0-.12.15Z" fill="none" stroke="#fff" stroke-width="4.2"/><path d="M120.4,55.54l.53-.06a.34.34,0,0,0,.1.24.27.27,0,0,0,.22.08.36.36,0,0,0,.29-.15,1.45,1.45,0,0,0,.15-.65.66.66,0,0,1-.52.24.77.77,0,0,1-.58-.26.94.94,0,0,1-.25-.68,1,1,0,0,1,.26-.7.87.87,0,0,1,.66-.27.86.86,0,0,1,.71.34,1.69,1.69,0,0,1,.28,1.1,1.73,1.73,0,0,1-.29,1.14.92.92,0,0,1-.75.34.81.81,0,0,1-.55-.17A.86.86,0,0,1,120.4,55.54Zm1.24-1.2a.65.65,0,0,0-.12-.41.36.36,0,0,0-.29-.15.32.32,0,0,0-.25.12.62.62,0,0,0-.1.4.67.67,0,0,0,.11.41.36.36,0,0,0,.54,0A.56.56,0,0,0,121.64,54.34Z" fill="none" stroke="#fff" stroke-width="4.2"/><path d="M122.59,55.44l.53-.06a.47.47,0,0,0,.14.31.38.38,0,0,0,.55,0,.5.5,0,0,0,.12-.35.49.49,0,0,0-.11-.33.37.37,0,0,0-.27-.12,1.51,1.51,0,0,0-.26,0l.07-.44a.51.51,0,0,0,.34-.1.37.37,0,0,0,.11-.27.29.29,0,0,0-.31-.32.3.3,0,0,0-.24.1.41.41,0,0,0-.12.28l-.51-.08a1.27,1.27,0,0,1,.16-.42.73.73,0,0,1,.3-.24,1,1,0,0,1,.42-.09.86.86,0,0,1,.65.26.64.64,0,0,1,.2.47.69.69,0,0,1-.41.61.65.65,0,0,1,.4.23.72.72,0,0,1,.14.44.88.88,0,0,1-.27.65,1,1,0,0,1-.69.26.92.92,0,0,1-.64-.22A.89.89,0,0,1,122.59,55.44Z" fill="none" stroke="#fff" stroke-width="4.2"/></g><g style="isolation:isolate"><path d="M54.76,96.86v-.58H53.59V95.8L54.83,94h.46V95.8h.36v.48h-.36v.58Zm0-1.06v-1l-.66,1Z" fill="none" stroke="#fff" stroke-width="4.2"/><path d="M57.77,96.35v.51H55.84a1.25,1.25,0,0,1,.19-.55,3.66,3.66,0,0,1,.62-.69,4.12,4.12,0,0,0,.45-.46.59.59,0,0,0,.11-.34.39.39,0,0,0-.09-.28.37.37,0,0,0-.28-.1.36.36,0,0,0-.27.1.54.54,0,0,0-.12.35l-.54-.06a.89.89,0,0,1,.3-.65,1,1,0,0,1,.65-.2.93.93,0,0,1,.66.23.76.76,0,0,1,.25.57,1.16,1.16,0,0,1-.07.37,1.59,1.59,0,0,1-.22.36,3.77,3.77,0,0,1-.36.37,2.54,2.54,0,0,0-.33.32.48.48,0,0,0-.11.15Z" fill="none" stroke="#fff" stroke-width="4.2"/><path d="M60,94.7l-.54,0a.35.35,0,0,0-.1-.24.29.29,0,0,0-.21-.08.36.36,0,0,0-.29.16,1.38,1.38,0,0,0-.16.65.65.65,0,0,1,.51-.24.79.79,0,0,1,.59.26.92.92,0,0,1,.25.68,1,1,0,0,1-.26.7.87.87,0,0,1-.66.27.89.89,0,0,1-.71-.34,1.69,1.69,0,0,1-.28-1.1,1.73,1.73,0,0,1,.29-1.14.93.93,0,0,1,.75-.35.76.76,0,0,1,.54.19A.81.81,0,0,1,60,94.7Zm-1.25,1.19a.66.66,0,0,0,.12.42.4.4,0,0,0,.29.14.32.32,0,0,0,.25-.12.59.59,0,0,0,.1-.39.61.61,0,0,0-.11-.41.35.35,0,0,0-.27-.13.32.32,0,0,0-.27.13A.53.53,0,0,0,58.75,95.89Z" fill="none" stroke="#fff" stroke-width="4.2"/></g><g style="isolation:isolate"><path d="M54.76,96.86v-.58H53.59V95.8L54.83,94h.46V95.8h.36v.48h-.36v.58Zm0-1.06v-1l-.66,1Z" fill="#00b398"/><path d="M57.77,96.35v.51H55.84a1.25,1.25,0,0,1,.19-.55,3.66,3.66,0,0,1,.62-.69,4.12,4.12,0,0,0,.45-.46.59.59,0,0,0,.11-.34.39.39,0,0,0-.09-.28.37.37,0,0,0-.28-.1.36.36,0,0,0-.27.1.54.54,0,0,0-.12.35l-.54-.06a.89.89,0,0,1,.3-.65,1,1,0,0,1,.65-.2.93.93,0,0,1,.66.23.76.76,0,0,1,.25.57,1.16,1.16,0,0,1-.07.37,1.59,1.59,0,0,1-.22.36,3.77,3.77,0,0,1-.36.37,2.54,2.54,0,0,0-.33.32.48.48,0,0,0-.11.15Z" fill="#00b398"/><path d="M60,94.7l-.54,0a.35.35,0,0,0-.1-.24.29.29,0,0,0-.21-.08.36.36,0,0,0-.29.16,1.38,1.38,0,0,0-.16.65.65.65,0,0,1,.51-.24.79.79,0,0,1,.59.26.92.92,0,0,1,.25.68,1,1,0,0,1-.26.7.87.87,0,0,1-.66.27.89.89,0,0,1-.71-.34,1.69,1.69,0,0,1-.28-1.1,1.73,1.73,0,0,1,.29-1.14.93.93,0,0,1,.75-.35.76.76,0,0,1,.54.19A.81.81,0,0,1,60,94.7Zm-1.25,1.19a.66.66,0,0,0,.12.42.4.4,0,0,0,.29.14.32.32,0,0,0,.25-.12.59.59,0,0,0,.1-.39.61.61,0,0,0-.11-.41.35.35,0,0,0-.27-.13.32.32,0,0,0-.27.13A.53.53,0,0,0,58.75,95.89Z" fill="#00b398"/></g></g><path d="M101.38,36.1a43.41,43.41,0,0,1,9,3.53,326.09,326.09,0,0,0-30,80.67,43.21,43.21,0,0,1-6.9-2.19A689.14,689.14,0,0,0,101.38,36.1Z" stroke="#fff" stroke-opacity="0.15" opacity="0.7" fill="url(#d)"/><g opacity="0" style="isolation:isolate"><g style="isolation:isolate"><path d="M100.84,41.74l.53-.06a.5.5,0,0,0,.14.31.36.36,0,0,0,.26.11.39.39,0,0,0,.29-.13.51.51,0,0,0,.12-.35.49.49,0,0,0-.11-.33.38.38,0,0,0-.28-.12.85.85,0,0,0-.25,0l.06-.45a.45.45,0,0,0,.34-.09.35.35,0,0,0,.12-.28.32.32,0,0,0-.09-.23.31.31,0,0,0-.22-.08.3.3,0,0,0-.24.1.46.46,0,0,0-.13.28l-.5-.08A1,1,0,0,1,101,40a.68.68,0,0,1,.29-.24,1,1,0,0,1,.43-.09.85.85,0,0,1,.65.25.71.71,0,0,1,.2.48.68.68,0,0,1-.41.6.72.72,0,0,1,.39.24.67.67,0,0,1,.15.44.86.86,0,0,1-.28.65,1,1,0,0,1-.68.26,1,1,0,0,1-.65-.22A.86.86,0,0,1,100.84,41.74Z" fill="none" stroke="#fff" stroke-width="4.2"/><path d="M103.55,41a.72.72,0,0,1-.31-.25.69.69,0,0,1-.09-.34.67.67,0,0,1,.22-.53.9.9,0,0,1,.64-.21.89.89,0,0,1,.63.21.67.67,0,0,1,.23.53.61.61,0,0,1-.11.35.7.7,0,0,1-.29.24.75.75,0,0,1,.49.7.85.85,0,0,1-.26.64.88.88,0,0,1-.67.25,1,1,0,0,1-.65-.2.83.83,0,0,1-.31-.67.79.79,0,0,1,.12-.42A.77.77,0,0,1,103.55,41Zm.07.67a.48.48,0,0,0,.11.35.37.37,0,0,0,.29.13.36.36,0,0,0,.28-.12.48.48,0,0,0,.11-.35.44.44,0,0,0-.11-.33.37.37,0,0,0-.29-.12.36.36,0,0,0-.3.14A.53.53,0,0,0,103.62,41.63Zm0-1.23a.36.36,0,0,0,.09.26.33.33,0,0,0,.25.09.37.37,0,0,0,.25-.09.36.36,0,0,0,.09-.26.32.32,0,0,0-.09-.24.36.36,0,0,0-.5,0A.32.32,0,0,0,103.67,40.4Z" fill="none" stroke="#fff" stroke-width="4.2"/><path d="M106.23,39.63a.79.79,0,0,1,.65.29,2.58,2.58,0,0,1,0,2.34.79.79,0,0,1-.65.29.83.83,0,0,1-.67-.32,1.91,1.91,0,0,1-.26-1.15,1.86,1.86,0,0,1,.29-1.16A.75.75,0,0,1,106.23,39.63Zm0,.45a.23.23,0,0,0-.17.07.31.31,0,0,0-.12.22,3,3,0,0,0-.06.72,3.3,3.3,0,0,0,.05.69.44.44,0,0,0,.13.25.23.23,0,0,0,.17.07.29.29,0,0,0,.18-.07.45.45,0,0,0,.12-.23,2.87,2.87,0,0,0,.06-.71,3.3,3.3,0,0,0,0-.69.44.44,0,0,0-.13-.25A.24.24,0,0,0,106.23,40.08Z" fill="none" stroke="#fff" stroke-width="4.2"/></g><g style="isolation:isolate"><path d="M77.15,113.83v.51H75.23a1.21,1.21,0,0,1,.19-.54,3.58,3.58,0,0,1,.61-.69,4.33,4.33,0,0,0,.46-.47.62.62,0,0,0,.11-.33.38.38,0,0,0-.1-.29.37.37,0,0,0-.27-.1A.35.35,0,0,0,76,112a.51.51,0,0,0-.12.34l-.55-.05a.91.91,0,0,1,.31-.65,1,1,0,0,1,.64-.2.94.94,0,0,1,.67.23.75.75,0,0,1,.24.57.86.86,0,0,1-.07.36,1.33,1.33,0,0,1-.22.37,2.31,2.31,0,0,1-.36.37l-.33.31-.11.15Z" fill="none" stroke="#fff" stroke-width="4.2"/><path d="M78,112.8a.65.65,0,0,1-.31-.25.67.67,0,0,1-.09-.34.68.68,0,0,1,.22-.53.9.9,0,0,1,.64-.21.89.89,0,0,1,.63.21.69.69,0,0,1,.23.53.61.61,0,0,1-.11.35.57.57,0,0,1-.29.24.74.74,0,0,1,.36.28.68.68,0,0,1,.13.42.91.91,0,0,1-.25.65,1,1,0,0,1-.68.25,1,1,0,0,1-.65-.21.8.8,0,0,1-.3-.66.79.79,0,0,1,.11-.43A.77.77,0,0,1,78,112.8Zm.07.67a.57.57,0,0,0,.11.36.4.4,0,0,0,.29.12.35.35,0,0,0,.28-.12.48.48,0,0,0,.12-.35.44.44,0,0,0-.12-.32.37.37,0,0,0-.28-.13.34.34,0,0,0-.3.14A.51.51,0,0,0,78.06,113.47Zm0-1.22a.31.31,0,0,0,.34.34.37.37,0,0,0,.25-.09.35.35,0,0,0,.09-.25.33.33,0,0,0-.09-.25.39.39,0,0,0-.5,0A.33.33,0,0,0,78.11,112.25Z" fill="none" stroke="#fff" stroke-width="4.2"/><path d="M81.61,112.18l-.53.06A.39.39,0,0,0,81,112a.29.29,0,0,0-.21-.08.35.35,0,0,0-.29.16,1.29,1.29,0,0,0-.15.65.63.63,0,0,1,.51-.24.77.77,0,0,1,.59.26,1,1,0,0,1,.24.67,1,1,0,0,1-.26.71.9.9,0,0,1-.66.26.88.88,0,0,1-.71-.33,1.74,1.74,0,0,1-.28-1.11,1.78,1.78,0,0,1,.29-1.13.91.91,0,0,1,.75-.35.8.8,0,0,1,.54.18A.83.83,0,0,1,81.61,112.18Zm-1.25,1.2a.56.56,0,0,0,.13.41.35.35,0,0,0,.28.15.32.32,0,0,0,.25-.12.81.81,0,0,0,0-.8.32.32,0,0,0-.27-.13.36.36,0,0,0-.27.12A.58.58,0,0,0,80.36,113.38Z" fill="none" stroke="#fff" stroke-width="4.2"/></g><g style="isolation:isolate"><path d="M100.84,41.74l.53-.06a.5.5,0,0,0,.14.31.36.36,0,0,0,.26.11.39.39,0,0,0,.29-.13.51.51,0,0,0,.12-.35.49.49,0,0,0-.11-.33.38.38,0,0,0-.28-.12.85.85,0,0,0-.25,0l.06-.45a.45.45,0,0,0,.34-.09.35.35,0,0,0,.12-.28.32.32,0,0,0-.09-.23.31.31,0,0,0-.22-.08.3.3,0,0,0-.24.1.46.46,0,0,0-.13.28l-.5-.08A1,1,0,0,1,101,40a.68.68,0,0,1,.29-.24,1,1,0,0,1,.43-.09.85.85,0,0,1,.65.25.71.71,0,0,1,.2.48.68.68,0,0,1-.41.6.72.72,0,0,1,.39.24.67.67,0,0,1,.15.44.86.86,0,0,1-.28.65,1,1,0,0,1-.68.26,1,1,0,0,1-.65-.22A.86.86,0,0,1,100.84,41.74Z" fill="#ef4a60"/><path d="M103.55,41a.72.72,0,0,1-.31-.25.69.69,0,0,1-.09-.34.67.67,0,0,1,.22-.53.9.9,0,0,1,.64-.21.89.89,0,0,1,.63.21.67.67,0,0,1,.23.53.61.61,0,0,1-.11.35.7.7,0,0,1-.29.24.75.75,0,0,1,.49.7.85.85,0,0,1-.26.64.88.88,0,0,1-.67.25,1,1,0,0,1-.65-.2.83.83,0,0,1-.31-.67.79.79,0,0,1,.12-.42A.77.77,0,0,1,103.55,41Zm.07.67a.48.48,0,0,0,.11.35.37.37,0,0,0,.29.13.36.36,0,0,0,.28-.12.48.48,0,0,0,.11-.35.44.44,0,0,0-.11-.33.37.37,0,0,0-.29-.12.36.36,0,0,0-.3.14A.53.53,0,0,0,103.62,41.63Zm0-1.23a.36.36,0,0,0,.09.26.33.33,0,0,0,.25.09.37.37,0,0,0,.25-.09.36.36,0,0,0,.09-.26.32.32,0,0,0-.09-.24.36.36,0,0,0-.5,0A.32.32,0,0,0,103.67,40.4Z" fill="#ef4a60"/><path d="M106.23,39.63a.79.79,0,0,1,.65.29,2.58,2.58,0,0,1,0,2.34.79.79,0,0,1-.65.29.83.83,0,0,1-.67-.32,1.91,1.91,0,0,1-.26-1.15,1.86,1.86,0,0,1,.29-1.16A.75.75,0,0,1,106.23,39.63Zm0,.45a.23.23,0,0,0-.17.07.31.31,0,0,0-.12.22,3,3,0,0,0-.06.72,3.3,3.3,0,0,0,.05.69.44.44,0,0,0,.13.25.23.23,0,0,0,.17.07.29.29,0,0,0,.18-.07.45.45,0,0,0,.12-.23,2.87,2.87,0,0,0,.06-.71,3.3,3.3,0,0,0,0-.69.44.44,0,0,0-.13-.25A.24.24,0,0,0,106.23,40.08Z" fill="#ef4a60"/></g><g style="isolation:isolate"><path d="M77.15,113.83v.51H75.23a1.21,1.21,0,0,1,.19-.54,3.58,3.58,0,0,1,.61-.69,4.33,4.33,0,0,0,.46-.47.62.62,0,0,0,.11-.33.38.38,0,0,0-.1-.29.37.37,0,0,0-.27-.1A.35.35,0,0,0,76,112a.51.51,0,0,0-.12.34l-.55-.05a.91.91,0,0,1,.31-.65,1,1,0,0,1,.64-.2.94.94,0,0,1,.67.23.75.75,0,0,1,.24.57.86.86,0,0,1-.07.36,1.33,1.33,0,0,1-.22.37,2.31,2.31,0,0,1-.36.37l-.33.31-.11.15Z" fill="#00b398"/><path d="M78,112.8a.65.65,0,0,1-.31-.25.67.67,0,0,1-.09-.34.68.68,0,0,1,.22-.53.9.9,0,0,1,.64-.21.89.89,0,0,1,.63.21.69.69,0,0,1,.23.53.61.61,0,0,1-.11.35.57.57,0,0,1-.29.24.74.74,0,0,1,.36.28.68.68,0,0,1,.13.42.91.91,0,0,1-.25.65,1,1,0,0,1-.68.25,1,1,0,0,1-.65-.21.8.8,0,0,1-.3-.66.79.79,0,0,1,.11-.43A.77.77,0,0,1,78,112.8Zm.07.67a.57.57,0,0,0,.11.36.4.4,0,0,0,.29.12.35.35,0,0,0,.28-.12.48.48,0,0,0,.12-.35.44.44,0,0,0-.12-.32.37.37,0,0,0-.28-.13.34.34,0,0,0-.3.14A.51.51,0,0,0,78.06,113.47Zm0-1.22a.31.31,0,0,0,.34.34.37.37,0,0,0,.25-.09.35.35,0,0,0,.09-.25.33.33,0,0,0-.09-.25.39.39,0,0,0-.5,0A.33.33,0,0,0,78.11,112.25Z" fill="#00b398"/><path d="M81.61,112.18l-.53.06A.39.39,0,0,0,81,112a.29.29,0,0,0-.21-.08.35.35,0,0,0-.29.16,1.29,1.29,0,0,0-.15.65.63.63,0,0,1,.51-.24.77.77,0,0,1,.59.26,1,1,0,0,1,.24.67,1,1,0,0,1-.26.71.9.9,0,0,1-.66.26.88.88,0,0,1-.71-.33,1.74,1.74,0,0,1-.28-1.11,1.78,1.78,0,0,1,.29-1.13.91.91,0,0,1,.75-.35.8.8,0,0,1,.54.18A.83.83,0,0,1,81.61,112.18Zm-1.25,1.2a.56.56,0,0,0,.13.41.35.35,0,0,0,.28.15.32.32,0,0,0,.25-.12.81.81,0,0,0,0-.8.32.32,0,0,0-.27-.13.36.36,0,0,0-.27.12A.58.58,0,0,0,80.36,113.38Z" fill="#00b398"/></g></g><path d="M130.32,94.06a43.37,43.37,0,0,1-4.86,9A264.68,264.68,0,0,1,64.33,43a43.5,43.5,0,0,1,5.39-3.38Q90,78,130.32,94.06Z" stroke="#fff" stroke-opacity="0.15" opacity="0.7" fill="url(#e)"/><g opacity="0" style="isolation:isolate"><g style="isolation:isolate"><path d="M121.44,96.18V95.6h-1.17v-.48l1.24-1.82H122v1.82h.35v.48H122v.58Zm0-1.06v-1l-.65,1Z" fill="none" stroke="#fff" stroke-width="4.2"/><path d="M123.52,93.3a.78.78,0,0,1,.65.3,2.56,2.56,0,0,1,0,2.33.78.78,0,0,1-.65.3.82.82,0,0,1-.67-.32,1.93,1.93,0,0,1-.26-1.15,1.85,1.85,0,0,1,.28-1.16A.78.78,0,0,1,123.52,93.3Zm0,.46a.3.3,0,0,0-.18.06.45.45,0,0,0-.12.23,3.11,3.11,0,0,0,0,.72,2.81,2.81,0,0,0,0,.69.48.48,0,0,0,.12.25.3.3,0,0,0,.18.06.28.28,0,0,0,.18-.06.45.45,0,0,0,.12-.23,2.92,2.92,0,0,0,.06-.71,3.49,3.49,0,0,0,0-.7.57.57,0,0,0-.13-.25A.28.28,0,0,0,123.52,93.76Z" fill="none" stroke="#fff" stroke-width="4.2"/><path d="M124.8,95.42l.53-.07a.53.53,0,0,0,.14.32.36.36,0,0,0,.27.1.35.35,0,0,0,.28-.13.47.47,0,0,0,.12-.34A.49.49,0,0,0,126,95a.38.38,0,0,0-.28-.12.85.85,0,0,0-.25,0l.06-.45a.48.48,0,0,0,.34-.1.33.33,0,0,0,.12-.27.3.3,0,0,0-.09-.23.28.28,0,0,0-.22-.09.33.33,0,0,0-.24.1.49.49,0,0,0-.13.29l-.5-.09a1,1,0,0,1,.16-.41.71.71,0,0,1,.29-.25,1,1,0,0,1,.43-.09.86.86,0,0,1,.65.26.69.69,0,0,1,.2.48.68.68,0,0,1-.41.6.62.62,0,0,1,.39.24.67.67,0,0,1,.15.44.83.83,0,0,1-.28.64.93.93,0,0,1-.68.27,1,1,0,0,1-.65-.23A.88.88,0,0,1,124.8,95.42Z" fill="none" stroke="#fff" stroke-width="4.2"/></g><g style="isolation:isolate"><path d="M68.44,45.15v.51H66.51a1.21,1.21,0,0,1,.19-.55,3.37,3.37,0,0,1,.62-.69,5,5,0,0,0,.45-.47.54.54,0,0,0,.11-.33.42.42,0,0,0-.09-.29.41.41,0,0,0-.28-.09.36.36,0,0,0-.27.1.51.51,0,0,0-.12.34l-.54,0a.89.89,0,0,1,.3-.65,1,1,0,0,1,.65-.2.93.93,0,0,1,.66.23.76.76,0,0,1,.25.57,1.16,1.16,0,0,1-.07.37,1.84,1.84,0,0,1-.22.36,3.77,3.77,0,0,1-.36.37,4,4,0,0,0-.33.31.83.83,0,0,0-.12.16Z" fill="none" stroke="#fff" stroke-width="4.2"/><path d="M68.81,44.92l.55-.06a.5.5,0,0,0,.14.3.39.39,0,0,0,.27.1.35.35,0,0,0,.29-.14.62.62,0,0,0,.12-.42.57.57,0,0,0-.12-.39.39.39,0,0,0-.31-.13.54.54,0,0,0-.42.21l-.45-.07.28-1.49h1.45v.51h-1l-.09.49a.86.86,0,0,1,1,.17,1,1,0,0,1,.25.69,1.1,1.1,0,0,1-.2.64.92.92,0,0,1-.78.37,1,1,0,0,1-.65-.21A.93.93,0,0,1,68.81,44.92Z" fill="none" stroke="#fff" stroke-width="4.2"/><path d="M72.44,45.66h-.55V43.59a2,2,0,0,1-.71.41v-.5a1.36,1.36,0,0,0,.46-.26,1,1,0,0,0,.35-.46h.45Z" fill="none" stroke="#fff" stroke-width="4.2"/></g><g style="isolation:isolate"><path d="M121.44,96.18V95.6h-1.17v-.48l1.24-1.82H122v1.82h.35v.48H122v.58Zm0-1.06v-1l-.65,1Z" fill="#0072bc"/><path d="M123.52,93.3a.78.78,0,0,1,.65.3,2.56,2.56,0,0,1,0,2.33.78.78,0,0,1-.65.3.82.82,0,0,1-.67-.32,1.93,1.93,0,0,1-.26-1.15,1.85,1.85,0,0,1,.28-1.16A.78.78,0,0,1,123.52,93.3Zm0,.46a.3.3,0,0,0-.18.06.45.45,0,0,0-.12.23,3.11,3.11,0,0,0,0,.72,2.81,2.81,0,0,0,0,.69.48.48,0,0,0,.12.25.3.3,0,0,0,.18.06.28.28,0,0,0,.18-.06.45.45,0,0,0,.12-.23,2.92,2.92,0,0,0,.06-.71,3.49,3.49,0,0,0,0-.7.57.57,0,0,0-.13-.25A.28.28,0,0,0,123.52,93.76Z" fill="#0072bc"/><path d="M124.8,95.42l.53-.07a.53.53,0,0,0,.14.32.36.36,0,0,0,.27.1.35.35,0,0,0,.28-.13.47.47,0,0,0,.12-.34A.49.49,0,0,0,126,95a.38.38,0,0,0-.28-.12.85.85,0,0,0-.25,0l.06-.45a.48.48,0,0,0,.34-.1.33.33,0,0,0,.12-.27.3.3,0,0,0-.09-.23.28.28,0,0,0-.22-.09.33.33,0,0,0-.24.1.49.49,0,0,0-.13.29l-.5-.09a1,1,0,0,1,.16-.41.71.71,0,0,1,.29-.25,1,1,0,0,1,.43-.09.86.86,0,0,1,.65.26.69.69,0,0,1,.2.48.68.68,0,0,1-.41.6.62.62,0,0,1,.39.24.67.67,0,0,1,.15.44.83.83,0,0,1-.28.64.93.93,0,0,1-.68.27,1,1,0,0,1-.65-.23A.88.88,0,0,1,124.8,95.42Z" fill="#0072bc"/></g><g style="isolation:isolate"><path d="M68.44,45.15v.51H66.51a1.21,1.21,0,0,1,.19-.55,3.37,3.37,0,0,1,.62-.69,5,5,0,0,0,.45-.47.54.54,0,0,0,.11-.33.42.42,0,0,0-.09-.29.41.41,0,0,0-.28-.09.36.36,0,0,0-.27.1.51.51,0,0,0-.12.34l-.54,0a.89.89,0,0,1,.3-.65,1,1,0,0,1,.65-.2.93.93,0,0,1,.66.23.76.76,0,0,1,.25.57,1.16,1.16,0,0,1-.07.37,1.84,1.84,0,0,1-.22.36,3.77,3.77,0,0,1-.36.37,4,4,0,0,0-.33.31.83.83,0,0,0-.12.16Z" fill="#00b398"/><path d="M68.81,44.92l.55-.06a.5.5,0,0,0,.14.3.39.39,0,0,0,.27.1.35.35,0,0,0,.29-.14.62.62,0,0,0,.12-.42.57.57,0,0,0-.12-.39.39.39,0,0,0-.31-.13.54.54,0,0,0-.42.21l-.45-.07.28-1.49h1.45v.51h-1l-.09.49a.86.86,0,0,1,1,.17,1,1,0,0,1,.25.69,1.1,1.1,0,0,1-.2.64.92.92,0,0,1-.78.37,1,1,0,0,1-.65-.21A.93.93,0,0,1,68.81,44.92Z" fill="#00b398"/><path d="M72.44,45.66h-.55V43.59a2,2,0,0,1-.71.41v-.5a1.36,1.36,0,0,0,.46-.26,1,1,0,0,0,.35-.46h.45Z" fill="#00b398"/></g></g><path d="M111.72,115.56a43.13,43.13,0,0,1-7.51,3.43A140.93,140.93,0,0,0,55.49,51.66a43.61,43.61,0,0,1,4.92-5.42A380.67,380.67,0,0,1,111.72,115.56Z" stroke="#fff" stroke-opacity="0.15" opacity="0.7" fill="url(#f)"/><g opacity="0" style="isolation:isolate"><g style="isolation:isolate"><path d="M102.68,111.92l.53-.07a.47.47,0,0,0,.14.31.37.37,0,0,0,.27.11.34.34,0,0,0,.28-.13.55.55,0,0,0,0-.67.35.35,0,0,0-.27-.13,1,1,0,0,0-.26,0l.06-.45a.48.48,0,0,0,.34-.1.34.34,0,0,0,.12-.27.34.34,0,0,0-.08-.23.32.32,0,0,0-.23-.09.33.33,0,0,0-.24.1.43.43,0,0,0-.12.29l-.51-.09a1.36,1.36,0,0,1,.16-.42.73.73,0,0,1,.3-.24,1,1,0,0,1,.42-.09.86.86,0,0,1,.65.26.65.65,0,0,1,.2.48.66.66,0,0,1-.41.6.63.63,0,0,1,.39.23.7.7,0,0,1,.15.45.87.87,0,0,1-.27.64,1,1,0,0,1-.69.27.93.93,0,0,1-.64-.23A.89.89,0,0,1,102.68,111.92Z" fill="none" stroke="#fff" stroke-width="4.2"/><path d="M106.78,112.17v.51h-1.93a1.34,1.34,0,0,1,.19-.55,4.06,4.06,0,0,1,.62-.69,2.75,2.75,0,0,0,.45-.47.56.56,0,0,0,.12-.33.38.38,0,0,0-.1-.28.36.36,0,0,0-.27-.1.37.37,0,0,0-.28.1.57.57,0,0,0-.12.34l-.54,0a.89.89,0,0,1,.3-.65,1.07,1.07,0,0,1,.65-.2,1,1,0,0,1,.67.23.75.75,0,0,1,.24.57,1.16,1.16,0,0,1-.07.37,1.59,1.59,0,0,1-.22.36,3.77,3.77,0,0,1-.36.37l-.33.31a1.16,1.16,0,0,0-.11.16Z" fill="none" stroke="#fff" stroke-width="4.2"/><path d="M109,110.51l-.53.06a.45.45,0,0,0-.1-.24.33.33,0,0,0-.22-.08.35.35,0,0,0-.29.16,1.29,1.29,0,0,0-.15.65.63.63,0,0,1,.51-.24.77.77,0,0,1,.59.26,1.08,1.08,0,0,1,0,1.38.87.87,0,0,1-.66.27.89.89,0,0,1-.71-.34,1.72,1.72,0,0,1-.28-1.11,1.78,1.78,0,0,1,.29-1.13,1,1,0,0,1,.76-.35.84.84,0,0,1,.54.18A.9.9,0,0,1,109,110.51Zm-1.25,1.2a.56.56,0,0,0,.13.41.35.35,0,0,0,.28.15.32.32,0,0,0,.25-.12.81.81,0,0,0,0-.8.32.32,0,0,0-.27-.13.35.35,0,0,0-.27.13A.53.53,0,0,0,107.76,111.71Z" fill="none" stroke="#fff" stroke-width="4.2"/></g><g style="isolation:isolate"><path d="M60.42,51.86v.51H58.49a1.45,1.45,0,0,1,.19-.55,3.38,3.38,0,0,1,.62-.68,3.9,3.9,0,0,0,.45-.47.57.57,0,0,0,.11-.34.41.41,0,0,0-.09-.28.41.41,0,0,0-.55,0,.49.49,0,0,0-.12.34l-.54-.06a.91.91,0,0,1,.3-.65,1,1,0,0,1,.65-.19.89.89,0,0,1,.66.23.75.75,0,0,1,.25.56,1.16,1.16,0,0,1-.07.37,1.63,1.63,0,0,1-.22.37l-.36.36a3.5,3.5,0,0,0-.33.32.48.48,0,0,0-.11.15Z" fill="none" stroke="#fff" stroke-width="4.2"/><path d="M61.26,50.83a.66.66,0,0,1-.31-.25.61.61,0,0,1-.1-.34.67.67,0,0,1,.23-.53.87.87,0,0,1,.63-.21.89.89,0,0,1,.63.21.64.64,0,0,1,.23.53.6.6,0,0,1-.1.35.76.76,0,0,1-.29.24.72.72,0,0,1,.36.28.74.74,0,0,1,.12.42.84.84,0,0,1-.25.64.9.9,0,0,1-.67.25,1,1,0,0,1-.65-.2.8.8,0,0,1-.31-.67.88.88,0,0,1,.11-.42A.75.75,0,0,1,61.26,50.83Zm.06.67a.48.48,0,0,0,.12.35.35.35,0,0,0,.29.13.38.38,0,0,0,.28-.12.52.52,0,0,0,.11-.35.49.49,0,0,0-.11-.33.4.4,0,0,0-.29-.12.34.34,0,0,0-.3.14A.47.47,0,0,0,61.32,51.5Zm0-1.23a.36.36,0,0,0,.09.26.37.37,0,0,0,.25.09.33.33,0,0,0,.25-.09.36.36,0,0,0,.09-.26A.32.32,0,0,0,62,50a.3.3,0,0,0-.24-.1.34.34,0,0,0-.26.1A.32.32,0,0,0,61.37,50.27Z" fill="none" stroke="#fff" stroke-width="4.2"/><path d="M63,51.71l.53-.06a.39.39,0,0,0,.11.24.29.29,0,0,0,.21.08.34.34,0,0,0,.29-.16,1.28,1.28,0,0,0,.15-.64.64.64,0,0,1-.51.24.78.78,0,0,1-.59-.27,1,1,0,0,1-.24-.67,1,1,0,0,1,.26-.71.9.9,0,0,1,.66-.26.88.88,0,0,1,.71.33,1.74,1.74,0,0,1,.28,1.11,1.81,1.81,0,0,1-.29,1.14.94.94,0,0,1-.76.34.8.8,0,0,1-.54-.18A.84.84,0,0,1,63,51.71Zm1.25-1.2a.58.58,0,0,0-.13-.41.35.35,0,0,0-.28-.15.32.32,0,0,0-.25.12.6.6,0,0,0-.1.4.56.56,0,0,0,.11.4.32.32,0,0,0,.27.13.36.36,0,0,0,.27-.12A.58.58,0,0,0,64.27,50.51Z" fill="none" stroke="#fff" stroke-width="4.2"/></g><g style="isolation:isolate"><path d="M102.68,111.92l.53-.07a.47.47,0,0,0,.14.31.37.37,0,0,0,.27.11.34.34,0,0,0,.28-.13.55.55,0,0,0,0-.67.35.35,0,0,0-.27-.13,1,1,0,0,0-.26,0l.06-.45a.48.48,0,0,0,.34-.1.34.34,0,0,0,.12-.27.34.34,0,0,0-.08-.23.32.32,0,0,0-.23-.09.33.33,0,0,0-.24.1.43.43,0,0,0-.12.29l-.51-.09a1.36,1.36,0,0,1,.16-.42.73.73,0,0,1,.3-.24,1,1,0,0,1,.42-.09.86.86,0,0,1,.65.26.65.65,0,0,1,.2.48.66.66,0,0,1-.41.6.63.63,0,0,1,.39.23.7.7,0,0,1,.15.45.87.87,0,0,1-.27.64,1,1,0,0,1-.69.27.93.93,0,0,1-.64-.23A.89.89,0,0,1,102.68,111.92Z" fill="#0072bc"/><path d="M106.78,112.17v.51h-1.93a1.34,1.34,0,0,1,.19-.55,4.06,4.06,0,0,1,.62-.69,2.75,2.75,0,0,0,.45-.47.56.56,0,0,0,.12-.33.38.38,0,0,0-.1-.28.36.36,0,0,0-.27-.1.37.37,0,0,0-.28.1.57.57,0,0,0-.12.34l-.54,0a.89.89,0,0,1,.3-.65,1.07,1.07,0,0,1,.65-.2,1,1,0,0,1,.67.23.75.75,0,0,1,.24.57,1.16,1.16,0,0,1-.07.37,1.59,1.59,0,0,1-.22.36,3.77,3.77,0,0,1-.36.37l-.33.31a1.16,1.16,0,0,0-.11.16Z" fill="#0072bc"/><path d="M109,110.51l-.53.06a.45.45,0,0,0-.1-.24.33.33,0,0,0-.22-.08.35.35,0,0,0-.29.16,1.29,1.29,0,0,0-.15.65.63.63,0,0,1,.51-.24.77.77,0,0,1,.59.26,1.08,1.08,0,0,1,0,1.38.87.87,0,0,1-.66.27.89.89,0,0,1-.71-.34,1.72,1.72,0,0,1-.28-1.11,1.78,1.78,0,0,1,.29-1.13,1,1,0,0,1,.76-.35.84.84,0,0,1,.54.18A.9.9,0,0,1,109,110.51Zm-1.25,1.2a.56.56,0,0,0,.13.41.35.35,0,0,0,.28.15.32.32,0,0,0,.25-.12.81.81,0,0,0,0-.8.32.32,0,0,0-.27-.13.35.35,0,0,0-.27.13A.53.53,0,0,0,107.76,111.71Z" fill="#0072bc"/></g><g style="isolation:isolate"><path d="M60.42,51.86v.51H58.49a1.45,1.45,0,0,1,.19-.55,3.38,3.38,0,0,1,.62-.68,3.9,3.9,0,0,0,.45-.47.57.57,0,0,0,.11-.34.41.41,0,0,0-.09-.28.41.41,0,0,0-.55,0,.49.49,0,0,0-.12.34l-.54-.06a.91.91,0,0,1,.3-.65,1,1,0,0,1,.65-.19.89.89,0,0,1,.66.23.75.75,0,0,1,.25.56,1.16,1.16,0,0,1-.07.37,1.63,1.63,0,0,1-.22.37l-.36.36a3.5,3.5,0,0,0-.33.32.48.48,0,0,0-.11.15Z" fill="#00b398"/><path d="M61.26,50.83a.66.66,0,0,1-.31-.25.61.61,0,0,1-.1-.34.67.67,0,0,1,.23-.53.87.87,0,0,1,.63-.21.89.89,0,0,1,.63.21.64.64,0,0,1,.23.53.6.6,0,0,1-.1.35.76.76,0,0,1-.29.24.72.72,0,0,1,.36.28.74.74,0,0,1,.12.42.84.84,0,0,1-.25.64.9.9,0,0,1-.67.25,1,1,0,0,1-.65-.2.8.8,0,0,1-.31-.67.88.88,0,0,1,.11-.42A.75.75,0,0,1,61.26,50.83Zm.06.67a.48.48,0,0,0,.12.35.35.35,0,0,0,.29.13.38.38,0,0,0,.28-.12.52.52,0,0,0,.11-.35.49.49,0,0,0-.11-.33.4.4,0,0,0-.29-.12.34.34,0,0,0-.3.14A.47.47,0,0,0,61.32,51.5Zm0-1.23a.36.36,0,0,0,.09.26.37.37,0,0,0,.25.09.33.33,0,0,0,.25-.09.36.36,0,0,0,.09-.26A.32.32,0,0,0,62,50a.3.3,0,0,0-.24-.1.34.34,0,0,0-.26.1A.32.32,0,0,0,61.37,50.27Z" fill="#00b398"/><path d="M63,51.71l.53-.06a.39.39,0,0,0,.11.24.29.29,0,0,0,.21.08.34.34,0,0,0,.29-.16,1.28,1.28,0,0,0,.15-.64.64.64,0,0,1-.51.24.78.78,0,0,1-.59-.27,1,1,0,0,1-.24-.67,1,1,0,0,1,.26-.71.9.9,0,0,1,.66-.26.88.88,0,0,1,.71.33,1.74,1.74,0,0,1,.28,1.11,1.81,1.81,0,0,1-.29,1.14.94.94,0,0,1-.76.34.8.8,0,0,1-.54-.18A.84.84,0,0,1,63,51.71Zm1.25-1.2a.58.58,0,0,0-.13-.41.35.35,0,0,0-.28-.15.32.32,0,0,0-.25.12.6.6,0,0,0-.1.4.56.56,0,0,0,.11.4.32.32,0,0,0,.27.13.36.36,0,0,0,.27-.12A.58.58,0,0,0,64.27,50.51Z" fill="#00b398"/></g></g><path d="M125.46,103a43.6,43.6,0,0,1-6.73,7.5Q90,78,49.91,94.61a44.42,44.42,0,0,1-1.66-4.79Q90,78,125.46,103Z" stroke="#fff" stroke-opacity="0.15" opacity="0.7" fill="url(#g)"/><g opacity="0" style="isolation:isolate"><g style="isolation:isolate"><path d="M115.21,102.7l.54-.07a.47.47,0,0,0,.13.31.4.4,0,0,0,.27.11.36.36,0,0,0,.29-.13.48.48,0,0,0,.11-.35.43.43,0,0,0-.11-.32.35.35,0,0,0-.27-.13.92.92,0,0,0-.25,0l.06-.45a.49.49,0,0,0,.34-.1.34.34,0,0,0,.12-.27.31.31,0,0,0-.32-.32.37.37,0,0,0-.24.1.55.55,0,0,0-.12.29l-.5-.09a1,1,0,0,1,.15-.41.73.73,0,0,1,.3-.25,1,1,0,0,1,.43-.09.87.87,0,0,1,.65.26.69.69,0,0,1,.2.48.68.68,0,0,1-.41.6.65.65,0,0,1,.39.23.7.7,0,0,1,.15.45.84.84,0,0,1-.28.64.93.93,0,0,1-.68.27,1,1,0,0,1-.65-.23A.89.89,0,0,1,115.21,102.7Z" fill="none" stroke="#fff" stroke-width="4.2"/><path d="M117.47,102.79l.53-.05a.53.53,0,0,0,.1.24.32.32,0,0,0,.22.07.36.36,0,0,0,.29-.15,1.33,1.33,0,0,0,.15-.65.66.66,0,0,1-.52.24.78.78,0,0,1-.58-.26,1,1,0,0,1-.24-.68,1,1,0,0,1,.25-.7.94.94,0,0,1,1.38.07,1.7,1.7,0,0,1,.28,1.11,1.78,1.78,0,0,1-.29,1.13,1,1,0,0,1-.76.35.78.78,0,0,1-.54-.18A.87.87,0,0,1,117.47,102.79Zm1.24-1.19a.66.66,0,0,0-.12-.42.37.37,0,0,0-.28-.14.3.3,0,0,0-.25.12.59.59,0,0,0-.1.39.65.65,0,0,0,.1.41.39.39,0,0,0,.28.13.32.32,0,0,0,.26-.13A.49.49,0,0,0,118.71,101.6Z" fill="none" stroke="#fff" stroke-width="4.2"/><path d="M120.15,101.91a.68.68,0,0,1-.18-1.12.9.9,0,0,1,.64-.21.89.89,0,0,1,.63.21.7.7,0,0,1,.23.53.61.61,0,0,1-.11.35.57.57,0,0,1-.29.24.89.89,0,0,1,.37.28.77.77,0,0,1,.12.43.9.9,0,0,1-.25.64,1,1,0,0,1-.68.25,1,1,0,0,1-.65-.21.8.8,0,0,1-.3-.66.79.79,0,0,1,.11-.43A.77.77,0,0,1,120.15,101.91Zm.07.68a.54.54,0,0,0,.11.35.41.41,0,0,0,.29.13.33.33,0,0,0,.28-.13.46.46,0,0,0,.12-.35.44.44,0,0,0-.12-.32.36.36,0,0,0-.28-.12.32.32,0,0,0-.3.14A.47.47,0,0,0,120.22,102.59Zm0-1.23a.37.37,0,0,0,.09.26.36.36,0,0,0,.5-.51.34.34,0,0,0-.59.25Z" fill="none" stroke="#fff" stroke-width="4.2"/></g><g style="isolation:isolate"><path d="M52.66,90v.51H50.74a1.33,1.33,0,0,1,.18-.54,3.71,3.71,0,0,1,.62-.69,4.33,4.33,0,0,0,.46-.47.62.62,0,0,0,.11-.33.38.38,0,0,0-.1-.29.41.41,0,0,0-.27-.1.38.38,0,0,0-.28.11.57.57,0,0,0-.11.34l-.55-.05a.88.88,0,0,1,.31-.65,1,1,0,0,1,.64-.2,1,1,0,0,1,.67.23.75.75,0,0,1,.24.57.86.86,0,0,1-.07.36,1.63,1.63,0,0,1-.22.37,3.77,3.77,0,0,1-.36.37l-.33.31-.11.15Z" fill="none" stroke="#fff" stroke-width="4.2"/><path d="M54,87.64a.78.78,0,0,1,.65.3,1.85,1.85,0,0,1,.28,1.16,1.9,1.9,0,0,1-.28,1.17.77.77,0,0,1-.65.29.79.79,0,0,1-.67-.32A1.8,1.8,0,0,1,53,89.1a1.9,1.9,0,0,1,.28-1.17A.8.8,0,0,1,54,87.64Zm0,.45a.29.29,0,0,0-.18.07.45.45,0,0,0-.12.23,2.92,2.92,0,0,0-.06.71,3.3,3.3,0,0,0,0,.69.62.62,0,0,0,.13.26.28.28,0,0,0,.18.06.26.26,0,0,0,.18-.07.41.41,0,0,0,.12-.22,3.11,3.11,0,0,0,.05-.72,2.81,2.81,0,0,0-.05-.69.44.44,0,0,0-.12-.25A.31.31,0,0,0,54,88.09Z" fill="none" stroke="#fff" stroke-width="4.2"/><path d="M56.18,87.64a.77.77,0,0,1,.65.3,1.85,1.85,0,0,1,.28,1.16,1.9,1.9,0,0,1-.28,1.17.76.76,0,0,1-.65.29.81.81,0,0,1-.67-.32,1.87,1.87,0,0,1-.26-1.14,1.89,1.89,0,0,1,.29-1.17A.78.78,0,0,1,56.18,87.64Zm0,.45a.28.28,0,0,0-.17.07.39.39,0,0,0-.13.23,3.76,3.76,0,0,0-.05.71,3.3,3.3,0,0,0,.05.69.52.52,0,0,0,.13.26.27.27,0,0,0,.17.06.24.24,0,0,0,.18-.07.41.41,0,0,0,.12-.22,3,3,0,0,0,.06-.72,3.44,3.44,0,0,0,0-.69.51.51,0,0,0-.13-.25A.29.29,0,0,0,56.18,88.09Z" fill="none" stroke="#fff" stroke-width="4.2"/></g><g style="isolation:isolate"><path d="M115.21,102.7l.54-.07a.47.47,0,0,0,.13.31.4.4,0,0,0,.27.11.36.36,0,0,0,.29-.13.48.48,0,0,0,.11-.35.43.43,0,0,0-.11-.32.35.35,0,0,0-.27-.13.92.92,0,0,0-.25,0l.06-.45a.49.49,0,0,0,.34-.1.34.34,0,0,0,.12-.27.31.31,0,0,0-.32-.32.37.37,0,0,0-.24.1.55.55,0,0,0-.12.29l-.5-.09a1,1,0,0,1,.15-.41.73.73,0,0,1,.3-.25,1,1,0,0,1,.43-.09.87.87,0,0,1,.65.26.69.69,0,0,1,.2.48.68.68,0,0,1-.41.6.65.65,0,0,1,.39.23.7.7,0,0,1,.15.45.84.84,0,0,1-.28.64.93.93,0,0,1-.68.27,1,1,0,0,1-.65-.23A.89.89,0,0,1,115.21,102.7Z" fill="#0072bc"/><path d="M117.47,102.79l.53-.05a.53.53,0,0,0,.1.24.32.32,0,0,0,.22.07.36.36,0,0,0,.29-.15,1.33,1.33,0,0,0,.15-.65.66.66,0,0,1-.52.24.78.78,0,0,1-.58-.26,1,1,0,0,1-.24-.68,1,1,0,0,1,.25-.7.94.94,0,0,1,1.38.07,1.7,1.7,0,0,1,.28,1.11,1.78,1.78,0,0,1-.29,1.13,1,1,0,0,1-.76.35.78.78,0,0,1-.54-.18A.87.87,0,0,1,117.47,102.79Zm1.24-1.19a.66.66,0,0,0-.12-.42.37.37,0,0,0-.28-.14.3.3,0,0,0-.25.12.59.59,0,0,0-.1.39.65.65,0,0,0,.1.41.39.39,0,0,0,.28.13.32.32,0,0,0,.26-.13A.49.49,0,0,0,118.71,101.6Z" fill="#0072bc"/><path d="M120.15,101.91a.68.68,0,0,1-.18-1.12.9.9,0,0,1,.64-.21.89.89,0,0,1,.63.21.7.7,0,0,1,.23.53.61.61,0,0,1-.11.35.57.57,0,0,1-.29.24.89.89,0,0,1,.37.28.77.77,0,0,1,.12.43.9.9,0,0,1-.25.64,1,1,0,0,1-.68.25,1,1,0,0,1-.65-.21.8.8,0,0,1-.3-.66.79.79,0,0,1,.11-.43A.77.77,0,0,1,120.15,101.91Zm.07.68a.54.54,0,0,0,.11.35.41.41,0,0,0,.29.13.33.33,0,0,0,.28-.13.46.46,0,0,0,.12-.35.44.44,0,0,0-.12-.32.36.36,0,0,0-.28-.12.32.32,0,0,0-.3.14A.47.47,0,0,0,120.22,102.59Zm0-1.23a.37.37,0,0,0,.09.26.36.36,0,0,0,.5-.51.34.34,0,0,0-.59.25Z" fill="#0072bc"/></g><g style="isolation:isolate"><path d="M52.66,90v.51H50.74a1.33,1.33,0,0,1,.18-.54,3.71,3.71,0,0,1,.62-.69,4.33,4.33,0,0,0,.46-.47.62.62,0,0,0,.11-.33.38.38,0,0,0-.1-.29.41.41,0,0,0-.27-.1.38.38,0,0,0-.28.11.57.57,0,0,0-.11.34l-.55-.05a.88.88,0,0,1,.31-.65,1,1,0,0,1,.64-.2,1,1,0,0,1,.67.23.75.75,0,0,1,.24.57.86.86,0,0,1-.07.36,1.63,1.63,0,0,1-.22.37,3.77,3.77,0,0,1-.36.37l-.33.31-.11.15Z" fill="#00b398"/><path d="M54,87.64a.78.78,0,0,1,.65.3,1.85,1.85,0,0,1,.28,1.16,1.9,1.9,0,0,1-.28,1.17.77.77,0,0,1-.65.29.79.79,0,0,1-.67-.32A1.8,1.8,0,0,1,53,89.1a1.9,1.9,0,0,1,.28-1.17A.8.8,0,0,1,54,87.64Zm0,.45a.29.29,0,0,0-.18.07.45.45,0,0,0-.12.23,2.92,2.92,0,0,0-.06.71,3.3,3.3,0,0,0,0,.69.62.62,0,0,0,.13.26.28.28,0,0,0,.18.06.26.26,0,0,0,.18-.07.41.41,0,0,0,.12-.22,3.11,3.11,0,0,0,.05-.72,2.81,2.81,0,0,0-.05-.69.44.44,0,0,0-.12-.25A.31.31,0,0,0,54,88.09Z" fill="#00b398"/><path d="M56.18,87.64a.77.77,0,0,1,.65.3,1.85,1.85,0,0,1,.28,1.16,1.9,1.9,0,0,1-.28,1.17.76.76,0,0,1-.65.29.81.81,0,0,1-.67-.32,1.87,1.87,0,0,1-.26-1.14,1.89,1.89,0,0,1,.29-1.17A.78.78,0,0,1,56.18,87.64Zm0,.45a.28.28,0,0,0-.17.07.39.39,0,0,0-.13.23,3.76,3.76,0,0,0-.05.71,3.3,3.3,0,0,0,.05.69.52.52,0,0,0,.13.26.27.27,0,0,0,.17.06.24.24,0,0,0,.18-.07.41.41,0,0,0,.12-.22,3,3,0,0,0,.06-.72,3.44,3.44,0,0,0,0-.69.51.51,0,0,0-.13-.25A.29.29,0,0,0,56.18,88.09Z" fill="#00b398"/></g></g><path d="M90,34.58a43.28,43.28,0,0,1,11.38,1.52Q90,78,60.41,46.24c.87-.82,1.77-1.59,2.71-2.33Q90,78,90,34.58Z" stroke="#fff" stroke-opacity="0.15" opacity="0.7" fill="url(#h)"/><g opacity="0" style="isolation:isolate"><g style="isolation:isolate"><path d="M93,40.17v-.58H91.79v-.48L93,37.29h.46v1.82h.36v.48h-.36v.58Zm0-1.06v-1l-.66,1Z" fill="none" stroke="#fff" stroke-width="4.2"/><path d="M94.12,39.43l.54,0a.47.47,0,0,0,.14.29.4.4,0,0,0,.27.11.38.38,0,0,0,.29-.14.66.66,0,0,0,.12-.42.58.58,0,0,0-.12-.4.39.39,0,0,0-.31-.13.54.54,0,0,0-.42.21l-.45-.07.28-1.49h1.46v.52h-1l-.09.48a.88.88,0,0,1,.38-.09.83.83,0,0,1,.62.27.93.93,0,0,1,.25.69,1.1,1.1,0,0,1-.2.63.93.93,0,0,1-.78.38,1,1,0,0,1-.65-.22A.87.87,0,0,1,94.12,39.43Z" fill="none" stroke="#fff" stroke-width="4.2"/><path d="M97.41,40.17v-.58H96.24v-.48l1.24-1.82h.46v1.82h.36v.48h-.36v.58Zm0-1.06v-1l-.66,1Z" fill="none" stroke="#fff" stroke-width="4.2"/></g><g style="isolation:isolate"><path d="M63.4,49h-.55V47a1.89,1.89,0,0,1-.71.42v-.5a1.55,1.55,0,0,0,.47-.27,1,1,0,0,0,.34-.45h.45Z" fill="none" stroke="#fff" stroke-width="4.2"/><path d="M65.3,49v-.57H64.12V48l1.25-1.81h.46V48h.35v.49h-.35V49Zm0-1.06V47l-.66,1Z" fill="none" stroke="#fff" stroke-width="4.2"/><path d="M67.85,49H67.3V47a1.89,1.89,0,0,1-.71.42v-.5a1.55,1.55,0,0,0,.47-.27,1,1,0,0,0,.34-.45h.45Z" fill="none" stroke="#fff" stroke-width="4.2"/></g><g style="isolation:isolate"><path d="M93,40.17v-.58H91.79v-.48L93,37.29h.46v1.82h.36v.48h-.36v.58Zm0-1.06v-1l-.66,1Z" fill="#ef4a60"/><path d="M94.12,39.43l.54,0a.47.47,0,0,0,.14.29.4.4,0,0,0,.27.11.38.38,0,0,0,.29-.14.66.66,0,0,0,.12-.42.58.58,0,0,0-.12-.4.39.39,0,0,0-.31-.13.54.54,0,0,0-.42.21l-.45-.07.28-1.49h1.46v.52h-1l-.09.48a.88.88,0,0,1,.38-.09.83.83,0,0,1,.62.27.93.93,0,0,1,.25.69,1.1,1.1,0,0,1-.2.63.93.93,0,0,1-.78.38,1,1,0,0,1-.65-.22A.87.87,0,0,1,94.12,39.43Z" fill="#ef4a60"/><path d="M97.41,40.17v-.58H96.24v-.48l1.24-1.82h.46v1.82h.36v.48h-.36v.58Zm0-1.06v-1l-.66,1Z" fill="#ef4a60"/></g><g style="isolation:isolate"><path d="M63.4,49h-.55V47a1.89,1.89,0,0,1-.71.42v-.5a1.55,1.55,0,0,0,.47-.27,1,1,0,0,0,.34-.45h.45Z" fill="#00b398"/><path d="M65.3,49v-.57H64.12V48l1.25-1.81h.46V48h.35v.49h-.35V49Zm0-1.06V47l-.66,1Z" fill="#00b398"/><path d="M67.85,49H67.3V47a1.89,1.89,0,0,1-.71.42v-.5a1.55,1.55,0,0,0,.47-.27,1,1,0,0,0,.34-.45h.45Z" fill="#00b398"/></g></g><path d="M104.21,119a42.92,42.92,0,0,1-7,1.79Q90,78,47.86,88.36a43.18,43.18,0,0,1-1.14-7.23Q90,78,104.21,119Z" stroke="#fff" stroke-opacity="0.15" opacity="0.7" fill="url(#i)"/><g opacity="0" style="isolation:isolate"><g style="isolation:isolate"><path d="M98.14,114.43v.51H96.22a1.42,1.42,0,0,1,.18-.55,3.73,3.73,0,0,1,.62-.68,4.33,4.33,0,0,0,.46-.47.65.65,0,0,0,.11-.34.37.37,0,0,0-.1-.28.35.35,0,0,0-.27-.1.38.38,0,0,0-.28.11.54.54,0,0,0-.11.34l-.55,0a.92.92,0,0,1,.31-.66,1,1,0,0,1,.64-.19.91.91,0,0,1,.67.23.74.74,0,0,1,.24.56.9.9,0,0,1-.07.37,1.63,1.63,0,0,1-.22.37,3.92,3.92,0,0,1-.36.36l-.33.32-.11.15Z" fill="none" stroke="#fff" stroke-width="4.2"/><path d="M99,113.4a.72.72,0,0,1-.31-.25.69.69,0,0,1-.09-.34.68.68,0,0,1,.22-.53.9.9,0,0,1,.64-.21.89.89,0,0,1,.63.21.69.69,0,0,1,.23.53.61.61,0,0,1-.11.35.7.7,0,0,1-.29.24.75.75,0,0,1,.49.7.87.87,0,0,1-.26.65.92.92,0,0,1-.67.24,1,1,0,0,1-.65-.2.81.81,0,0,1-.31-.67.79.79,0,0,1,.12-.42A.77.77,0,0,1,99,113.4Zm.06.67a.48.48,0,0,0,.12.35.37.37,0,0,0,.29.13.36.36,0,0,0,.28-.12.48.48,0,0,0,.11-.35.44.44,0,0,0-.11-.33.37.37,0,0,0-.29-.12.36.36,0,0,0-.3.14A.54.54,0,0,0,99,114.07Zm.06-1.23a.36.36,0,0,0,.09.26.33.33,0,0,0,.25.09.37.37,0,0,0,.25-.09.36.36,0,0,0,.09-.26.32.32,0,0,0-.09-.24.33.33,0,0,0-.25-.1.32.32,0,0,0-.25.1A.32.32,0,0,0,99.1,112.84Z" fill="none" stroke="#fff" stroke-width="4.2"/><path d="M100.74,114.21l.55-.06a.47.47,0,0,0,.14.29.36.36,0,0,0,.27.11.38.38,0,0,0,.29-.14.62.62,0,0,0,.12-.42.55.55,0,0,0-.12-.39.4.4,0,0,0-.31-.14.54.54,0,0,0-.42.21l-.45-.06.28-1.49h1.45v.51h-1l-.09.49a.85.85,0,0,1,.38-.09.82.82,0,0,1,.62.26,1,1,0,0,1,.25.69,1.05,1.05,0,0,1-.2.63.91.91,0,0,1-.78.38,1,1,0,0,1-.65-.21A.93.93,0,0,1,100.74,114.21Z" fill="none" stroke="#fff" stroke-width="4.2"/></g><g style="isolation:isolate"><path d="M51,83.44V84H49.09a1.32,1.32,0,0,1,.18-.55,4.06,4.06,0,0,1,.62-.69,3.55,3.55,0,0,0,.46-.47.62.62,0,0,0,.11-.33.38.38,0,0,0-.1-.29.37.37,0,0,0-.27-.09.35.35,0,0,0-.27.1.51.51,0,0,0-.12.34l-.55,0a.9.9,0,0,1,.31-.65,1,1,0,0,1,.64-.2.94.94,0,0,1,.67.23.75.75,0,0,1,.24.57.94.94,0,0,1-.07.37,1.45,1.45,0,0,1-.22.36,2.31,2.31,0,0,1-.36.37l-.33.31-.11.16Z" fill="none" stroke="#fff" stroke-width="4.2"/><path d="M51.85,82.4a.65.65,0,0,1-.31-.25.67.67,0,0,1-.09-.34.69.69,0,0,1,.22-.53.9.9,0,0,1,.64-.21.89.89,0,0,1,.63.21.7.7,0,0,1,.23.53.61.61,0,0,1-.11.35.57.57,0,0,1-.29.24.74.74,0,0,1,.36.28.68.68,0,0,1,.13.42.87.87,0,0,1-.26.65.92.92,0,0,1-.67.25,1,1,0,0,1-.65-.21.8.8,0,0,1-.3-.66.79.79,0,0,1,.11-.43A.77.77,0,0,1,51.85,82.4Zm.07.68a.54.54,0,0,0,.11.35.41.41,0,0,0,.29.13.36.36,0,0,0,.28-.13.48.48,0,0,0,.11-.35.43.43,0,0,0-.11-.32.37.37,0,0,0-.29-.12.35.35,0,0,0-.3.13A.59.59,0,0,0,51.92,83.08Zm0-1.23a.33.33,0,0,0,.09.25.3.3,0,0,0,.25.1.36.36,0,0,0,.25-.6.34.34,0,0,0-.59.25Z" fill="none" stroke="#fff" stroke-width="4.2"/><path d="M53.62,83.28l.53,0a.44.44,0,0,0,.1.24.32.32,0,0,0,.22.07.36.36,0,0,0,.29-.15,1.33,1.33,0,0,0,.15-.65.66.66,0,0,1-.52.24.78.78,0,0,1-.58-.26,1.06,1.06,0,0,1,0-1.38.94.94,0,0,1,1.38.07,2.34,2.34,0,0,1,0,2.24,1,1,0,0,1-.76.35.81.81,0,0,1-.55-.18A.92.92,0,0,1,53.62,83.28Zm1.24-1.2a.65.65,0,0,0-.12-.41.38.38,0,0,0-.28-.14.34.34,0,0,0-.26.12.65.65,0,0,0-.1.39.67.67,0,0,0,.11.41.39.39,0,0,0,.28.13.32.32,0,0,0,.26-.13A.5.5,0,0,0,54.86,82.08Z" fill="none" stroke="#fff" stroke-width="4.2"/></g><g style="isolation:isolate"><path d="M98.14,114.43v.51H96.22a1.42,1.42,0,0,1,.18-.55,3.73,3.73,0,0,1,.62-.68,4.33,4.33,0,0,0,.46-.47.65.65,0,0,0,.11-.34.37.37,0,0,0-.1-.28.35.35,0,0,0-.27-.1.38.38,0,0,0-.28.11.54.54,0,0,0-.11.34l-.55,0a.92.92,0,0,1,.31-.66,1,1,0,0,1,.64-.19.91.91,0,0,1,.67.23.74.74,0,0,1,.24.56.9.9,0,0,1-.07.37,1.63,1.63,0,0,1-.22.37,3.92,3.92,0,0,1-.36.36l-.33.32-.11.15Z" fill="#0072bc"/><path d="M99,113.4a.72.72,0,0,1-.31-.25.69.69,0,0,1-.09-.34.68.68,0,0,1,.22-.53.9.9,0,0,1,.64-.21.89.89,0,0,1,.63.21.69.69,0,0,1,.23.53.61.61,0,0,1-.11.35.7.7,0,0,1-.29.24.75.75,0,0,1,.49.7.87.87,0,0,1-.26.65.92.92,0,0,1-.67.24,1,1,0,0,1-.65-.2.81.81,0,0,1-.31-.67.79.79,0,0,1,.12-.42A.77.77,0,0,1,99,113.4Zm.06.67a.48.48,0,0,0,.12.35.37.37,0,0,0,.29.13.36.36,0,0,0,.28-.12.48.48,0,0,0,.11-.35.44.44,0,0,0-.11-.33.37.37,0,0,0-.29-.12.36.36,0,0,0-.3.14A.54.54,0,0,0,99,114.07Zm.06-1.23a.36.36,0,0,0,.09.26.33.33,0,0,0,.25.09.37.37,0,0,0,.25-.09.36.36,0,0,0,.09-.26.32.32,0,0,0-.09-.24.33.33,0,0,0-.25-.1.32.32,0,0,0-.25.1A.32.32,0,0,0,99.1,112.84Z" fill="#0072bc"/><path d="M100.74,114.21l.55-.06a.47.47,0,0,0,.14.29.36.36,0,0,0,.27.11.38.38,0,0,0,.29-.14.62.62,0,0,0,.12-.42.55.55,0,0,0-.12-.39.4.4,0,0,0-.31-.14.54.54,0,0,0-.42.21l-.45-.06.28-1.49h1.45v.51h-1l-.09.49a.85.85,0,0,1,.38-.09.82.82,0,0,1,.62.26,1,1,0,0,1,.25.69,1.05,1.05,0,0,1-.2.63.91.91,0,0,1-.78.38,1,1,0,0,1-.65-.21A.93.93,0,0,1,100.74,114.21Z" fill="#0072bc"/></g><g style="isolation:isolate"><path d="M51,83.44V84H49.09a1.32,1.32,0,0,1,.18-.55,4.06,4.06,0,0,1,.62-.69,3.55,3.55,0,0,0,.46-.47.62.62,0,0,0,.11-.33.38.38,0,0,0-.1-.29.37.37,0,0,0-.27-.09.35.35,0,0,0-.27.1.51.51,0,0,0-.12.34l-.55,0a.9.9,0,0,1,.31-.65,1,1,0,0,1,.64-.2.94.94,0,0,1,.67.23.75.75,0,0,1,.24.57.94.94,0,0,1-.07.37,1.45,1.45,0,0,1-.22.36,2.31,2.31,0,0,1-.36.37l-.33.31-.11.16Z" fill="#00b398"/><path d="M51.85,82.4a.65.65,0,0,1-.31-.25.67.67,0,0,1-.09-.34.69.69,0,0,1,.22-.53.9.9,0,0,1,.64-.21.89.89,0,0,1,.63.21.7.7,0,0,1,.23.53.61.61,0,0,1-.11.35.57.57,0,0,1-.29.24.74.74,0,0,1,.36.28.68.68,0,0,1,.13.42.87.87,0,0,1-.26.65.92.92,0,0,1-.67.25,1,1,0,0,1-.65-.21.8.8,0,0,1-.3-.66.79.79,0,0,1,.11-.43A.77.77,0,0,1,51.85,82.4Zm.07.68a.54.54,0,0,0,.11.35.41.41,0,0,0,.29.13.36.36,0,0,0,.28-.13.48.48,0,0,0,.11-.35.43.43,0,0,0-.11-.32.37.37,0,0,0-.29-.12.35.35,0,0,0-.3.13A.59.59,0,0,0,51.92,83.08Zm0-1.23a.33.33,0,0,0,.09.25.3.3,0,0,0,.25.1.36.36,0,0,0,.25-.6.34.34,0,0,0-.59.25Z" fill="#00b398"/><path d="M53.62,83.28l.53,0a.44.44,0,0,0,.1.24.32.32,0,0,0,.22.07.36.36,0,0,0,.29-.15,1.33,1.33,0,0,0,.15-.65.66.66,0,0,1-.52.24.78.78,0,0,1-.58-.26,1.06,1.06,0,0,1,0-1.38.94.94,0,0,1,1.38.07,2.34,2.34,0,0,1,0,2.24,1,1,0,0,1-.76.35.81.81,0,0,1-.55-.18A.92.92,0,0,1,53.62,83.28Zm1.24-1.2a.65.65,0,0,0-.12-.41.38.38,0,0,0-.28-.14.34.34,0,0,0-.26.12.65.65,0,0,0-.1.39.67.67,0,0,0,.11.41.39.39,0,0,0,.28.13.32.32,0,0,0,.26-.13A.5.5,0,0,0,54.86,82.08Z" fill="#00b398"/></g></g><path d="M127.63,56.34A43.61,43.61,0,0,1,130.75,63Q90,78,76,36.9a43.58,43.58,0,0,1,6.16-1.61Q90,78,127.63,56.34Z" stroke="#fff" stroke-opacity="0.15" opacity="0.7" fill="url(#j)"/><g opacity="0" style="isolation:isolate"><g style="isolation:isolate"><path d="M123.26,61.33v.51h-1.93a1.39,1.39,0,0,1,.19-.55,3.66,3.66,0,0,1,.62-.69,3.25,3.25,0,0,0,.45-.47.56.56,0,0,0,.12-.33.4.4,0,0,0-.1-.28.37.37,0,0,0-.28-.1.36.36,0,0,0-.27.1.54.54,0,0,0-.12.35l-.54-.06a.89.89,0,0,1,.3-.65,1.07,1.07,0,0,1,.65-.2.93.93,0,0,1,.66.23.72.72,0,0,1,.25.57,1.16,1.16,0,0,1-.07.37,1.59,1.59,0,0,1-.22.36,3.77,3.77,0,0,1-.36.37c-.17.16-.28.26-.33.32a.72.72,0,0,0-.11.15Z" fill="none" stroke="#fff" stroke-width="4.2"/><path d="M123.64,61.18l.53-.06a.38.38,0,0,0,.1.24.33.33,0,0,0,.22.08.38.38,0,0,0,.29-.16,1.33,1.33,0,0,0,.15-.65.66.66,0,0,1-.52.24.78.78,0,0,1-.58-.26,1,1,0,0,1-.25-.68,1,1,0,0,1,.26-.7.9.9,0,0,1,.66-.27.92.92,0,0,1,.72.34,2.34,2.34,0,0,1,0,2.24,1,1,0,0,1-.76.35.77.77,0,0,1-.54-.18A.87.87,0,0,1,123.64,61.18Zm1.24-1.2a.66.66,0,0,0-.12-.42.38.38,0,0,0-.28-.14.34.34,0,0,0-.26.12.81.81,0,0,0,0,.8.39.39,0,0,0,.28.13.32.32,0,0,0,.26-.13A.49.49,0,0,0,124.88,60Z" fill="none" stroke="#fff" stroke-width="4.2"/><path d="M127.26,61.84h-.55V59.77a1.89,1.89,0,0,1-.71.42v-.5a1.79,1.79,0,0,0,.47-.27,1,1,0,0,0,.34-.46h.45Z" fill="none" stroke="#fff" stroke-width="4.2"/></g><g style="isolation:isolate"><path d="M79.07,40.56v.51H77.15a1.21,1.21,0,0,1,.19-.55,3.58,3.58,0,0,1,.61-.69,4.33,4.33,0,0,0,.46-.47.62.62,0,0,0,.11-.33.38.38,0,0,0-.1-.29.37.37,0,0,0-.27-.09.35.35,0,0,0-.27.1.51.51,0,0,0-.12.34L77.21,39a.93.93,0,0,1,.31-.65,1,1,0,0,1,.64-.2.94.94,0,0,1,.67.23.75.75,0,0,1,.24.57.94.94,0,0,1-.07.37,1.45,1.45,0,0,1-.22.36,2.31,2.31,0,0,1-.36.37l-.33.31-.11.16Z" fill="none" stroke="#fff" stroke-width="4.2"/><path d="M79.45,40.33l.55-.06a.45.45,0,0,0,.14.3.35.35,0,0,0,.26.1.36.36,0,0,0,.29-.13.67.67,0,0,0,.12-.43.57.57,0,0,0-.12-.39.37.37,0,0,0-.3-.13.57.57,0,0,0-.43.21l-.44-.07.28-1.49h1.45v.51h-1l-.08.49a.84.84,0,0,1,.37-.09.81.81,0,0,1,.62.27.93.93,0,0,1,.26.68,1,1,0,0,1-.21.64.89.89,0,0,1-.77.37,1,1,0,0,1-.65-.21A.84.84,0,0,1,79.45,40.33Z" fill="none" stroke="#fff" stroke-width="4.2"/><path d="M83.07,41.07h-.55V39a1.92,1.92,0,0,1-.71.41v-.49a1.65,1.65,0,0,0,.47-.27,1.09,1.09,0,0,0,.35-.46h.44Z" fill="none" stroke="#fff" stroke-width="4.2"/></g><g style="isolation:isolate"><path d="M79.07,40.56v.51H77.15a1.21,1.21,0,0,1,.19-.55,3.58,3.58,0,0,1,.61-.69,4.33,4.33,0,0,0,.46-.47.62.62,0,0,0,.11-.33.38.38,0,0,0-.1-.29.37.37,0,0,0-.27-.09.35.35,0,0,0-.27.1.51.51,0,0,0-.12.34L77.21,39a.93.93,0,0,1,.31-.65,1,1,0,0,1,.64-.2.94.94,0,0,1,.67.23.75.75,0,0,1,.24.57.94.94,0,0,1-.07.37,1.45,1.45,0,0,1-.22.36,2.31,2.31,0,0,1-.36.37l-.33.31-.11.16Z" fill="#00b398"/><path d="M79.45,40.33l.55-.06a.45.45,0,0,0,.14.3.35.35,0,0,0,.26.1.36.36,0,0,0,.29-.13.67.67,0,0,0,.12-.43.57.57,0,0,0-.12-.39.37.37,0,0,0-.3-.13.57.57,0,0,0-.43.21l-.44-.07.28-1.49h1.45v.51h-1l-.08.49a.84.84,0,0,1,.37-.09.81.81,0,0,1,.62.27.93.93,0,0,1,.26.68,1,1,0,0,1-.21.64.89.89,0,0,1-.77.37,1,1,0,0,1-.65-.21A.84.84,0,0,1,79.45,40.33Z" fill="#00b398"/><path d="M83.07,41.07h-.55V39a1.92,1.92,0,0,1-.71.41v-.49a1.65,1.65,0,0,0,.47-.27,1.09,1.09,0,0,0,.35-.46h.44Z" fill="#00b398"/></g></g><path d="M118.73,110.52a42.94,42.94,0,0,1-7,5Q90,78,73.47,118.11a43.59,43.59,0,0,1-4.57-2.2Q90,78,118.73,110.52Z" stroke="#fff" stroke-opacity="0.15" opacity="0.7" fill="url(#k)"/><g opacity="0" style="isolation:isolate"><g style="isolation:isolate"><path d="M109.1,108.19l.53-.07a.53.53,0,0,0,.14.32.35.35,0,0,0,.26.1.36.36,0,0,0,.29-.13.47.47,0,0,0,.12-.34.49.49,0,0,0-.11-.33.38.38,0,0,0-.28-.12.85.85,0,0,0-.25,0l.06-.45a.49.49,0,0,0,.34-.1.35.35,0,0,0,0-.5.27.27,0,0,0-.22-.08.32.32,0,0,0-.24.09.49.49,0,0,0-.13.29l-.5-.09a1,1,0,0,1,.16-.41.71.71,0,0,1,.29-.25,1,1,0,0,1,.43-.09.86.86,0,0,1,.65.26.69.69,0,0,1,.2.48.68.68,0,0,1-.41.6.68.68,0,0,1,.54.68.83.83,0,0,1-.28.64.93.93,0,0,1-.68.27,1,1,0,0,1-.65-.23A.84.84,0,0,1,109.1,108.19Z" fill="none" stroke="#fff" stroke-width="4.2"/><path d="M112.42,109v-.58h-1.17v-.48l1.24-1.82H113v1.82h.36v.48H113V109Zm0-1.06v-1l-.66,1Z" fill="none" stroke="#fff" stroke-width="4.2"/><path d="M115,109h-.55v-2.07a1.89,1.89,0,0,1-.71.42v-.5a1.65,1.65,0,0,0,.47-.27,1,1,0,0,0,.35-.46H115Z" fill="none" stroke="#fff" stroke-width="4.2"/></g><g style="isolation:isolate"><path d="M72.12,111.83v.51H70.2a1.21,1.21,0,0,1,.19-.54,3.58,3.58,0,0,1,.61-.69,4.33,4.33,0,0,0,.46-.47.62.62,0,0,0,.11-.33.38.38,0,0,0-.1-.29.37.37,0,0,0-.27-.1.35.35,0,0,0-.27.11.51.51,0,0,0-.12.34l-.55-.05a.91.91,0,0,1,.31-.65,1,1,0,0,1,.64-.2.94.94,0,0,1,.67.23.75.75,0,0,1,.24.57.86.86,0,0,1-.07.36,1.33,1.33,0,0,1-.22.37,2.31,2.31,0,0,1-.36.37l-.33.31-.11.15Z" fill="none" stroke="#fff" stroke-width="4.2"/><path d="M73.42,109.47a.77.77,0,0,1,.65.3,1.85,1.85,0,0,1,.28,1.16,1.9,1.9,0,0,1-.28,1.17.76.76,0,0,1-.65.29.79.79,0,0,1-.67-.32,1.87,1.87,0,0,1-.26-1.14,2,2,0,0,1,.28-1.17A.8.8,0,0,1,73.42,109.47Zm0,.45a.31.31,0,0,0-.18.07.45.45,0,0,0-.12.23,3.06,3.06,0,0,0-.05.71,2.71,2.71,0,0,0,.05.69.52.52,0,0,0,.12.26.3.3,0,0,0,.18.06.28.28,0,0,0,.18-.06.49.49,0,0,0,.12-.23,3,3,0,0,0,.06-.72,3.44,3.44,0,0,0,0-.69.51.51,0,0,0-.13-.25A.29.29,0,0,0,73.42,109.92Z" fill="none" stroke="#fff" stroke-width="4.2"/><path d="M75.65,109.47a.79.79,0,0,1,.65.3,1.91,1.91,0,0,1,.28,1.16,1.89,1.89,0,0,1-.29,1.17.75.75,0,0,1-.64.29.81.81,0,0,1-.68-.32,1.88,1.88,0,0,1-.25-1.14,1.9,1.9,0,0,1,.28-1.17A.79.79,0,0,1,75.65,109.47Zm0,.45a.29.29,0,0,0-.18.07.45.45,0,0,0-.12.23,2.92,2.92,0,0,0-.06.71,3.3,3.3,0,0,0,0,.69.62.62,0,0,0,.13.26.28.28,0,0,0,.18.06.27.27,0,0,0,.17-.06.36.36,0,0,0,.12-.23,3,3,0,0,0,.06-.72,3.44,3.44,0,0,0,0-.69.44.44,0,0,0-.13-.25A.28.28,0,0,0,75.65,109.92Z" fill="none" stroke="#fff" stroke-width="4.2"/></g><g style="isolation:isolate"><path d="M109.1,108.19l.53-.07a.53.53,0,0,0,.14.32.35.35,0,0,0,.26.1.36.36,0,0,0,.29-.13.47.47,0,0,0,.12-.34.49.49,0,0,0-.11-.33.38.38,0,0,0-.28-.12.85.85,0,0,0-.25,0l.06-.45a.49.49,0,0,0,.34-.1.35.35,0,0,0,0-.5.27.27,0,0,0-.22-.08.32.32,0,0,0-.24.09.49.49,0,0,0-.13.29l-.5-.09a1,1,0,0,1,.16-.41.71.71,0,0,1,.29-.25,1,1,0,0,1,.43-.09.86.86,0,0,1,.65.26.69.69,0,0,1,.2.48.68.68,0,0,1-.41.6.68.68,0,0,1,.54.68.83.83,0,0,1-.28.64.93.93,0,0,1-.68.27,1,1,0,0,1-.65-.23A.84.84,0,0,1,109.1,108.19Z" fill="#0072bc"/><path d="M112.42,109v-.58h-1.17v-.48l1.24-1.82H113v1.82h.36v.48H113V109Zm0-1.06v-1l-.66,1Z" fill="#0072bc"/><path d="M115,109h-.55v-2.07a1.89,1.89,0,0,1-.71.42v-.5a1.65,1.65,0,0,0,.47-.27,1,1,0,0,0,.35-.46H115Z" fill="#0072bc"/></g><g style="isolation:isolate"><path d="M72.12,111.83v.51H70.2a1.21,1.21,0,0,1,.19-.54,3.58,3.58,0,0,1,.61-.69,4.33,4.33,0,0,0,.46-.47.62.62,0,0,0,.11-.33.38.38,0,0,0-.1-.29.37.37,0,0,0-.27-.1.35.35,0,0,0-.27.11.51.51,0,0,0-.12.34l-.55-.05a.91.91,0,0,1,.31-.65,1,1,0,0,1,.64-.2.94.94,0,0,1,.67.23.75.75,0,0,1,.24.57.86.86,0,0,1-.07.36,1.33,1.33,0,0,1-.22.37,2.31,2.31,0,0,1-.36.37l-.33.31-.11.15Z" fill="#00b398"/><path d="M73.42,109.47a.77.77,0,0,1,.65.3,1.85,1.85,0,0,1,.28,1.16,1.9,1.9,0,0,1-.28,1.17.76.76,0,0,1-.65.29.79.79,0,0,1-.67-.32,1.87,1.87,0,0,1-.26-1.14,2,2,0,0,1,.28-1.17A.8.8,0,0,1,73.42,109.47Zm0,.45a.31.31,0,0,0-.18.07.45.45,0,0,0-.12.23,3.06,3.06,0,0,0-.05.71,2.71,2.71,0,0,0,.05.69.52.52,0,0,0,.12.26.3.3,0,0,0,.18.06.28.28,0,0,0,.18-.06.49.49,0,0,0,.12-.23,3,3,0,0,0,.06-.72,3.44,3.44,0,0,0,0-.69.51.51,0,0,0-.13-.25A.29.29,0,0,0,73.42,109.92Z" fill="#00b398"/><path d="M75.65,109.47a.79.79,0,0,1,.65.3,1.91,1.91,0,0,1,.28,1.16,1.89,1.89,0,0,1-.29,1.17.75.75,0,0,1-.64.29.81.81,0,0,1-.68-.32,1.88,1.88,0,0,1-.25-1.14,1.9,1.9,0,0,1,.28-1.17A.79.79,0,0,1,75.65,109.47Zm0,.45a.29.29,0,0,0-.18.07.45.45,0,0,0-.12.23,2.92,2.92,0,0,0-.06.71,3.3,3.3,0,0,0,0,.69.62.62,0,0,0,.13.26.28.28,0,0,0,.18.06.27.27,0,0,0,.17-.06.36.36,0,0,0,.12-.23,3,3,0,0,0,.06-.72,3.44,3.44,0,0,0,0-.69.44.44,0,0,0-.13-.25A.28.28,0,0,0,75.65,109.92Z" fill="#00b398"/></g></g><path d="M130.75,63a43.41,43.41,0,0,1,1.83,6.51,152.19,152.19,0,0,1-83.35-6.42,42.91,42.91,0,0,1,2.56-5.71Q90,78,130.75,63Z" stroke="#fff" stroke-opacity="0.15" opacity="0.7" fill="url(#l)"/><g opacity="0" style="isolation:isolate"><g style="isolation:isolate"><path d="M125.42,67.15v.51h-1.93a1.64,1.64,0,0,1,.19-.55,3.73,3.73,0,0,1,.62-.68,3.19,3.19,0,0,0,.45-.47.59.59,0,0,0,.12-.34.41.41,0,0,0-.1-.28.36.36,0,0,0-.27-.1.38.38,0,0,0-.28.11.54.54,0,0,0-.11.34l-.55-.06a.88.88,0,0,1,.31-.65,1,1,0,0,1,.64-.19.93.93,0,0,1,.67.23.74.74,0,0,1,.24.56.94.94,0,0,1-.07.37,1.63,1.63,0,0,1-.22.37q-.1.12-.36.36l-.33.32a.72.72,0,0,0-.11.15Z" fill="none" stroke="#fff" stroke-width="4.2"/><path d="M127.65,65.5l-.53.06a.45.45,0,0,0-.1-.24.29.29,0,0,0-.22-.08.36.36,0,0,0-.29.15,1.33,1.33,0,0,0-.15.65.63.63,0,0,1,.51-.24.8.8,0,0,1,.59.26,1,1,0,0,1,.24.68,1,1,0,0,1-.26.71.9.9,0,0,1-.66.26.86.86,0,0,1-.71-.34,1.69,1.69,0,0,1-.28-1.1,1.81,1.81,0,0,1,.29-1.14.94.94,0,0,1,.76-.34.84.84,0,0,1,.54.18A.87.87,0,0,1,127.65,65.5Zm-1.25,1.2a.63.63,0,0,0,.13.41.35.35,0,0,0,.28.15.3.3,0,0,0,.25-.12.59.59,0,0,0,.1-.39.63.63,0,0,0-.1-.41.35.35,0,0,0-.28-.13.37.37,0,0,0-.27.12A.56.56,0,0,0,126.4,66.7Z" fill="none" stroke="#fff" stroke-width="4.2"/><path d="M128,65.35v-.51h1.88v.4a3.13,3.13,0,0,0-.47.65,4.24,4.24,0,0,0-.37.91,3.61,3.61,0,0,0-.12.86h-.53a3.82,3.82,0,0,1,.24-1.21,4.07,4.07,0,0,1,.62-1.1Z" fill="none" stroke="#fff" stroke-width="4.2"/></g><g style="isolation:isolate"><path d="M53.89,61.85v.51H52a1.21,1.21,0,0,1,.19-.54,3.37,3.37,0,0,1,.62-.69,3.9,3.9,0,0,0,.45-.47.54.54,0,0,0,.11-.33.42.42,0,0,0-.09-.29.41.41,0,0,0-.28-.1.37.37,0,0,0-.27.11.51.51,0,0,0-.12.34l-.54,0a.87.87,0,0,1,.3-.65,1,1,0,0,1,.65-.2.93.93,0,0,1,.66.23.76.76,0,0,1,.25.57,1,1,0,0,1-.07.36,1.63,1.63,0,0,1-.22.37,3.77,3.77,0,0,1-.36.37,2.74,2.74,0,0,0-.33.31.48.48,0,0,0-.11.15Z" fill="none" stroke="#fff" stroke-width="4.2"/><path d="M55.33,62.36v-.57H54.16v-.48l1.24-1.82h.46v1.82h.36v.48h-.36v.57Zm0-1v-1l-.66,1Z" fill="none" stroke="#fff" stroke-width="4.2"/><path d="M56.48,60.05v-.51h1.88v.4a2.8,2.8,0,0,0-.47.65,3.78,3.78,0,0,0-.37.91,3.21,3.21,0,0,0-.12.86h-.53a3.82,3.82,0,0,1,.24-1.21,4.07,4.07,0,0,1,.62-1.1Z" fill="none" stroke="#fff" stroke-width="4.2"/></g><g style="isolation:isolate"><path d="M125.42,67.15v.51h-1.93a1.64,1.64,0,0,1,.19-.55,3.73,3.73,0,0,1,.62-.68,3.19,3.19,0,0,0,.45-.47.59.59,0,0,0,.12-.34.41.41,0,0,0-.1-.28.36.36,0,0,0-.27-.1.38.38,0,0,0-.28.11.54.54,0,0,0-.11.34l-.55-.06a.88.88,0,0,1,.31-.65,1,1,0,0,1,.64-.19.93.93,0,0,1,.67.23.74.74,0,0,1,.24.56.94.94,0,0,1-.07.37,1.63,1.63,0,0,1-.22.37q-.1.12-.36.36l-.33.32a.72.72,0,0,0-.11.15Z" fill="#ef4a60"/><path d="M127.65,65.5l-.53.06a.45.45,0,0,0-.1-.24.29.29,0,0,0-.22-.08.36.36,0,0,0-.29.15,1.33,1.33,0,0,0-.15.65.63.63,0,0,1,.51-.24.8.8,0,0,1,.59.26,1,1,0,0,1,.24.68,1,1,0,0,1-.26.71.9.9,0,0,1-.66.26.86.86,0,0,1-.71-.34,1.69,1.69,0,0,1-.28-1.1,1.81,1.81,0,0,1,.29-1.14.94.94,0,0,1,.76-.34.84.84,0,0,1,.54.18A.87.87,0,0,1,127.65,65.5Zm-1.25,1.2a.63.63,0,0,0,.13.41.35.35,0,0,0,.28.15.3.3,0,0,0,.25-.12.59.59,0,0,0,.1-.39.63.63,0,0,0-.1-.41.35.35,0,0,0-.28-.13.37.37,0,0,0-.27.12A.56.56,0,0,0,126.4,66.7Z" fill="#ef4a60"/><path d="M128,65.35v-.51h1.88v.4a3.13,3.13,0,0,0-.47.65,4.24,4.24,0,0,0-.37.91,3.61,3.61,0,0,0-.12.86h-.53a3.82,3.82,0,0,1,.24-1.21,4.07,4.07,0,0,1,.62-1.1Z" fill="#ef4a60"/></g></g><path d="M118.16,45a43.64,43.64,0,0,1,5.23,5.3Q90,78,69.72,39.61a42.64,42.64,0,0,1,4.87-2.2Q90,78,118.16,45Z" stroke="#fff" stroke-opacity="0.15" opacity="0.7" fill="url(#m)"/><g opacity="0" style="isolation:isolate"><g style="isolation:isolate"><path d="M115.84,50.67v.51h-1.93a1.39,1.39,0,0,1,.19-.55,4.06,4.06,0,0,1,.62-.69,2.75,2.75,0,0,0,.45-.47.56.56,0,0,0,.12-.33.4.4,0,0,0-.1-.28.36.36,0,0,0-.27-.1.37.37,0,0,0-.28.1.57.57,0,0,0-.12.35l-.54-.06a.89.89,0,0,1,.3-.65,1.07,1.07,0,0,1,.65-.2,1,1,0,0,1,.67.23.75.75,0,0,1,.24.57,1.16,1.16,0,0,1-.07.37,1.59,1.59,0,0,1-.22.36,3.77,3.77,0,0,1-.36.37c-.17.16-.28.26-.33.32a.72.72,0,0,0-.11.15Z" fill="none" stroke="#fff" stroke-width="4.2"/><path d="M116.22,50.52l.53-.06a.45.45,0,0,0,.1.24.33.33,0,0,0,.22.08.38.38,0,0,0,.29-.16,1.33,1.33,0,0,0,.15-.65.66.66,0,0,1-.52.24.78.78,0,0,1-.58-.26,1,1,0,0,1-.24-.68,1,1,0,0,1,.25-.7.9.9,0,0,1,.66-.27.92.92,0,0,1,.72.34,1.7,1.7,0,0,1,.28,1.11,1.78,1.78,0,0,1-.29,1.13,1,1,0,0,1-.76.35.78.78,0,0,1-.54-.18A.87.87,0,0,1,116.22,50.52Zm1.24-1.2a.66.66,0,0,0-.12-.42.37.37,0,0,0-.28-.14.3.3,0,0,0-.25.12.59.59,0,0,0-.1.39.65.65,0,0,0,.1.41.39.39,0,0,0,.28.13.32.32,0,0,0,.26-.13A.49.49,0,0,0,117.46,49.32Z" fill="none" stroke="#fff" stroke-width="4.2"/><path d="M119.51,51.18V50.6h-1.17v-.48l1.24-1.82H120v1.82h.36v.48H120v.58Zm0-1.06v-1l-.66,1Z" fill="none" stroke="#fff" stroke-width="4.2"/></g><g style="isolation:isolate"><path d="M73.08,42.71v.51H71.16a1.33,1.33,0,0,1,.18-.54A3.42,3.42,0,0,1,72,42a4.33,4.33,0,0,0,.46-.47.65.65,0,0,0,.11-.34.37.37,0,0,0-.1-.28.41.41,0,0,0-.27-.1.38.38,0,0,0-.28.11.57.57,0,0,0-.11.34l-.55,0a.84.84,0,0,1,.31-.65,1,1,0,0,1,.64-.2.91.91,0,0,1,.67.23.75.75,0,0,1,.24.57.89.89,0,0,1-.07.36,1.63,1.63,0,0,1-.22.37c-.07.08-.19.21-.36.37l-.33.31-.11.15Z" fill="none" stroke="#fff" stroke-width="4.2"/><path d="M74.86,43.22h-.55V41.16a2,2,0,0,1-.71.41v-.5a1.36,1.36,0,0,0,.46-.26,1,1,0,0,0,.35-.46h.45Z" fill="none" stroke="#fff" stroke-width="4.2"/><path d="M76.86,43.22h-.55V41.16a2,2,0,0,1-.71.41v-.5a1.5,1.5,0,0,0,.47-.26,1,1,0,0,0,.34-.46h.45Z" fill="none" stroke="#fff" stroke-width="4.2"/></g><g style="isolation:isolate"><path d="M115.84,50.67v.51h-1.93a1.39,1.39,0,0,1,.19-.55,4.06,4.06,0,0,1,.62-.69,2.75,2.75,0,0,0,.45-.47.56.56,0,0,0,.12-.33.4.4,0,0,0-.1-.28.36.36,0,0,0-.27-.1.37.37,0,0,0-.28.1.57.57,0,0,0-.12.35l-.54-.06a.89.89,0,0,1,.3-.65,1.07,1.07,0,0,1,.65-.2,1,1,0,0,1,.67.23.75.75,0,0,1,.24.57,1.16,1.16,0,0,1-.07.37,1.59,1.59,0,0,1-.22.36,3.77,3.77,0,0,1-.36.37c-.17.16-.28.26-.33.32a.72.72,0,0,0-.11.15Z" fill="#ef4a60"/><path d="M116.22,50.52l.53-.06a.45.45,0,0,0,.1.24.33.33,0,0,0,.22.08.38.38,0,0,0,.29-.16,1.33,1.33,0,0,0,.15-.65.66.66,0,0,1-.52.24.78.78,0,0,1-.58-.26,1,1,0,0,1-.24-.68,1,1,0,0,1,.25-.7.9.9,0,0,1,.66-.27.92.92,0,0,1,.72.34,1.7,1.7,0,0,1,.28,1.11,1.78,1.78,0,0,1-.29,1.13,1,1,0,0,1-.76.35.78.78,0,0,1-.54-.18A.87.87,0,0,1,116.22,50.52Zm1.24-1.2a.66.66,0,0,0-.12-.42.37.37,0,0,0-.28-.14.3.3,0,0,0-.25.12.59.59,0,0,0-.1.39.65.65,0,0,0,.1.41.39.39,0,0,0,.28.13.32.32,0,0,0,.26-.13A.49.49,0,0,0,117.46,49.32Z" fill="#ef4a60"/><path d="M119.51,51.18V50.6h-1.17v-.48l1.24-1.82H120v1.82h.36v.48H120v.58Zm0-1.06v-1l-.66,1Z" fill="#ef4a60"/></g><g style="isolation:isolate"><path d="M73.08,42.71v.51H71.16a1.33,1.33,0,0,1,.18-.54A3.42,3.42,0,0,1,72,42a4.33,4.33,0,0,0,.46-.47.65.65,0,0,0,.11-.34.37.37,0,0,0-.1-.28.41.41,0,0,0-.27-.1.38.38,0,0,0-.28.11.57.57,0,0,0-.11.34l-.55,0a.84.84,0,0,1,.31-.65,1,1,0,0,1,.64-.2.91.91,0,0,1,.67.23.75.75,0,0,1,.24.57.89.89,0,0,1-.07.36,1.63,1.63,0,0,1-.22.37c-.07.08-.19.21-.36.37l-.33.31-.11.15Z" fill="#00b398"/><path d="M74.86,43.22h-.55V41.16a2,2,0,0,1-.71.41v-.5a1.36,1.36,0,0,0,.46-.26,1,1,0,0,0,.35-.46h.45Z" fill="#00b398"/><path d="M76.86,43.22h-.55V41.16a2,2,0,0,1-.71.41v-.5a1.5,1.5,0,0,0,.47-.26,1,1,0,0,0,.34-.46h.45Z" fill="#00b398"/></g></g><path d="M97.22,120.78a44.76,44.76,0,0,1-6.33.6Q90,78,59.54,108.89a42.51,42.51,0,0,1-3.37-3.72Q90,78,97.22,120.78Z" stroke="#fff" stroke-opacity="0.15" opacity="0.7" fill="url(#n)"/><g opacity="0" style="isolation:isolate"><g style="isolation:isolate"><path d="M92.26,115.45V116H90.34a1.33,1.33,0,0,1,.18-.54,3.42,3.42,0,0,1,.62-.69,4.33,4.33,0,0,0,.46-.47.65.65,0,0,0,.11-.34.37.37,0,0,0-.1-.28.41.41,0,0,0-.27-.1.38.38,0,0,0-.28.11A.54.54,0,0,0,91,114l-.55,0a.88.88,0,0,1,.31-.65,1,1,0,0,1,.64-.2.91.91,0,0,1,.67.23.74.74,0,0,1,.24.56.9.9,0,0,1-.07.37,1.63,1.63,0,0,1-.22.37,4,4,0,0,1-.36.36l-.33.32-.11.15Z" fill="none" stroke="#fff" stroke-width="4.2"/><path d="M92.64,115.23l.55-.06a.46.46,0,0,0,.13.29.36.36,0,0,0,.27.11.34.34,0,0,0,.29-.14A.62.62,0,0,0,94,115a.55.55,0,0,0-.12-.39.4.4,0,0,0-.31-.14.57.57,0,0,0-.42.21l-.44-.06.28-1.49h1.45v.51h-1l-.08.49a.85.85,0,0,1,1,.17,1,1,0,0,1,.26.69,1,1,0,0,1-.21.63.89.89,0,0,1-.78.38,1,1,0,0,1-.64-.21A.84.84,0,0,1,92.64,115.23Z" fill="none" stroke="#fff" stroke-width="4.2"/><path d="M96.26,116h-.55v-2.07a1.89,1.89,0,0,1-.71.42v-.5a1.4,1.4,0,0,0,.47-.26,1,1,0,0,0,.34-.46h.45Z" fill="none" stroke="#fff" stroke-width="4.2"/></g><g style="isolation:isolate"><path d="M59.94,103.56h-.55v-2.07a1.89,1.89,0,0,1-.71.42v-.5a1.79,1.79,0,0,0,.47-.27,1,1,0,0,0,.34-.46h.45Z" fill="none" stroke="#fff" stroke-width="4.2"/><path d="M60.77,102.9l.53-.06a.38.38,0,0,0,.1.24.33.33,0,0,0,.22.08.35.35,0,0,0,.29-.16,1.29,1.29,0,0,0,.15-.65.66.66,0,0,1-.52.24.75.75,0,0,1-.58-.26,1,1,0,0,1-.24-.68A1,1,0,0,1,61,101a.9.9,0,0,1,.66-.27.92.92,0,0,1,.72.34,1.81,1.81,0,0,1,.28,1.11,1.78,1.78,0,0,1-.29,1.13,1,1,0,0,1-.76.35.77.77,0,0,1-.54-.18A.87.87,0,0,1,60.77,102.9ZM62,101.7a.61.61,0,0,0-.12-.41.36.36,0,0,0-.28-.15.34.34,0,0,0-.26.12.81.81,0,0,0,0,.8.35.35,0,0,0,.28.13.34.34,0,0,0,.26-.12A.53.53,0,0,0,62,101.7Z" fill="none" stroke="#fff" stroke-width="4.2"/><path d="M63.45,102a.68.68,0,0,1-.18-1.12.9.9,0,0,1,.64-.21.89.89,0,0,1,.63.21.7.7,0,0,1,.23.53.64.64,0,0,1-.11.36.61.61,0,0,1-.29.23.8.8,0,0,1,.36.28.73.73,0,0,1,.13.43.85.85,0,0,1-.26.64.88.88,0,0,1-.67.25,1.07,1.07,0,0,1-.65-.2.83.83,0,0,1-.3-.67.81.81,0,0,1,.11-.43A.77.77,0,0,1,63.45,102Zm.07.68a.52.52,0,0,0,.11.35.37.37,0,0,0,.29.13.35.35,0,0,0,.28-.12.49.49,0,0,0,.11-.36.43.43,0,0,0-.11-.32.37.37,0,0,0-.29-.12.34.34,0,0,0-.3.14A.53.53,0,0,0,63.52,102.69Zm0-1.23a.36.36,0,0,0,.09.26.33.33,0,0,0,.25.09.37.37,0,0,0,.25-.09.37.37,0,0,0,.09-.26.35.35,0,0,0-.59-.25A.37.37,0,0,0,63.57,101.46Z" fill="none" stroke="#fff" stroke-width="4.2"/></g><g style="isolation:isolate"><path d="M92.26,115.45V116H90.34a1.33,1.33,0,0,1,.18-.54,3.42,3.42,0,0,1,.62-.69,4.33,4.33,0,0,0,.46-.47.65.65,0,0,0,.11-.34.37.37,0,0,0-.1-.28.41.41,0,0,0-.27-.1.38.38,0,0,0-.28.11A.54.54,0,0,0,91,114l-.55,0a.88.88,0,0,1,.31-.65,1,1,0,0,1,.64-.2.91.91,0,0,1,.67.23.74.74,0,0,1,.24.56.9.9,0,0,1-.07.37,1.63,1.63,0,0,1-.22.37,4,4,0,0,1-.36.36l-.33.32-.11.15Z" fill="#0072bc"/><path d="M92.64,115.23l.55-.06a.46.46,0,0,0,.13.29.36.36,0,0,0,.27.11.34.34,0,0,0,.29-.14A.62.62,0,0,0,94,115a.55.55,0,0,0-.12-.39.4.4,0,0,0-.31-.14.57.57,0,0,0-.42.21l-.44-.06.28-1.49h1.45v.51h-1l-.08.49a.85.85,0,0,1,1,.17,1,1,0,0,1,.26.69,1,1,0,0,1-.21.63.89.89,0,0,1-.78.38,1,1,0,0,1-.64-.21A.84.84,0,0,1,92.64,115.23Z" fill="#0072bc"/><path d="M96.26,116h-.55v-2.07a1.89,1.89,0,0,1-.71.42v-.5a1.4,1.4,0,0,0,.47-.26,1,1,0,0,0,.34-.46h.45Z" fill="#0072bc"/></g><g style="isolation:isolate"><path d="M59.94,103.56h-.55v-2.07a1.89,1.89,0,0,1-.71.42v-.5a1.79,1.79,0,0,0,.47-.27,1,1,0,0,0,.34-.46h.45Z" fill="#00b398"/><path d="M60.77,102.9l.53-.06a.38.38,0,0,0,.1.24.33.33,0,0,0,.22.08.35.35,0,0,0,.29-.16,1.29,1.29,0,0,0,.15-.65.66.66,0,0,1-.52.24.75.75,0,0,1-.58-.26,1,1,0,0,1-.24-.68A1,1,0,0,1,61,101a.9.9,0,0,1,.66-.27.92.92,0,0,1,.72.34,1.81,1.81,0,0,1,.28,1.11,1.78,1.78,0,0,1-.29,1.13,1,1,0,0,1-.76.35.77.77,0,0,1-.54-.18A.87.87,0,0,1,60.77,102.9ZM62,101.7a.61.61,0,0,0-.12-.41.36.36,0,0,0-.28-.15.34.34,0,0,0-.26.12.81.81,0,0,0,0,.8.35.35,0,0,0,.28.13.34.34,0,0,0,.26-.12A.53.53,0,0,0,62,101.7Z" fill="#00b398"/><path d="M63.45,102a.68.68,0,0,1-.18-1.12.9.9,0,0,1,.64-.21.89.89,0,0,1,.63.21.7.7,0,0,1,.23.53.64.64,0,0,1-.11.36.61.61,0,0,1-.29.23.8.8,0,0,1,.36.28.73.73,0,0,1,.13.43.85.85,0,0,1-.26.64.88.88,0,0,1-.67.25,1.07,1.07,0,0,1-.65-.2.83.83,0,0,1-.3-.67.81.81,0,0,1,.11-.43A.77.77,0,0,1,63.45,102Zm.07.68a.52.52,0,0,0,.11.35.37.37,0,0,0,.29.13.35.35,0,0,0,.28-.12.49.49,0,0,0,.11-.36.43.43,0,0,0-.11-.32.37.37,0,0,0-.29-.12.34.34,0,0,0-.3.14A.53.53,0,0,0,63.52,102.69Zm0-1.23a.36.36,0,0,0,.09.26.33.33,0,0,0,.25.09.37.37,0,0,0,.25-.09.37.37,0,0,0,.09-.26.35.35,0,0,0-.59-.25A.37.37,0,0,0,63.57,101.46Z" fill="#00b398"/></g></g><path d="M90.89,121.38a43.73,43.73,0,0,1-5-.19Q90,78,46.65,76a42.08,42.08,0,0,1,.75-6.32Q90,78,90.89,121.38Z" stroke="#fff" stroke-opacity="0.15" opacity="0.7" fill="url(#o)"/><g opacity="0" style="isolation:isolate"><g style="isolation:isolate"><path d="M86.82,116.1h-.55V114a1.92,1.92,0,0,1-.71.41V114a1.4,1.4,0,0,0,.47-.26,1.09,1.09,0,0,0,.35-.46h.44Z" fill="none" stroke="#fff" stroke-width="4.2"/><path d="M87.66,115.44l.53-.06a.34.34,0,0,0,.1.24.26.26,0,0,0,.21.08.35.35,0,0,0,.29-.15,1.42,1.42,0,0,0,.16-.65.66.66,0,0,1-.52.24.77.77,0,0,1-.58-.26.94.94,0,0,1-.25-.68,1,1,0,0,1,.26-.7.87.87,0,0,1,.66-.27.86.86,0,0,1,.71.34,1.69,1.69,0,0,1,.28,1.1,1.73,1.73,0,0,1-.29,1.14.94.94,0,0,1-.76.35.8.8,0,0,1-.54-.18A.82.82,0,0,1,87.66,115.44Zm1.24-1.2a.65.65,0,0,0-.12-.41.38.38,0,0,0-.29-.15.32.32,0,0,0-.25.12.62.62,0,0,0-.1.4.67.67,0,0,0,.11.41.35.35,0,0,0,.54,0A.56.56,0,0,0,88.9,114.24Z" fill="none" stroke="#fff" stroke-width="4.2"/><path d="M89.87,113.79v-.51h1.88v.4a2.81,2.81,0,0,0-.48.65,3.75,3.75,0,0,0-.36.91,3.27,3.27,0,0,0-.13.86h-.53a3.59,3.59,0,0,1,.25-1.21,3.82,3.82,0,0,1,.62-1.1Z" fill="none" stroke="#fff" stroke-width="4.2"/></g><g style="isolation:isolate"><path d="M50.81,73v.51H48.88a1.57,1.57,0,0,1,.19-.55,4.06,4.06,0,0,1,.62-.69,3.33,3.33,0,0,0,.45-.46.61.61,0,0,0,.12-.34.4.4,0,0,0-.1-.28.36.36,0,0,0-.27-.1.37.37,0,0,0-.28.1.6.6,0,0,0-.11.35L49,71.46a.86.86,0,0,1,.31-.65,1,1,0,0,1,.64-.2,1,1,0,0,1,.67.23.75.75,0,0,1,.24.57.94.94,0,0,1-.07.37,1.59,1.59,0,0,1-.22.36,3.77,3.77,0,0,1-.36.37c-.17.16-.28.26-.33.32a.72.72,0,0,0-.11.15Z" fill="none" stroke="#fff" stroke-width="4.2"/><path d="M51.19,72.75l.54,0a.53.53,0,0,0,.14.29.4.4,0,0,0,.27.11.38.38,0,0,0,.29-.14.64.64,0,0,0,.12-.42.58.58,0,0,0-.12-.4.39.39,0,0,0-.31-.13.55.55,0,0,0-.42.21l-.45-.07.29-1.49H53v.52H52l-.08.48a.81.81,0,0,1,.37-.09.83.83,0,0,1,.62.27,1,1,0,0,1,.25.69,1,1,0,0,1-.2.63.93.93,0,0,1-.78.38.91.91,0,0,1-.64-.22A.84.84,0,0,1,51.19,72.75Z" fill="none" stroke="#fff" stroke-width="4.2"/><path d="M54.81,73.49h-.55V71.42a1.89,1.89,0,0,1-.71.42v-.5a1.79,1.79,0,0,0,.47-.27.94.94,0,0,0,.34-.46h.45Z" fill="none" stroke="#fff" stroke-width="4.2"/></g><g style="isolation:isolate"><path d="M86.82,116.1h-.55V114a1.92,1.92,0,0,1-.71.41V114a1.4,1.4,0,0,0,.47-.26,1.09,1.09,0,0,0,.35-.46h.44Z" fill="#0072bc"/><path d="M87.66,115.44l.53-.06a.34.34,0,0,0,.1.24.26.26,0,0,0,.21.08.35.35,0,0,0,.29-.15,1.42,1.42,0,0,0,.16-.65.66.66,0,0,1-.52.24.77.77,0,0,1-.58-.26.94.94,0,0,1-.25-.68,1,1,0,0,1,.26-.7.87.87,0,0,1,.66-.27.86.86,0,0,1,.71.34,1.69,1.69,0,0,1,.28,1.1,1.73,1.73,0,0,1-.29,1.14.94.94,0,0,1-.76.35.8.8,0,0,1-.54-.18A.82.82,0,0,1,87.66,115.44Zm1.24-1.2a.65.65,0,0,0-.12-.41.38.38,0,0,0-.29-.15.32.32,0,0,0-.25.12.62.62,0,0,0-.1.4.67.67,0,0,0,.11.41.35.35,0,0,0,.54,0A.56.56,0,0,0,88.9,114.24Z" fill="#0072bc"/><path d="M89.87,113.79v-.51h1.88v.4a2.81,2.81,0,0,0-.48.65,3.75,3.75,0,0,0-.36.91,3.27,3.27,0,0,0-.13.86h-.53a3.59,3.59,0,0,1,.25-1.21,3.82,3.82,0,0,1,.62-1.1Z" fill="#0072bc"/></g><g style="isolation:isolate"><path d="M50.81,73v.51H48.88a1.57,1.57,0,0,1,.19-.55,4.06,4.06,0,0,1,.62-.69,3.33,3.33,0,0,0,.45-.46.61.61,0,0,0,.12-.34.4.4,0,0,0-.1-.28.36.36,0,0,0-.27-.1.37.37,0,0,0-.28.1.6.6,0,0,0-.11.35L49,71.46a.86.86,0,0,1,.31-.65,1,1,0,0,1,.64-.2,1,1,0,0,1,.67.23.75.75,0,0,1,.24.57.94.94,0,0,1-.07.37,1.59,1.59,0,0,1-.22.36,3.77,3.77,0,0,1-.36.37c-.17.16-.28.26-.33.32a.72.72,0,0,0-.11.15Z" fill="#00b398"/><path d="M51.19,72.75l.54,0a.53.53,0,0,0,.14.29.4.4,0,0,0,.27.11.38.38,0,0,0,.29-.14.64.64,0,0,0,.12-.42.58.58,0,0,0-.12-.4.39.39,0,0,0-.31-.13.55.55,0,0,0-.42.21l-.45-.07.29-1.49H53v.52H52l-.08.48a.81.81,0,0,1,.37-.09.83.83,0,0,1,.62.27,1,1,0,0,1,.25.69,1,1,0,0,1-.2.63.93.93,0,0,1-.78.38.91.91,0,0,1-.64-.22A.84.84,0,0,1,51.19,72.75Z" fill="#00b398"/><path d="M54.81,73.49h-.55V71.42a1.89,1.89,0,0,1-.71.42v-.5a1.79,1.79,0,0,0,.47-.27.94.94,0,0,0,.34-.46h.45Z" fill="#00b398"/></g></g><path d="M85.9,121.19c-1.36-.13-2.71-.32-4-.58Q90,78,51.79,57.4a43.07,43.07,0,0,1,2.81-4.52Q90,78,85.9,121.19Z" stroke="#fff" stroke-opacity="0.15" opacity="0.7" fill="url(#p)"/><g opacity="0" style="isolation:isolate"><g style="isolation:isolate"><path d="M82.85,115.75H82.3v-2.07a1.79,1.79,0,0,1-.71.41v-.49a1.65,1.65,0,0,0,.47-.27,1,1,0,0,0,.35-.46h.44Z" fill="none" stroke="#fff" stroke-width="4.2"/><path d="M85.53,113.58l-.53.06a.38.38,0,0,0-.1-.24.32.32,0,0,0-.21-.08.38.38,0,0,0-.3.16,1.29,1.29,0,0,0-.15.65.65.65,0,0,1,.51-.24.75.75,0,0,1,.59.26,1,1,0,0,1,.24.68,1,1,0,0,1-.25.7.9.9,0,0,1-.67.27.91.91,0,0,1-.71-.34,2.34,2.34,0,0,1,0-2.24,1,1,0,0,1,.76-.35.8.8,0,0,1,.54.18A.9.9,0,0,1,85.53,113.58Zm-1.24,1.2a.66.66,0,0,0,.12.42.38.38,0,0,0,.28.14.34.34,0,0,0,.26-.12.81.81,0,0,0,0-.8.35.35,0,0,0-.28-.13.32.32,0,0,0-.26.13A.49.49,0,0,0,84.29,114.78Z" fill="none" stroke="#fff" stroke-width="4.2"/><path d="M87.3,115.75h-.55v-2.07a1.87,1.87,0,0,1-.71.41v-.49a1.65,1.65,0,0,0,.47-.27,1,1,0,0,0,.35-.46h.44Z" fill="none" stroke="#fff" stroke-width="4.2"/></g><g style="isolation:isolate"><path d="M56.27,57.36v.51H54.35a1.29,1.29,0,0,1,.19-.55,3.59,3.59,0,0,1,.61-.68,4.33,4.33,0,0,0,.46-.47.59.59,0,0,0,.11-.34.36.36,0,0,0-.1-.28.33.33,0,0,0-.27-.1.36.36,0,0,0-.27.1.54.54,0,0,0-.12.35l-.55-.06a.93.93,0,0,1,.31-.65,1,1,0,0,1,.65-.19.92.92,0,0,1,.66.22.78.78,0,0,1,.24.57,1.15,1.15,0,0,1-.06.37,1.39,1.39,0,0,1-.23.37,3.5,3.5,0,0,1-.35.36,3.5,3.5,0,0,0-.33.32.79.79,0,0,0-.12.15Z" fill="none" stroke="#fff" stroke-width="4.2"/><path d="M58.05,57.87H57.5V55.8a1.89,1.89,0,0,1-.71.42v-.5a1.65,1.65,0,0,0,.47-.27A1,1,0,0,0,57.6,55h.45Z" fill="none" stroke="#fff" stroke-width="4.2"/><path d="M59.8,55a.77.77,0,0,1,.65.29,2.58,2.58,0,0,1,0,2.34.8.8,0,0,1-.65.29.84.84,0,0,1-.68-.32,1.94,1.94,0,0,1-.25-1.15,1.85,1.85,0,0,1,.28-1.16A.76.76,0,0,1,59.8,55Zm0,.45a.28.28,0,0,0-.18.06.49.49,0,0,0-.12.23,3,3,0,0,0-.06.72,3.44,3.44,0,0,0,.05.69.51.51,0,0,0,.13.25.28.28,0,0,0,.18.06A.32.32,0,0,0,60,57.4a.45.45,0,0,0,.12-.23,3.76,3.76,0,0,0,0-.71,2.71,2.71,0,0,0,0-.69.45.45,0,0,0-.13-.26A.27.27,0,0,0,59.8,55.45Z" fill="none" stroke="#fff" stroke-width="4.2"/></g><g style="isolation:isolate"><path d="M82.85,115.75H82.3v-2.07a1.79,1.79,0,0,1-.71.41v-.49a1.65,1.65,0,0,0,.47-.27,1,1,0,0,0,.35-.46h.44Z" fill="#0072bc"/><path d="M85.53,113.58l-.53.06a.38.38,0,0,0-.1-.24.32.32,0,0,0-.21-.08.38.38,0,0,0-.3.16,1.29,1.29,0,0,0-.15.65.65.65,0,0,1,.51-.24.75.75,0,0,1,.59.26,1,1,0,0,1,.24.68,1,1,0,0,1-.25.7.9.9,0,0,1-.67.27.91.91,0,0,1-.71-.34,2.34,2.34,0,0,1,0-2.24,1,1,0,0,1,.76-.35.8.8,0,0,1,.54.18A.9.9,0,0,1,85.53,113.58Zm-1.24,1.2a.66.66,0,0,0,.12.42.38.38,0,0,0,.28.14.34.34,0,0,0,.26-.12.81.81,0,0,0,0-.8.35.35,0,0,0-.28-.13.32.32,0,0,0-.26.13A.49.49,0,0,0,84.29,114.78Z" fill="#0072bc"/><path d="M87.3,115.75h-.55v-2.07a1.87,1.87,0,0,1-.71.41v-.49a1.65,1.65,0,0,0,.47-.27,1,1,0,0,0,.35-.46h.44Z" fill="#0072bc"/></g><g style="isolation:isolate"><path d="M56.27,57.36v.51H54.35a1.29,1.29,0,0,1,.19-.55,3.59,3.59,0,0,1,.61-.68,4.33,4.33,0,0,0,.46-.47.59.59,0,0,0,.11-.34.36.36,0,0,0-.1-.28.33.33,0,0,0-.27-.1.36.36,0,0,0-.27.1.54.54,0,0,0-.12.35l-.55-.06a.93.93,0,0,1,.31-.65,1,1,0,0,1,.65-.19.92.92,0,0,1,.66.22.78.78,0,0,1,.24.57,1.15,1.15,0,0,1-.06.37,1.39,1.39,0,0,1-.23.37,3.5,3.5,0,0,1-.35.36,3.5,3.5,0,0,0-.33.32.79.79,0,0,0-.12.15Z" fill="#00b398"/><path d="M58.05,57.87H57.5V55.8a1.89,1.89,0,0,1-.71.42v-.5a1.65,1.65,0,0,0,.47-.27A1,1,0,0,0,57.6,55h.45Z" fill="#00b398"/><path d="M59.8,55a.77.77,0,0,1,.65.29,2.58,2.58,0,0,1,0,2.34.8.8,0,0,1-.65.29.84.84,0,0,1-.68-.32,1.94,1.94,0,0,1-.25-1.15,1.85,1.85,0,0,1,.28-1.16A.76.76,0,0,1,59.8,55Zm0,.45a.28.28,0,0,0-.18.06.49.49,0,0,0-.12.23,3,3,0,0,0-.06.72,3.44,3.44,0,0,0,.05.69.51.51,0,0,0,.13.25.28.28,0,0,0,.18.06A.32.32,0,0,0,60,57.4a.45.45,0,0,0,.12-.23,3.76,3.76,0,0,0,0-.71,2.71,2.71,0,0,0,0-.69.45.45,0,0,0-.13-.26A.27.27,0,0,0,59.8,55.45Z" fill="#00b398"/></g></g><path d="M133.1,72.84c.13,1.07.22,2.15.27,3.23a365.06,365.06,0,0,1-86-6.35,41.7,41.7,0,0,1,1.33-5.17A194.93,194.93,0,0,0,133.1,72.84Z" stroke="#fff" stroke-opacity="0.15" opacity="0.7" fill="url(#q)"/><g opacity="0" style="isolation:isolate"><g style="isolation:isolate"><path d="M126.27,74.88h-.55V72.81a1.89,1.89,0,0,1-.71.42v-.5a1.61,1.61,0,0,0,.46-.27,1,1,0,0,0,.35-.46h.45Z" fill="none" stroke="#fff" stroke-width="4.2"/><path d="M128.94,74.37v.51H127a1.37,1.37,0,0,1,.18-.55,3.73,3.73,0,0,1,.62-.68,4.33,4.33,0,0,0,.46-.47.68.68,0,0,0,.11-.34.36.36,0,0,0-.1-.28.36.36,0,0,0-.27-.1.37.37,0,0,0-.28.1.6.6,0,0,0-.11.35l-.55-.06a.86.86,0,0,1,.31-.65A1,1,0,0,1,128,72a1,1,0,0,1,.67.23.78.78,0,0,1,.24.57.94.94,0,0,1-.07.37,1.63,1.63,0,0,1-.22.37q-.1.12-.36.36l-.33.32-.11.15Z" fill="none" stroke="#fff" stroke-width="4.2"/><path d="M129.78,73.33a.68.68,0,0,1-.18-1.12.89.89,0,0,1,.63-.21.9.9,0,0,1,.64.21.69.69,0,0,1,.22.53.63.63,0,0,1-.1.36.66.66,0,0,1-.29.23.75.75,0,0,1,.49.71.85.85,0,0,1-.26.64.9.9,0,0,1-.67.25,1,1,0,0,1-.65-.2.81.81,0,0,1-.31-.67.82.82,0,0,1,.12-.43A.78.78,0,0,1,129.78,73.33Zm.06.68a.48.48,0,0,0,.12.35.39.39,0,0,0,.57,0,.49.49,0,0,0,.11-.36.48.48,0,0,0-.11-.32.38.38,0,0,0-.29-.12.36.36,0,0,0-.3.14A.54.54,0,0,0,129.84,74Zm0-1.23a.36.36,0,0,0,.1.26.32.32,0,0,0,.24.09.33.33,0,0,0,.25-.09.34.34,0,0,0,.1-.26.35.35,0,0,0-.09-.25.37.37,0,0,0-.25-.09.33.33,0,0,0-.25.09A.37.37,0,0,0,129.89,72.78Z" fill="none" stroke="#fff" stroke-width="4.2"/></g><g style="isolation:isolate"><path d="M51.87,67.92v.51H49.94a1.45,1.45,0,0,1,.19-.55,3.38,3.38,0,0,1,.62-.68,3.19,3.19,0,0,0,.45-.47.61.61,0,0,0,.12-.34.4.4,0,0,0-.1-.28A.36.36,0,0,0,51,66a.37.37,0,0,0-.28.1.6.6,0,0,0-.12.35L50,66.4a.89.89,0,0,1,.3-.65,1.06,1.06,0,0,1,.65-.19.92.92,0,0,1,.66.22.75.75,0,0,1,.25.57,1.16,1.16,0,0,1-.07.37,1.63,1.63,0,0,1-.22.37q-.11.12-.36.36l-.33.32a.72.72,0,0,0-.11.15Z" fill="none" stroke="#fff" stroke-width="4.2"/><path d="M53.64,68.43h-.55V66.36a1.85,1.85,0,0,1-.7.42v-.5a1.76,1.76,0,0,0,.46-.27,1,1,0,0,0,.35-.45h.44Z" fill="none" stroke="#fff" stroke-width="4.2"/><path d="M55.65,68.43H55.1V66.36a1.89,1.89,0,0,1-.71.42v-.5a1.79,1.79,0,0,0,.47-.27,1,1,0,0,0,.34-.45h.45Z" fill="none" stroke="#fff" stroke-width="4.2"/></g><g style="isolation:isolate"><path d="M126.27,74.88h-.55V72.81a1.89,1.89,0,0,1-.71.42v-.5a1.61,1.61,0,0,0,.46-.27,1,1,0,0,0,.35-.46h.45Z" fill="#ef4a60"/><path d="M128.94,74.37v.51H127a1.37,1.37,0,0,1,.18-.55,3.73,3.73,0,0,1,.62-.68,4.33,4.33,0,0,0,.46-.47.68.68,0,0,0,.11-.34.36.36,0,0,0-.1-.28.36.36,0,0,0-.27-.1.37.37,0,0,0-.28.1.6.6,0,0,0-.11.35l-.55-.06a.86.86,0,0,1,.31-.65A1,1,0,0,1,128,72a1,1,0,0,1,.67.23.78.78,0,0,1,.24.57.94.94,0,0,1-.07.37,1.63,1.63,0,0,1-.22.37q-.1.12-.36.36l-.33.32-.11.15Z" fill="#ef4a60"/><path d="M129.78,73.33a.68.68,0,0,1-.18-1.12.89.89,0,0,1,.63-.21.9.9,0,0,1,.64.21.69.69,0,0,1,.22.53.63.63,0,0,1-.1.36.66.66,0,0,1-.29.23.75.75,0,0,1,.49.71.85.85,0,0,1-.26.64.9.9,0,0,1-.67.25,1,1,0,0,1-.65-.2.81.81,0,0,1-.31-.67.82.82,0,0,1,.12-.43A.78.78,0,0,1,129.78,73.33Zm.06.68a.48.48,0,0,0,.12.35.39.39,0,0,0,.57,0,.49.49,0,0,0,.11-.36.48.48,0,0,0-.11-.32.38.38,0,0,0-.29-.12.36.36,0,0,0-.3.14A.54.54,0,0,0,129.84,74Zm0-1.23a.36.36,0,0,0,.1.26.32.32,0,0,0,.24.09.33.33,0,0,0,.25-.09.34.34,0,0,0,.1-.26.35.35,0,0,0-.09-.25.37.37,0,0,0-.25-.09.33.33,0,0,0-.25.09A.37.37,0,0,0,129.89,72.78Z" fill="#ef4a60"/></g><g style="isolation:isolate"><path d="M51.87,67.92v.51H49.94a1.45,1.45,0,0,1,.19-.55,3.38,3.38,0,0,1,.62-.68,3.19,3.19,0,0,0,.45-.47.61.61,0,0,0,.12-.34.4.4,0,0,0-.1-.28A.36.36,0,0,0,51,66a.37.37,0,0,0-.28.1.6.6,0,0,0-.12.35L50,66.4a.89.89,0,0,1,.3-.65,1.06,1.06,0,0,1,.65-.19.92.92,0,0,1,.66.22.75.75,0,0,1,.25.57,1.16,1.16,0,0,1-.07.37,1.63,1.63,0,0,1-.22.37q-.11.12-.36.36l-.33.32a.72.72,0,0,0-.11.15Z" fill="#00b398"/><path d="M53.64,68.43h-.55V66.36a1.85,1.85,0,0,1-.7.42v-.5a1.76,1.76,0,0,0,.46-.27,1,1,0,0,0,.35-.45h.44Z" fill="#00b398"/><path d="M55.65,68.43H55.1V66.36a1.89,1.89,0,0,1-.71.42v-.5a1.79,1.79,0,0,0,.47-.27,1,1,0,0,0,.34-.45h.45Z" fill="#00b398"/></g></g><path d="M132.58,69.53c.21,1.1.39,2.2.52,3.31Q90,78,46.72,81.13c-.09-1.19-.13-2.38-.12-3.58A418.42,418.42,0,0,0,132.58,69.53Z" stroke="#fff" stroke-opacity="0.15" opacity="0.7" fill="url(#r)"/><g opacity="0" style="isolation:isolate"><g style="isolation:isolate"><path d="M125.92,72h-.55V69.94a2,2,0,0,1-.71.41v-.5a1.5,1.5,0,0,0,.47-.26,1,1,0,0,0,.34-.46h.45Z" fill="none" stroke="#fff" stroke-width="4.2"/><path d="M126.72,71.24l.53-.06a.47.47,0,0,0,.14.31.38.38,0,0,0,.55,0,.5.5,0,0,0,.12-.35.49.49,0,0,0-.11-.33.36.36,0,0,0-.27-.12,1.29,1.29,0,0,0-.25,0l.06-.44a.51.51,0,0,0,.34-.1.37.37,0,0,0,.11-.27.28.28,0,0,0-.08-.23.32.32,0,0,0-.23-.09.33.33,0,0,0-.24.1.41.41,0,0,0-.12.28l-.51-.08a1.27,1.27,0,0,1,.16-.42.73.73,0,0,1,.3-.24,1,1,0,0,1,.42-.09.82.82,0,0,1,.65.26.64.64,0,0,1,.2.47.66.66,0,0,1-.41.6.71.71,0,0,1,.4.24.72.72,0,0,1,.14.44.88.88,0,0,1-.27.65,1,1,0,0,1-.69.26.92.92,0,0,1-.64-.22A.89.89,0,0,1,126.72,71.24Z" fill="none" stroke="#fff" stroke-width="4.2"/><path d="M130.82,71.49V72h-1.93a1.52,1.52,0,0,1,.19-.54,3.42,3.42,0,0,1,.62-.69,3.19,3.19,0,0,0,.45-.47.56.56,0,0,0,.12-.34.41.41,0,0,0-.1-.28.41.41,0,0,0-.27-.1.38.38,0,0,0-.28.11.57.57,0,0,0-.11.34L129,70a.84.84,0,0,1,.31-.65,1.11,1.11,0,0,1,1.31,0,.75.75,0,0,1,.24.57.89.89,0,0,1-.07.36,1.63,1.63,0,0,1-.22.37,3.77,3.77,0,0,1-.36.37l-.33.31a.72.72,0,0,0-.11.15Z" fill="none" stroke="#fff" stroke-width="4.2"/></g><g style="isolation:isolate"><path d="M50.11,79.18h-.55V77.11a1.79,1.79,0,0,1-.71.41V77a1.65,1.65,0,0,0,.47-.27,1,1,0,0,0,.35-.46h.44Z" fill="none" stroke="#fff" stroke-width="4.2"/><path d="M52,79.18V78.6H50.84v-.48l1.24-1.82h.46v1.82h.36v.48h-.36v.58Zm0-1.06v-1l-.66,1Z" fill="none" stroke="#fff" stroke-width="4.2"/><path d="M54.56,79.18H54V77.11a1.79,1.79,0,0,1-.71.41V77a1.65,1.65,0,0,0,.47-.27,1,1,0,0,0,.35-.46h.44Z" fill="none" stroke="#fff" stroke-width="4.2"/></g><g style="isolation:isolate"><path d="M125.92,72h-.55V69.94a2,2,0,0,1-.71.41v-.5a1.5,1.5,0,0,0,.47-.26,1,1,0,0,0,.34-.46h.45Z" fill="#ef4a60"/><path d="M126.72,71.24l.53-.06a.47.47,0,0,0,.14.31.38.38,0,0,0,.55,0,.5.5,0,0,0,.12-.35.49.49,0,0,0-.11-.33.36.36,0,0,0-.27-.12,1.29,1.29,0,0,0-.25,0l.06-.44a.51.51,0,0,0,.34-.1.37.37,0,0,0,.11-.27.28.28,0,0,0-.08-.23.32.32,0,0,0-.23-.09.33.33,0,0,0-.24.1.41.41,0,0,0-.12.28l-.51-.08a1.27,1.27,0,0,1,.16-.42.73.73,0,0,1,.3-.24,1,1,0,0,1,.42-.09.82.82,0,0,1,.65.26.64.64,0,0,1,.2.47.66.66,0,0,1-.41.6.71.71,0,0,1,.4.24.72.72,0,0,1,.14.44.88.88,0,0,1-.27.65,1,1,0,0,1-.69.26.92.92,0,0,1-.64-.22A.89.89,0,0,1,126.72,71.24Z" fill="#ef4a60"/><path d="M130.82,71.49V72h-1.93a1.52,1.52,0,0,1,.19-.54,3.42,3.42,0,0,1,.62-.69,3.19,3.19,0,0,0,.45-.47.56.56,0,0,0,.12-.34.41.41,0,0,0-.1-.28.41.41,0,0,0-.27-.1.38.38,0,0,0-.28.11.57.57,0,0,0-.11.34L129,70a.84.84,0,0,1,.31-.65,1.11,1.11,0,0,1,1.31,0,.75.75,0,0,1,.24.57.89.89,0,0,1-.07.36,1.63,1.63,0,0,1-.22.37,3.77,3.77,0,0,1-.36.37l-.33.31a.72.72,0,0,0-.11.15Z" fill="#ef4a60"/></g><g style="isolation:isolate"><path d="M50.11,79.18h-.55V77.11a1.79,1.79,0,0,1-.71.41V77a1.65,1.65,0,0,0,.47-.27,1,1,0,0,0,.35-.46h.44Z" fill="#00b398"/><path d="M52,79.18V78.6H50.84v-.48l1.24-1.82h.46v1.82h.36v.48h-.36v.58Zm0-1.06v-1l-.66,1Z" fill="#00b398"/><path d="M54.56,79.18H54V77.11a1.79,1.79,0,0,1-.71.41V77a1.65,1.65,0,0,0,.47-.27,1,1,0,0,0,.35-.46h.44Z" fill="#00b398"/></g></g><path d="M260,31.81A46.16,46.16,0,0,1,306.13,76l-2.3.1A43.87,43.87,0,0,0,260,34.12Z" fill="#0072bc"/><path d="M226.65,46.06a46.17,46.17,0,0,1,66.72,63.84h0" fill="none"/><path d="M306.18,77.56a46.18,46.18,0,0,1-45.76,46.59,45.38,45.38,0,0,1-9.08-.82l.43-2.26a43.87,43.87,0,0,0,51.32-34.85,44.72,44.72,0,0,0,.78-8.64Z" fill="#0072bc"/><path d="M224.56,107.57a46.17,46.17,0,0,0,70.91-59.16l0,0" fill="none"/><path d="M249.76,123a46,46,0,0,1-12.2-4.67l1.12-2a43.83,43.83,0,0,0,11.59,4.44Z" fill="#0072bc"/><path d="M216.89,61.47a46.17,46.17,0,1,0,86.23,33" fill="none"/><path d="M236.16,117.52A46.16,46.16,0,0,1,224,106.91l1.79-1.45a44.18,44.18,0,0,0,11.54,10.09Z" fill="#0072bc"/><path d="M225.24,47.6a46.17,46.17,0,0,0,69.52,60.78v0" fill="none"/><path d="M223,105.63a46.18,46.18,0,0,1-7.45-15L217.8,90a43.79,43.79,0,0,0,7.08,14.3Z" fill="#0072bc"/><path d="M239.54,36.59a46.18,46.18,0,1,0,40.92,82.79h0" fill="none"/><path d="M215.17,89a46.82,46.82,0,0,1-1.34-11.49l2.31,0a44.12,44.12,0,0,0,1.27,10.92Z" fill="#0072bc"/><path d="M254.67,32.12a46.17,46.17,0,1,0,10.67,91.73" fill="none"/><path d="M213.88,75.92a45.87,45.87,0,0,1,2.22-12.23l2.19.71A44.17,44.17,0,0,0,216.18,76Z" fill="#0072bc"/><path d="M251.75,123.41a46.17,46.17,0,0,1,16.5-90.86h0" fill="none"/><path d="M216.63,62.17a46.19,46.19,0,0,1,5.71-10.89l1.88,1.34A43.82,43.82,0,0,0,218.79,63Z" fill="#0072bc"/><path d="M238.56,118.87a46.17,46.17,0,0,1,42.89-81.78" fill="none"/><path d="M223.29,50a46.23,46.23,0,0,1,8.11-8.25l1.43,1.82a43.91,43.91,0,0,0-7.7,7.83Z" fill="#0072bc"/><path d="M227.63,110.9a46.17,46.17,0,1,1,64.75-65.83" fill="none"/><path d="M232.69,40.76a45.82,45.82,0,0,1,10.91-5.94l.82,2.16a43.83,43.83,0,0,0-10.37,5.64Z" fill="#0072bc"/><path d="M219.44,100A46.18,46.18,0,0,1,300.56,55.9v0" fill="none"/><path d="M245.12,34.27a46.14,46.14,0,0,1,13.27-2.43l.08,2.3a43.75,43.75,0,0,0-12.61,2.32Z" fill="#0072bc"/><path d="M214.59,86.32a46.17,46.17,0,0,1,90.83-16.68" fill="none"/><g opacity="0.7"><path d="M303.41,77.59a43.4,43.4,0,0,1-3.09,16.47Q260,78,252.17,35.29a43.3,43.3,0,0,1,6.32-.68Q260,78,303.41,77.59Z" fill="#0072bc" stroke="#fff" stroke-opacity="0.15"/></g><g opacity="0.7"><path d="M280.33,39.63A43.73,43.73,0,0,1,288.16,45a529.42,529.42,0,0,0-50.57,70.2,43.16,43.16,0,0,1-8.05-6.26A294.63,294.63,0,0,0,280.33,39.63Z" fill="#0072bc" stroke="#fff" stroke-opacity="0.15"/></g><g opacity="0.7"><path d="M293.39,50.25a43.33,43.33,0,0,1,4.24,6.09A723.05,723.05,0,0,0,225.25,104a43.57,43.57,0,0,1-5.34-9.36A285.67,285.67,0,0,0,293.39,50.25Z" fill="#0072bc" stroke="#fff" stroke-opacity="0.15"/></g><g opacity="0.7"><path d="M271.38,36.1a43.41,43.41,0,0,1,8.95,3.53,326.09,326.09,0,0,0-30,80.67,43.21,43.21,0,0,1-6.9-2.19A689.14,689.14,0,0,0,271.38,36.1Z" fill="#0072bc" stroke="#fff" stroke-opacity="0.15"/></g><g opacity="0.7"><path d="M300.32,94.06a43.37,43.37,0,0,1-4.86,9,264.68,264.68,0,0,1-61.13-60,43.5,43.5,0,0,1,5.39-3.38Q260,78,300.32,94.06Z" fill="#0072bc" stroke="#fff" stroke-opacity="0.15"/></g><g opacity="0.7"><path d="M281.72,115.56a43.13,43.13,0,0,1-7.51,3.43,140.93,140.93,0,0,0-48.72-67.33,43.61,43.61,0,0,1,4.92-5.42A380.67,380.67,0,0,1,281.72,115.56Z" fill="#0072bc" stroke="#fff" stroke-opacity="0.15"/></g><g opacity="0.7"><path d="M295.46,103a43.6,43.6,0,0,1-6.73,7.5Q260,78,219.91,94.61a44.42,44.42,0,0,1-1.66-4.79Q260,78,295.46,103Z" fill="#0072bc" stroke="#fff" stroke-opacity="0.15"/></g><g opacity="0.7"><path d="M260,34.58a43.28,43.28,0,0,1,11.38,1.52Q260,78,230.41,46.24c.87-.82,1.77-1.59,2.71-2.33Q260,78,260,34.58Z" fill="#0072bc" stroke="#fff" stroke-opacity="0.15"/></g><g opacity="0.7"><path d="M274.21,119a42.92,42.92,0,0,1-7,1.79Q260,78,217.86,88.36a43.18,43.18,0,0,1-1.14-7.23Q260,78,274.21,119Z" fill="#0072bc" stroke="#fff" stroke-opacity="0.15"/></g><g opacity="0.7"><path d="M297.63,56.34A43.61,43.61,0,0,1,300.75,63Q260,78,246,36.9a43.58,43.58,0,0,1,6.16-1.61Q260,78,297.63,56.34Z" fill="#0072bc" stroke="#fff" stroke-opacity="0.15"/></g><g opacity="0.7"><path d="M288.73,110.52a42.94,42.94,0,0,1-7,5Q260,78,243.47,118.11a43.59,43.59,0,0,1-4.57-2.2Q260,78,288.73,110.52Z" fill="#0072bc" stroke="#fff" stroke-opacity="0.15"/></g><g opacity="0.7"><path d="M300.75,63a43.41,43.41,0,0,1,1.83,6.51,152.19,152.19,0,0,1-83.35-6.42,42.91,42.91,0,0,1,2.56-5.71Q260,78,300.75,63Z" fill="#0072bc" stroke="#fff" stroke-opacity="0.15"/></g><g opacity="0.7"><path d="M288.16,45a43.64,43.64,0,0,1,5.23,5.3Q260,78,239.72,39.61a42.64,42.64,0,0,1,4.87-2.2Q260,78,288.16,45Z" fill="#0072bc" stroke="#fff" stroke-opacity="0.15"/></g><g opacity="0.7"><path d="M267.22,120.78a44.76,44.76,0,0,1-6.33.6Q260,78,229.54,108.89a42.51,42.51,0,0,1-3.37-3.72Q260,78,267.22,120.78Z" fill="#0072bc" stroke="#fff" stroke-opacity="0.15"/></g><g opacity="0.7"><path d="M260.89,121.38a43.73,43.73,0,0,1-5-.19Q260,78,216.65,76a42.08,42.08,0,0,1,.75-6.32Q260,78,260.89,121.38Z" fill="#0072bc" stroke="#fff" stroke-opacity="0.15"/></g><g opacity="0.7"><path d="M255.9,121.19c-1.36-.13-2.71-.32-4-.58Q260,78,221.79,57.4a43.07,43.07,0,0,1,2.81-4.52Q260,78,255.9,121.19Z" fill="#0072bc" stroke="#fff" stroke-opacity="0.15"/></g><g opacity="0.7"><path d="M303.1,72.84c.13,1.07.22,2.15.27,3.23a365.06,365.06,0,0,1-86-6.35,41.7,41.7,0,0,1,1.33-5.17A194.93,194.93,0,0,0,303.1,72.84Z" fill="#0072bc" stroke="#fff" stroke-opacity="0.15"/></g><g opacity="0.7"><path d="M302.58,69.53c.21,1.1.39,2.2.52,3.31Q260,78,216.72,81.13c-.09-1.19-.13-2.38-.12-3.58A418.42,418.42,0,0,0,302.58,69.53Z" fill="#0072bc" stroke="#fff" stroke-opacity="0.15"/></g></svg>