<svg xmlns="http://www.w3.org/2000/svg" width="350" height="148" viewBox="0 0 350 148"><rect width="350" height="148" fill="#f1f2f2"/><path d="M31.92,21.87V14.54h2.5a3.56,3.56,0,0,1,3.76,3.67,3.54,3.54,0,0,1-3.76,3.66Zm5.32-3.66a2.69,2.69,0,0,0-2.82-2.86H32.83v5.71h1.59A2.7,2.7,0,0,0,37.24,18.21Z" fill="#0072bc"/><path d="M39.26,19.21a2.63,2.63,0,1,1,5.26,0,2.63,2.63,0,1,1-5.26,0Zm4.39,0a1.78,1.78,0,1,0-3.52,0,1.78,1.78,0,1,0,3.52,0Z" fill="#0072bc"/><circle cx="17.55" cy="17.55" r="7.55" fill="#9dc5ff"/><circle cx="17.55" cy="17.55" r="4.8" fill="#0072bc"/><polyline points="14.8 17.55 16.63 19.38 20.29 15.72" fill="none" stroke="#fff" stroke-linecap="round" stroke-linejoin="round" stroke-width="0.75"/><path d="M201.92,21.87V14.54h2.5a3.56,3.56,0,0,1,3.76,3.67,3.54,3.54,0,0,1-3.76,3.66Zm5.32-3.66a2.69,2.69,0,0,0-2.82-2.86h-1.59v5.71h1.59A2.7,2.7,0,0,0,207.24,18.21Z" fill="#ef4a60"/><path d="M209.26,19.21a2.63,2.63,0,1,1,5.26,0,2.63,2.63,0,1,1-5.26,0Zm4.39,0a1.78,1.78,0,1,0-3.52,0,1.78,1.78,0,1,0,3.52,0Z" fill="#ef4a60"/><path d="M219.44,21.87V18.4c0-.95-.48-1.23-1.19-1.23a2.06,2.06,0,0,0-1.57.82v3.88h-.83V16.56h.83v.77a2.58,2.58,0,0,1,1.9-.9,1.5,1.5,0,0,1,1.68,1.71v3.73Z" fill="#ef4a60"/><path d="M222.07,16.93l-.42-.35a1.65,1.65,0,0,0,.71-1l-.15,0a.53.53,0,0,1-.53-.56.6.6,0,0,1,.58-.59c.38,0,.7.3.7.84A2.14,2.14,0,0,1,222.07,16.93Z" fill="#ef4a60"/><path d="M224.54,20.76V17.29h-.88v-.73h.88V15.11h.83v1.45h1.08v.73h-1.08v3.29c0,.4.18.68.53.68a.75.75,0,0,0,.56-.23l.24.63a1.32,1.32,0,0,1-1,.34A1.08,1.08,0,0,1,224.54,20.76Z" fill="#ef4a60"/><circle cx="187.55" cy="17.55" r="7.55" fill="#ffbcc1"/><circle cx="187.55" cy="17.55" r="4.8" fill="#ef4a60"/><line x1="189.55" y1="15.55" x2="185.55" y2="19.55" fill="none" stroke="#fff" stroke-linecap="round" stroke-linejoin="round" stroke-width="0.75"/><line x1="189.55" y1="19.55" x2="185.55" y2="15.55" fill="none" stroke="#fff" stroke-linecap="round" stroke-linejoin="round" stroke-width="0.75"/><line x1="130.69" y1="66.88" x2="130.69" y2="88.07" fill="none" stroke="#919191" stroke-miterlimit="10"/><polygon points="127.42 85.42 128.01 84.87 130.69 87.76 133.38 84.87 133.96 85.42 130.69 88.93 127.42 85.42" fill="#919191"/><line x1="117.34" y1="96.55" x2="107.63" y2="96.55" fill="none" stroke="#919191" stroke-miterlimit="10"/><polygon points="110.28 93.28 110.82 93.87 107.93 96.55 110.82 99.24 110.28 99.82 106.76 96.55 110.28 93.28" fill="#919191"/><line x1="77.34" y1="96.55" x2="67.63" y2="96.55" fill="none" stroke="#919191" stroke-miterlimit="10"/><polygon points="70.28 93.28 70.82 93.87 67.93 96.55 70.82 99.24 70.28 99.82 66.76 96.55 70.28 93.28" fill="#919191"/><line x1="63.86" y1="60.45" x2="73.97" y2="60.45" fill="none" stroke="#919191" stroke-miterlimit="10"/><polygon points="71.32 63.72 70.77 63.13 73.66 60.45 70.77 57.76 71.32 57.18 74.84 60.45 71.32 63.72" fill="#919191"/><rect x="36.6" y="52.48" width="28.44" height="15.24" fill="#0072bc"/><rect x="116.75" y="52.48" width="28.44" height="15.24" fill="#0072bc"/><rect x="116.75" y="89.3" width="28.44" height="15.24" fill="#0072bc"/><polygon points="107.18 96.55 91.01 108 74.84 96.55 91.01 85.1 107.18 96.55" fill="#18375f"/><polygon points="107.18 60.45 91.01 71.9 74.84 60.45 91.01 49 107.18 60.45" fill="#18375f"/><line x1="106.56" y1="60.45" x2="115.95" y2="60.55" fill="none" stroke="#919191" stroke-miterlimit="10"/><polygon points="113.27 63.79 112.73 63.2 115.64 60.55 112.79 57.83 113.34 57.25 116.82 60.56 113.27 63.79" fill="#919191"/><path d="M52.07,62.8l-.42-1H49.33l-.41,1h-.67l1.88-4.67h.72l1.88,4.67Zm-1.58-4.08-1,2.52h2Z" fill="#fff"/><path d="M129.73,62.8V58.13h2.08a1.17,1.17,0,0,1,1.31,1.19,1.06,1.06,0,0,1-.82,1.07,1.17,1.17,0,0,1,.91,1.15,1.21,1.21,0,0,1-1.35,1.26Zm2.79-3.4a.74.74,0,0,0-.81-.76h-1.4v1.51h1.4A.73.73,0,0,0,132.52,59.4Zm.09,2.07a.79.79,0,0,0-.86-.8h-1.44v1.61h1.44A.77.77,0,0,0,132.61,61.47Z" fill="#fff"/><path d="M91.83,62.8v-.39a1.46,1.46,0,0,1-1.12.47,1.12,1.12,0,0,1-1.18-1.12,1.1,1.1,0,0,1,1.18-1.11,1.43,1.43,0,0,1,1.12.45v-.61c0-.45-.37-.7-.86-.7a1.34,1.34,0,0,0-1,.46l-.25-.36A1.77,1.77,0,0,1,91,59.33c.72,0,1.31.32,1.31,1.14V62.8Zm0-.72v-.64A1.16,1.16,0,0,0,90.9,61a.74.74,0,1,0,0,1.47A1.14,1.14,0,0,0,91.83,62.08Z" fill="#fff"/><path d="M89.71,98.8V94.13h.53v1.8a1.38,1.38,0,0,1,1.14-.6c.89,0,1.5.69,1.5,1.78s-.62,1.77-1.5,1.77a1.4,1.4,0,0,1-1.14-.59v.51Zm1.54-.39c.68,0,1.09-.55,1.09-1.3s-.41-1.31-1.09-1.31a1.23,1.23,0,0,0-1,.55v1.53A1.24,1.24,0,0,0,91.25,98.41Z" fill="#fff"/><polygon points="67.15 96.55 50.98 108 34.81 96.55 50.98 85.1 67.15 96.55" fill="#18375f"/><path d="M48.52,97.1a1.67,1.67,0,0,1,1.68-1.77,1.44,1.44,0,0,1,1.24.59l-.35.31a1,1,0,0,0-.86-.43,1.31,1.31,0,0,0,0,2.61,1,1,0,0,0,.86-.44l.35.32a1.44,1.44,0,0,1-1.24.59A1.68,1.68,0,0,1,48.52,97.1Z" fill="#fff"/><path d="M129.54,96.46A2.34,2.34,0,0,1,132,94.05a2.08,2.08,0,0,1,1.77.92l-.48.28a1.58,1.58,0,0,0-1.29-.68,1.9,1.9,0,0,0,0,3.79,1.58,1.58,0,0,0,1.29-.68l.49.27a2.12,2.12,0,0,1-1.78.93A2.34,2.34,0,0,1,129.54,96.46Z" fill="#fff"/><line x1="219.31" y1="66.88" x2="219.31" y2="88.07" fill="none" stroke="#919191" stroke-miterlimit="10"/><polygon points="216.04 85.42 216.62 84.87 219.31 87.76 221.99 84.87 222.58 85.42 219.31 88.93 216.04 85.42" fill="#919191"/><line x1="232.66" y1="96.55" x2="242.37" y2="96.55" fill="none" stroke="#919191" stroke-miterlimit="10"/><polygon points="239.72 99.82 239.18 99.24 242.07 96.55 239.18 93.87 239.72 93.28 243.24 96.55 239.72 99.82" fill="#919191"/><line x1="272.66" y1="96.55" x2="282.37" y2="96.55" fill="none" stroke="#919191" stroke-miterlimit="10"/><polygon points="279.72 99.82 279.18 99.24 282.07 96.55 279.18 93.87 279.72 93.28 283.24 96.55 279.72 99.82" fill="#919191"/><line x1="286.14" y1="60.45" x2="276.03" y2="60.45" fill="none" stroke="#919191" stroke-miterlimit="10"/><polygon points="278.68 57.18 279.23 57.76 276.34 60.45 279.23 63.13 278.68 63.72 275.16 60.45 278.68 57.18" fill="#919191"/><rect x="284.96" y="52.48" width="28.44" height="15.24" transform="translate(598.35 120.19) rotate(-180)" fill="#0072bc"/><rect x="204.81" y="52.48" width="28.44" height="15.24" transform="translate(438.06 120.19) rotate(-180)" fill="#0072bc"/><rect x="204.81" y="89.3" width="28.44" height="15.24" transform="translate(438.06 193.84) rotate(-180)" fill="#0072bc"/><polygon points="242.82 96.55 258.99 108 275.16 96.55 258.99 85.1 242.82 96.55" fill="#18375f"/><polygon points="242.82 60.45 258.99 71.9 275.16 60.45 258.99 49 242.82 60.45" fill="#18375f"/><line x1="243.44" y1="60.45" x2="234.05" y2="60.55" fill="none" stroke="#919191" stroke-miterlimit="10"/><polygon points="236.66 57.25 237.21 57.83 234.35 60.55 237.27 63.2 236.73 63.79 233.18 60.56 236.66 57.25" fill="#919191"/><line x1="219.31" y1="68.07" x2="219.31" y2="88.93" fill="none"/><path d="M297.27,62.8l1.88-4.67h.72l1.88,4.67h-.67l-.41-1h-2.32l-.42,1Zm1.24-1.56h2l-1-2.52Z" fill="#fff"/><path d="M217.36,62.8V58.13h2.08a1.18,1.18,0,0,1,1.31,1.19,1.06,1.06,0,0,1-.82,1.07,1.17,1.17,0,0,1,.91,1.15,1.22,1.22,0,0,1-1.35,1.26Zm2.79-3.4a.74.74,0,0,0-.81-.76h-1.4v1.51h1.4A.73.73,0,0,0,220.15,59.4Zm.09,2.07a.79.79,0,0,0-.86-.8h-1.44v1.61h1.44A.77.77,0,0,0,220.24,61.47Z" fill="#fff"/><path d="M259.45,61.8v-.39a1.43,1.43,0,0,1-1.12.47,1.12,1.12,0,0,1-1.17-1.12,1.09,1.09,0,0,1,1.17-1.11,1.42,1.42,0,0,1,1.12.45v-.61c0-.45-.36-.7-.85-.7a1.34,1.34,0,0,0-1,.46l-.24-.36a1.76,1.76,0,0,1,1.35-.56c.72,0,1.31.32,1.31,1.14V61.8Zm0-.72v-.64a1.14,1.14,0,0,0-.92-.41.74.74,0,1,0,0,1.47A1.12,1.12,0,0,0,259.45,61.08Z" fill="#fff"/><path d="M259.34,98.8V94.13h.52v1.8a1.41,1.41,0,0,1,1.15-.6c.88,0,1.5.69,1.5,1.78s-.62,1.77-1.5,1.77a1.43,1.43,0,0,1-1.15-.59v.51Zm1.54-.39c.68,0,1.08-.55,1.08-1.3s-.4-1.31-1.08-1.31a1.27,1.27,0,0,0-1,.55v1.53A1.28,1.28,0,0,0,260.88,98.41Z" fill="#fff"/><polygon points="282.85 96.55 299.02 108 315.19 96.55 299.02 85.1 282.85 96.55" fill="#18375f"/><path d="M297.14,97.1a1.67,1.67,0,0,1,1.69-1.77,1.44,1.44,0,0,1,1.24.59l-.35.31a1,1,0,0,0-.86-.43,1.31,1.31,0,0,0,0,2.61,1,1,0,0,0,.86-.44l.35.32a1.44,1.44,0,0,1-1.24.59A1.68,1.68,0,0,1,297.14,97.1Z" fill="#fff"/><path d="M217.17,96.46a2.34,2.34,0,0,1,2.4-2.41,2.07,2.07,0,0,1,1.77.92l-.48.28a1.55,1.55,0,0,0-1.29-.68,1.9,1.9,0,0,0,0,3.79,1.55,1.55,0,0,0,1.29-.68l.49.27a2.09,2.09,0,0,1-1.78.93A2.34,2.34,0,0,1,217.17,96.46Z" fill="#fff"/></svg>