<svg xmlns="http://www.w3.org/2000/svg" width="10cm" height="10cm" viewBox="0 0 283.46 283.46"><rect x="0.5" y="0.5" width="282.47" height="282.47" fill="#fff"/><rect width="283.46" height="283.46" fill="#fff"/><path d="M283.46,283.46H0V0H283.46ZM1,282.47H282.47V1H1Z" fill="#676767"/><path d="M247.92,106.76c-52.74,0-79.55,0-105.48-.07s-52.69-.06-105.38-.06V28.35c52.74,0,79.55,0,105.48.06s52.69.07,105.38.07Z" fill="#676767" opacity="0.6"/><path d="M247.92,249.65c-53.48,0-80.67-3.19-107-6.27-26.72-3.13-51.95-6.09-103.9-6.09V211.37c53.48,0,80.67,3.19,107,6.27,26.72,3.13,52,6.09,103.9,6.09Z" fill="#676767" opacity="0.6"/><path d="M37,167.68V129.34c52.3,0,78.9-1.18,104.61-2.32,26.14-1.17,53.17-2.37,106.34-2.37V163c-52.3,0-78.89,1.18-104.61,2.32C117.17,166.48,90.14,167.68,37,167.68Z" fill="#676767" opacity="0.6"/><path d="M247.92,206.93c-53.27,0-80.35-3-106.54-5.85-25.64-2.81-52.16-5.73-104.32-5.73v-20c53.27,0,80.35,3,106.54,5.85,25.64,2.82,52.16,5.73,104.32,5.73Z" fill="#676767" opacity="0.6"/><path d="M247.92,187.72c-55.13,0-83-17.62-109.88-34.66C112,136.56,87.36,121,37.06,121V104.53c55.13,0,83,17.62,109.88,34.67,26.07,16.5,50.68,32.08,101,32.08Z" fill="#676767" opacity="0.6"/><path d="M37.06,255.12V244.45c50,0,74.85-32.88,101.13-67.7,26.71-35.38,54.33-72,109.73-72v10.66c-50,0-74.85,32.89-101.13,67.7C120.08,218.53,92.46,255.12,37.06,255.12Z" fill="#676767" opacity="0.6"/><path d="M247.92,223.53c-53.1,0-80.09-5-106.19-9.87-25.73-4.78-52.34-9.73-104.67-9.73v-8.25c53.1,0,80.09,5,106.2,9.87,25.73,4.78,52.33,9.73,104.66,9.73Z" fill="#676767" opacity="0.6"/><rect x="28.35" y="28.35" width="9.28" height="92.63" fill="#676767"/><rect x="247.16" y="171.27" width="7.96" height="35.67" fill="#676767"/><rect x="247.16" y="215.28" width="7.96" height="34.37" fill="#676767"/><rect x="28.35" y="129.25" width="9.28" height="38.43" fill="#676767"/><rect x="28.35" y="244.44" width="9.28" height="10.68" fill="#676767"/><rect x="28.35" y="211.37" width="9.28" height="25.96" fill="#676767"/><rect x="28.35" y="175.35" width="9.28" height="28.77" fill="#676767"/><rect x="247.16" y="28.35" width="7.96" height="87.15" fill="#676767"/><rect x="247.16" y="124.65" width="7.96" height="38.34" fill="#676767"/></svg>