<svg xmlns="http://www.w3.org/2000/svg" width="1920" height="1440" viewBox="0 0 1920 1440"><line x1="31.12" y1="432.04" x2="31.12" y2="432.04" fill="none" stroke="#404041" stroke-linecap="round" stroke-linejoin="round" stroke-width="0.5"/><line x1="33.12" y1="432.04" x2="34.12" y2="432.04" fill="none" stroke="#404041" stroke-linecap="round" stroke-linejoin="round" stroke-width="0.5" stroke-dasharray="0 2"/><line x1="35.12" y1="432.04" x2="1894.18" y2="432.04" fill="none" stroke="#404041" stroke-linecap="round" stroke-linejoin="round" stroke-width="0.5" stroke-dasharray="0 2 0 2"/><line x1="1895.18" y1="432.04" x2="1895.18" y2="432.04" fill="none" stroke="#404041" stroke-linecap="round" stroke-linejoin="round" stroke-width="0.5"/><line x1="31.12" y1="730.49" x2="31.12" y2="730.49" fill="none" stroke="#404041" stroke-linecap="round" stroke-linejoin="round" stroke-width="0.5"/><line x1="33.12" y1="730.49" x2="34.12" y2="730.49" fill="none" stroke="#404041" stroke-linecap="round" stroke-linejoin="round" stroke-width="0.5" stroke-dasharray="0 2"/><line x1="35.12" y1="730.49" x2="1894.18" y2="730.49" fill="none" stroke="#404041" stroke-linecap="round" stroke-linejoin="round" stroke-width="0.5" stroke-dasharray="0 2 0 2"/><line x1="1895.18" y1="730.49" x2="1895.18" y2="730.49" fill="none" stroke="#404041" stroke-linecap="round" stroke-linejoin="round" stroke-width="0.5"/><path d="M33.27,192.48a14.27,14.27,0,0,1,14.67-14.76,12.77,12.77,0,0,1,10.82,5.65l-3,1.67a9.59,9.59,0,0,0-7.82-4.15c-6.25,0-11,4.79-11,11.59s4.75,11.59,11,11.59a9.49,9.49,0,0,0,7.82-4.15l3,1.67a12.9,12.9,0,0,1-10.86,5.64A14.26,14.26,0,0,1,33.27,192.48Z" fill="#333"/><path d="M62,196.37c0-6,3.93-10.82,10.22-10.82s10.22,4.83,10.22,10.82-3.93,10.86-10.22,10.86S62,202.36,62,196.37Zm17.07,0c0-4.19-2.44-8-6.85-8s-6.88,3.77-6.88,8,2.48,8,6.88,8S79.08,200.6,79.08,196.37Z" fill="#333"/><path d="M112.61,206.72v-14c0-2.61-1.16-4.28-3.81-4.28a7.21,7.21,0,0,0-5.47,3.17v15.14h-3.21v-14c0-2.61-1.11-4.28-3.81-4.28a7.21,7.21,0,0,0-5.43,3.21v15.1H87.67V186.06h3.21v3a8.93,8.93,0,0,1,6.67-3.51c3.17,0,5,1.71,5.56,3.85a8.72,8.72,0,0,1,6.93-3.85c3.77,0,5.78,2.09,5.78,6.24v14.93Z" fill="#333"/><path d="M125.44,203.6v11h-3.21V186.06h3.21v3.08a8.65,8.65,0,0,1,7-3.59c5.43,0,9.2,4.1,9.2,10.82s-3.77,10.86-9.2,10.86A8.46,8.46,0,0,1,125.44,203.6Zm12.79-7.23c0-4.58-2.48-8-6.63-8a7.64,7.64,0,0,0-6.16,3.3V201a7.67,7.67,0,0,0,6.16,3.34C135.75,204.37,138.23,201,138.23,196.37Z" fill="#333"/><path d="M159.61,206.72v-2.35a8.93,8.93,0,0,1-6.84,2.86c-3.51,0-7.23-2.35-7.23-6.84s3.72-6.8,7.23-6.8a8.64,8.64,0,0,1,6.84,2.82v-3.72c0-2.78-2.22-4.36-5.21-4.36a8.23,8.23,0,0,0-6.33,2.86l-1.5-2.22a10.79,10.79,0,0,1,8.25-3.42c4.37,0,8,2,8,7v14.2Zm0-4.36v-3.9a6.91,6.91,0,0,0-5.68-2.56c-3,0-5.09,1.88-5.09,4.53s2.09,4.49,5.09,4.49A6.91,6.91,0,0,0,159.61,202.36Z" fill="#333"/><path d="M169.24,206.72V186.06h3.21v3.34a8.77,8.77,0,0,1,6.88-3.77v3.3a5.37,5.37,0,0,0-1.28-.13,7.54,7.54,0,0,0-5.6,3.29v14.63Z" fill="#333"/><path d="M182.8,181a2.16,2.16,0,1,1,2.14,2.14A2.14,2.14,0,0,1,182.8,181Zm.55,25.75V186.06h3.21v20.66Z" fill="#333"/><path d="M191.18,204l1.67-2.31a9.34,9.34,0,0,0,6.8,3c3.16,0,4.87-1.49,4.87-3.55,0-2.26-2.52-2.86-5.3-3.55-3.51-.81-7.48-1.75-7.48-6,0-3.2,2.78-5.94,7.69-5.94a10.45,10.45,0,0,1,7.66,3l-1.5,2.23a8,8,0,0,0-6.16-2.61c-2.82,0-4.57,1.41-4.57,3.25s2.35,2.52,5,3.16c3.6.82,7.75,1.84,7.75,6.42,0,3.46-2.78,6.24-8.13,6.24A11,11,0,0,1,191.18,204Z" fill="#333"/><path d="M211.67,196.37c0-6,3.93-10.82,10.22-10.82s10.22,4.83,10.22,10.82-3.93,10.86-10.22,10.86S211.67,202.36,211.67,196.37Zm17.06,0c0-4.19-2.44-8-6.84-8s-6.89,3.77-6.89,8,2.48,8,6.89,8S228.73,200.6,228.73,196.37Z" fill="#333"/><path d="M251.27,206.72V193.2c0-3.63-1.84-4.79-4.62-4.79a8,8,0,0,0-6.11,3.21v15.1h-3.21V186.06h3.21v3a10.19,10.19,0,0,1,7.35-3.51c4.32,0,6.59,2.18,6.59,6.67v14.5Z" fill="#333"/><path d="M33.27,486.54a14.27,14.27,0,0,1,14.67-14.76,12.77,12.77,0,0,1,10.82,5.65l-3,1.66A9.61,9.61,0,0,0,47.94,475c-6.25,0-11,4.79-11,11.59s4.75,11.59,11,11.59A9.49,9.49,0,0,0,55.76,494l3,1.67a12.9,12.9,0,0,1-10.86,5.64A14.27,14.27,0,0,1,33.27,486.54Z" fill="#333"/><path d="M62,490.43c0-6,3.93-10.82,10.22-10.82s10.22,4.83,10.22,10.82-3.93,10.86-10.22,10.86S62,496.42,62,490.43Zm17.07,0c0-4.19-2.44-8-6.85-8s-6.88,3.77-6.88,8,2.48,8,6.88,8S79.08,494.66,79.08,490.43Z" fill="#333"/><path d="M87.67,500.78V480.12h3.21v3.34a8.79,8.79,0,0,1,6.89-3.77V483a5.46,5.46,0,0,0-1.29-.13,7.55,7.55,0,0,0-5.6,3.29v14.63Z" fill="#333"/><path d="M101.79,500.78V480.12H105v3.34a8.81,8.81,0,0,1,6.89-3.77V483a5.37,5.37,0,0,0-1.28-.13,7.57,7.57,0,0,0-5.61,3.29v14.63Z" fill="#333"/><path d="M114.7,490.43c0-6,4.28-10.82,10.18-10.82,6.25,0,9.93,4.87,9.93,11.08v.81H118.08a7.28,7.28,0,0,0,7.44,7.14A9,9,0,0,0,131.9,496l1.54,2.1a11.25,11.25,0,0,1-8.21,3.16C119.11,501.29,114.7,496.89,114.7,490.43Zm10.14-8.17c-4.41,0-6.59,3.72-6.76,6.89h13.56C131.6,486.07,129.54,482.26,124.84,482.26Z" fill="#333"/><path d="M140,500.78V472.25h3.21v28.53Z" fill="#333"/><path d="M162.52,500.78v-2.35a8.93,8.93,0,0,1-6.84,2.86c-3.51,0-7.23-2.35-7.23-6.84s3.72-6.8,7.23-6.8a8.65,8.65,0,0,1,6.84,2.82v-3.72c0-2.78-2.22-4.36-5.22-4.36a8.23,8.23,0,0,0-6.33,2.86L149.48,483a10.79,10.79,0,0,1,8.25-3.42c4.36,0,8,2,8,7v14.2Zm0-4.36v-3.9a6.91,6.91,0,0,0-5.69-2.56c-3,0-5.09,1.88-5.09,4.53s2.1,4.49,5.09,4.49A6.91,6.91,0,0,0,162.52,496.42Z" fill="#333"/><path d="M172.79,496.46V482.94h-3.42v-2.82h3.42v-5.64H176v5.64h4.2v2.82H176v12.84c0,1.53.69,2.65,2.1,2.65a3.1,3.1,0,0,0,2.18-.86l.94,2.4a5.23,5.23,0,0,1-3.85,1.32C174.33,501.29,172.79,499.54,172.79,496.46Z" fill="#333"/><path d="M184.16,475a2.16,2.16,0,1,1,4.32,0,2.16,2.16,0,0,1-4.32,0Zm.56,25.75V480.12h3.21v20.66Z" fill="#333"/><path d="M193.15,490.43c0-6,3.93-10.82,10.22-10.82s10.22,4.83,10.22,10.82-3.93,10.86-10.22,10.86S193.15,496.42,193.15,490.43Zm17.06,0c0-4.19-2.44-8-6.84-8s-6.89,3.77-6.89,8,2.48,8,6.89,8S210.21,494.66,210.21,490.43Z" fill="#333"/><path d="M232.75,500.78V487.26c0-3.63-1.84-4.79-4.62-4.79a8,8,0,0,0-6.11,3.21v15.1h-3.21V480.12H222v3a10.19,10.19,0,0,1,7.35-3.51c4.32,0,6.59,2.18,6.59,6.67v14.5Z" fill="#333"/><path d="M33.27,778.16A14.27,14.27,0,0,1,47.94,763.4a12.77,12.77,0,0,1,10.82,5.65l-3,1.66a9.61,9.61,0,0,0-7.82-4.14c-6.25,0-11,4.79-11,11.59s4.75,11.59,11,11.59a9.49,9.49,0,0,0,7.82-4.15l3,1.67a12.9,12.9,0,0,1-10.86,5.64A14.27,14.27,0,0,1,33.27,778.16Z" fill="#333"/><path d="M77.19,792.4V778.8c0-3.64-1.88-4.71-4.66-4.71a8.1,8.1,0,0,0-6.11,3.21v15.1H63.21V763.87h3.21v10.87a10.21,10.21,0,0,1,7.39-3.51c4.32,0,6.59,2.09,6.59,6.58V792.4Z" fill="#333"/><path d="M99.73,792.4v-2.35a8.93,8.93,0,0,1-6.84,2.86c-3.51,0-7.23-2.35-7.23-6.84s3.72-6.8,7.23-6.8a8.64,8.64,0,0,1,6.84,2.82v-3.72c0-2.78-2.22-4.36-5.21-4.36a8.2,8.2,0,0,0-6.33,2.86l-1.5-2.22a10.79,10.79,0,0,1,8.25-3.42c4.37,0,8,2,8,7v14.2Zm0-4.36v-3.9A6.91,6.91,0,0,0,94,781.58c-3,0-5.08,1.88-5.08,4.53s2.09,4.49,5.08,4.49A6.91,6.91,0,0,0,99.73,788Z" fill="#333"/><path d="M123.3,792.4V778.88c0-3.63-1.84-4.79-4.62-4.79a8,8,0,0,0-6.11,3.21v15.1h-3.21V771.74h3.21v3a10.19,10.19,0,0,1,7.35-3.51c4.32,0,6.59,2.18,6.59,6.67v14.5Z" fill="#333"/><path d="M132.88,797.7l1.63-2.39c1.71,2.05,3.76,2.82,6.71,2.82,3.42,0,6.63-1.67,6.63-6.2V789a8.65,8.65,0,0,1-6.93,3.68c-5.39,0-9.19-4-9.19-10.7s3.76-10.73,9.19-10.73a8.58,8.58,0,0,1,6.93,3.63v-3.12h3.21V791.8c0,6.84-4.79,9-9.84,9C137.71,800.78,135.32,800.1,132.88,797.7Zm15-11.25v-9a7.6,7.6,0,0,0-6.16-3.34c-4.15,0-6.63,3.3-6.63,7.87s2.48,7.87,6.63,7.87A7.63,7.63,0,0,0,147.85,786.45Z" fill="#333"/><path d="M156.28,782.05c0-6,4.28-10.82,10.18-10.82,6.24,0,9.92,4.87,9.92,11.08v.81H159.66a7.27,7.27,0,0,0,7.44,7.14,9,9,0,0,0,6.37-2.61l1.54,2.1a11.22,11.22,0,0,1-8.21,3.16C160.68,792.91,156.28,788.51,156.28,782.05Zm10.14-8.17c-4.41,0-6.59,3.72-6.76,6.89h13.56C173.17,777.69,171.12,773.88,166.42,773.88Z" fill="#333"/><path d="M191.39,782.05c0-6,3.94-10.82,10.23-10.82s10.22,4.83,10.22,10.82-3.94,10.86-10.22,10.86S191.39,788,191.39,782.05Zm17.07,0c0-4.19-2.44-8-6.84-8s-6.89,3.77-6.89,8,2.48,8,6.89,8S208.46,786.28,208.46,782.05Z" fill="#333"/><path d="M222.57,792.4,214,771.74h3.46l6.89,16.94,6.84-16.94h3.51l-8.6,20.66Z" fill="#333"/><path d="M236.82,782.05c0-6,4.27-10.82,10.18-10.82,6.24,0,9.92,4.87,9.92,11.08v.81H240.2a7.27,7.27,0,0,0,7.44,7.14,9,9,0,0,0,6.37-2.61l1.54,2.1a11.22,11.22,0,0,1-8.21,3.16C241.22,792.91,236.82,788.51,236.82,782.05ZM247,773.88c-4.4,0-6.58,3.72-6.75,6.89h13.55C253.71,777.69,251.66,773.88,247,773.88Z" fill="#333"/><path d="M262.09,792.4V771.74h3.21v3.34a8.81,8.81,0,0,1,6.89-3.77v3.3a5.42,5.42,0,0,0-1.28-.13,7.55,7.55,0,0,0-5.61,3.29V792.4Z" fill="#333"/><path d="M287.89,788.08V774.56h-3.43v-2.82h3.43V766.1h3.2v5.64h4.19v2.82h-4.19V787.4c0,1.53.69,2.65,2.1,2.65a3.1,3.1,0,0,0,2.18-.86l.94,2.4a5.24,5.24,0,0,1-3.85,1.32C289.43,792.91,287.89,791.16,287.89,788.08Z" fill="#333"/><path d="M299.26,766.65a2.16,2.16,0,1,1,4.32,0,2.16,2.16,0,0,1-4.32,0Zm.56,25.75V771.74H303V792.4Z" fill="#333"/><path d="M334.38,792.4v-14c0-2.61-1.16-4.28-3.81-4.28a7.21,7.21,0,0,0-5.47,3.17V792.4h-3.21v-14c0-2.61-1.11-4.28-3.81-4.28a7.21,7.21,0,0,0-5.43,3.21v15.1h-3.21V771.74h3.21v3a8.93,8.93,0,0,1,6.67-3.51c3.17,0,5,1.71,5.56,3.85a8.72,8.72,0,0,1,6.93-3.85c3.76,0,5.77,2.09,5.77,6.24V792.4Z" fill="#333"/><path d="M342.8,782.05c0-6,4.28-10.82,10.18-10.82,6.25,0,9.93,4.87,9.93,11.08v.81H346.18a7.28,7.28,0,0,0,7.44,7.14,9,9,0,0,0,6.38-2.61l1.54,2.1a11.25,11.25,0,0,1-8.21,3.16C347.21,792.91,342.8,788.51,342.8,782.05Zm10.14-8.17c-4.4,0-6.59,3.72-6.76,6.89h13.56C359.7,777.69,357.65,773.88,352.94,773.88Z" fill="#333"/><line x1="31.12" y1="1020.69" x2="31.12" y2="1020.69" fill="none" stroke="#404041" stroke-linecap="round" stroke-linejoin="round" stroke-width="0.5"/><line x1="33.12" y1="1020.69" x2="34.12" y2="1020.69" fill="none" stroke="#404041" stroke-linecap="round" stroke-linejoin="round" stroke-width="0.5" stroke-dasharray="0 2"/><line x1="35.12" y1="1020.69" x2="1894.18" y2="1020.69" fill="none" stroke="#404041" stroke-linecap="round" stroke-linejoin="round" stroke-width="0.5" stroke-dasharray="0 2 0 2"/><line x1="1895.18" y1="1020.69" x2="1895.18" y2="1020.69" fill="none" stroke="#404041" stroke-linecap="round" stroke-linejoin="round" stroke-width="0.5"/><path d="M34.42,1087.35v-28.53h9.75c8.86,0,14.63,6.2,14.63,14.29s-5.77,14.24-14.63,14.24Zm20.7-14.24c0-6.16-3.89-11.12-10.95-11.12H38v22.2h6.2C51.1,1084.19,55.12,1079.22,55.12,1073.11Z" fill="#333"/><path d="M63.68,1061.6a2.16,2.16,0,1,1,4.32,0,2.16,2.16,0,0,1-4.32,0Zm.55,25.75v-20.66h3.21v20.66Z" fill="#333"/><path d="M72.06,1084.61l1.67-2.31a9.34,9.34,0,0,0,6.8,3c3.16,0,4.88-1.49,4.88-3.54,0-2.27-2.53-2.87-5.31-3.55-3.51-.82-7.48-1.76-7.48-6,0-3.2,2.78-5.94,7.7-5.94a10.45,10.45,0,0,1,7.65,3l-1.5,2.23a8,8,0,0,0-6.15-2.61c-2.83,0-4.58,1.41-4.58,3.25s2.35,2.52,5.05,3.16c3.59.82,7.74,1.84,7.74,6.42,0,3.46-2.78,6.24-8.13,6.24A11,11,0,0,1,72.06,1084.61Z" fill="#333"/><path d="M94.39,1083v-13.51H91v-2.83h3.42v-5.64H97.6v5.64h4.19v2.83H97.6v12.83c0,1.54.68,2.65,2.09,2.65a3.1,3.1,0,0,0,2.18-.86l.94,2.4a5.23,5.23,0,0,1-3.85,1.32C95.93,1087.86,94.39,1086.11,94.39,1083Z" fill="#333"/><path d="M106.32,1087.35v-20.66h3.21V1070a8.79,8.79,0,0,1,6.88-3.77v3.3a5.37,5.37,0,0,0-1.28-.13,7.54,7.54,0,0,0-5.6,3.29v14.63Z" fill="#333"/><path d="M119.88,1061.6a2.16,2.16,0,1,1,4.32,0,2.16,2.16,0,0,1-4.32,0Zm.56,25.75v-20.66h3.2v20.66Z" fill="#333"/><path d="M130.06,1087.35v-28.53h3.21v11a8.58,8.58,0,0,1,7-3.63c5.39,0,9.19,4.28,9.19,10.86s-3.8,10.82-9.19,10.82a8.68,8.68,0,0,1-7-3.59v3.08Zm9.37-2.35c4.19,0,6.67-3.38,6.67-8s-2.48-8-6.67-8a7.66,7.66,0,0,0-6.16,3.34v9.37A7.61,7.61,0,0,0,139.43,1085Z" fill="#333"/><path d="M168.6,1087.35v-2.91a10.11,10.11,0,0,1-7.36,3.42c-4.32,0-6.59-2.09-6.59-6.58v-14.59h3.21v13.6c0,3.64,1.84,4.71,4.62,4.71a7.94,7.94,0,0,0,6.12-3.12v-15.19h3.2v20.66Z" fill="#333"/><path d="M178.86,1083v-13.51h-3.42v-2.83h3.42v-5.64h3.21v5.64h4.19v2.83h-4.19v12.83c0,1.54.68,2.65,2.09,2.65a3.12,3.12,0,0,0,2.19-.86l.94,2.4a5.26,5.26,0,0,1-3.85,1.32C180.4,1087.86,178.86,1086.11,178.86,1083Z" fill="#333"/><path d="M190.24,1061.6a2.16,2.16,0,1,1,4.32,0,2.16,2.16,0,0,1-4.32,0Zm.55,25.75v-20.66H194v20.66Z" fill="#333"/><path d="M199.22,1077c0-6,3.94-10.82,10.22-10.82s10.22,4.83,10.22,10.82-3.93,10.86-10.22,10.86S199.22,1083,199.22,1077Zm17.07,0c0-4.19-2.44-8-6.85-8s-6.88,3.77-6.88,8,2.48,8,6.88,8S216.29,1081.23,216.29,1077Z" fill="#333"/><path d="M238.83,1087.35v-13.52c0-3.63-1.84-4.79-4.62-4.79a8,8,0,0,0-6.12,3.21v15.1h-3.21v-20.66h3.21v3a10.25,10.25,0,0,1,7.36-3.51c4.32,0,6.58,2.18,6.58,6.67v14.5Z" fill="#333"/><rect x="523.59" y="174.51" width="46.73" height="86.12" transform="translate(764.53 -329.38) rotate(90)" fill="#0072bc"/><rect x="555.54" y="203.32" width="46.73" height="150.02" transform="translate(857.23 -300.58) rotate(90)" fill="#0072bc"/><rect x="536.61" y="283" width="46.73" height="112.16" transform="translate(899.05 -220.9) rotate(90)" fill="#0072bc"/><rect x="728.78" y="265.86" width="52.41" height="96.58" fill="#0072bc"/><rect x="796.91" y="194.21" width="52.41" height="168.23" fill="#0072bc"/><rect x="865.04" y="236.66" width="52.41" height="125.78" fill="#0072bc"/><rect x="992.32" y="194.21" width="86.12" height="23.37" fill="#0072bc" stroke="#fff" stroke-miterlimit="10" stroke-width="0.5"/><rect x="992.32" y="217.57" width="69.78" height="23.37" fill="#0072bc" stroke="#fff" stroke-miterlimit="10" stroke-width="0.5"/><rect x="992.32" y="254.96" width="150.02" height="23.37" fill="#0072bc" stroke="#fff" stroke-miterlimit="10" stroke-width="0.5"/><rect x="992.32" y="278.32" width="123.95" height="23.37" fill="#0072bc" stroke="#fff" stroke-miterlimit="10" stroke-width="0.5"/><rect x="992.32" y="315.71" width="112.16" height="23.37" fill="#0072bc" stroke="#fff" stroke-miterlimit="10" stroke-width="0.5"/><rect x="992.32" y="339.08" width="66.83" height="23.37" fill="#0072bc" stroke="#fff" stroke-miterlimit="10" stroke-width="0.5"/><rect x="1217.21" y="265.86" width="26.2" height="96.58" fill="#0072bc"/><rect x="1243.41" y="284.19" width="26.2" height="78.26" fill="#0072bc"/><rect x="1285.34" y="194.21" width="26.2" height="168.23" fill="#0072bc"/><rect x="1311.54" y="223.44" width="26.2" height="139" fill="#0072bc"/><rect x="1353.47" y="236.66" width="26.2" height="125.78" fill="#0072bc"/><rect x="1379.67" y="287.5" width="26.2" height="74.94" fill="#0072bc"/><rect x="1217.21" y="265.86" width="26.2" height="96.58" fill="#0072bc"/><rect x="1243.41" y="284.19" width="26.2" height="78.26" fill="#0072bc"/><rect x="1285.34" y="194.21" width="26.2" height="168.23" fill="#0072bc"/><rect x="1311.54" y="223.44" width="26.2" height="139" fill="#0072bc"/><rect x="1353.47" y="236.66" width="26.2" height="125.78" fill="#0072bc"/><rect x="1379.67" y="287.5" width="26.2" height="74.94" fill="#0072bc"/><rect x="1217.21" y="265.86" width="26.2" height="96.58" fill="none" stroke="#fff" stroke-miterlimit="10" stroke-width="0.5"/><rect x="1243.41" y="284.19" width="26.2" height="78.26" fill="none" stroke="#fff" stroke-miterlimit="10" stroke-width="0.5"/><rect x="1285.34" y="194.21" width="26.2" height="168.23" fill="none" stroke="#fff" stroke-miterlimit="10" stroke-width="0.5"/><rect x="1311.54" y="223.44" width="26.2" height="139" fill="none" stroke="#fff" stroke-miterlimit="10" stroke-width="0.5"/><rect x="1353.47" y="236.66" width="26.2" height="125.78" fill="none" stroke="#fff" stroke-miterlimit="10" stroke-width="0.5"/><rect x="1379.67" y="287.5" width="26.2" height="74.94" fill="none" stroke="#fff" stroke-miterlimit="10" stroke-width="0.5"/><rect x="1543.92" y="194.21" width="41.07" height="46.73" fill="#0072bc"/><rect x="1480.75" y="194.21" width="63.18" height="46.73" fill="#0072bc"/><rect x="1577.36" y="254.96" width="53.41" height="46.73" fill="#0072bc"/><rect x="1480.75" y="254.96" width="96.61" height="46.73" fill="#0072bc"/><rect x="1562.14" y="315.71" width="30.77" height="46.73" fill="#0072bc"/><rect x="1480.75" y="315.71" width="81.39" height="46.73" fill="#0072bc"/><rect x="1543.92" y="194.21" width="41.07" height="46.73" fill="#0072bc"/><rect x="1480.75" y="194.21" width="63.18" height="46.73" fill="#0072bc"/><rect x="1577.36" y="254.96" width="53.41" height="46.73" fill="#0072bc"/><rect x="1480.75" y="254.96" width="96.61" height="46.73" fill="#0072bc"/><rect x="1562.14" y="315.71" width="30.77" height="46.73" fill="#0072bc"/><rect x="1480.75" y="315.71" width="81.39" height="46.73" fill="#0072bc"/><rect x="1543.92" y="194.21" width="41.07" height="46.73" fill="none" stroke="#fff" stroke-miterlimit="10" stroke-width="0.5"/><rect x="1480.75" y="194.21" width="63.18" height="46.73" fill="none" stroke="#fff" stroke-miterlimit="10" stroke-width="0.5"/><rect x="1577.36" y="254.96" width="53.41" height="46.73" fill="none" stroke="#fff" stroke-miterlimit="10" stroke-width="0.5"/><rect x="1480.75" y="254.96" width="96.61" height="46.73" fill="none" stroke="#fff" stroke-miterlimit="10" stroke-width="0.5"/><rect x="1562.14" y="315.71" width="30.77" height="46.73" fill="none" stroke="#fff" stroke-miterlimit="10" stroke-width="0.5"/><rect x="1480.75" y="315.71" width="81.39" height="46.73" fill="none" stroke="#fff" stroke-miterlimit="10" stroke-width="0.5"/><rect x="1705.64" y="245.53" width="52.41" height="41.96" fill="#0072bc"/><rect x="1705.64" y="287.5" width="52.41" height="74.94" fill="#0072bc"/><rect x="1773.77" y="194.21" width="52.41" height="52.41" fill="#0072bc"/><rect x="1773.77" y="246.62" width="52.41" height="115.83" fill="#0072bc"/><rect x="1841.9" y="236.66" width="52.41" height="47.52" fill="#0072bc"/><rect x="1841.9" y="284.19" width="52.41" height="78.26" fill="#0072bc"/><rect x="1705.64" y="245.53" width="52.41" height="41.96" fill="#0072bc"/><rect x="1705.64" y="287.5" width="52.41" height="74.94" fill="#0072bc"/><rect x="1773.77" y="194.21" width="52.41" height="52.41" fill="#0072bc"/><rect x="1773.77" y="246.62" width="52.41" height="115.83" fill="#0072bc"/><rect x="1841.9" y="236.66" width="52.41" height="47.52" fill="#0072bc"/><rect x="1841.9" y="284.19" width="52.41" height="78.26" fill="#0072bc"/><rect x="1705.64" y="245.53" width="52.41" height="41.96" fill="none" stroke="#fff" stroke-miterlimit="10" stroke-width="0.5"/><rect x="1705.64" y="287.5" width="52.41" height="74.94" fill="none" stroke="#fff" stroke-miterlimit="10" stroke-width="0.5"/><rect x="1773.77" y="194.21" width="52.41" height="52.41" fill="none" stroke="#fff" stroke-miterlimit="10" stroke-width="0.5"/><rect x="1773.77" y="246.62" width="52.41" height="115.83" fill="none" stroke="#fff" stroke-miterlimit="10" stroke-width="0.5"/><rect x="1841.9" y="236.66" width="52.41" height="47.52" fill="none" stroke="#fff" stroke-miterlimit="10" stroke-width="0.5"/><rect x="1841.9" y="284.19" width="52.41" height="78.26" fill="none" stroke="#fff" stroke-miterlimit="10" stroke-width="0.5"/><path d="M540.71,398.41V385.74h5.64c2.2,0,3.55,1.33,3.55,3.23a2.88,2.88,0,0,1-2.22,2.9,3.17,3.17,0,0,1,2.47,3.12c0,2-1.35,3.42-3.67,3.42Zm7.56-9.22a2,2,0,0,0-2.19-2.05h-3.8v4.09h3.8A2,2,0,0,0,548.27,389.19Zm.24,5.63a2.15,2.15,0,0,0-2.35-2.19h-3.88V397h3.88A2.09,2.09,0,0,0,548.51,394.82Z" fill="#404041"/><path d="M558.33,398.41v-1.05a4,4,0,0,1-3,1.28,3.06,3.06,0,0,1-3.21-3,3,3,0,0,1,3.21-3,3.81,3.81,0,0,1,3,1.25v-1.65c0-1.24-1-1.94-2.32-1.94a3.66,3.66,0,0,0-2.81,1.27l-.66-1A4.81,4.81,0,0,1,556.2,389c1.94,0,3.56.88,3.56,3.1v6.31Zm0-1.94v-1.73a3.07,3.07,0,0,0-2.52-1.14,2,2,0,1,0,0,4A3.07,3.07,0,0,0,558.33,396.47Z" fill="#404041"/><path d="M562.6,398.41v-9.18H564v1.48a3.89,3.89,0,0,1,3.06-1.67v1.46a3.1,3.1,0,0,0-.57-.05,3.35,3.35,0,0,0-2.49,1.46v6.5Z" fill="#404041"/><path d="M573.24,393.81a4.53,4.53,0,0,1,4.58-4.81,3.93,3.93,0,0,1,3.36,1.6l-.95.87a2.74,2.74,0,0,0-2.34-1.19c-1.95,0-3.17,1.5-3.17,3.53s1.22,3.55,3.17,3.55a2.79,2.79,0,0,0,2.34-1.19l.95.87a3.93,3.93,0,0,1-3.36,1.6A4.54,4.54,0,0,1,573.24,393.81Z" fill="#404041"/><path d="M589.38,398.41v-6c0-1.62-.83-2.09-2.07-2.09a3.59,3.59,0,0,0-2.71,1.42v6.71h-1.43V385.74h1.43v4.82a4.55,4.55,0,0,1,3.28-1.56,2.58,2.58,0,0,1,2.93,2.93v6.48Z" fill="#404041"/><path d="M599.39,398.41v-1.05a4,4,0,0,1-3,1.28,3.06,3.06,0,0,1-3.21-3,3,3,0,0,1,3.21-3,3.81,3.81,0,0,1,3,1.25v-1.65c0-1.24-1-1.94-2.32-1.94a3.66,3.66,0,0,0-2.81,1.27l-.66-1a4.81,4.81,0,0,1,3.66-1.52c1.94,0,3.56.88,3.56,3.1v6.31Zm0-1.94v-1.73a3.07,3.07,0,0,0-2.52-1.14,2,2,0,1,0,0,4A3.07,3.07,0,0,0,599.39,396.47Z" fill="#404041"/><path d="M603.66,398.41v-9.18h1.43v1.48a3.89,3.89,0,0,1,3.06-1.67v1.46a3.1,3.1,0,0,0-.57-.05,3.35,3.35,0,0,0-2.49,1.46v6.5Z" fill="#404041"/><path d="M610.22,396.49v-6H608.7v-1.26h1.52v-2.51h1.42v2.51h1.86v1.26h-1.86v5.69c0,.69.3,1.18.93,1.18a1.37,1.37,0,0,0,1-.38l.42,1.07a2.35,2.35,0,0,1-1.71.59A1.88,1.88,0,0,1,610.22,396.49Z" fill="#404041"/><path d="M772.05,392.31a6.34,6.34,0,0,1,6.51-6.56,5.68,5.68,0,0,1,4.81,2.51L782,389a4.28,4.28,0,0,0-3.48-1.84,5.16,5.16,0,0,0,0,10.3,4.21,4.21,0,0,0,3.48-1.85l1.35.74a5.71,5.71,0,0,1-4.83,2.51A6.34,6.34,0,0,1,772.05,392.31Z" fill="#404041"/><path d="M784.81,394a4.55,4.55,0,1,1,4.54,4.82A4.51,4.51,0,0,1,784.81,394Zm7.58,0c0-1.87-1.08-3.54-3-3.54s-3.06,1.67-3.06,3.54,1.11,3.55,3.06,3.55S792.39,395.92,792.39,394Z" fill="#404041"/><path d="M796.21,398.63V386h1.42v12.67Z" fill="#404041"/><path d="M806.67,398.63v-1.29a4.47,4.47,0,0,1-3.26,1.52c-1.92,0-2.93-.93-2.93-2.92v-6.48h1.42v6c0,1.61.82,2.09,2.06,2.09a3.5,3.5,0,0,0,2.71-1.39v-6.74h1.43v9.17Z" fill="#404041"/><path d="M822,398.63V392.4c0-1.16-.51-1.9-1.69-1.9a3.21,3.21,0,0,0-2.43,1.41v6.72h-1.43V392.4c0-1.16-.49-1.9-1.69-1.9a3.2,3.2,0,0,0-2.41,1.43v6.7h-1.43v-9.17h1.43v1.33a4,4,0,0,1,3-1.56,2.35,2.35,0,0,1,2.47,1.71,3.87,3.87,0,0,1,3.08-1.71c1.67,0,2.56.93,2.56,2.77v6.63Z" fill="#404041"/><path d="M832.48,398.63v-6c0-1.61-.81-2.13-2.05-2.13a3.57,3.57,0,0,0-2.72,1.43v6.7h-1.42v-9.17h1.42v1.33a4.56,4.56,0,0,1,3.27-1.56c1.92,0,2.93,1,2.93,3v6.44Z" fill="#404041"/><path d="M841.12,394a4.53,4.53,0,0,1,4.58-4.81,3.9,3.9,0,0,1,3.36,1.6l-.95.87a2.69,2.69,0,0,0-2.33-1.2c-2,0-3.18,1.5-3.18,3.54s1.22,3.55,3.18,3.55a2.74,2.74,0,0,0,2.33-1.2l.95.88a3.92,3.92,0,0,1-3.36,1.59A4.54,4.54,0,0,1,841.12,394Z" fill="#404041"/><path d="M857.27,398.63v-6c0-1.61-.84-2.09-2.07-2.09a3.61,3.61,0,0,0-2.72,1.43v6.7h-1.42V386h1.42v4.83a4.57,4.57,0,0,1,3.29-1.56c1.92,0,2.92.93,2.92,2.93v6.47Z" fill="#404041"/><path d="M867.28,398.63v-1a4,4,0,0,1-3,1.27,3.05,3.05,0,0,1-3.21-3,3,3,0,0,1,3.21-3,3.84,3.84,0,0,1,3,1.26V392.4c0-1.23-1-1.94-2.32-1.94a3.62,3.62,0,0,0-2.81,1.28l-.67-1a4.8,4.8,0,0,1,3.67-1.52c1.94,0,3.55.87,3.55,3.1v6.3Zm0-1.93V395a3.09,3.09,0,0,0-2.53-1.14,2,2,0,1,0,0,4A3.09,3.09,0,0,0,867.28,396.7Z" fill="#404041"/><path d="M871.55,398.63v-9.17H873v1.48a3.9,3.9,0,0,1,3.06-1.67v1.46a2.37,2.37,0,0,0-.57-.06,3.38,3.38,0,0,0-2.49,1.47v6.49Z" fill="#404041"/><path d="M878.1,396.71v-6h-1.52v-1.25h1.52V387h1.42v2.51h1.87v1.25h-1.87v5.7c0,.69.31,1.18.94,1.18a1.36,1.36,0,0,0,1-.38l.42,1.06a2.33,2.33,0,0,1-1.71.59A1.88,1.88,0,0,1,878.1,396.71Z" fill="#404041"/><path d="M986.9,392.08a6.33,6.33,0,0,1,6.51-6.55,6,6,0,0,1,4.92,2.37l-1.25.78a4.67,4.67,0,0,0-3.67-1.75,5.17,5.17,0,0,0,0,10.32,5,5,0,0,0,3.4-1.37V393.3h-4.35v-1.41h5.93v4.58a6.61,6.61,0,0,1-5,2.18A6.35,6.35,0,0,1,986.9,392.08Z" fill="#404041"/><path d="M1000.89,398.41v-9.18h1.43v1.48a3.89,3.89,0,0,1,3.06-1.67v1.46a3.1,3.1,0,0,0-.57-.05,3.35,3.35,0,0,0-2.49,1.46v6.5Z" fill="#404041"/><path d="M1006.63,393.81a4.55,4.55,0,1,1,4.54,4.83A4.51,4.51,0,0,1,1006.63,393.81Zm7.58,0c0-1.86-1.08-3.53-3-3.53s-3.06,1.67-3.06,3.53,1.1,3.55,3.06,3.55S1014.21,395.69,1014.21,393.81Z" fill="#404041"/><path d="M1024.22,398.41v-1.29a4.51,4.51,0,0,1-3.27,1.52c-1.92,0-2.92-.94-2.92-2.93v-6.48h1.42v6c0,1.62.82,2.09,2,2.09a3.51,3.51,0,0,0,2.72-1.38v-6.75h1.42v9.18Z" fill="#404041"/><path d="M1029.91,397v4.88h-1.42V389.23h1.42v1.37a3.86,3.86,0,0,1,3.1-1.6c2.41,0,4.08,1.83,4.08,4.81s-1.67,4.83-4.08,4.83A3.78,3.78,0,0,1,1029.91,397Zm5.68-3.21c0-2-1.1-3.53-2.94-3.53a3.4,3.4,0,0,0-2.74,1.46v4.14a3.42,3.42,0,0,0,2.74,1.48C1034.49,397.36,1035.59,395.84,1035.59,393.81Z" fill="#404041"/><path d="M1038.82,393.81a4.59,4.59,0,0,1,4.52-4.81c2.78,0,4.41,2.17,4.41,4.92v.36h-7.43a3.24,3.24,0,0,0,3.31,3.18,4,4,0,0,0,2.83-1.16l.68.93a5,5,0,0,1-3.65,1.41A4.55,4.55,0,0,1,1038.82,393.81Zm4.5-3.63a3.07,3.07,0,0,0-3,3.06h6A3,3,0,0,0,1043.32,390.18Z" fill="#404041"/><path d="M1056.69,398.41V397a3.85,3.85,0,0,1-3.09,1.6c-2.4,0-4.09-1.83-4.09-4.81s1.67-4.83,4.09-4.83a3.83,3.83,0,0,1,3.09,1.62v-4.88h1.43v12.67Zm0-2.49v-4.16a3.42,3.42,0,0,0-2.75-1.48c-1.84,0-2.94,1.52-2.94,3.55s1.1,3.53,2.94,3.53A3.39,3.39,0,0,0,1056.69,395.92Z" fill="#404041"/><path d="M1065.87,398.41V385.74h1.42v4.88a3.8,3.8,0,0,1,3.1-1.62c2.39,0,4.08,1.9,4.08,4.83s-1.69,4.81-4.08,4.81a3.86,3.86,0,0,1-3.1-1.6v1.37Zm4.16-1.05c1.86,0,3-1.5,3-3.53s-1.1-3.55-3-3.55a3.39,3.39,0,0,0-2.74,1.48v4.16A3.36,3.36,0,0,0,1070,397.36Z" fill="#404041"/><path d="M1082.52,398.41v-1.05a4,4,0,0,1-3,1.28,3.06,3.06,0,0,1-3.21-3,3,3,0,0,1,3.21-3,3.81,3.81,0,0,1,3,1.25v-1.65c0-1.24-1-1.94-2.31-1.94a3.66,3.66,0,0,0-2.82,1.27l-.66-1a4.82,4.82,0,0,1,3.67-1.52c1.93,0,3.55.88,3.55,3.1v6.31Zm0-1.94v-1.73a3.07,3.07,0,0,0-2.52-1.14,2,2,0,1,0,0,4A3.07,3.07,0,0,0,1082.52,396.47Z" fill="#404041"/><path d="M1086.79,398.41v-9.18h1.43v1.48a3.89,3.89,0,0,1,3.06-1.67v1.46a3.1,3.1,0,0,0-.57-.05,3.35,3.35,0,0,0-2.49,1.46v6.5Z" fill="#404041"/><path d="M1097.43,393.81A4.53,4.53,0,0,1,1102,389a3.93,3.93,0,0,1,3.36,1.6l-.95.87a2.74,2.74,0,0,0-2.34-1.19c-1.95,0-3.17,1.5-3.17,3.53s1.22,3.55,3.17,3.55a2.79,2.79,0,0,0,2.34-1.19l.95.87a3.93,3.93,0,0,1-3.36,1.6A4.54,4.54,0,0,1,1097.43,393.81Z" fill="#404041"/><path d="M1113.57,398.41v-6c0-1.62-.83-2.09-2.07-2.09a3.59,3.59,0,0,0-2.71,1.42v6.71h-1.43V385.74h1.43v4.82a4.55,4.55,0,0,1,3.28-1.56,2.58,2.58,0,0,1,2.93,2.93v6.48Z" fill="#404041"/><path d="M1123.58,398.41v-1.05a4,4,0,0,1-3,1.28,3.06,3.06,0,0,1-3.21-3,3,3,0,0,1,3.21-3,3.81,3.81,0,0,1,3,1.25v-1.65c0-1.24-1-1.94-2.31-1.94a3.66,3.66,0,0,0-2.82,1.27l-.66-1a4.82,4.82,0,0,1,3.67-1.52c1.93,0,3.55.88,3.55,3.1v6.31Zm0-1.94v-1.73a3.07,3.07,0,0,0-2.52-1.14,2,2,0,1,0,0,4A3.07,3.07,0,0,0,1123.58,396.47Z" fill="#404041"/><path d="M1127.85,398.41v-9.18h1.43v1.48a3.89,3.89,0,0,1,3.06-1.67v1.46a3.1,3.1,0,0,0-.57-.05,3.35,3.35,0,0,0-2.49,1.46v6.5Z" fill="#404041"/><path d="M1134.41,396.49v-6h-1.52v-1.26h1.52v-2.51h1.42v2.51h1.86v1.26h-1.86v5.69c0,.69.31,1.18.93,1.18a1.37,1.37,0,0,0,1-.38l.42,1.07a2.33,2.33,0,0,1-1.71.59A1.88,1.88,0,0,1,1134.41,396.49Z" fill="#404041"/><path d="M1218.18,392.08a6.33,6.33,0,0,1,6.51-6.55,6.06,6.06,0,0,1,4.92,2.37l-1.25.78a4.67,4.67,0,0,0-3.67-1.75,5.17,5.17,0,0,0,0,10.32,5,5,0,0,0,3.4-1.37V393.3h-4.35v-1.41h5.93v4.58a6.61,6.61,0,0,1-5,2.18A6.35,6.35,0,0,1,1218.18,392.08Z" fill="#404041"/><path d="M1232.17,398.41v-9.18h1.43v1.48a3.89,3.89,0,0,1,3.06-1.67v1.46a3.1,3.1,0,0,0-.57-.05,3.35,3.35,0,0,0-2.49,1.46v6.5Z" fill="#404041"/><path d="M1237.91,393.81a4.55,4.55,0,1,1,4.54,4.83A4.51,4.51,0,0,1,1237.91,393.81Zm7.58,0c0-1.86-1.08-3.53-3-3.53s-3.06,1.67-3.06,3.53,1.1,3.55,3.06,3.55S1245.49,395.69,1245.49,393.81Z" fill="#404041"/><path d="M1255.5,398.41v-1.29a4.53,4.53,0,0,1-3.27,1.52,2.59,2.59,0,0,1-2.93-2.93v-6.48h1.43v6c0,1.62.82,2.09,2,2.09a3.51,3.51,0,0,0,2.72-1.38v-6.75h1.42v9.18Z" fill="#404041"/><path d="M1261.19,397v4.88h-1.42V389.23h1.42v1.37a3.86,3.86,0,0,1,3.1-1.6c2.41,0,4.08,1.83,4.08,4.81s-1.67,4.83-4.08,4.83A3.76,3.76,0,0,1,1261.19,397Zm5.68-3.21c0-2-1.1-3.53-2.94-3.53a3.4,3.4,0,0,0-2.74,1.46v4.14a3.42,3.42,0,0,0,2.74,1.48C1265.77,397.36,1266.87,395.84,1266.87,393.81Z" fill="#404041"/><path d="M1270.1,393.81a4.59,4.59,0,0,1,4.52-4.81c2.77,0,4.41,2.17,4.41,4.92v.36h-7.43a3.24,3.24,0,0,0,3.31,3.18,4,4,0,0,0,2.83-1.16l.68.93a5,5,0,0,1-3.65,1.41A4.55,4.55,0,0,1,1270.1,393.81Zm4.5-3.63a3.07,3.07,0,0,0-3,3.06h6A3,3,0,0,0,1274.6,390.18Z" fill="#404041"/><path d="M1288,398.41V397a3.85,3.85,0,0,1-3.09,1.6c-2.4,0-4.09-1.83-4.09-4.81s1.67-4.83,4.09-4.83a3.83,3.83,0,0,1,3.09,1.62v-4.88h1.43v12.67Zm0-2.49v-4.16a3.42,3.42,0,0,0-2.75-1.48c-1.84,0-3,1.52-3,3.55s1.11,3.53,3,3.53A3.39,3.39,0,0,0,1288,395.92Z" fill="#404041"/><path d="M1296.61,393.81a4.54,4.54,0,0,1,4.58-4.81,3.93,3.93,0,0,1,3.36,1.6l-1,.87a2.71,2.71,0,0,0-2.33-1.19c-2,0-3.18,1.5-3.18,3.53s1.22,3.55,3.18,3.55a2.76,2.76,0,0,0,2.33-1.19l1,.87a3.93,3.93,0,0,1-3.36,1.6A4.54,4.54,0,0,1,1296.61,393.81Z" fill="#404041"/><path d="M1306,393.81a4.55,4.55,0,1,1,4.54,4.83A4.51,4.51,0,0,1,1306,393.81Zm7.58,0c0-1.86-1.08-3.53-3-3.53s-3,1.67-3,3.53,1.1,3.55,3,3.55S1313.59,395.69,1313.59,393.81Z" fill="#404041"/><path d="M1317.41,398.41V385.74h1.42v12.67Z" fill="#404041"/><path d="M1327.88,398.41v-1.29a4.55,4.55,0,0,1-3.27,1.52,2.59,2.59,0,0,1-2.93-2.93v-6.48h1.43v6c0,1.62.81,2.09,2.05,2.09a3.53,3.53,0,0,0,2.72-1.38v-6.75h1.42v9.18Z" fill="#404041"/><path d="M1343.22,398.41v-6.23c0-1.16-.51-1.9-1.69-1.9a3.2,3.2,0,0,0-2.43,1.4v6.73h-1.43v-6.23c0-1.16-.49-1.9-1.69-1.9a3.21,3.21,0,0,0-2.41,1.42v6.71h-1.42v-9.18h1.42v1.33a4,4,0,0,1,3-1.56,2.34,2.34,0,0,1,2.46,1.71,3.89,3.89,0,0,1,3.08-1.71c1.67,0,2.57.93,2.57,2.78v6.63Z" fill="#404041"/><path d="M1353.69,398.41v-6c0-1.61-.82-2.12-2.06-2.12a3.53,3.53,0,0,0-2.71,1.42v6.71h-1.43v-9.18h1.43v1.33a4.54,4.54,0,0,1,3.26-1.56c1.92,0,2.93,1,2.93,3v6.44Z" fill="#404041"/><path d="M1362.32,393.81a4.54,4.54,0,0,1,4.58-4.81,4,4,0,0,1,3.37,1.6l-1,.87a2.74,2.74,0,0,0-2.34-1.19c-2,0-3.17,1.5-3.17,3.53s1.21,3.55,3.17,3.55a2.79,2.79,0,0,0,2.34-1.19l1,.87a4,4,0,0,1-3.37,1.6A4.54,4.54,0,0,1,1362.32,393.81Z" fill="#404041"/><path d="M1378.47,398.41v-6c0-1.62-.84-2.09-2.07-2.09a3.61,3.61,0,0,0-2.72,1.42v6.71h-1.42V385.74h1.42v4.82A4.57,4.57,0,0,1,1377,389c1.92,0,2.92.93,2.92,2.93v6.48Z" fill="#404041"/><path d="M1388.48,398.41v-1.05a4,4,0,0,1-3,1.28,3.06,3.06,0,0,1-3.21-3,3,3,0,0,1,3.21-3,3.82,3.82,0,0,1,3,1.25v-1.65c0-1.24-1-1.94-2.32-1.94a3.66,3.66,0,0,0-2.81,1.27l-.67-1a4.84,4.84,0,0,1,3.67-1.52c1.94,0,3.55.88,3.55,3.1v6.31Zm0-1.94v-1.73a3.07,3.07,0,0,0-2.53-1.14,2,2,0,1,0,0,4A3.07,3.07,0,0,0,1388.48,396.47Z" fill="#404041"/><path d="M1392.75,398.41v-9.18h1.42v1.48a3.92,3.92,0,0,1,3.06-1.67v1.46a3.1,3.1,0,0,0-.57-.05,3.37,3.37,0,0,0-2.49,1.46v6.5Z" fill="#404041"/><path d="M1399.3,396.49v-6h-1.52v-1.26h1.52v-2.51h1.43v2.51h1.86v1.26h-1.86v5.69c0,.69.3,1.18.93,1.18a1.37,1.37,0,0,0,1-.38l.41,1.07a2.33,2.33,0,0,1-1.71.59A1.88,1.88,0,0,1,1399.3,396.49Z" fill="#404041"/><path d="M1484,396.62l.93-1.2a5.35,5.35,0,0,0,4,1.81c2.26,0,3-1.22,3-2.19,0-1.52-1.54-1.93-3.21-2.39-2-.53-4.3-1.1-4.3-3.59,0-2.09,1.86-3.51,4.35-3.51a6,6,0,0,1,4.51,1.76l-1,1.16a4.83,4.83,0,0,0-3.66-1.52c-1.52,0-2.6.82-2.6,2s1.46,1.65,3.07,2.09c2.07.55,4.43,1.19,4.43,3.85,0,1.84-1.25,3.73-4.67,3.73A6.28,6.28,0,0,1,1484,396.62Z" fill="#404041"/><path d="M1496.11,396.49v-6h-1.52v-1.26h1.52v-2.51h1.43v2.51h1.86v1.26h-1.86v5.69c0,.69.3,1.18.93,1.18a1.35,1.35,0,0,0,1-.38l.42,1.07a2.33,2.33,0,0,1-1.71.59A1.88,1.88,0,0,1,1496.11,396.49Z" fill="#404041"/><path d="M1507.15,398.41v-1.05a4,4,0,0,1-3,1.28,3.06,3.06,0,0,1-3.21-3,3,3,0,0,1,3.21-3,3.82,3.82,0,0,1,3,1.25v-1.65c0-1.24-1-1.94-2.32-1.94a3.64,3.64,0,0,0-2.81,1.27l-.67-1A4.84,4.84,0,0,1,1505,389c1.94,0,3.55.88,3.55,3.1v6.31Zm0-1.94v-1.73a3.07,3.07,0,0,0-2.53-1.14,2,2,0,1,0,0,4A3.07,3.07,0,0,0,1507.15,396.47Z" fill="#404041"/><path d="M1510.89,393.81a4.53,4.53,0,0,1,4.57-4.81,4,4,0,0,1,3.37,1.6l-.95.87a2.74,2.74,0,0,0-2.34-1.19c-2,0-3.17,1.5-3.17,3.53s1.21,3.55,3.17,3.55a2.79,2.79,0,0,0,2.34-1.19l.95.87a4,4,0,0,1-3.37,1.6A4.54,4.54,0,0,1,1510.89,393.81Z" fill="#404041"/><path d="M1527.07,398.41l-3.31-4.13-1.52,1.51v2.62h-1.42V385.74h1.42v8.37l4.83-4.88h1.8l-4.06,4.16,4.08,5Z" fill="#404041"/><path d="M1530,393.81a4.59,4.59,0,0,1,4.52-4.81c2.78,0,4.41,2.17,4.41,4.92v.36h-7.43a3.24,3.24,0,0,0,3.31,3.18,4,4,0,0,0,2.83-1.16l.68.93a5,5,0,0,1-3.64,1.41A4.56,4.56,0,0,1,1530,393.81Zm4.5-3.63a3.07,3.07,0,0,0-3,3.06h6A3,3,0,0,0,1534.49,390.18Z" fill="#404041"/><path d="M1547.87,398.41V397a3.89,3.89,0,0,1-3.1,1.6c-2.39,0-4.09-1.83-4.09-4.81s1.68-4.83,4.09-4.83a3.86,3.86,0,0,1,3.1,1.62v-4.88h1.42v12.67Zm0-2.49v-4.16a3.46,3.46,0,0,0-2.76-1.48c-1.84,0-2.94,1.52-2.94,3.55s1.1,3.53,2.94,3.53A3.42,3.42,0,0,0,1547.87,395.92Z" fill="#404041"/><path d="M1557,398.41V385.74h1.42v4.88a3.8,3.8,0,0,1,3.1-1.62c2.39,0,4.08,1.9,4.08,4.83s-1.69,4.81-4.08,4.81a3.87,3.87,0,0,1-3.1-1.6v1.37Zm4.16-1.05c1.86,0,3-1.5,3-3.53s-1.1-3.55-3-3.55a3.42,3.42,0,0,0-2.74,1.48v4.16A3.39,3.39,0,0,0,1561.2,397.36Z" fill="#404041"/><path d="M1573.69,398.41v-1.05a4,4,0,0,1-3,1.28,3.06,3.06,0,0,1-3.21-3,3,3,0,0,1,3.21-3,3.81,3.81,0,0,1,3,1.25v-1.65c0-1.24-1-1.94-2.31-1.94a3.66,3.66,0,0,0-2.82,1.27l-.66-1a4.84,4.84,0,0,1,3.67-1.52c1.93,0,3.55.88,3.55,3.1v6.31Zm0-1.94v-1.73a3.07,3.07,0,0,0-2.52-1.14,2,2,0,1,0,0,4A3.07,3.07,0,0,0,1573.69,396.47Z" fill="#404041"/><path d="M1578,398.41v-9.18h1.43v1.48a3.89,3.89,0,0,1,3.06-1.67v1.46a3.1,3.1,0,0,0-.57-.05,3.35,3.35,0,0,0-2.49,1.46v6.5Z" fill="#404041"/><path d="M1588.6,393.81a4.53,4.53,0,0,1,4.58-4.81,3.93,3.93,0,0,1,3.36,1.6l-1,.87a2.74,2.74,0,0,0-2.34-1.19c-2,0-3.17,1.5-3.17,3.53s1.22,3.55,3.17,3.55a2.79,2.79,0,0,0,2.34-1.19l1,.87a3.93,3.93,0,0,1-3.36,1.6A4.54,4.54,0,0,1,1588.6,393.81Z" fill="#404041"/><path d="M1604.75,398.41v-6c0-1.62-.84-2.09-2.08-2.09a3.59,3.59,0,0,0-2.71,1.42v6.71h-1.43V385.74H1600v4.82a4.55,4.55,0,0,1,3.28-1.56,2.58,2.58,0,0,1,2.93,2.93v6.48Z" fill="#404041"/><path d="M1614.75,398.41v-1.05a4,4,0,0,1-3,1.28,3.06,3.06,0,0,1-3.21-3,3,3,0,0,1,3.21-3,3.81,3.81,0,0,1,3,1.25v-1.65c0-1.24-1-1.94-2.31-1.94a3.66,3.66,0,0,0-2.82,1.27l-.66-1a4.82,4.82,0,0,1,3.67-1.52c1.93,0,3.55.88,3.55,3.1v6.31Zm0-1.94v-1.73a3.07,3.07,0,0,0-2.52-1.14,2,2,0,1,0,0,4A3.07,3.07,0,0,0,1614.75,396.47Z" fill="#404041"/><path d="M1619,398.41v-9.18h1.42v1.48a3.89,3.89,0,0,1,3.06-1.67v1.46a3.1,3.1,0,0,0-.57-.05,3.35,3.35,0,0,0-2.49,1.46v6.5Z" fill="#404041"/><path d="M1625.58,396.49v-6h-1.52v-1.26h1.52v-2.51H1627v2.51h1.86v1.26H1627v5.69c0,.69.31,1.18.93,1.18a1.37,1.37,0,0,0,1-.38l.42,1.07a2.33,2.33,0,0,1-1.71.59A1.88,1.88,0,0,1,1625.58,396.49Z" fill="#404041"/><path d="M1709.24,396.62l.93-1.2a5.35,5.35,0,0,0,4,1.81c2.26,0,3-1.22,3-2.19,0-1.52-1.53-1.93-3.21-2.39-2-.53-4.29-1.1-4.29-3.59,0-2.09,1.86-3.51,4.35-3.51a5.94,5.94,0,0,1,4.5,1.76l-1,1.16a4.86,4.86,0,0,0-3.66-1.52c-1.52,0-2.61.82-2.61,2s1.47,1.65,3.08,2.09c2.07.55,4.43,1.19,4.43,3.85,0,1.84-1.26,3.73-4.68,3.73A6.28,6.28,0,0,1,1709.24,396.62Z" fill="#404041"/><path d="M1721.36,396.49v-6h-1.52v-1.26h1.52v-2.51h1.42v2.51h1.86v1.26h-1.86v5.69c0,.69.31,1.18.93,1.18a1.37,1.37,0,0,0,1-.38l.42,1.07a2.33,2.33,0,0,1-1.71.59A1.88,1.88,0,0,1,1721.36,396.49Z" fill="#404041"/><path d="M1732.39,398.41v-1.05a4,4,0,0,1-3,1.28,3.06,3.06,0,0,1-3.21-3,3,3,0,0,1,3.21-3,3.81,3.81,0,0,1,3,1.25v-1.65c0-1.24-1-1.94-2.31-1.94a3.66,3.66,0,0,0-2.82,1.27l-.66-1a4.84,4.84,0,0,1,3.67-1.52c1.93,0,3.55.88,3.55,3.1v6.31Zm0-1.94v-1.73a3.05,3.05,0,0,0-2.52-1.14,2,2,0,1,0,0,4A3.05,3.05,0,0,0,1732.39,396.47Z" fill="#404041"/><path d="M1736.13,393.81a4.54,4.54,0,0,1,4.58-4.81,4,4,0,0,1,3.37,1.6l-1,.87a2.71,2.71,0,0,0-2.33-1.19c-2,0-3.17,1.5-3.17,3.53s1.21,3.55,3.17,3.55a2.76,2.76,0,0,0,2.33-1.19l1,.87a4,4,0,0,1-3.37,1.6A4.54,4.54,0,0,1,1736.13,393.81Z" fill="#404041"/><path d="M1752.32,398.41l-3.31-4.13-1.52,1.51v2.62h-1.42V385.74h1.42v8.37l4.83-4.88h1.8l-4.06,4.16,4.08,5Z" fill="#404041"/><path d="M1755.24,393.81a4.59,4.59,0,0,1,4.52-4.81c2.77,0,4.41,2.17,4.41,4.92v.36h-7.43a3.24,3.24,0,0,0,3.31,3.18,4,4,0,0,0,2.83-1.16l.68.93a5,5,0,0,1-3.65,1.41A4.55,4.55,0,0,1,1755.24,393.81Zm4.5-3.63a3.07,3.07,0,0,0-3,3.06h6A3,3,0,0,0,1759.74,390.18Z" fill="#404041"/><path d="M1773.11,398.41V397a3.85,3.85,0,0,1-3.09,1.6c-2.4,0-4.09-1.83-4.09-4.81S1767.6,389,1770,389a3.83,3.83,0,0,1,3.09,1.62v-4.88h1.43v12.67Zm0-2.49v-4.16a3.42,3.42,0,0,0-2.75-1.48c-1.84,0-2.95,1.52-2.95,3.55s1.11,3.53,2.95,3.53A3.39,3.39,0,0,0,1773.11,395.92Z" fill="#404041"/><path d="M1781.75,393.81a4.53,4.53,0,0,1,4.58-4.81,3.93,3.93,0,0,1,3.36,1.6l-1,.87a2.71,2.71,0,0,0-2.33-1.19c-2,0-3.18,1.5-3.18,3.53s1.22,3.55,3.18,3.55a2.76,2.76,0,0,0,2.33-1.19l1,.87a3.93,3.93,0,0,1-3.36,1.6A4.54,4.54,0,0,1,1781.75,393.81Z" fill="#404041"/><path d="M1791.15,393.81a4.55,4.55,0,1,1,4.54,4.83A4.51,4.51,0,0,1,1791.15,393.81Zm7.58,0c0-1.86-1.08-3.53-3-3.53s-3,1.67-3,3.53,1.1,3.55,3,3.55S1798.73,395.69,1798.73,393.81Z" fill="#404041"/><path d="M1802.55,398.41V385.74H1804v12.67Z" fill="#404041"/><path d="M1813,398.41v-1.29a4.51,4.51,0,0,1-3.26,1.52,2.59,2.59,0,0,1-2.93-2.93v-6.48h1.43v6c0,1.62.81,2.09,2,2.09A3.49,3.49,0,0,0,1813,396v-6.75h1.43v9.18Z" fill="#404041"/><path d="M1828.36,398.41v-6.23c0-1.16-.51-1.9-1.69-1.9a3.2,3.2,0,0,0-2.43,1.4v6.73h-1.43v-6.23c0-1.16-.49-1.9-1.69-1.9a3.21,3.21,0,0,0-2.41,1.42v6.71h-1.42v-9.18h1.42v1.33a4,4,0,0,1,3-1.56,2.35,2.35,0,0,1,2.47,1.71,3.89,3.89,0,0,1,3.08-1.71c1.67,0,2.57.93,2.57,2.78v6.63Z" fill="#404041"/><path d="M1838.83,398.41v-6c0-1.61-.82-2.12-2.06-2.12a3.53,3.53,0,0,0-2.71,1.42v6.71h-1.43v-9.18h1.43v1.33a4.54,4.54,0,0,1,3.26-1.56c1.92,0,2.93,1,2.93,3v6.44Z" fill="#404041"/><path d="M1847.46,393.81A4.54,4.54,0,0,1,1852,389a4,4,0,0,1,3.37,1.6l-1,.87a2.74,2.74,0,0,0-2.34-1.19c-2,0-3.17,1.5-3.17,3.53s1.21,3.55,3.17,3.55a2.79,2.79,0,0,0,2.34-1.19l1,.87a4,4,0,0,1-3.37,1.6A4.54,4.54,0,0,1,1847.46,393.81Z" fill="#404041"/><path d="M1863.61,398.41v-6c0-1.62-.84-2.09-2.07-2.09a3.61,3.61,0,0,0-2.72,1.42v6.71h-1.42V385.74h1.42v4.82a4.57,4.57,0,0,1,3.29-1.56c1.92,0,2.92.93,2.92,2.93v6.48Z" fill="#404041"/><path d="M1873.62,398.41v-1.05a4,4,0,0,1-3,1.28,3.06,3.06,0,0,1-3.21-3,3,3,0,0,1,3.21-3,3.82,3.82,0,0,1,3,1.25v-1.65c0-1.24-1-1.94-2.32-1.94a3.64,3.64,0,0,0-2.81,1.27l-.67-1a4.84,4.84,0,0,1,3.67-1.52c1.94,0,3.55.88,3.55,3.1v6.31Zm0-1.94v-1.73a3.07,3.07,0,0,0-2.53-1.14,2,2,0,1,0,0,4A3.07,3.07,0,0,0,1873.62,396.47Z" fill="#404041"/><path d="M1877.89,398.41v-9.18h1.42v1.48a3.9,3.9,0,0,1,3.06-1.67v1.46a3.1,3.1,0,0,0-.57-.05,3.37,3.37,0,0,0-2.49,1.46v6.5Z" fill="#404041"/><path d="M1884.44,396.49v-6h-1.52v-1.26h1.52v-2.51h1.43v2.51h1.86v1.26h-1.86v5.69c0,.69.3,1.18.93,1.18a1.37,1.37,0,0,0,1-.38l.41,1.07a2.33,2.33,0,0,1-1.71.59A1.88,1.88,0,0,1,1884.44,396.49Z" fill="#404041"/><path d="M532.27,679.06l.94-1.2a5.33,5.33,0,0,0,4,1.8c2.27,0,3-1.21,3-2.18,0-1.52-1.54-1.94-3.21-2.39-2-.54-4.3-1.11-4.3-3.59,0-2.09,1.87-3.52,4.35-3.52a6,6,0,0,1,4.51,1.77l-.95,1.16a4.83,4.83,0,0,0-3.67-1.52c-1.52,0-2.6.81-2.6,2s1.46,1.65,3.07,2.09c2.08.55,4.43,1.2,4.43,3.86,0,1.84-1.25,3.72-4.67,3.72A6.31,6.31,0,0,1,532.27,679.06Z" fill="#404041"/><path d="M543.58,676.24a4.53,4.53,0,0,1,4.57-4.8,3.94,3.94,0,0,1,3.37,1.59l-.95.88a2.72,2.72,0,0,0-2.34-1.2c-2,0-3.17,1.5-3.17,3.53s1.21,3.56,3.17,3.56a2.77,2.77,0,0,0,2.34-1.2l.95.87a3.92,3.92,0,0,1-3.37,1.6A4.54,4.54,0,0,1,543.58,676.24Z" fill="#404041"/><path d="M559.25,680.84v-1a4,4,0,0,1-3,1.27,3.06,3.06,0,0,1-3.21-3,3,3,0,0,1,3.21-3,3.87,3.87,0,0,1,3,1.25v-1.65c0-1.23-1-1.94-2.32-1.94a3.62,3.62,0,0,0-2.81,1.28l-.67-1a4.8,4.8,0,0,1,3.67-1.52c1.94,0,3.55.87,3.55,3.09v6.31Zm0-1.94v-1.72a3.09,3.09,0,0,0-2.53-1.14,2,2,0,1,0,0,4A3.09,3.09,0,0,0,559.25,678.9Z" fill="#404041"/><path d="M563.8,678.92v-6h-1.52v-1.25h1.52v-2.51h1.43v2.51h1.86v1.25h-1.86v5.7c0,.68.3,1.18.93,1.18a1.37,1.37,0,0,0,1-.38l.41,1.06a2.33,2.33,0,0,1-1.71.59A1.88,1.88,0,0,1,563.8,678.92Z" fill="#404041"/><path d="M569.39,678.92v-6h-1.52v-1.25h1.52v-2.51h1.42v2.51h1.86v1.25h-1.86v5.7c0,.68.3,1.18.93,1.18a1.37,1.37,0,0,0,1-.38l.42,1.06a2.35,2.35,0,0,1-1.71.59A1.88,1.88,0,0,1,569.39,678.92Z" fill="#404041"/><path d="M574.15,676.24a4.58,4.58,0,0,1,4.52-4.8c2.78,0,4.41,2.16,4.41,4.92v.36h-7.43a3.24,3.24,0,0,0,3.31,3.17,4,4,0,0,0,2.83-1.16l.68.93a4.94,4.94,0,0,1-3.64,1.41A4.56,4.56,0,0,1,574.15,676.24Zm4.5-3.62a3.06,3.06,0,0,0-3,3h6A3,3,0,0,0,578.65,672.62Z" fill="#404041"/><path d="M585.38,680.84v-9.17h1.42v1.48a3.9,3.9,0,0,1,3.06-1.67v1.46a2.37,2.37,0,0,0-.57-.06,3.37,3.37,0,0,0-2.49,1.46v6.5Z" fill="#404041"/><path d="M593.07,679.46v4.88h-1.43V671.67h1.43V673a3.82,3.82,0,0,1,3.09-1.59c2.42,0,4.09,1.82,4.09,4.8s-1.67,4.83-4.09,4.83A3.76,3.76,0,0,1,593.07,679.46Zm5.68-3.22c0-2-1.1-3.53-3-3.53a3.4,3.4,0,0,0-2.73,1.46v4.14a3.39,3.39,0,0,0,2.73,1.49C597.65,679.8,598.75,678.28,598.75,676.24Z" fill="#404041"/><path d="M602.51,680.84V668.17h1.42v12.67Z" fill="#404041"/><path d="M606.25,676.24a4.55,4.55,0,1,1,4.54,4.83A4.5,4.5,0,0,1,606.25,676.24Zm7.58,0c0-1.86-1.09-3.53-3-3.53s-3.06,1.67-3.06,3.53,1.1,3.56,3.06,3.56S613.83,678.12,613.83,676.24Z" fill="#404041"/><path d="M617.93,678.92v-6h-1.52v-1.25h1.52v-2.51h1.42v2.51h1.86v1.25h-1.86v5.7c0,.68.31,1.18.93,1.18a1.37,1.37,0,0,0,1-.38l.42,1.06a2.33,2.33,0,0,1-1.71.59A1.88,1.88,0,0,1,617.93,678.92Z" fill="#404041"/><path d="M735.09,674.74a6.34,6.34,0,0,1,6.52-6.55,5.65,5.65,0,0,1,4.8,2.5l-1.33.75a4.26,4.26,0,0,0-3.47-1.85,5.16,5.16,0,0,0,0,10.3,4.22,4.22,0,0,0,3.47-1.84l1.35.74a5.73,5.73,0,0,1-4.82,2.51A6.34,6.34,0,0,1,735.09,674.74Z" fill="#404041"/><path d="M747.85,676.47a4.55,4.55,0,1,1,4.55,4.83A4.51,4.51,0,0,1,747.85,676.47Zm7.58,0c0-1.86-1.08-3.53-3-3.53s-3.06,1.67-3.06,3.53,1.1,3.55,3.06,3.55S755.43,678.35,755.43,676.47Z" fill="#404041"/><path d="M765.44,681.07v-6c0-1.61-.81-2.12-2.05-2.12a3.56,3.56,0,0,0-2.72,1.42v6.71h-1.42v-9.18h1.42v1.33a4.56,4.56,0,0,1,3.27-1.56c1.92,0,2.93,1,2.93,3v6.44Z" fill="#404041"/><path d="M775.91,681.07v-6c0-1.61-.82-2.12-2-2.12a3.55,3.55,0,0,0-2.72,1.42v6.71h-1.43v-9.18h1.43v1.33a4.56,4.56,0,0,1,3.27-1.56c1.92,0,2.92,1,2.92,3v6.44Z" fill="#404041"/><path d="M779.65,676.47a4.59,4.59,0,0,1,4.52-4.81c2.77,0,4.41,2.17,4.41,4.92v.36h-7.43a3.23,3.23,0,0,0,3.3,3.18,4,4,0,0,0,2.83-1.16l.69.93a5,5,0,0,1-3.65,1.41A4.55,4.55,0,0,1,779.65,676.47Zm4.5-3.63a3.05,3.05,0,0,0-3,3.06h6A3,3,0,0,0,784.15,672.84Z" fill="#404041"/><path d="M790.34,676.47a4.53,4.53,0,0,1,4.58-4.81,3.93,3.93,0,0,1,3.36,1.6l-.95.87a2.74,2.74,0,0,0-2.34-1.19c-2,0-3.17,1.5-3.17,3.53S793,680,795,680a2.79,2.79,0,0,0,2.34-1.19l.95.87a3.93,3.93,0,0,1-3.36,1.6A4.54,4.54,0,0,1,790.34,676.47Z" fill="#404041"/><path d="M800.56,679.15v-6H799v-1.26h1.52v-2.51H802v2.51h1.86v1.26H802v5.69c0,.69.31,1.18.93,1.18a1.37,1.37,0,0,0,1-.38l.42,1.07a2.33,2.33,0,0,1-1.71.59A1.88,1.88,0,0,1,800.56,679.15Z" fill="#404041"/><path d="M805.32,676.47a4.59,4.59,0,0,1,4.53-4.81c2.77,0,4.4,2.17,4.4,4.92v.36h-7.43a3.24,3.24,0,0,0,3.31,3.18A4,4,0,0,0,813,679l.69.93A5,5,0,0,1,810,681.3,4.56,4.56,0,0,1,805.32,676.47Zm4.51-3.63a3.07,3.07,0,0,0-3,3.06h6A3,3,0,0,0,809.83,672.84Z" fill="#404041"/><path d="M823.2,681.07V679.7a3.89,3.89,0,0,1-3.1,1.6c-2.39,0-4.08-1.83-4.08-4.81s1.67-4.83,4.08-4.83a3.83,3.83,0,0,1,3.1,1.62V668.4h1.42v12.67Zm0-2.49v-4.16a3.46,3.46,0,0,0-2.76-1.48c-1.84,0-2.94,1.52-2.94,3.55s1.1,3.53,2.94,3.53A3.42,3.42,0,0,0,823.2,678.58Z" fill="#404041"/><path d="M831.57,679.85l.74-1a4.18,4.18,0,0,0,3,1.31c1.41,0,2.17-.67,2.17-1.58s-1.12-1.27-2.36-1.58c-1.56-.36-3.32-.78-3.32-2.68,0-1.42,1.23-2.64,3.42-2.64a4.66,4.66,0,0,1,3.4,1.33l-.67,1a3.59,3.59,0,0,0-2.73-1.16c-1.26,0-2,.63-2,1.45s1,1.12,2.25,1.4c1.59.36,3.43.82,3.43,2.85,0,1.54-1.23,2.78-3.61,2.78A4.87,4.87,0,0,1,831.57,679.85Z" fill="#404041"/><path d="M840.67,676.47a4.53,4.53,0,0,1,4.58-4.81,3.93,3.93,0,0,1,3.36,1.6l-1,.87a2.74,2.74,0,0,0-2.34-1.19c-2,0-3.17,1.5-3.17,3.53s1.22,3.55,3.17,3.55a2.79,2.79,0,0,0,2.34-1.19l1,.87a3.93,3.93,0,0,1-3.36,1.6A4.54,4.54,0,0,1,840.67,676.47Z" fill="#404041"/><path d="M856.34,681.07V680a4,4,0,0,1-3,1.28,3.06,3.06,0,0,1-3.21-3,3,3,0,0,1,3.21-3,3.82,3.82,0,0,1,3,1.25v-1.65c0-1.24-1-1.94-2.32-1.94a3.66,3.66,0,0,0-2.81,1.27l-.67-1a4.84,4.84,0,0,1,3.67-1.52c1.94,0,3.55.88,3.55,3.1v6.31Zm0-1.94V677.4a3.07,3.07,0,0,0-2.53-1.14,2,2,0,1,0,0,4A3.07,3.07,0,0,0,856.34,679.13Z" fill="#404041"/><path d="M860.89,679.15v-6h-1.52v-1.26h1.52v-2.51h1.43v2.51h1.86v1.26h-1.86v5.69c0,.69.3,1.18.93,1.18a1.37,1.37,0,0,0,1-.38l.42,1.07a2.35,2.35,0,0,1-1.71.59A1.88,1.88,0,0,1,860.89,679.15Z" fill="#404041"/><path d="M866.48,679.15v-6H865v-1.26h1.52v-2.51h1.42v2.51h1.86v1.26H867.9v5.69c0,.69.31,1.18.93,1.18a1.37,1.37,0,0,0,1-.38l.42,1.07a2.33,2.33,0,0,1-1.71.59A1.88,1.88,0,0,1,866.48,679.15Z" fill="#404041"/><path d="M871.24,676.47a4.59,4.59,0,0,1,4.53-4.81c2.77,0,4.4,2.17,4.4,4.92v.36h-7.42a3.23,3.23,0,0,0,3.3,3.18,4,4,0,0,0,2.83-1.16l.69.93a5,5,0,0,1-3.65,1.41A4.56,4.56,0,0,1,871.24,676.47Zm4.51-3.63a3.05,3.05,0,0,0-3,3.06h6A3,3,0,0,0,875.75,672.84Z" fill="#404041"/><path d="M882.47,681.07v-9.18h1.42v1.48A3.9,3.9,0,0,1,887,671.7v1.46a3.1,3.1,0,0,0-.57,0,3.37,3.37,0,0,0-2.49,1.46v6.5Z" fill="#404041"/><path d="M890.16,679.68v4.88h-1.42V671.89h1.42v1.37a3.86,3.86,0,0,1,3.1-1.6c2.41,0,4.08,1.83,4.08,4.81s-1.67,4.83-4.08,4.83A3.75,3.75,0,0,1,890.16,679.68Zm5.68-3.21c0-2-1.1-3.53-2.94-3.53a3.39,3.39,0,0,0-2.74,1.46v4.14A3.41,3.41,0,0,0,892.9,680C894.74,680,895.84,678.5,895.84,676.47Z" fill="#404041"/><path d="M899.6,681.07V668.4H901v12.67Z" fill="#404041"/><path d="M903.34,676.47a4.55,4.55,0,1,1,4.54,4.83A4.51,4.51,0,0,1,903.34,676.47Zm7.58,0c0-1.86-1.08-3.53-3-3.53s-3.06,1.67-3.06,3.53,1.1,3.55,3.06,3.55S910.92,678.35,910.92,676.47Z" fill="#404041"/><path d="M915,679.15v-6H913.5v-1.26H915v-2.51h1.43v2.51h1.86v1.26h-1.86v5.69c0,.69.3,1.18.93,1.18a1.36,1.36,0,0,0,1-.38l.42,1.07a2.33,2.33,0,0,1-1.71.59A1.88,1.88,0,0,1,915,679.15Z" fill="#404041"/><path d="M1010.67,680.84V668.17h5.65c2.2,0,3.55,1.33,3.55,3.23a2.89,2.89,0,0,1-2.22,2.91,3.17,3.17,0,0,1,2.47,3.11c0,2-1.35,3.42-3.67,3.42Zm7.56-9.21a2,2,0,0,0-2.18-2h-3.8v4.08h3.8A2,2,0,0,0,1018.23,671.63Zm.25,5.62a2.15,2.15,0,0,0-2.36-2.18h-3.87v4.37h3.87A2.1,2.1,0,0,0,1018.48,677.25Z" fill="#404041"/><path d="M1028.76,680.84v-1.29a4.5,4.5,0,0,1-3.27,1.52,2.58,2.58,0,0,1-2.93-2.93v-6.47H1024v6c0,1.61.81,2.09,2,2.09a3.54,3.54,0,0,0,2.72-1.39v-6.74h1.42v9.17Z" fill="#404041"/><path d="M1033,680.84V668.17h1.42v4.88a3.82,3.82,0,0,1,3.1-1.61c2.39,0,4.08,1.9,4.08,4.82s-1.69,4.81-4.08,4.81a3.87,3.87,0,0,1-3.1-1.6v1.37Zm4.16-1c1.86,0,3-1.5,3-3.54s-1.1-3.55-3-3.55a3.45,3.45,0,0,0-2.74,1.48v4.16A3.39,3.39,0,0,0,1037.19,679.8Z" fill="#404041"/><path d="M1044,680.84V668.17h1.42v4.88a3.82,3.82,0,0,1,3.1-1.61c2.39,0,4.08,1.9,4.08,4.82s-1.69,4.81-4.08,4.81a3.89,3.89,0,0,1-3.1-1.6v1.37Zm4.16-1c1.86,0,3-1.5,3-3.54s-1.1-3.55-3-3.55a3.45,3.45,0,0,0-2.74,1.48v4.16A3.39,3.39,0,0,0,1048.11,679.8Z" fill="#404041"/><path d="M1054.87,680.84V668.17h1.42v12.67Z" fill="#404041"/><path d="M1058.61,676.24a4.58,4.58,0,0,1,4.52-4.8c2.77,0,4.41,2.16,4.41,4.92v.36h-7.43a3.23,3.23,0,0,0,3.31,3.17,4,4,0,0,0,2.83-1.16l.68.93a5,5,0,0,1-3.65,1.41A4.55,4.55,0,0,1,1058.61,676.24Zm4.5-3.62a3.06,3.06,0,0,0-3,3h6A3,3,0,0,0,1063.11,672.62Z" fill="#404041"/><path d="M1074.2,676.24a4.53,4.53,0,0,1,4.58-4.8,3.92,3.92,0,0,1,3.36,1.59l-1,.88a2.72,2.72,0,0,0-2.34-1.2c-1.95,0-3.17,1.5-3.17,3.53s1.22,3.56,3.17,3.56a2.77,2.77,0,0,0,2.34-1.2l1,.87a3.9,3.9,0,0,1-3.36,1.6A4.54,4.54,0,0,1,1074.2,676.24Z" fill="#404041"/><path d="M1090.35,680.84v-6c0-1.61-.84-2.09-2.07-2.09a3.61,3.61,0,0,0-2.72,1.43v6.7h-1.43V668.17h1.43V673a4.55,4.55,0,0,1,3.28-1.56c1.92,0,2.93.93,2.93,2.92v6.48Z" fill="#404041"/><path d="M1100.35,680.84v-1a4,4,0,0,1-3,1.27,3.06,3.06,0,0,1-3.21-3,3,3,0,0,1,3.21-3,3.84,3.84,0,0,1,3,1.25v-1.65c0-1.23-1-1.94-2.31-1.94a3.64,3.64,0,0,0-2.82,1.28l-.66-1a4.8,4.8,0,0,1,3.67-1.52c1.93,0,3.55.87,3.55,3.09v6.31Zm0-1.94v-1.72a3.07,3.07,0,0,0-2.52-1.14,2,2,0,1,0,0,4A3.07,3.07,0,0,0,1100.35,678.9Z" fill="#404041"/><path d="M1104.63,680.84v-9.17h1.42v1.48a3.9,3.9,0,0,1,3.06-1.67v1.46a2.37,2.37,0,0,0-.57-.06,3.37,3.37,0,0,0-2.49,1.46v6.5Z" fill="#404041"/><path d="M1111.18,678.92v-6h-1.52v-1.25h1.52v-2.51h1.42v2.51h1.86v1.25h-1.86v5.7c0,.68.31,1.18.93,1.18a1.37,1.37,0,0,0,1-.38l.42,1.06a2.33,2.33,0,0,1-1.71.59A1.88,1.88,0,0,1,1111.18,678.92Z" fill="#404041"/><path d="M1264.13,680.84V669.58h-4v-1.41h9.62v1.41h-4v11.26Z" fill="#404041"/><path d="M1270.15,680.84v-9.17h1.43v1.48a3.88,3.88,0,0,1,3.05-1.67v1.46a2.37,2.37,0,0,0-.57-.06,3.33,3.33,0,0,0-2.48,1.46v6.5Z" fill="#404041"/><path d="M1275.89,676.24a4.58,4.58,0,0,1,4.52-4.8c2.77,0,4.41,2.16,4.41,4.92v.36h-7.43a3.23,3.23,0,0,0,3.3,3.17,4,4,0,0,0,2.83-1.16l.69.93a5,5,0,0,1-3.65,1.41A4.55,4.55,0,0,1,1275.89,676.24Zm4.5-3.62a3,3,0,0,0-3,3h6A3,3,0,0,0,1280.39,672.62Z" fill="#404041"/><path d="M1286.58,676.24a4.58,4.58,0,0,1,4.52-4.8c2.77,0,4.41,2.16,4.41,4.92v.36h-7.43a3.23,3.23,0,0,0,3.31,3.17,4,4,0,0,0,2.83-1.16l.68.93a5,5,0,0,1-3.65,1.41A4.55,4.55,0,0,1,1286.58,676.24Zm4.5-3.62a3.06,3.06,0,0,0-3,3h6A3,3,0,0,0,1291.08,672.62Z" fill="#404041"/><path d="M1309.35,680.84v-1.37a3.85,3.85,0,0,1-3.09,1.6c-2.4,0-4.09-1.82-4.09-4.81s1.67-4.82,4.09-4.82a3.84,3.84,0,0,1,3.09,1.61v-4.88h1.43v12.67Zm0-2.49v-4.16a3.45,3.45,0,0,0-2.75-1.48c-1.85,0-2.95,1.52-2.95,3.55s1.1,3.54,2.95,3.54A3.4,3.4,0,0,0,1309.35,678.35Z" fill="#404041"/><path d="M1313.38,669.41a1,1,0,1,1,.95,1A1,1,0,0,1,1313.38,669.41Zm.24,11.43v-9.17h1.43v9.17Z" fill="#404041"/><path d="M1323.63,680.84v-1a4,4,0,0,1-3,1.27,3.06,3.06,0,0,1-3.21-3,3,3,0,0,1,3.21-3,3.84,3.84,0,0,1,3,1.25v-1.65c0-1.23-1-1.94-2.31-1.94a3.64,3.64,0,0,0-2.82,1.28l-.66-1a4.79,4.79,0,0,1,3.67-1.52c1.93,0,3.55.87,3.55,3.09v6.31Zm0-1.94v-1.72a3.07,3.07,0,0,0-2.52-1.14,2,2,0,1,0,0,4A3.07,3.07,0,0,0,1323.63,678.9Z" fill="#404041"/><path d="M1327.89,683.2l.72-1.07a3.48,3.48,0,0,0,3,1.26,2.63,2.63,0,0,0,3-2.76v-1.31a3.86,3.86,0,0,1-3.08,1.64c-2.4,0-4.09-1.79-4.09-4.75s1.67-4.77,4.09-4.77a3.84,3.84,0,0,1,3.08,1.61v-1.38H1336v8.91c0,3-2.13,4-4.37,4A4.69,4.69,0,0,1,1327.89,683.2Zm6.65-5v-4a3.42,3.42,0,0,0-2.74-1.48c-1.84,0-2.94,1.46-2.94,3.5s1.1,3.49,2.94,3.49A3.41,3.41,0,0,0,1334.54,678.2Z" fill="#404041"/><path d="M1338.81,680.84v-9.17h1.42v1.48a3.9,3.9,0,0,1,3.06-1.67v1.46a2.37,2.37,0,0,0-.57-.06,3.37,3.37,0,0,0-2.49,1.46v6.5Z" fill="#404041"/><path d="M1350.81,680.84v-1a4,4,0,0,1-3,1.27,3.06,3.06,0,0,1-3.21-3,3,3,0,0,1,3.21-3,3.85,3.85,0,0,1,3,1.25v-1.65c0-1.23-1-1.94-2.32-1.94a3.64,3.64,0,0,0-2.81,1.28l-.66-1a4.76,4.76,0,0,1,3.66-1.52c1.94,0,3.56.87,3.56,3.09v6.31Zm0-1.94v-1.72a3.07,3.07,0,0,0-2.53-1.14,2,2,0,1,0,0,4A3.07,3.07,0,0,0,1350.81,678.9Z" fill="#404041"/><path d="M1366.16,680.84v-6.23c0-1.16-.52-1.9-1.69-1.9a3.21,3.21,0,0,0-2.43,1.41v6.72h-1.43v-6.23c0-1.16-.49-1.9-1.69-1.9a3.2,3.2,0,0,0-2.41,1.43v6.7h-1.43v-9.17h1.43V673a4,4,0,0,1,3-1.56,2.36,2.36,0,0,1,2.47,1.71,3.85,3.85,0,0,1,3.08-1.71c1.67,0,2.56.93,2.56,2.77v6.63Z" fill="#404041"/><path d="M1531.14,680.84V675h-7.41v5.81h-1.58V668.17h1.58v5.45h7.41v-5.45h1.57v12.67Z" fill="#404041"/><path d="M1535.08,676.24a4.58,4.58,0,0,1,4.53-4.8c2.77,0,4.4,2.16,4.4,4.92v.36h-7.43a3.24,3.24,0,0,0,3.31,3.17,4,4,0,0,0,2.83-1.16l.69.93a5,5,0,0,1-3.65,1.41A4.56,4.56,0,0,1,1535.08,676.24Zm4.51-3.62a3.07,3.07,0,0,0-3,3h6A3,3,0,0,0,1539.59,672.62Z" fill="#404041"/><path d="M1552.05,680.84v-1a4,4,0,0,1-3,1.27,3.06,3.06,0,0,1-3.21-3,3,3,0,0,1,3.21-3,3.87,3.87,0,0,1,3,1.25v-1.65c0-1.23-1-1.94-2.32-1.94a3.62,3.62,0,0,0-2.81,1.28l-.67-1a4.8,4.8,0,0,1,3.67-1.52c1.94,0,3.55.87,3.55,3.09v6.31Zm0-1.94v-1.72a3.07,3.07,0,0,0-2.53-1.14,2,2,0,1,0,0,4A3.07,3.07,0,0,0,1552.05,678.9Z" fill="#404041"/><path d="M1556.6,678.92v-6h-1.52v-1.25h1.52v-2.51H1558v2.51h1.86v1.25H1558v5.7c0,.68.3,1.18.93,1.18a1.37,1.37,0,0,0,1-.38l.41,1.06a2.33,2.33,0,0,1-1.71.59A1.88,1.88,0,0,1,1556.6,678.92Z" fill="#404041"/><path d="M1573,680.84v-6.23c0-1.16-.52-1.9-1.69-1.9a3.23,3.23,0,0,0-2.44,1.41v6.72h-1.42v-6.23c0-1.16-.5-1.9-1.69-1.9a3.2,3.2,0,0,0-2.41,1.43v6.7h-1.43v-9.17h1.43V673a4,4,0,0,1,3-1.56,2.36,2.36,0,0,1,2.47,1.71,3.85,3.85,0,0,1,3.08-1.71c1.67,0,2.56.93,2.56,2.77v6.63Z" fill="#404041"/><path d="M1583,680.84v-1a4,4,0,0,1-3,1.27,3.06,3.06,0,0,1-3.21-3,3,3,0,0,1,3.21-3,3.84,3.84,0,0,1,3,1.25v-1.65c0-1.23-1-1.94-2.31-1.94a3.64,3.64,0,0,0-2.82,1.28l-.66-1a4.79,4.79,0,0,1,3.67-1.52c1.93,0,3.55.87,3.55,3.09v6.31Zm0-1.94v-1.72a3.07,3.07,0,0,0-2.52-1.14,2,2,0,1,0,0,4A3.07,3.07,0,0,0,1583,678.9Z" fill="#404041"/><path d="M1588.68,679.46v4.88h-1.43V671.67h1.43V673a3.82,3.82,0,0,1,3.1-1.59c2.41,0,4.08,1.82,4.08,4.8s-1.67,4.83-4.08,4.83A3.77,3.77,0,0,1,1588.68,679.46Zm5.68-3.22c0-2-1.1-3.53-2.94-3.53a3.4,3.4,0,0,0-2.74,1.46v4.14a3.4,3.4,0,0,0,2.74,1.49C1593.26,679.8,1594.36,678.28,1594.36,676.24Z" fill="#404041"/><path d="M1745.74,680.84l-5.1-12.67h1.81l4.27,10.94,4.28-10.94h1.8l-5.11,12.67Z" fill="#404041"/><path d="M1752.72,676.24a4.58,4.58,0,0,1,4.52-4.8c2.78,0,4.41,2.16,4.41,4.92v.36h-7.43a3.24,3.24,0,0,0,3.31,3.17,4,4,0,0,0,2.83-1.16l.68.93a4.94,4.94,0,0,1-3.64,1.41A4.56,4.56,0,0,1,1752.72,676.24Zm4.51-3.62a3.07,3.07,0,0,0-3,3h6A3,3,0,0,0,1757.23,672.62Z" fill="#404041"/><path d="M1770.14,680.84v-6c0-1.62-.82-2.13-2.05-2.13a3.55,3.55,0,0,0-2.72,1.43v6.7H1764v-9.17h1.42V673a4.56,4.56,0,0,1,3.27-1.56c1.92,0,2.93,1,2.93,3v6.44Z" fill="#404041"/><path d="M1780.6,680.84v-6c0-1.62-.81-2.13-2-2.13a3.53,3.53,0,0,0-2.71,1.43v6.7h-1.43v-9.17h1.43V673a4.54,4.54,0,0,1,3.26-1.56c1.92,0,2.93,1,2.93,3v6.44Z" fill="#404041"/><path d="M1796.42,680.84v-1.37a3.85,3.85,0,0,1-3.09,1.6c-2.4,0-4.09-1.82-4.09-4.81s1.68-4.82,4.09-4.82a3.84,3.84,0,0,1,3.09,1.61v-4.88h1.43v12.67Zm0-2.49v-4.16a3.45,3.45,0,0,0-2.75-1.48c-1.84,0-2.94,1.52-2.94,3.55s1.1,3.54,2.94,3.54A3.4,3.4,0,0,0,1796.42,678.35Z" fill="#404041"/><path d="M1800.45,669.41a1,1,0,1,1,1,1A1,1,0,0,1,1800.45,669.41Zm.25,11.43v-9.17h1.42v9.17Z" fill="#404041"/><path d="M1810.71,680.84v-1a4,4,0,0,1-3,1.27,3.06,3.06,0,0,1-3.21-3,3,3,0,0,1,3.21-3,3.87,3.87,0,0,1,3,1.25v-1.65c0-1.23-1-1.94-2.32-1.94a3.62,3.62,0,0,0-2.81,1.28l-.67-1a4.8,4.8,0,0,1,3.67-1.52c1.94,0,3.55.87,3.55,3.09v6.31Zm0-1.94v-1.72a3.07,3.07,0,0,0-2.53-1.14,2,2,0,1,0,0,4A3.07,3.07,0,0,0,1810.71,678.9Z" fill="#404041"/><path d="M1815,683.2l.72-1.07a3.48,3.48,0,0,0,3,1.26,2.63,2.63,0,0,0,2.95-2.76v-1.31a3.86,3.86,0,0,1-3.08,1.64c-2.39,0-4.08-1.79-4.08-4.75s1.67-4.77,4.08-4.77a3.83,3.83,0,0,1,3.08,1.61v-1.38H1823v8.91c0,3-2.13,4-4.37,4A4.7,4.7,0,0,1,1815,683.2Zm6.65-5v-4a3.42,3.42,0,0,0-2.74-1.48c-1.84,0-2.94,1.46-2.94,3.5s1.1,3.49,2.94,3.49A3.41,3.41,0,0,0,1821.61,678.2Z" fill="#404041"/><path d="M1825.88,680.84v-9.17h1.42v1.48a3.9,3.9,0,0,1,3.06-1.67v1.46a2.37,2.37,0,0,0-.57-.06,3.37,3.37,0,0,0-2.49,1.46v6.5Z" fill="#404041"/><path d="M1837.88,680.84v-1a4,4,0,0,1-3,1.27,3.06,3.06,0,0,1-3.21-3,3,3,0,0,1,3.21-3,3.84,3.84,0,0,1,3,1.25v-1.65c0-1.23-1-1.94-2.31-1.94a3.64,3.64,0,0,0-2.82,1.28l-.66-1a4.79,4.79,0,0,1,3.67-1.52c1.93,0,3.55.87,3.55,3.09v6.31Zm0-1.94v-1.72a3.07,3.07,0,0,0-2.52-1.14,2,2,0,1,0,0,4A3.07,3.07,0,0,0,1837.88,678.9Z" fill="#404041"/><path d="M1853.23,680.84v-6.23c0-1.16-.51-1.9-1.69-1.9a3.21,3.21,0,0,0-2.43,1.41v6.72h-1.43v-6.23c0-1.16-.49-1.9-1.69-1.9a3.2,3.2,0,0,0-2.41,1.43v6.7h-1.42v-9.17h1.42V673a4,4,0,0,1,3-1.56,2.35,2.35,0,0,1,2.47,1.71,3.87,3.87,0,0,1,3.08-1.71c1.67,0,2.57.93,2.57,2.77v6.63Z" fill="#404041"/><path d="M537.42,980.79V968.12H539v11.26h5.89v1.41Z" fill="#404041"/><path d="M546.8,969.35a1,1,0,1,1,1.92,0,1,1,0,0,1-1.92,0Zm.25,11.44v-9.18h1.42v9.18Z" fill="#404041"/><path d="M557.51,980.79v-6c0-1.61-.81-2.12-2-2.12a3.53,3.53,0,0,0-2.71,1.42v6.71h-1.43v-9.18h1.43v1.33a4.54,4.54,0,0,1,3.26-1.56c1.92,0,2.93,1,2.93,3v6.44Z" fill="#404041"/><path d="M561.25,976.19a4.59,4.59,0,0,1,4.52-4.81c2.78,0,4.41,2.17,4.41,4.92v.36h-7.43a3.24,3.24,0,0,0,3.31,3.18,4,4,0,0,0,2.83-1.16l.68.93a5,5,0,0,1-3.64,1.4A4.55,4.55,0,0,1,561.25,976.19Zm4.51-3.63a3.07,3.07,0,0,0-3,3.06h6A3,3,0,0,0,565.76,972.56Z" fill="#404041"/><path d="M576.85,976.19a4.53,4.53,0,0,1,4.57-4.81,4,4,0,0,1,3.37,1.6l-.95.87a2.74,2.74,0,0,0-2.34-1.19c-2,0-3.17,1.5-3.17,3.53s1.21,3.55,3.17,3.55a2.77,2.77,0,0,0,2.34-1.2l.95.88a3.94,3.94,0,0,1-3.37,1.59A4.53,4.53,0,0,1,576.85,976.19Z" fill="#404041"/><path d="M593,980.79v-6c0-1.62-.84-2.09-2.07-2.09a3.61,3.61,0,0,0-2.72,1.42v6.71h-1.42V968.12h1.42v4.82a4.57,4.57,0,0,1,3.29-1.56,2.58,2.58,0,0,1,2.93,2.93v6.48Z" fill="#404041"/><path d="M603,980.79v-1a4,4,0,0,1-3,1.27,3.05,3.05,0,0,1-3.21-3,3,3,0,0,1,3.21-3,3.83,3.83,0,0,1,3,1.26v-1.66c0-1.23-1-1.93-2.32-1.93a3.66,3.66,0,0,0-2.81,1.27l-.66-1a4.8,4.8,0,0,1,3.66-1.52c1.94,0,3.55.88,3.55,3.1v6.31Zm0-1.94v-1.73a3.07,3.07,0,0,0-2.53-1.14,2,2,0,1,0,0,4A3.07,3.07,0,0,0,603,978.85Z" fill="#404041"/><path d="M607.27,980.79v-9.18h1.43v1.48a3.88,3.88,0,0,1,3-1.67v1.46a3.1,3.1,0,0,0-.57,0,3.33,3.33,0,0,0-2.48,1.46v6.5Z" fill="#404041"/><path d="M613.82,978.87v-6H612.3v-1.25h1.52V969.1h1.43v2.51h1.86v1.25h-1.86v5.7c0,.69.3,1.18.93,1.18a1.37,1.37,0,0,0,1-.38l.42,1.06a2.32,2.32,0,0,1-1.71.59A1.88,1.88,0,0,1,613.82,978.87Z" fill="#404041"/><path d="M794,980.79,792.88,978h-6.31l-1.12,2.82h-1.81l5.1-12.67h2l5.11,12.67Zm-4.28-11L787,976.57h5.37Z" fill="#404041"/><path d="M797.4,980.79v-9.18h1.42v1.48a3.89,3.89,0,0,1,3.06-1.67v1.46a3.1,3.1,0,0,0-.57,0,3.35,3.35,0,0,0-2.49,1.46v6.5Z" fill="#404041"/><path d="M803.13,976.19a4.59,4.59,0,0,1,4.52-4.81c2.78,0,4.41,2.17,4.41,4.92v.36h-7.43a3.24,3.24,0,0,0,3.31,3.18,4,4,0,0,0,2.83-1.16l.68.93a5,5,0,0,1-3.65,1.4A4.55,4.55,0,0,1,803.13,976.19Zm4.5-3.63a3.07,3.07,0,0,0-3,3.06h6A3,3,0,0,0,807.63,972.56Z" fill="#404041"/><path d="M820.09,980.79v-1a4,4,0,0,1-3,1.27,3.05,3.05,0,0,1-3.21-3,3,3,0,0,1,3.21-3,3.82,3.82,0,0,1,3,1.26v-1.66c0-1.23-1-1.93-2.32-1.93a3.66,3.66,0,0,0-2.81,1.27l-.66-1a4.81,4.81,0,0,1,3.66-1.52c1.94,0,3.56.88,3.56,3.1v6.31Zm0-1.94v-1.73a3.07,3.07,0,0,0-2.53-1.14,2,2,0,1,0,0,4A3.07,3.07,0,0,0,820.09,978.85Z" fill="#404041"/><path d="M828.73,976.19a4.53,4.53,0,0,1,4.58-4.81,3.93,3.93,0,0,1,3.36,1.6l-.95.87a2.73,2.73,0,0,0-2.33-1.19c-2,0-3.18,1.5-3.18,3.53s1.22,3.55,3.18,3.55a2.77,2.77,0,0,0,2.33-1.2l.95.88a3.92,3.92,0,0,1-3.36,1.59A4.54,4.54,0,0,1,828.73,976.19Z" fill="#404041"/><path d="M844.88,980.79v-6c0-1.62-.84-2.09-2.07-2.09a3.6,3.6,0,0,0-2.72,1.42v6.71h-1.43V968.12h1.43v4.82a4.55,4.55,0,0,1,3.29-1.56c1.91,0,2.92.93,2.92,2.93v6.48Z" fill="#404041"/><path d="M854.88,980.79v-1a3.94,3.94,0,0,1-3,1.27,3.06,3.06,0,0,1-3.22-3,3,3,0,0,1,3.22-3,3.81,3.81,0,0,1,3,1.26v-1.66c0-1.23-1-1.93-2.31-1.93a3.64,3.64,0,0,0-2.81,1.27l-.67-1a4.84,4.84,0,0,1,3.67-1.52c1.93,0,3.55.88,3.55,3.1v6.31Zm0-1.94v-1.73a3.07,3.07,0,0,0-2.52-1.14,2,2,0,1,0,0,4A3.07,3.07,0,0,0,854.88,978.85Z" fill="#404041"/><path d="M859.16,980.79v-9.18h1.42v1.48a3.9,3.9,0,0,1,3.06-1.67v1.46a3.1,3.1,0,0,0-.57,0,3.37,3.37,0,0,0-2.49,1.46v6.5Z" fill="#404041"/><path d="M865.71,978.87v-6h-1.52v-1.25h1.52V969.1h1.42v2.51H869v1.25h-1.86v5.7c0,.69.31,1.18.93,1.18a1.37,1.37,0,0,0,1-.38l.42,1.06a2.29,2.29,0,0,1-1.71.59A1.87,1.87,0,0,1,865.71,978.87Z" fill="#404041"/><path d="M985,979l.94-1.2a5.35,5.35,0,0,0,4,1.81c2.26,0,3-1.22,3-2.19,0-1.52-1.54-1.93-3.21-2.39-2-.53-4.3-1.1-4.3-3.59,0-2.09,1.87-3.52,4.35-3.52a6,6,0,0,1,4.51,1.77l-1,1.16a4.87,4.87,0,0,0-3.67-1.52c-1.52,0-2.6.82-2.6,2s1.46,1.66,3.07,2.09c2.08.56,4.43,1.2,4.43,3.86,0,1.84-1.25,3.72-4.67,3.72A6.28,6.28,0,0,1,985,979Z" fill="#404041"/><path d="M997.09,978.87v-6h-1.52v-1.25h1.52V969.1h1.43v2.51h1.86v1.25h-1.86v5.7c0,.69.3,1.18.93,1.18a1.37,1.37,0,0,0,1-.38l.41,1.06a2.29,2.29,0,0,1-1.71.59A1.87,1.87,0,0,1,997.09,978.87Z" fill="#404041"/><path d="M1008.13,980.79v-1a4,4,0,0,1-3,1.27,3.05,3.05,0,0,1-3.21-3,3,3,0,0,1,3.21-3,3.83,3.83,0,0,1,3,1.26v-1.66c0-1.23-1-1.93-2.32-1.93a3.66,3.66,0,0,0-2.81,1.27l-.67-1a4.84,4.84,0,0,1,3.67-1.52c1.94,0,3.55.88,3.55,3.1v6.31Zm0-1.94v-1.73a3.07,3.07,0,0,0-2.53-1.14,2,2,0,1,0,0,4A3.07,3.07,0,0,0,1008.13,978.85Z" fill="#404041"/><path d="M1011.87,976.19a4.53,4.53,0,0,1,4.58-4.81,3.93,3.93,0,0,1,3.36,1.6l-.95.87a2.74,2.74,0,0,0-2.34-1.19c-1.95,0-3.17,1.5-3.17,3.53s1.22,3.55,3.17,3.55a2.77,2.77,0,0,0,2.34-1.2l.95.88a3.92,3.92,0,0,1-3.36,1.59A4.54,4.54,0,0,1,1011.87,976.19Z" fill="#404041"/><path d="M1028.05,980.79l-3.31-4.13-1.52,1.5v2.63h-1.42V968.12h1.42v8.37l4.83-4.88h1.8l-4.06,4.16,4.08,5Z" fill="#404041"/><path d="M1031,976.19a4.59,4.59,0,0,1,4.52-4.81c2.78,0,4.41,2.17,4.41,4.92v.36h-7.43a3.24,3.24,0,0,0,3.31,3.18,4,4,0,0,0,2.83-1.16l.68.93a5,5,0,0,1-3.64,1.4A4.55,4.55,0,0,1,1031,976.19Zm4.51-3.63a3.07,3.07,0,0,0-3,3.06h6A3,3,0,0,0,1035.48,972.56Z" fill="#404041"/><path d="M1048.85,980.79v-1.37a3.88,3.88,0,0,1-3.1,1.59c-2.39,0-4.08-1.82-4.08-4.8s1.67-4.83,4.08-4.83a3.84,3.84,0,0,1,3.1,1.62v-4.88h1.42v12.67Zm0-2.49v-4.16a3.46,3.46,0,0,0-2.76-1.48c-1.84,0-2.94,1.51-2.94,3.55s1.1,3.53,2.94,3.53A3.42,3.42,0,0,0,1048.85,978.3Z" fill="#404041"/><path d="M1063.75,980.79v-1a3.93,3.93,0,0,1-3,1.27,3.06,3.06,0,0,1-3.21-3,3,3,0,0,1,3.21-3,3.82,3.82,0,0,1,3,1.26v-1.66c0-1.23-1-1.93-2.31-1.93a3.66,3.66,0,0,0-2.82,1.27l-.66-1a4.84,4.84,0,0,1,3.67-1.52c1.93,0,3.55.88,3.55,3.1v6.31Zm0-1.94v-1.73a3.05,3.05,0,0,0-2.52-1.14,2,2,0,1,0,0,4A3.05,3.05,0,0,0,1063.75,978.85Z" fill="#404041"/><path d="M1068,980.79v-9.18h1.42v1.48a3.9,3.9,0,0,1,3.06-1.67v1.46a3.1,3.1,0,0,0-.57,0,3.37,3.37,0,0,0-2.49,1.46v6.5Z" fill="#404041"/><path d="M1073.76,976.19a4.59,4.59,0,0,1,4.52-4.81c2.78,0,4.41,2.17,4.41,4.92v.36h-7.43a3.24,3.24,0,0,0,3.31,3.18,4,4,0,0,0,2.83-1.16l.68.93a5,5,0,0,1-3.65,1.4A4.55,4.55,0,0,1,1073.76,976.19Zm4.5-3.63a3.07,3.07,0,0,0-3,3.06h6A3,3,0,0,0,1078.26,972.56Z" fill="#404041"/><path d="M1090.72,980.79v-1a4,4,0,0,1-3,1.27,3.05,3.05,0,0,1-3.21-3,3,3,0,0,1,3.21-3,3.82,3.82,0,0,1,3,1.26v-1.66c0-1.23-1-1.93-2.31-1.93a3.66,3.66,0,0,0-2.82,1.27l-.66-1a4.81,4.81,0,0,1,3.66-1.52c1.94,0,3.56.88,3.56,3.1v6.31Zm0-1.94v-1.73a3.07,3.07,0,0,0-2.52-1.14,2,2,0,1,0,0,4A3.07,3.07,0,0,0,1090.72,978.85Z" fill="#404041"/><path d="M1099.36,976.19a4.54,4.54,0,0,1,4.58-4.81,3.93,3.93,0,0,1,3.36,1.6l-1,.87a2.71,2.71,0,0,0-2.33-1.19c-2,0-3.18,1.5-3.18,3.53s1.22,3.55,3.18,3.55a2.74,2.74,0,0,0,2.33-1.2l1,.88a3.92,3.92,0,0,1-3.36,1.59A4.54,4.54,0,0,1,1099.36,976.19Z" fill="#404041"/><path d="M1115.51,980.79v-6c0-1.62-.84-2.09-2.07-2.09a3.6,3.6,0,0,0-2.72,1.42v6.71h-1.43V968.12h1.43v4.82a4.57,4.57,0,0,1,3.29-1.56c1.91,0,2.92.93,2.92,2.93v6.48Z" fill="#404041"/><path d="M1125.52,980.79v-1a4,4,0,0,1-3,1.27,3.05,3.05,0,0,1-3.21-3,3,3,0,0,1,3.21-3,3.84,3.84,0,0,1,3,1.26v-1.66c0-1.23-1-1.93-2.32-1.93a3.64,3.64,0,0,0-2.81,1.27l-.67-1a4.84,4.84,0,0,1,3.67-1.52c1.94,0,3.55.88,3.55,3.1v6.31Zm0-1.94v-1.73A3.09,3.09,0,0,0,1123,976a2,2,0,1,0,0,4A3.09,3.09,0,0,0,1125.52,978.85Z" fill="#404041"/><path d="M1129.79,980.79v-9.18h1.42v1.48a3.9,3.9,0,0,1,3.06-1.67v1.46a3.1,3.1,0,0,0-.57,0,3.37,3.37,0,0,0-2.49,1.46v6.5Z" fill="#404041"/><path d="M1136.34,978.87v-6h-1.52v-1.25h1.52V969.1h1.42v2.51h1.87v1.25h-1.87v5.7c0,.69.31,1.18.94,1.18a1.36,1.36,0,0,0,1-.38l.42,1.06a2.29,2.29,0,0,1-1.71.59A1.87,1.87,0,0,1,1136.34,978.87Z" fill="#404041"/><path d="M1254.87,979l.93-1.2a5.36,5.36,0,0,0,4,1.81c2.26,0,3-1.22,3-2.19,0-1.52-1.54-1.93-3.21-2.39-2-.53-4.29-1.1-4.29-3.59,0-2.09,1.86-3.52,4.35-3.52a6,6,0,0,1,4.5,1.77l-.95,1.16a4.87,4.87,0,0,0-3.67-1.52c-1.51,0-2.6.82-2.6,2s1.47,1.66,3.08,2.09c2.07.56,4.43,1.2,4.43,3.86,0,1.84-1.26,3.72-4.68,3.72A6.26,6.26,0,0,1,1254.87,979Z" fill="#404041"/><path d="M1267,978.87v-6h-1.52v-1.25H1267V969.1h1.42v2.51h1.86v1.25h-1.86v5.7c0,.69.3,1.18.93,1.18a1.37,1.37,0,0,0,1-.38l.42,1.06a2.3,2.3,0,0,1-1.71.59A1.87,1.87,0,0,1,1267,978.87Z" fill="#404041"/><path d="M1272.29,980.79v-9.18h1.42v1.48a3.89,3.89,0,0,1,3.06-1.67v1.46a3.1,3.1,0,0,0-.57,0,3.35,3.35,0,0,0-2.49,1.46v6.5Z" fill="#404041"/><path d="M1278,976.19a4.59,4.59,0,0,1,4.52-4.81c2.77,0,4.41,2.17,4.41,4.92v.36h-7.43a3.24,3.24,0,0,0,3.31,3.18,4,4,0,0,0,2.83-1.16l.68.93a5,5,0,0,1-3.65,1.4A4.55,4.55,0,0,1,1278,976.19Zm4.5-3.63a3.07,3.07,0,0,0-3,3.06h6A3,3,0,0,0,1282.52,972.56Z" fill="#404041"/><path d="M1295,980.79v-1a4,4,0,0,1-3,1.27,3.05,3.05,0,0,1-3.21-3,3,3,0,0,1,3.21-3,3.82,3.82,0,0,1,3,1.26v-1.66c0-1.23-1-1.93-2.32-1.93a3.66,3.66,0,0,0-2.81,1.27l-.66-1a4.8,4.8,0,0,1,3.66-1.52c1.94,0,3.56.88,3.56,3.1v6.31Zm0-1.94v-1.73a3.07,3.07,0,0,0-2.52-1.14,2,2,0,1,0,0,4A3.07,3.07,0,0,0,1295,978.85Z" fill="#404041"/><path d="M1310.33,980.79v-6.24c0-1.15-.51-1.89-1.69-1.89a3.2,3.2,0,0,0-2.43,1.4v6.73h-1.43v-6.24c0-1.15-.49-1.89-1.69-1.89a3.19,3.19,0,0,0-2.41,1.42v6.71h-1.43v-9.18h1.43v1.33a4,4,0,0,1,3-1.56,2.36,2.36,0,0,1,2.47,1.71,3.88,3.88,0,0,1,3.08-1.71c1.67,0,2.56.93,2.56,2.78v6.63Z" fill="#404041"/><path d="M1319.48,983.14l.72-1.06a3.5,3.5,0,0,0,3,1.25c1.52,0,3-.74,3-2.75v-1.31a3.85,3.85,0,0,1-3.08,1.63c-2.39,0-4.08-1.79-4.08-4.75s1.67-4.77,4.08-4.77a3.79,3.79,0,0,1,3.08,1.62v-1.39h1.42v8.91c0,3-2.12,4-4.37,4A4.67,4.67,0,0,1,1319.48,983.14Zm6.65-5v-4a3.39,3.39,0,0,0-2.74-1.48c-1.84,0-2.94,1.46-2.94,3.49s1.1,3.5,2.94,3.5A3.43,3.43,0,0,0,1326.13,978.15Z" fill="#404041"/><path d="M1330.4,980.79v-9.18h1.42v1.48a3.92,3.92,0,0,1,3.06-1.67v1.46a3.1,3.1,0,0,0-.57,0,3.37,3.37,0,0,0-2.49,1.46v6.5Z" fill="#404041"/><path d="M1342.4,980.79v-1a4,4,0,0,1-3,1.27,3.06,3.06,0,0,1-3.21-3,3,3,0,0,1,3.21-3,3.82,3.82,0,0,1,3,1.26v-1.66c0-1.23-1-1.93-2.31-1.93a3.66,3.66,0,0,0-2.82,1.27l-.66-1a4.84,4.84,0,0,1,3.67-1.52c1.93,0,3.55.88,3.55,3.1v6.31Zm0-1.94v-1.73a3.07,3.07,0,0,0-2.52-1.14,2,2,0,1,0,0,4A3.07,3.07,0,0,0,1342.4,978.85Z" fill="#404041"/><path d="M1348.1,979.4v4.88h-1.42V971.61h1.42V973a3.86,3.86,0,0,1,3.1-1.6c2.41,0,4.08,1.83,4.08,4.81s-1.67,4.82-4.08,4.82A3.77,3.77,0,0,1,1348.1,979.4Zm5.68-3.21c0-2-1.1-3.53-2.94-3.53a3.37,3.37,0,0,0-2.74,1.46v4.14a3.39,3.39,0,0,0,2.74,1.48C1352.68,979.74,1353.78,978.22,1353.78,976.19Z" fill="#404041"/><path d="M1363.75,980.79v-6c0-1.62-.83-2.09-2.07-2.09a3.61,3.61,0,0,0-2.72,1.42v6.71h-1.42V968.12H1359v4.82a4.57,4.57,0,0,1,3.29-1.56,2.58,2.58,0,0,1,2.93,2.93v6.48Z" fill="#404041"/><path d="M544.35,1261.65v-5.82h-7.41v5.82h-1.58V1249h1.58v5.45h7.41V1249h1.57v12.67Z" fill="#404041"/><path d="M548.58,1250.21a1,1,0,1,1,1.92,0,1,1,0,0,1-1.92,0Zm.25,11.44v-9.18h1.42v9.18Z" fill="#404041"/><path d="M552.3,1260.43l.74-1a4.18,4.18,0,0,0,3,1.31c1.41,0,2.17-.67,2.17-1.58s-1.12-1.27-2.36-1.58c-1.55-.36-3.32-.78-3.32-2.68,0-1.42,1.23-2.64,3.42-2.64a4.64,4.64,0,0,1,3.4,1.33l-.67,1a3.57,3.57,0,0,0-2.73-1.16c-1.26,0-2,.63-2,1.45s1,1.12,2.24,1.4c1.59.36,3.44.82,3.44,2.85,0,1.54-1.24,2.78-3.61,2.78A4.89,4.89,0,0,1,552.3,1260.43Z" fill="#404041"/><path d="M562.22,1259.73v-6H560.7v-1.26h1.52V1250h1.42v2.51h1.86v1.26h-1.86v5.69c0,.69.3,1.18.93,1.18a1.37,1.37,0,0,0,1-.38l.42,1.07a2.35,2.35,0,0,1-1.71.59A1.88,1.88,0,0,1,562.22,1259.73Z" fill="#404041"/><path d="M567,1257.05a4.55,4.55,0,1,1,4.54,4.83A4.51,4.51,0,0,1,567,1257.05Zm7.58,0c0-1.86-1.08-3.53-3-3.53s-3.06,1.67-3.06,3.53,1.11,3.55,3.06,3.55S574.56,1258.93,574.56,1257.05Z" fill="#404041"/><path d="M578.36,1264l.72-1.06a3.5,3.5,0,0,0,3,1.25c1.52,0,3-.74,3-2.75v-1.31a3.85,3.85,0,0,1-3.08,1.63c-2.39,0-4.08-1.78-4.08-4.75s1.67-4.77,4.08-4.77a3.81,3.81,0,0,1,3.08,1.62v-1.39h1.42v8.91c0,3-2.13,4-4.37,4A4.65,4.65,0,0,1,578.36,1264Zm6.65-5v-4a3.39,3.39,0,0,0-2.74-1.48c-1.84,0-2.94,1.46-2.94,3.49s1.1,3.5,2.94,3.5A3.43,3.43,0,0,0,585,1259Z" fill="#404041"/><path d="M589.28,1261.65v-9.18h1.42V1254a3.9,3.9,0,0,1,3.06-1.67v1.46a3.1,3.1,0,0,0-.57,0,3.37,3.37,0,0,0-2.49,1.46v6.5Z" fill="#404041"/><path d="M601.28,1261.65v-1.05a4,4,0,0,1-3,1.28,3.06,3.06,0,0,1-3.21-3,3,3,0,0,1,3.21-3,3.81,3.81,0,0,1,3,1.25v-1.65c0-1.24-1-1.94-2.31-1.94a3.66,3.66,0,0,0-2.82,1.27l-.66-1a4.82,4.82,0,0,1,3.67-1.52c1.93,0,3.55.88,3.55,3.1v6.31Zm0-1.94V1258a3.07,3.07,0,0,0-2.52-1.14,2,2,0,1,0,0,4A3.07,3.07,0,0,0,601.28,1259.71Z" fill="#404041"/><path d="M616.63,1261.65v-6.23c0-1.16-.51-1.9-1.69-1.9a3.2,3.2,0,0,0-2.43,1.4v6.73h-1.43v-6.23c0-1.16-.49-1.9-1.69-1.9a3.19,3.19,0,0,0-2.41,1.42v6.71h-1.43v-9.18H607v1.33a4,4,0,0,1,3-1.56,2.35,2.35,0,0,1,2.47,1.71,3.89,3.89,0,0,1,3.08-1.71c1.67,0,2.56.93,2.56,2.78v6.63Z" fill="#404041"/><path d="M747.79,1261.87V1249.2h5.09a3.82,3.82,0,1,1,0,7.64h-3.52v5Zm7.42-8.85a2.35,2.35,0,0,0-2.52-2.41h-3.33v4.82h3.33A2.35,2.35,0,0,0,755.21,1253Z" fill="#404041"/><path d="M758.1,1257.28a4.55,4.55,0,1,1,4.54,4.82A4.51,4.51,0,0,1,758.1,1257.28Zm7.58,0c0-1.87-1.08-3.54-3-3.54s-3.06,1.67-3.06,3.54,1.1,3.55,3.06,3.55S765.68,1259.16,765.68,1257.28Z" fill="#404041"/><path d="M770.92,1260.49v4.88h-1.43V1252.7h1.43v1.37a3.8,3.8,0,0,1,3.1-1.6c2.41,0,4.08,1.82,4.08,4.81s-1.67,4.82-4.08,4.82A3.77,3.77,0,0,1,770.92,1260.49Zm5.68-3.21c0-2-1.1-3.54-3-3.54a3.38,3.38,0,0,0-2.73,1.47v4.14a3.41,3.41,0,0,0,2.73,1.48C775.5,1260.83,776.6,1259.31,776.6,1257.28Z" fill="#404041"/><path d="M786.55,1261.87v-1.29a4.48,4.48,0,0,1-3.27,1.52,2.57,2.57,0,0,1-2.92-2.92v-6.48h1.42v6c0,1.61.82,2.09,2.05,2.09a3.52,3.52,0,0,0,2.72-1.39v-6.74H788v9.17Z" fill="#404041"/><path d="M790.82,1261.87V1249.2h1.43v12.67Z" fill="#404041"/><path d="M800.83,1261.87v-1a4,4,0,0,1-3,1.27,3.05,3.05,0,0,1-3.21-3,3,3,0,0,1,3.21-3,3.84,3.84,0,0,1,3,1.25v-1.65c0-1.23-1-1.94-2.32-1.94a3.64,3.64,0,0,0-2.81,1.28l-.66-1a4.78,4.78,0,0,1,3.66-1.52c1.94,0,3.56.87,3.56,3.1v6.3Zm0-1.93v-1.73a3.07,3.07,0,0,0-2.52-1.14,2,2,0,1,0,0,4A3.07,3.07,0,0,0,800.83,1259.94Z" fill="#404041"/><path d="M805.39,1260v-6h-1.52v-1.25h1.52v-2.51h1.42v2.51h1.87V1254h-1.87v5.7c0,.68.31,1.18.93,1.18a1.37,1.37,0,0,0,1-.38l.42,1.06a2.33,2.33,0,0,1-1.71.59A1.88,1.88,0,0,1,805.39,1260Z" fill="#404041"/><path d="M810.44,1250.44a1,1,0,1,1,1.92,0,1,1,0,0,1-1.92,0Zm.25,11.43v-9.17h1.42v9.17Z" fill="#404041"/><path d="M814.43,1257.28a4.55,4.55,0,1,1,4.54,4.82A4.51,4.51,0,0,1,814.43,1257.28Zm7.58,0c0-1.87-1.08-3.54-3-3.54s-3.06,1.67-3.06,3.54,1.1,3.55,3.06,3.55S822,1259.16,822,1257.28Z" fill="#404041"/><path d="M832,1261.87v-6c0-1.62-.82-2.13-2-2.13a3.54,3.54,0,0,0-2.72,1.43v6.7h-1.43v-9.17h1.43V1254a4.54,4.54,0,0,1,3.27-1.56c1.91,0,2.92,1,2.92,3v6.44Z" fill="#404041"/><path d="M842.61,1260.49v4.88h-1.42V1252.7h1.42v1.37a3.83,3.83,0,0,1,3.1-1.6c2.41,0,4.08,1.82,4.08,4.81s-1.67,4.82-4.08,4.82A3.78,3.78,0,0,1,842.61,1260.49Zm5.68-3.21c0-2-1.1-3.54-2.94-3.54a3.41,3.41,0,0,0-2.74,1.47v4.14a3.45,3.45,0,0,0,2.74,1.48C847.19,1260.83,848.29,1259.31,848.29,1257.28Z" fill="#404041"/><path d="M851.77,1264.17a2.08,2.08,0,0,0,.78.15,1.31,1.31,0,0,0,1.36-1l.61-1.38-3.84-9.27h1.54l3.06,7.52,3-7.52h1.56l-4.6,11a2.73,2.73,0,0,1-2.7,1.87,4.35,4.35,0,0,1-1-.14Z" fill="#404041"/><path d="M861.36,1261.87v-9.17h1.42v1.48a3.9,3.9,0,0,1,3.06-1.67V1254a2.37,2.37,0,0,0-.57-.06,3.35,3.35,0,0,0-2.49,1.47v6.49Z" fill="#404041"/><path d="M873.36,1261.87v-1a4,4,0,0,1-3,1.27,3.05,3.05,0,0,1-3.21-3,3,3,0,0,1,3.21-3,3.84,3.84,0,0,1,3,1.25v-1.65c0-1.23-1-1.94-2.32-1.94a3.64,3.64,0,0,0-2.81,1.28l-.66-1a4.76,4.76,0,0,1,3.66-1.52c1.94,0,3.56.87,3.56,3.1v6.3Zm0-1.93v-1.73a3.07,3.07,0,0,0-2.53-1.14,2,2,0,1,0,0,4A3.07,3.07,0,0,0,873.36,1259.94Z" fill="#404041"/><path d="M888.71,1261.87v-6.23c0-1.16-.51-1.9-1.69-1.9a3.21,3.21,0,0,0-2.43,1.41v6.72h-1.43v-6.23c0-1.16-.49-1.9-1.69-1.9a3.2,3.2,0,0,0-2.41,1.43v6.7h-1.43v-9.17h1.43V1254a4,4,0,0,1,3-1.56,2.36,2.36,0,0,1,2.47,1.71,3.85,3.85,0,0,1,3.08-1.71c1.67,0,2.56.93,2.56,2.77v6.63Z" fill="#404041"/><path d="M892.73,1250.44a1,1,0,1,1,1.92,0,1,1,0,0,1-1.92,0Zm.25,11.43v-9.17h1.42v9.17Z" fill="#404041"/><path d="M903.9,1261.87v-1.37a3.83,3.83,0,0,1-3.1,1.6c-2.39,0-4.08-1.82-4.08-4.81s1.67-4.82,4.08-4.82a3.85,3.85,0,0,1,3.1,1.61v-4.88h1.43v12.67Zm0-2.49v-4.16a3.45,3.45,0,0,0-2.75-1.48c-1.85,0-2.95,1.52-2.95,3.55s1.1,3.54,2.95,3.54A3.4,3.4,0,0,0,903.9,1259.38Z" fill="#404041"/><path d="M1032.16,1261.65V1249h5.65c2.2,0,3.55,1.33,3.55,3.23a2.88,2.88,0,0,1-2.22,2.9,3.18,3.18,0,0,1,2.47,3.12c0,2-1.35,3.42-3.67,3.42Zm7.56-9.22a2,2,0,0,0-2.18-2h-3.8v4.09h3.8A2,2,0,0,0,1039.72,1252.43Zm.25,5.63a2.15,2.15,0,0,0-2.35-2.19h-3.88v4.37h3.88A2.09,2.09,0,0,0,1040,1258.06Z" fill="#404041"/><path d="M1043.52,1257.05a4.55,4.55,0,1,1,4.54,4.83A4.51,4.51,0,0,1,1043.52,1257.05Zm7.58,0c0-1.86-1.08-3.53-3-3.53s-3.06,1.67-3.06,3.53,1.1,3.55,3.06,3.55S1051.1,1258.93,1051.1,1257.05Z" fill="#404041"/><path d="M1060.16,1261.65l-2.76-3.76-2.75,3.76H1053l3.51-4.71-3.32-4.47h1.65l2.54,3.5,2.55-3.5h1.65l-3.32,4.47,3.53,4.71Z" fill="#404041"/><path d="M1064.87,1260.26v4.88h-1.43v-12.67h1.43v1.37a3.82,3.82,0,0,1,3.09-1.6c2.42,0,4.09,1.83,4.09,4.81s-1.67,4.83-4.09,4.83A3.75,3.75,0,0,1,1064.87,1260.26Zm5.68-3.21c0-2-1.1-3.53-3-3.53a3.37,3.37,0,0,0-2.73,1.46v4.14a3.39,3.39,0,0,0,2.73,1.48C1069.45,1260.6,1070.55,1259.08,1070.55,1257.05Z" fill="#404041"/><path d="M1074.31,1261.65V1249h1.42v12.67Z" fill="#404041"/><path d="M1078.05,1257.05a4.55,4.55,0,1,1,4.54,4.83A4.5,4.5,0,0,1,1078.05,1257.05Zm7.58,0c0-1.86-1.09-3.53-3-3.53s-3.06,1.67-3.06,3.53,1.1,3.55,3.06,3.55S1085.63,1258.93,1085.63,1257.05Z" fill="#404041"/><path d="M1089.73,1259.73v-6h-1.52v-1.26h1.52V1250h1.42v2.51H1093v1.26h-1.86v5.69c0,.69.31,1.18.93,1.18a1.37,1.37,0,0,0,1-.38l.42,1.07a2.33,2.33,0,0,1-1.71.59A1.88,1.88,0,0,1,1089.73,1259.73Z" fill="#404041"/><path d="M1278.6,1261.65V1249h4.34a6.34,6.34,0,1,1,0,12.67Zm9.2-6.33a4.64,4.64,0,0,0-4.86-4.94h-2.76v9.86h2.76A4.66,4.66,0,0,0,1287.8,1255.32Z" fill="#404041"/><path d="M1291.31,1257.05a4.55,4.55,0,1,1,4.54,4.83A4.51,4.51,0,0,1,1291.31,1257.05Zm7.58,0c0-1.86-1.08-3.53-3-3.53s-3.06,1.67-3.06,3.53,1.1,3.55,3.06,3.55S1298.89,1258.93,1298.89,1257.05Z" fill="#404041"/><path d="M1303,1259.73v-6h-1.52v-1.26H1303V1250h1.43v2.51h1.86v1.26h-1.86v5.69c0,.69.3,1.18.93,1.18a1.36,1.36,0,0,0,1-.38l.42,1.07a2.33,2.33,0,0,1-1.71.59A1.88,1.88,0,0,1,1303,1259.73Z" fill="#404041"/><path d="M1314.61,1260.26v4.88h-1.42v-12.67h1.42v1.37a3.86,3.86,0,0,1,3.1-1.6c2.41,0,4.08,1.83,4.08,4.81s-1.67,4.83-4.08,4.83A3.76,3.76,0,0,1,1314.61,1260.26Zm5.68-3.21c0-2-1.1-3.53-2.94-3.53a3.4,3.4,0,0,0-2.74,1.46v4.14a3.42,3.42,0,0,0,2.74,1.48C1319.19,1260.6,1320.29,1259.08,1320.29,1257.05Z" fill="#404041"/><path d="M1324.05,1261.65V1249h1.43v12.67Z" fill="#404041"/><path d="M1327.79,1257.05a4.55,4.55,0,1,1,4.54,4.83A4.51,4.51,0,0,1,1327.79,1257.05Zm7.58,0c0-1.86-1.08-3.53-3-3.53s-3,1.67-3,3.53,1.1,3.55,3,3.55S1335.37,1258.93,1335.37,1257.05Z" fill="#404041"/><path d="M1339.47,1259.73v-6H1338v-1.26h1.52V1250h1.43v2.51h1.86v1.26h-1.86v5.69c0,.69.3,1.18.93,1.18a1.37,1.37,0,0,0,1-.38l.42,1.07a2.36,2.36,0,0,1-1.71.59A1.88,1.88,0,0,1,1339.47,1259.73Z" fill="#404041"/><path d="M1487.24,980.79V968.12h1.58v11.26h5.89v1.41Z" fill="#404041"/><path d="M1496.62,969.35a1,1,0,1,1,1.92,0,1,1,0,0,1-1.92,0Zm.25,11.44v-9.18h1.42v9.18Z" fill="#404041"/><path d="M1507.34,980.79v-6c0-1.61-.82-2.12-2.06-2.12a3.53,3.53,0,0,0-2.71,1.42v6.71h-1.43v-9.18h1.43v1.33a4.54,4.54,0,0,1,3.26-1.56c1.92,0,2.93,1,2.93,3v6.44Z" fill="#404041"/><path d="M1511.08,976.19a4.59,4.59,0,0,1,4.52-4.81c2.77,0,4.4,2.17,4.4,4.92v.36h-7.42a3.23,3.23,0,0,0,3.3,3.18,4,4,0,0,0,2.83-1.16l.69.93a5,5,0,0,1-3.65,1.4A4.54,4.54,0,0,1,1511.08,976.19Zm4.5-3.63a3.05,3.05,0,0,0-3,3.06h6A3,3,0,0,0,1515.58,972.56Z" fill="#404041"/><path d="M1526.67,976.19a4.53,4.53,0,0,1,4.58-4.81,3.93,3.93,0,0,1,3.36,1.6l-.95.87a2.74,2.74,0,0,0-2.34-1.19c-2,0-3.17,1.5-3.17,3.53s1.22,3.55,3.17,3.55a2.77,2.77,0,0,0,2.34-1.2l.95.88a3.92,3.92,0,0,1-3.36,1.59A4.54,4.54,0,0,1,1526.67,976.19Z" fill="#404041"/><path d="M1536.07,976.19a4.55,4.55,0,1,1,4.54,4.82A4.51,4.51,0,0,1,1536.07,976.19Zm7.58,0c0-1.86-1.09-3.53-3-3.53s-3.06,1.67-3.06,3.53,1.1,3.55,3.06,3.55S1543.65,978.07,1543.65,976.19Z" fill="#404041"/><path d="M1547.46,980.79V968.12h1.43v12.67Z" fill="#404041"/><path d="M1557.93,980.79v-1.3a4.48,4.48,0,0,1-3.27,1.52,2.57,2.57,0,0,1-2.92-2.92v-6.48h1.42v6c0,1.62.82,2.09,2,2.09a3.49,3.49,0,0,0,2.72-1.39v-6.74h1.42v9.18Z" fill="#404041"/><path d="M1573.28,980.79v-6.24c0-1.15-.52-1.89-1.69-1.89a3.23,3.23,0,0,0-2.44,1.4v6.73h-1.42v-6.24c0-1.15-.49-1.89-1.69-1.89a3.19,3.19,0,0,0-2.41,1.42v6.71h-1.43v-9.18h1.43v1.33a4,4,0,0,1,3-1.56,2.36,2.36,0,0,1,2.47,1.71,3.88,3.88,0,0,1,3.08-1.71c1.67,0,2.56.93,2.56,2.78v6.63Z" fill="#404041"/><path d="M1583.74,980.79v-6c0-1.61-.82-2.12-2-2.12a3.55,3.55,0,0,0-2.72,1.42v6.71h-1.42v-9.18H1579v1.33a4.56,4.56,0,0,1,3.27-1.56c1.92,0,2.93,1,2.93,3v6.44Z" fill="#404041"/><path d="M1592.38,976.19a4.53,4.53,0,0,1,4.58-4.81,3.93,3.93,0,0,1,3.36,1.6l-1,.87a2.74,2.74,0,0,0-2.34-1.19c-2,0-3.17,1.5-3.17,3.53s1.22,3.55,3.17,3.55a2.77,2.77,0,0,0,2.34-1.2l1,.88A3.92,3.92,0,0,1,1597,981,4.54,4.54,0,0,1,1592.38,976.19Z" fill="#404041"/><path d="M1608.52,980.79v-6c0-1.62-.83-2.09-2.07-2.09a3.59,3.59,0,0,0-2.71,1.42v6.71h-1.43V968.12h1.43v4.82a4.55,4.55,0,0,1,3.28-1.56,2.58,2.58,0,0,1,2.93,2.93v6.48Z" fill="#404041"/><path d="M1618.53,980.79v-1a4,4,0,0,1-3,1.27,3.05,3.05,0,0,1-3.21-3,3,3,0,0,1,3.21-3,3.82,3.82,0,0,1,3,1.26v-1.66c0-1.23-1-1.93-2.32-1.93a3.66,3.66,0,0,0-2.81,1.27l-.66-1a4.81,4.81,0,0,1,3.66-1.52c1.94,0,3.56.88,3.56,3.1v6.31Zm0-1.94v-1.73A3.07,3.07,0,0,0,1616,976a2,2,0,1,0,0,4A3.07,3.07,0,0,0,1618.53,978.85Z" fill="#404041"/><path d="M1622.8,980.79v-9.18h1.43v1.48a3.89,3.89,0,0,1,3.06-1.67v1.46a3.1,3.1,0,0,0-.57,0,3.35,3.35,0,0,0-2.49,1.46v6.5Z" fill="#404041"/><path d="M1629.36,978.87v-6h-1.52v-1.25h1.52V969.1h1.42v2.51h1.86v1.25h-1.86v5.7c0,.69.3,1.18.93,1.18a1.37,1.37,0,0,0,1-.38l.42,1.06a2.3,2.3,0,0,1-1.71.59A1.87,1.87,0,0,1,1629.36,978.87Z" fill="#404041"/><path d="M494.78,477.44V645.67H663" fill="none" stroke="#49cfb4" stroke-linecap="round" stroke-miterlimit="10"/><circle cx="527.07" cy="607.14" r="4.56" fill="#49cfb4"/><circle cx="531.64" cy="620.83" r="4.56" fill="#49cfb4"/><circle cx="540.76" cy="594.16" r="4.56" fill="#49cfb4"/><circle cx="540.76" cy="580.47" r="4.56" fill="#49cfb4"/><circle cx="550.86" cy="585.03" r="4.56" fill="#49cfb4"/><circle cx="546.3" cy="567.49" r="4.56" fill="#49cfb4"/><circle cx="557.88" cy="580.47" r="4.56" fill="#49cfb4"/><circle cx="559.8" cy="552.8" r="4.56" fill="#49cfb4"/><circle cx="601.4" cy="537.16" r="4.56" fill="#49cfb4"/><circle cx="587.71" cy="528.03" r="4.56" fill="#49cfb4"/><circle cx="601.4" cy="515.26" r="4.56" fill="#49cfb4"/><circle cx="583.06" cy="577.86" r="4.56" fill="#49cfb4"/><circle cx="596.84" cy="571.39" r="4.56" fill="#49cfb4"/><circle cx="592.27" cy="607.85" r="4.56" fill="#49cfb4"/><circle cx="576.46" cy="561.56" r="4.56" fill="#49cfb4"/><circle cx="578.58" cy="541.72" r="4.56" fill="#49cfb4"/><circle cx="557.88" cy="515.26" r="4.56" fill="#49cfb4"/><circle cx="601.4" cy="552.8" r="4.56" fill="#49cfb4"/><circle cx="630.42" cy="561.56" r="4.56" fill="#49cfb4"/><circle cx="550.86" cy="552.8" r="4.56" fill="#49cfb4"/><circle cx="555.43" cy="561.56" r="4.56" fill="#49cfb4"/><circle cx="561.63" cy="594.16" r="4.56" fill="#49cfb4"/><circle cx="553.31" cy="603.29" r="4.56" fill="#49cfb4"/><circle cx="569.29" cy="571.39" r="4.56" fill="#49cfb4"/><polyline points="739 477.44 739 645.67 907.23 645.67" fill="none" stroke="#49cfb4" stroke-linecap="round" stroke-linejoin="round"/><polyline points="760.44 617.64 773.32 589.6 816.52 609.62 845.88 525.29 862.71 567.1 900.64 523.9" fill="none" stroke="#49cfb4" stroke-linecap="round" stroke-linejoin="round"/><circle cx="760.44" cy="617.64" r="5.94" fill="#49cfb4"/><circle cx="773.31" cy="589.6" r="5.94" fill="#49cfb4"/><circle cx="816.52" cy="609.62" r="5.94" fill="#49cfb4"/><circle cx="845.88" cy="525.29" r="5.94" fill="#49cfb4"/><circle cx="862.71" cy="567.1" r="5.94" fill="#49cfb4"/><circle cx="900.64" cy="523.9" r="5.94" fill="#49cfb4"/><polyline points="983.21 477.44 983.21 645.67 1151.45 645.67" fill="none" stroke="#49cfb4" stroke-linecap="round" stroke-linejoin="round"/><circle cx="1055.07" cy="580.26" r="29.87" fill="#49cfb4" opacity="0.4"/><circle cx="1012.53" cy="615.94" r="8.5" fill="#49cfb4" opacity="0.4"/><circle cx="1039.67" cy="614.3" r="6.86" fill="#49cfb4" opacity="0.4"/><circle cx="1023.48" cy="593.52" r="9.03" fill="#49cfb4" opacity="0.4"/><circle cx="1092.86" cy="595.96" r="11.47" fill="#49cfb4" opacity="0.4"/><circle cx="1077.6" cy="533.06" r="10.02" fill="#49cfb4" opacity="0.4"/><circle cx="1103.59" cy="522.75" r="12.6" fill="#49cfb4" opacity="0.4"/><circle cx="1107.48" cy="548.03" r="8.33" fill="#49cfb4" opacity="0.4"/><circle cx="1089.7" cy="560.86" r="17.78" fill="#49cfb4" opacity="0.4"/><circle cx="1107.48" cy="575.58" r="5.74" fill="#49cfb4" opacity="0.4"/><rect x="1471.64" y="477.44" width="33.65" height="33.65" fill="#cffff2" stroke="#fff" stroke-miterlimit="10"/><rect x="1505.29" y="477.44" width="33.65" height="33.65" fill="#cffff2" stroke="#fff" stroke-miterlimit="10"/><rect x="1538.93" y="477.44" width="33.65" height="33.65" fill="#6ae8cc" stroke="#fff" stroke-miterlimit="10"/><rect x="1572.58" y="477.44" width="33.65" height="33.65" fill="#6ae8cc" stroke="#fff" stroke-miterlimit="10"/><rect x="1606.23" y="477.44" width="33.65" height="33.65" fill="#cffff2" stroke="#fff" stroke-miterlimit="10"/><rect x="1471.64" y="511.09" width="33.65" height="33.65" fill="#cffff2" stroke="#fff" stroke-miterlimit="10"/><rect x="1505.29" y="511.09" width="33.65" height="33.65" fill="#6ae8cc" stroke="#fff" stroke-miterlimit="10"/><rect x="1538.93" y="511.09" width="33.65" height="33.65" fill="#49cfb4" stroke="#fff" stroke-miterlimit="10"/><rect x="1572.58" y="511.09" width="33.65" height="33.65" fill="#49cfb4" stroke="#fff" stroke-miterlimit="10"/><rect x="1606.23" y="511.09" width="33.65" height="33.65" fill="#cffff2" stroke="#fff" stroke-miterlimit="10"/><rect x="1471.64" y="544.73" width="33.65" height="33.65" fill="#6ae8cc" stroke="#fff" stroke-miterlimit="10"/><rect x="1505.29" y="544.73" width="33.65" height="33.65" fill="#49cfb4" stroke="#fff" stroke-miterlimit="10"/><rect x="1538.93" y="544.73" width="33.65" height="33.65" fill="#00b398" stroke="#fff" stroke-miterlimit="10"/><rect x="1572.58" y="544.73" width="33.65" height="33.65" fill="#00b398" stroke="#fff" stroke-miterlimit="10"/><rect x="1606.23" y="544.73" width="33.65" height="33.65" fill="#49cfb4" stroke="#fff" stroke-miterlimit="10"/><rect x="1471.64" y="578.38" width="33.65" height="33.65" fill="#cffff2" stroke="#fff" stroke-miterlimit="10"/><rect x="1505.29" y="578.38" width="33.65" height="33.65" fill="#6ae8cc" stroke="#fff" stroke-miterlimit="10"/><rect x="1538.93" y="578.38" width="33.65" height="33.65" fill="#49cfb4" stroke="#fff" stroke-miterlimit="10"/><rect x="1572.58" y="578.38" width="33.65" height="33.65" fill="#49cfb4" stroke="#fff" stroke-miterlimit="10"/><rect x="1606.23" y="578.38" width="33.65" height="33.65" fill="#6ae8cc" stroke="#fff" stroke-miterlimit="10"/><rect x="1471.64" y="612.03" width="33.65" height="33.65" fill="#cffff2" stroke="#fff" stroke-miterlimit="10"/><rect x="1505.29" y="612.03" width="33.65" height="33.65" fill="#cffff2" stroke="#fff" stroke-miterlimit="10"/><rect x="1538.93" y="612.03" width="33.65" height="33.65" fill="#6ae8cc" stroke="#fff" stroke-miterlimit="10"/><rect x="1572.58" y="612.03" width="33.65" height="33.65" fill="#6ae8cc" stroke="#fff" stroke-miterlimit="10"/><rect x="1606.23" y="612.03" width="33.65" height="33.65" fill="#cffff2" stroke="#fff" stroke-miterlimit="10"/><line x1="663.02" y1="830.66" x2="654.17" y2="828.82" fill="none" stroke="#506489" stroke-linecap="round" stroke-miterlimit="10"/><line x1="654.17" y1="828.82" x2="645.31" y2="850.39" fill="none" stroke="#506489" stroke-linecap="round" stroke-miterlimit="10"/><line x1="645.31" y1="850.39" x2="636.46" y2="883.56" fill="none" stroke="#506489" stroke-linecap="round" stroke-miterlimit="10"/><line x1="636.46" y1="883.56" x2="627.6" y2="907.5" fill="none" stroke="#506489" stroke-linecap="round" stroke-miterlimit="10"/><line x1="627.6" y1="907.5" x2="618.75" y2="916.94" fill="none" stroke="#506489" stroke-linecap="round" stroke-miterlimit="10"/><line x1="618.75" y1="916.94" x2="609.89" y2="909.22" fill="none" stroke="#506489" stroke-linecap="round" stroke-miterlimit="10"/><line x1="609.89" y1="909.22" x2="601.04" y2="908.91" fill="none" stroke="#506489" stroke-linecap="round" stroke-miterlimit="10"/><line x1="601.04" y1="908.91" x2="592.18" y2="912.37" fill="none" stroke="#506489" stroke-linecap="round" stroke-miterlimit="10"/><line x1="592.18" y1="912.37" x2="583.33" y2="906.65" fill="none" stroke="#506489" stroke-linecap="round" stroke-miterlimit="10"/><line x1="583.33" y1="906.65" x2="574.48" y2="919.42" fill="none" stroke="#506489" stroke-linecap="round" stroke-miterlimit="10"/><line x1="574.48" y1="919.42" x2="565.62" y2="926.48" fill="none" stroke="#506489" stroke-linecap="round" stroke-miterlimit="10"/><line x1="565.62" y1="926.48" x2="556.77" y2="912.25" fill="none" stroke="#506489" stroke-linecap="round" stroke-miterlimit="10"/><line x1="556.77" y1="912.25" x2="547.91" y2="913.1" fill="none" stroke="#506489" stroke-linecap="round" stroke-miterlimit="10"/><line x1="547.91" y1="913.1" x2="539.06" y2="903.81" fill="none" stroke="#506489" stroke-linecap="round" stroke-miterlimit="10"/><line x1="539.06" y1="903.81" x2="530.2" y2="894.22" fill="none" stroke="#506489" stroke-linecap="round" stroke-miterlimit="10"/><line x1="530.2" y1="894.22" x2="521.35" y2="911.35" fill="none" stroke="#506489" stroke-linecap="round" stroke-miterlimit="10"/><line x1="521.35" y1="911.35" x2="512.49" y2="911.6" fill="none" stroke="#506489" stroke-linecap="round" stroke-miterlimit="10"/><line x1="512.49" y1="911.6" x2="503.64" y2="921.41" fill="none" stroke="#506489" stroke-linecap="round" stroke-miterlimit="10"/><line x1="503.64" y1="921.41" x2="494.78" y2="926.49" fill="none" stroke="#506489" stroke-linecap="round" stroke-miterlimit="10"/><polygon points="907.23 942.69 739 942.69 739 891.51 747.41 905.62 755.82 899.41 764.23 875.74 772.64 886.61 781.06 866.95 789.47 867.61 797.88 882.1 806.29 862.01 814.7 866.57 823.12 856.38 831.53 854.45 839.94 864.34 848.35 857.12 856.76 852.85 865.17 830.08 873.59 822.24 882 827.31 890.41 811.96 898.82 809.4 907.23 791.26 907.23 942.69" fill="#506489"/><polygon points="1151.45 930.76 983.21 930.76 983.21 855.7 991.62 864.47 1000.03 857.23 1008.45 849.61 1016.86 849.99 1025.27 835.51 1033.68 835.51 1042.09 837.04 1050.51 834.37 1058.92 841.99 1067.33 837.8 1075.74 831.7 1084.15 831.7 1092.57 827.89 1100.98 825.99 1109.39 830.18 1117.8 821.03 1126.21 803.89 1134.62 785.99 1143.04 775.32 1151.45 777.22 1151.45 930.76" fill="#8395b9"/><polygon points="1151.45 930.76 983.21 930.76 983.21 912.09 991.62 913.23 1000.03 911.33 1008.45 915.52 1016.86 907.9 1025.27 911.33 1033.68 913.23 1042.09 914.75 1050.51 910.18 1058.92 905.61 1067.33 881.99 1075.74 878.56 1084.15 875.9 1092.57 871.32 1100.98 874.75 1109.39 871.71 1117.8 863.32 1126.21 839.7 1134.62 807.7 1143.04 787.89 1151.45 791.32 1151.45 930.76" fill="#506489"/><path d="M1395.65,853H1227.43v32.43l21,6.84s14.24,5.55,21,5.55,14.46-14.35,21-14.35,13.81,15.57,21,15.57,14,4.74,21,4.74,10.77,24,21,24,16.08-28.71,21-28.71,21-13.27,21-13.27Z" fill="#8395b9"/><path d="M1395.65,853H1227.43v29.05s7.55,5.48,21,5.48,13.47,5.55,21,5.55,14.3-13.67,21-13.67,12.82-1.81,21,2.7a41.31,41.31,0,0,0,21,5.42c6,0,10.47,9.75,21,9.75s9.15-13.81,21-13.81a43.09,43.09,0,0,0,21-5.82Z" fill="#506489"/><path d="M1395.65,853H1227.43V874l21,2.1s7.77.81,21,.81,13.64-13.68,21-13.68,9.58,14.9,21,14.9,9.79-7.45,21-7.45,2.76,10.43,21,10.43,6.53,1.08,21,1.08,21-7.85,21-7.85Z" fill="#8395b9"/><path d="M1395.65,853H1227.43v12.8s15.35-4.94,21,.74,10.08,9.62,21,9.62,14.61-16.39,21-16.39,13.09,14.15,21,9.48,10,3.05,21,.68,12,5.68,21,5.68,15.65.12,21-5,21-5.82,21-5.82Z" fill="#506489"/><path d="M1395.66,853H1227.44V820.6s16.57-2.38,21-6.84,8.86-5.55,21-5.55,15.08,14.36,21,14.36,14.37-8.92,21-15.58,9.19.42,21-4.74,15.72-24,21-24,19.48,23.5,21,28.71,21,13.27,21,13.27Z" fill="#8395b9"/><path d="M1395.66,853H1227.44V824s14-8,21-5.49,14.09-12.5,21-5.55,14.78,12.73,21,13.68,15.3,1,21-2.71,15-.5,21-5.42,14-10.42,21-9.75,14.24,13.23,21,13.82,21,5.82,21,5.82Z" fill="#8395b9"/><path d="M1395.66,853H1227.44V832.11s11.24-7.06,21-2.1,8.77-3.2,21-.81,11.79,13.68,21,13.68,9.75-13,21-14.9,10.88,7.71,21,7.45,14.18-5,21-10.43,15.14-3.28,21-1.08l21,7.85Z" fill="#506489"/><path d="M1395.66,853H1227.44v-12.8s8.33-.75,21-.75,15.24-8.8,21-9.61,13.19,15.57,21,16.39,11.27-14.57,21-9.48,8.42-.68,21-.68,11.8-3.77,21-5.69,11.88-5.12,21,5a20.09,20.09,0,0,0,21,5.82Z" fill="#8395b9"/><path d="M1374.63,840.85c-19.89-10.83-7,3.38-21,3.38s-7.19,8.81-21,5.35-14.22-11.48-21-6.7-4.91,7.45-21,7.45-13.63-4.07-21-10.84-6.64-.52-21,5.42-21,4.81-21,4.81V853h0v3.32s14-5,21,4.8,12.24,14.93,21,5.42,12.45-10.83,21-10.83,8.5,17.6,21,7.44,12.46.09,21-6.7,9.08,5.35,21,5.35,16.24,16.32,21,3.39,21-8.54,21-8.54V853h0v-3.66S1394.53,851.67,1374.63,840.85Z" fill="#506489"/><rect x="1614.21" y="806.61" width="25.66" height="125.01" fill="#506489"/><rect x="1578.57" y="847.29" width="25.66" height="84.33" fill="#506489"/><rect x="1542.93" y="817.12" width="25.66" height="114.5" fill="#506489"/><rect x="1507.28" y="835.29" width="25.66" height="96.34" fill="#506489"/><rect x="1471.64" y="851.23" width="25.66" height="80.4" fill="#506489"/><line x1="1627.01" y1="776.57" x2="1591.27" y2="790.11" fill="#999" stroke="#506489" stroke-linecap="round" stroke-linejoin="round"/><line x1="1591.27" y1="790.11" x2="1555.54" y2="777.12" fill="#999" stroke="#506489" stroke-linecap="round" stroke-linejoin="round"/><line x1="1555.54" y1="777.12" x2="1519.8" y2="784.87" fill="#999" stroke="#506489" stroke-linecap="round" stroke-linejoin="round"/><line x1="1519.8" y1="784.87" x2="1484.06" y2="808.66" fill="#999" stroke="#506489" stroke-linecap="round" stroke-linejoin="round"/><path d="M1751.79,979l.93-1.2a5.35,5.35,0,0,0,4,1.81c2.26,0,3-1.22,3-2.19,0-1.52-1.54-1.93-3.21-2.39-2-.53-4.29-1.1-4.29-3.59,0-2.09,1.86-3.52,4.35-3.52a6,6,0,0,1,4.5,1.77l-1,1.16a4.87,4.87,0,0,0-3.67-1.52c-1.52,0-2.6.82-2.6,2s1.46,1.66,3.08,2.09c2.07.56,4.42,1.2,4.42,3.86,0,1.84-1.25,3.72-4.67,3.72A6.26,6.26,0,0,1,1751.79,979Z" fill="#404041"/><path d="M1763.62,980.79V968.12H1765v12.67Z" fill="#404041"/><path d="M1767.36,976.19a4.55,4.55,0,1,1,4.54,4.82A4.51,4.51,0,0,1,1767.36,976.19Zm7.58,0c0-1.86-1.08-3.53-3-3.53s-3.06,1.67-3.06,3.53,1.1,3.55,3.06,3.55S1774.94,978.07,1774.94,976.19Z" fill="#404041"/><path d="M1780.18,979.4v4.88h-1.43V971.61h1.43V973a3.83,3.83,0,0,1,3.1-1.6c2.41,0,4.08,1.83,4.08,4.81s-1.67,4.82-4.08,4.82A3.77,3.77,0,0,1,1780.18,979.4Zm5.68-3.21c0-2-1.1-3.53-2.94-3.53a3.37,3.37,0,0,0-2.74,1.46v4.14a3.39,3.39,0,0,0,2.74,1.48C1784.76,979.74,1785.86,978.22,1785.86,976.19Z" fill="#404041"/><path d="M1789.09,976.19a4.59,4.59,0,0,1,4.52-4.81c2.77,0,4.4,2.17,4.4,4.92v.36h-7.42a3.23,3.23,0,0,0,3.3,3.18,4,4,0,0,0,2.83-1.16l.69.93a5,5,0,0,1-3.65,1.4A4.54,4.54,0,0,1,1789.09,976.19Zm4.5-3.63a3.05,3.05,0,0,0-3,3.06h6A3,3,0,0,0,1793.59,972.56Z" fill="#404041"/><path d="M1804.68,976.19a4.53,4.53,0,0,1,4.58-4.81,3.93,3.93,0,0,1,3.36,1.6l-.95.87a2.74,2.74,0,0,0-2.34-1.19c-1.95,0-3.17,1.5-3.17,3.53s1.22,3.55,3.17,3.55a2.77,2.77,0,0,0,2.34-1.2l.95.88a3.92,3.92,0,0,1-3.36,1.59A4.54,4.54,0,0,1,1804.68,976.19Z" fill="#404041"/><path d="M1820.82,980.79v-6c0-1.62-.83-2.09-2.07-2.09a3.59,3.59,0,0,0-2.71,1.42v6.71h-1.43V968.12H1816v4.82a4.55,4.55,0,0,1,3.28-1.56,2.58,2.58,0,0,1,2.93,2.93v6.48Z" fill="#404041"/><path d="M1830.83,980.79v-1a4,4,0,0,1-3,1.27,3.05,3.05,0,0,1-3.21-3,3,3,0,0,1,3.21-3,3.82,3.82,0,0,1,3,1.26v-1.66c0-1.23-1-1.93-2.32-1.93a3.66,3.66,0,0,0-2.81,1.27l-.66-1a4.81,4.81,0,0,1,3.66-1.52c1.94,0,3.56.88,3.56,3.1v6.31Zm0-1.94v-1.73a3.07,3.07,0,0,0-2.52-1.14,2,2,0,1,0,0,4A3.07,3.07,0,0,0,1830.83,978.85Z" fill="#404041"/><path d="M1835.1,980.79v-9.18h1.43v1.48a3.89,3.89,0,0,1,3.06-1.67v1.46a3.1,3.1,0,0,0-.57,0,3.35,3.35,0,0,0-2.49,1.46v6.5Z" fill="#404041"/><path d="M1841.66,978.87v-6h-1.52v-1.25h1.52V969.1h1.42v2.51h1.86v1.25h-1.86v5.7c0,.69.3,1.18.93,1.18a1.37,1.37,0,0,0,1-.38l.42,1.06a2.3,2.3,0,0,1-1.71.59A1.87,1.87,0,0,1,1841.66,978.87Z" fill="#404041"/><circle cx="1721.58" cy="867.62" r="5.66" fill="#506489"/><circle cx="1721.58" cy="919.72" r="5.66" fill="#8395b9"/><circle cx="1878.5" cy="804.9" r="5.66" fill="#506489"/><circle cx="1878.5" cy="835.6" r="5.66" fill="#8395b9"/><line x1="1721.58" y1="867.62" x2="1878.5" y2="804.9" fill="none" stroke="#506489" stroke-miterlimit="10"/><line x1="1721.58" y1="919.72" x2="1878.5" y2="835.6" fill="none" stroke="#8395b9" stroke-miterlimit="10"/><circle cx="1752.51" cy="562.93" r="46.87" fill="#49cfb4" opacity="0.6"/><circle cx="1827" cy="562.93" r="46.87" fill="#49cfb4" opacity="0.6"/><rect x="494.78" y="1173.66" width="17.76" height="62.49" fill="#ff8490"/><rect x="516.28" y="1157.57" width="17.76" height="78.58" fill="#ff8490"/><rect x="537.78" y="1129.51" width="17.76" height="106.64" fill="#ff8490"/><rect x="559.27" y="1106.58" width="17.76" height="129.57" fill="#ff8490"/><rect x="580.77" y="1067.91" width="17.76" height="168.24" fill="#ff8490"/><rect x="602.27" y="1091.87" width="17.76" height="144.28" fill="#ff8490"/><rect x="623.77" y="1116.51" width="17.76" height="119.64" fill="#ff8490"/><rect x="645.26" y="1143.89" width="17.76" height="92.26" fill="#ff8490"/><rect x="792.04" y="1059.77" width="31.78" height="33.65" fill="#ff8490" stroke="#fff" stroke-miterlimit="10"/><rect x="823.12" y="1059.77" width="31.78" height="33.65" fill="#ff8490" stroke="#fff" stroke-miterlimit="10"/><rect x="772.64" y="1093.42" width="50.47" height="33.65" fill="#ff8490" stroke="#fff" stroke-miterlimit="10"/><rect x="823.12" y="1093.42" width="56.08" height="33.65" fill="#ff8490" stroke="#fff" stroke-miterlimit="10"/><rect x="759.56" y="1127.06" width="63.56" height="33.65" fill="#ff8490" stroke="#fff" stroke-miterlimit="10"/><rect x="823.12" y="1127.06" width="63.56" height="33.65" fill="#ff8490" stroke="#fff" stroke-miterlimit="10"/><rect x="739" y="1160.71" width="84.12" height="33.65" fill="#ff8490" stroke="#fff" stroke-miterlimit="10"/><rect x="823.12" y="1160.71" width="84.12" height="33.65" fill="#ff8490" stroke="#fff" stroke-miterlimit="10"/><rect x="781.06" y="1194.36" width="42.06" height="33.65" fill="#ff8490" stroke="#fff" stroke-miterlimit="10"/><rect x="823.12" y="1194.36" width="42.06" height="33.65" fill="#ff8490" stroke="#fff" stroke-miterlimit="10"/><line x1="996.81" y1="1124.99" x2="996.81" y2="1107.88" fill="none" stroke="#ff8490" stroke-linecap="round" stroke-linejoin="round"/><line x1="1151.45" y1="1124.99" x2="1151.45" y2="1107.88" fill="none" stroke="#ff8490" stroke-linecap="round" stroke-linejoin="round"/><line x1="996.81" y1="1116.44" x2="1023.09" y2="1116.44" fill="none" stroke="#ff8490" stroke-linecap="round" stroke-linejoin="round"/><line x1="1125.17" y1="1116.44" x2="1151.45" y2="1116.44" fill="none" stroke="#ff8490" stroke-linecap="round" stroke-linejoin="round"/><rect x="1023.09" y="1098.89" width="47.85" height="35.09" fill="#ff8490"/><rect x="1070.94" y="1098.89" width="54.24" height="35.09" fill="#ffbcc1"/><line x1="983.21" y1="1191.54" x2="983.21" y2="1174.43" fill="none" stroke="#ff8490" stroke-linecap="round" stroke-linejoin="round"/><line x1="1120.48" y1="1191.54" x2="1120.48" y2="1174.43" fill="none" stroke="#ff8490" stroke-linecap="round" stroke-linejoin="round"/><line x1="983.21" y1="1182.99" x2="1009.49" y2="1182.99" fill="none" stroke="#ff8490" stroke-linecap="round" stroke-linejoin="round"/><line x1="1094.21" y1="1182.99" x2="1120.48" y2="1182.99" fill="none" stroke="#ff8490" stroke-linecap="round" stroke-linejoin="round"/><rect x="1009.49" y="1165.44" width="30.49" height="35.09" fill="#ff8490"/><rect x="1039.97" y="1165.44" width="54.24" height="35.09" fill="#ffbcc1"/><line x1="1234.42" y1="1105.8" x2="1325.23" y2="1105.8" fill="none" stroke="#ff8490" stroke-miterlimit="10"/><line x1="1270.03" y1="1152.03" x2="1388.56" y2="1152.03" fill="none" stroke="#ff8490" stroke-miterlimit="10"/><line x1="1296.95" y1="1198.27" x2="1388.56" y2="1198.27" fill="none" stroke="#ff8490" stroke-miterlimit="10"/><circle cx="1234.42" cy="1105.8" r="7" fill="#ffbcc1"/><circle cx="1270.03" cy="1152.03" r="7" fill="#ffbcc1"/><circle cx="1296.95" cy="1198.27" r="7" fill="#ffbcc1"/><circle cx="1325.23" cy="1105.8" r="7" fill="#ff8490"/><circle cx="1388.66" cy="1152.03" r="7" fill="#ff8490"/><circle cx="1388.62" cy="1198.27" r="7" fill="#ff8490"/><rect x="1295.67" y="484.29" width="42.34" height="19.96" fill="#49cfb4"/><rect x="1252.41" y="530.23" width="42.34" height="19.96" fill="#49cfb4"/><rect x="1338.94" y="530.23" width="42.34" height="19.96" fill="#49cfb4"/><rect x="1224.27" y="574.54" width="42.34" height="19.96" fill="#49cfb4"/><rect x="1280.55" y="574.54" width="42.34" height="19.96" fill="#49cfb4"/><rect x="1224.27" y="574.54" width="42.34" height="19.96" fill="#49cfb4"/><rect x="1280.55" y="574.54" width="42.34" height="19.96" fill="#49cfb4"/><rect x="1338.94" y="574.54" width="42.34" height="19.96" fill="#49cfb4"/><rect x="1224.27" y="618.85" width="42.34" height="19.96" fill="#49cfb4"/><rect x="1280.55" y="618.85" width="42.34" height="19.96" fill="#49cfb4"/><rect x="1224.27" y="618.85" width="42.34" height="19.96" fill="#49cfb4"/><rect x="1280.55" y="618.85" width="42.34" height="19.96" fill="#49cfb4"/><rect x="1338.94" y="618.85" width="42.34" height="19.96" fill="#49cfb4"/><polyline points="1316.85 504.26 1316.85 519.76 1273.59 519.76 1273.59 530.23" fill="none" stroke="#49cfb4" stroke-linecap="round" stroke-linejoin="round"/><polyline points="1316.85 504.26 1316.85 519.76 1360.11 519.76 1360.11 530.23" fill="none" stroke="#49cfb4" stroke-linecap="round" stroke-linejoin="round"/><line x1="1273.59" y1="550.2" x2="1273.59" y2="560.47" fill="none" stroke="#49cfb4" stroke-linecap="round" stroke-linejoin="round"/><line x1="1360.11" y1="550.2" x2="1360.11" y2="574.54" fill="none" stroke="#49cfb4" stroke-linecap="round" stroke-linejoin="round"/><line x1="1360.11" y1="594.5" x2="1360.11" y2="618.85" fill="none" stroke="#49cfb4" stroke-linecap="round" stroke-linejoin="round"/><line x1="1301.73" y1="594.5" x2="1301.73" y2="618.85" fill="none" stroke="#49cfb4" stroke-linecap="round" stroke-linejoin="round"/><line x1="1245.44" y1="594.5" x2="1245.44" y2="618.85" fill="none" stroke="#49cfb4" stroke-linecap="round" stroke-linejoin="round"/><polyline points="1245.44 574.54 1245.44 560.47 1273.59 560.47" fill="none" stroke="#49cfb4" stroke-linecap="round" stroke-linejoin="round"/><polyline points="1301.73 574.54 1301.73 560.47 1273.59 560.47" fill="none" stroke="#49cfb4" stroke-linecap="round" stroke-linejoin="round"/></svg>