<?xml version="1.0" encoding="UTF-8"?><svg xmlns="http://www.w3.org/2000/svg" width="960" height="720" viewBox="0 0 960 720"><g id="a"/><g id="b"><g><g><path d="M355.52,444.97l-65.48,37.8c10.79,18.62,23.94,35.7,39.07,50.81l53.42-53.42c-10.47-10.46-19.54-22.3-27.01-35.19Z" fill="#0072bb"/><path d="M338.49,404l-73.01,19.56c5.62,20.98,13.93,40.85,24.56,59.21l65.48-37.8c-7.36-12.71-13.13-26.46-17.03-40.98Z" fill="#6099d1"/><path d="M332.7,360h-75.56c0,21.99,2.91,43.29,8.34,63.56l73.01-19.56c-3.77-14.03-5.79-28.77-5.79-44Z" fill="#0072bb"/><path d="M338.48,316l-73.01-19.56c-5.42,20.28-8.33,41.58-8.33,63.57h75.56c0-15.22,2.03-29.96,5.78-44Z" fill="#6099d1"/><path d="M382.53,239.83l-53.42-53.42c-15.11,15.12-28.27,32.19-39.05,50.82l65.44,37.78c7.46-12.9,16.57-24.72,27.03-35.19Z" fill="#6099d1"/><path d="M458.7,195.79l-19.56-73.01c-20.98,5.62-40.85,13.93-59.21,24.56l37.8,65.48c12.71-7.36,26.46-13.13,40.98-17.03Z" fill="#96bae2"/><path d="M458.7,195.79c14.03-3.77,28.77-5.79,44-5.79V114.44c-21.99,0-43.29,2.91-63.56,8.34l19.56,73.01Z" fill="#0072bb"/><path d="M458.7,524.22l-19.56,73.01c20.28,5.42,41.58,8.33,63.57,8.33v-75.56c-15.22,0-29.96-2.03-44-5.78Z" fill="#96bae2"/><path d="M649.88,275.03l65.48-37.8c-10.79-18.62-23.94-35.7-39.07-50.81l-53.42,53.42c10.47,10.46,19.54,22.3,27.01,35.19Z" fill="#6099d1"/><path d="M666.92,404l73.01,19.56c5.42-20.28,8.33-41.58,8.33-63.57h-75.56c0,15.22-2.03,29.96-5.78,44Z" fill="#96bae2"/><path d="M649.89,444.98l65.44,37.78c10.63-18.37,18.99-38.22,24.59-59.2l-73.01-19.56c-3.88,14.52-9.67,28.26-17.02,40.98Z" fill="#6099d1"/><path d="M622.87,480.17l53.42,53.42c15.11-15.12,28.27-32.19,39.05-50.82l-65.44-37.78c-7.46,12.9-16.57,24.72-27.03,35.19Z" fill="#0072bb"/><path d="M502.7,530v75.56c21.99,0,43.29-2.91,63.56-8.34l-19.56-73.01c-14.03,3.77-28.77,5.79-44,5.79Z" fill="#0072bb"/><path d="M587.67,507.18l37.8,65.48c18.62-10.79,35.7-23.94,50.81-39.07l-53.42-53.42c-10.46,10.47-22.3,19.54-35.19,27.01Z" fill="#6099d1"/><path d="M622.87,239.83l53.42-53.42c-15.12-15.11-32.19-28.27-50.82-39.05l-37.78,65.44c12.9,7.46,24.72,16.57,35.19,27.03Z" fill="#0072bb"/><path d="M473.36,469.48l-14.67,54.74c14.04,3.75,28.78,5.78,44,5.78v-56.67c-10.15,0-19.98-1.35-29.33-3.86Z" fill="#96bae2"/><path d="M446.04,458.13l-28.33,49.07c12.72,7.36,26.46,13.14,40.98,17.02l14.67-54.74c-9.68-2.59-18.84-6.44-27.32-11.35Z" fill="#6099d1"/><path d="M404.58,416.65l-49.06,28.33c7.47,12.89,16.54,24.73,27.01,35.19l40.06-40.06c-6.98-6.97-13.03-14.87-18.01-23.46Z" fill="#0072bb"/><path d="M393.24,389.33l-54.75,14.67c3.9,14.51,9.66,28.26,17.03,40.98l49.06-28.33c-4.91-8.47-8.75-17.64-11.35-27.32Z" fill="#6099d1"/><path d="M389.36,360h-56.67c0,15.23,2.02,29.97,5.79,44l54.75-14.67c-2.51-9.35-3.87-19.18-3.87-29.33Z" fill="#0072bb"/><path d="M404.57,303.34l-49.07-28.33c-7.36,12.72-13.14,26.46-17.02,40.98l54.74,14.67c2.59-9.68,6.44-18.84,11.35-27.32Z" fill="#96bae2"/><path d="M422.59,279.89l-40.06-40.06c-10.46,10.47-19.57,22.29-27.03,35.19l49.07,28.33c4.97-8.6,11.05-16.47,18.02-23.45Z" fill="#6099d1"/><path d="M446.05,261.88l-28.33-49.06c-12.89,7.47-24.73,16.54-35.19,27.01l40.06,40.06c6.97-6.98,14.87-13.03,23.46-18.01Z" fill="#0072bb"/><path d="M446.05,261.88c8.47-4.91,17.64-8.75,27.32-11.35l-14.67-54.75c-14.51,3.9-28.26,9.66-40.98,17.03l28.33,49.06Z" fill="#96bae2"/><path d="M502.7,246.67v-56.67c-15.23,0-29.97,2.02-44,5.79l14.67,54.75c9.35-2.51,19.18-3.87,29.33-3.87Z" fill="#0072bb"/><path d="M393.22,330.67l-54.74-14.67c-3.75,14.04-5.78,28.78-5.78,44h56.67c0-10.15,1.35-19.98,3.86-29.33Z" fill="#6099d1"/><path d="M422.59,440.11l-40.06,40.06c10.47,10.46,22.29,19.57,35.19,27.03l28.33-49.07c-8.6-4.97-16.47-11.05-23.45-18.02Z" fill="#96bae2"/><path d="M559.35,261.87l28.33-49.07c-12.72-7.36-26.46-13.14-40.98-17.02l-14.67,54.74c9.68,2.59,18.84,6.44,27.32,11.35Z" fill="#6099d1"/><path d="M582.81,279.89l40.06-40.06c-10.47-10.46-22.29-19.57-35.19-27.03l-28.33,49.07c8.6,4.97,16.47,11.05,23.45,18.02Z" fill="#0072bb"/><path d="M616.03,360h56.67c0-15.23-2.02-29.97-5.79-44l-54.75,14.67c2.51,9.35,3.87,19.18,3.87,29.33Z" fill="#dce9ff"/><path d="M612.18,389.33l54.74,14.67c3.75-14.04,5.78-28.78,5.78-44h-56.67c0,10.15-1.35,19.98-3.86,29.33Z" fill="#96bae2"/><path d="M600.83,416.66l49.07,28.33c7.36-12.72,13.14-26.46,17.02-40.98l-54.74-14.67c-2.59,9.68-6.44,18.84-11.35,27.32Z" fill="#6099d1"/><path d="M502.7,473.33v56.67c15.23,0,29.97-2.02,44-5.79l-14.67-54.75c-9.35,2.51-19.18,3.87-29.33,3.87Z" fill="#0072bb"/><path d="M532.03,469.46l14.67,54.75c14.51-3.9,28.26-9.66,40.98-17.03l-28.33-49.06c-8.47,4.91-17.64,8.75-27.32,11.35Z" fill="#dce9ff"/><path d="M559.34,458.12l28.33,49.06c12.89-7.47,24.73-16.54,35.19-27.01l-40.06-40.06c-6.97,6.98-14.87,13.03-23.46,18.01Z" fill="#6099d1"/><path d="M582.81,440.11l40.06,40.06c10.46-10.47,19.57-22.29,27.03-35.19l-49.07-28.33c-4.97,8.6-11.05,16.47-18.02,23.45Z" fill="#0072bb"/><path d="M612.16,330.67l54.75-14.67c-3.9-14.51-9.66-28.26-17.03-40.98l-49.06,28.33c4.91,8.47,8.75,17.64,11.35,27.32Z" fill="#0072bb"/><path d="M600.81,303.35l49.06-28.33c-7.47-12.89-16.54-24.73-27.01-35.19l-40.06,40.06c6.98,6.97,13.03,14.87,18.01,23.46Z" fill="#6099d1"/><path d="M532.03,250.52l14.67-54.74c-14.04-3.75-28.78-5.78-44-5.78v56.67c10.15,0,19.98,1.35,29.33,3.86Z" fill="#96bae2"/></g><path d="M439.2,122.76c20.25-5.42,41.53-8.32,63.5-8.32V20c-30.42,0-59.89,4.02-87.95,11.51l24.45,91.25Z" fill="#0072bb"/><path d="M566.26,597.22l24.44,91.19-24.44-91.19c-20.27,5.43-41.57,8.34-63.56,8.34v94.44c30.46,0,59.98-4.03,88.08-11.54l-24.45-91.25s-.04,.01-.06,.02Z" fill="#0072bb"/><path d="M715.34,482.77l81.81,47.23-81.81-47.23c-10.78,18.63-23.94,35.7-39.05,50.82l66.83,66.83c20.99-20.99,39.24-44.71,54.19-70.59l-81.86-47.26c-.04,.07-.07,.13-.11,.2Z" fill="#0072bb"/><path d="M257.14,360h-94.44c0,30.35,4,59.77,11.46,87.77l91.26-24.45c-5.38-20.2-8.27-41.42-8.27-63.32Z" fill="#0072bb"/><path d="M208.11,529.82c14.94,25.88,33.18,49.61,54.17,70.6l66.83-66.83c-15.12-15.11-28.28-32.19-39.07-50.81l-81.79,47.22,81.79-47.22c-.04-.07-.07-.13-.11-.2l-81.82,47.24Z" fill="#0072bb"/><path d="M676.15,186.28l66.83-66.83c-20.9-20.88-44.52-39.05-70.26-53.94l-47.26,81.85c18.57,10.75,35.6,23.86,50.69,38.92Z" fill="#0072bb"/></g></g></svg>