<?xml version="1.0" encoding="utf-8"?>
<!-- Generator: Adobe Illustrator 26.1.0, SVG Export Plug-In . SVG Version: 6.00 Build 0)  -->
<svg version="1.1" id="Layer_1" xmlns="http://www.w3.org/2000/svg" xmlns:xlink="http://www.w3.org/1999/xlink" x="0px" y="0px"
	 viewBox="0 0 960 720" style="enable-background:new 0 0 960 720;" xml:space="preserve">
<style type="text/css">
	.st0{fill:#DCE9FF;}
	.st1{fill:#FFFFFF;}
	.st2{fill:#0072BC;}
	.st3{fill:#589BE5;}
	.st4{fill:#BBBDBF;}
	.st5{fill:none;stroke:#589BE5;stroke-linejoin:round;}
	.st6{fill:none;stroke:#0072BC;stroke-linejoin:round;}
	.st7{opacity:0.85;fill:#FFFFFF;enable-background:new    ;}
	.st8{fill:#B8C9EE;}
	.st9{fill:none;stroke:#0072BC;stroke-linecap:round;stroke-linejoin:round;}
	.st10{opacity:0.4;fill:#0072BC;enable-background:new    ;}
	.st11{fill-rule:evenodd;clip-rule:evenodd;fill:#0072BC;}
	.st12{fill-rule:evenodd;clip-rule:evenodd;fill:#FFFFFF;}
	.st13{fill:#333333;}
	.st14{fill:#8EBEFF;}
</style>
<rect class="st0" width="960" height="720"/>
<g>
	<rect x="353.7" y="616.2" class="st1" width="99.5" height="10"/>
	<rect x="210.3" y="546.3" class="st1" width="386.1" height="12.1"/>
	<path class="st1" d="M226.9,324h352.7c11.1,0,20.1,9,20.1,20.1v180c0,11.1-9,20.1-20.1,20.1H226.9c-11.1,0-20.1-9-20.1-20.1v-180
		C206.8,333,215.8,324,226.9,324z"/>
	<path class="st2" d="M573.5,319H233.3c-17.4,0-31.5,14.5-31.5,32.2v197.9H605V351.3C605,333.5,590.9,319,573.5,319z M596.5,540.6
		H210.3V351.3c0-13.1,10.3-23.7,22.9-23.7h340.2c12.7,0,23,10.6,23,23.7L596.5,540.6z"/>
	<path class="st3" d="M501.8,652.3h-48.6v-28h-99.5v28h-44.5c-5,0.2-9,4.4-8.8,9.5c0.2,4.8,4,8.7,8.8,8.8h192.6c5-0.2,9-4.4,8.8-9.5
		C510.4,656.4,506.6,652.5,501.8,652.3z"/>
	<path class="st2" d="M201.8,586.7c0,14.2,9.2,26.8,22.9,31l0.6,0.2h356.3l0.6-0.2c13.6-4.2,22.9-16.7,22.9-31v-31.1H201.8V586.7z
		 M403.9,577c5.4-0.2,9.9,4,10.1,9.3c0.2,5.4-4,9.9-9.3,10.1c-5.4,0.2-9.9-4-10.1-9.3c0-0.1,0-0.2,0-0.4
		C394.4,581.5,398.6,577.1,403.9,577C403.9,577,403.9,577,403.9,577L403.9,577z"/>
	<rect x="267.7" y="373.5" class="st2" width="96.6" height="18.5"/>
	<rect x="267.7" y="399.2" class="st2" width="44.2" height="18.5"/>
	<rect x="267.7" y="424.9" class="st2" width="26.7" height="18.5"/>
	<rect x="267.7" y="450.7" class="st2" width="17.3" height="18.5"/>
	<rect x="267.7" y="476.4" class="st2" width="9.3" height="18.5"/>
	<rect x="244.7" y="380.5" class="st4" width="13.5" height="4.4"/>
	<rect x="244.7" y="406.3" class="st4" width="13.5" height="4.4"/>
	<rect x="244.7" y="432.9" class="st4" width="13.5" height="4.4"/>
	<rect x="244.7" y="456.9" class="st4" width="13.5" height="4.4"/>
	<rect x="244.7" y="485.1" class="st4" width="13.5" height="4.4"/>
	<rect x="260.6" y="503.7" class="st4" width="13.5" height="4.4"/>
	<rect x="288.9" y="503.7" class="st4" width="13.5" height="4.4"/>
	<rect x="313.8" y="503.7" class="st4" width="13.5" height="4.4"/>
	<rect x="340.7" y="503.7" class="st4" width="13.5" height="4.4"/>
	<rect x="368.2" y="503.7" class="st4" width="13.5" height="4.4"/>
	<rect x="413.3" y="503.7" class="st4" width="11.7" height="4.4"/>
	<rect x="432.9" y="503.7" class="st4" width="11.7" height="4.4"/>
	<rect x="452.6" y="503.7" class="st4" width="11.7" height="4.4"/>
	<rect x="472.2" y="503.7" class="st4" width="11.7" height="4.4"/>
	<rect x="491.9" y="503.7" class="st4" width="11.7" height="4.4"/>
	<rect x="511.5" y="503.7" class="st4" width="11.7" height="4.4"/>
	<rect x="531.2" y="503.7" class="st4" width="11.7" height="4.4"/>
	<rect x="538.1" y="369.1" class="st4" width="11.7" height="4.4"/>
	<rect x="538.1" y="444.5" class="st4" width="11.7" height="4.4"/>
	<polyline class="st5" points="427.5,488.5 431.4,485.7 435.2,488.3 439.1,486.9 443,487.6 446.8,486.3 450.7,489.1 454.5,484 
		458.4,486.3 462.2,487.4 466.1,488.6 470,485.4 473.8,482.4 477.7,466.9 481.5,464.6 485.4,462.8 489.2,459.8 493.1,462.2 
		496.9,460.2 500.8,454.7 504.6,439 508.5,418 512.4,404.9 516.2,407.1 520.1,400.9 523.9,395.1 527.8,389.9 531.6,377.2 
		535.5,371.4 	"/>
	<polyline class="st6" points="419.8,456.7 423.7,454.3 427.5,458.1 431.4,459.5 435.2,461.7 439.1,465.5 443,468.9 446.8,470.2 
		450.7,469.7 454.5,468.6 458.4,468.6 462.2,472.5 466.1,475 470,475 473.8,477.3 477.7,474.3 481.5,470.5 485.4,472.7 489.2,473 
		493.1,472.6 496.9,472.9 500.8,472.7 504.6,469.7 508.5,462.9 512.4,458.6 516.2,455.9 520.1,449 523.9,448 527.8,447.8 
		531.6,447.2 535.5,446.8 	"/>
	<path class="st2" d="M110.6,477.4h123.7c4.3,0,7.7,3.5,7.7,7.7v177.8c0,4.3-3.5,7.7-7.7,7.7H110.6c-4.3,0-7.7-3.5-7.7-7.7V485.1
		C102.9,480.8,106.3,477.4,110.6,477.4z"/>
	<rect x="108.7" y="492.4" class="st1" width="127.5" height="163.1"/>
	<path class="st7" d="M169.8,658.3h5.4c1.1,0,1.9,0.9,1.9,1.9v5.4c0,1.1-0.9,1.9-1.9,1.9h-5.4c-1.1,0-1.9-0.9-1.9-1.9v-5.4
		C167.8,659.2,168.7,658.3,169.8,658.3z"/>
	<path class="st3" d="M169.8,659.1h5.4c0.6,0,1.2,0.5,1.2,1.2v5.4c0,0.6-0.5,1.2-1.2,1.2h-5.4c-0.6,0-1.2-0.5-1.2-1.2v-5.4
		C168.6,659.6,169.1,659.1,169.8,659.1z"/>
	<circle class="st7" cx="172.5" cy="485.1" r="1.4"/>
	<circle class="st3" cx="172.5" cy="485.1" r="0.8"/>
	<path class="st3" d="M172.1,574l-21.4,29.5c-16.3-11.8-19.9-34.7-8.1-51l0,0c6.7-9.6,17.8-15.2,29.5-15V574z"/>
	<path class="st2" d="M172.1,574v-36.5c20.1,0.4,36.1,17.1,35.7,37.3c-0.4,19.1-15.4,34.6-34.5,35.6h-1.2c-7.7,0.1-15.3-2.3-21.4-7
		L172.1,574z"/>
	<circle class="st1" cx="173.2" cy="574.5" r="23.1"/>
	<path class="st2" d="M554.3,453.5h278.2c5.8,0,10.6,4.7,10.6,10.6v195.9c0,5.8-4.7,10.6-10.6,10.6H554.3c-5.8,0-10.6-4.7-10.6-10.6
		V464.1C543.8,458.3,548.5,453.5,554.3,453.5z"/>
	<rect x="559.6" y="471.5" class="st1" width="267.6" height="181.6"/>
	<path class="st3" d="M536,649.2h314.8c3.5,0,6.3,2.8,6.3,6.3v8.9c0,3.5-2.8,6.3-6.3,6.3H536c-3.5,0-6.3-2.8-6.3-6.3v-8.9
		C529.8,652,532.6,649.2,536,649.2z"/>
	<path class="st8" d="M665.7,649.2h55.5l0,0v9.6c0,1-0.8,1.8-1.8,1.8h-52c-1,0-1.8-0.8-1.8-1.8V649.2L665.7,649.2z"/>
	<rect x="595.6" y="603.5" class="st4" width="14.2" height="4.4"/>
	<rect x="578.3" y="594.5" class="st4" width="14.2" height="4.4"/>
	<rect x="578.3" y="577.7" class="st4" width="14.2" height="4.4"/>
	<rect x="578.3" y="544.2" class="st4" width="14.2" height="4.4"/>
	<rect x="578.3" y="561" class="st4" width="14.2" height="4.4"/>
	<rect x="578.3" y="527.4" class="st4" width="14.2" height="4.4"/>
	<rect x="617.1" y="603.5" class="st4" width="14.2" height="4.4"/>
	<rect x="638.6" y="603.5" class="st4" width="14.2" height="4.4"/>
	<rect x="660.1" y="603.5" class="st4" width="14.2" height="4.4"/>
	<polyline class="st9" points="595.6,520.6 595.6,598.3 673.3,598.3 	"/>
	<circle class="st10" cx="628.8" cy="568.1" r="13.8"/>
	<circle class="st10" cx="609.1" cy="584.6" r="3.9"/>
	<circle class="st10" cx="621.7" cy="583.8" r="3.2"/>
	<circle class="st10" cx="614.2" cy="574.2" r="4.2"/>
	<circle class="st10" cx="646.2" cy="575.3" r="5.3"/>
	<circle class="st10" cx="639.2" cy="546.3" r="4.6"/>
	<circle class="st10" cx="651.2" cy="541.5" r="5.8"/>
	<circle class="st10" cx="653" cy="553.2" r="3.8"/>
	<circle class="st10" cx="644.8" cy="559.1" r="8.2"/>
	<circle class="st10" cx="653" cy="565.9" r="2.7"/>
	<rect x="732.8" y="602.9" class="st4" width="10.8" height="4"/>
	<rect x="711.4" y="602.9" class="st4" width="10.8" height="4"/>
	<rect x="709.4" y="549.4" class="st4" width="5.4" height="4"/>
	<rect x="717.5" y="561.9" class="st4" width="5.4" height="4"/>
	<rect x="730.8" y="543.5" class="st4" width="5.4" height="4"/>
	<rect x="738.9" y="555.5" class="st4" width="5.4" height="4"/>
	<rect x="752.2" y="533.1" class="st4" width="5.4" height="4"/>
	<rect x="760.3" y="546.2" class="st4" width="5.4" height="4"/>
	<rect x="773.6" y="518.6" class="st4" width="5.4" height="4"/>
	<rect x="781.7" y="535" class="st4" width="5.4" height="4"/>
	<rect x="795" y="510" class="st4" width="5.4" height="4"/>
	<rect x="803.1" y="518.6" class="st4" width="5.4" height="4"/>
	<rect x="775.6" y="602.9" class="st4" width="10.8" height="4"/>
	<rect x="754.2" y="602.9" class="st4" width="10.8" height="4"/>
	<rect x="797" y="602.9" class="st4" width="10.8" height="4"/>
	<rect x="708.5" y="555.7" class="st2" width="7.4" height="43.2"/>
	<rect x="729.9" y="549.4" class="st2" width="7.4" height="49.5"/>
	<rect x="751.3" y="539.5" class="st2" width="7.4" height="59.3"/>
	<rect x="772.7" y="524.7" class="st2" width="7.4" height="74.2"/>
	<rect x="794.1" y="516.1" class="st2" width="7.4" height="82.8"/>
	<rect x="716.5" y="568.8" class="st3" width="7.4" height="30.1"/>
	<rect x="737.9" y="561.3" class="st3" width="7.4" height="37.6"/>
	<rect x="759.3" y="552.5" class="st3" width="7.4" height="46.4"/>
	<rect x="780.7" y="541.2" class="st3" width="7.4" height="57.7"/>
	<rect x="802.1" y="524.9" class="st3" width="7.4" height="74"/>
	<circle class="st1" cx="403.9" cy="586.7" r="9.7"/>
	<circle class="st1" cx="308.8" cy="192.1" r="42.3"/>
	<path class="st2" d="M316.9,190.6c3.7-1.7,4.3-14.6,2.1-18.4c-2.9-5-16.6-4-20.9-0.4c-0.4,2.5-0.6,5-0.4,7.5h13.6v1.2h-19.7
		c-10.4,0-10.2,22.7,3.6,22.7c0.2-2.5,0.7-5.1,1.4-7.5C299.2,187.9,310.6,193.4,316.9,190.6z M302.6,177.4c-1.6,0-2.8-1.3-2.8-2.8
		s1.3-2.8,2.8-2.8c1.6,0,2.8,1.3,2.8,2.8S304.2,177.4,302.6,177.4L302.6,177.4z"/>
	<path class="st2" d="M322.1,181c-0.2,2.5-0.6,5.1-1.2,7.5c-2.7,7.8-14.2,2.2-20.4,5c-3.8,1.7-4.3,14.6-2.1,18.4
		c2.9,5,16.6,4,20.9,0.4c0.4-2.5,0.6-5,0.4-7.5h-13.6v-1.2h20.3C336.1,203.7,336.9,181,322.1,181z M314.2,206.2
		c1.6,0,2.8,1.3,2.8,2.8c0,1.6-1.3,2.8-2.8,2.8c-1.6,0-2.8-1.3-2.8-2.8l0,0C311.4,207.5,312.6,206.3,314.2,206.2
		C314.2,206.2,314.2,206.2,314.2,206.2L314.2,206.2z"/>
	<ellipse transform="matrix(0.7071 -0.7071 0.7071 0.7071 4.7776 395.6661)" class="st1" cx="480" cy="192.1" rx="42.3" ry="42.3"/>
	<path class="st11" d="M480,206.1c-13.6,0-24.7-7.4-24.7-16.5s11-16.5,24.7-16.5s24.7,7.4,24.7,16.5S493.6,206.1,480,206.1z
		 M483.8,179.5c-10.4,0-18.7,5-18.7,11.3s8.5,11.3,18.7,11.3s18-3.5,18-11.3C501.8,183,494.1,179.5,483.8,179.5z"/>
	<path class="st11" d="M492.9,198.6c0.8,0.2,1.6,0.5,2.4,0.9c0.4,0.2,0.8,0.5,1.2,0.9c0.2,0.2,0.4,0.5,0.5,0.8l5.9,9.9h-9.5
		l-4.4-8.3c-0.4-0.7-0.9-1.4-1.5-2c-0.3-0.3-0.7-0.5-1.1-0.5h-2.3v10.8h-8.5v-27.7h16.9c0,0,7.7,0.1,7.7,7.5
		C500.2,198.1,492.9,198.6,492.9,198.6z M489.3,189.3h-5.1v4.7h5.1c1.3,0,2.4-1,2.4-2.3v-0.1c0.1-1.2-0.9-2.3-2.1-2.3c0,0,0,0,0,0
		H489.3L489.3,189.3z"/>
	<circle class="st1" cx="565.6" cy="92.9" r="42.3"/>
	<path class="st2" d="M573.7,109.4h-3.2c-0.3,0-0.6-0.1-0.9-0.3c-0.2-0.2-0.4-0.4-0.5-0.7l-2.8-7.3h-13.6l-2.8,7.3
		c-0.1,0.3-0.3,0.5-0.5,0.7c-0.3,0.2-0.6,0.3-0.9,0.3h-3.2l12.1-30.3h4.2L573.7,109.4z M553.9,98.2h11.3l-4.8-12.3
		c-0.4-0.9-0.7-1.9-0.9-2.8c-0.1,0.6-0.3,1.1-0.5,1.6c-0.2,0.5-0.3,0.9-0.4,1.3L553.9,98.2z"/>
	<path class="st2" d="M582,81.3c0,0.4-0.1,0.7-0.2,1.1c-0.3,0.6-0.8,1.1-1.4,1.4c-0.7,0.3-1.4,0.3-2.1,0c-0.3-0.1-0.6-0.3-0.8-0.6
		c-0.2-0.2-0.4-0.5-0.6-0.8c-0.2-0.3-0.2-0.7-0.2-1.1c0-0.4,0.1-0.7,0.2-1.1c0.1-0.3,0.3-0.6,0.6-0.9c0.2-0.2,0.5-0.4,0.8-0.6
		c0.7-0.3,1.4-0.3,2.1,0c0.6,0.3,1.1,0.8,1.4,1.5C581.9,80.5,582,80.9,582,81.3z M581.1,88v21.4h-3.8V88L581.1,88z"/>
	
		<ellipse transform="matrix(0.1602 -0.9871 0.9871 0.1602 95.796 298.3705)" class="st1" cx="223.2" cy="92.9" rx="42.3" ry="42.3"/>
	<path class="st11" d="M246.5,75.4h-17.8v-4.2l-29.3,4.5v39.7l29.3,5.1v-6.3h17.8c1.1,0,2-0.8,2.1-1.9V77.3
		C248.5,76.2,247.6,75.3,246.5,75.4z M246.8,112.6h-18.2v-3.3h4.4v-3.9h-4.5v-2.3h4.5v-3.8h-4.5v-2.3h4.5V93h-4.6v-2.3h4.6v-3.9
		h-4.6v-2.3h4.6v-3.9h-4.6v-3.5h18.3V112.6z"/>
	<rect x="235.4" y="80.7" class="st2" width="7.6" height="3.9"/>
	<rect x="235.4" y="86.9" class="st2" width="7.6" height="3.9"/>
	<rect x="235.4" y="93" class="st2" width="7.6" height="3.9"/>
	<rect x="235.4" y="99.2" class="st2" width="7.6" height="3.9"/>
	<rect x="235.4" y="105.4" class="st2" width="7.6" height="3.9"/>
	<polygon class="st12" points="207,86.4 210.8,86.2 213.1,92.7 216,85.9 219.7,85.7 215.1,95 219.7,104.3 215.7,104 213,96.9 
		210.3,103.7 206.7,103.4 210.9,95.2 	"/>
	<circle class="st1" cx="394.4" cy="92.9" r="42.3"/>
	<path class="st2" d="M385.5,108.6c0,1.7-1.4,3.1-3.2,3.2c-1.7,0-3.1-1.4-3.2-3.1c0-0.1,0-0.1,0-0.2V94.8c0-1.8,1.4-3.2,3.2-3.2
		c1.7,0,3.1,1.3,3.2,3V108.6L385.5,108.6z"/>
	<path class="st2" d="M394.6,112.3c0,1.8-1.4,3.2-3.2,3.2l0,0c-1.7,0-3-1.3-3.1-2.9c0,0,0,0,0,0c0-0.1,0-0.2,0-0.2V91.3
		c0-1.7,1.4-3.1,3.2-3.2c1.7,0,3.1,1.4,3.2,3.1v21.1L394.6,112.3z"/>
	<path class="st2" d="M376.2,105.5c0,1.7-1.4,3.1-3.2,3.2c-1.7,0-3.1-1.4-3.2-3.1V98c0-1.8,1.4-3.2,3.2-3.2c1.8,0,3.2,1.4,3.2,3.2
		l0,0L376.2,105.5z"/>
	<path class="st2" d="M403.8,115.6c0.3,1.7-0.9,3.3-2.6,3.6c-1.7,0.3-3.3-0.9-3.6-2.6c0-0.3,0-0.6,0-1l0,0V87.8
		c-0.1-1.8,1.2-3.3,3-3.4c1.8-0.1,3.3,1.2,3.4,3c0,0.1,0,0.3,0,0.4v27.9L403.8,115.6z"/>
	<path class="st2" d="M413.9,114.3c-0.6,0-1.1-0.2-1.7-0.3l-3.8-1.2c-0.6-0.2-1-0.9-0.7-1.6c0.2-0.6,0.9-0.9,1.5-0.7l4,1.2
		c1.4,0.4,3-0.4,3.4-1.8c0.1-0.2,0.1-0.4,0.1-0.7V83.5c0-1.2-0.7-2.2-1.8-2.6l-37.4-11.3c-0.8-0.3-1.7-0.2-2.4,0.3
		c-0.7,0.6-1,1.4-1.1,2.3v17.6c-0.1,0.7-0.6,1.1-1.3,1.1c-0.6-0.1-1-0.5-1.1-1.1V72.2c-0.1-1.6,0.7-3.2,2-4.1c1.3-1,3-1.3,4.6-0.8
		l37.2,11.3c2.2,0.7,3.7,2.7,3.7,5v25.6c0,1.7-0.8,3.3-2.1,4.3C416,113.9,415,114.2,413.9,114.3"/>
	<circle class="st1" cx="736.8" cy="92.9" r="42.3"/>
	<path class="st2" d="M758.3,72.3h-7.2v33.9h5.1c1.2,0,2.1,0.9,2.1,2.1c0,1.1-1,2-2.1,2h-41.1V80.6H748v-3.1h-35.9v35.9h46.2
		c1.7,0,3.1-1.3,3.1-3c0,0,0-0.1,0-0.1V75.4c0-1.7-1.3-3-3-3.1C758.4,72.3,758.4,72.3,758.3,72.3z"/>
	<path class="st2" d="M726.5,107.3c0,0.5,0.3,1,0.9,1.1c0.1,0,0.1,0,0.2,0h1.1c0.5,0,1-0.3,1.1-0.9c0-0.1,0-0.1,0-0.2v-2h1.1
		c0.5,0,1-0.3,1.1-0.9c0-0.1,0-0.1,0-0.2v-4.1h1.1c0.5,0,1-0.3,1.1-0.9c0-0.1,0-0.1,0-0.2v-1.1c0-0.5-0.3-1-0.9-1.1
		c-0.1,0-0.1,0-0.2,0h-5.3v-2.1c0.5,0.1,1-0.3,1.1-0.9c0-0.1,0-0.1,0-0.2v-1.1h1.1c0.5,0,1-0.3,1.1-0.9c0-0.1,0-0.1,0-0.2v-2.1h1.1
		c0.5,0,1-0.3,1.1-0.9c0-0.1,0-0.1,0-0.2v-1.1c0-0.5-0.3-1-0.9-1.1c-0.1,0-0.1,0-0.2,0h-5.1v-1.6c0-0.5-0.3-1-0.9-1.1
		c-0.1,0-0.1,0-0.2,0h-3.1c-0.5,0-1,0.3-1.1,0.9c0,0.1,0,0.1,0,0.2v2h-2.1c-0.5,0-1,0.3-1.1,0.9c0,0.1,0,0.1,0,0.2v1.1
		c0,0.5,0.3,1,0.9,1.1c0.1,0,0.1,0,0.2,0h2.1V92c0,0.5,0.3,1,0.9,1.1c0.1,0,0.1,0,0.2,0h1.1v1.1c0,0.5,0.3,1,0.9,1.1
		c0.1,0,0.1,0,0.2,0v2.1h-1.1c-0.5,0-1,0.3-1.1,0.9c0,0.1,0,0.1,0,0.2v1.1c0,0.5,0.3,1,0.9,1.1c0.1,0,0.1,0,0.2,0h1.1v2
		c0,0.5,0.3,1,0.9,1.1c0.1,0,0.1,0,0.2,0h1.1L726.5,107.3z"/>
	<path class="st2" d="M745,97h3.1V84.7h-9.2c-0.5,0-1,0.3-1.1,0.9c0,0.1,0,0.1,0,0.2v2.1c0,0.5,0.3,1,0.9,1.1c0.1,0,0.1,0,0.2,0h1.1
		v2h-3.1c-0.5,0-1,0.3-1.1,0.9c0,0.1,0,0.1,0,0.2v1.1c0,0.5,0.3,1,0.9,1.1c0.1,0,0.1,0,0.2,0h1.1v3.1h-1.1c-0.5,0-1,0.3-1.1,0.9
		c0,0.1,0,0.1,0,0.2v1.1c0,0.5,0.3,1,0.9,1.1c0.1,0,0.1,0,0.2,0h1.1v2c0,0.5,0.3,1,0.9,1.1c0.1,0,0.1,0,0.2,0h1.1v2.1
		c0,0.5,0.3,1,0.9,1.1c0.1,0,0.1,0,0.2,0h3.1c0.5,0,1-0.3,1.1-0.9c0-0.1,0-0.1,0-0.2v-3.1h1.1c0.5,0,1-0.3,1.1-0.9
		c0-0.1,0-0.1,0-0.2v-1.1c0-0.5-0.3-1-0.9-1.1c-0.1,0-0.1,0-0.2,0h-1.1L745,97z"/>
	<circle class="st1" cx="651.2" cy="192.1" r="42.3"/>
	<path class="st13" d="M675.8,202.6c-0.1,1-15.8-15.6-15.8-15.6h0.4c0,0,15.6,14.7,15.6,15L675.8,202.6L675.8,202.6z"/>
	<path class="st13" d="M642.6,197.5c0.2-0.5,8.1,6.7,7.6,7.4l-0.1,0.1l-0.1,0.1c-0.6,0.9-8-6.3-7.5-7.4v-0.1v-0.1H642.6z"/>
	<path class="st13" d="M653.1,207.7c0.8,0.3,7.6,7.7,7.6,7.7H660c0,0-7.3-7.2-7.2-7.2C653,208,653,207.8,653.1,207.7L653.1,207.7z"
		/>
	<path class="st3" d="M675.8,201.8v0.6L660,186.9h-2.5c0.3,1.7,0.5,3.4,0.5,5.2c0,1.7-0.2,3.4-0.5,5.1h4.1c2.2-0.1,4.1,1.6,4.2,3.8
		c0.1,2.2-1.6,4.1-3.8,4.2c-0.1,0-0.3,0-0.4,0h-6.9c-0.5,1-1.1,1.9-1.7,2.8l7.6,7.5h1.1C669.2,215.4,675.5,209.4,675.8,201.8
		L675.8,201.8z M654,192.1c0,4.6-1.4,9.1-3.9,12.9l-7.6-7.4c0.8-1.7,1.2-3.6,1.2-5.5c0-7.2-5.8-13.1-13.1-13.1c0,0,0,0,0,0h-4.1
		v-10.3h4.1C643.5,168.7,654,179.2,654,192.1z"/>
	<path class="st2" d="M675.8,182.9c0,3.3-1.2,6.5-3.3,9.1c2.1,2.5,3.3,5.8,3.3,9.1v1.3L660,186.9h1.6c2.2,0.1,4.1-1.6,4.2-3.8
		c0.1-2.2-1.6-4.1-3.8-4.2h-7.4c-2.3-4.2-5.7-7.8-9.8-10.3h16.8C669.5,168.7,675.8,175.1,675.8,182.9z"/>
	<path class="st14" d="M653,207.8c-2.1,3-4.9,5.6-8,7.5h15.6L653,207.8z M650.1,205c-4.3,6.5-11.6,10.4-19.4,10.4h-4.1v-10.3h4.1
		c5.1,0,9.7-3,11.9-7.6L650.1,205z"/>
</g>
</svg>
