<?xml version="1.0" encoding="UTF-8"?><svg id="b" xmlns="http://www.w3.org/2000/svg" width="48" height="36.86" viewBox="0 0 48 36.86"><g id="c"><path d="m47,22.86H1c-.55,0-1,.45-1,1,0,7.18,5.82,13,13,13h22c7.18,0,13-5.82,13-13,0-.55-.45-1-1-1Z" fill="#0072bc" stroke-width="0"/><path d="m20.89,12.08l-2.49-.67c-2.67-.71-5.41.87-6.12,3.54l-.18.66,2.49.67c2.67.71,5.41-.87,6.12-3.54l.18-.66Z" fill="#0072bc" stroke-width="0"/><path d="m20.33,17.81l2.49.67c2.67.71,5.41-.87,6.12-3.54l.18-.66-2.49-.67c-2.67-.71-5.41.87-6.12,3.54l-.18.66Z" fill="#0072bc" stroke-width="0"/><path d="m28.56,20.02l2.49.67c2.67.71,5.41-.87,6.12-3.54l.18-.66-2.49-.67c-2.67-.71-5.41.87-6.12,3.54l-.18.66Z" fill="#0072bc" stroke-width="0"/><path d="m19.14,8.67l2.49.67.18-.66c.71-2.67-.87-5.41-3.54-6.12l-2.49-.67-.18.66c-.71,2.67.87,5.41,3.54,6.12Z" fill="#0072bc" stroke-width="0"/><path d="m27.37,10.87l2.49.67.18-.66c.71-2.67-.87-5.41-3.54-6.12l-2.49-.67-.18.66c-.71,2.67.87,5.41,3.54,6.12Z" fill="#0072bc" stroke-width="0"/><path d="m35.6,13.08l2.49.67.18-.66c.71-2.67-.87-5.41-3.54-6.12l-2.49-.67-.18.66c-.71,2.67.87,5.41,3.54,6.12Z" fill="#0072bc" stroke-width="0"/><path d="m45.95,17.32c.2-.76-.25-1.54-1-1.74l-5.03-1.35-.74,2.74,5.03,1.35c.76.2,1.54-.25,1.74-1Z" fill="#0072bc" stroke-width="0"/><path d="m5.98,11.02c-.76-.2-1.54.25-1.74,1-.2.76.25,1.54,1,1.74l3.66.98c.76.2,1.54-.25,1.74-1,.2-.76-.25-1.54-1-1.74l-3.66-.98Z" fill="#0072bc" stroke-width="0"/><path d="m8.18,2.79l3.66.98c.76.2,1.54-.25,1.74-1,.2-.76-.25-1.54-1-1.74L8.92.05c-.76-.2-1.54.25-1.74,1-.2.76.25,1.54,1,1.74Z" fill="#0072bc" stroke-width="0"/><path d="m3.05,7.3l10.06,2.7c.76.2,1.54-.25,1.74-1,.2-.76-.25-1.54-1-1.74L3.79,4.56c-.76-.2-1.54.25-1.74,1-.2.76.25,1.54,1,1.74Z" fill="#0072bc" stroke-width="0"/></g></svg>