<?xml version="1.0" encoding="UTF-8"?><svg id="c" xmlns="http://www.w3.org/2000/svg" xmlns:xlink="http://www.w3.org/1999/xlink" viewBox="0 0 360 178"><defs><clipPath id="d"><rect x="206" y="76.27" width="144" height="48.6" fill="none" stroke-width="0"/></clipPath><clipPath id="e"><rect x="10" y="76.27" width="196" height="48.6" fill="none" stroke-width="0"/></clipPath></defs><path d="M4.27,167.21c.13-.12.27-.22.42-.28.15-.06.32-.09.5-.09.13,0,.25.02.35.07.1.04.19.1.26.18.07.08.12.17.16.28.04.11.05.23.05.36v1.51h-.18s-.07,0-.09-.02c-.02-.01-.04-.04-.05-.08l-.05-.22c-.06.06-.12.11-.18.15-.06.04-.12.08-.19.11-.06.03-.13.05-.21.07-.07.02-.16.02-.25.02s-.18-.01-.26-.04c-.08-.03-.15-.06-.21-.12-.06-.05-.11-.12-.14-.2-.04-.08-.05-.17-.05-.28,0-.09.03-.18.08-.27s.13-.16.25-.23c.11-.07.26-.12.45-.17.19-.04.41-.07.68-.07v-.18c0-.18-.04-.32-.12-.42-.08-.09-.2-.14-.35-.14-.1,0-.19.01-.26.04-.07.03-.13.05-.18.09-.05.03-.09.06-.13.09-.04.03-.07.04-.11.04-.03,0-.05,0-.07-.02-.02-.01-.04-.03-.05-.05l-.07-.13ZM5.61,168.17c-.19,0-.35.02-.49.05-.13.02-.24.06-.33.09-.08.04-.15.08-.18.14s-.06.11-.06.18c0,.06,0,.12.03.16.02.04.05.08.08.11.04.03.08.05.12.06.05.01.1.02.15.02.07,0,.14,0,.2-.02s.12-.04.17-.06c.05-.03.11-.06.15-.1.05-.04.1-.08.14-.13v-.49Z" fill="#878a8c" stroke-width="0"/><path d="M7.83,171.9h-.78v-5.73h.78v5.73Z" fill="#878a8c" stroke-width="0"/><path d="M9.74,168.44c.09-.1.18-.19.28-.27.1-.08.2-.15.31-.21.11-.06.23-.1.35-.13.12-.03.26-.05.4-.05.22,0,.42.04.59.11s.31.18.42.31.2.3.26.49.09.4.09.63v2.58h-.72v-2.58c0-.31-.07-.54-.21-.71-.14-.17-.35-.25-.64-.25-.21,0-.41.05-.59.15-.18.1-.35.24-.51.41v2.98h-.72v-4.05h.43c.1,0,.16.05.19.15l.06.44Z" fill="#878a8c" stroke-width="0"/><path d="M16.35,168.57s-.04.05-.06.07c-.02.02-.05.02-.09.02-.04,0-.08-.02-.13-.05-.05-.03-.11-.07-.18-.11s-.16-.08-.26-.11-.23-.05-.38-.05c-.2,0-.38.04-.53.11s-.28.17-.38.31c-.1.13-.18.29-.23.48-.05.19-.08.4-.08.64,0,.25.03.46.08.65.06.19.13.35.24.48.1.13.23.23.37.3.15.07.31.1.49.1s.32-.02.43-.06c.11-.04.21-.09.28-.14s.13-.1.18-.14c.05-.04.1-.06.15-.06.06,0,.1.02.14.07l.2.26c-.09.11-.19.2-.3.28-.11.08-.23.14-.36.19-.13.05-.26.09-.41.11-.14.02-.29.04-.43.04-.25,0-.49-.05-.71-.14-.22-.09-.41-.23-.57-.41-.16-.18-.29-.4-.38-.65-.09-.26-.14-.55-.14-.88,0-.3.04-.58.13-.84s.21-.48.37-.66c.16-.18.36-.33.6-.43.24-.1.51-.16.81-.16.29,0,.54.05.75.14.22.09.41.22.58.39l-.19.26Z" fill="#878a8c" stroke-width="0"/><path d="M18.08,166.01v5.89h-.71v-5.89h.71Z" fill="#878a8c" stroke-width="0"/><path d="M22.57,167.85v4.05h-.42c-.1,0-.17-.05-.19-.15l-.06-.44c-.18.19-.37.35-.59.47-.22.12-.47.18-.75.18-.22,0-.42-.04-.59-.11s-.31-.18-.43-.31c-.12-.13-.2-.29-.26-.48-.06-.19-.09-.4-.09-.63v-2.58h.71v2.58c0,.31.07.54.21.71.14.17.35.25.64.25.21,0,.41-.05.59-.15.18-.1.35-.24.51-.41v-2.98h.71Z" fill="#878a8c" stroke-width="0"/><path d="M27.05,166.01v5.89h-.42c-.1,0-.17-.05-.19-.15l-.06-.49c-.17.21-.37.38-.59.5-.22.13-.48.19-.77.19-.23,0-.44-.04-.63-.13-.19-.09-.35-.22-.48-.39-.13-.17-.24-.39-.31-.65s-.11-.56-.11-.89c0-.3.04-.58.12-.83.08-.26.19-.48.34-.67s.33-.34.55-.45c.22-.11.46-.16.73-.16.25,0,.46.04.64.13.18.08.33.2.47.35v-2.24h.71ZM26.33,168.81c-.13-.18-.28-.3-.43-.37-.16-.07-.33-.11-.52-.11-.38,0-.67.13-.87.4-.2.27-.3.65-.3,1.15,0,.26.02.49.07.68.04.19.11.34.2.46s.2.21.32.27c.13.06.27.08.44.08.23,0,.44-.05.61-.16.17-.11.34-.26.48-.45v-1.96Z" fill="#878a8c" stroke-width="0"/><path d="M31.46,171.33c-.09.11-.19.2-.32.28-.12.08-.25.14-.39.19-.14.05-.28.09-.43.11-.15.03-.3.04-.44.04-.28,0-.54-.05-.77-.14-.24-.09-.44-.23-.61-.42s-.31-.41-.4-.68c-.1-.27-.14-.58-.14-.93,0-.28.04-.55.13-.79.09-.25.21-.46.37-.64s.36-.32.6-.42c.24-.1.5-.15.79-.15.24,0,.47.04.67.12.21.08.38.2.54.35.15.15.27.34.35.57.08.23.13.48.13.77,0,.11-.01.19-.04.22-.02.04-.07.06-.14.06h-2.71c0,.26.04.48.11.67.06.19.15.35.26.47.11.13.25.22.4.28.16.06.33.09.52.09.18,0,.33-.02.46-.06.13-.04.24-.09.33-.13.09-.05.17-.09.23-.13.06-.04.12-.06.16-.06.06,0,.1.02.14.07l.2.26ZM30.89,169.43c0-.17-.02-.32-.07-.45s-.11-.26-.2-.36c-.09-.1-.2-.18-.33-.23s-.27-.08-.44-.08c-.34,0-.61.1-.81.3-.2.2-.32.47-.37.83h2.22Z" fill="#878a8c" stroke-width="0"/><path d="M34.76,168.52c-.03.06-.08.09-.15.09-.04,0-.09-.01-.14-.04s-.11-.06-.19-.1c-.07-.04-.16-.07-.26-.1-.1-.03-.22-.05-.36-.05-.12,0-.23.02-.32.05-.1.03-.18.07-.25.13-.07.05-.12.12-.16.19-.04.07-.05.15-.05.23,0,.1.03.19.09.26.06.07.14.13.24.18s.21.09.34.13c.13.04.25.08.39.12.13.04.26.09.39.15.12.05.24.12.34.2s.18.18.24.29c.06.12.09.26.09.42,0,.19-.03.36-.1.52-.07.16-.17.3-.3.41-.13.12-.29.21-.48.27-.19.07-.41.1-.66.1-.28,0-.54-.05-.77-.14-.23-.09-.42-.21-.58-.35l.17-.27s.05-.06.08-.08.07-.03.11-.03c.05,0,.1.02.15.06.05.04.12.08.19.12s.17.09.28.12.25.06.41.06c.14,0,.26-.02.36-.05.1-.04.19-.08.26-.15.07-.06.12-.13.15-.21.03-.08.05-.17.05-.26,0-.11-.03-.2-.09-.28-.06-.07-.14-.14-.24-.19s-.21-.1-.34-.14c-.13-.04-.26-.08-.39-.12s-.26-.09-.39-.15-.24-.12-.34-.21c-.1-.08-.18-.18-.24-.31-.06-.12-.09-.27-.09-.44,0-.15.03-.3.1-.45.06-.14.16-.27.28-.38.12-.11.27-.19.45-.26.18-.06.38-.1.61-.1.27,0,.51.04.72.13s.4.2.55.35l-.16.26Z" fill="#878a8c" stroke-width="0"/><path d="M38.85,171.9h-.78v-5.73h.78v5.73Z" fill="#878a8c" stroke-width="0"/><path d="M45.29,169.04c0,.43-.07.82-.2,1.17-.14.35-.33.65-.58.9s-.55.44-.89.58c-.35.14-.73.21-1.15.21h-2.14v-5.73h2.14c.42,0,.81.07,1.15.21.35.14.65.33.89.58s.44.55.58.91c.14.35.2.74.2,1.17ZM44.49,169.04c0-.35-.05-.67-.14-.94-.1-.28-.23-.51-.41-.7-.18-.19-.39-.34-.64-.44s-.53-.15-.84-.15h-1.36v4.48h1.36c.31,0,.59-.05.84-.15.25-.1.46-.25.64-.44.18-.19.31-.42.41-.7.1-.28.14-.59.14-.94Z" fill="#878a8c" stroke-width="0"/><path d="M48.09,166.17c.36,0,.68.04.95.13.27.08.49.2.67.36s.31.34.39.56c.09.22.13.46.13.73s-.05.51-.14.73c-.09.22-.23.41-.41.57-.18.16-.4.29-.67.37-.27.09-.57.13-.92.13h-.92v2.14h-.77v-5.73h1.69ZM48.09,169.14c.22,0,.42-.03.59-.09.17-.06.31-.14.43-.25.12-.11.2-.23.26-.38s.09-.31.09-.48c0-.37-.11-.65-.34-.86-.23-.21-.57-.31-1.03-.31h-.92v2.36h.92Z" fill="#878a8c" stroke-width="0"/><path d="M53.3,168.52c-.03.06-.08.09-.15.09-.04,0-.09-.01-.14-.04s-.11-.06-.19-.1c-.07-.04-.16-.07-.26-.1-.1-.03-.22-.05-.36-.05-.12,0-.23.02-.32.05-.1.03-.18.07-.25.13-.07.05-.12.12-.16.19-.04.07-.05.15-.05.23,0,.1.03.19.09.26.06.07.14.13.24.18s.21.09.34.13c.13.04.25.08.39.12.13.04.26.09.39.15.12.05.24.12.34.2s.18.18.24.29c.06.12.09.26.09.42,0,.19-.03.36-.1.52-.07.16-.17.3-.3.41-.13.12-.29.21-.48.27-.19.07-.41.1-.66.1-.28,0-.54-.05-.77-.14-.23-.09-.42-.21-.58-.35l.17-.27s.05-.06.08-.08.07-.03.11-.03c.05,0,.1.02.15.06.05.04.12.08.19.12s.17.09.28.12.25.06.41.06c.14,0,.26-.02.36-.05.1-.04.19-.08.26-.15.07-.06.12-.13.15-.21.03-.08.05-.17.05-.26,0-.11-.03-.2-.09-.28-.06-.07-.14-.14-.24-.19s-.21-.1-.34-.14c-.13-.04-.26-.08-.39-.12s-.26-.09-.39-.15-.24-.12-.34-.21c-.1-.08-.18-.18-.24-.31-.06-.12-.09-.27-.09-.44,0-.15.03-.3.1-.45.06-.14.16-.27.28-.38.12-.11.27-.19.45-.26.18-.06.38-.1.61-.1.27,0,.51.04.72.13s.4.2.55.35l-.16.26Z" fill="#878a8c" stroke-width="0"/><path d="M56.34,168.42c.22-.22.47-.38.72-.48.26-.11.55-.16.86-.16.23,0,.43.04.6.11.18.07.32.18.44.31.12.13.21.29.27.48s.09.4.09.62v2.59h-.32c-.07,0-.12-.01-.16-.03-.04-.02-.07-.07-.09-.13l-.08-.38c-.11.1-.21.19-.31.26s-.21.14-.32.19c-.11.05-.23.09-.36.12-.13.03-.27.04-.42.04s-.31-.02-.44-.07-.26-.11-.36-.2-.18-.2-.24-.33c-.06-.13-.09-.29-.09-.48,0-.16.04-.31.13-.46.09-.15.23-.28.43-.39.2-.11.45-.21.77-.28.32-.07.71-.12,1.17-.13v-.32c0-.31-.07-.55-.2-.71-.14-.16-.33-.24-.6-.24-.18,0-.32.02-.44.07-.12.04-.22.09-.31.15s-.16.1-.22.15c-.06.04-.12.07-.19.07-.05,0-.09-.01-.12-.04-.03-.03-.06-.06-.09-.09l-.13-.23ZM58.64,170.08c-.33.01-.61.04-.84.08s-.42.1-.56.16c-.15.07-.25.15-.32.24s-.1.19-.1.3c0,.11.02.2.05.28.03.08.08.14.14.19.06.05.13.09.21.11.08.02.17.03.26.03.12,0,.24-.01.34-.04.1-.03.2-.06.29-.11s.18-.11.26-.17.17-.14.25-.23v-.84Z" fill="#878a8c" stroke-width="0"/><path d="M61.1,168.44c.09-.1.18-.19.28-.27.1-.08.2-.15.31-.21.11-.06.23-.1.35-.13.12-.03.26-.05.4-.05.22,0,.42.04.59.11s.31.18.42.31.2.3.26.49.09.4.09.63v2.58h-.72v-2.58c0-.31-.07-.54-.21-.71-.14-.17-.35-.25-.64-.25-.21,0-.41.05-.59.15-.18.1-.35.24-.51.41v2.98h-.72v-4.05h.43c.1,0,.16.05.19.15l.06.44Z" fill="#878a8c" stroke-width="0"/><path d="M68.24,166.01v5.89h-.42c-.1,0-.17-.05-.19-.15l-.06-.49c-.17.21-.37.38-.59.5-.22.13-.48.19-.77.19-.23,0-.44-.04-.63-.13-.19-.09-.35-.22-.48-.39-.13-.17-.24-.39-.31-.65s-.11-.56-.11-.89c0-.3.04-.58.12-.83.08-.26.19-.48.34-.67s.33-.34.55-.45c.22-.11.46-.16.73-.16.25,0,.46.04.64.13.18.08.33.2.47.35v-2.24h.71ZM67.53,168.81c-.13-.18-.28-.3-.43-.37-.16-.07-.33-.11-.52-.11-.38,0-.67.13-.87.4-.2.27-.3.65-.3,1.15,0,.26.02.49.07.68.04.19.11.34.2.46s.2.21.32.27c.13.06.27.08.44.08.23,0,.44-.05.61-.16.17-.11.34-.26.48-.45v-1.96Z" fill="#878a8c" stroke-width="0"/><path d="M76.56,167.06s-.05.07-.08.09c-.03.02-.06.03-.1.03-.05,0-.1-.02-.16-.07-.06-.04-.14-.09-.23-.15s-.2-.11-.33-.15c-.13-.04-.29-.07-.47-.07-.17,0-.33.02-.46.07s-.24.11-.33.19c-.09.08-.16.17-.2.28-.04.11-.07.22-.07.35,0,.16.04.29.12.4.08.11.18.2.31.27.13.07.28.14.44.19.16.05.33.11.5.17.17.06.34.12.5.2s.31.17.44.28c.13.11.23.25.31.41.08.16.12.36.12.6,0,.25-.04.49-.13.71-.08.22-.21.41-.37.57-.16.16-.37.29-.6.38-.24.09-.51.14-.81.14-.37,0-.71-.07-1.02-.2s-.56-.32-.78-.55l.22-.37s.05-.05.08-.07c.03-.02.06-.03.1-.03.03,0,.07.01.12.04.04.03.09.06.15.11.06.04.12.09.19.14s.15.1.25.14c.09.04.2.08.31.11.12.03.25.04.4.04.18,0,.35-.03.49-.08.14-.05.27-.12.37-.21.1-.09.18-.2.23-.33s.08-.27.08-.43c0-.17-.04-.32-.12-.43-.08-.11-.18-.2-.31-.28-.13-.07-.28-.14-.44-.19-.17-.05-.33-.1-.5-.16s-.34-.12-.5-.19-.31-.17-.44-.28c-.13-.11-.23-.26-.31-.43s-.12-.38-.12-.64c0-.2.04-.4.12-.59s.19-.36.34-.5c.15-.15.34-.26.56-.35.22-.09.47-.13.76-.13.32,0,.61.05.87.15.26.1.49.25.69.44l-.19.37Z" fill="#878a8c" stroke-width="0"/><path d="M81.07,171.33c-.09.11-.19.2-.32.28-.12.08-.25.14-.39.19-.14.05-.28.09-.43.11-.15.03-.3.04-.44.04-.28,0-.54-.05-.77-.14-.24-.09-.44-.23-.61-.42s-.31-.41-.4-.68c-.1-.27-.14-.58-.14-.93,0-.28.04-.55.13-.79.09-.25.21-.46.37-.64s.36-.32.6-.42c.24-.1.5-.15.79-.15.24,0,.47.04.67.12.21.08.38.2.54.35.15.15.27.34.35.57.08.23.13.48.13.77,0,.11-.01.19-.04.22-.02.04-.07.06-.14.06h-2.71c0,.26.04.48.11.67.06.19.15.35.26.47.11.13.25.22.4.28.16.06.33.09.52.09.18,0,.33-.02.46-.06.13-.04.24-.09.33-.13.09-.05.17-.09.23-.13.06-.04.12-.06.16-.06.06,0,.1.02.14.07l.2.26ZM80.49,169.43c0-.17-.02-.32-.07-.45s-.11-.26-.2-.36c-.09-.1-.2-.18-.33-.23s-.27-.08-.44-.08c-.34,0-.61.1-.81.3-.2.2-.32.47-.37.83h2.22Z" fill="#878a8c" stroke-width="0"/><path d="M82.74,166.01v5.89h-.71v-5.89h.71Z" fill="#878a8c" stroke-width="0"/><path d="M84.16,171.9v-3.44l-.45-.05c-.06-.01-.1-.03-.14-.06-.04-.03-.05-.07-.05-.12v-.29h.64v-.39c0-.23.03-.44.1-.62.07-.18.16-.33.28-.46.12-.12.27-.22.44-.28.17-.06.36-.1.58-.1.18,0,.35.03.5.08l-.02.36c0,.06-.04.1-.11.1-.07,0-.15,0-.26,0-.12,0-.23.02-.33.05-.1.03-.19.08-.26.16-.07.07-.13.17-.17.28-.04.12-.06.26-.06.44v.37h1.17v.52h-1.14v3.46h-.72Z" fill="#878a8c" stroke-width="0"/><path d="M86.52,169.2h1.98v.6h-1.98v-.6Z" fill="#878a8c" stroke-width="0"/><path d="M90.23,168.66c.13-.28.29-.49.47-.65.19-.16.42-.23.68-.23.08,0,.17,0,.25.03.08.02.15.05.21.09l-.05.53c-.02.07-.06.1-.12.1-.04,0-.09,0-.16-.02-.07-.02-.15-.02-.24-.02-.13,0-.24.02-.34.06-.1.04-.19.09-.27.17-.08.07-.15.16-.21.27-.06.11-.12.23-.17.37v2.56h-.72v-4.05h.41c.08,0,.13.01.16.04s.05.08.06.15l.05.62Z" fill="#878a8c" stroke-width="0"/><path d="M95.59,171.33c-.09.11-.19.2-.32.28-.12.08-.25.14-.39.19-.14.05-.28.09-.43.11-.15.03-.3.04-.44.04-.28,0-.54-.05-.77-.14-.24-.09-.44-.23-.61-.42s-.31-.41-.4-.68c-.1-.27-.14-.58-.14-.93,0-.28.04-.55.13-.79.09-.25.21-.46.37-.64s.36-.32.6-.42c.24-.1.5-.15.79-.15.24,0,.47.04.67.12.21.08.38.2.54.35.15.15.27.34.35.57.08.23.13.48.13.77,0,.11-.01.19-.04.22-.02.04-.07.06-.14.06h-2.71c0,.26.04.48.11.67.06.19.15.35.26.47.11.13.25.22.4.28.16.06.33.09.52.09.18,0,.33-.02.46-.06.13-.04.24-.09.33-.13.09-.05.17-.09.23-.13.06-.04.12-.06.16-.06.06,0,.1.02.14.07l.2.26ZM95.01,169.43c0-.17-.02-.32-.07-.45s-.11-.26-.2-.36c-.09-.1-.2-.18-.33-.23s-.27-.08-.44-.08c-.34,0-.61.1-.81.3-.2.2-.32.47-.37.83h2.22Z" fill="#878a8c" stroke-width="0"/><path d="M97.26,166.01v5.89h-.71v-5.89h.71Z" fill="#878a8c" stroke-width="0"/><path d="M100.12,167.78c.3,0,.56.05.8.15s.44.24.61.42.3.4.39.66c.09.26.13.54.13.86s-.04.61-.13.86c-.09.26-.22.47-.39.66s-.37.32-.61.42c-.24.1-.5.15-.8.15s-.57-.05-.81-.15c-.24-.1-.44-.24-.61-.42s-.3-.4-.39-.66c-.09-.26-.13-.54-.13-.86s.04-.6.13-.86c.09-.26.22-.48.39-.66s.37-.32.61-.42c.24-.1.51-.15.81-.15ZM100.12,171.4c.4,0,.7-.13.9-.4.2-.27.3-.64.3-1.12s-.1-.86-.3-1.13c-.2-.27-.5-.4-.9-.4-.2,0-.38.03-.53.1s-.28.17-.38.3c-.1.13-.17.29-.22.48-.05.19-.07.41-.07.65,0,.48.1.85.3,1.12.2.27.5.4.91.4Z" fill="#878a8c" stroke-width="0"/><path d="M105.77,168.57s-.04.05-.06.07c-.02.02-.05.02-.09.02-.04,0-.08-.02-.13-.05-.05-.03-.11-.07-.18-.11s-.16-.08-.26-.11-.23-.05-.38-.05c-.2,0-.38.04-.53.11s-.28.17-.38.31c-.1.13-.18.29-.23.48-.05.19-.08.4-.08.64,0,.25.03.46.08.65.06.19.13.35.24.48.1.13.23.23.37.3.15.07.31.1.49.1s.32-.02.43-.06c.11-.04.21-.09.28-.14s.13-.1.18-.14c.05-.04.1-.06.15-.06.06,0,.1.02.14.07l.2.26c-.09.11-.19.2-.3.28-.11.08-.23.14-.36.19-.13.05-.26.09-.41.11-.14.02-.29.04-.43.04-.25,0-.49-.05-.71-.14-.22-.09-.41-.23-.57-.41-.16-.18-.29-.4-.38-.65-.09-.26-.14-.55-.14-.88,0-.3.04-.58.13-.84s.21-.48.37-.66c.16-.18.36-.33.6-.43.24-.1.51-.16.81-.16.29,0,.54.05.75.14.22.09.41.22.58.39l-.19.26Z" fill="#878a8c" stroke-width="0"/><path d="M106.66,168.42c.22-.22.47-.38.72-.48.26-.11.55-.16.86-.16.23,0,.43.04.6.11.18.07.32.18.44.31.12.13.21.29.27.48s.09.4.09.62v2.59h-.32c-.07,0-.12-.01-.16-.03-.04-.02-.07-.07-.09-.13l-.08-.38c-.11.1-.21.19-.31.26s-.21.14-.32.19c-.11.05-.23.09-.36.12-.13.03-.27.04-.42.04s-.31-.02-.44-.07-.26-.11-.36-.2-.18-.2-.24-.33c-.06-.13-.09-.29-.09-.48,0-.16.04-.31.13-.46.09-.15.23-.28.43-.39.2-.11.45-.21.77-.28.32-.07.71-.12,1.17-.13v-.32c0-.31-.07-.55-.2-.71-.14-.16-.33-.24-.6-.24-.18,0-.32.02-.44.07-.12.04-.22.09-.31.15s-.16.1-.22.15c-.06.04-.12.07-.19.07-.05,0-.09-.01-.12-.04-.03-.03-.06-.06-.09-.09l-.13-.23ZM108.96,170.08c-.33.01-.61.04-.84.08s-.42.1-.56.16c-.15.07-.25.15-.32.24s-.1.19-.1.3c0,.11.02.2.05.28.03.08.08.14.14.19.06.05.13.09.21.11.08.02.17.03.26.03.12,0,.24-.01.34-.04.1-.03.2-.06.29-.11s.18-.11.26-.17.17-.14.25-.23v-.84Z" fill="#878a8c" stroke-width="0"/><path d="M111.93,171.96c-.32,0-.57-.09-.74-.27s-.26-.44-.26-.77v-2.48h-.49s-.08-.01-.11-.04-.04-.06-.04-.12v-.28l.66-.08.16-1.25s.03-.07.05-.1c.03-.03.06-.04.11-.04h.36v1.4h1.17v.52h-1.17v2.43c0,.17.04.3.12.38s.19.12.32.12c.08,0,.14-.01.19-.03.05-.02.1-.04.14-.07.04-.02.07-.05.1-.07.03-.02.05-.03.07-.03.04,0,.07.02.1.07l.21.34c-.12.11-.27.2-.44.27-.17.07-.35.1-.54.1Z" fill="#878a8c" stroke-width="0"/><path d="M116.83,171.33c-.09.11-.19.2-.32.28-.12.08-.25.14-.39.19-.14.05-.28.09-.43.11-.15.03-.3.04-.44.04-.28,0-.54-.05-.77-.14-.24-.09-.44-.23-.61-.42s-.31-.41-.4-.68c-.1-.27-.14-.58-.14-.93,0-.28.04-.55.13-.79.09-.25.21-.46.37-.64s.36-.32.6-.42c.24-.1.5-.15.79-.15.24,0,.47.04.67.12.21.08.38.2.54.35.15.15.27.34.35.57.08.23.13.48.13.77,0,.11-.01.19-.04.22-.02.04-.07.06-.14.06h-2.71c0,.26.04.48.11.67.06.19.15.35.26.47.11.13.25.22.4.28.16.06.33.09.52.09.18,0,.33-.02.46-.06.13-.04.24-.09.33-.13.09-.05.17-.09.23-.13.06-.04.12-.06.16-.06.06,0,.1.02.14.07l.2.26ZM116.25,169.43c0-.17-.02-.32-.07-.45s-.11-.26-.2-.36c-.09-.1-.2-.18-.33-.23s-.27-.08-.44-.08c-.34,0-.61.1-.81.3-.2.2-.32.47-.37.83h2.22Z" fill="#878a8c" stroke-width="0"/><path d="M121.12,166.01v5.89h-.42c-.1,0-.17-.05-.19-.15l-.06-.49c-.17.21-.37.38-.59.5-.22.13-.48.19-.77.19-.23,0-.44-.04-.63-.13-.19-.09-.35-.22-.48-.39-.13-.17-.24-.39-.31-.65s-.11-.56-.11-.89c0-.3.04-.58.12-.83.08-.26.19-.48.34-.67s.33-.34.55-.45c.22-.11.46-.16.73-.16.25,0,.46.04.64.13.18.08.33.2.47.35v-2.24h.71ZM120.4,168.81c-.13-.18-.28-.3-.43-.37-.16-.07-.33-.11-.52-.11-.38,0-.67.13-.87.4-.2.27-.3.65-.3,1.15,0,.26.02.49.07.68.04.19.11.34.2.46s.2.21.32.27c.13.06.27.08.44.08.23,0,.44-.05.61-.16.17-.11.34-.26.48-.45v-1.96Z" fill="#878a8c" stroke-width="0"/><path d="M128.7,171.9h-.69c-.14,0-.25-.05-.31-.16l-1.49-2.05c-.05-.06-.09-.11-.15-.14-.05-.03-.13-.04-.24-.04h-.59v2.39h-.77v-5.73h1.62c.36,0,.68.04.94.11s.48.18.65.32.3.31.38.5c.08.2.12.42.12.66,0,.2-.03.39-.1.57-.06.18-.16.33-.28.47-.12.14-.27.26-.44.36s-.37.17-.59.22c.1.06.18.14.26.24l1.67,2.28ZM126.05,168.94c.22,0,.42-.03.59-.08s.32-.13.43-.23c.12-.1.2-.22.26-.36.06-.14.09-.29.09-.46,0-.34-.11-.6-.34-.77-.22-.17-.56-.26-1.01-.26h-.85v2.16h.82Z" fill="#878a8c" stroke-width="0"/><path d="M132.33,171.33c-.09.11-.19.2-.32.28-.12.08-.25.14-.39.19-.14.05-.28.09-.43.11-.15.03-.3.04-.44.04-.28,0-.54-.05-.77-.14-.24-.09-.44-.23-.61-.42s-.31-.41-.4-.68c-.1-.27-.14-.58-.14-.93,0-.28.04-.55.13-.79.09-.25.21-.46.37-.64s.36-.32.6-.42c.24-.1.5-.15.79-.15.24,0,.47.04.67.12.21.08.38.2.54.35.15.15.27.34.35.57.08.23.13.48.13.77,0,.11-.01.19-.04.22-.02.04-.07.06-.14.06h-2.71c0,.26.04.48.11.67.06.19.15.35.26.47.11.13.25.22.4.28.16.06.33.09.52.09.18,0,.33-.02.46-.06.13-.04.24-.09.33-.13.09-.05.17-.09.23-.13.06-.04.12-.06.16-.06.06,0,.1.02.14.07l.2.26ZM131.75,169.43c0-.17-.02-.32-.07-.45s-.11-.26-.2-.36c-.09-.1-.2-.18-.33-.23s-.27-.08-.44-.08c-.34,0-.61.1-.81.3-.2.2-.32.47-.37.83h2.22Z" fill="#878a8c" stroke-width="0"/><path d="M133.49,171.9v-3.44l-.45-.05c-.06-.01-.1-.03-.14-.06-.04-.03-.05-.07-.05-.12v-.29h.64v-.39c0-.23.03-.44.1-.62.07-.18.16-.33.28-.46.12-.12.27-.22.44-.28.17-.06.36-.1.58-.1.18,0,.35.03.5.08l-.02.36c0,.06-.04.1-.11.1-.07,0-.15,0-.26,0-.12,0-.23.02-.33.05-.1.03-.19.08-.26.16-.07.07-.13.17-.17.28-.04.12-.06.26-.06.44v.37h1.17v.52h-1.14v3.46h-.72Z" fill="#878a8c" stroke-width="0"/><path d="M139.36,167.85v4.05h-.42c-.1,0-.17-.05-.19-.15l-.06-.44c-.18.19-.37.35-.59.47-.22.12-.47.18-.75.18-.22,0-.42-.04-.59-.11s-.31-.18-.43-.31c-.12-.13-.2-.29-.26-.48-.06-.19-.09-.4-.09-.63v-2.58h.71v2.58c0,.31.07.54.21.71.14.17.35.25.64.25.21,0,.41-.05.59-.15.18-.1.35-.24.51-.41v-2.98h.71Z" fill="#878a8c" stroke-width="0"/><path d="M143.91,168.01v.26c0,.09-.06.14-.17.17l-.46.06c.09.18.14.37.14.58,0,.2-.04.38-.11.54-.08.16-.18.3-.31.41-.13.12-.29.2-.48.26-.19.06-.39.09-.61.09-.19,0-.37-.02-.54-.07-.09.05-.15.11-.2.17-.05.06-.07.12-.07.18,0,.1.04.17.12.22.08.05.18.08.31.11.13.02.27.04.44.04.16,0,.33.01.5.03s.34.03.5.06c.16.03.31.08.44.14s.23.16.31.28c.08.12.12.27.12.46,0,.17-.04.34-.13.5-.09.16-.21.31-.37.43-.16.13-.36.23-.6.3-.24.08-.5.11-.8.11s-.55-.03-.78-.09c-.22-.06-.41-.14-.55-.24-.15-.1-.26-.21-.33-.34-.07-.13-.11-.26-.11-.41,0-.2.06-.37.19-.51.13-.14.3-.25.52-.33-.12-.05-.22-.12-.29-.21-.07-.09-.11-.21-.11-.36,0-.06.01-.12.03-.18s.05-.12.1-.19c.04-.06.1-.12.16-.18.06-.06.14-.11.22-.15-.2-.11-.36-.26-.47-.45-.11-.19-.17-.4-.17-.65,0-.2.04-.38.11-.54.08-.16.18-.3.32-.41s.3-.2.49-.26c.19-.06.39-.09.62-.09.18,0,.34.02.49.06.15.04.29.09.42.17h1.1ZM143.19,172.12c0-.1-.03-.18-.08-.24-.06-.06-.13-.11-.23-.14-.09-.03-.21-.06-.33-.07-.13-.01-.26-.03-.4-.03-.14,0-.28-.02-.43-.02-.14,0-.28-.02-.42-.04-.15.07-.27.16-.37.26s-.14.23-.14.37c0,.09.02.18.07.25.05.08.12.15.21.2.1.06.22.1.36.14.15.03.32.05.51.05s.36-.02.52-.05c.15-.03.28-.08.39-.15.11-.06.19-.14.24-.23.06-.09.08-.19.08-.29ZM141.9,169.92c.14,0,.27-.02.38-.06.11-.04.2-.1.28-.17.08-.07.13-.16.17-.26.04-.1.06-.21.06-.33,0-.25-.08-.45-.23-.59s-.37-.22-.65-.22-.51.07-.66.22c-.15.15-.23.34-.23.59,0,.12.02.23.06.33.04.1.09.19.17.26.07.07.17.13.28.17s.24.06.38.06Z" fill="#878a8c" stroke-width="0"/><path d="M147.87,171.33c-.09.11-.19.2-.32.28-.12.08-.25.14-.39.19-.14.05-.28.09-.43.11-.15.03-.3.04-.44.04-.28,0-.54-.05-.77-.14-.24-.09-.44-.23-.61-.42s-.31-.41-.4-.68c-.1-.27-.14-.58-.14-.93,0-.28.04-.55.13-.79.09-.25.21-.46.37-.64s.36-.32.6-.42c.24-.1.5-.15.79-.15.24,0,.47.04.67.12.21.08.38.2.54.35.15.15.27.34.35.57.08.23.13.48.13.77,0,.11-.01.19-.04.22-.02.04-.07.06-.14.06h-2.71c0,.26.04.48.11.67.06.19.15.35.26.47.11.13.25.22.4.28.16.06.33.09.52.09.18,0,.33-.02.46-.06.13-.04.24-.09.33-.13.09-.05.17-.09.23-.13.06-.04.12-.06.16-.06.06,0,.1.02.14.07l.2.26ZM147.3,169.43c0-.17-.02-.32-.07-.45s-.11-.26-.2-.36c-.09-.1-.2-.18-.33-.23s-.27-.08-.44-.08c-.34,0-.61.1-.81.3-.2.2-.32.47-.37.83h2.22Z" fill="#878a8c" stroke-width="0"/><path d="M152.1,171.33c-.09.11-.19.2-.32.28-.12.08-.25.14-.39.19-.14.05-.28.09-.43.11-.15.03-.3.04-.44.04-.28,0-.54-.05-.77-.14-.24-.09-.44-.23-.61-.42s-.31-.41-.4-.68c-.1-.27-.14-.58-.14-.93,0-.28.04-.55.13-.79.09-.25.21-.46.37-.64s.36-.32.6-.42c.24-.1.5-.15.79-.15.24,0,.47.04.67.12.21.08.38.2.54.35.15.15.27.34.35.57.08.23.13.48.13.77,0,.11-.01.19-.04.22-.02.04-.07.06-.14.06h-2.71c0,.26.04.48.11.67.06.19.15.35.26.47.11.13.25.22.4.28.16.06.33.09.52.09.18,0,.33-.02.46-.06.13-.04.24-.09.33-.13.09-.05.17-.09.23-.13.06-.04.12-.06.16-.06.06,0,.1.02.14.07l.2.26ZM151.52,169.43c0-.17-.02-.32-.07-.45s-.11-.26-.2-.36c-.09-.1-.2-.18-.33-.23s-.27-.08-.44-.08c-.34,0-.61.1-.81.3-.2.2-.32.47-.37.83h2.22Z" fill="#878a8c" stroke-width="0"/><path d="M155.39,168.52c-.03.06-.08.09-.15.09-.04,0-.09-.01-.14-.04s-.11-.06-.19-.1c-.07-.04-.16-.07-.26-.1-.1-.03-.22-.05-.36-.05-.12,0-.23.02-.32.05-.1.03-.18.07-.25.13-.07.05-.12.12-.16.19-.04.07-.05.15-.05.23,0,.1.03.19.09.26.06.07.14.13.24.18s.21.09.34.13c.13.04.25.08.39.12.13.04.26.09.39.15.12.05.24.12.34.2s.18.18.24.29c.06.12.09.26.09.42,0,.19-.03.36-.1.52-.07.16-.17.3-.3.41-.13.12-.29.21-.48.27-.19.07-.41.1-.66.1-.28,0-.54-.05-.77-.14-.23-.09-.42-.21-.58-.35l.17-.27s.05-.06.08-.08.07-.03.11-.03c.05,0,.1.02.15.06.05.04.12.08.19.12s.17.09.28.12.25.06.41.06c.14,0,.26-.02.36-.05.1-.04.19-.08.26-.15.07-.06.12-.13.15-.21.03-.08.05-.17.05-.26,0-.11-.03-.2-.09-.28-.06-.07-.14-.14-.24-.19s-.21-.1-.34-.14c-.13-.04-.26-.08-.39-.12s-.26-.09-.39-.15-.24-.12-.34-.21c-.1-.08-.18-.18-.24-.31-.06-.12-.09-.27-.09-.44,0-.15.03-.3.1-.45.06-.14.16-.27.28-.38.12-.11.27-.19.45-.26.18-.06.38-.1.61-.1.27,0,.51.04.72.13s.4.2.55.35l-.16.26Z" fill="#878a8c" stroke-width="0"/><path d="M159.45,166.58c0,.07-.01.13-.04.19-.03.06-.07.11-.11.16-.05.05-.1.08-.16.11-.06.03-.13.04-.2.04s-.13-.01-.19-.04c-.06-.03-.11-.06-.16-.11-.04-.05-.08-.1-.11-.16-.03-.06-.04-.12-.04-.19s.01-.13.04-.2c.03-.06.06-.12.11-.16.05-.05.1-.08.16-.11.06-.03.12-.04.19-.04s.13.01.2.04c.06.03.12.06.16.11s.08.1.11.16c.03.06.04.13.04.2ZM159.3,167.85v4.05h-.71v-4.05h.71Z" fill="#878a8c" stroke-width="0"/><path d="M161.14,168.44c.09-.1.18-.19.28-.27.1-.08.2-.15.31-.21.11-.06.23-.1.35-.13.12-.03.26-.05.4-.05.22,0,.42.04.59.11s.31.18.42.31.2.3.26.49.09.4.09.63v2.58h-.72v-2.58c0-.31-.07-.54-.21-.71-.14-.17-.35-.25-.64-.25-.21,0-.41.05-.59.15-.18.1-.35.24-.51.41v2.98h-.72v-4.05h.43c.1,0,.16.05.19.15l.06.44Z" fill="#878a8c" stroke-width="0"/><path d="M170.08,167.06s-.05.07-.08.09c-.03.02-.06.03-.1.03-.05,0-.1-.02-.16-.07-.06-.04-.14-.09-.23-.15s-.2-.11-.33-.15c-.13-.04-.29-.07-.47-.07-.17,0-.33.02-.46.07s-.24.11-.33.19c-.09.08-.16.17-.2.28-.04.11-.07.22-.07.35,0,.16.04.29.12.4.08.11.18.2.31.27.13.07.28.14.44.19.16.05.33.11.5.17.17.06.34.12.5.2s.31.17.44.28c.13.11.23.25.31.41.08.16.12.36.12.6,0,.25-.04.49-.13.71-.08.22-.21.41-.37.57-.16.16-.37.29-.6.38-.24.09-.51.14-.81.14-.37,0-.71-.07-1.02-.2s-.56-.32-.78-.55l.22-.37s.05-.05.08-.07c.03-.02.06-.03.1-.03.03,0,.07.01.12.04.04.03.09.06.15.11.06.04.12.09.19.14s.15.1.25.14c.09.04.2.08.31.11.12.03.25.04.4.04.18,0,.35-.03.49-.08.14-.05.27-.12.37-.21.1-.09.18-.2.23-.33s.08-.27.08-.43c0-.17-.04-.32-.12-.43-.08-.11-.18-.2-.31-.28-.13-.07-.28-.14-.44-.19-.17-.05-.33-.1-.5-.16s-.34-.12-.5-.19-.31-.17-.44-.28c-.13-.11-.23-.26-.31-.43s-.12-.38-.12-.64c0-.2.04-.4.12-.59s.19-.36.34-.5c.15-.15.34-.26.56-.35.22-.09.47-.13.76-.13.32,0,.61.05.87.15.26.1.49.25.69.44l-.19.37Z" fill="#878a8c" stroke-width="0"/><path d="M174.57,167.85v4.05h-.42c-.1,0-.17-.05-.19-.15l-.06-.44c-.18.19-.37.35-.59.47-.22.12-.47.18-.75.18-.22,0-.42-.04-.59-.11s-.31-.18-.43-.31c-.12-.13-.2-.29-.26-.48-.06-.19-.09-.4-.09-.63v-2.58h.71v2.58c0,.31.07.54.21.71.14.17.35.25.64.25.21,0,.41-.05.59-.15.18-.1.35-.24.51-.41v-2.98h.71Z" fill="#878a8c" stroke-width="0"/><path d="M179.05,166.01v5.89h-.42c-.1,0-.17-.05-.19-.15l-.06-.49c-.17.21-.37.38-.59.5-.22.13-.48.19-.77.19-.23,0-.44-.04-.63-.13-.19-.09-.35-.22-.48-.39-.13-.17-.24-.39-.31-.65s-.11-.56-.11-.89c0-.3.04-.58.12-.83.08-.26.19-.48.34-.67s.33-.34.55-.45c.22-.11.46-.16.73-.16.25,0,.46.04.64.13.18.08.33.2.47.35v-2.24h.71ZM178.34,168.81c-.13-.18-.28-.3-.43-.37-.16-.07-.33-.11-.52-.11-.38,0-.67.13-.87.4-.2.27-.3.65-.3,1.15,0,.26.02.49.07.68.04.19.11.34.2.46s.2.21.32.27c.13.06.27.08.44.08.23,0,.44-.05.61-.16.17-.11.34-.26.48-.45v-1.96Z" fill="#878a8c" stroke-width="0"/><path d="M180.07,168.42c.22-.22.47-.38.72-.48.26-.11.55-.16.86-.16.23,0,.43.04.6.11.18.07.32.18.44.31.12.13.21.29.27.48s.09.4.09.62v2.59h-.32c-.07,0-.12-.01-.16-.03-.04-.02-.07-.07-.09-.13l-.08-.38c-.11.1-.21.19-.31.26s-.21.14-.32.19c-.11.05-.23.09-.36.12-.13.03-.27.04-.42.04s-.31-.02-.44-.07-.26-.11-.36-.2-.18-.2-.24-.33c-.06-.13-.09-.29-.09-.48,0-.16.04-.31.13-.46.09-.15.23-.28.43-.39.2-.11.45-.21.77-.28.32-.07.71-.12,1.17-.13v-.32c0-.31-.07-.55-.2-.71-.14-.16-.33-.24-.6-.24-.18,0-.32.02-.44.07-.12.04-.22.09-.31.15s-.16.1-.22.15c-.06.04-.12.07-.19.07-.05,0-.09-.01-.12-.04-.03-.03-.06-.06-.09-.09l-.13-.23ZM182.37,170.08c-.33.01-.61.04-.84.08s-.42.1-.56.16c-.15.07-.25.15-.32.24s-.1.19-.1.3c0,.11.02.2.05.28.03.08.08.14.14.19.06.05.13.09.21.11.08.02.17.03.26.03.12,0,.24-.01.34-.04.1-.03.2-.06.29-.11s.18-.11.26-.17.17-.14.25-.23v-.84Z" fill="#878a8c" stroke-width="0"/><path d="M184.82,168.44c.09-.1.18-.19.28-.27.1-.08.2-.15.31-.21.11-.06.23-.1.35-.13.12-.03.26-.05.4-.05.22,0,.42.04.59.11s.31.18.42.31.2.3.26.49.09.4.09.63v2.58h-.72v-2.58c0-.31-.07-.54-.21-.71-.14-.17-.35-.25-.64-.25-.21,0-.41.05-.59.15-.18.1-.35.24-.51.41v2.98h-.72v-4.05h.43c.1,0,.16.05.19.15l.06.44Z" fill="#878a8c" stroke-width="0"/><path d="M188.5,171.46c0-.07.01-.13.04-.2.02-.06.06-.12.1-.16.04-.05.1-.08.16-.11.06-.03.13-.04.2-.04s.13.01.2.04c.06.03.12.06.16.11.05.04.08.1.11.16.03.06.04.13.04.2s-.01.14-.04.2c-.03.06-.06.11-.11.16-.04.04-.1.08-.16.11-.06.02-.13.04-.2.04s-.13-.01-.2-.04c-.06-.03-.11-.06-.16-.11s-.08-.1-.1-.16c-.03-.06-.04-.13-.04-.2Z" fill="#878a8c" stroke-width="0"/><path d="M15.12,14.47l-.45.56c.25-.13.52-.22.81-.29s.6-.1.94-.1c.49,0,.97.08,1.44.24.46.16.88.41,1.23.73.35.33.64.73.86,1.22.22.49.32,1.05.32,1.7,0,.61-.11,1.17-.33,1.71-.22.53-.53.99-.94,1.39s-.89.71-1.45.94c-.57.23-1.19.34-1.88.34s-1.32-.11-1.87-.33c-.55-.22-1.02-.53-1.41-.93-.39-.4-.69-.88-.9-1.44s-.31-1.18-.31-1.87c0-.61.12-1.24.37-1.89s.63-1.32,1.16-2.01l3.11-4.17c.11-.14.27-.27.47-.37.21-.1.45-.15.72-.15h1.98l-3.86,4.73ZM15.62,21.09c.35,0,.68-.06.98-.18s.55-.29.76-.5c.21-.22.38-.47.5-.76s.18-.61.18-.95c0-.37-.06-.71-.17-1-.11-.3-.28-.55-.49-.76s-.46-.36-.76-.47c-.29-.11-.62-.16-.97-.16s-.67.06-.96.18c-.29.12-.53.29-.74.5-.2.21-.36.47-.48.76-.11.29-.17.6-.17.94,0,.36.05.69.15.99.1.3.25.55.44.76.2.21.44.37.72.49.29.12.62.18,1,.18Z" fill="#00b398" stroke-width="0"/><path d="M21.64,21.54c0-.19.04-.36.1-.53.07-.17.16-.31.28-.43.12-.12.26-.22.43-.29.17-.07.35-.11.54-.11s.37.04.54.11c.17.07.31.17.43.29s.22.26.29.43.11.35.11.53-.04.37-.11.54-.17.31-.29.43c-.12.12-.27.21-.43.28s-.34.1-.54.1-.37-.03-.54-.1-.31-.16-.43-.28c-.12-.12-.21-.26-.28-.43-.07-.17-.1-.34-.1-.54Z" fill="#00b398" stroke-width="0"/><path d="M32.55,15.98c.79.26,1.38.65,1.75,1.18.38.53.57,1.18.57,1.95,0,.58-.11,1.1-.33,1.57-.22.47-.53.87-.92,1.2-.4.33-.87.58-1.43.77-.56.18-1.17.27-1.84.27s-1.29-.09-1.84-.27c-.55-.18-1.03-.44-1.43-.77-.4-.33-.7-.73-.92-1.2-.22-.47-.33-.99-.33-1.57,0-.77.19-1.42.57-1.95.38-.53.96-.93,1.75-1.18-.63-.26-1.1-.64-1.42-1.12-.32-.49-.47-1.07-.47-1.75,0-.49.1-.95.3-1.38.2-.43.48-.8.84-1.11.36-.32.79-.56,1.29-.74.5-.18,1.05-.27,1.65-.27s1.15.09,1.65.27c.5.18.93.42,1.29.74.36.31.64.69.84,1.11.2.43.3.89.3,1.38,0,.68-.16,1.27-.47,1.75-.31.49-.79.86-1.42,1.12ZM30.36,21.17c.37,0,.69-.05.96-.16s.51-.25.7-.44c.19-.19.33-.41.43-.67.1-.26.14-.54.14-.84,0-.71-.2-1.25-.59-1.62-.4-.37-.94-.55-1.64-.55s-1.24.18-1.64.55c-.4.37-.59.91-.59,1.62,0,.3.05.58.14.84.1.26.24.48.43.67.19.19.42.33.7.44.28.1.6.16.96.16ZM30.36,11.28c-.33,0-.62.05-.85.15-.24.1-.44.24-.6.41-.16.17-.28.37-.35.59-.08.22-.11.46-.11.7s.03.51.09.75c.06.24.17.46.32.65.15.19.35.34.59.45.25.11.55.17.91.17s.66-.06.91-.17c.25-.11.44-.27.59-.45s.26-.41.32-.65c.06-.24.09-.49.09-.75s-.04-.48-.12-.7c-.08-.22-.19-.42-.35-.59s-.35-.31-.59-.41c-.24-.1-.53-.15-.86-.15Z" fill="#00b398" stroke-width="0"/><path d="M41.05,22.76v-9.23h1.36c.29,0,.48.13.57.4l.14.68c.16-.18.33-.34.51-.5.18-.15.37-.28.57-.39.2-.11.42-.19.65-.26.23-.06.48-.09.76-.09.58,0,1.06.16,1.44.47.38.31.66.73.84,1.26.14-.31.32-.57.54-.79.22-.22.45-.4.71-.54.26-.14.53-.24.82-.31s.58-.1.88-.1c.51,0,.96.08,1.36.23.4.16.73.38,1,.68.27.3.48.67.62,1.1.14.43.21.93.21,1.48v5.88h-2.22v-5.88c0-.59-.13-1.03-.39-1.33s-.64-.45-1.13-.45c-.23,0-.44.04-.63.12-.19.08-.37.19-.51.34-.15.15-.26.33-.35.55-.08.22-.13.48-.13.77v5.88h-2.23v-5.88c0-.62-.12-1.07-.37-1.35-.25-.28-.61-.42-1.09-.42-.32,0-.62.08-.9.24-.28.16-.54.38-.78.65v6.76h-2.22Z" fill="#00b398" stroke-width="0"/><path d="M58.73,10.84c0,.19-.04.37-.12.54s-.18.31-.31.44-.28.23-.45.3c-.17.08-.36.11-.56.11s-.37-.04-.54-.11c-.17-.07-.32-.18-.45-.3s-.23-.27-.3-.44c-.08-.17-.11-.35-.11-.54s.04-.38.11-.56c.07-.17.17-.32.3-.45s.28-.23.45-.3.35-.11.54-.11.38.04.56.11c.17.08.33.18.45.3s.23.28.31.45.12.36.12.56ZM58.43,13.53v9.23h-2.23v-9.23h2.23Z" fill="#00b398" stroke-width="0"/><path d="M62.95,9.39v13.37h-2.22v-13.37h2.22Z" fill="#00b398" stroke-width="0"/><path d="M67.42,9.39v13.37h-2.22v-13.37h2.22Z" fill="#00b398" stroke-width="0"/><path d="M72.25,10.84c0,.19-.04.37-.12.54s-.18.31-.31.44-.28.23-.45.3c-.17.08-.36.11-.56.11s-.37-.04-.54-.11c-.17-.07-.32-.18-.45-.3s-.23-.27-.3-.44c-.08-.17-.11-.35-.11-.54s.04-.38.11-.56c.07-.17.17-.32.3-.45s.28-.23.45-.3.35-.11.54-.11.38.04.56.11c.17.08.33.18.45.3s.23.28.31.45.12.36.12.56ZM71.95,13.53v9.23h-2.23v-9.23h2.23Z" fill="#00b398" stroke-width="0"/><path d="M78.3,13.39c.68,0,1.31.11,1.87.33.56.22,1.04.54,1.44.94.4.41.71.91.92,1.49s.32,1.25.32,1.97-.11,1.39-.32,1.98c-.22.59-.52,1.09-.92,1.5s-.88.73-1.44.95c-.56.22-1.18.33-1.87.33s-1.32-.11-1.88-.33c-.56-.22-1.05-.54-1.44-.95-.4-.41-.71-.92-.93-1.5-.22-.59-.33-1.25-.33-1.98s.11-1.38.33-1.97c.22-.59.53-1.09.93-1.49.4-.41.88-.72,1.44-.94.56-.22,1.19-.33,1.88-.33ZM78.3,21.19c.77,0,1.34-.26,1.71-.77.37-.52.55-1.27.55-2.27s-.18-1.75-.55-2.28c-.37-.52-.94-.78-1.71-.78s-1.36.26-1.73.79c-.38.53-.56,1.28-.56,2.27s.19,1.74.56,2.26.95.78,1.73.78Z" fill="#00b398" stroke-width="0"/><path d="M86.63,14.66c.19-.19.38-.36.59-.52.21-.16.43-.29.66-.4.23-.11.48-.2.74-.26.26-.06.55-.09.86-.09.5,0,.95.09,1.34.26.39.17.71.41.98.72.26.31.46.68.59,1.11s.2.9.2,1.42v5.88h-2.22v-5.88c0-.56-.13-1-.39-1.31-.26-.31-.65-.46-1.18-.46-.38,0-.74.09-1.08.26-.34.17-.65.41-.95.71v6.68h-2.22v-9.23h1.36c.29,0,.48.13.57.4l.15.73Z" fill="#00b398" stroke-width="0"/><path d="M16.3,28.33v8.84h-.64c-.15,0-.25-.07-.29-.22l-.1-.74c-.26.31-.56.56-.89.76s-.72.29-1.15.29c-.35,0-.66-.07-.95-.2-.28-.13-.53-.33-.73-.59-.2-.26-.35-.58-.46-.97-.11-.39-.16-.83-.16-1.34,0-.45.06-.86.18-1.25.12-.39.29-.72.52-1,.22-.28.5-.51.83-.67s.69-.24,1.1-.24c.37,0,.69.06.96.19.27.13.5.3.71.52v-3.37h1.07ZM15.23,32.53c-.2-.27-.42-.46-.65-.56s-.49-.16-.78-.16c-.56,0-1,.2-1.3.61-.3.4-.46.98-.46,1.73,0,.4.03.73.1,1.02.07.28.17.51.3.7.13.18.29.31.49.4.19.08.41.13.65.13.35,0,.66-.08.92-.24s.5-.39.72-.68v-2.93Z" fill="#222" stroke-width="0"/><path d="M19.34,29.18c0,.1-.02.2-.06.29-.04.09-.1.17-.17.24-.07.07-.15.12-.25.17-.09.04-.19.06-.3.06s-.2-.02-.29-.06c-.09-.04-.17-.09-.24-.17-.07-.07-.12-.15-.16-.24-.04-.09-.06-.19-.06-.29s.02-.2.06-.3c.04-.09.09-.18.16-.25.07-.07.15-.12.24-.17.09-.04.19-.06.29-.06s.2.02.3.06c.09.04.18.09.25.17.07.07.13.15.17.25.04.09.06.19.06.3ZM19.12,31.09v6.08h-1.07v-6.08h1.07Z" fill="#222" stroke-width="0"/><path d="M24.41,32.09c-.05.09-.12.13-.22.13-.06,0-.13-.02-.2-.07-.08-.04-.17-.09-.28-.15-.11-.05-.24-.1-.39-.15-.15-.05-.33-.07-.54-.07-.18,0-.34.02-.49.07-.14.05-.27.11-.37.19-.1.08-.18.17-.23.28s-.08.22-.08.34c0,.16.04.29.13.39.09.1.21.19.36.27.15.08.32.14.5.2.19.06.38.12.58.19.2.07.39.14.58.22.19.08.36.18.5.3.15.12.27.27.36.44.09.17.14.38.14.63,0,.28-.05.54-.15.78-.1.24-.25.44-.44.62-.2.17-.44.31-.72.41-.28.1-.61.15-.98.15-.42,0-.81-.07-1.15-.21-.34-.14-.64-.31-.88-.53l.25-.41c.03-.05.07-.09.11-.12s.1-.04.17-.04.15.03.23.08.18.12.29.19.25.13.42.19.37.08.61.08c.21,0,.39-.03.55-.08.16-.05.29-.13.39-.22.1-.09.18-.2.23-.32s.08-.25.08-.38c0-.17-.04-.31-.14-.42-.09-.11-.21-.2-.36-.28-.15-.08-.32-.15-.51-.2-.19-.06-.38-.12-.58-.18-.2-.06-.39-.14-.58-.22-.19-.08-.36-.19-.51-.31-.15-.12-.27-.28-.36-.46s-.13-.4-.13-.66c0-.23.05-.45.14-.67.1-.21.24-.4.42-.56.18-.16.41-.29.68-.39.27-.1.57-.14.92-.14.4,0,.76.06,1.08.19.32.13.59.3.83.52l-.24.39Z" fill="#222" stroke-width="0"/><path d="M27.08,32.03c.26-.32.55-.57.89-.76s.72-.29,1.15-.29c.35,0,.67.07.95.2.28.13.53.33.73.59.2.26.35.59.46.98.11.39.16.83.16,1.34,0,.45-.06.87-.18,1.25-.12.39-.29.72-.52,1-.23.28-.5.5-.83.67-.33.16-.69.24-1.1.24-.37,0-.69-.06-.96-.19-.27-.13-.5-.3-.71-.52v2.69h-1.07v-8.14h.64c.15,0,.25.07.28.22l.1.72ZM27.14,35.7c.2.26.41.45.64.56.23.11.49.16.78.16.57,0,1-.2,1.31-.61.3-.4.46-.98.46-1.73,0-.4-.04-.74-.11-1.02-.07-.28-.17-.52-.3-.7s-.29-.31-.49-.4c-.19-.08-.41-.13-.65-.13-.35,0-.65.08-.92.24-.26.16-.5.39-.72.68v2.94Z" fill="#222" stroke-width="0"/><path d="M33.89,28.33v8.84h-1.07v-8.84h1.07Z" fill="#222" stroke-width="0"/><path d="M35.47,31.94c.34-.32.7-.57,1.09-.73.39-.16.82-.24,1.29-.24.34,0,.64.06.91.17.26.11.49.27.67.47.18.2.32.44.41.73.09.28.14.6.14.94v3.89h-.47c-.1,0-.18-.02-.24-.05-.06-.03-.1-.1-.13-.2l-.12-.58c-.16.15-.32.28-.47.39-.15.11-.31.21-.48.29s-.35.14-.54.18c-.19.04-.4.06-.63.06s-.46-.03-.67-.1-.39-.17-.54-.3c-.15-.13-.28-.3-.37-.5-.09-.2-.13-.44-.13-.72,0-.24.07-.47.2-.69.13-.22.35-.42.64-.59.3-.17.68-.31,1.16-.42.48-.11,1.06-.17,1.75-.19v-.47c0-.47-.1-.83-.31-1.07s-.5-.36-.89-.36c-.26,0-.49.03-.66.1s-.33.14-.46.22-.24.16-.34.22c-.09.07-.19.1-.28.1-.07,0-.13-.02-.19-.06-.05-.04-.1-.08-.13-.14l-.19-.34ZM38.92,34.43c-.49.02-.91.05-1.26.12-.35.06-.63.14-.85.24s-.38.22-.47.35c-.1.14-.15.29-.15.46s.03.3.08.41c.05.12.12.21.21.28.09.07.2.13.32.16.12.03.25.05.39.05.19,0,.36-.02.52-.06.16-.04.3-.09.44-.17.14-.07.27-.16.4-.26.13-.1.25-.21.37-.34v-1.26Z" fill="#222" stroke-width="0"/><path d="M45.82,32.17s-.06.08-.1.1-.08.04-.13.04c-.06,0-.13-.02-.2-.08-.07-.05-.16-.1-.27-.17-.11-.06-.24-.11-.39-.17-.15-.05-.34-.07-.57-.07-.3,0-.56.05-.79.16-.23.11-.42.26-.57.46-.15.2-.27.44-.35.73-.08.28-.12.6-.12.95s.04.69.13.98.2.53.36.72c.15.19.34.34.56.44.22.1.46.15.73.15s.47-.03.64-.09.31-.13.42-.21c.11-.08.2-.15.28-.21s.15-.09.22-.09c.09,0,.16.03.2.1l.3.39c-.13.16-.28.3-.45.42-.17.12-.35.21-.54.29-.19.08-.4.14-.61.17-.21.04-.43.05-.65.05-.38,0-.73-.07-1.06-.21s-.61-.34-.85-.61-.43-.59-.56-.98c-.14-.39-.2-.83-.2-1.33,0-.45.06-.87.19-1.25.13-.38.31-.71.55-.99.24-.28.54-.5.89-.65.35-.16.76-.23,1.22-.23.43,0,.8.07,1.13.21.33.14.62.33.87.58l-.28.38Z" fill="#222" stroke-width="0"/><path d="M52.14,36.31c-.13.16-.29.3-.47.42-.18.12-.38.22-.59.29-.21.08-.43.13-.65.17-.22.04-.45.06-.67.06-.42,0-.81-.07-1.16-.21-.35-.14-.66-.35-.92-.62s-.46-.61-.6-1.02c-.14-.4-.22-.87-.22-1.39,0-.42.07-.82.2-1.19.13-.37.32-.69.56-.96s.54-.48.89-.64c.35-.15.75-.23,1.19-.23.36,0,.7.06,1.01.18.31.12.58.3.8.53.23.23.4.51.53.85.13.34.19.72.19,1.15,0,.17-.02.28-.05.34-.04.06-.1.08-.2.08h-4.06c.01.38.06.72.16,1,.09.28.23.52.39.71.17.19.37.33.6.43.23.09.49.14.78.14.27,0,.5-.03.69-.09.19-.06.36-.13.5-.2.14-.07.26-.14.35-.2s.17-.09.24-.09c.09,0,.16.03.2.1l.3.39ZM51.28,33.46c0-.25-.04-.47-.1-.68-.07-.21-.17-.38-.31-.53-.13-.15-.3-.27-.49-.35-.19-.08-.41-.12-.65-.12-.51,0-.92.15-1.21.45s-.48.71-.56,1.24h3.32Z" fill="#222" stroke-width="0"/><path d="M58.57,28.33v8.84h-.64c-.15,0-.25-.07-.29-.22l-.1-.74c-.26.31-.56.56-.89.76s-.72.29-1.15.29c-.35,0-.66-.07-.95-.2-.28-.13-.53-.33-.73-.59-.2-.26-.35-.58-.46-.97-.11-.39-.16-.83-.16-1.34,0-.45.06-.86.18-1.25.12-.39.29-.72.52-1,.22-.28.5-.51.83-.67s.69-.24,1.1-.24c.37,0,.69.06.96.19.27.13.5.3.71.52v-3.37h1.07ZM57.5,32.53c-.2-.27-.42-.46-.65-.56s-.49-.16-.78-.16c-.56,0-1,.2-1.3.61-.3.4-.46.98-.46,1.73,0,.4.03.73.1,1.02.07.28.17.51.3.7.13.18.29.31.49.4.19.08.41.13.65.13.35,0,.66-.08.92-.24s.5-.39.72-.68v-2.93Z" fill="#222" stroke-width="0"/><path d="M64.69,29.18c0,.1-.02.2-.06.29-.04.09-.1.17-.17.24-.07.07-.15.12-.25.17-.09.04-.19.06-.3.06s-.2-.02-.29-.06c-.09-.04-.17-.09-.24-.17-.07-.07-.12-.15-.16-.24-.04-.09-.06-.19-.06-.29s.02-.2.06-.3c.04-.09.09-.18.16-.25.07-.07.15-.12.24-.17.09-.04.19-.06.29-.06s.2.02.3.06c.09.04.18.09.25.17.07.07.13.15.17.25.04.09.06.19.06.3ZM64.46,31.09v6.08h-1.07v-6.08h1.07Z" fill="#222" stroke-width="0"/><path d="M67.22,31.97c.13-.15.27-.28.42-.4.15-.12.3-.22.47-.31.17-.09.34-.15.53-.2.19-.05.39-.07.6-.07.33,0,.62.05.88.17.25.11.47.27.64.47.17.2.3.44.39.73s.13.6.13.94v3.87h-1.07v-3.87c0-.46-.1-.82-.31-1.07s-.53-.38-.96-.38c-.32,0-.61.08-.88.23-.27.15-.53.36-.76.62v4.48h-1.07v-6.08h.64c.15,0,.25.07.28.22l.08.66Z" fill="#222" stroke-width="0"/><path d="M76.45,32.09c-.05.09-.12.13-.22.13-.06,0-.13-.02-.2-.07-.08-.04-.17-.09-.28-.15-.11-.05-.24-.1-.39-.15-.15-.05-.33-.07-.54-.07-.18,0-.34.02-.49.07-.14.05-.27.11-.37.19-.1.08-.18.17-.23.28s-.08.22-.08.34c0,.16.04.29.13.39.09.1.21.19.36.27.15.08.32.14.5.2.19.06.38.12.58.19.2.07.39.14.58.22.19.08.36.18.5.3.15.12.27.27.36.44.09.17.14.38.14.63,0,.28-.05.54-.15.78-.1.24-.25.44-.44.62-.2.17-.44.31-.72.41-.28.1-.61.15-.98.15-.42,0-.81-.07-1.15-.21-.34-.14-.64-.31-.88-.53l.25-.41c.03-.05.07-.09.11-.12s.1-.04.17-.04.15.03.23.08.18.12.29.19.25.13.42.19.37.08.61.08c.21,0,.39-.03.55-.08.16-.05.29-.13.39-.22.1-.09.18-.2.23-.32s.08-.25.08-.38c0-.17-.04-.31-.14-.42-.09-.11-.21-.2-.36-.28-.15-.08-.32-.15-.51-.2-.19-.06-.38-.12-.58-.18-.2-.06-.39-.14-.58-.22-.19-.08-.36-.19-.51-.31-.15-.12-.27-.28-.36-.46s-.13-.4-.13-.66c0-.23.05-.45.14-.67.1-.21.24-.4.42-.56.18-.16.41-.29.68-.39.27-.1.57-.14.92-.14.4,0,.76.06,1.08.19.32.13.59.3.83.52l-.24.39Z" fill="#222" stroke-width="0"/><path d="M79.46,29.18c0,.1-.02.2-.06.29-.04.09-.1.17-.17.24-.07.07-.15.12-.25.17s-.19.06-.3.06-.2-.02-.29-.06-.17-.09-.24-.17c-.07-.07-.12-.15-.16-.24-.04-.09-.06-.19-.06-.29s.02-.2.06-.3c.04-.09.09-.18.16-.25.07-.07.15-.12.24-.17s.19-.06.29-.06.2.02.3.06.18.09.25.17c.07.07.13.15.17.25.04.09.06.19.06.3ZM79.24,31.09v6.08h-1.07v-6.08h1.07Z" fill="#222" stroke-width="0"/><path d="M86.02,28.33v8.84h-.64c-.15,0-.25-.07-.29-.22l-.1-.74c-.26.31-.56.56-.89.76s-.72.29-1.15.29c-.35,0-.66-.07-.95-.2-.28-.13-.53-.33-.73-.59-.2-.26-.35-.58-.46-.97-.11-.39-.16-.83-.16-1.34,0-.45.06-.86.18-1.25.12-.39.29-.72.52-1,.22-.28.5-.51.83-.67.33-.16.69-.24,1.1-.24.37,0,.69.06.96.19s.5.3.71.52v-3.37h1.07ZM84.95,32.53c-.2-.27-.42-.46-.65-.56-.23-.11-.49-.16-.78-.16-.56,0-1,.2-1.3.61-.3.4-.46.98-.46,1.73,0,.4.03.73.1,1.02.07.28.17.51.3.7.13.18.29.31.49.4.19.08.41.13.65.13.35,0,.66-.08.92-.24.26-.16.5-.39.72-.68v-2.93Z" fill="#222" stroke-width="0"/><path d="M92.64,36.31c-.13.16-.29.3-.47.42-.18.12-.38.22-.59.29-.21.08-.43.13-.65.17-.22.04-.45.06-.67.06-.42,0-.81-.07-1.16-.21-.35-.14-.66-.35-.92-.62s-.46-.61-.6-1.02c-.14-.4-.22-.87-.22-1.39,0-.42.07-.82.2-1.19.13-.37.32-.69.56-.96s.54-.48.89-.64c.35-.15.75-.23,1.19-.23.36,0,.7.06,1.01.18.31.12.58.3.8.53.23.23.4.51.53.85.13.34.19.72.19,1.15,0,.17-.02.28-.05.34-.04.06-.1.08-.2.08h-4.06c.01.38.06.72.16,1,.09.28.23.52.39.71.17.19.37.33.6.43.23.09.49.14.78.14.27,0,.5-.03.69-.09.19-.06.36-.13.5-.2.14-.07.26-.14.35-.2s.17-.09.24-.09c.09,0,.16.03.2.1l.3.39ZM91.78,33.46c0-.25-.04-.47-.1-.68-.07-.21-.17-.38-.31-.53-.13-.15-.3-.27-.49-.35-.19-.08-.41-.12-.65-.12-.51,0-.92.15-1.21.45s-.48.71-.56,1.24h3.32Z" fill="#222" stroke-width="0"/><path d="M101.77,29.91c-.04.06-.08.1-.12.13-.04.03-.09.04-.15.04-.07,0-.15-.03-.24-.1-.09-.07-.21-.14-.34-.23s-.3-.16-.5-.23-.43-.1-.71-.1c-.26,0-.49.04-.69.1-.2.07-.36.17-.5.29s-.24.26-.3.42c-.07.16-.1.34-.1.52,0,.24.06.44.18.6s.27.29.47.4c.19.11.41.21.66.29.25.08.5.17.76.26.26.09.51.19.76.3s.47.25.66.42c.19.17.35.37.47.62.12.24.18.54.18.9,0,.38-.06.73-.19,1.06-.13.33-.31.62-.56.86s-.55.44-.91.58c-.36.14-.76.21-1.22.21-.56,0-1.07-.1-1.52-.3s-.85-.48-1.17-.82l.34-.55s.07-.08.12-.11c.05-.03.1-.04.15-.04.05,0,.11.02.18.06s.14.09.22.16c.08.06.18.13.29.21.11.08.23.15.37.21.14.06.29.12.47.16.18.04.37.06.59.06.28,0,.52-.04.74-.11.22-.08.4-.18.55-.32.15-.14.26-.3.34-.49.08-.19.12-.41.12-.64,0-.26-.06-.47-.18-.64-.12-.17-.27-.3-.47-.42-.19-.11-.41-.21-.66-.29-.25-.08-.5-.16-.76-.24-.26-.08-.51-.18-.76-.29s-.47-.25-.66-.42c-.19-.17-.35-.39-.46-.65s-.18-.58-.18-.96c0-.3.06-.6.18-.88s.29-.54.52-.76c.23-.22.5-.4.83-.53.33-.13.71-.2,1.14-.2.48,0,.92.08,1.31.23.39.15.74.37,1.04.66l-.28.55Z" fill="#222" stroke-width="0"/><path d="M108.5,31.09v6.08h-.64c-.15,0-.25-.07-.29-.22l-.08-.65c-.26.29-.56.53-.89.71-.33.18-.7.27-1.13.27-.33,0-.62-.06-.88-.17-.25-.11-.47-.27-.64-.47-.17-.2-.3-.44-.39-.73-.09-.28-.13-.6-.13-.94v-3.88h1.07v3.88c0,.46.1.82.31,1.07.21.25.53.38.96.38.32,0,.61-.08.89-.23.27-.15.53-.36.76-.62v-4.48h1.07Z" fill="#222" stroke-width="0"/><path d="M115.22,28.33v8.84h-.64c-.15,0-.25-.07-.29-.22l-.1-.74c-.26.31-.56.56-.89.76s-.72.29-1.15.29c-.35,0-.66-.07-.95-.2-.28-.13-.53-.33-.73-.59-.2-.26-.35-.58-.46-.97-.11-.39-.16-.83-.16-1.34,0-.45.06-.86.18-1.25.12-.39.29-.72.52-1,.22-.28.5-.51.83-.67.33-.16.69-.24,1.1-.24.37,0,.69.06.96.19s.5.3.71.52v-3.37h1.07ZM114.16,32.53c-.2-.27-.42-.46-.65-.56-.23-.11-.49-.16-.78-.16-.56,0-1,.2-1.3.61-.3.4-.46.98-.46,1.73,0,.4.03.73.1,1.02.07.28.17.51.3.7.13.18.29.31.49.4.19.08.41.13.65.13.35,0,.66-.08.92-.24.26-.16.5-.39.72-.68v-2.93Z" fill="#222" stroke-width="0"/><path d="M116.76,31.94c.34-.32.7-.57,1.09-.73.39-.16.82-.24,1.29-.24.34,0,.64.06.91.17.26.11.49.27.67.47.18.2.32.44.41.73.09.28.14.6.14.94v3.89h-.47c-.1,0-.18-.02-.24-.05-.06-.03-.1-.1-.13-.2l-.12-.58c-.16.15-.32.28-.47.39-.15.11-.31.21-.48.29s-.35.14-.54.18c-.19.04-.4.06-.63.06s-.46-.03-.67-.1-.39-.17-.54-.3c-.15-.13-.28-.3-.37-.5-.09-.2-.13-.44-.13-.72,0-.24.07-.47.2-.69s.35-.42.64-.59c.3-.17.68-.31,1.16-.42.48-.11,1.06-.17,1.75-.19v-.47c0-.47-.1-.83-.31-1.07s-.5-.36-.89-.36c-.26,0-.48.03-.66.1-.18.07-.33.14-.46.22s-.24.16-.34.22c-.09.07-.19.1-.28.1-.07,0-.13-.02-.19-.06s-.1-.08-.13-.14l-.19-.34ZM120.21,34.43c-.49.02-.91.05-1.26.12s-.63.14-.85.24c-.22.1-.38.22-.47.35-.1.14-.15.29-.15.46s.03.3.08.41c.05.12.12.21.21.28.09.07.2.13.32.16.12.03.25.05.39.05.19,0,.36-.02.52-.06s.3-.09.44-.17c.14-.07.27-.16.4-.26.13-.1.25-.21.37-.34v-1.26Z" fill="#222" stroke-width="0"/><path d="M123.89,31.97c.13-.15.27-.28.42-.4.15-.12.31-.22.47-.31.17-.09.34-.15.53-.2.19-.05.39-.07.6-.07.33,0,.62.05.88.17.25.11.47.27.64.47s.3.44.39.73.13.6.13.94v3.87h-1.07v-3.87c0-.46-.11-.82-.32-1.07s-.53-.38-.96-.38c-.32,0-.61.08-.88.23-.27.15-.53.36-.76.62v4.48h-1.07v-6.08h.64c.15,0,.25.07.28.22l.08.66Z" fill="#222" stroke-width="0"/><path d="M129.13,30.12c.2-.19.41-.33.63-.42s.48-.14.75-.14c.2,0,.37.03.53.1.15.06.28.16.39.27.1.12.18.26.24.42s.08.35.08.55v2.27h-.28c-.06,0-.11,0-.14-.03-.03-.02-.06-.06-.08-.12l-.07-.34c-.09.09-.18.16-.27.23-.09.07-.18.12-.28.17-.1.05-.2.08-.31.1-.11.02-.23.04-.37.04s-.27-.02-.39-.06c-.12-.04-.23-.1-.32-.17-.09-.08-.16-.17-.21-.29s-.08-.26-.08-.42c0-.14.04-.27.12-.4s.2-.24.37-.34c.17-.1.4-.18.67-.25.28-.06.62-.1,1.02-.11v-.28c0-.28-.06-.48-.18-.62-.12-.14-.29-.21-.52-.21-.15,0-.28.02-.39.06s-.19.08-.27.13c-.08.05-.14.09-.2.13s-.11.06-.16.06c-.04,0-.08-.01-.11-.03-.03-.02-.06-.05-.08-.08l-.11-.2ZM131.14,31.57c-.29,0-.53.03-.73.07-.2.04-.37.08-.49.14-.13.06-.22.13-.28.21-.06.08-.09.17-.09.27s.02.17.05.24c.03.07.07.12.12.17.05.04.11.07.19.09.07.02.15.03.23.03.11,0,.21-.01.3-.03.09-.02.18-.05.26-.1.08-.04.16-.09.23-.15s.15-.12.21-.2v-.73Z" fill="#222" stroke-width="0"/><path d="M31.12,47.75c-.49-1.49-2.09-2.3-3.58-1.81-1.49.49-2.3,2.09-1.81,3.58.49,1.49,2.09,2.3,3.58,1.81,1.49-.49,2.3-2.09,1.81-3.58Z" fill="#00b398" stroke-width="0"/><path d="M24.7,62.46l2.79-5.52c.86-1.7.17-3.76-1.52-4.62l-1.81-.91c-.1-.05-.2-.08-.3-.11-4.82-2.12-10.54-.14-12.97,4.61-.37.72-.08,1.6.64,1.97.72.37,1.6.08,1.97-.64,1.4-2.74,4.34-4.17,7.23-3.81l-10.55,20.69c-.37.73-.08,1.62.65,1.99.22.11.45.16.67.16.54,0,1.06-.29,1.32-.81l6.41-12.57,3.17,1.6c3.42,1.86,4.75,6.14,2.94,9.61-.38.73-.09,1.62.63,1.99.36.19.77.21,1.13.1s.68-.37.87-.73c2.38-4.58.9-10.16-3.25-13.01Z" fill="#00b398" stroke-width="0"/><path d="M43.7,58.8l-4.92-4.92c-.43-.43-1.13-.43-1.56,0-.43.43-.43,1.13,0,1.56l3.08,3.08h-9.39c-.59,0-1.06.48-1.06,1.06s.48,1.06,1.06,1.06h9.39l-3.08,3.08c-.43.43-.43,1.13,0,1.56.21.21.5.32.78.32s.56-.11.78-.32l4.92-4.92c.21-.21.32-.49.32-.78s-.12-.57-.32-.78Z" fill="#00b398" stroke-width="0"/><path d="M337.31,47.75c-.49-1.49-2.09-2.3-3.58-1.81-1.49.49-2.3,2.09-1.81,3.58.49,1.49,2.09,2.3,3.58,1.81,1.49-.49,2.3-2.09,1.81-3.58Z" fill="#00b398" stroke-width="0"/><path d="M330.88,62.46l2.79-5.52c.86-1.7.17-3.76-1.52-4.62l-1.81-.91c-.1-.05-.2-.08-.3-.11-4.82-2.12-10.54-.14-12.97,4.61-.37.72-.08,1.6.64,1.97.72.37,1.6.08,1.97-.64,1.4-2.74,4.34-4.17,7.23-3.81l-10.55,20.69c-.37.73-.08,1.62.65,1.99.22.11.45.16.67.16.54,0,1.06-.29,1.32-.81l6.41-12.57,3.17,1.6c3.42,1.86,4.75,6.14,2.94,9.61-.38.73-.09,1.62.63,1.99.36.19.77.21,1.13.1s.68-.37.87-.73c2.38-4.58.9-10.16-3.25-13.01Z" fill="#00b398" stroke-width="0"/><path d="M349.88,58.8l-4.92-4.92c-.43-.43-1.13-.43-1.56,0-.43.43-.43,1.13,0,1.56l3.08,3.08h-9.39c-.59,0-1.06.48-1.06,1.06s.48,1.06,1.06,1.06h9.39l-3.08,3.08c-.43.43-.43,1.13,0,1.56.21.21.5.32.78.32s.56-.11.78-.32l4.92-4.92c.21-.21.32-.49.32-.78s-.12-.57-.32-.78Z" fill="#00b398" stroke-width="0"/><path d="M303.28,47.75c-.49-1.49-2.09-2.3-3.58-1.81-1.49.49-2.3,2.09-1.81,3.58.49,1.49,2.09,2.3,3.58,1.81,1.49-.49,2.3-2.09,1.81-3.58Z" fill="#00b398" stroke-width="0"/><path d="M296.86,62.46l2.79-5.52c.86-1.7.17-3.76-1.52-4.62l-1.81-.91c-.1-.05-.2-.08-.3-.11-4.82-2.12-10.54-.14-12.97,4.61-.37.72-.08,1.6.64,1.97.72.37,1.6.08,1.97-.64,1.4-2.74,4.34-4.17,7.23-3.81l-10.55,20.69c-.37.73-.08,1.62.65,1.99.22.11.45.16.67.16.54,0,1.06-.29,1.32-.81l6.41-12.57,3.17,1.6c3.42,1.86,4.75,6.14,2.94,9.61-.38.73-.09,1.62.63,1.99.36.19.77.21,1.13.1s.68-.37.87-.73c2.38-4.58.9-10.16-3.25-13.01Z" fill="#00b398" stroke-width="0"/><path d="M315.86,58.8l-4.92-4.92c-.43-.43-1.13-.43-1.56,0-.43.43-.43,1.13,0,1.56l3.08,3.08h-9.39c-.59,0-1.06.48-1.06,1.06s.48,1.06,1.06,1.06h9.39l-3.08,3.08c-.43.43-.43,1.13,0,1.56.21.21.5.32.78.32s.56-.11.78-.32l4.92-4.92c.21-.21.32-.49.32-.78s-.12-.57-.32-.78Z" fill="#00b398" stroke-width="0"/><path d="M269.26,47.75c-.49-1.49-2.09-2.3-3.58-1.81-1.49.49-2.3,2.09-1.81,3.58.49,1.49,2.09,2.3,3.58,1.81,1.49-.49,2.3-2.09,1.81-3.58Z" fill="#00b398" stroke-width="0"/><path d="M262.84,62.46l2.79-5.52c.86-1.7.17-3.76-1.52-4.62l-1.81-.91c-.1-.05-.2-.08-.3-.11-4.82-2.12-10.54-.14-12.97,4.61-.37.72-.08,1.6.64,1.97.72.37,1.6.08,1.97-.64,1.4-2.74,4.34-4.17,7.23-3.81l-10.55,20.69c-.37.73-.08,1.62.65,1.99.22.11.45.16.67.16.54,0,1.06-.29,1.32-.81l6.41-12.57,3.17,1.6c3.42,1.86,4.75,6.14,2.94,9.61-.38.73-.09,1.62.63,1.99.36.19.77.21,1.13.1s.68-.37.87-.73c2.38-4.58.9-10.16-3.25-13.01Z" fill="#00b398" stroke-width="0"/><path d="M281.84,58.8l-4.92-4.92c-.43-.43-1.13-.43-1.56,0-.43.43-.43,1.13,0,1.56l3.08,3.08h-9.39c-.59,0-1.06.48-1.06,1.06s.48,1.06,1.06,1.06h9.39l-3.08,3.08c-.43.43-.43,1.13,0,1.56.21.21.5.32.78.32s.56-.11.78-.32l4.92-4.92c.21-.21.32-.49.32-.78s-.12-.57-.32-.78Z" fill="#00b398" stroke-width="0"/><path d="M235.24,47.75c-.49-1.49-2.09-2.3-3.58-1.81-1.49.49-2.3,2.09-1.81,3.58.49,1.49,2.09,2.3,3.58,1.81,1.49-.49,2.3-2.09,1.81-3.58Z" fill="#00b398" stroke-width="0"/><path d="M228.82,62.46l2.79-5.52c.86-1.7.17-3.76-1.52-4.62l-1.81-.91c-.1-.05-.2-.08-.3-.11-4.82-2.12-10.54-.14-12.97,4.61-.37.72-.08,1.6.64,1.97.72.37,1.6.08,1.97-.64,1.4-2.74,4.34-4.17,7.23-3.81l-10.55,20.69c-.37.73-.08,1.62.65,1.99.22.11.45.16.67.16.54,0,1.06-.29,1.32-.81l6.41-12.57,3.17,1.6c3.42,1.86,4.75,6.14,2.94,9.61-.38.73-.09,1.62.63,1.99.36.19.77.21,1.13.1s.68-.37.87-.73c2.38-4.58.9-10.16-3.25-13.01Z" fill="#00b398" stroke-width="0"/><path d="M247.82,58.8l-4.92-4.92c-.43-.43-1.13-.43-1.56,0-.43.43-.43,1.13,0,1.56l3.08,3.08h-9.39c-.59,0-1.06.48-1.06,1.06s.48,1.06,1.06,1.06h9.39l-3.08,3.08c-.43.43-.43,1.13,0,1.56.21.21.5.32.78.32s.56-.11.78-.32l4.92-4.92c.21-.21.32-.49.32-.78s-.12-.57-.32-.78Z" fill="#00b398" stroke-width="0"/><path d="M201.22,47.75c-.49-1.49-2.09-2.3-3.58-1.81-1.49.49-2.3,2.09-1.81,3.58.49,1.49,2.09,2.3,3.58,1.81,1.49-.49,2.3-2.09,1.81-3.58Z" fill="#00b398" stroke-width="0"/><path d="M194.8,62.46l2.79-5.52c.86-1.7.17-3.76-1.52-4.62l-1.81-.91c-.1-.05-.2-.08-.3-.11-4.82-2.12-10.54-.14-12.97,4.61-.37.72-.08,1.6.64,1.97.72.37,1.6.08,1.97-.64,1.4-2.74,4.34-4.17,7.23-3.81l-10.55,20.69c-.37.73-.08,1.62.65,1.99.22.11.45.16.67.16.54,0,1.06-.29,1.32-.81l6.41-12.57,3.17,1.6c3.42,1.86,4.75,6.14,2.94,9.61-.38.73-.09,1.62.63,1.99.36.19.77.21,1.13.1s.68-.37.87-.73c2.38-4.58.9-10.16-3.25-13.01Z" fill="#00b398" stroke-width="0"/><path d="M213.8,58.8l-4.92-4.92c-.43-.43-1.13-.43-1.56,0-.43.43-.43,1.13,0,1.56l3.08,3.08h-9.39c-.59,0-1.06.48-1.06,1.06s.48,1.06,1.06,1.06h9.39l-3.08,3.08c-.43.43-.43,1.13,0,1.56.21.21.5.32.78.32s.56-.11.78-.32l4.92-4.92c.21-.21.32-.49.32-.78s-.12-.57-.32-.78Z" fill="#00b398" stroke-width="0"/><path d="M167.2,47.75c-.49-1.49-2.09-2.3-3.58-1.81-1.49.49-2.3,2.09-1.81,3.58.49,1.49,2.09,2.3,3.58,1.81,1.49-.49,2.3-2.09,1.81-3.58Z" fill="#00b398" stroke-width="0"/><path d="M160.78,62.46l2.79-5.52c.86-1.7.17-3.76-1.52-4.62l-1.81-.91c-.1-.05-.2-.08-.3-.11-4.82-2.12-10.54-.14-12.97,4.61-.37.72-.08,1.6.64,1.97.72.37,1.6.08,1.97-.64,1.4-2.74,4.34-4.17,7.23-3.81l-10.55,20.69c-.37.73-.08,1.62.65,1.99.22.11.45.16.67.16.54,0,1.06-.29,1.32-.81l6.41-12.57,3.17,1.6c3.42,1.86,4.75,6.14,2.94,9.61-.38.73-.09,1.62.63,1.99.36.19.77.21,1.13.1s.68-.37.87-.73c2.38-4.58.9-10.16-3.25-13.01Z" fill="#00b398" stroke-width="0"/><path d="M179.78,58.8l-4.92-4.92c-.43-.43-1.13-.43-1.56,0-.43.43-.43,1.13,0,1.56l3.08,3.08h-9.39c-.59,0-1.06.48-1.06,1.06s.48,1.06,1.06,1.06h9.39l-3.08,3.08c-.43.43-.43,1.13,0,1.56.21.21.5.32.78.32s.56-.11.78-.32l4.92-4.92c.21-.21.32-.49.32-.78s-.12-.57-.32-.78Z" fill="#00b398" stroke-width="0"/><path d="M133.18,47.75c-.49-1.49-2.09-2.3-3.58-1.81-1.49.49-2.3,2.09-1.81,3.58.49,1.49,2.09,2.3,3.58,1.81,1.49-.49,2.3-2.09,1.81-3.58Z" fill="#00b398" stroke-width="0"/><path d="M126.76,62.46l2.79-5.52c.86-1.7.17-3.76-1.52-4.62l-1.81-.91c-.1-.05-.2-.08-.3-.11-4.82-2.12-10.54-.14-12.97,4.61-.37.72-.08,1.6.64,1.97.72.37,1.6.08,1.97-.64,1.4-2.74,4.34-4.17,7.23-3.81l-10.55,20.69c-.37.73-.08,1.62.65,1.99.22.11.45.16.67.16.54,0,1.06-.29,1.32-.81l6.41-12.57,3.17,1.6c3.42,1.86,4.75,6.14,2.94,9.61-.38.73-.09,1.62.63,1.99.36.19.77.21,1.13.1s.68-.37.87-.73c2.38-4.58.9-10.16-3.25-13.01Z" fill="#00b398" stroke-width="0"/><path d="M145.76,58.8l-4.92-4.92c-.43-.43-1.13-.43-1.56,0-.43.43-.43,1.13,0,1.56l3.08,3.08h-9.39c-.59,0-1.06.48-1.06,1.06s.48,1.06,1.06,1.06h9.39l-3.08,3.08c-.43.43-.43,1.13,0,1.56.21.21.5.32.78.32s.56-.11.78-.32l4.92-4.92c.21-.21.32-.49.32-.78s-.12-.57-.32-.78Z" fill="#00b398" stroke-width="0"/><path d="M99.16,47.75c-.49-1.49-2.09-2.3-3.58-1.81-1.49.49-2.3,2.09-1.81,3.58.49,1.49,2.09,2.3,3.58,1.81,1.49-.49,2.3-2.09,1.81-3.58Z" fill="#00b398" stroke-width="0"/><path d="M92.74,62.46l2.79-5.52c.86-1.7.17-3.76-1.52-4.62l-1.81-.91c-.1-.05-.2-.08-.3-.11-4.82-2.12-10.54-.14-12.97,4.61-.37.72-.08,1.6.64,1.97.72.37,1.6.08,1.97-.64,1.4-2.74,4.34-4.17,7.23-3.81l-10.55,20.69c-.37.73-.08,1.62.65,1.99.22.11.45.16.67.16.54,0,1.06-.29,1.32-.81l6.41-12.57,3.17,1.6c3.42,1.86,4.75,6.14,2.94,9.61-.38.73-.09,1.62.63,1.99.36.19.77.21,1.13.1s.68-.37.87-.73c2.38-4.58.9-10.16-3.25-13.01Z" fill="#00b398" stroke-width="0"/><path d="M111.74,58.8l-4.92-4.92c-.43-.43-1.13-.43-1.56,0-.43.43-.43,1.13,0,1.56l3.08,3.08h-9.39c-.59,0-1.06.48-1.06,1.06s.48,1.06,1.06,1.06h9.39l-3.08,3.08c-.43.43-.43,1.13,0,1.56.21.21.5.32.78.32s.56-.11.78-.32l4.92-4.92c.21-.21.32-.49.32-.78s-.12-.57-.32-.78Z" fill="#00b398" stroke-width="0"/><path d="M65.14,47.75c-.49-1.49-2.09-2.3-3.58-1.81-1.49.49-2.3,2.09-1.81,3.58.49,1.49,2.09,2.3,3.58,1.81,1.49-.49,2.3-2.09,1.81-3.58Z" fill="#00b398" stroke-width="0"/><path d="M58.72,62.46l2.79-5.52c.86-1.7.17-3.76-1.52-4.62l-1.81-.91c-.1-.05-.2-.08-.3-.11-4.82-2.12-10.54-.14-12.97,4.61-.37.72-.08,1.6.64,1.97.72.37,1.6.08,1.97-.64,1.4-2.74,4.34-4.17,7.23-3.81l-10.55,20.69c-.37.73-.08,1.62.65,1.99.22.11.45.16.67.16.54,0,1.06-.29,1.32-.81l6.41-12.57,3.17,1.6c3.42,1.86,4.75,6.14,2.94,9.61-.38.73-.09,1.62.63,1.99.36.19.77.21,1.13.1s.68-.37.87-.73c2.38-4.58.9-10.16-3.25-13.01Z" fill="#00b398" stroke-width="0"/><path d="M77.72,58.8l-4.92-4.92c-.43-.43-1.13-.43-1.56,0-.43.43-.43,1.13,0,1.56l3.08,3.08h-9.39c-.59,0-1.06.48-1.06,1.06s.48,1.06,1.06,1.06h9.39l-3.08,3.08c-.43.43-.43,1.13,0,1.56.21.21.5.32.78.32s.56-.11.78-.32l4.92-4.92c.21-.21.32-.49.32-.78s-.12-.57-.32-.78Z" fill="#00b398" stroke-width="0"/><g clip-path="url(#d)"><path d="M337.51,88.73c-.49-1.49-2.09-2.3-3.58-1.81-1.49.49-2.3,2.09-1.81,3.58.49,1.49,2.09,2.3,3.58,1.81,1.49-.49,2.3-2.09,1.81-3.58Z" fill="#0072bc" stroke-width="0"/><path d="M331.09,103.43l2.79-5.52c.86-1.7.17-3.76-1.52-4.62l-1.81-.91c-.1-.05-.2-.08-.3-.11-4.82-2.12-10.54-.14-12.97,4.61-.37.72-.08,1.6.64,1.97.72.37,1.6.08,1.97-.64,1.4-2.74,4.34-4.17,7.23-3.81l-10.55,20.69c-.37.73-.08,1.62.65,1.99.22.11.45.16.67.16.54,0,1.06-.29,1.32-.81l6.41-12.57,3.17,1.6c3.42,1.86,4.75,6.14,2.94,9.61-.38.73-.09,1.62.63,1.99.36.19.77.21,1.13.1s.68-.37.87-.73c2.38-4.58.9-10.16-3.25-13.01Z" fill="#0072bc" stroke-width="0"/><path d="M350.09,99.77l-4.92-4.92c-.43-.43-1.13-.43-1.56,0-.43.43-.43,1.13,0,1.56l3.08,3.08h-9.39c-.59,0-1.06.48-1.06,1.06s.48,1.06,1.06,1.06h9.39l-3.08,3.08c-.43.43-.43,1.13,0,1.56.21.21.5.32.78.32s.56-.11.78-.32l4.92-4.92c.21-.21.32-.49.32-.78s-.12-.57-.32-.78Z" fill="#0072bc" stroke-width="0"/><path d="M340.13,103.74c-.59,0-1.06.48-1.06,1.06v3.54c0,.59.48,1.06,1.06,1.06s1.06-.48,1.06-1.06v-3.54c0-.59-.48-1.06-1.06-1.06Z" fill="#0072bc" stroke-width="0"/><path d="M340.13,97.36c.59,0,1.06-.48,1.06-1.06v-3.54c0-.59-.48-1.06-1.06-1.06s-1.06.48-1.06,1.06v3.54c0,.59.48,1.06,1.06,1.06Z" fill="#0072bc" stroke-width="0"/><path d="M340.13,89.57c.59,0,1.06-.48,1.06-1.06v-3.54c0-.59-.48-1.06-1.06-1.06s-1.06.48-1.06,1.06v3.54c0,.59.48,1.06,1.06,1.06Z" fill="#0072bc" stroke-width="0"/><path d="M340.13,111.54c-.59,0-1.06.48-1.06,1.06v3.54c0,.59.48,1.06,1.06,1.06s1.06-.48,1.06-1.06v-3.54c0-.59-.48-1.06-1.06-1.06Z" fill="#0072bc" stroke-width="0"/><path d="M303.49,88.73c-.49-1.49-2.09-2.3-3.58-1.81-1.49.49-2.3,2.09-1.81,3.58.49,1.49,2.09,2.3,3.58,1.81,1.49-.49,2.3-2.09,1.81-3.58Z" fill="#0072bc" stroke-width="0"/><path d="M297.07,103.43l2.79-5.52c.86-1.7.17-3.76-1.52-4.62l-1.81-.91c-.1-.05-.2-.08-.3-.11-4.82-2.12-10.54-.14-12.97,4.61-.37.72-.08,1.6.64,1.97.72.37,1.6.08,1.97-.64,1.4-2.74,4.34-4.17,7.23-3.81l-10.55,20.69c-.37.73-.08,1.62.65,1.99.22.11.45.16.67.16.54,0,1.06-.29,1.32-.81l6.41-12.57,3.17,1.6c3.42,1.86,4.75,6.14,2.94,9.61-.38.73-.09,1.62.63,1.99.36.19.77.21,1.13.1s.68-.37.87-.73c2.38-4.58.9-10.16-3.25-13.01Z" fill="#0072bc" stroke-width="0"/><path d="M316.07,99.77l-4.92-4.92c-.43-.43-1.13-.43-1.56,0-.43.43-.43,1.13,0,1.56l3.08,3.08h-9.39c-.59,0-1.06.48-1.06,1.06s.48,1.06,1.06,1.06h9.39l-3.08,3.08c-.43.43-.43,1.13,0,1.56.21.21.5.32.78.32s.56-.11.78-.32l4.92-4.92c.21-.21.32-.49.32-.78s-.12-.57-.32-.78Z" fill="#0072bc" stroke-width="0"/><path d="M306.11,103.74c-.59,0-1.06.48-1.06,1.06v3.54c0,.59.48,1.06,1.06,1.06s1.06-.48,1.06-1.06v-3.54c0-.59-.48-1.06-1.06-1.06Z" fill="#0072bc" stroke-width="0"/><path d="M306.11,97.36c.59,0,1.06-.48,1.06-1.06v-3.54c0-.59-.48-1.06-1.06-1.06s-1.06.48-1.06,1.06v3.54c0,.59.48,1.06,1.06,1.06Z" fill="#0072bc" stroke-width="0"/><path d="M306.11,89.57c.59,0,1.06-.48,1.06-1.06v-3.54c0-.59-.48-1.06-1.06-1.06s-1.06.48-1.06,1.06v3.54c0,.59.48,1.06,1.06,1.06Z" fill="#0072bc" stroke-width="0"/><path d="M306.11,111.54c-.59,0-1.06.48-1.06,1.06v3.54c0,.59.48,1.06,1.06,1.06s1.06-.48,1.06-1.06v-3.54c0-.59-.48-1.06-1.06-1.06Z" fill="#0072bc" stroke-width="0"/><path d="M269.47,88.73c-.49-1.49-2.09-2.3-3.58-1.81-1.49.49-2.3,2.09-1.81,3.58.49,1.49,2.09,2.3,3.58,1.81,1.49-.49,2.3-2.09,1.81-3.58Z" fill="#0072bc" stroke-width="0"/><path d="M263.05,103.43l2.79-5.52c.86-1.7.17-3.76-1.52-4.62l-1.81-.91c-.1-.05-.2-.08-.3-.11-4.82-2.12-10.54-.14-12.97,4.61-.37.72-.08,1.6.64,1.97.72.37,1.6.08,1.97-.64,1.4-2.74,4.34-4.17,7.23-3.81l-10.55,20.69c-.37.73-.08,1.62.65,1.99.22.11.45.16.67.16.54,0,1.06-.29,1.32-.81l6.41-12.57,3.17,1.6c3.42,1.86,4.75,6.14,2.94,9.61-.38.73-.09,1.62.63,1.99.36.19.77.21,1.13.1s.68-.37.87-.73c2.38-4.58.9-10.16-3.25-13.01Z" fill="#0072bc" stroke-width="0"/><path d="M282.05,99.77l-4.92-4.92c-.43-.43-1.13-.43-1.56,0-.43.43-.43,1.13,0,1.56l3.08,3.08h-9.39c-.59,0-1.06.48-1.06,1.06s.48,1.06,1.06,1.06h9.39l-3.08,3.08c-.43.43-.43,1.13,0,1.56.21.21.5.32.78.32s.56-.11.78-.32l4.92-4.92c.21-.21.32-.49.32-.78s-.12-.57-.32-.78Z" fill="#0072bc" stroke-width="0"/><path d="M272.09,103.74c-.59,0-1.06.48-1.06,1.06v3.54c0,.59.48,1.06,1.06,1.06s1.06-.48,1.06-1.06v-3.54c0-.59-.48-1.06-1.06-1.06Z" fill="#0072bc" stroke-width="0"/><path d="M272.09,97.36c.59,0,1.06-.48,1.06-1.06v-3.54c0-.59-.48-1.06-1.06-1.06s-1.06.48-1.06,1.06v3.54c0,.59.48,1.06,1.06,1.06Z" fill="#0072bc" stroke-width="0"/><path d="M272.09,89.57c.59,0,1.06-.48,1.06-1.06v-3.54c0-.59-.48-1.06-1.06-1.06s-1.06.48-1.06,1.06v3.54c0,.59.48,1.06,1.06,1.06Z" fill="#0072bc" stroke-width="0"/><path d="M272.09,111.54c-.59,0-1.06.48-1.06,1.06v3.54c0,.59.48,1.06,1.06,1.06s1.06-.48,1.06-1.06v-3.54c0-.59-.48-1.06-1.06-1.06Z" fill="#0072bc" stroke-width="0"/><path d="M235.45,88.73c-.49-1.49-2.09-2.3-3.58-1.81-1.49.49-2.3,2.09-1.81,3.58.49,1.49,2.09,2.3,3.58,1.81,1.49-.49,2.3-2.09,1.81-3.58Z" fill="#0072bc" stroke-width="0"/><path d="M229.03,103.43l2.79-5.52c.86-1.7.17-3.76-1.52-4.62l-1.81-.91c-.1-.05-.2-.08-.3-.11-4.82-2.12-10.54-.14-12.97,4.61-.37.72-.08,1.6.64,1.97.72.37,1.6.08,1.97-.64,1.4-2.74,4.34-4.17,7.23-3.81l-10.55,20.69c-.37.73-.08,1.62.65,1.99.22.11.45.16.67.16.54,0,1.06-.29,1.32-.81l6.41-12.57,3.17,1.6c3.42,1.86,4.75,6.14,2.94,9.61-.38.73-.09,1.62.63,1.99.36.19.77.21,1.13.1s.68-.37.87-.73c2.38-4.58.9-10.16-3.25-13.01Z" fill="#0072bc" stroke-width="0"/><path d="M248.03,99.77l-4.92-4.92c-.43-.43-1.13-.43-1.56,0-.43.43-.43,1.13,0,1.56l3.08,3.08h-9.39c-.59,0-1.06.48-1.06,1.06s.48,1.06,1.06,1.06h9.39l-3.08,3.08c-.43.43-.43,1.13,0,1.56.21.21.5.32.78.32s.56-.11.78-.32l4.92-4.92c.21-.21.32-.49.32-.78s-.12-.57-.32-.78Z" fill="#0072bc" stroke-width="0"/><path d="M238.07,103.74c-.59,0-1.06.48-1.06,1.06v3.54c0,.59.48,1.06,1.06,1.06s1.06-.48,1.06-1.06v-3.54c0-.59-.48-1.06-1.06-1.06Z" fill="#0072bc" stroke-width="0"/><path d="M238.07,97.36c.59,0,1.06-.48,1.06-1.06v-3.54c0-.59-.48-1.06-1.06-1.06s-1.06.48-1.06,1.06v3.54c0,.59.48,1.06,1.06,1.06Z" fill="#0072bc" stroke-width="0"/><path d="M238.07,89.57c.59,0,1.06-.48,1.06-1.06v-3.54c0-.59-.48-1.06-1.06-1.06s-1.06.48-1.06,1.06v3.54c0,.59.48,1.06,1.06,1.06Z" fill="#0072bc" stroke-width="0"/><path d="M238.07,111.54c-.59,0-1.06.48-1.06,1.06v3.54c0,.59.48,1.06,1.06,1.06s1.06-.48,1.06-1.06v-3.54c0-.59-.48-1.06-1.06-1.06Z" fill="#0072bc" stroke-width="0"/><path d="M201.43,88.73c-.49-1.49-2.09-2.3-3.58-1.81-1.49.49-2.3,2.09-1.81,3.58.49,1.49,2.09,2.3,3.58,1.81,1.49-.49,2.3-2.09,1.81-3.58Z" fill="#0072bc" stroke-width="0"/><path d="M195,103.43l2.79-5.52c.86-1.7.17-3.76-1.52-4.62l-1.81-.91c-.1-.05-.2-.08-.3-.11-4.82-2.12-10.54-.14-12.97,4.61-.37.72-.08,1.6.64,1.97.72.37,1.6.08,1.97-.64,1.4-2.74,4.34-4.17,7.23-3.81l-10.55,20.69c-.37.73-.08,1.62.65,1.99.22.11.45.16.67.16.54,0,1.06-.29,1.32-.81l6.41-12.57,3.17,1.6c3.42,1.86,4.75,6.14,2.94,9.61-.38.73-.09,1.62.63,1.99.36.19.77.21,1.13.1s.68-.37.87-.73c2.38-4.58.9-10.16-3.25-13.01Z" fill="#0072bc" stroke-width="0"/><path d="M214.01,99.77l-4.92-4.92c-.43-.43-1.13-.43-1.56,0-.43.43-.43,1.13,0,1.56l3.08,3.08h-9.39c-.59,0-1.06.48-1.06,1.06s.48,1.06,1.06,1.06h9.39l-3.08,3.08c-.43.43-.43,1.13,0,1.56.21.21.5.32.78.32s.56-.11.78-.32l4.92-4.92c.21-.21.32-.49.32-.78s-.12-.57-.32-.78Z" fill="#0072bc" stroke-width="0"/><path d="M204.05,103.74c-.59,0-1.06.48-1.06,1.06v3.54c0,.59.48,1.06,1.06,1.06s1.06-.48,1.06-1.06v-3.54c0-.59-.48-1.06-1.06-1.06Z" fill="#0072bc" stroke-width="0"/><path d="M204.05,97.36c.59,0,1.06-.48,1.06-1.06v-3.54c0-.59-.48-1.06-1.06-1.06s-1.06.48-1.06,1.06v3.54c0,.59.48,1.06,1.06,1.06Z" fill="#0072bc" stroke-width="0"/><path d="M204.05,89.57c.59,0,1.06-.48,1.06-1.06v-3.54c0-.59-.48-1.06-1.06-1.06s-1.06.48-1.06,1.06v3.54c0,.59.48,1.06,1.06,1.06Z" fill="#0072bc" stroke-width="0"/><path d="M204.05,111.54c-.59,0-1.06.48-1.06,1.06v3.54c0,.59.48,1.06,1.06,1.06s1.06-.48,1.06-1.06v-3.54c0-.59-.48-1.06-1.06-1.06Z" fill="#0072bc" stroke-width="0"/><path d="M167.41,88.73c-.49-1.49-2.09-2.3-3.58-1.81-1.49.49-2.3,2.09-1.81,3.58.49,1.49,2.09,2.3,3.58,1.81,1.49-.49,2.3-2.09,1.81-3.58Z" fill="#0072bc" stroke-width="0"/><path d="M160.98,103.43l2.79-5.52c.86-1.7.17-3.76-1.52-4.62l-1.81-.91c-.1-.05-.2-.08-.3-.11-4.82-2.12-10.54-.14-12.97,4.61-.37.72-.08,1.6.64,1.97.72.37,1.6.08,1.97-.64,1.4-2.74,4.34-4.17,7.23-3.81l-10.55,20.69c-.37.73-.08,1.62.65,1.99.22.11.45.16.67.16.54,0,1.06-.29,1.32-.81l6.41-12.57,3.17,1.6c3.42,1.86,4.75,6.14,2.94,9.61-.38.73-.09,1.62.63,1.99.36.19.77.21,1.13.1s.68-.37.87-.73c2.38-4.58.9-10.16-3.25-13.01Z" fill="#0072bc" stroke-width="0"/><path d="M179.99,99.77l-4.92-4.92c-.43-.43-1.13-.43-1.56,0-.43.43-.43,1.13,0,1.56l3.08,3.08h-9.39c-.59,0-1.06.48-1.06,1.06s.48,1.06,1.06,1.06h9.39l-3.08,3.08c-.43.43-.43,1.13,0,1.56.21.21.5.32.78.32s.56-.11.78-.32l4.92-4.92c.21-.21.32-.49.32-.78s-.12-.57-.32-.78Z" fill="#0072bc" stroke-width="0"/><path d="M170.03,103.74c-.59,0-1.06.48-1.06,1.06v3.54c0,.59.48,1.06,1.06,1.06s1.06-.48,1.06-1.06v-3.54c0-.59-.48-1.06-1.06-1.06Z" fill="#0072bc" stroke-width="0"/><path d="M170.03,97.36c.59,0,1.06-.48,1.06-1.06v-3.54c0-.59-.48-1.06-1.06-1.06s-1.06.48-1.06,1.06v3.54c0,.59.48,1.06,1.06,1.06Z" fill="#0072bc" stroke-width="0"/><path d="M170.03,89.57c.59,0,1.06-.48,1.06-1.06v-3.54c0-.59-.48-1.06-1.06-1.06s-1.06.48-1.06,1.06v3.54c0,.59.48,1.06,1.06,1.06Z" fill="#0072bc" stroke-width="0"/><path d="M170.03,111.54c-.59,0-1.06.48-1.06,1.06v3.54c0,.59.48,1.06,1.06,1.06s1.06-.48,1.06-1.06v-3.54c0-.59-.48-1.06-1.06-1.06Z" fill="#0072bc" stroke-width="0"/><path d="M133.39,88.73c-.49-1.49-2.09-2.3-3.58-1.81-1.49.49-2.3,2.09-1.81,3.58.49,1.49,2.09,2.3,3.58,1.81,1.49-.49,2.3-2.09,1.81-3.58Z" fill="#0072bc" stroke-width="0"/><path d="M126.96,103.43l2.79-5.52c.86-1.7.17-3.76-1.52-4.62l-1.81-.91c-.1-.05-.2-.08-.3-.11-4.82-2.12-10.54-.14-12.97,4.61-.37.72-.08,1.6.64,1.97.72.37,1.6.08,1.97-.64,1.4-2.74,4.34-4.17,7.23-3.81l-10.55,20.69c-.37.73-.08,1.62.65,1.99.22.11.45.16.67.16.54,0,1.06-.29,1.32-.81l6.41-12.57,3.17,1.6c3.42,1.86,4.75,6.14,2.94,9.61-.38.73-.09,1.62.63,1.99.36.19.77.21,1.13.1s.68-.37.87-.73c2.38-4.58.9-10.16-3.25-13.01Z" fill="#0072bc" stroke-width="0"/><path d="M145.97,99.77l-4.92-4.92c-.43-.43-1.13-.43-1.56,0-.43.43-.43,1.13,0,1.56l3.08,3.08h-9.39c-.59,0-1.06.48-1.06,1.06s.48,1.06,1.06,1.06h9.39l-3.08,3.08c-.43.43-.43,1.13,0,1.56.21.21.5.32.78.32s.56-.11.78-.32l4.92-4.92c.21-.21.32-.49.32-.78s-.12-.57-.32-.78Z" fill="#0072bc" stroke-width="0"/><path d="M136.01,103.74c-.59,0-1.06.48-1.06,1.06v3.54c0,.59.48,1.06,1.06,1.06s1.06-.48,1.06-1.06v-3.54c0-.59-.48-1.06-1.06-1.06Z" fill="#0072bc" stroke-width="0"/><path d="M136.01,97.36c.59,0,1.06-.48,1.06-1.06v-3.54c0-.59-.48-1.06-1.06-1.06s-1.06.48-1.06,1.06v3.54c0,.59.48,1.06,1.06,1.06Z" fill="#0072bc" stroke-width="0"/><path d="M136.01,89.57c.59,0,1.06-.48,1.06-1.06v-3.54c0-.59-.48-1.06-1.06-1.06s-1.06.48-1.06,1.06v3.54c0,.59.48,1.06,1.06,1.06Z" fill="#0072bc" stroke-width="0"/><path d="M136.01,111.54c-.59,0-1.06.48-1.06,1.06v3.54c0,.59.48,1.06,1.06,1.06s1.06-.48,1.06-1.06v-3.54c0-.59-.48-1.06-1.06-1.06Z" fill="#0072bc" stroke-width="0"/><path d="M99.37,88.73c-.49-1.49-2.09-2.3-3.58-1.81-1.49.49-2.3,2.09-1.81,3.58.49,1.49,2.09,2.3,3.58,1.81,1.49-.49,2.3-2.09,1.81-3.58Z" fill="#0072bc" stroke-width="0"/><path d="M92.94,103.43l2.79-5.52c.86-1.7.17-3.76-1.52-4.62l-1.81-.91c-.1-.05-.2-.08-.3-.11-4.82-2.12-10.54-.14-12.97,4.61-.37.72-.08,1.6.64,1.97.72.37,1.6.08,1.97-.64,1.4-2.74,4.34-4.17,7.23-3.81l-10.55,20.69c-.37.73-.08,1.62.65,1.99.22.11.45.16.67.16.54,0,1.06-.29,1.32-.81l6.41-12.57,3.17,1.6c3.42,1.86,4.75,6.14,2.94,9.61-.38.73-.09,1.62.63,1.99.36.19.77.21,1.13.1s.68-.37.87-.73c2.38-4.58.9-10.16-3.25-13.01Z" fill="#0072bc" stroke-width="0"/><path d="M111.95,99.77l-4.92-4.92c-.43-.43-1.13-.43-1.56,0-.43.43-.43,1.13,0,1.56l3.08,3.08h-9.39c-.59,0-1.06.48-1.06,1.06s.48,1.06,1.06,1.06h9.39l-3.08,3.08c-.43.43-.43,1.13,0,1.56.21.21.5.32.78.32s.56-.11.78-.32l4.92-4.92c.21-.21.32-.49.32-.78s-.12-.57-.32-.78Z" fill="#0072bc" stroke-width="0"/><path d="M101.99,103.74c-.59,0-1.06.48-1.06,1.06v3.54c0,.59.48,1.06,1.06,1.06s1.06-.48,1.06-1.06v-3.54c0-.59-.48-1.06-1.06-1.06Z" fill="#0072bc" stroke-width="0"/><path d="M101.99,97.36c.59,0,1.06-.48,1.06-1.06v-3.54c0-.59-.48-1.06-1.06-1.06s-1.06.48-1.06,1.06v3.54c0,.59.48,1.06,1.06,1.06Z" fill="#0072bc" stroke-width="0"/><path d="M101.99,89.57c.59,0,1.06-.48,1.06-1.06v-3.54c0-.59-.48-1.06-1.06-1.06s-1.06.48-1.06,1.06v3.54c0,.59.48,1.06,1.06,1.06Z" fill="#0072bc" stroke-width="0"/><path d="M101.99,111.54c-.59,0-1.06.48-1.06,1.06v3.54c0,.59.48,1.06,1.06,1.06s1.06-.48,1.06-1.06v-3.54c0-.59-.48-1.06-1.06-1.06Z" fill="#0072bc" stroke-width="0"/><path d="M65.35,88.73c-.49-1.49-2.09-2.3-3.58-1.81-1.49.49-2.3,2.09-1.81,3.58.49,1.49,2.09,2.3,3.58,1.81,1.49-.49,2.3-2.09,1.81-3.58Z" fill="#0072bc" stroke-width="0"/><path d="M58.92,103.43l2.79-5.52c.86-1.7.17-3.76-1.52-4.62l-1.81-.91c-.1-.05-.2-.08-.3-.11-4.82-2.12-10.54-.14-12.97,4.61-.37.72-.08,1.6.64,1.97.72.37,1.6.08,1.97-.64,1.4-2.74,4.34-4.17,7.23-3.81l-10.55,20.69c-.37.73-.08,1.62.65,1.99.22.11.45.16.67.16.54,0,1.06-.29,1.32-.81l6.41-12.57,3.17,1.6c3.42,1.86,4.75,6.14,2.94,9.61-.38.73-.09,1.62.63,1.99.36.19.77.21,1.13.1s.68-.37.87-.73c2.38-4.58.9-10.16-3.25-13.01Z" fill="#0072bc" stroke-width="0"/><path d="M77.92,99.77l-4.92-4.92c-.43-.43-1.13-.43-1.56,0-.43.43-.43,1.13,0,1.56l3.08,3.08h-9.39c-.59,0-1.06.48-1.06,1.06s.48,1.06,1.06,1.06h9.39l-3.08,3.08c-.43.43-.43,1.13,0,1.56.21.21.5.32.78.32s.56-.11.78-.32l4.92-4.92c.21-.21.32-.49.32-.78s-.12-.57-.32-.78Z" fill="#0072bc" stroke-width="0"/><path d="M67.97,103.74c-.59,0-1.06.48-1.06,1.06v3.54c0,.59.48,1.06,1.06,1.06s1.06-.48,1.06-1.06v-3.54c0-.59-.48-1.06-1.06-1.06Z" fill="#0072bc" stroke-width="0"/><path d="M67.97,97.36c.59,0,1.06-.48,1.06-1.06v-3.54c0-.59-.48-1.06-1.06-1.06s-1.06.48-1.06,1.06v3.54c0,.59.48,1.06,1.06,1.06Z" fill="#0072bc" stroke-width="0"/><path d="M67.97,89.57c.59,0,1.06-.48,1.06-1.06v-3.54c0-.59-.48-1.06-1.06-1.06s-1.06.48-1.06,1.06v3.54c0,.59.48,1.06,1.06,1.06Z" fill="#0072bc" stroke-width="0"/><path d="M67.97,111.54c-.59,0-1.06.48-1.06,1.06v3.54c0,.59.48,1.06,1.06,1.06s1.06-.48,1.06-1.06v-3.54c0-.59-.48-1.06-1.06-1.06Z" fill="#0072bc" stroke-width="0"/><path d="M31.33,88.73c-.49-1.49-2.09-2.3-3.58-1.81-1.49.49-2.3,2.09-1.81,3.58.49,1.49,2.09,2.3,3.58,1.81,1.49-.49,2.3-2.09,1.81-3.58Z" fill="#0072bc" stroke-width="0"/><path d="M24.9,103.43l2.79-5.52c.86-1.7.17-3.76-1.52-4.62l-1.81-.91c-.1-.05-.2-.08-.3-.11-4.82-2.12-10.54-.14-12.97,4.61-.37.72-.08,1.6.64,1.97.72.37,1.6.08,1.97-.64,1.4-2.74,4.34-4.17,7.23-3.81l-10.55,20.69c-.37.73-.08,1.62.65,1.99.22.11.45.16.67.16.54,0,1.06-.29,1.32-.81l6.41-12.57,3.17,1.6c3.42,1.86,4.75,6.14,2.94,9.61-.38.73-.09,1.62.63,1.99.36.19.77.21,1.13.1s.68-.37.87-.73c2.38-4.58.9-10.16-3.25-13.01Z" fill="#0072bc" stroke-width="0"/><path d="M43.9,99.77l-4.92-4.92c-.43-.43-1.13-.43-1.56,0-.43.43-.43,1.13,0,1.56l3.08,3.08h-9.39c-.59,0-1.06.48-1.06,1.06s.48,1.06,1.06,1.06h9.39l-3.08,3.08c-.43.43-.43,1.13,0,1.56.21.21.5.32.78.32s.56-.11.78-.32l4.92-4.92c.21-.21.32-.49.32-.78s-.12-.57-.32-.78Z" fill="#0072bc" stroke-width="0"/><path d="M33.95,103.74c-.59,0-1.06.48-1.06,1.06v3.54c0,.59.48,1.06,1.06,1.06s1.06-.48,1.06-1.06v-3.54c0-.59-.48-1.06-1.06-1.06Z" fill="#0072bc" stroke-width="0"/><path d="M33.95,97.36c.59,0,1.06-.48,1.06-1.06v-3.54c0-.59-.48-1.06-1.06-1.06s-1.06.48-1.06,1.06v3.54c0,.59.48,1.06,1.06,1.06Z" fill="#0072bc" stroke-width="0"/><path d="M33.95,89.57c.59,0,1.06-.48,1.06-1.06v-3.54c0-.59-.48-1.06-1.06-1.06s-1.06.48-1.06,1.06v3.54c0,.59.48,1.06,1.06,1.06Z" fill="#0072bc" stroke-width="0"/><path d="M33.95,111.54c-.59,0-1.06.48-1.06,1.06v3.54c0,.59.48,1.06,1.06,1.06s1.06-.48,1.06-1.06v-3.54c0-.59-.48-1.06-1.06-1.06Z" fill="#0072bc" stroke-width="0"/><path d="M9.88,99.77l-4.92-4.92c-.43-.43-1.13-.43-1.56,0-.43.43-.43,1.13,0,1.56l3.08,3.08H-2.91c-.59,0-1.06.48-1.06,1.06s.48,1.06,1.06,1.06H6.49l-3.08,3.08c-.43.43-.43,1.13,0,1.56.21.21.5.32.78.32s.56-.11.78-.32l4.92-4.92c.21-.21.32-.49.32-.78s-.12-.57-.32-.78Z" fill="#0072bc" stroke-width="0"/><path d="M-.07,103.74c-.59,0-1.06.48-1.06,1.06v3.54c0,.59.48,1.06,1.06,1.06s1.06-.48,1.06-1.06v-3.54c0-.59-.48-1.06-1.06-1.06Z" fill="#0072bc" stroke-width="0"/><path d="M-.07,97.36c.59,0,1.06-.48,1.06-1.06v-3.54c0-.59-.48-1.06-1.06-1.06s-1.06.48-1.06,1.06v3.54c0,.59.48,1.06,1.06,1.06Z" fill="#0072bc" stroke-width="0"/><path d="M-.07,89.57c.59,0,1.06-.48,1.06-1.06v-3.54c0-.59-.48-1.06-1.06-1.06s-1.06.48-1.06,1.06v3.54c0,.59.48,1.06,1.06,1.06Z" fill="#0072bc" stroke-width="0"/><path d="M-.07,111.54c-.59,0-1.06.48-1.06,1.06v3.54c0,.59.48,1.06,1.06,1.06s1.06-.48,1.06-1.06v-3.54c0-.59-.48-1.06-1.06-1.06Z" fill="#0072bc" stroke-width="0"/></g><g clip-path="url(#e)"><path d="M337.51,88.73c-.49-1.49-2.09-2.3-3.58-1.81-1.49.49-2.3,2.09-1.81,3.58.49,1.49,2.09,2.3,3.58,1.81,1.49-.49,2.3-2.09,1.81-3.58Z" fill="#00b398" stroke-width="0"/><path d="M331.09,103.43l2.79-5.52c.86-1.7.17-3.76-1.52-4.62l-1.81-.91c-.1-.05-.2-.08-.3-.11-4.82-2.12-10.54-.14-12.97,4.61-.37.72-.08,1.6.64,1.97.72.37,1.6.08,1.97-.64,1.4-2.74,4.34-4.17,7.23-3.81l-10.55,20.69c-.37.73-.08,1.62.65,1.99.22.11.45.16.67.16.54,0,1.06-.29,1.32-.81l6.41-12.57,3.17,1.6c3.42,1.86,4.75,6.14,2.94,9.61-.38.73-.09,1.62.63,1.99.36.19.77.21,1.13.1s.68-.37.87-.73c2.38-4.58.9-10.16-3.25-13.01Z" fill="#00b398" stroke-width="0"/><path d="M350.09,99.77l-4.92-4.92c-.43-.43-1.13-.43-1.56,0-.43.43-.43,1.13,0,1.56l3.08,3.08h-9.39c-.59,0-1.06.48-1.06,1.06s.48,1.06,1.06,1.06h9.39l-3.08,3.08c-.43.43-.43,1.13,0,1.56.21.21.5.32.78.32s.56-.11.78-.32l4.92-4.92c.21-.21.32-.49.32-.78s-.12-.57-.32-.78Z" fill="#00b398" stroke-width="0"/><path d="M303.49,88.73c-.49-1.49-2.09-2.3-3.58-1.81-1.49.49-2.3,2.09-1.81,3.58.49,1.49,2.09,2.3,3.58,1.81,1.49-.49,2.3-2.09,1.81-3.58Z" fill="#00b398" stroke-width="0"/><path d="M297.07,103.43l2.79-5.52c.86-1.7.17-3.76-1.52-4.62l-1.81-.91c-.1-.05-.2-.08-.3-.11-4.82-2.12-10.54-.14-12.97,4.61-.37.72-.08,1.6.64,1.97.72.37,1.6.08,1.97-.64,1.4-2.74,4.34-4.17,7.23-3.81l-10.55,20.69c-.37.73-.08,1.62.65,1.99.22.11.45.16.67.16.54,0,1.06-.29,1.32-.81l6.41-12.57,3.17,1.6c3.42,1.86,4.75,6.14,2.94,9.61-.38.73-.09,1.62.63,1.99.36.19.77.21,1.13.1s.68-.37.87-.73c2.38-4.58.9-10.16-3.25-13.01Z" fill="#00b398" stroke-width="0"/><path d="M316.07,99.77l-4.92-4.92c-.43-.43-1.13-.43-1.56,0-.43.43-.43,1.13,0,1.56l3.08,3.08h-9.39c-.59,0-1.06.48-1.06,1.06s.48,1.06,1.06,1.06h9.39l-3.08,3.08c-.43.43-.43,1.13,0,1.56.21.21.5.32.78.32s.56-.11.78-.32l4.92-4.92c.21-.21.32-.49.32-.78s-.12-.57-.32-.78Z" fill="#00b398" stroke-width="0"/><path d="M269.47,88.73c-.49-1.49-2.09-2.3-3.58-1.81-1.49.49-2.3,2.09-1.81,3.58.49,1.49,2.09,2.3,3.58,1.81,1.49-.49,2.3-2.09,1.81-3.58Z" fill="#00b398" stroke-width="0"/><path d="M263.05,103.43l2.79-5.52c.86-1.7.17-3.76-1.52-4.62l-1.81-.91c-.1-.05-.2-.08-.3-.11-4.82-2.12-10.54-.14-12.97,4.61-.37.72-.08,1.6.64,1.97.72.37,1.6.08,1.97-.64,1.4-2.74,4.34-4.17,7.23-3.81l-10.55,20.69c-.37.73-.08,1.62.65,1.99.22.11.45.16.67.16.54,0,1.06-.29,1.32-.81l6.41-12.57,3.17,1.6c3.42,1.86,4.75,6.14,2.94,9.61-.38.73-.09,1.62.63,1.99.36.19.77.21,1.13.1s.68-.37.87-.73c2.38-4.58.9-10.16-3.25-13.01Z" fill="#00b398" stroke-width="0"/><path d="M282.05,99.77l-4.92-4.92c-.43-.43-1.13-.43-1.56,0-.43.43-.43,1.13,0,1.56l3.08,3.08h-9.39c-.59,0-1.06.48-1.06,1.06s.48,1.06,1.06,1.06h9.39l-3.08,3.08c-.43.43-.43,1.13,0,1.56.21.21.5.32.78.32s.56-.11.78-.32l4.92-4.92c.21-.21.32-.49.32-.78s-.12-.57-.32-.78Z" fill="#00b398" stroke-width="0"/><path d="M235.45,88.73c-.49-1.49-2.09-2.3-3.58-1.81-1.49.49-2.3,2.09-1.81,3.58.49,1.49,2.09,2.3,3.58,1.81,1.49-.49,2.3-2.09,1.81-3.58Z" fill="#00b398" stroke-width="0"/><path d="M229.03,103.43l2.79-5.52c.86-1.7.17-3.76-1.52-4.62l-1.81-.91c-.1-.05-.2-.08-.3-.11-4.82-2.12-10.54-.14-12.97,4.61-.37.72-.08,1.6.64,1.97.72.37,1.6.08,1.97-.64,1.4-2.74,4.34-4.17,7.23-3.81l-10.55,20.69c-.37.73-.08,1.62.65,1.99.22.11.45.16.67.16.54,0,1.06-.29,1.32-.81l6.41-12.57,3.17,1.6c3.42,1.86,4.75,6.14,2.94,9.61-.38.73-.09,1.62.63,1.99.36.19.77.21,1.13.1s.68-.37.87-.73c2.38-4.58.9-10.16-3.25-13.01Z" fill="#00b398" stroke-width="0"/><path d="M248.03,99.77l-4.92-4.92c-.43-.43-1.13-.43-1.56,0-.43.43-.43,1.13,0,1.56l3.08,3.08h-9.39c-.59,0-1.06.48-1.06,1.06s.48,1.06,1.06,1.06h9.39l-3.08,3.08c-.43.43-.43,1.13,0,1.56.21.21.5.32.78.32s.56-.11.78-.32l4.92-4.92c.21-.21.32-.49.32-.78s-.12-.57-.32-.78Z" fill="#00b398" stroke-width="0"/><path d="M201.43,88.73c-.49-1.49-2.09-2.3-3.58-1.81-1.49.49-2.3,2.09-1.81,3.58.49,1.49,2.09,2.3,3.58,1.81,1.49-.49,2.3-2.09,1.81-3.58Z" fill="#00b398" stroke-width="0"/><path d="M195,103.43l2.79-5.52c.86-1.7.17-3.76-1.52-4.62l-1.81-.91c-.1-.05-.2-.08-.3-.11-4.82-2.12-10.54-.14-12.97,4.61-.37.72-.08,1.6.64,1.97.72.37,1.6.08,1.97-.64,1.4-2.74,4.34-4.17,7.23-3.81l-10.55,20.69c-.37.73-.08,1.62.65,1.99.22.11.45.16.67.16.54,0,1.06-.29,1.32-.81l6.41-12.57,3.17,1.6c3.42,1.86,4.75,6.14,2.94,9.61-.38.73-.09,1.62.63,1.99.36.19.77.21,1.13.1s.68-.37.87-.73c2.38-4.58.9-10.16-3.25-13.01Z" fill="#00b398" stroke-width="0"/><path d="M214.01,99.77l-4.92-4.92c-.43-.43-1.13-.43-1.56,0-.43.43-.43,1.13,0,1.56l3.08,3.08h-9.39c-.59,0-1.06.48-1.06,1.06s.48,1.06,1.06,1.06h9.39l-3.08,3.08c-.43.43-.43,1.13,0,1.56.21.21.5.32.78.32s.56-.11.78-.32l4.92-4.92c.21-.21.32-.49.32-.78s-.12-.57-.32-.78Z" fill="#00b398" stroke-width="0"/><path d="M167.41,88.73c-.49-1.49-2.09-2.3-3.58-1.81-1.49.49-2.3,2.09-1.81,3.58.49,1.49,2.09,2.3,3.58,1.81,1.49-.49,2.3-2.09,1.81-3.58Z" fill="#00b398" stroke-width="0"/><path d="M160.98,103.43l2.79-5.52c.86-1.7.17-3.76-1.52-4.62l-1.81-.91c-.1-.05-.2-.08-.3-.11-4.82-2.12-10.54-.14-12.97,4.61-.37.72-.08,1.6.64,1.97.72.37,1.6.08,1.97-.64,1.4-2.74,4.34-4.17,7.23-3.81l-10.55,20.69c-.37.73-.08,1.62.65,1.99.22.11.45.16.67.16.54,0,1.06-.29,1.32-.81l6.41-12.57,3.17,1.6c3.42,1.86,4.75,6.14,2.94,9.61-.38.73-.09,1.62.63,1.99.36.19.77.21,1.13.1s.68-.37.87-.73c2.38-4.58.9-10.16-3.25-13.01Z" fill="#00b398" stroke-width="0"/><path d="M179.99,99.77l-4.92-4.92c-.43-.43-1.13-.43-1.56,0-.43.43-.43,1.13,0,1.56l3.08,3.08h-9.39c-.59,0-1.06.48-1.06,1.06s.48,1.06,1.06,1.06h9.39l-3.08,3.08c-.43.43-.43,1.13,0,1.56.21.21.5.32.78.32s.56-.11.78-.32l4.92-4.92c.21-.21.32-.49.32-.78s-.12-.57-.32-.78Z" fill="#00b398" stroke-width="0"/><path d="M133.39,88.73c-.49-1.49-2.09-2.3-3.58-1.81-1.49.49-2.3,2.09-1.81,3.58.49,1.49,2.09,2.3,3.58,1.81,1.49-.49,2.3-2.09,1.81-3.58Z" fill="#00b398" stroke-width="0"/><path d="M126.96,103.43l2.79-5.52c.86-1.7.17-3.76-1.52-4.62l-1.81-.91c-.1-.05-.2-.08-.3-.11-4.82-2.12-10.54-.14-12.97,4.61-.37.72-.08,1.6.64,1.97.72.37,1.6.08,1.97-.64,1.4-2.74,4.34-4.17,7.23-3.81l-10.55,20.69c-.37.73-.08,1.62.65,1.99.22.11.45.16.67.16.54,0,1.06-.29,1.32-.81l6.41-12.57,3.17,1.6c3.42,1.86,4.75,6.14,2.94,9.61-.38.73-.09,1.62.63,1.99.36.19.77.21,1.13.1s.68-.37.87-.73c2.38-4.58.9-10.16-3.25-13.01Z" fill="#00b398" stroke-width="0"/><path d="M145.97,99.77l-4.92-4.92c-.43-.43-1.13-.43-1.56,0-.43.43-.43,1.13,0,1.56l3.08,3.08h-9.39c-.59,0-1.06.48-1.06,1.06s.48,1.06,1.06,1.06h9.39l-3.08,3.08c-.43.43-.43,1.13,0,1.56.21.21.5.32.78.32s.56-.11.78-.32l4.92-4.92c.21-.21.32-.49.32-.78s-.12-.57-.32-.78Z" fill="#00b398" stroke-width="0"/><path d="M99.37,88.73c-.49-1.49-2.09-2.3-3.58-1.81-1.49.49-2.3,2.09-1.81,3.58.49,1.49,2.09,2.3,3.58,1.81,1.49-.49,2.3-2.09,1.81-3.58Z" fill="#00b398" stroke-width="0"/><path d="M92.94,103.43l2.79-5.52c.86-1.7.17-3.76-1.52-4.62l-1.81-.91c-.1-.05-.2-.08-.3-.11-4.82-2.12-10.54-.14-12.97,4.61-.37.72-.08,1.6.64,1.97.72.37,1.6.08,1.97-.64,1.4-2.74,4.34-4.17,7.23-3.81l-10.55,20.69c-.37.73-.08,1.62.65,1.99.22.11.45.16.67.16.54,0,1.06-.29,1.32-.81l6.41-12.57,3.17,1.6c3.42,1.86,4.75,6.14,2.94,9.61-.38.73-.09,1.62.63,1.99.36.19.77.21,1.13.1s.68-.37.87-.73c2.38-4.58.9-10.16-3.25-13.01Z" fill="#00b398" stroke-width="0"/><path d="M111.95,99.77l-4.92-4.92c-.43-.43-1.13-.43-1.56,0-.43.43-.43,1.13,0,1.56l3.08,3.08h-9.39c-.59,0-1.06.48-1.06,1.06s.48,1.06,1.06,1.06h9.39l-3.08,3.08c-.43.43-.43,1.13,0,1.56.21.21.5.32.78.32s.56-.11.78-.32l4.92-4.92c.21-.21.32-.49.32-.78s-.12-.57-.32-.78Z" fill="#00b398" stroke-width="0"/><path d="M65.35,88.73c-.49-1.49-2.09-2.3-3.58-1.81-1.49.49-2.3,2.09-1.81,3.58.49,1.49,2.09,2.3,3.58,1.81,1.49-.49,2.3-2.09,1.81-3.58Z" fill="#00b398" stroke-width="0"/><path d="M58.92,103.43l2.79-5.52c.86-1.7.17-3.76-1.52-4.62l-1.81-.91c-.1-.05-.2-.08-.3-.11-4.82-2.12-10.54-.14-12.97,4.61-.37.72-.08,1.6.64,1.97.72.37,1.6.08,1.97-.64,1.4-2.74,4.34-4.17,7.23-3.81l-10.55,20.69c-.37.73-.08,1.62.65,1.99.22.11.45.16.67.16.54,0,1.06-.29,1.32-.81l6.41-12.57,3.17,1.6c3.42,1.86,4.75,6.14,2.94,9.61-.38.73-.09,1.62.63,1.99.36.19.77.21,1.13.1s.68-.37.87-.73c2.38-4.58.9-10.16-3.25-13.01Z" fill="#00b398" stroke-width="0"/><path d="M77.92,99.77l-4.92-4.92c-.43-.43-1.13-.43-1.56,0-.43.43-.43,1.13,0,1.56l3.08,3.08h-9.39c-.59,0-1.06.48-1.06,1.06s.48,1.06,1.06,1.06h9.39l-3.08,3.08c-.43.43-.43,1.13,0,1.56.21.21.5.32.78.32s.56-.11.78-.32l4.92-4.92c.21-.21.32-.49.32-.78s-.12-.57-.32-.78Z" fill="#00b398" stroke-width="0"/><path d="M31.33,88.73c-.49-1.49-2.09-2.3-3.58-1.81-1.49.49-2.3,2.09-1.81,3.58.49,1.49,2.09,2.3,3.58,1.81,1.49-.49,2.3-2.09,1.81-3.58Z" fill="#00b398" stroke-width="0"/><path d="M24.9,103.43l2.79-5.52c.86-1.7.17-3.76-1.52-4.62l-1.81-.91c-.1-.05-.2-.08-.3-.11-4.82-2.12-10.54-.14-12.97,4.61-.37.72-.08,1.6.64,1.97.72.37,1.6.08,1.97-.64,1.4-2.74,4.34-4.17,7.23-3.81l-10.55,20.69c-.37.73-.08,1.62.65,1.99.22.11.45.16.67.16.54,0,1.06-.29,1.32-.81l6.41-12.57,3.17,1.6c3.42,1.86,4.75,6.14,2.94,9.61-.38.73-.09,1.62.63,1.99.36.19.77.21,1.13.1s.68-.37.87-.73c2.38-4.58.9-10.16-3.25-13.01Z" fill="#00b398" stroke-width="0"/><path d="M43.9,99.77l-4.92-4.92c-.43-.43-1.13-.43-1.56,0-.43.43-.43,1.13,0,1.56l3.08,3.08h-9.39c-.59,0-1.06.48-1.06,1.06s.48,1.06,1.06,1.06h9.39l-3.08,3.08c-.43.43-.43,1.13,0,1.56.21.21.5.32.78.32s.56-.11.78-.32l4.92-4.92c.21-.21.32-.49.32-.78s-.12-.57-.32-.78Z" fill="#00b398" stroke-width="0"/><path d="M9.88,99.77l-4.92-4.92c-.43-.43-1.13-.43-1.56,0-.43.43-.43,1.13,0,1.56l3.08,3.08H-2.91c-.59,0-1.06.48-1.06,1.06s.48,1.06,1.06,1.06H6.49l-3.08,3.08c-.43.43-.43,1.13,0,1.56.21.21.5.32.78.32s.56-.11.78-.32l4.92-4.92c.21-.21.32-.49.32-.78s-.12-.57-.32-.78Z" fill="#00b398" stroke-width="0"/></g><path d="M276.13,138.71v1.67h-7.2v-1.67h2.64v-7.59c0-.3,0-.61.03-.93l-1.87,1.57c-.11.08-.21.14-.32.16s-.2.02-.3,0-.17-.05-.25-.09-.13-.09-.16-.15l-.7-.96,3.97-3.38h1.83v11.37h2.34Z" fill="#0072bc" stroke-width="0"/><path d="M278.03,139.15c0-.19.04-.36.1-.53.07-.17.16-.31.28-.43s.26-.22.43-.29c.17-.07.35-.11.54-.11s.37.04.54.11c.17.07.31.17.43.29s.22.26.29.43.11.35.11.53-.04.37-.11.54-.17.31-.29.43c-.12.12-.27.21-.43.28-.16.07-.34.1-.54.1s-.37-.03-.54-.1-.31-.16-.43-.28c-.12-.12-.21-.26-.28-.43-.07-.17-.1-.34-.1-.54Z" fill="#0072bc" stroke-width="0"/><path d="M288.94,133.59c.79.26,1.38.65,1.75,1.18.38.53.57,1.18.57,1.95,0,.58-.11,1.1-.33,1.57-.22.47-.53.87-.92,1.2-.4.33-.87.58-1.43.77-.56.18-1.17.27-1.84.27s-1.29-.09-1.84-.27c-.56-.18-1.03-.44-1.43-.77-.4-.33-.7-.73-.92-1.2-.22-.47-.33-.99-.33-1.57,0-.77.19-1.42.57-1.95.38-.53.96-.93,1.76-1.18-.63-.26-1.1-.64-1.42-1.12-.31-.49-.47-1.07-.47-1.75,0-.49.1-.95.3-1.38.2-.43.48-.8.84-1.11.36-.32.79-.56,1.29-.74.5-.18,1.05-.27,1.65-.27s1.15.09,1.65.27c.5.18.93.42,1.29.74.36.31.64.69.84,1.11.2.43.3.89.3,1.38,0,.68-.16,1.27-.47,1.75-.31.49-.79.86-1.42,1.12ZM286.75,138.79c.37,0,.69-.05.96-.16.28-.1.51-.25.7-.44.19-.19.33-.41.43-.67.1-.26.14-.54.14-.84,0-.71-.2-1.25-.59-1.62-.4-.37-.94-.55-1.64-.55s-1.24.18-1.64.55c-.4.37-.59.91-.59,1.62,0,.3.05.58.14.84.1.26.24.48.43.67s.42.33.7.44.6.16.96.16ZM286.75,128.89c-.33,0-.62.05-.85.15-.24.1-.44.24-.6.41-.16.17-.28.37-.35.59-.07.22-.11.46-.11.7s.03.51.09.75c.06.24.17.46.32.65s.35.34.59.45c.25.11.55.17.91.17s.66-.06.91-.17c.25-.11.44-.27.59-.45.15-.19.26-.41.32-.65.06-.24.1-.49.1-.75s-.04-.48-.12-.7c-.08-.22-.2-.42-.35-.59s-.35-.31-.59-.41-.53-.15-.86-.15Z" fill="#0072bc" stroke-width="0"/><path d="M297.44,140.38v-9.23h1.36c.29,0,.48.13.57.4l.14.68c.16-.18.33-.34.51-.5.18-.15.37-.28.57-.39s.42-.19.65-.26c.23-.06.48-.09.76-.09.58,0,1.06.16,1.44.47.38.31.66.73.84,1.26.14-.31.32-.57.54-.79.22-.22.45-.4.71-.54.26-.14.53-.24.82-.31s.58-.1.88-.1c.51,0,.96.08,1.36.23.4.16.73.38,1,.68.27.3.48.67.62,1.1.14.43.21.93.21,1.48v5.88h-2.22v-5.88c0-.59-.13-1.03-.39-1.33s-.64-.45-1.13-.45c-.23,0-.44.04-.63.12-.2.08-.37.19-.51.34s-.26.33-.35.55c-.08.22-.13.48-.13.77v5.88h-2.23v-5.88c0-.62-.12-1.07-.37-1.35-.25-.28-.61-.42-1.09-.42-.32,0-.62.08-.9.24-.28.16-.54.38-.78.65v6.76h-2.22Z" fill="#0072bc" stroke-width="0"/><path d="M315.12,128.45c0,.19-.04.37-.12.54s-.18.31-.31.44-.28.23-.45.3c-.17.08-.36.11-.56.11s-.37-.04-.54-.11c-.17-.07-.32-.18-.45-.3-.13-.13-.23-.27-.3-.44s-.11-.35-.11-.54.04-.38.11-.56.17-.32.3-.45c.12-.13.27-.23.45-.3s.35-.11.54-.11.38.04.56.11c.17.08.33.18.45.3s.23.28.31.45.12.36.12.56ZM314.82,131.14v9.23h-2.23v-9.23h2.23Z" fill="#0072bc" stroke-width="0"/><path d="M319.34,127v13.37h-2.22v-13.37h2.22Z" fill="#0072bc" stroke-width="0"/><path d="M323.81,127v13.37h-2.22v-13.37h2.22Z" fill="#0072bc" stroke-width="0"/><path d="M328.64,128.45c0,.19-.04.37-.12.54s-.18.31-.31.44-.28.23-.45.3c-.17.08-.36.11-.56.11s-.37-.04-.54-.11c-.17-.07-.32-.18-.45-.3-.13-.13-.23-.27-.3-.44s-.11-.35-.11-.54.04-.38.11-.56.17-.32.3-.45c.12-.13.27-.23.45-.3s.35-.11.54-.11.38.04.56.11c.17.08.33.18.45.3s.23.28.31.45.12.36.12.56ZM328.34,131.14v9.23h-2.23v-9.23h2.23Z" fill="#0072bc" stroke-width="0"/><path d="M334.69,131c.68,0,1.31.11,1.87.33.56.22,1.04.54,1.44.94.4.41.71.91.92,1.49s.32,1.25.32,1.97-.11,1.39-.32,1.98c-.22.59-.52,1.09-.92,1.5-.4.41-.88.73-1.44.95-.56.22-1.18.33-1.87.33s-1.32-.11-1.88-.33c-.56-.22-1.05-.54-1.45-.95s-.71-.92-.93-1.5c-.22-.59-.33-1.25-.33-1.98s.11-1.38.33-1.97c.22-.59.53-1.09.93-1.49.4-.41.88-.72,1.45-.94.56-.22,1.19-.33,1.88-.33ZM334.69,138.8c.77,0,1.34-.26,1.71-.77.37-.52.55-1.27.55-2.27s-.18-1.75-.55-2.28-.94-.78-1.71-.78-1.36.26-1.73.79c-.38.53-.56,1.28-.56,2.27s.19,1.74.56,2.26c.37.52.95.78,1.73.78Z" fill="#0072bc" stroke-width="0"/><path d="M343.02,132.28c.19-.19.38-.36.59-.52.21-.16.43-.29.66-.4.23-.11.48-.2.74-.26s.55-.09.86-.09c.5,0,.95.09,1.34.26.39.17.71.41.98.72.26.31.46.68.59,1.11s.2.9.2,1.42v5.88h-2.22v-5.88c0-.56-.13-1-.39-1.31-.26-.31-.65-.46-1.18-.46-.38,0-.74.09-1.08.26-.34.17-.65.41-.96.71v6.68h-2.22v-9.23h1.36c.29,0,.48.13.57.4l.15.73Z" fill="#0072bc" stroke-width="0"/><path d="M267.52,154.78v-5.17l-.67-.08c-.09-.02-.16-.05-.21-.09-.05-.04-.08-.1-.08-.18v-.44h.96v-.32c0-.34.05-.65.15-.96.1-.3.26-.56.46-.79.21-.22.47-.4.78-.53s.68-.2,1.09-.2c.31,0,.61.01.89.04.29.02.56.04.83.04h.73v8.68h-1.06v-7.93c-.22,0-.43-.02-.65-.03-.22-.01-.41-.02-.57-.02-.52,0-.92.15-1.2.45-.28.3-.42.72-.42,1.25v.32h1.58v.77h-1.55v5.18h-1.07Z" fill="#222" stroke-width="0"/><path d="M279.12,153.93c-.13.16-.29.3-.47.42-.18.12-.38.22-.59.29-.21.08-.43.13-.65.17-.22.04-.45.06-.67.06-.42,0-.81-.07-1.16-.21-.35-.14-.66-.35-.92-.62-.26-.27-.46-.61-.6-1.02-.14-.4-.22-.87-.22-1.39,0-.42.06-.82.2-1.19.13-.37.32-.69.56-.96s.54-.48.89-.64c.35-.15.75-.23,1.19-.23.36,0,.7.06,1.01.18.31.12.58.3.8.53.23.23.4.51.53.85.13.34.19.72.19,1.15,0,.17-.02.28-.05.34-.04.06-.1.08-.2.08h-4.06c.01.38.06.72.16,1,.09.28.22.52.39.71.17.19.37.33.6.43.23.09.49.14.78.14.27,0,.5-.03.69-.09.19-.06.36-.13.5-.2.14-.07.26-.14.35-.2s.17-.09.24-.09c.09,0,.16.03.21.1l.3.39ZM278.25,151.08c0-.25-.04-.47-.11-.68s-.17-.38-.31-.53-.3-.27-.49-.35c-.19-.08-.41-.12-.65-.12-.51,0-.92.15-1.21.45-.3.3-.48.71-.55,1.24h3.32Z" fill="#222" stroke-width="0"/><path d="M285.55,145.94v8.84h-.64c-.15,0-.25-.07-.29-.22l-.1-.74c-.26.31-.56.56-.89.76s-.72.29-1.15.29c-.35,0-.66-.07-.95-.2-.29-.13-.53-.33-.73-.59-.2-.26-.35-.58-.46-.97-.11-.39-.16-.83-.16-1.34,0-.45.06-.86.18-1.25.12-.39.29-.72.52-1,.22-.28.5-.51.82-.67s.69-.24,1.1-.24c.37,0,.69.06.96.19s.5.3.71.52v-3.37h1.07ZM284.48,150.15c-.2-.27-.42-.46-.65-.56s-.49-.16-.78-.16c-.56,0-1,.2-1.3.61-.3.4-.46.98-.46,1.73,0,.4.03.73.1,1.02.07.28.17.51.3.7.13.18.29.31.49.4.19.08.41.13.65.13.35,0,.66-.08.92-.24.26-.16.5-.39.72-.68v-2.93Z" fill="#222" stroke-width="0"/><path d="M290.71,154.78v-5.17l-.67-.08c-.08-.02-.15-.05-.21-.09-.05-.04-.08-.1-.08-.18v-.44h.96v-.59c0-.35.05-.66.15-.93.1-.27.24-.5.42-.68.18-.19.4-.33.66-.42.26-.1.54-.14.86-.14.27,0,.52.04.75.12l-.02.53c0,.1-.06.15-.16.16-.1,0-.23.01-.39.01-.18,0-.35.02-.5.07s-.28.13-.39.23c-.11.11-.19.25-.25.43-.06.18-.09.39-.09.65v.56h1.75v.77h-1.72v5.18h-1.07Z" fill="#222" stroke-width="0"/><path d="M295.53,149.92c.19-.42.43-.74.71-.98.28-.23.62-.35,1.03-.35.13,0,.25.01.37.04s.22.07.31.13l-.08.8c-.02.1-.08.15-.18.15-.06,0-.14-.01-.25-.04-.11-.02-.23-.04-.37-.04-.19,0-.36.03-.51.08-.15.06-.28.14-.4.25-.12.11-.22.25-.32.41-.09.16-.18.35-.25.56v3.84h-1.07v-6.08h.61c.12,0,.2.02.24.07.04.04.07.12.09.23l.07.92Z" fill="#222" stroke-width="0"/><path d="M301.2,148.6c.44,0,.84.07,1.2.22.36.15.66.36.91.63s.44.6.58.99c.13.39.2.82.2,1.29s-.07.91-.2,1.3c-.13.38-.33.71-.58.98-.25.27-.56.48-.91.63-.36.15-.76.22-1.2.22s-.85-.07-1.21-.22c-.36-.15-.66-.35-.92-.63-.25-.27-.45-.6-.58-.98-.13-.38-.2-.82-.2-1.3s.07-.91.2-1.29.33-.71.58-.99.56-.48.92-.63.76-.22,1.21-.22ZM301.2,154.03c.6,0,1.05-.2,1.34-.6s.44-.96.44-1.68-.15-1.29-.44-1.69c-.3-.4-.74-.61-1.34-.61-.3,0-.57.05-.8.16-.22.1-.41.25-.56.45-.15.2-.26.44-.34.72-.07.29-.11.61-.11.97,0,.72.15,1.28.45,1.68s.75.6,1.36.6Z" fill="#222" stroke-width="0"/><path d="M305.44,154.78v-6.08h.64c.15,0,.25.07.28.22l.08.62c.22-.28.48-.5.76-.68.28-.18.6-.26.97-.26.41,0,.74.11.99.34s.44.54.55.92c.09-.22.2-.41.34-.57.14-.16.29-.29.46-.4s.36-.18.55-.23c.19-.05.39-.07.59-.07.32,0,.6.05.85.15s.46.25.64.45c.17.2.31.44.4.72.09.29.14.61.14.98v3.87h-1.07v-3.87c0-.48-.1-.84-.31-1.08s-.51-.37-.9-.37c-.18,0-.34.03-.5.09s-.3.15-.42.27c-.12.12-.22.27-.29.45-.07.18-.11.39-.11.63v3.87h-1.07v-3.87c0-.49-.1-.85-.29-1.09-.2-.24-.48-.36-.86-.36-.26,0-.51.07-.73.21s-.43.33-.62.58v4.53h-1.07Z" fill="#222" stroke-width="0"/><path d="M323.04,147.52c-.04.06-.07.1-.12.13-.04.03-.09.04-.15.04-.07,0-.15-.03-.24-.1-.09-.07-.21-.14-.34-.23s-.3-.16-.5-.23-.43-.1-.71-.1c-.26,0-.49.04-.69.1-.2.07-.36.17-.5.29-.13.12-.24.26-.3.42-.07.16-.1.34-.1.52,0,.24.06.44.18.6s.27.29.47.4c.19.11.41.21.66.29.25.08.5.17.76.26.26.09.51.19.76.3s.46.25.66.42c.19.17.35.37.47.62.12.24.18.54.18.9,0,.38-.06.73-.19,1.06-.13.33-.32.62-.56.86-.25.24-.55.44-.91.58-.36.14-.76.21-1.22.21-.56,0-1.07-.1-1.52-.3s-.85-.48-1.17-.82l.34-.55s.07-.08.12-.11c.05-.03.1-.04.15-.04.05,0,.11.02.18.06s.14.09.22.16c.08.06.18.13.29.21.11.08.23.15.37.21s.29.12.47.16c.18.04.37.06.59.06.28,0,.52-.04.74-.11.22-.08.4-.18.55-.32.15-.14.26-.3.34-.49.08-.19.12-.41.12-.64,0-.26-.06-.47-.18-.64-.12-.17-.27-.3-.46-.42-.19-.11-.41-.21-.66-.29-.25-.08-.5-.16-.76-.24s-.51-.18-.76-.29-.47-.25-.66-.42c-.19-.17-.35-.39-.46-.65s-.18-.58-.18-.96c0-.3.06-.6.18-.88s.29-.54.52-.76c.23-.22.5-.4.83-.53.33-.13.71-.2,1.14-.2.48,0,.92.08,1.31.23.39.15.74.37,1.04.66l-.28.55Z" fill="#222" stroke-width="0"/><path d="M329.77,148.7v6.08h-.64c-.15,0-.25-.07-.29-.22l-.08-.65c-.26.29-.56.53-.89.71-.33.18-.7.27-1.13.27-.33,0-.62-.06-.88-.17-.25-.11-.47-.27-.64-.47-.17-.2-.3-.44-.39-.73-.09-.28-.13-.6-.13-.94v-3.88h1.07v3.88c0,.46.11.82.32,1.07.21.25.53.38.96.38.32,0,.61-.08.89-.23.27-.15.53-.36.76-.62v-4.48h1.07Z" fill="#222" stroke-width="0"/><path d="M336.49,145.94v8.84h-.64c-.15,0-.25-.07-.29-.22l-.1-.74c-.26.31-.56.56-.89.76s-.72.29-1.15.29c-.35,0-.66-.07-.95-.2-.29-.13-.53-.33-.73-.59-.2-.26-.35-.58-.46-.97-.11-.39-.16-.83-.16-1.34,0-.45.06-.86.18-1.25.12-.39.29-.72.52-1,.22-.28.5-.51.82-.67s.69-.24,1.1-.24c.37,0,.69.06.96.19s.5.3.71.52v-3.37h1.07ZM335.43,150.15c-.2-.27-.42-.46-.65-.56s-.49-.16-.78-.16c-.56,0-1,.2-1.3.61-.3.4-.46.98-.46,1.73,0,.4.03.73.1,1.02.07.28.17.51.3.7.13.18.29.31.49.4.19.08.41.13.65.13.35,0,.66-.08.92-.24.26-.16.5-.39.72-.68v-2.93Z" fill="#222" stroke-width="0"/><path d="M338.03,149.56c.34-.32.7-.57,1.09-.73.39-.16.82-.24,1.29-.24.34,0,.64.06.91.17.26.11.49.27.67.47.18.2.32.44.41.73.09.28.14.6.14.94v3.89h-.47c-.1,0-.18-.02-.24-.05-.06-.03-.1-.1-.13-.2l-.12-.58c-.16.15-.32.28-.47.39-.15.11-.31.21-.48.29s-.35.14-.54.18c-.19.04-.4.06-.63.06s-.46-.03-.67-.1c-.21-.07-.39-.17-.54-.3-.15-.13-.28-.3-.37-.5-.09-.2-.13-.44-.13-.72,0-.24.07-.47.2-.69.13-.22.35-.42.64-.59.29-.17.68-.31,1.16-.42.47-.11,1.06-.17,1.75-.19v-.47c0-.47-.1-.83-.31-1.07s-.5-.36-.89-.36c-.26,0-.48.03-.66.1s-.33.14-.46.22c-.13.08-.24.16-.34.22-.09.07-.19.1-.28.1-.07,0-.13-.02-.19-.06-.05-.04-.1-.08-.13-.14l-.19-.34ZM341.48,152.04c-.49.02-.91.05-1.26.12s-.63.14-.85.24c-.22.1-.38.22-.47.35-.1.14-.15.29-.15.46s.03.3.08.41c.05.12.12.21.21.28.09.07.2.13.32.16.12.03.25.05.39.05.19,0,.36-.02.52-.06s.3-.09.44-.17c.14-.07.27-.16.4-.26.12-.1.25-.21.37-.34v-1.26Z" fill="#222" stroke-width="0"/><path d="M345.16,149.58c.13-.15.27-.28.42-.4.15-.12.3-.22.47-.31.17-.09.34-.15.53-.2.19-.05.39-.07.6-.07.33,0,.62.05.88.17.25.11.47.27.64.47.17.2.3.44.39.73s.13.6.13.94v3.87h-1.07v-3.87c0-.46-.1-.82-.32-1.07-.21-.25-.53-.38-.96-.38-.32,0-.61.08-.88.23-.27.15-.53.36-.76.62v4.48h-1.07v-6.08h.64c.15,0,.25.07.28.22l.08.66Z" fill="#222" stroke-width="0"/></svg>