<?xml version="1.0" encoding="UTF-8"?><svg id="b" xmlns="http://www.w3.org/2000/svg" width="48" height="35" viewBox="0 0 48 35"><g id="c"><path d="m47.5,0h-31c-.28,0-.5.22-.5.5v7.5h10.5c1.38,0,2.5,1.12,2.5,2.5v24c0,.17-.02.34-.05.5h18.55c.28,0,.5-.22.5-.5V.5c0-.28-.22-.5-.5-.5Zm-3.94,20.56c-.59.59-1.54.59-2.12,0l-1.44-1.44v8.38c0,.83-.67,1.5-1.5,1.5s-1.5-.67-1.5-1.5v-8.38l-1.44,1.44c-.59.59-1.54.59-2.12,0s-.59-1.54,0-2.12l3.95-3.95s.01,0,.02-.01c.27-.29.66-.48,1.09-.48s.8.17,1.07.45c0,0,0,0,0,0l3.98,3.98c.59.59.59,1.54,0,2.12Z" fill="#0072bc" stroke-width="0"/><path d="m26.5,10H.5c-.28,0-.5.22-.5.5v24c0,.28.22.5.5.5h26c.28,0,.5-.22.5-.5V10.5c0-.28-.22-.5-.5-.5Zm-9.5,9h-7c-1.1,0-2-.9-2-2s.9-2,2-2h7c1.1,0,2,.9,2,2s-.9,2-2,2Z" fill="#0072bc" stroke-width="0"/></g></svg>