<?xml version="1.0" encoding="UTF-8"?><svg id="b" xmlns="http://www.w3.org/2000/svg" width="48" height="48" viewBox="0 0 48 48"><g id="c"><path d="m28.83,28.15l7.61-7.53c.81-.83,2.13-.83,2.95,0s.81,2.17,0,3l-3.8,3.65c-.47.48-.47,1.26,0,1.75.47.48,1.24.48,1.72,0l4.69-5.02V8c0-1.66,1.37-3,3-3s3,1.34,3,3v17.4c0,.8-.31,1.56-.87,2.12l-11.13,11.48v9h-9v-15c0-2,.52-3.52,1.83-4.85Z" fill="#0072bc" stroke-width="0"/><path d="m19.17,28.15l-7.61-7.53c-.81-.83-2.13-.83-2.95,0s-.81,2.17,0,3l3.8,3.65c.47.48.47,1.26,0,1.75-.47.48-1.24.48-1.72,0l-4.69-5.02V8c0-1.66-1.37-3-3-3S0,6.34,0,8v17.4c0,.8.31,1.56.87,2.12l11.13,11.48v9h9v-15c0-2-.52-3.52-1.83-4.85Z" fill="#0072bc" stroke-width="0"/><circle cx="24" cy="9" r="9" fill="#0072bc" stroke-width="0"/></g></svg>