<svg xmlns="http://www.w3.org/2000/svg" width="350" height="148" viewBox="0 0 350 148"><rect width="350" height="148" fill="#f1f2f2"/><path d="M31.92,21.87V14.54h2.5a3.56,3.56,0,0,1,3.76,3.67,3.54,3.54,0,0,1-3.76,3.66Zm5.32-3.66a2.69,2.69,0,0,0-2.82-2.86H32.83v5.71h1.59A2.7,2.7,0,0,0,37.24,18.21Z" fill="#0072bc"/><path d="M39.26,19.21a2.63,2.63,0,1,1,5.26,0,2.63,2.63,0,1,1-5.26,0Zm4.39,0a1.78,1.78,0,1,0-3.52,0,1.78,1.78,0,1,0,3.52,0Z" fill="#0072bc"/><circle cx="17.55" cy="17.55" r="7.55" fill="#9dc5ff"/><circle cx="17.55" cy="17.55" r="4.8" fill="#0072bc"/><polyline points="14.8 17.55 16.63 19.38 20.29 15.72" fill="none" stroke="#fff" stroke-linecap="round" stroke-linejoin="round" stroke-width="0.75"/><path d="M201.92,21.87V14.54h2.5a3.56,3.56,0,0,1,3.76,3.67,3.54,3.54,0,0,1-3.76,3.66Zm5.32-3.66a2.69,2.69,0,0,0-2.82-2.86h-1.59v5.71h1.59A2.7,2.7,0,0,0,207.24,18.21Z" fill="#ef4a60"/><path d="M209.26,19.21a2.63,2.63,0,1,1,5.26,0,2.63,2.63,0,1,1-5.26,0Zm4.39,0a1.78,1.78,0,1,0-3.52,0,1.78,1.78,0,1,0,3.52,0Z" fill="#ef4a60"/><path d="M219.44,21.87V18.4c0-.95-.48-1.23-1.19-1.23a2.06,2.06,0,0,0-1.57.82v3.88h-.83V16.56h.83v.77a2.58,2.58,0,0,1,1.9-.9,1.5,1.5,0,0,1,1.68,1.71v3.73Z" fill="#ef4a60"/><path d="M222.07,16.93l-.42-.35a1.65,1.65,0,0,0,.71-1l-.15,0a.53.53,0,0,1-.53-.56.6.6,0,0,1,.58-.59c.38,0,.7.3.7.84A2.14,2.14,0,0,1,222.07,16.93Z" fill="#ef4a60"/><path d="M224.54,20.76V17.29h-.88v-.73h.88V15.11h.83v1.45h1.08v.73h-1.08v3.29c0,.4.18.68.53.68a.75.75,0,0,0,.56-.23l.24.63a1.32,1.32,0,0,1-1,.34A1.08,1.08,0,0,1,224.54,20.76Z" fill="#ef4a60"/><circle cx="187.55" cy="17.55" r="7.55" fill="#ffbcc1"/><circle cx="187.55" cy="17.55" r="4.8" fill="#ef4a60"/><line x1="189.55" y1="15.55" x2="185.55" y2="19.55" fill="none" stroke="#fff" stroke-linecap="round" stroke-linejoin="round" stroke-width="0.75"/><line x1="189.55" y1="19.55" x2="185.55" y2="15.55" fill="none" stroke="#fff" stroke-linecap="round" stroke-linejoin="round" stroke-width="0.75"/><path d="M210.92,117.87c0-1,.43-2.06,1.53-2.06s1.53,1.08,1.53,2.06-.44,2.07-1.53,2.07S210.92,118.84,210.92,117.87Zm2.55,0c0-.8-.26-1.62-1-1.62s-1,.82-1,1.62.26,1.62,1,1.62S213.47,118.67,213.47,117.87Z" fill="#bbbdbf"/><path d="M214.47,116.8a1,1,0,1,1,1,1A.95.95,0,0,1,214.47,116.8Zm1.57,0a.63.63,0,0,0-.6-.69.63.63,0,0,0-.61.69.62.62,0,0,0,.61.67A.61.61,0,0,0,216,116.8Zm-1,3.07,2.56-4h.33l-2.56,4Zm1.51-.91a1,1,0,1,1,1.92,0,1,1,0,1,1-1.92,0Zm1.57,0a.61.61,0,1,0-1.22,0,.61.61,0,1,0,1.22,0Z" fill="#bbbdbf"/><path d="M207.41,103.85v-.4c1.44-1.12,2.22-1.79,2.22-2.48a.74.74,0,0,0-.84-.73,1.33,1.33,0,0,0-1.08.5l-.31-.32a1.75,1.75,0,0,1,1.39-.63,1.22,1.22,0,0,1,1.35,1.18c0,.82-.83,1.56-1.94,2.44h2v.44Z" fill="#bbbdbf"/><path d="M210.92,101.86c0-1,.43-2.07,1.53-2.07s1.53,1.09,1.53,2.07-.44,2.07-1.53,2.07S210.92,102.83,210.92,101.86Zm2.55,0c0-.8-.26-1.62-1-1.62s-1,.82-1,1.62.26,1.62,1,1.62S213.47,102.66,213.47,101.86Z" fill="#bbbdbf"/><path d="M214.47,100.79a1,1,0,1,1,1.93,0,1,1,0,1,1-1.93,0Zm1.57,0a.62.62,0,0,0-.6-.69.63.63,0,0,0-.61.69.62.62,0,0,0,.61.67A.61.61,0,0,0,216,100.79Zm-1,3.06,2.56-4h.33l-2.56,4Zm1.51-.91a1,1,0,1,1,1,1A.95.95,0,0,1,216.56,102.94Zm1.57,0a.61.61,0,1,0-.61.68A.62.62,0,0,0,218.13,102.94Z" fill="#bbbdbf"/><path d="M209.36,87.84v-1h-1.9v-.41l1.71-2.58h.69v2.55h.56v.44h-.56v1Zm0-3.53L208,86.39h1.4Z" fill="#bbbdbf"/><path d="M210.92,85.85c0-1,.43-2.07,1.53-2.07S214,84.87,214,85.85s-.44,2.07-1.53,2.07S210.92,86.82,210.92,85.85Zm2.55,0c0-.8-.26-1.62-1-1.62s-1,.82-1,1.62.26,1.62,1,1.62S213.47,86.64,213.47,85.85Z" fill="#bbbdbf"/><path d="M214.47,84.78a1,1,0,1,1,1.93,0,1,1,0,1,1-1.93,0Zm1.57,0a.62.62,0,0,0-.6-.69.63.63,0,0,0-.61.69.62.62,0,0,0,.61.67A.61.61,0,0,0,216,84.78Zm-1,3.06,2.56-4h.33l-2.56,4Zm1.51-.91a1,1,0,1,1,1,1A.95.95,0,0,1,216.56,86.93Zm1.57,0a.61.61,0,1,0-.61.68A.62.62,0,0,0,218.13,86.93Z" fill="#bbbdbf"/><path d="M207.37,69.83c0-1.07.51-2.06,1.63-2.06a1.38,1.38,0,0,1,1.11.48l-.25.37a1,1,0,0,0-.86-.4c-.77,0-1.12.78-1.12,1.57v.15a1.45,1.45,0,0,1,1.13-.62,1.21,1.21,0,0,1,1.31,1.28,1.31,1.31,0,0,1-1.4,1.3C207.8,71.9,207.37,70.93,207.37,69.83Zm2.44.78a.82.82,0,0,0-.91-.86,1.23,1.23,0,0,0-1,.59c0,.5.3,1.12,1,1.12A.87.87,0,0,0,209.81,70.61Z" fill="#bbbdbf"/><path d="M210.92,69.83c0-1,.43-2.06,1.53-2.06S214,68.86,214,69.83s-.44,2.07-1.53,2.07S210.92,70.81,210.92,69.83Zm2.55,0c0-.79-.26-1.61-1-1.61s-1,.82-1,1.61.26,1.63,1,1.63S213.47,70.63,213.47,69.83Z" fill="#bbbdbf"/><path d="M214.47,68.77a1,1,0,1,1,1.93,0,1,1,0,1,1-1.93,0Zm1.57,0a.62.62,0,0,0-.6-.69.63.63,0,0,0-.61.69.62.62,0,0,0,.61.67A.61.61,0,0,0,216,68.77Zm-1,3.06,2.56-4h.33l-2.56,4Zm1.51-.91a1,1,0,1,1,1,1A.94.94,0,0,1,216.56,70.92Zm1.57,0a.61.61,0,1,0-.61.68A.62.62,0,0,0,218.13,70.92Z" fill="#bbbdbf"/><path d="M207.43,54.81a1.19,1.19,0,0,1,1-1.05,1.06,1.06,0,0,1-.89-1c0-.72.7-1,1.37-1s1.37.32,1.37,1a1.06,1.06,0,0,1-.89,1,1.19,1.19,0,0,1,1,1.05c0,.67-.65,1.08-1.43,1.08S207.43,55.49,207.43,54.81Zm2.37-.06c0-.52-.69-.74-.93-.77s-.93.25-.93.77.43.7.93.7S209.8,55.19,209.8,54.75Zm-.06-1.89c0-.41-.39-.66-.87-.66s-.87.25-.87.66.63.65.87.69S209.74,53.35,209.74,52.86Z" fill="#bbbdbf"/><path d="M210.92,53.82c0-1,.43-2.06,1.53-2.06S214,52.85,214,53.82s-.44,2.07-1.53,2.07S210.92,54.8,210.92,53.82Zm2.55,0c0-.79-.26-1.62-1-1.62s-1,.83-1,1.62.26,1.63,1,1.63S213.47,54.62,213.47,53.82Z" fill="#bbbdbf"/><path d="M214.47,52.76a1,1,0,1,1,1.93,0,1,1,0,1,1-1.93,0Zm1.57,0a.62.62,0,0,0-.6-.69.68.68,0,0,0,0,1.36A.62.62,0,0,0,216,52.76Zm-1,3.06,2.56-4h.33l-2.56,4Zm1.51-.91a1,1,0,1,1,1,1A.94.94,0,0,1,216.56,54.91Zm1.57,0a.61.61,0,1,0-.61.68A.62.62,0,0,0,218.13,54.91Z" fill="#bbbdbf"/><path d="M206,39.81V36.46l-.65.69-.3-.31,1-1h.43v4Z" fill="#bbbdbf"/><path d="M207.25,37.81c0-1,.43-2.06,1.53-2.06s1.53,1.08,1.53,2.06-.44,2.07-1.53,2.07S207.25,38.78,207.25,37.81Zm2.55,0c0-.8-.26-1.62-1-1.62s-1,.82-1,1.62.25,1.63,1,1.63S209.8,38.61,209.8,37.81Z" fill="#bbbdbf"/><path d="M210.92,37.81c0-1,.43-2.06,1.53-2.06S214,36.83,214,37.81s-.44,2.07-1.53,2.07S210.92,38.78,210.92,37.81Zm2.55,0c0-.8-.26-1.62-1-1.62s-1,.82-1,1.62.26,1.63,1,1.63S213.47,38.61,213.47,37.81Z" fill="#bbbdbf"/><path d="M214.47,36.74a1,1,0,1,1,1.93,0,1,1,0,1,1-1.93,0Zm1.57,0a.62.62,0,0,0-.6-.68.69.69,0,1,0,.6.68Zm-1,3.07,2.56-4h.33l-2.56,4Zm1.51-.91a1,1,0,1,1,1,1A.94.94,0,0,1,216.56,38.9Zm1.57,0a.61.61,0,1,0-.61.68A.63.63,0,0,0,218.13,38.9Z" fill="#bbbdbf"/><path d="M210.92,117.87c0-1,.43-2.06,1.53-2.06s1.53,1.08,1.53,2.06-.44,2.07-1.53,2.07S210.92,118.84,210.92,117.87Zm2.55,0c0-.8-.26-1.62-1-1.62s-1,.82-1,1.62.26,1.62,1,1.62S213.47,118.67,213.47,117.87Z" fill="#5e5e5e"/><path d="M214.47,116.8a1,1,0,1,1,1,1A.95.95,0,0,1,214.47,116.8Zm1.57,0a.63.63,0,0,0-.6-.69.63.63,0,0,0-.61.69.62.62,0,0,0,.61.67A.61.61,0,0,0,216,116.8Zm-1,3.07,2.56-4h.33l-2.56,4Zm1.51-.91a1,1,0,1,1,1.92,0,1,1,0,1,1-1.92,0Zm1.57,0a.61.61,0,1,0-1.22,0,.61.61,0,1,0,1.22,0Z" fill="#5e5e5e"/><path d="M207.41,103.85v-.4c1.44-1.12,2.22-1.79,2.22-2.48a.74.74,0,0,0-.84-.73,1.33,1.33,0,0,0-1.08.5l-.31-.32a1.75,1.75,0,0,1,1.39-.63,1.22,1.22,0,0,1,1.35,1.18c0,.82-.83,1.56-1.94,2.44h2v.44Z" fill="#5e5e5e"/><path d="M210.92,101.86c0-1,.43-2.07,1.53-2.07s1.53,1.09,1.53,2.07-.44,2.07-1.53,2.07S210.92,102.83,210.92,101.86Zm2.55,0c0-.8-.26-1.62-1-1.62s-1,.82-1,1.62.26,1.62,1,1.62S213.47,102.66,213.47,101.86Z" fill="#5e5e5e"/><path d="M214.47,100.79a1,1,0,1,1,1.93,0,1,1,0,1,1-1.93,0Zm1.57,0a.62.62,0,0,0-.6-.69.63.63,0,0,0-.61.69.62.62,0,0,0,.61.67A.61.61,0,0,0,216,100.79Zm-1,3.06,2.56-4h.33l-2.56,4Zm1.51-.91a1,1,0,1,1,1,1A.95.95,0,0,1,216.56,102.94Zm1.57,0a.61.61,0,1,0-.61.68A.62.62,0,0,0,218.13,102.94Z" fill="#5e5e5e"/><path d="M209.36,87.84v-1h-1.9v-.41l1.71-2.58h.69v2.55h.56v.44h-.56v1Zm0-3.53L208,86.39h1.4Z" fill="#5e5e5e"/><path d="M210.92,85.85c0-1,.43-2.07,1.53-2.07S214,84.87,214,85.85s-.44,2.07-1.53,2.07S210.92,86.82,210.92,85.85Zm2.55,0c0-.8-.26-1.62-1-1.62s-1,.82-1,1.62.26,1.62,1,1.62S213.47,86.64,213.47,85.85Z" fill="#5e5e5e"/><path d="M214.47,84.78a1,1,0,1,1,1.93,0,1,1,0,1,1-1.93,0Zm1.57,0a.62.62,0,0,0-.6-.69.63.63,0,0,0-.61.69.62.62,0,0,0,.61.67A.61.61,0,0,0,216,84.78Zm-1,3.06,2.56-4h.33l-2.56,4Zm1.51-.91a1,1,0,1,1,1,1A.95.95,0,0,1,216.56,86.93Zm1.57,0a.61.61,0,1,0-.61.68A.62.62,0,0,0,218.13,86.93Z" fill="#5e5e5e"/><path d="M207.37,69.83c0-1.07.51-2.06,1.63-2.06a1.38,1.38,0,0,1,1.11.48l-.25.37a1,1,0,0,0-.86-.4c-.77,0-1.12.78-1.12,1.57v.15a1.45,1.45,0,0,1,1.13-.62,1.21,1.21,0,0,1,1.31,1.28,1.31,1.31,0,0,1-1.4,1.3C207.8,71.9,207.37,70.93,207.37,69.83Zm2.44.78a.82.82,0,0,0-.91-.86,1.23,1.23,0,0,0-1,.59c0,.5.3,1.12,1,1.12A.87.87,0,0,0,209.81,70.61Z" fill="#5e5e5e"/><path d="M210.92,69.83c0-1,.43-2.06,1.53-2.06S214,68.86,214,69.83s-.44,2.07-1.53,2.07S210.92,70.81,210.92,69.83Zm2.55,0c0-.79-.26-1.61-1-1.61s-1,.82-1,1.61.26,1.63,1,1.63S213.47,70.63,213.47,69.83Z" fill="#5e5e5e"/><path d="M214.47,68.77a1,1,0,1,1,1.93,0,1,1,0,1,1-1.93,0Zm1.57,0a.62.62,0,0,0-.6-.69.63.63,0,0,0-.61.69.62.62,0,0,0,.61.67A.61.61,0,0,0,216,68.77Zm-1,3.06,2.56-4h.33l-2.56,4Zm1.51-.91a1,1,0,1,1,1,1A.94.94,0,0,1,216.56,70.92Zm1.57,0a.61.61,0,1,0-.61.68A.62.62,0,0,0,218.13,70.92Z" fill="#5e5e5e"/><path d="M207.43,54.81a1.19,1.19,0,0,1,1-1.05,1.06,1.06,0,0,1-.89-1c0-.72.7-1,1.37-1s1.37.32,1.37,1a1.06,1.06,0,0,1-.89,1,1.19,1.19,0,0,1,1,1.05c0,.67-.65,1.08-1.43,1.08S207.43,55.49,207.43,54.81Zm2.37-.06c0-.52-.69-.74-.93-.77s-.93.25-.93.77.43.7.93.7S209.8,55.19,209.8,54.75Zm-.06-1.89c0-.41-.39-.66-.87-.66s-.87.25-.87.66.63.65.87.69S209.74,53.35,209.74,52.86Z" fill="#5e5e5e"/><path d="M210.92,53.82c0-1,.43-2.06,1.53-2.06S214,52.85,214,53.82s-.44,2.07-1.53,2.07S210.92,54.8,210.92,53.82Zm2.55,0c0-.79-.26-1.62-1-1.62s-1,.83-1,1.62.26,1.63,1,1.63S213.47,54.62,213.47,53.82Z" fill="#5e5e5e"/><path d="M214.47,52.76a1,1,0,1,1,1.93,0,1,1,0,1,1-1.93,0Zm1.57,0a.62.62,0,0,0-.6-.69.68.68,0,0,0,0,1.36A.62.62,0,0,0,216,52.76Zm-1,3.06,2.56-4h.33l-2.56,4Zm1.51-.91a1,1,0,1,1,1,1A.94.94,0,0,1,216.56,54.91Zm1.57,0a.61.61,0,1,0-.61.68A.62.62,0,0,0,218.13,54.91Z" fill="#5e5e5e"/><path d="M206,39.81V36.46l-.65.69-.3-.31,1-1h.43v4Z" fill="#5e5e5e"/><path d="M207.25,37.81c0-1,.43-2.06,1.53-2.06s1.53,1.08,1.53,2.06-.44,2.07-1.53,2.07S207.25,38.78,207.25,37.81Zm2.55,0c0-.8-.26-1.62-1-1.62s-1,.82-1,1.62.25,1.63,1,1.63S209.8,38.61,209.8,37.81Z" fill="#5e5e5e"/><path d="M210.92,37.81c0-1,.43-2.06,1.53-2.06S214,36.83,214,37.81s-.44,2.07-1.53,2.07S210.92,38.78,210.92,37.81Zm2.55,0c0-.8-.26-1.62-1-1.62s-1,.82-1,1.62.26,1.63,1,1.63S213.47,38.61,213.47,37.81Z" fill="#5e5e5e"/><path d="M214.47,36.74a1,1,0,1,1,1.93,0,1,1,0,1,1-1.93,0Zm1.57,0a.62.62,0,0,0-.6-.68.69.69,0,1,0,.6.68Zm-1,3.07,2.56-4h.33l-2.56,4Zm1.51-.91a1,1,0,1,1,1,1A.94.94,0,0,1,216.56,38.9Zm1.57,0a.61.61,0,1,0-.61.68A.63.63,0,0,0,218.13,38.9Z" fill="#5e5e5e"/><line x1="219.79" y1="118.17" x2="221.79" y2="118.17" fill="none" stroke="#919191" stroke-miterlimit="10"/><line x1="219.79" y1="102.16" x2="221.79" y2="102.16" fill="none" stroke="#919191" stroke-miterlimit="10"/><line x1="219.79" y1="86.15" x2="221.79" y2="86.15" fill="none" stroke="#919191" stroke-miterlimit="10"/><line x1="219.79" y1="70.14" x2="221.79" y2="70.14" fill="none" stroke="#919191" stroke-miterlimit="10"/><line x1="219.79" y1="54.13" x2="221.79" y2="54.13" fill="none" stroke="#919191" stroke-miterlimit="10"/><line x1="219.79" y1="38.12" x2="221.79" y2="38.12" fill="none" stroke="#919191" stroke-miterlimit="10"/><rect x="222.82" y="38.12" width="18" height="16.01" fill="#9dc5ff"/><rect x="222.82" y="54.13" width="18" height="24.02" fill="#0072bc"/><rect x="222.82" y="78.14" width="18" height="40.03" fill="#18375f"/><rect x="247.82" y="38.12" width="18" height="16.01" fill="#9dc5ff"/><rect x="247.82" y="49" width="18" height="23" fill="#0072bc"/><rect x="247.82" y="72" width="18" height="46.17" fill="#18375f"/><rect x="272.82" y="38.12" width="18" height="16.01" fill="#9dc5ff"/><rect x="272.82" y="46" width="18" height="22" fill="#0072bc"/><rect x="272.82" y="68" width="18" height="50.17" fill="#18375f"/><rect x="297.82" y="38.12" width="18" height="16.01" fill="#9dc5ff"/><rect x="297.82" y="43" width="18" height="21" fill="#0072bc"/><rect x="297.82" y="64" width="18" height="54.17" fill="#18375f"/><path d="M214.46,139.92a2,2,0,0,1,0-2.91,1.79,1.79,0,0,1,1.63-.52L216,137a1.35,1.35,0,0,0-1.19.37,1.63,1.63,0,0,0,2.3,2.3,1.38,1.38,0,0,0,.37-1.19l.46-.14a1.8,1.8,0,0,1-.52,1.64A2,2,0,0,1,214.46,139.92Z" fill="#5e5e5e"/><path d="M217.69,137.46a1.44,1.44,0,1,1,2.09.06A1.43,1.43,0,0,1,217.69,137.46Zm1.7-1.69a1,1,0,0,0-1.47-.11,1,1,0,0,0,.11,1.46,1,1,0,1,0,1.36-1.35Z" fill="#5e5e5e"/><path d="M222.65,134.56l-.29-.29a1.46,1.46,0,0,1-.39,1.07.82.82,0,0,1-1.31,0l-1.44-1.45.32-.32,1.34,1.35a.57.57,0,0,0,.93,0,1.09,1.09,0,0,0,.29-.92l-1.5-1.5.32-.32,2.05,2.05Z" fill="#5e5e5e"/><path d="M225,132.21l-1.34-1.33a.58.58,0,0,0-.94,0,1.15,1.15,0,0,0-.29.93l1.5,1.49-.32.32-2-2,.32-.31.3.29a1.41,1.41,0,0,1,.39-1.08.83.83,0,0,1,1.31,0l1.43,1.44Z" fill="#5e5e5e"/><path d="M225.58,130.77l-1.34-1.34-.34.34-.28-.28.34-.34-.56-.56.32-.32.56.56.42-.42.28.28-.42.42,1.27,1.27c.16.15.34.19.47.06a.49.49,0,0,0,.13-.31l.33.15a.71.71,0,0,1-.24.51A.6.6,0,0,1,225.58,130.77Z" fill="#5e5e5e"/><path d="M227.19,130l-2.05-2,.32-.31.33.32a1.23,1.23,0,0,1,.31-1l.32.32-.13.12a1.06,1.06,0,0,0-.23.88l1.45,1.45Z" fill="#5e5e5e"/><path d="M229,129.19a.77.77,0,0,0,.21-.14.41.41,0,0,0,.09-.52l-.18-.45-2.92-1.21.35-.35,2.35,1-1-2.36.34-.34,1.44,3.49a.85.85,0,0,1-.19,1,1.13,1.13,0,0,1-.26.2Z" fill="#5e5e5e"/><path d="M233.8,123.4l-.88-.38-1.41,1.41.38.88-.4.4-1.69-4,.44-.44,4,1.69Zm-3.42-1.51.93,2.12,1.2-1.2Z" fill="#5e5e5e"/><path d="M238.58,139.8a2,2,0,0,1,0-2.92,1.77,1.77,0,0,1,1.63-.51l-.12.46a1.37,1.37,0,0,0-1.2.37,1.63,1.63,0,0,0,2.3,2.3,1.38,1.38,0,0,0,.37-1.2l.46-.13a1.8,1.8,0,0,1-.51,1.64A2,2,0,0,1,238.58,139.8Z" fill="#5e5e5e"/><path d="M241.82,137.34a1.43,1.43,0,1,1,2.09.06A1.43,1.43,0,0,1,241.82,137.34Zm1.69-1.7a1,1,0,1,0,.11,1.48A1,1,0,0,0,243.51,135.64Z" fill="#5e5e5e"/><path d="M246.77,134.43l-.29-.28a1.38,1.38,0,0,1-.39,1.06.81.81,0,0,1-1.3,0l-1.45-1.44.32-.32L245,134.8a.56.56,0,0,0,.92,0,1.1,1.1,0,0,0,.3-.91l-1.51-1.5.32-.32,2.05,2.05Z" fill="#5e5e5e"/><path d="M249.11,132.09l-1.34-1.34a.58.58,0,0,0-.94,0,1.1,1.1,0,0,0-.28.92l1.49,1.5-.31.32-2-2,.32-.32.29.3a1.41,1.41,0,0,1,.39-1.08.82.82,0,0,1,1.31,0l1.44,1.44Z" fill="#5e5e5e"/><path d="M249.7,130.65l-1.34-1.35-.34.34-.28-.28.34-.33-.56-.56.33-.33.56.56.41-.41.28.28-.41.41,1.27,1.27c.15.16.33.2.46.06a.37.37,0,0,0,.13-.3l.34.15a.81.81,0,0,1-.25.51A.6.6,0,0,1,249.7,130.65Z" fill="#5e5e5e"/><path d="M251.31,129.89l-2-2,.31-.32.33.33a1.24,1.24,0,0,1,.31-1.06l.33.33a.49.49,0,0,0-.13.12,1,1,0,0,0-.24.88l1.45,1.45Z" fill="#5e5e5e"/><path d="M253.17,129.07a.9.9,0,0,0,.2-.14.42.42,0,0,0,.09-.53l-.17-.44-2.93-1.21.35-.35,2.36,1-1-2.36.34-.35,1.44,3.49a.88.88,0,0,1-.18,1,1.51,1.51,0,0,1-.26.2Z" fill="#5e5e5e"/><path d="M255.91,125.3l-2.83-2.83,1.26-1.26a1,1,0,0,1,1.51-.07.89.89,0,0,1,.15,1.14,1,1,0,0,1,1.25.15,1,1,0,0,1-.06,1.58Zm-.37-3.75a.64.64,0,0,0-.95,0l-.85.85.92.91.84-.84A.64.64,0,0,0,255.54,121.55Zm1.31,1.2a.69.69,0,0,0-1,0l-.87.87,1,1,.87-.87A.66.66,0,0,0,256.85,122.75Z" fill="#5e5e5e"/><path d="M263.38,140a2,2,0,0,1,0-2.92,1.77,1.77,0,0,1,1.63-.51l-.12.46a1.32,1.32,0,0,0-1.19.37,1.63,1.63,0,0,0,2.29,2.3,1.35,1.35,0,0,0,.37-1.2l.46-.13a1.8,1.8,0,0,1-.51,1.64A2,2,0,0,1,263.38,140Z" fill="#5e5e5e"/><path d="M266.62,137.54a1.43,1.43,0,1,1,2.09.06A1.43,1.43,0,0,1,266.62,137.54Zm1.69-1.7A1,1,0,1,0,267,137.2a1,1,0,1,0,1.36-1.36Z" fill="#5e5e5e"/><path d="M271.57,134.63l-.29-.28a1.38,1.38,0,0,1-.39,1.06.81.81,0,0,1-1.3,0L268.14,134l.32-.32,1.35,1.35a.57.57,0,0,0,.93,0,1.1,1.1,0,0,0,.29-.91l-1.51-1.5.32-.32,2.05,2Z" fill="#5e5e5e"/><path d="M273.91,132.29,272.57,131a.57.57,0,0,0-.93,0,1.13,1.13,0,0,0-.29.92l1.49,1.5-.31.32-2-2.05.32-.32.29.3a1.41,1.41,0,0,1,.39-1.08.82.82,0,0,1,1.31,0l1.44,1.44Z" fill="#5e5e5e"/><path d="M274.5,130.84l-1.34-1.34-.33.34-.29-.28.34-.34-.56-.55.33-.33.56.56.41-.41.28.28-.41.41,1.27,1.27c.15.16.33.2.46.06a.37.37,0,0,0,.13-.3l.34.15a.81.81,0,0,1-.25.51A.6.6,0,0,1,274.5,130.84Z" fill="#5e5e5e"/><path d="M276.12,130.09,274.07,128l.32-.32.32.33A1.28,1.28,0,0,1,275,127l.33.33-.13.11a1.08,1.08,0,0,0-.24.89l1.45,1.45Z" fill="#5e5e5e"/><path d="M278,129.27a.7.7,0,0,0,.2-.15.41.41,0,0,0,.09-.52l-.17-.44L275.16,127l.35-.35,2.36,1-1-2.36.34-.35,1.44,3.49a.87.87,0,0,1-.18,1,1.51,1.51,0,0,1-.26.2Z" fill="#5e5e5e"/><path d="M279.18,124.2a2,2,0,0,1,0-2.92,1.77,1.77,0,0,1,1.63-.51l-.12.46a1.34,1.34,0,0,0-1.19.37,1.62,1.62,0,0,0,2.29,2.3,1.35,1.35,0,0,0,.37-1.2l.46-.13a1.8,1.8,0,0,1-.51,1.64A2,2,0,0,1,279.18,124.2Z" fill="#5e5e5e"/><path d="M288.28,140.1a2,2,0,0,1,0-2.92,1.77,1.77,0,0,1,1.63-.51l-.13.46a1.36,1.36,0,0,0-1.19.37,1.63,1.63,0,0,0,2.3,2.3,1.37,1.37,0,0,0,.37-1.19l.46-.14a1.8,1.8,0,0,1-.51,1.64A2,2,0,0,1,288.28,140.1Z" fill="#5e5e5e"/><path d="M291.52,137.64a1.43,1.43,0,1,1,2.09.06A1.43,1.43,0,0,1,291.52,137.64Zm1.69-1.69a1,1,0,1,0,.11,1.47A1,1,0,0,0,293.21,136Z" fill="#5e5e5e"/><path d="M296.47,134.73l-.29-.28a1.42,1.42,0,0,1-.39,1.07.83.83,0,0,1-1.31,0L293,134.07l.32-.32,1.35,1.35a.56.56,0,0,0,.92,0,1.1,1.1,0,0,0,.3-.91l-1.51-1.5.32-.32,2.05,2Z" fill="#5e5e5e"/><path d="M298.81,132.39l-1.34-1.34a.58.58,0,0,0-.94,0,1.1,1.1,0,0,0-.28.92l1.49,1.5-.32.32-2-2.05.31-.32.3.3a1.41,1.41,0,0,1,.39-1.08.83.83,0,0,1,1.31,0l1.43,1.44Z" fill="#5e5e5e"/><path d="M299.4,131l-1.34-1.34-.34.34-.28-.28.34-.34-.56-.56.32-.33.56.56.42-.41.28.28-.42.41,1.28,1.28c.15.15.33.19.46.06a.44.44,0,0,0,.13-.31l.33.15a.71.71,0,0,1-.24.51A.6.6,0,0,1,299.4,131Z" fill="#5e5e5e"/><path d="M301,130.19l-2-2.05.31-.32.33.33a1.22,1.22,0,0,1,.31-1.05l.33.32-.14.12a1.08,1.08,0,0,0-.23.88l1.45,1.45Z" fill="#5e5e5e"/><path d="M302.86,129.37a.77.77,0,0,0,.21-.14.41.41,0,0,0,.09-.52l-.17-.45-2.93-1.21.35-.35,2.36,1-1-2.36.34-.34,1.44,3.49a.85.85,0,0,1-.19,1,1.16,1.16,0,0,1-.25.2Z" fill="#5e5e5e"/><path d="M305.6,125.6l-2.82-2.83,1-1a2,2,0,1,1,2.83,2.83Zm.65-3.47a1.47,1.47,0,0,0-2.19,0l-.62.61,2.2,2.2.62-.61A1.49,1.49,0,0,0,306.25,122.13Z" fill="#5e5e5e"/><line x1="54.5" y1="120" x2="54.5" y2="118" fill="none" stroke="#919191" stroke-miterlimit="10"/><line x1="73.47" y1="120" x2="73.47" y2="118.31" fill="none" stroke="#919191" stroke-miterlimit="10"/><line x1="92.35" y1="120" x2="92.35" y2="118.31" fill="none" stroke="#919191" stroke-miterlimit="10"/><line x1="111.23" y1="120" x2="111.23" y2="118.31" fill="none" stroke="#919191" stroke-miterlimit="10"/><line x1="130.12" y1="120" x2="130.12" y2="118.31" fill="none" stroke="#919191" stroke-miterlimit="10"/><line x1="149" y1="120" x2="149" y2="118.31" fill="none" stroke="#919191" stroke-miterlimit="10"/><rect x="130.12" y="102.26" width="18.88" height="15.18" fill="#9dc5ff"/><rect x="101.79" y="102.26" width="28.32" height="15.18" fill="#0072bc"/><rect x="54.59" y="102.26" width="47.21" height="15.18" fill="#18375f"/><rect x="130.12" y="81.17" width="18.88" height="15.18" fill="#9dc5ff"/><rect x="109.04" y="81.17" width="27.12" height="15.18" fill="#0072bc"/><rect x="54.59" y="81.17" width="54.45" height="15.18" fill="#18375f"/><rect x="130.12" y="60.09" width="18.88" height="15.18" fill="#9dc5ff"/><rect x="113.76" y="60.09" width="25.95" height="15.18" fill="#0072bc"/><rect x="54.59" y="60.09" width="59.17" height="15.18" fill="#18375f"/><rect x="130.12" y="39" width="18.88" height="15.18" fill="#9dc5ff"/><rect x="118.47" y="39" width="24.77" height="15.18" fill="#0072bc"/><rect x="54.59" y="39" width="63.89" height="15.18" fill="#18375f"/><path d="M25.73,46.81a2,2,0,0,1,2.06-2.07,1.77,1.77,0,0,1,1.52.79l-.42.23a1.33,1.33,0,0,0-1.1-.58,1.63,1.63,0,0,0,0,3.25,1.33,1.33,0,0,0,1.1-.58l.42.23a1.79,1.79,0,0,1-1.52.8A2,2,0,0,1,25.73,46.81Z" fill="#5e5e5e"/><path d="M29.77,47.35a1.43,1.43,0,1,1,1.43,1.53A1.42,1.42,0,0,1,29.77,47.35Zm2.39,0a1,1,0,1,0-1,1.12A1,1,0,0,0,32.16,47.35Z" fill="#5e5e5e"/><path d="M35.32,48.8v-.4a1.42,1.42,0,0,1-1,.48.81.81,0,0,1-.92-.93v-2h.44v1.9c0,.51.26.66.66.66a1.11,1.11,0,0,0,.85-.43V45.91h.45V48.8Z" fill="#5e5e5e"/><path d="M38.63,48.8V46.91c0-.52-.26-.67-.65-.67a1.1,1.1,0,0,0-.86.45V48.8h-.45V45.91h.45v.42a1.42,1.42,0,0,1,1-.5.83.83,0,0,1,.92.94v2Z" fill="#5e5e5e"/><path d="M40.07,48.2V46.3h-.48v-.39h.48v-.79h.46v.79h.59v.39h-.59v1.8c0,.22.09.37.29.37a.44.44,0,0,0,.3-.12l.13.34a.7.7,0,0,1-.53.19A.6.6,0,0,1,40.07,48.2Z" fill="#5e5e5e"/><path d="M41.75,48.8V45.91h.45v.46a1.24,1.24,0,0,1,1-.53v.46H43a1.07,1.07,0,0,0-.79.46v2Z" fill="#5e5e5e"/><path d="M43.64,49.53a.64.64,0,0,0,.24,0,.42.42,0,0,0,.43-.31l.2-.44L43.3,45.91h.49l1,2.37,1-2.37h.49l-1.45,3.48a.87.87,0,0,1-.85.59,1.66,1.66,0,0,1-.33,0Z" fill="#5e5e5e"/><path d="M51.09,48.8l-.35-.89h-2l-.35.89h-.57l1.61-4h.62l1.6,4Zm-1.35-3.49-.84,2.16h1.7Z" fill="#5e5e5e"/><path d="M25.91,67.81A2,2,0,0,1,28,65.74a1.77,1.77,0,0,1,1.52.79l-.41.23A1.36,1.36,0,0,0,28,66.18a1.63,1.63,0,0,0,0,3.25,1.36,1.36,0,0,0,1.11-.58l.42.23a1.82,1.82,0,0,1-1.53.8A2,2,0,0,1,25.91,67.81Z" fill="#5e5e5e"/><path d="M29.94,68.35a1.44,1.44,0,1,1,2.87,0,1.44,1.44,0,1,1-2.87,0Zm2.39,0a1,1,0,1,0-1,1.12A1,1,0,0,0,32.33,68.35Z" fill="#5e5e5e"/><path d="M35.49,69.8v-.4a1.42,1.42,0,0,1-1,.48.82.82,0,0,1-.92-.93v-2H34v1.9c0,.51.26.66.65.66a1.09,1.09,0,0,0,.85-.43V66.91h.45V69.8Z" fill="#5e5e5e"/><path d="M38.81,69.8V67.91c0-.52-.27-.67-.66-.67a1.13,1.13,0,0,0-.86.45V69.8h-.44V66.91h.44v.42a1.42,1.42,0,0,1,1-.5.83.83,0,0,1,.92.94v2Z" fill="#5e5e5e"/><path d="M40.25,69.2V67.3h-.48v-.39h.48v-.79h.45v.79h.59v.39H40.7v1.8c0,.22.1.37.29.37a.46.46,0,0,0,.31-.12l.13.34a.74.74,0,0,1-.53.19A.59.59,0,0,1,40.25,69.2Z" fill="#5e5e5e"/><path d="M41.92,69.8V66.91h.45v.46a1.25,1.25,0,0,1,1-.53v.46h-.18a1.07,1.07,0,0,0-.79.46v2Z" fill="#5e5e5e"/><path d="M43.81,70.53a.7.7,0,0,0,.25,0,.42.42,0,0,0,.43-.31l.19-.44-1.21-2.92H44l1,2.37,1-2.37h.48l-1.45,3.48a.87.87,0,0,1-.85.59,1.47,1.47,0,0,1-.32,0Z" fill="#5e5e5e"/><path d="M48.41,69.8v-4h1.78a1,1,0,0,1,1.13,1,.91.91,0,0,1-.71.92,1,1,0,0,1,.78,1,1,1,0,0,1-1.15,1.08Zm2.39-2.9a.63.63,0,0,0-.69-.65h-1.2v1.29h1.2A.62.62,0,0,0,50.8,66.9Zm.08,1.77a.68.68,0,0,0-.74-.69H48.91v1.38h1.23A.66.66,0,0,0,50.88,68.67Z" fill="#5e5e5e"/><path d="M25.63,88.81a2,2,0,0,1,2.05-2.07,1.77,1.77,0,0,1,1.52.79l-.41.23a1.36,1.36,0,0,0-1.11-.58,1.63,1.63,0,0,0,0,3.25,1.36,1.36,0,0,0,1.11-.58l.42.23a1.82,1.82,0,0,1-1.53.8A2,2,0,0,1,25.63,88.81Z" fill="#5e5e5e"/><path d="M29.66,89.35a1.43,1.43,0,1,1,1.43,1.53A1.42,1.42,0,0,1,29.66,89.35Zm2.39,0a1,1,0,1,0-1,1.12A1,1,0,0,0,32.05,89.35Z" fill="#5e5e5e"/><path d="M35.21,90.8v-.4a1.42,1.42,0,0,1-1,.48.82.82,0,0,1-.92-.93v-2h.45v1.9c0,.51.25.66.65.66a1.11,1.11,0,0,0,.85-.43V87.91h.45V90.8Z" fill="#5e5e5e"/><path d="M38.52,90.8V88.91c0-.52-.26-.67-.65-.67a1.13,1.13,0,0,0-.86.45V90.8h-.45V87.91H37v.42a1.42,1.42,0,0,1,1-.5.83.83,0,0,1,.92.94v2Z" fill="#5e5e5e"/><path d="M40,90.2V88.3h-.48v-.39H40v-.79h.45v.79H41v.39h-.59v1.8c0,.22.1.37.29.37a.46.46,0,0,0,.31-.12l.13.34a.74.74,0,0,1-.54.19C40.18,90.88,40,90.63,40,90.2Z" fill="#5e5e5e"/><path d="M41.64,90.8V87.91h.45v.46a1.24,1.24,0,0,1,1-.53v.46h-.17a1.07,1.07,0,0,0-.79.46v2Z" fill="#5e5e5e"/><path d="M43.53,91.53a.69.69,0,0,0,.24,0,.43.43,0,0,0,.44-.31l.19-.44-1.21-2.92h.49l1,2.37,1-2.37h.49l-1.45,3.48a.87.87,0,0,1-.85.59,1.66,1.66,0,0,1-.33,0Z" fill="#5e5e5e"/><path d="M48,88.81A2,2,0,0,1,50,86.74a1.75,1.75,0,0,1,1.51.79l-.41.23a1.35,1.35,0,0,0-1.1-.58,1.63,1.63,0,0,0,0,3.25,1.35,1.35,0,0,0,1.1-.58l.42.23a1.82,1.82,0,0,1-1.52.8A2,2,0,0,1,48,88.81Z" fill="#5e5e5e"/><path d="M25.48,109.81a2,2,0,0,1,2.06-2.07,1.77,1.77,0,0,1,1.52.79l-.42.23a1.35,1.35,0,0,0-1.1-.58,1.63,1.63,0,0,0,0,3.25,1.35,1.35,0,0,0,1.1-.58l.42.23a1.79,1.79,0,0,1-1.52.8A2,2,0,0,1,25.48,109.81Z" fill="#5e5e5e"/><path d="M29.51,110.35A1.44,1.44,0,1,1,31,111.88,1.43,1.43,0,0,1,29.51,110.35Zm2.4,0a1,1,0,1,0-1,1.12A1,1,0,0,0,31.91,110.35Z" fill="#5e5e5e"/><path d="M35.07,111.8v-.4a1.42,1.42,0,0,1-1,.48.82.82,0,0,1-.93-.93v-2h.45v1.9c0,.51.26.66.66.66a1.12,1.12,0,0,0,.85-.43v-2.13h.45v2.89Z" fill="#5e5e5e"/><path d="M38.38,111.8v-1.89c0-.52-.26-.67-.65-.67a1.1,1.1,0,0,0-.86.45v2.11h-.45v-2.89h.45v.42a1.4,1.4,0,0,1,1-.5.82.82,0,0,1,.91.94v2Z" fill="#5e5e5e"/><path d="M39.82,111.2v-1.9h-.48v-.39h.48v-.79h.46v.79h.58v.39h-.58v1.8c0,.22.09.37.28.37a.44.44,0,0,0,.31-.12l.13.34a.7.7,0,0,1-.53.19A.6.6,0,0,1,39.82,111.2Z" fill="#5e5e5e"/><path d="M41.5,111.8v-2.89h.44v.46a1.26,1.26,0,0,1,1-.53v.46h-.17a1.09,1.09,0,0,0-.8.46v2Z" fill="#5e5e5e"/><path d="M43.39,112.53a.64.64,0,0,0,.24,0,.42.42,0,0,0,.43-.31l.19-.44L43,108.91h.5l1,2.37,1-2.37H46l-1.46,3.48a.86.86,0,0,1-.85.59,1.65,1.65,0,0,1-.32,0Z" fill="#5e5e5e"/><path d="M48,111.8v-4h1.36a2,2,0,1,1,0,4Zm2.9-2a1.46,1.46,0,0,0-1.54-1.56h-.87v3.11h.87A1.47,1.47,0,0,0,50.89,109.81Z" fill="#5e5e5e"/><path d="M51,123.81c0-1,.43-2.07,1.53-2.07S54,122.83,54,123.81s-.44,2.07-1.53,2.07S51,124.78,51,123.81Zm2.55,0c0-.8-.26-1.62-1-1.62s-1,.82-1,1.62.26,1.62,1,1.62S53.51,124.6,53.51,123.81Z" fill="#5e5e5e"/><path d="M54.51,122.74a1,1,0,1,1,1.93,0,1,1,0,1,1-1.93,0Zm1.57,0a.62.62,0,0,0-.6-.69.63.63,0,0,0-.61.69.62.62,0,0,0,.61.67A.61.61,0,0,0,56.08,122.74Zm-1,3.06,2.56-4H58l-2.57,4Zm1.51-.91a1,1,0,0,1,1-1,1,1,0,0,1,0,2A1,1,0,0,1,56.6,124.89Zm1.57,0a.62.62,0,0,0-.6-.68.68.68,0,0,0,0,1.36A.62.62,0,0,0,58.17,124.89Z" fill="#5e5e5e"/><path d="M67.45,125.8v-.4c1.44-1.13,2.23-1.79,2.23-2.48a.75.75,0,0,0-.84-.73,1.34,1.34,0,0,0-1.09.5l-.3-.32a1.69,1.69,0,0,1,1.39-.63,1.22,1.22,0,0,1,1.34,1.18c0,.81-.83,1.56-1.94,2.44h2v.44Z" fill="#5e5e5e"/><path d="M71,123.81c0-1,.43-2.07,1.53-2.07S74,122.83,74,123.81s-.44,2.07-1.53,2.07S71,124.78,71,123.81Zm2.55,0c0-.8-.26-1.62-1-1.62s-1,.82-1,1.62.26,1.62,1,1.62S73.51,124.6,73.51,123.81Z" fill="#5e5e5e"/><path d="M74.51,122.74a1,1,0,1,1,1.93,0,1,1,0,1,1-1.93,0Zm1.57,0a.62.62,0,0,0-.6-.69.63.63,0,0,0-.61.69.62.62,0,0,0,.61.67A.61.61,0,0,0,76.08,122.74Zm-1,3.06,2.55-4H78l-2.57,4Zm1.5-.91a1,1,0,1,1,1,1A1,1,0,0,1,76.6,124.89Zm1.57,0a.62.62,0,0,0-.6-.68.68.68,0,0,0,0,1.36A.62.62,0,0,0,78.17,124.89Z" fill="#5e5e5e"/><path d="M87.4,125.8v-1H85.5v-.41l1.71-2.58h.69v2.55h.56v.44H87.9v1Zm0-3.53L86,124.35h1.4Z" fill="#5e5e5e"/><path d="M89,123.81c0-1,.43-2.07,1.53-2.07S92,122.83,92,123.81s-.44,2.07-1.53,2.07S89,124.78,89,123.81Zm2.55,0c0-.8-.26-1.62-1-1.62s-1,.82-1,1.62.26,1.62,1,1.62S91.51,124.6,91.51,123.81Z" fill="#5e5e5e"/><path d="M92.51,122.74a1,1,0,1,1,1.93,0,1,1,0,1,1-1.93,0Zm1.57,0a.62.62,0,0,0-.6-.69.63.63,0,0,0-.61.69.62.62,0,0,0,.61.67A.61.61,0,0,0,94.08,122.74Zm-1,3.06,2.56-4H96l-2.57,4Zm1.51-.91a1,1,0,0,1,1-1,1,1,0,0,1,0,2A1,1,0,0,1,94.6,124.89Zm1.57,0a.62.62,0,0,0-.6-.68.68.68,0,0,0,0,1.36A.62.62,0,0,0,96.17,124.89Z" fill="#5e5e5e"/><path d="M106.42,123.81c0-1.08.5-2.07,1.63-2.07a1.39,1.39,0,0,1,1.1.48l-.25.38a1,1,0,0,0-.85-.41c-.78,0-1.13.78-1.13,1.57v.15a1.45,1.45,0,0,1,1.13-.62,1.21,1.21,0,0,1,1.31,1.28,1.32,1.32,0,0,1-1.4,1.31C106.84,125.88,106.42,124.9,106.42,123.81Zm2.44.78a.83.83,0,0,0-.92-.87,1.21,1.21,0,0,0-1,.6,1.06,1.06,0,0,0,1,1.11A.87.87,0,0,0,108.86,124.59Z" fill="#5e5e5e"/><path d="M110,123.81c0-1,.43-2.07,1.53-2.07s1.53,1.09,1.53,2.07-.44,2.07-1.53,2.07S110,124.78,110,123.81Zm2.55,0c0-.8-.26-1.62-1-1.62s-1,.82-1,1.62.26,1.62,1,1.62S112.51,124.6,112.51,123.81Z" fill="#5e5e5e"/><path d="M113.51,122.74a1,1,0,1,1,1.93,0,1,1,0,1,1-1.93,0Zm1.57,0a.62.62,0,0,0-.6-.69.63.63,0,0,0-.61.69.62.62,0,0,0,.61.67A.61.61,0,0,0,115.08,122.74Zm-1,3.06,2.56-4H117l-2.57,4Zm1.51-.91a1,1,0,0,1,1-1,1,1,0,0,1,0,2A1,1,0,0,1,115.6,124.89Zm1.57,0a.62.62,0,0,0-.6-.68.68.68,0,0,0,0,1.36A.62.62,0,0,0,117.17,124.89Z" fill="#5e5e5e"/><path d="M124.48,124.79a1.18,1.18,0,0,1,1-1.05,1.06,1.06,0,0,1-.89-1c0-.72.7-1,1.37-1s1.37.32,1.37,1a1.06,1.06,0,0,1-.89,1,1.18,1.18,0,0,1,1,1.05c0,.68-.65,1.09-1.43,1.09S124.48,125.47,124.48,124.79Zm2.36-.05c0-.53-.69-.75-.93-.78s-.93.25-.93.78.43.69.93.69S126.84,125.17,126.84,124.74Zm-.06-1.89c0-.42-.39-.66-.87-.66s-.87.24-.87.66.63.64.87.69S126.78,123.33,126.78,122.85Z" fill="#5e5e5e"/><path d="M128,123.81c0-1,.43-2.07,1.53-2.07s1.53,1.09,1.53,2.07-.44,2.07-1.53,2.07S128,124.78,128,123.81Zm2.55,0c0-.8-.26-1.62-1-1.62s-1,.82-1,1.62.26,1.62,1,1.62S130.51,124.6,130.51,123.81Z" fill="#5e5e5e"/><path d="M131.51,122.74a1,1,0,1,1,1.93,0,1,1,0,1,1-1.93,0Zm1.57,0a.62.62,0,0,0-.6-.69.63.63,0,0,0-.61.69.62.62,0,0,0,.61.67A.61.61,0,0,0,133.08,122.74Zm-1,3.06,2.55-4H135l-2.57,4Zm1.5-.91a1,1,0,1,1,1,1A1,1,0,0,1,133.6,124.89Zm1.57,0a.62.62,0,0,0-.6-.68.68.68,0,0,0,0,1.36A.62.62,0,0,0,135.17,124.89Z" fill="#5e5e5e"/><path d="M143,125.8v-3.34l-.64.68-.3-.31,1-1h.43v4Z" fill="#5e5e5e"/><path d="M144.29,123.81c0-1,.43-2.07,1.53-2.07s1.53,1.09,1.53,2.07-.44,2.07-1.53,2.07S144.29,124.78,144.29,123.81Zm2.55,0c0-.8-.26-1.62-1-1.62s-1,.82-1,1.62.26,1.62,1,1.62S146.84,124.6,146.84,123.81Z" fill="#5e5e5e"/><path d="M148,123.81c0-1,.43-2.07,1.53-2.07s1.53,1.09,1.53,2.07-.44,2.07-1.53,2.07S148,124.78,148,123.81Zm2.55,0c0-.8-.26-1.62-1-1.62s-1,.82-1,1.62.26,1.62,1,1.62S150.51,124.6,150.51,123.81Z" fill="#5e5e5e"/><path d="M151.51,122.74a1,1,0,1,1,1.93,0,1,1,0,1,1-1.93,0Zm1.57,0a.62.62,0,0,0-.6-.69.63.63,0,0,0-.61.69.62.62,0,0,0,.61.67A.61.61,0,0,0,153.08,122.74Zm-1,3.06,2.56-4H155l-2.57,4Zm1.51-.91a1,1,0,0,1,1-1,1,1,0,0,1,0,2A1,1,0,0,1,153.6,124.89Zm1.57,0a.62.62,0,0,0-.6-.68.68.68,0,0,0,0,1.36A.62.62,0,0,0,155.17,124.89Z" fill="#5e5e5e"/></svg>