<svg xmlns="http://www.w3.org/2000/svg" width="350" height="148" viewBox="0 0 350 148"><rect width="350" height="148" fill="#f1f2f2"/><path d="M31.92,21.87V14.54h2.5a3.56,3.56,0,0,1,3.76,3.67,3.54,3.54,0,0,1-3.76,3.66Zm5.32-3.66a2.69,2.69,0,0,0-2.82-2.86H32.83v5.71h1.59A2.7,2.7,0,0,0,37.24,18.21Z" fill="#0072bc"/><path d="M39.26,19.21a2.63,2.63,0,1,1,5.26,0,2.63,2.63,0,1,1-5.26,0Zm4.39,0a1.78,1.78,0,1,0-3.52,0,1.78,1.78,0,1,0,3.52,0Z" fill="#0072bc"/><circle cx="17.55" cy="17.55" r="7.55" fill="#9dc5ff"/><circle cx="17.55" cy="17.55" r="4.8" fill="#0072bc"/><polyline points="14.8 17.55 16.63 19.38 20.29 15.72" fill="none" stroke="#fff" stroke-linecap="round" stroke-linejoin="round" stroke-width="0.75"/><path d="M201.92,21.87V14.54h2.5a3.56,3.56,0,0,1,3.76,3.67,3.54,3.54,0,0,1-3.76,3.66Zm5.32-3.66a2.69,2.69,0,0,0-2.82-2.86h-1.59v5.71h1.59A2.7,2.7,0,0,0,207.24,18.21Z" fill="#ef4a60"/><path d="M209.26,19.21a2.63,2.63,0,1,1,5.26,0,2.63,2.63,0,1,1-5.26,0Zm4.39,0a1.78,1.78,0,1,0-3.52,0,1.78,1.78,0,1,0,3.52,0Z" fill="#ef4a60"/><path d="M219.44,21.87V18.4c0-.95-.48-1.23-1.19-1.23a2.06,2.06,0,0,0-1.57.82v3.88h-.83V16.56h.83v.77a2.58,2.58,0,0,1,1.9-.9,1.5,1.5,0,0,1,1.68,1.71v3.73Z" fill="#ef4a60"/><path d="M222.07,16.93l-.42-.35a1.65,1.65,0,0,0,.71-1l-.15,0a.53.53,0,0,1-.53-.56.6.6,0,0,1,.58-.59c.38,0,.7.3.7.84A2.14,2.14,0,0,1,222.07,16.93Z" fill="#ef4a60"/><path d="M224.54,20.76V17.29h-.88v-.73h.88V15.11h.83v1.45h1.08v.73h-1.08v3.29c0,.4.18.68.53.68a.75.75,0,0,0,.56-.23l.24.63a1.32,1.32,0,0,1-1,.34A1.08,1.08,0,0,1,224.54,20.76Z" fill="#ef4a60"/><circle cx="187.55" cy="17.55" r="7.55" fill="#ffbcc1"/><circle cx="187.55" cy="17.55" r="4.8" fill="#ef4a60"/><line x1="189.55" y1="15.55" x2="185.55" y2="19.55" fill="none" stroke="#fff" stroke-linecap="round" stroke-linejoin="round" stroke-width="0.75"/><line x1="189.55" y1="19.55" x2="185.55" y2="15.55" fill="none" stroke="#fff" stroke-linecap="round" stroke-linejoin="round" stroke-width="0.75"/><path d="M86.77,83.71,50.53,95.48A38.09,38.09,0,0,1,75,47.48a36,36,0,0,1,11.78-1.87Z" fill="#0072bb" stroke="#fff" stroke-linecap="round" stroke-linejoin="round" stroke-width="0.75"/><path d="M86.77,83.71v38.1A37.5,37.5,0,0,1,50.53,95.48Z" fill="#0072bb" stroke="#fff" stroke-linecap="round" stroke-linejoin="round" stroke-width="0.75"/><path d="M86.77,83.71V45.61a38.1,38.1,0,0,1,0,76.2h0Z" fill="#0072bb" stroke="#fff" stroke-linecap="round" stroke-linejoin="round" stroke-width="0.75"/><path d="M110.48,87.72V86.37H108v-.55l2.28-3.43h.91v3.39h.76v.59h-.76v1.35Zm0-4.72-1.87,2.78h1.87Z" fill="#fff"/><path d="M112.56,85.06c0-1.31.58-2.75,2-2.75s2,1.44,2,2.75-.58,2.75-2,2.75S112.56,86.35,112.56,85.06Zm3.4,0c0-1.07-.34-2.16-1.36-2.16s-1.36,1.09-1.36,2.16.34,2.16,1.36,2.16S116,86.12,116,85.06Z" fill="#fff"/><path d="M117.3,83.63a1.29,1.29,0,1,1,1.28,1.31A1.25,1.25,0,0,1,117.3,83.63Zm2.09,0a.81.81,0,1,0-1.61,0,.81.81,0,1,0,1.61,0Zm-1.32,4.09,3.41-5.33h.45l-3.42,5.33Zm2-1.22a1.29,1.29,0,1,1,2.57,0,1.29,1.29,0,1,1-2.57,0Zm2.09,0a.83.83,0,0,0-.8-.91.91.91,0,0,0,0,1.82A.83.83,0,0,0,122.17,86.5Z" fill="#fff"/><path d="M55.18,73.45l.39-.42a1.85,1.85,0,0,0,1.49.71c.77,0,1.25-.39,1.25-1s-.55-.95-1.33-.95h-.55v-.61H57c.67,0,1.24-.26,1.24-.88s-.55-.91-1.19-.91a1.81,1.81,0,0,0-1.41.65l-.37-.42a2.3,2.3,0,0,1,1.83-.82c1,0,1.8.52,1.8,1.42a1.29,1.29,0,0,1-1.14,1.24A1.34,1.34,0,0,1,59,72.79c0,.89-.72,1.54-1.9,1.54A2.25,2.25,0,0,1,55.18,73.45Z" fill="#fff"/><path d="M59.81,71.57c0-1.3.58-2.75,2-2.75s2,1.45,2,2.75-.58,2.76-2,2.76S59.81,72.87,59.81,71.57Zm3.4,0c0-1.06-.34-2.16-1.36-2.16s-1.36,1.1-1.36,2.16.34,2.17,1.36,2.17S63.21,72.63,63.21,71.57Z" fill="#fff"/><path d="M64.55,70.15a1.29,1.29,0,1,1,1.28,1.3A1.26,1.26,0,0,1,64.55,70.15Zm2.09,0a.81.81,0,1,0-1.61,0,.81.81,0,1,0,1.61,0Zm-1.32,4.08,3.41-5.33h.45l-3.42,5.33Zm2-1.21a1.29,1.29,0,1,1,1.29,1.31A1.26,1.26,0,0,1,67.33,73Zm2.09,0a.83.83,0,0,0-.8-.91.91.91,0,0,0,0,1.81A.82.82,0,0,0,69.42,73Z" fill="#fff"/><path d="M63.36,107.64v-.53c1.92-1.51,3-2.4,3-3.32a1,1,0,0,0-1.12-1,1.8,1.8,0,0,0-1.45.67l-.4-.42a2.25,2.25,0,0,1,1.85-.84A1.62,1.62,0,0,1,67,103.79c0,1.09-1.1,2.08-2.59,3.26H67v.59Z" fill="#fff"/><path d="M68,105c0-1.3.58-2.75,2-2.75s2,1.45,2,2.75-.58,2.76-2,2.76S68,106.27,68,105Zm3.4,0c0-1.06-.34-2.16-1.36-2.16s-1.36,1.1-1.36,2.16.35,2.17,1.36,2.17S71.44,106,71.44,105Z" fill="#fff"/><path d="M72.78,103.55a1.29,1.29,0,1,1,1.29,1.31A1.26,1.26,0,0,1,72.78,103.55Zm2.1,0a.81.81,0,1,0-.81.9A.83.83,0,0,0,74.88,103.55Zm-1.32,4.09,3.4-5.33h.45L74,107.64Zm2-1.21a1.29,1.29,0,1,1,1.29,1.31A1.26,1.26,0,0,1,75.56,106.43Zm2.1,0a.82.82,0,1,0-1.63,0,.82.82,0,1,0,1.63,0Z" fill="#fff"/><path d="M261.77,83.71,225.53,95.48a38.09,38.09,0,0,1,24.46-48,36,36,0,0,1,11.78-1.87Z" fill="#0072bb" stroke="#fff" stroke-linecap="round" stroke-linejoin="round" stroke-width="0.75"/><path d="M261.77,83.71v38.1a37.5,37.5,0,0,1-36.24-26.33Z" fill="#0072bb" stroke="#fff" stroke-linecap="round" stroke-linejoin="round" stroke-width="0.75"/><path d="M261.77,83.71V45.61a38.1,38.1,0,0,1,0,76.2h0Z" fill="#0072bb" stroke="#fff" stroke-linecap="round" stroke-linejoin="round" stroke-width="0.75"/><path d="M284.48,87.72V86.37H282v-.55l2.28-3.43h.91v3.39h.76v.59h-.76v1.35Zm0-4.72-1.87,2.78h1.87Z" fill="#fff"/><path d="M286.56,85.06c0-1.31.58-2.75,2-2.75s2,1.44,2,2.75-.58,2.75-2,2.75S286.56,86.35,286.56,85.06Zm3.4,0c0-1.07-.34-2.16-1.36-2.16s-1.36,1.09-1.36,2.16.34,2.16,1.36,2.16S290,86.12,290,85.06Z" fill="#fff"/><path d="M291.3,83.63a1.29,1.29,0,1,1,1.28,1.31A1.25,1.25,0,0,1,291.3,83.63Zm2.09,0a.81.81,0,1,0-1.61,0,.81.81,0,1,0,1.61,0Zm-1.32,4.09,3.41-5.33h.45l-3.42,5.33Zm2-1.22a1.29,1.29,0,1,1,2.57,0,1.29,1.29,0,1,1-2.57,0Zm2.09,0a.83.83,0,0,0-.8-.91.91.91,0,0,0,0,1.82A.83.83,0,0,0,296.17,86.5Z" fill="#fff"/><path d="M231.18,71.45l.39-.42a1.85,1.85,0,0,0,1.49.71c.77,0,1.25-.39,1.25-1s-.55-.95-1.33-.95h-.55v-.61H233c.67,0,1.24-.26,1.24-.88s-.55-.91-1.19-.91a1.81,1.81,0,0,0-1.41.65l-.37-.42a2.3,2.3,0,0,1,1.83-.82c1,0,1.8.52,1.8,1.42a1.29,1.29,0,0,1-1.14,1.24A1.34,1.34,0,0,1,235,70.79c0,.89-.72,1.54-1.9,1.54A2.25,2.25,0,0,1,231.18,71.45Z" fill="#fff"/><path d="M235.81,69.57c0-1.3.58-2.75,2-2.75s2,1.45,2,2.75-.58,2.76-2,2.76S235.81,70.87,235.81,69.57Zm3.4,0c0-1.06-.34-2.16-1.36-2.16s-1.36,1.1-1.36,2.16.34,2.17,1.36,2.17S239.21,70.63,239.21,69.57Z" fill="#fff"/><path d="M240.55,68.15a1.29,1.29,0,1,1,1.28,1.3A1.26,1.26,0,0,1,240.55,68.15Zm2.09,0a.81.81,0,1,0-1.61,0,.81.81,0,1,0,1.61,0Zm-1.32,4.08,3.41-5.33h.45l-3.42,5.33Zm2-1.21a1.29,1.29,0,1,1,1.29,1.31A1.26,1.26,0,0,1,243.33,71Zm2.09,0a.83.83,0,0,0-.8-.91.91.91,0,0,0,0,1.81A.82.82,0,0,0,245.42,71Z" fill="#fff"/><path d="M241.36,107.64v-4.46l-.86.91-.4-.41,1.34-1.37H242v5.33Z" fill="#fff"/><path d="M243.05,105c0-1.3.58-2.75,2-2.75s2,1.45,2,2.75-.58,2.76-2,2.76S243.05,106.27,243.05,105Zm3.4,0c0-1.06-.34-2.16-1.36-2.16s-1.36,1.1-1.36,2.16.35,2.17,1.36,2.17S246.45,106,246.45,105Z" fill="#fff"/><path d="M247.79,103.55a1.29,1.29,0,1,1,1.29,1.31A1.26,1.26,0,0,1,247.79,103.55Zm2.09,0a.81.81,0,1,0-.8.9A.83.83,0,0,0,249.88,103.55Zm-1.32,4.09,3.41-5.33h.45L249,107.64Zm2-1.21a1.29,1.29,0,1,1,1.29,1.31A1.26,1.26,0,0,1,250.57,106.43Zm2.1,0a.82.82,0,1,0-1.63,0,.82.82,0,1,0,1.63,0Z" fill="#fff"/><circle cx="87" cy="83" r="17" fill="#fff"/><circle cx="262" cy="83" r="17" fill="#fff"/></svg>