<svg xmlns="http://www.w3.org/2000/svg" width="10cm" height="10cm" viewBox="0 0 283.46 283.46"><rect x="0.5" y="0.5" width="282.47" height="282.47" fill="#fff"/><rect width="283.46" height="283.46" fill="#fff"/><path d="M283.46,283.46H0V0H283.46ZM1,282.47H282.47V1H1Z" fill="#e0cb21"/><rect x="28.35" y="28.35" width="45.35" height="45.35" fill="#e6e6e5"/><path d="M74.7,74.7H27.35V27.35H74.7Zm-45.35-2H72.7V29.35H29.35Z" fill="#fff"/><rect x="73.7" y="28.35" width="45.35" height="45.35" fill="#e6e6e5"/><path d="M120.06,74.7H72.7V27.35h47.36Zm-45.36-2h43.36V29.35H74.7Z" fill="#fff"/><rect x="119.06" y="28.35" width="45.35" height="45.35" fill="#e6e6e5"/><path d="M165.41,74.7H118.06V27.35h47.35Zm-45.35-2h43.35V29.35H120.06Z" fill="#fff"/><rect x="164.41" y="28.35" width="45.35" height="45.35" fill="#e6e6e5"/><path d="M210.76,74.7H163.41V27.35h47.35Zm-45.35-2h43.35V29.35H165.41Z" fill="#fff"/><rect x="209.76" y="28.35" width="45.35" height="45.35" fill="#e6e6e5"/><path d="M256.12,74.7H208.76V27.35h47.36Zm-45.36-2h43.36V29.35H210.76Z" fill="#fff"/><rect x="28.35" y="73.7" width="45.35" height="45.35" fill="#e6e6e5"/><path d="M74.7,120.06H27.35V72.7H74.7Zm-45.35-2H72.7V74.7H29.35Z" fill="#fff"/><rect x="73.7" y="73.7" width="45.35" height="45.35" fill="#e6e6e5"/><path d="M120.06,120.06H72.7V72.7h47.36Zm-45.36-2h43.36V74.7H74.7Z" fill="#fff"/><rect x="119.06" y="73.7" width="45.35" height="45.35" fill="#e6e6e5"/><path d="M165.41,120.06H118.06V72.7h47.35Zm-45.35-2h43.35V74.7H120.06Z" fill="#fff"/><rect x="164.41" y="73.7" width="45.35" height="45.35" fill="#e6e6e5"/><path d="M210.76,120.06H163.41V72.7h47.35Zm-45.35-2h43.35V74.7H165.41Z" fill="#fff"/><rect x="209.76" y="73.7" width="45.35" height="45.35" fill="#e6e6e5"/><path d="M256.12,120.06H208.76V72.7h47.36Zm-45.36-2h43.36V74.7H210.76Z" fill="#fff"/><rect x="28.35" y="119.06" width="45.35" height="45.35" fill="#e0cb21"/><path d="M74.7,165.41H27.35V118.06H74.7Zm-45.35-2H72.7V120.06H29.35Z" fill="#fff"/><rect x="73.7" y="119.06" width="45.35" height="45.35" fill="#e0cb21"/><path d="M120.06,165.41H72.7V118.06h47.36Zm-45.36-2h43.36V120.06H74.7Z" fill="#fff"/><rect x="119.06" y="119.06" width="45.35" height="45.35" fill="#e0cb21"/><path d="M165.41,165.41H118.06V118.06h47.35Zm-45.35-2h43.35V120.06H120.06Z" fill="#fff"/><rect x="164.41" y="119.06" width="45.35" height="45.35" fill="#e6e6e5"/><path d="M210.76,165.41H163.41V118.06h47.35Zm-45.35-2h43.35V120.06H165.41Z" fill="#fff"/><rect x="209.76" y="119.06" width="45.35" height="45.35" fill="#e6e6e5"/><path d="M256.12,165.41H208.76V118.06h47.36Zm-45.36-2h43.36V120.06H210.76Z" fill="#fff"/><rect x="28.35" y="164.41" width="45.35" height="45.35" fill="#e0cb21"/><path d="M74.7,210.76H27.35V163.41H74.7Zm-45.35-2H72.7V165.41H29.35Z" fill="#fff"/><rect x="73.7" y="164.41" width="45.35" height="45.35" fill="#e0cb21"/><path d="M120.06,210.76H72.7V163.41h47.36Zm-45.36-2h43.36V165.41H74.7Z" fill="#fff"/><rect x="119.06" y="164.41" width="45.35" height="45.35" fill="#e0cb21"/><path d="M165.41,210.76H118.06V163.41h47.35Zm-45.35-2h43.35V165.41H120.06Z" fill="#fff"/><rect x="164.41" y="164.41" width="45.35" height="45.35" fill="#e0cb21"/><path d="M210.76,210.76H163.41V163.41h47.35Zm-45.35-2h43.35V165.41H165.41Z" fill="#fff"/><rect x="209.76" y="164.41" width="45.35" height="45.35" fill="#e0cb21"/><path d="M256.12,210.76H208.76V163.41h47.36Zm-45.36-2h43.36V165.41H210.76Z" fill="#fff"/><rect x="28.35" y="209.76" width="45.35" height="45.35" fill="#e0cb21"/><path d="M74.7,256.12H27.35V208.76H74.7Zm-45.35-2H72.7V210.76H29.35Z" fill="#fff"/><rect x="73.7" y="209.76" width="45.35" height="45.35" fill="#e0cb21"/><path d="M120.06,256.12H72.7V208.76h47.36Zm-45.36-2h43.36V210.76H74.7Z" fill="#fff"/><rect x="119.06" y="209.76" width="45.35" height="45.35" fill="#e0cb21"/><path d="M165.41,256.12H118.06V208.76h47.35Zm-45.35-2h43.35V210.76H120.06Z" fill="#fff"/><rect x="164.41" y="209.76" width="45.35" height="45.35" fill="#e0cb21"/><path d="M210.76,256.12H163.41V208.76h47.35Zm-45.35-2h43.35V210.76H165.41Z" fill="#fff"/><rect x="209.76" y="209.76" width="45.35" height="45.35" fill="#e0cb21"/><path d="M256.12,256.12H208.76V208.76h47.36Zm-45.36-2h43.36V210.76H210.76Z" fill="#fff"/></svg>