<svg xmlns="http://www.w3.org/2000/svg" width="350" height="148" viewBox="0 0 350 148"><rect width="350" height="148" fill="#f1f2f2"/><path d="M31.92,21.87V14.54h2.5a3.56,3.56,0,0,1,3.76,3.67,3.54,3.54,0,0,1-3.76,3.66Zm5.32-3.66a2.69,2.69,0,0,0-2.82-2.86H32.83v5.71h1.59A2.7,2.7,0,0,0,37.24,18.21Z" fill="#0072bc"/><path d="M39.26,19.21a2.63,2.63,0,1,1,5.26,0,2.63,2.63,0,1,1-5.26,0Zm4.39,0a1.78,1.78,0,1,0-3.52,0,1.78,1.78,0,1,0,3.52,0Z" fill="#0072bc"/><circle cx="17.55" cy="17.55" r="7.55" fill="#9dc5ff"/><circle cx="17.55" cy="17.55" r="4.8" fill="#0072bc"/><polyline points="14.8 17.55 16.63 19.38 20.29 15.72" fill="none" stroke="#fff" stroke-linecap="round" stroke-linejoin="round" stroke-width="0.75"/><path d="M201.92,21.87V14.54h2.5a3.56,3.56,0,0,1,3.76,3.67,3.54,3.54,0,0,1-3.76,3.66Zm5.32-3.66a2.69,2.69,0,0,0-2.82-2.86h-1.59v5.71h1.59A2.7,2.7,0,0,0,207.24,18.21Z" fill="#ef4a60"/><path d="M209.26,19.21a2.63,2.63,0,1,1,5.26,0,2.63,2.63,0,1,1-5.26,0Zm4.39,0a1.78,1.78,0,1,0-3.52,0,1.78,1.78,0,1,0,3.52,0Z" fill="#ef4a60"/><path d="M219.44,21.87V18.4c0-.95-.48-1.23-1.19-1.23a2.06,2.06,0,0,0-1.57.82v3.88h-.83V16.56h.83v.77a2.58,2.58,0,0,1,1.9-.9,1.5,1.5,0,0,1,1.68,1.71v3.73Z" fill="#ef4a60"/><path d="M222.07,16.93l-.42-.35a1.65,1.65,0,0,0,.71-1l-.15,0a.53.53,0,0,1-.53-.56.6.6,0,0,1,.58-.59c.38,0,.7.3.7.84A2.14,2.14,0,0,1,222.07,16.93Z" fill="#ef4a60"/><path d="M224.54,20.76V17.29h-.88v-.73h.88V15.11h.83v1.45h1.08v.73h-1.08v3.29c0,.4.18.68.53.68a.75.75,0,0,0,.56-.23l.24.63a1.32,1.32,0,0,1-1,.34A1.08,1.08,0,0,1,224.54,20.76Z" fill="#ef4a60"/><circle cx="187.55" cy="17.55" r="7.55" fill="#ffbcc1"/><circle cx="187.55" cy="17.55" r="4.8" fill="#ef4a60"/><line x1="189.55" y1="15.55" x2="185.55" y2="19.55" fill="none" stroke="#fff" stroke-linecap="round" stroke-linejoin="round" stroke-width="0.75"/><line x1="189.55" y1="19.55" x2="185.55" y2="15.55" fill="none" stroke="#fff" stroke-linecap="round" stroke-linejoin="round" stroke-width="0.75"/><rect x="56.67" y="41.69" width="17.84" height="17.84" fill="#c6c6c6"/><path d="M74.91,59.92H56.28V41.29H74.91Zm-17.84-.79H74.12V42.08H57.07Z" fill="#fff"/><rect x="74.51" y="41.69" width="17.84" height="17.84" fill="#c6c6c6"/><path d="M92.75,59.92H74.12V41.29H92.75Zm-17.84-.79H92V42.08h-17Z" fill="#fff"/><rect x="92.36" y="41.69" width="17.84" height="17.84" fill="#c6c6c6"/><path d="M110.59,59.92H92V41.29h18.63Zm-17.84-.79h17.06V42.08H92.75Z" fill="#fff"/><rect x="110.2" y="41.69" width="17.84" height="17.84" fill="#c6c6c6"/><path d="M128.44,59.92H109.81V41.29h18.63Zm-17.85-.79h17.06V42.08H110.59Z" fill="#fff"/><rect x="128.04" y="41.69" width="17.84" height="17.84" fill="#c6c6c6"/><path d="M146.28,59.92H127.65V41.29h18.63Zm-17.84-.79h17.05V42.08H128.44Z" fill="#fff"/><rect x="56.67" y="59.53" width="17.84" height="17.84" fill="#c6c6c6"/><path d="M74.91,77.76H56.28V59.13H74.91ZM57.07,77H74.12V59.92H57.07Z" fill="#fff"/><rect x="74.51" y="59.53" width="17.84" height="17.84" fill="#c6c6c6"/><path d="M92.75,77.76H74.12V59.13H92.75ZM74.91,77H92V59.92h-17Z" fill="#fff"/><rect x="92.36" y="59.53" width="17.84" height="17.84" fill="#c6c6c6"/><path d="M110.59,77.76H92V59.13h18.63ZM92.75,77h17.06V59.92H92.75Z" fill="#fff"/><rect x="110.2" y="59.53" width="17.84" height="17.84" fill="#c6c6c6"/><path d="M128.44,77.76H109.81V59.13h18.63ZM110.59,77h17.06V59.92H110.59Z" fill="#fff"/><rect x="128.04" y="59.53" width="17.84" height="17.84" fill="#c6c6c6"/><path d="M146.28,77.76H127.65V59.13h18.63ZM128.44,77h17.05V59.92H128.44Z" fill="#fff"/><rect x="56.67" y="77.37" width="17.84" height="17.84" fill="#0072bc"/><path d="M74.91,95.61H56.28V77H74.91Zm-17.84-.79H74.12V77.76H57.07Z" fill="#fff"/><rect x="74.51" y="77.37" width="17.84" height="17.84" fill="#0072bc"/><path d="M92.75,95.61H74.12V77H92.75Zm-17.84-.79H92V77.76h-17Z" fill="#fff"/><rect x="92.36" y="77.37" width="17.84" height="17.84" fill="#0072bc"/><path d="M110.59,95.61H92V77h18.63Zm-17.84-.79h17.06V77.76H92.75Z" fill="#fff"/><rect x="110.2" y="77.37" width="17.84" height="17.84" fill="#c6c6c6"/><path d="M128.44,95.61H109.81V77h18.63Zm-17.85-.79h17.06V77.76H110.59Z" fill="#fff"/><rect x="128.04" y="77.37" width="17.84" height="17.84" fill="#c6c6c6"/><path d="M146.28,95.61H127.65V77h18.63Zm-17.84-.79h17.05V77.76H128.44Z" fill="#fff"/><rect x="56.67" y="95.21" width="17.84" height="17.84" fill="#0072bc"/><path d="M74.91,113.45H56.28V94.82H74.91Zm-17.84-.79H74.12v-17H57.07Z" fill="#fff"/><rect x="74.51" y="95.21" width="17.84" height="17.84" fill="#0072bc"/><path d="M92.75,113.45H74.12V94.82H92.75Zm-17.84-.79H92v-17h-17Z" fill="#fff"/><rect x="92.36" y="95.21" width="17.84" height="17.84" fill="#0072bc"/><path d="M110.59,113.45H92V94.82h18.63Zm-17.84-.79h17.06v-17H92.75Z" fill="#fff"/><rect x="110.2" y="95.21" width="17.84" height="17.84" fill="#0072bc"/><path d="M128.44,113.45H109.81V94.82h18.63Zm-17.85-.79h17.06v-17H110.59Z" fill="#fff"/><rect x="128.04" y="95.21" width="17.84" height="17.84" fill="#0072bc"/><path d="M146.28,113.45H127.65V94.82h18.63Zm-17.84-.79h17.05v-17H128.44Z" fill="#fff"/><rect x="56.67" y="113.06" width="17.84" height="17.84" fill="#0072bc"/><path d="M74.91,131.29H56.28V112.66H74.91Zm-17.84-.78H74.12V113.45H57.07Z" fill="#fff"/><rect x="74.51" y="113.06" width="17.84" height="17.84" fill="#0072bc"/><path d="M92.75,131.29H74.12V112.66H92.75Zm-17.84-.78H92V113.45h-17Z" fill="#fff"/><rect x="92.36" y="113.06" width="17.84" height="17.84" fill="#0072bc"/><path d="M110.59,131.29H92V112.66h18.63Zm-17.84-.78h17.06V113.45H92.75Z" fill="#fff"/><rect x="110.2" y="113.06" width="17.84" height="17.84" fill="#0072bc"/><path d="M128.44,131.29H109.81V112.66h18.63Zm-17.85-.78h17.06V113.45H110.59Z" fill="#fff"/><rect x="128.04" y="113.06" width="17.84" height="17.84" fill="#0072bc"/><path d="M146.28,131.29H127.65V112.66h18.63Zm-17.84-.78h17.05V113.45H128.44Z" fill="#fff"/><path d="M41.32,102.91V97.57h2.37a1.35,1.35,0,0,1,1.5,1.36,1.23,1.23,0,0,1-.94,1.23,1.32,1.32,0,0,1,1,1.31,1.39,1.39,0,0,1-1.54,1.44ZM44.5,99a.84.84,0,0,0-.92-.86H42v1.71h1.6A.82.82,0,0,0,44.5,99Zm.1,2.37a.9.9,0,0,0-1-.92H42v1.83h1.64A.87.87,0,0,0,44.6,101.4Z" fill="#5e5e5e"/><path d="M36.1,111.75l.4-.45A1.79,1.79,0,0,0,38,112a1.16,1.16,0,0,0,1.23-1.14A1.12,1.12,0,0,0,38,109.72a1.72,1.72,0,0,0-1.23.49l-.49-.17v-2.87h3.27v.59h-2.6v1.86a1.79,1.79,0,0,1,1.25-.48,1.63,1.63,0,0,1,1.7,1.7A1.76,1.76,0,0,1,38,112.6,2.2,2.2,0,0,1,36.1,111.75Z" fill="#5e5e5e"/><path d="M40.72,112.51V112c1.92-1.5,3-2.39,3-3.31a1,1,0,0,0-1.12-1,1.79,1.79,0,0,0-1.45.68l-.41-.43a2.31,2.31,0,0,1,1.86-.84,1.62,1.62,0,0,1,1.79,1.57c0,1.09-1.11,2.08-2.59,3.25h2.61v.6Z" fill="#5e5e5e"/><path d="M45.24,108.42a1.29,1.29,0,1,1,2.58,0,1.29,1.29,0,1,1-2.58,0Zm2.1,0a.81.81,0,1,0-.81.9A.84.84,0,0,0,47.34,108.42ZM46,112.51l3.4-5.34h.45l-3.41,5.34Zm2-1.22a1.29,1.29,0,1,1,2.57,0,1.29,1.29,0,1,1-2.57,0Zm2.1,0a.82.82,0,1,0-1.62,0,.81.81,0,1,0,1.62,0Z" fill="#5e5e5e"/><path d="M43,56.91l-.47-1.2H39.88l-.47,1.2h-.76l2.15-5.34h.82l2.15,5.34Zm-1.8-4.66-1.13,2.88h2.26Z" fill="#5e5e5e"/><path d="M36.51,66.51V65.15H34V64.6l2.28-3.43h.92v3.4h.75v.58h-.75v1.36Zm0-4.72-1.87,2.78h1.87Z" fill="#5e5e5e"/><path d="M38.6,65.15a1.58,1.58,0,0,1,1.27-1.39,1.42,1.42,0,0,1-1.18-1.28c0-1,.93-1.39,1.82-1.39s1.83.43,1.83,1.39a1.42,1.42,0,0,1-1.19,1.28,1.57,1.57,0,0,1,1.27,1.39c0,.91-.86,1.45-1.91,1.45S38.6,66.07,38.6,65.15Zm3.15-.07c0-.69-.91-1-1.24-1s-1.24.34-1.24,1,.58.93,1.24.93S41.75,65.66,41.75,65.08Zm-.08-2.52c0-.55-.52-.88-1.16-.88s-1.15.33-1.15.88.83.87,1.15.92S41.67,63.21,41.67,62.56Z" fill="#5e5e5e"/><path d="M43.09,62.42a1.29,1.29,0,1,1,2.57,0,1.29,1.29,0,1,1-2.57,0Zm2.09,0a.83.83,0,0,0-.8-.92.92.92,0,0,0,0,1.82A.83.83,0,0,0,45.18,62.42Zm-1.31,4.09,3.4-5.34h.45L44.3,66.51Zm2-1.22a1.29,1.29,0,1,1,2.57,0,1.29,1.29,0,1,1-2.57,0Zm2.1,0a.82.82,0,1,0-.81.9A.83.83,0,0,0,48,65.29Z" fill="#5e5e5e"/><line x1="51.21" y1="60" x2="57.21" y2="60" fill="none" stroke="#919191" stroke-miterlimit="10" stroke-width="0.5"/><line x1="51.21" y1="104" x2="57.21" y2="104" fill="none" stroke="#919191" stroke-miterlimit="10" stroke-width="0.5"/><rect x="226.43" y="41.69" width="17.84" height="17.84" fill="#c6c6c6"/><path d="M244.66,59.92H226V41.29h18.63Zm-17.84-.79h17.06V42.08H226.82Z" fill="#fff"/><rect x="244.27" y="41.69" width="17.84" height="17.84" fill="#c6c6c6"/><path d="M262.51,59.92H243.88V41.29h18.63Zm-17.85-.79h17.06V42.08H244.66Z" fill="#fff"/><rect x="262.11" y="41.69" width="17.84" height="17.84" fill="#c6c6c6"/><path d="M280.35,59.92H261.72V41.29h18.63Zm-17.84-.79h17.05V42.08H262.51Z" fill="#fff"/><rect x="279.96" y="41.69" width="17.84" height="17.84" fill="#c6c6c6"/><path d="M298.19,59.92H279.56V41.29h18.63Zm-17.84-.79h17.06V42.08H280.35Z" fill="#fff"/><rect x="297.8" y="41.69" width="17.84" height="17.84" fill="#c6c6c6"/><path d="M316,59.92H297.41V41.29H316Zm-17.84-.79h17.06V42.08H298.19Z" fill="#fff"/><rect x="226.43" y="59.53" width="17.84" height="17.84" fill="#c6c6c6"/><path d="M244.66,77.76H226V59.13h18.63ZM226.82,77h17.06V59.92H226.82Z" fill="#fff"/><rect x="244.27" y="59.53" width="17.84" height="17.84" fill="#c6c6c6"/><path d="M262.51,77.76H243.88V59.13h18.63ZM244.66,77h17.06V59.92H244.66Z" fill="#fff"/><rect x="262.11" y="59.53" width="17.84" height="17.84" fill="#c6c6c6"/><path d="M280.35,77.76H261.72V59.13h18.63ZM262.51,77h17.05V59.92H262.51Z" fill="#fff"/><rect x="279.96" y="59.53" width="17.84" height="17.84" fill="#c6c6c6"/><path d="M298.19,77.76H279.56V59.13h18.63ZM280.35,77h17.06V59.92H280.35Z" fill="#fff"/><rect x="297.8" y="59.53" width="17.84" height="17.84" fill="#c6c6c6"/><path d="M316,77.76H297.41V59.13H316ZM298.19,77h17.06V59.92H298.19Z" fill="#fff"/><rect x="226.43" y="77.37" width="17.84" height="17.84" fill="#0072bc"/><path d="M244.66,95.61H226V77h18.63Zm-17.84-.79h17.06V77.76H226.82Z" fill="#fff"/><rect x="244.27" y="77.37" width="17.84" height="17.84" fill="#0072bc"/><path d="M262.51,95.61H243.88V77h18.63Zm-17.85-.79h17.06V77.76H244.66Z" fill="#fff"/><rect x="262.11" y="77.37" width="17.84" height="17.84" fill="#0072bc"/><path d="M280.35,95.61H261.72V77h18.63Zm-17.84-.79h17.05V77.76H262.51Z" fill="#fff"/><rect x="279.96" y="77.37" width="17.84" height="17.84" fill="#c6c6c6"/><path d="M298.19,95.61H279.56V77h18.63Zm-17.84-.79h17.06V77.76H280.35Z" fill="#fff"/><rect x="297.8" y="77.37" width="17.84" height="17.84" fill="#c6c6c6"/><path d="M316,95.61H297.41V77H316Zm-17.84-.79h17.06V77.76H298.19Z" fill="#fff"/><rect x="226.43" y="95.21" width="17.84" height="17.84" fill="#0072bc"/><path d="M244.66,113.45H226V94.82h18.63Zm-17.84-.79h17.06v-17H226.82Z" fill="#fff"/><rect x="244.27" y="95.21" width="17.84" height="17.84" fill="#0072bc"/><path d="M262.51,113.45H243.88V94.82h18.63Zm-17.85-.79h17.06v-17H244.66Z" fill="#fff"/><rect x="262.11" y="95.21" width="17.84" height="17.84" fill="#0072bc"/><path d="M280.35,113.45H261.72V94.82h18.63Zm-17.84-.79h17.05v-17H262.51Z" fill="#fff"/><rect x="279.96" y="95.21" width="17.84" height="17.84" fill="#0072bc"/><path d="M298.19,113.45H279.56V94.82h18.63Zm-17.84-.79h17.06v-17H280.35Z" fill="#fff"/><rect x="297.8" y="95.21" width="17.84" height="17.84" fill="#0072bc"/><path d="M316,113.45H297.41V94.82H316Zm-17.84-.79h17.06v-17H298.19Z" fill="#fff"/><rect x="226.43" y="113.06" width="17.84" height="17.84" fill="#0072bc"/><path d="M244.66,131.29H226V112.66h18.63Zm-17.84-.78h17.06V113.45H226.82Z" fill="#fff"/><rect x="244.27" y="113.06" width="17.84" height="17.84" fill="#0072bc"/><path d="M262.51,131.29H243.88V112.66h18.63Zm-17.85-.78h17.06V113.45H244.66Z" fill="#fff"/><rect x="262.11" y="113.06" width="17.84" height="17.84" fill="#0072bc"/><path d="M280.35,131.29H261.72V112.66h18.63Zm-17.84-.78h17.05V113.45H262.51Z" fill="#fff"/><rect x="279.96" y="113.06" width="17.84" height="17.84" fill="#0072bc"/><path d="M298.19,131.29H279.56V112.66h18.63Zm-17.84-.78h17.06V113.45H280.35Z" fill="#fff"/><rect x="297.8" y="113.06" width="17.84" height="17.84" fill="#0072bc"/><path d="M316,131.29H297.41V112.66H316Zm-17.84-.78h17.06V113.45H298.19Z" fill="#fff"/><path d="M204.49,106.15l.41-.45a1.76,1.76,0,0,0,1.47.71,1.14,1.14,0,0,0,1.23-1.14,1.12,1.12,0,0,0-1.22-1.15,1.72,1.72,0,0,0-1.23.49l-.49-.17v-2.87h3.26v.6h-2.6V104a1.83,1.83,0,0,1,1.25-.48,1.63,1.63,0,0,1,1.7,1.7,1.76,1.76,0,0,1-1.9,1.76A2.21,2.21,0,0,1,204.49,106.15Z" fill="#5e5e5e"/><path d="M209.12,106.91v-.54c1.92-1.5,3-2.39,3-3.31a1,1,0,0,0-1.12-1,1.77,1.77,0,0,0-1.44.68l-.41-.43a2.29,2.29,0,0,1,1.85-.84,1.63,1.63,0,0,1,1.8,1.57c0,1.09-1.11,2.08-2.6,3.25h2.62v.6Z" fill="#5e5e5e"/><path d="M213.64,102.82a1.29,1.29,0,1,1,1.28,1.3A1.24,1.24,0,0,1,213.64,102.82Zm2.09,0a.81.81,0,1,0-.81.9A.84.84,0,0,0,215.73,102.82Zm-1.32,4.09,3.41-5.34h.45l-3.42,5.34Zm2-1.22a1.29,1.29,0,1,1,2.57,0,1.29,1.29,0,1,1-2.57,0Zm2.09,0a.83.83,0,0,0-.8-.91.91.91,0,0,0,0,1.81A.82.82,0,0,0,218.51,105.69Z" fill="#5e5e5e"/><path d="M206.76,62.91V61.55h-2.54V61l2.29-3.43h.91V61h.75v.58h-.75v1.36Zm0-4.72L204.88,61h1.88Z" fill="#5e5e5e"/><path d="M208.84,61.55a1.58,1.58,0,0,1,1.28-1.39,1.42,1.42,0,0,1-1.19-1.28c0-1,.94-1.39,1.83-1.39s1.83.43,1.83,1.39a1.43,1.43,0,0,1-1.19,1.28,1.58,1.58,0,0,1,1.27,1.39c0,.91-.87,1.45-1.91,1.45S208.84,62.47,208.84,61.55Zm3.16-.07c0-.69-.92-1-1.24-1s-1.24.34-1.24,1,.57.93,1.24.93S212,62.06,212,61.48ZM211.92,59c0-.55-.52-.88-1.16-.88s-1.16.33-1.16.88.84.87,1.16.92S211.92,59.61,211.92,59Z" fill="#5e5e5e"/><path d="M213.33,58.82a1.29,1.29,0,1,1,2.58,0,1.29,1.29,0,1,1-2.58,0Zm2.1,0a.81.81,0,1,0-.81.9A.84.84,0,0,0,215.43,58.82Zm-1.32,4.09,3.4-5.34H218l-3.41,5.34Zm2-1.22A1.28,1.28,0,1,1,217.4,63,1.26,1.26,0,0,1,216.12,61.69Zm2.09,0a.81.81,0,1,0-.81.9A.83.83,0,0,0,218.21,61.69Z" fill="#5e5e5e"/><line x1="220.96" y1="60" x2="226.96" y2="60" fill="none" stroke="#919191" stroke-miterlimit="10" stroke-width="0.5"/><line x1="220.96" y1="104" x2="226.96" y2="104" fill="none" stroke="#919191" stroke-miterlimit="10" stroke-width="0.5"/><path d="M240.43,33.44l-.41-1h-2.33l-.41,1h-.67l1.89-4.67h.72l1.88,4.67Zm-1.57-4.07-1,2.52h2Z" fill="#5e5e5e"/><rect x="226.96" y="29" width="8" height="5" fill="#0072bb"/><path d="M258.2,33.44V28.77h2.08A1.18,1.18,0,0,1,261.59,30a1.08,1.08,0,0,1-.82,1.08,1.15,1.15,0,0,1,.91,1.14,1.22,1.22,0,0,1-1.35,1.26ZM261,30.05a.74.74,0,0,0-.81-.76h-1.4V30.8h1.4A.73.73,0,0,0,261,30.05Zm.09,2.07a.79.79,0,0,0-.86-.8h-1.44v1.61h1.44A.77.77,0,0,0,261.08,32.12Z" fill="#5e5e5e"/><rect x="247.96" y="29" width="8" height="5" fill="#c6c6c6"/></svg>