<svg xmlns="http://www.w3.org/2000/svg" width="350" height="148" viewBox="0 0 350 148"><rect width="350" height="148" fill="#f1f2f2"/><path d="M31.92,21.87V14.54h2.5a3.56,3.56,0,0,1,3.76,3.67,3.54,3.54,0,0,1-3.76,3.66Zm5.32-3.66a2.69,2.69,0,0,0-2.82-2.86H32.83v5.71h1.59A2.7,2.7,0,0,0,37.24,18.21Z" fill="#0072bc"/><path d="M39.26,19.21a2.63,2.63,0,1,1,5.26,0,2.63,2.63,0,1,1-5.26,0Zm4.39,0a1.78,1.78,0,1,0-3.52,0,1.78,1.78,0,1,0,3.52,0Z" fill="#0072bc"/><circle cx="17.55" cy="17.55" r="7.55" fill="#9dc5ff"/><circle cx="17.55" cy="17.55" r="4.8" fill="#0072bc"/><polyline points="14.8 17.55 16.63 19.38 20.29 15.72" fill="none" stroke="#fff" stroke-linecap="round" stroke-linejoin="round" stroke-width="0.75"/><path d="M201.92,21.87V14.54h2.5a3.56,3.56,0,0,1,3.76,3.67,3.54,3.54,0,0,1-3.76,3.66Zm5.32-3.66a2.69,2.69,0,0,0-2.82-2.86h-1.59v5.71h1.59A2.7,2.7,0,0,0,207.24,18.21Z" fill="#ef4a60"/><path d="M209.26,19.21a2.63,2.63,0,1,1,5.26,0,2.63,2.63,0,1,1-5.26,0Zm4.39,0a1.78,1.78,0,1,0-3.52,0,1.78,1.78,0,1,0,3.52,0Z" fill="#ef4a60"/><path d="M219.44,21.87V18.4c0-.95-.48-1.23-1.19-1.23a2.06,2.06,0,0,0-1.57.82v3.88h-.83V16.56h.83v.77a2.58,2.58,0,0,1,1.9-.9,1.5,1.5,0,0,1,1.68,1.71v3.73Z" fill="#ef4a60"/><path d="M222.07,16.93l-.42-.35a1.65,1.65,0,0,0,.71-1l-.15,0a.53.53,0,0,1-.53-.56.6.6,0,0,1,.58-.59c.38,0,.7.3.7.84A2.14,2.14,0,0,1,222.07,16.93Z" fill="#ef4a60"/><path d="M224.54,20.76V17.29h-.88v-.73h.88V15.11h.83v1.45h1.08v.73h-1.08v3.29c0,.4.18.68.53.68a.75.75,0,0,0,.56-.23l.24.63a1.32,1.32,0,0,1-1,.34A1.08,1.08,0,0,1,224.54,20.76Z" fill="#ef4a60"/><circle cx="187.55" cy="17.55" r="7.55" fill="#ffbcc1"/><circle cx="187.55" cy="17.55" r="4.8" fill="#ef4a60"/><line x1="189.55" y1="15.55" x2="185.55" y2="19.55" fill="none" stroke="#fff" stroke-linecap="round" stroke-linejoin="round" stroke-width="0.75"/><line x1="189.55" y1="19.55" x2="185.55" y2="15.55" fill="none" stroke="#fff" stroke-linecap="round" stroke-linejoin="round" stroke-width="0.75"/><rect x="47.5" y="45.63" width="42.5" height="51.66" fill="#0072bc" stroke="#fff" stroke-miterlimit="10"/><rect x="47.5" y="97.28" width="42.5" height="33.16" fill="#0072bc" stroke="#fff" stroke-miterlimit="10"/><polygon points="90 45.63 90 75.4 90 88.03 132.5 88.03 132.5 75.4 132.5 45.63 90 45.63" fill="#0072bc" stroke="#fff" stroke-miterlimit="10"/><rect x="90" y="88.04" width="14.11" height="42.41" fill="#0072bc" stroke="#fff" stroke-miterlimit="10"/><rect x="104.11" y="88.04" width="28.22" height="14.05" fill="#0072bc" stroke="#fff" stroke-miterlimit="10"/><rect x="104.19" y="102.09" width="14.11" height="28.35" fill="#0072bc" stroke="#fff" stroke-miterlimit="10"/><polygon points="118.22 102.09 118.22 119.72 118.22 130.63 132.33 130.63 132.33 119.72 132.33 102.09 118.22 102.09" fill="#0072bc" stroke="#fff" stroke-miterlimit="10"/><rect x="217.38" y="45.63" width="42.5" height="51.66" fill="#0072bc" stroke="#fff" stroke-miterlimit="10"/><rect x="217.38" y="45.63" width="42.5" height="51.66" fill="#0072bc" stroke="#fff" stroke-miterlimit="10"/><rect x="217.38" y="97.28" width="42.5" height="33.16" fill="#0072bc" stroke="#fff" stroke-miterlimit="10"/><polygon points="259.88 45.63 259.88 75.4 259.88 88.03 302.38 88.03 302.38 75.4 302.38 45.63 259.88 45.63" fill="#0072bc" stroke="#fff" stroke-miterlimit="10"/><rect x="259.88" y="88.04" width="14.11" height="42.41" fill="#0072bc" stroke="#fff" stroke-miterlimit="10"/><rect x="273.99" y="88.04" width="28.22" height="14.05" fill="#0072bc" stroke="#fff" stroke-miterlimit="10"/><rect x="274.07" y="102.09" width="14.11" height="28.35" fill="#0072bc" stroke="#fff" stroke-miterlimit="10"/><polygon points="288.1 102.09 288.1 119.72 288.1 130.63 302.21 130.63 302.21 119.72 302.21 102.09 288.1 102.09" fill="#0072bc" stroke="#fff" stroke-miterlimit="10"/><polygon points="231.54 45.63 217.38 45.63 217.38 71.45 231.54 71.45 245.71 71.45 245.71 45.63 231.54 45.63" fill="#0072bc" stroke="#fff" stroke-miterlimit="10" stroke-width="0.25"/><rect x="245.71" y="45.63" width="14.17" height="25.83" fill="#0072bc" stroke="#fff" stroke-miterlimit="10" stroke-width="0.25"/><rect x="217.38" y="71.45" width="21.25" height="25.83" fill="#0072bc" stroke="#fff" stroke-miterlimit="10" stroke-width="0.25"/><polygon points="249.62 71.45 249.62 80.06 249.62 91 259.88 91 259.88 80.06 259.88 71.45 249.62 71.45" fill="#0072bc" stroke="#fff" stroke-miterlimit="10" stroke-width="0.25"/><rect x="249.62" y="91" width="10.25" height="6.28" fill="#0072bc" stroke="#fff" stroke-miterlimit="10" stroke-width="0.25"/><polygon points="238.62 71.45 238.62 81.73 238.62 92 252.62 92 252.62 81.73 252.62 71.45 238.62 71.45" fill="#0072bc" stroke="#fff" stroke-miterlimit="10" stroke-width="0.25"/><rect x="238.62" y="88.67" width="14" height="8.61" fill="#0072bc" stroke="#fff" stroke-miterlimit="10" stroke-width="0.25"/><polygon points="271 45.63 260.38 45.63 260.38 73 271 73 281.62 73 281.62 45.63 271 45.63" fill="#0072bc" stroke="#fff" stroke-miterlimit="10" stroke-width="0.25"/><rect x="281.62" y="45.63" width="21" height="21.37" fill="#0072bc" stroke="#fff" stroke-miterlimit="10" stroke-width="0.25"/><rect x="260.38" y="73" width="21.25" height="15" fill="#0072bc" stroke="#fff" stroke-miterlimit="10" stroke-width="0.25"/><polygon points="295.62 76 295.62 79.02 295.62 82.85 302.62 82.85 302.62 79.02 302.62 76 295.62 76" fill="#0072bc" stroke="#fff" stroke-miterlimit="10" stroke-width="0.25"/><rect x="295.62" y="82.85" width="7" height="5.15" fill="#0072bc" stroke="#fff" stroke-miterlimit="10" stroke-width="0.25"/><polygon points="281.62 67 281.62 71.5 281.62 76 302.62 76 302.62 71.5 302.62 67 281.62 67" fill="#0072bc" stroke="#fff" stroke-miterlimit="10" stroke-width="0.25"/><rect x="281.62" y="76" width="14" height="12" fill="#0072bc" stroke="#fff" stroke-miterlimit="10" stroke-width="0.25"/><rect x="273.99" y="88.04" width="14.11" height="13.96" fill="#0072bc" stroke="#fff" stroke-miterlimit="10" stroke-width="0.25"/><rect x="288.1" y="88.04" width="14.11" height="7.03" fill="#0072bc" stroke="#fff" stroke-miterlimit="10" stroke-width="0.25"/><rect x="288.1" y="95.06" width="14.11" height="7.03" fill="#0072bc" stroke="#fff" stroke-miterlimit="10" stroke-width="0.25"/><rect x="217.38" y="97.28" width="23.25" height="17.72" fill="#0072bc" stroke="#fff" stroke-miterlimit="10" stroke-width="0.25"/><rect x="240.62" y="97.28" width="19.25" height="20.72" fill="#0072bc" stroke="#fff" stroke-miterlimit="10" stroke-width="0.25"/><rect x="217.38" y="115" width="23.25" height="15" fill="#0072bc" stroke="#fff" stroke-miterlimit="10" stroke-width="0.25"/><rect x="240.62" y="118" width="10" height="12" fill="#0072bc" stroke="#fff" stroke-miterlimit="10" stroke-width="0.25"/><rect x="250.62" y="118" width="9.25" height="12" fill="#0072bc" stroke="#fff" stroke-miterlimit="10" stroke-width="0.25"/><line x1="260.12" y1="45.5" x2="260.12" y2="130.5" fill="none" stroke="#fff" stroke-miterlimit="10"/><line x1="217.62" y1="97" x2="259.62" y2="97" fill="none" stroke="#fff" stroke-miterlimit="10"/><line x1="260.12" y1="88.5" x2="302.12" y2="88.5" fill="none" stroke="#fff" stroke-miterlimit="10"/><line x1="274.12" y1="130.5" x2="274.12" y2="88.5" fill="none" stroke="#fff" stroke-miterlimit="10"/><line x1="274.12" y1="102.5" x2="302.12" y2="102.5" fill="none" stroke="#fff" stroke-miterlimit="10"/></svg>