<svg xmlns="http://www.w3.org/2000/svg" width="350" height="148" viewBox="0 0 350 148"><rect width="350" height="148" fill="#f1f2f2"/><path d="M31.92,21.87V14.54h2.5a3.56,3.56,0,0,1,3.76,3.67,3.54,3.54,0,0,1-3.76,3.66Zm5.32-3.66a2.69,2.69,0,0,0-2.82-2.86H32.83v5.71h1.59A2.7,2.7,0,0,0,37.24,18.21Z" fill="#0072bc"/><path d="M39.26,19.21a2.63,2.63,0,1,1,5.26,0,2.63,2.63,0,1,1-5.26,0Zm4.39,0a1.78,1.78,0,1,0-3.52,0,1.78,1.78,0,1,0,3.52,0Z" fill="#0072bc"/><circle cx="17.55" cy="17.55" r="7.55" fill="#9dc5ff"/><circle cx="17.55" cy="17.55" r="4.8" fill="#0072bc"/><polyline points="14.8 17.55 16.63 19.38 20.29 15.72" fill="none" stroke="#fff" stroke-linecap="round" stroke-linejoin="round" stroke-width="0.75"/><path d="M201.92,21.87V14.54h2.5a3.56,3.56,0,0,1,3.76,3.67,3.54,3.54,0,0,1-3.76,3.66Zm5.32-3.66a2.69,2.69,0,0,0-2.82-2.86h-1.59v5.71h1.59A2.7,2.7,0,0,0,207.24,18.21Z" fill="#ef4a60"/><path d="M209.26,19.21a2.63,2.63,0,1,1,5.26,0,2.63,2.63,0,1,1-5.26,0Zm4.39,0a1.78,1.78,0,1,0-3.52,0,1.78,1.78,0,1,0,3.52,0Z" fill="#ef4a60"/><path d="M219.44,21.87V18.4c0-.95-.48-1.23-1.19-1.23a2.06,2.06,0,0,0-1.57.82v3.88h-.83V16.56h.83v.77a2.58,2.58,0,0,1,1.9-.9,1.5,1.5,0,0,1,1.68,1.71v3.73Z" fill="#ef4a60"/><path d="M222.07,16.93l-.42-.35a1.65,1.65,0,0,0,.71-1l-.15,0a.53.53,0,0,1-.53-.56.6.6,0,0,1,.58-.59c.38,0,.7.3.7.84A2.14,2.14,0,0,1,222.07,16.93Z" fill="#ef4a60"/><path d="M224.54,20.76V17.29h-.88v-.73h.88V15.11h.83v1.45h1.08v.73h-1.08v3.29c0,.4.18.68.53.68a.75.75,0,0,0,.56-.23l.24.63a1.32,1.32,0,0,1-1,.34A1.08,1.08,0,0,1,224.54,20.76Z" fill="#ef4a60"/><circle cx="187.55" cy="17.55" r="7.55" fill="#ffbcc1"/><circle cx="187.55" cy="17.55" r="4.8" fill="#ef4a60"/><line x1="189.55" y1="15.55" x2="185.55" y2="19.55" fill="none" stroke="#fff" stroke-linecap="round" stroke-linejoin="round" stroke-width="0.75"/><line x1="189.55" y1="19.55" x2="185.55" y2="15.55" fill="none" stroke="#fff" stroke-linecap="round" stroke-linejoin="round" stroke-width="0.75"/><rect x="47.5" y="45.63" width="42.5" height="51.66" fill="#0072bc" stroke="#fff" stroke-miterlimit="10"/><rect x="47.5" y="97.28" width="42.5" height="33.16" fill="#0072bc" stroke="#fff" stroke-miterlimit="10"/><polygon points="90 45.63 90 75.4 90 88.03 132.5 88.03 132.5 75.4 132.5 45.63 90 45.63" fill="#0072bc" stroke="#fff" stroke-miterlimit="10"/><rect x="90" y="88.04" width="14.11" height="42.41" fill="#0072bc" stroke="#fff" stroke-miterlimit="10"/><rect x="104.11" y="88.04" width="28.22" height="14.05" fill="#0072bc" stroke="#fff" stroke-miterlimit="10"/><rect x="104.19" y="102.09" width="14.11" height="28.35" fill="#0072bc" stroke="#fff" stroke-miterlimit="10"/><polygon points="118.22 102.09 118.22 119.72 118.22 130.63 132.33 130.63 132.33 119.72 132.33 102.09 118.22 102.09" fill="#0072bc" stroke="#fff" stroke-miterlimit="10"/><path d="M70.53,70.91l-.41-1H67.79l-.41,1h-.66l1.88-4.68h.72l1.88,4.68ZM69,66.83l-1,2.52h2Z" fill="#fff"/><path d="M62.51,78.62l.34-.36a1.62,1.62,0,0,0,1.3.61c.68,0,1.09-.34,1.09-.87s-.47-.83-1.16-.83H63.6v-.53h.48c.59,0,1.09-.23,1.09-.77s-.48-.8-1-.8a1.58,1.58,0,0,0-1.23.57l-.32-.36a2,2,0,0,1,1.6-.72c.9,0,1.58.45,1.58,1.23a1.13,1.13,0,0,1-1,1.09,1.19,1.19,0,0,1,1.08,1.16c0,.77-.64,1.34-1.66,1.34A2,2,0,0,1,62.51,78.62Z" fill="#fff"/><path d="M66.56,77c0-1.14.5-2.4,1.78-2.4s1.79,1.26,1.79,2.4-.51,2.42-1.79,2.42S66.56,78.11,66.56,77Zm3,0c0-.93-.31-1.89-1.2-1.89S67.15,76,67.15,77s.31,1.9,1.19,1.9S69.54,77.91,69.54,77Z" fill="#fff"/><path d="M70.7,75.73a1.13,1.13,0,1,1,1.13,1.14A1.1,1.1,0,0,1,70.7,75.73Zm1.84,0a.72.72,0,1,0-1.42,0,.71.71,0,1,0,1.42,0Zm-1.16,3.58,3-4.68h.39l-3,4.68Zm1.76-1.07a1.13,1.13,0,1,1,1.13,1.15A1.1,1.1,0,0,1,73.14,78.24Zm1.83,0a.73.73,0,0,0-.7-.8.74.74,0,0,0-.72.8.73.73,0,0,0,.72.79A.72.72,0,0,0,75,78.24Z" fill="#fff"/><path d="M109.3,70.91V66.23h2.08a1.18,1.18,0,0,1,1.31,1.2,1.06,1.06,0,0,1-.82,1.07,1.15,1.15,0,0,1,.91,1.15,1.22,1.22,0,0,1-1.35,1.26Zm2.79-3.4a.74.74,0,0,0-.81-.76h-1.4v1.51h1.4A.73.73,0,0,0,112.09,67.51Zm.09,2.07a.79.79,0,0,0-.86-.8h-1.44v1.61h1.44A.77.77,0,0,0,112.18,69.58Z" fill="#fff"/><path d="M104.57,79.31v-.47c1.68-1.32,2.6-2.1,2.6-2.9a.88.88,0,0,0-1-.86,1.56,1.56,0,0,0-1.27.59l-.36-.37a2,2,0,0,1,1.63-.73,1.42,1.42,0,0,1,1.57,1.37c0,1-1,1.82-2.27,2.85h2.29v.52Z" fill="#fff"/><path d="M108.67,77c0-1.14.5-2.4,1.78-2.4s1.79,1.26,1.79,2.4-.51,2.42-1.79,2.42S108.67,78.11,108.67,77Zm3,0c0-.93-.3-1.89-1.19-1.89s-1.19,1-1.19,1.89.3,1.9,1.19,1.9S111.64,77.91,111.64,77Z" fill="#fff"/><path d="M112.81,75.73a1.13,1.13,0,1,1,1.13,1.14A1.1,1.1,0,0,1,112.81,75.73Zm1.84,0a.72.72,0,1,0-1.42,0,.71.71,0,1,0,1.42,0Zm-1.16,3.58,3-4.68h.4l-3,4.68Zm1.76-1.07a1.13,1.13,0,1,1,1.13,1.15A1.1,1.1,0,0,1,115.25,78.24Zm1.83,0a.73.73,0,0,0-.7-.8.74.74,0,0,0-.72.8.73.73,0,0,0,.72.79A.72.72,0,0,0,117.08,78.24Z" fill="#fff"/><path d="M67,113.57a2.33,2.33,0,0,1,2.4-2.41,2.07,2.07,0,0,1,1.77.92l-.48.28a1.58,1.58,0,0,0-1.29-.68,1.9,1.9,0,0,0,0,3.79,1.61,1.61,0,0,0,1.29-.68l.49.27a2.09,2.09,0,0,1-1.78.93A2.33,2.33,0,0,1,67,113.57Z" fill="#fff"/><path d="M62.57,124.31v-.47c1.68-1.32,2.6-2.1,2.6-2.9a.88.88,0,0,0-1-.86,1.56,1.56,0,0,0-1.27.59l-.36-.37a2,2,0,0,1,1.63-.73,1.42,1.42,0,0,1,1.57,1.37c0,1-1,1.82-2.27,2.85h2.29v.52Z" fill="#fff"/><path d="M66.67,122c0-1.14.5-2.4,1.78-2.4s1.79,1.26,1.79,2.4-.51,2.42-1.79,2.42S66.67,123.11,66.67,122Zm3,0c0-.93-.3-1.89-1.19-1.89s-1.19,1-1.19,1.89.3,1.9,1.19,1.9S69.64,122.91,69.64,122Z" fill="#fff"/><path d="M70.81,120.73a1.13,1.13,0,1,1,1.13,1.14A1.1,1.1,0,0,1,70.81,120.73Zm1.84,0a.72.72,0,1,0-1.42,0,.71.71,0,1,0,1.42,0Zm-1.16,3.58,3-4.68h.4l-3,4.68Zm1.76-1.07a1.13,1.13,0,1,1,1.13,1.15A1.1,1.1,0,0,1,73.25,123.24Zm1.83,0a.73.73,0,0,0-.7-.8.74.74,0,0,0-.72.8.73.73,0,0,0,.72.79A.72.72,0,0,0,75.08,123.24Z" fill="#fff"/><path d="M95.05,110.91v-4.68h1.6a2.34,2.34,0,1,1,0,4.68Zm3.39-2.34a1.71,1.71,0,0,0-1.79-1.82h-1v3.64h1A1.72,1.72,0,0,0,98.44,108.57Z" fill="#fff"/><path d="M92.68,117c0-1.26.59-2.4,1.91-2.4a1.63,1.63,0,0,1,1.29.55l-.3.44a1.19,1.19,0,0,0-1-.48c-.91,0-1.32.92-1.32,1.84v.18a1.68,1.68,0,0,1,1.32-.73,1.41,1.41,0,0,1,1.53,1.49,1.54,1.54,0,0,1-1.63,1.53C93.18,119.39,92.68,118.25,92.68,117Zm2.85.91a1,1,0,0,0-1.07-1,1.41,1.41,0,0,0-1.17.69c0,.58.36,1.3,1.17,1.3A1,1,0,0,0,95.53,117.88Z" fill="#fff"/><path d="M96.68,115.73a1.13,1.13,0,1,1,1.13,1.14A1.1,1.1,0,0,1,96.68,115.73Zm1.83,0a.71.71,0,1,0-1.41,0,.72.72,0,0,0,.71.78A.72.72,0,0,0,98.51,115.73Zm-1.15,3.58,3-4.68h.39l-3,4.68Zm1.76-1.07a1.12,1.12,0,1,1,1.12,1.15A1.1,1.1,0,0,1,99.12,118.24Zm1.83,0a.72.72,0,1,0-1.42,0,.71.71,0,1,0,1.42,0Z" fill="#fff"/><path d="M112.09,96.91V92.23h3.06v.52h-2.48v1.51h2.43v.52h-2.43v1.61h2.48v.52Z" fill="#fff"/><path d="M119.78,96.91V95.72h-2.22v-.48l2-3h.79v3H121v.51h-.66v1.19Zm0-4.14-1.64,2.44h1.64Z" fill="#fff"/><path d="M121.46,93.33a1.13,1.13,0,1,1,1.13,1.14A1.1,1.1,0,0,1,121.46,93.33Zm1.84,0a.72.72,0,1,0-1.42,0,.71.71,0,1,0,1.42,0Zm-1.16,3.58,3-4.68h.4l-3,4.68Zm1.76-1.07A1.13,1.13,0,1,1,125,97,1.1,1.1,0,0,1,123.9,95.84Zm1.83,0a.73.73,0,0,0-.7-.8.74.74,0,0,0-.72.8.73.73,0,0,0,.72.79A.72.72,0,0,0,125.73,95.84Z" fill="#fff"/><path d="M110.57,114.91v-4.68h3.06v.52h-2.48v1.51h2.43v.52h-2.43v2.13Z" fill="#fff"/><path d="M107.79,122.64l.36-.39a1.53,1.53,0,0,0,1.29.62,1,1,0,0,0,1.08-1,1,1,0,0,0-1.08-1,1.49,1.49,0,0,0-1.07.44l-.43-.15v-2.52h2.86v.52h-2.28v1.63a1.56,1.56,0,0,1,1.09-.42,1.42,1.42,0,0,1,1.49,1.49,1.54,1.54,0,0,1-1.66,1.54A1.92,1.92,0,0,1,107.79,122.64Z" fill="#fff"/><path d="M111.68,119.73a1.13,1.13,0,1,1,1.12,1.14A1.1,1.1,0,0,1,111.68,119.73Zm1.83,0a.71.71,0,1,0-1.41,0,.71.71,0,1,0,1.41,0Zm-1.16,3.58,3-4.68h.39l-3,4.68Zm1.76-1.07a1.11,1.11,0,0,1,1.13-1.15,1.15,1.15,0,0,1,0,2.3A1.11,1.11,0,0,1,114.11,122.24Zm1.84,0a.72.72,0,1,0-1.42,0,.71.71,0,1,0,1.42,0Z" fill="#fff"/><path d="M123.82,112.57a2.33,2.33,0,0,1,2.4-2.41A2.2,2.2,0,0,1,128,111l-.46.29a1.7,1.7,0,0,0-1.35-.64,1.9,1.9,0,0,0,0,3.79,1.84,1.84,0,0,0,1.26-.5v-1h-1.61v-.52h2.18v1.68a2.41,2.41,0,0,1-1.83.82A2.35,2.35,0,0,1,123.82,112.57Z" fill="#fff"/><path d="M121.79,122.64l.36-.39a1.53,1.53,0,0,0,1.29.62,1,1,0,0,0,1.08-1,1,1,0,0,0-1.08-1,1.49,1.49,0,0,0-1.07.44l-.43-.15v-2.52h2.86v.52h-2.28v1.63a1.56,1.56,0,0,1,1.09-.42,1.42,1.42,0,0,1,1.49,1.49,1.54,1.54,0,0,1-1.66,1.54A1.92,1.92,0,0,1,121.79,122.64Z" fill="#fff"/><path d="M125.68,119.73a1.13,1.13,0,1,1,1.12,1.14A1.1,1.1,0,0,1,125.68,119.73Zm1.83,0a.71.71,0,1,0-1.41,0,.71.71,0,1,0,1.41,0Zm-1.16,3.58,3-4.68h.39l-3,4.68Zm1.76-1.07a1.11,1.11,0,0,1,1.13-1.15,1.15,1.15,0,0,1,0,2.3A1.11,1.11,0,0,1,128.11,122.24Zm1.84,0a.72.72,0,1,0-1.42,0,.71.71,0,1,0,1.42,0Z" fill="#fff"/><path d="M207.76,38.44l-.42-1H205l-.42,1h-.66l1.88-4.67h.72l1.88,4.67Zm-1.58-4.07-1,2.52h2Z" fill="#5e5e5e"/><rect x="194.29" y="34" width="8" height="5" fill="#18375f"/><path d="M223.52,38.44V33.77h2.08A1.17,1.17,0,0,1,226.91,35a1.08,1.08,0,0,1-.82,1.08,1.15,1.15,0,0,1,.91,1.14,1.21,1.21,0,0,1-1.35,1.26Zm2.79-3.39a.74.74,0,0,0-.8-.76h-1.4V35.8h1.4A.72.72,0,0,0,226.31,35.05Zm.09,2.07a.78.78,0,0,0-.86-.8h-1.43v1.61h1.43A.77.77,0,0,0,226.4,37.12Z" fill="#5e5e5e"/><rect x="213.29" y="34" width="8" height="5" fill="#0072bc"/><path d="M242.17,36.11a2.34,2.34,0,0,1,2.4-2.41,2.07,2.07,0,0,1,1.77.92l-.48.27a1.58,1.58,0,0,0-1.29-.68,1.9,1.9,0,0,0,0,3.8,1.61,1.61,0,0,0,1.29-.68l.49.27a2.09,2.09,0,0,1-1.78.93A2.34,2.34,0,0,1,242.17,36.11Z" fill="#5e5e5e"/><rect x="232.29" y="34" width="8" height="5" fill="#9dc5ff"/><path d="M261.27,38.44V33.77h1.6a2.34,2.34,0,1,1,0,4.67Zm3.4-2.33a1.71,1.71,0,0,0-1.8-1.82h-1v3.64h1A1.73,1.73,0,0,0,264.67,36.11Z" fill="#5e5e5e"/><rect x="251.29" y="34" width="8" height="5" fill="#00b398"/><path d="M281.77,38.44V33.77h3.06v.52h-2.48V35.8h2.43v.52h-2.43v1.61h2.48v.51Z" fill="#5e5e5e"/><rect x="271.32" y="34" width="8" height="5" fill="#919191"/><path d="M301.83,38.44V33.77h3.06v.52h-2.48V35.8h2.43v.52h-2.43v2.12Z" fill="#5e5e5e"/><rect x="291.32" y="34" width="8" height="5" fill="#ef4a60"/><path d="M321.08,36.11a2.33,2.33,0,0,1,2.4-2.41,2.22,2.22,0,0,1,1.81.86l-.46.3a1.71,1.71,0,0,0-1.35-.65,1.9,1.9,0,0,0,0,3.8,1.88,1.88,0,0,0,1.26-.5v-.95h-1.61V36h2.18v1.68a2.41,2.41,0,0,1-1.83.82A2.35,2.35,0,0,1,321.08,36.11Z" fill="#5e5e5e"/><rect x="311.32" y="34" width="8" height="5" fill="#e1cc0d"/><rect x="214.82" y="45.63" width="42.5" height="51.66" fill="#18375f" stroke="#fff" stroke-miterlimit="10"/><rect x="214.82" y="97.28" width="42.5" height="33.16" fill="#9dc5ff" stroke="#fff" stroke-miterlimit="10"/><polygon points="257.32 45.63 257.32 75.4 257.32 88.03 299.82 88.03 299.82 75.4 299.82 45.63 257.32 45.63" fill="#0072bc" stroke="#fff" stroke-miterlimit="10"/><rect x="257.32" y="88.04" width="14.11" height="42.41" fill="#00b398" stroke="#fff" stroke-miterlimit="10"/><rect x="271.44" y="88.04" width="28.22" height="14.05" fill="#919191" stroke="#fff" stroke-miterlimit="10"/><rect x="271.52" y="102.09" width="14.11" height="28.35" fill="#ef4a60" stroke="#fff" stroke-miterlimit="10"/><polygon points="285.55 102.09 285.55 119.72 285.55 130.63 299.66 130.63 299.66 119.72 299.66 102.09 285.55 102.09" fill="#e1cc0d" stroke="#fff" stroke-miterlimit="10"/><path d="M229.83,74.22l.34-.36a1.65,1.65,0,0,0,1.31.61c.68,0,1.09-.34,1.09-.87s-.48-.83-1.16-.83h-.49v-.53h.49c.58,0,1.08-.23,1.08-.77s-.47-.8-1-.8a1.58,1.58,0,0,0-1.23.57l-.33-.36a2,2,0,0,1,1.61-.72c.89,0,1.57.45,1.57,1.23a1.12,1.12,0,0,1-1,1.09,1.19,1.19,0,0,1,1.08,1.16c0,.77-.63,1.34-1.66,1.34A2,2,0,0,1,229.83,74.22Z" fill="#fff"/><path d="M233.88,72.57c0-1.14.51-2.4,1.79-2.4s1.79,1.26,1.79,2.4S236.94,75,235.67,75,233.88,73.71,233.88,72.57Zm3,0c0-.93-.3-1.89-1.19-1.89s-1.19,1-1.19,1.89.3,1.9,1.19,1.9S236.86,73.51,236.86,72.57Z" fill="#fff"/><path d="M238,71.33a1.13,1.13,0,1,1,1.13,1.14A1.1,1.1,0,0,1,238,71.33Zm1.83,0a.71.71,0,1,0-1.41,0,.72.72,0,0,0,.71.78A.72.72,0,0,0,239.86,71.33Zm-1.15,3.58,3-4.68h.39l-3,4.68Zm1.75-1.07a1.11,1.11,0,0,1,1.13-1.15,1.15,1.15,0,0,1,0,2.3A1.11,1.11,0,0,1,240.46,73.84Zm1.84,0a.72.72,0,1,0-1.42,0,.71.71,0,1,0,1.42,0Z" fill="#fff"/><path d="M272.9,71.91v-.47c1.68-1.32,2.6-2.1,2.6-2.9a.89.89,0,0,0-1-.86,1.54,1.54,0,0,0-1.26.59l-.36-.37a2,2,0,0,1,1.62-.73,1.42,1.42,0,0,1,1.57,1.37c0,.95-1,1.82-2.27,2.85h2.29v.52Z" fill="#fff"/><path d="M277,69.57c0-1.14.51-2.4,1.79-2.4s1.78,1.26,1.78,2.4S280.05,72,278.78,72,277,70.71,277,69.57Zm3,0c0-.93-.3-1.89-1.19-1.89s-1.19,1-1.19,1.89.3,1.9,1.19,1.9S280,70.51,280,69.57Z" fill="#fff"/><path d="M281.14,68.33a1.13,1.13,0,1,1,1.12,1.14A1.1,1.1,0,0,1,281.14,68.33Zm1.83,0a.71.71,0,1,0-1.41,0,.71.71,0,1,0,1.41,0Zm-1.16,3.58,3-4.68h.39l-3,4.68Zm1.76-1.07a1.11,1.11,0,0,1,1.13-1.15,1.15,1.15,0,0,1,0,2.3A1.11,1.11,0,0,1,283.57,70.84Zm1.84,0a.72.72,0,1,0-1.42,0,.71.71,0,1,0,1.42,0Z" fill="#fff"/><path d="M229.9,115.91v-.47c1.68-1.32,2.6-2.1,2.6-2.9a.89.89,0,0,0-1-.86,1.54,1.54,0,0,0-1.26.59l-.36-.37a2,2,0,0,1,1.62-.73,1.42,1.42,0,0,1,1.57,1.37c0,.95-1,1.82-2.27,2.85h2.29v.52Z" fill="#fff"/><path d="M234,113.57c0-1.14.51-2.4,1.79-2.4s1.78,1.26,1.78,2.4-.51,2.42-1.78,2.42S234,114.71,234,113.57Zm3,0c0-.93-.3-1.89-1.19-1.89s-1.19,1-1.19,1.89.3,1.9,1.19,1.9S237,114.51,237,113.57Z" fill="#fff"/><path d="M238.14,112.33a1.13,1.13,0,1,1,1.12,1.14A1.1,1.1,0,0,1,238.14,112.33Zm1.83,0a.71.71,0,1,0-1.41,0,.71.71,0,1,0,1.41,0Zm-1.16,3.58,3-4.68h.39l-3,4.68Zm1.76-1.07a1.11,1.11,0,0,1,1.13-1.15,1.15,1.15,0,0,1,0,2.3A1.11,1.11,0,0,1,240.57,114.84Zm1.84,0a.72.72,0,1,0-1.42,0,.71.71,0,1,0,1.42,0Z" fill="#fff"/><path d="M260,108.57c0-1.26.59-2.4,1.9-2.4a1.61,1.61,0,0,1,1.29.55l-.29.44a1.2,1.2,0,0,0-1-.48c-.91,0-1.31.92-1.31,1.84v.18a1.68,1.68,0,0,1,1.32-.73,1.42,1.42,0,0,1,1.53,1.49,1.54,1.54,0,0,1-1.64,1.53C260.5,111,260,109.85,260,108.57Zm2.85.91a1,1,0,0,0-1.07-1,1.41,1.41,0,0,0-1.17.69c.05.58.35,1.3,1.17,1.3A1,1,0,0,0,262.86,109.48Z" fill="#fff"/><path d="M264,107.33a1.13,1.13,0,1,1,1.13,1.14A1.11,1.11,0,0,1,264,107.33Zm1.84,0a.72.72,0,1,0-1.42,0,.71.71,0,1,0,1.42,0Zm-1.16,3.58,3-4.68h.39l-3,4.68Zm1.76-1.07a1.13,1.13,0,1,1,1.13,1.15A1.1,1.1,0,0,1,266.44,109.84Zm1.84,0a.72.72,0,1,0-.71.79A.73.73,0,0,0,268.28,109.84Z" fill="#fff"/><path d="M284.21,97.91V96.72H282v-.48l2-3h.8v3h.66v.51h-.66v1.19Zm0-4.14-1.64,2.44h1.64Z" fill="#fff"/><path d="M285.89,94.33A1.13,1.13,0,1,1,287,95.47,1.1,1.1,0,0,1,285.89,94.33Zm1.83,0a.71.71,0,1,0-1.41,0,.72.72,0,0,0,.71.78A.72.72,0,0,0,287.72,94.33Zm-1.15,3.58,3-4.68h.39l-3,4.68Zm1.76-1.07A1.12,1.12,0,1,1,289.45,98,1.1,1.1,0,0,1,288.33,96.84Zm1.83,0a.72.72,0,1,0-1.42,0,.71.71,0,1,0,1.42,0Z" fill="#fff"/><path d="M275.12,119.24l.35-.39a1.53,1.53,0,0,0,1.29.62,1,1,0,0,0,1.08-1,1,1,0,0,0-1.07-1,1.47,1.47,0,0,0-1.08.44l-.43-.15v-2.52h2.86v.52h-2.28v1.63a1.6,1.6,0,0,1,1.1-.42,1.43,1.43,0,0,1,1.49,1.49,1.54,1.54,0,0,1-1.67,1.54A1.92,1.92,0,0,1,275.12,119.24Z" fill="#fff"/><path d="M279,116.33a1.13,1.13,0,1,1,1.13,1.14A1.1,1.1,0,0,1,279,116.33Zm1.84,0a.72.72,0,1,0-1.42,0,.71.71,0,1,0,1.42,0Zm-1.16,3.58,3-4.68h.4l-3,4.68Zm1.76-1.07a1.13,1.13,0,1,1,1.13,1.15A1.1,1.1,0,0,1,281.44,118.84Zm1.83,0a.73.73,0,0,0-.7-.8.74.74,0,0,0-.72.8.73.73,0,0,0,.72.79A.72.72,0,0,0,283.27,118.84Z" fill="#fff"/><path d="M289.12,119.24l.35-.39a1.53,1.53,0,0,0,1.29.62,1,1,0,0,0,1.08-1,1,1,0,0,0-1.07-1,1.47,1.47,0,0,0-1.08.44l-.43-.15v-2.52h2.86v.52h-2.28v1.63a1.6,1.6,0,0,1,1.1-.42,1.43,1.43,0,0,1,1.49,1.49,1.54,1.54,0,0,1-1.67,1.54A1.92,1.92,0,0,1,289.12,119.24Z" fill="#fff"/><path d="M293,116.33a1.13,1.13,0,1,1,1.13,1.14A1.1,1.1,0,0,1,293,116.33Zm1.84,0a.72.72,0,1,0-1.42,0,.71.71,0,1,0,1.42,0Zm-1.16,3.58,3-4.68h.4l-3,4.68Zm1.76-1.07a1.13,1.13,0,1,1,1.13,1.15A1.1,1.1,0,0,1,295.44,118.84Zm1.83,0a.73.73,0,0,0-.7-.8.74.74,0,0,0-.72.8.73.73,0,0,0,.72.79A.72.72,0,0,0,297.27,118.84Z" fill="#fff"/></svg>