<svg xmlns="http://www.w3.org/2000/svg" width="350" height="148" viewBox="0 0 350 148"><rect width="350" height="148" fill="#f1f2f2"/><path d="M31.92,21.87V14.54h2.5a3.56,3.56,0,0,1,3.76,3.67,3.54,3.54,0,0,1-3.76,3.66Zm5.32-3.66a2.69,2.69,0,0,0-2.82-2.86H32.83v5.71h1.59A2.7,2.7,0,0,0,37.24,18.21Z" fill="#0072bc"/><path d="M39.26,19.21a2.63,2.63,0,1,1,5.26,0,2.63,2.63,0,1,1-5.26,0Zm4.39,0a1.78,1.78,0,1,0-3.52,0,1.78,1.78,0,1,0,3.52,0Z" fill="#0072bc"/><circle cx="17.55" cy="17.55" r="7.55" fill="#9dc5ff"/><circle cx="17.55" cy="17.55" r="4.8" fill="#0072bc"/><polyline points="14.8 17.55 16.63 19.38 20.29 15.72" fill="none" stroke="#fff" stroke-linecap="round" stroke-linejoin="round" stroke-width="0.75"/><path d="M201.92,21.87V14.54h2.5a3.56,3.56,0,0,1,3.76,3.67,3.54,3.54,0,0,1-3.76,3.66Zm5.32-3.66a2.69,2.69,0,0,0-2.82-2.86h-1.59v5.71h1.59A2.7,2.7,0,0,0,207.24,18.21Z" fill="#ef4a60"/><path d="M209.26,19.21a2.63,2.63,0,1,1,5.26,0,2.63,2.63,0,1,1-5.26,0Zm4.39,0a1.78,1.78,0,1,0-3.52,0,1.78,1.78,0,1,0,3.52,0Z" fill="#ef4a60"/><path d="M219.44,21.87V18.4c0-.95-.48-1.23-1.19-1.23a2.06,2.06,0,0,0-1.57.82v3.88h-.83V16.56h.83v.77a2.58,2.58,0,0,1,1.9-.9,1.5,1.5,0,0,1,1.68,1.71v3.73Z" fill="#ef4a60"/><path d="M222.07,16.93l-.42-.35a1.65,1.65,0,0,0,.71-1l-.15,0a.53.53,0,0,1-.53-.56.6.6,0,0,1,.58-.59c.38,0,.7.3.7.84A2.14,2.14,0,0,1,222.07,16.93Z" fill="#ef4a60"/><path d="M224.54,20.76V17.29h-.88v-.73h.88V15.11h.83v1.45h1.08v.73h-1.08v3.29c0,.4.18.68.53.68a.75.75,0,0,0,.56-.23l.24.63a1.32,1.32,0,0,1-1,.34A1.08,1.08,0,0,1,224.54,20.76Z" fill="#ef4a60"/><circle cx="187.55" cy="17.55" r="7.55" fill="#ffbcc1"/><circle cx="187.55" cy="17.55" r="4.8" fill="#ef4a60"/><line x1="189.55" y1="15.55" x2="185.55" y2="19.55" fill="none" stroke="#fff" stroke-linecap="round" stroke-linejoin="round" stroke-width="0.75"/><line x1="189.55" y1="19.55" x2="185.55" y2="15.55" fill="none" stroke="#fff" stroke-linecap="round" stroke-linejoin="round" stroke-width="0.75"/><rect x="47.5" y="45.63" width="42.5" height="51.66" fill="#0072bc" stroke="#fff" stroke-miterlimit="10"/><rect x="47.5" y="97.28" width="42.5" height="33.16" fill="#0072bc" stroke="#fff" stroke-miterlimit="10"/><polygon points="90 45.63 90 75.4 90 88.03 132.5 88.03 132.5 75.4 132.5 45.63 90 45.63" fill="#0072bc" stroke="#fff" stroke-miterlimit="10"/><rect x="90" y="88.04" width="14.11" height="42.41" fill="#0072bc" stroke="#fff" stroke-miterlimit="10"/><rect x="104.11" y="88.04" width="28.22" height="14.05" fill="#0072bc" stroke="#fff" stroke-miterlimit="10"/><rect x="104.19" y="102.09" width="14.11" height="28.35" fill="#0072bc" stroke="#fff" stroke-miterlimit="10"/><polygon points="118.22 102.09 118.22 119.72 118.22 130.63 132.33 130.63 132.33 119.72 132.33 102.09 118.22 102.09" fill="#0072bc" stroke="#fff" stroke-miterlimit="10"/><path d="M62.51,74.22l.34-.36a1.62,1.62,0,0,0,1.3.61c.68,0,1.09-.34,1.09-.87s-.47-.83-1.16-.83H63.6v-.53h.48c.59,0,1.09-.23,1.09-.77s-.48-.8-1-.8a1.58,1.58,0,0,0-1.23.57l-.32-.36a2,2,0,0,1,1.6-.72c.9,0,1.58.45,1.58,1.23a1.13,1.13,0,0,1-1,1.09,1.19,1.19,0,0,1,1.08,1.16c0,.77-.64,1.34-1.66,1.34A2,2,0,0,1,62.51,74.22Z" fill="#fff"/><path d="M66.56,72.57c0-1.14.5-2.4,1.78-2.4s1.79,1.26,1.79,2.4S69.62,75,68.34,75,66.56,73.71,66.56,72.57Zm3,0c0-.93-.31-1.89-1.2-1.89s-1.19,1-1.19,1.89.31,1.9,1.19,1.9S69.54,73.51,69.54,72.57Z" fill="#fff"/><path d="M70.7,71.33a1.13,1.13,0,1,1,1.13,1.14A1.1,1.1,0,0,1,70.7,71.33Zm1.84,0a.72.72,0,1,0-1.42,0,.71.71,0,1,0,1.42,0Zm-1.16,3.58,3-4.68h.39l-3,4.68Zm1.76-1.07A1.13,1.13,0,1,1,74.27,75,1.1,1.1,0,0,1,73.14,73.84Zm1.83,0a.73.73,0,0,0-.7-.8.74.74,0,0,0-.72.8.73.73,0,0,0,.72.79A.72.72,0,0,0,75,73.84Z" fill="#fff"/><path d="M104.57,70.91v-.47c1.68-1.32,2.6-2.1,2.6-2.9a.88.88,0,0,0-1-.86,1.56,1.56,0,0,0-1.27.59l-.36-.37a2,2,0,0,1,1.63-.73,1.42,1.42,0,0,1,1.57,1.37c0,.95-1,1.82-2.27,2.85h2.29v.52Z" fill="#fff"/><path d="M108.67,68.57c0-1.14.5-2.4,1.78-2.4s1.79,1.26,1.79,2.4S111.73,71,110.45,71,108.67,69.71,108.67,68.57Zm3,0c0-.93-.3-1.89-1.19-1.89s-1.19,1-1.19,1.89.3,1.9,1.19,1.9S111.64,69.51,111.64,68.57Z" fill="#fff"/><path d="M112.81,67.33a1.13,1.13,0,1,1,1.13,1.14A1.1,1.1,0,0,1,112.81,67.33Zm1.84,0a.72.72,0,1,0-1.42,0,.71.71,0,1,0,1.42,0Zm-1.16,3.58,3-4.68h.4l-3,4.68Zm1.76-1.07A1.13,1.13,0,1,1,116.38,71,1.1,1.1,0,0,1,115.25,69.84Zm1.83,0a.73.73,0,0,0-.7-.8.74.74,0,0,0-.72.8.73.73,0,0,0,.72.79A.72.72,0,0,0,117.08,69.84Z" fill="#fff"/><path d="M62.57,115.91v-.47c1.68-1.32,2.6-2.1,2.6-2.9a.88.88,0,0,0-1-.86,1.56,1.56,0,0,0-1.27.59l-.36-.37a2,2,0,0,1,1.63-.73,1.42,1.42,0,0,1,1.57,1.37c0,.95-1,1.82-2.27,2.85h2.29v.52Z" fill="#fff"/><path d="M66.67,113.57c0-1.14.5-2.4,1.78-2.4s1.79,1.26,1.79,2.4S69.73,116,68.45,116,66.67,114.71,66.67,113.57Zm3,0c0-.93-.3-1.89-1.19-1.89s-1.19,1-1.19,1.89.3,1.9,1.19,1.9S69.64,114.51,69.64,113.57Z" fill="#fff"/><path d="M70.81,112.33a1.13,1.13,0,1,1,1.13,1.14A1.1,1.1,0,0,1,70.81,112.33Zm1.84,0a.72.72,0,1,0-1.42,0,.71.71,0,1,0,1.42,0Zm-1.16,3.58,3-4.68h.4l-3,4.68Zm1.76-1.07A1.13,1.13,0,1,1,74.38,116,1.1,1.1,0,0,1,73.25,114.84Zm1.83,0a.73.73,0,0,0-.7-.8.74.74,0,0,0-.72.8.73.73,0,0,0,.72.79A.72.72,0,0,0,75.08,114.84Z" fill="#fff"/><path d="M92.68,108.57c0-1.26.59-2.4,1.91-2.4a1.63,1.63,0,0,1,1.29.55l-.3.44a1.19,1.19,0,0,0-1-.48c-.91,0-1.32.92-1.32,1.84v.18a1.68,1.68,0,0,1,1.32-.73,1.41,1.41,0,0,1,1.53,1.49A1.54,1.54,0,0,1,94.49,111C93.18,111,92.68,109.85,92.68,108.57Zm2.85.91a1,1,0,0,0-1.07-1,1.41,1.41,0,0,0-1.17.69c0,.58.36,1.3,1.17,1.3A1,1,0,0,0,95.53,109.48Z" fill="#fff"/><path d="M96.68,107.33a1.13,1.13,0,1,1,1.13,1.14A1.1,1.1,0,0,1,96.68,107.33Zm1.83,0a.71.71,0,1,0-1.41,0,.72.72,0,0,0,.71.78A.72.72,0,0,0,98.51,107.33Zm-1.15,3.58,3-4.68h.39l-3,4.68Zm1.76-1.07a1.12,1.12,0,1,1,1.12,1.15A1.1,1.1,0,0,1,99.12,109.84Zm1.83,0a.72.72,0,1,0-1.42,0,.71.71,0,1,0,1.42,0Z" fill="#fff"/><path d="M116.88,96.91V95.72h-2.22v-.48l2-3h.8v3h.65v.51h-.65v1.19Zm0-4.14-1.63,2.44h1.63Z" fill="#fff"/><path d="M118.56,93.33a1.13,1.13,0,1,1,1.13,1.14A1.11,1.11,0,0,1,118.56,93.33Zm1.84,0a.72.72,0,1,0-1.42,0,.71.71,0,1,0,1.42,0Zm-1.16,3.58,3-4.68h.39l-3,4.68ZM121,95.84A1.13,1.13,0,1,1,122.13,97,1.1,1.1,0,0,1,121,95.84Zm1.84,0a.72.72,0,1,0-.71.79A.73.73,0,0,0,122.84,95.84Z" fill="#fff"/><path d="M107.79,117.24l.36-.39a1.53,1.53,0,0,0,1.29.62,1,1,0,0,0,1.08-1,1,1,0,0,0-1.08-1,1.45,1.45,0,0,0-1.07.44l-.43-.15v-2.52h2.86v.52h-2.28v1.63a1.56,1.56,0,0,1,1.09-.42,1.42,1.42,0,0,1,1.49,1.49,1.54,1.54,0,0,1-1.66,1.54A1.92,1.92,0,0,1,107.79,117.24Z" fill="#fff"/><path d="M111.68,114.33a1.13,1.13,0,1,1,1.12,1.14A1.1,1.1,0,0,1,111.68,114.33Zm1.83,0a.71.71,0,1,0-1.41,0,.71.71,0,1,0,1.41,0Zm-1.16,3.58,3-4.68h.39l-3,4.68Zm1.76-1.07a1.11,1.11,0,0,1,1.13-1.15,1.15,1.15,0,0,1,0,2.3A1.11,1.11,0,0,1,114.11,116.84Zm1.84,0a.72.72,0,1,0-1.42,0,.71.71,0,1,0,1.42,0Z" fill="#fff"/><path d="M121.79,117.24l.36-.39a1.53,1.53,0,0,0,1.29.62,1,1,0,0,0,1.08-1,1,1,0,0,0-1.08-1,1.45,1.45,0,0,0-1.07.44l-.43-.15v-2.52h2.86v.52h-2.28v1.63a1.56,1.56,0,0,1,1.09-.42,1.42,1.42,0,0,1,1.49,1.49,1.54,1.54,0,0,1-1.66,1.54A1.92,1.92,0,0,1,121.79,117.24Z" fill="#fff"/><path d="M125.68,114.33a1.13,1.13,0,1,1,1.12,1.14A1.1,1.1,0,0,1,125.68,114.33Zm1.83,0a.71.71,0,1,0-1.41,0,.71.71,0,1,0,1.41,0Zm-1.16,3.58,3-4.68h.39l-3,4.68Zm1.76-1.07a1.11,1.11,0,0,1,1.13-1.15,1.15,1.15,0,0,1,0,2.3A1.11,1.11,0,0,1,128.11,116.84Zm1.84,0a.72.72,0,1,0-1.42,0,.71.71,0,1,0,1.42,0Z" fill="#fff"/><rect x="217.5" y="45.63" width="42.5" height="51.66" fill="#0072bc" stroke="#fff" stroke-miterlimit="10"/><rect x="217.5" y="97.28" width="42.5" height="33.16" fill="#0072bc" stroke="#fff" stroke-miterlimit="10"/><polygon points="260 45.63 260 75.4 260 88.03 302.5 88.03 302.5 75.4 302.5 45.63 260 45.63" fill="#0072bc" stroke="#fff" stroke-miterlimit="10"/><rect x="260" y="88.04" width="14.11" height="42.41" fill="#0072bc" stroke="#fff" stroke-miterlimit="10"/><rect x="274.11" y="88.04" width="28.22" height="14.05" fill="#0072bc" stroke="#fff" stroke-miterlimit="10"/><rect x="274.19" y="102.09" width="14.11" height="28.35" fill="#0072bc" stroke="#fff" stroke-miterlimit="10"/><polygon points="288.22 102.09 288.22 119.72 288.22 130.63 302.33 130.63 302.33 119.72 302.33 102.09 288.22 102.09" fill="#0072bc" stroke="#fff" stroke-miterlimit="10"/><path d="M232.51,74.22l.34-.36a1.62,1.62,0,0,0,1.3.61c.68,0,1.09-.34,1.09-.87s-.47-.83-1.16-.83h-.48v-.53h.48c.59,0,1.09-.23,1.09-.77s-.48-.8-1-.8a1.58,1.58,0,0,0-1.23.57l-.32-.36a2,2,0,0,1,1.6-.72c.9,0,1.58.45,1.58,1.23a1.13,1.13,0,0,1-1,1.09,1.19,1.19,0,0,1,1.08,1.16c0,.77-.64,1.34-1.66,1.34A2,2,0,0,1,232.51,74.22Z" fill="#fff"/><path d="M236.56,72.57c0-1.14.5-2.4,1.78-2.4s1.79,1.26,1.79,2.4S239.62,75,238.34,75,236.56,73.71,236.56,72.57Zm3,0c0-.93-.31-1.89-1.2-1.89s-1.19,1-1.19,1.89.31,1.9,1.19,1.9S239.54,73.51,239.54,72.57Z" fill="#fff"/><path d="M240.7,71.33a1.13,1.13,0,1,1,1.13,1.14A1.1,1.1,0,0,1,240.7,71.33Zm1.84,0a.72.72,0,1,0-1.42,0,.71.71,0,1,0,1.42,0Zm-1.16,3.58,3-4.68h.39l-3,4.68Zm1.76-1.07A1.13,1.13,0,1,1,244.27,75,1.1,1.1,0,0,1,243.14,73.84Zm1.83,0a.73.73,0,0,0-.7-.8.74.74,0,0,0-.72.8.73.73,0,0,0,.72.79A.72.72,0,0,0,245,73.84Z" fill="#fff"/><path d="M274.65,70.91v-.47c1.68-1.32,2.6-2.1,2.6-2.9a.88.88,0,0,0-1-.86,1.56,1.56,0,0,0-1.27.59l-.36-.37a2,2,0,0,1,1.63-.73,1.43,1.43,0,0,1,1.57,1.37c0,.95-1,1.82-2.27,2.85h2.29v.52Z" fill="#fff"/><path d="M278.85,70.24l.36-.39a1.51,1.51,0,0,0,1.28.62,1,1,0,0,0,1.08-1,1,1,0,0,0-1.07-1,1.49,1.49,0,0,0-1.08.44l-.42-.15V66.23h2.85v.52h-2.27v1.63a1.56,1.56,0,0,1,1.09-.42,1.43,1.43,0,0,1,1.49,1.49A1.54,1.54,0,0,1,280.49,71,1.92,1.92,0,0,1,278.85,70.24Z" fill="#fff"/><path d="M282.73,67.33a1.13,1.13,0,1,1,1.13,1.14A1.11,1.11,0,0,1,282.73,67.33Zm1.84,0a.72.72,0,1,0-1.42,0,.71.71,0,1,0,1.42,0Zm-1.16,3.58,3-4.68h.39l-3,4.68Zm1.76-1.07A1.13,1.13,0,1,1,286.3,71,1.1,1.1,0,0,1,285.17,69.84Zm1.84,0a.72.72,0,1,0-.71.79A.73.73,0,0,0,287,69.84Z" fill="#fff"/><path d="M232.65,115.91v-.47c1.68-1.32,2.6-2.1,2.6-2.9a.88.88,0,0,0-1-.86,1.56,1.56,0,0,0-1.27.59l-.36-.37a2,2,0,0,1,1.63-.73,1.43,1.43,0,0,1,1.57,1.37c0,.95-1,1.82-2.27,2.85h2.29v.52Z" fill="#fff"/><path d="M236.85,115.24l.36-.39a1.51,1.51,0,0,0,1.28.62,1,1,0,0,0,1.08-1,1,1,0,0,0-1.07-1,1.49,1.49,0,0,0-1.08.44l-.42-.15v-2.52h2.85v.52h-2.27v1.63a1.56,1.56,0,0,1,1.09-.42,1.43,1.43,0,0,1,1.49,1.49,1.54,1.54,0,0,1-1.67,1.54A1.92,1.92,0,0,1,236.85,115.24Z" fill="#fff"/><path d="M240.73,112.33a1.13,1.13,0,1,1,1.13,1.14A1.11,1.11,0,0,1,240.73,112.33Zm1.84,0a.72.72,0,1,0-1.42,0,.71.71,0,1,0,1.42,0Zm-1.16,3.58,3-4.68h.39l-3,4.68Zm1.76-1.07A1.13,1.13,0,1,1,244.3,116,1.1,1.1,0,0,1,243.17,114.84Zm1.84,0a.72.72,0,1,0-.71.79A.73.73,0,0,0,245,114.84Z" fill="#fff"/><path d="M262.68,108.57c0-1.26.59-2.4,1.91-2.4a1.63,1.63,0,0,1,1.29.55l-.3.44a1.19,1.19,0,0,0-1-.48c-.91,0-1.32.92-1.32,1.84v.18a1.68,1.68,0,0,1,1.32-.73,1.41,1.41,0,0,1,1.53,1.49,1.54,1.54,0,0,1-1.63,1.53C263.18,111,262.68,109.85,262.68,108.57Zm2.85.91a1,1,0,0,0-1.07-1,1.41,1.41,0,0,0-1.17.69c0,.58.36,1.3,1.17,1.3A1,1,0,0,0,265.53,109.48Z" fill="#fff"/><path d="M266.68,107.33a1.13,1.13,0,1,1,1.13,1.14A1.1,1.1,0,0,1,266.68,107.33Zm1.83,0a.71.71,0,1,0-1.41,0,.72.72,0,0,0,.71.78A.72.72,0,0,0,268.51,107.33Zm-1.15,3.58,3-4.68h.39l-3,4.68Zm1.76-1.07a1.12,1.12,0,1,1,1.12,1.15A1.1,1.1,0,0,1,269.12,109.84Zm1.83,0a.72.72,0,1,0-1.42,0,.71.71,0,1,0,1.42,0Z" fill="#fff"/><path d="M286.88,96.91V95.72h-2.22v-.48l2-3h.8v3h.65v.51h-.65v1.19Zm0-4.14-1.63,2.44h1.63Z" fill="#fff"/><path d="M288.56,93.33a1.13,1.13,0,1,1,1.13,1.14A1.11,1.11,0,0,1,288.56,93.33Zm1.84,0a.72.72,0,1,0-1.42,0,.71.71,0,1,0,1.42,0Zm-1.16,3.58,3-4.68h.39l-3,4.68ZM291,95.84A1.13,1.13,0,1,1,292.13,97,1.1,1.1,0,0,1,291,95.84Zm1.84,0a.72.72,0,1,0-.71.79A.73.73,0,0,0,292.84,95.84Z" fill="#fff"/><path d="M277.79,117.24l.36-.39a1.53,1.53,0,0,0,1.29.62,1,1,0,0,0,1.08-1,1,1,0,0,0-1.08-1,1.45,1.45,0,0,0-1.07.44l-.43-.15v-2.52h2.86v.52h-2.28v1.63a1.56,1.56,0,0,1,1.09-.42,1.42,1.42,0,0,1,1.49,1.49,1.54,1.54,0,0,1-1.66,1.54A1.92,1.92,0,0,1,277.79,117.24Z" fill="#fff"/><path d="M281.68,114.33a1.13,1.13,0,1,1,1.12,1.14A1.1,1.1,0,0,1,281.68,114.33Zm1.83,0a.71.71,0,1,0-1.41,0,.71.71,0,1,0,1.41,0Zm-1.16,3.58,3-4.68h.39l-3,4.68Zm1.76-1.07a1.11,1.11,0,0,1,1.13-1.15,1.15,1.15,0,0,1,0,2.3A1.11,1.11,0,0,1,284.11,116.84Zm1.84,0a.72.72,0,1,0-1.42,0,.71.71,0,1,0,1.42,0Z" fill="#fff"/><path d="M291.79,117.24l.36-.39a1.53,1.53,0,0,0,1.29.62,1,1,0,0,0,1.08-1,1,1,0,0,0-1.08-1,1.45,1.45,0,0,0-1.07.44l-.43-.15v-2.52h2.86v.52h-2.28v1.63a1.56,1.56,0,0,1,1.09-.42,1.42,1.42,0,0,1,1.49,1.49,1.54,1.54,0,0,1-1.66,1.54A1.92,1.92,0,0,1,291.79,117.24Z" fill="#fff"/><path d="M295.68,114.33a1.13,1.13,0,1,1,1.12,1.14A1.1,1.1,0,0,1,295.68,114.33Zm1.83,0a.71.71,0,1,0-1.41,0,.71.71,0,1,0,1.41,0Zm-1.16,3.58,3-4.68h.39l-3,4.68Zm1.76-1.07a1.11,1.11,0,0,1,1.13-1.15,1.15,1.15,0,0,1,0,2.3A1.11,1.11,0,0,1,298.11,116.84Zm1.84,0a.72.72,0,1,0-1.42,0,.71.71,0,1,0,1.42,0Z" fill="#fff"/></svg>