<svg xmlns="http://www.w3.org/2000/svg" width="350" height="148" viewBox="0 0 350 148"><rect width="350" height="148" fill="#f1f2f2"/><path d="M31.92,21.87V14.54h2.5a3.56,3.56,0,0,1,3.76,3.67,3.54,3.54,0,0,1-3.76,3.66Zm5.32-3.66a2.69,2.69,0,0,0-2.82-2.86H32.83v5.71h1.59A2.7,2.7,0,0,0,37.24,18.21Z" fill="#0072bc"/><path d="M39.26,19.21a2.63,2.63,0,1,1,5.26,0,2.63,2.63,0,1,1-5.26,0Zm4.39,0a1.78,1.78,0,1,0-3.52,0,1.78,1.78,0,1,0,3.52,0Z" fill="#0072bc"/><circle cx="17.55" cy="17.55" r="7.55" fill="#9dc5ff"/><circle cx="17.55" cy="17.55" r="4.8" fill="#0072bc"/><polyline points="14.8 17.55 16.63 19.38 20.29 15.72" fill="none" stroke="#fff" stroke-linecap="round" stroke-linejoin="round" stroke-width="0.75"/><path d="M201.92,21.87V14.54h2.5a3.56,3.56,0,0,1,3.76,3.67,3.54,3.54,0,0,1-3.76,3.66Zm5.32-3.66a2.69,2.69,0,0,0-2.82-2.86h-1.59v5.71h1.59A2.7,2.7,0,0,0,207.24,18.21Z" fill="#ef4a60"/><path d="M209.26,19.21a2.63,2.63,0,1,1,5.26,0,2.63,2.63,0,1,1-5.26,0Zm4.39,0a1.78,1.78,0,1,0-3.52,0,1.78,1.78,0,1,0,3.52,0Z" fill="#ef4a60"/><path d="M219.44,21.87V18.4c0-.95-.48-1.23-1.19-1.23a2.06,2.06,0,0,0-1.57.82v3.88h-.83V16.56h.83v.77a2.58,2.58,0,0,1,1.9-.9,1.5,1.5,0,0,1,1.68,1.71v3.73Z" fill="#ef4a60"/><path d="M222.07,16.93l-.42-.35a1.65,1.65,0,0,0,.71-1l-.15,0a.53.53,0,0,1-.53-.56.6.6,0,0,1,.58-.59c.38,0,.7.3.7.84A2.14,2.14,0,0,1,222.07,16.93Z" fill="#ef4a60"/><path d="M224.54,20.76V17.29h-.88v-.73h.88V15.11h.83v1.45h1.08v.73h-1.08v3.29c0,.4.18.68.53.68a.75.75,0,0,0,.56-.23l.24.63a1.32,1.32,0,0,1-1,.34A1.08,1.08,0,0,1,224.54,20.76Z" fill="#ef4a60"/><circle cx="187.55" cy="17.55" r="7.55" fill="#ffbcc1"/><circle cx="187.55" cy="17.55" r="4.8" fill="#ef4a60"/><line x1="189.55" y1="15.55" x2="185.55" y2="19.55" fill="none" stroke="#fff" stroke-linecap="round" stroke-linejoin="round" stroke-width="0.75"/><line x1="189.55" y1="19.55" x2="185.55" y2="15.55" fill="none" stroke="#fff" stroke-linecap="round" stroke-linejoin="round" stroke-width="0.75"/><rect x="36.76" y="97.45" width="12.21" height="24.55" fill="#0072bc"/><rect x="60.45" y="60.35" width="12.21" height="37.09" fill="#0072bc"/><rect x="84.14" y="37.45" width="12.21" height="22.9" fill="#0072bc"/><rect x="107.82" y="37" width="12.21" height="30.82" fill="#ef4a60"/><rect x="131.51" y="67.82" width="12.21" height="54.18" fill="#18375f"/><line x1="49.9" y1="97.45" x2="49.9" y2="97.45" fill="none" stroke="#919191" stroke-linecap="round" stroke-linejoin="round" stroke-width="1.5"/><line x1="52.58" y1="97.45" x2="59.26" y2="97.45" fill="none" stroke="#919191" stroke-linecap="round" stroke-linejoin="round" stroke-width="1.5" stroke-dasharray="0 2.67"/><line x1="60.59" y1="97.45" x2="60.59" y2="97.45" fill="none" stroke="#919191" stroke-linecap="round" stroke-linejoin="round" stroke-width="1.5"/><line x1="73.26" y1="61.02" x2="73.26" y2="61.02" fill="none" stroke="#919191" stroke-linecap="round" stroke-linejoin="round" stroke-width="1.5"/><line x1="75.93" y1="61.02" x2="82.61" y2="61.02" fill="none" stroke="#919191" stroke-linecap="round" stroke-linejoin="round" stroke-width="1.5" stroke-dasharray="0 2.67"/><line x1="83.94" y1="61.02" x2="83.94" y2="61.02" fill="none" stroke="#919191" stroke-linecap="round" stroke-linejoin="round" stroke-width="1.5"/><line x1="96.61" y1="37.66" x2="96.61" y2="37.66" fill="none" stroke="#919191" stroke-linecap="round" stroke-linejoin="round" stroke-width="1.5"/><line x1="99.28" y1="37.66" x2="105.96" y2="37.66" fill="none" stroke="#919191" stroke-linecap="round" stroke-linejoin="round" stroke-width="1.5" stroke-dasharray="0 2.67"/><line x1="107.3" y1="37.66" x2="107.3" y2="37.66" fill="none" stroke="#919191" stroke-linecap="round" stroke-linejoin="round" stroke-width="1.5"/><line x1="119.96" y1="67.55" x2="119.96" y2="67.55" fill="none" stroke="#919191" stroke-linecap="round" stroke-linejoin="round" stroke-width="1.5"/><line x1="122.63" y1="67.55" x2="129.31" y2="67.55" fill="none" stroke="#919191" stroke-linecap="round" stroke-linejoin="round" stroke-width="1.5" stroke-dasharray="0 2.67"/><line x1="130.65" y1="67.55" x2="130.65" y2="67.55" fill="none" stroke="#919191" stroke-linecap="round" stroke-linejoin="round" stroke-width="1.5"/><rect x="35.5" y="127" width="14" height="4" fill="#c6c6c6"/><rect x="60" y="127" width="14" height="4" fill="#c6c6c6"/><rect x="84.5" y="127" width="14" height="4" fill="#c6c6c6"/><rect x="107" y="127" width="14" height="4" fill="#c6c6c6"/><rect x="130.5" y="127" width="14" height="4" fill="#c6c6c6"/><path d="M37.63,111.58l.29-.31a1.39,1.39,0,0,0,1.11.53c.59,0,.94-.3.94-.75s-.41-.71-1-.71h-.41v-.46H39c.51,0,.93-.2.93-.66s-.4-.69-.89-.69a1.33,1.33,0,0,0-1,.49l-.28-.31a1.7,1.7,0,0,1,1.37-.62c.77,0,1.35.39,1.35,1.06a1,1,0,0,1-.86.93,1,1,0,0,1,.93,1c0,.67-.54,1.15-1.42,1.15A1.67,1.67,0,0,1,37.63,111.58Z" fill="#fff"/><path d="M41.1,110.17c0-1,.43-2.06,1.53-2.06s1.53,1.09,1.53,2.06-.44,2.07-1.53,2.07S41.1,111.14,41.1,110.17Zm2.55,0c0-.79-.26-1.62-1-1.62s-1,.83-1,1.62.26,1.63,1,1.63S43.65,111,43.65,110.17Z" fill="#fff"/><path d="M44.65,109.11a1,1,0,1,1,1.93,0,1,1,0,1,1-1.93,0Zm1.57,0a.62.62,0,0,0-.6-.69.68.68,0,0,0,0,1.36A.62.62,0,0,0,46.22,109.11Zm-1,3.06,2.56-4h.33l-2.56,4Zm1.51-.91a1,1,0,1,1,1,1A.94.94,0,0,1,46.74,111.26Zm1.57,0a.61.61,0,1,0-.61.68A.63.63,0,0,0,48.31,111.26Z" fill="#fff"/><path d="M62.54,81.17v-1h-1.9v-.42l1.71-2.57H63v2.55h.56v.44H63v1Zm0-3.54-1.41,2.09h1.41Z" fill="#fff"/><path d="M64.1,79.17c0-1,.43-2.06,1.53-2.06s1.53,1.09,1.53,2.06-.44,2.07-1.53,2.07S64.1,80.14,64.1,79.17Zm2.55,0c0-.79-.26-1.62-1-1.62s-1,.83-1,1.62.26,1.63,1,1.63S66.65,80,66.65,79.17Z" fill="#fff"/><path d="M67.65,78.11a1,1,0,1,1,1.93,0,1,1,0,1,1-1.93,0Zm1.57,0a.62.62,0,0,0-.6-.69.68.68,0,0,0,0,1.36A.62.62,0,0,0,69.22,78.11Zm-1,3.06,2.56-4h.33l-2.56,4Zm1.51-.91a1,1,0,1,1,1,1A.94.94,0,0,1,69.74,80.26Zm1.57,0a.61.61,0,1,0-.61.68A.63.63,0,0,0,71.31,80.26Z" fill="#fff"/><path d="M84.63,50.58l.29-.31A1.39,1.39,0,0,0,86,50.8c.59,0,.94-.3.94-.75s-.41-.71-1-.71h-.41v-.46H86c.51,0,.93-.2.93-.66s-.4-.69-.89-.69A1.33,1.33,0,0,0,85,48l-.28-.31a1.7,1.7,0,0,1,1.37-.62c.77,0,1.35.39,1.35,1.06a1,1,0,0,1-.86.93,1,1,0,0,1,.93,1c0,.67-.54,1.15-1.42,1.15A1.67,1.67,0,0,1,84.63,50.58Z" fill="#fff"/><path d="M88.1,49.17c0-1,.43-2.06,1.53-2.06s1.53,1.09,1.53,2.06-.44,2.07-1.53,2.07S88.1,50.14,88.1,49.17Zm2.55,0c0-.79-.26-1.62-1-1.62s-1,.83-1,1.62.26,1.63,1,1.63S90.65,50,90.65,49.17Z" fill="#fff"/><path d="M91.65,48.11a1,1,0,1,1,1.93,0,1,1,0,1,1-1.93,0Zm1.57,0a.62.62,0,0,0-.6-.69.68.68,0,0,0,0,1.36A.62.62,0,0,0,93.22,48.11Zm-1,3.06,2.56-4h.33l-2.56,4Zm1.51-.91a1,1,0,1,1,1,1A.94.94,0,0,1,93.74,50.26Zm1.57,0a.61.61,0,1,0-.61.68A.63.63,0,0,0,95.31,50.26Z" fill="#fff"/><path d="M108,53.92v-.4h1.44v.4Z" fill="#fff"/><path d="M109.81,54.58l.29-.31a1.39,1.39,0,0,0,1.11.53c.59,0,.94-.3.94-.75s-.41-.71-1-.71h-.41v-.46h.41c.51,0,.93-.2.93-.66s-.4-.69-.89-.69a1.33,1.33,0,0,0-1,.49l-.28-.31a1.7,1.7,0,0,1,1.37-.62c.77,0,1.35.39,1.35,1.06a1,1,0,0,1-.86.93,1,1,0,0,1,.93,1c0,.67-.54,1.15-1.42,1.15A1.67,1.67,0,0,1,109.81,54.58Z" fill="#fff"/><path d="M113.29,54.16a1.17,1.17,0,0,1,.95-1,1.06,1.06,0,0,1-.89-1c0-.72.7-1,1.37-1s1.37.32,1.37,1a1.06,1.06,0,0,1-.89,1,1.17,1.17,0,0,1,1,1c0,.67-.65,1.08-1.43,1.08S113.29,54.84,113.29,54.16Zm2.36-.06c0-.52-.69-.74-.93-.77s-.93.25-.93.77.43.7.93.7S115.65,54.53,115.65,54.1Zm-.06-1.89c0-.41-.39-.66-.87-.66s-.87.25-.87.66.63.65.87.69S115.59,52.7,115.59,52.21Z" fill="#fff"/><path d="M116.65,52.11a1,1,0,1,1,1.93,0,1,1,0,1,1-1.93,0Zm1.57,0a.62.62,0,0,0-.6-.69.68.68,0,0,0,0,1.36A.62.62,0,0,0,118.22,52.11Zm-1,3.06,2.56-4h.33l-2.56,4Zm1.51-.91a1,1,0,1,1,1,1A.94.94,0,0,1,118.74,54.26Zm1.57,0a.61.61,0,1,0-.61.68A.63.63,0,0,0,120.31,54.26Z" fill="#fff"/><path d="M131.7,91.17c0-1.08.5-2.06,1.63-2.06a1.35,1.35,0,0,1,1.1.48l-.25.37a1,1,0,0,0-.85-.41c-.78,0-1.13.79-1.13,1.57v.16a1.44,1.44,0,0,1,1.13-.62,1.21,1.21,0,0,1,1.31,1.27,1.32,1.32,0,0,1-1.4,1.31C132.12,93.24,131.7,92.26,131.7,91.17Zm2.44.78a.83.83,0,0,0-.92-.86,1.22,1.22,0,0,0-1,.59c0,.5.3,1.12,1,1.12A.87.87,0,0,0,134.14,92Z" fill="#fff"/><path d="M135.26,93.17v-.4c1.44-1.13,2.23-1.8,2.23-2.48a.76.76,0,0,0-.84-.74,1.34,1.34,0,0,0-1.09.51l-.3-.32a1.69,1.69,0,0,1,1.39-.63A1.22,1.22,0,0,1,138,90.29c0,.81-.83,1.55-1.94,2.44h2v.44Z" fill="#fff"/><path d="M138.65,90.11a1,1,0,1,1,1.93,0,1,1,0,1,1-1.93,0Zm1.57,0a.62.62,0,0,0-.6-.69.68.68,0,0,0,0,1.36A.62.62,0,0,0,140.22,90.11Zm-1,3.06,2.56-4h.33l-2.56,4Zm1.51-.91a1,1,0,1,1,1,1A.94.94,0,0,1,140.74,92.26Zm1.57,0a.61.61,0,1,0-.61.68A.63.63,0,0,0,142.31,92.26Z" fill="#fff"/><rect x="218.26" y="97.45" width="12.21" height="24.55" fill="#0072bc"/><rect x="241.95" y="60.35" width="12.21" height="37.09" fill="#0072bc"/><rect x="265.64" y="37.45" width="12.21" height="22.9" fill="#0072bc"/><rect x="289.32" y="37" width="12.21" height="30.82" fill="#ef4a60"/><rect x="313.01" y="67.82" width="12.21" height="54.18" fill="#18375f"/><line x1="231.4" y1="97.45" x2="231.4" y2="97.45" fill="none" stroke="#919191" stroke-linecap="round" stroke-linejoin="round" stroke-width="1.5"/><line x1="234.08" y1="97.45" x2="240.76" y2="97.45" fill="none" stroke="#919191" stroke-linecap="round" stroke-linejoin="round" stroke-width="1.5" stroke-dasharray="0 2.67"/><line x1="242.09" y1="97.45" x2="242.09" y2="97.45" fill="none" stroke="#919191" stroke-linecap="round" stroke-linejoin="round" stroke-width="1.5"/><line x1="254.76" y1="61.02" x2="254.76" y2="61.02" fill="none" stroke="#919191" stroke-linecap="round" stroke-linejoin="round" stroke-width="1.5"/><line x1="257.43" y1="61.02" x2="264.11" y2="61.02" fill="none" stroke="#919191" stroke-linecap="round" stroke-linejoin="round" stroke-width="1.5" stroke-dasharray="0 2.67"/><line x1="265.44" y1="61.02" x2="265.44" y2="61.02" fill="none" stroke="#919191" stroke-linecap="round" stroke-linejoin="round" stroke-width="1.5"/><line x1="278.11" y1="37.66" x2="278.11" y2="37.66" fill="none" stroke="#919191" stroke-linecap="round" stroke-linejoin="round" stroke-width="1.5"/><line x1="280.78" y1="37.66" x2="287.46" y2="37.66" fill="none" stroke="#919191" stroke-linecap="round" stroke-linejoin="round" stroke-width="1.5" stroke-dasharray="0 2.67"/><line x1="288.8" y1="37.66" x2="288.8" y2="37.66" fill="none" stroke="#919191" stroke-linecap="round" stroke-linejoin="round" stroke-width="1.5"/><line x1="301.46" y1="67.55" x2="301.46" y2="67.55" fill="none" stroke="#919191" stroke-linecap="round" stroke-linejoin="round" stroke-width="1.5"/><line x1="304.13" y1="67.55" x2="310.81" y2="67.55" fill="none" stroke="#919191" stroke-linecap="round" stroke-linejoin="round" stroke-width="1.5" stroke-dasharray="0 2.67"/><line x1="312.15" y1="67.55" x2="312.15" y2="67.55" fill="none" stroke="#919191" stroke-linecap="round" stroke-linejoin="round" stroke-width="1.5"/><rect x="218" y="127" width="14" height="4" fill="#c6c6c6"/><rect x="194" y="120" width="14" height="4" fill="#c6c6c6"/><rect x="194" y="32" width="14" height="4" fill="#c6c6c6"/><rect x="194" y="49.6" width="14" height="4" fill="#c6c6c6"/><rect x="194" y="67.2" width="14" height="4" fill="#c6c6c6"/><rect x="194" y="84.8" width="14" height="4" fill="#c6c6c6"/><rect x="194" y="102.4" width="14" height="4" fill="#c6c6c6"/><rect x="244.5" y="127" width="14" height="4" fill="#c6c6c6"/><rect x="268" y="127" width="14" height="4" fill="#c6c6c6"/><rect x="289.5" y="127" width="14" height="4" fill="#c6c6c6"/><rect x="312" y="127" width="14" height="4" fill="#c6c6c6"/><line x1="212" y1="33" x2="212" y2="122" fill="none" stroke="#919191" stroke-miterlimit="10" stroke-width="0.5"/><line x1="325.5" y1="122" x2="212" y2="122" fill="none" stroke="#919191" stroke-miterlimit="10" stroke-width="0.5"/></svg>