<svg xmlns="http://www.w3.org/2000/svg" width="350" height="148" viewBox="0 0 350 148"><rect width="350" height="148" fill="#f1f2f2"/><path d="M31.92,21.87V14.54h2.5a3.56,3.56,0,0,1,3.76,3.67,3.54,3.54,0,0,1-3.76,3.66Zm5.32-3.66a2.69,2.69,0,0,0-2.82-2.86H32.83v5.71h1.59A2.7,2.7,0,0,0,37.24,18.21Z" fill="#0072bc"/><path d="M39.26,19.21a2.63,2.63,0,1,1,5.26,0,2.63,2.63,0,1,1-5.26,0Zm4.39,0a1.78,1.78,0,1,0-3.52,0,1.78,1.78,0,1,0,3.52,0Z" fill="#0072bc"/><circle cx="17.55" cy="17.55" r="7.55" fill="#9dc5ff"/><circle cx="17.55" cy="17.55" r="4.8" fill="#0072bc"/><polyline points="14.8 17.55 16.63 19.38 20.29 15.72" fill="none" stroke="#fff" stroke-linecap="round" stroke-linejoin="round" stroke-width="0.75"/><path d="M201.92,21.87V14.54h2.5a3.56,3.56,0,0,1,3.76,3.67,3.54,3.54,0,0,1-3.76,3.66Zm5.32-3.66a2.69,2.69,0,0,0-2.82-2.86h-1.59v5.71h1.59A2.7,2.7,0,0,0,207.24,18.21Z" fill="#ef4a60"/><path d="M209.26,19.21a2.63,2.63,0,1,1,5.26,0,2.63,2.63,0,1,1-5.26,0Zm4.39,0a1.78,1.78,0,1,0-3.52,0,1.78,1.78,0,1,0,3.52,0Z" fill="#ef4a60"/><path d="M219.44,21.87V18.4c0-.95-.48-1.23-1.19-1.23a2.06,2.06,0,0,0-1.57.82v3.88h-.83V16.56h.83v.77a2.58,2.58,0,0,1,1.9-.9,1.5,1.5,0,0,1,1.68,1.71v3.73Z" fill="#ef4a60"/><path d="M222.07,16.93l-.42-.35a1.65,1.65,0,0,0,.71-1l-.15,0a.53.53,0,0,1-.53-.56.6.6,0,0,1,.58-.59c.38,0,.7.3.7.84A2.14,2.14,0,0,1,222.07,16.93Z" fill="#ef4a60"/><path d="M224.54,20.76V17.29h-.88v-.73h.88V15.11h.83v1.45h1.08v.73h-1.08v3.29c0,.4.18.68.53.68a.75.75,0,0,0,.56-.23l.24.63a1.32,1.32,0,0,1-1,.34A1.08,1.08,0,0,1,224.54,20.76Z" fill="#ef4a60"/><circle cx="187.55" cy="17.55" r="7.55" fill="#ffbcc1"/><circle cx="187.55" cy="17.55" r="4.8" fill="#ef4a60"/><line x1="189.55" y1="15.55" x2="185.55" y2="19.55" fill="none" stroke="#fff" stroke-linecap="round" stroke-linejoin="round" stroke-width="0.75"/><line x1="189.55" y1="19.55" x2="185.55" y2="15.55" fill="none" stroke="#fff" stroke-linecap="round" stroke-linejoin="round" stroke-width="0.75"/><rect x="36.52" y="97.45" width="12.21" height="24.55" fill="#0072bc"/><rect x="60.2" y="60.35" width="12.21" height="37.09" fill="#0072bc"/><rect x="83.89" y="37.45" width="12.21" height="22.9" fill="#0072bc"/><rect x="107.58" y="37" width="12.21" height="30.82" fill="#ef4a60"/><rect x="131.27" y="67.82" width="12.21" height="54.18" fill="#18375f"/><line x1="49.66" y1="97.45" x2="49.66" y2="97.45" fill="none" stroke="#919191" stroke-linecap="round" stroke-linejoin="round" stroke-width="1.5"/><line x1="52.33" y1="97.45" x2="59.01" y2="97.45" fill="none" stroke="#919191" stroke-linecap="round" stroke-linejoin="round" stroke-width="1.5" stroke-dasharray="0 2.67"/><line x1="60.35" y1="97.45" x2="60.35" y2="97.45" fill="none" stroke="#919191" stroke-linecap="round" stroke-linejoin="round" stroke-width="1.5"/><line x1="73.01" y1="61.02" x2="73.01" y2="61.02" fill="none" stroke="#919191" stroke-linecap="round" stroke-linejoin="round" stroke-width="1.5"/><line x1="75.69" y1="61.02" x2="82.37" y2="61.02" fill="none" stroke="#919191" stroke-linecap="round" stroke-linejoin="round" stroke-width="1.5" stroke-dasharray="0 2.67"/><line x1="83.7" y1="61.02" x2="83.7" y2="61.02" fill="none" stroke="#919191" stroke-linecap="round" stroke-linejoin="round" stroke-width="1.5"/><line x1="96.37" y1="37.66" x2="96.37" y2="37.66" fill="none" stroke="#919191" stroke-linecap="round" stroke-linejoin="round" stroke-width="1.5"/><line x1="99.04" y1="37.66" x2="105.72" y2="37.66" fill="none" stroke="#919191" stroke-linecap="round" stroke-linejoin="round" stroke-width="1.5" stroke-dasharray="0 2.67"/><line x1="107.05" y1="37.66" x2="107.05" y2="37.66" fill="none" stroke="#919191" stroke-linecap="round" stroke-linejoin="round" stroke-width="1.5"/><line x1="119.72" y1="67.55" x2="119.72" y2="67.55" fill="none" stroke="#919191" stroke-linecap="round" stroke-linejoin="round" stroke-width="1.5"/><line x1="122.39" y1="67.55" x2="129.07" y2="67.55" fill="none" stroke="#919191" stroke-linecap="round" stroke-linejoin="round" stroke-width="1.5" stroke-dasharray="0 2.67"/><line x1="130.41" y1="67.55" x2="130.41" y2="67.55" fill="none" stroke="#919191" stroke-linecap="round" stroke-linejoin="round" stroke-width="1.5"/><rect x="206.52" y="97.45" width="12.21" height="24.55" fill="#0072bc"/><rect x="230.2" y="60.35" width="12.21" height="37.09" fill="#0072bc"/><rect x="253.89" y="37.45" width="12.21" height="22.9" fill="#0072bc"/><rect x="277.58" y="37" width="12.21" height="30.82" fill="#ef4a60"/><rect x="301.27" y="67.82" width="12.21" height="54.18" fill="#18375f"/></svg>