<svg xmlns="http://www.w3.org/2000/svg" width="350" height="148" viewBox="0 0 350 148"><rect width="350" height="148" fill="#f1f2f2"/><path d="M31.92,21.87V14.54h2.5a3.56,3.56,0,0,1,3.76,3.67,3.54,3.54,0,0,1-3.76,3.66Zm5.32-3.66a2.69,2.69,0,0,0-2.82-2.86H32.83v5.71h1.59A2.7,2.7,0,0,0,37.24,18.21Z" fill="#0072bc"/><path d="M39.26,19.21a2.63,2.63,0,1,1,5.26,0,2.63,2.63,0,1,1-5.26,0Zm4.39,0a1.78,1.78,0,1,0-3.52,0,1.78,1.78,0,1,0,3.52,0Z" fill="#0072bc"/><circle cx="17.55" cy="17.55" r="7.55" fill="#9dc5ff"/><circle cx="17.55" cy="17.55" r="4.8" fill="#0072bc"/><polyline points="14.8 17.55 16.63 19.38 20.29 15.72" fill="none" stroke="#fff" stroke-linecap="round" stroke-linejoin="round" stroke-width="0.75"/><path d="M201.92,21.87V14.54h2.5a3.56,3.56,0,0,1,3.76,3.67,3.54,3.54,0,0,1-3.76,3.66Zm5.32-3.66a2.69,2.69,0,0,0-2.82-2.86h-1.59v5.71h1.59A2.7,2.7,0,0,0,207.24,18.21Z" fill="#ef4a60"/><path d="M209.26,19.21a2.63,2.63,0,1,1,5.26,0,2.63,2.63,0,1,1-5.26,0Zm4.39,0a1.78,1.78,0,1,0-3.52,0,1.78,1.78,0,1,0,3.52,0Z" fill="#ef4a60"/><path d="M219.44,21.87V18.4c0-.95-.48-1.23-1.19-1.23a2.06,2.06,0,0,0-1.57.82v3.88h-.83V16.56h.83v.77a2.58,2.58,0,0,1,1.9-.9,1.5,1.5,0,0,1,1.68,1.71v3.73Z" fill="#ef4a60"/><path d="M222.07,16.93l-.42-.35a1.65,1.65,0,0,0,.71-1l-.15,0a.53.53,0,0,1-.53-.56.6.6,0,0,1,.58-.59c.38,0,.7.3.7.84A2.14,2.14,0,0,1,222.07,16.93Z" fill="#ef4a60"/><path d="M224.54,20.76V17.29h-.88v-.73h.88V15.11h.83v1.45h1.08v.73h-1.08v3.29c0,.4.18.68.53.68a.75.75,0,0,0,.56-.23l.24.63a1.32,1.32,0,0,1-1,.34A1.08,1.08,0,0,1,224.54,20.76Z" fill="#ef4a60"/><circle cx="187.55" cy="17.55" r="7.55" fill="#ffbcc1"/><circle cx="187.55" cy="17.55" r="4.8" fill="#ef4a60"/><line x1="189.55" y1="15.55" x2="185.55" y2="19.55" fill="none" stroke="#fff" stroke-linecap="round" stroke-linejoin="round" stroke-width="0.75"/><line x1="189.55" y1="19.55" x2="185.55" y2="15.55" fill="none" stroke="#fff" stroke-linecap="round" stroke-linejoin="round" stroke-width="0.75"/><polyline points="45 34.56 45 124.56 135 124.56" fill="none" stroke="#0072bc" stroke-linecap="round" stroke-linejoin="round" stroke-width="1.5"/><circle cx="83.44" cy="89.57" r="15.98" fill="#0072bc" opacity="0.4"/><circle cx="62.68" cy="107.66" r="4.55" fill="#0072bc" opacity="0.4"/><circle cx="79.2" cy="105.78" r="3.67" fill="#0072bc" opacity="0.4"/><circle cx="69.54" cy="93.66" r="4.83" fill="#0072bc" opacity="0.4"/><circle cx="97.66" cy="97.97" r="6.14" fill="#0072bc" opacity="0.4"/><circle cx="90.49" cy="68.32" r="5.36" fill="#0072bc" opacity="0.4"/><circle cx="102.4" cy="58.8" r="6.74" fill="#0072bc" opacity="0.4"/><circle cx="104.98" cy="78.82" r="4.46" fill="#0072bc" opacity="0.4"/><circle cx="101.96" cy="79.19" r="9.51" fill="#0072bc" opacity="0.4"/><circle cx="111.48" cy="87.06" r="3.07" fill="#0072bc" opacity="0.4"/><polyline points="215 34.56 215 124.56 305 124.56" fill="none" stroke="#0072bc" stroke-linecap="round" stroke-linejoin="round" stroke-width="1.5"/><circle cx="253.44" cy="89.57" r="15.98" fill="#0072bc"/><circle cx="232.68" cy="107.66" r="4.55" fill="#0072bc"/><circle cx="249.2" cy="105.78" r="3.67" fill="#0072bc"/><circle cx="239.54" cy="93.66" r="4.83" fill="#0072bc"/><circle cx="267.66" cy="97.97" r="6.14" fill="#0072bc"/><circle cx="260.49" cy="68.32" r="5.36" fill="#0072bc"/><circle cx="272.4" cy="58.8" r="6.74" fill="#0072bc"/><circle cx="274.98" cy="78.82" r="4.46" fill="#0072bc"/><circle cx="271.96" cy="79.19" r="9.51" fill="#0072bc"/><circle cx="281.48" cy="87.06" r="3.07" fill="#0072bc"/></svg>