<svg xmlns="http://www.w3.org/2000/svg" width="350" height="148" viewBox="0 0 350 148"><rect width="350" height="148" fill="#f1f2f2"/><path d="M31.92,21.87V14.54h2.5a3.56,3.56,0,0,1,3.76,3.67,3.54,3.54,0,0,1-3.76,3.66Zm5.32-3.66a2.69,2.69,0,0,0-2.82-2.86H32.83v5.71h1.59A2.7,2.7,0,0,0,37.24,18.21Z" fill="#0072bc"/><path d="M39.26,19.21a2.63,2.63,0,1,1,5.26,0,2.63,2.63,0,1,1-5.26,0Zm4.39,0a1.78,1.78,0,1,0-3.52,0,1.78,1.78,0,1,0,3.52,0Z" fill="#0072bc"/><circle cx="17.55" cy="17.55" r="7.55" fill="#9dc5ff"/><circle cx="17.55" cy="17.55" r="4.8" fill="#0072bc"/><polyline points="14.8 17.55 16.63 19.38 20.29 15.72" fill="none" stroke="#fff" stroke-linecap="round" stroke-linejoin="round" stroke-width="0.75"/><path d="M201.92,21.87V14.54h2.5a3.56,3.56,0,0,1,3.76,3.67,3.54,3.54,0,0,1-3.76,3.66Zm5.32-3.66a2.69,2.69,0,0,0-2.82-2.86h-1.59v5.71h1.59A2.7,2.7,0,0,0,207.24,18.21Z" fill="#ef4a60"/><path d="M209.26,19.21a2.63,2.63,0,1,1,5.26,0,2.63,2.63,0,1,1-5.26,0Zm4.39,0a1.78,1.78,0,1,0-3.52,0,1.78,1.78,0,1,0,3.52,0Z" fill="#ef4a60"/><path d="M219.44,21.87V18.4c0-.95-.48-1.23-1.19-1.23a2.06,2.06,0,0,0-1.57.82v3.88h-.83V16.56h.83v.77a2.58,2.58,0,0,1,1.9-.9,1.5,1.5,0,0,1,1.68,1.71v3.73Z" fill="#ef4a60"/><path d="M222.07,16.93l-.42-.35a1.65,1.65,0,0,0,.71-1l-.15,0a.53.53,0,0,1-.53-.56.6.6,0,0,1,.58-.59c.38,0,.7.3.7.84A2.14,2.14,0,0,1,222.07,16.93Z" fill="#ef4a60"/><path d="M224.54,20.76V17.29h-.88v-.73h.88V15.11h.83v1.45h1.08v.73h-1.08v3.29c0,.4.18.68.53.68a.75.75,0,0,0,.56-.23l.24.63a1.32,1.32,0,0,1-1,.34A1.08,1.08,0,0,1,224.54,20.76Z" fill="#ef4a60"/><circle cx="187.55" cy="17.55" r="7.55" fill="#ffbcc1"/><circle cx="187.55" cy="17.55" r="4.8" fill="#ef4a60"/><line x1="189.55" y1="15.55" x2="185.55" y2="19.55" fill="none" stroke="#fff" stroke-linecap="round" stroke-linejoin="round" stroke-width="0.75"/><line x1="189.55" y1="19.55" x2="185.55" y2="15.55" fill="none" stroke="#fff" stroke-linecap="round" stroke-linejoin="round" stroke-width="0.75"/><rect x="37.53" y="123.14" width="10.03" height="3.15" fill="#bbbdbf"/><rect x="37.53" y="106.34" width="10.03" height="3.15" fill="#bbbdbf"/><rect x="37.53" y="89.54" width="10.03" height="3.15" fill="#bbbdbf"/><rect x="37.53" y="72.74" width="10.03" height="3.15" fill="#bbbdbf"/><rect x="37.53" y="55.94" width="10.03" height="3.15" fill="#bbbdbf"/><rect x="37.53" y="39.14" width="10.03" height="3.15" fill="#bbbdbf"/><polyline points="52.18 34.56 52.18 124.56 142.18 124.56" fill="none" stroke="#0072bc" stroke-linecap="round" stroke-linejoin="round" stroke-width="1.5"/><polyline points="60.18 109.56 74.18 94.56 90.18 105.28 104.18 60.16 119.18 83 135.18 59" fill="none" stroke="#0072bc" stroke-linecap="round" stroke-linejoin="round" stroke-width="1.5"/><polyline points="60.18 109.56 74.18 94.56 90.18 105.28 104.18 60.16 119.18 83 135.18 59" fill="none" stroke="#0072bc" stroke-linecap="round" stroke-linejoin="round" stroke-width="1.5"/><circle cx="59.72" cy="109.56" r="2.5" fill="#0072bc"/><circle cx="74.72" cy="94.56" r="2.5" fill="#0072bc"/><circle cx="89.72" cy="105.28" r="2.5" fill="#0072bc"/><circle cx="104.72" cy="60.16" r="2.5" fill="#0072bc"/><circle cx="119.72" cy="82.53" r="2.5" fill="#0072bc"/><circle cx="134.72" cy="59.42" r="2.5" fill="#0072bc"/><rect x="54.71" y="130.14" width="10.03" height="3.15" fill="#bbbdbf"/><rect x="69.71" y="130.14" width="10.03" height="3.15" fill="#bbbdbf"/><rect x="99.71" y="130.14" width="10.03" height="3.15" fill="#bbbdbf"/><rect x="84.71" y="130.14" width="10.03" height="3.15" fill="#bbbdbf"/><rect x="114.71" y="130.14" width="10.03" height="3.15" fill="#bbbdbf"/><rect x="129.71" y="130.14" width="10.03" height="3.15" fill="#bbbdbf"/><polyline points="60.18 122 74.18 116 90.18 113 104.18 100 119.18 93 135.18 89" fill="none" stroke="#9dc5ff" stroke-linecap="round" stroke-linejoin="round" stroke-width="1.5"/><circle cx="59.5" cy="121.5" r="2.5" fill="#9dc5ff"/><circle cx="74.5" cy="115.5" r="2.5" fill="#9dc5ff"/><circle cx="89.5" cy="113.5" r="2.5" fill="#9dc5ff"/><circle cx="104.5" cy="99.5" r="2.5" fill="#9dc5ff"/><circle cx="119.5" cy="92.5" r="2.5" fill="#9dc5ff"/><circle cx="134.5" cy="89.5" r="2.5" fill="#9dc5ff"/><rect x="206.53" y="123.14" width="10.03" height="3.15" fill="#bbbdbf"/><rect x="206.53" y="106.34" width="10.03" height="3.15" fill="#bbbdbf"/><rect x="206.53" y="89.54" width="10.03" height="3.15" fill="#bbbdbf"/><rect x="206.53" y="72.74" width="10.03" height="3.15" fill="#bbbdbf"/><rect x="206.53" y="55.94" width="10.03" height="3.15" fill="#bbbdbf"/><rect x="206.53" y="39.14" width="10.03" height="3.15" fill="#bbbdbf"/><polyline points="221.18 34.56 221.18 124.56 311.18 124.56" fill="none" stroke="#0072bc" stroke-linecap="round" stroke-linejoin="round" stroke-width="1.5"/><polyline points="229.18 109.56 243.18 94.56 259.18 105.28 273.18 60.16 288.18 83 304.18 59" fill="none" stroke="#18375f" stroke-linecap="round" stroke-linejoin="round" stroke-width="1.5"/><polyline points="229.18 85 243.18 70 259.18 71 273.18 53 289 68 304.18 52" fill="none" stroke="#919191" stroke-linecap="round" stroke-linejoin="round" stroke-width="1.5"/><polyline points="229.18 95 243.18 83.56 259.18 88.28 273.18 46.16 288.18 58 304.18 41" fill="none" stroke="#00b398" stroke-linecap="round" stroke-linejoin="round" stroke-width="1.5"/><polyline points="229.18 116 243.18 101.56 259.18 95 273.18 76 288.18 74 304.18 78" fill="none" stroke="#0072bc" stroke-linecap="round" stroke-linejoin="round" stroke-width="1.5"/><polyline points="229.18 122 243.18 116 259.18 113 273.18 100 288.18 93 304.18 89" fill="none" stroke="#9dc5ff" stroke-linecap="round" stroke-linejoin="round" stroke-width="1.5"/><circle cx="228.72" cy="109.56" r="2.5" fill="#18375f"/><circle cx="228.5" cy="95.5" r="2.5" fill="#00b398"/><circle cx="228.5" cy="84.5" r="2.5" fill="#919191"/><circle cx="228.5" cy="115.5" r="2.5" fill="#0072bc"/><circle cx="228.5" cy="121.5" r="2.5" fill="#9dc5ff"/><circle cx="243.72" cy="94.56" r="2.5" fill="#18375f"/><circle cx="243.5" cy="101.5" r="2.5" fill="#0072bc"/><circle cx="243.5" cy="115.5" r="2.5" fill="#9dc5ff"/><circle cx="243.5" cy="83.5" r="2.5" fill="#00b398"/><circle cx="243.5" cy="70.5" r="2.5" fill="#919191"/><circle cx="258.72" cy="105.28" r="2.5" fill="#18375f"/><circle cx="258.5" cy="94.5" r="2.5" fill="#0072bc"/><circle cx="258.5" cy="88.5" r="2.5" fill="#00b398"/><circle cx="258.5" cy="70.5" r="2.5" fill="#919191"/><circle cx="258.5" cy="113.5" r="2.5" fill="#9dc5ff"/><circle cx="273.72" cy="60.16" r="2.5" fill="#18375f"/><circle cx="273.5" cy="53.5" r="2.5" fill="#919191"/><circle cx="273.5" cy="46.5" r="2.5" fill="#00b398"/><circle cx="273.5" cy="76.5" r="2.5" fill="#0072bc"/><circle cx="273.5" cy="99.5" r="2.5" fill="#9dc5ff"/><circle cx="288.72" cy="82.53" r="2.5" fill="#18375f"/><circle cx="288.5" cy="67.5" r="2.5" fill="#919191"/><circle cx="288.5" cy="57.5" r="2.5" fill="#00b398"/><circle cx="288.5" cy="92.5" r="2.5" fill="#9dc5ff"/><circle cx="303.72" cy="59.42" r="2.5" fill="#18375f"/><circle cx="303.5" cy="52.5" r="2.5" fill="#919191"/><circle cx="303.5" cy="41.5" r="2.5" fill="#00b398"/><circle cx="303.5" cy="78.5" r="2.5" fill="#0072bc"/><circle cx="303.5" cy="89.5" r="2.5" fill="#9dc5ff"/><rect x="223.71" y="130.14" width="10.03" height="3.15" fill="#bbbdbf"/><rect x="238.71" y="130.14" width="10.03" height="3.15" fill="#bbbdbf"/><rect x="268.71" y="130.14" width="10.03" height="3.15" fill="#bbbdbf"/><rect x="253.71" y="130.14" width="10.03" height="3.15" fill="#bbbdbf"/><rect x="283.71" y="130.14" width="10.03" height="3.15" fill="#bbbdbf"/><rect x="298.71" y="130.14" width="10.03" height="3.15" fill="#bbbdbf"/></svg>