<svg xmlns="http://www.w3.org/2000/svg" width="350" height="148" viewBox="0 0 350 148"><rect width="350" height="148" fill="#f1f2f2"/><path d="M31.92,21.87V14.54h2.5a3.56,3.56,0,0,1,3.76,3.67,3.54,3.54,0,0,1-3.76,3.66Zm5.32-3.66a2.69,2.69,0,0,0-2.82-2.86H32.83v5.71h1.59A2.7,2.7,0,0,0,37.24,18.21Z" fill="#0072bc"/><path d="M39.26,19.21a2.63,2.63,0,1,1,5.26,0,2.63,2.63,0,1,1-5.26,0Zm4.39,0a1.78,1.78,0,1,0-3.52,0,1.78,1.78,0,1,0,3.52,0Z" fill="#0072bc"/><circle cx="17.55" cy="17.55" r="7.55" fill="#9dc5ff"/><circle cx="17.55" cy="17.55" r="4.8" fill="#0072bc"/><polyline points="14.8 17.55 16.63 19.38 20.29 15.72" fill="none" stroke="#fff" stroke-linecap="round" stroke-linejoin="round" stroke-width="0.75"/><path d="M201.92,21.87V14.54h2.5a3.56,3.56,0,0,1,3.76,3.67,3.54,3.54,0,0,1-3.76,3.66Zm5.32-3.66a2.69,2.69,0,0,0-2.82-2.86h-1.59v5.71h1.59A2.7,2.7,0,0,0,207.24,18.21Z" fill="#ef4a60"/><path d="M209.26,19.21a2.63,2.63,0,1,1,5.26,0,2.63,2.63,0,1,1-5.26,0Zm4.39,0a1.78,1.78,0,1,0-3.52,0,1.78,1.78,0,1,0,3.52,0Z" fill="#ef4a60"/><path d="M219.44,21.87V18.4c0-.95-.48-1.23-1.19-1.23a2.06,2.06,0,0,0-1.57.82v3.88h-.83V16.56h.83v.77a2.58,2.58,0,0,1,1.9-.9,1.5,1.5,0,0,1,1.68,1.71v3.73Z" fill="#ef4a60"/><path d="M222.07,16.93l-.42-.35a1.65,1.65,0,0,0,.71-1l-.15,0a.53.53,0,0,1-.53-.56.6.6,0,0,1,.58-.59c.38,0,.7.3.7.84A2.14,2.14,0,0,1,222.07,16.93Z" fill="#ef4a60"/><path d="M224.54,20.76V17.29h-.88v-.73h.88V15.11h.83v1.45h1.08v.73h-1.08v3.29c0,.4.18.68.53.68a.75.75,0,0,0,.56-.23l.24.63a1.32,1.32,0,0,1-1,.34A1.08,1.08,0,0,1,224.54,20.76Z" fill="#ef4a60"/><circle cx="187.55" cy="17.55" r="7.55" fill="#ffbcc1"/><circle cx="187.55" cy="17.55" r="4.8" fill="#ef4a60"/><line x1="189.55" y1="15.55" x2="185.55" y2="19.55" fill="none" stroke="#fff" stroke-linecap="round" stroke-linejoin="round" stroke-width="0.75"/><line x1="189.55" y1="19.55" x2="185.55" y2="15.55" fill="none" stroke="#fff" stroke-linecap="round" stroke-linejoin="round" stroke-width="0.75"/><rect x="85.77" y="34" width="25.21" height="11.89" fill="#0072bc"/><rect x="60.01" y="61.35" width="25.21" height="11.89" fill="#0072bc"/><rect x="111.53" y="61.35" width="25.21" height="11.89" fill="#0072bc"/><rect x="43.26" y="87.73" width="25.21" height="11.89" fill="#0072bc"/><rect x="76.77" y="87.73" width="25.21" height="11.89" fill="#0072bc"/><rect x="43.26" y="87.73" width="25.21" height="11.89" fill="#0072bc"/><rect x="76.77" y="87.73" width="25.21" height="11.89" fill="#0072bc"/><rect x="111.53" y="87.73" width="25.21" height="11.89" fill="#0072bc"/><rect x="43.26" y="114.11" width="25.21" height="11.89" fill="#0072bc"/><rect x="76.77" y="114.11" width="25.21" height="11.89" fill="#0072bc"/><rect x="43.26" y="114.11" width="25.21" height="11.89" fill="#0072bc"/><rect x="76.77" y="114.11" width="25.21" height="11.89" fill="#0072bc"/><rect x="111.53" y="114.11" width="25.21" height="11.89" fill="#0072bc"/><path d="M72.62,62a.62.62,0,0,1-.62-.62V55.12a.62.62,0,0,1,.62-.62H97.76V45.89a.62.62,0,0,1,1.24,0v9.23a.62.62,0,0,1-.62.62H73.24v5.61A.62.62,0,0,1,72.62,62Z" fill="#0072bc"/><path d="M124.13,62a.61.61,0,0,1-.61-.62V55.74H98.38a.62.62,0,0,1-.62-.62V45.89a.62.62,0,0,1,1.24,0V54.5h25.13a.62.62,0,0,1,.62.62v6.23A.62.62,0,0,1,124.13,62Z" fill="#0072bc"/><path d="M72.62,80a.62.62,0,0,1-.62-.62V73.24a.62.62,0,0,1,1.24,0v6.11A.62.62,0,0,1,72.62,80Z" fill="#0072bc"/><path d="M124.13,88.35a.61.61,0,0,1-.61-.62V73.24a.62.62,0,1,1,1.23,0V87.73A.62.62,0,0,1,124.13,88.35Z" fill="#0072bc"/><path d="M124.13,114.73a.61.61,0,0,1-.61-.62V99.62a.62.62,0,1,1,1.23,0v14.49A.62.62,0,0,1,124.13,114.73Z" fill="#0072bc"/><path d="M89.37,114.73a.61.61,0,0,1-.61-.62V99.62a.62.62,0,1,1,1.23,0v14.49A.62.62,0,0,1,89.37,114.73Z" fill="#0072bc"/><path d="M55.86,114.73a.62.62,0,0,1-.62-.62V99.62a.62.62,0,1,1,1.24,0v14.49A.62.62,0,0,1,55.86,114.73Z" fill="#0072bc"/><path d="M55.86,88.35a.62.62,0,0,1-.62-.62V79.35a.62.62,0,0,1,.62-.62H72.62a.62.62,0,1,1,0,1.24H56.48v7.76A.62.62,0,0,1,55.86,88.35Z" fill="#0072bc"/><path d="M89.37,88.35a.61.61,0,0,1-.61-.62V80H72.62a.62.62,0,1,1,0-1.24H89.37a.62.62,0,0,1,.62.62v8.38A.62.62,0,0,1,89.37,88.35Z" fill="#0072bc"/><rect x="239.02" y="114.11" width="25.21" height="11.89" fill="#0072bc"/><rect x="264.78" y="86.76" width="25.21" height="11.89" fill="#0072bc"/><rect x="213.26" y="86.76" width="25.21" height="11.89" fill="#0072bc"/><rect x="281.53" y="60.38" width="25.21" height="11.89" fill="#0072bc"/><rect x="248.02" y="60.38" width="25.21" height="11.89" fill="#0072bc"/><rect x="281.53" y="60.38" width="25.21" height="11.89" fill="#0072bc"/><rect x="248.02" y="60.38" width="25.21" height="11.89" fill="#0072bc"/><rect x="213.26" y="60.38" width="25.21" height="11.89" fill="#0072bc"/><rect x="281.53" y="34" width="25.21" height="11.89" fill="#0072bc"/><rect x="248.02" y="34" width="25.21" height="11.89" fill="#0072bc"/><rect x="281.53" y="34" width="25.21" height="11.89" fill="#0072bc"/><rect x="248.02" y="34" width="25.21" height="11.89" fill="#0072bc"/><rect x="213.26" y="34" width="25.21" height="11.89" fill="#0072bc"/><path d="M277.38,98a.62.62,0,0,1,.62.62v6.23a.62.62,0,0,1-.62.62H252.24v8.61a.62.62,0,1,1-1.24,0v-9.23a.62.62,0,0,1,.62-.62h25.14V98.65A.62.62,0,0,1,277.38,98Z" fill="#0072bc"/><path d="M225.87,98a.61.61,0,0,1,.61.62v5.61h25.14a.62.62,0,0,1,.62.62v9.23a.62.62,0,1,1-1.24,0V105.5H225.87a.62.62,0,0,1-.62-.62V98.65A.62.62,0,0,1,225.87,98Z" fill="#0072bc"/><path d="M277.38,80a.62.62,0,0,1,.62.62v6.11a.62.62,0,1,1-1.24,0V80.65A.62.62,0,0,1,277.38,80Z" fill="#0072bc"/><path d="M225.87,71.65a.61.61,0,0,1,.61.62V86.76a.62.62,0,1,1-1.23,0V72.27A.62.62,0,0,1,225.87,71.65Z" fill="#0072bc"/><path d="M225.87,45.27a.61.61,0,0,1,.61.62V60.38a.62.62,0,1,1-1.23,0V45.89A.62.62,0,0,1,225.87,45.27Z" fill="#0072bc"/><path d="M260.63,45.27a.61.61,0,0,1,.61.62V60.38a.62.62,0,1,1-1.23,0V45.89A.62.62,0,0,1,260.63,45.27Z" fill="#0072bc"/><path d="M294.14,45.27a.62.62,0,0,1,.62.62V60.38a.62.62,0,0,1-1.24,0V45.89A.62.62,0,0,1,294.14,45.27Z" fill="#0072bc"/><path d="M294.14,71.65a.62.62,0,0,1,.62.62v8.38a.62.62,0,0,1-.62.62H277.38a.62.62,0,0,1,0-1.24h16.14V72.27A.62.62,0,0,1,294.14,71.65Z" fill="#0072bc"/><path d="M260.63,71.65a.61.61,0,0,1,.61.62V80h16.14a.62.62,0,0,1,0,1.24H260.63a.62.62,0,0,1-.62-.62V72.27A.62.62,0,0,1,260.63,71.65Z" fill="#0072bc"/></svg>