<svg xmlns="http://www.w3.org/2000/svg" width="350" height="148" viewBox="0 0 350 148"><rect width="350" height="148" fill="#f1f2f2"/><path d="M31.92,21.87V14.54h2.5a3.56,3.56,0,0,1,3.76,3.67,3.54,3.54,0,0,1-3.76,3.66Zm5.32-3.66a2.69,2.69,0,0,0-2.82-2.86H32.83v5.71h1.59A2.7,2.7,0,0,0,37.24,18.21Z" fill="#0072bc"/><path d="M39.26,19.21a2.63,2.63,0,1,1,5.26,0,2.63,2.63,0,1,1-5.26,0Zm4.39,0a1.78,1.78,0,1,0-3.52,0,1.78,1.78,0,1,0,3.52,0Z" fill="#0072bc"/><circle cx="17.55" cy="17.55" r="7.55" fill="#9dc5ff"/><circle cx="17.55" cy="17.55" r="4.8" fill="#0072bc"/><polyline points="14.8 17.55 16.63 19.38 20.29 15.72" fill="none" stroke="#fff" stroke-linecap="round" stroke-linejoin="round" stroke-width="0.75"/><path d="M201.92,21.87V14.54h2.5a3.56,3.56,0,0,1,3.76,3.67,3.54,3.54,0,0,1-3.76,3.66Zm5.32-3.66a2.69,2.69,0,0,0-2.82-2.86h-1.59v5.71h1.59A2.7,2.7,0,0,0,207.24,18.21Z" fill="#ef4a60"/><path d="M209.26,19.21a2.63,2.63,0,1,1,5.26,0,2.63,2.63,0,1,1-5.26,0Zm4.39,0a1.78,1.78,0,1,0-3.52,0,1.78,1.78,0,1,0,3.52,0Z" fill="#ef4a60"/><path d="M219.44,21.87V18.4c0-.95-.48-1.23-1.19-1.23a2.06,2.06,0,0,0-1.57.82v3.88h-.83V16.56h.83v.77a2.58,2.58,0,0,1,1.9-.9,1.5,1.5,0,0,1,1.68,1.71v3.73Z" fill="#ef4a60"/><path d="M222.07,16.93l-.42-.35a1.65,1.65,0,0,0,.71-1l-.15,0a.53.53,0,0,1-.53-.56.6.6,0,0,1,.58-.59c.38,0,.7.3.7.84A2.14,2.14,0,0,1,222.07,16.93Z" fill="#ef4a60"/><path d="M224.54,20.76V17.29h-.88v-.73h.88V15.11h.83v1.45h1.08v.73h-1.08v3.29c0,.4.18.68.53.68a.75.75,0,0,0,.56-.23l.24.63a1.32,1.32,0,0,1-1,.34A1.08,1.08,0,0,1,224.54,20.76Z" fill="#ef4a60"/><circle cx="187.55" cy="17.55" r="7.55" fill="#ffbcc1"/><circle cx="187.55" cy="17.55" r="4.8" fill="#ef4a60"/><line x1="189.55" y1="15.55" x2="185.55" y2="19.55" fill="none" stroke="#fff" stroke-linecap="round" stroke-linejoin="round" stroke-width="0.75"/><line x1="189.55" y1="19.55" x2="185.55" y2="15.55" fill="none" stroke="#fff" stroke-linecap="round" stroke-linejoin="round" stroke-width="0.75"/><g opacity="0.6"><circle cx="69.24" cy="93.29" r="28.24" fill="#18375f"/></g><g opacity="0.6"><circle cx="110.76" cy="93.29" r="28.24" fill="#00b398"/></g><g opacity="0.6"><circle cx="90" cy="57.71" r="28.24" fill="#0072bc"/></g><path d="M87.67,55.18l-.84,2.54H85.75l2.75-8.08h1.26l2.75,8.08H91.4l-.86-2.54Zm2.65-.81L89.53,52c-.18-.53-.3-1-.42-1.48h0c-.12.48-.25,1-.4,1.47l-.8,2.34Z" fill="#303030"/><path d="M64.36,90.75a9.84,9.84,0,0,1,1.91-.17,3.35,3.35,0,0,1,2.22.59,1.69,1.69,0,0,1,.67,1.43,1.92,1.92,0,0,1-1.37,1.77v0a2.09,2.09,0,0,1,1.67,2A2.21,2.21,0,0,1,68.78,98a4.06,4.06,0,0,1-2.8.76,11.75,11.75,0,0,1-1.62-.1Zm1,3.31h.94c1.11,0,1.75-.58,1.75-1.36,0-.94-.72-1.32-1.77-1.32a4,4,0,0,0-.92.08Zm0,3.87a5,5,0,0,0,.87,0c1.08,0,2.08-.39,2.08-1.57s-1-1.56-2.09-1.56h-.86Z" fill="#303030"/><path d="M117,98.46a5.2,5.2,0,0,1-2.13.38,3.78,3.78,0,0,1-4-4.09,4,4,0,0,1,4.22-4.24,4.22,4.22,0,0,1,1.92.36l-.25.85a3.8,3.8,0,0,0-1.63-.34A3,3,0,0,0,112,94.72a2.93,2.93,0,0,0,3.1,3.25,4,4,0,0,0,1.7-.34Z" fill="#303030"/><g opacity="0.6"><circle cx="239.24" cy="93.29" r="28.24" fill="#18375f"/></g><g opacity="0.6"><circle cx="280.76" cy="93.29" r="28.24" fill="#00b398"/></g><g opacity="0.6"><circle cx="260" cy="57.71" r="28.24" fill="#0072bc"/></g><path d="M258.67,71.18l-.84,2.54h-1.08l2.75-8.08h1.26l2.75,8.08H262.4l-.86-2.54Zm2.65-.81L260.53,68c-.18-.53-.3-1-.42-1.48h0c-.12.48-.25,1-.4,1.47l-.8,2.34Z" fill="#589be5"/><path d="M236.36,73.75a9.84,9.84,0,0,1,1.91-.17,3.35,3.35,0,0,1,2.22.59,1.69,1.69,0,0,1,.67,1.43,1.92,1.92,0,0,1-1.37,1.77v0a2.09,2.09,0,0,1,1.67,2,2.21,2.21,0,0,1-.68,1.62,4.06,4.06,0,0,1-2.8.76,11.75,11.75,0,0,1-1.62-.1Zm1,3.31h.94c1.11,0,1.75-.58,1.75-1.36,0-.94-.72-1.32-1.77-1.32a4,4,0,0,0-.92.08Zm0,3.87a5,5,0,0,0,.87,0c1.08,0,2.08-.39,2.08-1.57s-1-1.56-2.09-1.56h-.86Z" fill="#8395b9"/><path d="M271,98.46a5.2,5.2,0,0,1-2.13.38,3.78,3.78,0,0,1-4-4.09,4,4,0,0,1,4.22-4.24,4.22,4.22,0,0,1,1.92.36l-.25.85a3.8,3.8,0,0,0-1.63-.34A3,3,0,0,0,266,94.72a2.93,2.93,0,0,0,3.1,3.25,4,4,0,0,0,1.7-.34Z" fill="#00b398"/></svg>