<?xml version="1.0" encoding="UTF-8"?><svg id="a" xmlns="http://www.w3.org/2000/svg" width="48" height="40" viewBox="0 0 48 40"><g id="b"><g><path d="M45,0h-7V33h5c1.1,0,2,.9,2,2,0,.6-.2,1.1-.6,1.4-.3,.4-.8,.6-1.4,.6H3V8H35v-3H0V40H45c1.7,0,3-1.3,3-3V3c0-1.7-1.3-3-3-3Z" fill="#333"/><path d="M14,34c0,.6,.4,1,1,1h1c.6,0,1-.4,1-1v-2h1c.6,0,1-.4,1-1v-4h1c.6,0,1-.4,1-1v-1c0-.6-.4-1-1-1h-5v-2c.6,0,1-.4,1-1v-1h1c.6,0,1-.4,1-1v-2h1c.6,0,1-.4,1-1v-1c0-.6-.4-1-1-1h-5v-2c0-.6-.4-1-1-1h-3c-.6,0-1,.4-1,1v2h-2c-.6,0-1,.4-1,1v1c0,.6,.4,1,1,1h2v2c0,.6,.4,1,1,1h1v1c0,.6,.4,1,1,1v2h-1c-.6,0-1,.4-1,1v1c0,.6,.4,1,1,1h1v2c0,.6,.4,1,1,1h1v4Z" fill="#333"/><path d="M32,24h3V12h-9c-.6,0-1,.4-1,1v2c0,.6,.4,1,1,1h1v2h-3c-.6,0-1,.4-1,1v1c0,.6,.4,1,1,1h1v3h-1c-.6,0-1,.4-1,1v1c0,.6,.4,1,1,1h1v2c0,.6,.4,1,1,1h1v2c0,.6,.4,1,1,1h3c.6,0,1-.4,1-1v-3h1c.6,0,1-.4,1-1v-1c0-.6-.4-1-1-1h-1v-2Z" fill="#333"/></g></g></svg>