<svg xmlns="http://www.w3.org/2000/svg" width="41" height="40.95" viewBox="0 0 41 40.95"><path d="M39.21,3.5H24.38V0L0,3.76v33L24.38,41V35.77H39.21A1.71,1.71,0,0,0,41,34.16V5.1A1.7,1.7,0,0,0,39.21,3.5Zm.24,30.93H24.33l0-2.77H28V28.44H24.28l0-1.9H28V23.32H24.23V21.41H28V18.19H24.2v-1.9H28V13.07H24.2V11.16H28V7.94H24.2V5H39.45Z" fill="#333" fill-rule="evenodd"/><rect x="30" y="7.94" width="6.33" height="3.22" fill="#333"/><rect x="30" y="13.07" width="6.33" height="3.22" fill="#333"/><rect x="30" y="18.19" width="6.33" height="3.22" fill="#333"/><rect x="30" y="23.32" width="6.33" height="3.22" fill="#333"/><rect x="30" y="28.44" width="6.33" height="3.22" fill="#333"/><polygon points="6.37 12.67 9.51 12.49 11.48 17.93 13.82 12.27 16.96 12.09 13.14 19.8 16.96 27.53 13.64 27.31 11.39 21.41 9.15 27.08 6.1 26.81 9.64 19.98 6.37 12.67" fill="#fff" fill-rule="evenodd"/></svg>