<?xml version="1.0" encoding="utf-8"?>
<!-- Generator: Adobe Illustrator 26.1.0, SVG Export Plug-In . SVG Version: 6.00 Build 0)  -->
<svg version="1.1" id="Layer_1" xmlns="http://www.w3.org/2000/svg" xmlns:xlink="http://www.w3.org/1999/xlink" x="0px" y="0px"
	 viewBox="0 0 675 720" style="enable-background:new 0 0 675 720;" xml:space="preserve">
<style type="text/css">
	.st0{fill:#0072BB;}
	.st1{fill:#6099D1;}
	.st2{fill:#96BAE2;}
	.st3{fill:#DCE9FF;}
</style>
<g id="a">
</g>
<g id="b">
	<g>
		<g>
			<path class="st0" d="M212.9,445l-65.5,37.8c10.8,18.6,24,35.7,39.1,50.8l53.5-53.4C229.5,469.7,220.4,457.9,212.9,445L212.9,445z
				"/>
			<path class="st1" d="M195.9,404l-73.1,19.6c5.6,21,13.9,40.9,24.6,59.2l65.5-37.8C205.6,432.3,199.8,418.5,195.9,404L195.9,404z"
				/>
			<path class="st0" d="M190.1,360h-75.6c0,22,2.9,43.3,8.3,63.6l73.1-19.6C192.1,390,190.1,375.2,190.1,360z"/>
			<path class="st1" d="M195.9,316l-73.1-19.6c-5.4,20.3-8.3,41.6-8.3,63.6h75.6C190.1,344.8,192.1,330.1,195.9,316L195.9,316z"/>
			<path class="st1" d="M240,239.8l-53.5-53.4c-15.1,15.1-28.3,32.2-39.1,50.8l65.5,37.8C220.4,262.1,229.5,250.3,240,239.8
				L240,239.8z"/>
			<path class="st2" d="M316.2,195.8l-19.6-73c-21,5.6-40.9,13.9-59.2,24.6l37.8,65.5C287.9,205.5,301.7,199.7,316.2,195.8
				L316.2,195.8z"/>
			<path class="st0" d="M316.2,195.8c14-3.8,28.8-5.8,44-5.8v-75.6c-22,0-43.3,2.9-63.6,8.3L316.2,195.8L316.2,195.8z"/>
			<path class="st2" d="M316.2,524.2l-19.6,73c20.3,5.4,41.6,8.3,63.6,8.3V530C345,530,330.2,528,316.2,524.2L316.2,524.2z"/>
			<path class="st1" d="M507.5,275l65.5-37.8c-10.8-18.6-24-35.7-39.1-50.8l-53.5,53.4C490.9,250.3,500,262.1,507.5,275z"/>
			<path class="st2" d="M524.5,404l73.1,19.6c5.4-20.3,8.3-41.6,8.3-63.6h-75.6C530.3,375.2,528.3,389.9,524.5,404L524.5,404z"/>
			<path class="st1" d="M507.5,445l65.5,37.8c10.6-18.4,19-38.2,24.6-59.2L524.5,404C520.6,418.5,514.8,432.3,507.5,445z"/>
			<path class="st0" d="M480.5,480.2l53.5,53.4c15.1-15.1,28.3-32.2,39.1-50.8L507.5,445C500,457.9,490.9,469.7,480.5,480.2
				L480.5,480.2z"/>
			<path class="st0" d="M360.2,530v75.6c22,0,43.3-2.9,63.6-8.3l-19.6-73C390.2,528,375.5,530,360.2,530L360.2,530z"/>
			<path class="st1" d="M445.2,507.2l37.8,65.5c18.6-10.8,35.7-23.9,50.8-39.1l-53.5-53.4C470,490.6,458.1,499.7,445.2,507.2z"/>
			<path class="st0" d="M480.5,239.8l53.5-53.4c-15.1-15.1-32.2-28.3-50.9-39.1l-37.8,65.4C458.2,220.3,470,229.4,480.5,239.8
				L480.5,239.8z"/>
			<path class="st2" d="M330.9,469.5l-14.7,54.7c14,3.8,28.8,5.8,44,5.8v-56.7C350,473.3,340.2,472,330.9,469.5L330.9,469.5z"/>
			<path class="st1" d="M303.5,458.1l-28.3,49.1c12.7,7.4,26.5,13.1,41,17l14.7-54.7C321.2,466.9,312,463,303.5,458.1L303.5,458.1z"
				/>
			<path class="st0" d="M262,416.6L212.9,445c7.5,12.9,16.6,24.7,27,35.2l40.1-40.1C273.1,433.1,267,425.2,262,416.6z"/>
			<path class="st1" d="M250.7,389.3L195.9,404c3.9,14.5,9.7,28.3,17,41l49.1-28.3C257.1,408.2,253.3,399,250.7,389.3L250.7,389.3z"
				/>
			<path class="st0" d="M246.8,360h-56.7c0,15.2,2,30,5.8,44l54.8-14.7C248.2,380,246.8,370.1,246.8,360L246.8,360z"/>
			<path class="st2" d="M262,303.3L212.9,275c-7.4,12.7-13.1,26.5-17,41l54.8,14.7C253.3,321,257.1,311.8,262,303.3L262,303.3z"/>
			<path class="st1" d="M280.1,279.9L240,239.8c-10.5,10.5-19.6,22.3-27,35.2l49.1,28.3C267,294.8,273.1,286.9,280.1,279.9
				L280.1,279.9z"/>
			<path class="st0" d="M303.5,261.9l-28.3-49.1c-12.9,7.5-24.7,16.5-35.2,27l40.1,40.1C287,272.9,294.9,266.9,303.5,261.9z"/>
			<path class="st2" d="M303.5,261.9c8.5-4.9,17.7-8.8,27.3-11.4l-14.7-54.8c-14.5,3.9-28.3,9.7-41,17L303.5,261.9L303.5,261.9z"/>
			<path class="st0" d="M360.2,246.7V190c-15.2,0-30,2-44,5.8l14.7,54.8C340.2,248,350.1,246.7,360.2,246.7z"/>
			<path class="st1" d="M250.7,330.7L195.9,316c-3.8,14-5.8,28.8-5.8,44h56.7C246.8,349.9,248.2,340,250.7,330.7L250.7,330.7z"/>
			<path class="st2" d="M280.1,440.1L240,480.2c10.5,10.5,22.3,19.6,35.2,27l28.3-49.1C294.9,453.2,287,447.1,280.1,440.1
				L280.1,440.1z"/>
			<path class="st1" d="M416.9,261.9l28.3-49.1c-12.7-7.4-26.5-13.1-41-17l-14.7,54.7C399.2,253.1,408.4,257,416.9,261.9
				L416.9,261.9z"/>
			<path class="st0" d="M440.4,279.9l40.1-40.1c-10.5-10.5-22.3-19.6-35.2-27l-28.3,49.1C425.5,266.8,433.4,272.9,440.4,279.9
				L440.4,279.9z"/>
			<path class="st3" d="M473.6,360h56.7c0-15.2-2-30-5.8-44l-54.8,14.7C472.3,340,473.6,349.9,473.6,360z"/>
			<path class="st2" d="M469.8,389.3l54.8,14.7c3.8-14,5.8-28.8,5.8-44h-56.7C473.6,370.1,472.3,380,469.8,389.3L469.8,389.3z"/>
			<path class="st1" d="M458.4,416.7l49.1,28.3c7.4-12.7,13.1-26.5,17-41l-54.8-14.7C467.2,399,463.3,408.2,458.4,416.7L458.4,416.7
				z"/>
			<path class="st0" d="M360.2,473.3V530c15.2,0,30-2,44-5.8l-14.7-54.8C380.2,472,370.4,473.3,360.2,473.3L360.2,473.3z"/>
			<path class="st3" d="M389.6,469.5l14.7,54.7c14.5-3.9,28.3-9.7,41-17l-28.3-49.1C408.4,463,399.2,466.9,389.6,469.5L389.6,469.5z
				"/>
			<path class="st1" d="M416.9,458.1l28.3,49.1c12.9-7.5,24.7-16.5,35.2-27l-40.1-40.1C433.4,447.1,425.5,453.1,416.9,458.1z"/>
			<path class="st0" d="M440.4,440.1l40.1,40.1c10.5-10.5,19.6-22.3,27-35.2l-49.1-28.3C453.4,425.2,447.3,433.1,440.4,440.1
				L440.4,440.1z"/>
			<path class="st0" d="M469.7,330.7l54.8-14.7c-3.9-14.5-9.7-28.3-17-41l-49.1,28.3C463.3,311.8,467.1,321,469.7,330.7L469.7,330.7
				z"/>
			<path class="st1" d="M458.4,303.4l49.1-28.3c-7.5-12.9-16.6-24.7-27-35.2l-40.1,40.1C447.3,286.9,453.4,294.8,458.4,303.4z"/>
			<path class="st2" d="M389.6,250.5l14.7-54.7c-14-3.8-28.8-5.8-44-5.8v56.7C370.4,246.7,380.2,248,389.6,250.5L389.6,250.5z"/>
		</g>
		<path class="st0" d="M296.7,122.8c20.3-5.4,41.6-8.3,63.5-8.3V20c-30.4,0-59.9,4-88,11.5L296.7,122.8z"/>
		<path class="st0" d="M423.8,597.2l24.5,91.2L423.8,597.2c-20.3,5.4-41.6,8.3-63.6,8.3V700c30.5,0,60-4,88.1-11.5L423.8,597.2
			C423.9,597.2,423.8,597.2,423.8,597.2L423.8,597.2z"/>
		<path class="st0" d="M573,482.8l81.9,47.2L573,482.8c-10.8,18.6-24,35.7-39.1,50.8l66.9,66.8c21-21,39.3-44.7,54.2-70.6
			l-81.9-47.3C573.1,482.6,573,482.7,573,482.8L573,482.8z"/>
		<path class="st0" d="M114.5,360H20c0,30.4,4,59.8,11.5,87.8l91.3-24.5C117.4,403.1,114.5,381.9,114.5,360L114.5,360z"/>
		<path class="st0" d="M65.4,529.8c14.9,25.9,33.2,49.6,54.2,70.6l66.9-66.8c-15.1-15.1-28.3-32.2-39.1-50.8L65.6,530l81.8-47.2
			c0-0.1-0.1-0.1-0.1-0.2L65.4,529.8L65.4,529.8z"/>
		<path class="st0" d="M533.8,186.3l66.9-66.8c-20.9-20.9-44.5-39.1-70.3-53.9L483,147.4C501.6,158.1,518.7,171.2,533.8,186.3
			L533.8,186.3z"/>
	</g>
</g>
</svg>
