<svg xmlns="http://www.w3.org/2000/svg" width="1920" height="1440" viewBox="0 0 1920 1440"><rect x="-58.29" width="2036.57" height="1440" fill="#0072bc"/><path d="M164.27,565V528.09H177.5v36.4c0,8.55,5,14.43,14.43,14.43s14.34-5.88,14.34-14.43v-36.4H219.6v36.77c0,15.26-9,25.64-27.67,25.64S164.27,580,164.27,565Z" fill="#fff"/><path d="M273.93,589.4l-29.23-40v40h-13V528.09h13.42l28.4,38.51V528.09h13V589.4Z" fill="#fff"/><path d="M340.66,589.4V563.66h-29V589.4h-13V528.09h13v24.08h29V528.09h13.15V589.4Z" fill="#fff"/><path d="M362.91,558.79c0-18.84,14.25-31.71,32.63-31.71,13.51,0,21.33,7.35,25.65,15L410,547.58a16.6,16.6,0,0,0-14.43-8.92c-11.12,0-19.21,8.55-19.21,20.13s8.09,20.13,19.21,20.13A16.43,16.43,0,0,0,410,570l11.22,5.43c-4.41,7.63-12.14,15.07-25.65,15.07C377.16,590.5,362.91,577.63,362.91,558.79Z" fill="#fff"/><path d="M463.66,589.4l-12-21.79h-9.56V589.4H429V528.09h28.68c12.78,0,20.59,8.36,20.59,19.76,0,10.85-6.8,16.64-13.42,18.2l13.79,23.35Zm1.28-41.55c0-5.14-3.95-8.27-9.19-8.27H442.06v16.54h13.69C461,556.12,464.94,553,464.94,547.85Z" fill="#fff"/><path d="M511.64,589.4V528.09h24.18c19.21,0,32.54,12.22,32.54,30.7S555,589.4,535.82,589.4ZM555,558.79c0-10.85-6.62-19.21-19.21-19.21H524.69v38.33h11.13C548,577.91,555,569.18,555,558.79Z" fill="#fff"/><path d="M604,589.4v-4.6c-3,3.59-8.27,5.7-14.06,5.7-7.08,0-15.44-4.78-15.44-14.71,0-10.38,8.36-14.33,15.44-14.33,5.88,0,11.12,1.93,14.06,5.42v-6c0-4.5-3.86-7.44-9.74-7.44a18.69,18.69,0,0,0-13,5.24l-4.41-7.81a29.12,29.12,0,0,1,19.39-7c10.11,0,19.4,4,19.4,16.82V589.4Zm0-10.66v-5.52c-1.93-2.57-5.6-3.86-9.37-3.86-4.6,0-8.37,2.39-8.37,6.71,0,4.14,3.77,6.53,8.37,6.53C598.42,582.6,602.09,581.31,604,578.74Z" fill="#fff"/><path d="M629.58,578.37V555.21h-7.35V545h7.35V532.87h11.76V545h9v10.21h-9v20c0,2.76,1.47,4.88,4,4.88a6.37,6.37,0,0,0,4-1.29l2.49,8.82c-1.75,1.57-4.88,2.85-9.75,2.85C634,590.5,629.58,586.27,629.58,578.37Z" fill="#fff"/><path d="M685,589.4v-4.6c-3,3.59-8.28,5.7-14.07,5.7-7.07,0-15.44-4.78-15.44-14.71,0-10.38,8.37-14.33,15.44-14.33,5.89,0,11.13,1.93,14.07,5.42v-6c0-4.5-3.86-7.44-9.75-7.44a18.69,18.69,0,0,0-13,5.24l-4.41-7.81a29.13,29.13,0,0,1,19.4-7c10.11,0,19.39,4,19.39,16.82V589.4Zm0-10.66v-5.52c-1.93-2.57-5.61-3.86-9.38-3.86-4.59,0-8.36,2.39-8.36,6.71,0,4.14,3.77,6.53,8.36,6.53C679.4,582.6,683.08,581.31,685,578.74Z" fill="#fff"/><path d="M749.26,589.4l-23.71-61.31h14.89l17,47.15,16.92-47.15h14.89L765.62,589.4Z" fill="#fff"/><path d="M793.48,533.24a7,7,0,1,1,7,7A7,7,0,0,1,793.48,533.24Zm1.19,56.16V545h11.68v44.4Z" fill="#fff"/><path d="M814.07,583.61l5-8.18a25.45,25.45,0,0,0,15.35,6.06c5.06,0,7.45-2,7.45-4.78,0-3-4-3.86-8.92-4.78-7.63-1.47-17.46-3.4-17.46-14.06,0-7.44,6.52-14,18.2-14A28.3,28.3,0,0,1,851.66,550L847,558c-2.66-2.85-7.72-5.14-13.14-5.14-4.23,0-7,1.93-7,4.41s3.5,3.31,8.46,4.32c7.63,1.47,17.83,3.58,17.83,14.7,0,8.09-6.89,14.25-19.21,14.25C826.2,590.5,818.76,587.93,814.07,583.61Z" fill="#fff"/><path d="M891.74,589.4v-5.61a20.77,20.77,0,0,1-15.63,6.71c-9.74,0-14.34-5.33-14.34-14V545h11.68v26.93c0,6.16,3.22,8.19,8.18,8.19a13.08,13.08,0,0,0,10.11-5.06V545h11.67v44.4Z" fill="#fff"/><path d="M941.65,589.4v-4.6c-3,3.59-8.27,5.7-14.06,5.7-7.08,0-15.44-4.78-15.44-14.71,0-10.38,8.36-14.33,15.44-14.33,5.88,0,11.12,1.93,14.06,5.42v-6c0-4.5-3.86-7.44-9.74-7.44a18.69,18.69,0,0,0-13,5.24l-4.41-7.81a29.12,29.12,0,0,1,19.39-7c10.11,0,19.4,4,19.4,16.82V589.4Zm0-10.66v-5.52c-1.93-2.57-5.6-3.86-9.37-3.86-4.6,0-8.37,2.39-8.37,6.71,0,4.14,3.77,6.53,8.37,6.53C936.05,582.6,939.72,581.31,941.65,578.74Z" fill="#fff"/><path d="M964.91,589.4V528.09h11.68V589.4Z" fill="#fff"/><path d="M987,533.24a7,7,0,1,1,7,7A7,7,0,0,1,987,533.24Zm1.2,56.16V545h11.67v44.4Z" fill="#fff"/><path d="M1009.49,589.4v-8.73l20-25.46h-20V545h35.85v8.46L1025,579.2h20.68v10.2Z" fill="#fff"/><path d="M1082.11,589.4v-4.6c-3,3.59-8.27,5.7-14.06,5.7-7.08,0-15.44-4.78-15.44-14.71,0-10.38,8.36-14.33,15.44-14.33,5.88,0,11.12,1.93,14.06,5.42v-6c0-4.5-3.86-7.44-9.74-7.44a18.69,18.69,0,0,0-13,5.24l-4.41-7.81a29.1,29.1,0,0,1,19.39-7c10.11,0,19.4,4,19.4,16.82V589.4Zm0-10.66v-5.52c-1.93-2.57-5.61-3.86-9.37-3.86-4.6,0-8.37,2.39-8.37,6.71,0,4.14,3.77,6.53,8.37,6.53C1076.5,582.6,1080.18,581.31,1082.11,578.74Z" fill="#fff"/><path d="M1107.67,578.37V555.21h-7.36V545h7.36V532.87h11.76V545h9v10.21h-9v20c0,2.76,1.47,4.88,4,4.88a6.39,6.39,0,0,0,4-1.29l2.48,8.82c-1.74,1.57-4.87,2.85-9.74,2.85C1112.08,590.5,1107.67,586.27,1107.67,578.37Z" fill="#fff"/><path d="M1135.24,533.24a7,7,0,1,1,7,7A7,7,0,0,1,1135.24,533.24Zm1.2,56.16V545h11.67v44.4Z" fill="#fff"/><path d="M1156.85,567.16c0-12.6,8.82-23.26,23.44-23.26s23.53,10.66,23.53,23.26-8.83,23.34-23.53,23.34S1156.85,579.84,1156.85,567.16Zm34.83,0c0-6.9-4.13-12.87-11.39-12.87s-11.31,6-11.31,12.87,4,13,11.31,13S1191.68,574.14,1191.68,567.16Z" fill="#fff"/><path d="M1242.42,589.4V562.56c0-6.16-3.21-8.27-8.18-8.27a12.64,12.64,0,0,0-10.11,5.24V589.4h-11.67V545h11.67v5.79a20.35,20.35,0,0,1,15.54-6.89c9.74,0,14.43,5.52,14.43,14.15V589.4Z" fill="#fff"/><path d="M1286.55,558.79c0-19.39,14.71-31.71,32.63-31.71,12.78,0,20.77,6.43,25.37,13.69l-10.85,5.89a17.34,17.34,0,0,0-14.52-8c-11.12,0-19.21,8.55-19.21,20.13s8.09,20.13,19.21,20.13a20.66,20.66,0,0,0,13-4.69v-7.35h-16.18v-11.4h29.24V579a34,34,0,0,1-26.11,11.58C1301.26,590.59,1286.55,578.09,1286.55,558.79Z" fill="#fff"/><path d="M1385.36,589.4v-5.61a20.76,20.76,0,0,1-15.62,6.71c-9.75,0-14.34-5.33-14.34-14V545h11.67v26.93c0,6.16,3.22,8.19,8.18,8.19a13.07,13.07,0,0,0,10.11-5.06V545H1397v44.4Z" fill="#fff"/><path d="M1407.43,533.24a7,7,0,1,1,7,7A7,7,0,0,1,1407.43,533.24Zm1.19,56.16V545h11.68v44.4Z" fill="#fff"/><path d="M1462.39,589.4v-5.7a17.23,17.23,0,0,1-13.69,6.8c-11.22,0-19.67-8.45-19.67-23.25,0-14.53,8.36-23.35,19.67-23.35a17.09,17.09,0,0,1,13.69,6.8V528.09h11.77V589.4Zm0-14.34V559.34c-1.93-2.94-6.15-5.05-10.11-5.05-6.61,0-11.21,5.24-11.21,13s4.6,12.87,11.21,12.87C1456.24,580.12,1460.46,578,1462.39,575.06Z" fill="#fff"/><path d="M1482.9,567.16c0-12.87,9.46-23.26,23-23.26,13.23,0,22.24,9.93,22.24,24.45v2.57h-33c.74,5.61,5.24,10.3,12.78,10.3,3.77,0,9-1.66,11.85-4.41l5.15,7.53c-4.41,4-11.4,6.16-18.29,6.16C1493.1,590.5,1482.9,581.4,1482.9,567.16Zm23-14c-7.27,0-10.39,5.43-10.94,9.84h21.87C1516.54,558.79,1513.6,553.18,1505.88,553.18Z" fill="#fff"/><path d="M1536.58,589.4V528.09h11.67V589.4Z" fill="#fff"/><path d="M1558.64,533.24a7,7,0,1,1,7,7A7,7,0,0,1,1558.64,533.24Zm1.19,56.16V545h11.68v44.4Z" fill="#fff"/><path d="M1613.06,589.4V562.56c0-6.16-3.22-8.27-8.18-8.27a12.64,12.64,0,0,0-10.12,5.24V589.4h-11.67V545h11.67v5.79a20.35,20.35,0,0,1,15.54-6.89c9.74,0,14.43,5.52,14.43,14.15V589.4Z" fill="#fff"/><path d="M1633.46,567.16c0-12.87,9.47-23.26,23-23.26,13.24,0,22.25,9.93,22.25,24.45v2.57h-33c.73,5.61,5.24,10.3,12.78,10.3,3.76,0,9-1.66,11.85-4.41l5.15,7.53c-4.41,4-11.4,6.16-18.29,6.16C1643.67,590.5,1633.46,581.4,1633.46,567.16Zm23-14c-7.26,0-10.38,5.43-10.94,9.84h21.88C1667.11,558.79,1664.17,553.18,1656.44,553.18Z" fill="#fff"/><path d="M1683.29,583.61l5-8.18a25.45,25.45,0,0,0,15.35,6.06c5.06,0,7.45-2,7.45-4.78,0-3-4.05-3.86-8.92-4.78-7.63-1.47-17.46-3.4-17.46-14.06,0-7.44,6.52-14,18.2-14a28.32,28.32,0,0,1,17.92,6.07l-4.69,8c-2.66-2.85-7.72-5.14-13.14-5.14-4.23,0-7,1.93-7,4.41s3.5,3.31,8.46,4.32c7.63,1.47,17.83,3.58,17.83,14.7,0,8.09-6.89,14.25-19.21,14.25C1695.42,590.5,1688,587.93,1683.29,583.61Z" fill="#fff"/><line x1="158.2" y1="642.73" x2="1722.9" y2="642.73" fill="none" stroke="#fff" stroke-miterlimit="10" stroke-width="0.5"/><rect x="182.39" y="806.78" width="23.56" height="42.38" fill="#fff"/><rect x="214.72" y="766.78" width="23.56" height="82.38" fill="#fff"/><rect x="247.99" y="744.78" width="23.56" height="104.38" fill="#fff"/><rect x="282.2" y="723.37" width="23.56" height="125.79" fill="#fff"/><line x1="686.5" y1="775.86" x2="733.77" y2="727.89" fill="#fff" stroke="#fff" stroke-miterlimit="10"/><line x1="733.77" y1="727.89" x2="781.04" y2="782.48" fill="#fff" stroke="#fff" stroke-miterlimit="10"/><line x1="781.04" y1="782.48" x2="828.31" y2="739.56" fill="#fff" stroke="#fff" stroke-miterlimit="10"/><line x1="828.31" y1="739.56" x2="875.58" y2="795.17" fill="#fff" stroke="#fff" stroke-miterlimit="10"/><line x1="686.5" y1="808.34" x2="733.77" y2="789.54" fill="#fff" stroke="#fff" stroke-miterlimit="10"/><line x1="733.77" y1="789.54" x2="781.04" y2="720.36" fill="#fff" stroke="#fff" stroke-miterlimit="10"/><line x1="781.04" y1="720.36" x2="828.31" y2="775.61" fill="#fff" stroke="#fff" stroke-miterlimit="10"/><line x1="828.31" y1="775.61" x2="875.58" y2="760.4" fill="#fff" stroke="#fff" stroke-miterlimit="10"/><line x1="686.5" y1="838.29" x2="733.77" y2="827.05" fill="#fff" stroke="#fff" stroke-miterlimit="10"/><line x1="733.77" y1="827.05" x2="781.04" y2="820.87" fill="#fff" stroke="#fff" stroke-miterlimit="10"/><line x1="781.04" y1="820.87" x2="828.31" y2="800.34" fill="#fff" stroke="#fff" stroke-miterlimit="10"/><line x1="828.31" y1="800.34" x2="875.58" y2="808.34" fill="#fff" stroke="#fff" stroke-miterlimit="10"/><ellipse cx="684.97" cy="838.29" rx="3.63" ry="3.91" fill="#fff" stroke="#fff" stroke-miterlimit="10"/><ellipse cx="685.4" cy="808.13" rx="3.63" ry="3.91" fill="#fff" stroke="#fff" stroke-miterlimit="10"/><ellipse cx="732.2" cy="790.77" rx="3.63" ry="3.91" fill="#fff" stroke="#fff" stroke-miterlimit="10"/><ellipse cx="733.77" cy="727.89" rx="3.63" ry="3.91" fill="#fff" stroke="#fff" stroke-miterlimit="10"/><ellipse cx="781.07" cy="720.31" rx="3.63" ry="3.91" fill="#fff" stroke="#fff" stroke-miterlimit="10"/><ellipse cx="828.34" cy="775.57" rx="3.63" ry="3.91" fill="#fff" stroke="#fff" stroke-miterlimit="10"/><ellipse cx="828.34" cy="739.56" rx="3.63" ry="3.91" fill="#fff" stroke="#fff" stroke-miterlimit="10"/><ellipse cx="874.01" cy="759.78" rx="3.63" ry="3.91" fill="#fff" stroke="#fff" stroke-miterlimit="10"/><ellipse cx="874.01" cy="795.17" rx="3.63" ry="3.91" fill="#fff" stroke="#fff" stroke-miterlimit="10"/><ellipse cx="685.4" cy="775.25" rx="3.63" ry="3.91" fill="#fff" stroke="#fff" stroke-miterlimit="10"/><ellipse cx="733.77" cy="827.05" rx="3.63" ry="3.91" fill="#fff" stroke="#fff" stroke-miterlimit="10"/><ellipse cx="781.04" cy="820.87" rx="3.63" ry="3.91" fill="#fff" stroke="#fff" stroke-miterlimit="10"/><ellipse cx="781.04" cy="782.48" rx="3.63" ry="3.91" fill="#fff" stroke="#fff" stroke-miterlimit="10"/><ellipse cx="828.31" cy="800.34" rx="3.63" ry="3.91" fill="#fff" stroke="#fff" stroke-miterlimit="10"/><ellipse cx="874.01" cy="809.14" rx="3.63" ry="3.91" fill="#fff" stroke="#fff" stroke-miterlimit="10"/><rect x="1584.89" y="715.25" width="25.16" height="25.16" fill="#d1dff2" stroke="#fff" stroke-miterlimit="10"/><rect x="1610.05" y="715.25" width="25.16" height="25.16" fill="#d1dff2" stroke="#fff" stroke-miterlimit="10"/><rect x="1635.21" y="715.25" width="25.16" height="25.16" fill="#a2c1e5" stroke="#fff" stroke-miterlimit="10"/><rect x="1660.37" y="715.25" width="25.16" height="25.16" fill="#a2c1e5" stroke="#fff" stroke-miterlimit="10"/><rect x="1685.52" y="715.25" width="25.16" height="25.16" fill="#d1dff2" stroke="#fff" stroke-miterlimit="10"/><rect x="1584.89" y="740.4" width="25.16" height="25.16" fill="#d1dff2" stroke="#fff" stroke-miterlimit="10"/><rect x="1610.05" y="740.4" width="25.16" height="25.16" fill="#4c8bc9" stroke="#fff" stroke-miterlimit="10"/><rect x="1635.21" y="740.4" width="25.16" height="25.16" fill="#0072bc" stroke="#fff" stroke-miterlimit="10"/><rect x="1660.37" y="740.4" width="25.16" height="25.16" fill="#4c8bc9" stroke="#fff" stroke-miterlimit="10"/><rect x="1685.52" y="740.4" width="25.16" height="25.16" fill="#d1dff2" stroke="#fff" stroke-miterlimit="10"/><rect x="1584.89" y="765.56" width="25.16" height="25.16" fill="#a2c1e5" stroke="#fff" stroke-miterlimit="10"/><rect x="1610.05" y="765.56" width="25.16" height="25.16" fill="#0072bc" stroke="#fff" stroke-miterlimit="10"/><rect x="1635.21" y="765.56" width="25.16" height="25.16" fill="#0072bc" stroke="#fff" stroke-miterlimit="10"/><rect x="1660.37" y="765.56" width="25.16" height="25.16" fill="#0072bc" stroke="#fff" stroke-miterlimit="10"/><rect x="1685.52" y="765.56" width="25.16" height="25.16" fill="#a2c1e5" stroke="#fff" stroke-miterlimit="10"/><rect x="1584.89" y="790.72" width="25.16" height="25.16" fill="#d1dff2" stroke="#fff" stroke-miterlimit="10"/><rect x="1610.05" y="790.72" width="25.16" height="25.16" fill="#a2c1e5" stroke="#fff" stroke-miterlimit="10"/><rect x="1635.21" y="790.72" width="25.16" height="25.16" fill="#4c8bc9" stroke="#fff" stroke-miterlimit="10"/><rect x="1660.37" y="790.72" width="25.16" height="25.16" fill="#4c8bc9" stroke="#fff" stroke-miterlimit="10"/><rect x="1685.52" y="790.72" width="25.16" height="25.16" fill="#a2c1e5" stroke="#fff" stroke-miterlimit="10"/><rect x="1584.89" y="815.88" width="25.16" height="25.16" fill="#d1dff2" stroke="#fff" stroke-miterlimit="10"/><rect x="1610.05" y="815.88" width="25.16" height="25.16" fill="#d1dff2" stroke="#fff" stroke-miterlimit="10"/><rect x="1635.21" y="815.88" width="25.16" height="25.16" fill="#a2c1e5" stroke="#fff" stroke-miterlimit="10"/><rect x="1660.37" y="815.88" width="25.16" height="25.16" fill="#a2c1e5" stroke="#fff" stroke-miterlimit="10"/><rect x="1685.52" y="815.88" width="25.16" height="25.16" fill="#d1dff2" stroke="#fff" stroke-miterlimit="10"/><rect x="443.85" y="809.88" width="24.02" height="38.3" transform="translate(-373.17 1284.88) rotate(-90)" fill="#fff"/><rect x="461.92" y="758.83" width="24.02" height="74.46" transform="translate(-322.13 1269.99) rotate(-90)" fill="#fff"/><rect x="471.87" y="714.97" width="24.02" height="94.35" transform="translate(-278.26 1246.02) rotate(-90)" fill="#fff"/><rect x="481.54" y="670.41" width="24.02" height="113.7" transform="translate(-233.7 1220.81) rotate(-90)" fill="#fff"/><path d="M1391.06,778.13l-59.81,19.44a62.9,62.9,0,0,1,40.38-79.25,60,60,0,0,1,19.43-3.07Z" fill="#fff" stroke="#0072bb" stroke-miterlimit="10" stroke-width="1.5"/><path d="M1391.06,778.13V841c-27.78,0-51.22-17-59.81-43.45Z" fill="#fff" stroke="#0072bb" stroke-miterlimit="10" stroke-width="1.5"/><path d="M1391.06,778.13V715.25a62.89,62.89,0,1,1,0,125.77h0Z" fill="#fff" stroke="#0072bb" stroke-miterlimit="10" stroke-width="1.5"/><circle cx="1390.99" cy="778.1" r="35.77" fill="#0072bc"/><polygon points="1197.22 842.2 1008.58 842.2 1008.58 781.46 1018.01 788.55 1027.44 782.69 1036.87 776.52 1046.31 776.83 1055.74 765.12 1065.17 765.12 1074.6 766.35 1084.03 764.19 1093.46 770.36 1102.9 766.97 1112.33 762.03 1121.76 762.03 1131.19 758.95 1140.63 757.41 1150.06 760.8 1159.49 753.4 1168.92 739.53 1178.35 725.04 1187.79 716.4 1197.22 717.95 1197.22 842.2" fill="#d1ddf0"/><polygon points="1197.22 842.2 1008.58 842.2 1008.58 827.09 1018.01 828.01 1027.44 826.47 1036.87 829.86 1046.31 823.7 1055.74 826.47 1065.17 828.01 1074.6 829.25 1084.03 825.55 1093.46 821.85 1102.9 802.73 1112.33 799.96 1121.76 797.8 1131.19 794.1 1140.63 796.87 1150.06 794.41 1159.49 787.62 1168.92 768.51 1178.35 742.61 1187.79 726.58 1197.22 729.35 1197.22 842.2" fill="#fff"/><path d="M159.58,1328.44l1.78-2.29a10.21,10.21,0,0,0,7.62,3.45c4.31,0,5.69-2.32,5.69-4.18,0-2.9-2.94-3.7-6.13-4.57-3.88-1-8.2-2.1-8.2-6.85,0-4,3.56-6.72,8.31-6.72a11.38,11.38,0,0,1,8.6,3.38l-1.81,2.21a9.3,9.3,0,0,0-7-2.9c-2.9,0-5,1.56-5,3.84,0,2.44,2.8,3.16,5.88,4,3.95,1,8.45,2.28,8.45,7.36,0,3.52-2.39,7.11-8.92,7.11A12,12,0,0,1,159.58,1328.44Z" fill="#fff"/><path d="M181.17,1323.07c0-5.08,3.63-9.18,8.63-9.18,5.3,0,8.42,4.13,8.42,9.39v.69H184a6.16,6.16,0,0,0,6.31,6.06,7.66,7.66,0,0,0,5.41-2.21l1.3,1.78a9.52,9.52,0,0,1-7,2.68C184.91,1332.28,181.17,1328.55,181.17,1323.07Zm8.6-6.93c-3.74,0-5.59,3.15-5.73,5.84h11.5A5.68,5.68,0,0,0,189.77,1316.14Z" fill="#fff"/><path d="M205.33,1329.2v9.32h-2.72v-24.2h2.72v2.61a7.35,7.35,0,0,1,5.92-3c4.61,0,7.8,3.48,7.8,9.18s-3.19,9.21-7.8,9.21A7.19,7.19,0,0,1,205.33,1329.2Zm10.85-6.13c0-3.89-2.1-6.75-5.62-6.75a6.51,6.51,0,0,0-5.23,2.79V1327a6.51,6.51,0,0,0,5.23,2.83C214.08,1329.85,216.18,1327,216.18,1323.07Z" fill="#fff"/><path d="M223.91,1328.18v-11.46H221v-2.4h2.9v-4.79h2.72v4.79h3.56v2.4h-3.56v10.88c0,1.31.58,2.25,1.78,2.25a2.62,2.62,0,0,0,1.85-.72l.8,2a4.46,4.46,0,0,1-3.26,1.12C225.22,1332.28,223.91,1330.79,223.91,1328.18Z" fill="#fff"/><path d="M233,1323.07c0-5.08,3.63-9.18,8.64-9.18,5.29,0,8.41,4.13,8.41,9.39v.69H235.89a6.16,6.16,0,0,0,6.31,6.06,7.64,7.64,0,0,0,5.41-2.21l1.3,1.78a9.52,9.52,0,0,1-7,2.68C236.76,1332.28,233,1328.55,233,1323.07Zm8.6-6.93c-3.74,0-5.59,3.15-5.73,5.84h11.5A5.68,5.68,0,0,0,241.62,1316.14Z" fill="#fff"/><path d="M275.62,1331.85V1320c0-2.22-1-3.63-3.23-3.63a6.11,6.11,0,0,0-4.64,2.68v12.85H265V1320c0-2.22-.94-3.63-3.23-3.63a6.1,6.1,0,0,0-4.6,2.72v12.81h-2.73v-17.53h2.73v2.54a7.57,7.57,0,0,1,5.66-3,4.49,4.49,0,0,1,4.71,3.26,7.39,7.39,0,0,1,5.88-3.26c3.19,0,4.9,1.77,4.9,5.29v12.67Z" fill="#fff"/><path d="M283.78,1331.85v-24.2h2.72V1317a7.29,7.29,0,0,1,5.92-3.08c4.57,0,7.8,3.62,7.8,9.21s-3.23,9.18-7.8,9.18a7.41,7.41,0,0,1-5.92-3v2.61Zm8-2c3.56,0,5.66-2.86,5.66-6.75s-2.1-6.78-5.66-6.78a6.51,6.51,0,0,0-5.23,2.83v7.94A6.46,6.46,0,0,0,291.73,1329.85Z" fill="#fff"/><path d="M303.63,1323.07c0-5.08,3.63-9.18,8.64-9.18,5.3,0,8.42,4.13,8.42,9.39v.69H306.5a6.17,6.17,0,0,0,6.31,6.06,7.64,7.64,0,0,0,5.41-2.21l1.3,1.78a9.52,9.52,0,0,1-7,2.68C307.37,1332.28,303.63,1328.55,303.63,1323.07Zm8.6-6.93c-3.74,0-5.59,3.15-5.73,5.84H318A5.68,5.68,0,0,0,312.23,1316.14Z" fill="#fff"/><path d="M325.08,1331.85v-17.53h2.72v2.83a7.43,7.43,0,0,1,5.84-3.19v2.79a5,5,0,0,0-1.09-.11,6.4,6.4,0,0,0-4.75,2.8v12.41Z" fill="#fff"/><path d="M345.65,1331.85v-2.4c8.71-6.86,13.43-10.88,13.43-15.06,0-3.08-2.54-4.42-5.05-4.42a8.09,8.09,0,0,0-6.57,3l-1.85-1.93a10.49,10.49,0,0,1,8.42-3.81c4,0,8.13,2.29,8.13,7.11s-5,9.44-11.76,14.77h11.87v2.69Z" fill="#fff"/><path d="M366.88,1319.76c0-5.91,2.61-12.48,9.25-12.48s9.25,6.57,9.25,12.48-2.65,12.52-9.25,12.52S366.88,1325.64,366.88,1319.76Zm15.42,0c0-4.82-1.56-9.79-6.17-9.79s-6.17,5-6.17,9.79,1.56,9.84,6.17,9.84S382.3,1324.59,382.3,1319.76Z" fill="#fff"/><path d="M389.19,1331.85v-2.4c8.71-6.86,13.43-10.88,13.43-15.06,0-3.08-2.54-4.42-5.05-4.42a8.06,8.06,0,0,0-6.56,3l-1.85-1.93a10.47,10.47,0,0,1,8.41-3.81c4,0,8.13,2.29,8.13,7.11s-5,9.44-11.75,14.77h11.86v2.69Z" fill="#fff"/><path d="M415,1331.85v-20.21l-3.89,4.1-1.81-1.85,6.06-6.24H418v24.2Z" fill="#fff"/><rect x="1393.83" y="41.54" width="511.75" height="204.71" fill="none"/><path d="M1508.5,161c1.14,0,1-.64,1-1.86v-5.9c0-1.22-.11-1.61.59-1.61,2.43,0,3.09-.23,3.09-2.39V127.34c0-6-4.22-5-5.41-7.17-1.69-3,3.16-3,1.4-9.35-.45-1.45-1.59-2.35-3.78-2.35s-3.33.9-3.77,2.35c-1.76,6.39,3.09,6.39,1.4,9.35-1.19,2.18-5.4,1.19-5.4,7.17v21.94c0,2.16.65,2.39,3.09,2.39.68,0,.57.39.57,1.61v5.9c0,1.22-.14,1.86,1,1.86h6.22" fill="#fff"/><path d="M1489.29,113.45c-2.16,2.29-5.57,7.66-3.34,12.11,4.52,1.74,4.18-14.34,9.82-14.07,2.79,2.58-.84,10.17-2,13.51-1.39,4.12-2.5,12.74-5.15,16.92-2.22,3.48-.55,14.41-1.25,18.17-1.87,1.88-7,.55-9.12.2,0-4.31-.56-7.72-1.25-14.61-.07-1.39-1.53-22.7-.35-25.27,2.44-5.37,15.73-15.6,17.55-17.55,1.59-1.74,7.23-7.52,9.39-7.52,1.53,1,.63,3.48.28,4.46-2.15,5.36-11.49,10.65-14.62,13.65" fill="#fff"/><path d="M1521.73,113.45c2.09,2.29,5.5,7.66,3.34,12.11-4.59,1.74-4.24-14.34-9.89-14.07-2.71,2.58.91,10.17,2,13.51,1.4,4.12,2.51,12.74,5.15,16.92,2.17,3.48.56,14.41,1.18,18.17,2,1.88,7,.55,9.2.2,0-4.31.49-7.72,1.18-14.61.14-1.39,1.6-22.7.42-25.27-2.44-5.37-15.73-15.6-17.54-17.55-1.67-1.74-7.25-7.52-9.41-7.52-1.59,1-.62,3.48-.27,4.46,2.16,5.36,11.49,10.65,14.62,13.65" fill="#fff"/><path d="M1470,106.23c-1.18,1.12-3.84,1.88-5.65,4.31-.7-1.32,1.11-4.52,3.28-6.4,1.6-1.34,4.74-3.5,5.64-3.7.7,1.6-1.81,4-3.27,5.79" fill="#fff"/><path d="M1466.25,115c-2,1.87-4.18,2.65-7,6.07a20.72,20.72,0,0,1-.35-10.19c1-3.21,2.59-6.77,5.31-7.88a30.11,30.11,0,0,0-1.68,7.74c-1.18,4.68-1.88,4.82-1.6,5.44.27,0,1.81-2.44,3.7-4.32,2.23-2.23,5-2.72,6.83-4-.27.91-1.88,3.77-5.23,7.19" fill="#fff"/><path d="M1456.42,134.27c-2.72-4.88-3-8.44-3.21-12.56.14-2.86,1.53-9.48,3.62-10.46-.62,6,1,6.55.35,11.51,0,.27-.7,5.44-.7,5.72.84-.14.08-4.75,9.63-11.37-2.08,3.62-1.12,4.74-4.89,9.56a17.24,17.24,0,0,0-4.8,7.6" fill="#fff"/><path d="M1460.26,138.88c-2,2.93-1.68,4.39-2.17,5.78-4.82-2.79-10.25-13.87-8.24-19.39,1.27,4.19,3,5.09,4.26,8.58,2.17,5.23,1.82,6.83,3.21,8a19.48,19.48,0,0,1,1.54-8.3c1.33-2,2.36-4.67,3.35-5.58,1,3.84.27,7-2,10.89" fill="#fff"/><path d="M1464.58,148.36c0,4.26-.77,6.14-1.12,9.28-8.3-2.72-12.63-12.21-12.63-16.88,2.52,5.72,6.21,5.65,11,13.74.42-3.07-.84-.77-1-6.56.14-6.07,1.4-6.28,1.6-10,1.54,1.67,2.1,8.37,2.1,10.46" fill="#fff"/><path d="M1471.48,160.43c.63,3.13.91,6.83,1.4,9.56-4.74-1.75-5.93-.42-11.58-4-2.58-1.4-7.19-7.25-6.9-11.45,5.58,6.22,6.55,5.52,9.27,7.82,2.51,2,4.53,5,6.36,4.61.13-1.68-4.12-5.31-3.57-15.77a29.12,29.12,0,0,1,5,9.21" fill="#fff"/><path d="M1480.9,168.24c1.46,2.09,1.12,3,4.89,7.32a41.09,41.09,0,0,1-9.85,2c-2.36,0-10.73-2.23-13.52-8,4.81,2.58,4.88,2,11.29,3.35,4.61,1,7.89,2.5,9.15,2.37-.28-.63-3.83-2.1-6.28-5.16-2.45-3.28-1.89-7-4-9.7,1.47-.42,7.18,6.28,8.37,7.81" fill="#fff"/><path d="M1540.68,106.23c1.11,1.12,3.84,1.88,5.58,4.31.77-1.32-1.11-4.52-3.28-6.4-1.52-1.34-4.67-3.5-5.65-3.7-.7,1.6,1.81,4,3.35,5.79" fill="#fff"/><path d="M1544.38,115c1.95,1.87,4.12,2.65,6.9,6.07a20.62,20.62,0,0,0,.36-10.19c-.91-3.21-2.59-6.77-5.31-7.88a27.41,27.41,0,0,1,1.68,7.74c1.18,4.68,1.88,4.82,1.6,5.44-.28,0-1.81-2.44-3.7-4.32-2.16-2.23-5-2.72-6.83-4,.28.91,2,3.77,5.3,7.19" fill="#fff"/><path d="M1554.15,134.27c2.79-4.88,3-8.44,3.21-12.56-.15-2.86-1.54-9.48-3.56-10.46.55,6-1,6.55-.35,11.51,0,.27.63,5.44.63,5.72-.77-.14-.08-4.75-9.56-11.37,2,3.62,1,4.74,4.81,9.56,4.47,4.32,5,8.57,4.82,7.6" fill="#fff"/><path d="M1550.37,138.88c2,2.93,1.61,4.39,2.1,5.78,4.82-2.79,10.32-13.87,8.23-19.39-1.19,4.19-3,5.09-4.18,8.58-2.23,5.23-1.89,6.83-3.21,8,.27-2.72-.7-5.93-1.61-8.3-1.25-2-2.37-4.67-3.35-5.58-1,3.84-.28,7,2,10.89" fill="#fff"/><path d="M1546,148.36c0,4.26.83,6.14,1.19,9.28,8.23-2.72,12.63-12.21,12.63-16.88-2.59,5.72-6.22,5.65-11.1,13.74-.42-3.07.83-.77,1-6.56-.15-6.07-1.4-6.28-1.61-10-1.53,1.67-2.09,8.37-2.09,10.46" fill="#fff"/><path d="M1539.08,160.43c-.63,3.13-.84,6.83-1.33,9.56,4.68-1.75,5.86-.42,11.51-4,2.58-1.4,7.26-7.25,7-11.45-5.59,6.22-6.63,5.52-9.28,7.82-2.51,2-4.6,5-6.42,4.61-.14-1.68,4.11-5.31,3.63-15.77a27.6,27.6,0,0,0-5.09,9.21" fill="#fff"/><path d="M1529.66,168.24c-1.4,2.09-1.06,3-4.88,7.32a41.52,41.52,0,0,0,9.9,2c2.3,0,10.68-2.23,13.46-8-4.8,2.58-4.88,2-11.29,3.35-4.61,1-7.82,2.5-9.14,2.37.27-.63,3.9-2.1,6.28-5.16,2.43-3.28,1.88-7,4.11-9.7-1.53-.42-7.25,6.28-8.44,7.81" fill="#fff"/><path d="M1493.39,187.91l-1.4-.7a30.64,30.64,0,0,1,24.07-10c15.21.84,14.16,4.4,22.32,3.83.91-.06-.7,1.13-.7,1.13a28.18,28.18,0,0,1-17.79-.29c-9.76-3.34-16.11-5.37-26.5,6" fill="#fff"/><path d="M1517.45,187.91l1.4-.7a30.39,30.39,0,0,0-24-10c-15.27.84-14.23,4.4-22.39,3.83-.9-.06.7,1.13.7,1.13a28.18,28.18,0,0,0,17.79-.29c9.83-3.34,16.18-5.37,26.5,6" fill="#fff"/><path d="M1625.25,140.87c0,14.58-7.87,21.57-23.91,21.57s-24-7-24-21.57V108.64h16.19v28.63c0,5.37,0,12.07,7.88,12.07,7.65,0,7.65-6.7,7.65-12.07V108.64h16.19v32.23" fill="#fff"/><polygon points="1634.97 108.64 1651.53 108.64 1666.84 136.75 1666.98 136.75 1666.98 108.64 1682.29 108.64 1682.29 161.18 1666.54 161.18 1650.43 132.48 1650.28 132.48 1650.28 161.18 1634.97 161.18 1634.97 108.64" fill="#fff"/><polygon points="1692.23 108.64 1708.42 108.64 1708.42 126.89 1723.59 126.89 1723.59 108.64 1739.78 108.64 1739.78 161.18 1723.59 161.18 1723.59 140.36 1708.42 140.36 1708.42 161.18 1692.23 161.18 1692.23 108.64" fill="#fff"/><path d="M1781.22,128.21c-.3-1.91-1.77-7.72-8.47-7.72-7.58,0-10,7.35-10,14.42s2.43,14.43,10,14.43c5.45,0,7.58-3.83,8.54-8.76h15.9c0,10.59-8.62,21.86-24,21.86-17,0-26.64-12-26.64-27.53,0-16.56,10.45-27.52,26.64-27.52,14.43.07,22.38,7.65,23.77,20.82h-15.74" fill="#fff"/><path d="M1820.15,121.14h7.58c6.19,0,8,1.92,8,5.23,0,4.71-4.12,5.23-7.14,5.23h-8.46Zm-16.2,40h16.2V142.86h8.62c6.39,0,6.83,5.23,7.28,10.23a37,37,0,0,0,1.32,8.09h16.2c-1.48-2.42-1.55-8.68-1.77-11.25-.59-6.55-3.31-11.41-7.73-13.11,5.37-2,7.88-7.72,7.88-13.17,0-9.94-8-15-17.15-15H1804v52.54" fill="#fff"/><polygon points="1582.61 173.26 1577.33 173.26 1577.33 170.01 1591.76 170.01 1591.76 173.26 1586.48 173.26 1586.48 187.62 1582.61 187.62 1582.61 173.26" fill="#fff"/><path d="M1593,170h3.51v6.63h.07a4.48,4.48,0,0,1,3.72-2.12c3.73,0,4.67,2.1,4.67,5.25v7.85h-3.51v-7.21c0-2.09-.61-3.13-2.24-3.13-1.9,0-2.71,1.06-2.71,3.65v6.69H1593V170" fill="#fff"/><path d="M1609.93,182.09c.1,2.22,1.18,3.23,3.13,3.23a2.87,2.87,0,0,0,2.76-1.65h3.09a5.74,5.74,0,0,1-6,4.29c-4,0-6.51-2.76-6.51-6.71a6.39,6.39,0,0,1,6.51-6.73c4.34,0,6.43,3.65,6.19,7.57Zm5.7-2.22c-.32-1.77-1.09-2.71-2.79-2.71a2.76,2.76,0,0,0-2.91,2.71h5.7" fill="#fff"/><path d="M1641.87,181c0,4.76-2.81,7.07-7.52,7.07s-7.5-2.29-7.5-7.07V170h3.87v11c0,1.92.5,3.82,3.63,3.82,2.76,0,3.65-1.21,3.65-3.82V170h3.87v11" fill="#fff"/><polygon points="1644.46 170.01 1648.31 170.01 1655.66 181.82 1655.7 181.82 1655.7 170.01 1659.33 170.01 1659.33 187.62 1655.46 187.62 1648.13 175.83 1648.08 175.83 1648.08 187.62 1644.46 187.62 1644.46 170.01" fill="#fff"/><path d="M1671.64,173h4.24c1.72,0,2.66.74,2.66,2.44s-.94,2.51-2.66,2.51h-4.24Zm-3.88,14.6h3.88v-6.89h3.87c2,0,2.66.82,2.93,2.67a19.63,19.63,0,0,0,.62,4.22h3.87c-.69-1-.67-3.07-.74-4.17-.12-1.78-.66-3.63-2.56-4.12v-.05a4.33,4.33,0,0,0,2.78-4.41,4.83,4.83,0,0,0-5.15-4.86h-9.5v17.61" fill="#fff"/><path d="M1687.64,179.87a2.76,2.76,0,0,1,2.91-2.71c1.7,0,2.47.94,2.79,2.71Zm9.2,2.22c.25-3.92-1.85-7.57-6.19-7.57a6.39,6.39,0,0,0-6.51,6.73c0,3.95,2.49,6.71,6.51,6.71a5.73,5.73,0,0,0,6-4.29h-3.08a2.9,2.9,0,0,1-2.77,1.65c-1.94,0-3-1-3.13-3.23h9.2" fill="#fff"/><path d="M1699.15,177.21h-2.1v-2.35h2.1v-1c0-2.25,1.4-3.87,4.26-3.87.62,0,1.26.07,1.85.1v2.61a10.75,10.75,0,0,0-1.28-.07c-.94,0-1.33.39-1.33,1.45v.76h2.41v2.35h-2.41v10.41h-3.5V177.21" fill="#fff"/><path d="M1718.11,187.62h-3.33v-1.78h-.07a4.56,4.56,0,0,1-3.9,2.12c-3.72,0-4.66-2.1-4.66-5.25v-7.84h3.5v7.2c0,2.09.62,3.13,2.25,3.13,1.89,0,2.71-1.06,2.71-3.65v-6.68h3.5v12.75" fill="#fff"/><path d="M1726.17,184.61c-2.14,0-2.83-2-2.83-3.82s.86-3.63,2.83-3.63c2.27,0,3,1.85,3,3.92,0,1.83-1,3.53-3,3.53m6.32-9.74h-3.33v1.7h-.05a4,4,0,0,0-3.8-2c-3.58,0-5.47,3-5.47,6.31,0,3.5,1.62,6.42,5.45,6.42a4.32,4.32,0,0,0,3.82-2h.05V187c0,1.83-.87,3.16-2.81,3.16a2.38,2.38,0,0,1-2.62-1.76h-3.47c.17,2.91,3.1,4.1,5.62,4.1,5.87,0,6.61-3.55,6.61-5.65V174.87" fill="#fff"/><path d="M1737.74,179.87a2.76,2.76,0,0,1,2.91-2.71c1.7,0,2.47.94,2.79,2.71Zm9.2,2.22c.24-3.92-1.85-7.57-6.19-7.57a6.39,6.39,0,0,0-6.51,6.73c0,3.95,2.49,6.71,6.51,6.71a5.74,5.74,0,0,0,6-4.29h-3.09a2.87,2.87,0,0,1-2.76,1.65c-1.95,0-3-1-3.13-3.23h9.2" fill="#fff"/><path d="M1751.45,179.87a2.76,2.76,0,0,1,2.91-2.71c1.7,0,2.47.94,2.79,2.71Zm9.2,2.22c.24-3.92-1.85-7.57-6.19-7.57a6.39,6.39,0,0,0-6.51,6.73c0,3.95,2.49,6.71,6.51,6.71a5.74,5.74,0,0,0,6-4.29h-3.09a2.87,2.87,0,0,1-2.76,1.65c-1.95,0-3-1-3.13-3.23h9.2" fill="#fff"/><path d="M1776.68,174.35h0l2.21,6.46h-4.56Zm-8.61,13.27H1772l1.38-3.93H1780l1.33,3.93h4L1778.72,170h-4Z" fill="#fff"/><path d="M1791.87,184.61c-2.15,0-2.84-2-2.84-3.82s.86-3.63,2.84-3.63c2.27,0,3,1.85,3,3.92,0,1.83-1,3.53-3,3.53m6.31-9.74h-3.33v1.7h0a4,4,0,0,0-3.79-2c-3.58,0-5.48,3-5.48,6.31,0,3.5,1.63,6.42,5.45,6.42a4.31,4.31,0,0,0,3.82-2h0V187c0,1.83-.86,3.16-2.81,3.16a2.37,2.37,0,0,1-2.61-1.76H1786c.17,2.91,3.11,4.1,5.62,4.1,5.87,0,6.61-3.55,6.61-5.65V174.87" fill="#fff"/><path d="M1803.43,179.87a2.77,2.77,0,0,1,2.91-2.71c1.7,0,2.47.94,2.79,2.71Zm9.2,2.22c.25-3.92-1.85-7.57-6.19-7.57a6.39,6.39,0,0,0-6.51,6.73c0,3.95,2.49,6.71,6.51,6.71a5.73,5.73,0,0,0,6-4.29h-3.08a2.9,2.9,0,0,1-2.77,1.65c-1.94,0-3-1-3.13-3.23h9.2" fill="#fff"/><path d="M1814.16,174.87h3.33v1.77h.08a4.53,4.53,0,0,1,3.89-2.12c3.72,0,4.66,2.1,4.66,5.25v7.85h-3.5v-7.21c0-2.09-.62-3.13-2.24-3.13-1.9,0-2.72,1.06-2.72,3.65v6.69h-3.5V174.87" fill="#fff"/><path d="M1836.92,179.36a2.38,2.38,0,0,0-2.59-2.2c-2.24,0-3,2.27-3,4.14s.71,4,2.91,4a2.69,2.69,0,0,0,2.78-2.59h3.38c-.44,3.38-2.78,5.23-6.14,5.23a6.18,6.18,0,0,1-6.43-6.53c0-4,2.36-6.91,6.51-6.91,3,0,5.77,1.58,6,4.84h-3.43" fill="#fff"/><path d="M1848.24,189.22c-.76,2-2,2.88-4.39,2.88a19.5,19.5,0,0,1-2.15-.12v-2.89a17.36,17.36,0,0,0,2,.13,1.65,1.65,0,0,0,1.21-2.39l-4.49-12h3.75l2.89,8.73h.05l2.78-8.73h3.63l-5.33,14.36" fill="#fff"/></svg>