<?xml version="1.0" encoding="utf-8"?>
<!-- Generator: Adobe Illustrator 25.2.1, SVG Export Plug-In . SVG Version: 6.00 Build 0)  -->
<svg version="1.1" id="Layer_1" xmlns="http://www.w3.org/2000/svg" xmlns:xlink="http://www.w3.org/1999/xlink" x="0px" y="0px"
	 viewBox="0 0 960 720" style="enable-background:new 0 0 960 720;" xml:space="preserve">
<style type="text/css">
	.st0{fill:none;}
	.st1{fill:#FFFFFF;}
	.st2{fill:#0072BC;}
	.st3{fill:#589BE5;}
	.st4{fill:#BBBDBF;}
	.st5{fill:none;stroke:#8EBEFF;stroke-linejoin:round;}
	.st6{fill:none;stroke:#0072BC;stroke-linejoin:round;}
	.st7{opacity:0.85;fill:#FFFFFF;enable-background:new    ;}
	.st8{fill:#8EBEFF;}
	.st9{fill:none;stroke:#0072BC;stroke-linecap:round;stroke-linejoin:round;}
	.st10{opacity:0.4;fill:#0072BC;enable-background:new    ;}
	.st11{fill-rule:evenodd;clip-rule:evenodd;fill:#0072BC;}
	.st12{fill:#333333;}
</style>
<rect x="0.6" y="0.2" class="st0" width="958.8" height="719.6"/>
<g>
	<rect x="360.9" y="603.5" class="st1" width="93.7" height="9.4"/>
	<rect x="225.7" y="537.7" class="st1" width="364.1" height="11.4"/>
	<path class="st1" d="M244.5,328h326.2c12.2,0,22.1,9.9,22.1,22.1v163.4c0,12.2-9.9,22.1-22.1,22.1H244.5
		c-12.2,0-22.1-9.9-22.1-22.1V350.2C222.4,337.9,232.3,328,244.5,328z"/>
	<path class="st2" d="M568.1,323.4H247.4c-16.4,0-29.7,13.6-29.7,30.3v186.5h380.1V353.8C597.9,337,584.5,323.4,568.1,323.4z
		 M589.8,532.3H225.7V353.8c0-12.3,9.8-22.3,21.6-22.3h320.8c12,0,21.6,10,21.6,22.3v178.5H589.8z"/>
	<path class="st3" d="M500.6,637.7h-45.9v-26.4H361v26.4h-42c-4.8,0-8.6,3.8-8.6,8.6s3.8,8.6,8.6,8.6h181.6c4.8,0,8.6-3.8,8.6-8.6
		S505.3,637.7,500.6,637.7z"/>
	<path class="st2" d="M217.7,575.8c0,13.4,8.7,25.3,21.5,29.2l0.6,0.1h335.9l0.6-0.1c12.8-4,21.6-15.8,21.5-29.2v-29.4H217.7V575.8z
		 M408.3,566.6c5-0.2,9.3,3.7,9.5,8.8c0.2,5-3.7,9.3-8.8,9.5c-5,0.2-9.3-3.7-9.5-8.8c0-0.1,0-0.2,0-0.3
		C399.4,570.8,403.3,566.7,408.3,566.6L408.3,566.6z"/>
	<rect x="279.9" y="374.8" class="st2" width="91" height="17.4"/>
	<rect x="279.9" y="399" class="st2" width="41.6" height="17.4"/>
	<rect x="279.9" y="423.3" class="st2" width="25.2" height="17.4"/>
	<rect x="279.9" y="447.6" class="st2" width="16.4" height="17.4"/>
	<rect x="279.9" y="471.7" class="st2" width="8.7" height="17.4"/>
	<rect x="258.1" y="381.4" class="st4" width="12.7" height="4.2"/>
	<rect x="258.1" y="405.6" class="st4" width="12.7" height="4.2"/>
	<rect x="258.1" y="430.7" class="st4" width="12.7" height="4.2"/>
	<rect x="258.1" y="453.4" class="st4" width="12.7" height="4.2"/>
	<rect x="258.1" y="480" class="st4" width="12.7" height="4.2"/>
	<rect x="273.1" y="497.4" class="st4" width="12.7" height="4.2"/>
	<rect x="299.8" y="497.4" class="st4" width="12.7" height="4.2"/>
	<rect x="323.3" y="497.4" class="st4" width="12.7" height="4.2"/>
	<rect x="348.6" y="497.4" class="st4" width="12.7" height="4.2"/>
	<rect x="374.7" y="497.4" class="st4" width="12.7" height="4.2"/>
	<rect x="417.1" y="497.4" class="st4" width="11" height="4.2"/>
	<rect x="435.6" y="497.4" class="st4" width="11" height="4.2"/>
	<rect x="454.2" y="497.4" class="st4" width="11" height="4.2"/>
	<rect x="472.7" y="497.4" class="st4" width="11" height="4.2"/>
	<rect x="491.2" y="497.4" class="st4" width="11" height="4.2"/>
	<rect x="509.8" y="497.4" class="st4" width="11" height="4.2"/>
	<rect x="528.3" y="497.4" class="st4" width="11" height="4.2"/>
	<rect x="534.8" y="370.6" class="st4" width="11" height="4.2"/>
	<rect x="534.8" y="441.7" class="st4" width="11" height="4.2"/>
	<polyline class="st5" points="430.6,483.1 434.2,480.5 437.8,483 441.4,481.6 445.1,482.3 448.7,481.2 452.3,483.7 456,479 
		459.7,481 463.3,482.1 466.9,483.3 470.6,480.2 474.2,477.4 477.8,462.8 481.4,460.6 485.1,459 488.7,456.2 492.3,458.4 
		495.9,456.5 499.7,451.3 503.3,436.5 506.9,416.7 510.5,404.4 514.2,406.4 517.8,400.6 521.4,395.1 525.1,390.1 528.7,378.3 
		532.3,372.7 	"/>
	<polyline class="st6" points="423.3,453.3 427,450.9 430.6,454.5 434.2,455.8 437.8,457.9 441.4,461.5 445.1,464.7 448.7,465.9 
		452.3,465.5 456,464.4 459.7,464.4 463.3,468 466.9,470.3 470.6,470.5 474.2,472.6 477.8,469.8 481.4,466.2 485.1,468.3 
		488.7,468.5 492.3,468.1 495.9,468.5 499.7,468.3 503.3,465.5 506.9,459.1 510.5,455 514.2,452.4 517.8,445.9 521.4,444.9 
		525.1,444.8 528.7,444.2 532.3,443.8 	"/>
	<path class="st2" d="M131.7,472.7h116.6c4.1,0,7.3,3.3,7.3,7.3v167.7c0,4.1-3.3,7.3-7.3,7.3H131.7c-4.1,0-7.3-3.3-7.3-7.3V480
		C124.4,475.9,127.7,472.7,131.7,472.7z"/>
	<rect x="129.9" y="486.9" class="st1" width="120.2" height="153.8"/>
	<path class="st7" d="M187.6,643.3h5.1c1,0,1.9,0.8,1.9,1.9v5.1c0,1-0.8,1.9-1.9,1.9h-5.1c-1,0-1.9-0.8-1.9-1.9v-5.1
		C185.7,644.1,186.5,643.3,187.6,643.3z"/>
	<path class="st3" d="M187.4,644.1h5.1c0.6,0,1,0.5,1,1v5.1c0,0.6-0.5,1-1,1h-5.1c-0.6,0-1-0.5-1-1v-5.1
		C186.4,644.5,186.9,644.1,187.4,644.1z"/>
	<circle class="st7" cx="190" cy="480" r="1.3"/>
	<circle class="st3" cx="190" cy="480" r="0.7"/>
	<path class="st3" d="M189.8,563.7l-20.2,27.8c-15.3-11.2-18.7-32.7-7.6-48l0,0l0,0c6.4-9.1,16.7-14.3,27.8-14.2V563.7z"/>
	<path class="st2" d="M189.8,563.7v-34.4c19-0.2,34.5,15.1,34.8,34.1c0.2,18.8-14.8,34.3-33.6,34.8h-1.2c-7.3,0.1-14.4-2.2-20.2-6.6
		L189.8,563.7z"/>
	<circle class="st1" cx="190.8" cy="564.2" r="21.7"/>
	<path class="st2" d="M551.7,450.2h259c6.4,0,11.6,5.2,11.6,11.6v181.4c0,6.4-5.2,11.6-11.6,11.6h-259c-6.4,0-11.6-5.2-11.6-11.6
		V461.9C540.1,455.5,545.3,450.2,551.7,450.2z"/>
	<rect x="555.1" y="467.2" class="st1" width="252.3" height="171.3"/>
	<path class="st3" d="M533.8,634.8h294.9c3.8,0,6.9,3.1,6.9,6.9v6.4c0,3.8-3.1,6.9-6.9,6.9H533.8c-3.8,0-6.9-3.1-6.9-6.9v-6.4
		C527,637.8,530,634.8,533.8,634.8z"/>
	<path class="st8" d="M655.1,634.8h52.3l0,0v8.7c0,1-0.8,2-2,2H657c-1,0-2-0.8-2-2L655.1,634.8L655.1,634.8z"/>
	<rect x="589" y="591.5" class="st4" width="13.4" height="4.2"/>
	<rect x="572.7" y="583.1" class="st4" width="13.4" height="4.2"/>
	<rect x="572.7" y="567.3" class="st4" width="13.4" height="4.2"/>
	<rect x="572.7" y="535.7" class="st4" width="13.4" height="4.2"/>
	<rect x="572.7" y="551.5" class="st4" width="13.4" height="4.2"/>
	<rect x="572.7" y="519.9" class="st4" width="13.4" height="4.2"/>
	<rect x="609.3" y="591.5" class="st4" width="13.4" height="4.2"/>
	<rect x="629.5" y="591.5" class="st4" width="13.4" height="4.2"/>
	<rect x="649.9" y="591.5" class="st4" width="13.4" height="4.2"/>
	<polyline class="st9" points="589,513.4 589,586.7 662.3,586.7 	"/>
	<circle class="st10" cx="620.2" cy="558.1" r="13"/>
	<circle class="st10" cx="601.7" cy="573.7" r="3.7"/>
	<circle class="st10" cx="613.6" cy="573" r="3"/>
	<circle class="st10" cx="606.5" cy="564" r="4"/>
	<circle class="st10" cx="636.7" cy="565" r="5"/>
	<circle class="st10" cx="630.1" cy="537.7" r="4.4"/>
	<circle class="st10" cx="641.4" cy="533.1" r="5.5"/>
	<circle class="st10" cx="643.1" cy="544.2" r="3.6"/>
	<circle class="st10" cx="635.3" cy="549.8" r="7.8"/>
	<circle class="st10" cx="643.1" cy="556.2" r="2.6"/>
	<rect x="718.4" y="591" class="st4" width="10.2" height="3.7"/>
	<rect x="698.1" y="591" class="st4" width="10.2" height="3.7"/>
	<rect x="696.4" y="540.6" class="st4" width="5.1" height="3.7"/>
	<rect x="704" y="552.3" class="st4" width="5.1" height="3.7"/>
	<rect x="716.5" y="535" class="st4" width="5.1" height="3.7"/>
	<rect x="724.1" y="546.4" class="st4" width="5.1" height="3.7"/>
	<rect x="736.7" y="525.1" class="st4" width="5.1" height="3.7"/>
	<rect x="744.3" y="537.6" class="st4" width="5.1" height="3.7"/>
	<rect x="756.9" y="511.5" class="st4" width="5.1" height="3.7"/>
	<rect x="764.4" y="527.1" class="st4" width="5.1" height="3.7"/>
	<rect x="777" y="503.5" class="st4" width="5.1" height="3.7"/>
	<rect x="784.7" y="511.5" class="st4" width="5.1" height="3.7"/>
	<rect x="758.7" y="591" class="st4" width="10.2" height="3.7"/>
	<rect x="738.5" y="591" class="st4" width="10.2" height="3.7"/>
	<rect x="778.8" y="591" class="st4" width="10.2" height="3.7"/>
	<rect x="695.5" y="546.5" class="st2" width="7" height="40.7"/>
	<rect x="715.6" y="540.6" class="st2" width="7" height="46.6"/>
	<rect x="735.8" y="531.3" class="st2" width="7" height="55.9"/>
	<rect x="755.9" y="517.3" class="st2" width="7" height="69.9"/>
	<rect x="776.2" y="509.2" class="st2" width="7" height="78.1"/>
	<rect x="703" y="558.8" class="st3" width="7" height="28.4"/>
	<rect x="723.1" y="551.7" class="st3" width="7" height="35.5"/>
	<rect x="743.4" y="543.5" class="st3" width="7" height="43.7"/>
	<rect x="763.5" y="532.9" class="st3" width="7" height="54.4"/>
	<rect x="783.7" y="517.6" class="st3" width="7" height="69.8"/>
	<circle class="st1" cx="408.3" cy="575.8" r="9.2"/>
	
		<ellipse transform="matrix(0.3162 -0.9487 0.9487 0.3162 -85.9454 322.2705)" class="st1" cx="180.6" cy="220.8" rx="39.9" ry="39.9"/>
	<path class="st2" d="M188.3,236.4h-3c-0.3,0-0.6-0.1-0.8-0.2c-0.2-0.1-0.3-0.3-0.5-0.7l-2.7-6.9h-12.8l-2.7,6.9
		c-0.1,0.2-0.2,0.5-0.5,0.7c-0.2,0.2-0.6,0.2-0.8,0.2h-3l11.4-28.6h4L188.3,236.4z M169.5,225.7h10.6l-4.5-11.6
		c-0.3-0.8-0.6-1.7-0.8-2.7c-0.1,0.6-0.2,1-0.5,1.5c-0.2,0.5-0.2,0.8-0.3,1.2L169.5,225.7z"/>
	<path class="st2" d="M196,209.9c0,0.3-0.1,0.7-0.2,0.9c-0.2,0.6-0.7,1-1.3,1.3c-0.3,0.1-0.7,0.2-1,0.2s-0.7,0-0.9-0.2
		c-0.3-0.1-0.6-0.3-0.8-0.6c-0.5-0.5-0.7-1-0.7-1.7c0-0.3,0.1-0.7,0.2-1c0.1-0.3,0.3-0.6,0.6-0.8c0.2-0.2,0.5-0.5,0.8-0.6
		s0.6-0.2,0.9-0.2c0.3,0,0.7,0.1,1,0.2c0.6,0.2,1,0.7,1.3,1.3C196,209.1,196,209.4,196,209.9z M195.2,216.2v20.2h-3.6v-20.2H195.2z"
		/>
	<circle class="st1" cx="99.9" cy="332.2" r="39.9"/>
	<circle class="st1" cx="303.8" cy="138.8" r="39.9"/>
	<path class="st2" d="M311.4,137.4c3.5-1.6,4.1-13.8,2-17.4c-2.8-4.7-15.7-3.7-19.8-0.5c-0.3,2.3-0.6,4.8-0.5,7.1h12.8v1.2h-18.5
		c-9.9,0-9.7,21.4,3.4,21.4c0.2-2.4,0.7-4.8,1.3-7.1C294.8,134.9,305.6,140.1,311.4,137.4z M298,125c-1.5,0-2.7-1.2-2.7-2.7
		s1.2-2.7,2.7-2.7s2.7,1.2,2.7,2.7l0,0C300.6,123.8,299.4,125,298,125z"/>
	<path class="st2" d="M316.4,128.4c-0.1,2.4-0.6,4.8-1.2,7.1c-2.6,7.3-13.4,2.1-19.2,4.8c-3.6,1.6-4.1,13.8-2,17.3
		c2.7,4.7,15.7,3.7,19.8,0.3c0.3-2.3,0.6-4.8,0.3-7.1h-12.8v-1.2h19.2C329.5,149.8,330.3,128.4,316.4,128.4z M309,152.2
		c1.5,0,2.7,1.2,2.7,2.7s-1.2,2.7-2.7,2.7s-2.7-1.2-2.7-2.7l0,0l0,0C306.3,153.4,307.4,152.2,309,152.2L309,152.2z"/>
	<circle class="st1" cx="467.2" cy="104.9" r="39.9"/>
	<path class="st11" d="M467.2,118c-12.8,0-23.3-7-23.3-15.6s10.5-15.6,23.3-15.6s23.3,7,23.3,15.6S480,118,467.2,118z M470.7,93
		c-9.8,0-17.7,4.8-17.7,10.7s7.9,10.7,17.7,10.7c9.8,0,17-3.3,17-10.7S480.5,93,470.7,93L470.7,93z"/>
	<path class="st11" d="M479.3,111c0.8,0.2,1.5,0.5,2.3,0.8c0.5,0.2,0.8,0.5,1.2,0.8c0.2,0.2,0.3,0.5,0.5,0.7l5.6,9.3h-9l-4.2-7.9
		c-0.3-0.7-0.9-1.3-1.4-1.9c-0.2-0.3-0.7-0.5-1-0.5h-2.1v10.2h-7.9v-26h15.9c0,0,7.2,0.1,7.2,7S479.3,111,479.3,111z M475.9,102.3
		H471v4.4h4.8c1.2,0,2.2-0.9,2.2-2.1l0,0v-0.1c0.1-1.2-0.8-2.1-2-2.2l0,0C476,102.2,475.9,102.2,475.9,102.3L475.9,102.3z"/>
	<circle class="st1" cx="767.8" cy="220.7" r="39.9"/>
	<path class="st2" d="M759.4,235.6c0,1.6-1.4,3-3,3s-3-1.3-3-2.9v-13.1c0-1.6,1.4-3,3-3s3,1.3,3,2.8l0,0v0.1V235.6z"/>
	<path class="st2" d="M768,239.1c0,1.6-1.3,3-3,3l0,0c-1.5,0-2.9-1.3-2.9-2.8c0-0.1,0-0.1,0-0.2v-19.8c0-1.6,1.4-3,3-3s3,1.3,3,2.9
		L768,239.1L768,239.1z"/>
	<path class="st2" d="M750.6,232.7c0,1.6-1.4,3-3,3s-3-1.3-3-2.9l0,0v-7.2c0-1.6,1.4-3,3-3s3,1.4,3,3V232.7z"/>
	<path class="st2" d="M776.6,242.2c0,1.6-1.3,2.9-2.9,2.9s-2.9-1.3-2.9-2.9l0,0v-26.3c-0.1-1.6,1.2-3.1,2.8-3.3
		c1.6-0.1,3.1,1.2,3.3,2.8l0,0c0,0.1,0,0.2,0,0.3V242L776.6,242.2z"/>
	<path class="st2" d="M786.2,240.9c-0.6,0-1-0.1-1.6-0.3l-3.6-1.2c-0.6-0.1-1-0.7-1-1.3s0.7-1,1.3-1c0.1,0,0.3,0.1,0.5,0.1l3.7,1.2
		c1.4,0.5,2.8-0.3,3.3-1.7l0,0c0-0.2,0.1-0.5,0.1-0.6v-24.2c0-1.2-0.7-2.1-1.7-2.4L752,198.8c-0.8-0.2-1.6-0.1-2.2,0.2
		c-0.6,0.6-0.9,1.4-1,2.2v16.6c0.1,0.6-0.2,1.3-0.8,1.4c-0.6,0.1-1.3-0.2-1.4-0.8c0-0.2,0-0.3,0-0.6v-16.6c0-2.7,2.1-4.8,4.7-4.9
		c0.6,0,1,0.1,1.5,0.2l35.1,10.7c2.1,0.7,3.5,2.6,3.5,4.8v24c0,1.6-0.7,3.1-2,4.1C788.1,240.6,787.2,240.8,786.2,240.9"/>
	<circle class="st1" cx="860.1" cy="332.2" r="39.9"/>
	<path class="st2" d="M880.5,312.8h-6.7v32h4.9c1,0,2,0.8,2,2c0,1-0.9,1.9-2,2H840v-28.1h31v-2.9h-34v34h43.6c1.6,0,2.9-1.3,2.9-2.8
		v-0.1v-33C883.5,314.2,882.2,312.8,880.5,312.8C880.6,312.8,880.6,312.8,880.5,312.8z"/>
	<path class="st2" d="M850.5,345.8c0,0.5,0.3,0.9,0.8,0.9h0.1h0.9c0.5,0,0.9-0.3,0.9-0.8v-0.1v-2h0.9c0.5,0,0.9-0.3,0.9-0.8v-0.1
		v-3.8h0.9c0.5,0,0.9-0.3,0.9-0.8v-0.1v-0.9c0-0.5-0.3-0.9-0.8-0.9h0h-4.9v-2.1c0.5,0,0.9-0.3,0.9-0.8v-0.1v-0.9h0.9
		c0.5,0,0.9-0.3,0.9-0.9v-0.1v-2h0.9c0.5,0,0.9-0.3,0.9-0.8v-0.1v-0.9c0-0.5-0.3-0.9-0.8-0.9h-0.1h-4.4v-2c0-0.5-0.3-0.9-0.8-0.9
		h-0.1h-2.9c-0.5,0-0.9,0.3-0.9,0.8v0.1v2h-2c-0.5,0-0.9,0.3-0.9,0.8v0.1v0.9c0,0.5,0.3,0.9,0.8,0.9h0.1h2v2c0,0.5,0.3,0.9,0.8,0.9
		h0.1h0.9v0.9c0,0.5,0.3,0.9,0.8,0.9h0.1v2h-0.9c-0.5,0-0.9,0.3-0.9,0.8v0.1v0.9c0,0.5,0.3,0.9,0.8,0.9h0.1h0.9v2
		c0,0.5,0.3,0.9,0.8,0.9h0.1h0.9v4.1h0.4V345.8z"/>
	<path class="st2" d="M867.9,336h2.9v-11.6h-8.7c-0.5,0-0.9,0.3-0.9,0.8v0.1v2c0,0.5,0.3,0.9,0.8,0.9h0.1h0.9v2h-2.9
		c-0.5,0-0.9,0.3-0.9,0.8v0.1v0.9c0,0.5,0.3,0.9,0.8,0.9h0.1h0.9v2.9h-0.9c-0.5,0-0.9,0.3-0.9,0.8v0.1v0.9c0,0.5,0.3,0.9,0.8,0.9
		h0.1h0.9v2c0,0.5,0.3,0.9,0.8,0.9h0.1h0.9v2c0,0.5,0.3,0.9,0.9,0.9h0.1h2.9c0.5,0,0.9-0.3,0.9-0.9v-0.1v-2.9h0.9
		c0.5,0,0.9-0.3,0.9-0.8v-0.1v-0.9c0-0.5-0.3-0.9-0.8-0.9h-0.1h-0.8V336H867.9z"/>
	<circle class="st1" cx="630.5" cy="138.8" r="39.9"/>
	<path class="st12" d="M653.6,148.7c-0.1,0.9-14.9-14.8-14.9-14.8h0.3c0,0,14.7,13.8,14.7,14.2L653.6,148.7L653.6,148.7z"/>
	<path class="st12" d="M622.4,144c0.2-0.5,7.6,6.3,7.1,7l-0.1,0.1l-0.1,0.1c-0.6,0.8-7.6-5.9-7.1-7v-0.1L622.4,144L622.4,144z"/>
	<path class="st12" d="M632.3,153.6c0.7,0.2,7.2,7.2,7.2,7.2h-0.7c0,0-6.9-6.9-6.7-6.9C632.1,153.8,632.2,153.7,632.3,153.6
		L632.3,153.6z"/>
	<path class="st3" d="M653.7,148v0.6L638.8,134h-2.4c0.6,3.1,0.6,6.5,0,9.7h3.8c2.1,0,3.7,1.6,3.7,3.7c0,2.1-1.6,3.7-3.7,3.7h-6.5
		c-0.5,0.9-1,1.7-1.6,2.6l7.2,7.1h0.9C647.4,160.8,653.4,155.1,653.7,148L653.7,148z M633.1,138.8c0,4.3-1.3,8.6-3.7,12.2l-7.1-7
		c0.8-1.6,1.2-3.4,1.2-5.2c0-6.9-5.5-12.3-12.3-12.3h-3.8v-9.7h3.8C623.3,116.9,633.1,126.7,633.1,138.8z"/>
	<path class="st2" d="M653.7,130.2c0,3.1-1,6.2-3.1,8.6c2,2.4,3.1,5.5,3.1,8.6v1.2L638.8,134h1.5c2.1,0.1,3.8-1.5,4-3.5
		c0.1-2.1-1.5-3.8-3.5-4c-0.1,0-0.2,0-0.3,0h-6.6c-2.2-4-5.3-7.3-9.2-9.7h15.8C647.7,116.9,653.7,122.8,653.7,130.2z"/>
	<path class="st8" d="M632.2,153.7c-2,2.8-4.5,5.2-7.6,7.1h14.8L632.2,153.7z M629.4,151c-4.1,6.2-10.9,9.9-18.4,9.9h-3.8v-9.7h3.8
		c4.8,0,9.2-2.8,11.2-7.2L629.4,151z"/>
	<polygon class="st2" points="106.4,318.7 106.4,351.7 81.8,348.1 106.2,358.3 119.2,353.7 119.2,315.4 106.4,311.7 81.8,320.8 
		81.8,347.8 89.9,344.7 89.9,322.6 	"/>
</g>
</svg>
