<?xml version="1.0" encoding="utf-8"?>
<!-- Generator: Adobe Illustrator 26.0.2, SVG Export Plug-In . SVG Version: 6.00 Build 0)  -->
<svg version="1.1" id="Layer_1" xmlns="http://www.w3.org/2000/svg" xmlns:xlink="http://www.w3.org/1999/xlink" x="0px" y="0px"
	 viewBox="0 0 437.4 56.7" style="enable-background:new 0 0 437.4 56.7;" xml:space="preserve">
<style type="text/css">
	.st0{fill:#0072BC;}
	.st1{fill:none;stroke:#0072BC;stroke-miterlimit:10;}
</style>
<g>
	<path class="st0" d="M34.4,38.2c0.6,0,0.6-0.4,0.6-1v-3.4c0-0.7-0.1-0.9,0.3-0.9c1.5,0,1.8-0.1,1.8-1.4V18.7c0-3.4-2.5-2.9-3.1-4.2
		c-1-1.7,1.9-1.7,0.8-5.4c-0.3-0.9-1.2-1.5-2.2-1.4c-1-0.1-1.9,0.5-2.2,1.4c-1,3.8,1.8,3.8,0.8,5.4c-0.7,1.3-3.1,0.7-3.1,4.2v12.8
		c0,1.3,0.4,1.4,1.8,1.4c0.4,0,0.3,0.2,0.3,0.9v3.4c0,0.7-0.1,1,0.6,1H34.4"/>
	<path class="st0" d="M23.3,10.5c-1.3,1.4-3.2,4.5-2,7.1c2.6,1,2.4-8.3,5.7-8.2c1.7,1.5-0.5,5.9-1.1,7.8c-0.8,2.4-1.5,7.4-3,9.9
		c-1.3,2.1-0.3,8.4-0.7,10.6c-1,1-4.1,0.3-5.3,0.1c-0.1-2.9-0.3-5.7-0.7-8.5c0-0.8-0.9-13.2-0.2-14.7c1.5-3.1,9.2-9.1,10.2-10.2
		c1-1.1,4.2-4.4,5.5-4.4c0.9,0.6,0.4,2.1,0.2,2.6C30.6,5.7,25,8.9,23.3,10.5"/>
	<path class="st0" d="M42.1,10.5c1.3,1.4,3.2,4.5,2,7.1c-2.7,1-2.5-8.3-5.7-8.2c-1.6,1.5,0.5,5.9,1.1,7.8c0.8,2.4,1.5,7.4,3,9.9
		c1.3,2.1,0.3,8.4,0.7,10.6c1.1,1,4.1,0.3,5.3,0.1c0.1-2.9,0.3-5.7,0.7-8.5c0.1-0.8,0.9-13.2,0.2-14.7c-1.5-3.1-9.2-9.1-10.2-10.2
		C38.3,3.2,35,0,33.8,0c-0.9,0.6-0.3,2.1-0.2,2.6C34.9,5.7,40.4,8.9,42.1,10.5"/>
	<path class="st0" d="M12,6.4C11.3,7,9.8,7.5,8.7,8.9c-0.4-0.7,0.6-2.6,1.9-3.8c1-0.8,2.1-1.6,3.3-2.2C14.3,3.9,12.8,5.3,12,6.4"/>
	<path class="st0" d="M9.8,11.5c-1.1,1-2.4,1.6-4.1,3.5c-0.5-1.9-0.6-4-0.2-5.9c0.6-1.9,1.6-4,3.1-4.6C8.2,5.9,7.8,7.4,7.7,9
		c-0.7,2.7-1,2.8-0.9,3.1c0.2,0,1-1.5,2.2-2.5c1.3-1.3,2.9-1.6,4-2.4C12.1,8.8,11.1,10.2,9.8,11.5"/>
	<path class="st0" d="M4.1,22.7c-1.2-2.2-1.9-4.7-1.9-7.3c0.1-1.7,0.9-5.5,2.1-6.1c-0.3,3.5,0.6,3.9,0.2,6.7c0,0.1-0.4,3.1-0.4,3.3
		c0.5-0.1,0-2.7,5.6-6.7c-1.3,2.1-0.6,2.7-2.8,5.5C5.6,19.4,4.6,21,4.1,22.7"/>
	<path class="st0" d="M6.4,25.3c-0.7,1-1.1,2.1-1.3,3.3c-2.8-1.6-6-8-4.9-11.3c0.7,2.4,1.8,3,2.5,5c1.3,3,1,4,1.9,4.7
		c-0.1-1.7,0.2-3.3,0.9-4.8c0.6-1.1,1.3-2.2,2-3.2C8.1,21.3,7.6,23,6.4,25.3"/>
	<path class="st0" d="M8.9,30.8c-0.1,1.8-0.3,3.6-0.6,5.4c-4.8-1.6-7.4-7.1-7.4-9.8c1.5,3.3,3.6,3.3,6.5,8c0.2-1.8-0.5-0.4-0.6-3.9
		c0.1-3.5,0.8-3.6,0.9-5.8C8.6,25.7,8.9,29.7,8.9,30.8"/>
	<path class="st0" d="M12.8,37.9c0.4,1.9,0.5,4,0.8,5.5c-2.8-1-3.4-0.2-6.8-2.3c-1.5-0.8-4.2-4.3-4.1-6.7c3.2,3.6,3.9,3.2,5.4,4.6
		c1.5,1.1,2.6,2.9,3.8,2.7c0.1-0.9-2.4-3.1-2.1-9.2C11.3,34.2,12.3,36,12.8,37.9"/>
	<path class="st0" d="M18.4,42.5c0.8,1.3,0.6,1.8,2.8,4.3c-1.9,0.6-3.8,1-5.7,1.1c-1.4,0-6.3-1.3-7.9-4.6c2.8,1.5,2.8,1.1,6.6,2
		c2.7,0.6,4.6,1.5,5.3,1.4c-0.1-0.3-2.2-1.3-3.6-3c-1.5-1.8-1-4.1-2.4-5.6C14.3,37.6,17.6,41.6,18.4,42.5"/>
	<path class="st0" d="M53.2,6.4c0.6,0.6,2.3,1.1,3.2,2.5c0.4-0.7-0.6-2.6-1.9-3.8c-1-0.9-2.1-1.6-3.3-2.2
		C50.8,3.9,52.2,5.3,53.2,6.4"/>
	<path class="st0" d="M55.4,11.5c1.1,1,2.4,1.6,4.1,3.5c0.5-1.9,0.6-4,0.2-5.9c-0.5-1.9-1.6-4-3.1-4.6c0.5,1.4,0.8,3,0.9,4.5
		c0.7,2.7,1,2.8,0.9,3.1c-0.2,0-1-1.5-2.2-2.5c-1.3-1.3-2.8-1.6-4-2.4C53.1,8.8,54.1,10.2,55.4,11.5"/>
	<path class="st0" d="M61,22.7c1.3-2.2,1.9-4.7,1.9-7.3c-0.1-1.7-0.9-5.5-2.1-6.1c0.3,3.5-0.6,3.9-0.2,6.7c0,0.1,0.3,3.1,0.3,3.3
		c-0.4-0.1,0-2.7-5.5-6.7c1.1,2.1,0.6,2.7,2.8,5.5C59.5,19.4,60.5,21,61,22.7"/>
	<path class="st0" d="M58.8,25.3c0.6,1,1,2.2,1.3,3.3c2.8-1.7,6-8.1,4.8-11.3c-0.7,2.4-1.8,3-2.4,5c-1.4,3-1.1,4-1.9,4.7
		c0-1.6-0.3-3.3-0.9-4.8c-0.6-1.1-1.2-2.2-2-3.2C57.1,21.2,57.6,23.5,58.8,25.3"/>
	<path class="st0" d="M56.3,30.8c0.1,1.8,0.3,3.6,0.7,5.4c4.8-1.6,7.4-7.1,7.4-9.8c-1.6,3.3-3.6,3.3-6.5,8c-0.2-1.8,0.5-0.4,0.5-3.9
		s-0.8-3.6-0.9-5.8C56.6,25.7,56.3,29.7,56.3,30.8"/>
	<path class="st0" d="M52.2,37.9c-0.4,1.9-0.5,4-0.7,5.5c2.7-1,3.4-0.2,6.7-2.3c1.5-0.8,4.3-4.3,4.1-6.7c-3.2,3.6-3.9,3.2-5.4,4.6
		c-1.5,1.1-2.7,2.9-3.8,2.7c-0.1-0.9,2.4-3.1,2.1-9.2C53.9,34.2,52.9,36,52.2,37.9"/>
	<path class="st0" d="M46.8,42.5c-0.7,1.6-1.7,3-2.8,4.3c1.9,0.6,3.8,1,5.7,1.1c1.4,0,6.3-1.3,7.8-4.6c-2.8,1.5-2.8,1.1-6.6,2
		c-2.7,0.6-4.6,1.5-5.3,1.4c0.2-0.3,2.3-1.3,3.6-3c1.4-1.8,1-4.1,2.4-5.6C50.8,37.6,47.6,41.6,46.8,42.5"/>
	<path class="st0" d="M25.7,54l-0.8-0.4c3.6-3.9,8.7-6.1,14.1-5.8c8.9,0.5,8.2,2.6,13,2.2c0.5,0-0.4,0.6-0.4,0.6
		c-3.4,1.1-7.1,1-10.4-0.2C35.4,48.5,31.6,47.3,25.7,54"/>
	<path class="st0" d="M39.6,54l0.8-0.4c-3.5-3.9-8.7-6.1-14-5.8c-8.9,0.5-8.2,2.6-13,2.2c-0.5,0,0.4,0.6,0.4,0.6
		c3.4,1.1,7.1,1,10.4-0.2C30,48.5,33.7,47.3,39.6,54"/>
	<path class="st0" d="M102.5,26.6c0,8.4-4.6,12.6-14,12.6s-14-4.1-14-12.6V7.8h9.4v16.7c0,3.1,0,7.1,4.6,7.1c4.6,0,4.5-4,4.5-7.1
		V7.8h9.5V26.6"/>
	<polygon class="st0" points="108.1,7.7 117.8,7.7 126.8,24.1 126.8,24.1 126.8,7.7 135.7,7.7 135.7,38.4 126.5,38.4 117.2,21.7 
		117.1,21.7 117.1,38.4 108.1,38.4 	"/>
	<polygon class="st0" points="141.6,7.7 150.9,7.7 150.9,18.3 159.8,18.3 159.8,7.7 169.2,7.7 169.2,38.4 159.8,38.4 159.8,26.3 
		150.9,26.3 150.9,38.4 141.6,38.4 	"/>
	<path class="st0" d="M193.3,19.2c-0.2-2.5-2.3-4.5-4.9-4.5c-4.4,0-5.8,4.3-5.8,8.4s1.5,8.4,5.8,8.4c3.1,0,4.4-2.2,5-5.1h9.3
		c0,6.1-5,12.7-14,12.7c-9.9,0-15.5-7-15.5-16c0-9.7,6-16,15.5-16c8.4,0,13,4.5,13.9,12.1L193.3,19.2"/>
	<path class="st0" d="M216.1,15h4.4c3.6,0,4.7,1.1,4.7,3c0,2.7-2.4,3-4.2,3h-4.9V15z M206.6,38.4h9.5V27.7h5c3.8,0,4,3,4.3,5.9
		c0.1,1.6,0.3,3.2,0.7,4.7h9.4c-0.8-1.5-0.9-5.1-1-6.6c-0.3-3.9-2-6.7-4.5-7.6c3.1-1.1,4.6-4.5,4.6-7.7c0-5.8-4.6-8.8-10-8.8h-17.9
		V38.4"/>
	<polygon class="st0" points="77.7,45.4 74.5,45.4 74.5,43.5 83,43.5 83,45.4 79.9,45.4 79.9,53.8 77.7,53.8 	"/>
	<path class="st0" d="M83.7,43.5h2.1v3.9l0,0c0.5-0.8,1.3-1.3,2.2-1.3c2.2,0,2.7,1.3,2.7,3v4.6h-2.1v-4.2c0-1.3-0.3-1.9-1.4-1.9
		s-1.6,0.6-1.6,2.1v3.9h-2.1L83.7,43.5"/>
	<path class="st0" d="M93.5,50.5c0.1,1.3,0.7,1.9,1.9,1.9c0.7,0,1.3-0.4,1.6-0.9h1.8c-0.4,1.5-1.8,2.6-3.4,2.5
		c-2,0.1-3.7-1.5-3.8-3.4v-0.4c-0.1-2.1,1.4-3.8,3.5-4c0,0,0,0,0,0h0.3c2.5,0,3.8,2.1,3.6,4.4H93.5z M96.8,49.3
		c-0.2-1-0.6-1.6-1.7-1.6c-0.9,0-1.6,0.6-1.7,1.5v0.1H96.8"/>
	<path class="st0" d="M112.2,49.9c0,2.8-1.7,4.2-4.4,4.2s-4.4-1.4-4.4-4.2v-6.4h2.3v6.4c0,1.1,0.3,2.2,2.1,2.2
		c1.6,0,2.1-0.7,2.1-2.2v-6.4h2.3V49.9"/>
	<polygon class="st0" points="113.6,43.5 115.9,43.5 120.2,50.3 120.2,50.3 120.2,43.5 122.4,43.5 122.4,53.8 120.1,53.8 
		115.8,46.9 115.8,46.9 115.8,53.8 113.6,53.8 	"/>
	<path class="st0" d="M129.5,45.2h2.5c1,0,1.6,0.4,1.6,1.5c0,1-0.5,1.5-1.6,1.5h-2.5L129.5,45.2z M127.3,53.8h2.3v-4h2.3
		c1.1,0,1.6,0.5,1.7,1.6c0,0.9,0.1,1.7,0.4,2.5h2.3c-0.3-0.8-0.4-1.6-0.4-2.4c-0.1-1-0.4-2.1-1.5-2.4l0,0c1.1-0.4,1.7-1.5,1.7-2.6
		c0-1.5-1.2-2.8-2.8-2.8c0,0,0,0,0,0h-5.7L127.3,53.8"/>
	<path class="st0" d="M138.8,49.3c0-0.9,0.7-1.5,1.6-1.6h0.1c0.9,0,1.5,0.5,1.7,1.6H138.8z M144.2,50.5c0.1-2.3-1-4.4-3.6-4.4
		c-2-0.1-3.7,1.5-3.8,3.5c0,0,0,0.1,0,0.1V50c-0.2,1.9,1.3,3.7,3.2,3.8c0,0,0.1,0,0.1,0h0.4c1.6,0.1,3-1,3.4-2.5h-1.8
		c-0.3,0.6-0.9,1-1.6,0.9c-1.1,0-1.8-0.6-1.9-1.9L144.2,50.5"/>
	<path class="st0" d="M145.5,47.7h-1.3v-1.4h1.3v-0.5c-0.1-1.2,0.8-2.2,2-2.3c0,0,0.1,0,0.1,0h0.4c0.4,0,0.7,0,1,0.1v1.6h-0.7
		c-0.5,0-0.7,0.2-0.7,0.8v0.4h1.5v1.4h-1.5v6h-2.1V47.7"/>
	<path class="st0" d="M156.6,53.8h-2v-1l0,0c-0.5,0.8-1.4,1.2-2.3,1.3c-2.2,0-2.7-1.3-2.7-3v-4.6h2.1v4.2c0,1.3,0.4,1.9,1.4,1.9
		c1.1,0,1.6-0.6,1.6-2.1v-4h2.1v7.4"/>
	<path class="st0" d="M161.2,52c-1.3,0-1.7-1.1-1.7-2.2s0.5-2.1,1.7-2.1c1.4,0,1.8,1,1.8,2.3c0.2,1-0.5,1.9-1.5,2.1c0,0-0.1,0-0.1,0
		C161.4,52.1,161.4,52.1,161.2,52 M165,46.4h-2v1l0,0c-0.4-0.8-1.3-1.3-2.2-1.1c-1.8,0.1-3.3,1.6-3.2,3.4c0,0.1,0,0.1,0,0.2
		c0,1.9,0.9,3.8,3.1,3.8c0.9,0,1.7-0.4,2.2-1.1l0,0v0.9c0,1-0.5,1.9-1.7,1.9c-0.7,0.1-1.4-0.3-1.6-1h-2c0.1,1.7,1.8,2.4,3.2,2.4
		c3.4,0,3.9-2.1,3.9-3.3L165,46.4"/>
	<path class="st0" d="M168,49.3c0-0.9,0.7-1.5,1.6-1.6h0.1c1,0,1.5,0.5,1.7,1.6H168z M173.3,50.5c0.1-2.3-1-4.4-3.6-4.4
		c-2-0.1-3.7,1.5-3.8,3.5c0,0,0,0.1,0,0.1V50c-0.2,1.9,1.3,3.7,3.2,3.8c0,0,0.1,0,0.1,0h0.4c1.6,0.1,3-1,3.4-2.5h-1.8
		c-0.3,0.6-0.9,1-1.6,0.9c-1.1,0-1.8-0.6-1.9-1.9L173.3,50.5"/>
	<path class="st0" d="M176,49.3c0-0.9,0.7-1.6,1.6-1.6c0,0,0.1,0,0.1,0h0.1c0.9,0,1.5,0.5,1.7,1.6H176z M181.4,50.5
		c0.1-2.3-1-4.4-3.6-4.4c-2-0.1-3.7,1.5-3.8,3.5c0,0,0,0.1,0,0.1V50c-0.2,1.9,1.3,3.7,3.2,3.8c0,0,0.1,0,0.1,0h0.4
		c1.6,0.1,3.1-0.9,3.4-2.5h-1.8c-0.3,0.6-1,1-1.7,0.9c-1.1,0-1.8-0.6-1.9-1.9L181.4,50.5"/>
	<path class="st0" d="M190.7,46.1L190.7,46.1l1.3,3.8h-2.7L190.7,46.1z M185.7,53.8h2.3l0.8-2.3h3.9l0.7,2.3h2.4L192,43.6h-2.3
		L185.7,53.8z"/>
	<path class="st0" d="M199.6,52c-1.3,0-1.7-1.1-1.7-2.2s0.5-2.1,1.7-2.1c1.4,0,1.8,1,1.8,2.3c0.1,1-0.6,1.9-1.6,2.1
		C199.7,52.1,199.6,52.1,199.6,52 M203.2,46.4h-2v1l0,0c-0.4-0.8-1.3-1.3-2.2-1.1c-1.8,0.1-3.3,1.6-3.2,3.4c0,0.1,0,0.1,0,0.2
		c0,1.9,0.9,3.8,3.2,3.8c0.9,0,1.7-0.4,2.2-1.1l0,0v0.9c0,1-0.5,1.9-1.7,1.9c-0.7,0.1-1.4-0.3-1.6-1h-2c0.1,1.7,1.8,2.4,3.2,2.4
		c3.4,0,3.9-2.1,3.9-3.3L203.2,46.4"/>
	<path class="st0" d="M206.3,49.3c0-0.9,0.7-1.6,1.6-1.6c0,0,0.1,0,0.1,0h0.1c0.9,0,1.5,0.5,1.7,1.6H206.3z M211.7,50.5
		c0.1-2.3-1-4.4-3.6-4.4c-2,0-3.7,1.6-3.8,3.6V50c-0.2,1.9,1.3,3.7,3.2,3.8c0,0,0.1,0,0.1,0h0.4c1.6,0.1,3-1,3.4-2.5h-1.8
		c-0.3,0.6-1,1-1.7,0.9c-1.1,0-1.8-0.6-1.9-1.9L211.7,50.5"/>
	<path class="st0" d="M212.5,46.4h2v1h0.1c0.5-0.8,1.4-1.2,2.3-1.3c2.2,0,2.7,1.3,2.7,3v4.6h-2.1v-4.2c0-1.3-0.3-1.9-1.4-1.9
		s-1.6,0.6-1.6,2.1v3.9h-2.1V46.4"/>
	<path class="st0" d="M225.8,49c-0.1-0.7-0.7-1.3-1.5-1.3l0,0c-1.4,0-1.8,1.4-1.8,2.4c0,1,0.4,2.3,1.7,2.3c0.8,0,1.6-0.6,1.7-1.5h2
		c-0.1,1.8-1.6,3.1-3.4,3c-0.1,0-0.1,0-0.2,0l0,0c-2,0.1-3.7-1.5-3.8-3.4v-0.3c-0.2-2,1.2-3.7,3.2-3.9c0.1,0,0.1,0,0.2,0h0.5
		c1.7-0.2,3.3,1.1,3.5,2.8L225.8,49"/>
	<path class="st0" d="M232.4,54.7c-0.3,1.1-1.4,1.9-2.6,1.7c-0.4,0-0.8,0-1.3-0.1v-1.7c0.4,0,0.8,0.1,1.1,0.1
		c0.5-0.1,0.9-0.6,0.8-1.1c0-0.1,0-0.2-0.1-0.3l-2.6-7h2.2l1.7,5.1l0,0l1.7-5.1h2.1L232.4,54.7"/>
</g>
<line class="st1" x1="266.6" y1="0" x2="266.6" y2="56.7"/>
<g>
	<path class="st0" d="M297.8,43.4V12.7h9.8c9.5,0,15.5,6.9,15.5,15.4c0,8.5-6,15.3-15.5,15.3H297.8z M320.4,28.1
		c0-7.2-4.6-13-12.7-13h-7.2V41h7.2C315.7,41,320.4,35.3,320.4,28.1z"/>
	<path class="st0" d="M343.7,43.4v-2.6c-2,2.2-4.5,3.2-7.5,3.2c-3.8,0-7.8-2.6-7.8-7.4c0-4.8,3.9-7.4,7.8-7.4c3.1,0,5.6,1,7.5,3.2
		v-4.5c0-3.3-2.7-5.1-6-5.1c-2.8,0-4.9,1-6.9,3.3l-1.3-1.7c2.3-2.5,4.9-3.7,8.6-3.7c4.5,0,8.1,2.2,8.1,7.1v15.6H343.7z M343.7,39
		v-4.9c-1.6-2-4-3.1-6.7-3.1c-3.7,0-6.1,2.3-6.1,5.5c0,3.1,2.4,5.5,6.1,5.5C339.6,42.1,342.1,41.1,343.7,39z"/>
	<path class="st0" d="M354,39.1V23.3h-3.7v-2.1h3.7v-6.1h2.4v6.1h4.5v2.1h-4.5v15.5c0,1.8,0.7,3,2.3,3c1.1,0,2-0.5,2.5-1.1l0.9,1.8
		c-0.9,0.8-1.9,1.4-3.8,1.4C355.4,44,354,42.2,354,39.1z"/>
	<path class="st0" d="M380.3,43.4v-2.6c-2,2.2-4.5,3.2-7.5,3.2c-3.8,0-7.8-2.6-7.8-7.4c0-4.8,3.9-7.4,7.8-7.4c3.1,0,5.6,1,7.5,3.2
		v-4.5c0-3.3-2.7-5.1-6-5.1c-2.8,0-4.9,1-6.9,3.3l-1.3-1.7c2.3-2.5,4.9-3.7,8.6-3.7c4.5,0,8.1,2.2,8.1,7.1v15.6H380.3z M380.3,39
		v-4.9c-1.6-2-4-3.1-6.7-3.1c-3.7,0-6.1,2.3-6.1,5.5c0,3.1,2.4,5.5,6.1,5.5C376.2,42.1,378.7,41.1,380.3,39z"/>
	<path class="st0" d="M396.1,43.4l-9.4-22.2h2.7l8.1,19.4l8-19.4h2.7l-9.4,22.2H396.1z"/>
	<path class="st0" d="M411.6,15.9c0-1,0.9-1.8,1.8-1.8c1,0,1.8,0.8,1.8,1.8c0,1-0.8,1.8-1.8,1.8C412.5,17.7,411.6,16.9,411.6,15.9z
		 M412.3,43.4V21.2h2.4v22.2H412.3z"/>
	<path class="st0" d="M421,43.4v-2l13.2-18.1H421v-2.1h16.2v1.9l-13.3,18.2h13.5v2.1H421z"/>
</g>
</svg>
