<svg xmlns="http://www.w3.org/2000/svg" width="350" height="148" viewBox="0 0 350 148"><rect width="350" height="148" fill="#f1f2f2"/><path d="M31.92,21.87V14.54h2.5a3.56,3.56,0,0,1,3.76,3.67,3.54,3.54,0,0,1-3.76,3.66Zm5.32-3.66a2.69,2.69,0,0,0-2.82-2.86H32.83v5.71h1.59A2.7,2.7,0,0,0,37.24,18.21Z" fill="#0072bc"/><path d="M39.26,19.21a2.63,2.63,0,1,1,5.26,0,2.63,2.63,0,1,1-5.26,0Zm4.39,0a1.78,1.78,0,1,0-3.52,0,1.78,1.78,0,1,0,3.52,0Z" fill="#0072bc"/><circle cx="17.55" cy="17.55" r="7.55" fill="#9dc5ff"/><circle cx="17.55" cy="17.55" r="4.8" fill="#0072bc"/><polyline points="14.8 17.55 16.63 19.38 20.29 15.72" fill="none" stroke="#fff" stroke-linecap="round" stroke-linejoin="round" stroke-width="0.75"/><path d="M201.92,21.87V14.54h2.5a3.56,3.56,0,0,1,3.76,3.67,3.54,3.54,0,0,1-3.76,3.66Zm5.32-3.66a2.69,2.69,0,0,0-2.82-2.86h-1.59v5.71h1.59A2.7,2.7,0,0,0,207.24,18.21Z" fill="#ef4a60"/><path d="M209.26,19.21a2.63,2.63,0,1,1,5.26,0,2.63,2.63,0,1,1-5.26,0Zm4.39,0a1.78,1.78,0,1,0-3.52,0,1.78,1.78,0,1,0,3.52,0Z" fill="#ef4a60"/><path d="M219.44,21.87V18.4c0-.95-.48-1.23-1.19-1.23a2.06,2.06,0,0,0-1.57.82v3.88h-.83V16.56h.83v.77a2.58,2.58,0,0,1,1.9-.9,1.5,1.5,0,0,1,1.68,1.71v3.73Z" fill="#ef4a60"/><path d="M222.07,16.93l-.42-.35a1.65,1.65,0,0,0,.71-1l-.15,0a.53.53,0,0,1-.53-.56.6.6,0,0,1,.58-.59c.38,0,.7.3.7.84A2.14,2.14,0,0,1,222.07,16.93Z" fill="#ef4a60"/><path d="M224.54,20.76V17.29h-.88v-.73h.88V15.11h.83v1.45h1.08v.73h-1.08v3.29c0,.4.18.68.53.68a.75.75,0,0,0,.56-.23l.24.63a1.32,1.32,0,0,1-1,.34A1.08,1.08,0,0,1,224.54,20.76Z" fill="#ef4a60"/><circle cx="187.55" cy="17.55" r="7.55" fill="#ffbcc1"/><circle cx="187.55" cy="17.55" r="4.8" fill="#ef4a60"/><line x1="189.55" y1="15.55" x2="185.55" y2="19.55" fill="none" stroke="#fff" stroke-linecap="round" stroke-linejoin="round" stroke-width="0.75"/><line x1="189.55" y1="19.55" x2="185.55" y2="15.55" fill="none" stroke="#fff" stroke-linecap="round" stroke-linejoin="round" stroke-width="0.75"/><line x1="225.96" y1="33.24" x2="225.96" y2="125" fill="none" stroke="#000" stroke-miterlimit="10" stroke-width="0.5"/><line x1="245.8" y1="33.24" x2="245.8" y2="125" fill="none" stroke="#d0d2d3" stroke-linecap="round" stroke-linejoin="round" stroke-width="0.25"/><line x1="265.63" y1="33.24" x2="265.63" y2="125" fill="none" stroke="#d0d2d3" stroke-linecap="round" stroke-linejoin="round" stroke-width="0.25"/><line x1="285.47" y1="33.24" x2="285.47" y2="125" fill="none" stroke="#d0d2d3" stroke-linecap="round" stroke-linejoin="round" stroke-width="0.25"/><line x1="305.31" y1="33.24" x2="305.31" y2="125" fill="none" stroke="#d0d2d3" stroke-linecap="round" stroke-linejoin="round" stroke-width="0.25"/><rect x="226.29" y="36.17" width="71.91" height="13.12" fill="#0072bb"/><rect x="226.29" y="54.39" width="32.91" height="13.12" fill="#0072bb"/><rect x="226.29" y="72.61" width="19.91" height="13.12" fill="#0072bb"/><rect x="226.29" y="90.83" width="12.91" height="13.12" fill="#0072bb"/><rect x="226.29" y="109.05" width="6.91" height="13.12" fill="#0072bb"/><path d="M221,131.58v-3.19l-.61.65-.29-.29,1-1h.41v3.82Z" fill="#5e5e5e"/><path d="M222.25,129.68c0-1,.48-2,1.56-2a1.29,1.29,0,0,1,1.05.46l-.24.35a1,1,0,0,0-.81-.39c-.75,0-1.08.75-1.08,1.5v.15a1.39,1.39,0,0,1,1.08-.6,1.16,1.16,0,0,1,1.25,1.22,1.25,1.25,0,0,1-1.33,1.25C222.66,131.65,222.25,130.72,222.25,129.68Zm2.33.74a.79.79,0,0,0-.88-.82,1.15,1.15,0,0,0-.95.56c0,.48.29,1.07.95,1.07A.84.84,0,0,0,224.58,130.42Z" fill="#5e5e5e"/><path d="M225.63,129.68c0-.94.41-2,1.46-2s1.46,1,1.46,2-.42,2-1.46,2S225.63,130.6,225.63,129.68Zm2.43,0c0-.76-.25-1.55-1-1.55s-1,.79-1,1.55.24,1.55,1,1.55S228.06,130.44,228.06,129.68Z" fill="#5e5e5e"/><path d="M243.09,131.58v-3.19l-.61.65-.29-.29,1-1h.42v3.82Z" fill="#5e5e5e"/><path d="M244.31,130.61a1.14,1.14,0,0,1,.91-1,1,1,0,0,1-.85-.91c0-.69.67-1,1.31-1s1.31.3,1.31,1a1,1,0,0,1-.86.91,1.14,1.14,0,0,1,.91,1c0,.65-.61,1-1.36,1S244.31,131.27,244.31,130.61Zm2.25-.05c0-.49-.65-.71-.88-.74s-.89.25-.89.74.41.67.89.67S246.56,131,246.56,130.56Zm-.05-1.8c0-.39-.38-.63-.83-.63s-.83.24-.83.63.6.62.83.66S246.51,129.22,246.51,128.76Z" fill="#5e5e5e"/><path d="M247.63,129.68c0-.94.41-2,1.46-2s1.46,1,1.46,2-.42,2-1.46,2S247.63,130.6,247.63,129.68Zm2.43,0c0-.76-.25-1.55-1-1.55s-1,.79-1,1.55.24,1.55,1,1.55S250.06,130.44,250.06,129.68Z" fill="#5e5e5e"/><path d="M260.79,131.58v-.38c1.37-1.08,2.12-1.71,2.12-2.37a.72.72,0,0,0-.8-.7,1.31,1.31,0,0,0-1,.48l-.29-.3a1.63,1.63,0,0,1,1.33-.6,1.16,1.16,0,0,1,1.28,1.12c0,.78-.79,1.49-1.85,2.33h1.87v.42Z" fill="#5e5e5e"/><path d="M264.13,129.68c0-.94.41-2,1.46-2s1.46,1,1.46,2-.42,2-1.46,2S264.13,130.6,264.13,129.68Zm2.43,0c0-.76-.24-1.55-1-1.55s-1,.79-1,1.55.24,1.55,1,1.55S266.56,130.44,266.56,129.68Z" fill="#5e5e5e"/><path d="M267.63,129.68c0-.94.41-2,1.46-2s1.46,1,1.46,2-.42,2-1.46,2S267.63,130.6,267.63,129.68Zm2.43,0c0-.76-.25-1.55-1-1.55s-1,.79-1,1.55.24,1.55,1,1.55S270.06,130.44,270.06,129.68Z" fill="#5e5e5e"/><path d="M280.92,131.58v-.38c1.38-1.08,2.13-1.71,2.13-2.37a.72.72,0,0,0-.8-.7,1.29,1.29,0,0,0-1,.48l-.29-.3a1.63,1.63,0,0,1,1.33-.6,1.16,1.16,0,0,1,1.28,1.12c0,.78-.79,1.49-1.86,2.33h1.87v.42Z" fill="#5e5e5e"/><path d="M284.29,131.58v-.38c1.37-1.08,2.12-1.71,2.12-2.37a.72.72,0,0,0-.8-.7,1.29,1.29,0,0,0-1,.48l-.29-.3a1.63,1.63,0,0,1,1.33-.6,1.16,1.16,0,0,1,1.28,1.12c0,.78-.79,1.49-1.86,2.33h1.88v.42Z" fill="#5e5e5e"/><path d="M287.63,129.68c0-.94.41-2,1.46-2s1.46,1,1.46,2-.42,2-1.46,2S287.63,130.6,287.63,129.68Zm2.43,0c0-.76-.25-1.55-1-1.55s-1,.79-1,1.55.24,1.55,1,1.55S290.06,130.44,290.06,129.68Z" fill="#5e5e5e"/><path d="M301.1,131.58v-.38c1.37-1.08,2.12-1.71,2.12-2.37a.72.72,0,0,0-.8-.7,1.29,1.29,0,0,0-1,.48l-.29-.3a1.63,1.63,0,0,1,1.33-.6,1.16,1.16,0,0,1,1.28,1.12c0,.78-.79,1.49-1.86,2.33h1.88v.42Z" fill="#5e5e5e"/><path d="M306.14,131.58v-1h-1.81v-.39l1.64-2.46h.65v2.44h.54v.41h-.54v1Zm0-3.37-1.33,2h1.33Z" fill="#5e5e5e"/><path d="M307.63,129.68c0-.94.41-2,1.46-2s1.46,1,1.46,2-.42,2-1.46,2S307.63,130.6,307.63,129.68Zm2.43,0c0-.76-.25-1.55-1-1.55s-1,.79-1,1.55.24,1.55,1,1.55S310.06,130.44,310.06,129.68Z" fill="#5e5e5e"/><rect x="209.16" y="41.16" width="10.03" height="3.15" fill="#bbbdbf"/><rect x="209.16" y="59.38" width="10.03" height="3.15" fill="#bbbdbf"/><rect x="209.16" y="78.24" width="10.03" height="3.15" fill="#bbbdbf"/><rect x="209.16" y="95.24" width="10.03" height="3.15" fill="#bbbdbf"/><rect x="209.16" y="115.24" width="10.03" height="3.15" fill="#bbbdbf"/><line x1="55.75" y1="33.24" x2="55.75" y2="125" fill="none" stroke="#000" stroke-miterlimit="10" stroke-width="0.5"/><line x1="68.98" y1="33.24" x2="68.98" y2="125" fill="none" stroke="#d0d2d3" stroke-linecap="round" stroke-linejoin="round" stroke-width="0.25"/><line x1="82.2" y1="33.24" x2="82.2" y2="125" fill="none" stroke="#d0d2d3" stroke-linecap="round" stroke-linejoin="round" stroke-width="0.25"/><line x1="95.43" y1="33.24" x2="95.43" y2="125" fill="none" stroke="#d0d2d3" stroke-linecap="round" stroke-linejoin="round" stroke-width="0.25"/><line x1="108.66" y1="33.24" x2="108.66" y2="125" fill="none" stroke="#d0d2d3" stroke-linecap="round" stroke-linejoin="round" stroke-width="0.25"/><line x1="121.88" y1="33.24" x2="121.88" y2="125" fill="none" stroke="#d0d2d3" stroke-linecap="round" stroke-linejoin="round" stroke-width="0.25"/><line x1="135.11" y1="33.24" x2="135.11" y2="125" fill="none" stroke="#d0d2d3" stroke-linecap="round" stroke-linejoin="round" stroke-width="0.25"/><rect x="56.08" y="36.17" width="76.91" height="13.12" fill="#0072bb"/><rect x="56.08" y="54.39" width="63.91" height="13.12" fill="#0072bb"/><rect x="56.08" y="72.61" width="59.91" height="13.12" fill="#0072bb"/><rect x="56.08" y="90.83" width="55.91" height="13.12" fill="#0072bb"/><rect x="56.08" y="109.05" width="52.91" height="13.12" fill="#0072bb"/><path d="M53.83,129.78c0-.93.42-2,1.46-2s1.46,1,1.46,2-.42,2-1.46,2S53.83,130.71,53.83,129.78Zm2.44,0c0-.76-.25-1.55-1-1.55s-1,.79-1,1.55.25,1.55,1,1.55S56.27,130.54,56.27,129.78Z" fill="#5e5e5e"/><path d="M67.35,131.68v-1H65.53v-.4l1.64-2.45h.65v2.43h.54v.42h-.54v1Zm0-3.37-1.34,2h1.34Z" fill="#5e5e5e"/><path d="M68.83,129.78c0-.93.42-2,1.46-2s1.46,1,1.46,2-.42,2-1.46,2S68.83,130.71,68.83,129.78Zm2.44,0c0-.76-.25-1.55-1-1.55s-1,.79-1,1.55.25,1.55,1,1.55S71.27,130.54,71.27,129.78Z" fill="#5e5e5e"/><path d="M78.51,130.72a1.15,1.15,0,0,1,.91-1,1,1,0,0,1-.85-.91c0-.69.67-1,1.31-1s1.31.3,1.31,1a1,1,0,0,1-.85.91,1.15,1.15,0,0,1,.91,1c0,.64-.62,1-1.37,1S78.51,131.37,78.51,130.72Zm2.26-.05c0-.5-.66-.71-.89-.74s-.89.24-.89.74.41.66.89.66S80.77,131.08,80.77,130.67Zm-.06-1.81c0-.39-.37-.63-.83-.63s-.82.24-.82.63.59.62.82.66S80.71,129.33,80.71,128.86Z" fill="#5e5e5e"/><path d="M81.83,129.78c0-.93.42-2,1.46-2s1.46,1,1.46,2-.42,2-1.46,2S81.83,130.71,81.83,129.78Zm2.44,0c0-.76-.25-1.55-1-1.55s-1,.79-1,1.55.25,1.55,1,1.55S84.27,130.54,84.27,129.78Z" fill="#5e5e5e"/><path d="M91.26,131.68v-3.19l-.61.65-.29-.29,1-1h.42v3.81Z" fill="#5e5e5e"/><path d="M92.49,131.68v-.38c1.37-1.08,2.12-1.71,2.12-2.37a.71.71,0,0,0-.8-.7,1.27,1.27,0,0,0-1,.48l-.3-.3a1.65,1.65,0,0,1,1.33-.6,1.16,1.16,0,0,1,1.28,1.12c0,.78-.79,1.49-1.85,2.33h1.87v.42Z" fill="#5e5e5e"/><path d="M95.83,129.78c0-.93.42-2,1.46-2s1.46,1,1.46,2-.42,2-1.46,2S95.83,130.71,95.83,129.78Zm2.44,0c0-.76-.25-1.55-1-1.55s-1,.79-1,1.55.25,1.55,1,1.55S98.27,130.54,98.27,129.78Z" fill="#5e5e5e"/><path d="M104.24,131.68v-3.19l-.61.65-.28-.29,1-1h.42v3.81Z" fill="#5e5e5e"/><path d="M105.46,129.78c0-1,.48-2,1.55-2a1.27,1.27,0,0,1,1,.46l-.24.35a1,1,0,0,0-.81-.39c-.74,0-1.07.75-1.07,1.5v.15a1.35,1.35,0,0,1,1.08-.59,1.15,1.15,0,0,1,1.24,1.21,1.25,1.25,0,0,1-1.33,1.25C105.86,131.75,105.46,130.82,105.46,129.78Zm2.32.74a.78.78,0,0,0-.87-.82,1.17,1.17,0,0,0-1,.56c0,.48.29,1.07,1,1.07A.83.83,0,0,0,107.78,130.52Z" fill="#5e5e5e"/><path d="M108.83,129.78c0-.93.42-2,1.46-2s1.46,1,1.46,2-.42,2-1.46,2S108.83,130.71,108.83,129.78Zm2.44,0c0-.76-.25-1.55-1-1.55s-1,.79-1,1.55.25,1.55,1,1.55S111.27,130.54,111.27,129.78Z" fill="#5e5e5e"/><path d="M116,131.68v-.38c1.37-1.08,2.12-1.71,2.12-2.37a.71.71,0,0,0-.8-.7,1.27,1.27,0,0,0-1,.48l-.3-.3a1.65,1.65,0,0,1,1.33-.6,1.16,1.16,0,0,1,1.28,1.12c0,.78-.79,1.49-1.85,2.33h1.87v.42Z" fill="#5e5e5e"/><path d="M119.33,129.78c0-.93.42-2,1.46-2s1.46,1,1.46,2-.41,2-1.46,2S119.33,130.71,119.33,129.78Zm2.44,0c0-.76-.25-1.55-1-1.55s-1,.79-1,1.55.25,1.55,1,1.55S121.77,130.54,121.77,129.78Z" fill="#5e5e5e"/><path d="M122.83,129.78c0-.93.42-2,1.46-2s1.46,1,1.46,2-.42,2-1.46,2S122.83,130.71,122.83,129.78Zm2.44,0c0-.76-.25-1.55-1-1.55s-1,.79-1,1.55.25,1.55,1,1.55S125.27,130.54,125.27,129.78Z" fill="#5e5e5e"/><path d="M130.3,131.68v-.38c1.37-1.08,2.12-1.71,2.12-2.37a.71.71,0,0,0-.8-.7,1.27,1.27,0,0,0-1,.48l-.3-.3a1.65,1.65,0,0,1,1.33-.6,1.16,1.16,0,0,1,1.28,1.12c0,.78-.79,1.49-1.85,2.33h1.87v.42Z" fill="#5e5e5e"/><path d="M135.35,131.68v-1h-1.82v-.4l1.64-2.45h.65v2.43h.54v.42h-.54v1Zm0-3.37-1.34,2h1.34Z" fill="#5e5e5e"/><path d="M136.83,129.78c0-.93.42-2,1.46-2s1.46,1,1.46,2-.42,2-1.46,2S136.83,130.71,136.83,129.78Zm2.44,0c0-.76-.25-1.55-1-1.55s-1,.79-1,1.55.25,1.55,1,1.55S139.27,130.54,139.27,129.78Z" fill="#5e5e5e"/><rect x="39.96" y="41.16" width="10.03" height="3.15" fill="#bbbdbf"/><rect x="39.96" y="59.38" width="10.03" height="3.15" fill="#bbbdbf"/><rect x="39.96" y="78.24" width="10.03" height="3.15" fill="#bbbdbf"/><rect x="39.96" y="95.24" width="10.03" height="3.15" fill="#bbbdbf"/><rect x="39.96" y="115.24" width="10.03" height="3.15" fill="#bbbdbf"/></svg>