<svg xmlns="http://www.w3.org/2000/svg" width="350" height="148" viewBox="0 0 350 148"><rect width="350" height="148" fill="#f1f2f2"/><line x1="33.81" y1="123.09" x2="159.31" y2="123.09" fill="none" stroke="#000" stroke-miterlimit="10" stroke-width="0.5"/><line x1="33.81" y1="109.87" x2="159.31" y2="109.87" fill="none" stroke="#d0d2d3" stroke-linecap="round" stroke-linejoin="round" stroke-width="0.25"/><line x1="33.81" y1="96.64" x2="159.31" y2="96.64" fill="none" stroke="#d0d2d3" stroke-linecap="round" stroke-linejoin="round" stroke-width="0.25"/><line x1="33.81" y1="83.41" x2="159.31" y2="83.41" fill="none" stroke="#d0d2d3" stroke-linecap="round" stroke-linejoin="round" stroke-width="0.25"/><line x1="33.81" y1="70.19" x2="159.31" y2="70.19" fill="none" stroke="#d0d2d3" stroke-linecap="round" stroke-linejoin="round" stroke-width="0.25"/><line x1="33.81" y1="56.96" x2="159.31" y2="56.96" fill="none" stroke="#d0d2d3" stroke-linecap="round" stroke-linejoin="round" stroke-width="0.25"/><line x1="33.81" y1="43.74" x2="159.31" y2="43.74" fill="none" stroke="#d0d2d3" stroke-linecap="round" stroke-linejoin="round" stroke-width="0.25"/><rect x="137.93" y="77.6" width="17.9" height="45.5" fill="#0072bb"/><rect x="113.06" y="70.45" width="17.9" height="52.64" fill="#0072bb"/><rect x="88.2" y="69.13" width="17.9" height="53.96" fill="#0072bb"/><rect x="63.33" y="54.9" width="17.9" height="68.19" fill="#0072bb"/><rect x="38.46" y="53.53" width="17.9" height="69.56" fill="#0072bb"/><rect x="20.69" y="42.16" width="10.03" height="3.15" fill="#bbbdbf"/><rect x="20.69" y="55.57" width="10.03" height="3.15" fill="#bbbdbf"/><rect x="20.69" y="68.98" width="10.03" height="3.15" fill="#bbbdbf"/><rect x="20.69" y="81.98" width="10.03" height="3.15" fill="#bbbdbf"/><rect x="20.69" y="94.97" width="10.03" height="3.15" fill="#bbbdbf"/><rect x="20.69" y="108.38" width="10.03" height="3.15" fill="#bbbdbf"/><rect x="20.69" y="121.37" width="10.03" height="3.15" fill="#bbbdbf"/><rect x="42.65" y="126.86" width="10.03" height="3.15" fill="#bbbdbf"/><rect x="67.35" y="126.86" width="10.03" height="3.15" fill="#bbbdbf"/><rect x="92.06" y="126.86" width="10.03" height="3.15" fill="#bbbdbf"/><rect x="116.76" y="126.86" width="10.03" height="3.15" fill="#bbbdbf"/><rect x="141.47" y="126.86" width="10.03" height="3.15" fill="#bbbdbf"/><line x1="203.81" y1="123.09" x2="329.31" y2="123.09" fill="none" stroke="#000" stroke-miterlimit="10" stroke-width="0.5"/><line x1="203.81" y1="109.87" x2="329.31" y2="109.87" fill="none" stroke="#d0d2d3" stroke-linecap="round" stroke-linejoin="round" stroke-width="0.25"/><line x1="203.81" y1="96.64" x2="329.31" y2="96.64" fill="none" stroke="#d0d2d3" stroke-linecap="round" stroke-linejoin="round" stroke-width="0.25"/><line x1="203.81" y1="83.41" x2="329.31" y2="83.41" fill="none" stroke="#d0d2d3" stroke-linecap="round" stroke-linejoin="round" stroke-width="0.25"/><line x1="203.81" y1="70.19" x2="329.31" y2="70.19" fill="none" stroke="#d0d2d3" stroke-linecap="round" stroke-linejoin="round" stroke-width="0.25"/><line x1="203.81" y1="56.96" x2="329.31" y2="56.96" fill="none" stroke="#d0d2d3" stroke-linecap="round" stroke-linejoin="round" stroke-width="0.25"/><line x1="203.81" y1="43.74" x2="329.31" y2="43.74" fill="none" stroke="#d0d2d3" stroke-linecap="round" stroke-linejoin="round" stroke-width="0.25"/><rect x="283.06" y="54.32" width="17.9" height="14.81" fill="#0072bc"/><rect x="307.93" y="53.26" width="17.9" height="15.08" fill="#0072bc"/><rect x="208.46" y="77.6" width="17.9" height="45.5" fill="#0072bb"/><rect x="233.33" y="70.45" width="17.9" height="52.64" fill="#0072bb"/><rect x="258.2" y="69.13" width="17.9" height="53.96" fill="#0072bb"/><rect x="283.06" y="54.9" width="17.9" height="68.19" fill="#0072bb"/><rect x="307.93" y="53.53" width="17.9" height="69.56" fill="#0072bb"/><rect x="190.69" y="42.16" width="10.03" height="3.15" fill="#bbbdbf"/><rect x="190.69" y="55.57" width="10.03" height="3.15" fill="#bbbdbf"/><rect x="190.69" y="68.98" width="10.03" height="3.15" fill="#bbbdbf"/><rect x="190.69" y="81.98" width="10.03" height="3.15" fill="#bbbdbf"/><rect x="190.69" y="94.97" width="10.03" height="3.15" fill="#bbbdbf"/><rect x="190.69" y="108.38" width="10.03" height="3.15" fill="#bbbdbf"/><rect x="190.69" y="121.37" width="10.03" height="3.15" fill="#bbbdbf"/><rect x="212.65" y="126.86" width="10.03" height="3.15" fill="#bbbdbf"/><rect x="237.35" y="126.86" width="10.03" height="3.15" fill="#bbbdbf"/><rect x="262.06" y="126.86" width="10.03" height="3.15" fill="#bbbdbf"/><rect x="286.76" y="126.86" width="10.03" height="3.15" fill="#bbbdbf"/><rect x="311.47" y="126.86" width="10.03" height="3.15" fill="#bbbdbf"/><path d="M31.92,21.87V14.54h2.5a3.56,3.56,0,0,1,3.76,3.67,3.54,3.54,0,0,1-3.76,3.66Zm5.32-3.66a2.69,2.69,0,0,0-2.82-2.86H32.83v5.71h1.59A2.7,2.7,0,0,0,37.24,18.21Z" fill="#0072bc"/><path d="M39.26,19.21a2.63,2.63,0,1,1,5.26,0,2.63,2.63,0,1,1-5.26,0Zm4.39,0a1.78,1.78,0,1,0-3.52,0,1.78,1.78,0,1,0,3.52,0Z" fill="#0072bc"/><circle cx="17.55" cy="17.55" r="7.55" fill="#9dc5ff"/><circle cx="17.55" cy="17.55" r="4.8" fill="#0072bc"/><polyline points="14.8 17.55 16.63 19.38 20.29 15.72" fill="none" stroke="#fff" stroke-linecap="round" stroke-linejoin="round" stroke-width="0.75"/><path d="M201.92,21.87V14.54h2.5a3.56,3.56,0,0,1,3.76,3.67,3.54,3.54,0,0,1-3.76,3.66Zm5.32-3.66a2.69,2.69,0,0,0-2.82-2.86h-1.59v5.71h1.59A2.7,2.7,0,0,0,207.24,18.21Z" fill="#ef4a60"/><path d="M209.27,19.21a2.63,2.63,0,1,1,5.25,0,2.63,2.63,0,1,1-5.25,0Zm4.38,0a1.78,1.78,0,1,0-3.52,0,1.78,1.78,0,1,0,3.52,0Z" fill="#ef4a60"/><path d="M219.44,21.87V18.4c0-.95-.48-1.23-1.19-1.23a2.06,2.06,0,0,0-1.57.82v3.88h-.83V16.56h.83v.77a2.58,2.58,0,0,1,1.9-.9,1.5,1.5,0,0,1,1.68,1.71v3.73Z" fill="#ef4a60"/><path d="M222.07,16.93l-.42-.35a1.65,1.65,0,0,0,.71-1l-.15,0a.53.53,0,0,1-.53-.56.6.6,0,0,1,.59-.59c.37,0,.69.3.69.84A2.14,2.14,0,0,1,222.07,16.93Z" fill="#ef4a60"/><path d="M224.54,20.76V17.29h-.88v-.73h.88V15.11h.83v1.45h1.08v.73h-1.08v3.29c0,.4.18.68.53.68a.75.75,0,0,0,.56-.23l.24.63a1.32,1.32,0,0,1-1,.34A1.08,1.08,0,0,1,224.54,20.76Z" fill="#ef4a60"/><circle cx="187.55" cy="17.55" r="7.55" fill="#ffbcc1"/><circle cx="187.55" cy="17.55" r="4.8" fill="#ef4a60"/><line x1="189.55" y1="15.55" x2="185.55" y2="19.55" fill="none" stroke="#fff" stroke-linecap="round" stroke-linejoin="round" stroke-width="0.75"/><line x1="189.55" y1="19.55" x2="185.55" y2="15.55" fill="none" stroke="#fff" stroke-linecap="round" stroke-linejoin="round" stroke-width="0.75"/></svg>