<svg xmlns="http://www.w3.org/2000/svg" width="350" height="148" viewBox="0 0 350 148"><rect width="350" height="148" fill="#f1f2f2"/><path d="M209.2,120.1c0-.93.41-2,1.46-2s1.46,1,1.46,2-.42,2-1.46,2S209.2,121,209.2,120.1Zm2.43,0c0-.76-.24-1.54-1-1.54s-1,.78-1,1.54.25,1.55,1,1.55S211.63,120.87,211.63,120.1Z" fill="#5e5e5e"/><path d="M207.6,109v-1h-1.81v-.39l1.64-2.46h.65v2.43h.54V108h-.54v1Zm0-3.38-1.34,2h1.34Z" fill="#5e5e5e"/><path d="M209.2,107.1c0-.93.41-2,1.46-2s1.46,1,1.46,2-.42,2-1.46,2S209.2,108,209.2,107.1Zm2.43,0c0-.76-.24-1.54-1-1.54s-1,.78-1,1.54.25,1.55,1,1.55S211.63,107.87,211.63,107.1Z" fill="#5e5e5e"/><path d="M205.77,95a1.12,1.12,0,0,1,.91-1,1,1,0,0,1-.85-.91c0-.69.67-1,1.3-1s1.32.3,1.32,1a1,1,0,0,1-.86.91,1.12,1.12,0,0,1,.91,1c0,.65-.62,1-1.37,1S205.77,95.69,205.77,95ZM208,95c0-.5-.65-.71-.89-.74s-.88.24-.88.74.41.66.88.66S208,95.4,208,95Zm-.06-1.8c0-.4-.37-.63-.83-.63s-.82.23-.82.63.6.62.82.66S208,93.65,208,93.19Z" fill="#5e5e5e"/><path d="M209.2,94.1c0-.93.41-2,1.46-2s1.46,1,1.46,2-.42,2-1.46,2S209.2,95,209.2,94.1Zm2.43,0c0-.76-.24-1.54-1-1.54s-1,.78-1,1.54.25,1.55,1,1.55S211.63,94.87,211.63,94.1Z" fill="#5e5e5e"/><path d="M204.4,83V79.82l-.61.65-.29-.29,1-1h.42V83Z" fill="#5e5e5e"/><path d="M205.74,83v-.38c1.38-1.08,2.13-1.71,2.13-2.37a.72.72,0,0,0-.8-.7,1.27,1.27,0,0,0-1,.48l-.29-.3a1.63,1.63,0,0,1,1.33-.6,1.16,1.16,0,0,1,1.28,1.12c0,.78-.79,1.49-1.86,2.33h1.88V83Z" fill="#5e5e5e"/><path d="M209.2,81.1c0-.93.41-2,1.46-2s1.46,1,1.46,2-.42,2-1.46,2S209.2,82,209.2,81.1Zm2.43,0c0-.76-.24-1.54-1-1.54s-1,.78-1,1.54.25,1.55,1,1.55S211.63,81.87,211.63,81.1Z" fill="#5e5e5e"/><path d="M204.38,69V65.82l-.61.65-.28-.29.95-1h.42V69Z" fill="#5e5e5e"/><path d="M205.71,67.1c0-1,.48-2,1.56-2a1.33,1.33,0,0,1,1,.45l-.24.36a1,1,0,0,0-.81-.39c-.75,0-1.08.75-1.08,1.5v.15a1.36,1.36,0,0,1,1.08-.6,1.16,1.16,0,0,1,1.25,1.22,1.25,1.25,0,0,1-1.33,1.25C206.12,69.08,205.71,68.15,205.71,67.1Zm2.33.75a.8.8,0,0,0-.88-.83,1.16,1.16,0,0,0-.95.57c0,.48.29,1.06.95,1.06A.83.83,0,0,0,208,67.85Z" fill="#5e5e5e"/><path d="M209.2,67.1c0-.93.41-2,1.46-2s1.46,1,1.46,2-.42,2-1.46,2S209.2,68,209.2,67.1Zm2.43,0c0-.76-.24-1.54-1-1.54s-1,.78-1,1.54.25,1.55,1,1.55S211.63,67.87,211.63,67.1Z" fill="#5e5e5e"/><path d="M202.13,56v-.38c1.37-1.08,2.12-1.71,2.12-2.37a.71.71,0,0,0-.8-.7,1.26,1.26,0,0,0-1,.48l-.29-.3a1.63,1.63,0,0,1,1.32-.6,1.17,1.17,0,0,1,1.29,1.12c0,.78-.79,1.49-1.86,2.33h1.87V56Z" fill="#5e5e5e"/><path d="M205.59,54.1c0-.93.41-2,1.46-2s1.46,1,1.46,2-.42,2-1.46,2S205.59,55,205.59,54.1Zm2.43,0c0-.76-.24-1.54-1-1.54s-1,.78-1,1.54.24,1.55,1,1.55S208,54.87,208,54.1Z" fill="#5e5e5e"/><path d="M209.2,54.1c0-.93.41-2,1.46-2s1.46,1,1.46,2-.42,2-1.46,2S209.2,55,209.2,54.1Zm2.43,0c0-.76-.24-1.54-1-1.54s-1,.78-1,1.54.25,1.55,1,1.55S211.63,54.87,211.63,54.1Z" fill="#5e5e5e"/><path d="M202.44,43v-.38c1.37-1.08,2.12-1.71,2.12-2.37a.71.71,0,0,0-.8-.7,1.25,1.25,0,0,0-1,.48l-.3-.3a1.65,1.65,0,0,1,1.33-.6A1.16,1.16,0,0,1,205,40.26c0,.78-.79,1.49-1.85,2.33h1.87V43Z" fill="#5e5e5e"/><path d="M207.6,43V42h-1.81v-.39l1.64-2.46h.65v2.43h.54V42h-.54v1Zm0-3.38-1.34,2h1.34Z" fill="#5e5e5e"/><path d="M209.2,41.1c0-.93.41-2,1.46-2s1.46,1,1.46,2-.42,2-1.46,2S209.2,42,209.2,41.1Zm2.43,0c0-.76-.24-1.54-1-1.54s-1,.78-1,1.54.25,1.55,1,1.55S211.63,41.87,211.63,41.1Z" fill="#5e5e5e"/><line x1="315.05" y1="120.44" x2="216.02" y2="120.44" fill="none" stroke="#000" stroke-miterlimit="10" stroke-width="0.5"/><line x1="315.05" y1="107.21" x2="216.02" y2="107.21" fill="none" stroke="#d0d2d3" stroke-linecap="round" stroke-linejoin="round" stroke-width="0.25"/><line x1="315.05" y1="93.98" x2="216.02" y2="93.98" fill="none" stroke="#d0d2d3" stroke-linecap="round" stroke-linejoin="round" stroke-width="0.25"/><line x1="315.05" y1="80.76" x2="216.02" y2="80.76" fill="none" stroke="#d0d2d3" stroke-linecap="round" stroke-linejoin="round" stroke-width="0.25"/><line x1="315.05" y1="67.53" x2="216.02" y2="67.53" fill="none" stroke="#d0d2d3" stroke-linecap="round" stroke-linejoin="round" stroke-width="0.25"/><line x1="315.05" y1="54.31" x2="216.02" y2="54.31" fill="none" stroke="#d0d2d3" stroke-linecap="round" stroke-linejoin="round" stroke-width="0.25"/><line x1="315.05" y1="41.08" x2="216.02" y2="41.08" fill="none" stroke="#d0d2d3" stroke-linecap="round" stroke-linejoin="round" stroke-width="0.25"/><rect x="229.01" y="125.24" width="10.03" height="3.15" fill="#bbbdbf"/><rect x="213.01" y="125.24" width="10.03" height="3.15" fill="#bbbdbf"/><rect x="261.01" y="125.24" width="10.03" height="3.15" fill="#bbbdbf"/><rect x="245.01" y="125.24" width="10.03" height="3.15" fill="#bbbdbf"/><rect x="292.01" y="125.24" width="10.03" height="3.15" fill="#bbbdbf"/><rect x="277.01" y="125.24" width="10.03" height="3.15" fill="#bbbdbf"/><rect x="308.15" y="125.24" width="10.03" height="3.15" fill="#bbbdbf"/><polyline points="313.05 48 313.05 120.51 218.05 120.51 218.05 86 233.43 81 249.56 73 264.68 61 281.81 54 297.94 61" fill="#0072bc"/><line x1="146.52" y1="121.71" x2="33.48" y2="121.71" fill="none" stroke="#000" stroke-miterlimit="10" stroke-width="0.5"/><rect x="53.48" y="125.1" width="10.03" height="3.29" fill="#bbbdbf"/><rect x="37.48" y="125.1" width="10.03" height="3.29" fill="#bbbdbf"/><rect x="85.48" y="125.1" width="10.03" height="3.29" fill="#bbbdbf"/><rect x="69.48" y="125.1" width="10.03" height="3.29" fill="#bbbdbf"/><rect x="116.48" y="125.1" width="10.03" height="3.29" fill="#bbbdbf"/><rect x="101.48" y="125.1" width="10.03" height="3.29" fill="#bbbdbf"/><rect x="132.61" y="125.1" width="10.03" height="3.29" fill="#bbbdbf"/><rect x="36.52" y="85.71" width="11" height="36" fill="#0072bc"/><rect x="52.52" y="80.45" width="11" height="41.25" fill="#0072bc"/><rect x="68.52" y="72.2" width="11" height="49.5" fill="#0072bc"/><rect x="84.52" y="59.83" width="11" height="61.88" fill="#0072bc"/><rect x="100.52" y="52.61" width="11" height="69.1" fill="#0072bc"/><rect x="116.52" y="59.83" width="11" height="61.88" fill="#0072bc"/><rect x="132.52" y="46.42" width="11" height="75.29" fill="#0072bc"/><path d="M37,81.6h1V78.26l-.8.68-.06,0h-.06L37,79a.1.1,0,0,1-.06,0l-.18-.24,1.34-1.16h.45V81.6h.89V82H37Z" fill="#5e5e5e"/><path d="M40.67,81.6h1V78.54c0-.1,0-.19,0-.28l-.8.68-.06,0h-.06l-.09,0-.05,0-.18-.24,1.34-1.16h.45V81.6h.89V82H40.67Z" fill="#5e5e5e"/><path d="M46.86,79.78a3.72,3.72,0,0,1-.13,1,2,2,0,0,1-.35.72,1.31,1.31,0,0,1-.52.42,1.53,1.53,0,0,1-1.28,0,1.28,1.28,0,0,1-.51-.42,2,2,0,0,1-.35-.72,3.72,3.72,0,0,1-.13-1,3.83,3.83,0,0,1,.13-1,2,2,0,0,1,.35-.72,1.28,1.28,0,0,1,.51-.42,1.53,1.53,0,0,1,1.28,0,1.31,1.31,0,0,1,.52.42,2,2,0,0,1,.35.72A3.83,3.83,0,0,1,46.86,79.78Zm-.58,0a3.49,3.49,0,0,0-.09-.86,1.88,1.88,0,0,0-.23-.57.87.87,0,0,0-.34-.3.93.93,0,0,0-.8,0,.85.85,0,0,0-.33.3,1.88,1.88,0,0,0-.23.57,3.49,3.49,0,0,0-.09.86,3.63,3.63,0,0,0,.09.87,1.82,1.82,0,0,0,.23.56.85.85,0,0,0,.33.3.93.93,0,0,0,.8,0,.87.87,0,0,0,.34-.3,1.82,1.82,0,0,0,.23-.56A3.63,3.63,0,0,0,46.28,79.78Z" fill="#5e5e5e"/><path d="M53,76.37h1V73l-.8.69-.06,0h-.06a.11.11,0,0,1-.08,0,.1.1,0,0,1-.06,0l-.18-.24L54.1,72.3h.45v4.07h.89v.43H53Z" fill="#5e5e5e"/><path d="M57.65,72.25a1.61,1.61,0,0,1,.54.09,1.27,1.27,0,0,1,.42.25,1.05,1.05,0,0,1,.29.39,1.25,1.25,0,0,1,.1.53,1.39,1.39,0,0,1-.07.46,1.77,1.77,0,0,1-.21.41,2.55,2.55,0,0,1-.29.38c-.12.12-.23.25-.36.37l-1.18,1.22a1.14,1.14,0,0,1,.25-.06l.25,0H58.9a.22.22,0,0,1,.14,0,.19.19,0,0,1,.05.14v.34h-3v-.19a.27.27,0,0,1,0-.12.29.29,0,0,1,.07-.12l1.44-1.45c.12-.12.23-.23.33-.35a2.39,2.39,0,0,0,.25-.33,1.36,1.36,0,0,0,.16-.35,1.1,1.1,0,0,0,.06-.37.86.86,0,0,0-.06-.34.65.65,0,0,0-.17-.25.84.84,0,0,0-.26-.15,1.13,1.13,0,0,0-.32,0,.78.78,0,0,0-.31.06.79.79,0,0,0-.26.13,1,1,0,0,0-.19.22.79.79,0,0,0-.1.27.32.32,0,0,1-.08.13.25.25,0,0,1-.13,0h-.07l-.3,0a1.8,1.8,0,0,1,.17-.54,1.41,1.41,0,0,1,.32-.4,1.22,1.22,0,0,1,.45-.24A1.51,1.51,0,0,1,57.65,72.25Z" fill="#5e5e5e"/><path d="M62.86,74.55a3.85,3.85,0,0,1-.13,1,2.05,2.05,0,0,1-.35.71,1.31,1.31,0,0,1-.52.42,1.53,1.53,0,0,1-1.28,0,1.28,1.28,0,0,1-.51-.42,2.05,2.05,0,0,1-.35-.71,4.11,4.11,0,0,1,0-2,2,2,0,0,1,.35-.72,1.37,1.37,0,0,1,.51-.42,1.53,1.53,0,0,1,1.28,0,1.4,1.4,0,0,1,.52.42,2,2,0,0,1,.35.72A3.83,3.83,0,0,1,62.86,74.55Zm-.58,0a3.49,3.49,0,0,0-.09-.86,1.72,1.72,0,0,0-.23-.56.83.83,0,0,0-.34-.31.93.93,0,0,0-.8,0,.81.81,0,0,0-.33.31,1.72,1.72,0,0,0-.23.56,3.49,3.49,0,0,0-.09.86,3.58,3.58,0,0,0,.09.87,1.72,1.72,0,0,0,.23.56.85.85,0,0,0,.33.3.85.85,0,0,0,.8,0A.87.87,0,0,0,62,76a1.72,1.72,0,0,0,.23-.56A3.58,3.58,0,0,0,62.28,74.55Z" fill="#5e5e5e"/><path d="M69,69.05h1V65.71l-.8.69-.06,0h-.06a.11.11,0,0,1-.08,0l-.06,0-.18-.25L70.1,65h.45v4.07h.89v.43H69Z" fill="#5e5e5e"/><path d="M74.6,67.86h.68v.32a.11.11,0,0,1,0,.08.1.1,0,0,1-.09,0H74.6v1.18h-.49V68.3h-2a.14.14,0,0,1-.11,0,.15.15,0,0,1-.06-.09l-.06-.28L74.08,65h.52ZM74.11,66v-.17c0-.06,0-.13,0-.2L72.5,67.86h1.61Z" fill="#5e5e5e"/><path d="M78.86,67.23a3.85,3.85,0,0,1-.13,1,2.05,2.05,0,0,1-.35.71,1.31,1.31,0,0,1-.52.42,1.53,1.53,0,0,1-1.28,0,1.28,1.28,0,0,1-.51-.42,2.05,2.05,0,0,1-.35-.71,4.11,4.11,0,0,1,0-2.05,1.89,1.89,0,0,1,.35-.71,1.4,1.4,0,0,1,.51-.43,1.64,1.64,0,0,1,1.28,0,1.43,1.43,0,0,1,.52.43,1.89,1.89,0,0,1,.35.71A3.83,3.83,0,0,1,78.86,67.23Zm-.58,0a3.49,3.49,0,0,0-.09-.86,1.72,1.72,0,0,0-.23-.56.9.9,0,0,0-.34-.31.93.93,0,0,0-.8,0,.88.88,0,0,0-.33.31,1.72,1.72,0,0,0-.23.56,3.49,3.49,0,0,0-.09.86,3.58,3.58,0,0,0,.09.87,1.72,1.72,0,0,0,.23.56.85.85,0,0,0,.33.3.85.85,0,0,0,.8,0,.87.87,0,0,0,.34-.3,1.72,1.72,0,0,0,.23-.56A3.58,3.58,0,0,0,78.28,67.23Z" fill="#5e5e5e"/><path d="M85,56.51h1V53.16l-.8.69-.06,0h-.06l-.08,0s0,0-.06-.05l-.18-.24,1.34-1.16h.45v4.08h.89v.42H85Z" fill="#5e5e5e"/><path d="M89.58,57a2,2,0,0,1-.61-.09,1.37,1.37,0,0,1-.48-.25,1.14,1.14,0,0,1-.31-.41,1.25,1.25,0,0,1-.11-.53,1.1,1.1,0,0,1,.22-.71,1.27,1.27,0,0,1,.65-.4,1.09,1.09,0,0,1-.53-.39,1.11,1.11,0,0,1-.18-.63,1.14,1.14,0,0,1,.09-.46,1.17,1.17,0,0,1,.28-.38,1.22,1.22,0,0,1,.43-.25,1.59,1.59,0,0,1,.55-.09,1.64,1.64,0,0,1,.56.09,1.22,1.22,0,0,1,.43.25,1,1,0,0,1,.27.38,1,1,0,0,1,.1.46,1.11,1.11,0,0,1-.18.63,1.14,1.14,0,0,1-.53.39,1.2,1.2,0,0,1,.64.4,1.1,1.1,0,0,1,.23.71,1.25,1.25,0,0,1-.11.53,1.27,1.27,0,0,1-.31.41,1.57,1.57,0,0,1-.48.25A2,2,0,0,1,89.58,57Zm0-.44a1.25,1.25,0,0,0,.4-.06.79.79,0,0,0,.29-.18.7.7,0,0,0,.19-.26,1,1,0,0,0,.06-.35.94.94,0,0,0-.07-.39.82.82,0,0,0-.21-.27.85.85,0,0,0-.3-.15,1,1,0,0,0-.36-.05,1,1,0,0,0-.35.05.85.85,0,0,0-.3.15.71.71,0,0,0-.21.27.94.94,0,0,0-.07.39,1,1,0,0,0,.06.35.61.61,0,0,0,.19.26.71.71,0,0,0,.29.18A1.23,1.23,0,0,0,89.58,56.54Zm0-2.16a.86.86,0,0,0,.38-.07.58.58,0,0,0,.25-.18.62.62,0,0,0,.14-.25,1,1,0,0,0,.05-.3.77.77,0,0,0-.06-.3.61.61,0,0,0-.15-.24.72.72,0,0,0-.25-.16,1,1,0,0,0-.36-.06,1,1,0,0,0-.35.06A.63.63,0,0,0,89,53a.78.78,0,0,0-.16.24,1,1,0,0,0,0,.3,1,1,0,0,0,0,.3.52.52,0,0,0,.14.25.58.58,0,0,0,.25.18A.84.84,0,0,0,89.58,54.38Z" fill="#5e5e5e"/><path d="M94.86,54.69a3.83,3.83,0,0,1-.13,1,2,2,0,0,1-.35.71,1.31,1.31,0,0,1-.52.42,1.53,1.53,0,0,1-1.28,0,1.28,1.28,0,0,1-.51-.42,2,2,0,0,1-.35-.71,4.11,4.11,0,0,1,0-2.05,2.05,2.05,0,0,1,.35-.71,1.4,1.4,0,0,1,.51-.43,1.64,1.64,0,0,1,1.28,0,1.43,1.43,0,0,1,.52.43,2.05,2.05,0,0,1,.35.71A3.85,3.85,0,0,1,94.86,54.69Zm-.58,0a3.58,3.58,0,0,0-.09-.87,1.72,1.72,0,0,0-.23-.56,1,1,0,0,0-.34-.31.93.93,0,0,0-.8,0,1,1,0,0,0-.33.31,1.72,1.72,0,0,0-.23.56,3.58,3.58,0,0,0-.09.87,3.49,3.49,0,0,0,.09.86,1.72,1.72,0,0,0,.23.56,1,1,0,0,0,.33.31.93.93,0,0,0,.8,0,1,1,0,0,0,.34-.31,1.72,1.72,0,0,0,.23-.56A3.49,3.49,0,0,0,94.28,54.69Z" fill="#5e5e5e"/><path d="M103,45.07a1.91,1.91,0,0,1,.54.08,1.31,1.31,0,0,1,.43.25,1.21,1.21,0,0,1,.28.39,1.29,1.29,0,0,1,.1.53,1.35,1.35,0,0,1-.07.46,1.59,1.59,0,0,1-.21.41,2.55,2.55,0,0,1-.29.38l-.36.38-1.18,1.21a2.27,2.27,0,0,1,.25-.06l.25,0h1.51a.17.17,0,0,1,.14.06.15.15,0,0,1,0,.13v.34h-3v-.19a.25.25,0,0,1,0-.12.28.28,0,0,1,.08-.12L103,47.74l.32-.35a2.46,2.46,0,0,0,.25-.34,1.8,1.8,0,0,0,.17-.34,1.52,1.52,0,0,0,.05-.38.9.9,0,0,0-.06-.34.74.74,0,0,0-.17-.25.82.82,0,0,0-.26-.14.83.83,0,0,0-.32-.05.81.81,0,0,0-.31.05.82.82,0,0,0-.26.14.91.91,0,0,0-.18.21.64.64,0,0,0-.11.27.24.24,0,0,1-.08.13.18.18,0,0,1-.13,0h-.07l-.29-.05a1.55,1.55,0,0,1,.17-.54,1.38,1.38,0,0,1,.31-.4,1.61,1.61,0,0,1,.45-.24A1.78,1.78,0,0,1,103,45.07Z" fill="#5e5e5e"/><path d="M108.22,47.37a3.46,3.46,0,0,1-.13,1,2,2,0,0,1-.35.71,1.35,1.35,0,0,1-.51.42,1.58,1.58,0,0,1-.65.14,1.53,1.53,0,0,1-.64-.14,1.35,1.35,0,0,1-.51-.42,2.14,2.14,0,0,1-.35-.71,4.44,4.44,0,0,1,0-2,2.24,2.24,0,0,1,.35-.71,1.35,1.35,0,0,1,.51-.42,1.39,1.39,0,0,1,.64-.14,1.44,1.44,0,0,1,.65.14,1.35,1.35,0,0,1,.51.42,2.05,2.05,0,0,1,.35.71A3.49,3.49,0,0,1,108.22,47.37Zm-.58,0a3.58,3.58,0,0,0-.09-.87,1.72,1.72,0,0,0-.23-.56,1,1,0,0,0-.34-.31.93.93,0,0,0-.4-.09.89.89,0,0,0-.39.09,1,1,0,0,0-.34.31,1.72,1.72,0,0,0-.23.56,3.58,3.58,0,0,0-.09.87,3.49,3.49,0,0,0,.09.86,1.72,1.72,0,0,0,.23.56.9.9,0,0,0,.34.31.89.89,0,0,0,.39.09.93.93,0,0,0,.4-.09.9.9,0,0,0,.34-.31,1.72,1.72,0,0,0,.23-.56A3.49,3.49,0,0,0,107.64,47.37Z" fill="#5e5e5e"/><path d="M110.29,45.07a1.91,1.91,0,0,1,.54.08,1.27,1.27,0,0,1,.42.25,1.24,1.24,0,0,1,.29.39,1.29,1.29,0,0,1,.1.53,1.35,1.35,0,0,1-.07.46,2,2,0,0,1-.21.41,2.08,2.08,0,0,1-.3.38l-.35.38-1.18,1.21a1.83,1.83,0,0,1,.25-.06l.25,0h1.5a.2.2,0,0,1,.15.06.19.19,0,0,1,0,.13v.34h-3v-.19a.27.27,0,0,1,0-.12.37.37,0,0,1,.07-.12l1.44-1.44.33-.35a2.46,2.46,0,0,0,.25-.34,1.31,1.31,0,0,0,.16-.34,1.16,1.16,0,0,0,.06-.38A.9.9,0,0,0,111,46a.76.76,0,0,0-.18-.25.68.68,0,0,0-.25-.14.86.86,0,0,0-.32-.05.78.78,0,0,0-.31.05.72.72,0,0,0-.26.14,1,1,0,0,0-.19.21,1.09,1.09,0,0,0-.11.27.23.23,0,0,1-.07.13.18.18,0,0,1-.13,0h-.07l-.3-.05a1.8,1.8,0,0,1,.17-.54,1.41,1.41,0,0,1,.32-.4,1.7,1.7,0,0,1,.44-.24A1.91,1.91,0,0,1,110.29,45.07Z" fill="#5e5e5e"/><path d="M117,57.55h1V54.21l-.8.68-.06,0h-.06l-.08,0a.1.1,0,0,1-.06-.05l-.18-.24,1.34-1.16h.45v4.08h.89V58H117Z" fill="#5e5e5e"/><path d="M123.17,53.48v.25a.48.48,0,0,1,0,.18c0,.05,0,.08,0,.12l-1.86,3.75a.53.53,0,0,1-.12.14.29.29,0,0,1-.19.06h-.4l1.89-3.71c0-.05,0-.1.08-.14a.64.64,0,0,1,.1-.13h-2.35a.1.1,0,0,1-.09,0,.14.14,0,0,1,0-.1v-.38Z" fill="#5e5e5e"/><path d="M125.22,58a2,2,0,0,1-.61-.09,1.38,1.38,0,0,1-.48-.26,1,1,0,0,1-.31-.4,1.17,1.17,0,0,1-.11-.53,1.12,1.12,0,0,1,.22-.72,1.29,1.29,0,0,1,.65-.4,1,1,0,0,1-.54-.39,1.05,1.05,0,0,1-.18-.62,1.24,1.24,0,0,1,.1-.47,1.29,1.29,0,0,1,.28-.38,1.39,1.39,0,0,1,.43-.25,1.59,1.59,0,0,1,.55-.09,1.64,1.64,0,0,1,.56.09,1.39,1.39,0,0,1,.43.25,1.1,1.1,0,0,1,.27.38,1.07,1.07,0,0,1,.1.47,1.05,1.05,0,0,1-.18.62,1,1,0,0,1-.53.39,1.26,1.26,0,0,1,.64.4,1.13,1.13,0,0,1,.23.72,1.32,1.32,0,0,1-.11.53,1.23,1.23,0,0,1-.31.4,1.59,1.59,0,0,1-.48.26A2,2,0,0,1,125.22,58Zm0-.45a1.25,1.25,0,0,0,.4-.06.92.92,0,0,0,.29-.17.88.88,0,0,0,.19-.27.93.93,0,0,0,.06-.34,1,1,0,0,0-.08-.4.79.79,0,0,0-.2-.27.85.85,0,0,0-.3-.15,1.42,1.42,0,0,0-.36-.05,1.34,1.34,0,0,0-.35.05.77.77,0,0,0-.3.15.71.71,0,0,0-.21.27,1,1,0,0,0-.08.4.94.94,0,0,0,.07.34.71.71,0,0,0,.18.27.87.87,0,0,0,.3.17A1.23,1.23,0,0,0,125.22,57.58Zm0-2.16a1.08,1.08,0,0,0,.38-.06.8.8,0,0,0,.25-.18.66.66,0,0,0,.14-.26.94.94,0,0,0,.05-.3.72.72,0,0,0-.06-.29.61.61,0,0,0-.15-.24.74.74,0,0,0-.25-.17,1.3,1.3,0,0,0-.36-.05,1.23,1.23,0,0,0-.35.05.65.65,0,0,0-.25.17.78.78,0,0,0-.16.24.93.93,0,0,0,0,.29,1,1,0,0,0,0,.3.82.82,0,0,0,.14.26.86.86,0,0,0,.26.18A1,1,0,0,0,125.22,55.42Z" fill="#5e5e5e"/><path d="M134,39.84a1.91,1.91,0,0,1,.54.08,1.31,1.31,0,0,1,.43.25,1.21,1.21,0,0,1,.28.39,1.29,1.29,0,0,1,.1.53,1.35,1.35,0,0,1-.07.46,1.59,1.59,0,0,1-.21.41,2.55,2.55,0,0,1-.29.38c-.11.13-.23.25-.36.38l-1.18,1.21.25-.06.25,0h1.51a.17.17,0,0,1,.14.06.16.16,0,0,1,0,.14v.33h-3v-.19a.25.25,0,0,1,0-.12.28.28,0,0,1,.08-.12L134,42.51l.32-.35a2.46,2.46,0,0,0,.25-.34,1.8,1.8,0,0,0,.17-.34,1.5,1.5,0,0,0,0-.37.91.91,0,0,0-.06-.35.74.74,0,0,0-.17-.25.82.82,0,0,0-.26-.14.83.83,0,0,0-.32,0,1.06,1.06,0,0,0-.31,0,.82.82,0,0,0-.26.14.91.91,0,0,0-.18.21.64.64,0,0,0-.11.27.24.24,0,0,1-.08.13.18.18,0,0,1-.13,0h-.07l-.29,0a1.54,1.54,0,0,1,.17-.55,1.22,1.22,0,0,1,.31-.39,1.41,1.41,0,0,1,.45-.25A1.78,1.78,0,0,1,134,39.84Z" fill="#5e5e5e"/><path d="M137.65,39.84a1.91,1.91,0,0,1,.54.08,1.27,1.27,0,0,1,.42.25,1.24,1.24,0,0,1,.29.39,1.29,1.29,0,0,1,.1.53,1.35,1.35,0,0,1-.07.46,1.59,1.59,0,0,1-.21.41,2.55,2.55,0,0,1-.29.38l-.36.38-1.18,1.21.25-.06.25,0h1.51a.18.18,0,0,1,.14.06.16.16,0,0,1,.05.14v.33h-3v-.19a.27.27,0,0,1,0-.12.37.37,0,0,1,.07-.12l1.44-1.44.33-.35a2.46,2.46,0,0,0,.25-.34,1.31,1.31,0,0,0,.16-.34,1.15,1.15,0,0,0,.06-.37.91.91,0,0,0-.06-.35.74.74,0,0,0-.17-.25.82.82,0,0,0-.26-.14.86.86,0,0,0-.32,0,1,1,0,0,0-.31,0,.82.82,0,0,0-.26.14,1.29,1.29,0,0,0-.19.21.79.79,0,0,0-.1.27.32.32,0,0,1-.08.13.18.18,0,0,1-.13,0h-.07l-.3,0a1.77,1.77,0,0,1,.17-.55,1.24,1.24,0,0,1,.32-.39,1.41,1.41,0,0,1,.45-.25A1.78,1.78,0,0,1,137.65,39.84Z" fill="#5e5e5e"/><path d="M142.86,42.14a3.83,3.83,0,0,1-.13,1,2,2,0,0,1-.35.71,1.31,1.31,0,0,1-.52.42,1.53,1.53,0,0,1-1.28,0,1.28,1.28,0,0,1-.51-.42,2,2,0,0,1-.35-.71,3.83,3.83,0,0,1-.13-1,3.78,3.78,0,0,1,.13-1,2,2,0,0,1,.35-.72,1.28,1.28,0,0,1,.51-.42,1.53,1.53,0,0,1,1.28,0,1.31,1.31,0,0,1,.52.42,2,2,0,0,1,.35.72A3.78,3.78,0,0,1,142.86,42.14Zm-.58,0a3.63,3.63,0,0,0-.09-.87,1.72,1.72,0,0,0-.23-.56,1,1,0,0,0-.34-.31.93.93,0,0,0-.8,0,1,1,0,0,0-.33.31,1.72,1.72,0,0,0-.23.56,3.63,3.63,0,0,0-.09.87,3.49,3.49,0,0,0,.09.86,1.72,1.72,0,0,0,.23.56.88.88,0,0,0,.33.31.93.93,0,0,0,.8,0,.9.9,0,0,0,.34-.31,1.72,1.72,0,0,0,.23-.56A3.49,3.49,0,0,0,142.28,42.14Z" fill="#5e5e5e"/><path d="M31.92,21.87V14.54h2.5a3.56,3.56,0,0,1,3.76,3.67,3.54,3.54,0,0,1-3.76,3.66Zm5.32-3.66a2.69,2.69,0,0,0-2.82-2.86H32.83v5.71h1.59A2.7,2.7,0,0,0,37.24,18.21Z" fill="#0072bc"/><path d="M39.26,19.21a2.63,2.63,0,1,1,5.26,0,2.63,2.63,0,1,1-5.26,0Zm4.39,0a1.78,1.78,0,1,0-3.52,0,1.78,1.78,0,1,0,3.52,0Z" fill="#0072bc"/><circle cx="17.55" cy="17.55" r="7.55" fill="#9dc5ff"/><circle cx="17.55" cy="17.55" r="4.8" fill="#0072bc"/><polyline points="14.8 17.55 16.63 19.38 20.29 15.72" fill="none" stroke="#fff" stroke-linecap="round" stroke-linejoin="round" stroke-width="0.75"/><path d="M201.92,21.87V14.54h2.5a3.56,3.56,0,0,1,3.76,3.67,3.54,3.54,0,0,1-3.76,3.66Zm5.32-3.66a2.69,2.69,0,0,0-2.82-2.86h-1.59v5.71h1.59A2.7,2.7,0,0,0,207.24,18.21Z" fill="#ef4a60"/><path d="M209.26,19.21a2.63,2.63,0,1,1,5.26,0,2.63,2.63,0,1,1-5.26,0Zm4.39,0a1.78,1.78,0,1,0-3.52,0,1.78,1.78,0,1,0,3.52,0Z" fill="#ef4a60"/><path d="M219.44,21.87V18.4c0-.95-.48-1.23-1.19-1.23a2.06,2.06,0,0,0-1.57.82v3.88h-.83V16.56h.83v.77a2.58,2.58,0,0,1,1.9-.9,1.5,1.5,0,0,1,1.68,1.71v3.73Z" fill="#ef4a60"/><path d="M222.07,16.93l-.42-.35a1.65,1.65,0,0,0,.71-1l-.15,0a.53.53,0,0,1-.53-.56.6.6,0,0,1,.58-.59c.38,0,.7.3.7.84A2.14,2.14,0,0,1,222.07,16.93Z" fill="#ef4a60"/><path d="M224.54,20.76V17.29h-.88v-.73h.88V15.11h.83v1.45h1.08v.73h-1.08v3.29c0,.4.18.68.53.68a.75.75,0,0,0,.56-.23l.24.63a1.32,1.32,0,0,1-1,.34A1.08,1.08,0,0,1,224.54,20.76Z" fill="#ef4a60"/><circle cx="187.55" cy="17.55" r="7.55" fill="#ffbcc1"/><circle cx="187.55" cy="17.55" r="4.8" fill="#ef4a60"/><line x1="189.55" y1="15.55" x2="185.55" y2="19.55" fill="none" stroke="#fff" stroke-linecap="round" stroke-linejoin="round" stroke-width="0.75"/><line x1="189.55" y1="19.55" x2="185.55" y2="15.55" fill="none" stroke="#fff" stroke-linecap="round" stroke-linejoin="round" stroke-width="0.75"/></svg>