<svg xmlns="http://www.w3.org/2000/svg" width="10cm" height="10cm" viewBox="0 0 283.46 283.46"><rect x="0.5" y="0.5" width="282.47" height="282.47" fill="#fff"/><rect width="283.46" height="283.46" fill="#fff"/><path d="M283.46,283.46H0V0H283.46ZM1,282.47H282.47V1H1Z" transform="translate(0 0)" fill="#506589"/><polygon points="255.12 243.79 28.35 243.79 28.35 174.81 39.69 193.82 51.02 185.46 62.36 153.55 73.7 168.2 85.04 141.7 96.38 142.59 107.72 162.12 119.06 135.05 130.39 141.19 141.73 127.46 153.07 124.86 164.41 138.18 175.75 128.45 187.09 122.69 198.43 92 209.76 81.43 221.1 88.27 232.44 67.57 243.78 64.13 255.12 39.67 255.12 243.79" fill="#506589"/></svg>