<svg xmlns="http://www.w3.org/2000/svg" width="350" height="148" viewBox="0 0 350 148"><rect width="350" height="148" fill="#f1f2f2"/><path d="M31.92,21.87V14.54h2.5a3.56,3.56,0,0,1,3.76,3.67,3.54,3.54,0,0,1-3.76,3.66Zm5.32-3.66a2.69,2.69,0,0,0-2.82-2.86H32.83v5.71h1.59A2.7,2.7,0,0,0,37.24,18.21Z" fill="#0072bc"/><path d="M39.26,19.21a2.63,2.63,0,1,1,5.26,0,2.63,2.63,0,1,1-5.26,0Zm4.39,0a1.78,1.78,0,1,0-3.52,0,1.78,1.78,0,1,0,3.52,0Z" fill="#0072bc"/><circle cx="17.55" cy="17.55" r="7.55" fill="#9dc5ff"/><circle cx="17.55" cy="17.55" r="4.8" fill="#0072bc"/><polyline points="14.8 17.55 16.63 19.38 20.29 15.72" fill="none" stroke="#fff" stroke-linecap="round" stroke-linejoin="round" stroke-width="0.75"/><path d="M201.92,21.87V14.54h2.5a3.56,3.56,0,0,1,3.76,3.67,3.54,3.54,0,0,1-3.76,3.66Zm5.32-3.66a2.69,2.69,0,0,0-2.82-2.86h-1.59v5.71h1.59A2.7,2.7,0,0,0,207.24,18.21Z" fill="#ef4a60"/><path d="M209.26,19.21a2.63,2.63,0,1,1,5.26,0,2.63,2.63,0,1,1-5.26,0Zm4.39,0a1.78,1.78,0,1,0-3.52,0,1.78,1.78,0,1,0,3.52,0Z" fill="#ef4a60"/><path d="M219.44,21.87V18.4c0-.95-.48-1.23-1.19-1.23a2.06,2.06,0,0,0-1.57.82v3.88h-.83V16.56h.83v.77a2.58,2.58,0,0,1,1.9-.9,1.5,1.5,0,0,1,1.68,1.71v3.73Z" fill="#ef4a60"/><path d="M222.07,16.93l-.42-.35a1.65,1.65,0,0,0,.71-1l-.15,0a.53.53,0,0,1-.53-.56.6.6,0,0,1,.58-.59c.38,0,.7.3.7.84A2.14,2.14,0,0,1,222.07,16.93Z" fill="#ef4a60"/><path d="M224.54,20.76V17.29h-.88v-.73h.88V15.11h.83v1.45h1.08v.73h-1.08v3.29c0,.4.18.68.53.68a.75.75,0,0,0,.56-.23l.24.63a1.32,1.32,0,0,1-1,.34A1.08,1.08,0,0,1,224.54,20.76Z" fill="#ef4a60"/><circle cx="187.55" cy="17.55" r="7.55" fill="#ffbcc1"/><circle cx="187.55" cy="17.55" r="4.8" fill="#ef4a60"/><line x1="189.55" y1="15.55" x2="185.55" y2="19.55" fill="none" stroke="#fff" stroke-linecap="round" stroke-linejoin="round" stroke-width="0.75"/><line x1="189.55" y1="19.55" x2="185.55" y2="15.55" fill="none" stroke="#fff" stroke-linecap="round" stroke-linejoin="round" stroke-width="0.75"/><line x1="54.72" y1="105" x2="54.72" y2="38" fill="none" stroke="#919191" stroke-miterlimit="10" stroke-width="0.25"/><line x1="78.72" y1="105" x2="78.72" y2="38" fill="none" stroke="#919191" stroke-miterlimit="10" stroke-width="0.25"/><line x1="102.72" y1="105" x2="102.72" y2="38" fill="none" stroke="#919191" stroke-miterlimit="10" stroke-width="0.25"/><line x1="126.72" y1="105" x2="126.72" y2="38" fill="none" stroke="#919191" stroke-miterlimit="10" stroke-width="0.25"/><line x1="150.72" y1="105" x2="150.72" y2="38" fill="none" stroke="#919191" stroke-miterlimit="10" stroke-width="0.25"/><line x1="62.75" y1="45.36" x2="104.41" y2="45.36" fill="none" stroke="#0072bc" stroke-miterlimit="10" stroke-width="1.5"/><circle cx="62.75" cy="45.36" r="2" fill="#9dc5ff"/><circle cx="104.41" cy="45.36" r="2" fill="#0072bc"/><line x1="79.08" y1="62.24" x2="133.46" y2="62.24" fill="none" stroke="#0072bc" stroke-miterlimit="10" stroke-width="1.5"/><circle cx="79.08" cy="62.24" r="2" fill="#9dc5ff"/><circle cx="133.51" cy="62.24" r="2" fill="#0072bc"/><line x1="91.43" y1="79.12" x2="133.46" y2="79.12" fill="none" stroke="#0072bc" stroke-miterlimit="10" stroke-width="1.5"/><circle cx="91.43" cy="79.12" r="2" fill="#9dc5ff"/><circle cx="133.49" cy="79.12" r="2" fill="#0072bc"/><line x1="71.72" y1="95.78" x2="119.72" y2="95.78" fill="none" stroke="#0072bc" stroke-miterlimit="10" stroke-width="1.5"/><circle cx="71.72" cy="96" r="2" fill="#9dc5ff"/><circle cx="119.72" cy="96" r="2" fill="#0072bc"/><rect x="49.64" y="109.11" width="10.03" height="3.15" fill="#bbbdbf"/><rect x="73.64" y="109.11" width="10.03" height="3.15" fill="#bbbdbf"/><rect x="97.64" y="109.11" width="10.03" height="3.15" fill="#bbbdbf"/><rect x="121.64" y="109.11" width="10.03" height="3.15" fill="#bbbdbf"/><rect x="145.64" y="109.11" width="10.03" height="3.15" fill="#bbbdbf"/><path d="M24.86,44.53a1.91,1.91,0,0,1,2-2,1.68,1.68,0,0,1,1.45.76l-.39.22A1.29,1.29,0,0,0,26.82,43a1.55,1.55,0,0,0,0,3.1,1.3,1.3,0,0,0,1.06-.55l.4.22a1.72,1.72,0,0,1-1.46.76A1.91,1.91,0,0,1,24.86,44.53Z" fill="#5e5e5e"/><path d="M28.7,45.06a1.37,1.37,0,1,1,1.37,1.45A1.36,1.36,0,0,1,28.7,45.06Zm2.29,0a.93.93,0,1,0-1.83,0,.92.92,0,1,0,1.83,0Z" fill="#5e5e5e"/><path d="M34,46.44v-.39a1.35,1.35,0,0,1-1,.46.79.79,0,0,1-.89-.88v-2h.43V45.5c0,.48.25.62.63.62a1.06,1.06,0,0,0,.81-.41v-2h.43v2.76Z" fill="#5e5e5e"/><path d="M37.15,46.44V44.63c0-.49-.25-.64-.62-.64a1.09,1.09,0,0,0-.82.43v2h-.43V43.68h.43v.4a1.36,1.36,0,0,1,1-.47.79.79,0,0,1,.88.89v1.94Z" fill="#5e5e5e"/><path d="M38.52,45.86V44.05h-.45v-.37h.45v-.76H39v.76h.56v.37H39v1.72c0,.21.09.35.27.35a.4.4,0,0,0,.3-.12l.12.33a.71.71,0,0,1-.51.18A.57.57,0,0,1,38.52,45.86Z" fill="#5e5e5e"/><path d="M40.12,46.44V43.68h.43v.44a1.18,1.18,0,0,1,.92-.51v.44H41.3a1,1,0,0,0-.75.44v2Z" fill="#5e5e5e"/><path d="M41.92,47.13a.64.64,0,0,0,.23,0,.4.4,0,0,0,.42-.29l.18-.42-1.16-2.79h.47L43,45.94l.92-2.26h.46L43,47a.82.82,0,0,1-.81.56,1.37,1.37,0,0,1-.31,0Z" fill="#5e5e5e"/><path d="M49,46.44l-.34-.85h-1.9l-.34.85h-.54l1.54-3.82H48l1.53,3.82Zm-1.29-3.33-.81,2.06h1.62Z" fill="#5e5e5e"/><path d="M25,60.53a1.9,1.9,0,0,1,2-2,1.68,1.68,0,0,1,1.45.76l-.4.22A1.26,1.26,0,0,0,27,59a1.55,1.55,0,0,0,0,3.1A1.27,1.27,0,0,0,28,61.53l.4.22a1.7,1.7,0,0,1-1.45.76A1.91,1.91,0,0,1,25,60.53Z" fill="#5e5e5e"/><path d="M28.87,61.06a1.37,1.37,0,1,1,1.37,1.45A1.36,1.36,0,0,1,28.87,61.06Zm2.28,0a.92.92,0,1,0-.91,1.06A1,1,0,0,0,31.15,61.06Z" fill="#5e5e5e"/><path d="M34.17,62.44v-.39a1.39,1.39,0,0,1-1,.46.78.78,0,0,1-.88-.88v-2h.43V61.5c0,.48.25.62.62.62a1.09,1.09,0,0,0,.82-.41v-2h.42v2.76Z" fill="#5e5e5e"/><path d="M37.32,62.44V60.63c0-.49-.25-.64-.62-.64a1.08,1.08,0,0,0-.82.43v2h-.43V59.68h.43v.4a1.32,1.32,0,0,1,1-.47.78.78,0,0,1,.87.89v1.94Z" fill="#5e5e5e"/><path d="M38.69,61.86V60.05h-.46v-.37h.46v-.76h.44v.76h.56v.37h-.56v1.72c0,.21.09.35.27.35a.37.37,0,0,0,.29-.12l.13.33a.72.72,0,0,1-.51.18A.57.57,0,0,1,38.69,61.86Z" fill="#5e5e5e"/><path d="M40.29,62.44V59.68h.42v.44a1.21,1.21,0,0,1,.93-.51v.44h-.17a1,1,0,0,0-.76.44v2Z" fill="#5e5e5e"/><path d="M42.09,63.13a.59.59,0,0,0,.23,0,.39.39,0,0,0,.41-.29l.19-.42-1.16-2.79h.47l.91,2.26.93-2.26h.46L43.14,63a.8.8,0,0,1-.81.56,1.55,1.55,0,0,1-.31,0Z" fill="#5e5e5e"/><path d="M46.47,62.44V58.62h1.7a1,1,0,0,1,1.07,1,.86.86,0,0,1-.67.87.94.94,0,0,1,.74.94,1,1,0,0,1-1.1,1Zm2.28-2.78a.6.6,0,0,0-.66-.61H47v1.23h1.14A.6.6,0,0,0,48.75,59.66Zm.07,1.7a.65.65,0,0,0-.7-.66H47V62h1.17A.63.63,0,0,0,48.82,61.36Z" fill="#5e5e5e"/><path d="M24.76,77.54a1.91,1.91,0,0,1,2-2,1.68,1.68,0,0,1,1.45.76l-.4.22A1.26,1.26,0,0,0,26.72,76a1.55,1.55,0,0,0,0,3.1,1.27,1.27,0,0,0,1.05-.55l.41.22a1.72,1.72,0,0,1-1.46.76A1.9,1.9,0,0,1,24.76,77.54Z" fill="#5e5e5e"/><path d="M28.6,78.06A1.37,1.37,0,1,1,30,79.51,1.36,1.36,0,0,1,28.6,78.06Zm2.28,0A.92.92,0,1,0,30,79.12,1,1,0,0,0,30.88,78.06Z" fill="#5e5e5e"/><path d="M33.9,79.44v-.39a1.37,1.37,0,0,1-1,.46.78.78,0,0,1-.88-.88V76.68h.43V78.5c0,.48.25.62.62.62a1.06,1.06,0,0,0,.82-.41v-2h.43v2.76Z" fill="#5e5e5e"/><path d="M37.05,79.44V77.63c0-.49-.25-.64-.62-.64a1.09,1.09,0,0,0-.82.43v2h-.43V76.68h.43v.4a1.32,1.32,0,0,1,1-.47.79.79,0,0,1,.88.89v1.94Z" fill="#5e5e5e"/><path d="M38.42,78.86V77.05H38v-.37h.46v-.76h.44v.76h.56v.37h-.56v1.72c0,.21.09.35.27.35a.36.36,0,0,0,.29-.12l.13.33a.71.71,0,0,1-.51.18A.57.57,0,0,1,38.42,78.86Z" fill="#5e5e5e"/><path d="M40,79.44V76.68h.43v.44a1.18,1.18,0,0,1,.92-.51v.44H41.2a1,1,0,0,0-.75.44v2Z" fill="#5e5e5e"/><path d="M41.82,80.13a.59.59,0,0,0,.23.05.39.39,0,0,0,.41-.29l.19-.42-1.16-2.79H42l.92,2.26.92-2.26h.46L42.88,80a.82.82,0,0,1-.82.56,1.55,1.55,0,0,1-.31,0Z" fill="#5e5e5e"/><path d="M46.05,77.54a1.91,1.91,0,0,1,2-2,1.69,1.69,0,0,1,1.45.76l-.4.22A1.26,1.26,0,0,0,48,76a1.55,1.55,0,0,0,0,3.1,1.27,1.27,0,0,0,1.05-.55l.4.22a1.7,1.7,0,0,1-1.45.76A1.9,1.9,0,0,1,46.05,77.54Z" fill="#5e5e5e"/><path d="M24.62,94.54a1.91,1.91,0,0,1,2-2,1.68,1.68,0,0,1,1.45.76l-.39.22A1.29,1.29,0,0,0,26.58,93a1.55,1.55,0,0,0,0,3.1,1.3,1.3,0,0,0,1.06-.55l.4.22a1.72,1.72,0,0,1-1.46.76A1.91,1.91,0,0,1,24.62,94.54Z" fill="#5e5e5e"/><path d="M28.46,95.06a1.37,1.37,0,1,1,1.37,1.45A1.36,1.36,0,0,1,28.46,95.06Zm2.29,0a.93.93,0,1,0-1.83,0,.92.92,0,1,0,1.83,0Z" fill="#5e5e5e"/><path d="M33.76,96.44v-.39a1.35,1.35,0,0,1-1,.46.79.79,0,0,1-.89-.88V93.68h.43V95.5c0,.48.25.62.63.62a1.06,1.06,0,0,0,.81-.41v-2h.43v2.76Z" fill="#5e5e5e"/><path d="M36.92,96.44V94.63c0-.49-.26-.64-.63-.64a1.09,1.09,0,0,0-.82.43v2H35V93.68h.43v.4a1.36,1.36,0,0,1,1-.47.78.78,0,0,1,.88.89v1.94Z" fill="#5e5e5e"/><path d="M38.29,95.86V94.05h-.46v-.37h.46v-.76h.43v.76h.56v.37h-.56v1.72c0,.21.09.35.27.35a.4.4,0,0,0,.3-.12l.12.33a.71.71,0,0,1-.51.18C38.49,96.51,38.29,96.27,38.29,95.86Z" fill="#5e5e5e"/><path d="M39.88,96.44V93.68h.43v.44a1.18,1.18,0,0,1,.92-.51v.44h-.17a1,1,0,0,0-.75.44v2Z" fill="#5e5e5e"/><path d="M41.68,97.13a.64.64,0,0,0,.24.05.4.4,0,0,0,.41-.29l.18-.42-1.16-2.79h.47l.92,2.26.92-2.26h.46L42.74,97a.82.82,0,0,1-.81.56,1.37,1.37,0,0,1-.31,0Z" fill="#5e5e5e"/><path d="M46.06,96.44V92.62h1.31a1.91,1.91,0,1,1,0,3.82Zm2.77-1.9a1.39,1.39,0,0,0-1.46-1.49h-.83v3h.83A1.4,1.4,0,0,0,48.83,94.54Z" fill="#5e5e5e"/><rect x="204.46" y="104.11" width="10.03" height="3.15" fill="#bbbdbf"/><rect x="204.46" y="87.11" width="10.03" height="3.15" fill="#bbbdbf"/><rect x="204.46" y="71.11" width="10.03" height="3.15" fill="#bbbdbf"/><rect x="204.46" y="54.11" width="10.03" height="3.15" fill="#bbbdbf"/><rect x="204.46" y="37.11" width="10.03" height="3.15" fill="#bbbdbf"/><line x1="217.28" y1="105.86" x2="315.54" y2="105.86" fill="none" stroke="#919191" stroke-miterlimit="10" stroke-width="0.25"/><line x1="217.28" y1="89.16" x2="315.54" y2="89.16" fill="none" stroke="#919191" stroke-miterlimit="10" stroke-width="0.25"/><line x1="217.28" y1="72.45" x2="315.54" y2="72.45" fill="none" stroke="#919191" stroke-miterlimit="10" stroke-width="0.25"/><line x1="217.28" y1="55.75" x2="315.54" y2="55.75" fill="none" stroke="#919191" stroke-miterlimit="10" stroke-width="0.25"/><line x1="217.28" y1="39.05" x2="315.54" y2="39.05" fill="none" stroke="#919191" stroke-miterlimit="10" stroke-width="0.25"/><line x1="304.74" y1="100.27" x2="304.74" y2="71.28" fill="none" stroke="#0072bc" stroke-miterlimit="10" stroke-width="1.5"/><circle cx="304.74" cy="100.27" r="2" fill="#9dc5ff"/><circle cx="304.74" cy="71.28" r="2" fill="#0072bc"/><line x1="279.99" y1="88.9" x2="279.99" y2="51.06" fill="none" stroke="#0072bc" stroke-miterlimit="10" stroke-width="1.5"/><circle cx="279.99" cy="88.9" r="2" fill="#9dc5ff"/><circle cx="279.99" cy="51.03" r="2" fill="#0072bc"/><line x1="255.23" y1="80.31" x2="255.23" y2="51.06" fill="none" stroke="#0072bc" stroke-miterlimit="10" stroke-width="1.5"/><circle cx="255.23" cy="80.31" r="2" fill="#9dc5ff"/><circle cx="255.23" cy="51.04" r="2" fill="#0072bc"/><line x1="230.8" y1="94.03" x2="230.8" y2="60.62" fill="none" stroke="#0072bc" stroke-miterlimit="10" stroke-width="1.5"/><circle cx="230.48" cy="94.03" r="2" fill="#9dc5ff"/><circle cx="230.48" cy="60.62" r="2" fill="#0072bc"/><path d="M225.71,134.13a1.91,1.91,0,0,1-1.39-2.41,1.68,1.68,0,0,1,1.1-1.2l.11.44a1.29,1.29,0,0,0-.81.87,1.55,1.55,0,0,0,3,.8,1.32,1.32,0,0,0-.26-1.16l.31-.33a1.74,1.74,0,0,1,.36,1.6A1.92,1.92,0,0,1,225.71,134.13Z" fill="#5e5e5e"/><path d="M227.21,130.55a1.37,1.37,0,1,1,.71-2.64,1.37,1.37,0,1,1-.71,2.64Zm.59-2.2a.93.93,0,1,0-.47,1.77.93.93,0,1,0,.47-1.77Z" fill="#5e5e5e"/><path d="M229.92,125.8l-.38-.11a1.34,1.34,0,0,1,.19,1.07.78.78,0,0,1-1.08.63l-1.88-.51.11-.41,1.76.47a.55.55,0,0,0,.77-.44,1,1,0,0,0-.2-.89l-2-.53.11-.41,2.67.71Z" fill="#5e5e5e"/><path d="M230.74,122.75l-1.75-.47a.55.55,0,0,0-.78.44,1.08,1.08,0,0,0,.2.9l2,.52-.11.42-2.67-.72.11-.42.39.11a1.38,1.38,0,0,1-.2-1.08.78.78,0,0,1,1.09-.61l1.88.5Z" fill="#5e5e5e"/><path d="M230.53,121.27l-1.74-.46-.12.44-.37-.1.12-.44-.73-.2.11-.42.73.2.15-.54.36.09-.14.55,1.66.44c.2,0,.36,0,.41-.17a.43.43,0,0,0,0-.32l.35,0a.7.7,0,0,1,0,.53A.57.57,0,0,1,230.53,121.27Z" fill="#5e5e5e"/><path d="M231.5,119.88l-2.67-.71.12-.42.42.12a1.22,1.22,0,0,1-.25-1l.43.11a.75.75,0,0,0-.05.16,1,1,0,0,0,.22.84l1.9.51Z" fill="#5e5e5e"/><path d="M232.64,118.32a.51.51,0,0,0,.1-.21.41.41,0,0,0-.17-.48l-.36-.28-3,.39.12-.45,2.42-.3-1.95-1.47.12-.45,2.86,2.2a.82.82,0,0,1,.33.93,2,2,0,0,1-.12.29Z" fill="#5e5e5e"/><path d="M233.81,111.28l-.91.1-.49,1.84.73.55-.14.52-3.29-2.47.16-.57,4.08-.5Zm-3.55.38L232,113l.42-1.56Z" fill="#5e5e5e"/><path d="M251.39,134a1.91,1.91,0,0,1-1.4-2.41,1.68,1.68,0,0,1,1.1-1.2l.11.44a1.25,1.25,0,0,0-.8.87,1.55,1.55,0,0,0,3,.8,1.32,1.32,0,0,0-.26-1.16l.31-.33a1.74,1.74,0,0,1,.36,1.6A1.91,1.91,0,0,1,251.39,134Z" fill="#5e5e5e"/><path d="M252.88,130.39a1.37,1.37,0,1,1,1.76-.94A1.35,1.35,0,0,1,252.88,130.39Zm.59-2.2a1,1,0,0,0-1.26.6,1.08,1.08,0,0,0,2.06.56A1,1,0,0,0,253.47,128.19Z" fill="#5e5e5e"/><path d="M255.59,125.63l-.38-.1a1.34,1.34,0,0,1,.19,1.07.78.78,0,0,1-1.08.63l-1.88-.51.11-.41,1.76.47a.55.55,0,0,0,.77-.44,1,1,0,0,0-.2-.89l-2-.53.11-.41,2.67.71Z" fill="#5e5e5e"/><path d="M256.41,122.59l-1.75-.47a.55.55,0,0,0-.78.43,1.09,1.09,0,0,0,.2.91L256,124l-.11.41-2.67-.71.12-.42.38.11a1.42,1.42,0,0,1-.2-1.08.78.78,0,0,1,1.09-.61l1.88.5Z" fill="#5e5e5e"/><path d="M256.2,121.11l-1.74-.46-.12.44L254,121l.12-.44-.73-.2.12-.42.73.2.14-.54.36.09-.14.55,1.66.44c.2,0,.36,0,.41-.17a.42.42,0,0,0,0-.32l.35,0a.7.7,0,0,1,0,.53A.57.57,0,0,1,256.2,121.11Z" fill="#5e5e5e"/><path d="M257.17,119.72,254.5,119l.12-.42.42.12a1.22,1.22,0,0,1-.25-1l.43.11a.75.75,0,0,0-.05.16,1,1,0,0,0,.23.84l1.89.51Z" fill="#5e5e5e"/><path d="M258.31,118.16a.58.58,0,0,0,.1-.21.4.4,0,0,0-.17-.48l-.36-.28-3,.39.12-.45,2.42-.3-2-1.47.12-.45,2.86,2.2a.82.82,0,0,1,.33.93,1.81,1.81,0,0,1-.12.28Z" fill="#5e5e5e"/><path d="M258.78,113.75l-3.69-1,.44-1.64a1,1,0,0,1,1.22-.78.86.86,0,0,1,.67.87.94.94,0,0,1,1.1-.47,1,1,0,0,1,.71,1.33Zm-2.1-2.92a.59.59,0,0,0-.76.48l-.3,1.1,1.19.32.3-1.11A.59.59,0,0,0,256.68,110.83Zm1.66.37a.65.65,0,0,0-.82.51l-.3,1.13,1.27.34.3-1.13A.62.62,0,0,0,258.34,111.2Z" fill="#5e5e5e"/><path d="M276.17,134.23a1.92,1.92,0,0,1-1.4-2.41,1.71,1.71,0,0,1,1.11-1.2l.11.44a1.27,1.27,0,0,0-.81.87,1.55,1.55,0,0,0,3,.8,1.29,1.29,0,0,0-.27-1.16l.32-.33a1.71,1.71,0,0,1,.35,1.6A1.91,1.91,0,0,1,276.17,134.23Z" fill="#5e5e5e"/><path d="M277.67,130.65a1.37,1.37,0,1,1,1.75-.94A1.35,1.35,0,0,1,277.67,130.65Zm.59-2.2a.92.92,0,1,0-.48,1.76.92.92,0,1,0,.48-1.76Z" fill="#5e5e5e"/><path d="M280.38,125.89l-.38-.1a1.37,1.37,0,0,1,.19,1.07.79.79,0,0,1-1.08.63l-1.89-.51.11-.41,1.76.47a.55.55,0,0,0,.77-.44,1,1,0,0,0-.19-.89l-2-.53.11-.41,2.67.71Z" fill="#5e5e5e"/><path d="M281.19,122.85l-1.74-.47a.55.55,0,0,0-.78.43,1.09,1.09,0,0,0,.2.91l1.95.52-.11.41-2.67-.71.11-.42.39.11a1.34,1.34,0,0,1-.2-1.08.78.78,0,0,1,1.09-.61l1.87.5Z" fill="#5e5e5e"/><path d="M281,121.37l-1.75-.46-.12.44-.36-.1.12-.44-.73-.2.11-.42.73.2.14-.54.37.09-.15.54,1.66.45c.2,0,.37,0,.42-.17a.47.47,0,0,0,0-.32l.34,0a.66.66,0,0,1,0,.53A.56.56,0,0,1,281,121.37Z" fill="#5e5e5e"/><path d="M282,120l-2.67-.71.11-.42.43.12a1.18,1.18,0,0,1-.25-1l.42.11a1.42,1.42,0,0,1-.05.16,1,1,0,0,0,.23.84l1.89.51Z" fill="#5e5e5e"/><path d="M283.09,118.42a.61.61,0,0,0,.11-.21.41.41,0,0,0-.18-.48l-.35-.28-3,.39.12-.45,2.43-.3-2-1.47.12-.45,2.85,2.2a.81.81,0,0,1,.33.92.84.84,0,0,1-.12.29Z" fill="#5e5e5e"/><path d="M281.68,113.66a1.91,1.91,0,0,1-1.4-2.4,1.75,1.75,0,0,1,1.1-1.21l.12.44a1.3,1.3,0,0,0-.81.88,1.46,1.46,0,0,0,1.12,1.82,1.47,1.47,0,0,0,1.88-1,1.31,1.31,0,0,0-.27-1.16l.32-.33a1.71,1.71,0,0,1,.35,1.6A1.9,1.9,0,0,1,281.68,113.66Z" fill="#5e5e5e"/><path d="M302.72,134.36a1.92,1.92,0,0,1-1.4-2.41,1.71,1.71,0,0,1,1.11-1.2l.11.44a1.29,1.29,0,0,0-.81.87,1.56,1.56,0,0,0,3,.81,1.29,1.29,0,0,0-.27-1.16l.32-.34a1.74,1.74,0,0,1,.36,1.6A1.92,1.92,0,0,1,302.72,134.36Z" fill="#5e5e5e"/><path d="M304.22,130.79a1.37,1.37,0,1,1,1.76-.95A1.37,1.37,0,0,1,304.22,130.79Zm.59-2.21a.93.93,0,1,0-.48,1.77,1,1,0,0,0,1.28-.61A1,1,0,0,0,304.81,128.58Z" fill="#5e5e5e"/><path d="M306.93,126l-.38-.1a1.32,1.32,0,0,1,.19,1.07.79.79,0,0,1-1.08.62l-1.89-.5.11-.42,1.76.47a.54.54,0,0,0,.77-.44,1,1,0,0,0-.19-.89l-2-.53.11-.41,2.67.71Z" fill="#5e5e5e"/><path d="M307.74,123l-1.74-.47a.55.55,0,0,0-.78.44,1.08,1.08,0,0,0,.2.9l1.95.52-.11.42-2.67-.72.11-.41.39.1a1.33,1.33,0,0,1-.2-1.08.78.78,0,0,1,1.09-.61l1.87.5Z" fill="#5e5e5e"/><path d="M307.54,121.51l-1.75-.47-.12.44-.36-.1.12-.44-.73-.19.11-.42.73.19.15-.54.36.1-.14.54,1.65.44c.2.06.37,0,.42-.17a.44.44,0,0,0,0-.31l.35,0a.68.68,0,0,1,0,.54A.56.56,0,0,1,307.54,121.51Z" fill="#5e5e5e"/><path d="M308.51,120.12l-2.67-.72L306,119l.43.11a1.18,1.18,0,0,1-.25-1l.42.11a1.42,1.42,0,0,1-.05.16,1,1,0,0,0,.23.84l1.89.51Z" fill="#5e5e5e"/><path d="M309.65,118.55a.68.68,0,0,0,.1-.21.4.4,0,0,0-.17-.47l-.36-.29-3,.4.12-.46,2.43-.3-1.95-1.47.12-.45,2.85,2.2a.81.81,0,0,1,.33.93.93.93,0,0,1-.12.29Z" fill="#5e5e5e"/><path d="M310.11,114.14l-3.68-1,.33-1.26a1.91,1.91,0,1,1,3.69,1ZM309,111a1.4,1.4,0,0,0-1.82,1l-.21.8,2.87.77.21-.8A1.41,1.41,0,0,0,309,111Z" fill="#5e5e5e"/></svg>