<svg xmlns="http://www.w3.org/2000/svg" width="350" height="148" viewBox="0 0 350 148"><rect width="350" height="148" fill="#f1f2f2"/><path d="M31.92,21.87V14.54h2.5a3.56,3.56,0,0,1,3.76,3.67,3.54,3.54,0,0,1-3.76,3.66Zm5.32-3.66a2.69,2.69,0,0,0-2.82-2.86H32.83v5.71h1.59A2.7,2.7,0,0,0,37.24,18.21Z" fill="#0072bc"/><path d="M39.26,19.21a2.63,2.63,0,1,1,5.26,0,2.63,2.63,0,1,1-5.26,0Zm4.39,0a1.78,1.78,0,1,0-3.52,0,1.78,1.78,0,1,0,3.52,0Z" fill="#0072bc"/><circle cx="17.55" cy="17.55" r="7.55" fill="#9dc5ff"/><circle cx="17.55" cy="17.55" r="4.8" fill="#0072bc"/><polyline points="14.8 17.55 16.63 19.38 20.29 15.72" fill="none" stroke="#fff" stroke-linecap="round" stroke-linejoin="round" stroke-width="0.75"/><path d="M201.92,21.87V14.54h2.5a3.56,3.56,0,0,1,3.76,3.67,3.54,3.54,0,0,1-3.76,3.66Zm5.32-3.66a2.69,2.69,0,0,0-2.82-2.86h-1.59v5.71h1.59A2.7,2.7,0,0,0,207.24,18.21Z" fill="#ef4a60"/><path d="M209.26,19.21a2.63,2.63,0,1,1,5.26,0,2.63,2.63,0,1,1-5.26,0Zm4.39,0a1.78,1.78,0,1,0-3.52,0,1.78,1.78,0,1,0,3.52,0Z" fill="#ef4a60"/><path d="M219.44,21.87V18.4c0-.95-.48-1.23-1.19-1.23a2.06,2.06,0,0,0-1.57.82v3.88h-.83V16.56h.83v.77a2.58,2.58,0,0,1,1.9-.9,1.5,1.5,0,0,1,1.68,1.71v3.73Z" fill="#ef4a60"/><path d="M222.07,16.93l-.42-.35a1.65,1.65,0,0,0,.71-1l-.15,0a.53.53,0,0,1-.53-.56.6.6,0,0,1,.58-.59c.38,0,.7.3.7.84A2.14,2.14,0,0,1,222.07,16.93Z" fill="#ef4a60"/><path d="M224.54,20.76V17.29h-.88v-.73h.88V15.11h.83v1.45h1.08v.73h-1.08v3.29c0,.4.18.68.53.68a.75.75,0,0,0,.56-.23l.24.63a1.32,1.32,0,0,1-1,.34A1.08,1.08,0,0,1,224.54,20.76Z" fill="#ef4a60"/><circle cx="187.55" cy="17.55" r="7.55" fill="#ffbcc1"/><circle cx="187.55" cy="17.55" r="4.8" fill="#ef4a60"/><line x1="189.55" y1="15.55" x2="185.55" y2="19.55" fill="none" stroke="#fff" stroke-linecap="round" stroke-linejoin="round" stroke-width="0.75"/><line x1="189.55" y1="19.55" x2="185.55" y2="15.55" fill="none" stroke="#fff" stroke-linecap="round" stroke-linejoin="round" stroke-width="0.75"/><line x1="135.15" y1="122.6" x2="45.12" y2="122.6" fill="none" stroke="#000" stroke-miterlimit="10" stroke-width="0.5"/><line x1="135.15" y1="109.38" x2="45.12" y2="109.38" fill="none" stroke="#d0d2d3" stroke-linecap="round" stroke-linejoin="round" stroke-width="0.25"/><line x1="135.15" y1="96.15" x2="45.12" y2="96.15" fill="none" stroke="#d0d2d3" stroke-linecap="round" stroke-linejoin="round" stroke-width="0.25"/><line x1="135.15" y1="82.92" x2="45.12" y2="82.92" fill="none" stroke="#d0d2d3" stroke-linecap="round" stroke-linejoin="round" stroke-width="0.25"/><line x1="135.15" y1="69.7" x2="45.12" y2="69.7" fill="none" stroke="#d0d2d3" stroke-linecap="round" stroke-linejoin="round" stroke-width="0.25"/><line x1="135.15" y1="56.47" x2="45.12" y2="56.47" fill="none" stroke="#d0d2d3" stroke-linecap="round" stroke-linejoin="round" stroke-width="0.25"/><line x1="135.15" y1="43.25" x2="45.12" y2="43.25" fill="none" stroke="#d0d2d3" stroke-linecap="round" stroke-linejoin="round" stroke-width="0.25"/><rect x="32.11" y="121.41" width="10.03" height="3.15" fill="#bbbdbf"/><rect x="32.11" y="108.41" width="10.03" height="3.15" fill="#bbbdbf"/><rect x="32.11" y="95.41" width="10.03" height="3.15" fill="#bbbdbf"/><rect x="32.11" y="82.41" width="10.03" height="3.15" fill="#bbbdbf"/><rect x="32.11" y="68.41" width="10.03" height="3.15" fill="#bbbdbf"/><rect x="32.11" y="55.41" width="10.03" height="3.15" fill="#bbbdbf"/><rect x="32.11" y="41.41" width="10.03" height="3.15" fill="#bbbdbf"/><rect x="138.11" y="121.41" width="10.03" height="3.15" fill="#bbbdbf"/><rect x="138.11" y="108.41" width="10.03" height="3.15" fill="#bbbdbf"/><rect x="138.11" y="95.41" width="10.03" height="3.15" fill="#bbbdbf"/><rect x="138.11" y="82.41" width="10.03" height="3.15" fill="#bbbdbf"/><rect x="138.11" y="68.41" width="10.03" height="3.15" fill="#bbbdbf"/><rect x="138.11" y="55.41" width="10.03" height="3.15" fill="#bbbdbf"/><rect x="138.11" y="41.41" width="10.03" height="3.15" fill="#bbbdbf"/><rect x="119.67" y="59.77" width="12.97" height="63.16" fill="#0072bc"/><rect x="101.66" y="80.33" width="12.97" height="42.61" fill="#0072bc"/><rect x="83.66" y="65.08" width="12.97" height="57.85" fill="#0072bc"/><rect x="65.65" y="74.26" width="12.97" height="48.67" fill="#0072bc"/><rect x="47.64" y="82.31" width="12.97" height="40.62" fill="#0072bc"/><line x1="126.14" y1="44.6" x2="108.08" y2="51.43" fill="none" stroke="#ef4a60" stroke-linecap="round" stroke-linejoin="round" stroke-width="1.5"/><line x1="108.08" y1="51.43" x2="90.03" y2="44.87" fill="none" stroke="#ef4a60" stroke-linecap="round" stroke-linejoin="round" stroke-width="1.5"/><line x1="90.03" y1="44.87" x2="71.97" y2="48.79" fill="none" stroke="#ef4a60" stroke-linecap="round" stroke-linejoin="round" stroke-width="1.5"/><line x1="71.97" y1="48.79" x2="53.92" y2="60.81" fill="none" stroke="#ef4a60" stroke-linecap="round" stroke-linejoin="round" stroke-width="1.5"/><rect x="85.08" y="126.22" width="10.03" height="3.15" fill="#bbbdbf"/><rect x="103.08" y="126.22" width="10.03" height="3.15" fill="#bbbdbf"/><rect x="122.08" y="126.22" width="10.03" height="3.15" fill="#bbbdbf"/><rect x="67.08" y="126.22" width="10.03" height="3.15" fill="#bbbdbf"/><rect x="48.08" y="126.22" width="10.03" height="3.15" fill="#bbbdbf"/><path d="M32.07,37.5v-4h1.61a1.17,1.17,0,0,1,1.25,1.2,1.18,1.18,0,0,1-1.25,1.21H32.57V37.5Zm2.35-2.8a.75.75,0,0,0-.8-.76h-1v1.52h1A.75.75,0,0,0,34.42,34.7Z" fill="#0072bc"/><path d="M35.57,37.5V34.6H36v.46a1.26,1.26,0,0,1,1-.53V35h-.17a1.09,1.09,0,0,0-.8.46V37.5Z" fill="#0072bc"/><path d="M37.48,33.89a.3.3,0,1,1,.3.3A.3.3,0,0,1,37.48,33.89Zm.07,3.61V34.6H38v2.9Z" fill="#0072bc"/><path d="M42.4,37.5v-2c0-.37-.16-.6-.53-.6a1,1,0,0,0-.77.44V37.5h-.45v-2c0-.37-.15-.6-.53-.6a1,1,0,0,0-.77.45V37.5H38.9V34.6h.45V35a1.26,1.26,0,0,1,.94-.49.74.74,0,0,1,.78.54,1.2,1.2,0,0,1,1-.54c.53,0,.81.29.81.87v2.1Z" fill="#0072bc"/><path d="M45.56,37.5v-.33a1.25,1.25,0,0,1-1,.4,1,1,0,0,1-1-1,.94.94,0,0,1,1-1,1.23,1.23,0,0,1,1,.39v-.52c0-.38-.31-.6-.73-.6a1.14,1.14,0,0,0-.89.4L43.73,35a1.52,1.52,0,0,1,1.16-.48c.62,0,1.12.27,1.12,1v2Zm0-.62v-.55a1,1,0,0,0-.79-.35.64.64,0,1,0,0,1.26A1,1,0,0,0,45.56,36.88Z" fill="#0072bc"/><path d="M46.92,37.5V34.6h.45v.46a1.24,1.24,0,0,1,1-.53V35h-.17a1.07,1.07,0,0,0-.79.46V37.5Z" fill="#0072bc"/><path d="M48.81,38.22a.7.7,0,0,0,.25.05.42.42,0,0,0,.43-.31l.19-.44L48.47,34.6H49l1,2.37,1-2.37h.49l-1.45,3.48a.87.87,0,0,1-.85.59,1.66,1.66,0,0,1-.33,0Z" fill="#0072bc"/><path d="M54.58,37.5V35.8L53,33.5h.58l1.24,1.85,1.24-1.85h.58l-1.57,2.3v1.7Z" fill="#0072bc"/><path d="M56.18,36.24v-.39h1.44v.39Z" fill="#0072bc"/><path d="M60.06,37.5v-.33a1.23,1.23,0,0,1-1,.4,1,1,0,0,1-1-1,.94.94,0,0,1,1-1,1.22,1.22,0,0,1,1,.39v-.52c0-.38-.31-.6-.73-.6a1.12,1.12,0,0,0-.88.4L58.24,35a1.48,1.48,0,0,1,1.15-.48c.62,0,1.12.27,1.12,1v2Zm0-.62v-.55a1,1,0,0,0-.79-.35.64.64,0,1,0,0,1.26A1,1,0,0,0,60.06,36.88Z" fill="#0072bc"/><path d="M63.3,37.5l-.87-1.19-.87,1.19H61L62.15,36l-1-1.41h.53l.8,1.1.81-1.1h.51l-1,1.41,1.11,1.49Z" fill="#0072bc"/><path d="M64.27,33.89a.3.3,0,1,1,.3.3A.3.3,0,0,1,64.27,33.89Zm.07,3.61V34.6h.45v2.9Z" fill="#0072bc"/><path d="M65.45,37.11l.23-.32a1.3,1.3,0,0,0,.95.41c.44,0,.69-.21.69-.5,0-.7-1.79-.27-1.79-1.34,0-.46.38-.83,1.07-.83a1.4,1.4,0,0,1,1.07.42l-.21.31a1.1,1.1,0,0,0-.86-.37c-.4,0-.64.2-.64.46,0,.63,1.79.21,1.79,1.34,0,.49-.39.88-1.13.88A1.54,1.54,0,0,1,65.45,37.11Z" fill="#0072bc"/><path d="M103.83,36.93l.3-.38a1.65,1.65,0,0,0,1.25.57c.72,0,1-.38,1-.69,0-1-2.37-.46-2.37-1.89,0-.65.58-1.11,1.38-1.11a1.88,1.88,0,0,1,1.41.56l-.3.37a1.5,1.5,0,0,0-1.16-.48c-.47,0-.82.26-.82.63,0,.9,2.37.39,2.37,1.88,0,.58-.39,1.18-1.47,1.18A2,2,0,0,1,103.83,36.93Z" fill="#ef4a60"/><path d="M107.4,36a1.44,1.44,0,0,1,1.43-1.51,1.41,1.41,0,0,1,1.39,1.55v.11h-2.34a1,1,0,0,0,1,1,1.29,1.29,0,0,0,.9-.38l.21.3a1.58,1.58,0,0,1-1.15.45A1.44,1.44,0,0,1,107.4,36Zm1.42-1.14a1,1,0,0,0-.95,1h1.91A.94.94,0,0,0,108.82,34.9Z" fill="#ef4a60"/><path d="M110.78,36a1.43,1.43,0,0,1,1.44-1.51,1.26,1.26,0,0,1,1.07.5l-.3.27a.87.87,0,0,0-.74-.37,1,1,0,0,0-1,1.11,1,1,0,0,0,1,1.13.88.88,0,0,0,.74-.38l.3.27a1.26,1.26,0,0,1-1.07.51A1.44,1.44,0,0,1,110.78,36Z" fill="#ef4a60"/><path d="M113.75,36a1.44,1.44,0,1,1,1.44,1.53A1.44,1.44,0,0,1,113.75,36Zm2.4,0a1,1,0,1,0-1,1.13A1,1,0,0,0,116.15,36Z" fill="#ef4a60"/><path d="M119.31,37.5V35.6c0-.52-.26-.67-.65-.67a1.13,1.13,0,0,0-.86.45V37.5h-.45V34.6h.45V35a1.41,1.41,0,0,1,1-.49.82.82,0,0,1,.92.93v2Z" fill="#ef4a60"/><path d="M122.77,37.5v-.44a1.22,1.22,0,0,1-1,.51c-.76,0-1.29-.58-1.29-1.52s.53-1.52,1.29-1.52a1.22,1.22,0,0,1,1,.51V33.5h.44v4Zm0-.8V35.4a1.07,1.07,0,0,0-.87-.47c-.59,0-.93.48-.93,1.12s.34,1.12.93,1.12A1.07,1.07,0,0,0,122.77,36.7Z" fill="#ef4a60"/><path d="M125.93,37.5v-.33a1.27,1.27,0,0,1-1,.4,1,1,0,0,1-1-1,.94.94,0,0,1,1-1,1.26,1.26,0,0,1,1,.39v-.52c0-.38-.31-.6-.73-.6a1.14,1.14,0,0,0-.89.4L124.1,35a1.49,1.49,0,0,1,1.16-.48c.61,0,1.12.27,1.12,1v2Zm0-.62v-.55a1,1,0,0,0-.8-.35.63.63,0,1,0,0,1.26A1,1,0,0,0,125.93,36.88Z" fill="#ef4a60"/><path d="M127.28,37.5V34.6h.45v.46a1.26,1.26,0,0,1,1-.53V35h-.17a1.09,1.09,0,0,0-.8.46V37.5Z" fill="#ef4a60"/><path d="M129.17,38.22a.74.74,0,0,0,.25.05.42.42,0,0,0,.43-.31l.19-.44-1.21-2.92h.49l1,2.37,1-2.37h.48l-1.45,3.48a.86.86,0,0,1-.85.59,1.65,1.65,0,0,1-.32,0Z" fill="#ef4a60"/><path d="M134.94,37.5V35.8l-1.58-2.3h.58l1.25,1.85,1.24-1.85H137l-1.57,2.3v1.7Z" fill="#ef4a60"/><path d="M136.55,36.24v-.39H138v.39Z" fill="#ef4a60"/><path d="M140.43,37.5v-.33a1.25,1.25,0,0,1-1,.4,1,1,0,0,1-1-1,.94.94,0,0,1,1-1,1.23,1.23,0,0,1,1,.39v-.52c0-.38-.31-.6-.73-.6a1.14,1.14,0,0,0-.89.4L138.6,35a1.49,1.49,0,0,1,1.16-.48c.62,0,1.12.27,1.12,1v2Zm0-.62v-.55a1,1,0,0,0-.79-.35.64.64,0,1,0,0,1.26A1,1,0,0,0,140.43,36.88Z" fill="#ef4a60"/><path d="M143.67,37.5l-.88-1.19-.87,1.19h-.51L142.52,36l-1.05-1.41H142l.8,1.1.81-1.1h.52L143.07,36l1.11,1.49Z" fill="#ef4a60"/><path d="M144.63,33.89a.31.31,0,1,1,.61,0,.31.31,0,0,1-.61,0Zm.08,3.61V34.6h.45v2.9Z" fill="#ef4a60"/><path d="M145.81,37.11l.23-.32a1.32,1.32,0,0,0,1,.41c.45,0,.69-.21.69-.5,0-.7-1.79-.27-1.79-1.34,0-.46.38-.83,1.07-.83A1.44,1.44,0,0,1,148,35l-.21.31a1.14,1.14,0,0,0-.87-.37c-.39,0-.64.2-.64.46,0,.63,1.8.21,1.8,1.34,0,.49-.4.88-1.14.88A1.55,1.55,0,0,1,145.81,37.11Z" fill="#ef4a60"/><line x1="305.02" y1="123.6" x2="214.99" y2="123.6" fill="none" stroke="#000" stroke-miterlimit="10" stroke-width="0.5"/><line x1="305.02" y1="110.38" x2="214.99" y2="110.38" fill="none" stroke="#d0d2d3" stroke-linecap="round" stroke-linejoin="round" stroke-width="0.25"/><line x1="305.02" y1="97.15" x2="214.99" y2="97.15" fill="none" stroke="#d0d2d3" stroke-linecap="round" stroke-linejoin="round" stroke-width="0.25"/><line x1="305.02" y1="83.92" x2="214.99" y2="83.92" fill="none" stroke="#d0d2d3" stroke-linecap="round" stroke-linejoin="round" stroke-width="0.25"/><line x1="305.02" y1="70.7" x2="214.99" y2="70.7" fill="none" stroke="#d0d2d3" stroke-linecap="round" stroke-linejoin="round" stroke-width="0.25"/><line x1="305.02" y1="57.47" x2="214.99" y2="57.47" fill="none" stroke="#d0d2d3" stroke-linecap="round" stroke-linejoin="round" stroke-width="0.25"/><line x1="305.02" y1="44.25" x2="214.99" y2="44.25" fill="none" stroke="#d0d2d3" stroke-linecap="round" stroke-linejoin="round" stroke-width="0.25"/><rect x="201.99" y="122.41" width="10.03" height="3.15" fill="#bbbdbf"/><rect x="201.99" y="109.41" width="10.03" height="3.15" fill="#bbbdbf"/><rect x="201.99" y="96.41" width="10.03" height="3.15" fill="#bbbdbf"/><rect x="201.99" y="83.41" width="10.03" height="3.15" fill="#bbbdbf"/><rect x="201.99" y="69.41" width="10.03" height="3.15" fill="#bbbdbf"/><rect x="201.99" y="56.41" width="10.03" height="3.15" fill="#bbbdbf"/><rect x="201.99" y="42.41" width="10.03" height="3.15" fill="#bbbdbf"/><rect x="307.99" y="122.41" width="10.03" height="3.15" fill="#bbbdbf"/><rect x="307.99" y="109.41" width="10.03" height="3.15" fill="#bbbdbf"/><rect x="307.99" y="96.41" width="10.03" height="3.15" fill="#bbbdbf"/><rect x="307.99" y="83.41" width="10.03" height="3.15" fill="#bbbdbf"/><rect x="307.99" y="69.41" width="10.03" height="3.15" fill="#bbbdbf"/><rect x="307.99" y="56.41" width="10.03" height="3.15" fill="#bbbdbf"/><rect x="307.99" y="42.41" width="10.03" height="3.15" fill="#bbbdbf"/><rect x="289.54" y="60.77" width="12.97" height="63.16" fill="#0072bc"/><rect x="271.54" y="81.33" width="12.97" height="42.61" fill="#0072bc"/><rect x="253.53" y="66.08" width="12.97" height="57.85" fill="#0072bc"/><rect x="235.52" y="75.26" width="12.97" height="48.67" fill="#0072bc"/><rect x="217.51" y="83.31" width="12.97" height="40.62" fill="#0072bc"/><line x1="296.01" y1="45.6" x2="277.95" y2="52.43" fill="none" stroke="#ef4a60" stroke-linecap="round" stroke-linejoin="round" stroke-width="1.5"/><line x1="277.95" y1="52.43" x2="259.9" y2="45.87" fill="none" stroke="#ef4a60" stroke-linecap="round" stroke-linejoin="round" stroke-width="1.5"/><line x1="259.9" y1="45.87" x2="241.84" y2="49.79" fill="none" stroke="#ef4a60" stroke-linecap="round" stroke-linejoin="round" stroke-width="1.5"/><line x1="241.84" y1="49.79" x2="223.79" y2="61.81" fill="none" stroke="#ef4a60" stroke-linecap="round" stroke-linejoin="round" stroke-width="1.5"/><rect x="254.95" y="127.22" width="10.03" height="3.15" fill="#bbbdbf"/><rect x="272.95" y="127.22" width="10.03" height="3.15" fill="#bbbdbf"/><rect x="291.95" y="127.22" width="10.03" height="3.15" fill="#bbbdbf"/><rect x="236.95" y="127.22" width="10.03" height="3.15" fill="#bbbdbf"/><rect x="217.95" y="127.22" width="10.03" height="3.15" fill="#bbbdbf"/><path d="M282.05,37.5v-4h1.61a1.21,1.21,0,1,1,0,2.41h-1.11V37.5Zm2.35-2.8a.75.75,0,0,0-.8-.76h-1.05v1.52h1.05A.75.75,0,0,0,284.4,34.7Z" fill="#0072bc"/><path d="M285.55,37.5V34.6H286v.46a1.26,1.26,0,0,1,1-.53V35h-.17a1.09,1.09,0,0,0-.8.46V37.5Z" fill="#0072bc"/><path d="M287.46,33.89a.3.3,0,1,1,.3.3A.3.3,0,0,1,287.46,33.89Zm.08,3.61V34.6H288v2.9Z" fill="#0072bc"/><path d="M292.38,37.5v-2c0-.37-.15-.6-.53-.6a1,1,0,0,0-.77.44V37.5h-.45v-2c0-.37-.15-.6-.53-.6a1,1,0,0,0-.77.45V37.5h-.45V34.6h.45V35a1.26,1.26,0,0,1,.95-.49.74.74,0,0,1,.77.54,1.2,1.2,0,0,1,1-.54c.53,0,.81.29.81.87v2.1Z" fill="#0072bc"/><path d="M295.54,37.5v-.33a1.25,1.25,0,0,1-1,.4,1,1,0,0,1-1-1,.94.94,0,0,1,1-1,1.23,1.23,0,0,1,1,.39v-.52c0-.38-.31-.6-.73-.6a1.14,1.14,0,0,0-.89.4l-.21-.31a1.52,1.52,0,0,1,1.16-.48c.62,0,1.12.27,1.12,1v2Zm0-.62v-.55a1,1,0,0,0-.79-.35.64.64,0,1,0,0,1.26A1,1,0,0,0,295.54,36.88Z" fill="#0072bc"/><path d="M296.9,37.5V34.6h.45v.46a1.25,1.25,0,0,1,1-.53V35h-.18a1.07,1.07,0,0,0-.79.46V37.5Z" fill="#0072bc"/><path d="M298.79,38.22a.7.7,0,0,0,.25.05.42.42,0,0,0,.43-.31l.19-.44-1.21-2.92h.49l1,2.37,1-2.37h.48l-1.45,3.48a.87.87,0,0,1-.85.59,1.66,1.66,0,0,1-.33,0Z" fill="#0072bc"/><path d="M304.56,37.5V35.8L303,33.5h.58l1.24,1.85L306,33.5h.58l-1.57,2.3v1.7Z" fill="#0072bc"/><path d="M306.16,36.24v-.39h1.44v.39Z" fill="#0072bc"/><path d="M310.05,37.5v-.33a1.27,1.27,0,0,1-1,.4,1,1,0,0,1-1-1,.94.94,0,0,1,1-1,1.26,1.26,0,0,1,1,.39v-.52c0-.38-.32-.6-.74-.6a1.12,1.12,0,0,0-.88.4l-.21-.31a1.48,1.48,0,0,1,1.15-.48c.62,0,1.13.27,1.13,1v2Zm0-.62v-.55a1,1,0,0,0-.8-.35.64.64,0,1,0,0,1.26A1,1,0,0,0,310.05,36.88Z" fill="#0072bc"/><path d="M313.29,37.5l-.88-1.19-.87,1.19H311L312.13,36l-1.05-1.41h.53l.8,1.1.81-1.1h.52L312.69,36l1.11,1.49Z" fill="#0072bc"/><path d="M314.25,33.89a.3.3,0,1,1,.3.3A.3.3,0,0,1,314.25,33.89Zm.07,3.61V34.6h.45v2.9Z" fill="#0072bc"/><path d="M315.43,37.11l.23-.32a1.3,1.3,0,0,0,.95.41c.44,0,.69-.21.69-.5,0-.7-1.79-.27-1.79-1.34,0-.46.38-.83,1.07-.83a1.4,1.4,0,0,1,1.07.42l-.21.31a1.1,1.1,0,0,0-.86-.37c-.4,0-.64.2-.64.46,0,.63,1.79.21,1.79,1.34,0,.49-.39.88-1.13.88A1.54,1.54,0,0,1,315.43,37.11Z" fill="#0072bc"/><path d="M202.7,36.93l.3-.38a1.65,1.65,0,0,0,1.25.57c.72,0,.95-.38.95-.69,0-1-2.37-.46-2.37-1.89,0-.65.59-1.11,1.38-1.11a1.88,1.88,0,0,1,1.41.56l-.3.37a1.49,1.49,0,0,0-1.15-.48c-.48,0-.83.26-.83.63,0,.9,2.37.39,2.37,1.88,0,.58-.39,1.18-1.47,1.18A2,2,0,0,1,202.7,36.93Z" fill="#ef4a60"/><path d="M206.27,36a1.44,1.44,0,0,1,1.43-1.51,1.41,1.41,0,0,1,1.39,1.55v.11h-2.34a1,1,0,0,0,1,1,1.27,1.27,0,0,0,.9-.38l.21.3a1.58,1.58,0,0,1-1.15.45A1.44,1.44,0,0,1,206.27,36Zm1.42-1.14a1,1,0,0,0-.94,1h1.9A.94.94,0,0,0,207.69,34.9Z" fill="#ef4a60"/><path d="M209.65,36a1.43,1.43,0,0,1,1.44-1.51,1.26,1.26,0,0,1,1.07.5l-.3.27a.86.86,0,0,0-.74-.37,1,1,0,0,0-1,1.11,1,1,0,0,0,1,1.13.87.87,0,0,0,.74-.38l.3.27a1.26,1.26,0,0,1-1.07.51A1.44,1.44,0,0,1,209.65,36Z" fill="#ef4a60"/><path d="M212.62,36a1.44,1.44,0,1,1,1.44,1.53A1.44,1.44,0,0,1,212.62,36Zm2.4,0a1,1,0,1,0-1,1.13A1,1,0,0,0,215,36Z" fill="#ef4a60"/><path d="M218.19,37.5V35.6c0-.52-.27-.67-.66-.67a1.13,1.13,0,0,0-.86.45V37.5h-.44V34.6h.44V35a1.41,1.41,0,0,1,1-.49.82.82,0,0,1,.92.93v2Z" fill="#ef4a60"/><path d="M221.64,37.5v-.44a1.22,1.22,0,0,1-1,.51c-.76,0-1.29-.58-1.29-1.52s.53-1.52,1.29-1.52a1.22,1.22,0,0,1,1,.51V33.5h.45v4Zm0-.8V35.4a1.07,1.07,0,0,0-.87-.47c-.59,0-.93.48-.93,1.12s.34,1.12.93,1.12A1.07,1.07,0,0,0,221.64,36.7Z" fill="#ef4a60"/><path d="M224.8,37.5v-.33a1.27,1.27,0,0,1-1,.4,1,1,0,0,1-1-1,.94.94,0,0,1,1-1,1.26,1.26,0,0,1,1,.39v-.52c0-.38-.31-.6-.73-.6a1.14,1.14,0,0,0-.89.4L223,35a1.49,1.49,0,0,1,1.16-.48c.61,0,1.12.27,1.12,1v2Zm0-.62v-.55A1,1,0,0,0,224,36a.64.64,0,1,0,0,1.26A1,1,0,0,0,224.8,36.88Z" fill="#ef4a60"/><path d="M226.16,37.5V34.6h.45v.46a1.23,1.23,0,0,1,1-.53V35h-.17a1.07,1.07,0,0,0-.79.46V37.5Z" fill="#ef4a60"/><path d="M228,38.22a.74.74,0,0,0,.25.05.42.42,0,0,0,.43-.31l.2-.44L227.7,34.6h.5l1,2.37,1-2.37h.49l-1.46,3.48a.86.86,0,0,1-.85.59,1.65,1.65,0,0,1-.32,0Z" fill="#ef4a60"/><path d="M233.81,37.5V35.8l-1.58-2.3h.59l1.24,1.85,1.24-1.85h.58l-1.57,2.3v1.7Z" fill="#ef4a60"/><path d="M235.42,36.24v-.39h1.44v.39Z" fill="#ef4a60"/><path d="M239.3,37.5v-.33a1.25,1.25,0,0,1-1,.4,1,1,0,0,1-1-1,.94.94,0,0,1,1-1,1.23,1.23,0,0,1,1,.39v-.52c0-.38-.31-.6-.73-.6a1.14,1.14,0,0,0-.89.4l-.21-.31a1.49,1.49,0,0,1,1.16-.48c.62,0,1.12.27,1.12,1v2Zm0-.62v-.55a1,1,0,0,0-.79-.35.64.64,0,1,0,0,1.26A1,1,0,0,0,239.3,36.88Z" fill="#ef4a60"/><path d="M242.54,37.5l-.88-1.19-.87,1.19h-.51L241.39,36l-1-1.41h.52l.8,1.1.81-1.1H243L241.94,36l1.12,1.49Z" fill="#ef4a60"/><path d="M243.5,33.89a.31.31,0,1,1,.61,0,.31.31,0,0,1-.61,0Zm.08,3.61V34.6H244v2.9Z" fill="#ef4a60"/><path d="M244.68,37.11l.23-.32a1.32,1.32,0,0,0,1,.41c.45,0,.69-.21.69-.5,0-.7-1.79-.27-1.79-1.34,0-.46.38-.83,1.07-.83a1.44,1.44,0,0,1,1.08.42l-.21.31a1.14,1.14,0,0,0-.87-.37c-.39,0-.64.2-.64.46,0,.63,1.8.21,1.8,1.34,0,.49-.39.88-1.14.88A1.55,1.55,0,0,1,244.68,37.11Z" fill="#ef4a60"/></svg>