<svg xmlns="http://www.w3.org/2000/svg" width="350" height="148" viewBox="0 0 350 148"><rect width="350" height="148" fill="#f1f2f2"/><path d="M31.92,21.87V14.54h2.5a3.56,3.56,0,0,1,3.76,3.67,3.54,3.54,0,0,1-3.76,3.66Zm5.32-3.66a2.69,2.69,0,0,0-2.82-2.86H32.83v5.71h1.59A2.7,2.7,0,0,0,37.24,18.21Z" fill="#0072bc"/><path d="M39.26,19.21a2.63,2.63,0,1,1,5.26,0,2.63,2.63,0,1,1-5.26,0Zm4.39,0a1.78,1.78,0,1,0-3.52,0,1.78,1.78,0,1,0,3.52,0Z" fill="#0072bc"/><circle cx="17.55" cy="17.55" r="7.55" fill="#9dc5ff"/><circle cx="17.55" cy="17.55" r="4.8" fill="#0072bc"/><polyline points="14.8 17.55 16.63 19.38 20.29 15.72" fill="none" stroke="#fff" stroke-linecap="round" stroke-linejoin="round" stroke-width="0.75"/><path d="M201.92,21.87V14.54h2.5a3.56,3.56,0,0,1,3.76,3.67,3.54,3.54,0,0,1-3.76,3.66Zm5.32-3.66a2.69,2.69,0,0,0-2.82-2.86h-1.59v5.71h1.59A2.7,2.7,0,0,0,207.24,18.21Z" fill="#ef4a60"/><path d="M209.26,19.21a2.63,2.63,0,1,1,5.26,0,2.63,2.63,0,1,1-5.26,0Zm4.39,0a1.78,1.78,0,1,0-3.52,0,1.78,1.78,0,1,0,3.52,0Z" fill="#ef4a60"/><path d="M219.44,21.87V18.4c0-.95-.48-1.23-1.19-1.23a2.06,2.06,0,0,0-1.57.82v3.88h-.83V16.56h.83v.77a2.58,2.58,0,0,1,1.9-.9,1.5,1.5,0,0,1,1.68,1.71v3.73Z" fill="#ef4a60"/><path d="M222.07,16.93l-.42-.35a1.65,1.65,0,0,0,.71-1l-.15,0a.53.53,0,0,1-.53-.56.6.6,0,0,1,.58-.59c.38,0,.7.3.7.84A2.14,2.14,0,0,1,222.07,16.93Z" fill="#ef4a60"/><path d="M224.54,20.76V17.29h-.88v-.73h.88V15.11h.83v1.45h1.08v.73h-1.08v3.29c0,.4.18.68.53.68a.75.75,0,0,0,.56-.23l.24.63a1.32,1.32,0,0,1-1,.34A1.08,1.08,0,0,1,224.54,20.76Z" fill="#ef4a60"/><circle cx="187.55" cy="17.55" r="7.55" fill="#ffbcc1"/><circle cx="187.55" cy="17.55" r="4.8" fill="#ef4a60"/><line x1="189.55" y1="15.55" x2="185.55" y2="19.55" fill="none" stroke="#fff" stroke-linecap="round" stroke-linejoin="round" stroke-width="0.75"/><line x1="189.55" y1="19.55" x2="185.55" y2="15.55" fill="none" stroke="#fff" stroke-linecap="round" stroke-linejoin="round" stroke-width="0.75"/><line x1="134.5" y1="122.6" x2="44.47" y2="122.6" fill="none" stroke="#000" stroke-miterlimit="10" stroke-width="0.5"/><line x1="134.5" y1="109.38" x2="44.47" y2="109.38" fill="none" stroke="#d0d2d3" stroke-linecap="round" stroke-linejoin="round" stroke-width="0.25"/><line x1="134.5" y1="96.15" x2="44.47" y2="96.15" fill="none" stroke="#d0d2d3" stroke-linecap="round" stroke-linejoin="round" stroke-width="0.25"/><line x1="134.5" y1="82.92" x2="44.47" y2="82.92" fill="none" stroke="#d0d2d3" stroke-linecap="round" stroke-linejoin="round" stroke-width="0.25"/><line x1="134.5" y1="69.7" x2="44.47" y2="69.7" fill="none" stroke="#d0d2d3" stroke-linecap="round" stroke-linejoin="round" stroke-width="0.25"/><line x1="134.5" y1="56.47" x2="44.47" y2="56.47" fill="none" stroke="#d0d2d3" stroke-linecap="round" stroke-linejoin="round" stroke-width="0.25"/><line x1="134.5" y1="43.25" x2="44.47" y2="43.25" fill="none" stroke="#d0d2d3" stroke-linecap="round" stroke-linejoin="round" stroke-width="0.25"/><rect x="137.46" y="121.41" width="10.03" height="3.15" fill="#bbbdbf"/><rect x="137.46" y="108.41" width="10.03" height="3.15" fill="#bbbdbf"/><rect x="137.46" y="95.41" width="10.03" height="3.15" fill="#bbbdbf"/><rect x="137.46" y="82.41" width="10.03" height="3.15" fill="#bbbdbf"/><rect x="137.46" y="68.41" width="10.03" height="3.15" fill="#bbbdbf"/><rect x="137.46" y="55.41" width="10.03" height="3.15" fill="#bbbdbf"/><rect x="137.46" y="41.41" width="10.03" height="3.15" fill="#bbbdbf"/><rect x="119.02" y="59.77" width="12.97" height="63.16" fill="#0072bc"/><rect x="101.01" y="80.33" width="12.97" height="42.61" fill="#0072bc"/><rect x="83.01" y="65.08" width="12.97" height="57.85" fill="#0072bc"/><rect x="65" y="74.26" width="12.97" height="48.67" fill="#0072bc"/><rect x="46.99" y="82.31" width="12.97" height="40.62" fill="#0072bc"/><line x1="125.49" y1="44.6" x2="107.43" y2="51.43" fill="none" stroke="#ef4a60" stroke-linecap="round" stroke-linejoin="round" stroke-width="1.5"/><line x1="107.43" y1="51.43" x2="89.38" y2="44.87" fill="none" stroke="#ef4a60" stroke-linecap="round" stroke-linejoin="round" stroke-width="1.5"/><line x1="89.38" y1="44.87" x2="71.32" y2="48.79" fill="none" stroke="#ef4a60" stroke-linecap="round" stroke-linejoin="round" stroke-width="1.5"/><line x1="71.32" y1="48.79" x2="53.27" y2="60.81" fill="none" stroke="#ef4a60" stroke-linecap="round" stroke-linejoin="round" stroke-width="1.5"/><rect x="84.43" y="126.22" width="10.03" height="3.15" fill="#bbbdbf"/><rect x="102.43" y="126.22" width="10.03" height="3.15" fill="#bbbdbf"/><rect x="121.43" y="126.22" width="10.03" height="3.15" fill="#bbbdbf"/><rect x="66.43" y="126.22" width="10.03" height="3.15" fill="#bbbdbf"/><rect x="47.43" y="126.22" width="10.03" height="3.15" fill="#bbbdbf"/><path d="M39.89,122.23c0-.93.41-2,1.46-2s1.46,1,1.46,2-.42,2-1.46,2S39.89,123.16,39.89,122.23Zm2.43,0c0-.76-.25-1.54-1-1.54s-1,.78-1,1.54.25,1.55,1,1.55S42.32,123,42.32,122.23Z" fill="#5e5e5e"/><path d="M36.49,110.59l.29-.32a1.24,1.24,0,0,0,1,.51.82.82,0,0,0,.88-.82.8.8,0,0,0-.87-.82,1.22,1.22,0,0,0-.89.36l-.34-.12v-2.06h2.33v.42H37.08v1.33a1.32,1.32,0,0,1,.89-.34A1.17,1.17,0,0,1,39.19,110a1.26,1.26,0,0,1-1.36,1.26A1.55,1.55,0,0,1,36.49,110.59Z" fill="#5e5e5e"/><path d="M39.89,109.23c0-.93.41-2,1.46-2s1.46,1,1.46,2-.42,2-1.46,2S39.89,110.16,39.89,109.23Zm2.43,0c0-.76-.25-1.54-1-1.54s-1,.78-1,1.54.25,1.55,1,1.55S42.32,110,42.32,109.23Z" fill="#5e5e5e"/><path d="M35,98.14v-3.2l-.61.66-.29-.3,1-1h.41v3.82Z" fill="#5e5e5e"/><path d="M36.27,96.23c0-.93.42-2,1.46-2s1.46,1,1.46,2-.42,2-1.46,2S36.27,97.16,36.27,96.23Zm2.44,0c0-.76-.25-1.54-1-1.54s-1,.78-1,1.54.25,1.55,1,1.55S38.71,97,38.71,96.23Z" fill="#5e5e5e"/><path d="M39.89,96.23c0-.93.41-2,1.46-2s1.46,1,1.46,2-.42,2-1.46,2S39.89,97.16,39.89,96.23Zm2.43,0c0-.76-.25-1.54-1-1.54s-1,.78-1,1.54.25,1.55,1,1.55S42.32,97,42.32,96.23Z" fill="#5e5e5e"/><path d="M35.07,85.14v-3.2l-.61.66-.28-.3,1-1h.42v3.82Z" fill="#5e5e5e"/><path d="M36.49,84.59l.29-.32a1.24,1.24,0,0,0,1,.51.82.82,0,0,0,.88-.82.8.8,0,0,0-.87-.82,1.18,1.18,0,0,0-.88.36l-.35-.12V81.32h2.33v.42H37.08v1.33a1.32,1.32,0,0,1,.89-.34A1.17,1.17,0,0,1,39.19,84a1.26,1.26,0,0,1-1.36,1.26A1.55,1.55,0,0,1,36.49,84.59Z" fill="#5e5e5e"/><path d="M39.89,83.23c0-.93.41-2,1.46-2s1.46,1,1.46,2-.42,2-1.46,2S39.89,84.16,39.89,83.23Zm2.43,0c0-.76-.25-1.54-1-1.54s-1,.78-1,1.54.25,1.55,1,1.55S42.32,84,42.32,83.23Z" fill="#5e5e5e"/><path d="M32.82,72.14v-.39c1.37-1.07,2.12-1.71,2.12-2.36a.71.71,0,0,0-.8-.7,1.28,1.28,0,0,0-1,.48l-.29-.31a1.66,1.66,0,0,1,1.33-.6,1.16,1.16,0,0,1,1.28,1.13c0,.77-.79,1.48-1.85,2.32h1.87v.43Z" fill="#5e5e5e"/><path d="M36.27,70.23c0-.93.42-2,1.46-2s1.46,1,1.46,2-.42,2-1.46,2S36.27,71.16,36.27,70.23Zm2.44,0c0-.76-.25-1.54-1-1.54s-1,.78-1,1.54.25,1.55,1,1.55S38.71,71,38.71,70.23Z" fill="#5e5e5e"/><path d="M39.89,70.23c0-.93.41-2,1.46-2s1.46,1,1.46,2-.42,2-1.46,2S39.89,71.16,39.89,70.23Zm2.43,0c0-.76-.25-1.54-1-1.54s-1,.78-1,1.54.25,1.55,1,1.55S42.32,71,42.32,70.23Z" fill="#5e5e5e"/><path d="M32.94,59.14v-.39c1.37-1.07,2.12-1.71,2.12-2.36a.71.71,0,0,0-.8-.7,1.26,1.26,0,0,0-1,.48l-.29-.31a1.66,1.66,0,0,1,1.32-.6,1.16,1.16,0,0,1,1.28,1.13c0,.77-.78,1.48-1.85,2.32h1.87v.43Z" fill="#5e5e5e"/><path d="M36.49,58.59l.29-.32a1.24,1.24,0,0,0,1,.51.82.82,0,0,0,.88-.82.8.8,0,0,0-.87-.82,1.22,1.22,0,0,0-.89.36l-.34-.12V55.32h2.33v.42H37.08v1.33a1.32,1.32,0,0,1,.89-.34A1.17,1.17,0,0,1,39.19,58a1.26,1.26,0,0,1-1.36,1.26A1.55,1.55,0,0,1,36.49,58.59Z" fill="#5e5e5e"/><path d="M39.89,57.23c0-.93.41-2,1.46-2s1.46,1,1.46,2-.42,2-1.46,2S39.89,58.16,39.89,57.23Zm2.43,0c0-.76-.25-1.54-1-1.54s-1,.78-1,1.54.25,1.55,1,1.55S42.32,58,42.32,57.23Z" fill="#5e5e5e"/><path d="M32.85,44.58l.28-.3a1.31,1.31,0,0,0,1.06.5c.56,0,.9-.28.9-.71s-.39-.68-1-.68h-.4V43h.4c.48,0,.88-.19.88-.63s-.38-.65-.85-.65a1.32,1.32,0,0,0-1,.46l-.26-.3a1.68,1.68,0,0,1,1.31-.59c.73,0,1.29.38,1.29,1a.91.91,0,0,1-.82.88,1,1,0,0,1,.88,1c0,.63-.51,1.1-1.35,1.1A1.62,1.62,0,0,1,32.85,44.58Z" fill="#5e5e5e"/><path d="M36.27,43.23c0-.93.42-2,1.46-2s1.46,1,1.46,2-.42,2-1.46,2S36.27,44.16,36.27,43.23Zm2.44,0c0-.76-.25-1.54-1-1.54s-1,.78-1,1.54.25,1.55,1,1.55S38.71,44,38.71,43.23Z" fill="#5e5e5e"/><path d="M39.89,43.23c0-.93.41-2,1.46-2s1.46,1,1.46,2-.42,2-1.46,2S39.89,44.16,39.89,43.23Zm2.43,0c0-.76-.25-1.54-1-1.54s-1,.78-1,1.54.25,1.55,1,1.55S42.32,44,42.32,43.23Z" fill="#5e5e5e"/><line x1="304.5" y1="122.6" x2="214.47" y2="122.6" fill="none" stroke="#000" stroke-miterlimit="10" stroke-width="0.5"/><line x1="304.5" y1="109.38" x2="214.47" y2="109.38" fill="none" stroke="#d0d2d3" stroke-linecap="round" stroke-linejoin="round" stroke-width="0.25"/><line x1="304.5" y1="96.15" x2="214.47" y2="96.15" fill="none" stroke="#d0d2d3" stroke-linecap="round" stroke-linejoin="round" stroke-width="0.25"/><line x1="304.5" y1="82.92" x2="214.47" y2="82.92" fill="none" stroke="#d0d2d3" stroke-linecap="round" stroke-linejoin="round" stroke-width="0.25"/><line x1="304.5" y1="69.7" x2="214.47" y2="69.7" fill="none" stroke="#d0d2d3" stroke-linecap="round" stroke-linejoin="round" stroke-width="0.25"/><line x1="304.5" y1="56.47" x2="214.47" y2="56.47" fill="none" stroke="#d0d2d3" stroke-linecap="round" stroke-linejoin="round" stroke-width="0.25"/><line x1="304.5" y1="43.25" x2="214.47" y2="43.25" fill="none" stroke="#d0d2d3" stroke-linecap="round" stroke-linejoin="round" stroke-width="0.25"/><rect x="307.46" y="121.41" width="10.03" height="3.15" fill="#bbbdbf"/><rect x="307.46" y="108.41" width="10.03" height="3.15" fill="#bbbdbf"/><rect x="307.46" y="95.41" width="10.03" height="3.15" fill="#bbbdbf"/><rect x="307.46" y="82.41" width="10.03" height="3.15" fill="#bbbdbf"/><rect x="307.46" y="68.41" width="10.03" height="3.15" fill="#bbbdbf"/><rect x="307.46" y="55.41" width="10.03" height="3.15" fill="#bbbdbf"/><rect x="307.46" y="41.41" width="10.03" height="3.15" fill="#bbbdbf"/><rect x="289.02" y="74" width="12.97" height="48.93" fill="#0072bc"/><rect x="271.01" y="113" width="12.97" height="9.93" fill="#0072bc"/><rect x="253.01" y="86" width="12.97" height="36.93" fill="#0072bc"/><rect x="235" y="103" width="12.97" height="19.93" fill="#0072bc"/><rect x="216.99" y="118" width="12.97" height="4.93" fill="#0072bc"/><line x1="295.49" y1="44.6" x2="277.43" y2="51.43" fill="none" stroke="#ef4a60" stroke-linecap="round" stroke-linejoin="round" stroke-width="1.5"/><line x1="277.43" y1="51.43" x2="259.38" y2="44.87" fill="none" stroke="#ef4a60" stroke-linecap="round" stroke-linejoin="round" stroke-width="1.5"/><line x1="259.38" y1="44.87" x2="241.32" y2="48.79" fill="none" stroke="#ef4a60" stroke-linecap="round" stroke-linejoin="round" stroke-width="1.5"/><line x1="241.32" y1="48.79" x2="223.27" y2="60.81" fill="none" stroke="#ef4a60" stroke-linecap="round" stroke-linejoin="round" stroke-width="1.5"/><rect x="254.43" y="126.22" width="10.03" height="3.15" fill="#bbbdbf"/><rect x="272.43" y="126.22" width="10.03" height="3.15" fill="#bbbdbf"/><rect x="291.43" y="126.22" width="10.03" height="3.15" fill="#bbbdbf"/><rect x="236.43" y="126.22" width="10.03" height="3.15" fill="#bbbdbf"/><rect x="217.43" y="126.22" width="10.03" height="3.15" fill="#bbbdbf"/><path d="M205.07,124.14v-3.2l-.61.66-.28-.3.95-1h.42v3.82Z" fill="#5e5e5e"/><path d="M206.49,123.59l.29-.32a1.24,1.24,0,0,0,1.05.51.82.82,0,0,0,.88-.82.8.8,0,0,0-.87-.82,1.18,1.18,0,0,0-.88.36l-.35-.12v-2.06h2.33v.42h-1.86v1.33a1.32,1.32,0,0,1,.89-.34,1.17,1.17,0,0,1,1.22,1.22,1.26,1.26,0,0,1-1.36,1.26A1.55,1.55,0,0,1,206.49,123.59Z" fill="#5e5e5e"/><path d="M209.89,122.23c0-.93.41-2,1.46-2s1.46,1,1.46,2-.42,2-1.46,2S209.89,123.16,209.89,122.23Zm2.43,0c0-.76-.25-1.54-1-1.54s-1,.78-1,1.54.25,1.55,1,1.55S212.32,123,212.32,122.23Z" fill="#5e5e5e"/><path d="M205.63,111.14v-3.2l-.61.66-.29-.3,1-1h.41v3.82Z" fill="#5e5e5e"/><path d="M207.35,111.14l1.54-3.4h-2v-.42h2.6v.33l-1.56,3.49Z" fill="#5e5e5e"/><path d="M210.1,110.59l.29-.32a1.24,1.24,0,0,0,1.05.51.82.82,0,0,0,.88-.82.8.8,0,0,0-.87-.82,1.22,1.22,0,0,0-.88.36l-.35-.12v-2.06h2.33v.42h-1.86v1.33a1.32,1.32,0,0,1,.9-.34A1.16,1.16,0,0,1,212.8,110a1.26,1.26,0,0,1-1.36,1.26A1.55,1.55,0,0,1,210.1,110.59Z" fill="#5e5e5e"/><path d="M202.82,98.14v-.39c1.37-1.07,2.12-1.71,2.12-2.37a.71.71,0,0,0-.8-.69,1.28,1.28,0,0,0-1,.48l-.29-.31a1.66,1.66,0,0,1,1.33-.6,1.16,1.16,0,0,1,1.28,1.12c0,.78-.79,1.49-1.85,2.33h1.87v.43Z" fill="#5e5e5e"/><path d="M206.27,96.23c0-.93.42-2,1.46-2s1.46,1,1.46,2-.42,2-1.46,2S206.27,97.16,206.27,96.23Zm2.44,0c0-.76-.25-1.54-1-1.54s-1,.78-1,1.54.25,1.55,1,1.55S208.71,97,208.71,96.23Z" fill="#5e5e5e"/><path d="M209.89,96.23c0-.93.41-2,1.46-2s1.46,1,1.46,2-.42,2-1.46,2S209.89,97.16,209.89,96.23Zm2.43,0c0-.76-.25-1.54-1-1.54s-1,.78-1,1.54.25,1.55,1,1.55S212.32,97,212.32,96.23Z" fill="#5e5e5e"/><path d="M203.08,85.14v-.39c1.37-1.07,2.12-1.71,2.12-2.37a.71.71,0,0,0-.8-.69,1.28,1.28,0,0,0-1,.48l-.29-.31a1.66,1.66,0,0,1,1.33-.6,1.16,1.16,0,0,1,1.28,1.12c0,.78-.79,1.49-1.85,2.33h1.87v.43Z" fill="#5e5e5e"/><path d="M206.55,85.14v-.39c1.38-1.07,2.13-1.71,2.13-2.37a.71.71,0,0,0-.8-.69,1.27,1.27,0,0,0-1,.48l-.29-.31a1.66,1.66,0,0,1,1.33-.6,1.16,1.16,0,0,1,1.28,1.12c0,.78-.79,1.49-1.86,2.33h1.87v.43Z" fill="#5e5e5e"/><path d="M210.1,84.59l.29-.32a1.24,1.24,0,0,0,1.05.51.82.82,0,0,0,.88-.82.8.8,0,0,0-.87-.82,1.22,1.22,0,0,0-.88.36l-.35-.12V81.32h2.33v.42h-1.86v1.33a1.32,1.32,0,0,1,.9-.34A1.16,1.16,0,0,1,212.8,84a1.26,1.26,0,0,1-1.36,1.26A1.55,1.55,0,0,1,210.1,84.59Z" fill="#5e5e5e"/><path d="M202.94,72.14v-.39c1.37-1.07,2.12-1.71,2.12-2.36a.71.71,0,0,0-.8-.7,1.26,1.26,0,0,0-1,.48l-.29-.31a1.66,1.66,0,0,1,1.32-.6,1.16,1.16,0,0,1,1.28,1.13c0,.77-.78,1.48-1.85,2.32h1.87v.43Z" fill="#5e5e5e"/><path d="M206.49,71.59l.29-.32a1.24,1.24,0,0,0,1.05.51.82.82,0,0,0,.88-.82.8.8,0,0,0-.87-.82,1.22,1.22,0,0,0-.89.36l-.34-.12V68.32h2.33v.42h-1.86v1.33a1.32,1.32,0,0,1,.89-.34A1.17,1.17,0,0,1,209.19,71a1.26,1.26,0,0,1-1.36,1.26A1.55,1.55,0,0,1,206.49,71.59Z" fill="#5e5e5e"/><path d="M209.89,70.23c0-.93.41-2,1.46-2s1.46,1,1.46,2-.42,2-1.46,2S209.89,71.16,209.89,70.23Zm2.43,0c0-.76-.25-1.54-1-1.54s-1,.78-1,1.54.25,1.55,1,1.55S212.32,71,212.32,70.23Z" fill="#5e5e5e"/><path d="M203.5,59.14v-.39c1.37-1.07,2.12-1.71,2.12-2.36a.71.71,0,0,0-.8-.7,1.28,1.28,0,0,0-1,.48l-.29-.31a1.66,1.66,0,0,1,1.33-.6,1.16,1.16,0,0,1,1.28,1.13c0,.77-.79,1.48-1.85,2.32h1.87v.43Z" fill="#5e5e5e"/><path d="M207.35,59.14l1.54-3.4h-2v-.42h2.6v.33l-1.56,3.49Z" fill="#5e5e5e"/><path d="M210.1,58.59l.29-.32a1.24,1.24,0,0,0,1.05.51.82.82,0,0,0,.88-.82.8.8,0,0,0-.87-.82,1.22,1.22,0,0,0-.88.36l-.35-.12V55.32h2.33v.42h-1.86v1.33a1.32,1.32,0,0,1,.9-.34A1.17,1.17,0,0,1,212.81,58a1.27,1.27,0,0,1-1.37,1.26A1.55,1.55,0,0,1,210.1,58.59Z" fill="#5e5e5e"/><path d="M202.85,44.58l.28-.3a1.31,1.31,0,0,0,1.06.5c.56,0,.9-.28.9-.71s-.39-.68-1-.68h-.4V43h.4c.48,0,.88-.19.88-.63s-.38-.65-.85-.65a1.32,1.32,0,0,0-1,.46l-.26-.3a1.68,1.68,0,0,1,1.31-.59c.73,0,1.29.38,1.29,1a.91.91,0,0,1-.82.88,1,1,0,0,1,.88,1c0,.63-.51,1.1-1.35,1.1A1.62,1.62,0,0,1,202.85,44.58Z" fill="#5e5e5e"/><path d="M206.27,43.23c0-.93.42-2,1.46-2s1.46,1,1.46,2-.42,2-1.46,2S206.27,44.16,206.27,43.23Zm2.44,0c0-.76-.25-1.54-1-1.54s-1,.78-1,1.54.25,1.55,1,1.55S208.71,44,208.71,43.23Z" fill="#5e5e5e"/><path d="M209.89,43.23c0-.93.41-2,1.46-2s1.46,1,1.46,2-.42,2-1.46,2S209.89,44.16,209.89,43.23Zm2.43,0c0-.76-.25-1.54-1-1.54s-1,.78-1,1.54.25,1.55,1,1.55S212.32,44,212.32,43.23Z" fill="#5e5e5e"/></svg>