<svg xmlns="http://www.w3.org/2000/svg" width="350" height="148" viewBox="0 0 350 148"><rect width="350" height="148" fill="#f1f2f2"/><path d="M31.92,21.87V14.54h2.5a3.56,3.56,0,0,1,3.76,3.67,3.54,3.54,0,0,1-3.76,3.66Zm5.32-3.66a2.69,2.69,0,0,0-2.82-2.86H32.83v5.71h1.59A2.7,2.7,0,0,0,37.24,18.21Z" fill="#0072bc"/><path d="M39.26,19.21a2.63,2.63,0,1,1,5.26,0,2.63,2.63,0,1,1-5.26,0Zm4.39,0a1.78,1.78,0,1,0-3.52,0,1.78,1.78,0,1,0,3.52,0Z" fill="#0072bc"/><circle cx="17.55" cy="17.55" r="7.55" fill="#9dc5ff"/><circle cx="17.55" cy="17.55" r="4.8" fill="#0072bc"/><polyline points="14.8 17.55 16.63 19.38 20.29 15.72" fill="none" stroke="#fff" stroke-linecap="round" stroke-linejoin="round" stroke-width="0.75"/><path d="M201.92,21.87V14.54h2.5a3.56,3.56,0,0,1,3.76,3.67,3.54,3.54,0,0,1-3.76,3.66Zm5.32-3.66a2.69,2.69,0,0,0-2.82-2.86h-1.59v5.71h1.59A2.7,2.7,0,0,0,207.24,18.21Z" fill="#ef4a60"/><path d="M209.26,19.21a2.63,2.63,0,1,1,5.26,0,2.63,2.63,0,1,1-5.26,0Zm4.39,0a1.78,1.78,0,1,0-3.52,0,1.78,1.78,0,1,0,3.52,0Z" fill="#ef4a60"/><path d="M219.44,21.87V18.4c0-.95-.48-1.23-1.19-1.23a2.06,2.06,0,0,0-1.57.82v3.88h-.83V16.56h.83v.77a2.58,2.58,0,0,1,1.9-.9,1.5,1.5,0,0,1,1.68,1.71v3.73Z" fill="#ef4a60"/><path d="M222.07,16.93l-.42-.35a1.65,1.65,0,0,0,.71-1l-.15,0a.53.53,0,0,1-.53-.56.6.6,0,0,1,.58-.59c.38,0,.7.3.7.84A2.14,2.14,0,0,1,222.07,16.93Z" fill="#ef4a60"/><path d="M224.54,20.76V17.29h-.88v-.73h.88V15.11h.83v1.45h1.08v.73h-1.08v3.29c0,.4.18.68.53.68a.75.75,0,0,0,.56-.23l.24.63a1.32,1.32,0,0,1-1,.34A1.08,1.08,0,0,1,224.54,20.76Z" fill="#ef4a60"/><circle cx="187.55" cy="17.55" r="7.55" fill="#ffbcc1"/><circle cx="187.55" cy="17.55" r="4.8" fill="#ef4a60"/><line x1="189.55" y1="15.55" x2="185.55" y2="19.55" fill="none" stroke="#fff" stroke-linecap="round" stroke-linejoin="round" stroke-width="0.75"/><line x1="189.55" y1="19.55" x2="185.55" y2="15.55" fill="none" stroke="#fff" stroke-linecap="round" stroke-linejoin="round" stroke-width="0.75"/><line x1="135.02" y1="122.6" x2="44.99" y2="122.6" fill="none" stroke="#000" stroke-miterlimit="10" stroke-width="0.5"/><line x1="135.02" y1="109.38" x2="44.99" y2="109.38" fill="none" stroke="#d0d2d3" stroke-linecap="round" stroke-linejoin="round" stroke-width="0.25"/><line x1="135.02" y1="96.15" x2="44.99" y2="96.15" fill="none" stroke="#d0d2d3" stroke-linecap="round" stroke-linejoin="round" stroke-width="0.25"/><line x1="135.02" y1="82.92" x2="44.99" y2="82.92" fill="none" stroke="#d0d2d3" stroke-linecap="round" stroke-linejoin="round" stroke-width="0.25"/><line x1="135.02" y1="69.7" x2="44.99" y2="69.7" fill="none" stroke="#d0d2d3" stroke-linecap="round" stroke-linejoin="round" stroke-width="0.25"/><line x1="135.02" y1="56.47" x2="44.99" y2="56.47" fill="none" stroke="#d0d2d3" stroke-linecap="round" stroke-linejoin="round" stroke-width="0.25"/><line x1="135.02" y1="43.25" x2="44.99" y2="43.25" fill="none" stroke="#d0d2d3" stroke-linecap="round" stroke-linejoin="round" stroke-width="0.25"/><rect x="31.99" y="121.41" width="10.03" height="3.15" fill="#bbbdbf"/><rect x="31.99" y="108.41" width="10.03" height="3.15" fill="#bbbdbf"/><rect x="31.99" y="95.41" width="10.03" height="3.15" fill="#bbbdbf"/><rect x="31.99" y="82.41" width="10.03" height="3.15" fill="#bbbdbf"/><rect x="31.99" y="68.41" width="10.03" height="3.15" fill="#bbbdbf"/><rect x="31.99" y="55.41" width="10.03" height="3.15" fill="#bbbdbf"/><rect x="31.99" y="41.41" width="10.03" height="3.15" fill="#bbbdbf"/><rect x="137.99" y="121.41" width="10.03" height="3.15" fill="#bbbdbf"/><rect x="137.99" y="108.41" width="10.03" height="3.15" fill="#bbbdbf"/><rect x="137.99" y="95.41" width="10.03" height="3.15" fill="#bbbdbf"/><rect x="137.99" y="82.41" width="10.03" height="3.15" fill="#bbbdbf"/><rect x="137.99" y="68.41" width="10.03" height="3.15" fill="#bbbdbf"/><rect x="137.99" y="55.41" width="10.03" height="3.15" fill="#bbbdbf"/><rect x="137.99" y="41.41" width="10.03" height="3.15" fill="#bbbdbf"/><rect x="119.54" y="59.77" width="12.97" height="63.16" fill="#0072bc"/><rect x="101.54" y="80.33" width="12.97" height="42.61" fill="#0072bc"/><rect x="83.53" y="65.08" width="12.97" height="57.85" fill="#0072bc"/><rect x="65.52" y="74.26" width="12.97" height="48.67" fill="#0072bc"/><rect x="47.51" y="82.31" width="12.97" height="40.62" fill="#0072bc"/><line x1="126.01" y1="44.6" x2="107.95" y2="51.43" fill="none" stroke="#ef4a60" stroke-linecap="round" stroke-linejoin="round" stroke-width="1.5"/><line x1="107.95" y1="51.43" x2="89.9" y2="44.87" fill="none" stroke="#ef4a60" stroke-linecap="round" stroke-linejoin="round" stroke-width="1.5"/><line x1="89.9" y1="44.87" x2="71.84" y2="48.79" fill="none" stroke="#ef4a60" stroke-linecap="round" stroke-linejoin="round" stroke-width="1.5"/><line x1="71.84" y1="48.79" x2="53.79" y2="60.81" fill="none" stroke="#ef4a60" stroke-linecap="round" stroke-linejoin="round" stroke-width="1.5"/><rect x="84.95" y="126.22" width="10.03" height="3.15" fill="#bbbdbf"/><rect x="102.95" y="126.22" width="10.03" height="3.15" fill="#bbbdbf"/><rect x="121.95" y="126.22" width="10.03" height="3.15" fill="#bbbdbf"/><rect x="66.95" y="126.22" width="10.03" height="3.15" fill="#bbbdbf"/><rect x="47.95" y="126.22" width="10.03" height="3.15" fill="#bbbdbf"/><line x1="305.02" y1="122.6" x2="214.99" y2="122.6" fill="none" stroke="#000" stroke-miterlimit="10" stroke-width="0.5"/><line x1="305.02" y1="109.38" x2="214.99" y2="109.38" fill="none" stroke="#d0d2d3" stroke-linecap="round" stroke-linejoin="round" stroke-width="0.25"/><line x1="305.02" y1="96.15" x2="214.99" y2="96.15" fill="none" stroke="#d0d2d3" stroke-linecap="round" stroke-linejoin="round" stroke-width="0.25"/><line x1="305.02" y1="82.92" x2="214.99" y2="82.92" fill="none" stroke="#d0d2d3" stroke-linecap="round" stroke-linejoin="round" stroke-width="0.25"/><line x1="305.02" y1="69.7" x2="214.99" y2="69.7" fill="none" stroke="#d0d2d3" stroke-linecap="round" stroke-linejoin="round" stroke-width="0.25"/><line x1="305.02" y1="56.47" x2="214.99" y2="56.47" fill="none" stroke="#d0d2d3" stroke-linecap="round" stroke-linejoin="round" stroke-width="0.25"/><line x1="305.02" y1="43.25" x2="214.99" y2="43.25" fill="none" stroke="#d0d2d3" stroke-linecap="round" stroke-linejoin="round" stroke-width="0.25"/><rect x="201.99" y="121.41" width="10.03" height="3.15" fill="#bbbdbf"/><rect x="201.99" y="108.41" width="10.03" height="3.15" fill="#bbbdbf"/><rect x="201.99" y="95.41" width="10.03" height="3.15" fill="#bbbdbf"/><rect x="201.99" y="82.41" width="10.03" height="3.15" fill="#bbbdbf"/><rect x="201.99" y="68.41" width="10.03" height="3.15" fill="#bbbdbf"/><rect x="201.99" y="55.41" width="10.03" height="3.15" fill="#bbbdbf"/><rect x="201.99" y="41.41" width="10.03" height="3.15" fill="#bbbdbf"/><rect x="307.99" y="121.41" width="10.03" height="3.15" fill="#bbbdbf"/><rect x="307.99" y="108.41" width="10.03" height="3.15" fill="#bbbdbf"/><rect x="307.99" y="95.41" width="10.03" height="3.15" fill="#bbbdbf"/><rect x="307.99" y="82.41" width="10.03" height="3.15" fill="#bbbdbf"/><rect x="307.99" y="68.41" width="10.03" height="3.15" fill="#bbbdbf"/><rect x="307.99" y="55.41" width="10.03" height="3.15" fill="#bbbdbf"/><rect x="307.99" y="41.41" width="10.03" height="3.15" fill="#bbbdbf"/><rect x="289.54" y="59.77" width="12.97" height="63.16" fill="#00b398"/><rect x="271.54" y="80.33" width="12.97" height="42.61" fill="#00b398"/><rect x="253.53" y="65.08" width="12.97" height="57.85" fill="#00b398"/><rect x="235.52" y="74.26" width="12.97" height="48.67" fill="#00b398"/><rect x="217.51" y="82.31" width="12.97" height="40.62" fill="#00b398"/><rect x="289.54" y="103.63" width="12.97" height="19.3" fill="#18375f"/><rect x="271.54" y="112.86" width="12.97" height="10.07" fill="#18375f"/><rect x="253.53" y="109.25" width="12.97" height="13.68" fill="#18375f"/><rect x="235.52" y="108" width="12.97" height="14.93" fill="#18375f"/><rect x="217.51" y="113.33" width="12.97" height="9.6" fill="#18375f"/><rect x="289.54" y="92" width="12.97" height="11.63" fill="#0072bc"/><rect x="271.54" y="107" width="12.97" height="5.86" fill="#0072bc"/><rect x="253.53" y="103" width="12.97" height="6.25" fill="#0072bc"/><rect x="235.52" y="98" width="12.97" height="10" fill="#0072bc"/><rect x="217.51" y="105" width="12.97" height="8.33" fill="#0072bc"/><rect x="289.54" y="79" width="12.97" height="13" fill="#9dc5ff"/><rect x="271.54" y="93.51" width="12.97" height="13.49" fill="#9dc5ff"/><rect x="253.53" y="84.68" width="12.97" height="18.32" fill="#9dc5ff"/><rect x="235.52" y="90" width="12.97" height="8" fill="#9dc5ff"/><rect x="217.51" y="94.14" width="12.97" height="10.86" fill="#9dc5ff"/><line x1="296.01" y1="44.6" x2="277.95" y2="51.43" fill="none" stroke="#ef4a60" stroke-linecap="round" stroke-linejoin="round" stroke-width="1.5"/><line x1="277.95" y1="51.43" x2="259.9" y2="44.87" fill="none" stroke="#ef4a60" stroke-linecap="round" stroke-linejoin="round" stroke-width="1.5"/><line x1="259.9" y1="44.87" x2="241.84" y2="48.79" fill="none" stroke="#ef4a60" stroke-linecap="round" stroke-linejoin="round" stroke-width="1.5"/><line x1="241.84" y1="48.79" x2="223.79" y2="60.81" fill="none" stroke="#ef4a60" stroke-linecap="round" stroke-linejoin="round" stroke-width="1.5"/><rect x="254.95" y="126.22" width="10.03" height="3.15" fill="#bbbdbf"/><rect x="272.95" y="126.22" width="10.03" height="3.15" fill="#bbbdbf"/><rect x="291.95" y="126.22" width="10.03" height="3.15" fill="#bbbdbf"/><rect x="236.95" y="126.22" width="10.03" height="3.15" fill="#bbbdbf"/><rect x="217.95" y="126.22" width="10.03" height="3.15" fill="#bbbdbf"/></svg>