<svg xmlns="http://www.w3.org/2000/svg" width="350" height="148" viewBox="0 0 350 148"><rect width="350" height="148" fill="#f1f2f2"/><rect width="350" height="148" fill="#f1f2f2"/><path d="M32.45,21.87V14.54H35a3.56,3.56,0,0,1,3.76,3.67A3.54,3.54,0,0,1,35,21.87Zm5.32-3.66A2.69,2.69,0,0,0,35,15.35H33.36v5.71H35A2.7,2.7,0,0,0,37.77,18.21Z" fill="#0072bc"/><path d="M39.79,19.21a2.63,2.63,0,1,1,5.25,0,2.63,2.63,0,1,1-5.25,0Zm4.39,0a1.78,1.78,0,1,0-3.52,0,1.78,1.78,0,1,0,3.52,0Z" fill="#0072bc"/><circle cx="18.08" cy="17.55" r="7.55" fill="#9dc5ff"/><circle cx="18.08" cy="17.55" r="4.8" fill="#0072bc"/><polyline points="15.33 17.55 17.16 19.38 20.82 15.72" fill="none" stroke="#fff" stroke-linecap="round" stroke-linejoin="round" stroke-width="0.75"/><path d="M202.06,21.87V14.54h2.5a3.56,3.56,0,0,1,3.76,3.67,3.54,3.54,0,0,1-3.76,3.66Zm5.32-3.66a2.69,2.69,0,0,0-2.82-2.86H203v5.71h1.59A2.7,2.7,0,0,0,207.38,18.21Z" fill="#ef4a60"/><path d="M209.41,19.21a2.63,2.63,0,1,1,5.25,0,2.63,2.63,0,1,1-5.25,0Zm4.38,0a1.78,1.78,0,1,0-3.52,0,1.78,1.78,0,1,0,3.52,0Z" fill="#ef4a60"/><path d="M219.59,21.87V18.4c0-.95-.49-1.23-1.2-1.23a2.06,2.06,0,0,0-1.57.82v3.88H216V16.56h.83v.77a2.59,2.59,0,0,1,1.9-.9,1.5,1.5,0,0,1,1.68,1.71v3.73Z" fill="#ef4a60"/><path d="M222.21,16.93l-.42-.35a1.71,1.71,0,0,0,.72-1l-.16,0a.53.53,0,0,1-.53-.56.6.6,0,0,1,.59-.59c.37,0,.69.3.69.84A2.14,2.14,0,0,1,222.21,16.93Z" fill="#ef4a60"/><path d="M224.68,20.76V17.29h-.88v-.73h.88V15.11h.83v1.45h1.08v.73h-1.08v3.29c0,.4.18.68.53.68a.75.75,0,0,0,.56-.23l.24.63a1.31,1.31,0,0,1-1,.34A1.09,1.09,0,0,1,224.68,20.76Z" fill="#ef4a60"/><circle cx="187.69" cy="17.55" r="7.55" fill="#ffbcc1"/><circle cx="187.69" cy="17.55" r="4.8" fill="#ef4a60"/><line x1="189.69" y1="15.55" x2="185.69" y2="19.55" fill="none" stroke="#fff" stroke-linecap="round" stroke-linejoin="round" stroke-width="0.75"/><line x1="189.69" y1="19.55" x2="185.69" y2="15.55" fill="none" stroke="#fff" stroke-linecap="round" stroke-linejoin="round" stroke-width="0.75"/><line x1="136.83" y1="119.44" x2="37.8" y2="119.44" fill="none" stroke="#000" stroke-miterlimit="10" stroke-width="0.5"/><line x1="136.83" y1="106.21" x2="37.8" y2="106.21" fill="none" stroke="#d0d2d3" stroke-linecap="round" stroke-linejoin="round" stroke-width="0.25"/><line x1="136.83" y1="92.98" x2="37.8" y2="92.98" fill="none" stroke="#d0d2d3" stroke-linecap="round" stroke-linejoin="round" stroke-width="0.25"/><line x1="136.83" y1="79.76" x2="37.8" y2="79.76" fill="none" stroke="#d0d2d3" stroke-linecap="round" stroke-linejoin="round" stroke-width="0.25"/><line x1="136.83" y1="66.53" x2="37.8" y2="66.53" fill="none" stroke="#d0d2d3" stroke-linecap="round" stroke-linejoin="round" stroke-width="0.25"/><line x1="136.83" y1="53.31" x2="37.8" y2="53.31" fill="none" stroke="#d0d2d3" stroke-linecap="round" stroke-linejoin="round" stroke-width="0.25"/><line x1="136.83" y1="40.08" x2="37.8" y2="40.08" fill="none" stroke="#d0d2d3" stroke-linecap="round" stroke-linejoin="round" stroke-width="0.25"/><rect x="40.8" y="124.24" width="10.03" height="3.15" fill="#bbbdbf"/><rect x="73.65" y="124.24" width="10.03" height="3.15" fill="#bbbdbf"/><rect x="57.22" y="124.24" width="10.03" height="3.15" fill="#bbbdbf"/><rect x="106.5" y="124.24" width="10.03" height="3.15" fill="#bbbdbf"/><rect x="90.08" y="124.24" width="10.03" height="3.15" fill="#bbbdbf"/><rect x="122.93" y="124.24" width="10.03" height="3.15" fill="#bbbdbf"/><path d="M32,119.1c0-.93.41-2,1.45-2s1.46,1,1.46,2-.41,2-1.46,2S32,120,32,119.1Zm2.43,0c0-.76-.25-1.54-1-1.54s-1,.78-1,1.54.25,1.55,1,1.55S34.42,119.87,34.42,119.1Z" fill="#5e5e5e"/><path d="M30.39,108v-1H28.57v-.39l1.64-2.46h.65v2.43h.54V107h-.54v1Zm0-3.38-1.34,2h1.34Z" fill="#5e5e5e"/><path d="M32,106.1c0-.93.41-2,1.45-2s1.46,1,1.46,2-.41,2-1.46,2S32,107,32,106.1Zm2.43,0c0-.76-.25-1.54-1-1.54s-1,.78-1,1.54.25,1.55,1,1.55S34.42,106.87,34.42,106.1Z" fill="#5e5e5e"/><path d="M28.55,94a1.12,1.12,0,0,1,.91-1,1,1,0,0,1-.85-.91c0-.69.67-1,1.31-1s1.31.3,1.31,1a1,1,0,0,1-.85.91,1.12,1.12,0,0,1,.9,1c0,.65-.61,1-1.36,1S28.55,94.7,28.55,94ZM30.8,94c0-.5-.65-.71-.88-.74S29,93.49,29,94s.41.66.89.66S30.8,94.4,30.8,94Zm-.05-1.8c0-.4-.37-.63-.83-.63s-.83.23-.83.63.6.62.83.66S30.75,92.65,30.75,92.19Z" fill="#5e5e5e"/><path d="M32,93.1c0-.93.41-2,1.45-2s1.46,1,1.46,2-.41,2-1.46,2S32,94,32,93.1Zm2.43,0c0-.76-.25-1.54-1-1.54s-1,.78-1,1.54.25,1.55,1,1.55S34.42,93.87,34.42,93.1Z" fill="#5e5e5e"/><path d="M27.18,82V78.82l-.61.65-.28-.29.95-1h.42V82Z" fill="#5e5e5e"/><path d="M28.53,82v-.38c1.37-1.08,2.12-1.71,2.12-2.37a.71.71,0,0,0-.8-.7,1.28,1.28,0,0,0-1,.48l-.29-.3a1.63,1.63,0,0,1,1.33-.6,1.16,1.16,0,0,1,1.28,1.12c0,.78-.79,1.49-1.85,2.33h1.87V82Z" fill="#5e5e5e"/><path d="M32,80.1c0-.93.41-2,1.45-2s1.46,1,1.46,2-.41,2-1.46,2S32,81,32,80.1Zm2.43,0c0-.76-.25-1.54-1-1.54s-1,.78-1,1.54.25,1.55,1,1.55S34.42,80.87,34.42,80.1Z" fill="#5e5e5e"/><path d="M27.17,68V64.82l-.62.65-.28-.29.95-1h.42V68Z" fill="#5e5e5e"/><path d="M28.49,66.1c0-1,.48-2,1.56-2a1.3,1.3,0,0,1,1.05.45l-.24.36a1,1,0,0,0-.81-.39c-.75,0-1.08.75-1.08,1.5v.15a1.36,1.36,0,0,1,1.08-.6,1.16,1.16,0,0,1,1.25,1.22A1.25,1.25,0,0,1,30,68.08C28.9,68.08,28.49,67.15,28.49,66.1Zm2.33.75A.79.79,0,0,0,30,66a1.18,1.18,0,0,0-1,.57c0,.48.29,1.06,1,1.06A.82.82,0,0,0,30.82,66.85Z" fill="#5e5e5e"/><path d="M32,66.1c0-.93.41-2,1.45-2s1.46,1,1.46,2-.41,2-1.46,2S32,67,32,66.1Zm2.43,0c0-.76-.25-1.54-1-1.54s-1,.78-1,1.54.25,1.55,1,1.55S34.42,66.87,34.42,66.1Z" fill="#5e5e5e"/><path d="M24.91,55v-.38C26.29,53.55,27,52.92,27,52.26a.72.72,0,0,0-.8-.7,1.27,1.27,0,0,0-1,.48l-.29-.3a1.63,1.63,0,0,1,1.33-.6,1.16,1.16,0,0,1,1.28,1.12c0,.78-.79,1.49-1.86,2.33h1.87V55Z" fill="#5e5e5e"/><path d="M28.37,53.1c0-.93.41-2,1.46-2s1.46,1,1.46,2-.42,2-1.46,2S28.37,54,28.37,53.1Zm2.43,0c0-.76-.24-1.54-1-1.54s-1,.78-1,1.54.24,1.55,1,1.55S30.8,53.87,30.8,53.1Z" fill="#5e5e5e"/><path d="M32,53.1c0-.93.41-2,1.45-2s1.46,1,1.46,2-.41,2-1.46,2S32,54,32,53.1Zm2.43,0c0-.76-.25-1.54-1-1.54s-1,.78-1,1.54.25,1.55,1,1.55S34.42,53.87,34.42,53.1Z" fill="#5e5e5e"/><path d="M25.22,42v-.38c1.38-1.08,2.12-1.71,2.12-2.37a.71.71,0,0,0-.8-.7,1.26,1.26,0,0,0-1,.48l-.29-.3a1.63,1.63,0,0,1,1.32-.6,1.17,1.17,0,0,1,1.29,1.12c0,.78-.79,1.49-1.86,2.33h1.87V42Z" fill="#5e5e5e"/><path d="M30.39,42V41H28.57v-.39l1.64-2.46h.65v2.43h.54V41h-.54v1Zm0-3.38-1.34,2h1.34Z" fill="#5e5e5e"/><path d="M32,40.1c0-.93.41-2,1.45-2s1.46,1,1.46,2-.41,2-1.46,2S32,41,32,40.1Zm2.43,0c0-.76-.25-1.54-1-1.54s-1,.78-1,1.54.25,1.55,1,1.55S34.42,40.87,34.42,40.1Z" fill="#5e5e5e"/><polyline points="45.81 90.61 62.24 82.1 78.67 75.05 95.09 61.77 111.52 58.75 127.94 55.75" fill="none" stroke="#00b398" stroke-linecap="round" stroke-linejoin="round"/><polyline points="45.81 110.61 62.24 108.1 78.67 98.05 95.09 83.77 111.52 75.75 127.94 73.75" fill="none" stroke="#0072bc" stroke-linecap="round" stroke-linejoin="round"/><path d="M131,58.15v-4h.49v4Z" fill="#5e5e5e"/><path d="M132.44,58.15v-4h1.37a2,2,0,1,1,0,4Zm2.9-2a1.46,1.46,0,0,0-1.53-1.56h-.87V57.7h.87A1.46,1.46,0,0,0,135.34,56.15Z" fill="#5e5e5e"/><path d="M136.64,58.15v-4h1.61a1.21,1.21,0,1,1,0,2.41h-1.11v1.59Zm2.34-2.8a.74.74,0,0,0-.79-.76h-1.05v1.52h1.05A.74.74,0,0,0,139,55.35Z" fill="#5e5e5e"/><path d="M139.9,57.76l.23-.32a1.3,1.3,0,0,0,1,.41c.44,0,.69-.21.69-.5,0-.7-1.79-.27-1.79-1.34,0-.45.38-.83,1.07-.83a1.4,1.4,0,0,1,1.07.42l-.21.31a1.1,1.1,0,0,0-.86-.37c-.4,0-.64.2-.64.46,0,.63,1.79.22,1.79,1.34,0,.49-.39.88-1.13.88A1.54,1.54,0,0,1,139.9,57.76Z" fill="#5e5e5e"/><path d="M133.32,76.15l-1-1.59h-.81v1.59H131v-4h1.6a1.17,1.17,0,0,1,1.26,1.2,1.11,1.11,0,0,1-1,1.17l1.08,1.63Zm0-2.8a.75.75,0,0,0-.81-.76H131.5v1.53h1.05A.76.76,0,0,0,133.36,73.35Z" fill="#5e5e5e"/><path d="M134.29,74.7a1.45,1.45,0,0,1,1.43-1.52,1.4,1.4,0,0,1,1.39,1.55v.12h-2.34a1,1,0,0,0,1,1,1.26,1.26,0,0,0,.9-.38l.22.3a1.62,1.62,0,0,1-1.16.45A1.44,1.44,0,0,1,134.29,74.7Zm1.42-1.15a1,1,0,0,0-.94,1h1.9A.94.94,0,0,0,135.71,73.55Z" fill="#5e5e5e"/><path d="M138,76.15v-2.5h-.47v-.4H138V73a.82.82,0,0,1,.84-.94.83.83,0,0,1,.62.22l-.19.29a.5.5,0,0,0-.35-.14c-.3,0-.46.2-.46.57v.22H139v.4h-.58v2.5Z" fill="#5e5e5e"/><path d="M141.5,76.15v-.41a1.42,1.42,0,0,1-1,.48.82.82,0,0,1-.93-.93v-2H140v1.91c0,.51.26.66.66.66a1.12,1.12,0,0,0,.85-.44V73.25H142v2.9Z" fill="#5e5e5e"/><path d="M142.84,76.88l.23-.32A1.13,1.13,0,0,0,144,77a.83.83,0,0,0,.94-.85v-.43a1.24,1.24,0,0,1-1,.51,1.52,1.52,0,0,1,0-3,1.22,1.22,0,0,1,1,.51v-.44h.45V76.1c0,.92-.68,1.22-1.39,1.22A1.46,1.46,0,0,1,142.84,76.88ZM145,75.31V74a1.11,1.11,0,0,0-.86-.46c-.59,0-.94.46-.94,1.1s.35,1.1.94,1.1A1.09,1.09,0,0,0,145,75.31Z" fill="#5e5e5e"/><path d="M146.13,74.7a1.45,1.45,0,0,1,1.43-1.52A1.41,1.41,0,0,1,149,74.73v.12h-2.34a1,1,0,0,0,1,1,1.29,1.29,0,0,0,.9-.38l.21.3a1.58,1.58,0,0,1-1.15.45A1.44,1.44,0,0,1,146.13,74.7Zm1.42-1.15a1,1,0,0,0-.94,1h1.9A.94.94,0,0,0,147.55,73.55Z" fill="#5e5e5e"/><path d="M149.51,74.7a1.45,1.45,0,0,1,1.43-1.52,1.41,1.41,0,0,1,1.39,1.55v.12H150a1,1,0,0,0,1,1,1.29,1.29,0,0,0,.9-.38l.21.3a1.58,1.58,0,0,1-1.15.45A1.44,1.44,0,0,1,149.51,74.7Zm1.42-1.15a1,1,0,0,0-1,1h1.9A.93.93,0,0,0,150.93,73.55Z" fill="#5e5e5e"/><path d="M152.81,75.76l.23-.32a1.3,1.3,0,0,0,1,.41c.44,0,.69-.21.69-.49,0-.71-1.79-.28-1.79-1.35,0-.45.38-.83,1.07-.83a1.4,1.4,0,0,1,1.07.42l-.21.31a1.1,1.1,0,0,0-.86-.37c-.4,0-.64.2-.64.46,0,.63,1.79.22,1.79,1.34,0,.49-.39.88-1.13.88A1.54,1.54,0,0,1,152.81,75.76Z" fill="#5e5e5e"/><path d="M276.29,34.15v-4h.5v4Z" fill="#5e5e5e"/><path d="M277.72,34.15v-4h1.37a2,2,0,1,1,0,4Zm2.9-2a1.46,1.46,0,0,0-1.53-1.56h-.87V33.7h.87A1.46,1.46,0,0,0,280.62,32.15Z" fill="#5e5e5e"/><path d="M281.92,34.15v-4h1.61a1.21,1.21,0,1,1,0,2.41h-1.11v1.59Zm2.35-2.8a.75.75,0,0,0-.8-.76h-1.05v1.52h1.05A.75.75,0,0,0,284.27,31.35Z" fill="#5e5e5e"/><path d="M285.18,33.76l.23-.32a1.3,1.3,0,0,0,.95.41c.44,0,.69-.21.69-.5,0-.7-1.79-.27-1.79-1.34,0-.45.38-.83,1.07-.83a1.4,1.4,0,0,1,1.07.42l-.21.31a1.1,1.1,0,0,0-.86-.37c-.39,0-.64.2-.64.46,0,.63,1.79.22,1.79,1.34,0,.49-.39.88-1.13.88A1.54,1.54,0,0,1,285.18,33.76Z" fill="#5e5e5e"/><path d="M226.6,34.15l-1-1.59h-.8v1.59h-.5v-4h1.6a1.17,1.17,0,0,1,1.26,1.2,1.11,1.11,0,0,1-1,1.17l1.08,1.63Zm0-2.8a.75.75,0,0,0-.81-.76h-1v1.53h1A.76.76,0,0,0,226.64,31.35Z" fill="#5e5e5e"/><path d="M227.57,32.7A1.45,1.45,0,0,1,229,31.18a1.4,1.4,0,0,1,1.39,1.55v.12h-2.34a1,1,0,0,0,1,1,1.26,1.26,0,0,0,.9-.38l.22.3a1.62,1.62,0,0,1-1.16.45A1.44,1.44,0,0,1,227.57,32.7ZM229,31.55a1,1,0,0,0-.95,1H230A.94.94,0,0,0,229,31.55Z" fill="#5e5e5e"/><path d="M231.25,34.15v-2.5h-.48v-.4h.48V31a.87.87,0,0,1,1.45-.72l-.19.29a.48.48,0,0,0-.35-.14c-.3,0-.46.2-.46.57v.22h.58v.4h-.58v2.5Z" fill="#5e5e5e"/><path d="M234.78,34.15v-.41a1.42,1.42,0,0,1-1,.48.82.82,0,0,1-.93-.93v-2h.45v1.91c0,.51.26.66.66.66a1.12,1.12,0,0,0,.85-.44V31.25h.45v2.9Z" fill="#5e5e5e"/><path d="M236.12,34.88l.23-.32a1.13,1.13,0,0,0,.94.39.83.83,0,0,0,.94-.85v-.43a1.24,1.24,0,0,1-1,.51,1.32,1.32,0,0,1-1.29-1.5,1.32,1.32,0,0,1,1.29-1.5,1.2,1.2,0,0,1,1,.51v-.44h.45V34.1c0,.92-.68,1.22-1.39,1.22A1.46,1.46,0,0,1,236.12,34.88Zm2.11-1.57V32a1.11,1.11,0,0,0-.86-.46c-.59,0-.94.46-.94,1.1s.35,1.1.94,1.1A1.09,1.09,0,0,0,238.23,33.31Z" fill="#5e5e5e"/><path d="M239.41,32.7a1.45,1.45,0,0,1,1.43-1.52,1.41,1.41,0,0,1,1.39,1.55v.12h-2.34a1,1,0,0,0,1,1,1.26,1.26,0,0,0,.9-.38l.21.3a1.58,1.58,0,0,1-1.15.45A1.44,1.44,0,0,1,239.41,32.7Zm1.42-1.15a1,1,0,0,0-.94,1h1.9A.94.94,0,0,0,240.83,31.55Z" fill="#5e5e5e"/><path d="M242.79,32.7a1.45,1.45,0,0,1,1.43-1.52,1.41,1.41,0,0,1,1.39,1.55v.12h-2.34a1,1,0,0,0,1,1,1.29,1.29,0,0,0,.9-.38l.21.3a1.58,1.58,0,0,1-1.15.45A1.44,1.44,0,0,1,242.79,32.7Zm1.42-1.15a1,1,0,0,0-1,1h1.9A.93.93,0,0,0,244.21,31.55Z" fill="#5e5e5e"/><path d="M246.09,33.76l.23-.32a1.32,1.32,0,0,0,1,.41c.44,0,.69-.21.69-.5,0-.7-1.79-.27-1.79-1.34,0-.45.38-.83,1.07-.83a1.4,1.4,0,0,1,1.07.42l-.2.31a1.14,1.14,0,0,0-.87-.37c-.39,0-.64.2-.64.46,0,.63,1.79.22,1.79,1.34,0,.49-.39.88-1.13.88A1.54,1.54,0,0,1,246.09,33.76Z" fill="#5e5e5e"/><line x1="316.11" y1="119.44" x2="217.08" y2="119.44" fill="none" stroke="#000" stroke-miterlimit="10" stroke-width="0.5"/><line x1="316.11" y1="106.21" x2="217.08" y2="106.21" fill="none" stroke="#d0d2d3" stroke-linecap="round" stroke-linejoin="round" stroke-width="0.25"/><line x1="316.11" y1="92.98" x2="217.08" y2="92.98" fill="none" stroke="#d0d2d3" stroke-linecap="round" stroke-linejoin="round" stroke-width="0.25"/><line x1="316.11" y1="79.76" x2="217.08" y2="79.76" fill="none" stroke="#d0d2d3" stroke-linecap="round" stroke-linejoin="round" stroke-width="0.25"/><line x1="316.11" y1="66.53" x2="217.08" y2="66.53" fill="none" stroke="#d0d2d3" stroke-linecap="round" stroke-linejoin="round" stroke-width="0.25"/><line x1="316.11" y1="53.31" x2="217.08" y2="53.31" fill="none" stroke="#d0d2d3" stroke-linecap="round" stroke-linejoin="round" stroke-width="0.25"/><line x1="316.11" y1="40.08" x2="217.08" y2="40.08" fill="none" stroke="#d0d2d3" stroke-linecap="round" stroke-linejoin="round" stroke-width="0.25"/><rect x="220.08" y="124.24" width="10.03" height="3.15" fill="#bbbdbf"/><rect x="252.93" y="124.24" width="10.03" height="3.15" fill="#bbbdbf"/><rect x="236.5" y="124.24" width="10.03" height="3.15" fill="#bbbdbf"/><rect x="285.78" y="124.24" width="10.03" height="3.15" fill="#bbbdbf"/><rect x="269.36" y="124.24" width="10.03" height="3.15" fill="#bbbdbf"/><rect x="302.21" y="124.24" width="10.03" height="3.15" fill="#bbbdbf"/><path d="M211.27,119.1c0-.93.41-2,1.45-2s1.46,1,1.46,2-.41,2-1.46,2S211.27,120,211.27,119.1Zm2.43,0c0-.76-.25-1.54-1-1.54s-1,.78-1,1.54.25,1.55,1,1.55S213.7,119.87,213.7,119.1Z" fill="#5e5e5e"/><path d="M209.67,108v-1h-1.82v-.39l1.64-2.46h.65v2.43h.54V107h-.54v1Zm0-3.38-1.34,2h1.34Z" fill="#5e5e5e"/><path d="M211.27,106.1c0-.93.41-2,1.45-2s1.46,1,1.46,2-.41,2-1.46,2S211.27,107,211.27,106.1Zm2.43,0c0-.76-.25-1.54-1-1.54s-1,.78-1,1.54.25,1.55,1,1.55S213.7,106.87,213.7,106.1Z" fill="#5e5e5e"/><path d="M207.83,94a1.12,1.12,0,0,1,.91-1,1,1,0,0,1-.85-.91c0-.69.67-1,1.31-1s1.31.3,1.31,1a1,1,0,0,1-.85.91,1.13,1.13,0,0,1,.91,1c0,.65-.62,1-1.37,1S207.83,94.7,207.83,94Zm2.25-.05c0-.5-.65-.71-.88-.74s-.89.24-.89.74.41.66.89.66S210.08,94.4,210.08,94Zm-.05-1.8c0-.4-.37-.63-.83-.63s-.83.23-.83.63.6.62.83.66S210,92.65,210,92.19Z" fill="#5e5e5e"/><path d="M211.27,93.1c0-.93.41-2,1.45-2s1.46,1,1.46,2-.41,2-1.46,2S211.27,94,211.27,93.1Zm2.43,0c0-.76-.25-1.54-1-1.54s-1,.78-1,1.54.25,1.55,1,1.55S213.7,93.87,213.7,93.1Z" fill="#5e5e5e"/><path d="M206.46,82V78.82l-.61.65-.28-.29,1-1h.42V82Z" fill="#5e5e5e"/><path d="M207.81,82v-.38c1.37-1.08,2.12-1.71,2.12-2.37a.71.71,0,0,0-.8-.7,1.28,1.28,0,0,0-1,.48l-.29-.3a1.63,1.63,0,0,1,1.33-.6,1.16,1.16,0,0,1,1.28,1.12c0,.78-.79,1.49-1.85,2.33h1.87V82Z" fill="#5e5e5e"/><path d="M211.27,80.1c0-.93.41-2,1.45-2s1.46,1,1.46,2-.41,2-1.46,2S211.27,81,211.27,80.1Zm2.43,0c0-.76-.25-1.54-1-1.54s-1,.78-1,1.54.25,1.55,1,1.55S213.7,80.87,213.7,80.1Z" fill="#5e5e5e"/><path d="M206.45,68V64.82l-.62.65-.28-.29.95-1h.42V68Z" fill="#5e5e5e"/><path d="M207.77,66.1c0-1,.48-2,1.56-2a1.3,1.3,0,0,1,1,.45l-.24.36a1,1,0,0,0-.81-.39c-.74,0-1.08.75-1.08,1.5v.15a1.36,1.36,0,0,1,1.08-.6,1.16,1.16,0,0,1,1.25,1.22,1.25,1.25,0,0,1-1.33,1.25C208.18,68.08,207.77,67.15,207.77,66.1Zm2.33.75a.79.79,0,0,0-.87-.83,1.18,1.18,0,0,0-1,.57c0,.48.29,1.06,1,1.06A.82.82,0,0,0,210.1,66.85Z" fill="#5e5e5e"/><path d="M211.27,66.1c0-.93.41-2,1.45-2s1.46,1,1.46,2-.41,2-1.46,2S211.27,67,211.27,66.1Zm2.43,0c0-.76-.25-1.54-1-1.54s-1,.78-1,1.54.25,1.55,1,1.55S213.7,66.87,213.7,66.1Z" fill="#5e5e5e"/><path d="M204.19,55v-.38c1.38-1.08,2.13-1.71,2.13-2.37a.72.72,0,0,0-.8-.7,1.27,1.27,0,0,0-1,.48l-.29-.3a1.63,1.63,0,0,1,1.33-.6,1.16,1.16,0,0,1,1.28,1.12c0,.78-.79,1.49-1.86,2.33h1.88V55Z" fill="#5e5e5e"/><path d="M207.65,53.1c0-.93.41-2,1.46-2s1.46,1,1.46,2-.42,2-1.46,2S207.65,54,207.65,53.1Zm2.43,0c0-.76-.24-1.54-1-1.54s-1,.78-1,1.54.25,1.55,1,1.55S210.08,53.87,210.08,53.1Z" fill="#5e5e5e"/><path d="M211.27,53.1c0-.93.41-2,1.45-2s1.46,1,1.46,2-.41,2-1.46,2S211.27,54,211.27,53.1Zm2.43,0c0-.76-.25-1.54-1-1.54s-1,.78-1,1.54.25,1.55,1,1.55S213.7,53.87,213.7,53.1Z" fill="#5e5e5e"/><path d="M204.5,42v-.38c1.38-1.08,2.13-1.71,2.13-2.37a.72.72,0,0,0-.8-.7,1.27,1.27,0,0,0-1,.48l-.29-.3a1.63,1.63,0,0,1,1.33-.6,1.16,1.16,0,0,1,1.28,1.12c0,.78-.79,1.49-1.86,2.33h1.87V42Z" fill="#5e5e5e"/><path d="M209.67,42V41h-1.82v-.39l1.64-2.46h.65v2.43h.54V41h-.54v1Zm0-3.38-1.34,2h1.34Z" fill="#5e5e5e"/><path d="M211.27,40.1c0-.93.41-2,1.45-2s1.46,1,1.46,2-.41,2-1.46,2S211.27,41,211.27,40.1Zm2.43,0c0-.76-.25-1.54-1-1.54s-1,.78-1,1.54.25,1.55,1,1.55S213.7,40.87,213.7,40.1Z" fill="#5e5e5e"/><polyline points="225.09 90.61 241.52 82.1 257.94 75.05 274.37 61.77 290.8 58.75 307.23 55.75" fill="none" stroke="#00b398" stroke-linecap="round" stroke-linejoin="round"/><polyline points="225.09 110.61 241.52 108.1 257.94 98.05 274.37 83.77 290.8 75.75 307.23 73.75" fill="none" stroke="#0072bc" stroke-linecap="round" stroke-linejoin="round"/><line x1="205.11" y1="32" x2="221.11" y2="32" fill="none" stroke="#0072bc" stroke-linecap="round" stroke-linejoin="round"/><line x1="256.61" y1="32.5" x2="272.61" y2="32.5" fill="none" stroke="#00b398" stroke-linecap="round" stroke-linejoin="round"/></svg>