<svg xmlns="http://www.w3.org/2000/svg" width="350" height="148" viewBox="0 0 350 148"><rect width="350" height="148" fill="#f1f2f2"/><path d="M31.92,21.87V14.54h2.5a3.56,3.56,0,0,1,3.76,3.67,3.54,3.54,0,0,1-3.76,3.66Zm5.32-3.66a2.69,2.69,0,0,0-2.82-2.86H32.83v5.71h1.59A2.7,2.7,0,0,0,37.24,18.21Z" fill="#0072bc"/><path d="M39.26,19.21a2.63,2.63,0,1,1,5.26,0,2.63,2.63,0,1,1-5.26,0Zm4.39,0a1.78,1.78,0,1,0-3.52,0,1.78,1.78,0,1,0,3.52,0Z" fill="#0072bc"/><circle cx="17.55" cy="17.55" r="7.55" fill="#9dc5ff"/><circle cx="17.55" cy="17.55" r="4.8" fill="#0072bc"/><polyline points="14.8 17.55 16.63 19.38 20.29 15.72" fill="none" stroke="#fff" stroke-linecap="round" stroke-linejoin="round" stroke-width="0.75"/><path d="M201.92,21.87V14.54h2.5a3.56,3.56,0,0,1,3.76,3.67,3.54,3.54,0,0,1-3.76,3.66Zm5.32-3.66a2.69,2.69,0,0,0-2.82-2.86h-1.59v5.71h1.59A2.7,2.7,0,0,0,207.24,18.21Z" fill="#ef4a60"/><path d="M209.26,19.21a2.63,2.63,0,1,1,5.26,0,2.63,2.63,0,1,1-5.26,0Zm4.39,0a1.78,1.78,0,1,0-3.52,0,1.78,1.78,0,1,0,3.52,0Z" fill="#ef4a60"/><path d="M219.44,21.87V18.4c0-.95-.48-1.23-1.19-1.23a2.06,2.06,0,0,0-1.57.82v3.88h-.83V16.56h.83v.77a2.58,2.58,0,0,1,1.9-.9,1.5,1.5,0,0,1,1.68,1.71v3.73Z" fill="#ef4a60"/><path d="M222.07,16.93l-.42-.35a1.65,1.65,0,0,0,.71-1l-.15,0a.53.53,0,0,1-.53-.56.6.6,0,0,1,.58-.59c.38,0,.7.3.7.84A2.14,2.14,0,0,1,222.07,16.93Z" fill="#ef4a60"/><path d="M224.54,20.76V17.29h-.88v-.73h.88V15.11h.83v1.45h1.08v.73h-1.08v3.29c0,.4.18.68.53.68a.75.75,0,0,0,.56-.23l.24.63a1.32,1.32,0,0,1-1,.34A1.08,1.08,0,0,1,224.54,20.76Z" fill="#ef4a60"/><circle cx="187.55" cy="17.55" r="7.55" fill="#ffbcc1"/><circle cx="187.55" cy="17.55" r="4.8" fill="#ef4a60"/><line x1="189.55" y1="15.55" x2="185.55" y2="19.55" fill="none" stroke="#fff" stroke-linecap="round" stroke-linejoin="round" stroke-width="0.75"/><line x1="189.55" y1="19.55" x2="185.55" y2="15.55" fill="none" stroke="#fff" stroke-linecap="round" stroke-linejoin="round" stroke-width="0.75"/><line x1="28.71" y1="38" x2="28.71" y2="114" fill="none" stroke="#d0d2d3" stroke-miterlimit="10" stroke-width="0.25"/><line x1="69.38" y1="38" x2="69.38" y2="114" fill="none" stroke="#d0d2d3" stroke-miterlimit="10" stroke-width="0.25"/><line x1="110.05" y1="38" x2="110.05" y2="114" fill="none" stroke="#d0d2d3" stroke-miterlimit="10" stroke-width="0.25"/><line x1="150.71" y1="38" x2="150.71" y2="114" fill="none" stroke="#d0d2d3" stroke-miterlimit="10" stroke-width="0.25"/><path d="M150.7,75.7h-122s0,13.47,0,14.86c3.54,1.22,6.91,2.85,10.42,4.12a56.21,56.21,0,0,1,8.65,3.62,9.15,9.15,0,0,0,5.59,1.52c2.55-.36,4.74-2.49,6.84-3.77,4.53-2.76,10.47-7.43,16.23-5.86,2.78.75,4.86,2.89,7.31,4.34,7.68,4.53,18.38,2,26,6.65,2.41,1.48,4.3,3.59,6.44,5.39,2.73,2.3,6.8,4.53,10.48,2.83,3.29-1.51,4.28-5.37,5.92-8.46,1.52-2.88,5.42-7,18.15-14.57Z" fill="#919191"/><path d="M150.7,75.7h-122v5.87c0,.31,7.55,2.51,8.27,2.83a52.62,52.62,0,0,1,8.94,5.68c2.43,1.74,4.83,4.26,8.15,3.72a17,17,0,0,0,5.52-2.37c5.35-3,11.51-5.65,17.64-4.55,3.39.61,6.65,2.33,10.07,1.94,2.09-.24,4.15-1.27,6.2-.8,1.89.44,3.2,2,4.91,2.94,3.44,1.82,7.84.51,11.61,1.6,5,1.42,8.29,6.77,13.47,6.93,4.09.13,7.38-3.1,9.61-6.35,2.4-3.5,13.23-4.76,17.59-8.66Z" fill="#9dc5ff"/><path d="M150.71,75.7h-122c-.05,0,0-12.92,0-14.86,0-.22,10.81-.94,11.59-1.05a39.05,39.05,0,0,0,7.93-1.7c2.25-.8,3.19-1.84,4.64-3.66,2.7-3.35,6.08.58,8.23,2.46s4,3.56,6.61,4.39c8.18,2.61,15.62-2.66,22-6.7,4.83-3,6.66.19,15.25-2.17s11.4-11,15.25-11c4.51,0,10.07,6.78,12.54,9.76,5.06,6.14,11.13,10.25,18,14.41Z" fill="#18375f"/><path d="M135,64.61a14.66,14.66,0,0,1-2.61-1.49,27.68,27.68,0,0,1-4.5-4.68c-1.2-1.4-2.45-2.75-3.77-4-4.62-4.55-7.94,6.72-9.18,9.45-1.63,3.61-4.52,11.13-10,10.27-10-1.58-10.31-5.26-15.25-3.07-4.26,1.89-7,3-11.81,3.36-5,.4-10.4.34-14.8-2.27-2.77-1.64-5.23-4.27-8.49-4.28a11.39,11.39,0,0,0-3.11.58C44,70.56,36.45,72.65,28.73,74.18c0,0,0,1.52,0,1.52v1.52s10.16-2.3,15.25,2.2,8.87,6.85,15.25,2.49a26.77,26.77,0,0,1,11.49-5,11.38,11.38,0,0,1,7.9,1.52A33,33,0,0,0,81.91,81c3,1.54,6.65.27,9.55-1.38s5.77-3.73,9.15-3.82c4.11-.11,7.58,2.74,10.48,5.49s6.11,5.77,10.2,6.11c4.64.39,8.76-2.82,11.57-6.34s4.81-4.74,9.5-4.64a43.31,43.31,0,0,1,8.34,1s0-1.68,0-1.68V69.36c0-.12-5.9-1.77-6.47-2C141.2,66.43,137.9,65.91,135,64.61Z" fill="#0072bc"/><rect x="23.99" y="117.27" width="10.03" height="3.15" fill="#bbbdbf"/><rect x="63.99" y="117.27" width="10.03" height="3.15" fill="#bbbdbf"/><rect x="104.99" y="117.27" width="10.03" height="3.15" fill="#bbbdbf"/><rect x="145.99" y="117.27" width="10.03" height="3.15" fill="#bbbdbf"/><line x1="198.71" y1="38" x2="198.71" y2="114" fill="none" stroke="#d0d2d3" stroke-miterlimit="10" stroke-width="0.25"/><line x1="239.38" y1="38" x2="239.38" y2="114" fill="none" stroke="#d0d2d3" stroke-miterlimit="10" stroke-width="0.25"/><line x1="280.05" y1="38" x2="280.05" y2="114" fill="none" stroke="#d0d2d3" stroke-miterlimit="10" stroke-width="0.25"/><line x1="320.71" y1="38" x2="320.71" y2="114" fill="none" stroke="#d0d2d3" stroke-miterlimit="10" stroke-width="0.25"/><path d="M320.7,75.7h-122s0,13.47,0,14.86c3.54,1.22,6.91,2.85,10.42,4.12a56.21,56.21,0,0,1,8.65,3.62,9.15,9.15,0,0,0,5.59,1.52c2.55-.36,4.74-2.49,6.84-3.77,4.53-2.76,10.47-7.43,16.23-5.86,2.78.75,4.86,2.89,7.31,4.34,7.68,4.53,18.38,2,26,6.65,2.41,1.48,4.3,3.59,6.44,5.39,2.73,2.3,6.8,4.53,10.48,2.83,3.29-1.51,4.28-5.37,5.92-8.46,1.52-2.88,5.42-7,18.15-14.57Z" fill="#cffff2"/><path d="M320.7,75.7h-122v5.87c0,.31,7.55,2.51,8.27,2.83a52.62,52.62,0,0,1,8.94,5.68c2.43,1.74,4.83,4.26,8.15,3.72a17,17,0,0,0,5.52-2.37c5.35-3,11.51-5.65,17.64-4.55,3.39.61,6.65,2.33,10.07,1.94,2.09-.24,4.15-1.27,6.2-.8,1.89.44,3.2,2,4.91,2.94,3.44,1.82,7.84.51,11.61,1.6,5,1.42,8.29,6.77,13.47,6.93,4.09.13,7.38-3.1,9.61-6.35,2.4-3.5,13.23-4.76,17.59-8.66Z" fill="#70ecd1"/><path d="M320.71,75.7h-122c-.05,0,0-12.92,0-14.86,0-.22,10.81-.94,11.59-1.05a39.05,39.05,0,0,0,7.93-1.7c2.25-.8,3.19-1.84,4.64-3.66,2.7-3.35,6.08.58,8.23,2.46,2,1.75,4,3.56,6.61,4.39,8.18,2.61,15.62-2.66,22-6.7,4.83-3,6.66.19,15.25-2.17s11.4-11,15.25-11c4.51,0,10.07,6.78,12.54,9.76,5.06,6.14,11.13,10.25,17.95,14.41Z" fill="#00b398"/><path d="M305,64.61a14.66,14.66,0,0,1-2.61-1.49,27.68,27.68,0,0,1-4.5-4.68c-1.2-1.4-2.45-2.75-3.77-4-4.62-4.55-7.94,6.72-9.18,9.45-1.63,3.61-4.52,11.13-10,10.27-10-1.58-10.31-5.26-15.25-3.07-4.26,1.89-7,3-11.81,3.36-5,.4-10.4.34-14.8-2.27-2.77-1.64-5.23-4.27-8.49-4.28a11.39,11.39,0,0,0-3.11.58c-7.55,2.13-15.06,4.22-22.78,5.75,0,0,0,1.52,0,1.52v1.52s10.16-2.3,15.25,2.2,8.87,6.85,15.25,2.49a26.77,26.77,0,0,1,11.49-5,11.38,11.38,0,0,1,7.9,1.52,33,33,0,0,0,3.3,2.47c3,1.54,6.65.27,9.55-1.38s5.77-3.73,9.15-3.82c4.11-.11,7.58,2.74,10.48,5.49s6.11,5.77,10.2,6.11c4.64.39,8.76-2.82,11.57-6.34s4.81-4.74,9.5-4.64a43.31,43.31,0,0,1,8.34,1s0-1.68,0-1.68V69.36c0-.12-5.9-1.77-6.47-2C311.2,66.43,307.9,65.91,305,64.61Z" fill="#49cfb4"/><rect x="193.99" y="117.27" width="10.03" height="3.15" fill="#bbbdbf"/><rect x="233.99" y="117.27" width="10.03" height="3.15" fill="#bbbdbf"/><rect x="274.99" y="117.27" width="10.03" height="3.15" fill="#bbbdbf"/><rect x="315.99" y="117.27" width="10.03" height="3.15" fill="#bbbdbf"/></svg>