<svg xmlns="http://www.w3.org/2000/svg" width="10cm" height="10cm" viewBox="0 0 283.46 283.46"><rect x="0.5" y="0.5" width="282.47" height="282.47" fill="#fff"/><rect width="283.46" height="283.46" fill="#fff"/><path d="M283.46,283.46H0V0H283.46ZM1,282.47H282.47V1H1Z" fill="#506589"/><path d="M255.1,141.73H28.35v43.72l28.34,9.22s19.2,7.49,28.35,7.49,19.48-19.35,28.34-19.35,18.62,21,28.35,21,18.89,6.39,28.34,6.39,14.53,32.31,28.34,32.31,21.68-38.7,28.35-38.7,28.34-17.89,28.34-17.89Z" fill="#8496b9"/><path d="M255.1,141.73H28.35v39.16s10.18,7.39,28.34,7.39,18.16,7.49,28.35,7.49,19.27-18.44,28.34-18.44,17.28-2.44,28.35,3.65a55.67,55.67,0,0,0,28.34,7.3c8.08,0,14.11,13.15,28.34,13.15s12.33-18.62,28.35-18.62A58,58,0,0,0,255.1,175Z" fill="#506589"/><path d="M255.1,141.73H28.35v28.21l28.34,2.83s10.47,1.09,28.35,1.09,18.38-18.44,28.34-18.44,12.91,20.08,28.35,20.08,13.2-10,28.34-10,3.73,14.06,28.34,14.06S207.2,181,226.76,181s28.34-10.59,28.34-10.59Z" fill="#8496b9"/><path d="M255.1,141.73H28.35V159s20.69-6.64,28.34,1S70.28,173,85,173s19.69-22.09,28.34-22.09,17.64,19.08,28.35,12.78,13.54,4.11,28.34.91,16.19,7.67,28.34,7.67,21.1.15,28.35-6.76,28.34-7.85,28.34-7.85Z" fill="#506589"/><path d="M255.12,141.73H28.36V98S50.7,94.8,56.71,88.79s11.93-7.48,28.34-7.48,20.33,19.35,28.34,19.35,19.37-12,28.35-21,12.38.57,28.34-6.38S191.28,41,198.43,41s26.26,31.68,28.34,38.7,28.35,17.89,28.35,17.89Z" fill="#8496b9"/><path d="M255.12,141.73H28.36V102.57s18.89-10.74,28.35-7.39,19-16.85,28.34-7.48,19.91,17.16,28.34,18.43,20.62,1.34,28.35-3.65,20.28-.68,28.34-7.3S189,81.13,198.43,82s19.19,17.83,28.34,18.62,28.35,7.85,28.35,7.85Z" fill="#8496b9"/><path d="M255.12,141.73H28.36v-28.2S43.51,104,56.71,110.7s11.81-4.33,28.34-1.1S100.94,128,113.39,128,126.53,110.5,141.74,108s14.67,10.39,28.34,10,19.12-6.78,28.35-14.06,20.41-4.42,28.34-1.46l28.35,10.59Z" fill="#506589"/><path d="M255.12,141.73H28.36V124.48s11.23-1,28.35-1,20.54-11.87,28.34-13,17.77,21,28.34,22.08,15.2-19.63,28.35-12.77,11.34-.92,28.34-.92,15.92-5.08,28.35-7.66,16-6.91,28.34,6.75,28.35,7.85,28.35,7.85Z" fill="#8496b9"/><path d="M226.77,125.3c-26.81-14.59-9.46,4.57-28.34,4.57s-9.68,11.86-28.35,7.21-19.16-15.48-28.34-9-6.61,10-28.35,10S95,132.59,85.05,123.48s-9-.71-28.34,7.3-28.35,6.48-28.35,6.48v4.47h0v4.47s18.88-6.77,28.34,6.49S73.19,172.81,85,160s16.78-14.61,28.34-14.61,11.46,23.73,28.35,10,16.79.12,28.34-9,12.24,7.21,28.34,7.21,21.89,22,28.35,4.56,28.34-11.5,28.34-11.5v-4.93h0V136.8S253.59,139.89,226.77,125.3Z" fill="#506589"/></svg>