<?xml version="1.0" encoding="UTF-8"?>
<svg xmlns="http://www.w3.org/2000/svg" xmlns:xlink="http://www.w3.org/1999/xlink" viewBox="0 0 720 130">
  <defs>
    <clipPath id="clippath">
      <rect x="546" y="33.67" width="164" height="50" style="fill: none; stroke-width: 0px;"/>
    </clipPath>
    <clipPath id="clippath-1">
      <rect x="10" y="33.67" width="535.7" height="50" style="fill: none; stroke-width: 0px;"/>
    </clipPath>
  </defs>
  <g id="_720" data-name="720">
    <g>
      <path d="m23.1,13.32v1.28c0,.38-.04.69-.12.93-.08.24-.16.43-.24.59l-6.58,13.54c-.14.28-.33.52-.58.71-.25.2-.58.29-1,.29h-2.15l6.71-13.26c.15-.27.3-.52.45-.75.15-.23.31-.45.5-.65h-8.3c-.18,0-.34-.07-.48-.2-.14-.14-.2-.3-.2-.48v-2h11.99Z" style="fill: #0072bc; stroke-width: 0px;"/>
      <path d="m30.18,19.62l-.6.74c.34-.17.7-.3,1.09-.39.39-.09.81-.14,1.25-.14.66,0,1.29.11,1.91.32.62.22,1.17.54,1.64.98.47.44.85.98,1.14,1.63.29.65.43,1.4.43,2.27,0,.81-.15,1.57-.44,2.27s-.71,1.33-1.25,1.85c-.54.53-1.18.94-1.94,1.25-.76.3-1.59.46-2.5.46s-1.76-.15-2.5-.44c-.74-.3-1.36-.71-1.88-1.24-.52-.53-.92-1.17-1.19-1.92s-.41-1.58-.41-2.49c0-.82.17-1.65.5-2.51s.85-1.75,1.54-2.68l4.14-5.56c.14-.19.35-.36.63-.49.28-.14.59-.2.95-.2h2.64l-5.15,6.3Zm.67,8.82c.47,0,.91-.08,1.3-.24.4-.16.74-.38,1.02-.67s.51-.63.67-1.01c.16-.39.24-.81.24-1.27,0-.5-.08-.94-.23-1.34-.15-.4-.37-.73-.65-1.01-.28-.28-.62-.49-1.01-.63-.39-.14-.82-.22-1.3-.22s-.9.08-1.28.24c-.38.16-.71.38-.98.67-.27.28-.48.62-.64,1.01-.15.39-.23.81-.23,1.25,0,.48.07.92.2,1.31s.33.73.59,1.01c.26.28.58.5.97.65.38.16.83.23,1.33.23Z" style="fill: #0072bc; stroke-width: 0px;"/>
      <path d="m46.78,17.52c0,.66-.11,1.25-.33,1.78-.22.53-.51.98-.88,1.35-.37.37-.8.66-1.28.86-.49.2-1,.3-1.52.3-.58,0-1.11-.1-1.6-.3-.49-.2-.91-.49-1.27-.86-.36-.37-.63-.82-.83-1.35-.2-.53-.3-1.12-.3-1.78s.1-1.28.3-1.82c.2-.54.48-1,.83-1.38.36-.38.78-.67,1.27-.87s1.02-.31,1.6-.31,1.11.1,1.6.31.92.49,1.28.87c.36.38.64.84.84,1.38.2.54.3,1.15.3,1.82Zm5.77-3.73c.1-.12.23-.23.37-.32s.34-.14.59-.14h2.16l-12.89,16.91c-.1.13-.23.23-.37.32s-.32.13-.53.13h-2.21l12.88-16.88Zm-8.05,3.73c0-.46-.05-.85-.14-1.16s-.22-.56-.37-.76c-.16-.19-.34-.33-.55-.41-.21-.08-.44-.13-.68-.13s-.46.04-.67.13-.39.22-.53.41c-.15.19-.27.44-.35.76s-.13.7-.13,1.16.04.82.13,1.12c.09.3.21.54.35.73.15.18.33.32.53.4.21.08.43.12.67.12s.47-.04.68-.12c.21-.08.4-.21.55-.4.16-.18.28-.43.37-.73.09-.3.14-.67.14-1.12Zm12.08,9.07c0,.66-.11,1.25-.33,1.78-.22.53-.51.98-.88,1.35s-.8.66-1.28.86c-.49.2-1,.31-1.52.31-.58,0-1.11-.1-1.6-.31-.49-.2-.91-.49-1.27-.86-.36-.37-.63-.82-.83-1.35-.2-.53-.3-1.12-.3-1.78s.1-1.28.3-1.82.48-1,.83-1.38c.36-.38.78-.67,1.27-.87.49-.2,1.02-.31,1.6-.31s1.11.1,1.6.31c.49.2.92.49,1.27.87.36.38.64.84.84,1.38s.31,1.15.31,1.82Zm-2.29,0c0-.46-.04-.85-.13-1.16s-.21-.56-.37-.76-.34-.33-.55-.41-.44-.13-.68-.13-.46.04-.67.13-.39.22-.54.41c-.15.19-.27.44-.35.76s-.13.7-.13,1.16.04.82.13,1.13c.08.3.2.55.35.73.15.18.33.32.54.4.21.08.43.12.67.12s.47-.04.68-.12c.21-.08.4-.21.55-.4.16-.18.28-.43.37-.73.09-.3.13-.68.13-1.13Z" style="fill: #0072bc; stroke-width: 0px;"/>
      <path d="m64.08,24.2c.26-.55.57-.99.94-1.3.37-.31.83-.47,1.37-.47.17,0,.33.02.49.06.16.04.3.1.42.18l-.1,1.06c-.03.13-.11.2-.24.2-.08,0-.18-.02-.33-.05-.14-.03-.31-.05-.49-.05-.26,0-.48.04-.68.11s-.38.19-.54.33c-.16.15-.3.33-.42.54-.13.22-.24.46-.34.74v5.12h-1.43v-8.1h.82c.15,0,.26.03.32.09.06.06.1.16.12.3l.1,1.23Z" style="fill: #222; stroke-width: 0px;"/>
      <path d="m74.8,29.54c-.18.21-.39.4-.63.56s-.51.29-.79.39c-.28.1-.57.18-.87.23-.3.05-.59.08-.89.08-.56,0-1.08-.09-1.55-.28-.47-.19-.88-.47-1.22-.83-.34-.37-.61-.82-.8-1.36s-.29-1.16-.29-1.86c0-.57.09-1.09.26-1.58.17-.49.42-.92.75-1.28.33-.36.72-.64,1.19-.85.47-.21,1-.31,1.58-.31.49,0,.93.08,1.35.24.41.16.77.4,1.07.7.3.31.54.69.71,1.14s.26.96.26,1.54c0,.22-.02.37-.07.45-.05.07-.14.11-.27.11h-5.42c.02.51.09.96.21,1.34s.3.69.52.95c.22.25.49.44.8.57.31.12.66.19,1.04.19.36,0,.67-.04.92-.12.26-.08.48-.17.67-.27.19-.1.34-.19.47-.27s.23-.12.32-.12c.12,0,.21.05.27.14l.4.52Zm-1.15-3.8c0-.33-.05-.63-.14-.91-.09-.27-.23-.51-.41-.71-.18-.2-.4-.35-.65-.46s-.55-.16-.87-.16c-.68,0-1.22.2-1.62.6s-.64.95-.74,1.65h4.43Z" style="fill: #222; stroke-width: 0px;"/>
      <path d="m77.12,30.68v-6.89l-.9-.1c-.11-.03-.2-.07-.28-.12-.07-.06-.11-.14-.11-.24v-.58h1.28v-.78c0-.46.07-.88.2-1.24.13-.36.32-.66.56-.91.24-.25.54-.44.88-.56.34-.13.73-.19,1.15-.19.36,0,.7.05,1,.16l-.03.71c-.01.13-.08.2-.21.21s-.31.02-.52.02c-.25,0-.47.03-.67.1-.2.06-.37.17-.52.31s-.25.33-.33.57c-.08.23-.12.53-.12.87v.74h2.34v1.03h-2.29v6.91h-1.43Z" style="fill: #222; stroke-width: 0px;"/>
      <path d="m88.87,22.57v8.1h-.85c-.2,0-.33-.1-.38-.3l-.11-.87c-.35.39-.75.7-1.18.94s-.94.36-1.5.36c-.44,0-.83-.07-1.17-.22-.34-.15-.62-.35-.85-.62-.23-.27-.4-.59-.52-.97-.11-.38-.17-.8-.17-1.26v-5.17h1.42v5.17c0,.61.14,1.09.42,1.42.28.34.71.5,1.28.5.42,0,.81-.1,1.18-.3.37-.2.7-.48,1.01-.83v-5.97h1.42Z" style="fill: #222; stroke-width: 0px;"/>
      <path d="m97.96,22.89v.53c0,.18-.11.29-.34.34l-.92.12c.18.35.27.74.27,1.17,0,.39-.08.75-.23,1.08-.15.32-.36.6-.63.83-.27.23-.59.41-.96.53-.37.12-.78.18-1.22.18-.38,0-.74-.04-1.07-.14-.17.11-.3.22-.39.34-.09.12-.14.24-.14.36,0,.19.08.34.24.44.16.1.36.17.62.21.26.04.55.07.88.08.33.01.66.03,1.01.05s.68.07,1.01.12.62.15.88.29.46.32.62.55c.16.23.24.54.24.91,0,.35-.09.68-.26,1.01-.17.33-.42.61-.75.87-.33.25-.72.46-1.2.61-.47.15-1,.23-1.6.23s-1.11-.06-1.55-.18c-.44-.12-.81-.27-1.1-.47-.29-.2-.51-.43-.66-.68s-.22-.53-.22-.81c0-.4.12-.74.38-1.02.25-.28.59-.5,1.03-.66-.24-.11-.43-.25-.57-.43-.14-.18-.21-.42-.21-.72,0-.12.02-.24.06-.36s.11-.25.2-.38.2-.24.32-.36c.13-.11.28-.21.45-.3-.4-.22-.71-.52-.94-.89s-.34-.8-.34-1.29c0-.4.08-.75.23-1.08.15-.32.36-.6.64-.82.27-.23.6-.4.97-.52.38-.12.79-.18,1.24-.18.35,0,.68.04.98.12.3.08.58.19.83.34h2.2Zm-1.45,8.22c0-.2-.06-.36-.17-.48-.11-.12-.26-.22-.45-.29s-.41-.12-.66-.15c-.25-.03-.52-.05-.8-.07-.28-.02-.56-.03-.85-.05-.29-.02-.57-.04-.83-.08-.3.14-.54.31-.73.52-.19.21-.28.46-.28.74,0,.18.05.35.14.51.09.16.24.29.43.41.19.11.43.21.72.27.29.07.63.1,1.03.1s.73-.03,1.03-.1.56-.17.77-.3c.21-.13.37-.28.48-.46.11-.18.17-.37.17-.58Zm-2.57-4.4c.29,0,.54-.04.76-.12s.4-.19.55-.34.26-.32.34-.52c.08-.2.11-.42.11-.66,0-.5-.15-.89-.45-1.18-.3-.29-.74-.44-1.31-.44s-1.02.15-1.32.44c-.3.29-.45.69-.45,1.18,0,.24.04.46.12.66.08.2.19.37.34.52s.33.26.55.34.47.12.76.12Z" style="fill: #222; stroke-width: 0px;"/>
      <path d="m105.89,29.54c-.18.21-.39.4-.63.56s-.51.29-.79.39c-.28.1-.57.18-.87.23-.3.05-.59.08-.89.08-.56,0-1.08-.09-1.55-.28-.47-.19-.88-.47-1.22-.83-.34-.37-.61-.82-.8-1.36s-.29-1.16-.29-1.86c0-.57.09-1.09.26-1.58.17-.49.42-.92.75-1.28.33-.36.72-.64,1.19-.85.47-.21,1-.31,1.58-.31.49,0,.93.08,1.35.24.41.16.77.4,1.07.7.3.31.54.69.71,1.14s.26.96.26,1.54c0,.22-.02.37-.07.45-.05.07-.14.11-.27.11h-5.42c.02.51.09.96.21,1.34s.3.69.52.95c.22.25.49.44.8.57.31.12.66.19,1.04.19.36,0,.67-.04.92-.12.26-.08.48-.17.67-.27.19-.1.34-.19.47-.27s.23-.12.32-.12c.12,0,.21.05.27.14l.4.52Zm-1.15-3.8c0-.33-.05-.63-.14-.91-.09-.27-.23-.51-.41-.71-.18-.2-.4-.35-.65-.46s-.55-.16-.87-.16c-.68,0-1.22.2-1.62.6s-.64.95-.74,1.65h4.43Z" style="fill: #222; stroke-width: 0px;"/>
      <path d="m114.34,29.54c-.18.21-.39.4-.63.56-.25.16-.51.29-.79.39-.28.1-.57.18-.87.23-.3.05-.59.08-.89.08-.56,0-1.08-.09-1.55-.28-.47-.19-.88-.47-1.22-.83s-.61-.82-.8-1.36c-.19-.54-.29-1.16-.29-1.86,0-.57.09-1.09.26-1.58.17-.49.42-.92.75-1.28.33-.36.72-.64,1.19-.85.47-.21,1-.31,1.58-.31.48,0,.93.08,1.35.24s.77.4,1.07.7c.3.31.54.69.71,1.14.17.45.26.96.26,1.54,0,.22-.02.37-.07.45s-.14.11-.27.11h-5.42c.02.51.09.96.21,1.34.12.38.3.69.52.95.22.25.49.44.8.57.31.12.66.19,1.04.19.36,0,.67-.04.92-.12.26-.08.48-.17.67-.27.19-.1.34-.19.47-.27.12-.08.23-.12.32-.12.12,0,.21.05.27.14l.4.52Zm-1.15-3.8c0-.33-.05-.63-.14-.91-.09-.27-.23-.51-.41-.71-.18-.2-.4-.35-.65-.46s-.55-.16-.87-.16c-.68,0-1.22.2-1.62.6s-.64.95-.74,1.65h4.43Z" style="fill: #222; stroke-width: 0px;"/>
      <path d="m120.93,23.91c-.06.12-.16.18-.3.18-.08,0-.17-.03-.27-.09-.1-.06-.22-.12-.37-.2-.15-.07-.32-.14-.52-.2-.2-.06-.44-.09-.72-.09-.24,0-.46.03-.65.09-.19.06-.36.15-.49.25-.14.11-.24.23-.31.37-.07.14-.11.29-.11.46,0,.21.06.38.18.52.12.14.28.26.48.36.2.1.42.19.67.27.25.08.51.16.77.25.26.09.52.19.77.29.25.11.47.24.67.4.2.16.36.36.48.59s.18.51.18.84c0,.37-.07.72-.2,1.04-.13.32-.33.59-.59.82s-.58.42-.96.55c-.38.13-.82.2-1.31.2-.57,0-1.08-.09-1.54-.28-.46-.18-.85-.42-1.17-.71l.34-.54c.04-.07.09-.12.15-.16.06-.04.13-.06.22-.06.1,0,.2.04.3.11s.24.16.39.25c.15.09.34.17.56.25s.49.11.82.11c.28,0,.52-.04.73-.11.21-.07.38-.17.52-.29s.24-.26.31-.42c.07-.16.1-.33.1-.51,0-.22-.06-.41-.18-.56-.12-.15-.28-.27-.48-.38s-.42-.19-.68-.27c-.25-.08-.51-.16-.78-.24-.26-.08-.52-.18-.78-.29-.25-.11-.48-.25-.68-.41-.2-.17-.36-.37-.48-.61s-.18-.54-.18-.88c0-.31.06-.61.19-.89s.32-.54.56-.75c.25-.22.55-.39.9-.52.36-.13.76-.19,1.22-.19.53,0,1.01.08,1.44.25.42.17.79.4,1.1.69l-.32.52Z" style="fill: #222; stroke-width: 0px;"/>
    </g>
    <g id="Layer_3" data-name="Layer 3">
      <g style="clip-path: url(#clippath);">
        <g>
          <path d="m38.36,67.06s.05,0,.08,0c3.62,0,6.56-2.94,6.56-6.56s-2.94-6.56-6.56-6.56h-6.93c-.6,0-1.09.49-1.09,1.09s.49,1.09,1.09,1.09h6.93c2.41,0,4.37,1.96,4.37,4.37s-1.96,4.37-4.37,4.37c-.04,0-.08,0-.12.01-.03,0-.05,0-.08,0h-2.62l3.03-3.03c.43-.43.43-1.12,0-1.55-.21-.21-.49-.32-.77-.32s-.56.11-.77.32l-4.9,4.89c-.21.21-.32.48-.32.77s.12.57.32.77l4.9,4.9c.43.43,1.12.43,1.55,0,.43-.43.43-1.12,0-1.55l-3.03-3.03h2.62s.08,0,.12-.01Z" style="fill: #506489; stroke-width: 0px;"/>
          <path d="m31.73,46.48c-.5-1.53-2.15-2.36-3.68-1.86-1.53.5-2.36,2.15-1.86,3.68.5,1.53,2.15,2.36,3.68,1.86,1.53-.5,2.36-2.15,1.86-3.68Z" style="fill: #506489; stroke-width: 0px;"/>
          <path d="m25.12,61.61l2.87-5.68c.88-1.74.18-3.87-1.56-4.75l-1.86-.94c-.1-.05-.21-.09-.31-.11-4.96-2.18-10.84-.14-13.35,4.75-.38.74-.09,1.65.66,2.03.74.38,1.65.09,2.03-.66,1.44-2.82,4.47-4.29,7.44-3.92l-10.85,21.28c-.38.75-.08,1.67.66,2.05.22.11.46.17.69.17.55,0,1.09-.3,1.36-.83l6.59-12.93,3.26,1.65c3.52,1.92,4.88,6.32,3.03,9.89-.39.75-.1,1.66.65,2.05.37.19.79.22,1.16.1.37-.12.7-.38.89-.75,2.45-4.72.93-10.45-3.34-13.39Z" style="fill: #506489; stroke-width: 0px;"/>
        </g>
        <g>
          <path d="m703.36,67.06s.05,0,.08,0c3.62,0,6.56-2.94,6.56-6.56s-2.94-6.56-6.56-6.56h-6.93c-.6,0-1.09.49-1.09,1.09s.49,1.09,1.09,1.09h6.93c2.41,0,4.37,1.96,4.37,4.37s-1.96,4.37-4.37,4.37c-.04,0-.08,0-.12.01-.03,0-.05,0-.08,0h-2.62l3.03-3.03c.43-.43.43-1.12,0-1.55-.21-.21-.49-.32-.77-.32s-.56.11-.77.32l-4.9,4.89c-.21.21-.32.48-.32.77s.12.57.32.77l4.9,4.9c.43.43,1.12.43,1.55,0,.43-.43.43-1.12,0-1.55l-3.03-3.03h2.62s.08,0,.12-.01Z" style="fill: #506489; stroke-width: 0px;"/>
          <path d="m696.73,46.48c-.5-1.53-2.15-2.36-3.68-1.86-1.53.5-2.36,2.15-1.86,3.68.5,1.53,2.15,2.36,3.68,1.86,1.53-.5,2.36-2.15,1.86-3.68Z" style="fill: #506489; stroke-width: 0px;"/>
          <path d="m690.12,61.61l2.87-5.68c.88-1.74.18-3.87-1.56-4.75l-1.86-.94c-.1-.05-.21-.09-.31-.11-4.96-2.18-10.84-.14-13.35,4.75-.38.74-.09,1.65.66,2.03.74.38,1.65.09,2.03-.66,1.44-2.82,4.47-4.29,7.44-3.92l-10.85,21.28c-.38.75-.08,1.67.66,2.05.22.11.46.17.69.17.55,0,1.09-.3,1.36-.83l6.59-12.93,3.26,1.65c3.52,1.92,4.88,6.32,3.03,9.89-.39.75-.1,1.66.65,2.05.37.19.79.22,1.16.1.37-.12.7-.38.89-.75,2.45-4.72.93-10.45-3.34-13.39Z" style="fill: #506489; stroke-width: 0px;"/>
        </g>
        <g>
          <path d="m668.36,67.06s.05,0,.08,0c3.62,0,6.56-2.94,6.56-6.56s-2.94-6.56-6.56-6.56h-6.93c-.6,0-1.09.49-1.09,1.09s.49,1.09,1.09,1.09h6.93c2.41,0,4.37,1.96,4.37,4.37s-1.96,4.37-4.37,4.37c-.04,0-.08,0-.12.01-.03,0-.05,0-.08,0h-2.62l3.03-3.03c.43-.43.43-1.12,0-1.55-.21-.21-.49-.32-.77-.32s-.56.11-.77.32l-4.9,4.89c-.21.21-.32.48-.32.77s.12.57.32.77l4.9,4.9c.43.43,1.12.43,1.55,0,.43-.43.43-1.12,0-1.55l-3.03-3.03h2.62s.08,0,.12-.01Z" style="fill: #506489; stroke-width: 0px;"/>
          <path d="m661.73,46.48c-.5-1.53-2.15-2.36-3.68-1.86-1.53.5-2.36,2.15-1.86,3.68.5,1.53,2.15,2.36,3.68,1.86,1.53-.5,2.36-2.15,1.86-3.68Z" style="fill: #506489; stroke-width: 0px;"/>
          <path d="m655.12,61.61l2.87-5.68c.88-1.74.18-3.87-1.56-4.75l-1.86-.94c-.1-.05-.21-.09-.31-.11-4.96-2.18-10.84-.14-13.35,4.75-.38.74-.09,1.65.66,2.03.74.38,1.65.09,2.03-.66,1.44-2.82,4.47-4.29,7.44-3.92l-10.85,21.28c-.38.75-.08,1.67.66,2.05.22.11.46.17.69.17.55,0,1.09-.3,1.36-.83l6.59-12.93,3.26,1.65c3.52,1.92,4.88,6.32,3.03,9.89-.39.75-.1,1.66.65,2.05.37.19.79.22,1.16.1.37-.12.7-.38.89-.75,2.45-4.72.93-10.45-3.34-13.39Z" style="fill: #506489; stroke-width: 0px;"/>
        </g>
        <g>
          <path d="m633.36,67.06s.05,0,.08,0c3.62,0,6.56-2.94,6.56-6.56s-2.94-6.56-6.56-6.56h-6.93c-.6,0-1.09.49-1.09,1.09s.49,1.09,1.09,1.09h6.93c2.41,0,4.37,1.96,4.37,4.37s-1.96,4.37-4.37,4.37c-.04,0-.08,0-.12.01-.03,0-.05,0-.08,0h-2.62l3.03-3.03c.43-.43.43-1.12,0-1.55-.21-.21-.49-.32-.77-.32s-.56.11-.77.32l-4.9,4.89c-.21.21-.32.48-.32.77s.12.57.32.77l4.9,4.9c.43.43,1.12.43,1.55,0,.43-.43.43-1.12,0-1.55l-3.03-3.03h2.62s.08,0,.12-.01Z" style="fill: #506489; stroke-width: 0px;"/>
          <path d="m626.73,46.48c-.5-1.53-2.15-2.36-3.68-1.86-1.53.5-2.36,2.15-1.86,3.68.5,1.53,2.15,2.36,3.68,1.86,1.53-.5,2.36-2.15,1.86-3.68Z" style="fill: #506489; stroke-width: 0px;"/>
          <path d="m620.12,61.61l2.87-5.68c.88-1.74.18-3.87-1.56-4.75l-1.86-.94c-.1-.05-.21-.09-.31-.11-4.96-2.18-10.84-.14-13.35,4.75-.38.74-.09,1.65.66,2.03.74.38,1.65.09,2.03-.66,1.44-2.82,4.47-4.29,7.44-3.92l-10.85,21.28c-.38.75-.08,1.67.66,2.05.22.11.46.17.69.17.55,0,1.09-.3,1.36-.83l6.59-12.93,3.26,1.65c3.52,1.92,4.88,6.32,3.03,9.89-.39.75-.1,1.66.65,2.05.37.19.79.22,1.16.1.37-.12.7-.38.89-.75,2.45-4.72.93-10.45-3.34-13.39Z" style="fill: #506489; stroke-width: 0px;"/>
        </g>
        <g>
          <path d="m598.36,67.06s.05,0,.08,0c3.62,0,6.56-2.94,6.56-6.56s-2.94-6.56-6.56-6.56h-6.93c-.6,0-1.09.49-1.09,1.09s.49,1.09,1.09,1.09h6.93c2.41,0,4.37,1.96,4.37,4.37s-1.96,4.37-4.37,4.37c-.04,0-.08,0-.12.01-.03,0-.05,0-.08,0h-2.62l3.03-3.03c.43-.43.43-1.12,0-1.55-.21-.21-.49-.32-.77-.32s-.56.11-.77.32l-4.9,4.89c-.21.21-.32.48-.32.77s.12.57.32.77l4.9,4.9c.43.43,1.12.43,1.55,0,.43-.43.43-1.12,0-1.55l-3.03-3.03h2.62s.08,0,.12-.01Z" style="fill: #506489; stroke-width: 0px;"/>
          <path d="m591.73,46.48c-.5-1.53-2.15-2.36-3.68-1.86-1.53.5-2.36,2.15-1.86,3.68.5,1.53,2.15,2.36,3.68,1.86,1.53-.5,2.36-2.15,1.86-3.68Z" style="fill: #506489; stroke-width: 0px;"/>
          <path d="m585.12,61.61l2.87-5.68c.88-1.74.18-3.87-1.56-4.75l-1.86-.94c-.1-.05-.21-.09-.31-.11-4.96-2.18-10.84-.14-13.35,4.75-.38.74-.09,1.65.66,2.03.74.38,1.65.09,2.03-.66,1.44-2.82,4.47-4.29,7.44-3.92l-10.85,21.28c-.38.75-.08,1.67.66,2.05.22.11.46.17.69.17.55,0,1.09-.3,1.36-.83l6.59-12.93,3.26,1.65c3.52,1.92,4.88,6.32,3.03,9.89-.39.75-.1,1.66.65,2.05.37.19.79.22,1.16.1.37-.12.7-.38.89-.75,2.45-4.72.93-10.45-3.34-13.39Z" style="fill: #506489; stroke-width: 0px;"/>
        </g>
        <g>
          <path d="m563.36,67.06s.05,0,.08,0c3.62,0,6.56-2.94,6.56-6.56s-2.94-6.56-6.56-6.56h-6.93c-.6,0-1.09.49-1.09,1.09s.49,1.09,1.09,1.09h6.93c2.41,0,4.37,1.96,4.37,4.37s-1.96,4.37-4.37,4.37c-.04,0-.08,0-.12.01-.03,0-.05,0-.08,0h-2.62l3.03-3.03c.43-.43.43-1.12,0-1.55-.21-.21-.49-.32-.77-.32s-.56.11-.77.32l-4.9,4.89c-.21.21-.32.48-.32.77s.12.57.32.77l4.9,4.9c.43.43,1.12.43,1.55,0,.43-.43.43-1.12,0-1.55l-3.03-3.03h2.62s.08,0,.12-.01Z" style="fill: #506489; stroke-width: 0px;"/>
          <path d="m556.73,46.48c-.5-1.53-2.15-2.36-3.68-1.86-1.53.5-2.36,2.15-1.86,3.68.5,1.53,2.15,2.36,3.68,1.86,1.53-.5,2.36-2.15,1.86-3.68Z" style="fill: #506489; stroke-width: 0px;"/>
          <path d="m550.12,61.61l2.87-5.68c.88-1.74.18-3.87-1.56-4.75l-1.86-.94c-.1-.05-.21-.09-.31-.11-4.96-2.18-10.84-.14-13.35,4.75-.38.74-.09,1.65.66,2.03.74.38,1.65.09,2.03-.66,1.44-2.82,4.47-4.29,7.44-3.92l-10.85,21.28c-.38.75-.08,1.67.66,2.05.22.11.46.17.69.17.55,0,1.09-.3,1.36-.83l6.59-12.93,3.26,1.65c3.52,1.92,4.88,6.32,3.03,9.89-.39.75-.1,1.66.65,2.05.37.19.79.22,1.16.1.37-.12.7-.38.89-.75,2.45-4.72.93-10.45-3.34-13.39Z" style="fill: #506489; stroke-width: 0px;"/>
        </g>
        <g>
          <path d="m528.36,67.06s.05,0,.08,0c3.62,0,6.56-2.94,6.56-6.56s-2.94-6.56-6.56-6.56h-6.93c-.6,0-1.09.49-1.09,1.09s.49,1.09,1.09,1.09h6.93c2.41,0,4.37,1.96,4.37,4.37s-1.96,4.37-4.37,4.37c-.04,0-.08,0-.12.01-.03,0-.05,0-.08,0h-2.62l3.03-3.03c.43-.43.43-1.12,0-1.55-.21-.21-.49-.32-.77-.32s-.56.11-.77.32l-4.9,4.89c-.21.21-.32.48-.32.77s.12.57.32.77l4.9,4.9c.43.43,1.12.43,1.55,0,.43-.43.43-1.12,0-1.55l-3.03-3.03h2.62s.08,0,.12-.01Z" style="fill: #506489; stroke-width: 0px;"/>
          <path d="m521.73,46.48c-.5-1.53-2.15-2.36-3.68-1.86-1.53.5-2.36,2.15-1.86,3.68.5,1.53,2.15,2.36,3.68,1.86,1.53-.5,2.36-2.15,1.86-3.68Z" style="fill: #506489; stroke-width: 0px;"/>
          <path d="m515.12,61.61l2.87-5.68c.88-1.74.18-3.87-1.56-4.75l-1.86-.94c-.1-.05-.21-.09-.31-.11-4.96-2.18-10.84-.14-13.35,4.75-.38.74-.09,1.65.66,2.03.74.38,1.65.09,2.03-.66,1.44-2.82,4.47-4.29,7.44-3.92l-10.85,21.28c-.38.75-.08,1.67.66,2.05.22.11.46.17.69.17.55,0,1.09-.3,1.36-.83l6.59-12.93,3.26,1.65c3.52,1.92,4.88,6.32,3.03,9.89-.39.75-.1,1.66.65,2.05.37.19.79.22,1.16.1.37-.12.7-.38.89-.75,2.45-4.72.93-10.45-3.34-13.39Z" style="fill: #506489; stroke-width: 0px;"/>
        </g>
        <g>
          <path d="m493.36,67.06s.05,0,.08,0c3.62,0,6.56-2.94,6.56-6.56s-2.94-6.56-6.56-6.56h-6.93c-.6,0-1.09.49-1.09,1.09s.49,1.09,1.09,1.09h6.93c2.41,0,4.37,1.96,4.37,4.37s-1.96,4.37-4.37,4.37c-.04,0-.08,0-.12.01-.03,0-.05,0-.08,0h-2.62l3.03-3.03c.43-.43.43-1.12,0-1.55-.21-.21-.49-.32-.77-.32s-.56.11-.77.32l-4.9,4.89c-.21.21-.32.48-.32.77s.12.57.32.77l4.9,4.9c.43.43,1.12.43,1.55,0,.43-.43.43-1.12,0-1.55l-3.03-3.03h2.62s.08,0,.12-.01Z" style="fill: #506489; stroke-width: 0px;"/>
          <path d="m486.73,46.48c-.5-1.53-2.15-2.36-3.68-1.86-1.53.5-2.36,2.15-1.86,3.68.5,1.53,2.15,2.36,3.68,1.86,1.53-.5,2.36-2.15,1.86-3.68Z" style="fill: #506489; stroke-width: 0px;"/>
          <path d="m480.12,61.61l2.87-5.68c.88-1.74.18-3.87-1.56-4.75l-1.86-.94c-.1-.05-.21-.09-.31-.11-4.96-2.18-10.84-.14-13.35,4.75-.38.74-.09,1.65.66,2.03.74.38,1.65.09,2.03-.66,1.44-2.82,4.47-4.29,7.44-3.92l-10.85,21.28c-.38.75-.08,1.67.66,2.05.22.11.46.17.69.17.55,0,1.09-.3,1.36-.83l6.59-12.93,3.26,1.65c3.52,1.92,4.88,6.32,3.03,9.89-.39.75-.1,1.66.65,2.05.37.19.79.22,1.16.1.37-.12.7-.38.89-.75,2.45-4.72.93-10.45-3.34-13.39Z" style="fill: #506489; stroke-width: 0px;"/>
        </g>
        <g>
          <path d="m458.36,67.06s.05,0,.08,0c3.62,0,6.56-2.94,6.56-6.56s-2.94-6.56-6.56-6.56h-6.93c-.6,0-1.09.49-1.09,1.09s.49,1.09,1.09,1.09h6.93c2.41,0,4.37,1.96,4.37,4.37s-1.96,4.37-4.37,4.37c-.04,0-.08,0-.12.01-.03,0-.05,0-.08,0h-2.62l3.03-3.03c.43-.43.43-1.12,0-1.55-.21-.21-.49-.32-.77-.32s-.56.11-.77.32l-4.9,4.89c-.21.21-.32.48-.32.77s.12.57.32.77l4.9,4.9c.43.43,1.12.43,1.55,0,.43-.43.43-1.12,0-1.55l-3.03-3.03h2.62s.08,0,.12-.01Z" style="fill: #506489; stroke-width: 0px;"/>
          <path d="m451.73,46.48c-.5-1.53-2.15-2.36-3.68-1.86-1.53.5-2.36,2.15-1.86,3.68.5,1.53,2.15,2.36,3.68,1.86,1.53-.5,2.36-2.15,1.86-3.68Z" style="fill: #506489; stroke-width: 0px;"/>
          <path d="m445.12,61.61l2.87-5.68c.88-1.74.18-3.87-1.56-4.75l-1.86-.94c-.1-.05-.21-.09-.31-.11-4.96-2.18-10.84-.14-13.35,4.75-.38.74-.09,1.65.66,2.03.74.38,1.65.09,2.03-.66,1.44-2.82,4.47-4.29,7.44-3.92l-10.85,21.28c-.38.75-.08,1.67.66,2.05.22.11.46.17.69.17.55,0,1.09-.3,1.36-.83l6.59-12.93,3.26,1.65c3.52,1.92,4.88,6.32,3.03,9.89-.39.75-.1,1.66.65,2.05.37.19.79.22,1.16.1.37-.12.7-.38.89-.75,2.45-4.72.93-10.45-3.34-13.39Z" style="fill: #506489; stroke-width: 0px;"/>
        </g>
        <g>
          <path d="m423.36,67.06s.05,0,.08,0c3.62,0,6.56-2.94,6.56-6.56s-2.94-6.56-6.56-6.56h-6.93c-.6,0-1.09.49-1.09,1.09s.49,1.09,1.09,1.09h6.93c2.41,0,4.37,1.96,4.37,4.37s-1.96,4.37-4.37,4.37c-.04,0-.08,0-.12.01-.03,0-.05,0-.08,0h-2.62l3.03-3.03c.43-.43.43-1.12,0-1.55-.21-.21-.49-.32-.77-.32s-.56.11-.77.32l-4.9,4.89c-.21.21-.32.48-.32.77s.12.57.32.77l4.9,4.9c.43.43,1.12.43,1.55,0,.43-.43.43-1.12,0-1.55l-3.03-3.03h2.62s.08,0,.12-.01Z" style="fill: #506489; stroke-width: 0px;"/>
          <path d="m416.73,46.48c-.5-1.53-2.15-2.36-3.68-1.86-1.53.5-2.36,2.15-1.86,3.68.5,1.53,2.15,2.36,3.68,1.86,1.53-.5,2.36-2.15,1.86-3.68Z" style="fill: #506489; stroke-width: 0px;"/>
          <path d="m410.12,61.61l2.87-5.68c.88-1.74.18-3.87-1.56-4.75l-1.86-.94c-.1-.05-.21-.09-.31-.11-4.96-2.18-10.84-.14-13.35,4.75-.38.74-.09,1.65.66,2.03.74.38,1.65.09,2.03-.66,1.44-2.82,4.47-4.29,7.44-3.92l-10.85,21.28c-.38.75-.08,1.67.66,2.05.22.11.46.17.69.17.55,0,1.09-.3,1.36-.83l6.59-12.93,3.26,1.65c3.52,1.92,4.88,6.32,3.03,9.89-.39.75-.1,1.66.65,2.05.37.19.79.22,1.16.1.37-.12.7-.38.89-.75,2.45-4.72.93-10.45-3.34-13.39Z" style="fill: #506489; stroke-width: 0px;"/>
        </g>
        <g>
          <path d="m388.36,67.06s.05,0,.08,0c3.62,0,6.56-2.94,6.56-6.56s-2.94-6.56-6.56-6.56h-6.93c-.6,0-1.09.49-1.09,1.09s.49,1.09,1.09,1.09h6.93c2.41,0,4.37,1.96,4.37,4.37s-1.96,4.37-4.37,4.37c-.04,0-.08,0-.12.01-.03,0-.05,0-.08,0h-2.62l3.03-3.03c.43-.43.43-1.12,0-1.55-.21-.21-.49-.32-.77-.32s-.56.11-.77.32l-4.9,4.89c-.21.21-.32.48-.32.77s.12.57.32.77l4.9,4.9c.43.43,1.12.43,1.55,0,.43-.43.43-1.12,0-1.55l-3.03-3.03h2.62s.08,0,.12-.01Z" style="fill: #506489; stroke-width: 0px;"/>
          <path d="m381.73,46.48c-.5-1.53-2.15-2.36-3.68-1.86-1.53.5-2.36,2.15-1.86,3.68.5,1.53,2.15,2.36,3.68,1.86,1.53-.5,2.36-2.15,1.86-3.68Z" style="fill: #506489; stroke-width: 0px;"/>
          <path d="m375.12,61.61l2.87-5.68c.88-1.74.18-3.87-1.56-4.75l-1.86-.94c-.1-.05-.21-.09-.31-.11-4.96-2.18-10.84-.14-13.35,4.75-.38.74-.09,1.65.66,2.03.74.38,1.65.09,2.03-.66,1.44-2.82,4.47-4.29,7.44-3.92l-10.85,21.28c-.38.75-.08,1.67.66,2.05.22.11.46.17.69.17.55,0,1.09-.3,1.36-.83l6.59-12.93,3.26,1.65c3.52,1.92,4.88,6.32,3.03,9.89-.39.75-.1,1.66.65,2.05.37.19.79.22,1.16.1.37-.12.7-.38.89-.75,2.45-4.72.93-10.45-3.34-13.39Z" style="fill: #506489; stroke-width: 0px;"/>
        </g>
        <g>
          <path d="m353.36,67.06s.05,0,.08,0c3.62,0,6.56-2.94,6.56-6.56s-2.94-6.56-6.56-6.56h-6.93c-.6,0-1.09.49-1.09,1.09s.49,1.09,1.09,1.09h6.93c2.41,0,4.37,1.96,4.37,4.37s-1.96,4.37-4.37,4.37c-.04,0-.08,0-.12.01-.03,0-.05,0-.08,0h-2.62l3.03-3.03c.43-.43.43-1.12,0-1.55-.21-.21-.49-.32-.77-.32s-.56.11-.77.32l-4.9,4.89c-.21.21-.32.48-.32.77s.12.57.32.77l4.9,4.9c.43.43,1.12.43,1.55,0,.43-.43.43-1.12,0-1.55l-3.03-3.03h2.62s.08,0,.12-.01Z" style="fill: #506489; stroke-width: 0px;"/>
          <path d="m346.73,46.48c-.5-1.53-2.15-2.36-3.68-1.86-1.53.5-2.36,2.15-1.86,3.68.5,1.53,2.15,2.36,3.68,1.86,1.53-.5,2.36-2.15,1.86-3.68Z" style="fill: #506489; stroke-width: 0px;"/>
          <path d="m340.12,61.61l2.87-5.68c.88-1.74.18-3.87-1.56-4.75l-1.86-.94c-.1-.05-.21-.09-.31-.11-4.96-2.18-10.84-.14-13.35,4.75-.38.74-.09,1.65.66,2.03.74.38,1.65.09,2.03-.66,1.44-2.82,4.47-4.29,7.44-3.92l-10.85,21.28c-.38.75-.08,1.67.66,2.05.22.11.46.17.69.17.55,0,1.09-.3,1.36-.83l6.59-12.93,3.26,1.65c3.52,1.92,4.88,6.32,3.03,9.89-.39.75-.1,1.66.65,2.05.37.19.79.22,1.16.1.37-.12.7-.38.89-.75,2.45-4.72.93-10.45-3.34-13.39Z" style="fill: #506489; stroke-width: 0px;"/>
        </g>
        <g>
          <path d="m318.36,67.06s.05,0,.08,0c3.62,0,6.56-2.94,6.56-6.56s-2.94-6.56-6.56-6.56h-6.93c-.6,0-1.09.49-1.09,1.09s.49,1.09,1.09,1.09h6.93c2.41,0,4.37,1.96,4.37,4.37s-1.96,4.37-4.37,4.37c-.04,0-.08,0-.12.01-.03,0-.05,0-.08,0h-2.62l3.03-3.03c.43-.43.43-1.12,0-1.55-.21-.21-.49-.32-.77-.32s-.56.11-.77.32l-4.9,4.89c-.21.21-.32.48-.32.77s.12.57.32.77l4.9,4.9c.43.43,1.12.43,1.55,0,.43-.43.43-1.12,0-1.55l-3.03-3.03h2.62s.08,0,.12-.01Z" style="fill: #506489; stroke-width: 0px;"/>
          <path d="m311.73,46.48c-.5-1.53-2.15-2.36-3.68-1.86-1.53.5-2.36,2.15-1.86,3.68.5,1.53,2.15,2.36,3.68,1.86,1.53-.5,2.36-2.15,1.86-3.68Z" style="fill: #506489; stroke-width: 0px;"/>
          <path d="m305.12,61.61l2.87-5.68c.88-1.74.18-3.87-1.56-4.75l-1.86-.94c-.1-.05-.21-.09-.31-.11-4.96-2.18-10.84-.14-13.35,4.75-.38.74-.09,1.65.66,2.03.74.38,1.65.09,2.03-.66,1.44-2.82,4.47-4.29,7.44-3.92l-10.85,21.28c-.38.75-.08,1.67.66,2.05.22.11.46.17.69.17.55,0,1.09-.3,1.36-.83l6.59-12.93,3.26,1.65c3.52,1.92,4.88,6.32,3.03,9.89-.39.75-.1,1.66.65,2.05.37.19.79.22,1.16.1.37-.12.7-.38.89-.75,2.45-4.72.93-10.45-3.34-13.39Z" style="fill: #506489; stroke-width: 0px;"/>
        </g>
        <g>
          <path d="m283.36,67.06s.05,0,.08,0c3.62,0,6.56-2.94,6.56-6.56s-2.94-6.56-6.56-6.56h-6.93c-.6,0-1.09.49-1.09,1.09s.49,1.09,1.09,1.09h6.93c2.41,0,4.37,1.96,4.37,4.37s-1.96,4.37-4.37,4.37c-.04,0-.08,0-.12.01-.03,0-.05,0-.08,0h-2.62l3.03-3.03c.43-.43.43-1.12,0-1.55-.21-.21-.49-.32-.77-.32s-.56.11-.77.32l-4.9,4.89c-.21.21-.32.48-.32.77s.12.57.32.77l4.9,4.9c.43.43,1.12.43,1.55,0,.43-.43.43-1.12,0-1.55l-3.03-3.03h2.62s.08,0,.12-.01Z" style="fill: #506489; stroke-width: 0px;"/>
          <path d="m276.73,46.48c-.5-1.53-2.15-2.36-3.68-1.86-1.53.5-2.36,2.15-1.86,3.68.5,1.53,2.15,2.36,3.68,1.86,1.53-.5,2.36-2.15,1.86-3.68Z" style="fill: #506489; stroke-width: 0px;"/>
          <path d="m270.12,61.61l2.87-5.68c.88-1.74.18-3.87-1.56-4.75l-1.86-.94c-.1-.05-.21-.09-.31-.11-4.96-2.18-10.84-.14-13.35,4.75-.38.74-.09,1.65.66,2.03.74.38,1.65.09,2.03-.66,1.44-2.82,4.47-4.29,7.44-3.92l-10.85,21.28c-.38.75-.08,1.67.66,2.05.22.11.46.17.69.17.55,0,1.09-.3,1.36-.83l6.59-12.93,3.26,1.65c3.52,1.92,4.88,6.32,3.03,9.89-.39.75-.1,1.66.65,2.05.37.19.79.22,1.16.1.37-.12.7-.38.89-.75,2.45-4.72.93-10.45-3.34-13.39Z" style="fill: #506489; stroke-width: 0px;"/>
        </g>
        <g>
          <path d="m248.36,67.06s.05,0,.08,0c3.62,0,6.56-2.94,6.56-6.56s-2.94-6.56-6.56-6.56h-6.93c-.6,0-1.09.49-1.09,1.09s.49,1.09,1.09,1.09h6.93c2.41,0,4.37,1.96,4.37,4.37s-1.96,4.37-4.37,4.37c-.04,0-.08,0-.12.01-.03,0-.05,0-.08,0h-2.62l3.03-3.03c.43-.43.43-1.12,0-1.55-.21-.21-.49-.32-.77-.32s-.56.11-.77.32l-4.9,4.89c-.21.21-.32.48-.32.77s.12.57.32.77l4.9,4.9c.43.43,1.12.43,1.55,0,.43-.43.43-1.12,0-1.55l-3.03-3.03h2.62s.08,0,.12-.01Z" style="fill: #506489; stroke-width: 0px;"/>
          <path d="m241.73,46.48c-.5-1.53-2.15-2.36-3.68-1.86-1.53.5-2.36,2.15-1.86,3.68.5,1.53,2.15,2.36,3.68,1.86,1.53-.5,2.36-2.15,1.86-3.68Z" style="fill: #506489; stroke-width: 0px;"/>
          <path d="m235.12,61.61l2.87-5.68c.88-1.74.18-3.87-1.56-4.75l-1.86-.94c-.1-.05-.21-.09-.31-.11-4.96-2.18-10.84-.14-13.35,4.75-.38.74-.09,1.65.66,2.03.74.38,1.65.09,2.03-.66,1.44-2.82,4.47-4.29,7.44-3.92l-10.85,21.28c-.38.75-.08,1.67.66,2.05.22.11.46.17.69.17.55,0,1.09-.3,1.36-.83l6.59-12.93,3.26,1.65c3.52,1.92,4.88,6.32,3.03,9.89-.39.75-.1,1.66.65,2.05.37.19.79.22,1.16.1.37-.12.7-.38.89-.75,2.45-4.72.93-10.45-3.34-13.39Z" style="fill: #506489; stroke-width: 0px;"/>
        </g>
        <g>
          <path d="m213.36,67.06s.05,0,.08,0c3.62,0,6.56-2.94,6.56-6.56s-2.94-6.56-6.56-6.56h-6.93c-.6,0-1.09.49-1.09,1.09s.49,1.09,1.09,1.09h6.93c2.41,0,4.37,1.96,4.37,4.37s-1.96,4.37-4.37,4.37c-.04,0-.08,0-.12.01-.03,0-.05,0-.08,0h-2.62l3.03-3.03c.43-.43.43-1.12,0-1.55-.21-.21-.49-.32-.77-.32s-.56.11-.77.32l-4.9,4.89c-.21.21-.32.48-.32.77s.12.57.32.77l4.9,4.9c.43.43,1.12.43,1.55,0,.43-.43.43-1.12,0-1.55l-3.03-3.03h2.62s.08,0,.12-.01Z" style="fill: #506489; stroke-width: 0px;"/>
          <path d="m206.73,46.48c-.5-1.53-2.15-2.36-3.68-1.86-1.53.5-2.36,2.15-1.86,3.68.5,1.53,2.15,2.36,3.68,1.86,1.53-.5,2.36-2.15,1.86-3.68Z" style="fill: #506489; stroke-width: 0px;"/>
          <path d="m200.12,61.61l2.87-5.68c.88-1.74.18-3.87-1.56-4.75l-1.86-.94c-.1-.05-.21-.09-.31-.11-4.96-2.18-10.84-.14-13.35,4.75-.38.74-.09,1.65.66,2.03.74.38,1.65.09,2.03-.66,1.44-2.82,4.47-4.29,7.44-3.92l-10.85,21.28c-.38.75-.08,1.67.66,2.05.22.11.46.17.69.17.55,0,1.09-.3,1.36-.83l6.59-12.93,3.26,1.65c3.52,1.92,4.88,6.32,3.03,9.89-.39.75-.1,1.66.65,2.05.37.19.79.22,1.16.1.37-.12.7-.38.89-.75,2.45-4.72.93-10.45-3.34-13.39Z" style="fill: #506489; stroke-width: 0px;"/>
        </g>
        <g>
          <path d="m178.36,67.06s.05,0,.08,0c3.62,0,6.56-2.94,6.56-6.56s-2.94-6.56-6.56-6.56h-6.93c-.6,0-1.09.49-1.09,1.09s.49,1.09,1.09,1.09h6.93c2.41,0,4.37,1.96,4.37,4.37s-1.96,4.37-4.37,4.37c-.04,0-.08,0-.12.01-.03,0-.05,0-.08,0h-2.62l3.03-3.03c.43-.43.43-1.12,0-1.55-.21-.21-.49-.32-.77-.32s-.56.11-.77.32l-4.9,4.89c-.21.21-.32.48-.32.77s.12.57.32.77l4.9,4.9c.43.43,1.12.43,1.55,0,.43-.43.43-1.12,0-1.55l-3.03-3.03h2.62s.08,0,.12-.01Z" style="fill: #506489; stroke-width: 0px;"/>
          <path d="m171.73,46.48c-.5-1.53-2.15-2.36-3.68-1.86-1.53.5-2.36,2.15-1.86,3.68.5,1.53,2.15,2.36,3.68,1.86,1.53-.5,2.36-2.15,1.86-3.68Z" style="fill: #506489; stroke-width: 0px;"/>
          <path d="m165.12,61.61l2.87-5.68c.88-1.74.18-3.87-1.56-4.75l-1.86-.94c-.1-.05-.21-.09-.31-.11-4.96-2.18-10.84-.14-13.35,4.75-.38.74-.09,1.65.66,2.03.74.38,1.65.09,2.03-.66,1.44-2.82,4.47-4.29,7.44-3.92l-10.85,21.28c-.38.75-.08,1.67.66,2.05.22.11.46.17.69.17.55,0,1.09-.3,1.36-.83l6.59-12.93,3.26,1.65c3.52,1.92,4.88,6.32,3.03,9.89-.39.75-.1,1.66.65,2.05.37.19.79.22,1.16.1.37-.12.7-.38.89-.75,2.45-4.72.93-10.45-3.34-13.39Z" style="fill: #506489; stroke-width: 0px;"/>
        </g>
        <g>
          <path d="m143.36,67.06s.05,0,.08,0c3.62,0,6.56-2.94,6.56-6.56s-2.94-6.56-6.56-6.56h-6.93c-.6,0-1.09.49-1.09,1.09s.49,1.09,1.09,1.09h6.93c2.41,0,4.37,1.96,4.37,4.37s-1.96,4.37-4.37,4.37c-.04,0-.08,0-.12.01-.03,0-.05,0-.08,0h-2.62l3.03-3.03c.43-.43.43-1.12,0-1.55-.21-.21-.49-.32-.77-.32s-.56.11-.77.32l-4.9,4.89c-.21.21-.32.48-.32.77s.12.57.32.77l4.9,4.9c.43.43,1.12.43,1.55,0,.43-.43.43-1.12,0-1.55l-3.03-3.03h2.62s.08,0,.12-.01Z" style="fill: #506489; stroke-width: 0px;"/>
          <path d="m136.73,46.48c-.5-1.53-2.15-2.36-3.68-1.86-1.53.5-2.36,2.15-1.86,3.68.5,1.53,2.15,2.36,3.68,1.86,1.53-.5,2.36-2.15,1.86-3.68Z" style="fill: #506489; stroke-width: 0px;"/>
          <path d="m130.12,61.61l2.87-5.68c.88-1.74.18-3.87-1.56-4.75l-1.86-.94c-.1-.05-.21-.09-.31-.11-4.96-2.18-10.84-.14-13.35,4.75-.38.74-.09,1.65.66,2.03.74.38,1.65.09,2.03-.66,1.44-2.82,4.47-4.29,7.44-3.92l-10.85,21.28c-.38.75-.08,1.67.66,2.05.22.11.46.17.69.17.55,0,1.09-.3,1.36-.83l6.59-12.93,3.26,1.65c3.52,1.92,4.88,6.32,3.03,9.89-.39.75-.1,1.66.65,2.05.37.19.79.22,1.16.1.37-.12.7-.38.89-.75,2.45-4.72.93-10.45-3.34-13.39Z" style="fill: #506489; stroke-width: 0px;"/>
        </g>
        <g>
          <path d="m108.36,67.06s.05,0,.08,0c3.62,0,6.56-2.94,6.56-6.56s-2.94-6.56-6.56-6.56h-6.93c-.6,0-1.09.49-1.09,1.09s.49,1.09,1.09,1.09h6.93c2.41,0,4.37,1.96,4.37,4.37s-1.96,4.37-4.37,4.37c-.04,0-.08,0-.12.01-.03,0-.05,0-.08,0h-2.62l3.03-3.03c.43-.43.43-1.12,0-1.55-.21-.21-.49-.32-.77-.32s-.56.11-.77.32l-4.9,4.89c-.21.21-.32.48-.32.77s.12.57.32.77l4.9,4.9c.43.43,1.12.43,1.55,0,.43-.43.43-1.12,0-1.55l-3.03-3.03h2.62s.08,0,.12-.01Z" style="fill: #506489; stroke-width: 0px;"/>
          <path d="m101.73,46.48c-.5-1.53-2.15-2.36-3.68-1.86-1.53.5-2.36,2.15-1.86,3.68.5,1.53,2.15,2.36,3.68,1.86,1.53-.5,2.36-2.15,1.86-3.68Z" style="fill: #506489; stroke-width: 0px;"/>
          <path d="m95.12,61.61l2.87-5.68c.88-1.74.18-3.87-1.56-4.75l-1.86-.94c-.1-.05-.21-.09-.31-.11-4.96-2.18-10.84-.14-13.35,4.75-.38.74-.09,1.65.66,2.03.74.38,1.65.09,2.03-.66,1.44-2.82,4.47-4.29,7.44-3.92l-10.85,21.28c-.38.75-.08,1.67.66,2.05.22.11.46.17.69.17.55,0,1.09-.3,1.36-.83l6.59-12.93,3.26,1.65c3.52,1.92,4.88,6.32,3.03,9.89-.39.75-.1,1.66.65,2.05.37.19.79.22,1.16.1.37-.12.7-.38.89-.75,2.45-4.72.93-10.45-3.34-13.39Z" style="fill: #506489; stroke-width: 0px;"/>
        </g>
        <g>
          <path d="m73.36,67.06s.05,0,.08,0c3.62,0,6.56-2.94,6.56-6.56s-2.94-6.56-6.56-6.56h-6.93c-.6,0-1.09.49-1.09,1.09s.49,1.09,1.09,1.09h6.93c2.41,0,4.37,1.96,4.37,4.37s-1.96,4.37-4.37,4.37c-.04,0-.08,0-.12.01-.03,0-.05,0-.08,0h-2.62l3.03-3.03c.43-.43.43-1.12,0-1.55-.21-.21-.49-.32-.77-.32s-.56.11-.77.32l-4.9,4.89c-.21.21-.32.48-.32.77s.12.57.32.77l4.9,4.9c.43.43,1.12.43,1.55,0,.43-.43.43-1.12,0-1.55l-3.03-3.03h2.62s.08,0,.12-.01Z" style="fill: #506489; stroke-width: 0px;"/>
          <path d="m66.73,46.48c-.5-1.53-2.15-2.36-3.68-1.86-1.53.5-2.36,2.15-1.86,3.68.5,1.53,2.15,2.36,3.68,1.86,1.53-.5,2.36-2.15,1.86-3.68Z" style="fill: #506489; stroke-width: 0px;"/>
          <path d="m60.12,61.61l2.87-5.68c.88-1.74.18-3.87-1.56-4.75l-1.86-.94c-.1-.05-.21-.09-.31-.11-4.96-2.18-10.84-.14-13.35,4.75-.38.74-.09,1.65.66,2.03.74.38,1.65.09,2.03-.66,1.44-2.82,4.47-4.29,7.44-3.92l-10.85,21.28c-.38.75-.08,1.67.66,2.05.22.11.46.17.69.17.55,0,1.09-.3,1.36-.83l6.59-12.93,3.26,1.65c3.52,1.92,4.88,6.32,3.03,9.89-.39.75-.1,1.66.65,2.05.37.19.79.22,1.16.1.37-.12.7-.38.89-.75,2.45-4.72.93-10.45-3.34-13.39Z" style="fill: #506489; stroke-width: 0px;"/>
        </g>
      </g>
    </g>
    <g id="Layer_4" data-name="Layer 4">
      <g style="clip-path: url(#clippath-1);">
        <g>
          <path d="m31.73,46.49c-.5-1.53-2.15-2.36-3.68-1.86-1.53.5-2.36,2.15-1.86,3.68.5,1.53,2.15,2.36,3.68,1.86,1.53-.5,2.36-2.15,1.86-3.68Z" style="fill: #0072bc; stroke-width: 0px;"/>
          <path d="m25.12,61.62l2.87-5.68c.88-1.74.18-3.87-1.56-4.75l-1.86-.94c-.1-.05-.21-.09-.31-.11-4.96-2.18-10.84-.14-13.35,4.75-.38.74-.09,1.65.66,2.03.74.38,1.65.09,2.03-.66,1.44-2.81,4.46-4.29,7.43-3.92l-10.85,21.28c-.38.75-.08,1.67.66,2.05.22.11.46.17.69.17.55,0,1.09-.3,1.36-.83l6.59-12.93,3.26,1.65c3.52,1.92,4.88,6.32,3.03,9.89-.39.75-.1,1.66.65,2.05.37.19.79.22,1.16.1s.7-.38.89-.75c2.45-4.71.93-10.45-3.34-13.39Z" style="fill: #0072bc; stroke-width: 0px;"/>
          <path d="m44.67,57.85l-5.07-5.07c-.44-.44-1.16-.44-1.6,0-.44.44-.44,1.16,0,1.6l3.17,3.17h-9.66c-.6,0-1.09.49-1.09,1.09s.49,1.09,1.09,1.09h9.66l-3.17,3.17c-.44.44-.44,1.16,0,1.6.22.22.51.33.8.33s.58-.11.8-.33l5.07-5.07c.21-.21.33-.5.33-.8s-.12-.59-.33-.8Z" style="fill: #0072bc; stroke-width: 0px;"/>
          <path d="m34.43,61.93c-.6,0-1.09.49-1.09,1.09v3.65c0,.6.49,1.09,1.09,1.09s1.09-.49,1.09-1.09v-3.65c0-.6-.49-1.09-1.09-1.09Z" style="fill: #0072bc; stroke-width: 0px;"/>
          <path d="m34.43,55.37c.6,0,1.09-.49,1.09-1.09v-3.65c0-.6-.49-1.09-1.09-1.09s-1.09.49-1.09,1.09v3.65c0,.6.49,1.09,1.09,1.09Z" style="fill: #0072bc; stroke-width: 0px;"/>
          <path d="m34.43,47.35c.6,0,1.09-.49,1.09-1.09v-3.65c0-.6-.49-1.09-1.09-1.09s-1.09.49-1.09,1.09v3.65c0,.6.49,1.09,1.09,1.09Z" style="fill: #0072bc; stroke-width: 0px;"/>
          <path d="m34.43,69.95c-.6,0-1.09.49-1.09,1.09v3.65c0,.6.49,1.09,1.09,1.09s1.09-.49,1.09-1.09v-3.65c0-.6-.49-1.09-1.09-1.09Z" style="fill: #0072bc; stroke-width: 0px;"/>
        </g>
        <g>
          <path d="m696.73,46.49c-.5-1.53-2.15-2.36-3.68-1.86-1.53.5-2.36,2.15-1.86,3.68.5,1.53,2.15,2.36,3.68,1.86,1.53-.5,2.36-2.15,1.86-3.68Z" style="fill: #0072bc; stroke-width: 0px;"/>
          <path d="m690.12,61.62l2.87-5.68c.88-1.74.18-3.87-1.56-4.75l-1.86-.94c-.1-.05-.21-.09-.31-.11-4.96-2.18-10.84-.14-13.35,4.75-.38.74-.09,1.65.66,2.03.74.38,1.65.09,2.03-.66,1.44-2.81,4.46-4.29,7.43-3.92l-10.85,21.28c-.38.75-.08,1.67.66,2.05.22.11.46.17.69.17.55,0,1.09-.3,1.36-.83l6.59-12.93,3.26,1.65c3.52,1.92,4.88,6.32,3.03,9.89-.39.75-.1,1.66.65,2.05.37.19.79.22,1.16.1s.7-.38.89-.75c2.45-4.71.93-10.45-3.34-13.39Z" style="fill: #0072bc; stroke-width: 0px;"/>
          <path d="m709.67,57.85l-5.07-5.07c-.44-.44-1.16-.44-1.6,0-.44.44-.44,1.16,0,1.6l3.17,3.17h-9.66c-.6,0-1.09.49-1.09,1.09s.49,1.09,1.09,1.09h9.66l-3.17,3.17c-.44.44-.44,1.16,0,1.6.22.22.51.33.8.33s.58-.11.8-.33l5.07-5.07c.21-.21.33-.5.33-.8s-.12-.59-.33-.8Z" style="fill: #0072bc; stroke-width: 0px;"/>
          <path d="m699.43,61.93c-.6,0-1.09.49-1.09,1.09v3.65c0,.6.49,1.09,1.09,1.09s1.09-.49,1.09-1.09v-3.65c0-.6-.49-1.09-1.09-1.09Z" style="fill: #0072bc; stroke-width: 0px;"/>
          <path d="m699.43,55.37c.6,0,1.09-.49,1.09-1.09v-3.65c0-.6-.49-1.09-1.09-1.09s-1.09.49-1.09,1.09v3.65c0,.6.49,1.09,1.09,1.09Z" style="fill: #0072bc; stroke-width: 0px;"/>
          <path d="m699.43,47.35c.6,0,1.09-.49,1.09-1.09v-3.65c0-.6-.49-1.09-1.09-1.09s-1.09.49-1.09,1.09v3.65c0,.6.49,1.09,1.09,1.09Z" style="fill: #0072bc; stroke-width: 0px;"/>
          <path d="m699.43,69.95c-.6,0-1.09.49-1.09,1.09v3.65c0,.6.49,1.09,1.09,1.09s1.09-.49,1.09-1.09v-3.65c0-.6-.49-1.09-1.09-1.09Z" style="fill: #0072bc; stroke-width: 0px;"/>
        </g>
        <g>
          <path d="m661.73,46.49c-.5-1.53-2.15-2.36-3.68-1.86-1.53.5-2.36,2.15-1.86,3.68.5,1.53,2.15,2.36,3.68,1.86,1.53-.5,2.36-2.15,1.86-3.68Z" style="fill: #0072bc; stroke-width: 0px;"/>
          <path d="m655.12,61.62l2.87-5.68c.88-1.74.18-3.87-1.56-4.75l-1.86-.94c-.1-.05-.21-.09-.31-.11-4.96-2.18-10.84-.14-13.35,4.75-.38.74-.09,1.65.66,2.03.74.38,1.65.09,2.03-.66,1.44-2.81,4.46-4.29,7.43-3.92l-10.85,21.28c-.38.75-.08,1.67.66,2.05.22.11.46.17.69.17.55,0,1.09-.3,1.36-.83l6.59-12.93,3.26,1.65c3.52,1.92,4.88,6.32,3.03,9.89-.39.75-.1,1.66.65,2.05.37.19.79.22,1.16.1s.7-.38.89-.75c2.45-4.71.93-10.45-3.34-13.39Z" style="fill: #0072bc; stroke-width: 0px;"/>
          <path d="m674.67,57.85l-5.07-5.07c-.44-.44-1.16-.44-1.6,0-.44.44-.44,1.16,0,1.6l3.17,3.17h-9.66c-.6,0-1.09.49-1.09,1.09s.49,1.09,1.09,1.09h9.66l-3.17,3.17c-.44.44-.44,1.16,0,1.6.22.22.51.33.8.33s.58-.11.8-.33l5.07-5.07c.21-.21.33-.5.33-.8s-.12-.59-.33-.8Z" style="fill: #0072bc; stroke-width: 0px;"/>
          <path d="m664.43,61.93c-.6,0-1.09.49-1.09,1.09v3.65c0,.6.49,1.09,1.09,1.09s1.09-.49,1.09-1.09v-3.65c0-.6-.49-1.09-1.09-1.09Z" style="fill: #0072bc; stroke-width: 0px;"/>
          <path d="m664.43,55.37c.6,0,1.09-.49,1.09-1.09v-3.65c0-.6-.49-1.09-1.09-1.09s-1.09.49-1.09,1.09v3.65c0,.6.49,1.09,1.09,1.09Z" style="fill: #0072bc; stroke-width: 0px;"/>
          <path d="m664.43,47.35c.6,0,1.09-.49,1.09-1.09v-3.65c0-.6-.49-1.09-1.09-1.09s-1.09.49-1.09,1.09v3.65c0,.6.49,1.09,1.09,1.09Z" style="fill: #0072bc; stroke-width: 0px;"/>
          <path d="m664.43,69.95c-.6,0-1.09.49-1.09,1.09v3.65c0,.6.49,1.09,1.09,1.09s1.09-.49,1.09-1.09v-3.65c0-.6-.49-1.09-1.09-1.09Z" style="fill: #0072bc; stroke-width: 0px;"/>
        </g>
        <g>
          <path d="m626.73,46.49c-.5-1.53-2.15-2.36-3.68-1.86-1.53.5-2.36,2.15-1.86,3.68.5,1.53,2.15,2.36,3.68,1.86,1.53-.5,2.36-2.15,1.86-3.68Z" style="fill: #0072bc; stroke-width: 0px;"/>
          <path d="m620.12,61.62l2.87-5.68c.88-1.74.18-3.87-1.56-4.75l-1.86-.94c-.1-.05-.21-.09-.31-.11-4.96-2.18-10.84-.14-13.35,4.75-.38.74-.09,1.65.66,2.03.74.38,1.65.09,2.03-.66,1.44-2.81,4.46-4.29,7.43-3.92l-10.85,21.28c-.38.75-.08,1.67.66,2.05.22.11.46.17.69.17.55,0,1.09-.3,1.36-.83l6.59-12.93,3.26,1.65c3.52,1.92,4.88,6.32,3.03,9.89-.39.75-.1,1.66.65,2.05.37.19.79.22,1.16.1s.7-.38.89-.75c2.45-4.71.93-10.45-3.34-13.39Z" style="fill: #0072bc; stroke-width: 0px;"/>
          <path d="m639.67,57.85l-5.07-5.07c-.44-.44-1.16-.44-1.6,0-.44.44-.44,1.16,0,1.6l3.17,3.17h-9.66c-.6,0-1.09.49-1.09,1.09s.49,1.09,1.09,1.09h9.66l-3.17,3.17c-.44.44-.44,1.16,0,1.6.22.22.51.33.8.33s.58-.11.8-.33l5.07-5.07c.21-.21.33-.5.33-.8s-.12-.59-.33-.8Z" style="fill: #0072bc; stroke-width: 0px;"/>
          <path d="m629.43,61.93c-.6,0-1.09.49-1.09,1.09v3.65c0,.6.49,1.09,1.09,1.09s1.09-.49,1.09-1.09v-3.65c0-.6-.49-1.09-1.09-1.09Z" style="fill: #0072bc; stroke-width: 0px;"/>
          <path d="m629.43,55.37c.6,0,1.09-.49,1.09-1.09v-3.65c0-.6-.49-1.09-1.09-1.09s-1.09.49-1.09,1.09v3.65c0,.6.49,1.09,1.09,1.09Z" style="fill: #0072bc; stroke-width: 0px;"/>
          <path d="m629.43,47.35c.6,0,1.09-.49,1.09-1.09v-3.65c0-.6-.49-1.09-1.09-1.09s-1.09.49-1.09,1.09v3.65c0,.6.49,1.09,1.09,1.09Z" style="fill: #0072bc; stroke-width: 0px;"/>
          <path d="m629.43,69.95c-.6,0-1.09.49-1.09,1.09v3.65c0,.6.49,1.09,1.09,1.09s1.09-.49,1.09-1.09v-3.65c0-.6-.49-1.09-1.09-1.09Z" style="fill: #0072bc; stroke-width: 0px;"/>
        </g>
        <g>
          <path d="m591.73,46.49c-.5-1.53-2.15-2.36-3.68-1.86-1.53.5-2.36,2.15-1.86,3.68.5,1.53,2.15,2.36,3.68,1.86,1.53-.5,2.36-2.15,1.86-3.68Z" style="fill: #0072bc; stroke-width: 0px;"/>
          <path d="m585.12,61.62l2.87-5.68c.88-1.74.18-3.87-1.56-4.75l-1.86-.94c-.1-.05-.21-.09-.31-.11-4.96-2.18-10.84-.14-13.35,4.75-.38.74-.09,1.65.66,2.03.74.38,1.65.09,2.03-.66,1.44-2.81,4.46-4.29,7.43-3.92l-10.85,21.28c-.38.75-.08,1.67.66,2.05.22.11.46.17.69.17.55,0,1.09-.3,1.36-.83l6.59-12.93,3.26,1.65c3.52,1.92,4.88,6.32,3.03,9.89-.39.75-.1,1.66.65,2.05.37.19.79.22,1.16.1s.7-.38.89-.75c2.45-4.71.93-10.45-3.34-13.39Z" style="fill: #0072bc; stroke-width: 0px;"/>
          <path d="m604.67,57.85l-5.07-5.07c-.44-.44-1.16-.44-1.6,0-.44.44-.44,1.16,0,1.6l3.17,3.17h-9.66c-.6,0-1.09.49-1.09,1.09s.49,1.09,1.09,1.09h9.66l-3.17,3.17c-.44.44-.44,1.16,0,1.6.22.22.51.33.8.33s.58-.11.8-.33l5.07-5.07c.21-.21.33-.5.33-.8s-.12-.59-.33-.8Z" style="fill: #0072bc; stroke-width: 0px;"/>
          <path d="m594.43,61.93c-.6,0-1.09.49-1.09,1.09v3.65c0,.6.49,1.09,1.09,1.09s1.09-.49,1.09-1.09v-3.65c0-.6-.49-1.09-1.09-1.09Z" style="fill: #0072bc; stroke-width: 0px;"/>
          <path d="m594.43,55.37c.6,0,1.09-.49,1.09-1.09v-3.65c0-.6-.49-1.09-1.09-1.09s-1.09.49-1.09,1.09v3.65c0,.6.49,1.09,1.09,1.09Z" style="fill: #0072bc; stroke-width: 0px;"/>
          <path d="m594.43,47.35c.6,0,1.09-.49,1.09-1.09v-3.65c0-.6-.49-1.09-1.09-1.09s-1.09.49-1.09,1.09v3.65c0,.6.49,1.09,1.09,1.09Z" style="fill: #0072bc; stroke-width: 0px;"/>
          <path d="m594.43,69.95c-.6,0-1.09.49-1.09,1.09v3.65c0,.6.49,1.09,1.09,1.09s1.09-.49,1.09-1.09v-3.65c0-.6-.49-1.09-1.09-1.09Z" style="fill: #0072bc; stroke-width: 0px;"/>
        </g>
        <g>
          <path d="m556.73,46.49c-.5-1.53-2.15-2.36-3.68-1.86-1.53.5-2.36,2.15-1.86,3.68.5,1.53,2.15,2.36,3.68,1.86,1.53-.5,2.36-2.15,1.86-3.68Z" style="fill: #0072bc; stroke-width: 0px;"/>
          <path d="m550.12,61.62l2.87-5.68c.88-1.74.18-3.87-1.56-4.75l-1.86-.94c-.1-.05-.21-.09-.31-.11-4.96-2.18-10.84-.14-13.35,4.75-.38.74-.09,1.65.66,2.03.74.38,1.65.09,2.03-.66,1.44-2.81,4.46-4.29,7.43-3.92l-10.85,21.28c-.38.75-.08,1.67.66,2.05.22.11.46.17.69.17.55,0,1.09-.3,1.36-.83l6.59-12.93,3.26,1.65c3.52,1.92,4.88,6.32,3.03,9.89-.39.75-.1,1.66.65,2.05.37.19.79.22,1.16.1s.7-.38.89-.75c2.45-4.71.93-10.45-3.34-13.39Z" style="fill: #0072bc; stroke-width: 0px;"/>
          <path d="m569.67,57.85l-5.07-5.07c-.44-.44-1.16-.44-1.6,0-.44.44-.44,1.16,0,1.6l3.17,3.17h-9.66c-.6,0-1.09.49-1.09,1.09s.49,1.09,1.09,1.09h9.66l-3.17,3.17c-.44.44-.44,1.16,0,1.6.22.22.51.33.8.33s.58-.11.8-.33l5.07-5.07c.21-.21.33-.5.33-.8s-.12-.59-.33-.8Z" style="fill: #0072bc; stroke-width: 0px;"/>
          <path d="m559.43,61.93c-.6,0-1.09.49-1.09,1.09v3.65c0,.6.49,1.09,1.09,1.09s1.09-.49,1.09-1.09v-3.65c0-.6-.49-1.09-1.09-1.09Z" style="fill: #0072bc; stroke-width: 0px;"/>
          <path d="m559.43,55.37c.6,0,1.09-.49,1.09-1.09v-3.65c0-.6-.49-1.09-1.09-1.09s-1.09.49-1.09,1.09v3.65c0,.6.49,1.09,1.09,1.09Z" style="fill: #0072bc; stroke-width: 0px;"/>
          <path d="m559.43,47.35c.6,0,1.09-.49,1.09-1.09v-3.65c0-.6-.49-1.09-1.09-1.09s-1.09.49-1.09,1.09v3.65c0,.6.49,1.09,1.09,1.09Z" style="fill: #0072bc; stroke-width: 0px;"/>
          <path d="m559.43,69.95c-.6,0-1.09.49-1.09,1.09v3.65c0,.6.49,1.09,1.09,1.09s1.09-.49,1.09-1.09v-3.65c0-.6-.49-1.09-1.09-1.09Z" style="fill: #0072bc; stroke-width: 0px;"/>
        </g>
        <g>
          <path d="m521.73,46.49c-.5-1.53-2.15-2.36-3.68-1.86-1.53.5-2.36,2.15-1.86,3.68.5,1.53,2.15,2.36,3.68,1.86,1.53-.5,2.36-2.15,1.86-3.68Z" style="fill: #0072bc; stroke-width: 0px;"/>
          <path d="m515.12,61.62l2.87-5.68c.88-1.74.18-3.87-1.56-4.75l-1.86-.94c-.1-.05-.21-.09-.31-.11-4.96-2.18-10.84-.14-13.35,4.75-.38.74-.09,1.65.66,2.03.74.38,1.65.09,2.03-.66,1.44-2.81,4.46-4.29,7.43-3.92l-10.85,21.28c-.38.75-.08,1.67.66,2.05.22.11.46.17.69.17.55,0,1.09-.3,1.36-.83l6.59-12.93,3.26,1.65c3.52,1.92,4.88,6.32,3.03,9.89-.39.75-.1,1.66.65,2.05.37.19.79.22,1.16.1s.7-.38.89-.75c2.45-4.71.93-10.45-3.34-13.39Z" style="fill: #0072bc; stroke-width: 0px;"/>
          <path d="m534.67,57.85l-5.07-5.07c-.44-.44-1.16-.44-1.6,0-.44.44-.44,1.16,0,1.6l3.17,3.17h-9.66c-.6,0-1.09.49-1.09,1.09s.49,1.09,1.09,1.09h9.66l-3.17,3.17c-.44.44-.44,1.16,0,1.6.22.22.51.33.8.33s.58-.11.8-.33l5.07-5.07c.21-.21.33-.5.33-.8s-.12-.59-.33-.8Z" style="fill: #0072bc; stroke-width: 0px;"/>
          <path d="m524.43,61.93c-.6,0-1.09.49-1.09,1.09v3.65c0,.6.49,1.09,1.09,1.09s1.09-.49,1.09-1.09v-3.65c0-.6-.49-1.09-1.09-1.09Z" style="fill: #0072bc; stroke-width: 0px;"/>
          <path d="m524.43,55.37c.6,0,1.09-.49,1.09-1.09v-3.65c0-.6-.49-1.09-1.09-1.09s-1.09.49-1.09,1.09v3.65c0,.6.49,1.09,1.09,1.09Z" style="fill: #0072bc; stroke-width: 0px;"/>
          <path d="m524.43,47.35c.6,0,1.09-.49,1.09-1.09v-3.65c0-.6-.49-1.09-1.09-1.09s-1.09.49-1.09,1.09v3.65c0,.6.49,1.09,1.09,1.09Z" style="fill: #0072bc; stroke-width: 0px;"/>
          <path d="m524.43,69.95c-.6,0-1.09.49-1.09,1.09v3.65c0,.6.49,1.09,1.09,1.09s1.09-.49,1.09-1.09v-3.65c0-.6-.49-1.09-1.09-1.09Z" style="fill: #0072bc; stroke-width: 0px;"/>
        </g>
        <g>
          <path d="m486.73,46.49c-.5-1.53-2.15-2.36-3.68-1.86-1.53.5-2.36,2.15-1.86,3.68.5,1.53,2.15,2.36,3.68,1.86,1.53-.5,2.36-2.15,1.86-3.68Z" style="fill: #0072bc; stroke-width: 0px;"/>
          <path d="m480.12,61.62l2.87-5.68c.88-1.74.18-3.87-1.56-4.75l-1.86-.94c-.1-.05-.21-.09-.31-.11-4.96-2.18-10.84-.14-13.35,4.75-.38.74-.09,1.65.66,2.03.74.38,1.65.09,2.03-.66,1.44-2.81,4.46-4.29,7.43-3.92l-10.85,21.28c-.38.75-.08,1.67.66,2.05.22.11.46.17.69.17.55,0,1.09-.3,1.36-.83l6.59-12.93,3.26,1.65c3.52,1.92,4.88,6.32,3.03,9.89-.39.75-.1,1.66.65,2.05.37.19.79.22,1.16.1s.7-.38.89-.75c2.45-4.71.93-10.45-3.34-13.39Z" style="fill: #0072bc; stroke-width: 0px;"/>
          <path d="m499.67,57.85l-5.07-5.07c-.44-.44-1.16-.44-1.6,0-.44.44-.44,1.16,0,1.6l3.17,3.17h-9.66c-.6,0-1.09.49-1.09,1.09s.49,1.09,1.09,1.09h9.66l-3.17,3.17c-.44.44-.44,1.16,0,1.6.22.22.51.33.8.33s.58-.11.8-.33l5.07-5.07c.21-.21.33-.5.33-.8s-.12-.59-.33-.8Z" style="fill: #0072bc; stroke-width: 0px;"/>
          <path d="m489.43,61.93c-.6,0-1.09.49-1.09,1.09v3.65c0,.6.49,1.09,1.09,1.09s1.09-.49,1.09-1.09v-3.65c0-.6-.49-1.09-1.09-1.09Z" style="fill: #0072bc; stroke-width: 0px;"/>
          <path d="m489.43,55.37c.6,0,1.09-.49,1.09-1.09v-3.65c0-.6-.49-1.09-1.09-1.09s-1.09.49-1.09,1.09v3.65c0,.6.49,1.09,1.09,1.09Z" style="fill: #0072bc; stroke-width: 0px;"/>
          <path d="m489.43,47.35c.6,0,1.09-.49,1.09-1.09v-3.65c0-.6-.49-1.09-1.09-1.09s-1.09.49-1.09,1.09v3.65c0,.6.49,1.09,1.09,1.09Z" style="fill: #0072bc; stroke-width: 0px;"/>
          <path d="m489.43,69.95c-.6,0-1.09.49-1.09,1.09v3.65c0,.6.49,1.09,1.09,1.09s1.09-.49,1.09-1.09v-3.65c0-.6-.49-1.09-1.09-1.09Z" style="fill: #0072bc; stroke-width: 0px;"/>
        </g>
        <g>
          <path d="m451.73,46.49c-.5-1.53-2.15-2.36-3.68-1.86-1.53.5-2.36,2.15-1.86,3.68.5,1.53,2.15,2.36,3.68,1.86,1.53-.5,2.36-2.15,1.86-3.68Z" style="fill: #0072bc; stroke-width: 0px;"/>
          <path d="m445.12,61.62l2.87-5.68c.88-1.74.18-3.87-1.56-4.75l-1.86-.94c-.1-.05-.21-.09-.31-.11-4.96-2.18-10.84-.14-13.35,4.75-.38.74-.09,1.65.66,2.03.74.38,1.65.09,2.03-.66,1.44-2.81,4.46-4.29,7.43-3.92l-10.85,21.28c-.38.75-.08,1.67.66,2.05.22.11.46.17.69.17.55,0,1.09-.3,1.36-.83l6.59-12.93,3.26,1.65c3.52,1.92,4.88,6.32,3.03,9.89-.39.75-.1,1.66.65,2.05.37.19.79.22,1.16.1s.7-.38.89-.75c2.45-4.71.93-10.45-3.34-13.39Z" style="fill: #0072bc; stroke-width: 0px;"/>
          <path d="m464.67,57.85l-5.07-5.07c-.44-.44-1.16-.44-1.6,0-.44.44-.44,1.16,0,1.6l3.17,3.17h-9.66c-.6,0-1.09.49-1.09,1.09s.49,1.09,1.09,1.09h9.66l-3.17,3.17c-.44.44-.44,1.16,0,1.6.22.22.51.33.8.33s.58-.11.8-.33l5.07-5.07c.21-.21.33-.5.33-.8s-.12-.59-.33-.8Z" style="fill: #0072bc; stroke-width: 0px;"/>
          <path d="m454.43,61.93c-.6,0-1.09.49-1.09,1.09v3.65c0,.6.49,1.09,1.09,1.09s1.09-.49,1.09-1.09v-3.65c0-.6-.49-1.09-1.09-1.09Z" style="fill: #0072bc; stroke-width: 0px;"/>
          <path d="m454.43,55.37c.6,0,1.09-.49,1.09-1.09v-3.65c0-.6-.49-1.09-1.09-1.09s-1.09.49-1.09,1.09v3.65c0,.6.49,1.09,1.09,1.09Z" style="fill: #0072bc; stroke-width: 0px;"/>
          <path d="m454.43,47.35c.6,0,1.09-.49,1.09-1.09v-3.65c0-.6-.49-1.09-1.09-1.09s-1.09.49-1.09,1.09v3.65c0,.6.49,1.09,1.09,1.09Z" style="fill: #0072bc; stroke-width: 0px;"/>
          <path d="m454.43,69.95c-.6,0-1.09.49-1.09,1.09v3.65c0,.6.49,1.09,1.09,1.09s1.09-.49,1.09-1.09v-3.65c0-.6-.49-1.09-1.09-1.09Z" style="fill: #0072bc; stroke-width: 0px;"/>
        </g>
        <g>
          <path d="m416.73,46.49c-.5-1.53-2.15-2.36-3.68-1.86-1.53.5-2.36,2.15-1.86,3.68.5,1.53,2.15,2.36,3.68,1.86,1.53-.5,2.36-2.15,1.86-3.68Z" style="fill: #0072bc; stroke-width: 0px;"/>
          <path d="m410.12,61.62l2.87-5.68c.88-1.74.18-3.87-1.56-4.75l-1.86-.94c-.1-.05-.21-.09-.31-.11-4.96-2.18-10.84-.14-13.35,4.75-.38.74-.09,1.65.66,2.03.74.38,1.65.09,2.03-.66,1.44-2.81,4.46-4.29,7.43-3.92l-10.85,21.28c-.38.75-.08,1.67.66,2.05.22.11.46.17.69.17.55,0,1.09-.3,1.36-.83l6.59-12.93,3.26,1.65c3.52,1.92,4.88,6.32,3.03,9.89-.39.75-.1,1.66.65,2.05.37.19.79.22,1.16.1s.7-.38.89-.75c2.45-4.71.93-10.45-3.34-13.39Z" style="fill: #0072bc; stroke-width: 0px;"/>
          <path d="m429.67,57.85l-5.07-5.07c-.44-.44-1.16-.44-1.6,0-.44.44-.44,1.16,0,1.6l3.17,3.17h-9.66c-.6,0-1.09.49-1.09,1.09s.49,1.09,1.09,1.09h9.66l-3.17,3.17c-.44.44-.44,1.16,0,1.6.22.22.51.33.8.33s.58-.11.8-.33l5.07-5.07c.21-.21.33-.5.33-.8s-.12-.59-.33-.8Z" style="fill: #0072bc; stroke-width: 0px;"/>
          <path d="m419.43,61.93c-.6,0-1.09.49-1.09,1.09v3.65c0,.6.49,1.09,1.09,1.09s1.09-.49,1.09-1.09v-3.65c0-.6-.49-1.09-1.09-1.09Z" style="fill: #0072bc; stroke-width: 0px;"/>
          <path d="m419.43,55.37c.6,0,1.09-.49,1.09-1.09v-3.65c0-.6-.49-1.09-1.09-1.09s-1.09.49-1.09,1.09v3.65c0,.6.49,1.09,1.09,1.09Z" style="fill: #0072bc; stroke-width: 0px;"/>
          <path d="m419.43,47.35c.6,0,1.09-.49,1.09-1.09v-3.65c0-.6-.49-1.09-1.09-1.09s-1.09.49-1.09,1.09v3.65c0,.6.49,1.09,1.09,1.09Z" style="fill: #0072bc; stroke-width: 0px;"/>
          <path d="m419.43,69.95c-.6,0-1.09.49-1.09,1.09v3.65c0,.6.49,1.09,1.09,1.09s1.09-.49,1.09-1.09v-3.65c0-.6-.49-1.09-1.09-1.09Z" style="fill: #0072bc; stroke-width: 0px;"/>
        </g>
        <g>
          <path d="m381.73,46.49c-.5-1.53-2.15-2.36-3.68-1.86-1.53.5-2.36,2.15-1.86,3.68.5,1.53,2.15,2.36,3.68,1.86,1.53-.5,2.36-2.15,1.86-3.68Z" style="fill: #0072bc; stroke-width: 0px;"/>
          <path d="m375.12,61.62l2.87-5.68c.88-1.74.18-3.87-1.56-4.75l-1.86-.94c-.1-.05-.21-.09-.31-.11-4.96-2.18-10.84-.14-13.35,4.75-.38.74-.09,1.65.66,2.03.74.38,1.65.09,2.03-.66,1.44-2.81,4.46-4.29,7.43-3.92l-10.85,21.28c-.38.75-.08,1.67.66,2.05.22.11.46.17.69.17.55,0,1.09-.3,1.36-.83l6.59-12.93,3.26,1.65c3.52,1.92,4.88,6.32,3.03,9.89-.39.75-.1,1.66.65,2.05.37.19.79.22,1.16.1s.7-.38.89-.75c2.45-4.71.93-10.45-3.34-13.39Z" style="fill: #0072bc; stroke-width: 0px;"/>
          <path d="m394.67,57.85l-5.07-5.07c-.44-.44-1.16-.44-1.6,0-.44.44-.44,1.16,0,1.6l3.17,3.17h-9.66c-.6,0-1.09.49-1.09,1.09s.49,1.09,1.09,1.09h9.66l-3.17,3.17c-.44.44-.44,1.16,0,1.6.22.22.51.33.8.33s.58-.11.8-.33l5.07-5.07c.21-.21.33-.5.33-.8s-.12-.59-.33-.8Z" style="fill: #0072bc; stroke-width: 0px;"/>
          <path d="m384.43,61.93c-.6,0-1.09.49-1.09,1.09v3.65c0,.6.49,1.09,1.09,1.09s1.09-.49,1.09-1.09v-3.65c0-.6-.49-1.09-1.09-1.09Z" style="fill: #0072bc; stroke-width: 0px;"/>
          <path d="m384.43,55.37c.6,0,1.09-.49,1.09-1.09v-3.65c0-.6-.49-1.09-1.09-1.09s-1.09.49-1.09,1.09v3.65c0,.6.49,1.09,1.09,1.09Z" style="fill: #0072bc; stroke-width: 0px;"/>
          <path d="m384.43,47.35c.6,0,1.09-.49,1.09-1.09v-3.65c0-.6-.49-1.09-1.09-1.09s-1.09.49-1.09,1.09v3.65c0,.6.49,1.09,1.09,1.09Z" style="fill: #0072bc; stroke-width: 0px;"/>
          <path d="m384.43,69.95c-.6,0-1.09.49-1.09,1.09v3.65c0,.6.49,1.09,1.09,1.09s1.09-.49,1.09-1.09v-3.65c0-.6-.49-1.09-1.09-1.09Z" style="fill: #0072bc; stroke-width: 0px;"/>
        </g>
        <g>
          <path d="m346.73,46.49c-.5-1.53-2.15-2.36-3.68-1.86-1.53.5-2.36,2.15-1.86,3.68.5,1.53,2.15,2.36,3.68,1.86,1.53-.5,2.36-2.15,1.86-3.68Z" style="fill: #0072bc; stroke-width: 0px;"/>
          <path d="m340.12,61.62l2.87-5.68c.88-1.74.18-3.87-1.56-4.75l-1.86-.94c-.1-.05-.21-.09-.31-.11-4.96-2.18-10.84-.14-13.35,4.75-.38.74-.09,1.65.66,2.03.74.38,1.65.09,2.03-.66,1.44-2.81,4.46-4.29,7.43-3.92l-10.85,21.28c-.38.75-.08,1.67.66,2.05.22.11.46.17.69.17.55,0,1.09-.3,1.36-.83l6.59-12.93,3.26,1.65c3.52,1.92,4.88,6.32,3.03,9.89-.39.75-.1,1.66.65,2.05.37.19.79.22,1.16.1s.7-.38.89-.75c2.45-4.71.93-10.45-3.34-13.39Z" style="fill: #0072bc; stroke-width: 0px;"/>
          <path d="m359.67,57.85l-5.07-5.07c-.44-.44-1.16-.44-1.6,0-.44.44-.44,1.16,0,1.6l3.17,3.17h-9.66c-.6,0-1.09.49-1.09,1.09s.49,1.09,1.09,1.09h9.66l-3.17,3.17c-.44.44-.44,1.16,0,1.6.22.22.51.33.8.33s.58-.11.8-.33l5.07-5.07c.21-.21.33-.5.33-.8s-.12-.59-.33-.8Z" style="fill: #0072bc; stroke-width: 0px;"/>
          <path d="m349.43,61.93c-.6,0-1.09.49-1.09,1.09v3.65c0,.6.49,1.09,1.09,1.09s1.09-.49,1.09-1.09v-3.65c0-.6-.49-1.09-1.09-1.09Z" style="fill: #0072bc; stroke-width: 0px;"/>
          <path d="m349.43,55.37c.6,0,1.09-.49,1.09-1.09v-3.65c0-.6-.49-1.09-1.09-1.09s-1.09.49-1.09,1.09v3.65c0,.6.49,1.09,1.09,1.09Z" style="fill: #0072bc; stroke-width: 0px;"/>
          <path d="m349.43,47.35c.6,0,1.09-.49,1.09-1.09v-3.65c0-.6-.49-1.09-1.09-1.09s-1.09.49-1.09,1.09v3.65c0,.6.49,1.09,1.09,1.09Z" style="fill: #0072bc; stroke-width: 0px;"/>
          <path d="m349.43,69.95c-.6,0-1.09.49-1.09,1.09v3.65c0,.6.49,1.09,1.09,1.09s1.09-.49,1.09-1.09v-3.65c0-.6-.49-1.09-1.09-1.09Z" style="fill: #0072bc; stroke-width: 0px;"/>
        </g>
        <g>
          <path d="m311.73,46.49c-.5-1.53-2.15-2.36-3.68-1.86-1.53.5-2.36,2.15-1.86,3.68.5,1.53,2.15,2.36,3.68,1.86,1.53-.5,2.36-2.15,1.86-3.68Z" style="fill: #0072bc; stroke-width: 0px;"/>
          <path d="m305.12,61.62l2.87-5.68c.88-1.74.18-3.87-1.56-4.75l-1.86-.94c-.1-.05-.21-.09-.31-.11-4.96-2.18-10.84-.14-13.35,4.75-.38.74-.09,1.65.66,2.03.74.38,1.65.09,2.03-.66,1.44-2.81,4.46-4.29,7.43-3.92l-10.85,21.28c-.38.75-.08,1.67.66,2.05.22.11.46.17.69.17.55,0,1.09-.3,1.36-.83l6.59-12.93,3.26,1.65c3.52,1.92,4.88,6.32,3.03,9.89-.39.75-.1,1.66.65,2.05.37.19.79.22,1.16.1s.7-.38.89-.75c2.45-4.71.93-10.45-3.34-13.39Z" style="fill: #0072bc; stroke-width: 0px;"/>
          <path d="m324.67,57.85l-5.07-5.07c-.44-.44-1.16-.44-1.6,0-.44.44-.44,1.16,0,1.6l3.17,3.17h-9.66c-.6,0-1.09.49-1.09,1.09s.49,1.09,1.09,1.09h9.66l-3.17,3.17c-.44.44-.44,1.16,0,1.6.22.22.51.33.8.33s.58-.11.8-.33l5.07-5.07c.21-.21.33-.5.33-.8s-.12-.59-.33-.8Z" style="fill: #0072bc; stroke-width: 0px;"/>
          <path d="m314.43,61.93c-.6,0-1.09.49-1.09,1.09v3.65c0,.6.49,1.09,1.09,1.09s1.09-.49,1.09-1.09v-3.65c0-.6-.49-1.09-1.09-1.09Z" style="fill: #0072bc; stroke-width: 0px;"/>
          <path d="m314.43,55.37c.6,0,1.09-.49,1.09-1.09v-3.65c0-.6-.49-1.09-1.09-1.09s-1.09.49-1.09,1.09v3.65c0,.6.49,1.09,1.09,1.09Z" style="fill: #0072bc; stroke-width: 0px;"/>
          <path d="m314.43,47.35c.6,0,1.09-.49,1.09-1.09v-3.65c0-.6-.49-1.09-1.09-1.09s-1.09.49-1.09,1.09v3.65c0,.6.49,1.09,1.09,1.09Z" style="fill: #0072bc; stroke-width: 0px;"/>
          <path d="m314.43,69.95c-.6,0-1.09.49-1.09,1.09v3.65c0,.6.49,1.09,1.09,1.09s1.09-.49,1.09-1.09v-3.65c0-.6-.49-1.09-1.09-1.09Z" style="fill: #0072bc; stroke-width: 0px;"/>
        </g>
        <g>
          <path d="m276.73,46.49c-.5-1.53-2.15-2.36-3.68-1.86-1.53.5-2.36,2.15-1.86,3.68.5,1.53,2.15,2.36,3.68,1.86,1.53-.5,2.36-2.15,1.86-3.68Z" style="fill: #0072bc; stroke-width: 0px;"/>
          <path d="m270.12,61.62l2.87-5.68c.88-1.74.18-3.87-1.56-4.75l-1.86-.94c-.1-.05-.21-.09-.31-.11-4.96-2.18-10.84-.14-13.35,4.75-.38.74-.09,1.65.66,2.03.74.38,1.65.09,2.03-.66,1.44-2.81,4.46-4.29,7.43-3.92l-10.85,21.28c-.38.75-.08,1.67.66,2.05.22.11.46.17.69.17.55,0,1.09-.3,1.36-.83l6.59-12.93,3.26,1.65c3.52,1.92,4.88,6.32,3.03,9.89-.39.75-.1,1.66.65,2.05.37.19.79.22,1.16.1s.7-.38.89-.75c2.45-4.71.93-10.45-3.34-13.39Z" style="fill: #0072bc; stroke-width: 0px;"/>
          <path d="m289.67,57.85l-5.07-5.07c-.44-.44-1.16-.44-1.6,0-.44.44-.44,1.16,0,1.6l3.17,3.17h-9.66c-.6,0-1.09.49-1.09,1.09s.49,1.09,1.09,1.09h9.66l-3.17,3.17c-.44.44-.44,1.16,0,1.6.22.22.51.33.8.33s.58-.11.8-.33l5.07-5.07c.21-.21.33-.5.33-.8s-.12-.59-.33-.8Z" style="fill: #0072bc; stroke-width: 0px;"/>
          <path d="m279.43,61.93c-.6,0-1.09.49-1.09,1.09v3.65c0,.6.49,1.09,1.09,1.09s1.09-.49,1.09-1.09v-3.65c0-.6-.49-1.09-1.09-1.09Z" style="fill: #0072bc; stroke-width: 0px;"/>
          <path d="m279.43,55.37c.6,0,1.09-.49,1.09-1.09v-3.65c0-.6-.49-1.09-1.09-1.09s-1.09.49-1.09,1.09v3.65c0,.6.49,1.09,1.09,1.09Z" style="fill: #0072bc; stroke-width: 0px;"/>
          <path d="m279.43,47.35c.6,0,1.09-.49,1.09-1.09v-3.65c0-.6-.49-1.09-1.09-1.09s-1.09.49-1.09,1.09v3.65c0,.6.49,1.09,1.09,1.09Z" style="fill: #0072bc; stroke-width: 0px;"/>
          <path d="m279.43,69.95c-.6,0-1.09.49-1.09,1.09v3.65c0,.6.49,1.09,1.09,1.09s1.09-.49,1.09-1.09v-3.65c0-.6-.49-1.09-1.09-1.09Z" style="fill: #0072bc; stroke-width: 0px;"/>
        </g>
        <g>
          <path d="m241.73,46.49c-.5-1.53-2.15-2.36-3.68-1.86-1.53.5-2.36,2.15-1.86,3.68.5,1.53,2.15,2.36,3.68,1.86,1.53-.5,2.36-2.15,1.86-3.68Z" style="fill: #0072bc; stroke-width: 0px;"/>
          <path d="m235.12,61.62l2.87-5.68c.88-1.74.18-3.87-1.56-4.75l-1.86-.94c-.1-.05-.21-.09-.31-.11-4.96-2.18-10.84-.14-13.35,4.75-.38.74-.09,1.65.66,2.03.74.38,1.65.09,2.03-.66,1.44-2.81,4.46-4.29,7.43-3.92l-10.85,21.28c-.38.75-.08,1.67.66,2.05.22.11.46.17.69.17.55,0,1.09-.3,1.36-.83l6.59-12.93,3.26,1.65c3.52,1.92,4.88,6.32,3.03,9.89-.39.75-.1,1.66.65,2.05.37.19.79.22,1.16.1s.7-.38.89-.75c2.45-4.71.93-10.45-3.34-13.39Z" style="fill: #0072bc; stroke-width: 0px;"/>
          <path d="m254.67,57.85l-5.07-5.07c-.44-.44-1.16-.44-1.6,0-.44.44-.44,1.16,0,1.6l3.17,3.17h-9.66c-.6,0-1.09.49-1.09,1.09s.49,1.09,1.09,1.09h9.66l-3.17,3.17c-.44.44-.44,1.16,0,1.6.22.22.51.33.8.33s.58-.11.8-.33l5.07-5.07c.21-.21.33-.5.33-.8s-.12-.59-.33-.8Z" style="fill: #0072bc; stroke-width: 0px;"/>
          <path d="m244.43,61.93c-.6,0-1.09.49-1.09,1.09v3.65c0,.6.49,1.09,1.09,1.09s1.09-.49,1.09-1.09v-3.65c0-.6-.49-1.09-1.09-1.09Z" style="fill: #0072bc; stroke-width: 0px;"/>
          <path d="m244.43,55.37c.6,0,1.09-.49,1.09-1.09v-3.65c0-.6-.49-1.09-1.09-1.09s-1.09.49-1.09,1.09v3.65c0,.6.49,1.09,1.09,1.09Z" style="fill: #0072bc; stroke-width: 0px;"/>
          <path d="m244.43,47.35c.6,0,1.09-.49,1.09-1.09v-3.65c0-.6-.49-1.09-1.09-1.09s-1.09.49-1.09,1.09v3.65c0,.6.49,1.09,1.09,1.09Z" style="fill: #0072bc; stroke-width: 0px;"/>
          <path d="m244.43,69.95c-.6,0-1.09.49-1.09,1.09v3.65c0,.6.49,1.09,1.09,1.09s1.09-.49,1.09-1.09v-3.65c0-.6-.49-1.09-1.09-1.09Z" style="fill: #0072bc; stroke-width: 0px;"/>
        </g>
        <g>
          <path d="m206.73,46.49c-.5-1.53-2.15-2.36-3.68-1.86-1.53.5-2.36,2.15-1.86,3.68.5,1.53,2.15,2.36,3.68,1.86,1.53-.5,2.36-2.15,1.86-3.68Z" style="fill: #0072bc; stroke-width: 0px;"/>
          <path d="m200.12,61.62l2.87-5.68c.88-1.74.18-3.87-1.56-4.75l-1.86-.94c-.1-.05-.21-.09-.31-.11-4.96-2.18-10.84-.14-13.35,4.75-.38.74-.09,1.65.66,2.03.74.38,1.65.09,2.03-.66,1.44-2.81,4.46-4.29,7.43-3.92l-10.85,21.28c-.38.75-.08,1.67.66,2.05.22.11.46.17.69.17.55,0,1.09-.3,1.36-.83l6.59-12.93,3.26,1.65c3.52,1.92,4.88,6.32,3.03,9.89-.39.75-.1,1.66.65,2.05.37.19.79.22,1.16.1s.7-.38.89-.75c2.45-4.71.93-10.45-3.34-13.39Z" style="fill: #0072bc; stroke-width: 0px;"/>
          <path d="m219.67,57.85l-5.07-5.07c-.44-.44-1.16-.44-1.6,0-.44.44-.44,1.16,0,1.6l3.17,3.17h-9.66c-.6,0-1.09.49-1.09,1.09s.49,1.09,1.09,1.09h9.66l-3.17,3.17c-.44.44-.44,1.16,0,1.6.22.22.51.33.8.33s.58-.11.8-.33l5.07-5.07c.21-.21.33-.5.33-.8s-.12-.59-.33-.8Z" style="fill: #0072bc; stroke-width: 0px;"/>
          <path d="m209.43,61.93c-.6,0-1.09.49-1.09,1.09v3.65c0,.6.49,1.09,1.09,1.09s1.09-.49,1.09-1.09v-3.65c0-.6-.49-1.09-1.09-1.09Z" style="fill: #0072bc; stroke-width: 0px;"/>
          <path d="m209.43,55.37c.6,0,1.09-.49,1.09-1.09v-3.65c0-.6-.49-1.09-1.09-1.09s-1.09.49-1.09,1.09v3.65c0,.6.49,1.09,1.09,1.09Z" style="fill: #0072bc; stroke-width: 0px;"/>
          <path d="m209.43,47.35c.6,0,1.09-.49,1.09-1.09v-3.65c0-.6-.49-1.09-1.09-1.09s-1.09.49-1.09,1.09v3.65c0,.6.49,1.09,1.09,1.09Z" style="fill: #0072bc; stroke-width: 0px;"/>
          <path d="m209.43,69.95c-.6,0-1.09.49-1.09,1.09v3.65c0,.6.49,1.09,1.09,1.09s1.09-.49,1.09-1.09v-3.65c0-.6-.49-1.09-1.09-1.09Z" style="fill: #0072bc; stroke-width: 0px;"/>
        </g>
        <g>
          <path d="m171.73,46.49c-.5-1.53-2.15-2.36-3.68-1.86-1.53.5-2.36,2.15-1.86,3.68.5,1.53,2.15,2.36,3.68,1.86,1.53-.5,2.36-2.15,1.86-3.68Z" style="fill: #0072bc; stroke-width: 0px;"/>
          <path d="m165.12,61.62l2.87-5.68c.88-1.74.18-3.87-1.56-4.75l-1.86-.94c-.1-.05-.21-.09-.31-.11-4.96-2.18-10.84-.14-13.35,4.75-.38.74-.09,1.65.66,2.03.74.38,1.65.09,2.03-.66,1.44-2.81,4.46-4.29,7.43-3.92l-10.85,21.28c-.38.75-.08,1.67.66,2.05.22.11.46.17.69.17.55,0,1.09-.3,1.36-.83l6.59-12.93,3.26,1.65c3.52,1.92,4.88,6.32,3.03,9.89-.39.75-.1,1.66.65,2.05.37.19.79.22,1.16.1s.7-.38.89-.75c2.45-4.71.93-10.45-3.34-13.39Z" style="fill: #0072bc; stroke-width: 0px;"/>
          <path d="m184.67,57.85l-5.07-5.07c-.44-.44-1.16-.44-1.6,0-.44.44-.44,1.16,0,1.6l3.17,3.17h-9.66c-.6,0-1.09.49-1.09,1.09s.49,1.09,1.09,1.09h9.66l-3.17,3.17c-.44.44-.44,1.16,0,1.6.22.22.51.33.8.33s.58-.11.8-.33l5.07-5.07c.21-.21.33-.5.33-.8s-.12-.59-.33-.8Z" style="fill: #0072bc; stroke-width: 0px;"/>
          <path d="m174.43,61.93c-.6,0-1.09.49-1.09,1.09v3.65c0,.6.49,1.09,1.09,1.09s1.09-.49,1.09-1.09v-3.65c0-.6-.49-1.09-1.09-1.09Z" style="fill: #0072bc; stroke-width: 0px;"/>
          <path d="m174.43,55.37c.6,0,1.09-.49,1.09-1.09v-3.65c0-.6-.49-1.09-1.09-1.09s-1.09.49-1.09,1.09v3.65c0,.6.49,1.09,1.09,1.09Z" style="fill: #0072bc; stroke-width: 0px;"/>
          <path d="m174.43,47.35c.6,0,1.09-.49,1.09-1.09v-3.65c0-.6-.49-1.09-1.09-1.09s-1.09.49-1.09,1.09v3.65c0,.6.49,1.09,1.09,1.09Z" style="fill: #0072bc; stroke-width: 0px;"/>
          <path d="m174.43,69.95c-.6,0-1.09.49-1.09,1.09v3.65c0,.6.49,1.09,1.09,1.09s1.09-.49,1.09-1.09v-3.65c0-.6-.49-1.09-1.09-1.09Z" style="fill: #0072bc; stroke-width: 0px;"/>
        </g>
        <g>
          <path d="m136.73,46.49c-.5-1.53-2.15-2.36-3.68-1.86-1.53.5-2.36,2.15-1.86,3.68.5,1.53,2.15,2.36,3.68,1.86,1.53-.5,2.36-2.15,1.86-3.68Z" style="fill: #0072bc; stroke-width: 0px;"/>
          <path d="m130.12,61.62l2.87-5.68c.88-1.74.18-3.87-1.56-4.75l-1.86-.94c-.1-.05-.21-.09-.31-.11-4.96-2.18-10.84-.14-13.35,4.75-.38.74-.09,1.65.66,2.03.74.38,1.65.09,2.03-.66,1.44-2.81,4.46-4.29,7.43-3.92l-10.85,21.28c-.38.75-.08,1.67.66,2.05.22.11.46.17.69.17.55,0,1.09-.3,1.36-.83l6.59-12.93,3.26,1.65c3.52,1.92,4.88,6.32,3.03,9.89-.39.75-.1,1.66.65,2.05.37.19.79.22,1.16.1s.7-.38.89-.75c2.45-4.71.93-10.45-3.34-13.39Z" style="fill: #0072bc; stroke-width: 0px;"/>
          <path d="m149.67,57.85l-5.07-5.07c-.44-.44-1.16-.44-1.6,0-.44.44-.44,1.16,0,1.6l3.17,3.17h-9.66c-.6,0-1.09.49-1.09,1.09s.49,1.09,1.09,1.09h9.66l-3.17,3.17c-.44.44-.44,1.16,0,1.6.22.22.51.33.8.33s.58-.11.8-.33l5.07-5.07c.21-.21.33-.5.33-.8s-.12-.59-.33-.8Z" style="fill: #0072bc; stroke-width: 0px;"/>
          <path d="m139.43,61.93c-.6,0-1.09.49-1.09,1.09v3.65c0,.6.49,1.09,1.09,1.09s1.09-.49,1.09-1.09v-3.65c0-.6-.49-1.09-1.09-1.09Z" style="fill: #0072bc; stroke-width: 0px;"/>
          <path d="m139.43,55.37c.6,0,1.09-.49,1.09-1.09v-3.65c0-.6-.49-1.09-1.09-1.09s-1.09.49-1.09,1.09v3.65c0,.6.49,1.09,1.09,1.09Z" style="fill: #0072bc; stroke-width: 0px;"/>
          <path d="m139.43,47.35c.6,0,1.09-.49,1.09-1.09v-3.65c0-.6-.49-1.09-1.09-1.09s-1.09.49-1.09,1.09v3.65c0,.6.49,1.09,1.09,1.09Z" style="fill: #0072bc; stroke-width: 0px;"/>
          <path d="m139.43,69.95c-.6,0-1.09.49-1.09,1.09v3.65c0,.6.49,1.09,1.09,1.09s1.09-.49,1.09-1.09v-3.65c0-.6-.49-1.09-1.09-1.09Z" style="fill: #0072bc; stroke-width: 0px;"/>
        </g>
        <g>
          <path d="m101.73,46.49c-.5-1.53-2.15-2.36-3.68-1.86-1.53.5-2.36,2.15-1.86,3.68.5,1.53,2.15,2.36,3.68,1.86,1.53-.5,2.36-2.15,1.86-3.68Z" style="fill: #0072bc; stroke-width: 0px;"/>
          <path d="m95.12,61.62l2.87-5.68c.88-1.74.18-3.87-1.56-4.75l-1.86-.94c-.1-.05-.21-.09-.31-.11-4.96-2.18-10.84-.14-13.35,4.75-.38.74-.09,1.65.66,2.03.74.38,1.65.09,2.03-.66,1.44-2.81,4.46-4.29,7.43-3.92l-10.85,21.28c-.38.75-.08,1.67.66,2.05.22.11.46.17.69.17.55,0,1.09-.3,1.36-.83l6.59-12.93,3.26,1.65c3.52,1.92,4.88,6.32,3.03,9.89-.39.75-.1,1.66.65,2.05.37.19.79.22,1.16.1s.7-.38.89-.75c2.45-4.71.93-10.45-3.34-13.39Z" style="fill: #0072bc; stroke-width: 0px;"/>
          <path d="m114.67,57.85l-5.07-5.07c-.44-.44-1.16-.44-1.6,0-.44.44-.44,1.16,0,1.6l3.17,3.17h-9.66c-.6,0-1.09.49-1.09,1.09s.49,1.09,1.09,1.09h9.66l-3.17,3.17c-.44.44-.44,1.16,0,1.6.22.22.51.33.8.33s.58-.11.8-.33l5.07-5.07c.21-.21.33-.5.33-.8s-.12-.59-.33-.8Z" style="fill: #0072bc; stroke-width: 0px;"/>
          <path d="m104.43,61.93c-.6,0-1.09.49-1.09,1.09v3.65c0,.6.49,1.09,1.09,1.09s1.09-.49,1.09-1.09v-3.65c0-.6-.49-1.09-1.09-1.09Z" style="fill: #0072bc; stroke-width: 0px;"/>
          <path d="m104.43,55.37c.6,0,1.09-.49,1.09-1.09v-3.65c0-.6-.49-1.09-1.09-1.09s-1.09.49-1.09,1.09v3.65c0,.6.49,1.09,1.09,1.09Z" style="fill: #0072bc; stroke-width: 0px;"/>
          <path d="m104.43,47.35c.6,0,1.09-.49,1.09-1.09v-3.65c0-.6-.49-1.09-1.09-1.09s-1.09.49-1.09,1.09v3.65c0,.6.49,1.09,1.09,1.09Z" style="fill: #0072bc; stroke-width: 0px;"/>
          <path d="m104.43,69.95c-.6,0-1.09.49-1.09,1.09v3.65c0,.6.49,1.09,1.09,1.09s1.09-.49,1.09-1.09v-3.65c0-.6-.49-1.09-1.09-1.09Z" style="fill: #0072bc; stroke-width: 0px;"/>
        </g>
        <g>
          <path d="m66.73,46.49c-.5-1.53-2.15-2.36-3.68-1.86-1.53.5-2.36,2.15-1.86,3.68.5,1.53,2.15,2.36,3.68,1.86,1.53-.5,2.36-2.15,1.86-3.68Z" style="fill: #0072bc; stroke-width: 0px;"/>
          <path d="m60.12,61.62l2.87-5.68c.88-1.74.18-3.87-1.56-4.75l-1.86-.94c-.1-.05-.21-.09-.31-.11-4.96-2.18-10.84-.14-13.35,4.75-.38.74-.09,1.65.66,2.03.74.38,1.65.09,2.03-.66,1.44-2.81,4.46-4.29,7.43-3.92l-10.85,21.28c-.38.75-.08,1.67.66,2.05.22.11.46.17.69.17.55,0,1.09-.3,1.36-.83l6.59-12.93,3.26,1.65c3.52,1.92,4.88,6.32,3.03,9.89-.39.75-.1,1.66.65,2.05.37.19.79.22,1.16.1s.7-.38.89-.75c2.45-4.71.93-10.45-3.34-13.39Z" style="fill: #0072bc; stroke-width: 0px;"/>
          <path d="m79.67,57.85l-5.07-5.07c-.44-.44-1.16-.44-1.6,0-.44.44-.44,1.16,0,1.6l3.17,3.17h-9.66c-.6,0-1.09.49-1.09,1.09s.49,1.09,1.09,1.09h9.66l-3.17,3.17c-.44.44-.44,1.16,0,1.6.22.22.51.33.8.33s.58-.11.8-.33l5.07-5.07c.21-.21.33-.5.33-.8s-.12-.59-.33-.8Z" style="fill: #0072bc; stroke-width: 0px;"/>
          <path d="m69.43,61.93c-.6,0-1.09.49-1.09,1.09v3.65c0,.6.49,1.09,1.09,1.09s1.09-.49,1.09-1.09v-3.65c0-.6-.49-1.09-1.09-1.09Z" style="fill: #0072bc; stroke-width: 0px;"/>
          <path d="m69.43,55.37c.6,0,1.09-.49,1.09-1.09v-3.65c0-.6-.49-1.09-1.09-1.09s-1.09.49-1.09,1.09v3.65c0,.6.49,1.09,1.09,1.09Z" style="fill: #0072bc; stroke-width: 0px;"/>
          <path d="m69.43,47.35c.6,0,1.09-.49,1.09-1.09v-3.65c0-.6-.49-1.09-1.09-1.09s-1.09.49-1.09,1.09v3.65c0,.6.49,1.09,1.09,1.09Z" style="fill: #0072bc; stroke-width: 0px;"/>
          <path d="m69.43,69.95c-.6,0-1.09.49-1.09,1.09v3.65c0,.6.49,1.09,1.09,1.09s1.09-.49,1.09-1.09v-3.65c0-.6-.49-1.09-1.09-1.09Z" style="fill: #0072bc; stroke-width: 0px;"/>
        </g>
      </g>
    </g>
  </g>
  <g id="_360" data-name="360">
    <g>
      <path d="m674.27,101.74c.32,0,.57.09.76.27.19.18.28.42.28.71v1.78h-11.9v-.98c0-.2.04-.41.13-.63.08-.22.22-.42.4-.59l5.27-5.28c.44-.45.83-.88,1.18-1.28.35-.41.64-.81.87-1.21.23-.4.41-.81.53-1.22.12-.41.19-.85.19-1.3,0-.42-.06-.78-.18-1.1-.12-.32-.29-.58-.51-.8-.22-.22-.48-.38-.79-.49-.31-.11-.65-.16-1.04-.16-.35,0-.68.05-.98.15s-.57.24-.8.42c-.23.18-.43.39-.59.63-.16.24-.28.5-.36.79-.14.37-.31.61-.53.73-.22.12-.53.15-.94.08l-1.56-.28c.12-.83.35-1.56.7-2.19.34-.63.77-1.15,1.29-1.57.52-.42,1.11-.74,1.78-.95s1.39-.32,2.15-.32,1.53.12,2.2.35,1.23.57,1.7,1c.47.43.84.95,1.1,1.56.26.61.4,1.28.4,2.03,0,.64-.09,1.23-.28,1.78-.19.54-.44,1.06-.76,1.56-.32.5-.69.98-1.11,1.44-.42.46-.87.94-1.33,1.42l-3.91,4c.38-.11.75-.2,1.12-.26.37-.06.73-.09,1.06-.09h4.45Z" style="fill: #506489; stroke-width: 0px;"/>
      <path d="m689.72,97.96v1.72c0,.16-.05.3-.16.41-.1.12-.25.17-.44.17h-1.58v4.24h-2.58v-4.24h-7.32c-.2,0-.38-.06-.53-.19-.15-.12-.25-.28-.29-.46l-.31-1.5,8.22-10.98h2.81v10.82h2.18Zm-4.76,0v-5.68c0-.54.04-1.13.11-1.78l-5.39,7.45h5.28Z" style="fill: #506489; stroke-width: 0px;"/>
      <path d="m699.27,91.35c0,.66-.11,1.25-.33,1.78-.22.53-.51.98-.88,1.35s-.8.66-1.28.86c-.49.2-1,.3-1.52.3-.58,0-1.11-.1-1.6-.3-.49-.2-.91-.49-1.27-.86-.36-.37-.63-.82-.83-1.35s-.3-1.12-.3-1.78.1-1.28.3-1.82c.2-.54.48-1,.83-1.38.36-.38.78-.67,1.27-.87.49-.2,1.02-.31,1.6-.31s1.11.1,1.6.31.92.49,1.28.87.64.84.84,1.38c.2.54.3,1.15.3,1.82Zm5.77-3.73c.1-.12.23-.23.37-.32.14-.1.34-.14.59-.14h2.16l-12.89,16.91c-.1.13-.23.23-.37.32-.14.08-.32.13-.53.13h-2.21l12.88-16.88Zm-8.05,3.73c0-.46-.05-.85-.14-1.16s-.22-.56-.37-.76c-.16-.19-.34-.33-.55-.41s-.44-.13-.68-.13-.46.04-.67.13-.39.22-.53.41c-.15.19-.27.44-.35.76s-.13.7-.13,1.16.04.82.13,1.12c.09.3.21.54.35.73.15.18.33.32.53.4.21.08.43.12.67.12s.47-.04.68-.12c.21-.08.4-.21.55-.4.16-.18.28-.43.37-.73.09-.3.14-.67.14-1.12Zm12.08,9.07c0,.66-.11,1.25-.33,1.78-.22.53-.51.98-.88,1.35-.37.37-.8.66-1.28.86-.49.2-1,.31-1.52.31-.58,0-1.11-.1-1.6-.31-.49-.2-.91-.49-1.27-.86-.36-.37-.63-.82-.83-1.35-.2-.53-.3-1.12-.3-1.78s.1-1.28.3-1.82c.2-.54.48-1,.83-1.38.36-.38.78-.67,1.27-.87.49-.2,1.02-.31,1.6-.31s1.11.1,1.6.31c.49.2.92.49,1.27.87.36.38.64.84.84,1.38s.31,1.15.31,1.82Zm-2.29,0c0-.46-.04-.85-.13-1.16s-.21-.56-.37-.76c-.16-.19-.34-.33-.55-.41s-.44-.13-.68-.13-.46.04-.67.13-.39.22-.54.41-.27.44-.35.76-.13.7-.13,1.16.04.82.13,1.13c.08.3.2.55.35.73.15.18.33.32.54.4.21.08.43.12.67.12s.47-.04.68-.12c.21-.08.4-.21.55-.4.16-.18.28-.43.37-.73.09-.3.13-.68.13-1.13Z" style="fill: #506489; stroke-width: 0px;"/>
      <path d="m580.86,114.02c.26-.55.57-.99.94-1.3.37-.31.83-.47,1.37-.47.17,0,.33.02.49.06.16.04.3.1.42.18l-.1,1.06c-.03.13-.11.2-.24.2-.08,0-.18-.02-.33-.05-.14-.03-.31-.05-.49-.05-.26,0-.48.04-.68.11s-.38.19-.54.33c-.16.15-.3.33-.42.54-.13.22-.24.46-.34.74v5.12h-1.43v-8.1h.82c.15,0,.26.03.32.09.06.06.1.16.12.3l.1,1.23Z" style="fill: #222; stroke-width: 0px;"/>
      <path d="m591.58,119.37c-.18.21-.39.4-.63.56s-.51.29-.79.39c-.28.1-.57.18-.87.23-.3.05-.59.08-.89.08-.56,0-1.08-.09-1.55-.28-.47-.19-.88-.47-1.22-.83-.34-.37-.61-.82-.8-1.36s-.29-1.16-.29-1.86c0-.57.09-1.09.26-1.58.17-.49.42-.92.75-1.28.33-.36.72-.64,1.19-.85.47-.21,1-.31,1.58-.31.49,0,.93.08,1.35.24.41.16.77.4,1.07.7.3.31.54.69.71,1.14s.26.96.26,1.54c0,.22-.02.37-.07.45-.05.07-.14.11-.27.11h-5.42c.02.51.09.96.21,1.34s.3.69.52.95c.22.25.49.44.8.57.31.12.66.19,1.04.19.36,0,.67-.04.92-.12.26-.08.48-.17.67-.27.19-.1.34-.19.47-.27s.23-.12.32-.12c.12,0,.21.05.27.14l.4.52Zm-1.15-3.8c0-.33-.05-.63-.14-.91-.09-.27-.23-.51-.41-.71-.18-.2-.4-.35-.65-.46s-.55-.16-.87-.16c-.68,0-1.22.2-1.62.6s-.64.95-.74,1.65h4.43Z" style="fill: #222; stroke-width: 0px;"/>
      <path d="m593.9,120.5v-6.89l-.9-.1c-.11-.03-.2-.07-.28-.12-.07-.06-.11-.14-.11-.24v-.58h1.28v-.78c0-.46.07-.88.2-1.24.13-.36.32-.66.56-.91.24-.25.54-.44.88-.56.34-.13.73-.19,1.15-.19.36,0,.7.05,1,.16l-.03.71c-.01.13-.08.2-.21.21s-.31.02-.52.02c-.25,0-.47.03-.67.1-.2.06-.37.17-.52.31s-.25.33-.33.57c-.08.23-.12.53-.12.87v.74h2.34v1.03h-2.29v6.91h-1.43Z" style="fill: #222; stroke-width: 0px;"/>
      <path d="m605.64,112.4v8.1h-.85c-.2,0-.33-.1-.38-.3l-.11-.87c-.35.39-.75.7-1.18.94s-.94.36-1.5.36c-.44,0-.83-.07-1.17-.22-.34-.15-.62-.35-.85-.62-.23-.27-.4-.59-.52-.97-.11-.38-.17-.8-.17-1.26v-5.17h1.42v5.17c0,.61.14,1.09.42,1.42.28.34.71.5,1.28.5.42,0,.81-.1,1.18-.3.37-.2.7-.48,1.01-.83v-5.97h1.42Z" style="fill: #222; stroke-width: 0px;"/>
      <path d="m614.74,112.72v.53c0,.18-.11.29-.34.34l-.92.12c.18.35.27.74.27,1.17,0,.39-.08.75-.23,1.08-.15.32-.36.6-.63.83-.27.23-.59.41-.96.53-.37.12-.78.18-1.22.18-.38,0-.74-.04-1.07-.14-.17.11-.3.22-.39.34-.09.12-.14.24-.14.36,0,.19.08.34.24.44.16.1.36.17.62.21.26.04.55.07.88.08.33.01.66.03,1.01.05s.68.07,1.01.12.62.15.88.29.46.32.62.55c.16.23.24.54.24.91,0,.35-.09.68-.26,1.01-.17.33-.42.61-.75.87-.33.25-.72.46-1.2.61-.47.15-1,.23-1.6.23s-1.11-.06-1.55-.18c-.44-.12-.81-.27-1.1-.47-.29-.2-.51-.43-.66-.68s-.22-.53-.22-.81c0-.4.12-.74.38-1.02.25-.28.59-.5,1.03-.66-.24-.11-.43-.25-.57-.43-.14-.18-.21-.42-.21-.72,0-.12.02-.24.06-.36s.11-.25.2-.38.2-.24.32-.36c.13-.11.28-.21.45-.3-.4-.22-.71-.52-.94-.89s-.34-.8-.34-1.29c0-.4.08-.75.23-1.08.15-.32.36-.6.64-.82.27-.23.6-.4.97-.52.38-.12.79-.18,1.24-.18.35,0,.68.04.98.12.3.08.58.19.83.34h2.2Zm-1.45,8.22c0-.2-.06-.36-.17-.48-.11-.12-.26-.22-.45-.29s-.41-.12-.66-.15c-.25-.03-.52-.05-.8-.07-.28-.02-.56-.03-.85-.05-.29-.02-.57-.04-.83-.08-.3.14-.54.31-.73.52-.19.21-.28.46-.28.74,0,.18.05.35.14.51.09.16.24.29.43.41.19.11.43.21.72.27.29.07.63.1,1.03.1s.73-.03,1.03-.1.56-.17.77-.3c.21-.13.37-.28.48-.46.11-.18.17-.37.17-.58Zm-2.57-4.4c.29,0,.54-.04.76-.12s.4-.19.55-.34.26-.32.34-.52c.08-.2.11-.42.11-.66,0-.5-.15-.89-.45-1.18-.3-.29-.74-.44-1.31-.44s-1.02.15-1.32.44c-.3.29-.45.69-.45,1.18,0,.24.04.46.12.66.08.2.19.37.34.52s.33.26.55.34.47.12.76.12Z" style="fill: #222; stroke-width: 0px;"/>
      <path d="m622.66,119.37c-.18.21-.39.4-.63.56s-.51.29-.79.39c-.28.1-.57.18-.87.23-.3.05-.59.08-.89.08-.56,0-1.08-.09-1.55-.28-.47-.19-.88-.47-1.22-.83-.34-.37-.61-.82-.8-1.36s-.29-1.16-.29-1.86c0-.57.09-1.09.26-1.58.17-.49.42-.92.75-1.28.33-.36.72-.64,1.19-.85.47-.21,1-.31,1.58-.31.49,0,.93.08,1.35.24.41.16.77.4,1.07.7.3.31.54.69.71,1.14s.26.96.26,1.54c0,.22-.02.37-.07.45-.05.07-.14.11-.27.11h-5.42c.02.51.09.96.21,1.34s.3.69.52.95c.22.25.49.44.8.57.31.12.66.19,1.04.19.36,0,.67-.04.92-.12.26-.08.48-.17.67-.27.19-.1.34-.19.47-.27s.23-.12.32-.12c.12,0,.21.05.27.14l.4.52Zm-1.15-3.8c0-.33-.05-.63-.14-.91-.09-.27-.23-.51-.41-.71-.18-.2-.4-.35-.65-.46s-.55-.16-.87-.16c-.68,0-1.22.2-1.62.6s-.64.95-.74,1.65h4.43Z" style="fill: #222; stroke-width: 0px;"/>
      <path d="m631.11,119.37c-.18.21-.39.4-.63.56s-.51.29-.79.39c-.28.1-.57.18-.87.23-.3.05-.59.08-.89.08-.56,0-1.08-.09-1.55-.28-.47-.19-.88-.47-1.22-.83-.34-.37-.61-.82-.8-1.36s-.29-1.16-.29-1.86c0-.57.09-1.09.26-1.58.17-.49.42-.92.75-1.28.33-.36.72-.64,1.19-.85.47-.21,1-.31,1.58-.31.49,0,.93.08,1.35.24.41.16.77.4,1.07.7.3.31.54.69.71,1.14s.26.96.26,1.54c0,.22-.02.37-.07.45-.05.07-.14.11-.27.11h-5.42c.02.51.09.96.21,1.34s.3.69.52.95c.22.25.49.44.8.57.31.12.66.19,1.04.19.36,0,.67-.04.92-.12.26-.08.48-.17.67-.27.19-.1.34-.19.47-.27s.23-.12.32-.12c.12,0,.21.05.27.14l.4.52Zm-1.15-3.8c0-.33-.05-.63-.14-.91-.09-.27-.23-.51-.41-.71-.18-.2-.4-.35-.65-.46s-.55-.16-.87-.16c-.68,0-1.22.2-1.62.6s-.64.95-.74,1.65h4.43Z" style="fill: #222; stroke-width: 0px;"/>
      <path d="m637.7,113.73c-.06.12-.16.18-.3.18-.08,0-.17-.03-.27-.09-.1-.06-.22-.12-.37-.2-.15-.07-.32-.14-.52-.2-.2-.06-.44-.09-.72-.09-.24,0-.46.03-.65.09-.19.06-.36.15-.49.25-.14.11-.24.23-.31.37-.07.14-.11.29-.11.46,0,.21.06.38.18.52.12.14.28.26.48.36.2.1.42.19.67.27.25.08.51.16.77.25.26.09.52.19.77.29.25.11.47.24.67.4.2.16.36.36.48.59s.18.51.18.84c0,.37-.07.72-.2,1.04-.13.32-.33.59-.59.82s-.58.42-.96.55c-.38.13-.82.2-1.31.2-.57,0-1.08-.09-1.54-.28-.46-.18-.85-.42-1.17-.71l.34-.54c.04-.07.09-.12.15-.16.06-.04.13-.06.22-.06.1,0,.2.04.3.11s.24.16.39.25c.15.09.34.17.56.25s.49.11.82.11c.28,0,.52-.04.73-.11.21-.07.38-.17.52-.29s.24-.26.31-.42c.07-.16.1-.33.1-.51,0-.22-.06-.41-.18-.56-.12-.15-.28-.27-.48-.38s-.42-.19-.68-.27c-.25-.08-.51-.16-.78-.24-.26-.08-.52-.18-.78-.29-.25-.11-.48-.25-.68-.41-.2-.17-.36-.37-.48-.61s-.18-.54-.18-.88c0-.31.06-.61.19-.89s.32-.54.56-.75c.25-.22.55-.39.9-.52.36-.13.76-.19,1.22-.19.53,0,1.01.08,1.44.25.42.17.79.4,1.1.69l-.32.52Z" style="fill: #222; stroke-width: 0px;"/>
      <path d="m645.36,114.02c.26-.55.57-.99.94-1.3.37-.31.83-.47,1.37-.47.17,0,.33.02.49.06.16.04.3.1.42.18l-.1,1.06c-.03.13-.11.2-.24.2-.08,0-.18-.02-.33-.05-.14-.03-.31-.05-.49-.05-.26,0-.48.04-.68.11s-.38.19-.54.33c-.16.15-.3.33-.42.54-.13.22-.24.46-.34.74v5.12h-1.43v-8.1h.82c.15,0,.26.03.32.09.06.06.1.16.12.3l.1,1.23Z" style="fill: #222; stroke-width: 0px;"/>
      <path d="m656.08,119.37c-.18.21-.39.4-.63.56s-.51.29-.79.39c-.28.1-.57.18-.87.23-.3.05-.59.08-.89.08-.56,0-1.08-.09-1.55-.28-.47-.19-.88-.47-1.22-.83-.34-.37-.61-.82-.8-1.36s-.29-1.16-.29-1.86c0-.57.09-1.09.26-1.58.17-.49.42-.92.75-1.28.33-.36.72-.64,1.19-.85.47-.21,1-.31,1.58-.31.49,0,.93.08,1.35.24.41.16.77.4,1.07.7.3.31.54.69.71,1.14s.26.96.26,1.54c0,.22-.02.37-.07.45-.05.07-.14.11-.27.11h-5.42c.02.51.09.96.21,1.34s.3.69.52.95c.22.25.49.44.8.57.31.12.66.19,1.04.19.36,0,.67-.04.92-.12.26-.08.48-.17.67-.27.19-.1.34-.19.47-.27s.23-.12.32-.12c.12,0,.21.05.27.14l.4.52Zm-1.15-3.8c0-.33-.05-.63-.14-.91-.09-.27-.23-.51-.41-.71-.18-.2-.4-.35-.65-.46s-.55-.16-.87-.16c-.68,0-1.22.2-1.62.6s-.64.95-.74,1.65h4.43Z" style="fill: #222; stroke-width: 0px;"/>
      <path d="m660.38,120.63c-.64,0-1.13-.18-1.48-.54-.34-.36-.52-.87-.52-1.54v-4.96h-.98c-.08,0-.16-.02-.22-.08s-.09-.13-.09-.24v-.57l1.33-.17.33-2.5c.02-.08.05-.15.11-.2.06-.05.13-.08.22-.08h.72v2.79h2.34v1.03h-2.34v4.86c0,.34.08.59.25.76.17.17.38.25.64.25.15,0,.28-.02.39-.06.11-.04.2-.08.28-.13s.15-.09.2-.13c.06-.04.11-.06.15-.06.07,0,.14.05.2.14l.42.68c-.25.23-.54.41-.89.54-.35.13-.7.2-1.07.2Z" style="fill: #222; stroke-width: 0px;"/>
      <path d="m670.3,112.4v8.1h-.85c-.2,0-.33-.1-.38-.3l-.11-.87c-.35.39-.75.7-1.18.94-.44.24-.94.36-1.5.36-.44,0-.83-.07-1.17-.22-.34-.15-.62-.35-.85-.62s-.4-.59-.52-.97c-.12-.38-.17-.8-.17-1.26v-5.17h1.42v5.17c0,.61.14,1.09.42,1.42.28.34.71.5,1.28.5.42,0,.82-.1,1.18-.3.37-.2.7-.48,1.01-.83v-5.97h1.42Z" style="fill: #222; stroke-width: 0px;"/>
      <path d="m673.9,114.02c.26-.55.57-.99.94-1.3.37-.31.83-.47,1.37-.47.17,0,.33.02.49.06.16.04.3.1.42.18l-.1,1.06c-.03.13-.11.2-.24.2-.08,0-.18-.02-.33-.05-.14-.03-.31-.05-.49-.05-.26,0-.48.04-.68.11s-.38.19-.54.33c-.16.15-.3.33-.42.54-.13.22-.24.46-.34.74v5.12h-1.43v-8.1h.82c.15,0,.26.03.32.09.06.06.1.16.12.3l.1,1.23Z" style="fill: #222; stroke-width: 0px;"/>
      <path d="m679.72,113.57c.18-.2.36-.38.56-.54.2-.16.41-.3.63-.41s.46-.2.7-.26c.25-.06.52-.09.8-.09.44,0,.83.07,1.17.22.34.15.62.35.85.62.23.27.4.59.52.97.12.38.18.8.18,1.26v5.16h-1.43v-5.16c0-.61-.14-1.09-.42-1.43s-.71-.51-1.28-.51c-.42,0-.81.1-1.18.3s-.7.48-1.01.82v5.97h-1.43v-8.1h.86c.2,0,.33.1.38.3l.11.88Z" style="fill: #222; stroke-width: 0px;"/>
      <path d="m693.88,119.37c-.18.21-.39.4-.63.56s-.51.29-.79.39c-.28.1-.57.18-.87.23-.3.05-.59.08-.89.08-.56,0-1.08-.09-1.55-.28-.47-.19-.88-.47-1.22-.83-.34-.37-.61-.82-.8-1.36s-.29-1.16-.29-1.86c0-.57.09-1.09.26-1.58.17-.49.42-.92.75-1.28.33-.36.72-.64,1.19-.85.47-.21,1-.31,1.58-.31.49,0,.93.08,1.35.24.41.16.77.4,1.07.7.3.31.54.69.71,1.14s.26.96.26,1.54c0,.22-.02.37-.07.45-.05.07-.14.11-.27.11h-5.42c.02.51.09.96.21,1.34s.3.69.52.95c.22.25.49.44.8.57.31.12.66.19,1.04.19.36,0,.67-.04.92-.12.26-.08.48-.17.67-.27.19-.1.34-.19.47-.27s.23-.12.32-.12c.12,0,.21.05.27.14l.4.52Zm-1.15-3.8c0-.33-.05-.63-.14-.91-.09-.27-.23-.51-.41-.71-.18-.2-.4-.35-.65-.46s-.55-.16-.87-.16c-.68,0-1.22.2-1.62.6s-.64.95-.74,1.65h4.43Z" style="fill: #222; stroke-width: 0px;"/>
      <path d="m702.33,119.37c-.18.21-.39.4-.63.56s-.51.29-.79.39c-.28.1-.57.18-.87.23-.3.05-.59.08-.89.08-.56,0-1.08-.09-1.55-.28-.47-.19-.88-.47-1.22-.83-.34-.37-.61-.82-.8-1.36s-.29-1.16-.29-1.86c0-.57.09-1.09.26-1.58.17-.49.42-.92.75-1.28.33-.36.72-.64,1.19-.85.47-.21,1-.31,1.58-.31.49,0,.93.08,1.35.24.41.16.77.4,1.07.7.3.31.54.69.71,1.14s.26.96.26,1.54c0,.22-.02.37-.07.45-.05.07-.14.11-.27.11h-5.42c.02.51.09.96.21,1.34s.3.69.52.95c.22.25.49.44.8.57.31.12.66.19,1.04.19.36,0,.67-.04.92-.12.26-.08.48-.17.67-.27.19-.1.34-.19.47-.27s.23-.12.32-.12c.12,0,.21.05.27.14l.4.52Zm-1.15-3.8c0-.33-.05-.63-.14-.91-.09-.27-.23-.51-.41-.71-.18-.2-.4-.35-.65-.46s-.55-.16-.87-.16c-.68,0-1.22.2-1.62.6s-.64.95-.74,1.65h4.43Z" style="fill: #222; stroke-width: 0px;"/>
      <path d="m708.92,113.73c-.06.12-.16.18-.3.18-.08,0-.17-.03-.27-.09-.1-.06-.22-.12-.37-.2-.15-.07-.32-.14-.52-.2-.2-.06-.44-.09-.72-.09-.24,0-.46.03-.65.09-.19.06-.36.15-.49.25-.14.11-.24.23-.31.37-.07.14-.11.29-.11.46,0,.21.06.38.18.52.12.14.28.26.48.36.2.1.42.19.67.27.25.08.51.16.77.25.26.09.52.19.77.29.25.11.47.24.67.4.2.16.36.36.48.59s.18.51.18.84c0,.37-.07.72-.2,1.04-.13.32-.33.59-.59.82s-.58.42-.96.55c-.38.13-.82.2-1.31.2-.57,0-1.08-.09-1.54-.28-.46-.18-.85-.42-1.17-.71l.34-.54c.04-.07.09-.12.15-.16.06-.04.13-.06.22-.06.1,0,.2.04.3.11s.24.16.39.25c.15.09.34.17.56.25s.49.11.82.11c.28,0,.52-.04.73-.11.21-.07.38-.17.52-.29s.24-.26.31-.42c.07-.16.1-.33.1-.51,0-.22-.06-.41-.18-.56-.12-.15-.28-.27-.48-.38s-.42-.19-.68-.27c-.25-.08-.51-.16-.78-.24-.26-.08-.52-.18-.78-.29-.25-.11-.48-.25-.68-.41-.2-.17-.36-.37-.48-.61s-.18-.54-.18-.88c0-.31.06-.61.19-.89s.32-.54.56-.75c.25-.22.55-.39.9-.52.36-.13.76-.19,1.22-.19.53,0,1.01.08,1.44.25.42.17.79.4,1.1.69l-.32.52Z" style="fill: #222; stroke-width: 0px;"/>
    </g>
  </g>
</svg>