<?xml version="1.0" encoding="UTF-8"?>
<svg xmlns="http://www.w3.org/2000/svg" xmlns:xlink="http://www.w3.org/1999/xlink" viewBox="0 0 540 120">
  <defs>
    <clipPath id="clippath">
      <rect x="408.17" y="38.08" width="121.83" height="37.14" style="fill: none; stroke-width: 0px;"/>
    </clipPath>
    <clipPath id="clippath-1">
      <rect x="10" y="38.08" width="397.95" height="37.14" style="fill: none; stroke-width: 0px;"/>
    </clipPath>
    <clipPath id="clippath-2">
      <rect x="-370" y="35.08" width="340" height="48.57" style="fill: none; stroke-width: 0px;"/>
    </clipPath>
  </defs>
  <g id="_540" data-name="540">
    <g>
      <g style="clip-path: url(#clippath);">
        <g>
          <path d="m31.07,62.88s.04,0,.06,0c2.69,0,4.87-2.19,4.87-4.87s-2.19-4.87-4.87-4.87h-5.15c-.45,0-.81.36-.81.81s.36.81.81.81h5.15c1.79,0,3.25,1.46,3.25,3.25s-1.46,3.25-3.25,3.25c-.03,0-.06,0-.09,0-.02,0-.04,0-.06,0h-1.95l2.25-2.25c.32-.32.32-.83,0-1.15-.16-.16-.37-.24-.57-.24s-.42.08-.57.24l-3.64,3.64c-.15.15-.24.36-.24.57s.09.42.24.57l3.64,3.64c.32.32.83.32,1.15,0,.32-.32.32-.83,0-1.15l-2.25-2.25h1.95s.06,0,.09,0Z" style="fill: #506489; stroke-width: 0px;"/>
          <path d="m26.14,47.59c-.37-1.14-1.6-1.75-2.74-1.38-1.14.37-1.75,1.6-1.38,2.74.37,1.14,1.6,1.75,2.74,1.38,1.14-.37,1.75-1.6,1.38-2.74Z" style="fill: #506489; stroke-width: 0px;"/>
          <path d="m21.23,58.83l2.13-4.22c.65-1.3.13-2.88-1.16-3.53l-1.38-.7c-.08-.04-.15-.06-.23-.08-3.69-1.62-8.06-.11-9.91,3.53-.28.55-.06,1.23.49,1.51.55.28,1.23.06,1.51-.49,1.07-2.09,3.32-3.19,5.52-2.91l-8.06,15.81c-.28.56-.06,1.24.49,1.52.16.08.34.12.51.12.41,0,.81-.23,1.01-.62l4.9-9.6,2.42,1.22c2.62,1.42,3.63,4.69,2.25,7.35-.29.55-.07,1.24.48,1.52.28.14.59.16.86.07.28-.09.52-.28.66-.56,1.82-3.5.69-7.76-2.48-9.95Z" style="fill: #506489; stroke-width: 0px;"/>
        </g>
        <g>
          <path d="m525.07,62.88s.04,0,.06,0c2.69,0,4.87-2.19,4.87-4.87s-2.19-4.87-4.87-4.87h-5.15c-.45,0-.81.36-.81.81s.36.81.81.81h5.15c1.79,0,3.25,1.46,3.25,3.25s-1.46,3.25-3.25,3.25c-.03,0-.06,0-.09,0-.02,0-.04,0-.06,0h-1.95l2.25-2.25c.32-.32.32-.83,0-1.15-.16-.16-.37-.24-.57-.24s-.42.08-.57.24l-3.64,3.64c-.15.15-.24.36-.24.57s.09.42.24.57l3.64,3.64c.32.32.83.32,1.15,0,.32-.32.32-.83,0-1.15l-2.25-2.25h1.95s.06,0,.09,0Z" style="fill: #506489; stroke-width: 0px;"/>
          <path d="m520.14,47.59c-.37-1.14-1.6-1.75-2.74-1.38-1.14.37-1.75,1.6-1.38,2.74.37,1.14,1.6,1.75,2.74,1.38,1.14-.37,1.75-1.6,1.38-2.74Z" style="fill: #506489; stroke-width: 0px;"/>
          <path d="m515.23,58.83l2.13-4.22c.65-1.3.13-2.88-1.16-3.53l-1.38-.7c-.08-.04-.15-.06-.23-.08-3.69-1.62-8.06-.11-9.91,3.53-.28.55-.06,1.23.49,1.51.55.28,1.23.06,1.51-.49,1.07-2.09,3.32-3.19,5.52-2.91l-8.06,15.81c-.28.56-.06,1.24.49,1.52.16.08.34.12.51.12.41,0,.81-.23,1.01-.62l4.9-9.6,2.42,1.22c2.62,1.42,3.63,4.69,2.25,7.35-.29.55-.07,1.24.48,1.52.28.14.59.16.86.07.28-.09.52-.28.66-.56,1.82-3.5.69-7.76-2.48-9.95Z" style="fill: #506489; stroke-width: 0px;"/>
        </g>
        <g>
          <path d="m499.07,62.88s.04,0,.06,0c2.69,0,4.87-2.19,4.87-4.87s-2.19-4.87-4.87-4.87h-5.15c-.45,0-.81.36-.81.81s.36.81.81.81h5.15c1.79,0,3.25,1.46,3.25,3.25s-1.46,3.25-3.25,3.25c-.03,0-.06,0-.09,0-.02,0-.04,0-.06,0h-1.95l2.25-2.25c.32-.32.32-.83,0-1.15-.16-.16-.37-.24-.57-.24s-.42.08-.57.24l-3.64,3.64c-.15.15-.24.36-.24.57s.09.42.24.57l3.64,3.64c.32.32.83.32,1.15,0,.32-.32.32-.83,0-1.15l-2.25-2.25h1.95s.06,0,.09,0Z" style="fill: #506489; stroke-width: 0px;"/>
          <path d="m494.14,47.59c-.37-1.14-1.6-1.75-2.74-1.38-1.14.37-1.75,1.6-1.38,2.74.37,1.14,1.6,1.75,2.74,1.38,1.14-.37,1.75-1.6,1.38-2.74Z" style="fill: #506489; stroke-width: 0px;"/>
          <path d="m489.23,58.83l2.13-4.22c.65-1.3.13-2.88-1.16-3.53l-1.38-.7c-.08-.04-.15-.06-.23-.08-3.69-1.62-8.06-.11-9.91,3.53-.28.55-.06,1.23.49,1.51.55.28,1.23.06,1.51-.49,1.07-2.09,3.32-3.19,5.52-2.91l-8.06,15.81c-.28.56-.06,1.24.49,1.52.16.08.34.12.51.12.41,0,.81-.23,1.01-.62l4.9-9.6,2.42,1.22c2.62,1.42,3.63,4.69,2.25,7.35-.29.55-.07,1.24.48,1.52.28.14.59.16.86.07.28-.09.52-.28.66-.56,1.82-3.5.69-7.76-2.48-9.95Z" style="fill: #506489; stroke-width: 0px;"/>
        </g>
        <g>
          <path d="m473.07,62.88s.04,0,.06,0c2.69,0,4.87-2.19,4.87-4.87s-2.19-4.87-4.87-4.87h-5.15c-.45,0-.81.36-.81.81s.36.81.81.81h5.15c1.79,0,3.25,1.46,3.25,3.25s-1.46,3.25-3.25,3.25c-.03,0-.06,0-.09,0-.02,0-.04,0-.06,0h-1.95l2.25-2.25c.32-.32.32-.83,0-1.15-.16-.16-.37-.24-.57-.24s-.42.08-.57.24l-3.64,3.64c-.15.15-.24.36-.24.57s.09.42.24.57l3.64,3.64c.32.32.83.32,1.15,0,.32-.32.32-.83,0-1.15l-2.25-2.25h1.95s.06,0,.09,0Z" style="fill: #506489; stroke-width: 0px;"/>
          <path d="m468.14,47.59c-.37-1.14-1.6-1.75-2.74-1.38-1.14.37-1.75,1.6-1.38,2.74.37,1.14,1.6,1.75,2.74,1.38,1.14-.37,1.75-1.6,1.38-2.74Z" style="fill: #506489; stroke-width: 0px;"/>
          <path d="m463.23,58.83l2.13-4.22c.65-1.3.13-2.88-1.16-3.53l-1.38-.7c-.08-.04-.15-.06-.23-.08-3.69-1.62-8.06-.11-9.91,3.53-.28.55-.06,1.23.49,1.51.55.28,1.23.06,1.51-.49,1.07-2.09,3.32-3.19,5.52-2.91l-8.06,15.81c-.28.56-.06,1.24.49,1.52.16.08.34.12.51.12.41,0,.81-.23,1.01-.62l4.9-9.6,2.42,1.22c2.62,1.42,3.63,4.69,2.25,7.35-.29.55-.07,1.24.48,1.52.28.14.59.16.86.07.28-.09.52-.28.66-.56,1.82-3.5.69-7.76-2.48-9.95Z" style="fill: #506489; stroke-width: 0px;"/>
        </g>
        <g>
          <path d="m447.07,62.88s.04,0,.06,0c2.69,0,4.87-2.19,4.87-4.87s-2.19-4.87-4.87-4.87h-5.15c-.45,0-.81.36-.81.81s.36.81.81.81h5.15c1.79,0,3.25,1.46,3.25,3.25s-1.46,3.25-3.25,3.25c-.03,0-.06,0-.09,0-.02,0-.04,0-.06,0h-1.95l2.25-2.25c.32-.32.32-.83,0-1.15-.16-.16-.37-.24-.57-.24s-.42.08-.57.24l-3.64,3.64c-.15.15-.24.36-.24.57s.09.42.24.57l3.64,3.64c.32.32.83.32,1.15,0,.32-.32.32-.83,0-1.15l-2.25-2.25h1.95s.06,0,.09,0Z" style="fill: #506489; stroke-width: 0px;"/>
          <path d="m442.14,47.59c-.37-1.14-1.6-1.75-2.74-1.38-1.14.37-1.75,1.6-1.38,2.74.37,1.14,1.6,1.75,2.74,1.38,1.14-.37,1.75-1.6,1.38-2.74Z" style="fill: #506489; stroke-width: 0px;"/>
          <path d="m437.23,58.83l2.13-4.22c.65-1.3.13-2.88-1.16-3.53l-1.38-.7c-.08-.04-.15-.06-.23-.08-3.69-1.62-8.06-.11-9.91,3.53-.28.55-.06,1.23.49,1.51.55.28,1.23.06,1.51-.49,1.07-2.09,3.32-3.19,5.52-2.91l-8.06,15.81c-.28.56-.06,1.24.49,1.52.16.08.34.12.51.12.41,0,.81-.23,1.01-.62l4.9-9.6,2.42,1.22c2.62,1.42,3.63,4.69,2.25,7.35-.29.55-.07,1.24.48,1.52.28.14.59.16.86.07.28-.09.52-.28.66-.56,1.82-3.5.69-7.76-2.48-9.95Z" style="fill: #506489; stroke-width: 0px;"/>
        </g>
        <g>
          <path d="m421.07,62.88s.04,0,.06,0c2.69,0,4.87-2.19,4.87-4.87s-2.19-4.87-4.87-4.87h-5.15c-.45,0-.81.36-.81.81s.36.81.81.81h5.15c1.79,0,3.25,1.46,3.25,3.25s-1.46,3.25-3.25,3.25c-.03,0-.06,0-.09,0-.02,0-.04,0-.06,0h-1.95l2.25-2.25c.32-.32.32-.83,0-1.15-.16-.16-.37-.24-.57-.24s-.42.08-.57.24l-3.64,3.64c-.15.15-.24.36-.24.57s.09.42.24.57l3.64,3.64c.32.32.83.32,1.15,0,.32-.32.32-.83,0-1.15l-2.25-2.25h1.95s.06,0,.09,0Z" style="fill: #506489; stroke-width: 0px;"/>
          <path d="m416.14,47.59c-.37-1.14-1.6-1.75-2.74-1.38-1.14.37-1.75,1.6-1.38,2.74.37,1.14,1.6,1.75,2.74,1.38,1.14-.37,1.75-1.6,1.38-2.74Z" style="fill: #506489; stroke-width: 0px;"/>
          <path d="m411.23,58.83l2.13-4.22c.65-1.3.13-2.88-1.16-3.53l-1.38-.7c-.08-.04-.15-.06-.23-.08-3.69-1.62-8.06-.11-9.91,3.53-.28.55-.06,1.23.49,1.51.55.28,1.23.06,1.51-.49,1.07-2.09,3.32-3.19,5.52-2.91l-8.06,15.81c-.28.56-.06,1.24.49,1.52.16.08.34.12.51.12.41,0,.81-.23,1.01-.62l4.9-9.6,2.42,1.22c2.62,1.42,3.63,4.69,2.25,7.35-.29.55-.07,1.24.48,1.52.28.14.59.16.86.07.28-.09.52-.28.66-.56,1.82-3.5.69-7.76-2.48-9.95Z" style="fill: #506489; stroke-width: 0px;"/>
        </g>
        <g>
          <path d="m395.07,62.88s.04,0,.06,0c2.69,0,4.87-2.19,4.87-4.87s-2.19-4.87-4.87-4.87h-5.15c-.45,0-.81.36-.81.81s.36.81.81.81h5.15c1.79,0,3.25,1.46,3.25,3.25s-1.46,3.25-3.25,3.25c-.03,0-.06,0-.09,0-.02,0-.04,0-.06,0h-1.95l2.25-2.25c.32-.32.32-.83,0-1.15-.16-.16-.37-.24-.57-.24s-.42.08-.57.24l-3.64,3.64c-.15.15-.24.36-.24.57s.09.42.24.57l3.64,3.64c.32.32.83.32,1.15,0,.32-.32.32-.83,0-1.15l-2.25-2.25h1.95s.06,0,.09,0Z" style="fill: #506489; stroke-width: 0px;"/>
          <path d="m390.14,47.59c-.37-1.14-1.6-1.75-2.74-1.38-1.14.37-1.75,1.6-1.38,2.74.37,1.14,1.6,1.75,2.74,1.38,1.14-.37,1.75-1.6,1.38-2.74Z" style="fill: #506489; stroke-width: 0px;"/>
          <path d="m385.23,58.83l2.13-4.22c.65-1.3.13-2.88-1.16-3.53l-1.38-.7c-.08-.04-.15-.06-.23-.08-3.69-1.62-8.06-.11-9.91,3.53-.28.55-.06,1.23.49,1.51.55.28,1.23.06,1.51-.49,1.07-2.09,3.32-3.19,5.52-2.91l-8.06,15.81c-.28.56-.06,1.24.49,1.52.16.08.34.12.51.12.41,0,.81-.23,1.01-.62l4.9-9.6,2.42,1.22c2.62,1.42,3.63,4.69,2.25,7.35-.29.55-.07,1.24.48,1.52.28.14.59.16.86.07.28-.09.52-.28.66-.56,1.82-3.5.69-7.76-2.48-9.95Z" style="fill: #506489; stroke-width: 0px;"/>
        </g>
        <g>
          <path d="m369.07,62.88s.04,0,.06,0c2.69,0,4.87-2.19,4.87-4.87s-2.19-4.87-4.87-4.87h-5.15c-.45,0-.81.36-.81.81s.36.81.81.81h5.15c1.79,0,3.25,1.46,3.25,3.25s-1.46,3.25-3.25,3.25c-.03,0-.06,0-.09,0-.02,0-.04,0-.06,0h-1.95l2.25-2.25c.32-.32.32-.83,0-1.15-.16-.16-.37-.24-.57-.24s-.42.08-.57.24l-3.64,3.64c-.15.15-.24.36-.24.57s.09.42.24.57l3.64,3.64c.32.32.83.32,1.15,0,.32-.32.32-.83,0-1.15l-2.25-2.25h1.95s.06,0,.09,0Z" style="fill: #506489; stroke-width: 0px;"/>
          <path d="m364.14,47.59c-.37-1.14-1.6-1.75-2.74-1.38-1.14.37-1.75,1.6-1.38,2.74.37,1.14,1.6,1.75,2.74,1.38,1.14-.37,1.75-1.6,1.38-2.74Z" style="fill: #506489; stroke-width: 0px;"/>
          <path d="m359.23,58.83l2.13-4.22c.65-1.3.13-2.88-1.16-3.53l-1.38-.7c-.08-.04-.15-.06-.23-.08-3.69-1.62-8.06-.11-9.91,3.53-.28.55-.06,1.23.49,1.51.55.28,1.23.06,1.51-.49,1.07-2.09,3.32-3.19,5.52-2.91l-8.06,15.81c-.28.56-.06,1.24.49,1.52.16.08.34.12.51.12.41,0,.81-.23,1.01-.62l4.9-9.6,2.42,1.22c2.62,1.42,3.63,4.69,2.25,7.35-.29.55-.07,1.24.48,1.52.28.14.59.16.86.07.28-.09.52-.28.66-.56,1.82-3.5.69-7.76-2.48-9.95Z" style="fill: #506489; stroke-width: 0px;"/>
        </g>
        <g>
          <path d="m343.07,62.88s.04,0,.06,0c2.69,0,4.87-2.19,4.87-4.87s-2.19-4.87-4.87-4.87h-5.15c-.45,0-.81.36-.81.81s.36.81.81.81h5.15c1.79,0,3.25,1.46,3.25,3.25s-1.46,3.25-3.25,3.25c-.03,0-.06,0-.09,0-.02,0-.04,0-.06,0h-1.95l2.25-2.25c.32-.32.32-.83,0-1.15-.16-.16-.37-.24-.57-.24s-.42.08-.57.24l-3.64,3.64c-.15.15-.24.36-.24.57s.09.42.24.57l3.64,3.64c.32.32.83.32,1.15,0,.32-.32.32-.83,0-1.15l-2.25-2.25h1.95s.06,0,.09,0Z" style="fill: #506489; stroke-width: 0px;"/>
          <path d="m338.14,47.59c-.37-1.14-1.6-1.75-2.74-1.38-1.14.37-1.75,1.6-1.38,2.74.37,1.14,1.6,1.75,2.74,1.38,1.14-.37,1.75-1.6,1.38-2.74Z" style="fill: #506489; stroke-width: 0px;"/>
          <path d="m333.23,58.83l2.13-4.22c.65-1.3.13-2.88-1.16-3.53l-1.38-.7c-.08-.04-.15-.06-.23-.08-3.69-1.62-8.06-.11-9.91,3.53-.28.55-.06,1.23.49,1.51.55.28,1.23.06,1.51-.49,1.07-2.09,3.32-3.19,5.52-2.91l-8.06,15.81c-.28.56-.06,1.24.49,1.52.16.08.34.12.51.12.41,0,.81-.23,1.01-.62l4.9-9.6,2.42,1.22c2.62,1.42,3.63,4.69,2.25,7.35-.29.55-.07,1.24.48,1.52.28.14.59.16.86.07.28-.09.52-.28.66-.56,1.82-3.5.69-7.76-2.48-9.95Z" style="fill: #506489; stroke-width: 0px;"/>
        </g>
        <g>
          <path d="m317.07,62.88s.04,0,.06,0c2.69,0,4.87-2.19,4.87-4.87s-2.19-4.87-4.87-4.87h-5.15c-.45,0-.81.36-.81.81s.36.81.81.81h5.15c1.79,0,3.25,1.46,3.25,3.25s-1.46,3.25-3.25,3.25c-.03,0-.06,0-.09,0-.02,0-.04,0-.06,0h-1.95l2.25-2.25c.32-.32.32-.83,0-1.15-.16-.16-.37-.24-.57-.24s-.42.08-.57.24l-3.64,3.64c-.15.15-.24.36-.24.57s.09.42.24.57l3.64,3.64c.32.32.83.32,1.15,0,.32-.32.32-.83,0-1.15l-2.25-2.25h1.95s.06,0,.09,0Z" style="fill: #506489; stroke-width: 0px;"/>
          <path d="m312.14,47.59c-.37-1.14-1.6-1.75-2.74-1.38-1.14.37-1.75,1.6-1.38,2.74.37,1.14,1.6,1.75,2.74,1.38,1.14-.37,1.75-1.6,1.38-2.74Z" style="fill: #506489; stroke-width: 0px;"/>
          <path d="m307.23,58.83l2.13-4.22c.65-1.3.13-2.88-1.16-3.53l-1.38-.7c-.08-.04-.15-.06-.23-.08-3.69-1.62-8.06-.11-9.91,3.53-.28.55-.06,1.23.49,1.51.55.28,1.23.06,1.51-.49,1.07-2.09,3.32-3.19,5.52-2.91l-8.06,15.81c-.28.56-.06,1.24.49,1.52.16.08.34.12.51.12.41,0,.81-.23,1.01-.62l4.9-9.6,2.42,1.22c2.62,1.42,3.63,4.69,2.25,7.35-.29.55-.07,1.24.48,1.52.28.14.59.16.86.07.28-.09.52-.28.66-.56,1.82-3.5.69-7.76-2.48-9.95Z" style="fill: #506489; stroke-width: 0px;"/>
        </g>
        <g>
          <path d="m291.07,62.88s.04,0,.06,0c2.69,0,4.87-2.19,4.87-4.87s-2.19-4.87-4.87-4.87h-5.15c-.45,0-.81.36-.81.81s.36.81.81.81h5.15c1.79,0,3.25,1.46,3.25,3.25s-1.46,3.25-3.25,3.25c-.03,0-.06,0-.09,0-.02,0-.04,0-.06,0h-1.95l2.25-2.25c.32-.32.32-.83,0-1.15-.16-.16-.37-.24-.57-.24s-.42.08-.57.24l-3.64,3.64c-.15.15-.24.36-.24.57s.09.42.24.57l3.64,3.64c.32.32.83.32,1.15,0,.32-.32.32-.83,0-1.15l-2.25-2.25h1.95s.06,0,.09,0Z" style="fill: #506489; stroke-width: 0px;"/>
          <path d="m286.14,47.59c-.37-1.14-1.6-1.75-2.74-1.38-1.14.37-1.75,1.6-1.38,2.74.37,1.14,1.6,1.75,2.74,1.38,1.14-.37,1.75-1.6,1.38-2.74Z" style="fill: #506489; stroke-width: 0px;"/>
          <path d="m281.23,58.83l2.13-4.22c.65-1.3.13-2.88-1.16-3.53l-1.38-.7c-.08-.04-.15-.06-.23-.08-3.69-1.62-8.06-.11-9.91,3.53-.28.55-.06,1.23.49,1.51.55.28,1.23.06,1.51-.49,1.07-2.09,3.32-3.19,5.52-2.91l-8.06,15.81c-.28.56-.06,1.24.49,1.52.16.08.34.12.51.12.41,0,.81-.23,1.01-.62l4.9-9.6,2.42,1.22c2.62,1.42,3.63,4.69,2.25,7.35-.29.55-.07,1.24.48,1.52.28.14.59.16.86.07.28-.09.52-.28.66-.56,1.82-3.5.69-7.76-2.48-9.95Z" style="fill: #506489; stroke-width: 0px;"/>
        </g>
        <g>
          <path d="m265.07,62.88s.04,0,.06,0c2.69,0,4.87-2.19,4.87-4.87s-2.19-4.87-4.87-4.87h-5.15c-.45,0-.81.36-.81.81s.36.81.81.81h5.15c1.79,0,3.25,1.46,3.25,3.25s-1.46,3.25-3.25,3.25c-.03,0-.06,0-.09,0-.02,0-.04,0-.06,0h-1.95l2.25-2.25c.32-.32.32-.83,0-1.15-.16-.16-.37-.24-.57-.24s-.42.08-.57.24l-3.64,3.64c-.15.15-.24.36-.24.57s.09.42.24.57l3.64,3.64c.32.32.83.32,1.15,0,.32-.32.32-.83,0-1.15l-2.25-2.25h1.95s.06,0,.09,0Z" style="fill: #506489; stroke-width: 0px;"/>
          <path d="m260.14,47.59c-.37-1.14-1.6-1.75-2.74-1.38-1.14.37-1.75,1.6-1.38,2.74.37,1.14,1.6,1.75,2.74,1.38,1.14-.37,1.75-1.6,1.38-2.74Z" style="fill: #506489; stroke-width: 0px;"/>
          <path d="m255.23,58.83l2.13-4.22c.65-1.3.13-2.88-1.16-3.53l-1.38-.7c-.08-.04-.15-.06-.23-.08-3.69-1.62-8.06-.11-9.91,3.53-.28.55-.06,1.23.49,1.51.55.28,1.23.06,1.51-.49,1.07-2.09,3.32-3.19,5.52-2.91l-8.06,15.81c-.28.56-.06,1.24.49,1.52.16.08.34.12.51.12.41,0,.81-.23,1.01-.62l4.9-9.6,2.42,1.22c2.62,1.42,3.63,4.69,2.25,7.35-.29.55-.07,1.24.48,1.52.28.14.59.16.86.07.28-.09.52-.28.66-.56,1.82-3.5.69-7.76-2.48-9.95Z" style="fill: #506489; stroke-width: 0px;"/>
        </g>
        <g>
          <path d="m239.07,62.88s.04,0,.06,0c2.69,0,4.87-2.19,4.87-4.87s-2.19-4.87-4.87-4.87h-5.15c-.45,0-.81.36-.81.81s.36.81.81.81h5.15c1.79,0,3.25,1.46,3.25,3.25s-1.46,3.25-3.25,3.25c-.03,0-.06,0-.09,0-.02,0-.04,0-.06,0h-1.95l2.25-2.25c.32-.32.32-.83,0-1.15-.16-.16-.37-.24-.57-.24s-.42.08-.57.24l-3.64,3.64c-.15.15-.24.36-.24.57s.09.42.24.57l3.64,3.64c.32.32.83.32,1.15,0,.32-.32.32-.83,0-1.15l-2.25-2.25h1.95s.06,0,.09,0Z" style="fill: #506489; stroke-width: 0px;"/>
          <path d="m234.14,47.59c-.37-1.14-1.6-1.75-2.74-1.38-1.14.37-1.75,1.6-1.38,2.74.37,1.14,1.6,1.75,2.74,1.38,1.14-.37,1.75-1.6,1.38-2.74Z" style="fill: #506489; stroke-width: 0px;"/>
          <path d="m229.23,58.83l2.13-4.22c.65-1.3.13-2.88-1.16-3.53l-1.38-.7c-.08-.04-.15-.06-.23-.08-3.69-1.62-8.06-.11-9.91,3.53-.28.55-.06,1.23.49,1.51.55.28,1.23.06,1.51-.49,1.07-2.09,3.32-3.19,5.52-2.91l-8.06,15.81c-.28.56-.06,1.24.49,1.52.16.08.34.12.51.12.41,0,.81-.23,1.01-.62l4.9-9.6,2.42,1.22c2.62,1.42,3.63,4.69,2.25,7.35-.29.55-.07,1.24.48,1.52.28.14.59.16.86.07.28-.09.52-.28.66-.56,1.82-3.5.69-7.76-2.48-9.95Z" style="fill: #506489; stroke-width: 0px;"/>
        </g>
        <g>
          <path d="m213.07,62.88s.04,0,.06,0c2.69,0,4.87-2.19,4.87-4.87s-2.19-4.87-4.87-4.87h-5.15c-.45,0-.81.36-.81.81s.36.81.81.81h5.15c1.79,0,3.25,1.46,3.25,3.25s-1.46,3.25-3.25,3.25c-.03,0-.06,0-.09,0-.02,0-.04,0-.06,0h-1.95l2.25-2.25c.32-.32.32-.83,0-1.15-.16-.16-.37-.24-.57-.24s-.42.08-.57.24l-3.64,3.64c-.15.15-.24.36-.24.57s.09.42.24.57l3.64,3.64c.32.32.83.32,1.15,0,.32-.32.32-.83,0-1.15l-2.25-2.25h1.95s.06,0,.09,0Z" style="fill: #506489; stroke-width: 0px;"/>
          <path d="m208.14,47.59c-.37-1.14-1.6-1.75-2.74-1.38-1.14.37-1.75,1.6-1.38,2.74.37,1.14,1.6,1.75,2.74,1.38,1.14-.37,1.75-1.6,1.38-2.74Z" style="fill: #506489; stroke-width: 0px;"/>
          <path d="m203.23,58.83l2.13-4.22c.65-1.3.13-2.88-1.16-3.53l-1.38-.7c-.08-.04-.15-.06-.23-.08-3.69-1.62-8.06-.11-9.91,3.53-.28.55-.06,1.23.49,1.51.55.28,1.23.06,1.51-.49,1.07-2.09,3.32-3.19,5.52-2.91l-8.06,15.81c-.28.56-.06,1.24.49,1.52.16.08.34.12.51.12.41,0,.81-.23,1.01-.62l4.9-9.6,2.42,1.22c2.62,1.42,3.63,4.69,2.25,7.35-.29.55-.07,1.24.48,1.52.28.14.59.16.86.07.28-.09.52-.28.66-.56,1.82-3.5.69-7.76-2.48-9.95Z" style="fill: #506489; stroke-width: 0px;"/>
        </g>
        <g>
          <path d="m187.07,62.88s.04,0,.06,0c2.69,0,4.87-2.19,4.87-4.87s-2.19-4.87-4.87-4.87h-5.15c-.45,0-.81.36-.81.81s.36.81.81.81h5.15c1.79,0,3.25,1.46,3.25,3.25s-1.46,3.25-3.25,3.25c-.03,0-.06,0-.09,0-.02,0-.04,0-.06,0h-1.95l2.25-2.25c.32-.32.32-.83,0-1.15-.16-.16-.37-.24-.57-.24s-.42.08-.57.24l-3.64,3.64c-.15.15-.24.36-.24.57s.09.42.24.57l3.64,3.64c.32.32.83.32,1.15,0,.32-.32.32-.83,0-1.15l-2.25-2.25h1.95s.06,0,.09,0Z" style="fill: #506489; stroke-width: 0px;"/>
          <path d="m182.14,47.59c-.37-1.14-1.6-1.75-2.74-1.38-1.14.37-1.75,1.6-1.38,2.74.37,1.14,1.6,1.75,2.74,1.38,1.14-.37,1.75-1.6,1.38-2.74Z" style="fill: #506489; stroke-width: 0px;"/>
          <path d="m177.23,58.83l2.13-4.22c.65-1.3.13-2.88-1.16-3.53l-1.38-.7c-.08-.04-.15-.06-.23-.08-3.69-1.62-8.06-.11-9.91,3.53-.28.55-.06,1.23.49,1.51.55.28,1.23.06,1.51-.49,1.07-2.09,3.32-3.19,5.52-2.91l-8.06,15.81c-.28.56-.06,1.24.49,1.52.16.08.34.12.51.12.41,0,.81-.23,1.01-.62l4.9-9.6,2.42,1.22c2.62,1.42,3.63,4.69,2.25,7.35-.29.55-.07,1.24.48,1.52.28.14.59.16.86.07.28-.09.52-.28.66-.56,1.82-3.5.69-7.76-2.48-9.95Z" style="fill: #506489; stroke-width: 0px;"/>
        </g>
        <g>
          <path d="m161.07,62.88s.04,0,.06,0c2.69,0,4.87-2.19,4.87-4.87s-2.19-4.87-4.87-4.87h-5.15c-.45,0-.81.36-.81.81s.36.81.81.81h5.15c1.79,0,3.25,1.46,3.25,3.25s-1.46,3.25-3.25,3.25c-.03,0-.06,0-.09,0-.02,0-.04,0-.06,0h-1.95l2.25-2.25c.32-.32.32-.83,0-1.15-.16-.16-.37-.24-.57-.24s-.42.08-.57.24l-3.64,3.64c-.15.15-.24.36-.24.57s.09.42.24.57l3.64,3.64c.32.32.83.32,1.15,0,.32-.32.32-.83,0-1.15l-2.25-2.25h1.95s.06,0,.09,0Z" style="fill: #506489; stroke-width: 0px;"/>
          <path d="m156.14,47.59c-.37-1.14-1.6-1.75-2.74-1.38-1.14.37-1.75,1.6-1.38,2.74.37,1.14,1.6,1.75,2.74,1.38,1.14-.37,1.75-1.6,1.38-2.74Z" style="fill: #506489; stroke-width: 0px;"/>
          <path d="m151.23,58.83l2.13-4.22c.65-1.3.13-2.88-1.16-3.53l-1.38-.7c-.08-.04-.15-.06-.23-.08-3.69-1.62-8.06-.11-9.91,3.53-.28.55-.06,1.23.49,1.51.55.28,1.23.06,1.51-.49,1.07-2.09,3.32-3.19,5.52-2.91l-8.06,15.81c-.28.56-.06,1.24.49,1.52.16.08.34.12.51.12.41,0,.81-.23,1.01-.62l4.9-9.6,2.42,1.22c2.62,1.42,3.63,4.69,2.25,7.35-.29.55-.07,1.24.48,1.52.28.14.59.16.86.07.28-.09.52-.28.66-.56,1.82-3.5.69-7.76-2.48-9.95Z" style="fill: #506489; stroke-width: 0px;"/>
        </g>
        <g>
          <path d="m135.07,62.88s.04,0,.06,0c2.69,0,4.87-2.19,4.87-4.87s-2.19-4.87-4.87-4.87h-5.15c-.45,0-.81.36-.81.81s.36.81.81.81h5.15c1.79,0,3.25,1.46,3.25,3.25s-1.46,3.25-3.25,3.25c-.03,0-.06,0-.09,0-.02,0-.04,0-.06,0h-1.95l2.25-2.25c.32-.32.32-.83,0-1.15-.16-.16-.37-.24-.57-.24s-.42.08-.57.24l-3.64,3.64c-.15.15-.24.36-.24.57s.09.42.24.57l3.64,3.64c.32.32.83.32,1.15,0,.32-.32.32-.83,0-1.15l-2.25-2.25h1.95s.06,0,.09,0Z" style="fill: #506489; stroke-width: 0px;"/>
          <path d="m130.14,47.59c-.37-1.14-1.6-1.75-2.74-1.38-1.14.37-1.75,1.6-1.38,2.74.37,1.14,1.6,1.75,2.74,1.38,1.14-.37,1.75-1.6,1.38-2.74Z" style="fill: #506489; stroke-width: 0px;"/>
          <path d="m125.23,58.83l2.13-4.22c.65-1.3.13-2.88-1.16-3.53l-1.38-.7c-.08-.04-.15-.06-.23-.08-3.69-1.62-8.06-.11-9.91,3.53-.28.55-.06,1.23.49,1.51.55.28,1.23.06,1.51-.49,1.07-2.09,3.32-3.19,5.52-2.91l-8.06,15.81c-.28.56-.06,1.24.49,1.52.16.08.34.12.51.12.41,0,.81-.23,1.01-.62l4.9-9.6,2.42,1.22c2.62,1.42,3.63,4.69,2.25,7.35-.29.55-.07,1.24.48,1.52.28.14.59.16.86.07.28-.09.52-.28.66-.56,1.82-3.5.69-7.76-2.48-9.95Z" style="fill: #506489; stroke-width: 0px;"/>
        </g>
        <g>
          <path d="m109.07,62.88s.04,0,.06,0c2.69,0,4.87-2.19,4.87-4.87s-2.19-4.87-4.87-4.87h-5.15c-.45,0-.81.36-.81.81s.36.81.81.81h5.15c1.79,0,3.25,1.46,3.25,3.25s-1.46,3.25-3.25,3.25c-.03,0-.06,0-.09,0-.02,0-.04,0-.06,0h-1.95l2.25-2.25c.32-.32.32-.83,0-1.15-.16-.16-.37-.24-.57-.24s-.42.08-.57.24l-3.64,3.64c-.15.15-.24.36-.24.57s.09.42.24.57l3.64,3.64c.32.32.83.32,1.15,0,.32-.32.32-.83,0-1.15l-2.25-2.25h1.95s.06,0,.09,0Z" style="fill: #506489; stroke-width: 0px;"/>
          <path d="m104.14,47.59c-.37-1.14-1.6-1.75-2.74-1.38-1.14.37-1.75,1.6-1.38,2.74.37,1.14,1.6,1.75,2.74,1.38,1.14-.37,1.75-1.6,1.38-2.74Z" style="fill: #506489; stroke-width: 0px;"/>
          <path d="m99.23,58.83l2.13-4.22c.65-1.3.13-2.88-1.16-3.53l-1.38-.7c-.08-.04-.15-.06-.23-.08-3.69-1.62-8.06-.11-9.91,3.53-.28.55-.06,1.23.49,1.51.55.28,1.23.06,1.51-.49,1.07-2.09,3.32-3.19,5.52-2.91l-8.06,15.81c-.28.56-.06,1.24.49,1.52.16.08.34.12.51.12.41,0,.81-.23,1.01-.62l4.9-9.6,2.42,1.22c2.62,1.42,3.63,4.69,2.25,7.35-.29.55-.07,1.24.48,1.52.28.14.59.16.86.07.28-.09.52-.28.66-.56,1.82-3.5.69-7.76-2.48-9.95Z" style="fill: #506489; stroke-width: 0px;"/>
        </g>
        <g>
          <path d="m83.07,62.88s.04,0,.06,0c2.69,0,4.87-2.19,4.87-4.87s-2.19-4.87-4.87-4.87h-5.15c-.45,0-.81.36-.81.81s.36.81.81.81h5.15c1.79,0,3.25,1.46,3.25,3.25s-1.46,3.25-3.25,3.25c-.03,0-.06,0-.09,0-.02,0-.04,0-.06,0h-1.95l2.25-2.25c.32-.32.32-.83,0-1.15-.16-.16-.37-.24-.57-.24s-.42.08-.57.24l-3.64,3.64c-.15.15-.24.36-.24.57s.09.42.24.57l3.64,3.64c.32.32.83.32,1.15,0,.32-.32.32-.83,0-1.15l-2.25-2.25h1.95s.06,0,.09,0Z" style="fill: #506489; stroke-width: 0px;"/>
          <path d="m78.14,47.59c-.37-1.14-1.6-1.75-2.74-1.38-1.14.37-1.75,1.6-1.38,2.74.37,1.14,1.6,1.75,2.74,1.38,1.14-.37,1.75-1.6,1.38-2.74Z" style="fill: #506489; stroke-width: 0px;"/>
          <path d="m73.23,58.83l2.13-4.22c.65-1.3.13-2.88-1.16-3.53l-1.38-.7c-.08-.04-.15-.06-.23-.08-3.69-1.62-8.06-.11-9.91,3.53-.28.55-.06,1.23.49,1.51.55.28,1.23.06,1.51-.49,1.07-2.09,3.32-3.19,5.52-2.91l-8.06,15.81c-.28.56-.06,1.24.49,1.52.16.08.34.12.51.12.41,0,.81-.23,1.01-.62l4.9-9.6,2.42,1.22c2.62,1.42,3.63,4.69,2.25,7.35-.29.55-.07,1.24.48,1.52.28.14.59.16.86.07.28-.09.52-.28.66-.56,1.82-3.5.69-7.76-2.48-9.95Z" style="fill: #506489; stroke-width: 0px;"/>
        </g>
        <g>
          <path d="m57.07,62.88s.04,0,.06,0c2.69,0,4.87-2.19,4.87-4.87s-2.19-4.87-4.87-4.87h-5.15c-.45,0-.81.36-.81.81s.36.81.81.81h5.15c1.79,0,3.25,1.46,3.25,3.25s-1.46,3.25-3.25,3.25c-.03,0-.06,0-.09,0-.02,0-.04,0-.06,0h-1.95l2.25-2.25c.32-.32.32-.83,0-1.15-.16-.16-.37-.24-.57-.24s-.42.08-.57.24l-3.64,3.64c-.15.15-.24.36-.24.57s.09.42.24.57l3.64,3.64c.32.32.83.32,1.15,0,.32-.32.32-.83,0-1.15l-2.25-2.25h1.95s.06,0,.09,0Z" style="fill: #506489; stroke-width: 0px;"/>
          <path d="m52.14,47.59c-.37-1.14-1.6-1.75-2.74-1.38-1.14.37-1.75,1.6-1.38,2.74.37,1.14,1.6,1.75,2.74,1.38,1.14-.37,1.75-1.6,1.38-2.74Z" style="fill: #506489; stroke-width: 0px;"/>
          <path d="m47.23,58.83l2.13-4.22c.65-1.3.13-2.88-1.16-3.53l-1.38-.7c-.08-.04-.15-.06-.23-.08-3.69-1.62-8.06-.11-9.91,3.53-.28.55-.06,1.23.49,1.51.55.28,1.23.06,1.51-.49,1.07-2.09,3.32-3.19,5.52-2.91l-8.06,15.81c-.28.56-.06,1.24.49,1.52.16.08.34.12.51.12.41,0,.81-.23,1.01-.62l4.9-9.6,2.42,1.22c2.62,1.42,3.63,4.69,2.25,7.35-.29.55-.07,1.24.48,1.52.28.14.59.16.86.07.28-.09.52-.28.66-.56,1.82-3.5.69-7.76-2.48-9.95Z" style="fill: #506489; stroke-width: 0px;"/>
        </g>
      </g>
      <g style="clip-path: url(#clippath-1);">
        <g>
          <path d="m26.14,47.6c-.37-1.14-1.6-1.75-2.74-1.38-1.14.37-1.75,1.6-1.38,2.74.37,1.14,1.6,1.75,2.74,1.38,1.14-.37,1.75-1.6,1.38-2.74Z" style="fill: #0072bc; stroke-width: 0px;"/>
          <path d="m21.23,58.84l2.13-4.22c.65-1.3.13-2.88-1.16-3.53l-1.38-.7c-.08-.04-.15-.06-.23-.08-3.69-1.62-8.06-.11-9.91,3.53-.28.55-.06,1.23.49,1.51.55.28,1.23.06,1.51-.49,1.07-2.09,3.32-3.19,5.52-2.91l-8.06,15.81c-.28.56-.06,1.24.49,1.52.16.08.34.12.51.12.41,0,.81-.23,1.01-.62l4.9-9.6,2.42,1.22c2.61,1.42,3.63,4.69,2.25,7.35-.29.55-.07,1.24.48,1.52.28.14.59.16.86.07s.52-.28.66-.56c1.82-3.5.69-7.76-2.48-9.95Z" style="fill: #0072bc; stroke-width: 0px;"/>
          <path d="m35.75,56.04l-3.76-3.76c-.33-.33-.86-.33-1.19,0-.33.33-.33.86,0,1.19l2.36,2.36h-7.18c-.45,0-.81.36-.81.81s.36.81.81.81h7.18l-2.36,2.36c-.33.33-.33.86,0,1.19.16.16.38.25.59.25s.43-.08.59-.25l3.76-3.76c.16-.16.25-.37.25-.59s-.09-.44-.25-.59Z" style="fill: #0072bc; stroke-width: 0px;"/>
          <path d="m28.15,59.07c-.45,0-.81.36-.81.81v2.71c0,.45.36.81.81.81s.81-.36.81-.81v-2.71c0-.45-.36-.81-.81-.81Z" style="fill: #0072bc; stroke-width: 0px;"/>
          <path d="m28.15,54.2c.45,0,.81-.36.81-.81v-2.71c0-.45-.36-.81-.81-.81s-.81.36-.81.81v2.71c0,.45.36.81.81.81Z" style="fill: #0072bc; stroke-width: 0px;"/>
          <path d="m28.15,48.24c.45,0,.81-.36.81-.81v-2.71c0-.45-.36-.81-.81-.81s-.81.36-.81.81v2.71c0,.45.36.81.81.81Z" style="fill: #0072bc; stroke-width: 0px;"/>
          <path d="m28.15,65.03c-.45,0-.81.36-.81.81v2.71c0,.45.36.81.81.81s.81-.36.81-.81v-2.71c0-.45-.36-.81-.81-.81Z" style="fill: #0072bc; stroke-width: 0px;"/>
        </g>
        <g>
          <path d="m520.14,47.6c-.37-1.14-1.6-1.75-2.74-1.38-1.14.37-1.75,1.6-1.38,2.74.37,1.14,1.6,1.75,2.74,1.38,1.14-.37,1.75-1.6,1.38-2.74Z" style="fill: #0072bc; stroke-width: 0px;"/>
          <path d="m515.23,58.84l2.13-4.22c.65-1.3.13-2.88-1.16-3.53l-1.38-.7c-.08-.04-.15-.06-.23-.08-3.69-1.62-8.06-.11-9.91,3.53-.28.55-.06,1.23.49,1.51.55.28,1.23.06,1.51-.49,1.07-2.09,3.32-3.19,5.52-2.91l-8.06,15.81c-.28.56-.06,1.24.49,1.52.16.08.34.12.51.12.41,0,.81-.23,1.01-.62l4.9-9.6,2.42,1.22c2.61,1.42,3.63,4.69,2.25,7.35-.29.55-.07,1.24.48,1.52.28.14.59.16.86.07s.52-.28.66-.56c1.82-3.5.69-7.76-2.48-9.95Z" style="fill: #0072bc; stroke-width: 0px;"/>
          <path d="m529.75,56.04l-3.76-3.76c-.33-.33-.86-.33-1.19,0-.33.33-.33.86,0,1.19l2.36,2.36h-7.18c-.45,0-.81.36-.81.81s.36.81.81.81h7.18l-2.36,2.36c-.33.33-.33.86,0,1.19.16.16.38.25.59.25s.43-.08.59-.25l3.76-3.76c.16-.16.25-.37.25-.59s-.09-.44-.25-.59Z" style="fill: #0072bc; stroke-width: 0px;"/>
          <path d="m522.15,59.07c-.45,0-.81.36-.81.81v2.71c0,.45.36.81.81.81s.81-.36.81-.81v-2.71c0-.45-.36-.81-.81-.81Z" style="fill: #0072bc; stroke-width: 0px;"/>
          <path d="m522.15,54.2c.45,0,.81-.36.81-.81v-2.71c0-.45-.36-.81-.81-.81s-.81.36-.81.81v2.71c0,.45.36.81.81.81Z" style="fill: #0072bc; stroke-width: 0px;"/>
          <path d="m522.15,48.24c.45,0,.81-.36.81-.81v-2.71c0-.45-.36-.81-.81-.81s-.81.36-.81.81v2.71c0,.45.36.81.81.81Z" style="fill: #0072bc; stroke-width: 0px;"/>
          <path d="m522.15,65.03c-.45,0-.81.36-.81.81v2.71c0,.45.36.81.81.81s.81-.36.81-.81v-2.71c0-.45-.36-.81-.81-.81Z" style="fill: #0072bc; stroke-width: 0px;"/>
        </g>
        <g>
          <path d="m494.14,47.6c-.37-1.14-1.6-1.75-2.74-1.38-1.14.37-1.75,1.6-1.38,2.74.37,1.14,1.6,1.75,2.74,1.38,1.14-.37,1.75-1.6,1.38-2.74Z" style="fill: #0072bc; stroke-width: 0px;"/>
          <path d="m489.23,58.84l2.13-4.22c.65-1.3.13-2.88-1.16-3.53l-1.38-.7c-.08-.04-.15-.06-.23-.08-3.69-1.62-8.06-.11-9.91,3.53-.28.55-.06,1.23.49,1.51.55.28,1.23.06,1.51-.49,1.07-2.09,3.32-3.19,5.52-2.91l-8.06,15.81c-.28.56-.06,1.24.49,1.52.16.08.34.12.51.12.41,0,.81-.23,1.01-.62l4.9-9.6,2.42,1.22c2.61,1.42,3.63,4.69,2.25,7.35-.29.55-.07,1.24.48,1.52.28.14.59.16.86.07s.52-.28.66-.56c1.82-3.5.69-7.76-2.48-9.95Z" style="fill: #0072bc; stroke-width: 0px;"/>
          <path d="m503.75,56.04l-3.76-3.76c-.33-.33-.86-.33-1.19,0-.33.33-.33.86,0,1.19l2.36,2.36h-7.18c-.45,0-.81.36-.81.81s.36.81.81.81h7.18l-2.36,2.36c-.33.33-.33.86,0,1.19.16.16.38.25.59.25s.43-.08.59-.25l3.76-3.76c.16-.16.25-.37.25-.59s-.09-.44-.25-.59Z" style="fill: #0072bc; stroke-width: 0px;"/>
          <path d="m496.15,59.07c-.45,0-.81.36-.81.81v2.71c0,.45.36.81.81.81s.81-.36.81-.81v-2.71c0-.45-.36-.81-.81-.81Z" style="fill: #0072bc; stroke-width: 0px;"/>
          <path d="m496.15,54.2c.45,0,.81-.36.81-.81v-2.71c0-.45-.36-.81-.81-.81s-.81.36-.81.81v2.71c0,.45.36.81.81.81Z" style="fill: #0072bc; stroke-width: 0px;"/>
          <path d="m496.15,48.24c.45,0,.81-.36.81-.81v-2.71c0-.45-.36-.81-.81-.81s-.81.36-.81.81v2.71c0,.45.36.81.81.81Z" style="fill: #0072bc; stroke-width: 0px;"/>
          <path d="m496.15,65.03c-.45,0-.81.36-.81.81v2.71c0,.45.36.81.81.81s.81-.36.81-.81v-2.71c0-.45-.36-.81-.81-.81Z" style="fill: #0072bc; stroke-width: 0px;"/>
        </g>
        <g>
          <path d="m468.14,47.6c-.37-1.14-1.6-1.75-2.74-1.38-1.14.37-1.75,1.6-1.38,2.74.37,1.14,1.6,1.75,2.74,1.38,1.14-.37,1.75-1.6,1.38-2.74Z" style="fill: #0072bc; stroke-width: 0px;"/>
          <path d="m463.23,58.84l2.13-4.22c.65-1.3.13-2.88-1.16-3.53l-1.38-.7c-.08-.04-.15-.06-.23-.08-3.69-1.62-8.06-.11-9.91,3.53-.28.55-.06,1.23.49,1.51.55.28,1.23.06,1.51-.49,1.07-2.09,3.32-3.19,5.52-2.91l-8.06,15.81c-.28.56-.06,1.24.49,1.52.16.08.34.12.51.12.41,0,.81-.23,1.01-.62l4.9-9.6,2.42,1.22c2.61,1.42,3.63,4.69,2.25,7.35-.29.55-.07,1.24.48,1.52.28.14.59.16.86.07s.52-.28.66-.56c1.82-3.5.69-7.76-2.48-9.95Z" style="fill: #0072bc; stroke-width: 0px;"/>
          <path d="m477.75,56.04l-3.76-3.76c-.33-.33-.86-.33-1.19,0-.33.33-.33.86,0,1.19l2.36,2.36h-7.18c-.45,0-.81.36-.81.81s.36.81.81.81h7.18l-2.36,2.36c-.33.33-.33.86,0,1.19.16.16.38.25.59.25s.43-.08.59-.25l3.76-3.76c.16-.16.25-.37.25-.59s-.09-.44-.25-.59Z" style="fill: #0072bc; stroke-width: 0px;"/>
          <path d="m470.15,59.07c-.45,0-.81.36-.81.81v2.71c0,.45.36.81.81.81s.81-.36.81-.81v-2.71c0-.45-.36-.81-.81-.81Z" style="fill: #0072bc; stroke-width: 0px;"/>
          <path d="m470.15,54.2c.45,0,.81-.36.81-.81v-2.71c0-.45-.36-.81-.81-.81s-.81.36-.81.81v2.71c0,.45.36.81.81.81Z" style="fill: #0072bc; stroke-width: 0px;"/>
          <path d="m470.15,48.24c.45,0,.81-.36.81-.81v-2.71c0-.45-.36-.81-.81-.81s-.81.36-.81.81v2.71c0,.45.36.81.81.81Z" style="fill: #0072bc; stroke-width: 0px;"/>
          <path d="m470.15,65.03c-.45,0-.81.36-.81.81v2.71c0,.45.36.81.81.81s.81-.36.81-.81v-2.71c0-.45-.36-.81-.81-.81Z" style="fill: #0072bc; stroke-width: 0px;"/>
        </g>
        <g>
          <path d="m442.14,47.6c-.37-1.14-1.6-1.75-2.74-1.38-1.14.37-1.75,1.6-1.38,2.74.37,1.14,1.6,1.75,2.74,1.38,1.14-.37,1.75-1.6,1.38-2.74Z" style="fill: #0072bc; stroke-width: 0px;"/>
          <path d="m437.23,58.84l2.13-4.22c.65-1.3.13-2.88-1.16-3.53l-1.38-.7c-.08-.04-.15-.06-.23-.08-3.69-1.62-8.06-.11-9.91,3.53-.28.55-.06,1.23.49,1.51.55.28,1.23.06,1.51-.49,1.07-2.09,3.32-3.19,5.52-2.91l-8.06,15.81c-.28.56-.06,1.24.49,1.52.16.08.34.12.51.12.41,0,.81-.23,1.01-.62l4.9-9.6,2.42,1.22c2.61,1.42,3.63,4.69,2.25,7.35-.29.55-.07,1.24.48,1.52.28.14.59.16.86.07s.52-.28.66-.56c1.82-3.5.69-7.76-2.48-9.95Z" style="fill: #0072bc; stroke-width: 0px;"/>
          <path d="m451.75,56.04l-3.76-3.76c-.33-.33-.86-.33-1.19,0-.33.33-.33.86,0,1.19l2.36,2.36h-7.18c-.45,0-.81.36-.81.81s.36.81.81.81h7.18l-2.36,2.36c-.33.33-.33.86,0,1.19.16.16.38.25.59.25s.43-.08.59-.25l3.76-3.76c.16-.16.25-.37.25-.59s-.09-.44-.25-.59Z" style="fill: #0072bc; stroke-width: 0px;"/>
          <path d="m444.15,59.07c-.45,0-.81.36-.81.81v2.71c0,.45.36.81.81.81s.81-.36.81-.81v-2.71c0-.45-.36-.81-.81-.81Z" style="fill: #0072bc; stroke-width: 0px;"/>
          <path d="m444.15,54.2c.45,0,.81-.36.81-.81v-2.71c0-.45-.36-.81-.81-.81s-.81.36-.81.81v2.71c0,.45.36.81.81.81Z" style="fill: #0072bc; stroke-width: 0px;"/>
          <path d="m444.15,48.24c.45,0,.81-.36.81-.81v-2.71c0-.45-.36-.81-.81-.81s-.81.36-.81.81v2.71c0,.45.36.81.81.81Z" style="fill: #0072bc; stroke-width: 0px;"/>
          <path d="m444.15,65.03c-.45,0-.81.36-.81.81v2.71c0,.45.36.81.81.81s.81-.36.81-.81v-2.71c0-.45-.36-.81-.81-.81Z" style="fill: #0072bc; stroke-width: 0px;"/>
        </g>
        <g>
          <path d="m416.14,47.6c-.37-1.14-1.6-1.75-2.74-1.38-1.14.37-1.75,1.6-1.38,2.74.37,1.14,1.6,1.75,2.74,1.38,1.14-.37,1.75-1.6,1.38-2.74Z" style="fill: #0072bc; stroke-width: 0px;"/>
          <path d="m411.23,58.84l2.13-4.22c.65-1.3.13-2.88-1.16-3.53l-1.38-.7c-.08-.04-.15-.06-.23-.08-3.69-1.62-8.06-.11-9.91,3.53-.28.55-.06,1.23.49,1.51.55.28,1.23.06,1.51-.49,1.07-2.09,3.32-3.19,5.52-2.91l-8.06,15.81c-.28.56-.06,1.24.49,1.52.16.08.34.12.51.12.41,0,.81-.23,1.01-.62l4.9-9.6,2.42,1.22c2.61,1.42,3.63,4.69,2.25,7.35-.29.55-.07,1.24.48,1.52.28.14.59.16.86.07s.52-.28.66-.56c1.82-3.5.69-7.76-2.48-9.95Z" style="fill: #0072bc; stroke-width: 0px;"/>
          <path d="m425.75,56.04l-3.76-3.76c-.33-.33-.86-.33-1.19,0-.33.33-.33.86,0,1.19l2.36,2.36h-7.18c-.45,0-.81.36-.81.81s.36.81.81.81h7.18l-2.36,2.36c-.33.33-.33.86,0,1.19.16.16.38.25.59.25s.43-.08.59-.25l3.76-3.76c.16-.16.25-.37.25-.59s-.09-.44-.25-.59Z" style="fill: #0072bc; stroke-width: 0px;"/>
          <path d="m418.15,59.07c-.45,0-.81.36-.81.81v2.71c0,.45.36.81.81.81s.81-.36.81-.81v-2.71c0-.45-.36-.81-.81-.81Z" style="fill: #0072bc; stroke-width: 0px;"/>
          <path d="m418.15,54.2c.45,0,.81-.36.81-.81v-2.71c0-.45-.36-.81-.81-.81s-.81.36-.81.81v2.71c0,.45.36.81.81.81Z" style="fill: #0072bc; stroke-width: 0px;"/>
          <path d="m418.15,48.24c.45,0,.81-.36.81-.81v-2.71c0-.45-.36-.81-.81-.81s-.81.36-.81.81v2.71c0,.45.36.81.81.81Z" style="fill: #0072bc; stroke-width: 0px;"/>
          <path d="m418.15,65.03c-.45,0-.81.36-.81.81v2.71c0,.45.36.81.81.81s.81-.36.81-.81v-2.71c0-.45-.36-.81-.81-.81Z" style="fill: #0072bc; stroke-width: 0px;"/>
        </g>
        <g>
          <path d="m390.14,47.6c-.37-1.14-1.6-1.75-2.74-1.38-1.14.37-1.75,1.6-1.38,2.74.37,1.14,1.6,1.75,2.74,1.38,1.14-.37,1.75-1.6,1.38-2.74Z" style="fill: #0072bc; stroke-width: 0px;"/>
          <path d="m385.23,58.84l2.13-4.22c.65-1.3.13-2.88-1.16-3.53l-1.38-.7c-.08-.04-.15-.06-.23-.08-3.69-1.62-8.06-.11-9.91,3.53-.28.55-.06,1.23.49,1.51.55.28,1.23.06,1.51-.49,1.07-2.09,3.32-3.19,5.52-2.91l-8.06,15.81c-.28.56-.06,1.24.49,1.52.16.08.34.12.51.12.41,0,.81-.23,1.01-.62l4.9-9.6,2.42,1.22c2.61,1.42,3.63,4.69,2.25,7.35-.29.55-.07,1.24.48,1.52.28.14.59.16.86.07s.52-.28.66-.56c1.82-3.5.69-7.76-2.48-9.95Z" style="fill: #0072bc; stroke-width: 0px;"/>
          <path d="m399.75,56.04l-3.76-3.76c-.33-.33-.86-.33-1.19,0-.33.33-.33.86,0,1.19l2.36,2.36h-7.18c-.45,0-.81.36-.81.81s.36.81.81.81h7.18l-2.36,2.36c-.33.33-.33.86,0,1.19.16.16.38.25.59.25s.43-.08.59-.25l3.76-3.76c.16-.16.25-.37.25-.59s-.09-.44-.25-.59Z" style="fill: #0072bc; stroke-width: 0px;"/>
          <path d="m392.15,59.07c-.45,0-.81.36-.81.81v2.71c0,.45.36.81.81.81s.81-.36.81-.81v-2.71c0-.45-.36-.81-.81-.81Z" style="fill: #0072bc; stroke-width: 0px;"/>
          <path d="m392.15,54.2c.45,0,.81-.36.81-.81v-2.71c0-.45-.36-.81-.81-.81s-.81.36-.81.81v2.71c0,.45.36.81.81.81Z" style="fill: #0072bc; stroke-width: 0px;"/>
          <path d="m392.15,48.24c.45,0,.81-.36.81-.81v-2.71c0-.45-.36-.81-.81-.81s-.81.36-.81.81v2.71c0,.45.36.81.81.81Z" style="fill: #0072bc; stroke-width: 0px;"/>
          <path d="m392.15,65.03c-.45,0-.81.36-.81.81v2.71c0,.45.36.81.81.81s.81-.36.81-.81v-2.71c0-.45-.36-.81-.81-.81Z" style="fill: #0072bc; stroke-width: 0px;"/>
        </g>
        <g>
          <path d="m364.14,47.6c-.37-1.14-1.6-1.75-2.74-1.38-1.14.37-1.75,1.6-1.38,2.74.37,1.14,1.6,1.75,2.74,1.38,1.14-.37,1.75-1.6,1.38-2.74Z" style="fill: #0072bc; stroke-width: 0px;"/>
          <path d="m359.23,58.84l2.13-4.22c.65-1.3.13-2.88-1.16-3.53l-1.38-.7c-.08-.04-.15-.06-.23-.08-3.69-1.62-8.06-.11-9.91,3.53-.28.55-.06,1.23.49,1.51.55.28,1.23.06,1.51-.49,1.07-2.09,3.32-3.19,5.52-2.91l-8.06,15.81c-.28.56-.06,1.24.49,1.52.16.08.34.12.51.12.41,0,.81-.23,1.01-.62l4.9-9.6,2.42,1.22c2.61,1.42,3.63,4.69,2.25,7.35-.29.55-.07,1.24.48,1.52.28.14.59.16.86.07s.52-.28.66-.56c1.82-3.5.69-7.76-2.48-9.95Z" style="fill: #0072bc; stroke-width: 0px;"/>
          <path d="m373.75,56.04l-3.76-3.76c-.33-.33-.86-.33-1.19,0-.33.33-.33.86,0,1.19l2.36,2.36h-7.18c-.45,0-.81.36-.81.81s.36.81.81.81h7.18l-2.36,2.36c-.33.33-.33.86,0,1.19.16.16.38.25.59.25s.43-.08.59-.25l3.76-3.76c.16-.16.25-.37.25-.59s-.09-.44-.25-.59Z" style="fill: #0072bc; stroke-width: 0px;"/>
          <path d="m366.15,59.07c-.45,0-.81.36-.81.81v2.71c0,.45.36.81.81.81s.81-.36.81-.81v-2.71c0-.45-.36-.81-.81-.81Z" style="fill: #0072bc; stroke-width: 0px;"/>
          <path d="m366.15,54.2c.45,0,.81-.36.81-.81v-2.71c0-.45-.36-.81-.81-.81s-.81.36-.81.81v2.71c0,.45.36.81.81.81Z" style="fill: #0072bc; stroke-width: 0px;"/>
          <path d="m366.15,48.24c.45,0,.81-.36.81-.81v-2.71c0-.45-.36-.81-.81-.81s-.81.36-.81.81v2.71c0,.45.36.81.81.81Z" style="fill: #0072bc; stroke-width: 0px;"/>
          <path d="m366.15,65.03c-.45,0-.81.36-.81.81v2.71c0,.45.36.81.81.81s.81-.36.81-.81v-2.71c0-.45-.36-.81-.81-.81Z" style="fill: #0072bc; stroke-width: 0px;"/>
        </g>
        <g>
          <path d="m338.14,47.6c-.37-1.14-1.6-1.75-2.74-1.38-1.14.37-1.75,1.6-1.38,2.74.37,1.14,1.6,1.75,2.74,1.38,1.14-.37,1.75-1.6,1.38-2.74Z" style="fill: #0072bc; stroke-width: 0px;"/>
          <path d="m333.23,58.84l2.13-4.22c.65-1.3.13-2.88-1.16-3.53l-1.38-.7c-.08-.04-.15-.06-.23-.08-3.69-1.62-8.06-.11-9.91,3.53-.28.55-.06,1.23.49,1.51.55.28,1.23.06,1.51-.49,1.07-2.09,3.32-3.19,5.52-2.91l-8.06,15.81c-.28.56-.06,1.24.49,1.52.16.08.34.12.51.12.41,0,.81-.23,1.01-.62l4.9-9.6,2.42,1.22c2.61,1.42,3.63,4.69,2.25,7.35-.29.55-.07,1.24.48,1.52.28.14.59.16.86.07s.52-.28.66-.56c1.82-3.5.69-7.76-2.48-9.95Z" style="fill: #0072bc; stroke-width: 0px;"/>
          <path d="m347.75,56.04l-3.76-3.76c-.33-.33-.86-.33-1.19,0-.33.33-.33.86,0,1.19l2.36,2.36h-7.18c-.45,0-.81.36-.81.81s.36.81.81.81h7.18l-2.36,2.36c-.33.33-.33.86,0,1.19.16.16.38.25.59.25s.43-.08.59-.25l3.76-3.76c.16-.16.25-.37.25-.59s-.09-.44-.25-.59Z" style="fill: #0072bc; stroke-width: 0px;"/>
          <path d="m340.15,59.07c-.45,0-.81.36-.81.81v2.71c0,.45.36.81.81.81s.81-.36.81-.81v-2.71c0-.45-.36-.81-.81-.81Z" style="fill: #0072bc; stroke-width: 0px;"/>
          <path d="m340.15,54.2c.45,0,.81-.36.81-.81v-2.71c0-.45-.36-.81-.81-.81s-.81.36-.81.81v2.71c0,.45.36.81.81.81Z" style="fill: #0072bc; stroke-width: 0px;"/>
          <path d="m340.15,48.24c.45,0,.81-.36.81-.81v-2.71c0-.45-.36-.81-.81-.81s-.81.36-.81.81v2.71c0,.45.36.81.81.81Z" style="fill: #0072bc; stroke-width: 0px;"/>
          <path d="m340.15,65.03c-.45,0-.81.36-.81.81v2.71c0,.45.36.81.81.81s.81-.36.81-.81v-2.71c0-.45-.36-.81-.81-.81Z" style="fill: #0072bc; stroke-width: 0px;"/>
        </g>
        <g>
          <path d="m312.14,47.6c-.37-1.14-1.6-1.75-2.74-1.38-1.14.37-1.75,1.6-1.38,2.74.37,1.14,1.6,1.75,2.74,1.38,1.14-.37,1.75-1.6,1.38-2.74Z" style="fill: #0072bc; stroke-width: 0px;"/>
          <path d="m307.23,58.84l2.13-4.22c.65-1.3.13-2.88-1.16-3.53l-1.38-.7c-.08-.04-.15-.06-.23-.08-3.69-1.62-8.06-.11-9.91,3.53-.28.55-.06,1.23.49,1.51.55.28,1.23.06,1.51-.49,1.07-2.09,3.32-3.19,5.52-2.91l-8.06,15.81c-.28.56-.06,1.24.49,1.52.16.08.34.12.51.12.41,0,.81-.23,1.01-.62l4.9-9.6,2.42,1.22c2.61,1.42,3.63,4.69,2.25,7.35-.29.55-.07,1.24.48,1.52.28.14.59.16.86.07s.52-.28.66-.56c1.82-3.5.69-7.76-2.48-9.95Z" style="fill: #0072bc; stroke-width: 0px;"/>
          <path d="m321.75,56.04l-3.76-3.76c-.33-.33-.86-.33-1.19,0-.33.33-.33.86,0,1.19l2.36,2.36h-7.18c-.45,0-.81.36-.81.81s.36.81.81.81h7.18l-2.36,2.36c-.33.33-.33.86,0,1.19.16.16.38.25.59.25s.43-.08.59-.25l3.76-3.76c.16-.16.25-.37.25-.59s-.09-.44-.25-.59Z" style="fill: #0072bc; stroke-width: 0px;"/>
          <path d="m314.15,59.07c-.45,0-.81.36-.81.81v2.71c0,.45.36.81.81.81s.81-.36.81-.81v-2.71c0-.45-.36-.81-.81-.81Z" style="fill: #0072bc; stroke-width: 0px;"/>
          <path d="m314.15,54.2c.45,0,.81-.36.81-.81v-2.71c0-.45-.36-.81-.81-.81s-.81.36-.81.81v2.71c0,.45.36.81.81.81Z" style="fill: #0072bc; stroke-width: 0px;"/>
          <path d="m314.15,48.24c.45,0,.81-.36.81-.81v-2.71c0-.45-.36-.81-.81-.81s-.81.36-.81.81v2.71c0,.45.36.81.81.81Z" style="fill: #0072bc; stroke-width: 0px;"/>
          <path d="m314.15,65.03c-.45,0-.81.36-.81.81v2.71c0,.45.36.81.81.81s.81-.36.81-.81v-2.71c0-.45-.36-.81-.81-.81Z" style="fill: #0072bc; stroke-width: 0px;"/>
        </g>
        <g>
          <path d="m286.14,47.6c-.37-1.14-1.6-1.75-2.74-1.38-1.14.37-1.75,1.6-1.38,2.74.37,1.14,1.6,1.75,2.74,1.38,1.14-.37,1.75-1.6,1.38-2.74Z" style="fill: #0072bc; stroke-width: 0px;"/>
          <path d="m281.23,58.84l2.13-4.22c.65-1.3.13-2.88-1.16-3.53l-1.38-.7c-.08-.04-.15-.06-.23-.08-3.69-1.62-8.06-.11-9.91,3.53-.28.55-.06,1.23.49,1.51.55.28,1.23.06,1.51-.49,1.07-2.09,3.32-3.19,5.52-2.91l-8.06,15.81c-.28.56-.06,1.24.49,1.52.16.08.34.12.51.12.41,0,.81-.23,1.01-.62l4.9-9.6,2.42,1.22c2.61,1.42,3.63,4.69,2.25,7.35-.29.55-.07,1.24.48,1.52.28.14.59.16.86.07s.52-.28.66-.56c1.82-3.5.69-7.76-2.48-9.95Z" style="fill: #0072bc; stroke-width: 0px;"/>
          <path d="m295.75,56.04l-3.76-3.76c-.33-.33-.86-.33-1.19,0-.33.33-.33.86,0,1.19l2.36,2.36h-7.18c-.45,0-.81.36-.81.81s.36.81.81.81h7.18l-2.36,2.36c-.33.33-.33.86,0,1.19.16.16.38.25.59.25s.43-.08.59-.25l3.76-3.76c.16-.16.25-.37.25-.59s-.09-.44-.25-.59Z" style="fill: #0072bc; stroke-width: 0px;"/>
          <path d="m288.15,59.07c-.45,0-.81.36-.81.81v2.71c0,.45.36.81.81.81s.81-.36.81-.81v-2.71c0-.45-.36-.81-.81-.81Z" style="fill: #0072bc; stroke-width: 0px;"/>
          <path d="m288.15,54.2c.45,0,.81-.36.81-.81v-2.71c0-.45-.36-.81-.81-.81s-.81.36-.81.81v2.71c0,.45.36.81.81.81Z" style="fill: #0072bc; stroke-width: 0px;"/>
          <path d="m288.15,48.24c.45,0,.81-.36.81-.81v-2.71c0-.45-.36-.81-.81-.81s-.81.36-.81.81v2.71c0,.45.36.81.81.81Z" style="fill: #0072bc; stroke-width: 0px;"/>
          <path d="m288.15,65.03c-.45,0-.81.36-.81.81v2.71c0,.45.36.81.81.81s.81-.36.81-.81v-2.71c0-.45-.36-.81-.81-.81Z" style="fill: #0072bc; stroke-width: 0px;"/>
        </g>
        <g>
          <path d="m260.14,47.6c-.37-1.14-1.6-1.75-2.74-1.38-1.14.37-1.75,1.6-1.38,2.74.37,1.14,1.6,1.75,2.74,1.38,1.14-.37,1.75-1.6,1.38-2.74Z" style="fill: #0072bc; stroke-width: 0px;"/>
          <path d="m255.23,58.84l2.13-4.22c.65-1.3.13-2.88-1.16-3.53l-1.38-.7c-.08-.04-.15-.06-.23-.08-3.69-1.62-8.06-.11-9.91,3.53-.28.55-.06,1.23.49,1.51.55.28,1.23.06,1.51-.49,1.07-2.09,3.32-3.19,5.52-2.91l-8.06,15.81c-.28.56-.06,1.24.49,1.52.16.08.34.12.51.12.41,0,.81-.23,1.01-.62l4.9-9.6,2.42,1.22c2.61,1.42,3.63,4.69,2.25,7.35-.29.55-.07,1.24.48,1.52.28.14.59.16.86.07s.52-.28.66-.56c1.82-3.5.69-7.76-2.48-9.95Z" style="fill: #0072bc; stroke-width: 0px;"/>
          <path d="m269.75,56.04l-3.76-3.76c-.33-.33-.86-.33-1.19,0-.33.33-.33.86,0,1.19l2.36,2.36h-7.18c-.45,0-.81.36-.81.81s.36.81.81.81h7.18l-2.36,2.36c-.33.33-.33.86,0,1.19.16.16.38.25.59.25s.43-.08.59-.25l3.76-3.76c.16-.16.25-.37.25-.59s-.09-.44-.25-.59Z" style="fill: #0072bc; stroke-width: 0px;"/>
          <path d="m262.15,59.07c-.45,0-.81.36-.81.81v2.71c0,.45.36.81.81.81s.81-.36.81-.81v-2.71c0-.45-.36-.81-.81-.81Z" style="fill: #0072bc; stroke-width: 0px;"/>
          <path d="m262.15,54.2c.45,0,.81-.36.81-.81v-2.71c0-.45-.36-.81-.81-.81s-.81.36-.81.81v2.71c0,.45.36.81.81.81Z" style="fill: #0072bc; stroke-width: 0px;"/>
          <path d="m262.15,48.24c.45,0,.81-.36.81-.81v-2.71c0-.45-.36-.81-.81-.81s-.81.36-.81.81v2.71c0,.45.36.81.81.81Z" style="fill: #0072bc; stroke-width: 0px;"/>
          <path d="m262.15,65.03c-.45,0-.81.36-.81.81v2.71c0,.45.36.81.81.81s.81-.36.81-.81v-2.71c0-.45-.36-.81-.81-.81Z" style="fill: #0072bc; stroke-width: 0px;"/>
        </g>
        <g>
          <path d="m234.14,47.6c-.37-1.14-1.6-1.75-2.74-1.38-1.14.37-1.75,1.6-1.38,2.74.37,1.14,1.6,1.75,2.74,1.38,1.14-.37,1.75-1.6,1.38-2.74Z" style="fill: #0072bc; stroke-width: 0px;"/>
          <path d="m229.23,58.84l2.13-4.22c.65-1.3.13-2.88-1.16-3.53l-1.38-.7c-.08-.04-.15-.06-.23-.08-3.69-1.62-8.06-.11-9.91,3.53-.28.55-.06,1.23.49,1.51.55.28,1.23.06,1.51-.49,1.07-2.09,3.32-3.19,5.52-2.91l-8.06,15.81c-.28.56-.06,1.24.49,1.52.16.08.34.12.51.12.41,0,.81-.23,1.01-.62l4.9-9.6,2.42,1.22c2.61,1.42,3.63,4.69,2.25,7.35-.29.55-.07,1.24.48,1.52.28.14.59.16.86.07s.52-.28.66-.56c1.82-3.5.69-7.76-2.48-9.95Z" style="fill: #0072bc; stroke-width: 0px;"/>
          <path d="m243.75,56.04l-3.76-3.76c-.33-.33-.86-.33-1.19,0-.33.33-.33.86,0,1.19l2.36,2.36h-7.18c-.45,0-.81.36-.81.81s.36.81.81.81h7.18l-2.36,2.36c-.33.33-.33.86,0,1.19.16.16.38.25.59.25s.43-.08.59-.25l3.76-3.76c.16-.16.25-.37.25-.59s-.09-.44-.25-.59Z" style="fill: #0072bc; stroke-width: 0px;"/>
          <path d="m236.15,59.07c-.45,0-.81.36-.81.81v2.71c0,.45.36.81.81.81s.81-.36.81-.81v-2.71c0-.45-.36-.81-.81-.81Z" style="fill: #0072bc; stroke-width: 0px;"/>
          <path d="m236.15,54.2c.45,0,.81-.36.81-.81v-2.71c0-.45-.36-.81-.81-.81s-.81.36-.81.81v2.71c0,.45.36.81.81.81Z" style="fill: #0072bc; stroke-width: 0px;"/>
          <path d="m236.15,48.24c.45,0,.81-.36.81-.81v-2.71c0-.45-.36-.81-.81-.81s-.81.36-.81.81v2.71c0,.45.36.81.81.81Z" style="fill: #0072bc; stroke-width: 0px;"/>
          <path d="m236.15,65.03c-.45,0-.81.36-.81.81v2.71c0,.45.36.81.81.81s.81-.36.81-.81v-2.71c0-.45-.36-.81-.81-.81Z" style="fill: #0072bc; stroke-width: 0px;"/>
        </g>
        <g>
          <path d="m208.14,47.6c-.37-1.14-1.6-1.75-2.74-1.38-1.14.37-1.75,1.6-1.38,2.74.37,1.14,1.6,1.75,2.74,1.38,1.14-.37,1.75-1.6,1.38-2.74Z" style="fill: #0072bc; stroke-width: 0px;"/>
          <path d="m203.23,58.84l2.13-4.22c.65-1.3.13-2.88-1.16-3.53l-1.38-.7c-.08-.04-.15-.06-.23-.08-3.69-1.62-8.06-.11-9.91,3.53-.28.55-.06,1.23.49,1.51.55.28,1.23.06,1.51-.49,1.07-2.09,3.32-3.19,5.52-2.91l-8.06,15.81c-.28.56-.06,1.24.49,1.52.16.08.34.12.51.12.41,0,.81-.23,1.01-.62l4.9-9.6,2.42,1.22c2.61,1.42,3.63,4.69,2.25,7.35-.29.55-.07,1.24.48,1.52.28.14.59.16.86.07s.52-.28.66-.56c1.82-3.5.69-7.76-2.48-9.95Z" style="fill: #0072bc; stroke-width: 0px;"/>
          <path d="m217.75,56.04l-3.76-3.76c-.33-.33-.86-.33-1.19,0-.33.33-.33.86,0,1.19l2.36,2.36h-7.18c-.45,0-.81.36-.81.81s.36.81.81.81h7.18l-2.36,2.36c-.33.33-.33.86,0,1.19.16.16.38.25.59.25s.43-.08.59-.25l3.76-3.76c.16-.16.25-.37.25-.59s-.09-.44-.25-.59Z" style="fill: #0072bc; stroke-width: 0px;"/>
          <path d="m210.15,59.07c-.45,0-.81.36-.81.81v2.71c0,.45.36.81.81.81s.81-.36.81-.81v-2.71c0-.45-.36-.81-.81-.81Z" style="fill: #0072bc; stroke-width: 0px;"/>
          <path d="m210.15,54.2c.45,0,.81-.36.81-.81v-2.71c0-.45-.36-.81-.81-.81s-.81.36-.81.81v2.71c0,.45.36.81.81.81Z" style="fill: #0072bc; stroke-width: 0px;"/>
          <path d="m210.15,48.24c.45,0,.81-.36.81-.81v-2.71c0-.45-.36-.81-.81-.81s-.81.36-.81.81v2.71c0,.45.36.81.81.81Z" style="fill: #0072bc; stroke-width: 0px;"/>
          <path d="m210.15,65.03c-.45,0-.81.36-.81.81v2.71c0,.45.36.81.81.81s.81-.36.81-.81v-2.71c0-.45-.36-.81-.81-.81Z" style="fill: #0072bc; stroke-width: 0px;"/>
        </g>
        <g>
          <path d="m182.14,47.6c-.37-1.14-1.6-1.75-2.74-1.38-1.14.37-1.75,1.6-1.38,2.74.37,1.14,1.6,1.75,2.74,1.38,1.14-.37,1.75-1.6,1.38-2.74Z" style="fill: #0072bc; stroke-width: 0px;"/>
          <path d="m177.23,58.84l2.13-4.22c.65-1.3.13-2.88-1.16-3.53l-1.38-.7c-.08-.04-.15-.06-.23-.08-3.69-1.62-8.06-.11-9.91,3.53-.28.55-.06,1.23.49,1.51.55.28,1.23.06,1.51-.49,1.07-2.09,3.32-3.19,5.52-2.91l-8.06,15.81c-.28.56-.06,1.24.49,1.52.16.08.34.12.51.12.41,0,.81-.23,1.01-.62l4.9-9.6,2.42,1.22c2.61,1.42,3.63,4.69,2.25,7.35-.29.55-.07,1.24.48,1.52.28.14.59.16.86.07s.52-.28.66-.56c1.82-3.5.69-7.76-2.48-9.95Z" style="fill: #0072bc; stroke-width: 0px;"/>
          <path d="m191.75,56.04l-3.76-3.76c-.33-.33-.86-.33-1.19,0-.33.33-.33.86,0,1.19l2.36,2.36h-7.18c-.45,0-.81.36-.81.81s.36.81.81.81h7.18l-2.36,2.36c-.33.33-.33.86,0,1.19.16.16.38.25.59.25s.43-.08.59-.25l3.76-3.76c.16-.16.25-.37.25-.59s-.09-.44-.25-.59Z" style="fill: #0072bc; stroke-width: 0px;"/>
          <path d="m184.15,59.07c-.45,0-.81.36-.81.81v2.71c0,.45.36.81.81.81s.81-.36.81-.81v-2.71c0-.45-.36-.81-.81-.81Z" style="fill: #0072bc; stroke-width: 0px;"/>
          <path d="m184.15,54.2c.45,0,.81-.36.81-.81v-2.71c0-.45-.36-.81-.81-.81s-.81.36-.81.81v2.71c0,.45.36.81.81.81Z" style="fill: #0072bc; stroke-width: 0px;"/>
          <path d="m184.15,48.24c.45,0,.81-.36.81-.81v-2.71c0-.45-.36-.81-.81-.81s-.81.36-.81.81v2.71c0,.45.36.81.81.81Z" style="fill: #0072bc; stroke-width: 0px;"/>
          <path d="m184.15,65.03c-.45,0-.81.36-.81.81v2.71c0,.45.36.81.81.81s.81-.36.81-.81v-2.71c0-.45-.36-.81-.81-.81Z" style="fill: #0072bc; stroke-width: 0px;"/>
        </g>
        <g>
          <path d="m156.14,47.6c-.37-1.14-1.6-1.75-2.74-1.38-1.14.37-1.75,1.6-1.38,2.74.37,1.14,1.6,1.75,2.74,1.38,1.14-.37,1.75-1.6,1.38-2.74Z" style="fill: #0072bc; stroke-width: 0px;"/>
          <path d="m151.23,58.84l2.13-4.22c.65-1.3.13-2.88-1.16-3.53l-1.38-.7c-.08-.04-.15-.06-.23-.08-3.69-1.62-8.06-.11-9.91,3.53-.28.55-.06,1.23.49,1.51.55.28,1.23.06,1.51-.49,1.07-2.09,3.32-3.19,5.52-2.91l-8.06,15.81c-.28.56-.06,1.24.49,1.52.16.08.34.12.51.12.41,0,.81-.23,1.01-.62l4.9-9.6,2.42,1.22c2.61,1.42,3.63,4.69,2.25,7.35-.29.55-.07,1.24.48,1.52.28.14.59.16.86.07s.52-.28.66-.56c1.82-3.5.69-7.76-2.48-9.95Z" style="fill: #0072bc; stroke-width: 0px;"/>
          <path d="m165.75,56.04l-3.76-3.76c-.33-.33-.86-.33-1.19,0-.33.33-.33.86,0,1.19l2.36,2.36h-7.18c-.45,0-.81.36-.81.81s.36.81.81.81h7.18l-2.36,2.36c-.33.33-.33.86,0,1.19.16.16.38.25.59.25s.43-.08.59-.25l3.76-3.76c.16-.16.25-.37.25-.59s-.09-.44-.25-.59Z" style="fill: #0072bc; stroke-width: 0px;"/>
          <path d="m158.15,59.07c-.45,0-.81.36-.81.81v2.71c0,.45.36.81.81.81s.81-.36.81-.81v-2.71c0-.45-.36-.81-.81-.81Z" style="fill: #0072bc; stroke-width: 0px;"/>
          <path d="m158.15,54.2c.45,0,.81-.36.81-.81v-2.71c0-.45-.36-.81-.81-.81s-.81.36-.81.81v2.71c0,.45.36.81.81.81Z" style="fill: #0072bc; stroke-width: 0px;"/>
          <path d="m158.15,48.24c.45,0,.81-.36.81-.81v-2.71c0-.45-.36-.81-.81-.81s-.81.36-.81.81v2.71c0,.45.36.81.81.81Z" style="fill: #0072bc; stroke-width: 0px;"/>
          <path d="m158.15,65.03c-.45,0-.81.36-.81.81v2.71c0,.45.36.81.81.81s.81-.36.81-.81v-2.71c0-.45-.36-.81-.81-.81Z" style="fill: #0072bc; stroke-width: 0px;"/>
        </g>
        <g>
          <path d="m130.14,47.6c-.37-1.14-1.6-1.75-2.74-1.38-1.14.37-1.75,1.6-1.38,2.74.37,1.14,1.6,1.75,2.74,1.38,1.14-.37,1.75-1.6,1.38-2.74Z" style="fill: #0072bc; stroke-width: 0px;"/>
          <path d="m125.23,58.84l2.13-4.22c.65-1.3.13-2.88-1.16-3.53l-1.38-.7c-.08-.04-.15-.06-.23-.08-3.69-1.62-8.06-.11-9.91,3.53-.28.55-.06,1.23.49,1.51.55.28,1.23.06,1.51-.49,1.07-2.09,3.32-3.19,5.52-2.91l-8.06,15.81c-.28.56-.06,1.24.49,1.52.16.08.34.12.51.12.41,0,.81-.23,1.01-.62l4.9-9.6,2.42,1.22c2.61,1.42,3.63,4.69,2.25,7.35-.29.55-.07,1.24.48,1.52.28.14.59.16.86.07s.52-.28.66-.56c1.82-3.5.69-7.76-2.48-9.95Z" style="fill: #0072bc; stroke-width: 0px;"/>
          <path d="m139.75,56.04l-3.76-3.76c-.33-.33-.86-.33-1.19,0-.33.33-.33.86,0,1.19l2.36,2.36h-7.18c-.45,0-.81.36-.81.81s.36.81.81.81h7.18l-2.36,2.36c-.33.33-.33.86,0,1.19.16.16.38.25.59.25s.43-.08.59-.25l3.76-3.76c.16-.16.25-.37.25-.59s-.09-.44-.25-.59Z" style="fill: #0072bc; stroke-width: 0px;"/>
          <path d="m132.15,59.07c-.45,0-.81.36-.81.81v2.71c0,.45.36.81.81.81s.81-.36.81-.81v-2.71c0-.45-.36-.81-.81-.81Z" style="fill: #0072bc; stroke-width: 0px;"/>
          <path d="m132.15,54.2c.45,0,.81-.36.81-.81v-2.71c0-.45-.36-.81-.81-.81s-.81.36-.81.81v2.71c0,.45.36.81.81.81Z" style="fill: #0072bc; stroke-width: 0px;"/>
          <path d="m132.15,48.24c.45,0,.81-.36.81-.81v-2.71c0-.45-.36-.81-.81-.81s-.81.36-.81.81v2.71c0,.45.36.81.81.81Z" style="fill: #0072bc; stroke-width: 0px;"/>
          <path d="m132.15,65.03c-.45,0-.81.36-.81.81v2.71c0,.45.36.81.81.81s.81-.36.81-.81v-2.71c0-.45-.36-.81-.81-.81Z" style="fill: #0072bc; stroke-width: 0px;"/>
        </g>
        <g>
          <path d="m104.14,47.6c-.37-1.14-1.6-1.75-2.74-1.38-1.14.37-1.75,1.6-1.38,2.74.37,1.14,1.6,1.75,2.74,1.38,1.14-.37,1.75-1.6,1.38-2.74Z" style="fill: #0072bc; stroke-width: 0px;"/>
          <path d="m99.23,58.84l2.13-4.22c.65-1.3.13-2.88-1.16-3.53l-1.38-.7c-.08-.04-.15-.06-.23-.08-3.69-1.62-8.06-.11-9.91,3.53-.28.55-.06,1.23.49,1.51.55.28,1.23.06,1.51-.49,1.07-2.09,3.32-3.19,5.52-2.91l-8.06,15.81c-.28.56-.06,1.24.49,1.52.16.08.34.12.51.12.41,0,.81-.23,1.01-.62l4.9-9.6,2.42,1.22c2.61,1.42,3.63,4.69,2.25,7.35-.29.55-.07,1.24.48,1.52.28.14.59.16.86.07s.52-.28.66-.56c1.82-3.5.69-7.76-2.48-9.95Z" style="fill: #0072bc; stroke-width: 0px;"/>
          <path d="m113.75,56.04l-3.76-3.76c-.33-.33-.86-.33-1.19,0-.33.33-.33.86,0,1.19l2.36,2.36h-7.18c-.45,0-.81.36-.81.81s.36.81.81.81h7.18l-2.36,2.36c-.33.33-.33.86,0,1.19.16.16.38.25.59.25s.43-.08.59-.25l3.76-3.76c.16-.16.25-.37.25-.59s-.09-.44-.25-.59Z" style="fill: #0072bc; stroke-width: 0px;"/>
          <path d="m106.15,59.07c-.45,0-.81.36-.81.81v2.71c0,.45.36.81.81.81s.81-.36.81-.81v-2.71c0-.45-.36-.81-.81-.81Z" style="fill: #0072bc; stroke-width: 0px;"/>
          <path d="m106.15,54.2c.45,0,.81-.36.81-.81v-2.71c0-.45-.36-.81-.81-.81s-.81.36-.81.81v2.71c0,.45.36.81.81.81Z" style="fill: #0072bc; stroke-width: 0px;"/>
          <path d="m106.15,48.24c.45,0,.81-.36.81-.81v-2.71c0-.45-.36-.81-.81-.81s-.81.36-.81.81v2.71c0,.45.36.81.81.81Z" style="fill: #0072bc; stroke-width: 0px;"/>
          <path d="m106.15,65.03c-.45,0-.81.36-.81.81v2.71c0,.45.36.81.81.81s.81-.36.81-.81v-2.71c0-.45-.36-.81-.81-.81Z" style="fill: #0072bc; stroke-width: 0px;"/>
        </g>
        <g>
          <path d="m78.14,47.6c-.37-1.14-1.6-1.75-2.74-1.38-1.14.37-1.75,1.6-1.38,2.74.37,1.14,1.6,1.75,2.74,1.38,1.14-.37,1.75-1.6,1.38-2.74Z" style="fill: #0072bc; stroke-width: 0px;"/>
          <path d="m73.23,58.84l2.13-4.22c.65-1.3.13-2.88-1.16-3.53l-1.38-.7c-.08-.04-.15-.06-.23-.08-3.69-1.62-8.06-.11-9.91,3.53-.28.55-.06,1.23.49,1.51.55.28,1.23.06,1.51-.49,1.07-2.09,3.32-3.19,5.52-2.91l-8.06,15.81c-.28.56-.06,1.24.49,1.52.16.08.34.12.51.12.41,0,.81-.23,1.01-.62l4.9-9.6,2.42,1.22c2.61,1.42,3.63,4.69,2.25,7.35-.29.55-.07,1.24.48,1.52.28.14.59.16.86.07s.52-.28.66-.56c1.82-3.5.69-7.76-2.48-9.95Z" style="fill: #0072bc; stroke-width: 0px;"/>
          <path d="m87.75,56.04l-3.76-3.76c-.33-.33-.86-.33-1.19,0-.33.33-.33.86,0,1.19l2.36,2.36h-7.18c-.45,0-.81.36-.81.81s.36.81.81.81h7.18l-2.36,2.36c-.33.33-.33.86,0,1.19.16.16.38.25.59.25s.43-.08.59-.25l3.76-3.76c.16-.16.25-.37.25-.59s-.09-.44-.25-.59Z" style="fill: #0072bc; stroke-width: 0px;"/>
          <path d="m80.15,59.07c-.45,0-.81.36-.81.81v2.71c0,.45.36.81.81.81s.81-.36.81-.81v-2.71c0-.45-.36-.81-.81-.81Z" style="fill: #0072bc; stroke-width: 0px;"/>
          <path d="m80.15,54.2c.45,0,.81-.36.81-.81v-2.71c0-.45-.36-.81-.81-.81s-.81.36-.81.81v2.71c0,.45.36.81.81.81Z" style="fill: #0072bc; stroke-width: 0px;"/>
          <path d="m80.15,48.24c.45,0,.81-.36.81-.81v-2.71c0-.45-.36-.81-.81-.81s-.81.36-.81.81v2.71c0,.45.36.81.81.81Z" style="fill: #0072bc; stroke-width: 0px;"/>
          <path d="m80.15,65.03c-.45,0-.81.36-.81.81v2.71c0,.45.36.81.81.81s.81-.36.81-.81v-2.71c0-.45-.36-.81-.81-.81Z" style="fill: #0072bc; stroke-width: 0px;"/>
        </g>
        <g>
          <path d="m52.14,47.6c-.37-1.14-1.6-1.75-2.74-1.38-1.14.37-1.75,1.6-1.38,2.74.37,1.14,1.6,1.75,2.74,1.38,1.14-.37,1.75-1.6,1.38-2.74Z" style="fill: #0072bc; stroke-width: 0px;"/>
          <path d="m47.23,58.84l2.13-4.22c.65-1.3.13-2.88-1.16-3.53l-1.38-.7c-.08-.04-.15-.06-.23-.08-3.69-1.62-8.06-.11-9.91,3.53-.28.55-.06,1.23.49,1.51.55.28,1.23.06,1.51-.49,1.07-2.09,3.32-3.19,5.52-2.91l-8.06,15.81c-.28.56-.06,1.24.49,1.52.16.08.34.12.51.12.41,0,.81-.23,1.01-.62l4.9-9.6,2.42,1.22c2.61,1.42,3.63,4.69,2.25,7.35-.29.55-.07,1.24.48,1.52.28.14.59.16.86.07s.52-.28.66-.56c1.82-3.5.69-7.76-2.48-9.95Z" style="fill: #0072bc; stroke-width: 0px;"/>
          <path d="m61.75,56.04l-3.76-3.76c-.33-.33-.86-.33-1.19,0-.33.33-.33.86,0,1.19l2.36,2.36h-7.18c-.45,0-.81.36-.81.81s.36.81.81.81h7.18l-2.36,2.36c-.33.33-.33.86,0,1.19.16.16.38.25.59.25s.43-.08.59-.25l3.76-3.76c.16-.16.25-.37.25-.59s-.09-.44-.25-.59Z" style="fill: #0072bc; stroke-width: 0px;"/>
          <path d="m54.15,59.07c-.45,0-.81.36-.81.81v2.71c0,.45.36.81.81.81s.81-.36.81-.81v-2.71c0-.45-.36-.81-.81-.81Z" style="fill: #0072bc; stroke-width: 0px;"/>
          <path d="m54.15,54.2c.45,0,.81-.36.81-.81v-2.71c0-.45-.36-.81-.81-.81s-.81.36-.81.81v2.71c0,.45.36.81.81.81Z" style="fill: #0072bc; stroke-width: 0px;"/>
          <path d="m54.15,48.24c.45,0,.81-.36.81-.81v-2.71c0-.45-.36-.81-.81-.81s-.81.36-.81.81v2.71c0,.45.36.81.81.81Z" style="fill: #0072bc; stroke-width: 0px;"/>
          <path d="m54.15,65.03c-.45,0-.81.36-.81.81v2.71c0,.45.36.81.81.81s.81-.36.81-.81v-2.71c0-.45-.36-.81-.81-.81Z" style="fill: #0072bc; stroke-width: 0px;"/>
        </g>
      </g>
    </g>
    <g>
      <path d="m498.73,93.07c.28,0,.5.08.67.24.16.16.25.37.25.62v1.55h-10.42v-.86c0-.18.04-.36.11-.55.07-.19.19-.37.35-.52l4.61-4.62c.38-.39.73-.77,1.03-1.12.3-.36.56-.71.76-1.06s.36-.71.47-1.07c.11-.36.16-.74.16-1.14,0-.36-.05-.68-.16-.96-.1-.28-.25-.51-.45-.7-.19-.19-.42-.33-.69-.43-.27-.09-.57-.14-.91-.14-.31,0-.59.04-.86.13-.26.09-.5.21-.7.37-.2.16-.37.34-.51.55-.14.21-.25.44-.32.69-.12.32-.27.54-.46.64s-.46.13-.82.07l-1.36-.24c.1-.73.31-1.37.61-1.92s.68-1.01,1.13-1.38c.45-.37.97-.64,1.55-.83s1.21-.28,1.88-.28,1.34.1,1.92.31c.58.21,1.08.5,1.49.88.41.38.74.83.97,1.37.23.53.35,1.12.35,1.77,0,.56-.08,1.08-.25,1.55-.16.48-.38.93-.66,1.37-.28.43-.6.85-.97,1.26-.37.41-.76.82-1.17,1.24l-3.42,3.5c.33-.1.66-.17.98-.23.33-.05.64-.08.93-.08h3.9Z" style="fill: #506489; stroke-width: 0px;"/>
      <path d="m512.26,89.76v1.5c0,.14-.05.26-.14.36-.09.1-.22.15-.39.15h-1.39v3.71h-2.26v-3.71h-6.41c-.17,0-.33-.05-.46-.16s-.22-.24-.25-.4l-.27-1.31,7.19-9.61h2.46v9.47h1.91Zm-4.17,0v-4.97c0-.47.03-.99.09-1.55l-4.71,6.52h4.62Z" style="fill: #506489; stroke-width: 0px;"/>
      <path d="m520.61,83.98c0,.57-.1,1.09-.29,1.55s-.45.86-.77,1.18c-.32.33-.7.58-1.12.75-.43.17-.87.26-1.33.26-.5,0-.97-.09-1.4-.26-.43-.17-.8-.43-1.11-.75-.31-.33-.55-.72-.73-1.18-.17-.46-.26-.98-.26-1.55s.09-1.12.26-1.6c.18-.48.42-.88.73-1.21.31-.33.68-.58,1.11-.76.43-.18.89-.27,1.4-.27s.97.09,1.4.27.8.43,1.12.76c.32.33.56.73.74,1.21s.26,1.01.26,1.6Zm5.05-3.27c.09-.1.2-.2.32-.28.12-.08.29-.13.52-.13h1.89l-11.28,14.79c-.09.11-.2.21-.33.28-.13.07-.28.11-.46.11h-1.93l11.27-14.77Zm-7.05,3.27c0-.41-.04-.75-.12-1.02s-.19-.49-.33-.66-.3-.29-.48-.36c-.19-.07-.38-.11-.59-.11s-.41.04-.59.11c-.18.07-.34.19-.47.36s-.23.39-.31.66-.12.61-.12,1.02.04.72.12.98c.08.26.18.47.31.64.13.16.29.28.47.35.18.07.38.1.59.1s.41-.04.59-.1c.18-.07.35-.19.48-.35.14-.16.24-.37.33-.64.08-.26.12-.59.12-.98Zm10.57,7.94c0,.57-.1,1.09-.29,1.55-.19.46-.45.86-.77,1.18-.32.33-.7.58-1.12.76-.43.18-.87.27-1.33.27-.5,0-.97-.09-1.4-.27-.43-.18-.8-.43-1.11-.76-.31-.33-.55-.72-.73-1.18-.17-.46-.26-.98-.26-1.55s.09-1.12.26-1.6c.18-.48.42-.88.73-1.21.31-.33.68-.58,1.11-.76.43-.18.89-.27,1.4-.27s.97.09,1.4.27c.43.18.8.43,1.11.76.31.33.56.73.73,1.21.18.48.27,1.01.27,1.6Zm-2.01,0c0-.41-.04-.75-.12-1.02-.08-.27-.18-.49-.32-.66s-.3-.29-.48-.36c-.19-.07-.38-.11-.59-.11s-.41.04-.59.11c-.18.07-.34.19-.47.36s-.24.39-.31.66-.11.61-.11,1.02.04.72.11.99.18.48.31.64.29.28.47.35c.18.07.38.1.59.1s.41-.03.59-.1c.19-.07.35-.19.48-.35s.24-.37.32-.64c.08-.27.12-.59.12-.99Z" style="fill: #506489; stroke-width: 0px;"/>
      <path d="m417,103.81c.22-.49.5-.86.83-1.14s.73-.41,1.2-.41c.15,0,.29.02.43.05.14.03.26.08.37.15l-.09.93c-.03.12-.1.17-.21.17-.07,0-.16-.01-.29-.04-.13-.03-.27-.04-.43-.04-.22,0-.42.03-.6.1-.18.07-.33.16-.47.29-.14.13-.26.29-.37.48-.11.19-.21.4-.3.65v4.48h-1.25v-7.09h.71c.14,0,.23.03.28.08.05.05.09.14.1.27l.08,1.08Z" style="fill: #222; stroke-width: 0px;"/>
      <path d="m426.38,108.49c-.15.19-.34.35-.55.49s-.44.25-.69.34-.5.16-.76.2c-.26.04-.52.07-.78.07-.49,0-.94-.08-1.35-.25-.41-.17-.77-.41-1.07-.73-.3-.32-.54-.72-.7-1.19s-.25-1.01-.25-1.62c0-.49.08-.96.23-1.39.15-.43.37-.8.65-1.12.28-.31.63-.56,1.04-.74.41-.18.87-.27,1.39-.27.42,0,.82.07,1.18.21.36.14.67.35.94.62.26.27.47.6.62.99.15.39.22.84.22,1.35,0,.2-.02.33-.06.39-.04.07-.12.1-.24.1h-4.74c.01.45.08.84.19,1.17.11.33.26.61.46.83.2.22.43.39.7.5.27.11.57.16.91.16.31,0,.58-.04.81-.11.23-.07.42-.15.58-.23.16-.08.3-.16.41-.23s.2-.11.28-.11c.1,0,.18.04.24.12l.35.46Zm-1.01-3.32c0-.29-.04-.55-.12-.79-.08-.24-.2-.45-.36-.62-.16-.18-.35-.31-.57-.41s-.48-.14-.76-.14c-.6,0-1.07.17-1.42.52s-.56.83-.65,1.45h3.88Z" style="fill: #222; stroke-width: 0px;"/>
      <path d="m428.41,109.48v-6.03l-.79-.09c-.1-.02-.18-.06-.24-.11s-.09-.12-.09-.21v-.51h1.12v-.69c0-.41.06-.77.17-1.08.11-.32.28-.58.49-.8.21-.22.47-.38.77-.49.3-.11.63-.17,1.01-.17.32,0,.61.05.88.14l-.03.62c0,.11-.07.17-.19.18s-.27.01-.46.01c-.21,0-.41.03-.58.08-.17.06-.33.15-.45.27-.12.13-.22.29-.29.5-.07.21-.1.46-.1.76v.65h2.04v.9h-2v6.05h-1.25Z" style="fill: #222; stroke-width: 0px;"/>
      <path d="m438.69,102.39v7.09h-.74c-.18,0-.29-.09-.34-.26l-.1-.76c-.31.34-.65.61-1.04.82-.38.21-.82.31-1.32.31-.39,0-.73-.06-1.03-.19s-.54-.31-.75-.54c-.2-.23-.35-.52-.45-.85-.1-.33-.15-.7-.15-1.1v-4.52h1.25v4.52c0,.54.12.95.37,1.25.25.29.62.44,1.12.44.37,0,.71-.09,1.03-.26s.61-.42.89-.72v-5.22h1.25Z" style="fill: #222; stroke-width: 0px;"/>
      <path d="m446.64,102.67v.46c0,.15-.1.25-.29.29l-.81.1c.16.31.24.65.24,1.02,0,.35-.07.66-.2.94s-.32.52-.55.72c-.23.2-.51.35-.84.46s-.68.16-1.06.16c-.33,0-.64-.04-.94-.12-.15.09-.26.19-.34.3-.08.1-.12.21-.12.32,0,.17.07.3.21.38.14.09.32.15.54.19.22.04.48.06.77.07s.58.02.88.05c.3.02.59.06.88.11s.54.14.77.25.41.28.54.48c.14.21.21.47.21.8,0,.3-.08.6-.23.88s-.37.54-.65.76c-.28.22-.63.4-1.05.53s-.88.2-1.4.2-.97-.05-1.36-.15c-.39-.1-.71-.24-.96-.41-.26-.17-.45-.37-.58-.6-.13-.23-.19-.46-.19-.71,0-.35.11-.65.33-.89.22-.24.52-.44.9-.58-.21-.09-.38-.22-.5-.37s-.19-.37-.19-.63c0-.1.02-.21.06-.32.04-.11.09-.22.17-.33.08-.11.17-.21.28-.31.11-.1.24-.18.39-.26-.35-.2-.62-.46-.82-.78s-.29-.7-.29-1.13c0-.35.07-.66.2-.94.13-.28.32-.52.56-.72.24-.2.52-.35.85-.46s.69-.16,1.08-.16c.31,0,.59.03.86.1.27.07.51.17.73.3h1.93Zm-1.27,7.2c0-.17-.05-.31-.15-.42-.1-.11-.23-.19-.4-.25-.17-.06-.36-.1-.58-.13-.22-.03-.45-.05-.7-.06-.24-.01-.49-.03-.75-.04s-.5-.04-.73-.07c-.26.12-.48.27-.64.46-.17.18-.25.4-.25.65,0,.16.04.31.12.44.08.14.21.26.38.36.17.1.38.18.63.24.25.06.55.09.9.09s.64-.03.9-.09c.27-.06.49-.15.68-.26.18-.11.33-.25.42-.4s.15-.32.15-.51Zm-2.25-3.85c.25,0,.47-.04.66-.1.19-.07.35-.17.48-.29.13-.13.23-.28.29-.45.07-.18.1-.37.1-.58,0-.43-.13-.78-.39-1.04-.26-.26-.65-.38-1.14-.38s-.89.13-1.15.38c-.26.26-.39.6-.39,1.04,0,.21.03.4.1.58.07.17.17.33.3.45.13.13.29.22.48.29.19.07.41.1.67.1Z" style="fill: #222; stroke-width: 0px;"/>
      <path d="m453.58,108.49c-.15.19-.34.35-.55.49s-.44.25-.69.34c-.24.09-.5.16-.76.2-.26.04-.52.07-.78.07-.49,0-.94-.08-1.35-.25s-.77-.41-1.07-.73c-.3-.32-.54-.72-.7-1.19s-.25-1.01-.25-1.62c0-.49.08-.96.23-1.39.15-.43.37-.8.65-1.12s.63-.56,1.04-.74.87-.27,1.39-.27c.42,0,.82.07,1.18.21.36.14.67.35.94.62.26.27.47.6.62.99s.22.84.22,1.35c0,.2-.02.33-.06.39-.04.07-.12.1-.24.1h-4.74c.01.45.08.84.19,1.17.11.33.26.61.46.83s.43.39.7.5c.27.11.57.16.91.16.31,0,.58-.04.81-.11.23-.07.42-.15.58-.23s.3-.16.41-.23.21-.11.28-.11c.1,0,.18.04.24.12l.35.46Zm-1.01-3.32c0-.29-.04-.55-.12-.79-.08-.24-.2-.45-.36-.62-.16-.18-.35-.31-.57-.41-.22-.1-.48-.14-.76-.14-.6,0-1.07.17-1.42.52s-.56.83-.65,1.45h3.88Z" style="fill: #222; stroke-width: 0px;"/>
      <path d="m460.97,108.49c-.15.19-.34.35-.55.49s-.44.25-.69.34-.5.16-.76.2c-.26.04-.52.07-.78.07-.49,0-.94-.08-1.35-.25-.41-.17-.77-.41-1.07-.73-.3-.32-.54-.72-.7-1.19s-.25-1.01-.25-1.62c0-.49.08-.96.23-1.39.15-.43.37-.8.65-1.12.28-.31.63-.56,1.04-.74.41-.18.87-.27,1.39-.27.42,0,.82.07,1.18.21.36.14.67.35.94.62.26.27.47.6.62.99.15.39.22.84.22,1.35,0,.2-.02.33-.06.39-.04.07-.12.1-.24.1h-4.74c.01.45.08.84.19,1.17.11.33.26.61.46.83.2.22.43.39.7.5.27.11.57.16.91.16.31,0,.58-.04.81-.11.23-.07.42-.15.58-.23.16-.08.3-.16.41-.23s.2-.11.28-.11c.1,0,.18.04.24.12l.35.46Zm-1.01-3.32c0-.29-.04-.55-.12-.79-.08-.24-.2-.45-.36-.62-.16-.18-.35-.31-.57-.41s-.48-.14-.76-.14c-.6,0-1.07.17-1.42.52s-.56.83-.65,1.45h3.88Z" style="fill: #222; stroke-width: 0px;"/>
      <path d="m466.74,103.56c-.06.1-.14.15-.26.15-.07,0-.15-.03-.24-.08-.09-.05-.2-.11-.33-.17-.13-.06-.28-.12-.46-.17s-.39-.08-.63-.08c-.21,0-.4.03-.57.08s-.31.13-.43.22c-.12.09-.21.2-.27.33s-.09.26-.09.4c0,.18.05.33.16.46.1.12.24.23.42.31.17.09.37.17.59.23.22.07.44.14.68.22.23.08.46.16.68.26.22.09.42.21.59.35.17.14.31.31.42.51.11.2.16.45.16.73,0,.33-.06.63-.18.91-.12.28-.29.52-.52.72s-.51.36-.84.48c-.33.12-.71.17-1.15.17-.49,0-.94-.08-1.34-.24-.4-.16-.74-.37-1.02-.62l.29-.48c.04-.06.08-.11.13-.14.05-.03.12-.05.2-.05.08,0,.17.03.27.1.09.07.21.14.34.22.13.08.3.15.49.22s.43.1.71.1c.24,0,.46-.03.64-.09.18-.06.33-.15.46-.26.12-.11.21-.23.27-.37.06-.14.09-.29.09-.45,0-.2-.05-.36-.16-.49s-.24-.24-.42-.33c-.17-.09-.37-.17-.59-.24-.22-.07-.45-.14-.68-.21-.23-.07-.46-.16-.68-.26s-.42-.22-.59-.36c-.17-.14-.31-.32-.42-.54s-.16-.47-.16-.77c0-.27.06-.53.17-.78.11-.25.27-.47.49-.66s.48-.34.79-.45c.31-.11.67-.17,1.07-.17.47,0,.88.07,1.26.22s.69.35.96.61l-.28.46Z" style="fill: #222; stroke-width: 0px;"/>
      <path d="m473.44,103.81c.22-.49.5-.86.83-1.14.33-.27.73-.41,1.2-.41.15,0,.29.02.43.05s.26.08.37.15l-.09.93c-.03.12-.1.17-.21.17-.07,0-.16-.01-.29-.04-.13-.03-.27-.04-.43-.04-.22,0-.42.03-.6.1s-.33.16-.47.29-.26.29-.37.48c-.11.19-.21.4-.3.65v4.48h-1.25v-7.09h.71c.14,0,.23.03.28.08.05.05.09.14.1.27l.08,1.08Z" style="fill: #222; stroke-width: 0px;"/>
      <path d="m482.82,108.49c-.15.19-.34.35-.55.49s-.45.25-.69.34c-.25.09-.5.16-.76.2-.26.04-.52.07-.78.07-.49,0-.94-.08-1.35-.25s-.77-.41-1.07-.73-.54-.72-.7-1.19-.25-1.01-.25-1.62c0-.49.08-.96.23-1.39.15-.43.37-.8.65-1.12s.63-.56,1.04-.74.87-.27,1.39-.27c.42,0,.82.07,1.18.21.36.14.67.35.94.62.26.27.47.6.62.99s.22.84.22,1.35c0,.2-.02.33-.06.39-.04.07-.12.1-.24.1h-4.74c.01.45.08.84.19,1.17.11.33.26.61.46.83s.43.39.7.5c.27.11.57.16.91.16.31,0,.58-.04.81-.11.23-.07.42-.15.58-.23s.3-.16.41-.23c.11-.07.2-.11.28-.11.1,0,.18.04.24.12l.35.46Zm-1.01-3.32c0-.29-.04-.55-.12-.79-.08-.24-.2-.45-.36-.62-.16-.18-.35-.31-.57-.41-.22-.1-.48-.14-.76-.14-.6,0-1.07.17-1.42.52s-.56.83-.65,1.45h3.88Z" style="fill: #222; stroke-width: 0px;"/>
      <path d="m486.59,109.59c-.56,0-.99-.16-1.29-.47s-.45-.76-.45-1.35v-4.34h-.85c-.08,0-.14-.02-.19-.07-.05-.04-.08-.11-.08-.21v-.5l1.16-.15.29-2.19c.01-.07.05-.13.1-.17.05-.04.11-.07.19-.07h.63v2.44h2.05v.9h-2.05v4.26c0,.3.07.52.22.67s.33.22.56.22c.13,0,.24-.02.34-.05.09-.04.18-.07.25-.12.07-.04.13-.08.18-.12.05-.04.09-.05.13-.05.07,0,.12.04.18.12l.36.59c-.21.2-.47.36-.78.47s-.62.17-.94.17Z" style="fill: #222; stroke-width: 0px;"/>
      <path d="m495.26,102.39v7.09h-.74c-.18,0-.29-.09-.34-.26l-.1-.76c-.31.34-.65.61-1.04.82-.38.21-.82.31-1.32.31-.39,0-.73-.06-1.03-.19-.3-.13-.54-.31-.75-.54s-.35-.52-.45-.85c-.1-.33-.15-.7-.15-1.1v-4.52h1.25v4.52c0,.54.12.95.37,1.25.25.29.62.44,1.12.44.37,0,.71-.09,1.03-.26.32-.17.62-.42.89-.72v-5.22h1.25Z" style="fill: #222; stroke-width: 0px;"/>
      <path d="m498.42,103.81c.22-.49.5-.86.83-1.14s.73-.41,1.2-.41c.15,0,.29.02.43.05.14.03.26.08.37.15l-.09.93c-.03.12-.1.17-.21.17-.06,0-.16-.01-.29-.04-.12-.03-.27-.04-.43-.04-.22,0-.42.03-.6.1-.17.07-.33.16-.47.29-.14.13-.26.29-.37.48s-.21.4-.3.65v4.48h-1.25v-7.09h.71c.13,0,.23.03.28.08.05.05.09.14.11.27l.08,1.08Z" style="fill: #222; stroke-width: 0px;"/>
      <path d="m503.5,103.42c.15-.17.32-.33.49-.47.17-.14.36-.26.55-.36.19-.1.4-.18.62-.23s.45-.08.7-.08c.39,0,.73.06,1.03.19.3.13.54.31.74.55.2.24.35.52.45.85.1.33.15.7.15,1.1v4.52h-1.25v-4.52c0-.54-.12-.95-.37-1.25s-.62-.44-1.12-.44c-.37,0-.71.09-1.03.27-.32.18-.61.42-.88.72v5.22h-1.25v-7.09h.75c.18,0,.29.09.33.26l.1.77Z" style="fill: #222; stroke-width: 0px;"/>
      <path d="m515.89,108.49c-.15.19-.34.35-.55.49s-.44.25-.69.34-.5.16-.76.2c-.26.04-.52.07-.78.07-.49,0-.94-.08-1.35-.25-.41-.17-.77-.41-1.07-.73-.3-.32-.54-.72-.7-1.19s-.25-1.01-.25-1.62c0-.49.08-.96.23-1.39.15-.43.37-.8.65-1.12.28-.31.63-.56,1.04-.74.41-.18.87-.27,1.39-.27.42,0,.82.07,1.18.21.36.14.67.35.94.62.26.27.47.6.62.99.15.39.22.84.22,1.35,0,.2-.02.33-.06.39-.04.07-.12.1-.24.1h-4.74c.01.45.08.84.19,1.17.11.33.26.61.46.83.2.22.43.39.7.5.27.11.57.16.91.16.31,0,.58-.04.81-.11.23-.07.42-.15.58-.23.16-.08.3-.16.41-.23s.2-.11.28-.11c.1,0,.18.04.24.12l.35.46Zm-1.01-3.32c0-.29-.04-.55-.12-.79-.08-.24-.2-.45-.36-.62-.16-.18-.35-.31-.57-.41s-.48-.14-.76-.14c-.6,0-1.07.17-1.42.52s-.56.83-.65,1.45h3.88Z" style="fill: #222; stroke-width: 0px;"/>
      <path d="m523.29,108.49c-.15.19-.34.35-.55.49s-.45.25-.69.34c-.25.09-.5.16-.76.2-.26.04-.52.07-.78.07-.49,0-.94-.08-1.35-.25s-.77-.41-1.07-.73-.54-.72-.7-1.19-.25-1.01-.25-1.62c0-.49.08-.96.23-1.39.15-.43.37-.8.65-1.12s.63-.56,1.04-.74.87-.27,1.39-.27c.42,0,.82.07,1.18.21.36.14.67.35.94.62.26.27.47.6.62.99s.22.84.22,1.35c0,.2-.02.33-.06.39-.04.07-.12.1-.24.1h-4.74c.01.45.08.84.19,1.17.11.33.26.61.46.83s.43.39.7.5c.27.11.57.16.91.16.31,0,.58-.04.81-.11.23-.07.42-.15.58-.23s.3-.16.41-.23c.11-.07.2-.11.28-.11.1,0,.18.04.24.12l.35.46Zm-1.01-3.32c0-.29-.04-.55-.12-.79-.08-.24-.2-.45-.36-.62-.16-.18-.35-.31-.57-.41-.22-.1-.48-.14-.76-.14-.6,0-1.07.17-1.42.52s-.56.83-.65,1.45h3.88Z" style="fill: #222; stroke-width: 0px;"/>
      <path d="m529.05,103.56c-.06.1-.14.15-.26.15-.07,0-.15-.03-.24-.08-.09-.05-.2-.11-.33-.17s-.28-.12-.46-.17c-.18-.05-.39-.08-.63-.08-.21,0-.4.03-.57.08s-.31.13-.43.22c-.12.09-.21.2-.27.33-.06.12-.09.26-.09.4,0,.18.05.33.16.46.1.12.24.23.42.31.17.09.37.17.59.23.22.07.44.14.68.22.23.08.46.16.67.26.22.09.42.21.59.35s.31.31.42.51c.1.2.16.45.16.73,0,.33-.06.63-.17.91-.12.28-.29.52-.52.72-.23.2-.51.36-.84.48s-.71.17-1.15.17c-.5,0-.94-.08-1.34-.24-.4-.16-.74-.37-1.02-.62l.29-.48c.04-.06.08-.11.13-.14.05-.03.12-.05.2-.05.08,0,.17.03.27.1s.21.14.34.22c.13.08.3.15.49.22s.43.1.71.1c.24,0,.46-.03.64-.09s.33-.15.46-.26.21-.23.27-.37c.06-.14.09-.29.09-.45,0-.2-.05-.36-.16-.49-.1-.13-.24-.24-.42-.33s-.37-.17-.59-.24c-.22-.07-.45-.14-.68-.21-.23-.07-.46-.16-.68-.26-.22-.1-.42-.22-.59-.36s-.31-.32-.42-.54c-.11-.21-.16-.47-.16-.77,0-.27.06-.53.17-.78.11-.25.28-.47.49-.66s.48-.34.79-.45c.31-.11.67-.17,1.07-.17.47,0,.89.07,1.26.22s.69.35.96.61l-.28.46Z" style="fill: #222; stroke-width: 0px;"/>
    </g>
    <g>
      <path d="m21.47,12.91v1.12c0,.34-.04.61-.11.81-.07.21-.14.38-.21.52l-5.75,11.84c-.12.25-.29.45-.5.62-.22.17-.51.26-.87.26h-1.88l5.87-11.6c.13-.24.26-.46.39-.66.13-.2.27-.39.44-.57h-7.27c-.16,0-.3-.06-.42-.18-.12-.12-.18-.26-.18-.42v-1.75h10.49Z" style="fill: #0072bc; stroke-width: 0px;"/>
      <path d="m27.66,18.42l-.52.65c.29-.15.61-.26.95-.34.34-.08.71-.12,1.1-.12.57,0,1.13.09,1.67.28.54.19,1.02.47,1.43.86.41.38.75.86,1,1.42s.38,1.23.38,1.98c0,.71-.13,1.37-.39,1.99-.26.62-.62,1.16-1.09,1.62-.47.46-1.03.83-1.7,1.09s-1.39.4-2.19.4-1.54-.13-2.18-.39c-.64-.26-1.19-.62-1.65-1.09s-.8-1.03-1.04-1.68c-.24-.65-.36-1.38-.36-2.18,0-.71.15-1.45.44-2.2s.74-1.53,1.35-2.35l3.62-4.86c.13-.17.31-.31.55-.43.24-.12.52-.18.83-.18h2.31l-4.5,5.51Zm.59,7.72c.41,0,.79-.07,1.14-.21.35-.14.64-.34.89-.59.25-.25.44-.55.58-.89.14-.34.21-.71.21-1.11,0-.43-.07-.82-.2-1.17-.13-.35-.32-.64-.57-.88-.25-.24-.54-.43-.88-.55-.34-.13-.72-.19-1.13-.19s-.79.07-1.12.21c-.34.14-.62.33-.86.58-.24.25-.42.54-.56.88-.13.34-.2.71-.2,1.1,0,.42.06.8.17,1.15.12.35.29.64.51.89s.51.44.85.57c.34.14.72.2,1.17.2Z" style="fill: #0072bc; stroke-width: 0px;"/>
      <path d="m42.18,16.58c0,.57-.1,1.09-.29,1.55s-.45.86-.77,1.18c-.32.33-.7.58-1.12.75-.43.17-.87.26-1.33.26-.5,0-.97-.09-1.4-.26s-.8-.43-1.11-.75c-.31-.33-.55-.72-.73-1.18-.17-.46-.26-.98-.26-1.55s.09-1.12.26-1.6c.18-.48.42-.88.73-1.21s.68-.58,1.11-.76.89-.27,1.4-.27.97.09,1.4.27c.43.18.8.43,1.12.76.31.33.56.73.73,1.21s.26,1.01.26,1.6Zm5.05-3.27c.09-.1.2-.2.32-.28.12-.08.29-.13.52-.13h1.89l-11.28,14.79c-.09.11-.2.21-.33.28-.13.07-.28.11-.46.11h-1.93l11.27-14.77Zm-7.05,3.27c0-.41-.04-.75-.12-1.02-.08-.27-.19-.49-.33-.66s-.3-.29-.48-.36c-.19-.07-.38-.11-.59-.11s-.41.04-.59.11c-.18.07-.34.19-.47.36-.13.17-.23.39-.31.66s-.12.61-.12,1.02.04.72.12.98c.08.26.18.47.31.64.13.16.29.28.47.35.18.07.38.1.59.1s.41-.04.59-.1c.18-.07.35-.19.48-.35.14-.16.25-.37.33-.64.08-.26.12-.59.12-.98Zm10.57,7.94c0,.57-.1,1.09-.29,1.55-.19.46-.45.86-.77,1.18-.32.33-.7.58-1.12.76-.43.18-.87.27-1.33.27-.5,0-.97-.09-1.4-.27-.43-.18-.8-.43-1.11-.76-.31-.33-.55-.72-.73-1.18s-.26-.98-.26-1.55.09-1.12.26-1.6.42-.88.73-1.21.68-.58,1.11-.76c.43-.18.89-.27,1.4-.27s.97.09,1.4.27.8.43,1.11.76c.31.33.56.73.73,1.21s.27,1.01.27,1.6Zm-2,0c0-.41-.04-.75-.12-1.02-.08-.27-.18-.49-.32-.66-.14-.17-.3-.29-.48-.36-.19-.07-.38-.11-.59-.11s-.41.04-.59.11c-.18.07-.34.19-.47.36-.13.17-.24.39-.31.66-.07.27-.11.61-.11,1.02s.04.72.11.99c.07.27.18.48.31.64.13.16.29.28.47.35.18.07.38.1.59.1s.41-.03.59-.1c.19-.07.35-.19.48-.35.14-.16.24-.37.32-.64.08-.27.12-.59.12-.99Z" style="fill: #0072bc; stroke-width: 0px;"/>
      <path d="m57.32,22.42c.22-.49.5-.86.83-1.14.33-.27.73-.41,1.2-.41.15,0,.29.02.43.05s.26.08.37.15l-.09.93c-.03.12-.1.17-.21.17-.07,0-.16-.01-.29-.04-.13-.03-.27-.04-.43-.04-.22,0-.42.03-.6.1s-.33.16-.47.29c-.14.13-.26.29-.37.48-.11.19-.21.4-.3.65v4.48h-1.25v-7.09h.71c.14,0,.23.03.28.08.05.05.09.14.1.27l.08,1.08Z" style="fill: #222; stroke-width: 0px;"/>
      <path d="m66.7,27.1c-.15.19-.34.35-.55.49s-.44.25-.69.34-.5.16-.76.2c-.26.04-.52.07-.78.07-.49,0-.94-.08-1.35-.25s-.77-.41-1.07-.73-.54-.72-.7-1.19-.25-1.01-.25-1.62c0-.49.08-.96.23-1.39.15-.43.37-.8.65-1.12.28-.31.63-.56,1.04-.74.41-.18.87-.27,1.39-.27.42,0,.82.07,1.18.21.36.14.67.35.94.62.26.27.47.6.62.99s.22.84.22,1.35c0,.2-.02.33-.06.39-.04.07-.12.1-.24.1h-4.74c.01.45.08.84.19,1.17.11.33.26.61.46.83.2.22.43.39.7.5.27.11.57.16.91.16.31,0,.58-.04.81-.11.23-.07.42-.15.58-.23.16-.08.3-.16.41-.23s.2-.11.28-.11c.1,0,.18.04.24.12l.35.46Zm-1.01-3.32c0-.29-.04-.55-.12-.79-.08-.24-.2-.45-.36-.62-.16-.18-.35-.31-.57-.41-.22-.1-.48-.14-.76-.14-.6,0-1.07.17-1.42.52s-.56.83-.65,1.45h3.88Z" style="fill: #222; stroke-width: 0px;"/>
      <path d="m68.73,28.09v-6.03l-.78-.09c-.1-.02-.18-.06-.24-.11-.06-.05-.09-.12-.09-.21v-.51h1.12v-.69c0-.41.06-.77.17-1.08.11-.32.28-.58.49-.8.21-.22.47-.38.77-.49.3-.11.63-.17,1.01-.17.32,0,.61.05.88.14l-.03.62c0,.11-.07.17-.19.18s-.27.01-.46.01c-.21,0-.41.03-.58.08-.17.06-.33.15-.45.27-.13.13-.22.29-.29.5-.07.21-.1.46-.1.76v.65h2.04v.9h-2v6.05h-1.25Z" style="fill: #222; stroke-width: 0px;"/>
      <path d="m79.01,21v7.09h-.74c-.18,0-.29-.09-.34-.26l-.1-.76c-.31.34-.65.61-1.04.82-.38.21-.82.31-1.32.31-.39,0-.73-.06-1.03-.19-.3-.13-.54-.31-.75-.54-.2-.23-.35-.52-.45-.85-.1-.33-.15-.7-.15-1.1v-4.52h1.25v4.52c0,.54.12.95.37,1.25.25.29.62.44,1.12.44.37,0,.71-.09,1.03-.26s.62-.42.89-.72v-5.22h1.25Z" style="fill: #222; stroke-width: 0px;"/>
      <path d="m86.97,21.28v.46c0,.15-.1.25-.29.29l-.81.1c.16.31.24.65.24,1.02,0,.35-.07.66-.2.94-.13.28-.32.52-.55.72-.23.2-.51.35-.84.46-.33.11-.68.16-1.06.16-.33,0-.64-.04-.94-.12-.15.09-.26.19-.34.3-.08.1-.12.21-.12.32,0,.17.07.3.21.38.14.09.32.15.54.19.22.04.48.06.77.07.29,0,.58.02.88.05.3.02.59.06.88.11s.54.14.77.25c.22.12.4.28.54.48.14.21.21.47.21.8,0,.3-.08.6-.23.88-.15.28-.37.54-.65.76-.29.22-.63.4-1.05.53s-.88.2-1.4.2-.97-.05-1.36-.15c-.39-.1-.71-.24-.97-.41-.26-.17-.45-.37-.58-.6-.13-.23-.19-.46-.19-.71,0-.35.11-.65.33-.89.22-.24.52-.44.9-.58-.21-.09-.38-.22-.5-.37-.12-.16-.19-.37-.19-.63,0-.1.02-.21.06-.32.04-.11.09-.22.17-.33.08-.11.17-.21.28-.31.11-.1.24-.18.39-.26-.35-.2-.62-.46-.82-.78-.2-.32-.29-.7-.29-1.13,0-.35.07-.66.2-.94.13-.28.32-.52.56-.72s.52-.35.85-.46.69-.16,1.08-.16c.31,0,.6.03.86.1.27.07.51.17.73.3h1.93Zm-1.27,7.2c0-.17-.05-.31-.15-.42-.1-.11-.23-.19-.4-.25-.17-.06-.36-.1-.58-.13-.22-.03-.45-.05-.7-.06s-.49-.03-.75-.04-.5-.04-.73-.07c-.26.12-.47.27-.64.46-.17.18-.25.4-.25.65,0,.16.04.31.12.44.08.14.21.26.38.36.17.1.38.18.63.24.25.06.55.09.9.09s.64-.03.9-.09c.27-.06.49-.15.68-.26.18-.11.33-.25.42-.4.1-.15.15-.32.15-.51Zm-2.25-3.85c.25,0,.47-.04.67-.1.19-.07.35-.17.48-.29.13-.13.23-.28.29-.45.07-.18.1-.37.1-.58,0-.43-.13-.78-.4-1.04-.26-.26-.64-.38-1.14-.38s-.89.13-1.15.38c-.26.26-.4.6-.4,1.04,0,.21.03.4.1.58.07.17.17.33.3.45.13.13.29.22.48.29.19.07.41.1.67.1Z" style="fill: #222; stroke-width: 0px;"/>
      <path d="m93.9,27.1c-.15.19-.34.35-.55.49s-.44.25-.69.34-.5.16-.76.2c-.26.04-.52.07-.78.07-.49,0-.94-.08-1.35-.25s-.77-.41-1.07-.73c-.3-.32-.54-.72-.7-1.19s-.25-1.01-.25-1.62c0-.49.08-.96.23-1.39.15-.43.37-.8.65-1.12.29-.31.63-.56,1.04-.74.41-.18.87-.27,1.39-.27.42,0,.82.07,1.18.21.36.14.67.35.94.62.26.27.47.6.62.99s.22.84.22,1.35c0,.2-.02.33-.06.39-.04.07-.12.1-.24.1h-4.74c.01.45.08.84.19,1.17.11.33.26.61.46.83.2.22.43.39.7.5.27.11.57.16.91.16.31,0,.58-.04.81-.11.23-.07.42-.15.58-.23.16-.08.3-.16.41-.23.11-.07.2-.11.28-.11.1,0,.18.04.24.12l.35.46Zm-1.01-3.32c0-.29-.04-.55-.12-.79-.08-.24-.2-.45-.36-.62-.16-.18-.35-.31-.57-.41-.22-.1-.48-.14-.76-.14-.6,0-1.07.17-1.42.52s-.56.83-.65,1.45h3.88Z" style="fill: #222; stroke-width: 0px;"/>
      <path d="m101.3,27.1c-.15.19-.34.35-.55.49s-.44.25-.69.34-.5.16-.76.2c-.26.04-.52.07-.78.07-.49,0-.94-.08-1.35-.25s-.77-.41-1.07-.73-.54-.72-.7-1.19-.25-1.01-.25-1.62c0-.49.08-.96.23-1.39.15-.43.37-.8.65-1.12.28-.31.63-.56,1.04-.74.41-.18.87-.27,1.39-.27.42,0,.82.07,1.18.21.36.14.67.35.94.62.26.27.47.6.62.99s.22.84.22,1.35c0,.2-.02.33-.06.39-.04.07-.12.1-.24.1h-4.74c.01.45.08.84.19,1.17.11.33.26.61.46.83.2.22.43.39.7.5.27.11.57.16.91.16.31,0,.58-.04.81-.11.23-.07.42-.15.58-.23.16-.08.3-.16.41-.23s.2-.11.28-.11c.1,0,.18.04.24.12l.35.46Zm-1.01-3.32c0-.29-.04-.55-.12-.79-.08-.24-.2-.45-.36-.62-.16-.18-.35-.31-.57-.41-.22-.1-.48-.14-.76-.14-.6,0-1.07.17-1.42.52s-.56.83-.65,1.45h3.88Z" style="fill: #222; stroke-width: 0px;"/>
      <path d="m107.06,22.17c-.06.1-.14.15-.26.15-.07,0-.15-.03-.24-.08-.09-.05-.2-.11-.33-.17-.13-.06-.28-.12-.46-.17-.18-.05-.39-.08-.63-.08-.21,0-.4.03-.57.08s-.31.13-.43.22c-.12.09-.21.2-.27.33-.06.12-.09.26-.09.4,0,.18.05.33.16.46.1.12.24.23.42.31.17.09.37.17.59.23.22.07.44.14.68.22s.46.16.68.26c.22.09.42.21.59.35s.31.31.42.51c.11.2.16.45.16.73,0,.33-.06.63-.18.91-.12.28-.29.52-.52.72s-.51.36-.84.48c-.33.12-.71.17-1.15.17-.49,0-.94-.08-1.34-.24s-.74-.37-1.02-.62l.29-.48c.04-.06.08-.11.13-.14.05-.03.12-.05.2-.05.08,0,.17.03.27.1.09.07.21.14.34.22.13.08.3.15.49.22s.43.1.71.1c.24,0,.46-.03.64-.09s.33-.15.46-.26.21-.23.27-.37c.06-.14.09-.29.09-.45,0-.2-.05-.36-.16-.49-.1-.13-.24-.24-.42-.33s-.37-.17-.59-.24c-.22-.07-.45-.14-.68-.21-.23-.07-.46-.16-.68-.26-.22-.1-.42-.22-.59-.36s-.31-.32-.42-.54c-.1-.21-.16-.47-.16-.77,0-.27.06-.53.17-.78.11-.25.28-.47.49-.66s.48-.34.79-.45c.31-.11.67-.17,1.07-.17.47,0,.88.07,1.26.22s.69.35.96.61l-.28.46Z" style="fill: #222; stroke-width: 0px;"/>
    </g>
  </g>
  <g id="_360" data-name="360">
    <g style="clip-path: url(#clippath-2);">
      <g>
        <path d="m297.11,47.52c-.49-1.49-2.09-2.29-3.58-1.81-1.49.49-2.29,2.09-1.81,3.58.49,1.49,2.09,2.29,3.58,1.81,1.49-.49,2.29-2.09,1.81-3.58Z" style="fill: #0072bc; stroke-width: 0px;"/>
        <path d="m290.69,62.22l2.78-5.52c.86-1.69.17-3.76-1.52-4.62l-1.81-.91c-.1-.05-.2-.08-.3-.11-4.82-2.12-10.53-.14-12.96,4.61-.37.72-.08,1.6.64,1.97.72.37,1.6.08,1.97-.64,1.4-2.73,4.34-4.17,7.22-3.81l-10.54,20.67c-.37.73-.08,1.62.65,1.99.22.11.44.16.67.16.54,0,1.06-.29,1.32-.81l6.4-12.56,3.17,1.6c3.42,1.86,4.74,6.14,2.94,9.61-.38.72-.09,1.62.63,1.99.36.19.77.21,1.13.1s.68-.37.87-.73c2.38-4.58.9-10.15-3.25-13.01Z" style="fill: #0072bc; stroke-width: 0px;"/>
        <path d="m309.68,58.57l-4.92-4.92c-.43-.43-1.13-.43-1.56,0-.43.43-.43,1.13,0,1.56l3.08,3.08h-9.39c-.59,0-1.06.48-1.06,1.06s.48,1.06,1.06,1.06h9.39l-3.08,3.08c-.43.43-.43,1.13,0,1.56.21.21.5.32.78.32s.56-.11.78-.32l4.92-4.92c.21-.21.32-.49.32-.78s-.12-.57-.32-.78Z" style="fill: #0072bc; stroke-width: 0px;"/>
        <path d="m299.73,62.53c-.59,0-1.06.48-1.06,1.06v3.54c0,.59.48,1.06,1.06,1.06s1.06-.48,1.06-1.06v-3.54c0-.59-.48-1.06-1.06-1.06Z" style="fill: #0072bc; stroke-width: 0px;"/>
        <path d="m299.73,56.16c.59,0,1.06-.48,1.06-1.06v-3.54c0-.59-.48-1.06-1.06-1.06s-1.06.48-1.06,1.06v3.54c0,.59.48,1.06,1.06,1.06Z" style="fill: #0072bc; stroke-width: 0px;"/>
        <path d="m299.73,48.36c.59,0,1.06-.48,1.06-1.06v-3.54c0-.59-.48-1.06-1.06-1.06s-1.06.48-1.06,1.06v3.54c0,.59.48,1.06,1.06,1.06Z" style="fill: #0072bc; stroke-width: 0px;"/>
        <path d="m299.73,70.32c-.59,0-1.06.48-1.06,1.06v3.54c0,.59.48,1.06,1.06,1.06s1.06-.48,1.06-1.06v-3.54c0-.59-.48-1.06-1.06-1.06Z" style="fill: #0072bc; stroke-width: 0px;"/>
      </g>
      <g>
        <path d="m263.11,47.52c-.49-1.49-2.09-2.29-3.58-1.81-1.49.49-2.29,2.09-1.81,3.58.49,1.49,2.09,2.29,3.58,1.81,1.49-.49,2.29-2.09,1.81-3.58Z" style="fill: #0072bc; stroke-width: 0px;"/>
        <path d="m256.69,62.22l2.78-5.52c.86-1.69.17-3.76-1.52-4.62l-1.81-.91c-.1-.05-.2-.08-.3-.11-4.82-2.12-10.53-.14-12.96,4.61-.37.72-.08,1.6.64,1.97.72.37,1.6.08,1.97-.64,1.4-2.73,4.34-4.17,7.22-3.81l-10.54,20.67c-.37.73-.08,1.62.65,1.99.22.11.44.16.67.16.54,0,1.06-.29,1.32-.81l6.4-12.56,3.17,1.6c3.42,1.86,4.74,6.14,2.94,9.61-.38.72-.09,1.62.63,1.99.36.19.77.21,1.13.1s.68-.37.87-.73c2.38-4.58.9-10.15-3.25-13.01Z" style="fill: #0072bc; stroke-width: 0px;"/>
        <path d="m275.68,58.57l-4.92-4.92c-.43-.43-1.13-.43-1.56,0-.43.43-.43,1.13,0,1.56l3.08,3.08h-9.39c-.59,0-1.06.48-1.06,1.06s.48,1.06,1.06,1.06h9.39l-3.08,3.08c-.43.43-.43,1.13,0,1.56.21.21.5.32.78.32s.56-.11.78-.32l4.92-4.92c.21-.21.32-.49.32-.78s-.12-.57-.32-.78Z" style="fill: #0072bc; stroke-width: 0px;"/>
        <path d="m265.73,62.53c-.59,0-1.06.48-1.06,1.06v3.54c0,.59.48,1.06,1.06,1.06s1.06-.48,1.06-1.06v-3.54c0-.59-.48-1.06-1.06-1.06Z" style="fill: #0072bc; stroke-width: 0px;"/>
        <path d="m265.73,56.16c.59,0,1.06-.48,1.06-1.06v-3.54c0-.59-.48-1.06-1.06-1.06s-1.06.48-1.06,1.06v3.54c0,.59.48,1.06,1.06,1.06Z" style="fill: #0072bc; stroke-width: 0px;"/>
        <path d="m265.73,48.36c.59,0,1.06-.48,1.06-1.06v-3.54c0-.59-.48-1.06-1.06-1.06s-1.06.48-1.06,1.06v3.54c0,.59.48,1.06,1.06,1.06Z" style="fill: #0072bc; stroke-width: 0px;"/>
        <path d="m265.73,70.32c-.59,0-1.06.48-1.06,1.06v3.54c0,.59.48,1.06,1.06,1.06s1.06-.48,1.06-1.06v-3.54c0-.59-.48-1.06-1.06-1.06Z" style="fill: #0072bc; stroke-width: 0px;"/>
      </g>
      <g>
        <path d="m229.11,47.52c-.49-1.49-2.09-2.29-3.58-1.81-1.49.49-2.29,2.09-1.81,3.58.49,1.49,2.09,2.29,3.58,1.81,1.49-.49,2.29-2.09,1.81-3.58Z" style="fill: #0072bc; stroke-width: 0px;"/>
        <path d="m222.69,62.22l2.78-5.52c.86-1.69.17-3.76-1.52-4.62l-1.81-.91c-.1-.05-.2-.08-.3-.11-4.82-2.12-10.53-.14-12.96,4.61-.37.72-.08,1.6.64,1.97.72.37,1.6.08,1.97-.64,1.4-2.73,4.34-4.17,7.22-3.81l-10.54,20.67c-.37.73-.08,1.62.65,1.99.22.11.44.16.67.16.54,0,1.06-.29,1.32-.81l6.4-12.56,3.17,1.6c3.42,1.86,4.74,6.14,2.94,9.61-.38.72-.09,1.62.63,1.99.36.19.77.21,1.13.1s.68-.37.87-.73c2.38-4.58.9-10.15-3.25-13.01Z" style="fill: #0072bc; stroke-width: 0px;"/>
        <path d="m241.68,58.57l-4.92-4.92c-.43-.43-1.13-.43-1.56,0-.43.43-.43,1.13,0,1.56l3.08,3.08h-9.39c-.59,0-1.06.48-1.06,1.06s.48,1.06,1.06,1.06h9.39l-3.08,3.08c-.43.43-.43,1.13,0,1.56.21.21.5.32.78.32s.56-.11.78-.32l4.92-4.92c.21-.21.32-.49.32-.78s-.12-.57-.32-.78Z" style="fill: #0072bc; stroke-width: 0px;"/>
        <path d="m231.73,62.53c-.59,0-1.06.48-1.06,1.06v3.54c0,.59.48,1.06,1.06,1.06s1.06-.48,1.06-1.06v-3.54c0-.59-.48-1.06-1.06-1.06Z" style="fill: #0072bc; stroke-width: 0px;"/>
        <path d="m231.73,56.16c.59,0,1.06-.48,1.06-1.06v-3.54c0-.59-.48-1.06-1.06-1.06s-1.06.48-1.06,1.06v3.54c0,.59.48,1.06,1.06,1.06Z" style="fill: #0072bc; stroke-width: 0px;"/>
        <path d="m231.73,48.36c.59,0,1.06-.48,1.06-1.06v-3.54c0-.59-.48-1.06-1.06-1.06s-1.06.48-1.06,1.06v3.54c0,.59.48,1.06,1.06,1.06Z" style="fill: #0072bc; stroke-width: 0px;"/>
        <path d="m231.73,70.32c-.59,0-1.06.48-1.06,1.06v3.54c0,.59.48,1.06,1.06,1.06s1.06-.48,1.06-1.06v-3.54c0-.59-.48-1.06-1.06-1.06Z" style="fill: #0072bc; stroke-width: 0px;"/>
      </g>
      <g>
        <path d="m195.11,47.52c-.49-1.49-2.09-2.29-3.58-1.81-1.49.49-2.29,2.09-1.81,3.58.49,1.49,2.09,2.29,3.58,1.81,1.49-.49,2.29-2.09,1.81-3.58Z" style="fill: #0072bc; stroke-width: 0px;"/>
        <path d="m188.69,62.22l2.78-5.52c.86-1.69.17-3.76-1.52-4.62l-1.81-.91c-.1-.05-.2-.08-.3-.11-4.82-2.12-10.53-.14-12.96,4.61-.37.72-.08,1.6.64,1.97.72.37,1.6.08,1.97-.64,1.4-2.73,4.34-4.17,7.22-3.81l-10.54,20.67c-.37.73-.08,1.62.65,1.99.22.11.44.16.67.16.54,0,1.06-.29,1.32-.81l6.4-12.56,3.17,1.6c3.42,1.86,4.74,6.14,2.94,9.61-.38.72-.09,1.62.63,1.99.36.19.77.21,1.13.1s.68-.37.87-.73c2.38-4.58.9-10.15-3.25-13.01Z" style="fill: #0072bc; stroke-width: 0px;"/>
        <path d="m207.68,58.57l-4.92-4.92c-.43-.43-1.13-.43-1.56,0-.43.43-.43,1.13,0,1.56l3.08,3.08h-9.39c-.59,0-1.06.48-1.06,1.06s.48,1.06,1.06,1.06h9.39l-3.08,3.08c-.43.43-.43,1.13,0,1.56.21.21.5.32.78.32s.56-.11.78-.32l4.92-4.92c.21-.21.32-.49.32-.78s-.12-.57-.32-.78Z" style="fill: #0072bc; stroke-width: 0px;"/>
        <path d="m197.73,62.53c-.59,0-1.06.48-1.06,1.06v3.54c0,.59.48,1.06,1.06,1.06s1.06-.48,1.06-1.06v-3.54c0-.59-.48-1.06-1.06-1.06Z" style="fill: #0072bc; stroke-width: 0px;"/>
        <path d="m197.73,56.16c.59,0,1.06-.48,1.06-1.06v-3.54c0-.59-.48-1.06-1.06-1.06s-1.06.48-1.06,1.06v3.54c0,.59.48,1.06,1.06,1.06Z" style="fill: #0072bc; stroke-width: 0px;"/>
        <path d="m197.73,48.36c.59,0,1.06-.48,1.06-1.06v-3.54c0-.59-.48-1.06-1.06-1.06s-1.06.48-1.06,1.06v3.54c0,.59.48,1.06,1.06,1.06Z" style="fill: #0072bc; stroke-width: 0px;"/>
        <path d="m197.73,70.32c-.59,0-1.06.48-1.06,1.06v3.54c0,.59.48,1.06,1.06,1.06s1.06-.48,1.06-1.06v-3.54c0-.59-.48-1.06-1.06-1.06Z" style="fill: #0072bc; stroke-width: 0px;"/>
      </g>
      <g>
        <path d="m161.11,47.52c-.49-1.49-2.09-2.29-3.58-1.81-1.49.49-2.29,2.09-1.81,3.58.49,1.49,2.09,2.29,3.58,1.81,1.49-.49,2.29-2.09,1.81-3.58Z" style="fill: #0072bc; stroke-width: 0px;"/>
        <path d="m154.69,62.22l2.78-5.52c.86-1.69.17-3.76-1.52-4.62l-1.81-.91c-.1-.05-.2-.08-.3-.11-4.82-2.12-10.53-.14-12.96,4.61-.37.72-.08,1.6.64,1.97.72.37,1.6.08,1.97-.64,1.4-2.73,4.34-4.17,7.22-3.81l-10.54,20.67c-.37.73-.08,1.62.65,1.99.22.11.44.16.67.16.54,0,1.06-.29,1.32-.81l6.4-12.56,3.17,1.6c3.42,1.86,4.74,6.14,2.94,9.61-.38.72-.09,1.62.63,1.99.36.19.77.21,1.13.1s.68-.37.87-.73c2.38-4.58.9-10.15-3.25-13.01Z" style="fill: #0072bc; stroke-width: 0px;"/>
        <path d="m173.68,58.57l-4.92-4.92c-.43-.43-1.13-.43-1.56,0-.43.43-.43,1.13,0,1.56l3.08,3.08h-9.39c-.59,0-1.06.48-1.06,1.06s.48,1.06,1.06,1.06h9.39l-3.08,3.08c-.43.43-.43,1.13,0,1.56.21.21.5.32.78.32s.56-.11.78-.32l4.92-4.92c.21-.21.32-.49.32-.78s-.12-.57-.32-.78Z" style="fill: #0072bc; stroke-width: 0px;"/>
        <path d="m163.73,62.53c-.59,0-1.06.48-1.06,1.06v3.54c0,.59.48,1.06,1.06,1.06s1.06-.48,1.06-1.06v-3.54c0-.59-.48-1.06-1.06-1.06Z" style="fill: #0072bc; stroke-width: 0px;"/>
        <path d="m163.73,56.16c.59,0,1.06-.48,1.06-1.06v-3.54c0-.59-.48-1.06-1.06-1.06s-1.06.48-1.06,1.06v3.54c0,.59.48,1.06,1.06,1.06Z" style="fill: #0072bc; stroke-width: 0px;"/>
        <path d="m163.73,48.36c.59,0,1.06-.48,1.06-1.06v-3.54c0-.59-.48-1.06-1.06-1.06s-1.06.48-1.06,1.06v3.54c0,.59.48,1.06,1.06,1.06Z" style="fill: #0072bc; stroke-width: 0px;"/>
        <path d="m163.73,70.32c-.59,0-1.06.48-1.06,1.06v3.54c0,.59.48,1.06,1.06,1.06s1.06-.48,1.06-1.06v-3.54c0-.59-.48-1.06-1.06-1.06Z" style="fill: #0072bc; stroke-width: 0px;"/>
      </g>
      <g>
        <path d="m127.11,47.52c-.49-1.49-2.09-2.29-3.58-1.81-1.49.49-2.29,2.09-1.81,3.58.49,1.49,2.09,2.29,3.58,1.81,1.49-.49,2.29-2.09,1.81-3.58Z" style="fill: #0072bc; stroke-width: 0px;"/>
        <path d="m120.69,62.22l2.78-5.52c.86-1.69.17-3.76-1.52-4.62l-1.81-.91c-.1-.05-.2-.08-.3-.11-4.82-2.12-10.53-.14-12.96,4.61-.37.72-.08,1.6.64,1.97.72.37,1.6.08,1.97-.64,1.4-2.73,4.34-4.17,7.22-3.81l-10.54,20.67c-.37.73-.08,1.62.65,1.99.22.11.44.16.67.16.54,0,1.06-.29,1.32-.81l6.4-12.56,3.17,1.6c3.42,1.86,4.74,6.14,2.94,9.61-.38.72-.09,1.62.63,1.99.36.19.77.21,1.13.1s.68-.37.87-.73c2.38-4.58.9-10.15-3.25-13.01Z" style="fill: #0072bc; stroke-width: 0px;"/>
        <path d="m139.68,58.57l-4.92-4.92c-.43-.43-1.13-.43-1.56,0-.43.43-.43,1.13,0,1.56l3.08,3.08h-9.39c-.59,0-1.06.48-1.06,1.06s.48,1.06,1.06,1.06h9.39l-3.08,3.08c-.43.43-.43,1.13,0,1.56.21.21.5.32.78.32s.56-.11.78-.32l4.92-4.92c.21-.21.32-.49.32-.78s-.12-.57-.32-.78Z" style="fill: #0072bc; stroke-width: 0px;"/>
        <path d="m129.73,62.53c-.59,0-1.06.48-1.06,1.06v3.54c0,.59.48,1.06,1.06,1.06s1.06-.48,1.06-1.06v-3.54c0-.59-.48-1.06-1.06-1.06Z" style="fill: #0072bc; stroke-width: 0px;"/>
        <path d="m129.73,56.16c.59,0,1.06-.48,1.06-1.06v-3.54c0-.59-.48-1.06-1.06-1.06s-1.06.48-1.06,1.06v3.54c0,.59.48,1.06,1.06,1.06Z" style="fill: #0072bc; stroke-width: 0px;"/>
        <path d="m129.73,48.36c.59,0,1.06-.48,1.06-1.06v-3.54c0-.59-.48-1.06-1.06-1.06s-1.06.48-1.06,1.06v3.54c0,.59.48,1.06,1.06,1.06Z" style="fill: #0072bc; stroke-width: 0px;"/>
        <path d="m129.73,70.32c-.59,0-1.06.48-1.06,1.06v3.54c0,.59.48,1.06,1.06,1.06s1.06-.48,1.06-1.06v-3.54c0-.59-.48-1.06-1.06-1.06Z" style="fill: #0072bc; stroke-width: 0px;"/>
      </g>
      <g>
        <path d="m93.11,47.52c-.49-1.49-2.09-2.29-3.58-1.81-1.49.49-2.29,2.09-1.81,3.58.49,1.49,2.09,2.29,3.58,1.81,1.49-.49,2.29-2.09,1.81-3.58Z" style="fill: #0072bc; stroke-width: 0px;"/>
        <path d="m86.69,62.22l2.78-5.52c.86-1.69.17-3.76-1.52-4.62l-1.81-.91c-.1-.05-.2-.08-.3-.11-4.82-2.12-10.53-.14-12.96,4.61-.37.72-.08,1.6.64,1.97.72.37,1.6.08,1.97-.64,1.4-2.73,4.34-4.17,7.22-3.81l-10.54,20.67c-.37.73-.08,1.62.65,1.99.22.11.44.16.67.16.54,0,1.06-.29,1.32-.81l6.4-12.56,3.17,1.6c3.42,1.86,4.74,6.14,2.94,9.61-.38.72-.09,1.62.63,1.99.36.19.77.21,1.13.1s.68-.37.87-.73c2.38-4.58.9-10.15-3.25-13.01Z" style="fill: #0072bc; stroke-width: 0px;"/>
        <path d="m105.68,58.57l-4.92-4.92c-.43-.43-1.13-.43-1.56,0-.43.43-.43,1.13,0,1.56l3.08,3.08h-9.39c-.59,0-1.06.48-1.06,1.06s.48,1.06,1.06,1.06h9.39l-3.08,3.08c-.43.43-.43,1.13,0,1.56.21.21.5.32.78.32s.56-.11.78-.32l4.92-4.92c.21-.21.32-.49.32-.78s-.12-.57-.32-.78Z" style="fill: #0072bc; stroke-width: 0px;"/>
        <path d="m95.73,62.53c-.59,0-1.06.48-1.06,1.06v3.54c0,.59.48,1.06,1.06,1.06s1.06-.48,1.06-1.06v-3.54c0-.59-.48-1.06-1.06-1.06Z" style="fill: #0072bc; stroke-width: 0px;"/>
        <path d="m95.73,56.16c.59,0,1.06-.48,1.06-1.06v-3.54c0-.59-.48-1.06-1.06-1.06s-1.06.48-1.06,1.06v3.54c0,.59.48,1.06,1.06,1.06Z" style="fill: #0072bc; stroke-width: 0px;"/>
        <path d="m95.73,48.36c.59,0,1.06-.48,1.06-1.06v-3.54c0-.59-.48-1.06-1.06-1.06s-1.06.48-1.06,1.06v3.54c0,.59.48,1.06,1.06,1.06Z" style="fill: #0072bc; stroke-width: 0px;"/>
        <path d="m95.73,70.32c-.59,0-1.06.48-1.06,1.06v3.54c0,.59.48,1.06,1.06,1.06s1.06-.48,1.06-1.06v-3.54c0-.59-.48-1.06-1.06-1.06Z" style="fill: #0072bc; stroke-width: 0px;"/>
      </g>
      <g>
        <path d="m59.11,47.52c-.49-1.49-2.09-2.29-3.58-1.81-1.49.49-2.29,2.09-1.81,3.58.49,1.49,2.09,2.29,3.58,1.81,1.49-.49,2.29-2.09,1.81-3.58Z" style="fill: #0072bc; stroke-width: 0px;"/>
        <path d="m52.69,62.22l2.78-5.52c.86-1.69.17-3.76-1.52-4.62l-1.81-.91c-.1-.05-.2-.08-.3-.11-4.82-2.12-10.53-.14-12.96,4.61-.37.72-.08,1.6.64,1.97.72.37,1.6.08,1.97-.64,1.4-2.73,4.34-4.17,7.22-3.81l-10.54,20.67c-.37.73-.08,1.62.65,1.99.22.11.44.16.67.16.54,0,1.06-.29,1.32-.81l6.4-12.56,3.17,1.6c3.42,1.86,4.74,6.14,2.94,9.61-.38.72-.09,1.62.63,1.99.36.19.77.21,1.13.1s.68-.37.87-.73c2.38-4.58.9-10.15-3.25-13.01Z" style="fill: #0072bc; stroke-width: 0px;"/>
        <path d="m71.68,58.57l-4.92-4.92c-.43-.43-1.13-.43-1.56,0-.43.43-.43,1.13,0,1.56l3.08,3.08h-9.39c-.59,0-1.06.48-1.06,1.06s.48,1.06,1.06,1.06h9.39l-3.08,3.08c-.43.43-.43,1.13,0,1.56.21.21.5.32.78.32s.56-.11.78-.32l4.92-4.92c.21-.21.32-.49.32-.78s-.12-.57-.32-.78Z" style="fill: #0072bc; stroke-width: 0px;"/>
        <path d="m61.73,62.53c-.59,0-1.06.48-1.06,1.06v3.54c0,.59.48,1.06,1.06,1.06s1.06-.48,1.06-1.06v-3.54c0-.59-.48-1.06-1.06-1.06Z" style="fill: #0072bc; stroke-width: 0px;"/>
        <path d="m61.73,56.16c.59,0,1.06-.48,1.06-1.06v-3.54c0-.59-.48-1.06-1.06-1.06s-1.06.48-1.06,1.06v3.54c0,.59.48,1.06,1.06,1.06Z" style="fill: #0072bc; stroke-width: 0px;"/>
        <path d="m61.73,48.36c.59,0,1.06-.48,1.06-1.06v-3.54c0-.59-.48-1.06-1.06-1.06s-1.06.48-1.06,1.06v3.54c0,.59.48,1.06,1.06,1.06Z" style="fill: #0072bc; stroke-width: 0px;"/>
        <path d="m61.73,70.32c-.59,0-1.06.48-1.06,1.06v3.54c0,.59.48,1.06,1.06,1.06s1.06-.48,1.06-1.06v-3.54c0-.59-.48-1.06-1.06-1.06Z" style="fill: #0072bc; stroke-width: 0px;"/>
      </g>
      <g>
        <path d="m25.11,47.52c-.49-1.49-2.09-2.29-3.58-1.81-1.49.49-2.29,2.09-1.81,3.58.49,1.49,2.09,2.29,3.58,1.81,1.49-.49,2.29-2.09,1.81-3.58Z" style="fill: #0072bc; stroke-width: 0px;"/>
        <path d="m18.69,62.22l2.78-5.52c.86-1.69.17-3.76-1.52-4.62l-1.81-.91c-.1-.05-.2-.08-.3-.11-4.82-2.12-10.53-.14-12.96,4.61-.37.72-.08,1.6.64,1.97.72.37,1.6.08,1.97-.64,1.4-2.73,4.34-4.17,7.22-3.81l-10.54,20.67c-.37.73-.08,1.62.65,1.99.22.11.44.16.67.16.54,0,1.06-.29,1.32-.81l6.4-12.56,3.17,1.6c3.42,1.86,4.74,6.14,2.94,9.61-.38.72-.09,1.62.63,1.99.36.19.77.21,1.13.1s.68-.37.87-.73c2.38-4.58.9-10.15-3.25-13.01Z" style="fill: #0072bc; stroke-width: 0px;"/>
        <path d="m37.68,58.57l-4.92-4.92c-.43-.43-1.13-.43-1.56,0-.43.43-.43,1.13,0,1.56l3.08,3.08h-9.39c-.59,0-1.06.48-1.06,1.06s.48,1.06,1.06,1.06h9.39l-3.08,3.08c-.43.43-.43,1.13,0,1.56.21.21.5.32.78.32s.56-.11.78-.32l4.92-4.92c.21-.21.32-.49.32-.78s-.12-.57-.32-.78Z" style="fill: #0072bc; stroke-width: 0px;"/>
        <path d="m27.73,62.53c-.59,0-1.06.48-1.06,1.06v3.54c0,.59.48,1.06,1.06,1.06s1.06-.48,1.06-1.06v-3.54c0-.59-.48-1.06-1.06-1.06Z" style="fill: #0072bc; stroke-width: 0px;"/>
        <path d="m27.73,56.16c.59,0,1.06-.48,1.06-1.06v-3.54c0-.59-.48-1.06-1.06-1.06s-1.06.48-1.06,1.06v3.54c0,.59.48,1.06,1.06,1.06Z" style="fill: #0072bc; stroke-width: 0px;"/>
        <path d="m27.73,48.36c.59,0,1.06-.48,1.06-1.06v-3.54c0-.59-.48-1.06-1.06-1.06s-1.06.48-1.06,1.06v3.54c0,.59.48,1.06,1.06,1.06Z" style="fill: #0072bc; stroke-width: 0px;"/>
        <path d="m27.73,70.32c-.59,0-1.06.48-1.06,1.06v3.54c0,.59.48,1.06,1.06,1.06s1.06-.48,1.06-1.06v-3.54c0-.59-.48-1.06-1.06-1.06Z" style="fill: #0072bc; stroke-width: 0px;"/>
      </g>
      <path d="m3.68,58.57l-4.92-4.92c-.43-.43-1.13-.43-1.56,0-.43.43-.43,1.13,0,1.56l3.08,3.08h-9.39c-.59,0-1.06.48-1.06,1.06s.48,1.06,1.06,1.06H.28l-3.08,3.08c-.43.43-.43,1.13,0,1.56.21.21.5.32.78.32s.56-.11.78-.32l4.92-4.92c.21-.21.32-.49.32-.78s-.12-.57-.32-.78Z" style="fill: #0072bc; stroke-width: 0px;"/>
    </g>
  </g>
</svg>