<?xml version="1.0" encoding="UTF-8"?>
<svg id="treemap-540" xmlns="http://www.w3.org/2000/svg" xmlns:xlink="http://www.w3.org/1999/xlink" viewBox="0 0 540 433">
  <defs>
    <clipPath id="clippath">
      <rect x="1" y="54" width="538" height="359.41" style="fill: none; stroke-width: 0px;"/>
    </clipPath>
  </defs>
  <g>
    <path d="m5.58,422.74s-.06.09-.1.11c-.04.03-.08.04-.13.04-.06,0-.12-.03-.2-.09-.08-.06-.17-.12-.29-.19-.12-.07-.25-.13-.42-.19-.16-.06-.36-.08-.59-.08-.22,0-.41.03-.57.09s-.3.14-.42.24c-.11.1-.2.22-.25.35s-.08.28-.08.44c0,.2.05.37.15.5.1.13.23.24.39.34.16.09.34.17.55.24s.42.14.63.21.42.16.63.25.39.21.55.35c.16.14.29.31.39.52.1.2.15.45.15.75,0,.31-.05.61-.16.88-.11.28-.26.51-.47.72s-.46.36-.75.48c-.3.12-.64.17-1.02.17-.47,0-.89-.08-1.27-.25-.38-.17-.71-.4-.98-.68l.28-.46s.06-.07.1-.09c.04-.03.08-.04.13-.04.04,0,.09.02.15.05.06.04.12.08.19.13.07.05.15.11.24.17s.19.12.31.17c.12.05.25.1.39.13s.31.05.5.05c.23,0,.43-.03.62-.1.18-.06.33-.15.46-.27.12-.11.22-.25.29-.41.07-.16.1-.34.1-.54,0-.22-.05-.39-.15-.53-.1-.14-.23-.25-.39-.35-.16-.09-.34-.17-.55-.24-.21-.07-.42-.13-.63-.2-.21-.07-.42-.15-.63-.24-.21-.09-.39-.21-.55-.35-.16-.14-.29-.32-.39-.54-.1-.21-.15-.48-.15-.8,0-.25.05-.5.15-.73.1-.24.24-.45.43-.63.19-.18.42-.33.7-.44.27-.11.59-.17.95-.17.4,0,.76.06,1.09.19.33.13.62.31.87.55l-.24.46Z" style="fill: #666; stroke-width: 0px;"/>
    <path d="m9.26,423.64c.37,0,.7.06,1,.18.3.12.55.3.76.53.21.23.37.5.48.82.11.32.17.68.17,1.08s-.06.76-.17,1.08c-.11.32-.27.59-.48.82s-.46.4-.76.52c-.3.12-.63.18-1,.18s-.71-.06-1.01-.18c-.3-.12-.55-.3-.76-.52s-.37-.5-.48-.82c-.11-.32-.17-.68-.17-1.08s.06-.76.17-1.08c.11-.32.27-.6.48-.82.21-.23.46-.4.76-.53.3-.12.63-.18,1.01-.18Zm0,4.52c.5,0,.87-.17,1.12-.5.25-.33.37-.8.37-1.4s-.12-1.07-.37-1.41c-.25-.34-.62-.5-1.12-.5-.25,0-.47.04-.66.13-.19.09-.34.21-.47.38-.12.16-.22.36-.28.6s-.09.51-.09.81c0,.6.12,1.07.37,1.4.25.33.63.5,1.13.5Z" style="fill: #666; stroke-width: 0px;"/>
    <path d="m16.96,423.72v5.07h-.53c-.13,0-.21-.06-.24-.18l-.07-.55c-.22.24-.47.44-.74.59s-.59.22-.94.22c-.28,0-.52-.05-.73-.14-.21-.09-.39-.22-.53-.39-.14-.17-.25-.37-.32-.6-.07-.24-.11-.5-.11-.79v-3.23h.89v3.23c0,.38.09.68.26.89s.44.32.8.32c.26,0,.51-.06.74-.19s.44-.3.63-.52v-3.73h.89Z" style="fill: #666; stroke-width: 0px;"/>
    <path d="m19.22,424.74c.16-.35.36-.62.59-.81.23-.2.52-.29.85-.29.11,0,.21.01.31.04s.19.06.26.11l-.07.67c-.02.08-.07.12-.15.12-.05,0-.12-.01-.21-.03s-.19-.03-.31-.03c-.16,0-.3.02-.43.07s-.24.12-.33.21c-.1.09-.19.21-.27.34-.08.13-.15.29-.21.46v3.2h-.9v-5.07h.51c.1,0,.16.02.2.06.04.04.06.1.08.19l.06.77Z" style="fill: #666; stroke-width: 0px;"/>
    <path d="m25.54,424.62s-.05.07-.08.08c-.03.02-.06.03-.11.03-.05,0-.11-.02-.17-.06-.06-.04-.13-.09-.22-.14-.09-.05-.2-.1-.33-.14-.13-.04-.29-.06-.47-.06-.25,0-.47.04-.66.13-.19.09-.35.22-.48.38-.13.17-.22.37-.29.6-.07.24-.1.5-.1.79s.04.58.1.82c.07.24.17.44.3.6.13.16.28.29.46.37s.39.13.61.13.4-.03.54-.08.26-.11.35-.17.17-.12.23-.17c.06-.05.12-.08.18-.08.07,0,.13.03.17.08l.25.33c-.11.14-.23.25-.38.35-.14.1-.29.18-.45.24-.16.06-.33.11-.51.14-.18.03-.36.04-.54.04-.32,0-.61-.06-.88-.18-.27-.12-.51-.29-.71-.51s-.36-.49-.47-.82-.17-.69-.17-1.11c0-.38.05-.72.16-1.04.11-.32.26-.6.46-.83.2-.23.45-.41.75-.54s.63-.19,1.02-.19c.36,0,.67.06.94.17s.51.28.72.49l-.24.32Z" style="fill: #666; stroke-width: 0px;"/>
    <path d="m30.9,428.08c-.11.13-.24.25-.4.35s-.32.18-.49.24-.36.11-.54.14c-.19.03-.37.05-.55.05-.35,0-.67-.06-.97-.18-.29-.12-.55-.29-.76-.52-.21-.23-.38-.51-.5-.85-.12-.34-.18-.72-.18-1.16,0-.35.05-.68.16-.99.11-.31.26-.57.47-.8.2-.22.45-.4.75-.53.29-.13.62-.19.99-.19.3,0,.58.05.84.15.26.1.48.25.67.44.19.19.34.43.44.71.11.28.16.6.16.96,0,.14-.02.23-.04.28-.03.05-.09.07-.17.07h-3.39c.01.32.05.6.13.83.08.24.19.43.33.59.14.16.31.28.5.36.19.08.41.12.65.12.22,0,.42-.03.58-.08.16-.05.3-.11.42-.17.12-.06.21-.12.29-.17.08-.05.15-.08.2-.08.07,0,.13.03.17.08l.25.33Zm-.72-2.38c0-.21-.03-.4-.09-.57s-.14-.32-.25-.45c-.11-.12-.25-.22-.41-.29-.16-.07-.34-.1-.55-.1-.43,0-.76.12-1.01.37-.25.25-.4.59-.46,1.03h2.77Z" style="fill: #666; stroke-width: 0px;"/>
    <path d="m31.99,424.49c0-.09.02-.17.05-.25.03-.08.08-.14.13-.2.05-.06.12-.1.2-.13.08-.03.16-.05.25-.05s.17.02.25.05c.08.03.14.08.2.13s.1.12.14.2c.03.08.05.16.05.25s-.02.17-.05.25c-.03.08-.08.14-.14.2-.06.06-.12.1-.2.13-.08.03-.16.05-.25.05s-.17-.02-.25-.05c-.08-.03-.14-.08-.2-.13-.06-.06-.1-.12-.13-.2-.03-.08-.05-.16-.05-.25Zm0,3.75c0-.09.02-.17.05-.25.03-.08.08-.14.13-.2.05-.06.12-.1.2-.13.08-.03.16-.05.25-.05s.17.02.25.05c.08.03.14.08.2.13s.1.12.14.2c.03.08.05.16.05.25s-.02.17-.05.25c-.03.08-.08.14-.14.2-.06.06-.12.1-.2.13-.08.03-.16.05-.25.05s-.17-.02-.25-.05c-.08-.03-.14-.08-.2-.13-.06-.06-.1-.12-.13-.2-.03-.08-.05-.16-.05-.25Z" style="fill: #666; stroke-width: 0px;"/>
    <path d="m40.11,428.02c.3,0,.56-.05.79-.15s.43-.24.59-.42c.16-.18.29-.4.37-.65s.13-.52.13-.82v-4.36h.96v4.36c0,.41-.07.8-.2,1.15s-.32.66-.57.92c-.25.26-.54.46-.9.61s-.75.22-1.19.22-.84-.07-1.19-.22-.65-.35-.9-.61c-.25-.26-.44-.56-.57-.92s-.2-.74-.2-1.15v-4.36h.96v4.35c0,.3.04.58.13.83s.21.46.37.65c.16.18.36.32.59.42.24.1.5.15.8.15Z" style="fill: #666; stroke-width: 0px;"/>
    <path d="m50.5,421.62v7.17h-.49c-.08,0-.14-.01-.19-.04s-.1-.07-.15-.13l-4.14-5.4c0,.08.01.17.01.25s0,.16,0,.22v5.11h-.85v-7.17h.5s.08,0,.11,0c.03,0,.06.01.08.02s.05.03.07.05c.02.02.05.05.08.08l4.14,5.39c0-.09-.01-.17-.02-.25s0-.16,0-.23v-5.08h.85Z" style="fill: #666; stroke-width: 0px;"/>
    <path d="m58.13,421.62v7.17h-.97v-3.26h-3.87v3.26h-.97v-7.17h.97v3.2h3.87v-3.2h.97Z" style="fill: #666; stroke-width: 0px;"/>
    <path d="m65,427.31c.05,0,.1.02.14.07l.38.42c-.29.34-.65.61-1.07.79-.42.19-.92.29-1.52.29-.51,0-.98-.09-1.4-.27s-.78-.43-1.07-.75c-.3-.32-.53-.71-.69-1.16s-.25-.95-.25-1.49.08-1.04.25-1.49c.17-.45.41-.84.72-1.16s.68-.57,1.11-.75.9-.27,1.43-.27.96.08,1.35.25c.39.16.73.38,1.03.67l-.32.45s-.04.06-.08.08c-.03.02-.07.03-.13.03-.06,0-.13-.03-.22-.1-.09-.07-.2-.14-.34-.22-.14-.08-.32-.15-.53-.22-.21-.06-.47-.1-.78-.1-.37,0-.71.06-1.02.19-.31.13-.57.31-.79.56s-.39.54-.52.89c-.12.35-.18.75-.18,1.18s.06.84.19,1.2c.13.35.3.65.52.89.22.24.48.43.79.55.3.13.63.19.98.19.21,0,.4-.01.58-.04.17-.02.33-.06.47-.12.15-.05.28-.12.41-.2.12-.08.25-.18.37-.29.06-.05.11-.08.17-.08Z" style="fill: #666; stroke-width: 0px;"/>
    <path d="m71.94,428.79h-.86c-.18,0-.31-.07-.39-.21l-1.86-2.56c-.06-.08-.12-.14-.18-.17-.07-.04-.17-.05-.3-.05h-.74v2.99h-.96v-7.17h2.03c.45,0,.84.05,1.17.14s.6.22.82.4c.21.17.37.38.48.63.1.25.16.52.16.82,0,.25-.04.49-.12.71-.08.22-.2.42-.35.59-.15.18-.34.32-.55.45-.22.12-.47.22-.74.28.12.07.23.17.32.31l2.09,2.84Zm-3.31-3.7c.28,0,.53-.03.74-.1s.39-.17.54-.29c.14-.12.25-.27.33-.45.07-.17.11-.37.11-.58,0-.43-.14-.75-.42-.96s-.7-.33-1.26-.33h-1.06v2.71h1.02Z" style="fill: #666; stroke-width: 0px;"/>
    <path d="m82.09,425.21c0,.54-.08,1.03-.25,1.48s-.41.83-.72,1.16c-.31.32-.68.57-1.12.75-.43.18-.92.27-1.44.27s-1.01-.09-1.44-.27c-.43-.18-.8-.43-1.11-.75-.31-.32-.55-.71-.72-1.16s-.25-.94-.25-1.48.08-1.03.25-1.48.41-.83.72-1.16c.31-.33.68-.58,1.11-.76.43-.18.91-.27,1.44-.27s1.01.09,1.44.27c.44.18.81.43,1.12.76.31.33.55.71.72,1.16s.25.94.25,1.48Zm-1,0c0-.44-.06-.83-.18-1.18-.12-.35-.29-.65-.51-.89-.22-.24-.49-.43-.8-.56s-.66-.2-1.05-.2-.73.07-1.04.2-.58.32-.8.56c-.22.24-.39.54-.51.89-.12.35-.18.75-.18,1.18s.06.83.18,1.18.29.64.51.88c.22.24.49.43.8.56.31.13.66.19,1.04.19s.74-.06,1.05-.19c.31-.13.58-.31.8-.56.22-.24.39-.54.51-.88s.18-.74.18-1.18Z" style="fill: #666; stroke-width: 0px;"/>
    <path d="m84.11,424.51c.21-.26.46-.47.74-.63s.6-.24.96-.24c.29,0,.56.06.79.17.24.11.44.28.61.5.17.22.29.49.38.81s.13.69.13,1.11c0,.37-.05.72-.15,1.04-.1.32-.24.6-.43.83s-.42.42-.69.55c-.27.14-.58.2-.92.2-.31,0-.58-.05-.8-.16-.22-.1-.42-.25-.59-.44v2.24h-.89v-6.78h.54c.13,0,.21.06.23.19l.08.6Zm.04,3.06c.16.22.34.38.54.46s.41.13.65.13c.47,0,.84-.17,1.09-.5s.38-.82.38-1.44c0-.33-.03-.61-.09-.85-.06-.24-.14-.43-.25-.58-.11-.15-.25-.26-.41-.33s-.34-.1-.54-.1c-.29,0-.54.07-.76.2-.22.13-.42.32-.6.57v2.45Z" style="fill: #666; stroke-width: 0px;"/>
    <path d="m92.98,428.08c-.11.13-.24.25-.4.35s-.32.18-.49.24-.36.11-.54.14-.37.05-.55.05c-.35,0-.67-.06-.97-.18s-.55-.29-.76-.52c-.21-.23-.38-.51-.5-.85-.12-.34-.18-.72-.18-1.16,0-.35.05-.68.16-.99s.26-.57.47-.8c.2-.22.45-.4.75-.53.29-.13.62-.19.99-.19.3,0,.58.05.84.15.26.1.48.25.67.44.19.19.33.43.44.71.11.28.16.6.16.96,0,.14-.01.23-.04.28-.03.05-.09.07-.17.07h-3.38c0,.32.05.6.13.83.08.24.19.43.33.59s.31.28.5.36c.19.08.41.12.65.12.22,0,.42-.03.58-.08.16-.05.3-.11.42-.17.12-.06.21-.12.29-.17.08-.05.15-.08.2-.08.07,0,.13.03.17.08l.25.33Zm-.72-2.38c0-.21-.03-.4-.09-.57-.06-.17-.14-.32-.25-.45-.11-.12-.25-.22-.41-.29s-.34-.1-.54-.1c-.43,0-.76.12-1.01.37s-.4.59-.46,1.03h2.77Z" style="fill: #666; stroke-width: 0px;"/>
    <path d="m94.99,424.74c.16-.35.36-.62.59-.81.23-.2.52-.29.86-.29.11,0,.21.01.31.04.1.02.19.06.26.11l-.07.67c-.02.08-.07.12-.15.12-.05,0-.11-.01-.21-.03-.09-.02-.19-.03-.3-.03-.16,0-.3.02-.43.07s-.24.12-.33.21c-.1.09-.19.21-.26.34-.08.13-.15.29-.21.46v3.2h-.89v-5.07h.51c.1,0,.16.02.2.06s.06.1.08.19l.06.77Z" style="fill: #666; stroke-width: 0px;"/>
    <path d="m97.66,424.44c.28-.27.58-.47.91-.61.32-.13.68-.2,1.07-.2.28,0,.54.05.75.14.22.09.41.22.56.39.15.17.26.37.34.61.08.24.12.5.12.78v3.24h-.4c-.09,0-.15-.01-.2-.04-.05-.03-.08-.08-.11-.17l-.1-.48c-.13.12-.26.23-.39.33s-.26.17-.4.24c-.14.06-.29.11-.45.15s-.33.05-.53.05-.38-.03-.55-.08c-.17-.05-.32-.14-.45-.25-.13-.11-.23-.25-.3-.42-.08-.17-.11-.37-.11-.6,0-.2.05-.39.17-.58.11-.18.29-.35.54-.49.25-.14.57-.26.96-.35s.88-.14,1.46-.16v-.4c0-.39-.08-.69-.25-.89-.17-.2-.42-.3-.75-.3-.22,0-.4.03-.55.08s-.28.12-.38.18c-.11.07-.2.13-.28.19s-.16.08-.23.08c-.06,0-.11-.02-.16-.05-.04-.03-.08-.07-.11-.12l-.16-.28Zm2.88,2.07c-.41.01-.76.05-1.05.1s-.52.12-.71.2c-.18.08-.31.18-.39.3-.08.11-.12.24-.12.38,0,.13.02.25.07.34.04.1.1.18.18.24.07.06.16.11.26.13s.21.04.33.04c.16,0,.3-.02.43-.05.13-.03.25-.08.37-.14.12-.06.22-.13.33-.21.1-.08.21-.18.31-.29v-1.05Z" style="fill: #666; stroke-width: 0px;"/>
    <path d="m107.46,428.79h-.89v-4.32h-2.61v3.04c0,.21.05.37.15.48.1.1.24.15.4.15.09,0,.17-.01.24-.04s.13-.05.18-.08c.05-.03.09-.06.13-.08s.07-.04.09-.04c.05,0,.09.03.12.08l.26.42c-.15.14-.34.26-.56.34-.22.08-.44.12-.67.12-.4,0-.71-.11-.92-.33-.22-.22-.32-.54-.32-.96v-3.1h-.61c-.05,0-.1-.02-.14-.05-.04-.03-.05-.08-.05-.15v-.36l.83-.11.21-1.56s.03-.09.07-.12c.04-.03.08-.05.14-.05h.45v1.75h3.5v4.96Zm.22-6.69c0,.09-.02.17-.05.24s-.08.14-.14.2-.13.1-.2.13c-.08.03-.16.05-.25.05s-.17-.02-.24-.05c-.07-.03-.14-.08-.2-.13s-.1-.12-.13-.2-.05-.16-.05-.24.02-.17.05-.25.08-.15.13-.21.12-.1.2-.14c.08-.03.16-.05.24-.05s.17.02.25.05c.08.03.14.08.2.14s.1.13.14.21.05.16.05.25Z" style="fill: #666; stroke-width: 0px;"/>
    <path d="m111.05,423.64c.37,0,.7.06,1,.18s.55.3.76.53c.21.23.37.5.48.82.11.32.17.68.17,1.08s-.06.76-.17,1.08c-.11.32-.27.59-.48.82s-.46.4-.76.52c-.3.12-.63.18-1,.18s-.71-.06-1.01-.18c-.3-.12-.55-.3-.76-.52s-.37-.5-.48-.82c-.11-.32-.17-.68-.17-1.08s.06-.76.17-1.08c.11-.32.27-.6.48-.82.21-.23.46-.4.76-.53.3-.12.63-.18,1.01-.18Zm0,4.52c.5,0,.87-.17,1.12-.5s.37-.8.37-1.4-.12-1.07-.37-1.41c-.25-.34-.62-.5-1.12-.5-.25,0-.47.04-.66.13-.19.09-.35.21-.47.38-.12.16-.22.36-.28.6s-.09.51-.09.81c0,.6.12,1.07.37,1.4.25.33.63.5,1.13.5Z" style="fill: #666; stroke-width: 0px;"/>
    <path d="m115.43,424.46c.11-.12.23-.24.35-.33.12-.1.25-.19.39-.26.14-.07.29-.13.44-.17.16-.04.32-.06.5-.06.28,0,.52.04.73.14.21.09.39.22.53.39.14.17.25.37.32.61.07.24.11.5.11.79v3.22h-.89v-3.22c0-.38-.09-.68-.26-.89-.17-.21-.44-.32-.8-.32-.26,0-.51.06-.74.19s-.44.3-.63.51v3.73h-.89v-5.07h.54c.13,0,.21.06.23.19l.07.55Z" style="fill: #666; stroke-width: 0px;"/>
    <path d="m120.04,424.44c.28-.27.58-.47.91-.61.32-.13.68-.2,1.07-.2.28,0,.54.05.75.14.22.09.41.22.56.39.15.17.26.37.34.61.08.24.12.5.12.78v3.24h-.4c-.09,0-.15-.01-.2-.04-.05-.03-.08-.08-.11-.17l-.1-.48c-.13.12-.26.23-.39.33s-.26.17-.4.24c-.14.06-.29.11-.45.15s-.33.05-.53.05-.38-.03-.55-.08c-.17-.05-.32-.14-.45-.25-.13-.11-.23-.25-.3-.42-.08-.17-.11-.37-.11-.6,0-.2.05-.39.17-.58.11-.18.29-.35.54-.49.25-.14.57-.26.96-.35s.88-.14,1.46-.16v-.4c0-.39-.08-.69-.25-.89-.17-.2-.42-.3-.75-.3-.22,0-.4.03-.55.08s-.28.12-.38.18c-.11.07-.2.13-.28.19s-.16.08-.23.08c-.06,0-.11-.02-.16-.05-.04-.03-.08-.07-.11-.12l-.16-.28Zm2.88,2.07c-.41.01-.76.05-1.05.1s-.52.12-.71.2c-.18.08-.31.18-.39.3-.08.11-.12.24-.12.38,0,.13.02.25.07.34.04.1.1.18.18.24.07.06.16.11.26.13s.21.04.33.04c.16,0,.3-.02.43-.05.13-.03.25-.08.37-.14.12-.06.22-.13.33-.21.1-.08.21-.18.31-.29v-1.05Z" style="fill: #666; stroke-width: 0px;"/>
    <path d="m126.06,421.42v7.37h-.89v-7.37h.89Z" style="fill: #666; stroke-width: 0px;"/>
    <path d="m134.25,421.42v7.37h-.53c-.13,0-.21-.06-.24-.18l-.08-.62c-.22.26-.46.47-.74.63-.28.16-.6.24-.96.24-.29,0-.55-.06-.79-.17-.24-.11-.44-.28-.6-.49-.17-.22-.29-.49-.38-.81-.09-.32-.14-.69-.14-1.11,0-.37.05-.72.15-1.04.1-.32.24-.6.43-.84.19-.24.42-.42.69-.56.27-.14.58-.2.92-.2.31,0,.58.05.8.16.22.1.42.25.59.44v-2.81h.89Zm-.89,3.5c-.17-.22-.35-.38-.54-.47-.19-.09-.41-.13-.65-.13-.47,0-.83.17-1.08.5-.25.34-.38.82-.38,1.44,0,.33.03.61.08.85.06.24.14.43.25.58.11.15.25.26.41.33s.34.1.54.1c.29,0,.55-.07.77-.2.22-.13.42-.32.6-.57v-2.45Z" style="fill: #666; stroke-width: 0px;"/>
    <path d="m135.53,424.44c.28-.27.58-.47.91-.61.32-.13.68-.2,1.07-.2.28,0,.54.05.75.14.22.09.41.22.56.39.15.17.26.37.34.61.08.24.12.5.12.78v3.24h-.4c-.09,0-.15-.01-.2-.04-.05-.03-.08-.08-.11-.17l-.1-.48c-.13.12-.26.23-.39.33s-.26.17-.4.24c-.14.06-.29.11-.45.15s-.33.05-.53.05-.38-.03-.55-.08c-.17-.05-.32-.14-.45-.25-.13-.11-.23-.25-.3-.42-.08-.17-.11-.37-.11-.6,0-.2.05-.39.17-.58.11-.18.29-.35.54-.49.25-.14.57-.26.96-.35s.88-.14,1.46-.16v-.4c0-.39-.08-.69-.25-.89-.17-.2-.42-.3-.75-.3-.22,0-.4.03-.55.08s-.28.12-.38.18c-.11.07-.2.13-.28.19s-.16.08-.23.08c-.06,0-.11-.02-.16-.05-.04-.03-.08-.07-.11-.12l-.16-.28Zm2.88,2.07c-.41.01-.76.05-1.05.1s-.52.12-.71.2c-.18.08-.31.18-.39.3-.08.11-.12.24-.12.38,0,.13.02.25.07.34.04.1.1.18.18.24.07.06.16.11.26.13s.21.04.33.04c.16,0,.3-.02.43-.05.13-.03.25-.08.37-.14.12-.06.22-.13.33-.21.1-.08.21-.18.31-.29v-1.05Z" style="fill: #666; stroke-width: 0px;"/>
    <path d="m142.18,428.87c-.4,0-.71-.11-.92-.33-.22-.22-.32-.54-.32-.96v-3.1h-.61c-.05,0-.1-.02-.14-.05-.04-.03-.05-.08-.05-.15v-.36l.83-.1.21-1.57s.03-.09.07-.12c.04-.03.08-.05.14-.05h.45v1.75h1.46v.64h-1.46v3.04c0,.21.05.37.15.48.1.1.24.15.4.15.09,0,.17-.01.24-.04s.13-.05.18-.08c.05-.03.09-.06.13-.08s.07-.04.09-.04c.05,0,.09.03.12.08l.26.42c-.15.14-.34.26-.56.34-.22.08-.44.12-.67.12Z" style="fill: #666; stroke-width: 0px;"/>
    <path d="m144.08,424.44c.28-.27.58-.47.91-.61.32-.13.68-.2,1.07-.2.28,0,.54.05.75.14.22.09.41.22.56.39.15.17.26.37.34.61.08.24.12.5.12.78v3.24h-.4c-.09,0-.15-.01-.2-.04-.05-.03-.08-.08-.11-.17l-.1-.48c-.13.12-.26.23-.39.33s-.26.17-.4.24c-.14.06-.29.11-.45.15s-.33.05-.53.05-.38-.03-.55-.08c-.17-.05-.32-.14-.45-.25-.13-.11-.23-.25-.3-.42-.08-.17-.11-.37-.11-.6,0-.2.05-.39.17-.58.11-.18.29-.35.54-.49.25-.14.57-.26.96-.35s.88-.14,1.46-.16v-.4c0-.39-.08-.69-.25-.89-.17-.2-.42-.3-.75-.3-.22,0-.4.03-.55.08s-.28.12-.38.18c-.11.07-.2.13-.28.19s-.16.08-.23.08c-.06,0-.11-.02-.16-.05-.04-.03-.08-.07-.11-.12l-.16-.28Zm2.88,2.07c-.41.01-.76.05-1.05.1s-.52.12-.71.2c-.18.08-.31.18-.39.3-.08.11-.12.24-.12.38,0,.13.02.25.07.34.04.1.1.18.18.24.07.06.16.11.26.13s.21.04.33.04c.16,0,.3-.02.43-.05.13-.03.25-.08.37-.14.12-.06.22-.13.33-.21.1-.08.21-.18.31-.29v-1.05Z" style="fill: #666; stroke-width: 0px;"/>
    <path d="m154.07,421.62c.45,0,.85.05,1.18.16.33.11.61.25.83.45s.38.43.49.7c.11.27.16.58.16.92s-.06.64-.17.92c-.12.28-.29.52-.51.71-.23.2-.5.36-.83.47-.33.11-.71.17-1.15.17h-1.15v2.68h-.96v-7.17h2.12Zm0,3.71c.28,0,.52-.04.73-.11s.39-.18.54-.31c.14-.13.25-.29.33-.47s.11-.38.11-.61c0-.46-.14-.81-.42-1.07s-.71-.39-1.28-.39h-1.15v2.95h1.15Z" style="fill: #666; stroke-width: 0px;"/>
    <path d="m159.88,423.64c.37,0,.7.06,1,.18s.55.3.76.53c.21.23.37.5.48.82.11.32.17.68.17,1.08s-.06.76-.17,1.08c-.11.32-.27.59-.48.82s-.46.4-.76.52c-.3.12-.63.18-1,.18s-.71-.06-1.01-.18c-.3-.12-.55-.3-.76-.52s-.37-.5-.48-.82c-.11-.32-.17-.68-.17-1.08s.06-.76.17-1.08c.11-.32.27-.6.48-.82.21-.23.46-.4.76-.53.3-.12.63-.18,1.01-.18Zm0,4.52c.5,0,.87-.17,1.12-.5s.37-.8.37-1.4-.12-1.07-.37-1.41c-.25-.34-.62-.5-1.12-.5-.25,0-.47.04-.66.13-.19.09-.35.21-.47.38-.12.16-.22.36-.28.6s-.09.51-.09.81c0,.6.12,1.07.37,1.4.25.33.63.5,1.13.5Z" style="fill: #666; stroke-width: 0px;"/>
    <path d="m164.26,424.74c.16-.35.36-.62.59-.81.23-.2.52-.29.86-.29.11,0,.21.01.31.04.1.02.19.06.26.11l-.07.67c-.02.08-.07.12-.15.12-.05,0-.11-.01-.21-.03-.09-.02-.19-.03-.3-.03-.16,0-.3.02-.43.07s-.24.12-.33.21c-.1.09-.19.21-.26.34-.08.13-.15.29-.21.46v3.2h-.89v-5.07h.51c.1,0,.16.02.2.06s.06.1.08.19l.06.77Z" style="fill: #666; stroke-width: 0px;"/>
    <path d="m168.61,428.87c-.4,0-.71-.11-.92-.33-.22-.22-.32-.54-.32-.96v-3.1h-.61c-.05,0-.1-.02-.14-.05-.04-.03-.05-.08-.05-.15v-.36l.83-.1.21-1.57s.03-.09.07-.12c.04-.03.08-.05.14-.05h.45v1.75h1.46v.64h-1.46v3.04c0,.21.05.37.15.48.1.1.24.15.4.15.09,0,.17-.01.24-.04s.13-.05.18-.08c.05-.03.09-.06.13-.08s.07-.04.09-.04c.05,0,.09.03.12.08l.26.42c-.15.14-.34.26-.56.34-.22.08-.44.12-.67.12Z" style="fill: #666; stroke-width: 0px;"/>
    <path d="m170.51,424.44c.28-.27.58-.47.91-.61.32-.13.68-.2,1.07-.2.28,0,.54.05.75.14.22.09.41.22.56.39.15.17.26.37.34.61.08.24.12.5.12.78v3.24h-.4c-.09,0-.15-.01-.2-.04-.05-.03-.08-.08-.11-.17l-.1-.48c-.13.12-.26.23-.39.33s-.26.17-.4.24c-.14.06-.29.11-.45.15s-.33.05-.53.05-.38-.03-.55-.08c-.17-.05-.32-.14-.45-.25-.13-.11-.23-.25-.3-.42-.08-.17-.11-.37-.11-.6,0-.2.05-.39.17-.58.11-.18.29-.35.54-.49.25-.14.57-.26.96-.35s.88-.14,1.46-.16v-.4c0-.39-.08-.69-.25-.89-.17-.2-.42-.3-.75-.3-.22,0-.4.03-.55.08s-.28.12-.38.18c-.11.07-.2.13-.28.19s-.16.08-.23.08c-.06,0-.11-.02-.16-.05-.04-.03-.08-.07-.11-.12l-.16-.28Zm2.88,2.07c-.41.01-.76.05-1.05.1s-.52.12-.71.2c-.18.08-.31.18-.39.3-.08.11-.12.24-.12.38,0,.13.02.25.07.34.04.1.1.18.18.24.07.06.16.11.26.13s.21.04.33.04c.16,0,.3-.02.43-.05.13-.03.25-.08.37-.14.12-.06.22-.13.33-.21.1-.08.21-.18.31-.29v-1.05Z" style="fill: #666; stroke-width: 0px;"/>
    <path d="m176.53,421.42v7.37h-.89v-7.37h.89Z" style="fill: #666; stroke-width: 0px;"/>
  </g>
  <g>
    <path d="m13.8.4v14.46h-1.38c-.21,0-.39-.04-.54-.1-.14-.07-.28-.19-.41-.35L3.92,4.76c.04.44.06.85.06,1.22v8.88H1.61V.4h1.41c.11,0,.21,0,.29.02.08,0,.16.03.22.06.06.03.12.07.19.13.06.06.13.13.2.23l7.58,9.68c-.02-.23-.04-.46-.05-.69s-.02-.44-.02-.63V.4h2.37Z" style="stroke-width: 0px;"/>
    <path d="m18.53,10.04c.04.53.13.98.28,1.36s.34.7.58.95c.24.25.53.44.86.56.33.12.69.19,1.09.19s.75-.05,1.04-.14.54-.2.76-.31.41-.22.57-.31c.16-.09.32-.14.47-.14.21,0,.36.08.46.23l.71.9c-.27.32-.58.59-.92.8-.34.22-.69.39-1.06.52s-.75.22-1.13.27c-.38.05-.76.08-1.12.08-.71,0-1.38-.12-1.99-.35-.61-.24-1.15-.59-1.6-1.05-.45-.46-.81-1.04-1.07-1.72-.26-.68-.39-1.48-.39-2.38,0-.7.11-1.36.34-1.98.23-.62.55-1.15.97-1.61.42-.46.94-.82,1.55-1.08.61-.27,1.3-.4,2.07-.4.65,0,1.24.1,1.79.31s1.02.51,1.41.9c.39.4.7.88.92,1.46s.33,1.24.33,1.98c0,.37-.04.62-.12.75-.08.13-.23.2-.46.2h-6.35Zm4.71-1.49c0-.32-.04-.62-.14-.9-.09-.28-.22-.53-.4-.75-.18-.21-.41-.38-.69-.5-.28-.12-.6-.19-.96-.19-.71,0-1.27.2-1.68.61s-.67.98-.79,1.73h4.66Z" style="stroke-width: 0px;"/>
    <path d="m41.96,4.6l-3.26,10.26h-1.98c-.23,0-.38-.15-.47-.44l-1.84-5.93c-.06-.2-.11-.4-.17-.59-.05-.2-.09-.4-.12-.6-.04.2-.08.4-.13.6-.05.2-.1.41-.17.6l-1.87,5.91c-.08.29-.26.44-.53.44h-1.9l-3.25-10.26h1.97c.18,0,.33.04.46.13.13.09.21.2.25.33l1.47,5.48c.07.3.14.59.19.88s.11.57.15.86c.07-.29.15-.57.23-.86.08-.29.17-.58.27-.88l1.7-5.5c.04-.13.12-.24.23-.33.12-.09.26-.13.42-.13h1.09c.17,0,.32.04.44.13.12.09.21.2.25.33l1.65,5.5c.09.3.17.59.25.88.08.29.15.58.22.87.09-.57.21-1.15.37-1.75l1.51-5.48c.05-.13.13-.24.25-.33.12-.09.26-.13.43-.13h1.88Z" style="stroke-width: 0px;"/>
    <path d="m45.86,0v14.86h-2.47V0h2.47Z" style="stroke-width: 0px;"/>
    <path d="m57.65,4.6l-5.59,13.08c-.07.17-.17.31-.29.4-.12.09-.29.14-.54.14h-1.84l1.92-4.12-4.15-9.49h2.17c.19,0,.34.05.45.14.11.09.19.2.25.32l2.18,5.32c.07.18.13.36.18.54s.1.36.15.55c.06-.19.12-.37.18-.55.06-.18.13-.37.2-.55l2.06-5.31c.05-.13.14-.24.26-.33.12-.09.26-.13.42-.13h1.98Z" style="stroke-width: 0px;"/>
    <path d="m63.5,6.03c1.18-1.08,2.6-1.62,4.26-1.62.6,0,1.14.1,1.61.3.47.2.87.47,1.2.82.33.35.58.77.75,1.25.17.49.25,1.02.25,1.6v6.48h-1.12c-.23,0-.41-.04-.54-.1-.13-.07-.23-.21-.3-.42l-.22-.74c-.26.23-.51.44-.76.62-.25.18-.5.32-.77.44s-.55.21-.85.27c-.3.06-.64.1-1,.1-.43,0-.83-.06-1.2-.18-.37-.12-.68-.29-.95-.52s-.47-.52-.62-.87c-.15-.35-.22-.75-.22-1.21,0-.26.04-.52.13-.77.09-.26.23-.5.42-.73s.45-.45.76-.66.7-.39,1.16-.54.99-.28,1.59-.38c.61-.1,1.3-.15,2.08-.17v-.6c0-.69-.15-1.19-.44-1.52-.29-.33-.72-.5-1.27-.5-.4,0-.73.05-1,.14-.26.09-.49.2-.69.31s-.38.22-.54.31c-.16.09-.35.14-.54.14-.17,0-.32-.04-.44-.14-.12-.09-.22-.19-.29-.31l-.44-.79Zm5.66,4.45c-.71.03-1.31.09-1.8.19-.49.09-.88.2-1.17.34s-.5.3-.63.49-.19.39-.19.61c0,.43.13.74.39.93.26.19.59.28,1,.28.51,0,.94-.09,1.31-.27.37-.18.73-.46,1.08-.83v-1.73Z" style="stroke-width: 0px;"/>
    <path d="m76.22,6.38c.32-.61.7-1.1,1.14-1.44.44-.35.96-.53,1.56-.53.47,0,.85.1,1.14.31l-.16,1.85c-.03.12-.08.21-.15.25-.06.05-.15.08-.25.08-.1,0-.25-.02-.45-.05-.2-.03-.39-.05-.58-.05-.27,0-.52.04-.73.12-.21.08-.41.19-.58.34-.17.15-.32.33-.45.55s-.25.46-.36.73v6.32h-2.47V4.6h1.45c.25,0,.43.04.53.13.1.09.17.25.2.48l.15,1.16Z" style="stroke-width: 0px;"/>
    <path d="m83.68,6.38c.32-.61.7-1.1,1.14-1.44.44-.35.96-.53,1.56-.53.47,0,.85.1,1.14.31l-.16,1.85c-.03.12-.08.21-.15.25-.06.05-.15.08-.25.08-.1,0-.25-.02-.45-.05-.2-.03-.39-.05-.58-.05-.27,0-.52.04-.73.12-.21.08-.41.19-.58.34-.17.15-.32.33-.45.55s-.25.46-.36.73v6.32h-2.47V4.6h1.45c.25,0,.43.04.53.13.1.09.17.25.2.48l.15,1.16Z" style="stroke-width: 0px;"/>
    <path d="m91.71,1.61c0,.21-.04.41-.13.6-.09.19-.2.35-.35.49-.14.14-.31.25-.5.33-.19.08-.4.12-.62.12s-.41-.04-.6-.12c-.19-.08-.36-.19-.5-.33-.14-.14-.25-.3-.33-.49s-.12-.39-.12-.6.04-.43.12-.62.2-.36.33-.5c.14-.14.3-.25.5-.33.19-.08.39-.12.6-.12s.43.04.62.12c.19.08.36.2.5.33.14.14.26.31.35.5.09.19.13.4.13.62Zm-.34,2.99v10.26h-2.48V4.6h2.48Z" style="stroke-width: 0px;"/>
    <path d="m103.14,4.6l-4.07,10.26h-2.24l-4.07-10.26h2.04c.19,0,.34.04.46.13.12.09.21.2.25.33l1.98,5.48c.11.32.2.63.28.94s.15.61.21.92c.07-.31.14-.61.22-.92s.18-.62.29-.94l2.02-5.48c.05-.13.13-.24.25-.33.12-.09.26-.13.43-.13h1.95Z" style="stroke-width: 0px;"/>
    <path d="m106.35,10.04c.04.53.13.98.28,1.36.15.38.34.7.58.95.24.25.52.44.85.56.33.12.7.19,1.09.19s.75-.05,1.04-.14.54-.2.76-.31.41-.22.57-.31.32-.14.47-.14c.21,0,.36.08.46.23l.71.9c-.27.32-.58.59-.92.8-.34.22-.69.39-1.06.52s-.75.22-1.13.27c-.38.05-.75.08-1.12.08-.71,0-1.38-.12-1.99-.35-.61-.24-1.15-.59-1.6-1.05s-.81-1.04-1.07-1.72c-.26-.68-.39-1.48-.39-2.38,0-.7.11-1.36.34-1.98.23-.62.55-1.15.97-1.61.42-.46.94-.82,1.55-1.08.61-.27,1.3-.4,2.06-.4.65,0,1.24.1,1.79.31s1.02.51,1.41.9c.39.4.7.88.92,1.46s.33,1.24.33,1.98c0,.37-.04.62-.12.75-.08.13-.23.2-.46.2h-6.35Zm4.71-1.49c0-.32-.04-.62-.13-.9s-.23-.53-.41-.75-.41-.38-.68-.5c-.28-.12-.6-.19-.97-.19-.71,0-1.27.2-1.68.61s-.67.98-.79,1.73h4.66Z" style="stroke-width: 0px;"/>
    <path d="m124.04,0v14.86h-1.51c-.33,0-.53-.15-.62-.45l-.21-.99c-.41.47-.89.86-1.42,1.15-.54.29-1.16.44-1.88.44-.56,0-1.07-.12-1.54-.35-.47-.23-.87-.57-1.21-1.01s-.6-.99-.78-1.65-.27-1.4-.27-2.24c0-.76.1-1.47.31-2.12.21-.65.5-1.22.89-1.7s.85-.85,1.39-1.12,1.15-.41,1.82-.41c.57,0,1.06.09,1.47.27.41.18.77.42,1.09.73V0h2.47Zm-2.47,7.22c-.28-.34-.58-.58-.92-.72-.33-.14-.69-.21-1.07-.21s-.71.07-1.01.21c-.3.14-.56.35-.77.63-.21.28-.38.64-.49,1.08s-.17.95-.17,1.54.05,1.11.14,1.52c.1.42.24.76.42,1.02.18.26.4.45.66.57s.55.17.87.17c.51,0,.95-.11,1.31-.32.36-.21.7-.52,1.02-.91v-4.6Z" style="stroke-width: 0px;"/>
    <path d="m133.67,6.38c.32-.61.7-1.1,1.14-1.44.44-.35.96-.53,1.56-.53.47,0,.85.1,1.14.31l-.16,1.85c-.03.12-.08.21-.15.25-.06.05-.15.08-.25.08-.1,0-.25-.02-.45-.05-.2-.03-.39-.05-.58-.05-.27,0-.52.04-.73.12-.21.08-.41.19-.58.34-.17.15-.32.33-.45.55s-.25.46-.36.73v6.32h-2.47V4.6h1.45c.25,0,.43.04.53.13.1.09.17.25.2.48l.15,1.16Z" style="fill: #0072bc; stroke-width: 0px;"/>
    <path d="m140.7,10.04c.04.53.13.98.28,1.36.15.38.34.7.58.95.24.25.52.44.85.56.33.12.7.19,1.09.19s.75-.05,1.04-.14.54-.2.76-.31.41-.22.57-.31.32-.14.47-.14c.21,0,.36.08.46.23l.71.9c-.27.32-.58.59-.92.8-.34.22-.69.39-1.06.52s-.75.22-1.13.27c-.38.05-.75.08-1.12.08-.71,0-1.38-.12-1.99-.35-.61-.24-1.15-.59-1.6-1.05s-.81-1.04-1.07-1.72c-.26-.68-.39-1.48-.39-2.38,0-.7.11-1.36.34-1.98.23-.62.55-1.15.97-1.61.42-.46.94-.82,1.55-1.08.61-.27,1.3-.4,2.06-.4.65,0,1.24.1,1.79.31s1.02.51,1.41.9c.39.4.7.88.92,1.46s.33,1.24.33,1.98c0,.37-.04.62-.12.75-.08.13-.23.2-.46.2h-6.35Zm4.71-1.49c0-.32-.04-.62-.13-.9s-.23-.53-.41-.75-.41-.38-.68-.5c-.28-.12-.6-.19-.97-.19-.71,0-1.27.2-1.68.61s-.67.98-.79,1.73h4.66Z" style="fill: #0072bc; stroke-width: 0px;"/>
    <path d="m150.2,14.86V6.46l-.89-.14c-.19-.04-.35-.11-.46-.21s-.17-.23-.17-.42v-1.01h1.53v-.76c0-.59.09-1.11.26-1.58.18-.47.43-.86.76-1.19.33-.33.73-.58,1.21-.75.47-.17,1.01-.26,1.6-.26.47,0,.91.06,1.32.19l-.05,1.24c0,.09-.03.17-.08.22-.05.06-.11.1-.18.13-.08.03-.17.05-.27.06-.1.01-.21.02-.32.02-.29,0-.56.03-.79.1-.23.06-.42.17-.58.33s-.28.36-.37.62c-.08.26-.12.58-.12.96v.68h2.67v1.76h-2.59v8.41h-2.47Z" style="fill: #0072bc; stroke-width: 0px;"/>
    <path d="m165.49,4.6v10.26h-1.51c-.33,0-.53-.15-.62-.45l-.17-.82c-.42.43-.88.77-1.39,1.04s-1.1.4-1.79.4c-.56,0-1.05-.1-1.49-.29-.43-.19-.79-.46-1.08-.81-.29-.35-.51-.76-.67-1.23-.15-.48-.22-1-.22-1.58v-6.52h2.47v6.52c0,.63.15,1.11.44,1.46.29.34.72.52,1.3.52.43,0,.83-.1,1.2-.29.37-.19.73-.45,1.06-.78v-7.42h2.47Z" style="fill: #0072bc; stroke-width: 0px;"/>
    <path d="m176.93,4.95v.92c0,.29-.18.47-.53.54l-.92.17c.14.35.21.74.21,1.16,0,.51-.1.97-.31,1.38-.2.41-.48.76-.84,1.04-.36.29-.79.51-1.28.67-.49.16-1.02.24-1.58.24-.2,0-.39-.01-.58-.03s-.37-.05-.55-.08c-.32.19-.48.41-.48.65,0,.21.09.36.28.45.19.1.44.17.76.21.31.04.67.06,1.07.08.4,0,.81.03,1.23.06s.83.09,1.23.17c.4.08.76.22,1.07.4.31.18.57.43.75.74.19.31.29.71.29,1.19,0,.45-.11.89-.33,1.32s-.55.81-.97,1.14c-.42.33-.94.6-1.56.81-.62.2-1.32.3-2.1.3s-1.45-.07-2.02-.23c-.57-.15-1.05-.35-1.43-.6s-.66-.54-.85-.87c-.19-.33-.28-.67-.28-1.02,0-.48.14-.88.43-1.21s.69-.58,1.2-.77c-.27-.14-.49-.33-.65-.56-.16-.23-.24-.54-.24-.92,0-.15.03-.31.08-.48.06-.16.14-.32.25-.48.11-.16.25-.31.42-.46.17-.14.36-.27.59-.38-.52-.28-.93-.65-1.23-1.12s-.44-1.01-.44-1.64c0-.51.1-.96.3-1.38.2-.41.49-.76.85-1.05s.79-.51,1.29-.67c.5-.15,1.04-.23,1.62-.23.44,0,.85.04,1.24.13.39.09.74.22,1.06.4h2.95Zm-2.46,10.37c0-.2-.06-.36-.18-.49-.12-.13-.28-.23-.49-.3-.21-.07-.45-.12-.72-.15-.28-.03-.57-.06-.88-.08-.31-.02-.63-.03-.96-.04-.33-.01-.65-.04-.97-.08-.27.15-.49.33-.67.54-.17.21-.25.45-.25.72,0,.18.04.35.14.5.09.16.23.29.43.41.2.11.45.2.76.26s.7.1,1.15.1.86-.04,1.19-.1c.33-.07.61-.17.83-.29.22-.12.38-.27.48-.44.1-.17.15-.35.15-.56Zm-2.79-5.84c.31,0,.57-.04.8-.12s.42-.2.57-.35c.15-.15.26-.32.34-.53.08-.21.12-.43.12-.68,0-.51-.15-.91-.46-1.21-.3-.3-.76-.44-1.37-.44s-1.06.15-1.36.44c-.3.3-.46.7-.46,1.21,0,.24.04.46.11.67.08.21.19.39.34.54.15.15.34.27.57.35.23.08.5.12.79.12Z" style="fill: #0072bc; stroke-width: 0px;"/>
    <path d="m180.39,10.04c.04.53.13.98.28,1.36.15.38.34.7.58.95.24.25.52.44.85.56.33.12.7.19,1.09.19s.75-.05,1.04-.14.54-.2.76-.31.41-.22.57-.31.32-.14.47-.14c.21,0,.36.08.46.23l.71.9c-.27.32-.58.59-.92.8-.34.22-.69.39-1.06.52s-.75.22-1.13.27c-.38.05-.75.08-1.12.08-.71,0-1.38-.12-1.99-.35-.61-.24-1.15-.59-1.6-1.05s-.81-1.04-1.07-1.72c-.26-.68-.39-1.48-.39-2.38,0-.7.11-1.36.34-1.98.23-.62.55-1.15.97-1.61.42-.46.94-.82,1.55-1.08.61-.27,1.3-.4,2.06-.4.65,0,1.24.1,1.79.31s1.02.51,1.41.9c.39.4.7.88.92,1.46s.33,1.24.33,1.98c0,.37-.04.62-.12.75-.08.13-.23.2-.46.2h-6.35Zm4.71-1.49c0-.32-.04-.62-.13-.9s-.23-.53-.41-.75-.41-.38-.68-.5c-.28-.12-.6-.19-.97-.19-.71,0-1.27.2-1.68.61s-.67.98-.79,1.73h4.66Z" style="fill: #0072bc; stroke-width: 0px;"/>
    <path d="m191.07,10.04c.04.53.13.98.28,1.36.15.38.34.7.58.95.24.25.52.44.85.56.33.12.7.19,1.09.19s.75-.05,1.04-.14.54-.2.76-.31.41-.22.57-.31.32-.14.47-.14c.21,0,.36.08.46.23l.71.9c-.27.32-.58.59-.92.8-.34.22-.69.39-1.06.52s-.75.22-1.13.27c-.38.05-.75.08-1.12.08-.71,0-1.38-.12-1.99-.35-.61-.24-1.15-.59-1.6-1.05s-.81-1.04-1.07-1.72c-.26-.68-.39-1.48-.39-2.38,0-.7.11-1.36.34-1.98.23-.62.55-1.15.97-1.61.42-.46.94-.82,1.55-1.08.61-.27,1.3-.4,2.06-.4.65,0,1.24.1,1.79.31s1.02.51,1.41.9c.39.4.7.88.92,1.46s.33,1.24.33,1.98c0,.37-.04.62-.12.75-.08.13-.23.2-.46.2h-6.35Zm4.71-1.49c0-.32-.04-.62-.13-.9s-.23-.53-.41-.75-.41-.38-.68-.5c-.28-.12-.6-.19-.97-.19-.71,0-1.27.2-1.68.61s-.67.98-.79,1.73h4.66Z" style="fill: #0072bc; stroke-width: 0px;"/>
    <path d="m206.11,6.6c-.07.11-.14.18-.21.22-.07.04-.17.06-.28.06-.12,0-.25-.03-.38-.1-.14-.07-.3-.14-.48-.23s-.38-.16-.62-.23c-.23-.07-.5-.1-.81-.1-.49,0-.87.1-1.15.31-.28.21-.42.48-.42.81,0,.22.07.4.22.56.14.15.33.28.57.4s.5.21.81.3c.3.09.6.19.91.29.31.11.62.23.92.37.3.14.57.31.81.52.24.21.43.46.57.75.14.29.22.65.22,1.06,0,.49-.09.95-.27,1.37-.18.42-.44.78-.79,1.08-.35.3-.77.54-1.28.71-.51.17-1.1.26-1.77.26-.35,0-.7-.03-1.04-.1-.34-.06-.66-.15-.97-.27-.31-.11-.6-.25-.86-.4-.26-.15-.49-.32-.69-.5l.57-.94c.07-.11.16-.2.26-.26.1-.06.23-.09.38-.09s.3.04.43.13c.14.09.29.18.48.28.18.1.39.19.63.28.24.09.55.13.92.13.29,0,.54-.04.75-.1.21-.07.38-.16.52-.28.14-.11.24-.24.3-.4.06-.15.09-.3.09-.46,0-.24-.07-.44-.21-.59s-.33-.29-.57-.4c-.24-.11-.51-.22-.81-.31-.3-.09-.61-.19-.93-.29-.32-.11-.63-.23-.93-.38-.3-.14-.57-.33-.81-.54-.24-.22-.43-.49-.57-.81-.14-.32-.21-.71-.21-1.16,0-.42.08-.82.25-1.2.17-.38.41-.71.74-.99.32-.28.73-.51,1.21-.68s1.04-.25,1.67-.25c.71,0,1.35.12,1.93.35s1.06.54,1.45.92l-.56.89Z" style="fill: #0072bc; stroke-width: 0px;"/>
    <path d="m213.26,6.03c1.18-1.08,2.6-1.62,4.26-1.62.6,0,1.14.1,1.61.3.47.2.87.47,1.2.82.33.35.58.77.75,1.25.17.49.25,1.02.25,1.6v6.48h-1.12c-.23,0-.41-.04-.54-.1-.13-.07-.23-.21-.3-.42l-.22-.74c-.26.23-.51.44-.76.62-.25.18-.5.32-.77.44s-.55.21-.85.27c-.3.06-.64.1-1,.1-.43,0-.83-.06-1.2-.18-.37-.12-.68-.29-.95-.52s-.47-.52-.62-.87c-.15-.35-.22-.75-.22-1.21,0-.26.04-.52.13-.77.09-.26.23-.5.42-.73s.45-.45.76-.66.7-.39,1.16-.54.99-.28,1.59-.38c.61-.1,1.3-.15,2.08-.17v-.6c0-.69-.15-1.19-.44-1.52-.29-.33-.72-.5-1.27-.5-.4,0-.73.05-1,.14-.26.09-.49.2-.69.31s-.38.22-.54.31c-.16.09-.35.14-.54.14-.17,0-.32-.04-.44-.14-.12-.09-.22-.19-.29-.31l-.44-.79Zm5.66,4.45c-.71.03-1.31.09-1.8.19-.49.09-.88.2-1.17.34s-.5.3-.63.49-.19.39-.19.61c0,.43.13.74.39.93.26.19.59.28,1,.28.51,0,.94-.09,1.31-.27.37-.18.73-.46,1.08-.83v-1.73Z" style="stroke-width: 0px;"/>
    <path d="m225.96,5.86c.21-.21.42-.4.65-.58.23-.18.47-.33.73-.45s.53-.22.83-.29c.29-.07.61-.1.96-.1.56,0,1.06.09,1.49.29.43.19.79.46,1.08.8s.51.75.66,1.23c.15.48.23,1,.23,1.58v6.53h-2.47v-6.53c0-.63-.14-1.11-.43-1.46-.29-.34-.72-.52-1.31-.52-.43,0-.83.1-1.2.29s-.73.46-1.06.79v7.42h-2.47V4.6h1.51c.32,0,.53.15.63.45l.17.81Z" style="stroke-width: 0px;"/>
    <path d="m243.84,0v14.86h-1.51c-.33,0-.53-.15-.62-.45l-.21-.99c-.41.47-.89.86-1.42,1.15-.54.29-1.16.44-1.88.44-.56,0-1.07-.12-1.54-.35-.47-.23-.87-.57-1.21-1.01s-.6-.99-.78-1.65-.27-1.4-.27-2.24c0-.76.1-1.47.31-2.12.21-.65.5-1.22.89-1.7s.85-.85,1.39-1.12,1.15-.41,1.82-.41c.57,0,1.06.09,1.47.27.41.18.77.42,1.09.73V0h2.47Zm-2.47,7.22c-.28-.34-.58-.58-.92-.72-.33-.14-.69-.21-1.07-.21s-.71.07-1.01.21c-.3.14-.56.35-.77.63-.21.28-.38.64-.49,1.08s-.17.95-.17,1.54.05,1.11.14,1.52c.1.42.24.76.42,1.02.18.26.4.45.66.57s.55.17.87.17c.51,0,.95-.11,1.31-.32.36-.21.7-.52,1.02-.91v-4.6Z" style="stroke-width: 0px;"/>
    <path d="m253.47,6.38c.32-.61.7-1.1,1.14-1.44.44-.35.96-.53,1.56-.53.47,0,.85.1,1.14.31l-.16,1.85c-.03.12-.08.21-.15.25-.06.05-.15.08-.25.08-.1,0-.25-.02-.45-.05-.2-.03-.39-.05-.58-.05-.27,0-.52.04-.73.12-.21.08-.41.19-.58.34-.17.15-.32.33-.45.55s-.25.46-.36.73v6.32h-2.47V4.6h1.45c.25,0,.43.04.53.13.1.09.17.25.2.48l.15,1.16Z" style="fill: #506489; stroke-width: 0px;"/>
    <path d="m260.5,10.04c.04.53.13.98.28,1.36.15.38.34.7.58.95.24.25.52.44.85.56.33.12.7.19,1.09.19s.75-.05,1.04-.14.54-.2.76-.31.41-.22.57-.31.32-.14.47-.14c.21,0,.36.08.46.23l.71.9c-.27.32-.58.59-.92.8-.34.22-.69.39-1.06.52s-.75.22-1.13.27c-.38.05-.75.08-1.12.08-.71,0-1.38-.12-1.99-.35-.61-.24-1.15-.59-1.6-1.05s-.81-1.04-1.07-1.72c-.26-.68-.39-1.48-.39-2.38,0-.7.11-1.36.34-1.98.23-.62.55-1.15.97-1.61.42-.46.94-.82,1.55-1.08.61-.27,1.3-.4,2.06-.4.65,0,1.24.1,1.79.31s1.02.51,1.41.9c.39.4.7.88.92,1.46s.33,1.24.33,1.98c0,.37-.04.62-.12.75-.08.13-.23.2-.46.2h-6.35Zm4.71-1.49c0-.32-.04-.62-.13-.9s-.23-.53-.41-.75-.41-.38-.68-.5c-.28-.12-.6-.19-.97-.19-.71,0-1.27.2-1.68.61s-.67.98-.79,1.73h4.66Z" style="fill: #506489; stroke-width: 0px;"/>
    <path d="m270,14.86V6.46l-.89-.14c-.19-.04-.35-.11-.46-.21s-.17-.23-.17-.42v-1.01h1.53v-.76c0-.59.09-1.11.26-1.58.18-.47.43-.86.76-1.19.33-.33.73-.58,1.21-.75.47-.17,1.01-.26,1.6-.26.47,0,.91.06,1.32.19l-.05,1.24c0,.09-.03.17-.08.22-.05.06-.11.1-.18.13-.08.03-.17.05-.27.06-.1.01-.21.02-.32.02-.29,0-.56.03-.79.1-.23.06-.42.17-.58.33s-.28.36-.37.62c-.08.26-.12.58-.12.96v.68h2.67v1.76h-2.59v8.41h-2.47Z" style="fill: #506489; stroke-width: 0px;"/>
    <path d="m285.29,4.6v10.26h-1.51c-.33,0-.53-.15-.62-.45l-.17-.82c-.42.43-.88.77-1.39,1.04s-1.1.4-1.79.4c-.56,0-1.05-.1-1.49-.29-.43-.19-.79-.46-1.08-.81-.29-.35-.51-.76-.67-1.23-.15-.48-.22-1-.22-1.58v-6.52h2.47v6.52c0,.63.15,1.11.44,1.46.29.34.72.52,1.3.52.43,0,.83-.1,1.2-.29.37-.19.73-.45,1.06-.78v-7.42h2.47Z" style="fill: #506489; stroke-width: 0px;"/>
    <path d="m296.73,4.95v.92c0,.29-.18.47-.53.54l-.92.17c.14.35.21.74.21,1.16,0,.51-.1.97-.31,1.38-.2.41-.48.76-.84,1.04-.36.29-.79.51-1.28.67-.49.16-1.02.24-1.58.24-.2,0-.39-.01-.58-.03s-.37-.05-.55-.08c-.32.19-.48.41-.48.65,0,.21.09.36.28.45.19.1.44.17.76.21.31.04.67.06,1.07.08.4,0,.81.03,1.23.06s.83.09,1.23.17c.4.08.76.22,1.07.4.31.18.57.43.75.74.19.31.29.71.29,1.19,0,.45-.11.89-.33,1.32s-.55.81-.97,1.14c-.42.33-.94.6-1.56.81-.62.2-1.32.3-2.1.3s-1.45-.07-2.02-.23c-.57-.15-1.05-.35-1.43-.6s-.66-.54-.85-.87c-.19-.33-.28-.67-.28-1.02,0-.48.14-.88.43-1.21s.69-.58,1.2-.77c-.27-.14-.49-.33-.65-.56-.16-.23-.24-.54-.24-.92,0-.15.03-.31.08-.48.06-.16.14-.32.25-.48.11-.16.25-.31.42-.46.17-.14.36-.27.59-.38-.52-.28-.93-.65-1.23-1.12s-.44-1.01-.44-1.64c0-.51.1-.96.3-1.38.2-.41.49-.76.85-1.05s.79-.51,1.29-.67c.5-.15,1.04-.23,1.62-.23.44,0,.85.04,1.24.13.39.09.74.22,1.06.4h2.95Zm-2.46,10.37c0-.2-.06-.36-.18-.49-.12-.13-.28-.23-.49-.3-.21-.07-.45-.12-.72-.15-.28-.03-.57-.06-.88-.08-.31-.02-.63-.03-.96-.04-.33-.01-.65-.04-.97-.08-.27.15-.49.33-.67.54-.17.21-.25.45-.25.72,0,.18.04.35.14.5.09.16.23.29.43.41.2.11.45.2.76.26s.7.1,1.15.1.86-.04,1.19-.1c.33-.07.61-.17.83-.29.22-.12.38-.27.48-.44.1-.17.15-.35.15-.56Zm-2.79-5.84c.31,0,.57-.04.8-.12s.42-.2.57-.35c.15-.15.26-.32.34-.53.08-.21.12-.43.12-.68,0-.51-.15-.91-.46-1.21-.3-.3-.76-.44-1.37-.44s-1.06.15-1.36.44c-.3.3-.46.7-.46,1.21,0,.24.04.46.11.67.08.21.19.39.34.54.15.15.34.27.57.35.23.08.5.12.79.12Z" style="fill: #506489; stroke-width: 0px;"/>
    <path d="m300.19,10.04c.04.53.13.98.28,1.36.15.38.34.7.58.95.24.25.52.44.85.56.33.12.7.19,1.09.19s.75-.05,1.04-.14.54-.2.76-.31.41-.22.57-.31.32-.14.47-.14c.21,0,.36.08.46.23l.71.9c-.27.32-.58.59-.92.8-.34.22-.69.39-1.06.52s-.75.22-1.13.27c-.38.05-.75.08-1.12.08-.71,0-1.38-.12-1.99-.35-.61-.24-1.15-.59-1.6-1.05s-.81-1.04-1.07-1.72c-.26-.68-.39-1.48-.39-2.38,0-.7.11-1.36.34-1.98.23-.62.55-1.15.97-1.61.42-.46.94-.82,1.55-1.08.61-.27,1.3-.4,2.06-.4.65,0,1.24.1,1.79.31s1.02.51,1.41.9c.39.4.7.88.92,1.46s.33,1.24.33,1.98c0,.37-.04.62-.12.75-.08.13-.23.2-.46.2h-6.35Zm4.71-1.49c0-.32-.04-.62-.13-.9s-.23-.53-.41-.75-.41-.38-.68-.5c-.28-.12-.6-.19-.97-.19-.71,0-1.27.2-1.68.61s-.67.98-.79,1.73h4.66Z" style="fill: #506489; stroke-width: 0px;"/>
    <path d="m310.87,10.04c.04.53.13.98.28,1.36.15.38.34.7.58.95.24.25.52.44.85.56.33.12.7.19,1.09.19s.75-.05,1.04-.14.54-.2.76-.31.41-.22.57-.31.32-.14.47-.14c.21,0,.36.08.46.23l.71.9c-.27.32-.58.59-.92.8-.34.22-.69.39-1.06.52s-.75.22-1.13.27c-.38.05-.75.08-1.12.08-.71,0-1.38-.12-1.99-.35-.61-.24-1.15-.59-1.6-1.05s-.81-1.04-1.07-1.72c-.26-.68-.39-1.48-.39-2.38,0-.7.11-1.36.34-1.98.23-.62.55-1.15.97-1.61.42-.46.94-.82,1.55-1.08.61-.27,1.3-.4,2.06-.4.65,0,1.24.1,1.79.31s1.02.51,1.41.9c.39.4.7.88.92,1.46s.33,1.24.33,1.98c0,.37-.04.62-.12.75-.08.13-.23.2-.46.2h-6.35Zm4.71-1.49c0-.32-.04-.62-.13-.9s-.23-.53-.41-.75-.41-.38-.68-.5c-.28-.12-.6-.19-.97-.19-.71,0-1.27.2-1.68.61s-.67.98-.79,1.73h4.66Z" style="fill: #506489; stroke-width: 0px;"/>
    <path d="m326.84,6.38c.32-.61.7-1.1,1.14-1.44.44-.35.96-.53,1.56-.53.47,0,.85.1,1.14.31l-.16,1.85c-.03.12-.08.21-.15.25-.06.05-.15.08-.25.08-.1,0-.25-.02-.45-.05-.2-.03-.39-.05-.58-.05-.27,0-.52.04-.73.12-.21.08-.41.19-.58.34-.17.15-.32.33-.45.55s-.25.46-.36.73v6.32h-2.47V4.6h1.45c.25,0,.43.04.53.13.1.09.17.25.2.48l.15,1.16Z" style="fill: #506489; stroke-width: 0px;"/>
    <path d="m333.87,10.04c.04.53.13.98.28,1.36.15.38.34.7.58.95.24.25.52.44.85.56.33.12.7.19,1.09.19s.75-.05,1.04-.14.54-.2.76-.31.41-.22.57-.31.32-.14.47-.14c.21,0,.36.08.46.23l.71.9c-.27.32-.58.59-.92.8-.34.22-.69.39-1.06.52s-.75.22-1.13.27c-.38.05-.75.08-1.12.08-.71,0-1.38-.12-1.99-.35-.61-.24-1.15-.59-1.6-1.05s-.81-1.04-1.07-1.72c-.26-.68-.39-1.48-.39-2.38,0-.7.11-1.36.34-1.98.23-.62.55-1.15.97-1.61.42-.46.94-.82,1.55-1.08.61-.27,1.3-.4,2.06-.4.65,0,1.24.1,1.79.31s1.02.51,1.41.9c.39.4.7.88.92,1.46s.33,1.24.33,1.98c0,.37-.04.62-.12.75-.08.13-.23.2-.46.2h-6.35Zm4.71-1.49c0-.32-.04-.62-.13-.9s-.23-.53-.41-.75-.41-.38-.68-.5c-.28-.12-.6-.19-.97-.19-.71,0-1.27.2-1.68.61s-.67.98-.79,1.73h4.66Z" style="fill: #506489; stroke-width: 0px;"/>
    <path d="m346.07,15.02c-.89,0-1.58-.25-2.05-.76-.48-.5-.71-1.2-.71-2.08v-5.73h-1.05c-.13,0-.25-.04-.34-.13-.09-.09-.14-.22-.14-.39v-.98l1.65-.27.52-2.8c.03-.13.1-.24.19-.31.09-.07.21-.11.36-.11h1.28v3.23h2.74v1.76h-2.74v5.56c0,.32.08.57.24.75.16.18.37.27.64.27.15,0,.28-.02.39-.05.1-.04.19-.08.27-.12.08-.04.14-.08.21-.12.06-.04.12-.05.18-.05.07,0,.13.02.18.05.05.04.1.09.15.17l.74,1.2c-.36.3-.77.53-1.24.68s-.95.23-1.45.23Z" style="fill: #506489; stroke-width: 0px;"/>
    <path d="m358.92,4.6v10.26h-1.51c-.33,0-.53-.15-.62-.45l-.17-.82c-.42.43-.88.77-1.39,1.04s-1.1.4-1.79.4c-.56,0-1.05-.1-1.49-.29-.43-.19-.79-.46-1.08-.81-.29-.35-.51-.76-.67-1.23-.15-.48-.22-1-.22-1.58v-6.52h2.47v6.52c0,.63.15,1.11.44,1.46.29.34.72.52,1.3.52.43,0,.83-.1,1.2-.29.37-.19.73-.45,1.06-.78v-7.42h2.47Z" style="fill: #506489; stroke-width: 0px;"/>
    <path d="m363.7,6.38c.32-.61.7-1.1,1.14-1.44.44-.35.96-.53,1.56-.53.47,0,.85.1,1.14.31l-.16,1.85c-.03.12-.08.21-.15.25-.06.05-.15.08-.25.08-.1,0-.25-.02-.45-.05-.2-.03-.39-.05-.58-.05-.27,0-.52.04-.73.12-.21.08-.41.19-.58.34-.17.15-.32.33-.45.55s-.25.46-.36.73v6.32h-2.47V4.6h1.45c.25,0,.43.04.53.13.1.09.17.25.2.48l.15,1.16Z" style="fill: #506489; stroke-width: 0px;"/>
    <path d="m371.14,5.86c.21-.21.42-.4.65-.58.23-.18.47-.33.73-.45s.53-.22.83-.29c.29-.07.61-.1.96-.1.56,0,1.06.09,1.49.29.43.19.79.46,1.08.8s.51.75.66,1.23c.15.48.23,1,.23,1.58v6.53h-2.47v-6.53c0-.63-.14-1.11-.43-1.46-.29-.34-.72-.52-1.31-.52-.43,0-.83.1-1.2.29s-.73.46-1.06.79v7.42h-2.47V4.6h1.51c.32,0,.53.15.63.45l.17.81Z" style="fill: #506489; stroke-width: 0px;"/>
    <path d="m382.01,10.04c.04.53.13.98.28,1.36.15.38.34.7.58.95.24.25.52.44.85.56.33.12.7.19,1.09.19s.75-.05,1.04-.14.54-.2.76-.31.41-.22.57-.31.32-.14.47-.14c.21,0,.36.08.46.23l.71.9c-.27.32-.58.59-.92.8-.34.22-.69.39-1.06.52s-.75.22-1.13.27c-.38.05-.75.08-1.12.08-.71,0-1.38-.12-1.99-.35-.61-.24-1.15-.59-1.6-1.05s-.81-1.04-1.07-1.72c-.26-.68-.39-1.48-.39-2.38,0-.7.11-1.36.34-1.98.23-.62.55-1.15.97-1.61.42-.46.94-.82,1.55-1.08.61-.27,1.3-.4,2.06-.4.65,0,1.24.1,1.79.31s1.02.51,1.41.9c.39.4.7.88.92,1.46s.33,1.24.33,1.98c0,.37-.04.62-.12.75-.08.13-.23.2-.46.2h-6.35Zm4.71-1.49c0-.32-.04-.62-.13-.9s-.23-.53-.41-.75-.41-.38-.68-.5c-.28-.12-.6-.19-.97-.19-.71,0-1.27.2-1.68.61s-.67.98-.79,1.73h4.66Z" style="fill: #506489; stroke-width: 0px;"/>
    <path d="m392.69,10.04c.04.53.13.98.28,1.36.15.38.34.7.58.95.24.25.52.44.85.56.33.12.7.19,1.09.19s.75-.05,1.04-.14.54-.2.76-.31.41-.22.57-.31.32-.14.47-.14c.21,0,.36.08.46.23l.71.9c-.27.32-.58.59-.92.8-.34.22-.69.39-1.06.52s-.75.22-1.13.27c-.38.05-.75.08-1.12.08-.71,0-1.38-.12-1.99-.35-.61-.24-1.15-.59-1.6-1.05s-.81-1.04-1.07-1.72c-.26-.68-.39-1.48-.39-2.38,0-.7.11-1.36.34-1.98.23-.62.55-1.15.97-1.61.42-.46.94-.82,1.55-1.08.61-.27,1.3-.4,2.06-.4.65,0,1.24.1,1.79.31s1.02.51,1.41.9c.39.4.7.88.92,1.46s.33,1.24.33,1.98c0,.37-.04.62-.12.75-.08.13-.23.2-.46.2h-6.35Zm4.71-1.49c0-.32-.04-.62-.13-.9s-.23-.53-.41-.75-.41-.38-.68-.5c-.28-.12-.6-.19-.97-.19-.71,0-1.27.2-1.68.61s-.67.98-.79,1.73h4.66Z" style="fill: #506489; stroke-width: 0px;"/>
    <path d="m407.73,6.6c-.07.11-.14.18-.21.22-.07.04-.17.06-.28.06-.12,0-.25-.03-.38-.1-.14-.07-.3-.14-.48-.23s-.38-.16-.62-.23c-.23-.07-.5-.1-.81-.1-.49,0-.87.1-1.15.31-.28.21-.42.48-.42.81,0,.22.07.4.22.56.14.15.33.28.57.4s.5.21.81.3c.3.09.6.19.91.29.31.11.62.23.92.37.3.14.57.31.81.52.24.21.43.46.57.75.14.29.22.65.22,1.06,0,.49-.09.95-.27,1.37-.18.42-.44.78-.79,1.08-.35.3-.77.54-1.28.71-.51.17-1.1.26-1.77.26-.35,0-.7-.03-1.04-.1-.34-.06-.66-.15-.97-.27-.31-.11-.6-.25-.86-.4-.26-.15-.49-.32-.69-.5l.57-.94c.07-.11.16-.2.26-.26.1-.06.23-.09.38-.09s.3.04.43.13c.14.09.29.18.48.28.18.1.39.19.63.28.24.09.55.13.92.13.29,0,.54-.04.75-.1.21-.07.38-.16.52-.28.14-.11.24-.24.3-.4.06-.15.09-.3.09-.46,0-.24-.07-.44-.21-.59s-.33-.29-.57-.4c-.24-.11-.51-.22-.81-.31-.3-.09-.61-.19-.93-.29-.32-.11-.63-.23-.93-.38-.3-.14-.57-.33-.81-.54-.24-.22-.43-.49-.57-.81-.14-.32-.21-.71-.21-1.16,0-.42.08-.82.25-1.2.17-.38.41-.71.74-.99.32-.28.73-.51,1.21-.68s1.04-.25,1.67-.25c.71,0,1.35.12,1.93.35s1.06.54,1.45.92l-.56.89Z" style="fill: #506489; stroke-width: 0px;"/>
    <path d="m415.84,14.86V6.46l-.89-.14c-.19-.04-.35-.11-.46-.21s-.17-.23-.17-.42v-1.01h1.53v-.76c0-.59.09-1.11.26-1.58.18-.47.43-.86.76-1.19.33-.33.73-.58,1.21-.75.47-.17,1.01-.26,1.6-.26.47,0,.91.06,1.32.19l-.05,1.24c0,.09-.03.17-.08.22-.05.06-.11.1-.18.13-.08.03-.17.05-.27.06-.1.01-.21.02-.32.02-.29,0-.56.03-.79.1-.23.06-.42.17-.58.33s-.28.36-.37.62c-.08.26-.12.58-.12.96v.68h2.67v1.76h-2.59v8.41h-2.47Z" style="stroke-width: 0px;"/>
    <path d="m424.62,6.38c.32-.61.7-1.1,1.14-1.44.44-.35.96-.53,1.56-.53.47,0,.85.1,1.14.31l-.16,1.85c-.03.12-.08.21-.15.25-.06.05-.15.08-.25.08-.1,0-.25-.02-.45-.05-.2-.03-.39-.05-.58-.05-.27,0-.52.04-.73.12-.21.08-.41.19-.58.34-.17.15-.32.33-.45.55s-.25.46-.36.73v6.32h-2.47V4.6h1.45c.25,0,.43.04.53.13.1.09.17.25.2.48l.15,1.16Z" style="stroke-width: 0px;"/>
    <path d="m434.29,4.44c.76,0,1.45.12,2.08.37s1.16.6,1.6,1.05c.44.45.79,1.01,1.03,1.66s.36,1.38.36,2.19-.12,1.55-.36,2.2c-.24.65-.58,1.21-1.03,1.67-.44.46-.98.81-1.6,1.06s-1.32.37-2.08.37-1.46-.12-2.09-.37-1.16-.6-1.6-1.06c-.44-.46-.79-1.02-1.03-1.67-.24-.65-.37-1.39-.37-2.2s.12-1.54.37-2.19.59-1.21,1.03-1.66c.44-.45.98-.8,1.6-1.05s1.32-.37,2.09-.37Zm0,8.67c.85,0,1.49-.29,1.9-.86s.61-1.41.61-2.52-.2-1.95-.61-2.53-1.04-.87-1.9-.87-1.51.29-1.92.88c-.42.58-.62,1.42-.62,2.52s.21,1.94.62,2.51c.42.58,1.06.87,1.92.87Z" style="stroke-width: 0px;"/>
    <path d="m441.24,14.86V4.6h1.51c.32,0,.53.15.63.45l.16.76c.18-.2.37-.38.57-.55.2-.17.41-.31.63-.43.22-.12.46-.22.72-.29.26-.07.54-.1.85-.1.65,0,1.18.17,1.59.52s.73.81.93,1.4c.16-.34.36-.63.6-.88.24-.24.5-.44.79-.6.29-.15.59-.27.92-.34.32-.07.65-.11.97-.11.57,0,1.07.09,1.51.26.44.17.81.43,1.11.76s.53.74.68,1.22c.16.48.24,1.03.24,1.65v6.53h-2.47v-6.53c0-.65-.14-1.15-.43-1.48-.29-.33-.71-.5-1.26-.5-.25,0-.49.04-.71.13-.22.09-.41.21-.57.38-.16.16-.29.37-.39.62-.09.25-.14.53-.14.85v6.53h-2.48v-6.53c0-.69-.14-1.19-.42-1.5-.28-.31-.68-.47-1.22-.47-.36,0-.69.09-1,.27-.31.18-.6.42-.86.73v7.51h-2.47Z" style="stroke-width: 0px;"/>
    <path d="m470.94,3.03c-.08.14-.17.24-.25.31s-.2.09-.33.09-.29-.05-.46-.15c-.16-.1-.36-.22-.58-.35-.23-.13-.49-.24-.79-.34-.3-.1-.66-.16-1.08-.16-.37,0-.7.05-.98.14s-.51.21-.71.38-.33.35-.42.57c-.09.22-.14.47-.14.74,0,.34.1.62.29.85.19.23.44.42.75.58.31.16.67.3,1.07.43.4.13.81.26,1.23.4.42.14.83.31,1.23.5.4.19.76.43,1.07.72s.56.65.75,1.06c.19.42.29.93.29,1.53,0,.65-.11,1.26-.33,1.83-.22.57-.55,1.07-.98,1.49-.43.42-.96.76-1.58,1-.62.24-1.33.37-2.13.37-.46,0-.91-.04-1.36-.14-.45-.09-.88-.22-1.29-.38s-.79-.37-1.16-.6-.68-.49-.96-.78l.79-1.29c.07-.09.15-.17.26-.24.11-.06.22-.09.34-.09.17,0,.35.07.54.21s.42.29.69.45c.27.17.58.32.93.46.36.14.79.21,1.29.21.77,0,1.36-.18,1.78-.54s.63-.89.63-1.56c0-.38-.09-.69-.29-.93-.19-.24-.44-.44-.75-.6-.31-.16-.67-.3-1.07-.42-.4-.11-.81-.24-1.22-.37-.41-.13-.82-.29-1.22-.48-.4-.19-.76-.43-1.07-.73-.31-.3-.56-.67-.75-1.12-.19-.45-.29-1-.29-1.67,0-.53.11-1.04.32-1.54s.51-.94.92-1.33c.4-.39.89-.7,1.48-.93s1.26-.35,2.02-.35c.85,0,1.64.13,2.36.4.72.27,1.33.64,1.84,1.12l-.67,1.27Z" style="stroke-width: 0px;"/>
    <path d="m482.66,4.6v10.26h-1.51c-.33,0-.53-.15-.62-.45l-.17-.82c-.42.43-.88.77-1.39,1.04s-1.1.4-1.79.4c-.56,0-1.05-.1-1.49-.29-.43-.19-.79-.46-1.08-.81-.29-.35-.51-.76-.67-1.23-.15-.48-.22-1-.22-1.58v-6.52h2.47v6.52c0,.63.15,1.11.44,1.46.29.34.72.52,1.3.52.43,0,.83-.1,1.2-.29.37-.19.73-.45,1.06-.78v-7.42h2.47Z" style="stroke-width: 0px;"/>
    <path d="m494.01,0v14.86h-1.51c-.33,0-.53-.15-.62-.45l-.21-.99c-.41.47-.89.86-1.42,1.15-.54.29-1.16.44-1.88.44-.56,0-1.07-.12-1.54-.35-.47-.23-.87-.57-1.21-1.01s-.6-.99-.78-1.65-.27-1.4-.27-2.24c0-.76.1-1.47.31-2.12.21-.65.5-1.22.89-1.7s.85-.85,1.39-1.12,1.15-.41,1.82-.41c.57,0,1.06.09,1.47.27.41.18.77.42,1.09.73V0h2.47Zm-2.47,7.22c-.28-.34-.58-.58-.92-.72-.33-.14-.69-.21-1.07-.21s-.71.07-1.01.21c-.3.14-.56.35-.77.63-.21.28-.38.64-.49,1.08s-.17.95-.17,1.54.05,1.11.14,1.52c.1.42.24.76.42,1.02.18.26.4.45.66.57s.55.17.87.17c.51,0,.95-.11,1.31-.32.36-.21.7-.52,1.02-.91v-4.6Z" style="stroke-width: 0px;"/>
    <path d="m496.21,6.03c1.18-1.08,2.6-1.62,4.26-1.62.6,0,1.14.1,1.61.3.47.2.87.47,1.2.82.33.35.58.77.75,1.25.17.49.25,1.02.25,1.6v6.48h-1.12c-.23,0-.41-.04-.54-.1-.13-.07-.23-.21-.3-.42l-.22-.74c-.26.23-.51.44-.76.62-.25.18-.5.32-.77.44s-.55.21-.85.27c-.3.06-.64.1-1,.1-.43,0-.83-.06-1.2-.18-.37-.12-.68-.29-.95-.52s-.47-.52-.62-.87c-.15-.35-.22-.75-.22-1.21,0-.26.04-.52.13-.77.09-.26.23-.5.42-.73s.45-.45.76-.66.7-.39,1.16-.54.99-.28,1.59-.38c.61-.1,1.3-.15,2.08-.17v-.6c0-.69-.15-1.19-.44-1.52-.29-.33-.72-.5-1.27-.5-.4,0-.73.05-1,.14-.26.09-.49.2-.69.31s-.38.22-.54.31c-.16.09-.35.14-.54.14-.17,0-.32-.04-.44-.14-.12-.09-.22-.19-.29-.31l-.44-.79Zm5.66,4.45c-.71.03-1.31.09-1.8.19-.49.09-.88.2-1.17.34s-.5.3-.63.49-.19.39-.19.61c0,.43.13.74.39.93.26.19.59.28,1,.28.51,0,.94-.09,1.31-.27.37-.18.73-.46,1.08-.83v-1.73Z" style="stroke-width: 0px;"/>
    <path d="m508.91,5.86c.21-.21.42-.4.65-.58.23-.18.47-.33.73-.45s.53-.22.83-.29c.29-.07.61-.1.96-.1.56,0,1.06.09,1.49.29.43.19.79.46,1.08.8s.51.75.66,1.23c.15.48.23,1,.23,1.58v6.53h-2.47v-6.53c0-.63-.14-1.11-.43-1.46-.29-.34-.72-.52-1.31-.52-.43,0-.83.1-1.2.29s-.73.46-1.06.79v7.42h-2.47V4.6h1.51c.32,0,.53.15.63.45l.17.81Z" style="stroke-width: 0px;"/>
    <path d="m3.69,29.86c.41-.43.87-.78,1.38-1.04.5-.26,1.08-.38,1.72-.38.59,0,1.13.12,1.61.35s.88.57,1.22,1,.59.96.78,1.58c.18.62.27,1.32.27,2.09,0,.83-.1,1.59-.31,2.27-.21.68-.5,1.26-.89,1.75-.38.48-.84.86-1.38,1.12s-1.14.4-1.8.4c-.32,0-.61-.03-.87-.09-.26-.06-.5-.15-.72-.27s-.42-.25-.61-.42c-.18-.16-.36-.35-.52-.54l-.11.69c-.04.17-.11.3-.21.37s-.23.11-.39.11h-1.63v-14.86h2.47v5.86Zm0,6.34c.28.34.58.58.92.72s.68.21,1.04.21.72-.07,1.02-.21c.3-.14.56-.35.78-.64.21-.29.38-.66.49-1.11.11-.45.17-.99.17-1.61,0-1.13-.19-1.94-.56-2.45-.37-.5-.91-.75-1.61-.75-.47,0-.89.11-1.24.33-.35.22-.69.52-1.01.92v4.6Z" style="stroke-width: 0px;"/>
    <path d="m21.89,28.6l-5.59,13.08c-.07.17-.17.31-.29.4-.12.09-.29.14-.54.14h-1.84l1.92-4.12-4.15-9.49h2.17c.19,0,.34.05.46.14.11.09.19.2.25.32l2.18,5.32c.07.18.13.36.18.54.05.18.1.36.15.55.06-.19.12-.37.18-.55.06-.18.13-.37.2-.55l2.06-5.31c.05-.13.14-.24.27-.33.12-.09.26-.13.42-.13h1.98Z" style="stroke-width: 0px;"/>
    <path d="m35.33,30.77c-.07.09-.14.17-.21.22-.07.05-.17.08-.3.08s-.25-.04-.37-.11-.26-.16-.43-.26c-.17-.1-.37-.18-.6-.26-.23-.08-.51-.12-.85-.12-.43,0-.81.08-1.14.23-.33.16-.6.38-.82.68s-.38.65-.49,1.06c-.11.42-.16.89-.16,1.42s.06,1.03.17,1.46c.12.43.29.79.5,1.07.22.29.49.51.8.66s.67.23,1.06.23.71-.05.95-.15c.24-.1.45-.2.62-.32s.31-.22.44-.32c.12-.1.26-.15.42-.15.2,0,.35.08.45.23l.71.9c-.27.32-.57.59-.89.8-.32.22-.65.39-1,.52-.34.13-.7.22-1.06.27s-.73.08-1.08.08c-.63,0-1.23-.12-1.79-.35-.56-.24-1.05-.58-1.47-1.04-.42-.45-.75-1.01-.99-1.66-.24-.66-.37-1.41-.37-2.25,0-.75.11-1.45.33-2.1.22-.64.53-1.2.96-1.67.42-.47.94-.84,1.56-1.1s1.33-.4,2.14-.4,1.44.12,2.02.37c.58.25,1.09.6,1.55,1.06l-.65.9Z" style="stroke-width: 0px;"/>
    <path d="m42.16,28.44c.76,0,1.45.12,2.08.37s1.16.6,1.6,1.05c.44.45.79,1.01,1.03,1.66s.36,1.38.36,2.19-.12,1.55-.36,2.2c-.24.65-.58,1.21-1.03,1.67-.44.46-.98.81-1.6,1.06s-1.32.37-2.08.37-1.46-.12-2.09-.37-1.16-.6-1.61-1.06c-.44-.46-.79-1.02-1.03-1.67-.24-.65-.37-1.39-.37-2.2s.12-1.54.37-2.19c.24-.65.59-1.21,1.03-1.66.44-.45.98-.8,1.61-1.05s1.32-.37,2.09-.37Zm0,8.67c.85,0,1.49-.29,1.9-.86s.61-1.41.61-2.52-.2-1.95-.61-2.53-1.04-.87-1.9-.87-1.51.29-1.92.88c-.42.58-.62,1.42-.62,2.52s.21,1.94.62,2.51c.42.58,1.06.87,1.92.87Z" style="stroke-width: 0px;"/>
    <path d="m57.95,28.6v10.26h-1.51c-.33,0-.53-.15-.62-.45l-.17-.82c-.42.43-.88.77-1.39,1.04s-1.1.4-1.79.4c-.56,0-1.05-.1-1.49-.29-.43-.19-.79-.46-1.08-.81-.29-.35-.51-.76-.67-1.23-.15-.48-.22-1-.22-1.58v-6.52h2.47v6.52c0,.63.15,1.11.44,1.46.29.34.72.52,1.3.52.43,0,.83-.1,1.2-.29.37-.19.73-.45,1.06-.78v-7.42h2.47Z" style="stroke-width: 0px;"/>
    <path d="m62.7,29.86c.21-.21.42-.4.65-.58.23-.18.47-.33.73-.45s.53-.22.83-.29c.29-.07.61-.1.96-.1.56,0,1.06.09,1.49.29.43.19.79.46,1.08.8s.51.75.66,1.23c.15.48.23,1,.23,1.58v6.53h-2.47v-6.53c0-.63-.14-1.11-.43-1.46-.29-.34-.72-.52-1.31-.52-.43,0-.83.1-1.2.29s-.73.46-1.06.79v7.42h-2.47v-10.26h1.51c.32,0,.53.15.63.45l.17.81Z" style="stroke-width: 0px;"/>
    <path d="m75.09,39.02c-.89,0-1.58-.25-2.05-.76-.48-.5-.71-1.2-.71-2.08v-5.73h-1.05c-.13,0-.25-.04-.34-.13-.09-.09-.14-.22-.14-.39v-.98l1.65-.27.52-2.8c.03-.13.1-.24.19-.31.09-.07.21-.11.36-.11h1.28v3.23h2.74v1.76h-2.74v5.56c0,.32.08.57.24.75.16.18.37.27.64.27.15,0,.28-.02.39-.05.1-.04.19-.08.27-.12.08-.04.14-.08.21-.12.06-.04.12-.05.18-.05.07,0,.13.02.18.05.05.04.1.09.15.17l.74,1.2c-.36.3-.77.53-1.24.68s-.95.23-1.45.23Z" style="stroke-width: 0px;"/>
    <path d="m81.44,30.38c.32-.61.7-1.1,1.14-1.44.44-.35.96-.53,1.56-.53.47,0,.85.1,1.14.31l-.16,1.85c-.03.12-.08.21-.15.25-.06.05-.15.08-.25.08-.1,0-.25-.02-.45-.05-.2-.03-.39-.05-.58-.05-.27,0-.52.04-.73.12-.21.08-.41.19-.58.34-.17.15-.32.33-.45.55s-.25.46-.36.73v6.32h-2.47v-10.26h1.45c.25,0,.43.04.53.13.1.09.17.25.2.48l.15,1.16Z" style="stroke-width: 0px;"/>
    <path d="m95.89,28.6l-5.59,13.08c-.07.17-.17.31-.29.4-.12.09-.29.14-.54.14h-1.84l1.92-4.12-4.15-9.49h2.17c.19,0,.34.05.45.14.11.09.19.2.25.32l2.18,5.32c.07.18.13.36.18.54s.1.36.15.55c.06-.19.12-.37.18-.55.06-.18.13-.37.2-.55l2.06-5.31c.05-.13.14-.24.26-.33.12-.09.26-.13.42-.13h1.98Z" style="stroke-width: 0px;"/>
    <path d="m106.52,28.44c.76,0,1.45.12,2.08.37s1.16.6,1.6,1.05c.44.45.79,1.01,1.03,1.66s.36,1.38.36,2.19-.12,1.55-.36,2.2c-.24.65-.58,1.21-1.03,1.67-.44.46-.98.81-1.6,1.06s-1.32.37-2.08.37-1.46-.12-2.09-.37-1.16-.6-1.6-1.06c-.44-.46-.79-1.02-1.03-1.67-.24-.65-.37-1.39-.37-2.2s.12-1.54.37-2.19.59-1.21,1.03-1.66c.44-.45.98-.8,1.6-1.05s1.32-.37,2.09-.37Zm0,8.67c.85,0,1.49-.29,1.9-.86s.61-1.41.61-2.52-.2-1.95-.61-2.53-1.04-.87-1.9-.87-1.51.29-1.92.88c-.42.58-.62,1.42-.62,2.52s.21,1.94.62,2.51c.42.58,1.06.87,1.92.87Z" style="stroke-width: 0px;"/>
    <path d="m114.19,38.86v-8.4l-.89-.14c-.19-.04-.35-.11-.46-.21s-.17-.23-.17-.42v-1.01h1.53v-.76c0-.59.09-1.11.26-1.58.18-.47.43-.86.76-1.19.33-.33.73-.58,1.21-.75.47-.17,1.01-.26,1.6-.26.47,0,.91.06,1.32.19l-.05,1.24c0,.09-.03.17-.08.22-.05.06-.11.1-.18.13-.08.03-.17.05-.27.06-.1.01-.21.02-.32.02-.29,0-.56.03-.79.1-.23.06-.42.17-.58.33s-.28.36-.37.62c-.08.26-.12.58-.12.96v.68h2.67v1.76h-2.59v8.41h-2.47Z" style="stroke-width: 0px;"/>
    <path d="m125.26,30.03c1.18-1.08,2.6-1.62,4.26-1.62.6,0,1.14.1,1.61.3.47.2.87.47,1.2.82.33.35.58.77.75,1.25.17.49.25,1.02.25,1.6v6.48h-1.12c-.23,0-.41-.04-.54-.1-.13-.07-.23-.21-.3-.42l-.22-.74c-.26.23-.51.44-.76.62-.25.18-.5.32-.77.44s-.55.21-.85.27c-.3.06-.64.1-1,.1-.43,0-.83-.06-1.2-.18-.37-.12-.68-.29-.95-.52s-.47-.52-.62-.87c-.15-.35-.22-.75-.22-1.21,0-.26.04-.52.13-.77.09-.26.23-.5.42-.73s.45-.45.76-.66.7-.39,1.16-.54.99-.28,1.59-.38c.61-.1,1.3-.15,2.08-.17v-.6c0-.69-.15-1.19-.44-1.52-.29-.33-.72-.5-1.27-.5-.4,0-.73.05-1,.14-.26.09-.49.2-.69.31s-.38.22-.54.31c-.16.09-.35.14-.54.14-.17,0-.32-.04-.44-.14-.12-.09-.22-.19-.29-.31l-.44-.79Zm5.66,4.45c-.71.03-1.31.09-1.8.19-.49.09-.88.2-1.17.34s-.5.3-.63.49-.19.39-.19.61c0,.43.13.74.39.93.26.19.59.28,1,.28.51,0,.94-.09,1.31-.27.37-.18.73-.46,1.08-.83v-1.73Z" style="stroke-width: 0px;"/>
    <path d="m141.91,30.6c-.07.11-.14.18-.21.22-.07.04-.17.06-.28.06-.12,0-.25-.03-.38-.1-.14-.07-.3-.14-.48-.23s-.38-.16-.62-.23c-.23-.07-.5-.1-.81-.1-.49,0-.87.1-1.15.31-.28.21-.42.48-.42.81,0,.22.07.4.22.56.14.15.33.28.57.4s.5.21.81.3c.3.09.6.19.91.29.31.11.62.23.92.37.3.14.57.31.81.52.24.21.43.46.57.75.14.29.22.65.22,1.06,0,.49-.09.95-.27,1.37-.18.42-.44.78-.79,1.08-.35.3-.77.54-1.28.71-.51.17-1.1.26-1.77.26-.35,0-.7-.03-1.04-.1-.34-.06-.66-.15-.97-.27-.31-.11-.6-.25-.86-.4-.26-.15-.49-.32-.69-.5l.57-.94c.07-.11.16-.2.26-.26.1-.06.23-.09.38-.09s.3.04.43.13c.14.09.29.18.48.28.18.1.39.19.63.28.24.09.55.13.92.13.29,0,.54-.04.75-.1.21-.07.38-.16.52-.28.14-.11.24-.24.3-.4.06-.15.09-.3.09-.46,0-.24-.07-.44-.21-.59s-.33-.29-.57-.4c-.24-.11-.51-.22-.81-.31-.3-.09-.61-.19-.93-.29-.32-.11-.63-.23-.93-.38-.3-.14-.57-.33-.81-.54-.24-.22-.43-.49-.57-.81-.14-.32-.21-.71-.21-1.16,0-.42.08-.82.25-1.2.17-.38.41-.71.74-.99.32-.28.73-.51,1.21-.68s1.04-.25,1.67-.25c.71,0,1.35.12,1.93.35s1.06.54,1.45.92l-.56.89Z" style="stroke-width: 0px;"/>
    <path d="m153.76,28.6l-5.59,13.08c-.07.17-.17.31-.29.4-.12.09-.29.14-.54.14h-1.84l1.92-4.12-4.15-9.49h2.17c.19,0,.34.05.45.14.11.09.19.2.25.32l2.18,5.32c.07.18.13.36.18.54s.1.36.15.55c.06-.19.12-.37.18-.55.06-.18.13-.37.2-.55l2.06-5.31c.05-.13.14-.24.26-.33.12-.09.26-.13.42-.13h1.98Z" style="stroke-width: 0px;"/>
    <path d="m157.49,24v14.86h-2.47v-14.86h2.47Z" style="stroke-width: 0px;"/>
    <path d="m168.8,28.6v10.26h-1.51c-.33,0-.53-.15-.62-.45l-.17-.82c-.42.43-.88.77-1.39,1.04s-1.1.4-1.79.4c-.56,0-1.05-.1-1.49-.29-.43-.19-.79-.46-1.08-.81-.29-.35-.51-.76-.67-1.23-.15-.48-.22-1-.22-1.58v-6.52h2.47v6.52c0,.63.15,1.11.44,1.46.29.34.72.52,1.3.52.43,0,.83-.1,1.2-.29.37-.19.73-.45,1.06-.78v-7.42h2.47Z" style="stroke-width: 0px;"/>
    <path d="m171.24,38.86v-10.26h1.51c.32,0,.53.15.63.45l.16.76c.18-.2.37-.38.57-.55.2-.17.41-.31.63-.43.22-.12.46-.22.72-.29.26-.07.54-.1.85-.1.65,0,1.18.17,1.59.52s.73.81.93,1.4c.16-.34.36-.63.6-.88.24-.24.5-.44.79-.6.29-.15.59-.27.92-.34.32-.07.65-.11.97-.11.57,0,1.07.09,1.51.26.44.17.81.43,1.11.76s.53.74.68,1.22c.16.48.24,1.03.24,1.65v6.53h-2.47v-6.53c0-.65-.14-1.15-.43-1.48-.29-.33-.71-.5-1.26-.5-.25,0-.49.04-.71.13-.22.09-.41.21-.57.38-.16.16-.29.37-.39.62-.09.25-.14.53-.14.85v6.53h-2.48v-6.53c0-.69-.14-1.19-.42-1.5-.28-.31-.68-.47-1.22-.47-.36,0-.69.09-1,.27-.31.18-.6.42-.86.73v7.51h-2.47Z" style="stroke-width: 0px;"/>
  </g>
  <g style="clip-path: url(#clippath);">
    <g>
      <polygon points="483.65 396.87 539 396.87 539 396.87 539 396.87 539 396.87 539 396.87 539 396.87 539 396.87 539 396.87 539 396.87 539 396.87 539 396.87 539 396.87 539 396.87 539 350 539 350 539 350 539 350 539 350 539 350 539 350 539 350 539 350 539 350 539 350 539 350 483.65 350 483.65 350 483.65 350 483.65 350 483.65 350 483.65 350 483.65 350 483.65 350 483.65 350 483.65 350 483.65 350 483.65 350 483.65 350 483.65 396.87 483.65 396.87 483.65 396.87 483.65 396.87 483.65 396.87 483.65 396.87 483.65 396.87 483.65 396.87 483.65 396.87 483.65 396.87 483.65 396.87 483.65 396.87" style="fill: #0072bc; stroke: #bebebe; stroke-linecap: round; stroke-linejoin: round; stroke-width: .38px;"/>
      <polygon points="483.65 413.41 539 413.41 539 413.41 539 413.41 539 413.41 539 413.41 539 413.41 539 413.41 539 413.41 539 413.41 539 413.41 539 413.41 539 413.41 539 413.41 539 396.87 539 396.87 539 396.87 539 396.87 539 396.87 539 396.87 539 396.87 539 396.87 539 396.87 539 396.87 539 396.87 539 396.87 483.65 396.87 483.65 396.87 483.65 396.87 483.65 396.87 483.65 396.87 483.65 396.87 483.65 396.87 483.65 396.87 483.65 396.87 483.65 396.87 483.65 396.87 483.65 396.87 483.65 396.87 483.65 413.41 483.65 413.41 483.65 413.41 483.65 413.41 483.65 413.41 483.65 413.41 483.65 413.41 483.65 413.41 483.65 413.41 483.65 413.41 483.65 413.41 483.65 413.41" style="fill: #8395b9; stroke: #bebebe; stroke-linecap: round; stroke-linejoin: round; stroke-width: .38px;"/>
      <polygon points="1 263.86 375.32 263.86 375.32 263.86 375.32 263.86 375.32 263.86 375.32 263.86 375.32 263.86 375.32 263.86 375.32 263.86 375.32 263.86 375.32 263.86 375.32 263.86 375.32 263.86 375.32 263.86 375.32 54 375.32 54 375.32 54 375.32 54 375.32 54 375.32 54 375.32 54 375.32 54 375.32 54 375.32 54 375.32 54 375.32 54 1 54 1 54 1 54 1 54 1 54 1 54 1 54 1 54 1 54 1 54 1 54 1 54 1 54 1 263.86 1 263.86 1 263.86 1 263.86 1 263.86 1 263.86 1 263.86 1 263.86 1 263.86 1 263.86 1 263.86 1 263.86" style="fill: #0072bc; stroke: #bebebe; stroke-linecap: round; stroke-linejoin: round; stroke-width: .38px;"/>
      <polygon points="1 413.41 375.32 413.41 375.32 413.41 375.32 413.41 375.32 413.41 375.32 413.41 375.32 413.41 375.32 413.41 375.32 413.41 375.32 413.41 375.32 413.41 375.32 413.41 375.32 413.41 375.32 413.41 375.32 263.86 375.32 263.86 375.32 263.86 375.32 263.86 375.32 263.86 375.32 263.86 375.32 263.86 375.32 263.86 375.32 263.86 375.32 263.86 375.32 263.86 375.32 263.86 1 263.86 1 263.86 1 263.86 1 263.86 1 263.86 1 263.86 1 263.86 1 263.86 1 263.86 1 263.86 1 263.86 1 263.86 1 263.86 1 413.41 1 413.41 1 413.41 1 413.41 1 413.41 1 413.41 1 413.41 1 413.41 1 413.41 1 413.41 1 413.41 1 413.41" style="fill: #0072bc; stroke: #bebebe; stroke-linecap: round; stroke-linejoin: round; stroke-width: .38px;"/>
      <polygon points="375.32 413.41 482.44 413.41 482.44 413.41 482.44 413.41 482.44 413.41 482.44 413.41 482.44 413.41 482.44 413.41 482.44 413.41 482.44 413.41 482.44 413.41 482.44 413.41 482.44 413.41 482.44 413.41 482.44 350 482.44 350 482.44 350 482.44 350 482.44 350 482.44 350 482.44 350 482.44 350 482.44 350 482.44 350 482.44 350 482.44 350 375.32 350 375.32 350 375.32 350 375.32 350 375.32 350 375.32 350 375.32 350 375.32 350 375.32 350 375.32 350 375.32 350 375.32 350 375.32 350 375.32 413.41 375.32 413.41 375.32 413.41 375.32 413.41 375.32 413.41 375.32 413.41 375.32 413.41 375.32 413.41 375.32 413.41 375.32 413.41 375.32 413.41 375.32 413.41" style="fill: #0072bc; stroke: #bebebe; stroke-linecap: round; stroke-linejoin: round; stroke-width: .38px;"/>
      <polygon points="482.44 413.41 483.65 413.41 483.65 413.41 483.65 413.41 483.65 413.41 483.65 413.41 483.65 413.41 483.65 413.41 483.65 413.41 483.65 413.41 483.65 413.41 483.65 413.41 483.65 413.41 483.65 413.41 483.65 350 483.65 350 483.65 350 483.65 350 483.65 350 483.65 350 483.65 350 483.65 350 483.65 350 483.65 350 483.65 350 483.65 350 482.44 350 482.44 350 482.44 350 482.44 350 482.44 350 482.44 350 482.44 350 482.44 350 482.44 350 482.44 350 482.44 350 482.44 350 482.44 350 482.44 413.41 482.44 413.41 482.44 413.41 482.44 413.41 482.44 413.41 482.44 413.41 482.44 413.41 482.44 413.41 482.44 413.41 482.44 413.41 482.44 413.41 482.44 413.41" style="fill: #8395b9; stroke: #bebebe; stroke-linecap: round; stroke-linejoin: round; stroke-width: .38px;"/>
      <polygon points="375.32 325.26 539 325.26 539 325.26 539 325.26 539 325.26 539 325.26 539 325.26 539 325.26 539 325.26 539 325.26 539 325.26 539 325.26 539 325.26 539 325.26 539 54 539 54 539 54 539 54 539 54 539 54 539 54 539 54 539 54 539 54 539 54 539 54 375.32 54 375.32 54 375.32 54 375.32 54 375.32 54 375.32 54 375.32 54 375.32 54 375.32 54 375.32 54 375.32 54 375.32 54 375.32 54 375.32 325.26 375.32 325.26 375.32 325.26 375.32 325.26 375.32 325.26 375.32 325.26 375.32 325.26 375.32 325.26 375.32 325.26 375.32 325.26 375.32 325.26 375.32 325.26" style="fill: #8395b9; stroke: #bebebe; stroke-linecap: round; stroke-linejoin: round; stroke-width: .38px;"/>
      <polygon points="375.32 350 539 350 539 350 539 350 539 350 539 350 539 350 539 350 539 350 539 350 539 350 539 350 539 350 539 350 539 325.26 539 325.26 539 325.26 539 325.26 539 325.26 539 325.26 539 325.26 539 325.26 539 325.26 539 325.26 539 325.26 539 325.26 375.32 325.26 375.32 325.26 375.32 325.26 375.32 325.26 375.32 325.26 375.32 325.26 375.32 325.26 375.32 325.26 375.32 325.26 375.32 325.26 375.32 325.26 375.32 325.26 375.32 325.26 375.32 350 375.32 350 375.32 350 375.32 350 375.32 350 375.32 350 375.32 350 375.32 350 375.32 350 375.32 350 375.32 350 375.32 350" style="fill: #0072bc; stroke: #bebebe; stroke-linecap: round; stroke-linejoin: round; stroke-width: .38px;"/>
      <g style="isolation: isolate;">
        <path d="m495.93,391.5v1.51h-6.52v-1.51h2.39v-6.87c0-.27,0-.55.02-.84l-1.7,1.42c-.1.08-.19.12-.29.14-.1.02-.18.02-.27,0-.08-.02-.16-.04-.22-.09-.07-.04-.11-.08-.15-.13l-.64-.87,3.6-3.06h1.65v10.3h2.12Z" style="fill: #fff; stroke-width: 0px;"/>
        <path d="m497.83,384.51c.08-.57.24-1.06.47-1.49.23-.43.53-.78.88-1.07s.75-.5,1.21-.64c.45-.14.94-.22,1.46-.22s1.03.08,1.47.23c.44.16.81.37,1.12.64s.55.6.71.97c.17.37.25.77.25,1.2,0,.38-.04.71-.13.99-.08.29-.21.53-.36.75-.16.21-.35.39-.59.54s-.5.27-.79.37c.71.22,1.23.56,1.58,1.02.35.46.52,1.03.52,1.72,0,.59-.11,1.11-.33,1.56-.22.45-.51.83-.88,1.14-.37.31-.8.54-1.28.7-.49.16-1,.24-1.54.24-.59,0-1.11-.07-1.55-.2-.44-.14-.82-.34-1.15-.6-.33-.27-.6-.59-.83-.98-.23-.39-.42-.83-.59-1.34l.89-.37c.23-.1.45-.12.66-.08.2.05.35.16.44.33.1.19.21.38.32.56.12.18.26.35.42.49.16.14.35.26.58.35.22.09.48.13.79.13.34,0,.64-.06.9-.17.26-.11.47-.26.64-.44.17-.18.3-.38.38-.6.08-.22.13-.44.13-.66,0-.28-.03-.54-.09-.77-.06-.23-.18-.43-.37-.59-.19-.16-.46-.29-.82-.38-.36-.09-.83-.14-1.43-.14v-1.43c.49,0,.9-.05,1.23-.14s.59-.21.78-.36c.19-.15.33-.34.4-.56.08-.22.11-.46.11-.72,0-.55-.15-.98-.46-1.26-.31-.29-.72-.43-1.24-.43-.24,0-.46.03-.66.1-.2.07-.38.16-.54.29-.16.12-.29.26-.4.43-.11.16-.19.34-.24.54-.09.25-.21.42-.36.5-.15.08-.36.1-.63.06l-1.06-.19Z" style="fill: #fff; stroke-width: 0px;"/>
        <path d="m509.91,386.16h.51c.21,0,.38-.03.51-.08.14-.06.25-.15.35-.27l3.25-4.12c.14-.17.28-.29.43-.36.15-.07.34-.1.57-.1h1.89l-3.97,4.9c-.23.3-.48.51-.73.64.18.07.34.16.49.27.14.12.28.27.41.46l4.09,5.52h-1.93c-.26,0-.46-.04-.58-.11-.13-.07-.24-.18-.32-.32l-3.33-4.35c-.1-.15-.22-.25-.36-.31s-.33-.09-.59-.09h-.69v5.18h-2.19v-11.79h2.19v4.94Z" style="fill: #fff; stroke-width: 0px;"/>
      </g>
      <g style="isolation: isolate;">
        <path d="m489.98,403.92c.2-.04.38-.07.56-.09.18-.02.35-.03.52-.03.46,0,.87.07,1.23.21s.65.33.89.58c.24.24.42.53.54.86.12.33.18.68.18,1.06,0,.47-.08.9-.25,1.28-.17.39-.39.72-.69.99-.29.28-.64.49-1.04.64-.4.15-.84.23-1.31.23-.28,0-.54-.03-.79-.08-.25-.06-.48-.13-.7-.23-.22-.1-.42-.21-.61-.33-.19-.12-.35-.26-.5-.39l.46-.64c.1-.14.23-.21.39-.21.1,0,.21.03.31.1.11.07.23.14.36.21.14.08.3.15.48.21s.41.1.67.1c.28,0,.52-.04.73-.13.21-.09.39-.22.53-.38.14-.16.25-.35.32-.58.07-.22.11-.46.11-.72,0-.48-.14-.86-.42-1.13-.28-.27-.69-.41-1.24-.41-.42,0-.85.08-1.29.23l-.94-.27.73-4.29h4.37v.64c0,.22-.07.39-.2.53s-.36.2-.69.2h-2.43l-.31,1.84Z" style="fill: #1a1a1a; stroke-width: 0px;"/>
        <path d="m497.22,404.42h.38c.16,0,.28-.02.39-.06.1-.04.19-.11.26-.21l2.44-3.09c.1-.13.21-.22.32-.27.11-.05.25-.08.42-.08h1.42l-2.98,3.67c-.17.22-.36.38-.54.48.13.05.26.12.36.21.11.09.21.2.31.35l3.07,4.14h-1.45c-.2,0-.34-.03-.44-.08-.1-.05-.18-.13-.24-.24l-2.5-3.26c-.08-.11-.17-.19-.27-.23-.1-.04-.25-.07-.44-.07h-.52v3.89h-1.64v-8.84h1.64v3.7Z" style="fill: #1a1a1a; stroke-width: 0px;"/>
      </g>
      <g style="isolation: isolate;">
        <path d="m13.88,255.57v1.17c0,.11-.04.2-.11.28-.07.08-.17.12-.3.12h-1.08v2.88h-1.75v-2.88h-4.97c-.14,0-.25-.04-.36-.13s-.17-.19-.2-.31l-.21-1.02,5.58-7.46h1.91v7.35h1.48Zm-3.24,0v-3.86c0-.36.02-.77.07-1.21l-3.66,5.06h3.59Z" style="fill: #fff; stroke-width: 0px;"/>
        <path d="m23.35,254.12c0,1.03-.11,1.92-.33,2.68-.22.76-.52,1.38-.91,1.88-.39.5-.85.86-1.38,1.1-.53.24-1.1.36-1.72.36s-1.18-.12-1.71-.36c-.52-.24-.98-.61-1.37-1.1-.39-.49-.69-1.12-.91-1.88-.22-.76-.33-1.65-.33-2.68s.11-1.93.33-2.68c.22-.76.52-1.38.91-1.88s.84-.86,1.37-1.1,1.09-.36,1.71-.36,1.19.12,1.72.36c.53.24.99.61,1.38,1.1s.69,1.12.91,1.88c.22.75.33,1.65.33,2.68Zm-2.08,0c0-.85-.06-1.56-.19-2.12s-.29-1.01-.5-1.34c-.21-.33-.45-.56-.72-.7-.27-.13-.55-.2-.85-.2s-.57.07-.84.2c-.27.13-.51.37-.71.7-.21.33-.37.78-.49,1.34-.12.56-.18,1.27-.18,2.12s.06,1.56.18,2.12c.12.56.29,1.01.49,1.34.21.33.44.56.71.7.27.13.55.2.84.2s.58-.07.85-.2c.27-.13.51-.37.72-.7.21-.33.38-.78.5-1.34s.19-1.27.19-2.12Z" style="fill: #fff; stroke-width: 0px;"/>
        <path d="m24.63,251.51c.08-.57.24-1.06.47-1.49.23-.43.53-.78.88-1.07s.75-.5,1.21-.64c.45-.14.94-.22,1.46-.22s1.03.08,1.47.23c.44.16.81.37,1.12.64s.55.6.71.97c.17.37.25.77.25,1.2,0,.38-.04.71-.13.99-.08.29-.21.53-.36.75-.16.21-.35.39-.59.54s-.5.27-.79.37c.71.22,1.23.56,1.58,1.02.35.46.52,1.03.52,1.72,0,.59-.11,1.11-.33,1.56-.22.45-.51.83-.88,1.14-.37.31-.8.54-1.28.7-.49.16-1,.24-1.54.24-.59,0-1.11-.07-1.55-.2-.44-.14-.82-.34-1.15-.6-.33-.27-.6-.59-.83-.98-.23-.39-.42-.83-.59-1.34l.89-.37c.23-.1.45-.12.66-.08.2.05.35.16.44.33.1.19.21.38.32.56.12.18.26.35.42.49.16.14.35.26.58.35.22.09.48.13.79.13.34,0,.64-.06.9-.17.26-.11.47-.26.64-.44.17-.18.3-.38.38-.6.08-.22.13-.44.13-.66,0-.28-.03-.54-.09-.77-.06-.23-.18-.43-.37-.59-.19-.16-.46-.29-.82-.38-.36-.09-.83-.14-1.43-.14v-1.43c.49,0,.9-.05,1.23-.14s.59-.21.78-.36c.19-.15.33-.34.4-.56.08-.22.11-.46.11-.72,0-.55-.15-.98-.46-1.26-.31-.29-.72-.43-1.24-.43-.24,0-.46.03-.66.1-.2.07-.38.16-.54.29-.16.12-.29.26-.4.43-.11.16-.19.34-.24.54-.09.25-.21.42-.36.5-.15.08-.36.1-.63.06l-1.06-.19Z" style="fill: #fff; stroke-width: 0px;"/>
        <path d="m36.71,253.17h.51c.21,0,.38-.03.51-.08.14-.06.25-.15.35-.27l3.25-4.12c.14-.17.28-.29.43-.36.15-.07.34-.1.57-.1h1.89l-3.97,4.9c-.23.3-.48.51-.73.64.18.07.34.16.49.27.14.12.28.27.41.46l4.09,5.52h-1.93c-.26,0-.46-.04-.58-.11-.13-.07-.24-.18-.32-.32l-3.33-4.35c-.1-.15-.22-.25-.36-.31s-.33-.09-.59-.09h-.69v5.18h-2.19v-11.79h2.19v4.94Z" style="fill: #fff; stroke-width: 0px;"/>
      </g>
      <g style="isolation: isolate;">
        <path d="m12.84,407.68c.22,0,.39.06.52.18.13.12.19.28.19.49v1.21H5.46v-.67c0-.14.03-.28.09-.43s.15-.28.27-.4l3.58-3.59c.3-.3.57-.59.8-.87s.43-.55.59-.82c.16-.27.28-.55.36-.83s.13-.58.13-.88c0-.28-.04-.53-.12-.75-.08-.21-.2-.4-.35-.54-.15-.15-.33-.26-.54-.33-.21-.07-.44-.11-.71-.11-.24,0-.46.03-.66.1s-.38.16-.54.29-.29.26-.4.43-.19.34-.24.54c-.09.25-.21.42-.36.5-.15.08-.36.1-.64.06l-1.06-.19c.08-.57.24-1.06.47-1.49.23-.43.53-.78.88-1.07.35-.29.75-.5,1.21-.64.45-.14.94-.22,1.46-.22s1.04.08,1.49.24.84.39,1.16.68c.32.29.57.65.75,1.06s.27.87.27,1.38c0,.44-.06.84-.19,1.21s-.3.72-.51,1.06c-.21.34-.47.66-.75.98-.29.31-.59.64-.9.96l-2.66,2.71c.25-.08.51-.13.76-.17.25-.04.49-.06.72-.06h3.02Z" style="fill: #fff; stroke-width: 0px;"/>
        <path d="m21.02,403.41c.72.23,1.25.59,1.59,1.07.34.48.51,1.07.51,1.76,0,.52-.1.99-.3,1.42-.2.42-.48.79-.84,1.08-.36.3-.79.53-1.29.69-.5.16-1.06.25-1.67.25s-1.16-.08-1.67-.25c-.5-.16-.93-.39-1.29-.69-.36-.3-.64-.66-.83-1.08-.2-.42-.3-.9-.3-1.42,0-.7.17-1.28.51-1.76.34-.48.87-.84,1.59-1.07-.57-.24-1-.58-1.28-1.02s-.43-.97-.43-1.59c0-.45.09-.86.27-1.25.18-.39.44-.72.76-1.01s.72-.51,1.17-.67c.45-.16.95-.24,1.5-.24s1.04.08,1.5.24.84.38,1.17.67.58.62.76,1.01c.18.39.27.8.27,1.25,0,.62-.14,1.15-.43,1.59s-.71.78-1.28,1.02Zm-1.99,4.7c.33,0,.62-.05.87-.14.25-.09.46-.23.63-.39.17-.17.3-.37.39-.6s.13-.49.13-.76c0-.65-.18-1.14-.54-1.47-.36-.33-.85-.5-1.48-.5s-1.12.17-1.48.5c-.36.33-.54.82-.54,1.47,0,.27.04.52.13.76s.22.43.39.6c.17.17.38.3.63.39.25.1.54.14.87.14Zm0-8.96c-.3,0-.56.05-.77.14-.22.09-.4.22-.54.37-.14.15-.25.33-.32.53-.07.2-.1.41-.1.64s.03.46.09.68c.06.22.15.42.29.59.14.17.32.31.54.41s.5.16.82.16.6-.05.82-.16c.22-.1.4-.24.54-.41.14-.17.23-.37.29-.59.06-.22.08-.45.08-.68s-.04-.44-.11-.64c-.07-.2-.18-.38-.32-.53-.14-.16-.32-.28-.54-.37-.22-.09-.48-.14-.77-.14Z" style="fill: #fff; stroke-width: 0px;"/>
        <path d="m32.66,397.77v.87c0,.26-.03.47-.08.63-.05.16-.11.29-.16.4l-4.47,9.2c-.09.19-.22.35-.39.48-.17.13-.39.2-.68.2h-1.46l4.56-9.01c.1-.18.21-.35.31-.51.1-.16.21-.3.34-.44h-5.64c-.12,0-.23-.05-.33-.14s-.14-.2-.14-.33v-1.36h8.14Z" style="fill: #fff; stroke-width: 0px;"/>
        <path d="m36.71,402.71h.51c.21,0,.38-.03.51-.08.14-.06.25-.15.35-.27l3.25-4.12c.14-.17.28-.29.43-.36.15-.07.34-.1.57-.1h1.89l-3.97,4.9c-.23.3-.48.51-.73.64.18.07.34.16.49.27.14.12.28.27.41.46l4.09,5.52h-1.93c-.26,0-.46-.04-.58-.11-.13-.07-.24-.18-.32-.32l-3.33-4.35c-.1-.15-.22-.25-.36-.31s-.33-.09-.59-.09h-.69v5.18h-2.19v-11.79h2.19v4.94Z" style="fill: #fff; stroke-width: 0px;"/>
      </g>
      <g style="isolation: isolate;">
        <path d="m380.06,401.05c.08-.57.24-1.06.47-1.49.23-.43.53-.78.88-1.07s.75-.5,1.21-.64c.45-.14.94-.22,1.46-.22s1.03.08,1.47.23c.44.16.81.37,1.12.64s.55.6.71.97c.17.37.25.77.25,1.2,0,.38-.04.71-.13.99-.08.29-.21.53-.36.75-.16.21-.35.39-.59.54s-.5.27-.79.37c.71.22,1.23.56,1.58,1.02.35.46.52,1.03.52,1.72,0,.59-.11,1.11-.33,1.56-.22.45-.51.83-.88,1.14-.37.31-.8.54-1.28.7-.49.16-1,.24-1.54.24-.59,0-1.11-.07-1.55-.2-.44-.14-.82-.34-1.15-.6-.33-.27-.6-.59-.83-.98-.23-.39-.42-.83-.59-1.34l.89-.37c.23-.1.45-.12.66-.08.2.05.35.16.44.33.1.19.21.38.32.56.12.18.26.35.42.49.16.14.35.26.58.35.22.09.48.13.79.13.34,0,.64-.06.9-.17.26-.11.47-.26.64-.44.17-.18.3-.38.38-.6.08-.22.13-.44.13-.66,0-.28-.03-.54-.09-.77-.06-.23-.18-.43-.37-.59-.19-.16-.46-.29-.82-.38-.36-.09-.83-.14-1.43-.14v-1.43c.49,0,.9-.05,1.23-.14s.59-.21.78-.36c.19-.15.33-.34.4-.56.08-.22.11-.46.11-.72,0-.55-.15-.98-.46-1.26-.31-.29-.72-.43-1.24-.43-.24,0-.46.03-.66.1-.2.07-.38.16-.54.29-.16.12-.29.26-.4.43-.11.16-.19.34-.24.54-.09.25-.21.42-.36.5-.15.08-.36.1-.63.06l-1.06-.19Z" style="fill: #fff; stroke-width: 0px;"/>
        <path d="m391.94,402.05c.26-.05.51-.09.75-.12s.47-.04.69-.04c.62,0,1.17.09,1.64.28.47.19.87.44,1.19.77.32.33.56.71.73,1.15s.24.91.24,1.41c0,.62-.11,1.2-.33,1.71s-.53.96-.92,1.32c-.39.37-.85.65-1.39.85s-1.12.3-1.75.3c-.37,0-.72-.04-1.05-.11-.33-.08-.64-.18-.93-.31-.29-.13-.56-.27-.81-.44-.25-.17-.47-.34-.66-.53l.62-.86c.13-.18.3-.28.51-.28.14,0,.27.04.42.13s.3.18.49.29c.18.1.4.2.64.29s.54.13.89.13c.37,0,.7-.06.98-.18.28-.12.52-.29.71-.5s.33-.47.42-.77.14-.62.14-.97c0-.64-.19-1.14-.56-1.5s-.92-.54-1.65-.54c-.56,0-1.13.1-1.72.31l-1.26-.36.98-5.72h5.82v.86c0,.29-.09.52-.27.7-.18.18-.48.27-.91.27h-3.24l-.42,2.45Z" style="fill: #fff; stroke-width: 0px;"/>
        <path d="m401.59,402.71h.51c.21,0,.38-.03.51-.08.14-.06.25-.15.35-.27l3.25-4.12c.14-.17.28-.29.43-.36.15-.07.34-.1.57-.1h1.89l-3.97,4.9c-.23.3-.48.51-.73.64.18.07.34.16.49.27.14.12.28.27.41.46l4.09,5.52h-1.93c-.26,0-.46-.04-.58-.11-.13-.07-.24-.18-.32-.32l-3.33-4.35c-.1-.15-.22-.25-.36-.31s-.33-.09-.59-.09h-.69v5.18h-2.19v-11.79h2.19v4.94Z" style="fill: #fff; stroke-width: 0px;"/>
      </g>
      <g style="isolation: isolate;">
        <path d="m387.17,319.52c.22,0,.39.06.52.18.13.12.19.28.19.49v1.21h-8.09v-.67c0-.14.03-.28.09-.43s.15-.28.27-.4l3.58-3.59c.3-.3.57-.59.8-.87s.43-.55.59-.82c.16-.27.28-.55.36-.83s.13-.58.13-.88c0-.28-.04-.53-.12-.75-.08-.21-.2-.4-.35-.54-.15-.15-.33-.26-.54-.33-.21-.07-.44-.11-.71-.11-.24,0-.46.03-.66.1s-.38.16-.54.29-.29.26-.4.43-.19.34-.24.54c-.09.25-.21.42-.36.5-.15.08-.36.1-.64.06l-1.06-.19c.08-.57.24-1.06.47-1.49.23-.43.53-.78.88-1.07.35-.29.75-.5,1.21-.64.45-.14.94-.22,1.46-.22s1.04.08,1.49.24.84.39,1.16.68c.32.29.57.65.75,1.06s.27.87.27,1.38c0,.44-.06.84-.19,1.21s-.3.72-.51,1.06c-.21.34-.47.66-.75.98-.29.31-.59.64-.9.96l-2.66,2.71c.25-.08.51-.13.76-.17.25-.04.49-.06.72-.06h3.02Z" style="fill: #1a1a1a; stroke-width: 0px;"/>
        <path d="m396.63,319.52c.22,0,.39.06.52.18.13.12.19.28.19.49v1.21h-8.09v-.67c0-.14.03-.28.09-.43s.15-.28.27-.4l3.58-3.59c.3-.3.57-.59.8-.87s.43-.55.59-.82c.16-.27.28-.55.36-.83s.13-.58.13-.88c0-.28-.04-.53-.12-.75-.08-.21-.2-.4-.35-.54-.15-.15-.33-.26-.54-.33-.21-.07-.44-.11-.71-.11-.24,0-.46.03-.66.1s-.38.16-.54.29-.29.26-.4.43-.19.34-.24.54c-.09.25-.21.42-.36.5-.15.08-.36.1-.64.06l-1.06-.19c.08-.57.24-1.06.47-1.49.23-.43.53-.78.88-1.07.35-.29.75-.5,1.21-.64.45-.14.94-.22,1.46-.22s1.04.08,1.49.24.84.39,1.16.68c.32.29.57.65.75,1.06s.27.87.27,1.38c0,.44-.06.84-.19,1.21s-.3.72-.51,1.06c-.21.34-.47.66-.75.98-.29.31-.59.64-.9.96l-2.66,2.71c.25-.08.51-.13.76-.17.25-.04.49-.06.72-.06h3.02Z" style="fill: #1a1a1a; stroke-width: 0px;"/>
        <path d="m404.8,315.25c.72.23,1.25.59,1.59,1.07.34.48.51,1.07.51,1.76,0,.52-.1.99-.3,1.42-.2.42-.48.79-.84,1.08-.36.3-.79.53-1.29.69-.5.16-1.06.25-1.67.25s-1.16-.08-1.67-.25c-.5-.16-.93-.39-1.29-.69-.36-.3-.64-.66-.83-1.08-.2-.42-.3-.9-.3-1.42,0-.7.17-1.28.51-1.76.34-.48.87-.84,1.59-1.07-.57-.24-1-.58-1.28-1.02s-.43-.97-.43-1.59c0-.45.09-.86.27-1.25.18-.39.44-.72.76-1.01s.72-.51,1.17-.67c.45-.16.95-.24,1.5-.24s1.04.08,1.5.24.84.38,1.17.67.58.62.76,1.01c.18.39.27.8.27,1.25,0,.62-.14,1.15-.43,1.59s-.71.78-1.28,1.02Zm-1.99,4.7c.33,0,.62-.05.87-.14.25-.09.46-.23.63-.39.17-.17.3-.37.39-.6s.13-.49.13-.76c0-.65-.18-1.14-.54-1.47-.36-.33-.85-.5-1.48-.5s-1.12.17-1.48.5c-.36.33-.54.82-.54,1.47,0,.27.04.52.13.76s.22.43.39.6c.17.17.38.3.63.39.25.1.54.14.87.14Zm0-8.96c-.3,0-.56.05-.77.14-.22.09-.4.22-.54.37-.14.15-.25.33-.32.53-.07.2-.1.41-.1.64s.03.46.09.68c.06.22.15.42.29.59.14.17.32.31.54.41s.5.16.82.16.6-.05.82-.16c.22-.1.4-.24.54-.41.14-.17.23-.37.29-.59.06-.22.08-.45.08-.68s-.04-.44-.11-.64c-.07-.2-.18-.38-.32-.53-.14-.16-.32-.28-.54-.37-.22-.09-.48-.14-.77-.14Z" style="fill: #1a1a1a; stroke-width: 0px;"/>
        <path d="m411.05,314.55h.51c.21,0,.38-.03.51-.08.14-.06.25-.15.35-.27l3.25-4.12c.14-.17.28-.29.43-.36.15-.07.34-.1.57-.1h1.89l-3.97,4.9c-.23.3-.48.51-.73.64.18.07.34.16.49.27.14.12.28.27.41.46l4.09,5.52h-1.93c-.26,0-.46-.04-.58-.11-.13-.07-.24-.18-.32-.32l-3.33-4.35c-.1-.15-.22-.25-.36-.31s-.33-.09-.59-.09h-.69v5.18h-2.19v-11.79h2.19v4.94Z" style="fill: #1a1a1a; stroke-width: 0px;"/>
      </g>
      <g style="isolation: isolate;">
        <path d="m387.17,344.28c.22,0,.39.06.52.18.13.12.19.28.19.49v1.21h-8.09v-.67c0-.14.03-.28.09-.43s.15-.28.27-.4l3.58-3.59c.3-.3.57-.59.8-.87s.43-.55.59-.82c.16-.27.28-.55.36-.83s.13-.58.13-.88c0-.28-.04-.53-.12-.75-.08-.21-.2-.4-.35-.54-.15-.15-.33-.26-.54-.33-.21-.07-.44-.11-.71-.11-.24,0-.46.03-.66.1s-.38.16-.54.29-.29.26-.4.43-.19.34-.24.54c-.09.25-.21.42-.36.5-.15.08-.36.1-.64.06l-1.06-.19c.08-.57.24-1.06.47-1.49.23-.43.53-.78.88-1.07.35-.29.75-.5,1.21-.64.45-.14.94-.22,1.46-.22s1.04.08,1.49.24.84.39,1.16.68c.32.29.57.65.75,1.06s.27.87.27,1.38c0,.44-.06.84-.19,1.21s-.3.72-.51,1.06c-.21.34-.47.66-.75.98-.29.31-.59.64-.9.96l-2.66,2.71c.25-.08.51-.13.76-.17.25-.04.49-.06.72-.06h3.02Z" style="fill: #fff; stroke-width: 0px;"/>
        <path d="m397.07,344.64v1.51h-6.52v-1.51h2.39v-6.87c0-.27,0-.55.02-.84l-1.7,1.42c-.1.08-.19.12-.29.14-.1.02-.18.02-.27,0-.08-.02-.16-.04-.22-.09-.07-.04-.11-.08-.15-.13l-.64-.87,3.6-3.06h1.65v10.3h2.12Z" style="fill: #fff; stroke-width: 0px;"/>
        <path d="m401.59,339.3h.51c.21,0,.38-.03.51-.08.14-.06.25-.15.35-.27l3.25-4.12c.14-.17.28-.29.43-.36.15-.07.34-.1.57-.1h1.89l-3.97,4.9c-.23.3-.48.51-.73.64.18.07.34.16.49.27.14.12.28.27.41.46l4.09,5.52h-1.93c-.26,0-.46-.04-.58-.11-.13-.07-.24-.18-.32-.32l-3.33-4.35c-.1-.15-.22-.25-.36-.31s-.33-.09-.59-.09h-.69v5.18h-2.19v-11.79h2.19v4.94Z" style="fill: #fff; stroke-width: 0px;"/>
      </g>
      <rect x="483.65" y="350" width="55.35" height="63.42" style="fill: none; stroke: #fff; stroke-linejoin: round; stroke-width: .75px;"/>
      <rect x="1" y="54" width="374.32" height="209.86" style="fill: none; stroke: #fff; stroke-linejoin: round; stroke-width: .75px;"/>
      <rect x="1" y="263.86" width="374.32" height="149.55" style="fill: none; stroke: #fff; stroke-linejoin: round; stroke-width: .75px;"/>
      <rect x="375.32" y="350" width="108.32" height="63.42" style="fill: none; stroke: #fff; stroke-linejoin: round; stroke-width: .75px;"/>
      <rect x="375.32" y="54" width="163.68" height="296" style="fill: none; stroke: #fff; stroke-linejoin: round; stroke-width: .75px;"/>
      <g style="isolation: isolate;">
        <path d="m500.42,370.06c.12,0,.22.05.3.14l.84.9c-.64.74-1.41,1.32-2.32,1.73-.91.41-2.01.62-3.3.62-1.12,0-2.13-.19-3.04-.58s-1.69-.93-2.34-1.63c-.65-.7-1.15-1.54-1.5-2.52-.36-.98-.53-2.05-.53-3.23s.19-2.25.55-3.23c.37-.98.89-1.82,1.56-2.52.67-.7,1.47-1.25,2.41-1.64s1.97-.58,3.1-.58,2.09.18,2.93.53c.85.35,1.59.84,2.24,1.45l-.7.97c-.04.07-.1.13-.17.18-.07.05-.16.07-.28.07-.13,0-.29-.07-.48-.21-.19-.14-.43-.3-.74-.47-.3-.17-.69-.33-1.14-.47s-1.02-.21-1.68-.21c-.8,0-1.54.14-2.21.42-.67.28-1.24.68-1.72,1.21-.48.53-.86,1.17-1.12,1.94-.27.76-.4,1.62-.4,2.58s.14,1.84.42,2.6c.28.76.66,1.4,1.14,1.93s1.05.93,1.71,1.2c.66.28,1.36.41,2.12.41.46,0,.88-.03,1.26-.08.37-.05.72-.14,1.03-.26.32-.12.61-.26.88-.44.27-.18.54-.39.81-.64.12-.11.25-.16.37-.16Z" style="fill: #fff; stroke-width: 0px;"/>
        <path d="m516.67,373.28h-1.63c-.19,0-.34-.05-.46-.14-.12-.09-.2-.21-.26-.36l-1.46-3.76h-6.99l-1.46,3.76c-.04.13-.13.25-.25.35-.12.1-.28.15-.46.15h-1.63l6.23-15.58h2.13l6.23,15.58Zm-4.39-5.78l-2.45-6.34c-.07-.19-.15-.41-.23-.66-.08-.25-.16-.52-.23-.8-.15.59-.31,1.08-.47,1.47l-2.45,6.33h5.81Z" style="fill: #fff; stroke-width: 0px;"/>
        <path d="m530.23,373.28h-1.87c-.38,0-.67-.15-.85-.45l-4.04-5.57c-.12-.17-.25-.3-.4-.38s-.36-.11-.66-.11h-1.6v6.5h-2.1v-15.58h4.4c.99,0,1.84.1,2.55.3.72.2,1.31.49,1.78.86.47.38.81.83,1.04,1.36s.34,1.13.34,1.79c0,.55-.09,1.06-.26,1.54s-.43.91-.75,1.29c-.33.38-.73.71-1.21.97-.47.27-1.01.47-1.61.61.27.15.5.37.7.66l4.54,6.18Zm-7.2-8.03c.61,0,1.15-.07,1.61-.22.47-.15.86-.36,1.17-.63.32-.27.55-.6.71-.97.16-.38.24-.79.24-1.25,0-.93-.3-1.63-.91-2.1-.61-.47-1.52-.71-2.74-.71h-2.3v5.88h2.22Z" style="fill: #fff; stroke-width: 0px;"/>
      </g>
      <g style="isolation: isolate;">
        <path d="m17.77,74.07c.12,0,.22.05.3.14l.84.9c-.64.74-1.41,1.32-2.32,1.73-.91.41-2.01.62-3.3.62-1.12,0-2.13-.19-3.04-.58-.91-.39-1.69-.93-2.34-1.63-.65-.7-1.15-1.54-1.5-2.52-.36-.98-.53-2.05-.53-3.23s.19-2.25.55-3.23c.37-.98.89-1.82,1.56-2.52.67-.7,1.47-1.25,2.41-1.64.93-.39,1.97-.58,3.1-.58s2.09.18,2.93.53c.85.36,1.59.84,2.24,1.45l-.7.97c-.04.07-.1.13-.17.18-.07.05-.16.07-.28.07-.13,0-.29-.07-.48-.21-.19-.14-.43-.3-.74-.47-.3-.17-.69-.33-1.14-.47-.46-.14-1.02-.21-1.68-.21-.8,0-1.54.14-2.21.42-.67.28-1.24.68-1.72,1.21-.48.53-.86,1.17-1.12,1.93-.27.76-.4,1.62-.4,2.58s.14,1.84.42,2.6c.28.76.66,1.4,1.14,1.93.48.53,1.05.93,1.71,1.2.66.28,1.36.41,2.12.41.46,0,.88-.03,1.26-.08.37-.05.72-.14,1.03-.26s.61-.26.88-.44c.27-.18.54-.39.81-.64.12-.11.25-.16.37-.16Z" style="fill: #fff; stroke-width: 0px;"/>
        <path d="m22.84,67.74c.47-.5.99-.9,1.57-1.2.57-.3,1.23-.45,1.98-.45.6,0,1.13.1,1.59.3s.84.48,1.15.85c.31.37.54.81.7,1.32.16.51.24,1.08.24,1.71v7.01h-1.95v-7.01c0-.83-.19-1.48-.57-1.94-.38-.46-.96-.69-1.73-.69-.57,0-1.11.14-1.6.41s-.95.65-1.38,1.12v8.11h-1.95v-16.01h1.95v6.47Z" style="fill: #fff; stroke-width: 0px;"/>
        <path d="m32.74,67.83c.61-.59,1.26-1.03,1.97-1.32.7-.29,1.48-.43,2.34-.43.62,0,1.16.1,1.64.3.48.2.88.49,1.21.85.33.36.57.8.74,1.32s.25,1.08.25,1.7v7.04h-.86c-.19,0-.33-.03-.43-.09-.1-.06-.18-.18-.24-.36l-.22-1.04c-.29.27-.57.51-.85.71s-.57.38-.87.52c-.3.14-.63.25-.97.33-.34.08-.73.11-1.15.11s-.83-.06-1.21-.18-.71-.3-.98-.54c-.28-.24-.5-.54-.66-.91-.16-.37-.25-.8-.25-1.3,0-.43.12-.85.36-1.25.24-.4.63-.76,1.16-1.07.54-.31,1.23-.57,2.1-.77.86-.2,1.92-.31,3.17-.34v-.86c0-.85-.18-1.5-.55-1.94-.37-.44-.91-.66-1.62-.66-.48,0-.88.06-1.2.18-.32.12-.6.25-.84.4-.24.15-.44.28-.61.4-.17.12-.34.18-.5.18-.13,0-.24-.03-.34-.1-.09-.07-.17-.15-.24-.26l-.35-.62Zm6.25,4.5c-.89.03-1.65.1-2.28.21-.63.11-1.14.26-1.53.44-.39.18-.68.4-.86.64-.18.25-.27.52-.27.83s.05.54.14.75c.09.21.22.38.39.52.16.13.36.23.58.29s.46.09.71.09c.34,0,.65-.03.93-.1.28-.07.55-.17.8-.3s.49-.29.72-.47.45-.39.67-.62v-2.28Z" style="fill: #fff; stroke-width: 0px;"/>
        <path d="m52.94,61.28v16.01h-1.15c-.28,0-.45-.13-.52-.4l-.17-1.34c-.47.56-1.01,1.02-1.61,1.37-.6.35-1.3.52-2.09.52-.63,0-1.2-.12-1.72-.36s-.95-.6-1.31-1.07c-.36-.47-.64-1.06-.84-1.76-.2-.7-.29-1.51-.29-2.42,0-.81.11-1.57.33-2.27s.53-1.31.93-1.82c.41-.51.9-.92,1.49-1.21.59-.29,1.26-.44,2-.44.67,0,1.25.11,1.73.34.48.23.91.55,1.29.95v-6.1h1.93Zm-1.93,7.62c-.36-.49-.75-.82-1.17-1.02-.42-.19-.89-.29-1.41-.29-1.02,0-1.81.37-2.36,1.1s-.83,1.78-.83,3.13c0,.72.06,1.33.18,1.84.12.51.3.93.54,1.26s.53.57.88.72.74.23,1.18.23c.64,0,1.19-.14,1.67-.43.47-.29.91-.7,1.31-1.23v-5.31Z" style="fill: #fff; stroke-width: 0px;"/>
      </g>
      <g style="isolation: isolate;">
        <path d="m16.44,285.43v1.72H6.83v-15.58h9.6v1.72h-7.49v5.17h6.06v1.65h-6.06v5.32h7.5Z" style="fill: #fff; stroke-width: 0px;"/>
        <path d="m27.91,276.57v.72c0,.24-.15.39-.46.46l-1.25.16c.25.48.37,1.01.37,1.59,0,.54-.1,1.02-.31,1.46-.21.44-.49.81-.85,1.12s-.8.55-1.3.72c-.51.17-1.06.25-1.65.25-.51,0-1-.06-1.46-.18-.23.14-.41.3-.53.46s-.18.33-.18.49c0,.26.11.46.32.59s.5.23.84.29.74.09,1.19.11c.45.01.9.04,1.37.07.47.03.92.09,1.37.17.45.08.84.21,1.19.39.35.18.63.43.84.75.21.32.32.73.32,1.24,0,.47-.12.93-.35,1.37-.24.44-.57.83-1.02,1.18-.44.34-.98.62-1.62.83-.64.21-1.36.31-2.17.31s-1.51-.08-2.11-.24c-.6-.16-1.1-.37-1.5-.64-.4-.27-.7-.58-.9-.93s-.3-.72-.3-1.1c0-.54.17-1,.51-1.38s.81-.68,1.4-.9c-.33-.14-.58-.34-.78-.58s-.29-.57-.29-.98c0-.16.03-.32.09-.5.06-.17.15-.34.27-.51.12-.17.27-.33.44-.48s.38-.29.61-.4c-.54-.3-.97-.71-1.27-1.21-.3-.5-.46-1.09-.46-1.75,0-.54.1-1.02.31-1.46.21-.44.5-.81.86-1.12.37-.31.81-.55,1.32-.71.51-.17,1.07-.25,1.68-.25.48,0,.92.05,1.34.16s.79.26,1.13.46h2.99Zm-1.97,11.17c0-.27-.08-.49-.23-.65-.15-.17-.36-.3-.61-.39-.26-.09-.56-.16-.9-.2s-.7-.07-1.08-.09c-.38-.02-.77-.04-1.16-.07-.39-.02-.77-.06-1.13-.11-.41.19-.74.43-1,.71-.26.29-.39.62-.39,1.01,0,.25.06.48.19.69s.32.4.58.55c.26.16.59.28.98.37.39.09.86.14,1.4.14s.99-.05,1.4-.14c.41-.09.76-.23,1.05-.4.29-.17.5-.38.66-.62.15-.24.23-.5.23-.79Zm-3.49-5.98c.39,0,.74-.05,1.03-.16s.55-.26.75-.46c.2-.2.36-.43.46-.7.1-.27.15-.57.15-.9,0-.67-.2-1.21-.61-1.61-.41-.4-1-.6-1.78-.6s-1.38.2-1.79.6-.61.93-.61,1.61c0,.33.05.62.16.9.1.27.26.5.46.7.2.2.45.35.75.46.3.11.64.16,1.03.16Z" style="fill: #fff; stroke-width: 0px;"/>
        <path d="m39.42,276.14l-6.14,14.26c-.06.14-.15.26-.24.35s-.25.13-.45.13h-1.43l2.01-4.37-4.54-10.37h1.67c.17,0,.3.04.4.12s.17.18.2.28l2.95,6.93c.12.3.21.62.29.96.1-.34.21-.66.33-.97l2.86-6.92c.04-.12.12-.21.22-.29.1-.08.22-.11.35-.11h1.53Z" style="fill: #fff; stroke-width: 0px;"/>
        <path d="m42.97,277.84c.46-.57,1-1.03,1.61-1.38.61-.35,1.3-.52,2.09-.52.64,0,1.21.12,1.73.36.51.24.95.6,1.32,1.08.36.47.64,1.06.84,1.77.2.7.29,1.51.29,2.42,0,.81-.11,1.57-.33,2.27-.22.7-.53,1.3-.94,1.82-.41.51-.91.91-1.5,1.21-.59.29-1.26.44-2,.44-.67,0-1.25-.11-1.73-.34-.48-.23-.91-.54-1.28-.95v4.87h-1.95v-14.74h1.16c.28,0,.45.13.51.4l.17,1.3Zm.1,6.65c.36.48.74.82,1.16,1.01.42.2.89.29,1.41.29,1.03,0,1.82-.37,2.37-1.1s.83-1.78.83-3.13c0-.72-.06-1.33-.19-1.85-.13-.51-.31-.94-.55-1.27-.24-.33-.53-.57-.88-.72s-.74-.23-1.18-.23c-.63,0-1.18.15-1.66.43-.47.29-.91.7-1.31,1.23v5.33Z" style="fill: #fff; stroke-width: 0px;"/>
        <path d="m56.55,287.32c-.87,0-1.54-.24-2.01-.73-.47-.49-.7-1.18-.7-2.1v-6.74h-1.33c-.12,0-.21-.03-.29-.1-.08-.07-.12-.17-.12-.32v-.77l1.8-.23.45-3.4c.02-.11.07-.2.15-.27.08-.07.17-.1.3-.1h.98v3.79h3.18v1.4h-3.18v6.61c0,.46.11.81.34,1.03s.51.34.87.34c.2,0,.38-.03.53-.08.15-.05.28-.11.39-.18.11-.07.2-.12.28-.18.08-.05.14-.08.2-.08.1,0,.19.06.27.18l.56.92c-.33.31-.74.56-1.21.73-.47.18-.96.27-1.46.27Z" style="fill: #fff; stroke-width: 0px;"/>
      </g>
      <g style="isolation: isolate;">
        <path d="m390.77,371.56v1.72h-9.61v-15.58h9.6v1.72h-7.49v5.17h6.06v1.65h-6.06v5.32h7.5Z" style="fill: #fff; stroke-width: 0px;"/>
        <path d="m396.16,373.46c-.87,0-1.54-.24-2.01-.73-.47-.49-.7-1.18-.7-2.1v-6.74h-1.33c-.12,0-.21-.03-.29-.1-.08-.07-.12-.17-.12-.32v-.77l1.8-.23.45-3.4c.02-.11.07-.2.15-.27.08-.07.17-.1.3-.1h.98v3.79h3.18v1.4h-3.18v6.61c0,.46.11.81.34,1.03s.51.34.87.34c.2,0,.38-.03.53-.08.15-.05.28-.11.39-.18.11-.07.2-.12.28-.18.08-.05.14-.08.2-.08.1,0,.19.06.27.18l.56.92c-.33.31-.74.56-1.21.73-.47.18-.96.27-1.46.27Z" style="fill: #fff; stroke-width: 0px;"/>
        <path d="m402.52,363.74c.47-.5.99-.9,1.57-1.2s1.23-.45,1.98-.45c.6,0,1.13.1,1.59.3s.84.48,1.15.85c.31.37.54.81.7,1.32.16.51.24,1.08.24,1.71v7.01h-1.95v-7.01c0-.83-.19-1.48-.57-1.94-.38-.46-.96-.69-1.73-.69-.57,0-1.11.14-1.6.41s-.95.65-1.38,1.12v8.11h-1.95v-16.01h1.95v6.47Z" style="fill: #fff; stroke-width: 0px;"/>
        <path d="m415.16,358.82c0,.19-.04.36-.11.53s-.18.31-.3.44c-.13.13-.28.23-.45.3-.17.07-.35.11-.54.11s-.36-.04-.53-.11-.31-.17-.43-.3c-.12-.13-.22-.27-.29-.44s-.11-.34-.11-.53.04-.37.11-.54c.07-.17.17-.32.29-.45.12-.13.27-.23.43-.3.16-.07.34-.11.53-.11s.37.04.54.11c.17.07.32.17.45.3.13.13.23.28.3.45.08.17.11.35.11.54Zm-.41,3.46v11.01h-1.93v-11.01h1.93Z" style="fill: #fff; stroke-width: 0px;"/>
        <path d="m422.56,362.1c.8,0,1.53.13,2.17.4.65.27,1.2.65,1.65,1.14.46.49.81,1.09,1.05,1.79s.36,1.48.36,2.34-.12,1.65-.36,2.35c-.24.7-.59,1.29-1.05,1.78-.46.49-1.01.87-1.65,1.14-.64.26-1.37.4-2.17.4s-1.54-.13-2.19-.4c-.65-.26-1.2-.64-1.66-1.14-.46-.49-.81-1.09-1.05-1.78-.24-.7-.36-1.48-.36-2.35s.12-1.64.36-2.34c.24-.7.59-1.29,1.05-1.79.46-.49,1.01-.87,1.66-1.14.65-.27,1.38-.4,2.19-.4Zm0,9.83c1.09,0,1.9-.36,2.43-1.09.54-.73.8-1.74.8-3.05s-.27-2.33-.8-3.06c-.54-.73-1.35-1.1-2.43-1.1-.55,0-1.03.09-1.44.28s-.75.46-1.02.82c-.27.36-.47.79-.61,1.31-.13.52-.2,1.1-.2,1.75,0,1.3.27,2.32.81,3.05.54.73,1.36,1.09,2.46,1.09Z" style="fill: #fff; stroke-width: 0px;"/>
        <path d="m432.09,363.98c.46-.57,1-1.03,1.61-1.38.61-.35,1.3-.52,2.09-.52.64,0,1.21.12,1.73.36.51.24.95.6,1.32,1.08.36.47.64,1.06.84,1.77.2.7.29,1.51.29,2.42,0,.81-.11,1.57-.33,2.27-.22.7-.53,1.3-.94,1.82-.41.51-.91.91-1.5,1.21-.59.29-1.26.44-2,.44-.67,0-1.25-.11-1.73-.34-.48-.23-.91-.54-1.28-.95v4.87h-1.95v-14.74h1.16c.28,0,.45.13.51.4l.17,1.3Zm.1,6.65c.36.48.74.82,1.16,1.01.42.2.89.29,1.41.29,1.03,0,1.82-.37,2.37-1.1s.83-1.78.83-3.13c0-.72-.06-1.33-.19-1.85-.13-.51-.31-.94-.55-1.27-.24-.33-.53-.57-.88-.72s-.74-.23-1.18-.23c-.63,0-1.18.15-1.66.43-.47.29-.91.7-1.31,1.23v5.33Z" style="fill: #fff; stroke-width: 0px;"/>
        <path d="m444.89,358.82c0,.19-.04.36-.11.53s-.18.31-.3.44c-.13.13-.28.23-.45.3-.17.07-.35.11-.54.11s-.36-.04-.53-.11-.31-.17-.43-.3c-.12-.13-.22-.27-.29-.44s-.11-.34-.11-.53.04-.37.11-.54c.07-.17.17-.32.29-.45.12-.13.27-.23.43-.3.16-.07.34-.11.53-.11s.37.04.54.11c.17.07.32.17.45.3.13.13.23.28.3.45.08.17.11.35.11.54Zm-.41,3.46v11.01h-1.93v-11.01h1.93Z" style="fill: #fff; stroke-width: 0px;"/>
        <path d="m447.37,363.83c.61-.59,1.26-1.03,1.97-1.31.7-.29,1.48-.44,2.34-.44.62,0,1.16.1,1.64.3.48.2.88.49,1.21.85s.57.8.74,1.32.25,1.08.25,1.7v7.04h-.86c-.19,0-.33-.03-.43-.09-.1-.06-.18-.18-.24-.36l-.22-1.04c-.29.27-.57.51-.85.71-.28.21-.57.38-.87.52-.3.14-.63.25-.97.33-.34.08-.73.11-1.15.11s-.83-.06-1.21-.18c-.38-.12-.71-.3-.98-.54-.28-.24-.5-.54-.66-.91-.16-.37-.25-.8-.25-1.3,0-.43.12-.85.36-1.25s.63-.76,1.16-1.07c.54-.31,1.23-.57,2.1-.77.86-.2,1.92-.31,3.17-.34v-.86c0-.85-.18-1.5-.55-1.94-.37-.44-.91-.66-1.62-.66-.48,0-.88.06-1.2.18-.32.12-.6.25-.84.4-.24.15-.44.28-.61.4-.17.12-.34.18-.5.18-.13,0-.24-.03-.34-.1-.09-.07-.17-.15-.24-.25l-.35-.62Zm6.25,4.5c-.89.03-1.65.1-2.28.21-.63.11-1.14.26-1.53.44-.39.18-.68.39-.86.64-.18.25-.27.52-.27.83s.05.54.14.75c.09.21.22.38.39.52s.36.23.58.29.46.09.71.09c.34,0,.65-.03.93-.1.28-.07.55-.17.8-.3.25-.13.49-.29.72-.47.23-.18.45-.39.67-.62v-2.28Z" style="fill: #fff; stroke-width: 0px;"/>
      </g>
      <g style="isolation: isolate;">
        <path d="m389.13,64.15c-.07.11-.14.19-.21.24-.08.05-.17.08-.28.08-.12,0-.27-.06-.43-.19-.17-.12-.38-.26-.62-.41-.25-.15-.55-.28-.9-.41s-.78-.19-1.28-.19c-.47,0-.89.06-1.24.19s-.66.3-.9.52-.43.47-.55.77-.18.61-.18.95c0,.43.11.8.32,1.08s.5.53.85.73c.35.2.75.38,1.2.53.45.15.9.3,1.37.46.47.16.92.34,1.37.54.45.2.84.45,1.2.76s.63.68.85,1.12c.21.44.32.99.32,1.63,0,.68-.12,1.32-.35,1.92-.23.6-.57,1.12-1.02,1.56-.45.44-.99.79-1.64,1.04-.65.25-1.39.38-2.21.38-1.01,0-1.93-.18-2.76-.55-.83-.37-1.53-.86-2.12-1.48l.61-1c.06-.08.13-.15.21-.2.08-.05.18-.08.28-.08.09,0,.2.04.32.11s.25.17.41.29.33.24.52.38c.2.14.42.26.67.38s.53.21.85.29c.32.08.68.11,1.08.11.5,0,.95-.07,1.34-.21.39-.14.72-.33,1-.58s.48-.55.62-.9c.14-.35.22-.74.22-1.16,0-.47-.11-.86-.32-1.16s-.49-.55-.84-.76c-.35-.2-.75-.38-1.2-.52-.45-.14-.91-.29-1.37-.44-.46-.15-.92-.32-1.37-.52-.45-.2-.85-.45-1.2-.76s-.63-.7-.84-1.17-.32-1.04-.32-1.73c0-.55.11-1.08.32-1.6.21-.51.53-.97.93-1.37s.91-.72,1.51-.96,1.28-.36,2.06-.36c.87,0,1.66.14,2.38.41.71.28,1.34.67,1.89,1.2l-.51,1Z" style="fill: #1a1a1a; stroke-width: 0px;"/>
        <path d="m397.08,66.1c.8,0,1.53.13,2.17.4.65.27,1.2.65,1.65,1.14.46.49.81,1.09,1.05,1.79s.36,1.48.36,2.34-.12,1.65-.36,2.35c-.24.7-.59,1.29-1.05,1.78-.46.49-1.01.87-1.65,1.14-.64.26-1.37.4-2.17.4s-1.54-.13-2.19-.4c-.65-.26-1.2-.64-1.66-1.14-.46-.49-.81-1.09-1.05-1.78-.24-.7-.36-1.48-.36-2.35s.12-1.64.36-2.34c.24-.7.59-1.29,1.05-1.79.46-.49,1.01-.87,1.66-1.14s1.38-.4,2.19-.4Zm0,9.83c1.09,0,1.9-.36,2.43-1.09.54-.73.8-1.74.8-3.05s-.27-2.33-.8-3.06c-.54-.73-1.35-1.1-2.43-1.1-.55,0-1.03.09-1.44.28-.41.19-.75.46-1.02.82-.27.35-.47.79-.61,1.31-.13.52-.2,1.1-.2,1.76,0,1.3.27,2.32.81,3.05.54.73,1.36,1.09,2.46,1.09Z" style="fill: #1a1a1a; stroke-width: 0px;"/>
        <path d="m413.81,66.28v11.01h-1.15c-.28,0-.45-.13-.52-.4l-.15-1.18c-.48.53-1.01.95-1.61,1.28-.59.32-1.28.48-2.04.48-.6,0-1.13-.1-1.59-.3s-.85-.48-1.16-.84-.54-.8-.7-1.31c-.16-.51-.23-1.08-.23-1.71v-7.02h1.93v7.02c0,.83.19,1.48.57,1.93.38.46.96.68,1.75.68.57,0,1.11-.14,1.6-.41.5-.27.96-.65,1.38-1.12v-8.11h1.93Z" style="fill: #1a1a1a; stroke-width: 0px;"/>
        <path d="m420.26,77.46c-.87,0-1.54-.24-2.01-.73-.47-.49-.7-1.18-.7-2.1v-6.74h-1.33c-.12,0-.21-.03-.29-.1s-.12-.18-.12-.32v-.77l1.8-.23.45-3.4c.02-.11.07-.2.15-.27s.17-.1.3-.1h.98v3.79h3.18v1.4h-3.18v6.61c0,.46.11.81.34,1.03.22.22.51.34.87.34.2,0,.38-.03.53-.08.15-.05.28-.11.39-.18.11-.06.2-.12.28-.18.08-.05.14-.08.2-.08.1,0,.19.06.27.18l.56.92c-.33.31-.74.56-1.21.73-.47.18-.96.27-1.46.27Z" style="fill: #1a1a1a; stroke-width: 0px;"/>
        <path d="m426.62,67.74c.47-.5.99-.9,1.57-1.2.57-.3,1.23-.45,1.98-.45.6,0,1.13.1,1.59.3s.84.48,1.15.85c.31.37.54.81.7,1.32.16.51.24,1.08.24,1.71v7.01h-1.95v-7.01c0-.83-.19-1.48-.57-1.94-.38-.46-.96-.69-1.73-.69-.57,0-1.11.14-1.6.41s-.95.65-1.38,1.12v8.11h-1.95v-16.01h1.95v6.47Z" style="fill: #1a1a1a; stroke-width: 0px;"/>
        <path d="m450.79,64.15c-.07.11-.14.19-.21.24-.08.05-.17.08-.28.08-.12,0-.27-.06-.43-.19-.17-.12-.38-.26-.62-.41-.25-.15-.55-.28-.9-.41s-.78-.19-1.28-.19c-.47,0-.89.06-1.24.19s-.66.3-.9.52-.43.47-.55.77-.18.61-.18.95c0,.43.11.8.32,1.08s.5.53.85.73c.35.2.75.38,1.2.53.45.15.9.3,1.37.46.47.16.92.34,1.37.54.45.2.84.45,1.2.76s.63.68.85,1.12c.21.44.32.99.32,1.63,0,.68-.12,1.32-.35,1.92-.23.6-.57,1.12-1.02,1.56-.45.44-.99.79-1.64,1.04-.65.25-1.39.38-2.21.38-1.01,0-1.93-.18-2.76-.55-.83-.37-1.53-.86-2.12-1.48l.61-1c.06-.08.13-.15.21-.2.08-.05.18-.08.28-.08.09,0,.2.04.32.11s.25.17.41.29.33.24.52.38c.2.14.42.26.67.38s.53.21.85.29c.32.08.68.11,1.08.11.5,0,.95-.07,1.34-.21.39-.14.72-.33,1-.58s.48-.55.62-.9c.14-.35.22-.74.22-1.16,0-.47-.11-.86-.32-1.16s-.49-.55-.84-.76c-.35-.2-.75-.38-1.2-.52-.45-.14-.91-.29-1.37-.44-.46-.15-.92-.32-1.37-.52-.45-.2-.85-.45-1.2-.76s-.63-.7-.84-1.17-.32-1.04-.32-1.73c0-.55.11-1.08.32-1.6.21-.51.53-.97.93-1.37s.91-.72,1.51-.96,1.28-.36,2.06-.36c.87,0,1.66.14,2.38.41.71.28,1.34.67,1.89,1.2l-.51,1Z" style="fill: #1a1a1a; stroke-width: 0px;"/>
        <path d="m462.99,66.28v11.01h-1.15c-.28,0-.45-.13-.52-.4l-.15-1.18c-.48.53-1.01.95-1.61,1.28-.59.32-1.28.48-2.04.48-.6,0-1.13-.1-1.59-.3s-.85-.48-1.16-.84-.54-.8-.7-1.31c-.16-.51-.23-1.08-.23-1.71v-7.02h1.93v7.02c0,.83.19,1.48.57,1.93.38.46.96.68,1.75.68.57,0,1.11-.14,1.6-.41.5-.27.96-.65,1.38-1.12v-8.11h1.93Z" style="fill: #1a1a1a; stroke-width: 0px;"/>
        <path d="m475.17,61.28v16.01h-1.15c-.28,0-.45-.13-.52-.4l-.17-1.34c-.47.56-1.01,1.02-1.61,1.37-.6.35-1.3.52-2.09.52-.63,0-1.2-.12-1.72-.36s-.95-.6-1.31-1.07c-.36-.47-.64-1.06-.84-1.76-.2-.7-.29-1.51-.29-2.42,0-.81.11-1.57.33-2.27s.53-1.31.93-1.82c.41-.51.9-.92,1.49-1.21.59-.29,1.26-.44,2-.44.67,0,1.25.11,1.73.34.48.23.91.55,1.29.95v-6.1h1.93Zm-1.93,7.62c-.36-.49-.75-.82-1.17-1.02-.42-.19-.89-.29-1.41-.29-1.02,0-1.81.37-2.36,1.1s-.83,1.78-.83,3.13c0,.72.06,1.33.18,1.84.12.51.3.93.54,1.26s.53.57.88.72.74.23,1.18.23c.64,0,1.19-.14,1.67-.43.47-.29.91-.7,1.31-1.23v-5.31Z" style="fill: #1a1a1a; stroke-width: 0px;"/>
        <path d="m477.95,67.83c.61-.59,1.26-1.03,1.97-1.32.7-.29,1.48-.43,2.34-.43.62,0,1.16.1,1.64.3.48.2.88.49,1.21.85.33.36.57.8.74,1.32s.25,1.08.25,1.7v7.04h-.86c-.19,0-.33-.03-.43-.09-.1-.06-.18-.18-.24-.36l-.22-1.04c-.29.27-.57.51-.85.71s-.57.38-.87.52c-.3.14-.63.25-.97.33-.34.08-.73.11-1.15.11s-.83-.06-1.21-.18-.71-.3-.98-.54c-.28-.24-.5-.54-.66-.91-.16-.37-.25-.8-.25-1.3,0-.43.12-.85.36-1.25.24-.4.63-.76,1.16-1.07.54-.31,1.23-.57,2.1-.77.86-.2,1.92-.31,3.17-.34v-.86c0-.85-.18-1.5-.55-1.94-.37-.44-.91-.66-1.62-.66-.48,0-.88.06-1.2.18-.32.12-.6.25-.84.4-.24.15-.44.28-.61.4-.17.12-.34.18-.5.18-.13,0-.24-.03-.34-.1-.09-.07-.17-.15-.24-.26l-.35-.62Zm6.25,4.5c-.89.03-1.65.1-2.28.21-.63.11-1.14.26-1.53.44-.39.18-.68.4-.86.64-.18.25-.27.52-.27.83s.05.54.14.75c.09.21.22.38.39.52.16.13.36.23.58.29s.46.09.71.09c.34,0,.65-.03.93-.1.28-.07.55-.17.8-.3s.49-.29.72-.47.45-.39.67-.62v-2.28Z" style="fill: #1a1a1a; stroke-width: 0px;"/>
        <path d="m490.86,67.87c.24-.27.49-.51.76-.73.27-.22.55-.4.85-.56s.62-.28.96-.36c.34-.08.7-.12,1.09-.12.6,0,1.13.1,1.59.3s.84.48,1.15.85c.31.37.54.81.7,1.32.16.51.24,1.08.24,1.71v7.01h-1.95v-7.01c0-.83-.19-1.48-.57-1.94-.38-.46-.96-.69-1.73-.69-.57,0-1.11.14-1.6.41s-.95.65-1.38,1.12v8.11h-1.95v-11.01h1.16c.28,0,.45.13.51.4l.15,1.2Z" style="fill: #1a1a1a; stroke-width: 0px;"/>
      </g>
    </g>
  </g>
</svg>