<?xml version="1.0" encoding="UTF-8"?>
<svg id="treemap-360" xmlns="http://www.w3.org/2000/svg" xmlns:xlink="http://www.w3.org/1999/xlink" viewBox="0 0 360 467">
  <defs>
    <clipPath id="clippath">
      <rect x="1" y="72.48" width="358" height="376.92" style="fill: none; stroke-width: 0px;"/>
    </clipPath>
  </defs>
  <g>
    <path d="m5.58,458.73s-.06.09-.1.11c-.04.03-.08.04-.13.04-.06,0-.12-.03-.2-.09-.08-.06-.17-.12-.29-.19-.12-.07-.25-.13-.42-.19-.16-.06-.36-.08-.59-.08-.22,0-.41.03-.57.09s-.3.14-.42.24c-.11.1-.2.22-.25.35s-.08.28-.08.44c0,.2.05.37.15.5s.23.24.39.34c.16.09.34.17.55.24s.42.14.63.21c.22.07.43.16.63.25.2.09.39.21.55.35.16.14.29.31.39.52.1.2.15.45.15.75,0,.31-.05.61-.16.88-.11.28-.26.51-.47.72s-.46.36-.76.48c-.3.12-.64.17-1.02.17-.47,0-.89-.08-1.27-.25-.38-.17-.71-.4-.98-.68l.28-.46s.06-.07.1-.09c.04-.03.08-.04.13-.04.04,0,.09.02.15.05.06.04.12.08.19.13.07.05.15.11.24.17.09.06.19.12.31.17.12.05.25.1.39.13.15.04.31.05.5.05.23,0,.44-.03.62-.1.18-.06.33-.15.46-.27.12-.11.22-.25.29-.41.07-.16.1-.34.1-.54,0-.22-.05-.39-.15-.53s-.23-.25-.39-.35c-.16-.09-.34-.17-.55-.24-.21-.07-.42-.13-.63-.2s-.42-.15-.63-.24c-.21-.09-.39-.21-.55-.35-.16-.14-.29-.32-.39-.54-.1-.21-.15-.48-.15-.8,0-.25.05-.5.15-.73.1-.24.24-.45.43-.63.19-.18.42-.33.7-.44.27-.11.59-.17.95-.17.4,0,.76.06,1.09.19.33.13.62.31.87.55l-.23.46Z" style="fill: #666; stroke-width: 0px;"/>
    <path d="m9.26,459.63c.37,0,.7.06,1,.18.3.12.55.3.76.53.21.23.37.5.48.82.11.32.17.68.17,1.08s-.06.76-.17,1.08-.27.59-.48.82-.46.4-.76.52c-.3.12-.63.18-1,.18s-.71-.06-1.01-.18c-.3-.12-.55-.3-.76-.52s-.37-.5-.48-.82-.17-.68-.17-1.08.06-.76.17-1.08c.11-.32.27-.6.48-.82.21-.23.46-.4.76-.53s.63-.18,1.01-.18Zm0,4.52c.5,0,.87-.17,1.12-.5s.37-.8.37-1.4-.12-1.07-.37-1.41c-.25-.34-.62-.5-1.12-.5-.25,0-.47.04-.66.13-.19.09-.35.21-.47.38-.12.16-.22.36-.28.6-.06.24-.09.51-.09.81,0,.6.12,1.07.37,1.4.25.33.63.5,1.13.5Z" style="fill: #666; stroke-width: 0px;"/>
    <path d="m16.96,459.71v5.07h-.53c-.13,0-.21-.06-.24-.18l-.07-.55c-.22.24-.47.44-.74.59s-.59.22-.94.22c-.28,0-.52-.05-.73-.14-.21-.09-.39-.22-.53-.39-.14-.17-.25-.37-.32-.6-.07-.24-.11-.5-.11-.79v-3.23h.89v3.23c0,.38.09.68.26.89.17.21.44.32.8.32.26,0,.51-.06.74-.19.23-.12.44-.3.63-.52v-3.73h.89Z" style="fill: #666; stroke-width: 0px;"/>
    <path d="m19.22,460.72c.16-.35.36-.62.59-.81.23-.2.52-.29.85-.29.11,0,.21.01.31.04.1.02.19.06.26.11l-.06.67c-.02.08-.07.12-.15.12-.05,0-.12-.01-.21-.03s-.19-.03-.31-.03c-.16,0-.3.02-.43.07s-.24.12-.33.21c-.1.09-.19.21-.27.34-.08.13-.15.29-.21.46v3.2h-.9v-5.07h.51c.1,0,.16.02.2.06.04.04.06.1.08.19l.06.77Z" style="fill: #666; stroke-width: 0px;"/>
    <path d="m25.54,460.61s-.05.07-.08.08c-.03.02-.06.03-.11.03-.05,0-.1-.02-.17-.06s-.13-.09-.22-.14-.2-.1-.32-.14c-.13-.04-.29-.06-.47-.06-.25,0-.47.04-.66.13-.19.09-.35.22-.48.38-.13.17-.22.37-.29.6-.07.24-.1.5-.1.79s.04.58.1.82.17.44.3.6c.13.16.28.29.46.37s.39.13.61.13.4-.03.54-.08c.14-.05.26-.11.35-.17s.17-.12.23-.17c.06-.05.12-.08.18-.08.07,0,.13.03.17.08l.25.33c-.11.14-.23.25-.38.35s-.29.18-.45.24c-.16.06-.33.11-.51.14-.18.03-.36.04-.54.04-.32,0-.61-.06-.88-.18-.27-.12-.51-.29-.71-.51-.2-.22-.36-.49-.47-.82s-.17-.69-.17-1.11c0-.38.05-.72.16-1.04s.26-.6.46-.83.45-.41.75-.54c.29-.13.63-.19,1.02-.19.36,0,.67.06.94.17.27.12.51.28.72.49l-.23.32Z" style="fill: #666; stroke-width: 0px;"/>
    <path d="m30.9,464.06c-.11.13-.24.25-.4.35s-.32.18-.49.24c-.18.06-.36.11-.54.14-.19.03-.37.05-.55.05-.35,0-.67-.06-.97-.18-.29-.12-.55-.29-.76-.52-.22-.23-.38-.51-.5-.85-.12-.34-.18-.72-.18-1.16,0-.35.05-.68.16-.99.11-.31.26-.57.47-.8.2-.22.45-.4.75-.53.29-.13.62-.19.99-.19.3,0,.58.05.84.15s.48.25.67.44c.19.19.34.43.44.71.11.28.16.6.16.96,0,.14-.02.23-.04.28-.03.05-.09.07-.17.07h-3.39c.01.32.05.6.13.83.08.24.19.43.33.59.14.16.31.28.5.36.19.08.41.12.65.12.22,0,.42-.03.58-.08.16-.05.3-.11.42-.17s.21-.12.29-.17c.08-.05.15-.08.2-.08.07,0,.13.03.17.08l.25.33Zm-.72-2.38c0-.21-.03-.4-.09-.57-.06-.17-.14-.32-.25-.45s-.25-.22-.41-.29c-.16-.07-.34-.1-.55-.1-.43,0-.76.12-1.01.37-.25.25-.4.59-.46,1.03h2.77Z" style="fill: #666; stroke-width: 0px;"/>
    <path d="m31.99,460.47c0-.09.02-.17.05-.25.03-.08.08-.14.13-.2.05-.06.12-.1.2-.13s.16-.05.25-.05.17.02.25.05c.08.03.14.08.2.13s.1.12.14.2c.03.08.05.16.05.25s-.02.17-.05.25c-.03.08-.08.14-.14.2-.06.06-.12.1-.2.13-.08.03-.16.05-.25.05s-.17-.02-.25-.05c-.08-.03-.14-.08-.2-.13-.06-.06-.1-.12-.13-.2s-.05-.16-.05-.25Zm0,3.75c0-.09.02-.17.05-.25.03-.08.08-.14.13-.2.05-.06.12-.1.2-.13s.16-.05.25-.05.17.02.25.05c.08.03.14.08.2.13s.1.12.14.2c.03.08.05.16.05.25s-.02.17-.05.25c-.03.08-.08.14-.14.2-.06.06-.12.1-.2.13-.08.03-.16.05-.25.05s-.17-.02-.25-.05c-.08-.03-.14-.08-.2-.13-.06-.06-.1-.12-.13-.2s-.05-.16-.05-.25Z" style="fill: #666; stroke-width: 0px;"/>
    <path d="m40.1,464c.3,0,.56-.05.79-.15s.43-.24.59-.42.29-.4.37-.65.13-.52.13-.82v-4.36h.96v4.36c0,.41-.07.8-.2,1.15s-.32.66-.56.92c-.25.26-.54.46-.9.61-.35.15-.75.22-1.19.22s-.84-.07-1.19-.22c-.35-.15-.65-.35-.9-.61-.25-.26-.44-.56-.57-.92s-.2-.74-.2-1.15v-4.36h.96v4.35c0,.3.04.58.13.83s.21.46.37.65c.16.18.36.32.59.42.24.1.5.15.8.15Z" style="fill: #666; stroke-width: 0px;"/>
    <path d="m50.5,457.61v7.17h-.49c-.08,0-.14-.01-.19-.04s-.1-.07-.15-.13l-4.15-5.4c0,.08.01.17.01.25,0,.08,0,.16,0,.22v5.11h-.85v-7.17h.5s.08,0,.11,0c.03,0,.06.01.08.02s.05.03.07.05c.02.02.05.05.08.08l4.15,5.39c0-.09-.01-.17-.02-.25s0-.16,0-.23v-5.08h.85Z" style="fill: #666; stroke-width: 0px;"/>
    <path d="m58.13,457.61v7.17h-.97v-3.26h-3.87v3.26h-.97v-7.17h.97v3.2h3.87v-3.2h.97Z" style="fill: #666; stroke-width: 0px;"/>
    <path d="m65,463.29c.05,0,.1.02.14.07l.38.42c-.29.34-.65.61-1.07.79-.42.19-.92.29-1.52.29-.51,0-.98-.09-1.4-.27s-.78-.43-1.07-.75c-.3-.32-.53-.71-.69-1.16-.16-.45-.25-.95-.25-1.49s.08-1.04.25-1.49c.17-.45.41-.84.72-1.16.31-.32.68-.57,1.11-.75.43-.18.9-.27,1.43-.27s.96.08,1.35.25c.39.16.73.38,1.03.67l-.32.45s-.04.06-.08.08c-.03.02-.07.03-.13.03-.06,0-.13-.03-.22-.1-.09-.07-.2-.14-.34-.22-.14-.08-.32-.15-.53-.22-.21-.06-.47-.1-.78-.1-.37,0-.71.06-1.02.19-.31.13-.57.31-.79.56s-.39.54-.52.89c-.12.35-.19.75-.19,1.18s.06.84.19,1.2c.13.35.3.65.52.89.22.24.48.43.79.55.3.13.63.19.98.19.21,0,.4-.01.58-.04.17-.02.33-.06.47-.12.15-.05.28-.12.41-.2.12-.08.25-.18.37-.29.06-.05.11-.08.17-.08Z" style="fill: #666; stroke-width: 0px;"/>
    <path d="m71.94,464.77h-.86c-.18,0-.31-.07-.39-.21l-1.86-2.56c-.06-.08-.12-.14-.18-.17-.07-.04-.17-.05-.3-.05h-.74v2.99h-.96v-7.17h2.03c.45,0,.84.05,1.17.14s.6.22.82.4c.21.17.37.38.48.63.1.25.16.52.16.82,0,.25-.04.49-.12.71-.08.22-.2.42-.35.59-.15.18-.34.32-.55.45-.22.12-.47.22-.74.28.12.07.23.17.32.31l2.09,2.84Zm-3.31-3.7c.28,0,.53-.03.74-.1s.39-.17.54-.29c.14-.12.25-.27.33-.45.07-.17.11-.37.11-.58,0-.43-.14-.75-.42-.96s-.7-.33-1.26-.33h-1.06v2.71h1.02Z" style="fill: #666; stroke-width: 0px;"/>
    <path d="m82.09,461.19c0,.54-.08,1.03-.25,1.48s-.41.83-.72,1.16c-.31.32-.68.57-1.12.75-.43.18-.92.27-1.44.27s-1.01-.09-1.44-.27c-.43-.18-.8-.43-1.11-.75-.31-.32-.55-.71-.72-1.16s-.25-.94-.25-1.48.08-1.03.25-1.48.41-.83.72-1.16c.31-.33.68-.58,1.11-.76.43-.18.91-.27,1.44-.27s1.01.09,1.44.27c.44.18.81.43,1.12.76.31.33.55.71.72,1.16s.25.94.25,1.48Zm-1,0c0-.44-.06-.83-.18-1.18-.12-.35-.29-.65-.51-.89-.22-.24-.49-.43-.8-.56s-.66-.2-1.05-.2-.73.07-1.04.2-.58.32-.8.56c-.22.24-.39.54-.51.89-.12.35-.18.75-.18,1.18s.06.83.18,1.18.29.64.51.88c.22.24.49.43.8.56.31.13.66.19,1.04.19s.74-.06,1.05-.19c.31-.13.58-.31.8-.56.22-.24.39-.54.51-.88s.18-.74.18-1.18Z" style="fill: #666; stroke-width: 0px;"/>
    <path d="m84.11,460.49c.21-.26.46-.47.74-.63s.6-.24.96-.24c.29,0,.56.06.79.17.24.11.44.28.61.5.17.22.29.49.38.81s.13.69.13,1.11c0,.37-.05.72-.15,1.04-.1.32-.24.6-.43.83s-.42.42-.69.55c-.27.14-.58.2-.92.2-.31,0-.58-.05-.8-.16-.22-.1-.42-.25-.59-.44v2.24h-.89v-6.78h.54c.13,0,.21.06.23.19l.08.6Zm.04,3.06c.16.22.34.38.54.46s.41.13.65.13c.47,0,.84-.17,1.09-.5s.38-.82.38-1.44c0-.33-.03-.61-.09-.85-.06-.24-.14-.43-.25-.58-.11-.15-.25-.26-.41-.33s-.34-.1-.54-.1c-.29,0-.54.07-.76.2-.22.13-.42.32-.6.57v2.45Z" style="fill: #666; stroke-width: 0px;"/>
    <path d="m92.98,464.06c-.11.13-.24.25-.4.35s-.32.18-.49.24-.36.11-.54.14-.37.05-.55.05c-.35,0-.67-.06-.97-.18s-.55-.29-.76-.52c-.21-.23-.38-.51-.5-.85-.12-.34-.18-.72-.18-1.16,0-.35.05-.68.16-.99s.26-.57.47-.8c.2-.22.45-.4.75-.53.29-.13.62-.19.99-.19.3,0,.58.05.84.15.26.1.48.25.67.44.19.19.33.43.44.71.11.28.16.6.16.96,0,.14-.01.23-.04.28-.03.05-.09.07-.17.07h-3.38c0,.32.05.6.13.83.08.24.19.43.33.59s.31.28.5.36c.19.08.41.12.65.12.22,0,.42-.03.58-.08.16-.05.3-.11.42-.17.12-.06.21-.12.29-.17.08-.05.15-.08.2-.08.07,0,.13.03.17.08l.25.33Zm-.72-2.38c0-.21-.03-.4-.09-.57-.06-.17-.14-.32-.25-.45-.11-.12-.25-.22-.41-.29s-.34-.1-.54-.1c-.43,0-.76.12-1.01.37s-.4.59-.46,1.03h2.77Z" style="fill: #666; stroke-width: 0px;"/>
    <path d="m94.99,460.72c.16-.35.36-.62.59-.81.23-.2.52-.29.86-.29.11,0,.21.01.31.04.1.02.19.06.26.11l-.07.67c-.02.08-.07.12-.15.12-.05,0-.11-.01-.21-.03-.09-.02-.19-.03-.3-.03-.16,0-.3.02-.43.07s-.24.12-.33.21c-.1.09-.19.21-.26.34-.08.13-.15.29-.21.46v3.2h-.89v-5.07h.51c.1,0,.16.02.2.06s.06.1.08.19l.06.77Z" style="fill: #666; stroke-width: 0px;"/>
    <path d="m97.66,460.42c.28-.27.58-.47.91-.61.32-.13.68-.2,1.07-.2.28,0,.54.05.75.14.22.09.41.22.56.39.15.17.26.37.34.61.08.24.12.5.12.78v3.24h-.4c-.09,0-.15-.01-.2-.04-.05-.03-.08-.08-.11-.17l-.1-.48c-.13.12-.26.23-.39.33s-.26.17-.4.24c-.14.06-.29.11-.45.15s-.33.05-.53.05-.38-.03-.55-.08c-.17-.05-.32-.14-.45-.25-.13-.11-.23-.25-.3-.42-.08-.17-.11-.37-.11-.6,0-.2.05-.39.17-.58.11-.18.29-.35.54-.49.25-.14.57-.26.96-.35s.88-.14,1.46-.16v-.4c0-.39-.08-.69-.25-.89-.17-.2-.42-.3-.75-.3-.22,0-.4.03-.55.08s-.28.12-.38.18c-.11.07-.2.13-.28.19s-.16.08-.23.08c-.06,0-.11-.02-.16-.05-.04-.03-.08-.07-.11-.12l-.16-.28Zm2.88,2.07c-.41.01-.76.05-1.05.1s-.52.12-.71.2c-.18.08-.31.18-.39.3-.08.11-.12.24-.12.38,0,.13.02.25.07.34.04.1.1.18.18.24.07.06.16.11.26.13s.21.04.33.04c.16,0,.3-.02.43-.05.13-.03.25-.08.37-.14.12-.06.22-.13.33-.21.1-.08.21-.18.31-.29v-1.05Z" style="fill: #666; stroke-width: 0px;"/>
    <path d="m107.46,464.77h-.89v-4.32h-2.61v3.04c0,.21.05.37.15.48.1.1.24.15.4.15.09,0,.17-.01.24-.04s.13-.05.18-.08c.05-.03.09-.06.13-.08s.07-.04.09-.04c.05,0,.09.03.12.08l.26.42c-.15.14-.34.26-.56.34-.22.08-.44.12-.67.12-.4,0-.71-.11-.92-.33-.22-.22-.32-.54-.32-.96v-3.1h-.61c-.05,0-.1-.02-.14-.05-.04-.03-.05-.08-.05-.15v-.36l.83-.11.21-1.56s.03-.09.07-.12c.04-.03.08-.05.14-.05h.45v1.75h3.5v4.96Zm.22-6.69c0,.09-.02.17-.05.24s-.08.14-.14.2-.13.1-.2.13c-.08.03-.16.05-.25.05s-.17-.02-.24-.05c-.07-.03-.14-.08-.2-.13s-.1-.12-.13-.2-.05-.16-.05-.24.02-.17.05-.25.08-.15.13-.21.12-.1.2-.14c.08-.03.16-.05.24-.05s.17.02.25.05c.08.03.14.08.2.14s.1.13.14.21.05.16.05.25Z" style="fill: #666; stroke-width: 0px;"/>
    <path d="m111.05,459.63c.37,0,.7.06,1,.18s.55.3.76.53c.21.23.37.5.48.82.11.32.17.68.17,1.08s-.06.76-.17,1.08c-.11.32-.27.59-.48.82s-.46.4-.76.52c-.3.12-.63.18-1,.18s-.71-.06-1.01-.18c-.3-.12-.55-.3-.76-.52s-.37-.5-.48-.82c-.11-.32-.17-.68-.17-1.08s.06-.76.17-1.08c.11-.32.27-.6.48-.82.21-.23.46-.4.76-.53.3-.12.63-.18,1.01-.18Zm0,4.52c.5,0,.87-.17,1.12-.5s.37-.8.37-1.4-.12-1.07-.37-1.41c-.25-.34-.62-.5-1.12-.5-.25,0-.47.04-.66.13-.19.09-.35.21-.47.38-.12.16-.22.36-.28.6s-.09.51-.09.81c0,.6.12,1.07.37,1.4.25.33.63.5,1.13.5Z" style="fill: #666; stroke-width: 0px;"/>
    <path d="m115.43,460.44c.11-.12.23-.24.35-.33.12-.1.25-.19.39-.26.14-.07.29-.13.44-.17.16-.04.32-.06.5-.06.28,0,.52.04.73.14.21.09.39.22.53.39.14.17.25.37.32.61.07.24.11.5.11.79v3.22h-.89v-3.22c0-.38-.09-.68-.26-.89-.17-.21-.44-.32-.8-.32-.26,0-.51.06-.74.19s-.44.3-.63.51v3.73h-.89v-5.07h.54c.13,0,.21.06.23.19l.07.55Z" style="fill: #666; stroke-width: 0px;"/>
    <path d="m120.04,460.42c.28-.27.58-.47.91-.61.32-.13.68-.2,1.07-.2.28,0,.54.05.75.14.22.09.41.22.56.39.15.17.26.37.34.61.08.24.12.5.12.78v3.24h-.4c-.09,0-.15-.01-.2-.04-.05-.03-.08-.08-.11-.17l-.1-.48c-.13.12-.26.23-.39.33s-.26.17-.4.24c-.14.06-.29.11-.45.15s-.33.05-.53.05-.38-.03-.55-.08c-.17-.05-.32-.14-.45-.25-.13-.11-.23-.25-.3-.42-.08-.17-.11-.37-.11-.6,0-.2.05-.39.17-.58.11-.18.29-.35.54-.49.25-.14.57-.26.96-.35s.88-.14,1.46-.16v-.4c0-.39-.08-.69-.25-.89-.17-.2-.42-.3-.75-.3-.22,0-.4.03-.55.08s-.28.12-.38.18c-.11.07-.2.13-.28.19s-.16.08-.23.08c-.06,0-.11-.02-.16-.05-.04-.03-.08-.07-.11-.12l-.16-.28Zm2.88,2.07c-.41.01-.76.05-1.05.1s-.52.12-.71.2c-.18.08-.31.18-.39.3-.08.11-.12.24-.12.38,0,.13.02.25.07.34.04.1.1.18.18.24.07.06.16.11.26.13s.21.04.33.04c.16,0,.3-.02.43-.05.13-.03.25-.08.37-.14.12-.06.22-.13.33-.21.1-.08.21-.18.31-.29v-1.05Z" style="fill: #666; stroke-width: 0px;"/>
    <path d="m126.06,457.41v7.37h-.89v-7.37h.89Z" style="fill: #666; stroke-width: 0px;"/>
    <path d="m134.25,457.41v7.37h-.53c-.13,0-.21-.06-.24-.18l-.08-.62c-.22.26-.46.47-.74.63-.28.16-.6.24-.96.24-.29,0-.55-.06-.79-.17-.24-.11-.44-.28-.6-.49-.17-.22-.29-.49-.38-.81-.09-.32-.14-.69-.14-1.11,0-.37.05-.72.15-1.04.1-.32.24-.6.43-.84.19-.24.42-.42.69-.56.27-.14.58-.2.92-.2.31,0,.58.05.8.16.22.1.42.25.59.44v-2.81h.89Zm-.89,3.5c-.17-.22-.35-.38-.54-.47-.19-.09-.41-.13-.65-.13-.47,0-.83.17-1.08.5-.25.34-.38.82-.38,1.44,0,.33.03.61.08.85.06.24.14.43.25.58.11.15.25.26.41.33s.34.1.54.1c.29,0,.55-.07.77-.2.22-.13.42-.32.6-.57v-2.45Z" style="fill: #666; stroke-width: 0px;"/>
    <path d="m135.53,460.42c.28-.27.58-.47.91-.61.32-.13.68-.2,1.07-.2.28,0,.54.05.75.14.22.09.41.22.56.39.15.17.26.37.34.61.08.24.12.5.12.78v3.24h-.4c-.09,0-.15-.01-.2-.04-.05-.03-.08-.08-.11-.17l-.1-.48c-.13.12-.26.23-.39.33s-.26.17-.4.24c-.14.06-.29.11-.45.15s-.33.05-.53.05-.38-.03-.55-.08c-.17-.05-.32-.14-.45-.25-.13-.11-.23-.25-.3-.42-.08-.17-.11-.37-.11-.6,0-.2.05-.39.17-.58.11-.18.29-.35.54-.49.25-.14.57-.26.96-.35s.88-.14,1.46-.16v-.4c0-.39-.08-.69-.25-.89-.17-.2-.42-.3-.75-.3-.22,0-.4.03-.55.08s-.28.12-.38.18c-.11.07-.2.13-.28.19s-.16.08-.23.08c-.06,0-.11-.02-.16-.05-.04-.03-.08-.07-.11-.12l-.16-.28Zm2.88,2.07c-.41.01-.76.05-1.05.1s-.52.12-.71.2c-.18.08-.31.18-.39.3-.08.11-.12.24-.12.38,0,.13.02.25.07.34.04.1.1.18.18.24.07.06.16.11.26.13s.21.04.33.04c.16,0,.3-.02.43-.05.13-.03.25-.08.37-.14.12-.06.22-.13.33-.21.1-.08.21-.18.31-.29v-1.05Z" style="fill: #666; stroke-width: 0px;"/>
    <path d="m142.18,464.85c-.4,0-.71-.11-.92-.33-.22-.22-.32-.54-.32-.96v-3.1h-.61c-.05,0-.1-.02-.14-.05-.04-.03-.05-.08-.05-.15v-.36l.83-.1.21-1.57s.03-.09.07-.12c.04-.03.08-.05.14-.05h.45v1.75h1.46v.64h-1.46v3.04c0,.21.05.37.15.48.1.1.24.15.4.15.09,0,.17-.01.24-.04s.13-.05.18-.08c.05-.03.09-.06.13-.08s.07-.04.09-.04c.05,0,.09.03.12.08l.26.42c-.15.14-.34.26-.56.34-.22.08-.44.12-.67.12Z" style="fill: #666; stroke-width: 0px;"/>
    <path d="m144.08,460.42c.28-.27.58-.47.91-.61.32-.13.68-.2,1.07-.2.28,0,.54.05.75.14.22.09.41.22.56.39.15.17.26.37.34.61.08.24.12.5.12.78v3.24h-.4c-.09,0-.15-.01-.2-.04-.05-.03-.08-.08-.11-.17l-.1-.48c-.13.12-.26.23-.39.33s-.26.17-.4.24c-.14.06-.29.11-.45.15s-.33.05-.53.05-.38-.03-.55-.08c-.17-.05-.32-.14-.45-.25-.13-.11-.23-.25-.3-.42-.08-.17-.11-.37-.11-.6,0-.2.05-.39.17-.58.11-.18.29-.35.54-.49.25-.14.57-.26.96-.35s.88-.14,1.46-.16v-.4c0-.39-.08-.69-.25-.89-.17-.2-.42-.3-.75-.3-.22,0-.4.03-.55.08s-.28.12-.38.18c-.11.07-.2.13-.28.19s-.16.08-.23.08c-.06,0-.11-.02-.16-.05-.04-.03-.08-.07-.11-.12l-.16-.28Zm2.88,2.07c-.41.01-.76.05-1.05.1s-.52.12-.71.2c-.18.08-.31.18-.39.3-.08.11-.12.24-.12.38,0,.13.02.25.07.34.04.1.1.18.18.24.07.06.16.11.26.13s.21.04.33.04c.16,0,.3-.02.43-.05.13-.03.25-.08.37-.14.12-.06.22-.13.33-.21.1-.08.21-.18.31-.29v-1.05Z" style="fill: #666; stroke-width: 0px;"/>
    <path d="m154.07,457.61c.45,0,.85.05,1.18.16.33.11.61.25.83.45s.38.43.49.7c.11.27.16.58.16.92s-.06.64-.17.92c-.12.28-.29.52-.51.71-.23.2-.5.36-.83.47-.33.11-.71.17-1.15.17h-1.15v2.68h-.96v-7.17h2.12Zm0,3.71c.28,0,.52-.04.73-.11s.39-.18.54-.31c.14-.13.25-.29.33-.47s.11-.38.11-.61c0-.46-.14-.81-.42-1.07s-.71-.39-1.28-.39h-1.15v2.95h1.15Z" style="fill: #666; stroke-width: 0px;"/>
    <path d="m159.88,459.63c.37,0,.7.06,1,.18s.55.3.76.53c.21.23.37.5.48.82.11.32.17.68.17,1.08s-.06.76-.17,1.08c-.11.32-.27.59-.48.82s-.46.4-.76.52c-.3.12-.63.18-1,.18s-.71-.06-1.01-.18c-.3-.12-.55-.3-.76-.52s-.37-.5-.48-.82c-.11-.32-.17-.68-.17-1.08s.06-.76.17-1.08c.11-.32.27-.6.48-.82.21-.23.46-.4.76-.53.3-.12.63-.18,1.01-.18Zm0,4.52c.5,0,.87-.17,1.12-.5s.37-.8.37-1.4-.12-1.07-.37-1.41c-.25-.34-.62-.5-1.12-.5-.25,0-.47.04-.66.13-.19.09-.35.21-.47.38-.12.16-.22.36-.28.6s-.09.51-.09.81c0,.6.12,1.07.37,1.4.25.33.63.5,1.13.5Z" style="fill: #666; stroke-width: 0px;"/>
    <path d="m164.26,460.72c.16-.35.36-.62.59-.81.23-.2.52-.29.86-.29.11,0,.21.01.31.04.1.02.19.06.26.11l-.07.67c-.02.08-.07.12-.15.12-.05,0-.11-.01-.21-.03-.09-.02-.19-.03-.3-.03-.16,0-.3.02-.43.07s-.24.12-.33.21c-.1.09-.19.21-.26.34-.08.13-.15.29-.21.46v3.2h-.89v-5.07h.51c.1,0,.16.02.2.06s.06.1.08.19l.06.77Z" style="fill: #666; stroke-width: 0px;"/>
    <path d="m168.61,464.85c-.4,0-.71-.11-.92-.33-.22-.22-.32-.54-.32-.96v-3.1h-.61c-.05,0-.1-.02-.14-.05-.04-.03-.05-.08-.05-.15v-.36l.83-.1.21-1.57s.03-.09.07-.12c.04-.03.08-.05.14-.05h.45v1.75h1.46v.64h-1.46v3.04c0,.21.05.37.15.48.1.1.24.15.4.15.09,0,.17-.01.24-.04s.13-.05.18-.08c.05-.03.09-.06.13-.08s.07-.04.09-.04c.05,0,.09.03.12.08l.26.42c-.15.14-.34.26-.56.34-.22.08-.44.12-.67.12Z" style="fill: #666; stroke-width: 0px;"/>
    <path d="m170.51,460.42c.28-.27.58-.47.91-.61.32-.13.68-.2,1.07-.2.28,0,.54.05.75.14.22.09.41.22.56.39.15.17.26.37.34.61.08.24.12.5.12.78v3.24h-.4c-.09,0-.15-.01-.2-.04-.05-.03-.08-.08-.11-.17l-.1-.48c-.13.12-.26.23-.39.33s-.26.17-.4.24c-.14.06-.29.11-.45.15s-.33.05-.53.05-.38-.03-.55-.08c-.17-.05-.32-.14-.45-.25-.13-.11-.23-.25-.3-.42-.08-.17-.11-.37-.11-.6,0-.2.05-.39.17-.58.11-.18.29-.35.54-.49.25-.14.57-.26.96-.35s.88-.14,1.46-.16v-.4c0-.39-.08-.69-.25-.89-.17-.2-.42-.3-.75-.3-.22,0-.4.03-.55.08s-.28.12-.38.18c-.11.07-.2.13-.28.19s-.16.08-.23.08c-.06,0-.11-.02-.16-.05-.04-.03-.08-.07-.11-.12l-.16-.28Zm2.88,2.07c-.41.01-.76.05-1.05.1s-.52.12-.71.2c-.18.08-.31.18-.39.3-.08.11-.12.24-.12.38,0,.13.02.25.07.34.04.1.1.18.18.24.07.06.16.11.26.13s.21.04.33.04c.16,0,.3-.02.43-.05.13-.03.25-.08.37-.14.12-.06.22-.13.33-.21.1-.08.21-.18.31-.29v-1.05Z" style="fill: #666; stroke-width: 0px;"/>
    <path d="m176.53,457.41v7.37h-.89v-7.37h.89Z" style="fill: #666; stroke-width: 0px;"/>
  </g>
  <g style="clip-path: url(#clippath);">
    <g>
      <polygon points="322.17 432.04 359 432.04 359 432.04 359 432.04 359 432.04 359 432.04 359 432.04 359 432.04 359 432.04 359 432.04 359 432.04 359 432.04 359 432.04 359 432.04 359 382.89 359 382.89 359 382.89 359 382.89 359 382.89 359 382.89 359 382.89 359 382.89 359 382.89 359 382.89 359 382.89 359 382.89 322.17 382.89 322.17 382.89 322.17 382.89 322.17 382.89 322.17 382.89 322.17 382.89 322.17 382.89 322.17 382.89 322.17 382.89 322.17 382.89 322.17 382.89 322.17 382.89 322.17 382.89 322.17 432.04 322.17 432.04 322.17 432.04 322.17 432.04 322.17 432.04 322.17 432.04 322.17 432.04 322.17 432.04 322.17 432.04 322.17 432.04 322.17 432.04 322.17 432.04" style="fill: #0072bc; stroke: #bebebe; stroke-linecap: round; stroke-linejoin: round; stroke-width: .38px;"/>
      <polygon points="322.17 449.4 359 449.4 359 449.4 359 449.4 359 449.4 359 449.4 359 449.4 359 449.4 359 449.4 359 449.4 359 449.4 359 449.4 359 449.4 359 449.4 359 432.04 359 432.04 359 432.04 359 432.04 359 432.04 359 432.04 359 432.04 359 432.04 359 432.04 359 432.04 359 432.04 359 432.04 322.17 432.04 322.17 432.04 322.17 432.04 322.17 432.04 322.17 432.04 322.17 432.04 322.17 432.04 322.17 432.04 322.17 432.04 322.17 432.04 322.17 432.04 322.17 432.04 322.17 432.04 322.17 449.4 322.17 449.4 322.17 449.4 322.17 449.4 322.17 449.4 322.17 449.4 322.17 449.4 322.17 449.4 322.17 449.4 322.17 449.4 322.17 449.4 322.17 449.4" style="fill: #8395b9; stroke: #bebebe; stroke-linecap: round; stroke-linejoin: round; stroke-width: .38px;"/>
      <polygon points="1 292.56 250.08 292.56 250.08 292.56 250.08 292.56 250.08 292.56 250.08 292.56 250.08 292.56 250.08 292.56 250.08 292.56 250.08 292.56 250.08 292.56 250.08 292.56 250.08 292.56 250.08 292.56 250.08 72.48 250.08 72.48 250.08 72.48 250.08 72.48 250.08 72.48 250.08 72.48 250.08 72.48 250.08 72.48 250.08 72.48 250.08 72.48 250.08 72.48 250.08 72.48 1 72.48 1 72.48 1 72.48 1 72.48 1 72.48 1 72.48 1 72.48 1 72.48 1 72.48 1 72.48 1 72.48 1 72.48 1 72.48 1 292.56 1 292.56 1 292.56 1 292.56 1 292.56 1 292.56 1 292.56 1 292.56 1 292.56 1 292.56 1 292.56 1 292.56" style="fill: #0072bc; stroke: #bebebe; stroke-linecap: round; stroke-linejoin: round; stroke-width: .38px;"/>
      <polygon points="1 449.4 250.08 449.4 250.08 449.4 250.08 449.4 250.08 449.4 250.08 449.4 250.08 449.4 250.08 449.4 250.08 449.4 250.08 449.4 250.08 449.4 250.08 449.4 250.08 449.4 250.08 449.4 250.08 292.56 250.08 292.56 250.08 292.56 250.08 292.56 250.08 292.56 250.08 292.56 250.08 292.56 250.08 292.56 250.08 292.56 250.08 292.56 250.08 292.56 250.08 292.56 1 292.56 1 292.56 1 292.56 1 292.56 1 292.56 1 292.56 1 292.56 1 292.56 1 292.56 1 292.56 1 292.56 1 292.56 1 292.56 1 449.4 1 449.4 1 449.4 1 449.4 1 449.4 1 449.4 1 449.4 1 449.4 1 449.4 1 449.4 1 449.4 1 449.4" style="fill: #0072bc; stroke: #bebebe; stroke-linecap: round; stroke-linejoin: round; stroke-width: .38px;"/>
      <polygon points="250.08 449.4 321.37 449.4 321.37 449.4 321.37 449.4 321.37 449.4 321.37 449.4 321.37 449.4 321.37 449.4 321.37 449.4 321.37 449.4 321.37 449.4 321.37 449.4 321.37 449.4 321.37 449.4 321.37 382.89 321.37 382.89 321.37 382.89 321.37 382.89 321.37 382.89 321.37 382.89 321.37 382.89 321.37 382.89 321.37 382.89 321.37 382.89 321.37 382.89 321.37 382.89 250.08 382.89 250.08 382.89 250.08 382.89 250.08 382.89 250.08 382.89 250.08 382.89 250.08 382.89 250.08 382.89 250.08 382.89 250.08 382.89 250.08 382.89 250.08 382.89 250.08 382.89 250.08 449.4 250.08 449.4 250.08 449.4 250.08 449.4 250.08 449.4 250.08 449.4 250.08 449.4 250.08 449.4 250.08 449.4 250.08 449.4 250.08 449.4 250.08 449.4" style="fill: #0072bc; stroke: #bebebe; stroke-linecap: round; stroke-linejoin: round; stroke-width: .38px;"/>
      <polygon points="321.37 449.4 322.17 449.4 322.17 449.4 322.17 449.4 322.17 449.4 322.17 449.4 322.17 449.4 322.17 449.4 322.17 449.4 322.17 449.4 322.17 449.4 322.17 449.4 322.17 449.4 322.17 449.4 322.17 382.89 322.17 382.89 322.17 382.89 322.17 382.89 322.17 382.89 322.17 382.89 322.17 382.89 322.17 382.89 322.17 382.89 322.17 382.89 322.17 382.89 322.17 382.89 321.37 382.89 321.37 382.89 321.37 382.89 321.37 382.89 321.37 382.89 321.37 382.89 321.37 382.89 321.37 382.89 321.37 382.89 321.37 382.89 321.37 382.89 321.37 382.89 321.37 382.89 321.37 449.4 321.37 449.4 321.37 449.4 321.37 449.4 321.37 449.4 321.37 449.4 321.37 449.4 321.37 449.4 321.37 449.4 321.37 449.4 321.37 449.4 321.37 449.4" style="fill: #8395b9; stroke: #bebebe; stroke-linecap: round; stroke-linejoin: round; stroke-width: .38px;"/>
      <polygon points="250.08 356.94 359 356.94 359 356.94 359 356.94 359 356.94 359 356.94 359 356.94 359 356.94 359 356.94 359 356.94 359 356.94 359 356.94 359 356.94 359 356.94 359 72.48 359 72.48 359 72.48 359 72.48 359 72.48 359 72.48 359 72.48 359 72.48 359 72.48 359 72.48 359 72.48 359 72.48 250.08 72.48 250.08 72.48 250.08 72.48 250.08 72.48 250.08 72.48 250.08 72.48 250.08 72.48 250.08 72.48 250.08 72.48 250.08 72.48 250.08 72.48 250.08 72.48 250.08 72.48 250.08 356.94 250.08 356.94 250.08 356.94 250.08 356.94 250.08 356.94 250.08 356.94 250.08 356.94 250.08 356.94 250.08 356.94 250.08 356.94 250.08 356.94 250.08 356.94" style="fill: #8395b9; stroke: #bebebe; stroke-linecap: round; stroke-linejoin: round; stroke-width: .38px;"/>
      <polygon points="250.08 382.89 359 382.89 359 382.89 359 382.89 359 382.89 359 382.89 359 382.89 359 382.89 359 382.89 359 382.89 359 382.89 359 382.89 359 382.89 359 382.89 359 356.94 359 356.94 359 356.94 359 356.94 359 356.94 359 356.94 359 356.94 359 356.94 359 356.94 359 356.94 359 356.94 359 356.94 250.08 356.94 250.08 356.94 250.08 356.94 250.08 356.94 250.08 356.94 250.08 356.94 250.08 356.94 250.08 356.94 250.08 356.94 250.08 356.94 250.08 356.94 250.08 356.94 250.08 356.94 250.08 382.89 250.08 382.89 250.08 382.89 250.08 382.89 250.08 382.89 250.08 382.89 250.08 382.89 250.08 382.89 250.08 382.89 250.08 382.89 250.08 382.89 250.08 382.89" style="fill: #0072bc; stroke: #bebebe; stroke-linecap: round; stroke-linejoin: round; stroke-width: .38px;"/>
      <g style="isolation: isolate;">
        <path d="m332.87,427.37v1.31h-5.68v-1.31h2.08v-5.99c0-.24,0-.48.02-.73l-1.48,1.24c-.08.07-.17.11-.25.12s-.16.02-.23,0-.14-.04-.2-.07c-.06-.04-.1-.08-.13-.12l-.55-.76,3.13-2.66h1.44v8.97h1.85Z" style="fill: #fff; stroke-width: 0px;"/>
        <path d="m334.53,421.27c.07-.49.21-.92.41-1.3.2-.37.46-.68.76-.93.31-.25.66-.44,1.05-.56.4-.13.82-.19,1.27-.19s.9.07,1.28.2c.38.13.71.32.98.56.27.24.48.52.62.84s.22.67.22,1.04c0,.33-.04.61-.11.86-.07.25-.18.46-.32.65-.14.18-.31.34-.51.47-.2.13-.43.23-.69.32.62.19,1.08.49,1.38.89s.46.9.46,1.5c0,.51-.09.96-.28,1.36-.19.39-.45.72-.77.99s-.69.47-1.12.61c-.42.14-.87.21-1.35.21-.52,0-.97-.06-1.35-.18-.38-.12-.72-.29-1-.53-.28-.23-.53-.52-.72-.85-.2-.34-.37-.72-.51-1.16l.77-.32c.2-.08.39-.11.57-.07.18.04.31.14.39.29.08.17.18.33.28.49s.22.3.37.43c.14.12.31.23.5.3.19.08.42.12.68.12.3,0,.56-.05.78-.15.22-.1.41-.22.56-.38.15-.16.26-.33.33-.52.07-.19.11-.38.11-.58,0-.25-.03-.47-.08-.67-.05-.2-.16-.37-.33-.51-.17-.14-.4-.25-.71-.33-.31-.08-.73-.12-1.25-.12v-1.25c.43,0,.79-.04,1.07-.12.28-.08.51-.18.68-.32s.29-.3.35-.49.1-.4.1-.62c0-.48-.13-.85-.41-1.1-.27-.25-.63-.38-1.08-.38-.21,0-.4.03-.58.09-.17.06-.33.14-.47.25s-.26.23-.35.37c-.09.14-.17.3-.21.47-.08.22-.19.36-.32.43-.13.07-.31.09-.55.05l-.92-.16Z" style="fill: #fff; stroke-width: 0px;"/>
        <path d="m345.05,422.71h.45c.18,0,.33-.02.45-.07s.22-.13.31-.24l2.83-3.59c.12-.15.24-.26.37-.32.13-.06.29-.09.49-.09h1.65l-3.46,4.27c-.2.26-.42.45-.63.55.16.06.3.14.42.24.13.1.25.24.36.4l3.57,4.81h-1.68c-.23,0-.4-.03-.51-.1-.11-.06-.21-.16-.28-.28l-2.91-3.79c-.09-.13-.19-.22-.31-.27-.12-.05-.29-.08-.51-.08h-.6v4.52h-1.91v-10.27h1.91v4.3Z" style="fill: #fff; stroke-width: 0px;"/>
      </g>
      <g style="isolation: isolate;">
        <path d="m328.4,439.49c.23-.05.45-.08.65-.1.21-.02.41-.03.6-.03.54,0,1.02.08,1.43.24.41.16.76.38,1.04.67.28.28.49.62.63,1,.14.38.21.79.21,1.23,0,.54-.1,1.04-.29,1.49-.19.45-.46.83-.8,1.15s-.74.57-1.21.74c-.47.18-.97.26-1.52.26-.32,0-.63-.03-.92-.1-.29-.07-.56-.16-.81-.27-.25-.11-.49-.24-.7-.38-.22-.14-.41-.3-.58-.46l.54-.75c.11-.16.26-.24.45-.24.12,0,.24.04.36.11.12.08.26.16.42.25.16.09.34.17.56.25.22.08.47.11.78.11.32,0,.61-.05.85-.16.25-.1.45-.25.61-.44.16-.19.29-.41.37-.67.08-.26.12-.54.12-.84,0-.56-.16-1-.49-1.31-.32-.32-.8-.47-1.44-.47-.49,0-.99.09-1.5.27l-1.09-.31.85-4.99h5.07v.75c0,.25-.08.46-.23.61s-.42.23-.79.23h-2.82l-.36,2.14Z" style="fill: #1a1a1a; stroke-width: 0px;"/>
        <path d="m336.81,440.07h.45c.18,0,.33-.02.45-.07s.22-.13.31-.24l2.83-3.59c.12-.15.24-.26.37-.32.13-.06.29-.09.49-.09h1.65l-3.46,4.27c-.2.26-.42.45-.63.55.16.06.3.14.42.24.13.1.25.24.36.4l3.57,4.81h-1.68c-.23,0-.4-.03-.51-.1-.11-.06-.21-.16-.28-.28l-2.91-3.79c-.09-.13-.19-.22-.31-.27-.12-.05-.29-.08-.51-.08h-.6v4.52h-1.91v-10.27h1.91v4.3Z" style="fill: #1a1a1a; stroke-width: 0px;"/>
      </g>
      <g style="isolation: isolate;">
        <path d="m12.23,285.34v1.02c0,.09-.03.18-.09.25s-.15.1-.26.1h-.94v2.51h-1.53v-2.51h-4.33c-.12,0-.22-.04-.31-.11-.09-.07-.15-.17-.17-.27l-.19-.89,4.87-6.5h1.66v6.41h1.29Zm-2.82,0v-3.36c0-.32.02-.67.06-1.05l-3.19,4.41h3.13Z" style="fill: #fff; stroke-width: 0px;"/>
        <path d="m20.47,284.07c0,.9-.1,1.67-.29,2.33-.19.66-.46,1.21-.8,1.64s-.74.75-1.2.96c-.46.21-.96.32-1.5.32s-1.03-.11-1.49-.32c-.46-.21-.85-.53-1.19-.96s-.6-.98-.79-1.64c-.19-.66-.28-1.44-.28-2.33s.09-1.68.28-2.34.45-1.2.79-1.63.73-.75,1.19-.96c.46-.21.95-.32,1.49-.32s1.03.11,1.5.32c.46.21.86.53,1.2.96s.6.98.8,1.63c.19.66.29,1.44.29,2.34Zm-1.81,0c0-.74-.05-1.36-.16-1.85s-.25-.88-.44-1.17c-.18-.29-.39-.49-.63-.61s-.48-.17-.74-.17-.49.06-.73.17-.44.32-.62.61c-.18.29-.32.68-.43,1.17s-.16,1.1-.16,1.85.05,1.36.16,1.85c.11.49.25.88.43,1.17.18.29.39.49.62.61s.48.17.73.17.5-.06.74-.17.45-.32.63-.61c.18-.29.33-.68.44-1.17.11-.49.16-1.1.16-1.85Z" style="fill: #fff; stroke-width: 0px;"/>
        <path d="m21.6,281.8c.07-.49.21-.92.41-1.3.2-.37.46-.68.76-.93.31-.25.66-.44,1.05-.56.4-.13.82-.19,1.27-.19s.9.07,1.28.2c.38.13.71.32.98.56s.48.52.62.84.22.67.22,1.04c0,.33-.04.61-.11.86-.07.25-.18.46-.32.65-.14.18-.31.34-.51.47s-.43.23-.69.32c.62.19,1.08.49,1.38.89.3.4.45.9.45,1.5,0,.51-.09.96-.28,1.36-.19.39-.45.72-.77.99-.32.27-.69.47-1.12.61-.42.14-.87.21-1.35.21-.52,0-.97-.06-1.35-.18-.38-.12-.72-.29-1-.53-.28-.23-.53-.52-.72-.85-.2-.34-.37-.72-.51-1.16l.77-.32c.2-.08.39-.11.57-.07s.31.14.39.29c.08.17.18.33.28.49.1.16.22.3.37.43.14.12.31.23.5.3s.42.12.69.12c.3,0,.56-.05.78-.15.22-.1.41-.22.56-.38.15-.16.26-.33.33-.52.07-.19.11-.38.11-.58,0-.25-.03-.47-.08-.67-.05-.2-.16-.37-.33-.51-.17-.14-.4-.25-.71-.33-.31-.08-.73-.12-1.25-.12v-1.25c.43,0,.79-.04,1.07-.12.28-.08.51-.18.68-.32s.29-.3.35-.49.1-.4.1-.62c0-.48-.14-.85-.41-1.1-.27-.25-.63-.38-1.08-.38-.21,0-.4.03-.58.09-.18.06-.33.14-.47.25-.14.11-.26.23-.35.37-.09.14-.17.3-.21.47-.08.22-.19.36-.32.43-.13.07-.31.09-.55.05l-.92-.16Z" style="fill: #fff; stroke-width: 0px;"/>
        <path d="m32.12,283.24h.45c.18,0,.33-.02.45-.07.12-.05.22-.13.31-.24l2.83-3.59c.12-.15.24-.26.37-.32.13-.06.29-.09.49-.09h1.65l-3.46,4.27c-.2.26-.41.45-.63.55.16.06.3.14.42.24s.25.24.36.4l3.57,4.81h-1.68c-.23,0-.4-.03-.51-.1-.11-.06-.21-.16-.28-.28l-2.91-3.79c-.09-.13-.19-.22-.31-.27-.12-.05-.29-.08-.51-.08h-.6v4.52h-1.91v-10.27h1.91v4.3Z" style="fill: #fff; stroke-width: 0px;"/>
      </g>
      <g style="isolation: isolate;">
        <path d="m11.32,444.4c.19,0,.34.05.45.16.11.11.17.25.17.42v1.05h-7.05v-.58c0-.12.02-.24.07-.37.05-.13.13-.25.24-.35l3.12-3.13c.26-.26.49-.52.7-.76s.38-.48.52-.72c.14-.24.24-.48.32-.72.07-.24.11-.5.11-.77,0-.25-.04-.46-.11-.65-.07-.19-.17-.34-.3-.47s-.29-.22-.47-.29c-.18-.06-.39-.1-.61-.1-.21,0-.4.03-.58.09-.18.06-.33.14-.47.25-.14.11-.25.23-.35.37-.09.14-.17.3-.21.47-.08.22-.18.36-.31.43s-.31.09-.55.05l-.92-.16c.07-.49.21-.92.41-1.3.2-.37.46-.68.76-.93.31-.25.66-.44,1.05-.56.4-.13.82-.19,1.27-.19s.91.07,1.3.21c.39.14.73.34,1.01.59s.5.56.65.92c.16.36.23.76.23,1.2,0,.38-.06.73-.17,1.05-.11.32-.26.63-.45.92-.19.29-.41.58-.66.85-.25.27-.51.55-.79.84l-2.32,2.37c.22-.07.44-.12.66-.15.22-.04.43-.05.63-.05h2.64Z" style="fill: #fff; stroke-width: 0px;"/>
        <path d="m18.44,440.68c.62.2,1.09.51,1.39.93s.45.93.45,1.54c0,.45-.09.87-.26,1.24-.17.37-.42.68-.73.94s-.69.46-1.13.6c-.44.14-.92.21-1.45.21s-1.01-.07-1.45-.21c-.44-.14-.81-.34-1.13-.6s-.56-.58-.73-.94c-.17-.37-.26-.78-.26-1.24,0-.61.15-1.12.45-1.54s.76-.73,1.39-.93c-.5-.21-.87-.5-1.12-.89-.25-.38-.37-.84-.37-1.38,0-.39.08-.75.24-1.09.16-.34.38-.63.66-.88.28-.25.62-.44,1.02-.58.4-.14.83-.21,1.3-.21s.91.07,1.3.21c.4.14.74.33,1.02.58.28.25.51.54.66.88.16.34.24.7.24,1.09,0,.54-.12,1-.37,1.38-.25.38-.62.68-1.12.89Zm-1.73,4.1c.29,0,.54-.04.76-.12s.4-.2.55-.34c.15-.15.26-.32.34-.53.08-.2.11-.42.11-.66,0-.56-.16-.99-.47-1.28-.31-.29-.74-.43-1.29-.43s-.98.14-1.29.43c-.31.29-.47.71-.47,1.28,0,.24.04.46.11.66.08.2.19.38.34.53.15.15.33.26.55.34s.47.12.76.12Zm0-7.81c-.26,0-.49.04-.67.12-.19.08-.35.19-.47.32-.13.14-.22.29-.28.47-.06.17-.09.36-.09.55,0,.2.02.4.07.59.05.19.13.36.25.51.12.15.27.27.47.36s.43.13.72.13.52-.04.72-.13c.19-.09.35-.21.47-.36.12-.15.2-.32.25-.51.05-.19.07-.39.07-.59s-.03-.38-.09-.55-.15-.33-.28-.47c-.12-.13-.28-.24-.47-.32-.19-.08-.41-.12-.67-.12Z" style="fill: #fff; stroke-width: 0px;"/>
        <path d="m28.59,435.76v.76c0,.23-.02.41-.07.55s-.09.26-.14.35l-3.89,8.01c-.08.17-.19.31-.34.42s-.34.17-.59.17h-1.27l3.97-7.85c.09-.16.18-.31.27-.44s.19-.26.29-.39h-4.92c-.11,0-.2-.04-.28-.12s-.12-.17-.12-.28v-1.19h7.1Z" style="fill: #fff; stroke-width: 0px;"/>
        <path d="m32.12,440.07h.45c.18,0,.33-.02.45-.07.12-.05.22-.13.31-.24l2.83-3.59c.12-.15.24-.26.37-.32.13-.06.29-.09.49-.09h1.65l-3.46,4.27c-.2.26-.41.45-.63.55.16.06.3.14.42.24s.25.24.36.4l3.57,4.81h-1.68c-.23,0-.4-.03-.51-.1-.11-.06-.21-.16-.28-.28l-2.91-3.79c-.09-.13-.19-.22-.31-.27-.12-.05-.29-.08-.51-.08h-.6v4.52h-1.91v-10.27h1.91v4.3Z" style="fill: #fff; stroke-width: 0px;"/>
      </g>
      <g style="isolation: isolate;">
        <path d="m254.2,438.63c.07-.49.21-.92.41-1.3.2-.37.46-.68.76-.93.31-.25.66-.44,1.05-.56.4-.13.82-.19,1.27-.19s.9.07,1.28.2c.38.13.71.32.98.56.27.24.48.52.62.84s.22.67.22,1.04c0,.33-.04.61-.11.86-.07.25-.18.46-.32.65-.14.18-.31.34-.51.47-.2.13-.43.23-.69.32.62.19,1.08.49,1.38.89s.46.9.46,1.5c0,.51-.09.96-.28,1.36-.19.39-.45.72-.77.99s-.69.47-1.12.61c-.42.14-.87.21-1.35.21-.52,0-.97-.06-1.35-.18-.38-.12-.72-.29-1-.53-.28-.23-.53-.52-.72-.85-.2-.34-.37-.72-.51-1.16l.77-.32c.2-.08.39-.11.57-.07.18.04.31.14.39.29.08.17.18.33.28.49s.22.3.37.43c.14.12.31.23.5.3.19.08.42.12.68.12.3,0,.56-.05.78-.15.22-.1.41-.22.56-.38.15-.16.26-.33.33-.52.07-.19.11-.38.11-.58,0-.25-.03-.47-.08-.67-.05-.2-.16-.37-.33-.51-.17-.14-.4-.25-.71-.33-.31-.08-.73-.12-1.25-.12v-1.25c.43,0,.79-.04,1.07-.12.28-.08.51-.18.68-.32s.29-.3.35-.49.1-.4.1-.62c0-.48-.13-.85-.41-1.1-.27-.25-.63-.38-1.08-.38-.21,0-.4.03-.58.09-.17.06-.33.14-.47.25s-.26.23-.35.37c-.09.14-.17.3-.21.47-.08.22-.19.36-.32.43-.13.07-.31.09-.55.05l-.92-.16Z" style="fill: #fff; stroke-width: 0px;"/>
        <path d="m264.56,439.49c.23-.05.45-.08.65-.1.21-.02.41-.03.6-.03.54,0,1.02.08,1.43.24.41.16.76.38,1.04.67.28.28.49.62.63,1,.14.38.21.79.21,1.23,0,.54-.1,1.04-.29,1.49-.19.45-.46.83-.8,1.15s-.74.57-1.21.74c-.47.18-.97.26-1.52.26-.32,0-.63-.03-.92-.1-.29-.07-.56-.16-.81-.27-.25-.11-.49-.24-.7-.38-.22-.14-.41-.3-.58-.46l.54-.75c.11-.16.26-.24.45-.24.12,0,.24.04.36.11.12.08.26.16.42.25.16.09.34.17.56.25.22.08.47.11.78.11.32,0,.61-.05.85-.16.25-.1.45-.25.61-.44.16-.19.29-.41.37-.67.08-.26.12-.54.12-.84,0-.56-.16-1-.49-1.31-.32-.32-.8-.47-1.44-.47-.49,0-.99.09-1.5.27l-1.09-.31.85-4.99h5.07v.75c0,.25-.08.46-.23.61s-.42.23-.79.23h-2.82l-.36,2.14Z" style="fill: #fff; stroke-width: 0px;"/>
        <path d="m272.97,440.07h.45c.18,0,.33-.02.45-.07s.22-.13.31-.24l2.83-3.59c.12-.15.24-.26.37-.32.13-.06.29-.09.49-.09h1.65l-3.46,4.27c-.2.26-.42.45-.63.55.16.06.3.14.42.24.13.1.25.24.36.4l3.57,4.81h-1.68c-.23,0-.4-.03-.51-.1-.11-.06-.21-.16-.28-.28l-2.91-3.79c-.09-.13-.19-.22-.31-.27-.12-.05-.29-.08-.51-.08h-.6v4.52h-1.91v-10.27h1.91v4.3Z" style="fill: #fff; stroke-width: 0px;"/>
      </g>
      <g style="isolation: isolate;">
        <path d="m260.4,351.95c.19,0,.34.05.45.16s.17.25.17.42v1.05h-7.05v-.58c0-.12.02-.24.07-.37.05-.13.13-.25.24-.35l3.12-3.13c.26-.26.49-.52.7-.76s.38-.48.52-.72c.14-.24.24-.48.32-.72.07-.24.11-.5.11-.77,0-.25-.04-.46-.11-.65-.07-.19-.17-.34-.3-.47s-.29-.22-.47-.29-.39-.1-.61-.1c-.21,0-.4.03-.58.09-.18.06-.33.14-.47.25-.14.11-.25.23-.35.37-.09.14-.17.3-.21.47-.08.22-.19.36-.31.43-.13.07-.31.09-.55.05l-.92-.16c.07-.49.21-.92.41-1.3.2-.37.46-.68.76-.93.31-.25.66-.44,1.05-.56.4-.13.82-.19,1.28-.19s.91.07,1.3.21c.39.14.73.34,1.01.59.28.26.5.56.65.92.16.36.23.76.23,1.2,0,.38-.06.73-.17,1.05s-.26.63-.45.92c-.19.29-.41.58-.66.85-.25.27-.51.55-.79.84l-2.32,2.37c.22-.07.44-.12.66-.15.22-.04.43-.05.63-.05h2.63Z" style="fill: #1a1a1a; stroke-width: 0px;"/>
        <path d="m268.64,351.95c.19,0,.34.05.45.16s.17.25.17.42v1.05h-7.05v-.58c0-.12.02-.24.07-.37.05-.13.13-.25.24-.35l3.12-3.13c.26-.26.49-.52.7-.76s.38-.48.52-.72c.14-.24.24-.48.32-.72.07-.24.11-.5.11-.77,0-.25-.04-.46-.11-.65-.07-.19-.17-.34-.3-.47s-.29-.22-.47-.29-.39-.1-.61-.1c-.21,0-.4.03-.58.09-.18.06-.33.14-.47.25-.14.11-.25.23-.35.37-.09.14-.17.3-.21.47-.08.22-.19.36-.31.43-.13.07-.31.09-.55.05l-.92-.16c.07-.49.21-.92.41-1.3.2-.37.46-.68.76-.93.31-.25.66-.44,1.05-.56.4-.13.82-.19,1.28-.19s.91.07,1.3.21c.39.14.73.34,1.01.59.28.26.5.56.65.92.16.36.23.76.23,1.2,0,.38-.06.73-.17,1.05s-.26.63-.45.92c-.19.29-.41.58-.66.85-.25.27-.51.55-.79.84l-2.32,2.37c.22-.07.44-.12.66-.15.22-.04.43-.05.63-.05h2.63Z" style="fill: #1a1a1a; stroke-width: 0px;"/>
        <path d="m275.77,348.23c.63.2,1.09.51,1.39.93.3.42.45.93.45,1.54,0,.45-.09.87-.26,1.24-.17.37-.42.68-.73.94s-.69.46-1.13.6c-.44.14-.92.21-1.45.21s-1.01-.07-1.45-.21c-.44-.14-.81-.34-1.13-.6s-.55-.58-.73-.94c-.17-.37-.26-.78-.26-1.24,0-.61.15-1.12.45-1.54.3-.42.76-.73,1.38-.93-.5-.21-.87-.5-1.12-.89-.25-.38-.37-.84-.37-1.38,0-.39.08-.75.24-1.09.16-.34.38-.63.66-.88s.62-.44,1.02-.58c.4-.14.83-.21,1.3-.21s.91.07,1.3.21c.4.14.74.33,1.02.58s.51.54.66.88c.16.34.24.7.24,1.09,0,.54-.12,1-.37,1.38-.25.38-.62.68-1.12.89Zm-1.73,4.1c.29,0,.54-.04.76-.12s.4-.2.55-.34c.15-.15.26-.32.34-.53.08-.2.11-.42.11-.66,0-.56-.16-.99-.47-1.28-.31-.29-.74-.43-1.29-.43s-.98.14-1.29.43c-.31.29-.47.71-.47,1.28,0,.24.04.46.11.66.08.2.19.38.34.53.15.15.33.26.55.34s.47.12.76.12Zm0-7.81c-.26,0-.49.04-.67.12-.19.08-.35.19-.47.32-.13.14-.22.29-.28.47-.06.17-.09.36-.09.55,0,.2.03.4.08.59.05.19.13.36.25.51.12.15.27.27.47.36s.43.13.72.13.52-.04.72-.13.35-.21.47-.36c.12-.15.2-.32.25-.51.05-.19.07-.39.07-.59s-.03-.38-.09-.55-.15-.33-.28-.47c-.12-.13-.28-.24-.47-.32-.19-.08-.42-.12-.67-.12Z" style="fill: #1a1a1a; stroke-width: 0px;"/>
        <path d="m281.21,347.62h.45c.18,0,.33-.02.45-.07s.22-.13.31-.24l2.83-3.59c.12-.15.24-.26.37-.32.13-.06.29-.09.49-.09h1.65l-3.46,4.27c-.2.26-.42.45-.63.55.16.06.3.14.42.24.13.1.25.24.36.4l3.57,4.81h-1.68c-.23,0-.4-.03-.51-.1-.11-.06-.21-.16-.28-.28l-2.91-3.79c-.09-.13-.19-.22-.31-.27-.12-.05-.29-.08-.51-.08h-.6v4.52h-1.91v-10.27h1.91v4.3Z" style="fill: #1a1a1a; stroke-width: 0px;"/>
      </g>
      <g style="isolation: isolate;">
        <path d="m260.4,377.91c.19,0,.34.05.45.16s.17.25.17.42v1.05h-7.05v-.58c0-.12.02-.24.07-.37.05-.13.13-.25.24-.35l3.12-3.13c.26-.26.49-.52.7-.76s.38-.48.52-.72c.14-.24.24-.48.32-.72.07-.24.11-.5.11-.77,0-.25-.04-.46-.11-.65-.07-.19-.17-.34-.3-.47s-.29-.22-.47-.29-.39-.1-.61-.1c-.21,0-.4.03-.58.09-.18.06-.33.14-.47.25-.14.11-.25.23-.35.37-.09.14-.17.3-.21.47-.08.22-.19.36-.31.43-.13.07-.31.09-.55.05l-.92-.16c.07-.49.21-.92.41-1.3.2-.37.46-.68.76-.93.31-.25.66-.44,1.05-.56.4-.13.82-.19,1.28-.19s.91.07,1.3.21c.39.14.73.34,1.01.59.28.26.5.56.65.92.16.36.23.76.23,1.2,0,.38-.06.73-.17,1.05s-.26.63-.45.92c-.19.29-.41.58-.66.85-.25.27-.51.55-.79.84l-2.32,2.37c.22-.07.44-.12.66-.15.22-.04.43-.05.63-.05h2.63Z" style="fill: #fff; stroke-width: 0px;"/>
        <path d="m269.03,378.22v1.31h-5.68v-1.31h2.08v-5.99c0-.24,0-.48.02-.73l-1.48,1.24c-.08.07-.17.11-.25.12s-.16.02-.23,0-.14-.04-.2-.07c-.06-.04-.1-.08-.13-.12l-.55-.76,3.13-2.66h1.44v8.97h1.85Z" style="fill: #fff; stroke-width: 0px;"/>
        <path d="m272.97,373.57h.45c.18,0,.33-.02.45-.07s.22-.13.31-.24l2.83-3.59c.12-.15.24-.26.37-.32.13-.06.29-.09.49-.09h1.65l-3.46,4.27c-.2.26-.42.45-.63.55.16.06.3.14.42.24.13.1.25.24.36.4l3.57,4.81h-1.68c-.23,0-.4-.03-.51-.1-.11-.06-.21-.16-.28-.28l-2.91-3.79c-.09-.13-.19-.22-.31-.27-.12-.05-.29-.08-.51-.08h-.6v4.52h-1.91v-10.27h1.91v4.3Z" style="fill: #fff; stroke-width: 0px;"/>
      </g>
      <rect x="322.17" y="382.89" width="36.83" height="66.51" style="fill: none; stroke: #fff; stroke-linejoin: round; stroke-width: .75px;"/>
      <rect x="1" y="72.48" width="249.08" height="220.08" style="fill: none; stroke: #fff; stroke-linejoin: round; stroke-width: .75px;"/>
      <rect x="1" y="292.56" width="249.08" height="156.84" style="fill: none; stroke: #fff; stroke-linejoin: round; stroke-width: .75px;"/>
      <rect x="250.08" y="382.89" width="72.09" height="66.51" style="fill: none; stroke: #fff; stroke-linejoin: round; stroke-width: .75px;"/>
      <rect x="250.08" y="72.48" width="108.92" height="310.41" style="fill: none; stroke: #fff; stroke-linejoin: round; stroke-width: .75px;"/>
      <g style="isolation: isolate;">
        <path d="m334.61,398.29c.08,0,.15.03.21.1l.59.63c-.45.52-.99.92-1.63,1.21-.64.29-1.41.44-2.32.44-.78,0-1.5-.14-2.14-.41s-1.19-.66-1.64-1.15c-.45-.49-.81-1.08-1.05-1.77-.25-.69-.38-1.44-.38-2.27s.13-1.58.39-2.27c.26-.69.63-1.28,1.1-1.77.47-.49,1.04-.88,1.69-1.15s1.38-.41,2.18-.41,1.47.12,2.06.38c.6.25,1.12.59,1.57,1.02l-.49.68c-.03.05-.07.09-.12.13-.05.03-.11.05-.2.05-.09,0-.2-.05-.34-.15-.13-.1-.31-.21-.52-.33s-.48-.23-.8-.33c-.32-.1-.72-.15-1.18-.15-.57,0-1.08.1-1.55.29-.47.2-.87.48-1.21.85s-.6.83-.79,1.36c-.19.53-.28,1.14-.28,1.81s.1,1.29.29,1.83c.2.54.46.99.8,1.36.34.37.74.65,1.2.84s.96.29,1.49.29c.33,0,.62-.02.88-.06s.5-.1.73-.18c.22-.08.43-.18.62-.31.19-.12.38-.27.57-.45.09-.08.17-.11.26-.11Z" style="fill: #fff; stroke-width: 0px;"/>
        <path d="m346.03,400.55h-1.15c-.13,0-.24-.03-.32-.1-.08-.07-.14-.15-.18-.25l-1.02-2.64h-4.91l-1.02,2.64c-.03.09-.09.17-.18.24-.09.07-.19.11-.32.11h-1.15l4.38-10.95h1.5l4.38,10.95Zm-3.09-4.07l-1.72-4.46c-.05-.13-.1-.29-.16-.46s-.11-.36-.16-.56c-.11.41-.22.76-.33,1.03l-1.72,4.45h4.09Z" style="fill: #fff; stroke-width: 0px;"/>
        <path d="m355.57,400.55h-1.31c-.27,0-.47-.1-.6-.31l-2.84-3.91c-.09-.12-.18-.21-.28-.26-.1-.05-.25-.08-.46-.08h-1.12v4.57h-1.47v-10.95h3.09c.69,0,1.29.07,1.8.21.5.14.92.34,1.25.61.33.26.57.58.73.96.16.37.24.79.24,1.26,0,.39-.06.75-.18,1.08-.12.34-.3.64-.53.91-.23.27-.51.5-.85.68s-.71.33-1.13.43c.19.11.35.26.49.47l3.19,4.35Zm-5.06-5.65c.43,0,.81-.05,1.13-.16.33-.1.6-.25.83-.44.22-.19.39-.42.5-.68.11-.27.17-.56.17-.88,0-.65-.21-1.14-.64-1.48-.43-.33-1.07-.5-1.93-.5h-1.62v4.13h1.56Z" style="fill: #fff; stroke-width: 0px;"/>
      </g>
      <g style="isolation: isolate;">
        <path d="m15.61,89.97c.1,0,.19.04.27.12l.73.79c-.56.64-1.23,1.15-2.02,1.51-.79.36-1.75.54-2.87.54-.97,0-1.86-.17-2.65-.51s-1.47-.81-2.04-1.42-1-1.34-1.31-2.19c-.31-.85-.46-1.79-.46-2.81s.16-1.96.48-2.81c.32-.85.77-1.58,1.36-2.2.58-.61,1.28-1.09,2.1-1.43.81-.34,1.71-.51,2.7-.51s1.82.15,2.56.46c.74.31,1.39.73,1.95,1.26l-.61.84c-.04.06-.09.12-.15.16s-.14.06-.24.06c-.11,0-.25-.06-.42-.18s-.38-.26-.64-.41c-.27-.15-.6-.29-.99-.41-.4-.12-.89-.18-1.47-.18-.7,0-1.34.12-1.92.36-.58.24-1.08.6-1.5,1.06s-.75,1.02-.98,1.69c-.23.66-.35,1.41-.35,2.24s.12,1.6.36,2.26.57,1.22.99,1.68c.42.46.92.81,1.49,1.05.57.24,1.19.36,1.85.36.4,0,.77-.02,1.09-.07s.62-.12.9-.22c.27-.1.53-.23.77-.38.24-.15.47-.34.71-.55.11-.09.21-.14.32-.14Z" style="fill: #fff; stroke-width: 0px;"/>
        <path d="m20.03,84.46c.41-.44.86-.78,1.36-1.04.5-.26,1.07-.39,1.72-.39.52,0,.99.09,1.39.26.4.17.74.42,1,.74.27.32.47.7.61,1.15.14.45.21.94.21,1.49v6.11h-1.69v-6.11c0-.73-.17-1.29-.5-1.69s-.83-.6-1.51-.6c-.5,0-.96.12-1.4.36-.43.24-.83.57-1.2.98v7.07h-1.7v-13.95h1.7v5.64Z" style="fill: #fff; stroke-width: 0px;"/>
        <path d="m28.66,84.53c.53-.51,1.1-.89,1.71-1.15.61-.25,1.29-.38,2.04-.38.54,0,1.01.09,1.43.27.42.18.77.42,1.05.74.28.32.5.7.64,1.15.15.45.22.94.22,1.48v6.14h-.75c-.16,0-.29-.03-.38-.08s-.16-.16-.21-.32l-.19-.91c-.25.23-.5.44-.74.62-.24.18-.49.33-.76.45s-.55.22-.85.28c-.3.07-.63.1-1,.1s-.72-.05-1.05-.16c-.33-.1-.61-.26-.86-.47s-.44-.47-.58-.79-.21-.7-.21-1.13c0-.38.1-.74.31-1.09.21-.35.55-.66,1.01-.93s1.08-.49,1.83-.67c.75-.17,1.67-.27,2.77-.3v-.75c0-.75-.16-1.31-.48-1.69-.32-.38-.79-.57-1.41-.57-.42,0-.77.05-1.05.16-.28.1-.52.22-.73.35s-.38.25-.53.35c-.15.1-.29.16-.44.16-.11,0-.21-.03-.29-.09s-.15-.13-.21-.22l-.3-.54Zm5.45,3.92c-.78.03-1.44.09-1.98.18-.55.1-.99.23-1.34.38s-.59.34-.75.56c-.15.21-.23.45-.23.72s.04.47.12.65.19.33.34.45c.14.12.31.2.5.26.19.05.4.08.62.08.3,0,.57-.03.81-.09s.48-.15.7-.26c.22-.11.43-.25.63-.41.2-.16.39-.34.58-.54v-1.99Z" style="fill: #fff; stroke-width: 0px;"/>
        <path d="m46.26,78.82v13.95h-1c-.24,0-.39-.12-.45-.35l-.15-1.16c-.41.49-.88.89-1.4,1.19-.52.3-1.13.45-1.82.45-.55,0-1.05-.11-1.5-.32s-.83-.52-1.15-.93c-.32-.41-.56-.92-.73-1.53s-.26-1.32-.26-2.11c0-.71.09-1.37.28-1.98.19-.61.46-1.14.81-1.59s.79-.8,1.3-1.06,1.09-.38,1.74-.38c.59,0,1.09.1,1.51.3.42.2.79.48,1.12.83v-5.31h1.69Zm-1.69,6.64c-.32-.42-.66-.72-1.02-.89-.37-.17-.78-.25-1.23-.25-.89,0-1.58.32-2.06.96-.48.64-.72,1.55-.72,2.73,0,.62.05,1.16.16,1.6.11.45.27.81.47,1.1.21.29.46.5.77.63.3.13.65.2,1.03.2.56,0,1.04-.13,1.45-.38s.79-.61,1.14-1.07v-4.63Z" style="fill: #fff; stroke-width: 0px;"/>
      </g>
      <g style="isolation: isolate;">
        <path d="m14.46,311.35v1.5H6.08v-13.57h8.36v1.5h-6.53v4.51h5.29v1.44h-5.29v4.63h6.54Z" style="fill: #fff; stroke-width: 0px;"/>
        <path d="m24.45,303.64v.62c0,.21-.13.34-.4.4l-1.09.14c.21.42.32.88.32,1.38,0,.47-.09.89-.27,1.27-.18.38-.43.71-.74.98-.32.27-.69.48-1.14.62s-.92.22-1.44.22c-.45,0-.87-.05-1.27-.16-.2.13-.36.26-.46.4-.11.14-.16.29-.16.43,0,.23.09.4.28.52.19.12.43.2.73.25s.65.08,1.04.09.79.03,1.19.06.81.08,1.19.15.73.18,1.04.34c.3.16.55.38.73.65.19.28.28.64.28,1.08,0,.41-.1.81-.31,1.19-.21.38-.5.73-.89,1.03s-.86.54-1.42.72c-.56.18-1.19.27-1.89.27s-1.31-.07-1.84-.21c-.52-.14-.96-.33-1.31-.56s-.61-.5-.78-.81c-.17-.31-.26-.63-.26-.96,0-.47.15-.88.44-1.2s.7-.59,1.22-.79c-.28-.13-.51-.29-.68-.51-.17-.21-.25-.5-.25-.86,0-.14.03-.28.08-.43.05-.15.13-.3.23-.45.1-.15.23-.29.38-.42.15-.13.33-.25.53-.35-.47-.26-.84-.62-1.11-1.06-.27-.44-.4-.95-.4-1.53,0-.47.09-.89.27-1.27.18-.38.43-.71.75-.98.32-.27.71-.47,1.15-.62s.93-.22,1.46-.22c.42,0,.81.05,1.17.14.36.09.69.23.98.4h2.6Zm-1.71,9.74c0-.23-.07-.42-.2-.57-.13-.15-.31-.26-.54-.34s-.48-.14-.78-.17c-.3-.04-.61-.06-.94-.08-.33-.02-.67-.04-1.01-.06-.34-.02-.67-.05-.98-.09-.35.17-.64.37-.87.62-.22.25-.34.54-.34.88,0,.21.06.42.17.6.11.19.28.35.51.48.23.14.51.24.86.32s.75.12,1.22.12.86-.04,1.22-.12c.36-.08.66-.2.91-.35s.44-.33.57-.54c.13-.21.2-.44.2-.69Zm-3.04-5.21c.34,0,.64-.05.9-.14.26-.09.48-.23.65-.4.18-.17.31-.37.4-.61.09-.24.13-.5.13-.78,0-.59-.18-1.05-.54-1.4-.36-.35-.87-.52-1.55-.52s-1.2.17-1.56.52c-.36.35-.54.81-.54,1.4,0,.28.05.54.14.78.09.24.23.44.4.61.18.17.39.3.65.4s.56.14.9.14Z" style="fill: #fff; stroke-width: 0px;"/>
        <path d="m34.48,303.26l-5.35,12.43c-.06.13-.13.23-.21.3-.09.08-.22.11-.39.11h-1.25l1.75-3.81-3.96-9.04h1.46c.15,0,.26.04.35.11.09.07.14.15.18.24l2.57,6.04c.1.27.19.54.26.83.09-.3.18-.58.28-.84l2.49-6.03c.04-.1.1-.19.19-.25.09-.07.19-.1.31-.1h1.34Z" style="fill: #fff; stroke-width: 0px;"/>
        <path d="m37.57,304.74c.4-.5.87-.9,1.4-1.2.53-.3,1.14-.46,1.82-.46.56,0,1.06.11,1.51.32.45.21.83.52,1.15.94.32.41.56.93.73,1.54.17.61.26,1.32.26,2.11,0,.71-.09,1.37-.28,1.97s-.46,1.14-.82,1.58c-.36.45-.79.8-1.31,1.05s-1.09.38-1.74.38c-.59,0-1.09-.1-1.51-.3-.42-.2-.79-.47-1.11-.83v4.24h-1.7v-12.84h1.01c.24,0,.39.12.45.35l.15,1.14Zm.09,5.8c.31.42.65.71,1.01.88.37.17.78.25,1.23.25.9,0,1.58-.32,2.06-.96s.72-1.55.72-2.73c0-.62-.06-1.16-.17-1.61s-.27-.82-.48-1.1c-.21-.29-.46-.5-.77-.63-.3-.13-.65-.2-1.03-.2-.55,0-1.03.13-1.44.38-.41.25-.79.61-1.14,1.07v4.64Z" style="fill: #fff; stroke-width: 0px;"/>
        <path d="m49.4,313c-.76,0-1.34-.21-1.75-.63-.41-.42-.61-1.03-.61-1.83v-5.87h-1.16c-.1,0-.19-.03-.26-.09-.07-.06-.1-.15-.1-.28v-.67l1.57-.2.39-2.96c.02-.09.06-.17.13-.23.07-.06.15-.09.26-.09h.85v3.31h2.77v1.22h-2.77v5.76c0,.4.1.7.29.9.2.2.45.29.76.29.18,0,.33-.02.46-.07.13-.05.24-.1.34-.16.09-.06.18-.11.24-.16.07-.05.12-.07.18-.07.09,0,.17.05.24.16l.49.8c-.29.27-.64.48-1.05.64-.41.15-.83.23-1.27.23Z" style="fill: #fff; stroke-width: 0px;"/>
      </g>
      <g style="isolation: isolate;">
        <path d="m263.19,401.26v1.44h-8.08v-13.1h8.07v1.44h-6.3v4.35h5.1v1.39h-5.1v4.47h6.31Z" style="fill: #fff; stroke-width: 0px;"/>
        <path d="m267.72,402.85c-.73,0-1.29-.2-1.69-.61-.39-.41-.59-1-.59-1.76v-5.67h-1.12c-.1,0-.18-.03-.25-.09-.07-.06-.1-.15-.1-.27v-.65l1.52-.19.38-2.86c.02-.09.06-.17.12-.22.06-.06.15-.09.25-.09h.82v3.19h2.68v1.18h-2.68v5.56c0,.39.09.68.28.87.19.19.43.28.73.28.17,0,.32-.02.44-.07s.23-.1.33-.15c.09-.05.17-.11.23-.15.06-.04.12-.07.17-.07.09,0,.16.05.23.16l.48.78c-.28.26-.62.47-1.01.62-.4.15-.8.22-1.22.22Z" style="fill: #fff; stroke-width: 0px;"/>
        <path d="m273.07,394.68c.4-.42.83-.76,1.32-1,.48-.25,1.04-.38,1.66-.38.51,0,.95.08,1.34.25.39.17.71.41.97.71s.46.68.59,1.11c.13.43.2.91.2,1.44v5.89h-1.64v-5.89c0-.7-.16-1.25-.48-1.63-.32-.39-.81-.58-1.46-.58-.48,0-.93.12-1.35.35-.42.23-.8.55-1.16.94v6.82h-1.64v-13.46h1.64v5.44Z" style="fill: #fff; stroke-width: 0px;"/>
        <path d="m283.7,390.54c0,.16-.03.31-.1.44-.06.14-.15.26-.26.37s-.23.19-.37.25c-.14.06-.29.09-.45.09s-.31-.03-.44-.09c-.14-.06-.26-.14-.36-.25s-.19-.23-.25-.37c-.06-.14-.09-.28-.09-.44s.03-.31.09-.45c.06-.14.14-.27.25-.37.1-.11.22-.19.36-.25.14-.06.29-.09.44-.09s.31.03.45.09c.14.06.27.14.37.25.11.11.19.23.26.37.06.14.1.29.1.45Zm-.35,2.91v9.26h-1.63v-9.26h1.63Z" style="fill: #fff; stroke-width: 0px;"/>
        <path d="m289.92,393.3c.68,0,1.29.11,1.83.34.54.23,1,.55,1.39.96s.68.92.88,1.5.31,1.25.31,1.97-.1,1.39-.31,1.97-.5,1.08-.88,1.5c-.38.42-.85.73-1.39.96-.54.22-1.15.33-1.83.33s-1.3-.11-1.84-.33c-.54-.22-1.01-.54-1.39-.96-.38-.41-.68-.91-.88-1.5s-.31-1.24-.31-1.97.1-1.38.31-1.97.5-1.09.88-1.5.85-.73,1.39-.96,1.16-.34,1.84-.34Zm0,8.26c.91,0,1.6-.31,2.05-.92s.68-1.47.68-2.56-.23-1.96-.68-2.58c-.45-.62-1.13-.92-2.05-.92-.46,0-.87.08-1.21.24-.34.16-.63.39-.86.69-.23.3-.4.67-.51,1.1-.11.44-.17.93-.17,1.48,0,1.1.23,1.95.68,2.56s1.14.92,2.07.92Z" style="fill: #fff; stroke-width: 0px;"/>
        <path d="m297.93,394.88c.39-.48.84-.87,1.35-1.16.51-.29,1.1-.44,1.75-.44.54,0,1.02.1,1.45.31s.8.51,1.11.9c.3.4.54.89.7,1.49.16.59.25,1.27.25,2.04,0,.68-.09,1.32-.27,1.91-.18.59-.45,1.1-.79,1.53-.34.43-.76.77-1.26,1.01-.5.25-1.06.37-1.68.37-.57,0-1.05-.1-1.46-.29-.41-.19-.76-.46-1.07-.8v4.09h-1.64v-12.39h.98c.23,0,.38.11.43.34l.15,1.1Zm.08,5.59c.3.4.62.69.98.85.35.16.75.25,1.19.25.87,0,1.53-.31,1.99-.92.46-.62.69-1.49.69-2.63,0-.6-.05-1.12-.16-1.55-.11-.43-.26-.79-.46-1.06s-.45-.48-.74-.61c-.29-.13-.62-.19-1-.19-.53,0-1,.12-1.39.37-.4.24-.77.59-1.1,1.03v4.48Z" style="fill: #fff; stroke-width: 0px;"/>
        <path d="m308.69,390.54c0,.16-.03.31-.1.44-.06.14-.15.26-.26.37s-.23.19-.37.25c-.14.06-.29.09-.45.09s-.31-.03-.44-.09c-.14-.06-.26-.14-.36-.25s-.19-.23-.25-.37c-.06-.14-.09-.28-.09-.44s.03-.31.09-.45c.06-.14.14-.27.25-.37.1-.11.22-.19.36-.25.14-.06.29-.09.44-.09s.31.03.45.09c.14.06.27.14.37.25.11.11.19.23.26.37.06.14.1.29.1.45Zm-.35,2.91v9.26h-1.63v-9.26h1.63Z" style="fill: #fff; stroke-width: 0px;"/>
        <path d="m310.77,394.75c.51-.49,1.06-.86,1.65-1.11.59-.24,1.25-.37,1.96-.37.52,0,.98.09,1.38.26.4.17.74.41,1.01.71.27.3.48.67.62,1.11.14.43.21.91.21,1.43v5.92h-.72c-.16,0-.28-.03-.37-.08-.08-.05-.15-.15-.2-.31l-.18-.88c-.24.23-.48.43-.71.6-.23.17-.47.32-.73.44-.26.12-.53.21-.82.27-.29.06-.61.1-.96.1s-.7-.05-1.01-.15c-.32-.1-.59-.25-.83-.45s-.42-.46-.56-.76-.21-.67-.21-1.09c0-.37.1-.72.3-1.06.2-.34.53-.64.98-.9.45-.26,1.04-.48,1.76-.64.72-.17,1.61-.26,2.67-.29v-.72c0-.72-.16-1.26-.47-1.63-.31-.37-.76-.55-1.36-.55-.4,0-.74.05-1.01.15-.27.1-.51.21-.7.34-.2.12-.37.24-.51.34-.14.1-.29.15-.42.15-.11,0-.2-.03-.28-.09-.08-.06-.15-.13-.2-.21l-.29-.52Zm5.26,3.78c-.75.02-1.39.08-1.92.18-.53.09-.96.22-1.29.37s-.57.33-.72.54-.22.44-.22.69.04.45.12.63.19.32.33.43c.14.11.3.19.48.25.19.05.38.08.6.08.29,0,.55-.03.79-.09.24-.06.46-.14.67-.25.21-.11.41-.24.6-.39s.38-.33.56-.52v-1.92Z" style="fill: #fff; stroke-width: 0px;"/>
      </g>
      <g style="isolation: isolate;">
        <path d="m261.88,81.27c-.05.09-.12.16-.18.21-.06.05-.14.07-.24.07-.1,0-.23-.05-.37-.16-.14-.1-.32-.22-.53-.35-.21-.13-.47-.24-.77-.35-.3-.1-.66-.16-1.08-.16-.4,0-.75.05-1.06.16s-.56.25-.77.44-.36.4-.47.65-.16.52-.16.81c0,.37.09.67.27.92.18.24.42.45.72.62.3.17.64.32,1.01.45.38.13.76.26,1.16.39.4.14.78.29,1.16.46.38.17.72.38,1.01.64.3.26.54.57.72.95.18.38.27.84.27,1.38,0,.58-.1,1.12-.29,1.63-.2.51-.48.95-.86,1.32s-.84.67-1.39.89c-.55.22-1.18.32-1.88.32-.86,0-1.64-.16-2.34-.47-.7-.31-1.3-.73-1.8-1.26l.52-.85c.05-.07.11-.12.18-.17.07-.05.15-.07.24-.07.08,0,.17.03.27.1s.22.15.35.24c.13.1.28.21.44.32.17.12.36.22.57.32.21.1.45.18.72.24s.58.1.91.1c.42,0,.8-.06,1.13-.18.33-.12.61-.28.84-.49s.41-.47.53-.76c.12-.3.18-.62.18-.99,0-.4-.09-.73-.27-.98-.18-.25-.42-.47-.71-.64-.29-.17-.63-.32-1.01-.44-.38-.12-.77-.24-1.16-.37-.39-.13-.78-.27-1.16-.44-.38-.17-.72-.38-1.01-.65s-.53-.59-.71-.99c-.18-.4-.27-.89-.27-1.47,0-.47.09-.92.27-1.36s.45-.82.79-1.16c.35-.34.77-.61,1.28-.81.51-.2,1.09-.3,1.75-.3.74,0,1.41.12,2.02.35.61.23,1.14.57,1.6,1.01l-.43.85Z" style="fill: #1a1a1a; stroke-width: 0px;"/>
        <path d="m268.62,82.93c.68,0,1.3.11,1.84.34.55.23,1.01.55,1.4.97.39.42.68.92.89,1.52s.31,1.26.31,1.99-.1,1.4-.31,1.99-.5,1.09-.89,1.51c-.39.42-.85.74-1.4.96-.55.22-1.16.34-1.84.34s-1.31-.11-1.86-.34c-.55-.22-1.02-.55-1.41-.96-.39-.42-.68-.92-.89-1.51-.21-.59-.31-1.25-.31-1.99s.1-1.39.31-1.99c.21-.59.5-1.1.89-1.52s.86-.74,1.41-.97,1.17-.34,1.86-.34Zm0,8.34c.92,0,1.61-.31,2.07-.93.46-.62.68-1.48.68-2.59s-.23-1.98-.68-2.6-1.14-.93-2.07-.93c-.47,0-.88.08-1.22.24-.35.16-.64.39-.87.69s-.4.67-.52,1.11c-.11.44-.17.94-.17,1.49,0,1.11.23,1.97.69,2.59.46.62,1.15.93,2.09.93Z" style="fill: #1a1a1a; stroke-width: 0px;"/>
        <path d="m282.83,83.08v9.34h-.98c-.23,0-.38-.11-.44-.34l-.13-1.01c-.41.45-.86.81-1.37,1.08s-1.08.41-1.73.41c-.51,0-.96-.08-1.35-.25s-.72-.41-.98-.71c-.26-.31-.46-.68-.59-1.12s-.2-.92-.2-1.45v-5.96h1.64v5.96c0,.71.16,1.25.48,1.64.32.39.82.58,1.48.58.49,0,.94-.12,1.36-.35.42-.23.81-.55,1.17-.95v-6.88h1.64Z" style="fill: #1a1a1a; stroke-width: 0px;"/>
        <path d="m288.3,92.57c-.74,0-1.31-.21-1.7-.62-.4-.41-.59-1.01-.59-1.78v-5.72h-1.12c-.1,0-.18-.03-.25-.09s-.1-.15-.1-.27v-.65l1.53-.19.38-2.89c.02-.09.06-.17.12-.23s.15-.09.25-.09h.83v3.22h2.7v1.19h-2.7v5.61c0,.39.1.69.29.88.19.19.44.29.74.29.17,0,.32-.02.45-.07s.24-.1.33-.15c.09-.06.17-.11.23-.15.06-.05.12-.07.17-.07.09,0,.16.05.23.16l.48.78c-.28.26-.62.47-1.02.62-.4.15-.81.23-1.24.23Z" style="fill: #1a1a1a; stroke-width: 0px;"/>
        <path d="m293.69,84.32c.4-.42.84-.76,1.33-1.01.49-.25,1.04-.38,1.68-.38.51,0,.96.08,1.35.25.39.17.72.41.98.72s.46.68.59,1.12c.14.44.2.92.2,1.45v5.95h-1.65v-5.95c0-.71-.16-1.26-.48-1.65-.32-.39-.81-.59-1.47-.59-.49,0-.94.12-1.36.35-.42.23-.81.55-1.17.95v6.88h-1.65v-13.58h1.65v5.49Z" style="fill: #1a1a1a; stroke-width: 0px;"/>
        <path d="m314.2,81.27c-.05.09-.12.16-.18.21-.06.05-.14.07-.24.07-.1,0-.23-.05-.37-.16-.14-.1-.32-.22-.53-.35-.21-.13-.47-.24-.77-.35-.3-.1-.66-.16-1.08-.16-.4,0-.75.05-1.06.16s-.56.25-.77.44-.36.4-.47.65-.16.52-.16.81c0,.37.09.67.27.92.18.24.42.45.72.62.3.17.64.32,1.01.45.38.13.76.26,1.16.39.4.14.78.29,1.16.46.38.17.72.38,1.01.64.3.26.54.57.72.95.18.38.27.84.27,1.38,0,.58-.1,1.12-.29,1.63-.2.51-.48.95-.86,1.32s-.84.67-1.39.89c-.55.22-1.18.32-1.88.32-.86,0-1.64-.16-2.34-.47-.7-.31-1.3-.73-1.8-1.26l.52-.85c.05-.07.11-.12.18-.17.07-.05.15-.07.24-.07.08,0,.17.03.27.1s.22.15.35.24c.13.1.28.21.44.32.17.12.36.22.57.32.21.1.45.18.72.24s.58.1.91.1c.42,0,.8-.06,1.13-.18.33-.12.61-.28.84-.49s.41-.47.53-.76c.12-.3.18-.62.18-.99,0-.4-.09-.73-.27-.98-.18-.25-.42-.47-.71-.64-.29-.17-.63-.32-1.01-.44-.38-.12-.77-.24-1.16-.37-.39-.13-.78-.27-1.16-.44-.38-.17-.72-.38-1.01-.65s-.53-.59-.71-.99c-.18-.4-.27-.89-.27-1.47,0-.47.09-.92.27-1.36s.45-.82.79-1.16c.35-.34.77-.61,1.28-.81.51-.2,1.09-.3,1.75-.3.74,0,1.41.12,2.02.35.61.23,1.14.57,1.6,1.01l-.43.85Z" style="fill: #1a1a1a; stroke-width: 0px;"/>
        <path d="m324.56,83.08v9.34h-.98c-.23,0-.38-.11-.44-.34l-.13-1.01c-.41.45-.86.81-1.37,1.08s-1.08.41-1.73.41c-.51,0-.96-.08-1.35-.25s-.72-.41-.98-.71c-.26-.31-.46-.68-.59-1.12s-.2-.92-.2-1.45v-5.96h1.64v5.96c0,.71.16,1.25.48,1.64.32.39.82.58,1.48.58.49,0,.94-.12,1.36-.35.42-.23.81-.55,1.17-.95v-6.88h1.64Z" style="fill: #1a1a1a; stroke-width: 0px;"/>
        <path d="m334.89,78.83v13.58h-.98c-.23,0-.38-.11-.44-.34l-.15-1.13c-.4.48-.85.87-1.37,1.16-.51.29-1.1.44-1.77.44-.54,0-1.02-.1-1.46-.31-.44-.21-.81-.51-1.12-.91-.31-.4-.54-.9-.71-1.49-.17-.6-.25-1.28-.25-2.06,0-.69.09-1.33.28-1.92.18-.59.45-1.11.79-1.54.34-.44.77-.78,1.27-1.03s1.07-.37,1.69-.37c.57,0,1.06.1,1.47.29.41.19.77.46,1.09.81v-5.17h1.64Zm-1.64,6.46c-.31-.41-.64-.7-1-.86-.36-.16-.76-.24-1.2-.24-.87,0-1.53.31-2,.93-.47.62-.7,1.51-.7,2.66,0,.61.05,1.13.16,1.56s.26.79.46,1.07c.2.28.45.48.75.61.3.13.63.19,1.01.19.54,0,1.01-.12,1.42-.37.4-.25.77-.59,1.11-1.04v-4.51Z" style="fill: #1a1a1a; stroke-width: 0px;"/>
        <path d="m337.25,84.39c.52-.5,1.07-.87,1.67-1.12.6-.25,1.26-.37,1.98-.37.52,0,.99.09,1.39.26.41.17.75.41,1.02.72.28.31.49.68.63,1.12s.21.92.21,1.44v5.98h-.73c-.16,0-.28-.03-.37-.08-.09-.05-.15-.15-.2-.31l-.18-.89c-.25.23-.49.43-.72.6s-.48.32-.74.44c-.26.12-.53.21-.83.28-.29.06-.62.1-.97.1s-.7-.05-1.02-.15c-.32-.1-.6-.25-.83-.46-.24-.2-.42-.46-.56-.77-.14-.31-.21-.68-.21-1.1,0-.37.1-.72.3-1.07.2-.34.53-.64.99-.91.46-.26,1.05-.48,1.78-.65.73-.17,1.63-.27,2.69-.29v-.73c0-.73-.16-1.27-.47-1.65-.31-.37-.77-.56-1.37-.56-.41,0-.75.05-1.02.15-.27.1-.51.22-.71.34-.2.13-.37.24-.52.34-.14.1-.29.15-.43.15-.11,0-.21-.03-.29-.09-.08-.06-.15-.13-.2-.22l-.29-.53Zm5.3,3.82c-.76.02-1.4.08-1.93.18-.53.1-.97.22-1.3.37s-.58.33-.73.54-.23.44-.23.7.04.46.12.64c.08.18.19.32.33.44.14.11.3.2.49.25s.39.08.6.08c.29,0,.55-.03.79-.09.24-.06.47-.14.68-.25.21-.11.42-.24.61-.4.19-.15.38-.33.57-.53v-1.94Z" style="fill: #1a1a1a; stroke-width: 0px;"/>
        <path d="m348.2,84.43c.2-.23.42-.43.65-.62s.47-.34.72-.47c.26-.13.53-.23.81-.3.29-.07.6-.11.93-.11.51,0,.96.08,1.35.25.39.17.72.41.98.72s.46.68.59,1.12c.14.44.2.92.2,1.45v5.95h-1.65v-5.95c0-.71-.16-1.26-.48-1.65-.32-.39-.81-.59-1.47-.59-.49,0-.94.12-1.36.35-.42.23-.81.55-1.17.95v6.88h-1.65v-9.34h.99c.23,0,.38.11.43.34l.13,1.01Z" style="fill: #1a1a1a; stroke-width: 0px;"/>
      </g>
    </g>
  </g>
  <g>
    <path d="m13.8.4v14.46h-1.38c-.21,0-.39-.04-.54-.1s-.28-.19-.42-.35L3.92,4.76c.04.44.06.85.06,1.22v8.88H1.61V.4h1.41c.11,0,.21,0,.29.02.08,0,.16.03.22.06.06.03.12.07.18.13s.13.13.2.23l7.58,9.68c-.02-.23-.04-.46-.05-.69-.01-.23-.02-.44-.02-.63V.4h2.37Z" style="stroke-width: 0px;"/>
    <path d="m18.53,10.04c.04.53.13.98.28,1.36s.34.7.58.95.52.44.85.56c.33.12.7.19,1.1.19s.74-.05,1.03-.14.54-.2.76-.31c.22-.11.41-.22.57-.31.16-.09.32-.14.48-.14.21,0,.36.08.46.23l.71.9c-.27.32-.58.59-.92.8-.34.22-.7.39-1.07.52s-.75.22-1.13.27-.75.08-1.12.08c-.71,0-1.38-.12-1.99-.35-.61-.24-1.15-.59-1.6-1.05s-.81-1.04-1.07-1.72c-.26-.68-.39-1.48-.39-2.38,0-.7.11-1.36.34-1.98.23-.62.55-1.15.98-1.61.42-.46.94-.82,1.55-1.08.61-.27,1.3-.4,2.06-.4.65,0,1.24.1,1.79.31.55.21,1.02.51,1.41.9.39.4.7.88.92,1.46.22.58.33,1.24.33,1.98,0,.37-.04.62-.12.75-.08.13-.23.2-.46.2h-6.35Zm4.71-1.49c0-.32-.04-.62-.13-.9s-.22-.53-.41-.75c-.18-.21-.41-.38-.68-.5-.28-.12-.6-.19-.96-.19-.71,0-1.28.2-1.69.61s-.67.98-.79,1.73h4.66Z" style="stroke-width: 0px;"/>
    <path d="m41.96,4.6l-3.26,10.26h-1.98c-.23,0-.38-.15-.47-.44l-1.84-5.93c-.06-.2-.11-.4-.17-.59-.05-.2-.09-.4-.12-.6-.04.2-.08.4-.13.6-.05.2-.1.41-.17.6l-1.87,5.91c-.08.29-.26.44-.53.44h-1.9l-3.25-10.26h1.97c.18,0,.33.04.46.13.13.09.21.2.25.33l1.47,5.48c.07.3.14.59.19.88s.11.57.15.86c.07-.29.15-.57.23-.86.08-.29.17-.58.27-.88l1.7-5.5c.04-.13.12-.24.23-.33.12-.09.26-.13.42-.13h1.09c.17,0,.32.04.44.13.12.09.21.2.25.33l1.65,5.5c.09.3.17.59.25.88.08.29.15.58.22.87.09-.57.21-1.15.37-1.75l1.51-5.48c.05-.13.13-.24.25-.33.12-.09.26-.13.43-.13h1.88Z" style="stroke-width: 0px;"/>
    <path d="m45.86,0v14.86h-2.47V0h2.47Z" style="stroke-width: 0px;"/>
    <path d="m57.65,4.6l-5.59,13.08c-.07.17-.17.31-.29.4-.12.09-.29.14-.54.14h-1.84l1.92-4.12-4.15-9.49h2.17c.19,0,.34.05.45.14.11.09.19.2.25.32l2.18,5.32c.07.18.13.36.18.54s.1.36.15.55c.06-.19.12-.37.18-.55.06-.18.13-.37.2-.55l2.06-5.31c.05-.13.14-.24.26-.33.12-.09.26-.13.42-.13h1.98Z" style="stroke-width: 0px;"/>
    <path d="m63.5,6.03c1.18-1.08,2.6-1.62,4.26-1.62.6,0,1.14.1,1.61.3.47.2.87.47,1.2.82.33.35.58.77.75,1.25.17.49.25,1.02.25,1.6v6.48h-1.12c-.23,0-.41-.04-.54-.1-.13-.07-.23-.21-.3-.42l-.22-.74c-.26.23-.51.44-.76.62-.25.18-.5.32-.77.44s-.55.21-.85.27c-.3.06-.64.1-1,.1-.43,0-.83-.06-1.2-.18-.37-.12-.68-.29-.95-.52s-.47-.52-.62-.87c-.15-.35-.22-.75-.22-1.21,0-.26.04-.52.13-.77.09-.26.23-.5.42-.73s.45-.45.76-.66.7-.39,1.16-.54.99-.28,1.59-.38c.61-.1,1.3-.15,2.08-.17v-.6c0-.69-.15-1.19-.44-1.52-.29-.33-.72-.5-1.27-.5-.4,0-.73.05-1,.14-.26.09-.49.2-.69.31s-.38.22-.54.31c-.16.09-.35.14-.54.14-.17,0-.32-.04-.44-.14-.12-.09-.22-.19-.29-.31l-.44-.79Zm5.66,4.45c-.71.03-1.31.09-1.8.19-.49.09-.88.2-1.17.34s-.5.3-.63.49-.19.39-.19.61c0,.43.13.74.39.93.26.19.59.28,1,.28.51,0,.94-.09,1.31-.27.37-.18.73-.46,1.08-.83v-1.73Z" style="stroke-width: 0px;"/>
    <path d="m76.22,6.38c.32-.61.7-1.1,1.14-1.44.44-.35.96-.53,1.56-.53.47,0,.85.1,1.14.31l-.16,1.85c-.03.12-.08.21-.15.25-.06.05-.15.08-.25.08-.1,0-.25-.02-.45-.05-.2-.03-.39-.05-.58-.05-.27,0-.52.04-.73.12-.21.08-.41.19-.58.34-.17.15-.32.33-.45.55s-.25.46-.36.73v6.32h-2.47V4.6h1.45c.25,0,.43.04.53.13.1.09.17.25.2.48l.15,1.16Z" style="stroke-width: 0px;"/>
    <path d="m83.68,6.38c.32-.61.7-1.1,1.14-1.44.44-.35.96-.53,1.56-.53.47,0,.85.1,1.14.31l-.16,1.85c-.03.12-.08.21-.15.25-.06.05-.15.08-.25.08-.1,0-.25-.02-.45-.05-.2-.03-.39-.05-.58-.05-.27,0-.52.04-.73.12-.21.08-.41.19-.58.34-.17.15-.32.33-.45.55s-.25.46-.36.73v6.32h-2.47V4.6h1.45c.25,0,.43.04.53.13.1.09.17.25.2.48l.15,1.16Z" style="stroke-width: 0px;"/>
    <path d="m91.71,1.61c0,.21-.04.41-.13.6-.09.19-.2.35-.35.49-.14.14-.31.25-.5.33-.19.08-.4.12-.62.12s-.41-.04-.6-.12c-.19-.08-.36-.19-.5-.33-.14-.14-.25-.3-.33-.49s-.12-.39-.12-.6.04-.43.12-.62.2-.36.33-.5c.14-.14.3-.25.5-.33.19-.08.39-.12.6-.12s.43.04.62.12c.19.08.36.2.5.33.14.14.26.31.35.5.09.19.13.4.13.62Zm-.34,2.99v10.26h-2.48V4.6h2.48Z" style="stroke-width: 0px;"/>
    <path d="m103.14,4.6l-4.07,10.26h-2.24l-4.07-10.26h2.04c.19,0,.34.04.46.13.12.09.21.2.25.33l1.98,5.48c.11.32.2.63.28.94s.15.61.21.92c.07-.31.14-.61.22-.92s.18-.62.29-.94l2.02-5.48c.05-.13.13-.24.25-.33.12-.09.26-.13.43-.13h1.95Z" style="stroke-width: 0px;"/>
    <path d="m106.35,10.04c.04.53.13.98.28,1.36.15.38.34.7.58.95.24.25.52.44.85.56.33.12.7.19,1.09.19s.75-.05,1.04-.14.54-.2.76-.31.41-.22.57-.31.32-.14.47-.14c.21,0,.36.08.46.23l.71.9c-.27.32-.58.59-.92.8-.34.22-.69.39-1.06.52s-.75.22-1.13.27c-.38.05-.75.08-1.12.08-.71,0-1.38-.12-1.99-.35-.61-.24-1.15-.59-1.6-1.05s-.81-1.04-1.07-1.72c-.26-.68-.39-1.48-.39-2.38,0-.7.11-1.36.34-1.98.23-.62.55-1.15.97-1.61.42-.46.94-.82,1.55-1.08.61-.27,1.3-.4,2.06-.4.65,0,1.24.1,1.79.31s1.02.51,1.41.9c.39.4.7.88.92,1.46s.33,1.24.33,1.98c0,.37-.04.62-.12.75-.08.13-.23.2-.46.2h-6.35Zm4.71-1.49c0-.32-.04-.62-.13-.9s-.23-.53-.41-.75-.41-.38-.68-.5c-.28-.12-.6-.19-.97-.19-.71,0-1.27.2-1.68.61s-.67.98-.79,1.73h4.66Z" style="stroke-width: 0px;"/>
    <path d="m124.04,0v14.86h-1.51c-.33,0-.53-.15-.62-.45l-.21-.99c-.41.47-.89.86-1.42,1.15-.54.29-1.16.44-1.88.44-.56,0-1.07-.12-1.54-.35-.47-.23-.87-.57-1.21-1.01s-.6-.99-.78-1.65-.27-1.4-.27-2.24c0-.76.1-1.47.31-2.12.21-.65.5-1.22.89-1.7s.85-.85,1.39-1.12,1.15-.41,1.82-.41c.57,0,1.06.09,1.47.27.41.18.77.42,1.09.73V0h2.47Zm-2.47,7.22c-.28-.34-.58-.58-.92-.72-.33-.14-.69-.21-1.07-.21s-.71.07-1.01.21c-.3.14-.56.35-.77.63-.21.28-.38.64-.49,1.08s-.17.95-.17,1.54.05,1.11.14,1.52c.1.42.24.76.42,1.02.18.26.4.45.66.57s.55.17.87.17c.51,0,.95-.11,1.31-.32.36-.21.7-.52,1.02-.91v-4.6Z" style="stroke-width: 0px;"/>
    <path d="m133.67,6.38c.32-.61.7-1.1,1.14-1.44.44-.35.96-.53,1.56-.53.47,0,.85.1,1.14.31l-.16,1.85c-.03.12-.08.21-.15.25-.06.05-.15.08-.25.08-.1,0-.25-.02-.45-.05-.2-.03-.39-.05-.58-.05-.27,0-.52.04-.73.12-.21.08-.41.19-.58.34-.17.15-.32.33-.45.55s-.25.46-.36.73v6.32h-2.47V4.6h1.45c.25,0,.43.04.53.13.1.09.17.25.2.48l.15,1.16Z" style="fill: #0072bc; stroke-width: 0px;"/>
    <path d="m140.7,10.04c.04.53.13.98.28,1.36.15.38.34.7.58.95.24.25.52.44.85.56.33.12.7.19,1.09.19s.75-.05,1.04-.14.54-.2.76-.31.41-.22.57-.31.32-.14.47-.14c.21,0,.36.08.46.23l.71.9c-.27.32-.58.59-.92.8-.34.22-.69.39-1.06.52s-.75.22-1.13.27c-.38.05-.75.08-1.12.08-.71,0-1.38-.12-1.99-.35-.61-.24-1.15-.59-1.6-1.05s-.81-1.04-1.07-1.72c-.26-.68-.39-1.48-.39-2.38,0-.7.11-1.36.34-1.98.23-.62.55-1.15.97-1.61.42-.46.94-.82,1.55-1.08.61-.27,1.3-.4,2.06-.4.65,0,1.24.1,1.79.31s1.02.51,1.41.9c.39.4.7.88.92,1.46s.33,1.24.33,1.98c0,.37-.04.62-.12.75-.08.13-.23.2-.46.2h-6.35Zm4.71-1.49c0-.32-.04-.62-.13-.9s-.23-.53-.41-.75-.41-.38-.68-.5c-.28-.12-.6-.19-.97-.19-.71,0-1.27.2-1.68.61s-.67.98-.79,1.73h4.66Z" style="fill: #0072bc; stroke-width: 0px;"/>
    <path d="m150.2,14.86V6.46l-.89-.14c-.19-.04-.35-.11-.46-.21s-.17-.23-.17-.42v-1.01h1.53v-.76c0-.59.09-1.11.26-1.58.18-.47.43-.86.76-1.19.33-.33.73-.58,1.21-.75.47-.17,1.01-.26,1.6-.26.47,0,.91.06,1.32.19l-.05,1.24c0,.09-.03.17-.08.22-.05.06-.11.1-.18.13-.08.03-.17.05-.27.06-.1.01-.21.02-.32.02-.29,0-.56.03-.79.1-.23.06-.42.17-.58.33s-.28.36-.37.62c-.08.26-.12.58-.12.96v.68h2.67v1.76h-2.59v8.41h-2.47Z" style="fill: #0072bc; stroke-width: 0px;"/>
    <path d="m165.49,4.6v10.26h-1.51c-.33,0-.53-.15-.62-.45l-.17-.82c-.42.43-.88.77-1.39,1.04s-1.1.4-1.79.4c-.56,0-1.05-.1-1.49-.29-.43-.19-.79-.46-1.08-.81-.29-.35-.51-.76-.67-1.23-.15-.48-.22-1-.22-1.58v-6.52h2.47v6.52c0,.63.15,1.11.44,1.46.29.34.72.52,1.3.52.43,0,.83-.1,1.2-.29.37-.19.73-.45,1.06-.78v-7.42h2.47Z" style="fill: #0072bc; stroke-width: 0px;"/>
    <path d="m176.93,4.95v.92c0,.29-.18.47-.53.54l-.92.17c.14.35.21.74.21,1.16,0,.51-.1.97-.31,1.38-.2.41-.48.76-.84,1.04-.36.29-.79.51-1.28.67-.49.16-1.02.24-1.58.24-.2,0-.39-.01-.58-.03s-.37-.05-.55-.08c-.32.19-.48.41-.48.65,0,.21.09.36.28.45.19.1.44.17.76.21.31.04.67.06,1.07.08.4,0,.81.03,1.23.06s.83.09,1.23.17c.4.08.76.22,1.07.4.31.18.57.43.75.74.19.31.29.71.29,1.19,0,.45-.11.89-.33,1.32s-.55.81-.97,1.14c-.42.33-.94.6-1.56.81-.62.2-1.32.3-2.1.3s-1.45-.07-2.02-.23c-.57-.15-1.05-.35-1.43-.6s-.66-.54-.85-.87c-.19-.33-.28-.67-.28-1.02,0-.48.14-.88.43-1.21s.69-.58,1.2-.77c-.27-.14-.49-.33-.65-.56-.16-.23-.24-.54-.24-.92,0-.15.03-.31.08-.48.06-.16.14-.32.25-.48.11-.16.25-.31.42-.46.17-.14.36-.27.59-.38-.52-.28-.93-.65-1.23-1.12s-.44-1.01-.44-1.64c0-.51.1-.96.3-1.38.2-.41.49-.76.85-1.05s.79-.51,1.29-.67c.5-.15,1.04-.23,1.62-.23.44,0,.85.04,1.24.13.39.09.74.22,1.06.4h2.95Zm-2.46,10.37c0-.2-.06-.36-.18-.49-.12-.13-.28-.23-.49-.3-.21-.07-.45-.12-.72-.15-.28-.03-.57-.06-.88-.08-.31-.02-.63-.03-.96-.04-.33-.01-.65-.04-.97-.08-.27.15-.49.33-.67.54-.17.21-.25.45-.25.72,0,.18.04.35.14.5.09.16.23.29.43.41.2.11.45.2.76.26s.7.1,1.15.1.86-.04,1.19-.1c.33-.07.61-.17.83-.29.22-.12.38-.27.48-.44.1-.17.15-.35.15-.56Zm-2.79-5.84c.31,0,.57-.04.8-.12s.42-.2.57-.35c.15-.15.26-.32.34-.53.08-.21.12-.43.12-.68,0-.51-.15-.91-.46-1.21-.3-.3-.76-.44-1.37-.44s-1.06.15-1.36.44c-.3.3-.46.7-.46,1.21,0,.24.04.46.11.67.08.21.19.39.34.54.15.15.34.27.57.35.23.08.5.12.79.12Z" style="fill: #0072bc; stroke-width: 0px;"/>
    <path d="m180.39,10.04c.04.53.13.98.28,1.36.15.38.34.7.58.95.24.25.52.44.85.56.33.12.7.19,1.09.19s.75-.05,1.04-.14.54-.2.76-.31.41-.22.57-.31.32-.14.47-.14c.21,0,.36.08.46.23l.71.9c-.27.32-.58.59-.92.8-.34.22-.69.39-1.06.52s-.75.22-1.13.27c-.38.05-.75.08-1.12.08-.71,0-1.38-.12-1.99-.35-.61-.24-1.15-.59-1.6-1.05s-.81-1.04-1.07-1.72c-.26-.68-.39-1.48-.39-2.38,0-.7.11-1.36.34-1.98.23-.62.55-1.15.97-1.61.42-.46.94-.82,1.55-1.08.61-.27,1.3-.4,2.06-.4.65,0,1.24.1,1.79.31s1.02.51,1.41.9c.39.4.7.88.92,1.46s.33,1.24.33,1.98c0,.37-.04.62-.12.75-.08.13-.23.2-.46.2h-6.35Zm4.71-1.49c0-.32-.04-.62-.13-.9s-.23-.53-.41-.75-.41-.38-.68-.5c-.28-.12-.6-.19-.97-.19-.71,0-1.27.2-1.68.61s-.67.98-.79,1.73h4.66Z" style="fill: #0072bc; stroke-width: 0px;"/>
    <path d="m191.07,10.04c.04.53.13.98.28,1.36.15.38.34.7.58.95.24.25.52.44.85.56.33.12.7.19,1.09.19s.75-.05,1.04-.14.54-.2.76-.31.41-.22.57-.31.32-.14.47-.14c.21,0,.36.08.46.23l.71.9c-.27.32-.58.59-.92.8-.34.22-.69.39-1.06.52s-.75.22-1.13.27c-.38.05-.75.08-1.12.08-.71,0-1.38-.12-1.99-.35-.61-.24-1.15-.59-1.6-1.05s-.81-1.04-1.07-1.72c-.26-.68-.39-1.48-.39-2.38,0-.7.11-1.36.34-1.98.23-.62.55-1.15.97-1.61.42-.46.94-.82,1.55-1.08.61-.27,1.3-.4,2.06-.4.65,0,1.24.1,1.79.31s1.02.51,1.41.9c.39.4.7.88.92,1.46s.33,1.24.33,1.98c0,.37-.04.62-.12.75-.08.13-.23.2-.46.2h-6.35Zm4.71-1.49c0-.32-.04-.62-.13-.9s-.23-.53-.41-.75-.41-.38-.68-.5c-.28-.12-.6-.19-.97-.19-.71,0-1.27.2-1.68.61s-.67.98-.79,1.73h4.66Z" style="fill: #0072bc; stroke-width: 0px;"/>
    <path d="m206.11,6.6c-.07.11-.14.18-.21.22-.07.04-.17.06-.28.06-.12,0-.25-.03-.38-.1-.14-.07-.3-.14-.48-.23s-.38-.16-.62-.23c-.23-.07-.5-.1-.81-.1-.49,0-.87.1-1.15.31-.28.21-.42.48-.42.81,0,.22.07.4.22.56.14.15.33.28.57.4s.5.21.81.3c.3.09.6.19.91.29.31.11.62.23.92.37.3.14.57.31.81.52.24.21.43.46.57.75.14.29.22.65.22,1.06,0,.49-.09.95-.27,1.37-.18.42-.44.78-.79,1.08-.35.3-.77.54-1.28.71-.51.17-1.1.26-1.77.26-.35,0-.7-.03-1.04-.1-.34-.06-.66-.15-.97-.27-.31-.11-.6-.25-.86-.4-.26-.15-.49-.32-.69-.5l.57-.94c.07-.11.16-.2.26-.26.1-.06.23-.09.38-.09s.3.04.43.13c.14.09.29.18.48.28.18.1.39.19.63.28.24.09.55.13.92.13.29,0,.54-.04.75-.1.21-.07.38-.16.52-.28.14-.11.24-.24.3-.4.06-.15.09-.3.09-.46,0-.24-.07-.44-.21-.59s-.33-.29-.57-.4c-.24-.11-.51-.22-.81-.31-.3-.09-.61-.19-.93-.29-.32-.11-.63-.23-.93-.38-.3-.14-.57-.33-.81-.54-.24-.22-.43-.49-.57-.81-.14-.32-.21-.71-.21-1.16,0-.42.08-.82.25-1.2.17-.38.41-.71.74-.99.32-.28.73-.51,1.21-.68s1.04-.25,1.67-.25c.71,0,1.35.12,1.93.35s1.06.54,1.45.92l-.56.89Z" style="fill: #0072bc; stroke-width: 0px;"/>
    <path d="m213.26,6.03c1.18-1.08,2.6-1.62,4.26-1.62.6,0,1.14.1,1.61.3.47.2.87.47,1.2.82.33.35.58.77.75,1.25.17.49.25,1.02.25,1.6v6.48h-1.12c-.23,0-.41-.04-.54-.1-.13-.07-.23-.21-.3-.42l-.22-.74c-.26.23-.51.44-.76.62-.25.18-.5.32-.77.44s-.55.21-.85.27c-.3.06-.64.1-1,.1-.43,0-.83-.06-1.2-.18-.37-.12-.68-.29-.95-.52s-.47-.52-.62-.87c-.15-.35-.22-.75-.22-1.21,0-.26.04-.52.13-.77.09-.26.23-.5.42-.73s.45-.45.76-.66.7-.39,1.16-.54.99-.28,1.59-.38c.61-.1,1.3-.15,2.08-.17v-.6c0-.69-.15-1.19-.44-1.52-.29-.33-.72-.5-1.27-.5-.4,0-.73.05-1,.14-.26.09-.49.2-.69.31s-.38.22-.54.31c-.16.09-.35.14-.54.14-.17,0-.32-.04-.44-.14-.12-.09-.22-.19-.29-.31l-.44-.79Zm5.66,4.45c-.71.03-1.31.09-1.8.19-.49.09-.88.2-1.17.34s-.5.3-.63.49-.19.39-.19.61c0,.43.13.74.39.93.26.19.59.28,1,.28.51,0,.94-.09,1.31-.27.37-.18.73-.46,1.08-.83v-1.73Z" style="stroke-width: 0px;"/>
    <path d="m225.96,5.86c.21-.21.42-.4.65-.58.23-.18.47-.33.73-.45s.53-.22.83-.29c.29-.07.61-.1.96-.1.56,0,1.06.09,1.49.29.43.19.79.46,1.08.8s.51.75.66,1.23c.15.48.23,1,.23,1.58v6.53h-2.47v-6.53c0-.63-.14-1.11-.43-1.46-.29-.34-.72-.52-1.31-.52-.43,0-.83.1-1.2.29s-.73.46-1.06.79v7.42h-2.47V4.6h1.51c.32,0,.53.15.63.45l.17.81Z" style="stroke-width: 0px;"/>
    <path d="m243.84,0v14.86h-1.51c-.33,0-.53-.15-.62-.45l-.21-.99c-.41.47-.89.86-1.42,1.15-.54.29-1.16.44-1.88.44-.56,0-1.07-.12-1.54-.35-.47-.23-.87-.57-1.21-1.01s-.6-.99-.78-1.65-.27-1.4-.27-2.24c0-.76.1-1.47.31-2.12.21-.65.5-1.22.89-1.7s.85-.85,1.39-1.12,1.15-.41,1.82-.41c.57,0,1.06.09,1.47.27.41.18.77.42,1.09.73V0h2.47Zm-2.47,7.22c-.28-.34-.58-.58-.92-.72-.33-.14-.69-.21-1.07-.21s-.71.07-1.01.21c-.3.14-.56.35-.77.63-.21.28-.38.64-.49,1.08s-.17.95-.17,1.54.05,1.11.14,1.52c.1.42.24.76.42,1.02.18.26.4.45.66.57s.55.17.87.17c.51,0,.95-.11,1.31-.32.36-.21.7-.52,1.02-.91v-4.6Z" style="stroke-width: 0px;"/>
    <path d="m253.47,6.38c.32-.61.7-1.1,1.14-1.44.44-.35.96-.53,1.56-.53.47,0,.85.1,1.14.31l-.16,1.85c-.03.12-.08.21-.15.25-.06.05-.15.08-.25.08-.1,0-.25-.02-.45-.05-.2-.03-.39-.05-.58-.05-.27,0-.52.04-.73.12-.21.08-.41.19-.58.34-.17.15-.32.33-.45.55s-.25.46-.36.73v6.32h-2.47V4.6h1.45c.25,0,.43.04.53.13.1.09.17.25.2.48l.15,1.16Z" style="fill: #506489; stroke-width: 0px;"/>
    <path d="m260.5,10.04c.04.53.13.98.28,1.36.15.38.34.7.58.95.24.25.52.44.85.56.33.12.7.19,1.09.19s.75-.05,1.04-.14.54-.2.76-.31.41-.22.57-.31.32-.14.47-.14c.21,0,.36.08.46.23l.71.9c-.27.32-.58.59-.92.8-.34.22-.69.39-1.06.52s-.75.22-1.13.27c-.38.05-.75.08-1.12.08-.71,0-1.38-.12-1.99-.35-.61-.24-1.15-.59-1.6-1.05s-.81-1.04-1.07-1.72c-.26-.68-.39-1.48-.39-2.38,0-.7.11-1.36.34-1.98.23-.62.55-1.15.97-1.61.42-.46.94-.82,1.55-1.08.61-.27,1.3-.4,2.06-.4.65,0,1.24.1,1.79.31s1.02.51,1.41.9c.39.4.7.88.92,1.46s.33,1.24.33,1.98c0,.37-.04.62-.12.75-.08.13-.23.2-.46.2h-6.35Zm4.71-1.49c0-.32-.04-.62-.13-.9s-.23-.53-.41-.75-.41-.38-.68-.5c-.28-.12-.6-.19-.97-.19-.71,0-1.27.2-1.68.61s-.67.98-.79,1.73h4.66Z" style="fill: #506489; stroke-width: 0px;"/>
    <path d="m270,14.86V6.46l-.89-.14c-.19-.04-.35-.11-.46-.21s-.17-.23-.17-.42v-1.01h1.53v-.76c0-.59.09-1.11.26-1.58.18-.47.43-.86.76-1.19.33-.33.73-.58,1.21-.75.47-.17,1.01-.26,1.6-.26.47,0,.91.06,1.32.19l-.05,1.24c0,.09-.03.17-.08.22-.05.06-.11.1-.18.13-.08.03-.17.05-.27.06-.1.01-.21.02-.32.02-.29,0-.56.03-.79.1-.23.06-.42.17-.58.33s-.28.36-.37.62c-.08.26-.12.58-.12.96v.68h2.67v1.76h-2.59v8.41h-2.47Z" style="fill: #506489; stroke-width: 0px;"/>
    <path d="m285.29,4.6v10.26h-1.51c-.33,0-.53-.15-.62-.45l-.17-.82c-.42.43-.88.77-1.39,1.04s-1.1.4-1.79.4c-.56,0-1.05-.1-1.49-.29-.43-.19-.79-.46-1.08-.81-.29-.35-.51-.76-.67-1.23-.15-.48-.22-1-.22-1.58v-6.52h2.47v6.52c0,.63.15,1.11.44,1.46.29.34.72.52,1.3.52.43,0,.83-.1,1.2-.29.37-.19.73-.45,1.06-.78v-7.42h2.47Z" style="fill: #506489; stroke-width: 0px;"/>
    <path d="m296.73,4.95v.92c0,.29-.18.47-.53.54l-.92.17c.14.35.21.74.21,1.16,0,.51-.1.97-.31,1.38-.2.41-.48.76-.84,1.04-.36.29-.79.51-1.28.67-.49.16-1.02.24-1.58.24-.2,0-.39-.01-.58-.03s-.37-.05-.55-.08c-.32.19-.48.41-.48.65,0,.21.09.36.28.45.19.1.44.17.76.21.31.04.67.06,1.07.08.4,0,.81.03,1.23.06s.83.09,1.23.17c.4.08.76.22,1.07.4.31.18.57.43.75.74.19.31.29.71.29,1.19,0,.45-.11.89-.33,1.32s-.55.81-.97,1.14c-.42.33-.94.6-1.56.81-.62.2-1.32.3-2.1.3s-1.45-.07-2.02-.23c-.57-.15-1.05-.35-1.43-.6s-.66-.54-.85-.87c-.19-.33-.28-.67-.28-1.02,0-.48.14-.88.43-1.21s.69-.58,1.2-.77c-.27-.14-.49-.33-.65-.56-.16-.23-.24-.54-.24-.92,0-.15.03-.31.08-.48.06-.16.14-.32.25-.48.11-.16.25-.31.42-.46.17-.14.36-.27.59-.38-.52-.28-.93-.65-1.23-1.12s-.44-1.01-.44-1.64c0-.51.1-.96.3-1.38.2-.41.49-.76.85-1.05s.79-.51,1.29-.67c.5-.15,1.04-.23,1.62-.23.44,0,.85.04,1.24.13.39.09.74.22,1.06.4h2.95Zm-2.46,10.37c0-.2-.06-.36-.18-.49-.12-.13-.28-.23-.49-.3-.21-.07-.45-.12-.72-.15-.28-.03-.57-.06-.88-.08-.31-.02-.63-.03-.96-.04-.33-.01-.65-.04-.97-.08-.27.15-.49.33-.67.54-.17.21-.25.45-.25.72,0,.18.04.35.14.5.09.16.23.29.43.41.2.11.45.2.76.26s.7.1,1.15.1.86-.04,1.19-.1c.33-.07.61-.17.83-.29.22-.12.38-.27.48-.44.1-.17.15-.35.15-.56Zm-2.79-5.84c.31,0,.57-.04.8-.12s.42-.2.57-.35c.15-.15.26-.32.34-.53.08-.21.12-.43.12-.68,0-.51-.15-.91-.46-1.21-.3-.3-.76-.44-1.37-.44s-1.06.15-1.36.44c-.3.3-.46.7-.46,1.21,0,.24.04.46.11.67.08.21.19.39.34.54.15.15.34.27.57.35.23.08.5.12.79.12Z" style="fill: #506489; stroke-width: 0px;"/>
    <path d="m300.19,10.04c.04.53.13.98.28,1.36.15.38.34.7.58.95.24.25.52.44.85.56.33.12.7.19,1.09.19s.75-.05,1.04-.14.54-.2.76-.31.41-.22.57-.31.32-.14.47-.14c.21,0,.36.08.46.23l.71.9c-.27.32-.58.59-.92.8-.34.22-.69.39-1.06.52s-.75.22-1.13.27c-.38.05-.75.08-1.12.08-.71,0-1.38-.12-1.99-.35-.61-.24-1.15-.59-1.6-1.05s-.81-1.04-1.07-1.72c-.26-.68-.39-1.48-.39-2.38,0-.7.11-1.36.34-1.98.23-.62.55-1.15.97-1.61.42-.46.94-.82,1.55-1.08.61-.27,1.3-.4,2.06-.4.65,0,1.24.1,1.79.31s1.02.51,1.41.9c.39.4.7.88.92,1.46s.33,1.24.33,1.98c0,.37-.04.62-.12.75-.08.13-.23.2-.46.2h-6.35Zm4.71-1.49c0-.32-.04-.62-.13-.9s-.23-.53-.41-.75-.41-.38-.68-.5c-.28-.12-.6-.19-.97-.19-.71,0-1.27.2-1.68.61s-.67.98-.79,1.73h4.66Z" style="fill: #506489; stroke-width: 0px;"/>
    <path d="m310.87,10.04c.04.53.13.98.28,1.36.15.38.34.7.58.95.24.25.52.44.85.56.33.12.7.19,1.09.19s.75-.05,1.04-.14.54-.2.76-.31.41-.22.57-.31.32-.14.47-.14c.21,0,.36.08.46.23l.71.9c-.27.32-.58.59-.92.8-.34.22-.69.39-1.06.52s-.75.22-1.13.27c-.38.05-.75.08-1.12.08-.71,0-1.38-.12-1.99-.35-.61-.24-1.15-.59-1.6-1.05s-.81-1.04-1.07-1.72c-.26-.68-.39-1.48-.39-2.38,0-.7.11-1.36.34-1.98.23-.62.55-1.15.97-1.61.42-.46.94-.82,1.55-1.08.61-.27,1.3-.4,2.06-.4.65,0,1.24.1,1.79.31s1.02.51,1.41.9c.39.4.7.88.92,1.46s.33,1.24.33,1.98c0,.37-.04.62-.12.75-.08.13-.23.2-.46.2h-6.35Zm4.71-1.49c0-.32-.04-.62-.13-.9s-.23-.53-.41-.75-.41-.38-.68-.5c-.28-.12-.6-.19-.97-.19-.71,0-1.27.2-1.68.61s-.67.98-.79,1.73h4.66Z" style="fill: #506489; stroke-width: 0px;"/>
    <path d="m3.55,30.38c.32-.61.7-1.1,1.14-1.44.44-.35.96-.53,1.56-.53.47,0,.85.1,1.14.31l-.16,1.85c-.03.12-.08.21-.14.25-.06.05-.15.08-.25.08-.1,0-.25-.02-.45-.05-.2-.03-.39-.05-.58-.05-.27,0-.52.04-.73.12-.21.08-.41.19-.58.34-.17.15-.32.33-.45.55s-.25.46-.37.73v6.32H1.22v-10.26h1.45c.25,0,.43.04.53.13.1.09.17.25.2.48l.15,1.16Z" style="fill: #506489; stroke-width: 0px;"/>
    <path d="m10.58,34.04c.04.53.13.98.28,1.36s.34.7.58.95c.24.25.53.44.86.56.33.12.69.19,1.09.19s.75-.05,1.04-.14.54-.2.76-.31.41-.22.57-.31c.16-.09.32-.14.47-.14.21,0,.36.08.46.23l.71.9c-.27.32-.58.59-.92.8-.34.22-.69.39-1.06.52s-.75.22-1.13.27c-.38.05-.76.08-1.12.08-.71,0-1.38-.12-1.99-.35-.61-.24-1.15-.59-1.6-1.05-.45-.46-.81-1.04-1.07-1.72-.26-.68-.39-1.48-.39-2.38,0-.7.11-1.36.34-1.98.23-.62.55-1.15.97-1.61.42-.46.94-.82,1.55-1.08.61-.27,1.3-.4,2.07-.4.65,0,1.24.1,1.79.31s1.02.51,1.41.9c.39.4.7.88.92,1.46s.33,1.24.33,1.98c0,.37-.04.62-.12.75-.08.13-.23.2-.46.2h-6.35Zm4.71-1.49c0-.32-.04-.62-.14-.9-.09-.28-.22-.53-.4-.75-.18-.21-.41-.38-.69-.5-.28-.12-.6-.19-.96-.19-.71,0-1.27.2-1.68.61s-.67.98-.79,1.73h4.66Z" style="fill: #506489; stroke-width: 0px;"/>
    <path d="m22.78,39.02c-.89,0-1.58-.25-2.05-.76-.48-.5-.71-1.2-.71-2.08v-5.73h-1.05c-.13,0-.25-.04-.34-.13-.09-.09-.14-.22-.14-.39v-.98l1.65-.27.52-2.8c.03-.13.1-.24.19-.31.09-.07.21-.11.36-.11h1.28v3.23h2.74v1.76h-2.74v5.56c0,.32.08.57.24.75.16.18.37.27.64.27.15,0,.28-.02.38-.05s.19-.08.27-.12c.08-.04.14-.08.21-.12.06-.04.12-.05.18-.05.07,0,.13.02.18.05.05.04.1.09.15.17l.74,1.2c-.36.3-.77.53-1.24.68s-.95.23-1.45.23Z" style="fill: #506489; stroke-width: 0px;"/>
    <path d="m35.64,28.6v10.26h-1.51c-.33,0-.53-.15-.62-.45l-.17-.82c-.42.43-.88.77-1.39,1.04s-1.1.4-1.79.4c-.56,0-1.05-.1-1.48-.29-.43-.19-.79-.46-1.09-.81-.29-.35-.51-.76-.66-1.23-.15-.48-.23-1-.23-1.58v-6.52h2.47v6.52c0,.63.15,1.11.44,1.46.29.34.72.52,1.3.52.43,0,.83-.1,1.2-.29s.73-.45,1.06-.78v-7.42h2.47Z" style="fill: #506489; stroke-width: 0px;"/>
    <path d="m40.41,30.38c.32-.61.7-1.1,1.14-1.44.44-.35.96-.53,1.56-.53.47,0,.85.1,1.14.31l-.16,1.85c-.03.12-.08.21-.15.25-.06.05-.15.08-.25.08-.1,0-.25-.02-.45-.05-.2-.03-.39-.05-.58-.05-.27,0-.52.04-.73.12-.21.08-.41.19-.58.34-.17.15-.32.33-.45.55s-.25.46-.37.73v6.32h-2.47v-10.26h1.45c.25,0,.43.04.53.13.1.09.17.25.2.48l.15,1.16Z" style="fill: #506489; stroke-width: 0px;"/>
    <path d="m47.85,29.86c.21-.21.42-.4.65-.58.23-.18.47-.33.73-.45s.53-.22.83-.29c.29-.07.61-.1.96-.1.56,0,1.06.09,1.49.29.43.19.79.46,1.08.8s.51.75.66,1.23c.15.48.23,1,.23,1.58v6.53h-2.47v-6.53c0-.63-.14-1.11-.43-1.46-.29-.34-.72-.52-1.31-.52-.43,0-.83.1-1.2.29s-.73.46-1.06.79v7.42h-2.47v-10.26h1.51c.32,0,.53.15.63.45l.17.81Z" style="fill: #506489; stroke-width: 0px;"/>
    <path d="m58.72,34.04c.04.53.13.98.28,1.36.15.38.34.7.58.95.24.25.52.44.85.56.33.12.7.19,1.09.19s.75-.05,1.04-.14.54-.2.76-.31.41-.22.57-.31.32-.14.47-.14c.21,0,.36.08.46.23l.71.9c-.27.32-.58.59-.92.8-.34.22-.69.39-1.06.52s-.75.22-1.13.27c-.38.05-.75.08-1.12.08-.71,0-1.38-.12-1.99-.35-.61-.24-1.15-.59-1.6-1.05s-.81-1.04-1.07-1.72c-.26-.68-.39-1.48-.39-2.38,0-.7.11-1.36.34-1.98.23-.62.55-1.15.97-1.61.42-.46.94-.82,1.55-1.08.61-.27,1.3-.4,2.06-.4.65,0,1.24.1,1.79.31s1.02.51,1.41.9c.39.4.7.88.92,1.46s.33,1.24.33,1.98c0,.37-.04.62-.12.75-.08.13-.23.2-.46.2h-6.35Zm4.71-1.49c0-.32-.04-.62-.13-.9s-.23-.53-.41-.75-.41-.38-.68-.5c-.28-.12-.6-.19-.97-.19-.71,0-1.27.2-1.68.61s-.67.98-.79,1.73h4.66Z" style="fill: #506489; stroke-width: 0px;"/>
    <path d="m69.4,34.04c.04.53.13.98.28,1.36.15.38.34.7.58.95.24.25.52.44.85.56.33.12.7.19,1.09.19s.75-.05,1.04-.14.54-.2.76-.31.41-.22.57-.31.32-.14.47-.14c.21,0,.36.08.46.23l.71.9c-.27.32-.58.59-.92.8-.34.22-.69.39-1.06.52s-.75.22-1.13.27c-.38.05-.75.08-1.12.08-.71,0-1.38-.12-1.99-.35-.61-.24-1.15-.59-1.6-1.05s-.81-1.04-1.07-1.72c-.26-.68-.39-1.48-.39-2.38,0-.7.11-1.36.34-1.98.23-.62.55-1.15.97-1.61.42-.46.94-.82,1.55-1.08.61-.27,1.3-.4,2.06-.4.65,0,1.24.1,1.79.31s1.02.51,1.41.9c.39.4.7.88.92,1.46s.33,1.24.33,1.98c0,.37-.04.62-.12.75-.08.13-.23.2-.46.2h-6.35Zm4.71-1.49c0-.32-.04-.62-.13-.9s-.23-.53-.41-.75-.41-.38-.68-.5c-.28-.12-.6-.19-.97-.19-.71,0-1.27.2-1.68.61s-.67.98-.79,1.73h4.66Z" style="fill: #506489; stroke-width: 0px;"/>
    <path d="m84.44,30.6c-.07.11-.14.18-.21.22-.07.04-.17.06-.28.06-.12,0-.25-.03-.38-.1-.14-.07-.3-.14-.48-.23s-.38-.16-.62-.23c-.23-.07-.5-.1-.81-.1-.49,0-.87.1-1.15.31-.28.21-.42.48-.42.81,0,.22.07.4.22.56.14.15.33.28.57.4s.5.21.81.3c.3.09.6.19.91.29.31.11.62.23.92.37.3.14.57.31.81.52.24.21.43.46.57.75.14.29.22.65.22,1.06,0,.49-.09.95-.27,1.37-.18.42-.44.78-.79,1.08-.35.3-.77.54-1.28.71-.51.17-1.1.26-1.77.26-.35,0-.7-.03-1.04-.1-.34-.06-.66-.15-.97-.27-.31-.11-.6-.25-.86-.4-.26-.15-.49-.32-.69-.5l.57-.94c.07-.11.16-.2.26-.26.1-.06.23-.09.38-.09s.3.04.43.13c.14.09.29.18.48.28.18.1.39.19.63.28.24.09.55.13.92.13.29,0,.54-.04.75-.1.21-.07.38-.16.52-.28.14-.11.24-.24.3-.4.06-.15.09-.3.09-.46,0-.24-.07-.44-.21-.59s-.33-.29-.57-.4c-.24-.11-.51-.22-.81-.31-.3-.09-.61-.19-.93-.29-.32-.11-.63-.23-.93-.38-.3-.14-.57-.33-.81-.54-.24-.22-.43-.49-.57-.81-.14-.32-.21-.71-.21-1.16,0-.42.08-.82.25-1.2.17-.38.41-.71.74-.99.32-.28.73-.51,1.21-.68s1.04-.25,1.67-.25c.71,0,1.35.12,1.93.35s1.06.54,1.45.92l-.56.89Z" style="fill: #506489; stroke-width: 0px;"/>
    <path d="m92.55,38.86v-8.4l-.89-.14c-.19-.04-.35-.11-.46-.21s-.17-.23-.17-.42v-1.01h1.53v-.76c0-.59.09-1.11.26-1.58.18-.47.43-.86.76-1.19.33-.33.73-.58,1.21-.75.47-.17,1.01-.26,1.6-.26.47,0,.91.06,1.32.19l-.05,1.24c0,.09-.03.17-.08.22-.05.06-.11.1-.18.13-.08.03-.17.05-.27.06-.1.01-.21.02-.32.02-.29,0-.56.03-.79.1-.23.06-.42.17-.58.33s-.28.36-.37.62c-.08.26-.12.58-.12.96v.68h2.67v1.76h-2.59v8.41h-2.47Z" style="stroke-width: 0px;"/>
    <path d="m101.33,30.38c.32-.61.7-1.1,1.14-1.44.44-.35.96-.53,1.56-.53.47,0,.85.1,1.14.31l-.16,1.85c-.03.12-.08.21-.15.25-.06.05-.15.08-.25.08-.1,0-.25-.02-.45-.05-.2-.03-.39-.05-.58-.05-.27,0-.52.04-.73.12-.21.08-.41.19-.58.34-.17.15-.32.33-.45.55s-.25.46-.36.73v6.32h-2.47v-10.26h1.45c.25,0,.43.04.53.13.1.09.17.25.2.48l.15,1.16Z" style="stroke-width: 0px;"/>
    <path d="m111,28.44c.76,0,1.45.12,2.08.37s1.16.6,1.6,1.05c.44.45.79,1.01,1.03,1.66s.36,1.38.36,2.19-.12,1.55-.36,2.2c-.24.65-.58,1.21-1.03,1.67-.44.46-.98.81-1.6,1.06s-1.32.37-2.08.37-1.46-.12-2.09-.37-1.16-.6-1.6-1.06c-.44-.46-.79-1.02-1.03-1.67-.24-.65-.37-1.39-.37-2.2s.12-1.54.37-2.19.59-1.21,1.03-1.66c.44-.45.98-.8,1.6-1.05s1.32-.37,2.09-.37Zm0,8.67c.85,0,1.49-.29,1.9-.86s.61-1.41.61-2.52-.2-1.95-.61-2.53-1.04-.87-1.9-.87-1.51.29-1.92.88c-.42.58-.62,1.42-.62,2.52s.21,1.94.62,2.51c.42.58,1.06.87,1.92.87Z" style="stroke-width: 0px;"/>
    <path d="m117.95,38.86v-10.26h1.51c.32,0,.53.15.63.45l.16.76c.18-.2.37-.38.57-.55.2-.17.41-.31.63-.43.22-.12.46-.22.72-.29.26-.07.54-.1.85-.1.65,0,1.18.17,1.59.52s.73.81.93,1.4c.16-.34.36-.63.6-.88.24-.24.5-.44.79-.6.29-.15.59-.27.92-.34.32-.07.65-.11.97-.11.57,0,1.07.09,1.51.26.44.17.81.43,1.11.76s.53.74.68,1.22c.16.48.24,1.03.24,1.65v6.53h-2.47v-6.53c0-.65-.14-1.15-.43-1.48-.29-.33-.71-.5-1.26-.5-.25,0-.49.04-.71.13-.22.09-.41.21-.57.38-.16.16-.29.37-.39.62-.09.25-.14.53-.14.85v6.53h-2.48v-6.53c0-.69-.14-1.19-.42-1.5-.28-.31-.68-.47-1.22-.47-.36,0-.69.09-1,.27-.31.18-.6.42-.86.73v7.51h-2.47Z" style="stroke-width: 0px;"/>
    <path d="m147.65,27.03c-.08.14-.17.24-.25.31s-.2.09-.33.09-.29-.05-.46-.15c-.16-.1-.36-.22-.58-.35-.23-.13-.49-.24-.79-.34-.3-.1-.66-.16-1.08-.16-.37,0-.7.05-.98.14s-.51.21-.71.38-.33.35-.42.57c-.09.22-.14.47-.14.74,0,.34.1.62.29.85.19.23.44.42.75.58.31.16.67.3,1.07.43.4.13.81.26,1.23.4.42.14.83.31,1.23.5.4.19.76.43,1.07.72s.56.65.75,1.06c.19.42.29.93.29,1.53,0,.65-.11,1.26-.33,1.83-.22.57-.55,1.07-.98,1.49-.43.42-.96.76-1.58,1-.62.24-1.33.37-2.13.37-.46,0-.91-.04-1.36-.14-.45-.09-.88-.22-1.29-.38s-.79-.37-1.16-.6-.68-.49-.96-.78l.79-1.29c.07-.09.15-.17.26-.24.11-.06.22-.09.34-.09.17,0,.35.07.54.21s.42.29.69.45c.27.17.58.32.93.46.36.14.79.21,1.29.21.77,0,1.36-.18,1.78-.54s.63-.89.63-1.56c0-.38-.09-.69-.29-.93-.19-.24-.44-.44-.75-.6-.31-.16-.67-.3-1.07-.42-.4-.11-.81-.24-1.22-.37-.41-.13-.82-.29-1.22-.48-.4-.19-.76-.43-1.07-.73-.31-.3-.56-.67-.75-1.12-.19-.45-.29-1-.29-1.67,0-.53.11-1.04.32-1.54s.51-.94.92-1.33c.4-.39.89-.7,1.48-.93s1.26-.35,2.02-.35c.85,0,1.64.13,2.36.4.72.27,1.33.64,1.84,1.12l-.67,1.27Z" style="stroke-width: 0px;"/>
    <path d="m159.37,28.6v10.26h-1.51c-.33,0-.53-.15-.62-.45l-.17-.82c-.42.43-.88.77-1.39,1.04s-1.1.4-1.79.4c-.56,0-1.05-.1-1.49-.29-.43-.19-.79-.46-1.08-.81-.29-.35-.51-.76-.67-1.23-.15-.48-.22-1-.22-1.58v-6.52h2.47v6.52c0,.63.15,1.11.44,1.46.29.34.72.52,1.3.52.43,0,.83-.1,1.2-.29.37-.19.73-.45,1.06-.78v-7.42h2.47Z" style="stroke-width: 0px;"/>
    <path d="m170.72,24v14.86h-1.51c-.33,0-.53-.15-.62-.45l-.21-.99c-.41.47-.89.86-1.42,1.15-.54.29-1.16.44-1.88.44-.56,0-1.07-.12-1.54-.35-.47-.23-.87-.57-1.21-1.01s-.6-.99-.78-1.65-.27-1.4-.27-2.24c0-.76.1-1.47.31-2.12.21-.65.5-1.22.89-1.7s.85-.85,1.39-1.12,1.15-.41,1.82-.41c.57,0,1.06.09,1.47.27.41.18.77.42,1.09.73v-5.41h2.47Zm-2.47,7.22c-.28-.34-.58-.58-.92-.72-.33-.14-.69-.21-1.07-.21s-.71.07-1.01.21c-.3.14-.56.35-.77.63-.21.28-.38.64-.49,1.08s-.17.95-.17,1.54.05,1.11.14,1.52c.1.42.24.76.42,1.02.18.26.4.45.66.57s.55.17.87.17c.51,0,.95-.11,1.31-.32.36-.21.7-.52,1.02-.91v-4.6Z" style="stroke-width: 0px;"/>
    <path d="m172.92,30.03c1.18-1.08,2.6-1.62,4.26-1.62.6,0,1.14.1,1.61.3.47.2.87.47,1.2.82.33.35.58.77.75,1.25.17.49.25,1.02.25,1.6v6.48h-1.12c-.23,0-.41-.04-.54-.1-.13-.07-.23-.21-.3-.42l-.22-.74c-.26.23-.51.44-.76.62-.25.18-.5.32-.77.44s-.55.21-.85.27c-.3.06-.64.1-1,.1-.43,0-.83-.06-1.2-.18-.37-.12-.68-.29-.95-.52s-.47-.52-.62-.87c-.15-.35-.22-.75-.22-1.21,0-.26.04-.52.13-.77.09-.26.23-.5.42-.73s.45-.45.76-.66.7-.39,1.16-.54.99-.28,1.59-.38c.61-.1,1.3-.15,2.08-.17v-.6c0-.69-.15-1.19-.44-1.52-.29-.33-.72-.5-1.27-.5-.4,0-.73.05-1,.14-.26.09-.49.2-.69.31s-.38.22-.54.31c-.16.09-.35.14-.54.14-.17,0-.32-.04-.44-.14-.12-.09-.22-.19-.29-.31l-.44-.79Zm5.66,4.45c-.71.03-1.31.09-1.8.19-.49.09-.88.2-1.17.34s-.5.3-.63.49-.19.39-.19.61c0,.43.13.74.39.93.26.19.59.28,1,.28.51,0,.94-.09,1.31-.27.37-.18.73-.46,1.08-.83v-1.73Z" style="stroke-width: 0px;"/>
    <path d="m185.62,29.86c.21-.21.42-.4.65-.58.23-.18.47-.33.73-.45s.53-.22.83-.29c.29-.07.61-.1.96-.1.56,0,1.06.09,1.49.29.43.19.79.46,1.08.8s.51.75.66,1.23c.15.48.23,1,.23,1.58v6.53h-2.47v-6.53c0-.63-.14-1.11-.43-1.46-.29-.34-.72-.52-1.31-.52-.43,0-.83.1-1.2.29s-.73.46-1.06.79v7.42h-2.47v-10.26h1.51c.32,0,.53.15.63.45l.17.81Z" style="stroke-width: 0px;"/>
    <path d="m201.92,29.86c.41-.43.87-.78,1.38-1.04.5-.26,1.08-.38,1.72-.38.59,0,1.13.12,1.6.35s.88.57,1.22,1c.34.44.59.96.77,1.58.18.62.27,1.32.27,2.09,0,.83-.1,1.59-.31,2.27-.21.68-.5,1.26-.88,1.75-.38.48-.84.86-1.38,1.12s-1.14.4-1.8.4c-.32,0-.61-.03-.87-.09-.26-.06-.5-.15-.72-.27-.22-.11-.42-.25-.61-.42-.18-.16-.36-.35-.53-.54l-.11.69c-.04.17-.11.3-.21.37s-.23.11-.4.11h-1.63v-14.86h2.47v5.86Zm0,6.34c.28.34.58.58.92.72.33.14.68.21,1.04.21s.72-.07,1.02-.21.56-.35.78-.64c.21-.29.38-.66.49-1.11.11-.45.17-.99.17-1.61,0-1.13-.19-1.94-.56-2.45-.37-.5-.91-.75-1.61-.75-.47,0-.89.11-1.24.33-.35.22-.69.52-1.01.92v4.6Z" style="stroke-width: 0px;"/>
    <path d="m220.12,28.6l-5.59,13.08c-.07.17-.17.31-.29.4-.12.09-.29.14-.54.14h-1.84l1.92-4.12-4.15-9.49h2.17c.19,0,.34.05.45.14.11.09.19.2.25.32l2.18,5.32c.07.18.13.36.18.54s.1.36.15.55c.06-.19.12-.37.18-.55.06-.18.13-.37.2-.55l2.06-5.31c.05-.13.14-.24.26-.33.12-.09.26-.13.42-.13h1.98Z" style="stroke-width: 0px;"/>
    <path d="m233.56,30.77c-.07.09-.15.17-.21.22-.07.05-.17.08-.31.08s-.25-.04-.37-.11-.26-.16-.43-.26-.37-.18-.59-.26c-.23-.08-.52-.12-.86-.12-.43,0-.81.08-1.14.23-.33.16-.6.38-.82.68s-.38.65-.48,1.06c-.11.42-.16.89-.16,1.42s.06,1.03.17,1.46c.12.43.29.79.5,1.07.22.29.49.51.8.66s.67.23,1.06.23.71-.05.96-.15c.24-.1.45-.2.61-.32.17-.12.31-.22.44-.32.12-.1.26-.15.42-.15.2,0,.35.08.45.23l.71.9c-.27.32-.57.59-.89.8-.32.22-.65.39-1,.52-.34.13-.7.22-1.06.27s-.72.08-1.08.08c-.63,0-1.23-.12-1.79-.35-.56-.24-1.05-.58-1.47-1.04-.42-.45-.75-1.01-1-1.66s-.37-1.41-.37-2.25c0-.75.11-1.45.33-2.1.22-.64.54-1.2.96-1.67.42-.47.94-.84,1.56-1.1s1.33-.4,2.14-.4,1.44.12,2.01.37c.58.25,1.09.6,1.55,1.06l-.65.9Z" style="stroke-width: 0px;"/>
    <path d="m240.39,28.44c.76,0,1.45.12,2.08.37s1.16.6,1.6,1.05c.44.45.79,1.01,1.03,1.66s.36,1.38.36,2.19-.12,1.55-.36,2.2c-.24.65-.58,1.21-1.03,1.67-.44.46-.98.81-1.6,1.06s-1.32.37-2.08.37-1.46-.12-2.09-.37-1.16-.6-1.6-1.06c-.44-.46-.79-1.02-1.03-1.67-.24-.65-.37-1.39-.37-2.2s.12-1.54.37-2.19.59-1.21,1.03-1.66c.44-.45.98-.8,1.6-1.05s1.32-.37,2.09-.37Zm0,8.67c.85,0,1.49-.29,1.9-.86s.61-1.41.61-2.52-.2-1.95-.61-2.53-1.04-.87-1.9-.87-1.51.29-1.92.88c-.42.58-.62,1.42-.62,2.52s.21,1.94.62,2.51c.42.58,1.06.87,1.92.87Z" style="stroke-width: 0px;"/>
    <path d="m256.18,28.6v10.26h-1.51c-.33,0-.53-.15-.62-.45l-.17-.82c-.42.43-.88.77-1.39,1.04s-1.1.4-1.79.4c-.56,0-1.05-.1-1.49-.29-.43-.19-.79-.46-1.08-.81-.29-.35-.51-.76-.67-1.23-.15-.48-.22-1-.22-1.58v-6.52h2.47v6.52c0,.63.15,1.11.44,1.46.29.34.72.52,1.3.52.43,0,.83-.1,1.2-.29.37-.19.73-.45,1.06-.78v-7.42h2.47Z" style="stroke-width: 0px;"/>
    <path d="m260.93,29.86c.21-.21.42-.4.65-.58.23-.18.47-.33.73-.45s.53-.22.83-.29c.29-.07.61-.1.96-.1.56,0,1.06.09,1.49.29.43.19.79.46,1.08.8s.51.75.66,1.23c.15.48.23,1,.23,1.58v6.53h-2.47v-6.53c0-.63-.14-1.11-.43-1.46-.29-.34-.72-.52-1.31-.52-.43,0-.83.1-1.2.29s-.73.46-1.06.79v7.42h-2.47v-10.26h1.51c.32,0,.53.15.63.45l.17.81Z" style="stroke-width: 0px;"/>
    <path d="m273.32,39.02c-.89,0-1.58-.25-2.05-.76-.48-.5-.71-1.2-.71-2.08v-5.73h-1.05c-.13,0-.25-.04-.34-.13-.09-.09-.14-.22-.14-.39v-.98l1.65-.27.52-2.8c.03-.13.1-.24.19-.31.09-.07.21-.11.36-.11h1.28v3.23h2.74v1.76h-2.74v5.56c0,.32.08.57.24.75.16.18.37.27.64.27.15,0,.28-.02.39-.05.1-.04.19-.08.27-.12.08-.04.14-.08.21-.12.06-.04.12-.05.18-.05.07,0,.13.02.18.05.05.04.1.09.15.17l.74,1.2c-.36.3-.77.53-1.24.68s-.95.23-1.45.23Z" style="stroke-width: 0px;"/>
    <path d="m279.67,30.38c.32-.61.7-1.1,1.14-1.44.44-.35.96-.53,1.56-.53.47,0,.85.1,1.14.31l-.16,1.85c-.03.12-.08.21-.15.25-.06.05-.15.08-.25.08-.1,0-.25-.02-.45-.05-.2-.03-.39-.05-.58-.05-.27,0-.52.04-.73.12-.21.08-.41.19-.58.34-.17.15-.32.33-.45.55s-.25.46-.36.73v6.32h-2.47v-10.26h1.45c.25,0,.43.04.53.13.1.09.17.25.2.48l.15,1.16Z" style="stroke-width: 0px;"/>
    <path d="m294.12,28.6l-5.59,13.08c-.07.17-.17.31-.29.4-.12.09-.29.14-.54.14h-1.84l1.92-4.12-4.15-9.49h2.17c.19,0,.34.05.45.14.11.09.19.2.25.32l2.18,5.32c.07.18.13.36.18.54s.1.36.15.55c.06-.19.12-.37.18-.55.06-.18.13-.37.2-.55l2.06-5.31c.05-.13.14-.24.26-.33.12-.09.26-.13.42-.13h1.98Z" style="stroke-width: 0px;"/>
    <path d="m304.75,28.44c.76,0,1.45.12,2.08.37s1.16.6,1.6,1.05c.44.45.79,1.01,1.03,1.66s.36,1.38.36,2.19-.12,1.55-.36,2.2c-.24.65-.58,1.21-1.03,1.67-.44.46-.98.81-1.6,1.06s-1.32.37-2.08.37-1.46-.12-2.09-.37-1.16-.6-1.6-1.06c-.44-.46-.79-1.02-1.03-1.67-.24-.65-.37-1.39-.37-2.2s.12-1.54.37-2.19.59-1.21,1.03-1.66c.44-.45.98-.8,1.6-1.05s1.32-.37,2.09-.37Zm0,8.67c.85,0,1.49-.29,1.9-.86s.61-1.41.61-2.52-.2-1.95-.61-2.53-1.04-.87-1.9-.87-1.51.29-1.92.88c-.42.58-.62,1.42-.62,2.52s.21,1.94.62,2.51c.42.58,1.06.87,1.92.87Z" style="stroke-width: 0px;"/>
    <path d="m312.42,38.86v-8.4l-.89-.14c-.19-.04-.35-.11-.46-.21s-.17-.23-.17-.42v-1.01h1.53v-.76c0-.59.09-1.11.26-1.58.18-.47.43-.86.76-1.19.33-.33.73-.58,1.21-.75.47-.17,1.01-.26,1.6-.26.47,0,.91.06,1.32.19l-.05,1.24c0,.09-.03.17-.08.22-.05.06-.11.1-.18.13-.08.03-.17.05-.27.06-.1.01-.21.02-.32.02-.29,0-.56.03-.79.1-.23.06-.42.17-.58.33s-.28.36-.37.62c-.08.26-.12.58-.12.96v.68h2.67v1.76h-2.59v8.41h-2.47Z" style="stroke-width: 0px;"/>
    <path d="m.98,54.03c1.18-1.08,2.6-1.62,4.26-1.62.6,0,1.14.1,1.61.3.47.2.87.47,1.2.82.33.35.58.77.75,1.25.17.49.25,1.02.25,1.6v6.48h-1.12c-.23,0-.41-.04-.54-.1s-.23-.21-.3-.42l-.22-.74c-.26.23-.51.44-.76.62-.25.18-.5.32-.77.44s-.55.21-.86.27c-.3.06-.64.1-1,.1-.43,0-.83-.06-1.2-.18-.37-.12-.68-.29-.95-.52s-.47-.52-.62-.87c-.15-.35-.22-.75-.22-1.21,0-.26.04-.52.13-.77.09-.26.23-.5.42-.73.2-.23.45-.45.76-.66s.7-.39,1.16-.54c.46-.15.99-.28,1.59-.38s1.3-.15,2.08-.17v-.6c0-.69-.15-1.19-.44-1.52-.29-.33-.72-.5-1.27-.5-.4,0-.73.05-1,.14s-.5.2-.69.31c-.2.12-.38.22-.55.31-.16.09-.34.14-.54.14-.17,0-.32-.04-.44-.14-.12-.09-.22-.19-.29-.31l-.44-.79Zm5.66,4.45c-.71.03-1.31.09-1.8.19-.49.09-.88.2-1.17.34-.29.14-.5.3-.63.49-.13.19-.19.39-.19.61,0,.43.13.74.38.93.26.19.59.28,1.01.28.51,0,.94-.09,1.31-.27.37-.18.73-.46,1.08-.83v-1.73Z" style="stroke-width: 0px;"/>
    <path d="m17.63,54.6c-.07.11-.14.18-.21.22-.07.04-.17.06-.28.06-.12,0-.25-.03-.38-.1-.14-.07-.29-.14-.48-.23-.18-.08-.38-.16-.61-.23-.23-.07-.5-.1-.82-.1-.49,0-.87.1-1.14.31-.28.21-.42.48-.42.81,0,.22.07.4.21.56.14.15.33.28.57.4.24.11.51.21.81.3.3.09.6.19.92.29.31.11.61.23.92.37.3.14.57.31.8.52s.43.46.57.75c.14.29.21.65.21,1.06,0,.49-.09.95-.27,1.37-.18.42-.44.78-.78,1.08-.35.3-.78.54-1.29.71-.51.17-1.1.26-1.77.26-.35,0-.7-.03-1.03-.1-.34-.06-.66-.15-.97-.27-.31-.11-.6-.25-.86-.4-.26-.15-.5-.32-.7-.5l.57-.94c.07-.11.16-.2.26-.26.1-.06.23-.09.38-.09s.3.04.43.13c.14.09.3.18.48.28s.39.19.63.28c.24.09.55.13.92.13.29,0,.54-.04.75-.1.21-.07.38-.16.52-.28.14-.11.24-.24.3-.4.06-.15.09-.3.09-.46,0-.24-.07-.44-.21-.59s-.33-.29-.57-.4c-.24-.11-.51-.22-.81-.31s-.61-.19-.93-.29c-.32-.11-.63-.23-.93-.38-.3-.14-.57-.33-.81-.54-.24-.22-.43-.49-.57-.81-.14-.32-.21-.71-.21-1.16,0-.42.08-.82.25-1.2.17-.38.41-.71.74-.99s.73-.51,1.21-.68,1.04-.25,1.67-.25c.71,0,1.35.12,1.93.35s1.06.54,1.45.92l-.56.89Z" style="stroke-width: 0px;"/>
    <path d="m29.48,52.6l-5.59,13.08c-.07.17-.17.31-.29.4-.12.09-.29.14-.54.14h-1.84l1.92-4.12-4.15-9.49h2.17c.19,0,.34.05.46.14.11.09.19.2.25.32l2.18,5.32c.07.18.13.36.18.54.05.18.1.36.15.55.06-.19.12-.37.18-.55.06-.18.13-.37.2-.55l2.06-5.31c.05-.13.14-.24.27-.33.12-.09.26-.13.42-.13h1.98Z" style="stroke-width: 0px;"/>
    <path d="m33.21,48v14.86h-2.47v-14.86h2.47Z" style="stroke-width: 0px;"/>
    <path d="m44.52,52.6v10.26h-1.51c-.33,0-.53-.15-.62-.45l-.17-.82c-.42.43-.88.77-1.39,1.04-.51.26-1.1.4-1.79.4-.56,0-1.05-.1-1.48-.29-.43-.19-.79-.46-1.09-.81-.29-.35-.51-.76-.66-1.23-.15-.48-.23-1-.23-1.58v-6.52h2.47v6.52c0,.63.15,1.11.44,1.46.29.34.72.52,1.3.52.43,0,.83-.1,1.2-.29.37-.19.73-.45,1.06-.78v-7.42h2.47Z" style="stroke-width: 0px;"/>
    <path d="m46.96,62.86v-10.26h1.51c.32,0,.53.15.63.45l.16.76c.18-.2.37-.38.57-.55.2-.17.41-.31.63-.43.22-.12.46-.22.72-.29.26-.07.54-.1.85-.1.65,0,1.18.17,1.59.52s.73.81.93,1.4c.16-.34.36-.63.6-.88.24-.24.5-.44.79-.6.29-.15.59-.27.92-.34.32-.07.65-.11.97-.11.57,0,1.07.09,1.51.26.44.17.81.43,1.11.76s.53.74.68,1.22c.16.48.24,1.03.24,1.65v6.53h-2.47v-6.53c0-.65-.14-1.15-.43-1.48-.29-.33-.71-.5-1.26-.5-.25,0-.49.04-.71.13-.22.09-.41.21-.57.38-.16.16-.29.37-.39.62-.09.25-.14.53-.14.85v6.53h-2.48v-6.53c0-.69-.14-1.19-.42-1.5-.28-.31-.68-.47-1.22-.47-.36,0-.69.09-1,.27-.31.18-.6.42-.86.73v7.51h-2.47Z" style="stroke-width: 0px;"/>
  </g>
</svg>