<?xml version="1.0" encoding="UTF-8"?>
<svg id="treemap-720" xmlns="http://www.w3.org/2000/svg" xmlns:xlink="http://www.w3.org/1999/xlink" viewBox="0 0 720 475">
  <defs>
    <clipPath id="clippath">
      <rect x="1" y="32" width="718" height="425.83" style="fill: none; stroke-width: 0px;"/>
    </clipPath>
  </defs>
  <g>
    <path d="m5.58,467.16s-.06.09-.1.11c-.04.03-.08.04-.13.04-.06,0-.12-.03-.2-.09-.08-.06-.17-.12-.29-.19-.12-.07-.25-.13-.42-.19-.16-.06-.36-.08-.59-.08-.22,0-.41.03-.57.09s-.3.14-.42.24c-.11.1-.2.22-.25.35s-.08.28-.08.44c0,.2.05.37.15.5.1.13.23.24.39.34.16.09.34.17.55.24s.42.14.63.21.42.16.63.25.39.21.55.35c.16.14.29.31.39.52.1.2.15.45.15.75,0,.31-.05.61-.16.88-.11.28-.26.51-.47.72s-.46.36-.75.48c-.3.12-.64.17-1.02.17-.47,0-.89-.08-1.27-.25-.38-.17-.71-.4-.98-.68l.28-.46s.06-.07.1-.09c.04-.03.08-.04.13-.04.04,0,.09.02.15.05.06.04.12.08.19.13.07.05.15.11.24.17s.19.12.31.17c.12.05.25.1.39.13s.31.05.5.05c.23,0,.43-.03.62-.1.18-.06.33-.15.46-.27.12-.11.22-.25.29-.41.07-.16.1-.34.1-.54,0-.22-.05-.39-.15-.53-.1-.14-.23-.25-.39-.35-.16-.09-.34-.17-.55-.24-.21-.07-.42-.13-.63-.2-.21-.07-.42-.15-.63-.24-.21-.09-.39-.21-.55-.35-.16-.14-.29-.32-.39-.54-.1-.21-.15-.48-.15-.8,0-.25.05-.5.15-.73.1-.24.24-.45.43-.63.19-.18.42-.33.7-.44.27-.11.59-.17.95-.17.4,0,.76.06,1.09.19.33.13.62.31.87.55l-.24.46Z" style="fill: #666; stroke-width: 0px;"/>
    <path d="m9.26,468.06c.37,0,.7.06,1,.18.3.12.55.3.76.53.21.23.37.5.48.82.11.32.17.68.17,1.08s-.06.76-.17,1.08c-.11.32-.27.59-.48.82s-.46.4-.76.52c-.3.12-.63.18-1,.18s-.71-.06-1.01-.18c-.3-.12-.55-.3-.76-.52s-.37-.5-.48-.82c-.11-.32-.17-.68-.17-1.08s.06-.76.17-1.08c.11-.32.27-.6.48-.82.21-.23.46-.4.76-.53.3-.12.63-.18,1.01-.18Zm0,4.52c.5,0,.87-.17,1.12-.5.25-.33.37-.8.37-1.4s-.12-1.07-.37-1.41c-.25-.34-.62-.5-1.12-.5-.25,0-.47.04-.66.13-.19.09-.34.21-.47.38-.12.16-.22.36-.28.6s-.09.51-.09.81c0,.6.12,1.07.37,1.4.25.33.63.5,1.13.5Z" style="fill: #666; stroke-width: 0px;"/>
    <path d="m16.96,468.14v5.07h-.53c-.13,0-.21-.06-.24-.18l-.07-.55c-.22.24-.47.44-.74.59s-.59.22-.94.22c-.28,0-.52-.05-.73-.14-.21-.09-.39-.22-.53-.39-.14-.17-.25-.37-.32-.6-.07-.24-.11-.5-.11-.79v-3.23h.89v3.23c0,.38.09.68.26.89s.44.32.8.32c.26,0,.51-.06.74-.19s.44-.3.63-.52v-3.73h.89Z" style="fill: #666; stroke-width: 0px;"/>
    <path d="m19.22,469.15c.16-.35.36-.62.59-.81.23-.2.52-.29.85-.29.11,0,.21.01.31.04s.19.06.26.11l-.07.67c-.02.08-.07.12-.15.12-.05,0-.12-.01-.21-.03s-.19-.03-.31-.03c-.16,0-.3.02-.43.07s-.24.12-.33.21c-.1.09-.19.21-.27.34-.08.13-.15.29-.21.46v3.2h-.9v-5.07h.51c.1,0,.16.02.2.06.04.04.06.1.08.19l.06.77Z" style="fill: #666; stroke-width: 0px;"/>
    <path d="m25.54,469.04s-.05.07-.08.08c-.03.02-.06.03-.11.03-.05,0-.11-.02-.17-.06-.06-.04-.13-.09-.22-.14-.09-.05-.2-.1-.33-.14-.13-.04-.29-.06-.47-.06-.25,0-.47.04-.66.13-.19.09-.35.22-.48.38-.13.17-.22.37-.29.6-.07.24-.1.5-.1.79s.04.58.1.82c.07.24.17.44.3.6.13.16.28.29.46.37s.39.13.61.13.4-.03.54-.08.26-.11.35-.17.17-.12.23-.17c.06-.05.12-.08.18-.08.07,0,.13.03.17.08l.25.33c-.11.14-.23.25-.38.35-.14.1-.29.18-.45.24-.16.06-.33.11-.51.14-.18.03-.36.04-.54.04-.32,0-.61-.06-.88-.18-.27-.12-.51-.29-.71-.51s-.36-.49-.47-.82-.17-.69-.17-1.11c0-.38.05-.72.16-1.04.11-.32.26-.6.46-.83.2-.23.45-.41.75-.54s.63-.19,1.02-.19c.36,0,.67.06.94.17s.51.28.72.49l-.24.32Z" style="fill: #666; stroke-width: 0px;"/>
    <path d="m30.9,472.49c-.11.13-.24.25-.4.35s-.32.18-.49.24-.36.11-.54.14c-.19.03-.37.05-.55.05-.35,0-.67-.06-.97-.18-.29-.12-.55-.29-.76-.52-.21-.23-.38-.51-.5-.85-.12-.34-.18-.72-.18-1.16,0-.35.05-.68.16-.99.11-.31.26-.57.47-.8.2-.22.45-.4.75-.53.29-.13.62-.19.99-.19.3,0,.58.05.84.15.26.1.48.25.67.44.19.19.34.43.44.71.11.28.16.6.16.96,0,.14-.02.23-.04.28-.03.05-.09.07-.17.07h-3.39c.01.32.05.6.13.83.08.24.19.43.33.59.14.16.31.28.5.36.19.08.41.12.65.12.22,0,.42-.03.58-.08.16-.05.3-.11.42-.17.12-.06.21-.12.29-.17.08-.05.15-.08.2-.08.07,0,.13.03.17.08l.25.33Zm-.72-2.38c0-.21-.03-.4-.09-.57s-.14-.32-.25-.45c-.11-.12-.25-.22-.41-.29-.16-.07-.34-.1-.55-.1-.43,0-.76.12-1.01.37-.25.25-.4.59-.46,1.03h2.77Z" style="fill: #666; stroke-width: 0px;"/>
    <path d="m31.99,468.9c0-.09.02-.17.05-.25.03-.08.08-.14.13-.2.05-.06.12-.1.2-.13.08-.03.16-.05.25-.05s.17.02.25.05c.08.03.14.08.2.13s.1.12.14.2c.03.08.05.16.05.25s-.02.17-.05.25c-.03.08-.08.14-.14.2-.06.06-.12.1-.2.13-.08.03-.16.05-.25.05s-.17-.02-.25-.05c-.08-.03-.14-.08-.2-.13-.06-.06-.1-.12-.13-.2-.03-.08-.05-.16-.05-.25Zm0,3.75c0-.09.02-.17.05-.25.03-.08.08-.14.13-.2.05-.06.12-.1.2-.13.08-.03.16-.05.25-.05s.17.02.25.05c.08.03.14.08.2.13s.1.12.14.2c.03.08.05.16.05.25s-.02.17-.05.25c-.03.08-.08.14-.14.2-.06.06-.12.1-.2.13-.08.03-.16.05-.25.05s-.17-.02-.25-.05c-.08-.03-.14-.08-.2-.13-.06-.06-.1-.12-.13-.2-.03-.08-.05-.16-.05-.25Z" style="fill: #666; stroke-width: 0px;"/>
    <path d="m40.11,472.43c.3,0,.56-.05.79-.15s.43-.24.59-.42c.16-.18.29-.4.37-.65s.13-.52.13-.82v-4.36h.96v4.36c0,.41-.07.8-.2,1.15s-.32.66-.57.92c-.25.26-.54.46-.9.61s-.75.22-1.19.22-.84-.07-1.19-.22-.65-.35-.9-.61c-.25-.26-.44-.56-.57-.92s-.2-.74-.2-1.15v-4.36h.96v4.35c0,.3.04.58.13.83s.21.46.37.65c.16.18.36.32.59.42.24.1.5.15.8.15Z" style="fill: #666; stroke-width: 0px;"/>
    <path d="m50.5,466.04v7.17h-.49c-.08,0-.14-.01-.19-.04s-.1-.07-.15-.13l-4.14-5.4c0,.08.01.17.01.25s0,.16,0,.22v5.11h-.85v-7.17h.5s.08,0,.11,0c.03,0,.06.01.08.02s.05.03.07.05c.02.02.05.05.08.08l4.14,5.39c0-.09-.01-.17-.02-.25s0-.16,0-.23v-5.08h.85Z" style="fill: #666; stroke-width: 0px;"/>
    <path d="m58.13,466.04v7.17h-.97v-3.26h-3.87v3.26h-.97v-7.17h.97v3.2h3.87v-3.2h.97Z" style="fill: #666; stroke-width: 0px;"/>
    <path d="m65,471.72c.05,0,.1.02.14.07l.38.42c-.29.34-.65.61-1.07.79-.42.19-.92.29-1.52.29-.51,0-.98-.09-1.4-.27s-.78-.43-1.07-.75c-.3-.32-.53-.71-.69-1.16s-.25-.95-.25-1.49.08-1.04.25-1.49c.17-.45.41-.84.72-1.16s.68-.57,1.11-.75.9-.27,1.43-.27.96.08,1.35.25c.39.16.73.38,1.03.67l-.32.45s-.04.06-.08.08c-.03.02-.07.03-.13.03-.06,0-.13-.03-.22-.1-.09-.07-.2-.14-.34-.22-.14-.08-.32-.15-.53-.22-.21-.06-.47-.1-.78-.1-.37,0-.71.06-1.02.19-.31.13-.57.31-.79.56s-.39.54-.52.89c-.12.35-.18.75-.18,1.18s.06.84.19,1.2c.13.35.3.65.52.89.22.24.48.43.79.55.3.13.63.19.98.19.21,0,.4-.01.58-.04.17-.02.33-.06.47-.12.15-.05.28-.12.41-.2.12-.08.25-.18.37-.29.06-.05.11-.08.17-.08Z" style="fill: #666; stroke-width: 0px;"/>
    <path d="m71.94,473.2h-.86c-.18,0-.31-.07-.39-.21l-1.86-2.56c-.06-.08-.12-.14-.18-.17-.07-.04-.17-.05-.3-.05h-.74v2.99h-.96v-7.17h2.03c.45,0,.84.05,1.17.14s.6.22.82.4c.21.17.37.38.48.63.1.25.16.52.16.82,0,.25-.04.49-.12.71-.08.22-.2.42-.35.59-.15.18-.34.32-.55.45-.22.12-.47.22-.74.28.12.07.23.17.32.31l2.09,2.84Zm-3.31-3.7c.28,0,.53-.03.74-.1s.39-.17.54-.29c.14-.12.25-.27.33-.45.07-.17.11-.37.11-.58,0-.43-.14-.75-.42-.96s-.7-.33-1.26-.33h-1.06v2.71h1.02Z" style="fill: #666; stroke-width: 0px;"/>
    <path d="m82.09,469.62c0,.54-.08,1.03-.25,1.48s-.41.83-.72,1.16c-.31.32-.68.57-1.12.75-.43.18-.92.27-1.44.27s-1.01-.09-1.44-.27c-.43-.18-.8-.43-1.11-.75-.31-.32-.55-.71-.72-1.16s-.25-.94-.25-1.48.08-1.03.25-1.48.41-.83.72-1.16c.31-.33.68-.58,1.11-.76.43-.18.91-.27,1.44-.27s1.01.09,1.44.27c.44.18.81.43,1.12.76.31.33.55.71.72,1.16s.25.94.25,1.48Zm-1,0c0-.44-.06-.83-.18-1.18-.12-.35-.29-.65-.51-.89-.22-.24-.49-.43-.8-.56s-.66-.2-1.05-.2-.73.07-1.04.2-.58.32-.8.56c-.22.24-.39.54-.51.89-.12.35-.18.75-.18,1.18s.06.83.18,1.18.29.64.51.88c.22.24.49.43.8.56.31.13.66.19,1.04.19s.74-.06,1.05-.19c.31-.13.58-.31.8-.56.22-.24.39-.54.51-.88s.18-.74.18-1.18Z" style="fill: #666; stroke-width: 0px;"/>
    <path d="m84.11,468.92c.21-.26.46-.47.74-.63s.6-.24.96-.24c.29,0,.56.06.79.17.24.11.44.28.61.5.17.22.29.49.38.81s.13.69.13,1.11c0,.37-.05.72-.15,1.04-.1.32-.24.6-.43.83s-.42.42-.69.55c-.27.14-.58.2-.92.2-.31,0-.58-.05-.8-.16-.22-.1-.42-.25-.59-.44v2.24h-.89v-6.78h.54c.13,0,.21.06.23.19l.08.6Zm.04,3.06c.16.22.34.38.54.46s.41.13.65.13c.47,0,.84-.17,1.09-.5s.38-.82.38-1.44c0-.33-.03-.61-.09-.85-.06-.24-.14-.43-.25-.58-.11-.15-.25-.26-.41-.33s-.34-.1-.54-.1c-.29,0-.54.07-.76.2-.22.13-.42.32-.6.57v2.45Z" style="fill: #666; stroke-width: 0px;"/>
    <path d="m92.98,472.49c-.11.13-.24.25-.4.35s-.32.18-.49.24-.36.11-.54.14-.37.05-.55.05c-.35,0-.67-.06-.97-.18s-.55-.29-.76-.52c-.21-.23-.38-.51-.5-.85-.12-.34-.18-.72-.18-1.16,0-.35.05-.68.16-.99s.26-.57.47-.8c.2-.22.45-.4.75-.53.29-.13.62-.19.99-.19.3,0,.58.05.84.15.26.1.48.25.67.44.19.19.33.43.44.71.11.28.16.6.16.96,0,.14-.01.23-.04.28-.03.05-.09.07-.17.07h-3.38c0,.32.05.6.13.83.08.24.19.43.33.59s.31.28.5.36c.19.08.41.12.65.12.22,0,.42-.03.58-.08.16-.05.3-.11.42-.17.12-.06.21-.12.29-.17.08-.05.15-.08.2-.08.07,0,.13.03.17.08l.25.33Zm-.72-2.38c0-.21-.03-.4-.09-.57-.06-.17-.14-.32-.25-.45-.11-.12-.25-.22-.41-.29s-.34-.1-.54-.1c-.43,0-.76.12-1.01.37s-.4.59-.46,1.03h2.77Z" style="fill: #666; stroke-width: 0px;"/>
    <path d="m94.99,469.15c.16-.35.36-.62.59-.81.23-.2.52-.29.86-.29.11,0,.21.01.31.04.1.02.19.06.26.11l-.07.67c-.02.08-.07.12-.15.12-.05,0-.11-.01-.21-.03-.09-.02-.19-.03-.3-.03-.16,0-.3.02-.43.07s-.24.12-.33.21c-.1.09-.19.21-.26.34-.08.13-.15.29-.21.46v3.2h-.89v-5.07h.51c.1,0,.16.02.2.06s.06.1.08.19l.06.77Z" style="fill: #666; stroke-width: 0px;"/>
    <path d="m97.66,468.85c.28-.27.58-.47.91-.61.32-.13.68-.2,1.07-.2.28,0,.54.05.75.14.22.09.41.22.56.39.15.17.26.37.34.61.08.24.12.5.12.78v3.24h-.4c-.09,0-.15-.01-.2-.04-.05-.03-.08-.08-.11-.17l-.1-.48c-.13.12-.26.23-.39.33s-.26.17-.4.24c-.14.06-.29.11-.45.15s-.33.05-.53.05-.38-.03-.55-.08c-.17-.05-.32-.14-.45-.25-.13-.11-.23-.25-.3-.42-.08-.17-.11-.37-.11-.6,0-.2.05-.39.17-.58.11-.18.29-.35.54-.49.25-.14.57-.26.96-.35s.88-.14,1.46-.16v-.4c0-.39-.08-.69-.25-.89-.17-.2-.42-.3-.75-.3-.22,0-.4.03-.55.08s-.28.12-.38.18c-.11.07-.2.13-.28.19s-.16.08-.23.08c-.06,0-.11-.02-.16-.05-.04-.03-.08-.07-.11-.12l-.16-.28Zm2.88,2.07c-.41.01-.76.05-1.05.1s-.52.12-.71.2c-.18.08-.31.18-.39.3-.08.11-.12.24-.12.38,0,.13.02.25.07.34.04.1.1.18.18.24.07.06.16.11.26.13s.21.04.33.04c.16,0,.3-.02.43-.05.13-.03.25-.08.37-.14.12-.06.22-.13.33-.21.1-.08.21-.18.31-.29v-1.05Z" style="fill: #666; stroke-width: 0px;"/>
    <path d="m107.46,473.2h-.89v-4.32h-2.61v3.04c0,.21.05.37.15.48.1.1.24.15.4.15.09,0,.17-.01.24-.04s.13-.05.18-.08c.05-.03.09-.06.13-.08s.07-.04.09-.04c.05,0,.09.03.12.08l.26.42c-.15.14-.34.26-.56.34-.22.08-.44.12-.67.12-.4,0-.71-.11-.92-.33-.22-.22-.32-.54-.32-.96v-3.1h-.61c-.05,0-.1-.02-.14-.05-.04-.03-.05-.08-.05-.15v-.36l.83-.11.21-1.56s.03-.09.07-.12c.04-.03.08-.05.14-.05h.45v1.75h3.5v4.96Zm.22-6.69c0,.09-.02.17-.05.24s-.08.14-.14.2-.13.1-.2.13c-.08.03-.16.05-.25.05s-.17-.02-.24-.05c-.07-.03-.14-.08-.2-.13s-.1-.12-.13-.2-.05-.16-.05-.24.02-.17.05-.25.08-.15.13-.21.12-.1.2-.14c.08-.03.16-.05.24-.05s.17.02.25.05c.08.03.14.08.2.14s.1.13.14.21.05.16.05.25Z" style="fill: #666; stroke-width: 0px;"/>
    <path d="m111.05,468.06c.37,0,.7.06,1,.18s.55.3.76.53c.21.23.37.5.48.82.11.32.17.68.17,1.08s-.06.76-.17,1.08c-.11.32-.27.59-.48.82s-.46.4-.76.52c-.3.12-.63.18-1,.18s-.71-.06-1.01-.18c-.3-.12-.55-.3-.76-.52s-.37-.5-.48-.82c-.11-.32-.17-.68-.17-1.08s.06-.76.17-1.08c.11-.32.27-.6.48-.82.21-.23.46-.4.76-.53.3-.12.63-.18,1.01-.18Zm0,4.52c.5,0,.87-.17,1.12-.5s.37-.8.37-1.4-.12-1.07-.37-1.41c-.25-.34-.62-.5-1.12-.5-.25,0-.47.04-.66.13-.19.09-.35.21-.47.38-.12.16-.22.36-.28.6s-.09.51-.09.81c0,.6.12,1.07.37,1.4.25.33.63.5,1.13.5Z" style="fill: #666; stroke-width: 0px;"/>
    <path d="m115.43,468.87c.11-.12.23-.24.35-.33.12-.1.25-.19.39-.26.14-.07.29-.13.44-.17.16-.04.32-.06.5-.06.28,0,.52.04.73.14.21.09.39.22.53.39.14.17.25.37.32.61.07.24.11.5.11.79v3.22h-.89v-3.22c0-.38-.09-.68-.26-.89-.17-.21-.44-.32-.8-.32-.26,0-.51.06-.74.19s-.44.3-.63.51v3.73h-.89v-5.07h.54c.13,0,.21.06.23.19l.07.55Z" style="fill: #666; stroke-width: 0px;"/>
    <path d="m120.04,468.85c.28-.27.58-.47.91-.61.32-.13.68-.2,1.07-.2.28,0,.54.05.75.14.22.09.41.22.56.39.15.17.26.37.34.61.08.24.12.5.12.78v3.24h-.4c-.09,0-.15-.01-.2-.04-.05-.03-.08-.08-.11-.17l-.1-.48c-.13.12-.26.23-.39.33s-.26.17-.4.24c-.14.06-.29.11-.45.15s-.33.05-.53.05-.38-.03-.55-.08c-.17-.05-.32-.14-.45-.25-.13-.11-.23-.25-.3-.42-.08-.17-.11-.37-.11-.6,0-.2.05-.39.17-.58.11-.18.29-.35.54-.49.25-.14.57-.26.96-.35s.88-.14,1.46-.16v-.4c0-.39-.08-.69-.25-.89-.17-.2-.42-.3-.75-.3-.22,0-.4.03-.55.08s-.28.12-.38.18c-.11.07-.2.13-.28.19s-.16.08-.23.08c-.06,0-.11-.02-.16-.05-.04-.03-.08-.07-.11-.12l-.16-.28Zm2.88,2.07c-.41.01-.76.05-1.05.1s-.52.12-.71.2c-.18.08-.31.18-.39.3-.08.11-.12.24-.12.38,0,.13.02.25.07.34.04.1.1.18.18.24.07.06.16.11.26.13s.21.04.33.04c.16,0,.3-.02.43-.05.13-.03.25-.08.37-.14.12-.06.22-.13.33-.21.1-.08.21-.18.31-.29v-1.05Z" style="fill: #666; stroke-width: 0px;"/>
    <path d="m126.06,465.84v7.37h-.89v-7.37h.89Z" style="fill: #666; stroke-width: 0px;"/>
    <path d="m134.25,465.84v7.37h-.53c-.13,0-.21-.06-.24-.18l-.08-.62c-.22.26-.46.47-.74.63-.28.16-.6.24-.96.24-.29,0-.55-.06-.79-.17-.24-.11-.44-.28-.6-.49-.17-.22-.29-.49-.38-.81-.09-.32-.14-.69-.14-1.11,0-.37.05-.72.15-1.04.1-.32.24-.6.43-.84.19-.24.42-.42.69-.56.27-.14.58-.2.92-.2.31,0,.58.05.8.16.22.1.42.25.59.44v-2.81h.89Zm-.89,3.5c-.17-.22-.35-.38-.54-.47-.19-.09-.41-.13-.65-.13-.47,0-.83.17-1.08.5-.25.34-.38.82-.38,1.44,0,.33.03.61.08.85.06.24.14.43.25.58.11.15.25.26.41.33s.34.1.54.1c.29,0,.55-.07.77-.2.22-.13.42-.32.6-.57v-2.45Z" style="fill: #666; stroke-width: 0px;"/>
    <path d="m135.53,468.85c.28-.27.58-.47.91-.61.32-.13.68-.2,1.07-.2.28,0,.54.05.75.14.22.09.41.22.56.39.15.17.26.37.34.61.08.24.12.5.12.78v3.24h-.4c-.09,0-.15-.01-.2-.04-.05-.03-.08-.08-.11-.17l-.1-.48c-.13.12-.26.23-.39.33s-.26.17-.4.24c-.14.06-.29.11-.45.15s-.33.05-.53.05-.38-.03-.55-.08c-.17-.05-.32-.14-.45-.25-.13-.11-.23-.25-.3-.42-.08-.17-.11-.37-.11-.6,0-.2.05-.39.17-.58.11-.18.29-.35.54-.49.25-.14.57-.26.96-.35s.88-.14,1.46-.16v-.4c0-.39-.08-.69-.25-.89-.17-.2-.42-.3-.75-.3-.22,0-.4.03-.55.08s-.28.12-.38.18c-.11.07-.2.13-.28.19s-.16.08-.23.08c-.06,0-.11-.02-.16-.05-.04-.03-.08-.07-.11-.12l-.16-.28Zm2.88,2.07c-.41.01-.76.05-1.05.1s-.52.12-.71.2c-.18.08-.31.18-.39.3-.08.11-.12.24-.12.38,0,.13.02.25.07.34.04.1.1.18.18.24.07.06.16.11.26.13s.21.04.33.04c.16,0,.3-.02.43-.05.13-.03.25-.08.37-.14.12-.06.22-.13.33-.21.1-.08.21-.18.31-.29v-1.05Z" style="fill: #666; stroke-width: 0px;"/>
    <path d="m142.18,473.28c-.4,0-.71-.11-.92-.33-.22-.22-.32-.54-.32-.96v-3.1h-.61c-.05,0-.1-.02-.14-.05-.04-.03-.05-.08-.05-.15v-.36l.83-.1.21-1.57s.03-.09.07-.12c.04-.03.08-.05.14-.05h.45v1.75h1.46v.64h-1.46v3.04c0,.21.05.37.15.48.1.1.24.15.4.15.09,0,.17-.01.24-.04s.13-.05.18-.08c.05-.03.09-.06.13-.08s.07-.04.09-.04c.05,0,.09.03.12.08l.26.42c-.15.14-.34.26-.56.34-.22.08-.44.12-.67.12Z" style="fill: #666; stroke-width: 0px;"/>
    <path d="m144.08,468.85c.28-.27.58-.47.91-.61.32-.13.68-.2,1.07-.2.28,0,.54.05.75.14.22.09.41.22.56.39.15.17.26.37.34.61.08.24.12.5.12.78v3.24h-.4c-.09,0-.15-.01-.2-.04-.05-.03-.08-.08-.11-.17l-.1-.48c-.13.12-.26.23-.39.33s-.26.17-.4.24c-.14.06-.29.11-.45.15s-.33.05-.53.05-.38-.03-.55-.08c-.17-.05-.32-.14-.45-.25-.13-.11-.23-.25-.3-.42-.08-.17-.11-.37-.11-.6,0-.2.05-.39.17-.58.11-.18.29-.35.54-.49.25-.14.57-.26.96-.35s.88-.14,1.46-.16v-.4c0-.39-.08-.69-.25-.89-.17-.2-.42-.3-.75-.3-.22,0-.4.03-.55.08s-.28.12-.38.18c-.11.07-.2.13-.28.19s-.16.08-.23.08c-.06,0-.11-.02-.16-.05-.04-.03-.08-.07-.11-.12l-.16-.28Zm2.88,2.07c-.41.01-.76.05-1.05.1s-.52.12-.71.2c-.18.08-.31.18-.39.3-.08.11-.12.24-.12.38,0,.13.02.25.07.34.04.1.1.18.18.24.07.06.16.11.26.13s.21.04.33.04c.16,0,.3-.02.43-.05.13-.03.25-.08.37-.14.12-.06.22-.13.33-.21.1-.08.21-.18.31-.29v-1.05Z" style="fill: #666; stroke-width: 0px;"/>
    <path d="m154.07,466.04c.45,0,.85.05,1.18.16.33.11.61.25.83.45s.38.43.49.7c.11.27.16.58.16.92s-.06.64-.17.92c-.12.28-.29.52-.51.71-.23.2-.5.36-.83.47-.33.11-.71.17-1.15.17h-1.15v2.68h-.96v-7.17h2.12Zm0,3.71c.28,0,.52-.04.73-.11s.39-.18.54-.31c.14-.13.25-.29.33-.47s.11-.38.11-.61c0-.46-.14-.81-.42-1.07s-.71-.39-1.28-.39h-1.15v2.95h1.15Z" style="fill: #666; stroke-width: 0px;"/>
    <path d="m159.88,468.06c.37,0,.7.06,1,.18s.55.3.76.53c.21.23.37.5.48.82.11.32.17.68.17,1.08s-.06.76-.17,1.08c-.11.32-.27.59-.48.82s-.46.4-.76.52c-.3.12-.63.18-1,.18s-.71-.06-1.01-.18c-.3-.12-.55-.3-.76-.52s-.37-.5-.48-.82c-.11-.32-.17-.68-.17-1.08s.06-.76.17-1.08c.11-.32.27-.6.48-.82.21-.23.46-.4.76-.53.3-.12.63-.18,1.01-.18Zm0,4.52c.5,0,.87-.17,1.12-.5s.37-.8.37-1.4-.12-1.07-.37-1.41c-.25-.34-.62-.5-1.12-.5-.25,0-.47.04-.66.13-.19.09-.35.21-.47.38-.12.16-.22.36-.28.6s-.09.51-.09.81c0,.6.12,1.07.37,1.4.25.33.63.5,1.13.5Z" style="fill: #666; stroke-width: 0px;"/>
    <path d="m164.26,469.15c.16-.35.36-.62.59-.81.23-.2.52-.29.86-.29.11,0,.21.01.31.04.1.02.19.06.26.11l-.07.67c-.02.08-.07.12-.15.12-.05,0-.11-.01-.21-.03-.09-.02-.19-.03-.3-.03-.16,0-.3.02-.43.07s-.24.12-.33.21c-.1.09-.19.21-.26.34-.08.13-.15.29-.21.46v3.2h-.89v-5.07h.51c.1,0,.16.02.2.06s.06.1.08.19l.06.77Z" style="fill: #666; stroke-width: 0px;"/>
    <path d="m168.61,473.28c-.4,0-.71-.11-.92-.33-.22-.22-.32-.54-.32-.96v-3.1h-.61c-.05,0-.1-.02-.14-.05-.04-.03-.05-.08-.05-.15v-.36l.83-.1.21-1.57s.03-.09.07-.12c.04-.03.08-.05.14-.05h.45v1.75h1.46v.64h-1.46v3.04c0,.21.05.37.15.48.1.1.24.15.4.15.09,0,.17-.01.24-.04s.13-.05.18-.08c.05-.03.09-.06.13-.08s.07-.04.09-.04c.05,0,.09.03.12.08l.26.42c-.15.14-.34.26-.56.34-.22.08-.44.12-.67.12Z" style="fill: #666; stroke-width: 0px;"/>
    <path d="m170.51,468.85c.28-.27.58-.47.91-.61.32-.13.68-.2,1.07-.2.28,0,.54.05.75.14.22.09.41.22.56.39.15.17.26.37.34.61.08.24.12.5.12.78v3.24h-.4c-.09,0-.15-.01-.2-.04-.05-.03-.08-.08-.11-.17l-.1-.48c-.13.12-.26.23-.39.33s-.26.17-.4.24c-.14.06-.29.11-.45.15s-.33.05-.53.05-.38-.03-.55-.08c-.17-.05-.32-.14-.45-.25-.13-.11-.23-.25-.3-.42-.08-.17-.11-.37-.11-.6,0-.2.05-.39.17-.58.11-.18.29-.35.54-.49.25-.14.57-.26.96-.35s.88-.14,1.46-.16v-.4c0-.39-.08-.69-.25-.89-.17-.2-.42-.3-.75-.3-.22,0-.4.03-.55.08s-.28.12-.38.18c-.11.07-.2.13-.28.19s-.16.08-.23.08c-.06,0-.11-.02-.16-.05-.04-.03-.08-.07-.11-.12l-.16-.28Zm2.88,2.07c-.41.01-.76.05-1.05.1s-.52.12-.71.2c-.18.08-.31.18-.39.3-.08.11-.12.24-.12.38,0,.13.02.25.07.34.04.1.1.18.18.24.07.06.16.11.26.13s.21.04.33.04c.16,0,.3-.02.43-.05.13-.03.25-.08.37-.14.12-.06.22-.13.33-.21.1-.08.21-.18.31-.29v-1.05Z" style="fill: #666; stroke-width: 0px;"/>
    <path d="m176.53,465.84v7.37h-.89v-7.37h.89Z" style="fill: #666; stroke-width: 0px;"/>
  </g>
  <g>
    <path d="m13.8.4v14.46h-1.38c-.21,0-.39-.04-.54-.1s-.28-.19-.42-.35L3.92,4.76c.04.44.06.85.06,1.22v8.88H1.61V.4h1.41c.11,0,.21,0,.29.02.08,0,.16.03.22.06.06.03.12.07.18.13s.13.13.2.23l7.58,9.68c-.02-.23-.04-.46-.05-.69-.01-.23-.02-.44-.02-.63V.4h2.37Z" style="stroke-width: 0px;"/>
    <path d="m18.53,10.04c.04.53.13.98.28,1.36s.34.7.58.95.52.44.85.56c.33.12.7.19,1.1.19s.74-.05,1.03-.14.54-.2.76-.31c.22-.11.41-.22.57-.31.16-.09.32-.14.48-.14.21,0,.36.08.46.23l.71.9c-.27.32-.58.59-.92.8-.34.22-.7.39-1.07.52s-.75.22-1.13.27-.75.08-1.12.08c-.71,0-1.38-.12-1.99-.35-.61-.24-1.15-.59-1.6-1.05s-.81-1.04-1.07-1.72c-.26-.68-.39-1.48-.39-2.38,0-.7.11-1.36.34-1.98.23-.62.55-1.15.98-1.61.42-.46.94-.82,1.55-1.08.61-.27,1.3-.4,2.06-.4.65,0,1.24.1,1.79.31.55.21,1.02.51,1.41.9.39.4.7.88.92,1.46.22.58.33,1.24.33,1.98,0,.37-.04.62-.12.75-.08.13-.23.2-.46.2h-6.35Zm4.71-1.49c0-.32-.04-.62-.13-.9s-.22-.53-.41-.75c-.18-.21-.41-.38-.68-.5-.28-.12-.6-.19-.96-.19-.71,0-1.28.2-1.69.61s-.67.98-.79,1.73h4.66Z" style="stroke-width: 0px;"/>
    <path d="m41.96,4.6l-3.26,10.26h-1.98c-.23,0-.38-.15-.47-.44l-1.84-5.93c-.06-.2-.11-.4-.17-.59-.05-.2-.09-.4-.12-.6-.04.2-.08.4-.13.6-.05.2-.1.41-.17.6l-1.87,5.91c-.08.29-.26.44-.53.44h-1.9l-3.25-10.26h1.97c.18,0,.33.04.46.13.13.09.21.2.25.33l1.47,5.48c.07.3.14.59.19.88s.11.57.15.86c.07-.29.15-.57.23-.86.08-.29.17-.58.27-.88l1.7-5.5c.04-.13.12-.24.23-.33.12-.09.26-.13.42-.13h1.09c.17,0,.32.04.44.13.12.09.21.2.25.33l1.65,5.5c.09.3.17.59.25.88.08.29.15.58.22.87.09-.57.21-1.15.37-1.75l1.51-5.48c.05-.13.13-.24.25-.33.12-.09.26-.13.43-.13h1.88Z" style="stroke-width: 0px;"/>
    <path d="m45.86,0v14.86h-2.47V0h2.47Z" style="stroke-width: 0px;"/>
    <path d="m57.65,4.6l-5.59,13.08c-.07.17-.17.31-.29.4-.12.09-.29.14-.54.14h-1.84l1.92-4.12-4.15-9.49h2.17c.19,0,.34.05.45.14.11.09.19.2.25.32l2.18,5.32c.07.18.13.36.18.54s.1.36.15.55c.06-.19.12-.37.18-.55.06-.18.13-.37.2-.55l2.06-5.31c.05-.13.14-.24.26-.33.12-.09.26-.13.42-.13h1.98Z" style="stroke-width: 0px;"/>
    <path d="m63.5,6.03c1.18-1.08,2.6-1.62,4.26-1.62.6,0,1.14.1,1.61.3.47.2.87.47,1.2.82.33.35.58.77.75,1.25.17.49.25,1.02.25,1.6v6.48h-1.12c-.23,0-.41-.04-.54-.1-.13-.07-.23-.21-.3-.42l-.22-.74c-.26.23-.51.44-.76.62-.25.18-.5.32-.77.44s-.55.21-.85.27c-.3.06-.64.1-1,.1-.43,0-.83-.06-1.2-.18-.37-.12-.68-.29-.95-.52s-.47-.52-.62-.87c-.15-.35-.22-.75-.22-1.21,0-.26.04-.52.13-.77.09-.26.23-.5.42-.73s.45-.45.76-.66.7-.39,1.16-.54.99-.28,1.59-.38c.61-.1,1.3-.15,2.08-.17v-.6c0-.69-.15-1.19-.44-1.52-.29-.33-.72-.5-1.27-.5-.4,0-.73.05-1,.14-.26.09-.49.2-.69.31s-.38.22-.54.31c-.16.09-.35.14-.54.14-.17,0-.32-.04-.44-.14-.12-.09-.22-.19-.29-.31l-.44-.79Zm5.66,4.45c-.71.03-1.31.09-1.8.19-.49.09-.88.2-1.17.34s-.5.3-.63.49-.19.39-.19.61c0,.43.13.74.39.93.26.19.59.28,1,.28.51,0,.94-.09,1.31-.27.37-.18.73-.46,1.08-.83v-1.73Z" style="stroke-width: 0px;"/>
    <path d="m76.22,6.38c.32-.61.7-1.1,1.14-1.44.44-.35.96-.53,1.56-.53.47,0,.85.1,1.14.31l-.16,1.85c-.03.12-.08.21-.15.25-.06.05-.15.08-.25.08-.1,0-.25-.02-.45-.05-.2-.03-.39-.05-.58-.05-.27,0-.52.04-.73.12-.21.08-.41.19-.58.34-.17.15-.32.33-.45.55s-.25.46-.36.73v6.32h-2.47V4.6h1.45c.25,0,.43.04.53.13.1.09.17.25.2.48l.15,1.16Z" style="stroke-width: 0px;"/>
    <path d="m83.68,6.38c.32-.61.7-1.1,1.14-1.44.44-.35.96-.53,1.56-.53.47,0,.85.1,1.14.31l-.16,1.85c-.03.12-.08.21-.15.25-.06.05-.15.08-.25.08-.1,0-.25-.02-.45-.05-.2-.03-.39-.05-.58-.05-.27,0-.52.04-.73.12-.21.08-.41.19-.58.34-.17.15-.32.33-.45.55s-.25.46-.36.73v6.32h-2.47V4.6h1.45c.25,0,.43.04.53.13.1.09.17.25.2.48l.15,1.16Z" style="stroke-width: 0px;"/>
    <path d="m91.71,1.61c0,.21-.04.41-.13.6-.09.19-.2.35-.35.49-.14.14-.31.25-.5.33-.19.08-.4.12-.62.12s-.41-.04-.6-.12c-.19-.08-.36-.19-.5-.33-.14-.14-.25-.3-.33-.49s-.12-.39-.12-.6.04-.43.12-.62.2-.36.33-.5c.14-.14.3-.25.5-.33.19-.08.39-.12.6-.12s.43.04.62.12c.19.08.36.2.5.33.14.14.26.31.35.5.09.19.13.4.13.62Zm-.34,2.99v10.26h-2.48V4.6h2.48Z" style="stroke-width: 0px;"/>
    <path d="m103.14,4.6l-4.07,10.26h-2.24l-4.07-10.26h2.04c.19,0,.34.04.46.13.12.09.21.2.25.33l1.98,5.48c.11.32.2.63.28.94s.15.61.21.92c.07-.31.14-.61.22-.92s.18-.62.29-.94l2.02-5.48c.05-.13.13-.24.25-.33.12-.09.26-.13.43-.13h1.95Z" style="stroke-width: 0px;"/>
    <path d="m106.35,10.04c.04.53.13.98.28,1.36.15.38.34.7.58.95.24.25.52.44.85.56.33.12.7.19,1.09.19s.75-.05,1.04-.14.54-.2.76-.31.41-.22.57-.31.32-.14.47-.14c.21,0,.36.08.46.23l.71.9c-.27.32-.58.59-.92.8-.34.22-.69.39-1.06.52s-.75.22-1.13.27c-.38.05-.75.08-1.12.08-.71,0-1.38-.12-1.99-.35-.61-.24-1.15-.59-1.6-1.05s-.81-1.04-1.07-1.72c-.26-.68-.39-1.48-.39-2.38,0-.7.11-1.36.34-1.98.23-.62.55-1.15.97-1.61.42-.46.94-.82,1.55-1.08.61-.27,1.3-.4,2.06-.4.65,0,1.24.1,1.79.31s1.02.51,1.41.9c.39.4.7.88.92,1.46s.33,1.24.33,1.98c0,.37-.04.62-.12.75-.08.13-.23.2-.46.2h-6.35Zm4.71-1.49c0-.32-.04-.62-.13-.9s-.23-.53-.41-.75-.41-.38-.68-.5c-.28-.12-.6-.19-.97-.19-.71,0-1.27.2-1.68.61s-.67.98-.79,1.73h4.66Z" style="stroke-width: 0px;"/>
    <path d="m124.04,0v14.86h-1.51c-.33,0-.53-.15-.62-.45l-.21-.99c-.41.47-.89.86-1.42,1.15-.54.29-1.16.44-1.88.44-.56,0-1.07-.12-1.54-.35-.47-.23-.87-.57-1.21-1.01s-.6-.99-.78-1.65-.27-1.4-.27-2.24c0-.76.1-1.47.31-2.12.21-.65.5-1.22.89-1.7s.85-.85,1.39-1.12,1.15-.41,1.82-.41c.57,0,1.06.09,1.47.27.41.18.77.42,1.09.73V0h2.47Zm-2.47,7.22c-.28-.34-.58-.58-.92-.72-.33-.14-.69-.21-1.07-.21s-.71.07-1.01.21c-.3.14-.56.35-.77.63-.21.28-.38.64-.49,1.08s-.17.95-.17,1.54.05,1.11.14,1.52c.1.42.24.76.42,1.02.18.26.4.45.66.57s.55.17.87.17c.51,0,.95-.11,1.31-.32.36-.21.7-.52,1.02-.91v-4.6Z" style="stroke-width: 0px;"/>
    <path d="m133.67,6.38c.32-.61.7-1.1,1.14-1.44.44-.35.96-.53,1.56-.53.47,0,.85.1,1.14.31l-.16,1.85c-.03.12-.08.21-.15.25-.06.05-.15.08-.25.08-.1,0-.25-.02-.45-.05-.2-.03-.39-.05-.58-.05-.27,0-.52.04-.73.12-.21.08-.41.19-.58.34-.17.15-.32.33-.45.55s-.25.46-.36.73v6.32h-2.47V4.6h1.45c.25,0,.43.04.53.13.1.09.17.25.2.48l.15,1.16Z" style="fill: #0072bc; stroke-width: 0px;"/>
    <path d="m140.7,10.04c.04.53.13.98.28,1.36.15.38.34.7.58.95.24.25.52.44.85.56.33.12.7.19,1.09.19s.75-.05,1.04-.14.54-.2.76-.31.41-.22.57-.31.32-.14.47-.14c.21,0,.36.08.46.23l.71.9c-.27.32-.58.59-.92.8-.34.22-.69.39-1.06.52s-.75.22-1.13.27c-.38.05-.75.08-1.12.08-.71,0-1.38-.12-1.99-.35-.61-.24-1.15-.59-1.6-1.05s-.81-1.04-1.07-1.72c-.26-.68-.39-1.48-.39-2.38,0-.7.11-1.36.34-1.98.23-.62.55-1.15.97-1.61.42-.46.94-.82,1.55-1.08.61-.27,1.3-.4,2.06-.4.65,0,1.24.1,1.79.31s1.02.51,1.41.9c.39.4.7.88.92,1.46s.33,1.24.33,1.98c0,.37-.04.62-.12.75-.08.13-.23.2-.46.2h-6.35Zm4.71-1.49c0-.32-.04-.62-.13-.9s-.23-.53-.41-.75-.41-.38-.68-.5c-.28-.12-.6-.19-.97-.19-.71,0-1.27.2-1.68.61s-.67.98-.79,1.73h4.66Z" style="fill: #0072bc; stroke-width: 0px;"/>
    <path d="m150.2,14.86V6.46l-.89-.14c-.19-.04-.35-.11-.46-.21s-.17-.23-.17-.42v-1.01h1.53v-.76c0-.59.09-1.11.26-1.58.18-.47.43-.86.76-1.19.33-.33.73-.58,1.21-.75.47-.17,1.01-.26,1.6-.26.47,0,.91.06,1.32.19l-.05,1.24c0,.09-.03.17-.08.22-.05.06-.11.1-.18.13-.08.03-.17.05-.27.06-.1.01-.21.02-.32.02-.29,0-.56.03-.79.1-.23.06-.42.17-.58.33s-.28.36-.37.62c-.08.26-.12.58-.12.96v.68h2.67v1.76h-2.59v8.41h-2.47Z" style="fill: #0072bc; stroke-width: 0px;"/>
    <path d="m165.49,4.6v10.26h-1.51c-.33,0-.53-.15-.62-.45l-.17-.82c-.42.43-.88.77-1.39,1.04s-1.1.4-1.79.4c-.56,0-1.05-.1-1.49-.29-.43-.19-.79-.46-1.08-.81-.29-.35-.51-.76-.67-1.23-.15-.48-.22-1-.22-1.58v-6.52h2.47v6.52c0,.63.15,1.11.44,1.46.29.34.72.52,1.3.52.43,0,.83-.1,1.2-.29.37-.19.73-.45,1.06-.78v-7.42h2.47Z" style="fill: #0072bc; stroke-width: 0px;"/>
    <path d="m176.93,4.95v.92c0,.29-.18.47-.53.54l-.92.17c.14.35.21.74.21,1.16,0,.51-.1.97-.31,1.38-.2.41-.48.76-.84,1.04-.36.29-.79.51-1.28.67-.49.16-1.02.24-1.58.24-.2,0-.39-.01-.58-.03s-.37-.05-.55-.08c-.32.19-.48.41-.48.65,0,.21.09.36.28.45.19.1.44.17.76.21.31.04.67.06,1.07.08.4,0,.81.03,1.23.06s.83.09,1.23.17c.4.08.76.22,1.07.4.31.18.57.43.75.74.19.31.29.71.29,1.19,0,.45-.11.89-.33,1.32s-.55.81-.97,1.14c-.42.33-.94.6-1.56.81-.62.2-1.32.3-2.1.3s-1.45-.07-2.02-.23c-.57-.15-1.05-.35-1.43-.6s-.66-.54-.85-.87c-.19-.33-.28-.67-.28-1.02,0-.48.14-.88.43-1.21s.69-.58,1.2-.77c-.27-.14-.49-.33-.65-.56-.16-.23-.24-.54-.24-.92,0-.15.03-.31.08-.48.06-.16.14-.32.25-.48.11-.16.25-.31.42-.46.17-.14.36-.27.59-.38-.52-.28-.93-.65-1.23-1.12s-.44-1.01-.44-1.64c0-.51.1-.96.3-1.38.2-.41.49-.76.85-1.05s.79-.51,1.29-.67c.5-.15,1.04-.23,1.62-.23.44,0,.85.04,1.24.13.39.09.74.22,1.06.4h2.95Zm-2.46,10.37c0-.2-.06-.36-.18-.49-.12-.13-.28-.23-.49-.3-.21-.07-.45-.12-.72-.15-.28-.03-.57-.06-.88-.08-.31-.02-.63-.03-.96-.04-.33-.01-.65-.04-.97-.08-.27.15-.49.33-.67.54-.17.21-.25.45-.25.72,0,.18.04.35.14.5.09.16.23.29.43.41.2.11.45.2.76.26s.7.1,1.15.1.86-.04,1.19-.1c.33-.07.61-.17.83-.29.22-.12.38-.27.48-.44.1-.17.15-.35.15-.56Zm-2.79-5.84c.31,0,.57-.04.8-.12s.42-.2.57-.35c.15-.15.26-.32.34-.53.08-.21.12-.43.12-.68,0-.51-.15-.91-.46-1.21-.3-.3-.76-.44-1.37-.44s-1.06.15-1.36.44c-.3.3-.46.7-.46,1.21,0,.24.04.46.11.67.08.21.19.39.34.54.15.15.34.27.57.35.23.08.5.12.79.12Z" style="fill: #0072bc; stroke-width: 0px;"/>
    <path d="m180.39,10.04c.04.53.13.98.28,1.36.15.38.34.7.58.95.24.25.52.44.85.56.33.12.7.19,1.09.19s.75-.05,1.04-.14.54-.2.76-.31.41-.22.57-.31.32-.14.47-.14c.21,0,.36.08.46.23l.71.9c-.27.32-.58.59-.92.8-.34.22-.69.39-1.06.52s-.75.22-1.13.27c-.38.05-.75.08-1.12.08-.71,0-1.38-.12-1.99-.35-.61-.24-1.15-.59-1.6-1.05s-.81-1.04-1.07-1.72c-.26-.68-.39-1.48-.39-2.38,0-.7.11-1.36.34-1.98.23-.62.55-1.15.97-1.61.42-.46.94-.82,1.55-1.08.61-.27,1.3-.4,2.06-.4.65,0,1.24.1,1.79.31s1.02.51,1.41.9c.39.4.7.88.92,1.46s.33,1.24.33,1.98c0,.37-.04.62-.12.75-.08.13-.23.2-.46.2h-6.35Zm4.71-1.49c0-.32-.04-.62-.13-.9s-.23-.53-.41-.75-.41-.38-.68-.5c-.28-.12-.6-.19-.97-.19-.71,0-1.27.2-1.68.61s-.67.98-.79,1.73h4.66Z" style="fill: #0072bc; stroke-width: 0px;"/>
    <path d="m191.07,10.04c.04.53.13.98.28,1.36.15.38.34.7.58.95.24.25.52.44.85.56.33.12.7.19,1.09.19s.75-.05,1.04-.14.54-.2.76-.31.41-.22.57-.31.32-.14.47-.14c.21,0,.36.08.46.23l.71.9c-.27.32-.58.59-.92.8-.34.22-.69.39-1.06.52s-.75.22-1.13.27c-.38.05-.75.08-1.12.08-.71,0-1.38-.12-1.99-.35-.61-.24-1.15-.59-1.6-1.05s-.81-1.04-1.07-1.72c-.26-.68-.39-1.48-.39-2.38,0-.7.11-1.36.34-1.98.23-.62.55-1.15.97-1.61.42-.46.94-.82,1.55-1.08.61-.27,1.3-.4,2.06-.4.65,0,1.24.1,1.79.31s1.02.51,1.41.9c.39.4.7.88.92,1.46s.33,1.24.33,1.98c0,.37-.04.62-.12.75-.08.13-.23.2-.46.2h-6.35Zm4.71-1.49c0-.32-.04-.62-.13-.9s-.23-.53-.41-.75-.41-.38-.68-.5c-.28-.12-.6-.19-.97-.19-.71,0-1.27.2-1.68.61s-.67.98-.79,1.73h4.66Z" style="fill: #0072bc; stroke-width: 0px;"/>
    <path d="m206.11,6.6c-.07.11-.14.18-.21.22-.07.04-.17.06-.28.06-.12,0-.25-.03-.38-.1-.14-.07-.3-.14-.48-.23s-.38-.16-.62-.23c-.23-.07-.5-.1-.81-.1-.49,0-.87.1-1.15.31-.28.21-.42.48-.42.81,0,.22.07.4.22.56.14.15.33.28.57.4s.5.21.81.3c.3.09.6.19.91.29.31.11.62.23.92.37.3.14.57.31.81.52.24.21.43.46.57.75.14.29.22.65.22,1.06,0,.49-.09.95-.27,1.37-.18.42-.44.78-.79,1.08-.35.3-.77.54-1.28.71-.51.17-1.1.26-1.77.26-.35,0-.7-.03-1.04-.1-.34-.06-.66-.15-.97-.27-.31-.11-.6-.25-.86-.4-.26-.15-.49-.32-.69-.5l.57-.94c.07-.11.16-.2.26-.26.1-.06.23-.09.38-.09s.3.04.43.13c.14.09.29.18.48.28.18.1.39.19.63.28.24.09.55.13.92.13.29,0,.54-.04.75-.1.21-.07.38-.16.52-.28.14-.11.24-.24.3-.4.06-.15.09-.3.09-.46,0-.24-.07-.44-.21-.59s-.33-.29-.57-.4c-.24-.11-.51-.22-.81-.31-.3-.09-.61-.19-.93-.29-.32-.11-.63-.23-.93-.38-.3-.14-.57-.33-.81-.54-.24-.22-.43-.49-.57-.81-.14-.32-.21-.71-.21-1.16,0-.42.08-.82.25-1.2.17-.38.41-.71.74-.99.32-.28.73-.51,1.21-.68s1.04-.25,1.67-.25c.71,0,1.35.12,1.93.35s1.06.54,1.45.92l-.56.89Z" style="fill: #0072bc; stroke-width: 0px;"/>
    <path d="m213.26,6.03c1.18-1.08,2.6-1.62,4.26-1.62.6,0,1.14.1,1.61.3.47.2.87.47,1.2.82.33.35.58.77.75,1.25.17.49.25,1.02.25,1.6v6.48h-1.12c-.23,0-.41-.04-.54-.1-.13-.07-.23-.21-.3-.42l-.22-.74c-.26.23-.51.44-.76.62-.25.18-.5.32-.77.44s-.55.21-.85.27c-.3.06-.64.1-1,.1-.43,0-.83-.06-1.2-.18-.37-.12-.68-.29-.95-.52s-.47-.52-.62-.87c-.15-.35-.22-.75-.22-1.21,0-.26.04-.52.13-.77.09-.26.23-.5.42-.73s.45-.45.76-.66.7-.39,1.16-.54.99-.28,1.59-.38c.61-.1,1.3-.15,2.08-.17v-.6c0-.69-.15-1.19-.44-1.52-.29-.33-.72-.5-1.27-.5-.4,0-.73.05-1,.14-.26.09-.49.2-.69.31s-.38.22-.54.31c-.16.09-.35.14-.54.14-.17,0-.32-.04-.44-.14-.12-.09-.22-.19-.29-.31l-.44-.79Zm5.66,4.45c-.71.03-1.31.09-1.8.19-.49.09-.88.2-1.17.34s-.5.3-.63.49-.19.39-.19.61c0,.43.13.74.39.93.26.19.59.28,1,.28.51,0,.94-.09,1.31-.27.37-.18.73-.46,1.08-.83v-1.73Z" style="stroke-width: 0px;"/>
    <path d="m225.96,5.86c.21-.21.42-.4.65-.58.23-.18.47-.33.73-.45s.53-.22.83-.29c.29-.07.61-.1.96-.1.56,0,1.06.09,1.49.29.43.19.79.46,1.08.8s.51.75.66,1.23c.15.48.23,1,.23,1.58v6.53h-2.47v-6.53c0-.63-.14-1.11-.43-1.46-.29-.34-.72-.52-1.31-.52-.43,0-.83.1-1.2.29s-.73.46-1.06.79v7.42h-2.47V4.6h1.51c.32,0,.53.15.63.45l.17.81Z" style="stroke-width: 0px;"/>
    <path d="m243.84,0v14.86h-1.51c-.33,0-.53-.15-.62-.45l-.21-.99c-.41.47-.89.86-1.42,1.15-.54.29-1.16.44-1.88.44-.56,0-1.07-.12-1.54-.35-.47-.23-.87-.57-1.21-1.01s-.6-.99-.78-1.65-.27-1.4-.27-2.24c0-.76.1-1.47.31-2.12.21-.65.5-1.22.89-1.7s.85-.85,1.39-1.12,1.15-.41,1.82-.41c.57,0,1.06.09,1.47.27.41.18.77.42,1.09.73V0h2.47Zm-2.47,7.22c-.28-.34-.58-.58-.92-.72-.33-.14-.69-.21-1.07-.21s-.71.07-1.01.21c-.3.14-.56.35-.77.63-.21.28-.38.64-.49,1.08s-.17.95-.17,1.54.05,1.11.14,1.52c.1.42.24.76.42,1.02.18.26.4.45.66.57s.55.17.87.17c.51,0,.95-.11,1.31-.32.36-.21.7-.52,1.02-.91v-4.6Z" style="stroke-width: 0px;"/>
    <path d="m253.47,6.38c.32-.61.7-1.1,1.14-1.44.44-.35.96-.53,1.56-.53.47,0,.85.1,1.14.31l-.16,1.85c-.03.12-.08.21-.15.25-.06.05-.15.08-.25.08-.1,0-.25-.02-.45-.05-.2-.03-.39-.05-.58-.05-.27,0-.52.04-.73.12-.21.08-.41.19-.58.34-.17.15-.32.33-.45.55s-.25.46-.36.73v6.32h-2.47V4.6h1.45c.25,0,.43.04.53.13.1.09.17.25.2.48l.15,1.16Z" style="fill: #506489; stroke-width: 0px;"/>
    <path d="m260.5,10.04c.04.53.13.98.28,1.36.15.38.34.7.58.95.24.25.52.44.85.56.33.12.7.19,1.09.19s.75-.05,1.04-.14.54-.2.76-.31.41-.22.57-.31.32-.14.47-.14c.21,0,.36.08.46.23l.71.9c-.27.32-.58.59-.92.8-.34.22-.69.39-1.06.52s-.75.22-1.13.27c-.38.05-.75.08-1.12.08-.71,0-1.38-.12-1.99-.35-.61-.24-1.15-.59-1.6-1.05s-.81-1.04-1.07-1.72c-.26-.68-.39-1.48-.39-2.38,0-.7.11-1.36.34-1.98.23-.62.55-1.15.97-1.61.42-.46.94-.82,1.55-1.08.61-.27,1.3-.4,2.06-.4.65,0,1.24.1,1.79.31s1.02.51,1.41.9c.39.4.7.88.92,1.46s.33,1.24.33,1.98c0,.37-.04.62-.12.75-.08.13-.23.2-.46.2h-6.35Zm4.71-1.49c0-.32-.04-.62-.13-.9s-.23-.53-.41-.75-.41-.38-.68-.5c-.28-.12-.6-.19-.97-.19-.71,0-1.27.2-1.68.61s-.67.98-.79,1.73h4.66Z" style="fill: #506489; stroke-width: 0px;"/>
    <path d="m270,14.86V6.46l-.89-.14c-.19-.04-.35-.11-.46-.21s-.17-.23-.17-.42v-1.01h1.53v-.76c0-.59.09-1.11.26-1.58.18-.47.43-.86.76-1.19.33-.33.73-.58,1.21-.75.47-.17,1.01-.26,1.6-.26.47,0,.91.06,1.32.19l-.05,1.24c0,.09-.03.17-.08.22-.05.06-.11.1-.18.13-.08.03-.17.05-.27.06-.1.01-.21.02-.32.02-.29,0-.56.03-.79.1-.23.06-.42.17-.58.33s-.28.36-.37.62c-.08.26-.12.58-.12.96v.68h2.67v1.76h-2.59v8.41h-2.47Z" style="fill: #506489; stroke-width: 0px;"/>
    <path d="m285.29,4.6v10.26h-1.51c-.33,0-.53-.15-.62-.45l-.17-.82c-.42.43-.88.77-1.39,1.04s-1.1.4-1.79.4c-.56,0-1.05-.1-1.49-.29-.43-.19-.79-.46-1.08-.81-.29-.35-.51-.76-.67-1.23-.15-.48-.22-1-.22-1.58v-6.52h2.47v6.52c0,.63.15,1.11.44,1.46.29.34.72.52,1.3.52.43,0,.83-.1,1.2-.29.37-.19.73-.45,1.06-.78v-7.42h2.47Z" style="fill: #506489; stroke-width: 0px;"/>
    <path d="m296.73,4.95v.92c0,.29-.18.47-.53.54l-.92.17c.14.35.21.74.21,1.16,0,.51-.1.97-.31,1.38-.2.41-.48.76-.84,1.04-.36.29-.79.51-1.28.67-.49.16-1.02.24-1.58.24-.2,0-.39-.01-.58-.03s-.37-.05-.55-.08c-.32.19-.48.41-.48.65,0,.21.09.36.28.45.19.1.44.17.76.21.31.04.67.06,1.07.08.4,0,.81.03,1.23.06s.83.09,1.23.17c.4.08.76.22,1.07.4.31.18.57.43.75.74.19.31.29.71.29,1.19,0,.45-.11.89-.33,1.32s-.55.81-.97,1.14c-.42.33-.94.6-1.56.81-.62.2-1.32.3-2.1.3s-1.45-.07-2.02-.23c-.57-.15-1.05-.35-1.43-.6s-.66-.54-.85-.87c-.19-.33-.28-.67-.28-1.02,0-.48.14-.88.43-1.21s.69-.58,1.2-.77c-.27-.14-.49-.33-.65-.56-.16-.23-.24-.54-.24-.92,0-.15.03-.31.08-.48.06-.16.14-.32.25-.48.11-.16.25-.31.42-.46.17-.14.36-.27.59-.38-.52-.28-.93-.65-1.23-1.12s-.44-1.01-.44-1.64c0-.51.1-.96.3-1.38.2-.41.49-.76.85-1.05s.79-.51,1.29-.67c.5-.15,1.04-.23,1.62-.23.44,0,.85.04,1.24.13.39.09.74.22,1.06.4h2.95Zm-2.46,10.37c0-.2-.06-.36-.18-.49-.12-.13-.28-.23-.49-.3-.21-.07-.45-.12-.72-.15-.28-.03-.57-.06-.88-.08-.31-.02-.63-.03-.96-.04-.33-.01-.65-.04-.97-.08-.27.15-.49.33-.67.54-.17.21-.25.45-.25.72,0,.18.04.35.14.5.09.16.23.29.43.41.2.11.45.2.76.26s.7.1,1.15.1.86-.04,1.19-.1c.33-.07.61-.17.83-.29.22-.12.38-.27.48-.44.1-.17.15-.35.15-.56Zm-2.79-5.84c.31,0,.57-.04.8-.12s.42-.2.57-.35c.15-.15.26-.32.34-.53.08-.21.12-.43.12-.68,0-.51-.15-.91-.46-1.21-.3-.3-.76-.44-1.37-.44s-1.06.15-1.36.44c-.3.3-.46.7-.46,1.21,0,.24.04.46.11.67.08.21.19.39.34.54.15.15.34.27.57.35.23.08.5.12.79.12Z" style="fill: #506489; stroke-width: 0px;"/>
    <path d="m300.19,10.04c.04.53.13.98.28,1.36.15.38.34.7.58.95.24.25.52.44.85.56.33.12.7.19,1.09.19s.75-.05,1.04-.14.54-.2.76-.31.41-.22.57-.31.32-.14.47-.14c.21,0,.36.08.46.23l.71.9c-.27.32-.58.59-.92.8-.34.22-.69.39-1.06.52s-.75.22-1.13.27c-.38.05-.75.08-1.12.08-.71,0-1.38-.12-1.99-.35-.61-.24-1.15-.59-1.6-1.05s-.81-1.04-1.07-1.72c-.26-.68-.39-1.48-.39-2.38,0-.7.11-1.36.34-1.98.23-.62.55-1.15.97-1.61.42-.46.94-.82,1.55-1.08.61-.27,1.3-.4,2.06-.4.65,0,1.24.1,1.79.31s1.02.51,1.41.9c.39.4.7.88.92,1.46s.33,1.24.33,1.98c0,.37-.04.62-.12.75-.08.13-.23.2-.46.2h-6.35Zm4.71-1.49c0-.32-.04-.62-.13-.9s-.23-.53-.41-.75-.41-.38-.68-.5c-.28-.12-.6-.19-.97-.19-.71,0-1.27.2-1.68.61s-.67.98-.79,1.73h4.66Z" style="fill: #506489; stroke-width: 0px;"/>
    <path d="m310.87,10.04c.04.53.13.98.28,1.36.15.38.34.7.58.95.24.25.52.44.85.56.33.12.7.19,1.09.19s.75-.05,1.04-.14.54-.2.76-.31.41-.22.57-.31.32-.14.47-.14c.21,0,.36.08.46.23l.71.9c-.27.32-.58.59-.92.8-.34.22-.69.39-1.06.52s-.75.22-1.13.27c-.38.05-.75.08-1.12.08-.71,0-1.38-.12-1.99-.35-.61-.24-1.15-.59-1.6-1.05s-.81-1.04-1.07-1.72c-.26-.68-.39-1.48-.39-2.38,0-.7.11-1.36.34-1.98.23-.62.55-1.15.97-1.61.42-.46.94-.82,1.55-1.08.61-.27,1.3-.4,2.06-.4.65,0,1.24.1,1.79.31s1.02.51,1.41.9c.39.4.7.88.92,1.46s.33,1.24.33,1.98c0,.37-.04.62-.12.75-.08.13-.23.2-.46.2h-6.35Zm4.71-1.49c0-.32-.04-.62-.13-.9s-.23-.53-.41-.75-.41-.38-.68-.5c-.28-.12-.6-.19-.97-.19-.71,0-1.27.2-1.68.61s-.67.98-.79,1.73h4.66Z" style="fill: #506489; stroke-width: 0px;"/>
    <path d="m326.84,6.38c.32-.61.7-1.1,1.14-1.44.44-.35.96-.53,1.56-.53.47,0,.85.1,1.14.31l-.16,1.85c-.03.12-.08.21-.15.25-.06.05-.15.08-.25.08-.1,0-.25-.02-.45-.05-.2-.03-.39-.05-.58-.05-.27,0-.52.04-.73.12-.21.08-.41.19-.58.34-.17.15-.32.33-.45.55s-.25.46-.36.73v6.32h-2.47V4.6h1.45c.25,0,.43.04.53.13.1.09.17.25.2.48l.15,1.16Z" style="fill: #506489; stroke-width: 0px;"/>
    <path d="m333.87,10.04c.04.53.13.98.28,1.36.15.38.34.7.58.95.24.25.52.44.85.56.33.12.7.19,1.09.19s.75-.05,1.04-.14.54-.2.76-.31.41-.22.57-.31.32-.14.47-.14c.21,0,.36.08.46.23l.71.9c-.27.32-.58.59-.92.8-.34.22-.69.39-1.06.52s-.75.22-1.13.27c-.38.05-.75.08-1.12.08-.71,0-1.38-.12-1.99-.35-.61-.24-1.15-.59-1.6-1.05s-.81-1.04-1.07-1.72c-.26-.68-.39-1.48-.39-2.38,0-.7.11-1.36.34-1.98.23-.62.55-1.15.97-1.61.42-.46.94-.82,1.55-1.08.61-.27,1.3-.4,2.06-.4.65,0,1.24.1,1.79.31s1.02.51,1.41.9c.39.4.7.88.92,1.46s.33,1.24.33,1.98c0,.37-.04.62-.12.75-.08.13-.23.2-.46.2h-6.35Zm4.71-1.49c0-.32-.04-.62-.13-.9s-.23-.53-.41-.75-.41-.38-.68-.5c-.28-.12-.6-.19-.97-.19-.71,0-1.27.2-1.68.61s-.67.98-.79,1.73h4.66Z" style="fill: #506489; stroke-width: 0px;"/>
    <path d="m346.07,15.02c-.89,0-1.58-.25-2.05-.76-.48-.5-.71-1.2-.71-2.08v-5.73h-1.05c-.13,0-.25-.04-.34-.13-.09-.09-.14-.22-.14-.39v-.98l1.65-.27.52-2.8c.03-.13.1-.24.19-.31.09-.07.21-.11.36-.11h1.28v3.23h2.74v1.76h-2.74v5.56c0,.32.08.57.24.75.16.18.37.27.64.27.15,0,.28-.02.39-.05.1-.04.19-.08.27-.12.08-.04.14-.08.21-.12.06-.04.12-.05.18-.05.07,0,.13.02.18.05.05.04.1.09.15.17l.74,1.2c-.36.3-.77.53-1.24.68s-.95.23-1.45.23Z" style="fill: #506489; stroke-width: 0px;"/>
    <path d="m358.92,4.6v10.26h-1.51c-.33,0-.53-.15-.62-.45l-.17-.82c-.42.43-.88.77-1.39,1.04s-1.1.4-1.79.4c-.56,0-1.05-.1-1.49-.29-.43-.19-.79-.46-1.08-.81-.29-.35-.51-.76-.67-1.23-.15-.48-.22-1-.22-1.58v-6.52h2.47v6.52c0,.63.15,1.11.44,1.46.29.34.72.52,1.3.52.43,0,.83-.1,1.2-.29.37-.19.73-.45,1.06-.78v-7.42h2.47Z" style="fill: #506489; stroke-width: 0px;"/>
    <path d="m363.7,6.38c.32-.61.7-1.1,1.14-1.44.44-.35.96-.53,1.56-.53.47,0,.85.1,1.14.31l-.16,1.85c-.03.12-.08.21-.15.25-.06.05-.15.08-.25.08-.1,0-.25-.02-.45-.05-.2-.03-.39-.05-.58-.05-.27,0-.52.04-.73.12-.21.08-.41.19-.58.34-.17.15-.32.33-.45.55s-.25.46-.36.73v6.32h-2.47V4.6h1.45c.25,0,.43.04.53.13.1.09.17.25.2.48l.15,1.16Z" style="fill: #506489; stroke-width: 0px;"/>
    <path d="m371.14,5.86c.21-.21.42-.4.65-.58.23-.18.47-.33.73-.45s.53-.22.83-.29c.29-.07.61-.1.96-.1.56,0,1.06.09,1.49.29.43.19.79.46,1.08.8s.51.75.66,1.23c.15.48.23,1,.23,1.58v6.53h-2.47v-6.53c0-.63-.14-1.11-.43-1.46-.29-.34-.72-.52-1.31-.52-.43,0-.83.1-1.2.29s-.73.46-1.06.79v7.42h-2.47V4.6h1.51c.32,0,.53.15.63.45l.17.81Z" style="fill: #506489; stroke-width: 0px;"/>
    <path d="m382.01,10.04c.04.53.13.98.28,1.36.15.38.34.7.58.95.24.25.52.44.85.56.33.12.7.19,1.09.19s.75-.05,1.04-.14.54-.2.76-.31.41-.22.57-.31.32-.14.47-.14c.21,0,.36.08.46.23l.71.9c-.27.32-.58.59-.92.8-.34.22-.69.39-1.06.52s-.75.22-1.13.27c-.38.05-.75.08-1.12.08-.71,0-1.38-.12-1.99-.35-.61-.24-1.15-.59-1.6-1.05s-.81-1.04-1.07-1.72c-.26-.68-.39-1.48-.39-2.38,0-.7.11-1.36.34-1.98.23-.62.55-1.15.97-1.61.42-.46.94-.82,1.55-1.08.61-.27,1.3-.4,2.06-.4.65,0,1.24.1,1.79.31s1.02.51,1.41.9c.39.4.7.88.92,1.46s.33,1.24.33,1.98c0,.37-.04.62-.12.75-.08.13-.23.2-.46.2h-6.35Zm4.71-1.49c0-.32-.04-.62-.13-.9s-.23-.53-.41-.75-.41-.38-.68-.5c-.28-.12-.6-.19-.97-.19-.71,0-1.27.2-1.68.61s-.67.98-.79,1.73h4.66Z" style="fill: #506489; stroke-width: 0px;"/>
    <path d="m392.69,10.04c.04.53.13.98.28,1.36.15.38.34.7.58.95.24.25.52.44.85.56.33.12.7.19,1.09.19s.75-.05,1.04-.14.54-.2.76-.31.41-.22.57-.31.32-.14.47-.14c.21,0,.36.08.46.23l.71.9c-.27.32-.58.59-.92.8-.34.22-.69.39-1.06.52s-.75.22-1.13.27c-.38.05-.75.08-1.12.08-.71,0-1.38-.12-1.99-.35-.61-.24-1.15-.59-1.6-1.05s-.81-1.04-1.07-1.72c-.26-.68-.39-1.48-.39-2.38,0-.7.11-1.36.34-1.98.23-.62.55-1.15.97-1.61.42-.46.94-.82,1.55-1.08.61-.27,1.3-.4,2.06-.4.65,0,1.24.1,1.79.31s1.02.51,1.41.9c.39.4.7.88.92,1.46s.33,1.24.33,1.98c0,.37-.04.62-.12.75-.08.13-.23.2-.46.2h-6.35Zm4.71-1.49c0-.32-.04-.62-.13-.9s-.23-.53-.41-.75-.41-.38-.68-.5c-.28-.12-.6-.19-.97-.19-.71,0-1.27.2-1.68.61s-.67.98-.79,1.73h4.66Z" style="fill: #506489; stroke-width: 0px;"/>
    <path d="m407.73,6.6c-.07.11-.14.18-.21.22-.07.04-.17.06-.28.06-.12,0-.25-.03-.38-.1-.14-.07-.3-.14-.48-.23s-.38-.16-.62-.23c-.23-.07-.5-.1-.81-.1-.49,0-.87.1-1.15.31-.28.21-.42.48-.42.81,0,.22.07.4.22.56.14.15.33.28.57.4s.5.21.81.3c.3.09.6.19.91.29.31.11.62.23.92.37.3.14.57.31.81.52.24.21.43.46.57.75.14.29.22.65.22,1.06,0,.49-.09.95-.27,1.37-.18.42-.44.78-.79,1.08-.35.3-.77.54-1.28.71-.51.17-1.1.26-1.77.26-.35,0-.7-.03-1.04-.1-.34-.06-.66-.15-.97-.27-.31-.11-.6-.25-.86-.4-.26-.15-.49-.32-.69-.5l.57-.94c.07-.11.16-.2.26-.26.1-.06.23-.09.38-.09s.3.04.43.13c.14.09.29.18.48.28.18.1.39.19.63.28.24.09.55.13.92.13.29,0,.54-.04.75-.1.21-.07.38-.16.52-.28.14-.11.24-.24.3-.4.06-.15.09-.3.09-.46,0-.24-.07-.44-.21-.59s-.33-.29-.57-.4c-.24-.11-.51-.22-.81-.31-.3-.09-.61-.19-.93-.29-.32-.11-.63-.23-.93-.38-.3-.14-.57-.33-.81-.54-.24-.22-.43-.49-.57-.81-.14-.32-.21-.71-.21-1.16,0-.42.08-.82.25-1.2.17-.38.41-.71.74-.99.32-.28.73-.51,1.21-.68s1.04-.25,1.67-.25c.71,0,1.35.12,1.93.35s1.06.54,1.45.92l-.56.89Z" style="fill: #506489; stroke-width: 0px;"/>
    <path d="m415.84,14.86V6.46l-.89-.14c-.19-.04-.35-.11-.46-.21s-.17-.23-.17-.42v-1.01h1.53v-.76c0-.59.09-1.11.26-1.58.18-.47.43-.86.76-1.19.33-.33.73-.58,1.21-.75.47-.17,1.01-.26,1.6-.26.47,0,.91.06,1.32.19l-.05,1.24c0,.09-.03.17-.08.22-.05.06-.11.1-.18.13-.08.03-.17.05-.27.06-.1.01-.21.02-.32.02-.29,0-.56.03-.79.1-.23.06-.42.17-.58.33s-.28.36-.37.62c-.08.26-.12.58-.12.96v.68h2.67v1.76h-2.59v8.41h-2.47Z" style="stroke-width: 0px;"/>
    <path d="m424.62,6.38c.32-.61.7-1.1,1.14-1.44.44-.35.96-.53,1.56-.53.47,0,.85.1,1.14.31l-.16,1.85c-.03.12-.08.21-.15.25-.06.05-.15.08-.25.08-.1,0-.25-.02-.45-.05-.2-.03-.39-.05-.58-.05-.27,0-.52.04-.73.12-.21.08-.41.19-.58.34-.17.15-.32.33-.45.55s-.25.46-.36.73v6.32h-2.47V4.6h1.45c.25,0,.43.04.53.13.1.09.17.25.2.48l.15,1.16Z" style="stroke-width: 0px;"/>
    <path d="m434.29,4.44c.76,0,1.45.12,2.08.37s1.16.6,1.6,1.05c.44.45.79,1.01,1.03,1.66s.36,1.38.36,2.19-.12,1.55-.36,2.2c-.24.65-.58,1.21-1.03,1.67-.44.46-.98.81-1.6,1.06s-1.32.37-2.08.37-1.46-.12-2.09-.37-1.16-.6-1.6-1.06c-.44-.46-.79-1.02-1.03-1.67-.24-.65-.37-1.39-.37-2.2s.12-1.54.37-2.19.59-1.21,1.03-1.66c.44-.45.98-.8,1.6-1.05s1.32-.37,2.09-.37Zm0,8.67c.85,0,1.49-.29,1.9-.86s.61-1.41.61-2.52-.2-1.95-.61-2.53-1.04-.87-1.9-.87-1.51.29-1.92.88c-.42.58-.62,1.42-.62,2.52s.21,1.94.62,2.51c.42.58,1.06.87,1.92.87Z" style="stroke-width: 0px;"/>
    <path d="m441.24,14.86V4.6h1.51c.32,0,.53.15.63.45l.16.76c.18-.2.37-.38.57-.55.2-.17.41-.31.63-.43.22-.12.46-.22.72-.29.26-.07.54-.1.85-.1.65,0,1.18.17,1.59.52s.73.81.93,1.4c.16-.34.36-.63.6-.88.24-.24.5-.44.79-.6.29-.15.59-.27.92-.34.32-.07.65-.11.97-.11.57,0,1.07.09,1.51.26.44.17.81.43,1.11.76s.53.74.68,1.22c.16.48.24,1.03.24,1.65v6.53h-2.47v-6.53c0-.65-.14-1.15-.43-1.48-.29-.33-.71-.5-1.26-.5-.25,0-.49.04-.71.13-.22.09-.41.21-.57.38-.16.16-.29.37-.39.62-.09.25-.14.53-.14.85v6.53h-2.48v-6.53c0-.69-.14-1.19-.42-1.5-.28-.31-.68-.47-1.22-.47-.36,0-.69.09-1,.27-.31.18-.6.42-.86.73v7.51h-2.47Z" style="stroke-width: 0px;"/>
    <path d="m470.94,3.03c-.08.14-.17.24-.25.31s-.2.09-.33.09-.29-.05-.46-.15c-.16-.1-.36-.22-.58-.35-.23-.13-.49-.24-.79-.34-.3-.1-.66-.16-1.08-.16-.37,0-.7.05-.98.14s-.51.21-.71.38-.33.35-.42.57c-.09.22-.14.47-.14.74,0,.34.1.62.29.85.19.23.44.42.75.58.31.16.67.3,1.07.43.4.13.81.26,1.23.4.42.14.83.31,1.23.5.4.19.76.43,1.07.72s.56.65.75,1.06c.19.42.29.93.29,1.53,0,.65-.11,1.26-.33,1.83-.22.57-.55,1.07-.98,1.49-.43.42-.96.76-1.58,1-.62.24-1.33.37-2.13.37-.46,0-.91-.04-1.36-.14-.45-.09-.88-.22-1.29-.38s-.79-.37-1.16-.6-.68-.49-.96-.78l.79-1.29c.07-.09.15-.17.26-.24.11-.06.22-.09.34-.09.17,0,.35.07.54.21s.42.29.69.45c.27.17.58.32.93.46.36.14.79.21,1.29.21.77,0,1.36-.18,1.78-.54s.63-.89.63-1.56c0-.38-.09-.69-.29-.93-.19-.24-.44-.44-.75-.6-.31-.16-.67-.3-1.07-.42-.4-.11-.81-.24-1.22-.37-.41-.13-.82-.29-1.22-.48-.4-.19-.76-.43-1.07-.73-.31-.3-.56-.67-.75-1.12-.19-.45-.29-1-.29-1.67,0-.53.11-1.04.32-1.54s.51-.94.92-1.33c.4-.39.89-.7,1.48-.93s1.26-.35,2.02-.35c.85,0,1.64.13,2.36.4.72.27,1.33.64,1.84,1.12l-.67,1.27Z" style="stroke-width: 0px;"/>
    <path d="m482.66,4.6v10.26h-1.51c-.33,0-.53-.15-.62-.45l-.17-.82c-.42.43-.88.77-1.39,1.04s-1.1.4-1.79.4c-.56,0-1.05-.1-1.49-.29-.43-.19-.79-.46-1.08-.81-.29-.35-.51-.76-.67-1.23-.15-.48-.22-1-.22-1.58v-6.52h2.47v6.52c0,.63.15,1.11.44,1.46.29.34.72.52,1.3.52.43,0,.83-.1,1.2-.29.37-.19.73-.45,1.06-.78v-7.42h2.47Z" style="stroke-width: 0px;"/>
    <path d="m494.01,0v14.86h-1.51c-.33,0-.53-.15-.62-.45l-.21-.99c-.41.47-.89.86-1.42,1.15-.54.29-1.16.44-1.88.44-.56,0-1.07-.12-1.54-.35-.47-.23-.87-.57-1.21-1.01s-.6-.99-.78-1.65-.27-1.4-.27-2.24c0-.76.1-1.47.31-2.12.21-.65.5-1.22.89-1.7s.85-.85,1.39-1.12,1.15-.41,1.82-.41c.57,0,1.06.09,1.47.27.41.18.77.42,1.09.73V0h2.47Zm-2.47,7.22c-.28-.34-.58-.58-.92-.72-.33-.14-.69-.21-1.07-.21s-.71.07-1.01.21c-.3.14-.56.35-.77.63-.21.28-.38.64-.49,1.08s-.17.95-.17,1.54.05,1.11.14,1.52c.1.42.24.76.42,1.02.18.26.4.45.66.57s.55.17.87.17c.51,0,.95-.11,1.31-.32.36-.21.7-.52,1.02-.91v-4.6Z" style="stroke-width: 0px;"/>
    <path d="m496.21,6.03c1.18-1.08,2.6-1.62,4.26-1.62.6,0,1.14.1,1.61.3.47.2.87.47,1.2.82.33.35.58.77.75,1.25.17.49.25,1.02.25,1.6v6.48h-1.12c-.23,0-.41-.04-.54-.1-.13-.07-.23-.21-.3-.42l-.22-.74c-.26.23-.51.44-.76.62-.25.18-.5.32-.77.44s-.55.21-.85.27c-.3.06-.64.1-1,.1-.43,0-.83-.06-1.2-.18-.37-.12-.68-.29-.95-.52s-.47-.52-.62-.87c-.15-.35-.22-.75-.22-1.21,0-.26.04-.52.13-.77.09-.26.23-.5.42-.73s.45-.45.76-.66.7-.39,1.16-.54.99-.28,1.59-.38c.61-.1,1.3-.15,2.08-.17v-.6c0-.69-.15-1.19-.44-1.52-.29-.33-.72-.5-1.27-.5-.4,0-.73.05-1,.14-.26.09-.49.2-.69.31s-.38.22-.54.31c-.16.09-.35.14-.54.14-.17,0-.32-.04-.44-.14-.12-.09-.22-.19-.29-.31l-.44-.79Zm5.66,4.45c-.71.03-1.31.09-1.8.19-.49.09-.88.2-1.17.34s-.5.3-.63.49-.19.39-.19.61c0,.43.13.74.39.93.26.19.59.28,1,.28.51,0,.94-.09,1.31-.27.37-.18.73-.46,1.08-.83v-1.73Z" style="stroke-width: 0px;"/>
    <path d="m508.91,5.86c.21-.21.42-.4.65-.58.23-.18.47-.33.73-.45s.53-.22.83-.29c.29-.07.61-.1.96-.1.56,0,1.06.09,1.49.29.43.19.79.46,1.08.8s.51.75.66,1.23c.15.48.23,1,.23,1.58v6.53h-2.47v-6.53c0-.63-.14-1.11-.43-1.46-.29-.34-.72-.52-1.31-.52-.43,0-.83.1-1.2.29s-.73.46-1.06.79v7.42h-2.47V4.6h1.51c.32,0,.53.15.63.45l.17.81Z" style="stroke-width: 0px;"/>
    <path d="m525.21,5.86c.41-.43.87-.78,1.38-1.04.5-.26,1.08-.38,1.72-.38.59,0,1.13.12,1.6.35s.88.57,1.22,1c.34.44.59.96.77,1.58.18.62.27,1.32.27,2.09,0,.83-.1,1.59-.31,2.27-.21.68-.5,1.26-.88,1.75-.38.48-.84.86-1.38,1.12s-1.14.4-1.8.4c-.32,0-.61-.03-.87-.09-.26-.06-.5-.15-.72-.27-.22-.11-.42-.25-.61-.42-.18-.16-.36-.35-.53-.54l-.11.69c-.04.17-.11.3-.21.37s-.23.11-.4.11h-1.63V0h2.47v5.86Zm0,6.34c.28.34.58.58.92.72.33.14.68.21,1.04.21s.72-.07,1.02-.21.56-.35.78-.64c.21-.29.38-.66.49-1.11.11-.45.17-.99.17-1.61,0-1.13-.19-1.94-.56-2.45-.37-.5-.91-.75-1.61-.75-.47,0-.89.11-1.24.33-.35.22-.69.52-1.01.92v4.6Z" style="stroke-width: 0px;"/>
    <path d="m543.41,4.6l-5.59,13.08c-.07.17-.17.31-.29.4-.12.09-.29.14-.54.14h-1.84l1.92-4.12-4.15-9.49h2.17c.19,0,.34.05.45.14.11.09.19.2.25.32l2.18,5.32c.07.18.13.36.18.54s.1.36.15.55c.06-.19.12-.37.18-.55.06-.18.13-.37.2-.55l2.06-5.31c.05-.13.14-.24.26-.33.12-.09.26-.13.42-.13h1.98Z" style="stroke-width: 0px;"/>
    <path d="m556.85,6.77c-.07.09-.15.17-.21.22-.07.05-.17.08-.31.08s-.25-.04-.37-.11-.26-.16-.43-.26-.37-.18-.59-.26c-.23-.08-.52-.12-.86-.12-.43,0-.81.08-1.14.23-.33.16-.6.38-.82.68s-.38.65-.48,1.06c-.11.42-.16.89-.16,1.42s.06,1.03.17,1.46c.12.43.29.79.5,1.07.22.29.49.51.8.66s.67.23,1.06.23.71-.05.96-.15c.24-.1.45-.2.61-.32.17-.12.31-.22.44-.32.12-.1.26-.15.42-.15.2,0,.35.08.45.23l.71.9c-.27.32-.57.59-.89.8-.32.22-.65.39-1,.52-.34.13-.7.22-1.06.27s-.72.08-1.08.08c-.63,0-1.23-.12-1.79-.35-.56-.24-1.05-.58-1.47-1.04-.42-.45-.75-1.01-1-1.66s-.37-1.41-.37-2.25c0-.75.11-1.45.33-2.1.22-.64.54-1.2.96-1.67.42-.47.94-.84,1.56-1.1s1.33-.4,2.14-.4,1.44.12,2.01.37c.58.25,1.09.6,1.55,1.06l-.65.9Z" style="stroke-width: 0px;"/>
    <path d="m563.67,4.44c.76,0,1.45.12,2.08.37s1.16.6,1.6,1.05c.44.45.79,1.01,1.03,1.66s.36,1.38.36,2.19-.12,1.55-.36,2.2c-.24.65-.58,1.21-1.03,1.67-.44.46-.98.81-1.6,1.06s-1.32.37-2.08.37-1.46-.12-2.09-.37-1.16-.6-1.6-1.06c-.44-.46-.79-1.02-1.03-1.67-.24-.65-.37-1.39-.37-2.2s.12-1.54.37-2.19.59-1.21,1.03-1.66c.44-.45.98-.8,1.6-1.05s1.32-.37,2.09-.37Zm0,8.67c.85,0,1.49-.29,1.9-.86s.61-1.41.61-2.52-.2-1.95-.61-2.53-1.04-.87-1.9-.87-1.51.29-1.92.88c-.42.58-.62,1.42-.62,2.52s.21,1.94.62,2.51c.42.58,1.06.87,1.92.87Z" style="stroke-width: 0px;"/>
    <path d="m579.46,4.6v10.26h-1.51c-.33,0-.53-.15-.62-.45l-.17-.82c-.42.43-.88.77-1.39,1.04s-1.1.4-1.79.4c-.56,0-1.05-.1-1.49-.29-.43-.19-.79-.46-1.08-.81-.29-.35-.51-.76-.67-1.23-.15-.48-.22-1-.22-1.58v-6.52h2.47v6.52c0,.63.15,1.11.44,1.46.29.34.72.52,1.3.52.43,0,.83-.1,1.2-.29.37-.19.73-.45,1.06-.78v-7.42h2.47Z" style="stroke-width: 0px;"/>
    <path d="m584.22,5.86c.21-.21.42-.4.65-.58.23-.18.47-.33.73-.45s.53-.22.83-.29c.29-.07.61-.1.96-.1.56,0,1.06.09,1.49.29.43.19.79.46,1.08.8s.51.75.66,1.23c.15.48.23,1,.23,1.58v6.53h-2.47v-6.53c0-.63-.14-1.11-.43-1.46-.29-.34-.72-.52-1.31-.52-.43,0-.83.1-1.2.29s-.73.46-1.06.79v7.42h-2.47V4.6h1.51c.32,0,.53.15.63.45l.17.81Z" style="stroke-width: 0px;"/>
    <path d="m596.61,15.02c-.89,0-1.58-.25-2.05-.76-.48-.5-.71-1.2-.71-2.08v-5.73h-1.05c-.13,0-.25-.04-.34-.13-.09-.09-.14-.22-.14-.39v-.98l1.65-.27.52-2.8c.03-.13.1-.24.19-.31.09-.07.21-.11.36-.11h1.28v3.23h2.74v1.76h-2.74v5.56c0,.32.08.57.24.75.16.18.37.27.64.27.15,0,.28-.02.39-.05.1-.04.19-.08.27-.12.08-.04.14-.08.21-.12.06-.04.12-.05.18-.05.07,0,.13.02.18.05.05.04.1.09.15.17l.74,1.2c-.36.3-.77.53-1.24.68s-.95.23-1.45.23Z" style="stroke-width: 0px;"/>
    <path d="m602.96,6.38c.32-.61.7-1.1,1.14-1.44.44-.35.96-.53,1.56-.53.47,0,.85.1,1.14.31l-.16,1.85c-.03.12-.08.21-.15.25-.06.05-.15.08-.25.08-.1,0-.25-.02-.45-.05-.2-.03-.39-.05-.58-.05-.27,0-.52.04-.73.12-.21.08-.41.19-.58.34-.17.15-.32.33-.45.55s-.25.46-.36.73v6.32h-2.47V4.6h1.45c.25,0,.43.04.53.13.1.09.17.25.2.48l.15,1.16Z" style="stroke-width: 0px;"/>
    <path d="m617.41,4.6l-5.59,13.08c-.07.17-.17.31-.29.4-.12.09-.29.14-.54.14h-1.84l1.92-4.12-4.15-9.49h2.17c.19,0,.34.05.45.14.11.09.19.2.25.32l2.18,5.32c.07.18.13.36.18.54s.1.36.15.55c.06-.19.12-.37.18-.55.06-.18.13-.37.2-.55l2.06-5.31c.05-.13.14-.24.26-.33.12-.09.26-.13.42-.13h1.98Z" style="stroke-width: 0px;"/>
    <path d="m628.04,4.44c.76,0,1.45.12,2.08.37s1.16.6,1.6,1.05c.44.45.79,1.01,1.03,1.66s.36,1.38.36,2.19-.12,1.55-.36,2.2c-.24.65-.58,1.21-1.03,1.67-.44.46-.98.81-1.6,1.06s-1.32.37-2.08.37-1.46-.12-2.09-.37-1.16-.6-1.6-1.06c-.44-.46-.79-1.02-1.03-1.67-.24-.65-.37-1.39-.37-2.2s.12-1.54.37-2.19.59-1.21,1.03-1.66c.44-.45.98-.8,1.6-1.05s1.32-.37,2.09-.37Zm0,8.67c.85,0,1.49-.29,1.9-.86s.61-1.41.61-2.52-.2-1.95-.61-2.53-1.04-.87-1.9-.87-1.51.29-1.92.88c-.42.58-.62,1.42-.62,2.52s.21,1.94.62,2.51c.42.58,1.06.87,1.92.87Z" style="stroke-width: 0px;"/>
    <path d="m635.71,14.86V6.46l-.89-.14c-.19-.04-.35-.11-.46-.21s-.17-.23-.17-.42v-1.01h1.53v-.76c0-.59.09-1.11.26-1.58.18-.47.43-.86.76-1.19.33-.33.73-.58,1.21-.75.47-.17,1.01-.26,1.6-.26.47,0,.91.06,1.32.19l-.05,1.24c0,.09-.03.17-.08.22-.05.06-.11.1-.18.13-.08.03-.17.05-.27.06-.1.01-.21.02-.32.02-.29,0-.56.03-.79.1-.23.06-.42.17-.58.33s-.28.36-.37.62c-.08.26-.12.58-.12.96v.68h2.67v1.76h-2.59v8.41h-2.47Z" style="stroke-width: 0px;"/>
    <path d="m646.78,6.03c1.18-1.08,2.6-1.62,4.26-1.62.6,0,1.14.1,1.61.3.47.2.87.47,1.2.82.33.35.58.77.75,1.25.17.49.25,1.02.25,1.6v6.48h-1.12c-.23,0-.41-.04-.54-.1-.13-.07-.23-.21-.3-.42l-.22-.74c-.26.23-.51.44-.76.62-.25.18-.5.32-.77.44s-.55.21-.85.27c-.3.06-.64.1-1,.1-.43,0-.83-.06-1.2-.18-.37-.12-.68-.29-.95-.52s-.47-.52-.62-.87c-.15-.35-.22-.75-.22-1.21,0-.26.04-.52.13-.77.09-.26.23-.5.42-.73s.45-.45.76-.66.7-.39,1.16-.54.99-.28,1.59-.38c.61-.1,1.3-.15,2.08-.17v-.6c0-.69-.15-1.19-.44-1.52-.29-.33-.72-.5-1.27-.5-.4,0-.73.05-1,.14-.26.09-.49.2-.69.31s-.38.22-.54.31c-.16.09-.35.14-.54.14-.17,0-.32-.04-.44-.14-.12-.09-.22-.19-.29-.31l-.44-.79Zm5.66,4.45c-.71.03-1.31.09-1.8.19-.49.09-.88.2-1.17.34s-.5.3-.63.49-.19.39-.19.61c0,.43.13.74.39.93.26.19.59.28,1,.28.51,0,.94-.09,1.31-.27.37-.18.73-.46,1.08-.83v-1.73Z" style="stroke-width: 0px;"/>
    <path d="m663.43,6.6c-.07.11-.14.18-.21.22-.07.04-.17.06-.28.06-.12,0-.25-.03-.38-.1-.14-.07-.3-.14-.48-.23s-.38-.16-.62-.23c-.23-.07-.5-.1-.81-.1-.49,0-.87.1-1.15.31-.28.21-.42.48-.42.81,0,.22.07.4.22.56.14.15.33.28.57.4s.5.21.81.3c.3.09.6.19.91.29.31.11.62.23.92.37.3.14.57.31.81.52.24.21.43.46.57.75.14.29.22.65.22,1.06,0,.49-.09.95-.27,1.37-.18.42-.44.78-.79,1.08-.35.3-.77.54-1.28.71-.51.17-1.1.26-1.77.26-.35,0-.7-.03-1.04-.1-.34-.06-.66-.15-.97-.27-.31-.11-.6-.25-.86-.4-.26-.15-.49-.32-.69-.5l.57-.94c.07-.11.16-.2.26-.26.1-.06.23-.09.38-.09s.3.04.43.13c.14.09.29.18.48.28.18.1.39.19.63.28.24.09.55.13.92.13.29,0,.54-.04.75-.1.21-.07.38-.16.52-.28.14-.11.24-.24.3-.4.06-.15.09-.3.09-.46,0-.24-.07-.44-.21-.59s-.33-.29-.57-.4c-.24-.11-.51-.22-.81-.31-.3-.09-.61-.19-.93-.29-.32-.11-.63-.23-.93-.38-.3-.14-.57-.33-.81-.54-.24-.22-.43-.49-.57-.81-.14-.32-.21-.71-.21-1.16,0-.42.08-.82.25-1.2.17-.38.41-.71.74-.99.32-.28.73-.51,1.21-.68s1.04-.25,1.67-.25c.71,0,1.35.12,1.93.35s1.06.54,1.45.92l-.56.89Z" style="stroke-width: 0px;"/>
    <path d="m675.28,4.6l-5.59,13.08c-.07.17-.17.31-.29.4-.12.09-.29.14-.54.14h-1.84l1.92-4.12-4.15-9.49h2.17c.19,0,.34.05.45.14.11.09.19.2.25.32l2.18,5.32c.07.18.13.36.18.54s.1.36.15.55c.06-.19.12-.37.18-.55.06-.18.13-.37.2-.55l2.06-5.31c.05-.13.14-.24.26-.33.12-.09.26-.13.42-.13h1.98Z" style="stroke-width: 0px;"/>
    <path d="m679,0v14.86h-2.47V0h2.47Z" style="stroke-width: 0px;"/>
    <path d="m690.31,4.6v10.26h-1.51c-.33,0-.53-.15-.62-.45l-.17-.82c-.42.43-.88.77-1.39,1.04s-1.1.4-1.79.4c-.56,0-1.05-.1-1.49-.29-.43-.19-.79-.46-1.08-.81-.29-.35-.51-.76-.67-1.23-.15-.48-.22-1-.22-1.58v-6.52h2.47v6.52c0,.63.15,1.11.44,1.46.29.34.72.52,1.3.52.43,0,.83-.1,1.2-.29.37-.19.73-.45,1.06-.78v-7.42h2.47Z" style="stroke-width: 0px;"/>
    <path d="m692.75,14.86V4.6h1.51c.32,0,.53.15.63.45l.16.76c.18-.2.37-.38.57-.55.2-.17.41-.31.63-.43.22-.12.46-.22.72-.29.26-.07.54-.1.85-.1.65,0,1.18.17,1.59.52s.73.81.93,1.4c.16-.34.36-.63.6-.88.24-.24.5-.44.79-.6.29-.15.59-.27.92-.34.32-.07.65-.11.97-.11.57,0,1.07.09,1.51.26.44.17.81.43,1.11.76s.53.74.68,1.22c.16.48.24,1.03.24,1.65v6.53h-2.47v-6.53c0-.65-.14-1.15-.43-1.48-.29-.33-.71-.5-1.26-.5-.25,0-.49.04-.71.13-.22.09-.41.21-.57.38-.16.16-.29.37-.39.62-.09.25-.14.53-.14.85v6.53h-2.48v-6.53c0-.69-.14-1.19-.42-1.5-.28-.31-.68-.47-1.22-.47-.36,0-.69.09-1,.27-.31.18-.6.42-.86.73v7.51h-2.47Z" style="stroke-width: 0px;"/>
  </g>
  <g style="clip-path: url(#clippath);">
    <g>
      <polygon points="645.13 438.22 719 438.22 719 438.22 719 438.22 719 438.22 719 438.22 719 438.22 719 438.22 719 438.22 719 438.22 719 438.22 719 438.22 719 438.22 719 438.22 719 382.7 719 382.7 719 382.7 719 382.7 719 382.7 719 382.7 719 382.7 719 382.7 719 382.7 719 382.7 719 382.7 719 382.7 645.13 382.7 645.13 382.7 645.13 382.7 645.13 382.7 645.13 382.7 645.13 382.7 645.13 382.7 645.13 382.7 645.13 382.7 645.13 382.7 645.13 382.7 645.13 382.7 645.13 382.7 645.13 438.22 645.13 438.22 645.13 438.22 645.13 438.22 645.13 438.22 645.13 438.22 645.13 438.22 645.13 438.22 645.13 438.22 645.13 438.22 645.13 438.22 645.13 438.22" style="fill: #0072bc; stroke: #bebebe; stroke-linecap: round; stroke-linejoin: round; stroke-width: .38px;"/>
      <polygon points="645.13 457.83 719 457.83 719 457.83 719 457.83 719 457.83 719 457.83 719 457.83 719 457.83 719 457.83 719 457.83 719 457.83 719 457.83 719 457.83 719 457.83 719 438.22 719 438.22 719 438.22 719 438.22 719 438.22 719 438.22 719 438.22 719 438.22 719 438.22 719 438.22 719 438.22 719 438.22 645.13 438.22 645.13 438.22 645.13 438.22 645.13 438.22 645.13 438.22 645.13 438.22 645.13 438.22 645.13 438.22 645.13 438.22 645.13 438.22 645.13 438.22 645.13 438.22 645.13 438.22 645.13 457.83 645.13 457.83 645.13 457.83 645.13 457.83 645.13 457.83 645.13 457.83 645.13 457.83 645.13 457.83 645.13 457.83 645.13 457.83 645.13 457.83 645.13 457.83" style="fill: #8395b9; stroke: #bebebe; stroke-linecap: round; stroke-linejoin: round; stroke-width: .38px;"/>
      <polygon points="1 280.64 500.56 280.64 500.56 280.64 500.56 280.64 500.56 280.64 500.56 280.64 500.56 280.64 500.56 280.64 500.56 280.64 500.56 280.64 500.56 280.64 500.56 280.64 500.56 280.64 500.56 280.64 500.56 32 500.56 32 500.56 32 500.56 32 500.56 32 500.56 32 500.56 32 500.56 32 500.56 32 500.56 32 500.56 32 500.56 32 1 32 1 32 1 32 1 32 1 32 1 32 1 32 1 32 1 32 1 32 1 32 1 32 1 32 1 280.64 1 280.64 1 280.64 1 280.64 1 280.64 1 280.64 1 280.64 1 280.64 1 280.64 1 280.64 1 280.64 1 280.64" style="fill: #0072bc; stroke: #bebebe; stroke-linecap: round; stroke-linejoin: round; stroke-width: .38px;"/>
      <polygon points="1 457.83 500.56 457.83 500.56 457.83 500.56 457.83 500.56 457.83 500.56 457.83 500.56 457.83 500.56 457.83 500.56 457.83 500.56 457.83 500.56 457.83 500.56 457.83 500.56 457.83 500.56 457.83 500.56 280.64 500.56 280.64 500.56 280.64 500.56 280.64 500.56 280.64 500.56 280.64 500.56 280.64 500.56 280.64 500.56 280.64 500.56 280.64 500.56 280.64 500.56 280.64 1 280.64 1 280.64 1 280.64 1 280.64 1 280.64 1 280.64 1 280.64 1 280.64 1 280.64 1 280.64 1 280.64 1 280.64 1 280.64 1 457.83 1 457.83 1 457.83 1 457.83 1 457.83 1 457.83 1 457.83 1 457.83 1 457.83 1 457.83 1 457.83 1 457.83" style="fill: #0072bc; stroke: #bebebe; stroke-linecap: round; stroke-linejoin: round; stroke-width: .38px;"/>
      <polygon points="500.56 457.83 643.52 457.83 643.52 457.83 643.52 457.83 643.52 457.83 643.52 457.83 643.52 457.83 643.52 457.83 643.52 457.83 643.52 457.83 643.52 457.83 643.52 457.83 643.52 457.83 643.52 457.83 643.52 382.7 643.52 382.7 643.52 382.7 643.52 382.7 643.52 382.7 643.52 382.7 643.52 382.7 643.52 382.7 643.52 382.7 643.52 382.7 643.52 382.7 643.52 382.7 500.56 382.7 500.56 382.7 500.56 382.7 500.56 382.7 500.56 382.7 500.56 382.7 500.56 382.7 500.56 382.7 500.56 382.7 500.56 382.7 500.56 382.7 500.56 382.7 500.56 382.7 500.56 457.83 500.56 457.83 500.56 457.83 500.56 457.83 500.56 457.83 500.56 457.83 500.56 457.83 500.56 457.83 500.56 457.83 500.56 457.83 500.56 457.83 500.56 457.83" style="fill: #0072bc; stroke: #bebebe; stroke-linecap: round; stroke-linejoin: round; stroke-width: .38px;"/>
      <polygon points="643.52 457.83 645.13 457.83 645.13 457.83 645.13 457.83 645.13 457.83 645.13 457.83 645.13 457.83 645.13 457.83 645.13 457.83 645.13 457.83 645.13 457.83 645.13 457.83 645.13 457.83 645.13 457.83 645.13 382.7 645.13 382.7 645.13 382.7 645.13 382.7 645.13 382.7 645.13 382.7 645.13 382.7 645.13 382.7 645.13 382.7 645.13 382.7 645.13 382.7 645.13 382.7 643.52 382.7 643.52 382.7 643.52 382.7 643.52 382.7 643.52 382.7 643.52 382.7 643.52 382.7 643.52 382.7 643.52 382.7 643.52 382.7 643.52 382.7 643.52 382.7 643.52 382.7 643.52 457.83 643.52 457.83 643.52 457.83 643.52 457.83 643.52 457.83 643.52 457.83 643.52 457.83 643.52 457.83 643.52 457.83 643.52 457.83 643.52 457.83 643.52 457.83" style="fill: #8395b9; stroke: #bebebe; stroke-linecap: round; stroke-linejoin: round; stroke-width: .38px;"/>
      <polygon points="500.56 353.38 719 353.38 719 353.38 719 353.38 719 353.38 719 353.38 719 353.38 719 353.38 719 353.38 719 353.38 719 353.38 719 353.38 719 353.38 719 353.38 719 32 719 32 719 32 719 32 719 32 719 32 719 32 719 32 719 32 719 32 719 32 719 32 500.56 32 500.56 32 500.56 32 500.56 32 500.56 32 500.56 32 500.56 32 500.56 32 500.56 32 500.56 32 500.56 32 500.56 32 500.56 32 500.56 353.38 500.56 353.38 500.56 353.38 500.56 353.38 500.56 353.38 500.56 353.38 500.56 353.38 500.56 353.38 500.56 353.38 500.56 353.38 500.56 353.38 500.56 353.38" style="fill: #8395b9; stroke: #bebebe; stroke-linecap: round; stroke-linejoin: round; stroke-width: .38px;"/>
      <polygon points="500.56 382.7 719 382.7 719 382.7 719 382.7 719 382.7 719 382.7 719 382.7 719 382.7 719 382.7 719 382.7 719 382.7 719 382.7 719 382.7 719 382.7 719 353.38 719 353.38 719 353.38 719 353.38 719 353.38 719 353.38 719 353.38 719 353.38 719 353.38 719 353.38 719 353.38 719 353.38 500.56 353.38 500.56 353.38 500.56 353.38 500.56 353.38 500.56 353.38 500.56 353.38 500.56 353.38 500.56 353.38 500.56 353.38 500.56 353.38 500.56 353.38 500.56 353.38 500.56 353.38 500.56 382.7 500.56 382.7 500.56 382.7 500.56 382.7 500.56 382.7 500.56 382.7 500.56 382.7 500.56 382.7 500.56 382.7 500.56 382.7 500.56 382.7 500.56 382.7" style="fill: #0072bc; stroke: #bebebe; stroke-linecap: round; stroke-linejoin: round; stroke-width: .38px;"/>
      <g style="isolation: isolate;">
        <path d="m657.15,432.98v1.48h-6.38v-1.48h2.34v-6.73c0-.27,0-.54.02-.82l-1.66,1.39c-.1.07-.19.12-.28.14-.09.02-.18.02-.26,0s-.16-.04-.22-.08c-.06-.04-.11-.08-.14-.13l-.62-.85,3.52-2.99h1.62v10.08h2.07Z" style="fill: #fff; stroke-width: 0px;"/>
        <path d="m659,426.13c.08-.55.23-1.04.46-1.46.23-.42.51-.77.86-1.05.34-.28.74-.49,1.18-.63.44-.14.92-.21,1.43-.21s1.01.08,1.44.23c.43.15.79.36,1.1.63.3.27.54.58.7.95s.24.75.24,1.17c0,.37-.04.69-.12.97-.08.28-.2.52-.36.73-.15.21-.35.38-.57.53s-.49.26-.77.36c.69.22,1.21.55,1.55,1,.34.45.51,1.01.51,1.68,0,.58-.11,1.08-.32,1.52-.21.44-.5.81-.86,1.11-.36.3-.78.53-1.26.68-.48.15-.98.23-1.51.23-.58,0-1.08-.07-1.52-.2-.43-.13-.81-.33-1.12-.59-.32-.26-.59-.58-.81-.96-.22-.38-.41-.81-.57-1.31l.87-.36c.23-.1.44-.12.64-.08.2.04.34.15.43.32.1.19.2.37.32.55s.25.34.41.48c.16.14.35.26.56.34.21.09.47.13.77.13.33,0,.63-.05.88-.16s.46-.25.63-.43.29-.37.38-.59c.08-.22.12-.43.12-.65,0-.28-.03-.53-.09-.75-.06-.23-.18-.42-.37-.58-.19-.16-.45-.28-.8-.37-.35-.09-.82-.14-1.4-.14v-1.4c.48,0,.89-.05,1.21-.14s.57-.2.76-.36c.19-.15.32-.33.39-.55.08-.21.11-.45.11-.7,0-.54-.15-.96-.46-1.24-.3-.28-.71-.42-1.21-.42-.23,0-.45.03-.65.1-.2.07-.37.16-.53.28-.16.12-.29.26-.39.42-.11.16-.19.33-.24.53-.09.24-.21.41-.36.49-.15.08-.35.1-.62.06l-1.04-.18Z" style="fill: #fff; stroke-width: 0px;"/>
        <path d="m670.83,427.75h.5c.2,0,.37-.03.5-.08s.25-.14.34-.27l3.18-4.03c.13-.17.27-.29.42-.36.15-.07.33-.1.55-.1h1.85l-3.89,4.79c-.23.29-.46.5-.71.62.18.06.33.15.47.27.14.11.28.26.4.45l4,5.4h-1.89c-.26,0-.45-.04-.57-.11-.12-.07-.23-.18-.32-.32l-3.26-4.26c-.1-.14-.22-.25-.35-.3s-.32-.09-.57-.09h-.68v5.07h-2.15v-11.54h2.15v4.83Z" style="fill: #fff; stroke-width: 0px;"/>
      </g>
      <g style="isolation: isolate;">
        <path d="m652.13,446.72c.25-.05.5-.09.73-.12.23-.02.46-.04.68-.04.61,0,1.14.09,1.6.27s.85.43,1.16.75c.31.32.55.69.71,1.12.16.43.24.89.24,1.38,0,.61-.11,1.17-.32,1.67-.22.51-.51.94-.9,1.3-.38.36-.84.64-1.36.83-.52.2-1.09.3-1.71.3-.36,0-.7-.04-1.03-.11-.33-.07-.63-.17-.91-.3-.28-.12-.55-.27-.79-.43-.24-.16-.46-.33-.65-.51l.61-.84c.13-.18.29-.27.5-.27.13,0,.27.04.41.13.14.08.3.18.47.28.18.1.39.19.63.28s.53.13.87.13c.36,0,.68-.06.96-.18s.51-.28.69-.49c.18-.21.32-.46.42-.75.09-.29.14-.61.14-.95,0-.63-.18-1.12-.55-1.47-.36-.35-.9-.53-1.62-.53-.55,0-1.11.1-1.68.3l-1.23-.35.96-5.6h5.7v.84c0,.28-.09.51-.26.69s-.47.26-.89.26h-3.17l-.41,2.4Z" style="fill: #1a1a1a; stroke-width: 0px;"/>
        <path d="m661.57,447.36h.5c.2,0,.37-.03.5-.08s.25-.14.34-.27l3.18-4.03c.13-.17.27-.29.42-.36.15-.07.33-.1.55-.1h1.85l-3.89,4.79c-.23.29-.46.5-.71.62.18.06.33.15.47.27.14.11.28.26.4.45l4,5.4h-1.89c-.26,0-.45-.04-.57-.11-.12-.07-.23-.18-.32-.32l-3.26-4.26c-.1-.14-.22-.25-.35-.3s-.32-.09-.57-.09h-.68v5.07h-2.15v-11.54h2.15v4.83Z" style="fill: #1a1a1a; stroke-width: 0px;"/>
      </g>
      <g style="isolation: isolate;">
        <path d="m13.61,272.53v1.14c0,.11-.04.2-.1.28-.07.08-.17.12-.29.12h-1.05v2.82h-1.71v-2.82h-4.87c-.13,0-.25-.04-.35-.12-.1-.08-.17-.19-.19-.31l-.21-1,5.46-7.3h1.87v7.2h1.45Zm-3.17,0v-3.77c0-.36.02-.75.07-1.18l-3.58,4.95h3.51Z" style="fill: #fff; stroke-width: 0px;"/>
        <path d="m22.87,271.11c0,1-.11,1.88-.32,2.62s-.51,1.36-.89,1.84c-.38.48-.83.84-1.35,1.08s-1.08.36-1.68.36-1.16-.12-1.67-.36c-.51-.24-.96-.6-1.34-1.08-.38-.48-.67-1.1-.89-1.84s-.32-1.62-.32-2.62.11-1.89.32-2.62.51-1.35.89-1.83c.38-.48.82-.84,1.34-1.08.51-.24,1.07-.35,1.67-.35s1.16.12,1.68.35.97.6,1.35,1.08c.38.48.68,1.1.89,1.83s.32,1.61.32,2.62Zm-2.03,0c0-.83-.06-1.53-.18-2.07-.12-.55-.29-.98-.49-1.31-.2-.32-.44-.55-.71-.68-.27-.13-.54-.2-.83-.2s-.55.07-.82.2c-.26.13-.5.36-.7.68s-.36.76-.48,1.31c-.12.55-.18,1.24-.18,2.07s.06,1.53.18,2.07c.12.55.28.98.48,1.31.2.33.43.55.7.68.26.13.54.2.82.2s.56-.07.83-.2c.27-.13.5-.36.71-.68.21-.32.37-.76.49-1.31.12-.55.18-1.24.18-2.07Z" style="fill: #fff; stroke-width: 0px;"/>
        <path d="m24.13,268.56c.08-.55.23-1.04.46-1.46.23-.42.51-.77.86-1.05.34-.28.74-.49,1.18-.63.44-.14.92-.21,1.43-.21s1.01.08,1.44.23c.43.15.79.36,1.1.63.3.27.54.58.7.95s.24.75.24,1.17c0,.37-.04.69-.12.97-.08.28-.2.52-.36.73-.15.21-.35.38-.57.53s-.49.26-.77.36c.69.22,1.21.55,1.55,1,.34.45.51,1.01.51,1.68,0,.58-.11,1.08-.32,1.52-.21.44-.5.81-.86,1.11-.36.3-.78.53-1.26.68-.48.15-.98.23-1.51.23-.58,0-1.08-.07-1.52-.2-.43-.13-.81-.33-1.12-.59-.32-.26-.59-.58-.81-.96-.22-.38-.41-.81-.57-1.31l.87-.36c.23-.1.44-.12.64-.08.2.04.34.15.43.32.1.19.2.37.32.55s.25.34.41.48c.16.14.35.26.56.34.21.09.47.13.77.13.33,0,.63-.05.88-.16s.46-.25.63-.43.29-.37.38-.59c.08-.22.12-.43.12-.65,0-.28-.03-.53-.09-.75-.06-.23-.18-.42-.37-.58-.19-.16-.45-.28-.8-.37-.35-.09-.82-.14-1.4-.14v-1.4c.48,0,.89-.05,1.21-.14s.57-.2.76-.36c.19-.15.32-.33.39-.55.08-.21.11-.45.11-.7,0-.54-.15-.96-.46-1.24-.3-.28-.71-.42-1.21-.42-.23,0-.45.03-.65.1-.2.07-.37.16-.53.28-.16.12-.29.26-.39.42-.11.16-.19.33-.24.53-.09.24-.21.41-.36.49-.15.08-.35.1-.62.06l-1.04-.18Z" style="fill: #fff; stroke-width: 0px;"/>
        <path d="m35.96,270.18h.5c.2,0,.37-.03.5-.08s.25-.14.34-.27l3.18-4.03c.13-.17.27-.29.42-.36.15-.07.33-.1.55-.1h1.85l-3.89,4.79c-.23.29-.46.5-.71.62.18.06.33.15.47.27.14.11.28.26.4.45l4,5.4h-1.89c-.26,0-.45-.04-.57-.11-.12-.07-.23-.18-.32-.32l-3.26-4.26c-.1-.14-.22-.25-.35-.3s-.32-.09-.57-.09h-.68v5.07h-2.15v-11.54h2.15v4.83Z" style="fill: #fff; stroke-width: 0px;"/>
      </g>
      <g style="isolation: isolate;">
        <path d="m12.59,452.23c.21,0,.38.06.51.18.12.12.19.28.19.47v1.18h-7.91v-.65c0-.13.03-.27.08-.42.06-.15.14-.28.27-.39l3.5-3.51c.29-.3.55-.58.79-.85.23-.27.42-.54.58-.81.15-.27.27-.54.35-.81.08-.27.12-.56.12-.87,0-.28-.04-.52-.12-.73s-.19-.39-.34-.53-.32-.25-.53-.32c-.21-.07-.43-.11-.69-.11-.23,0-.45.03-.65.1-.2.07-.38.16-.53.28-.15.12-.28.26-.39.42-.11.16-.19.33-.24.53-.09.24-.21.41-.35.49s-.35.1-.62.06l-1.04-.18c.08-.55.23-1.04.46-1.46.23-.42.51-.77.86-1.05s.74-.49,1.18-.63.92-.21,1.43-.21,1.02.08,1.46.24c.44.16.82.38,1.13.67.31.29.56.63.73,1.04s.26.85.26,1.35c0,.43-.06.82-.19,1.18-.12.36-.29.71-.5,1.04-.21.33-.46.65-.74.96-.28.31-.58.62-.88.94l-2.6,2.66c.25-.07.5-.13.75-.17.25-.04.48-.06.71-.06h2.96Z" style="fill: #fff; stroke-width: 0px;"/>
        <path d="m20.59,448.05c.7.23,1.22.58,1.56,1.05.34.47.5,1.05.5,1.73,0,.51-.1.97-.29,1.39s-.47.77-.82,1.06c-.35.29-.77.52-1.26.68-.49.16-1.04.24-1.63.24s-1.14-.08-1.63-.24c-.49-.16-.91-.39-1.26-.68-.35-.29-.62-.65-.82-1.06-.19-.42-.29-.88-.29-1.39,0-.68.17-1.26.5-1.73s.85-.82,1.56-1.05c-.56-.23-.98-.57-1.26-1s-.42-.95-.42-1.56c0-.44.09-.84.27-1.22.18-.38.43-.71.75-.99.32-.28.7-.5,1.14-.65.44-.16.93-.24,1.46-.24s1.02.08,1.46.24c.44.16.83.38,1.15.65.32.28.57.61.75.99.18.38.27.79.27,1.22,0,.61-.14,1.12-.42,1.56s-.7.76-1.26,1Zm-1.95,4.6c.32,0,.61-.05.85-.14.25-.09.45-.22.62-.39.17-.17.29-.36.38-.59.08-.23.13-.48.13-.74,0-.63-.18-1.11-.53-1.44s-.83-.49-1.45-.49-1.1.16-1.45.49c-.35.32-.53.8-.53,1.44,0,.27.04.51.13.74.08.23.21.43.38.59.17.17.37.29.62.39.24.09.53.14.85.14Zm0-8.77c-.29,0-.54.04-.76.14s-.39.21-.53.36c-.14.15-.25.33-.31.52-.07.2-.1.4-.1.62,0,.23.03.45.08.67s.15.41.28.57c.13.17.31.3.53.4.22.1.49.15.81.15s.59-.05.81-.15c.22-.1.39-.24.53-.4.13-.17.23-.36.28-.57.06-.22.08-.44.08-.67s-.03-.43-.1-.62c-.07-.2-.17-.37-.31-.52-.14-.15-.31-.27-.53-.36s-.46-.14-.76-.14Z" style="fill: #fff; stroke-width: 0px;"/>
        <path d="m31.98,442.53v.85c0,.26-.03.46-.08.62-.05.16-.11.29-.16.4l-4.37,9c-.09.19-.22.34-.38.47-.17.13-.39.2-.66.2h-1.43l4.46-8.82c.1-.18.2-.35.3-.5.1-.15.21-.3.33-.43h-5.52c-.12,0-.23-.04-.32-.14-.09-.09-.14-.2-.14-.32v-1.33h7.97Z" style="fill: #fff; stroke-width: 0px;"/>
        <path d="m35.96,447.36h.5c.2,0,.37-.03.5-.08s.25-.14.34-.27l3.18-4.03c.13-.17.27-.29.42-.36.15-.07.33-.1.55-.1h1.85l-3.89,4.79c-.23.29-.46.5-.71.62.18.06.33.15.47.27.14.11.28.26.4.45l4,5.4h-1.89c-.26,0-.45-.04-.57-.11-.12-.07-.23-.18-.32-.32l-3.26-4.26c-.1-.14-.22-.25-.35-.3s-.32-.09-.57-.09h-.68v5.07h-2.15v-11.54h2.15v4.83Z" style="fill: #fff; stroke-width: 0px;"/>
      </g>
      <g style="isolation: isolate;">
        <path d="m505.19,445.74c.08-.55.23-1.04.46-1.46.23-.42.51-.77.86-1.05.34-.28.74-.49,1.18-.63.44-.14.92-.21,1.43-.21s1.01.08,1.44.23c.43.15.79.36,1.1.63.3.27.54.58.7.95s.24.75.24,1.17c0,.37-.04.69-.12.97-.08.28-.2.52-.36.73-.15.21-.35.38-.57.53s-.49.26-.77.36c.69.22,1.21.55,1.55,1,.34.45.51,1.01.51,1.68,0,.58-.11,1.08-.32,1.52-.21.44-.5.81-.86,1.11-.36.3-.78.53-1.26.68-.48.15-.98.23-1.51.23-.58,0-1.08-.07-1.52-.2-.43-.13-.81-.33-1.12-.59-.32-.26-.59-.58-.81-.96-.22-.38-.41-.81-.57-1.31l.87-.36c.23-.1.44-.12.64-.08.2.04.34.15.43.32.1.19.2.37.32.55s.25.34.41.48c.16.14.35.26.56.34.21.09.47.13.77.13.33,0,.63-.05.88-.16s.46-.25.63-.43.29-.37.38-.59c.08-.22.12-.43.12-.65,0-.28-.03-.53-.09-.75-.06-.23-.18-.42-.37-.58-.19-.16-.45-.28-.8-.37-.35-.09-.82-.14-1.4-.14v-1.4c.48,0,.89-.05,1.21-.14s.57-.2.76-.36c.19-.15.32-.33.39-.55.08-.21.11-.45.11-.7,0-.54-.15-.96-.46-1.24-.3-.28-.71-.42-1.21-.42-.23,0-.45.03-.65.1-.2.07-.37.16-.53.28-.16.12-.29.26-.39.42-.11.16-.19.33-.24.53-.09.24-.21.41-.36.49-.15.08-.35.1-.62.06l-1.04-.18Z" style="fill: #fff; stroke-width: 0px;"/>
        <path d="m516.83,446.72c.25-.05.5-.09.73-.12.23-.02.46-.04.68-.04.61,0,1.14.09,1.6.27s.85.43,1.16.75c.31.32.55.69.71,1.12.16.43.24.89.24,1.38,0,.61-.11,1.17-.32,1.67-.22.51-.51.94-.9,1.3-.38.36-.84.64-1.36.83-.52.2-1.09.3-1.71.3-.36,0-.7-.04-1.03-.11-.33-.07-.63-.17-.91-.3-.28-.12-.55-.27-.79-.43-.24-.16-.46-.33-.65-.51l.61-.84c.13-.18.29-.27.5-.27.13,0,.27.04.41.13.14.08.3.18.47.28.18.1.39.19.63.28s.53.13.87.13c.36,0,.68-.06.96-.18s.51-.28.69-.49c.18-.21.32-.46.42-.75.09-.29.14-.61.14-.95,0-.63-.18-1.12-.55-1.47-.36-.35-.9-.53-1.62-.53-.55,0-1.11.1-1.68.3l-1.23-.35.96-5.6h5.7v.84c0,.28-.09.51-.26.69s-.47.26-.89.26h-3.17l-.41,2.4Z" style="fill: #fff; stroke-width: 0px;"/>
        <path d="m526.27,447.36h.5c.2,0,.37-.03.5-.08s.25-.14.34-.27l3.18-4.03c.13-.17.27-.29.42-.36.15-.07.33-.1.55-.1h1.85l-3.89,4.79c-.23.29-.46.5-.71.62.18.06.33.15.47.27.14.11.28.26.4.45l4,5.4h-1.89c-.26,0-.45-.04-.57-.11-.12-.07-.23-.18-.32-.32l-3.26-4.26c-.1-.14-.22-.25-.35-.3s-.32-.09-.57-.09h-.68v5.07h-2.15v-11.54h2.15v4.83Z" style="fill: #fff; stroke-width: 0px;"/>
      </g>
      <g style="isolation: isolate;">
        <path d="m512.16,347.77c.21,0,.38.06.51.18.12.12.19.28.19.47v1.18h-7.91v-.65c0-.13.03-.27.08-.42.06-.15.14-.28.27-.39l3.5-3.51c.29-.3.55-.58.79-.85.23-.27.42-.54.58-.81.15-.27.27-.54.35-.81.08-.27.12-.56.12-.87,0-.28-.04-.52-.12-.73s-.19-.39-.34-.53-.32-.25-.53-.32c-.21-.07-.43-.11-.69-.11-.23,0-.45.03-.65.1-.2.07-.38.16-.53.28-.15.12-.28.26-.39.42-.11.16-.19.33-.24.53-.09.24-.21.41-.35.49s-.35.1-.62.06l-1.04-.18c.08-.55.23-1.04.46-1.46.23-.42.51-.77.86-1.05s.74-.49,1.18-.63.92-.21,1.43-.21,1.02.08,1.46.24c.44.16.82.38,1.13.67.31.29.56.63.73,1.04s.26.85.26,1.35c0,.43-.06.82-.19,1.18-.12.36-.29.71-.5,1.04-.21.33-.46.65-.74.96-.28.31-.58.62-.88.94l-2.6,2.66c.25-.07.5-.13.75-.17.25-.04.48-.06.71-.06h2.96Z" style="fill: #1a1a1a; stroke-width: 0px;"/>
        <path d="m521.41,347.77c.21,0,.38.06.51.18.12.12.19.28.19.47v1.18h-7.91v-.65c0-.13.03-.27.08-.42.06-.15.14-.28.27-.39l3.5-3.51c.29-.3.55-.58.79-.85.23-.27.42-.54.58-.81.15-.27.27-.54.35-.81.08-.27.12-.56.12-.87,0-.28-.04-.52-.12-.73s-.19-.39-.34-.53-.32-.25-.53-.32c-.21-.07-.43-.11-.69-.11-.23,0-.45.03-.65.1-.2.07-.38.16-.53.28-.15.12-.28.26-.39.42-.11.16-.19.33-.24.53-.09.24-.21.41-.35.49s-.35.1-.62.06l-1.04-.18c.08-.55.23-1.04.46-1.46.23-.42.51-.77.86-1.05s.74-.49,1.18-.63.92-.21,1.43-.21,1.02.08,1.46.24c.44.16.82.38,1.13.67.31.29.56.63.73,1.04s.26.85.26,1.35c0,.43-.06.82-.19,1.18-.12.36-.29.71-.5,1.04-.21.33-.46.65-.74.96-.28.31-.58.62-.88.94l-2.6,2.66c.25-.07.5-.13.75-.17.25-.04.48-.06.71-.06h2.96Z" style="fill: #1a1a1a; stroke-width: 0px;"/>
        <path d="m529.41,343.59c.7.23,1.22.58,1.56,1.05.34.47.5,1.05.5,1.73,0,.51-.1.97-.29,1.39s-.47.77-.82,1.06c-.35.29-.77.52-1.26.68-.49.16-1.04.24-1.63.24s-1.14-.08-1.63-.24c-.49-.16-.91-.39-1.26-.68-.35-.29-.62-.65-.82-1.06-.19-.42-.29-.88-.29-1.39,0-.68.17-1.26.5-1.73s.85-.82,1.56-1.05c-.56-.23-.98-.57-1.26-1s-.42-.95-.42-1.56c0-.44.09-.84.27-1.22.18-.38.43-.71.75-.99.32-.28.7-.5,1.14-.65.44-.16.93-.24,1.46-.24s1.02.08,1.46.24c.44.16.83.38,1.15.65.32.28.57.61.75.99.18.38.27.79.27,1.22,0,.61-.14,1.12-.42,1.56s-.7.76-1.26,1Zm-1.95,4.6c.32,0,.61-.05.85-.14.25-.09.45-.22.62-.39.17-.17.29-.36.38-.59.08-.23.13-.48.13-.74,0-.63-.18-1.11-.53-1.44s-.83-.49-1.45-.49-1.1.16-1.45.49c-.35.32-.53.8-.53,1.44,0,.27.04.51.13.74.08.23.21.43.38.59.17.17.37.29.62.39.24.09.53.14.85.14Zm0-8.77c-.29,0-.54.04-.76.14s-.39.21-.53.36c-.14.15-.25.33-.31.52-.07.2-.1.4-.1.62,0,.23.03.45.08.67s.15.41.28.57c.13.17.31.3.53.4.22.1.49.15.81.15s.59-.05.81-.15c.22-.1.39-.24.53-.4.13-.17.23-.36.28-.57.06-.22.08-.44.08-.67s-.03-.43-.1-.62c-.07-.2-.17-.37-.31-.52-.14-.15-.31-.27-.53-.36s-.46-.14-.76-.14Z" style="fill: #1a1a1a; stroke-width: 0px;"/>
        <path d="m535.52,342.91h.5c.2,0,.37-.03.5-.08s.25-.14.34-.27l3.18-4.03c.13-.17.27-.29.42-.36.15-.07.33-.1.55-.1h1.85l-3.89,4.79c-.23.29-.46.5-.71.62.18.06.33.15.47.27.14.11.28.26.4.45l4,5.4h-1.89c-.26,0-.45-.04-.57-.11-.12-.07-.23-.18-.32-.32l-3.26-4.26c-.1-.14-.22-.25-.35-.3s-.32-.09-.57-.09h-.68v5.07h-2.15v-11.54h2.15v4.83Z" style="fill: #1a1a1a; stroke-width: 0px;"/>
      </g>
      <g style="isolation: isolate;">
        <path d="m512.16,377.09c.21,0,.38.06.51.18.12.12.19.28.19.47v1.18h-7.91v-.65c0-.13.03-.27.08-.42.06-.15.14-.28.27-.39l3.5-3.51c.29-.3.55-.58.79-.85.23-.27.42-.54.58-.81.15-.27.27-.54.35-.81.08-.27.12-.56.12-.87,0-.28-.04-.52-.12-.73s-.19-.39-.34-.53-.32-.25-.53-.32c-.21-.07-.43-.11-.69-.11-.23,0-.45.03-.65.1-.2.07-.38.16-.53.28-.15.12-.28.26-.39.42-.11.16-.19.33-.24.53-.09.24-.21.41-.35.49s-.35.1-.62.06l-1.04-.18c.08-.55.23-1.04.46-1.46.23-.42.51-.77.86-1.05s.74-.49,1.18-.63.92-.21,1.43-.21,1.02.08,1.46.24c.44.16.82.38,1.13.67.31.29.56.63.73,1.04s.26.85.26,1.35c0,.43-.06.82-.19,1.18-.12.36-.29.71-.5,1.04-.21.33-.46.65-.74.96-.28.31-.58.62-.88.94l-2.6,2.66c.25-.07.5-.13.75-.17.25-.04.48-.06.71-.06h2.96Z" style="fill: #fff; stroke-width: 0px;"/>
        <path d="m521.84,377.45v1.48h-6.38v-1.48h2.34v-6.73c0-.27,0-.54.02-.82l-1.66,1.39c-.1.07-.19.12-.28.14-.09.02-.18.02-.26,0s-.16-.04-.22-.08c-.06-.04-.11-.08-.14-.13l-.62-.85,3.52-2.99h1.62v10.08h2.07Z" style="fill: #fff; stroke-width: 0px;"/>
        <path d="m526.27,372.23h.5c.2,0,.37-.03.5-.08s.25-.14.34-.27l3.18-4.03c.13-.17.27-.29.42-.36.15-.07.33-.1.55-.1h1.85l-3.89,4.79c-.23.29-.46.5-.71.62.18.06.33.15.47.27.14.11.28.26.4.45l4,5.4h-1.89c-.26,0-.45-.04-.57-.11-.12-.07-.23-.18-.32-.32l-3.26-4.26c-.1-.14-.22-.25-.35-.3s-.32-.09-.57-.09h-.68v5.07h-2.15v-11.54h2.15v4.83Z" style="fill: #fff; stroke-width: 0px;"/>
      </g>
      <rect x="645.13" y="382.7" width="73.87" height="75.14" style="fill: none; stroke: #fff; stroke-linejoin: round; stroke-width: .75px;"/>
      <rect x="1" y="32" width="499.56" height="248.64" style="fill: none; stroke: #fff; stroke-linejoin: round; stroke-width: .75px;"/>
      <rect x="1" y="280.64" width="499.56" height="177.19" style="fill: none; stroke: #fff; stroke-linejoin: round; stroke-width: .75px;"/>
      <rect x="500.56" y="382.7" width="144.57" height="75.14" style="fill: none; stroke: #fff; stroke-linejoin: round; stroke-width: .75px;"/>
      <rect x="500.56" y="32" width="218.44" height="350.69" style="fill: none; stroke: #fff; stroke-linejoin: round; stroke-width: .75px;"/>
      <g style="isolation: isolate;">
        <path d="m661.54,402.33c.11,0,.21.05.3.14l.82.88c-.62.72-1.38,1.29-2.27,1.69-.89.4-1.97.61-3.23.61-1.09,0-2.08-.19-2.98-.57-.89-.38-1.66-.91-2.29-1.6-.63-.68-1.12-1.51-1.47-2.46-.35-.96-.52-2.01-.52-3.16s.18-2.2.54-3.16c.36-.96.87-1.78,1.53-2.47.66-.69,1.44-1.22,2.36-1.6.92-.38,1.92-.57,3.03-.57s2.04.17,2.87.52c.83.35,1.56.82,2.19,1.41l-.68.95c-.04.07-.1.13-.17.18-.07.05-.16.07-.27.07-.13,0-.28-.07-.47-.21s-.43-.29-.72-.46-.67-.32-1.12-.46c-.45-.14-1-.21-1.65-.21-.79,0-1.51.14-2.16.41-.65.27-1.21.67-1.69,1.19s-.84,1.15-1.1,1.89c-.26.74-.39,1.58-.39,2.52s.14,1.8.41,2.54c.27.75.64,1.37,1.12,1.89.47.51,1.03.91,1.67,1.17.64.27,1.33.4,2.08.4.45,0,.86-.03,1.23-.08.37-.05.7-.14,1.01-.25s.6-.26.86-.43c.27-.17.53-.38.79-.62.12-.11.24-.16.36-.16Z" style="fill: #fff; stroke-width: 0px;"/>
        <path d="m677.44,405.48h-1.6c-.18,0-.33-.05-.45-.14-.11-.09-.2-.21-.26-.35l-1.42-3.68h-6.84l-1.43,3.68c-.04.13-.12.24-.24.34-.12.1-.27.15-.45.15h-1.6l6.1-15.24h2.08l6.09,15.24Zm-4.3-5.66l-2.39-6.2c-.07-.18-.15-.4-.22-.64-.08-.24-.15-.5-.22-.78-.15.58-.3,1.05-.46,1.44l-2.39,6.19h5.69Z" style="fill: #fff; stroke-width: 0px;"/>
        <path d="m690.71,405.48h-1.83c-.38,0-.65-.15-.83-.44l-3.96-5.45c-.12-.17-.25-.29-.39-.37-.14-.07-.35-.11-.64-.11h-1.56v6.36h-2.05v-15.24h4.31c.96,0,1.8.1,2.5.29s1.28.48,1.74.85c.46.37.8.81,1.02,1.33.22.52.33,1.1.33,1.75,0,.54-.08,1.04-.25,1.51-.17.47-.42.89-.74,1.26-.32.37-.72.69-1.18.95-.46.26-.99.46-1.58.6.26.15.49.37.68.65l4.45,6.05Zm-7.04-7.86c.6,0,1.12-.07,1.58-.22.46-.14.84-.35,1.15-.62.31-.27.54-.58.7-.95.16-.37.23-.78.23-1.22,0-.91-.3-1.59-.89-2.05s-1.49-.69-2.68-.69h-2.25v5.75h2.17Z" style="fill: #fff; stroke-width: 0px;"/>
      </g>
      <g style="isolation: isolate;">
        <path d="m17.41,51.64c.11,0,.21.05.3.14l.82.88c-.62.72-1.38,1.29-2.27,1.69s-1.97.61-3.23.61c-1.09,0-2.08-.19-2.98-.57-.89-.38-1.66-.91-2.29-1.6-.63-.68-1.12-1.5-1.47-2.46-.35-.96-.52-2.01-.52-3.16s.18-2.2.54-3.16c.36-.96.87-1.78,1.53-2.47.66-.69,1.44-1.22,2.36-1.6s1.92-.57,3.03-.57,2.04.17,2.87.52c.83.35,1.56.82,2.19,1.42l-.68.95c-.04.07-.1.13-.17.18-.07.05-.16.07-.27.07-.13,0-.28-.07-.47-.21s-.43-.29-.72-.46c-.3-.17-.67-.32-1.12-.46-.45-.14-1-.21-1.65-.21-.79,0-1.51.14-2.16.41s-1.21.67-1.69,1.19-.84,1.15-1.1,1.89c-.26.74-.39,1.58-.39,2.52s.14,1.8.41,2.54c.27.74.64,1.37,1.12,1.89.47.51,1.03.91,1.67,1.18.64.27,1.33.4,2.08.4.45,0,.86-.03,1.23-.08s.7-.14,1.01-.25c.31-.11.6-.26.86-.43s.53-.38.79-.62c.12-.11.24-.16.36-.16Z" style="fill: #fff; stroke-width: 0px;"/>
        <path d="m22.38,45.45c.46-.49.97-.88,1.53-1.17.56-.29,1.21-.44,1.94-.44.59,0,1.11.1,1.56.29.45.19.83.47,1.13.83.3.36.53.79.69,1.29s.23,1.06.23,1.67v6.86h-1.9v-6.86c0-.82-.19-1.45-.56-1.9-.37-.45-.94-.68-1.7-.68-.56,0-1.08.13-1.57.4-.49.27-.93.63-1.34,1.1v7.94h-1.9v-15.67h1.9v6.33Z" style="fill: #fff; stroke-width: 0px;"/>
        <path d="m32.07,45.54c.6-.57,1.24-1,1.92-1.29.69-.28,1.45-.43,2.29-.43.6,0,1.14.1,1.61.3.47.2.86.48,1.18.83.32.35.56.78.72,1.29.16.5.25,1.06.25,1.66v6.89h-.84c-.18,0-.33-.03-.42-.09-.1-.06-.18-.18-.23-.36l-.21-1.02c-.28.26-.56.49-.83.7s-.55.37-.85.51-.62.24-.95.32c-.34.07-.71.11-1.12.11s-.81-.06-1.18-.18c-.37-.12-.69-.29-.96-.53-.27-.23-.49-.53-.65-.89s-.24-.78-.24-1.27c0-.43.12-.83.35-1.23.23-.39.61-.74,1.14-1.05.52-.31,1.21-.56,2.05-.75.84-.2,1.88-.31,3.11-.33v-.84c0-.84-.18-1.47-.54-1.9-.36-.43-.89-.64-1.58-.64-.47,0-.86.06-1.17.18-.32.12-.59.25-.82.39-.23.15-.43.28-.6.39-.17.12-.33.18-.5.18-.13,0-.24-.03-.33-.1-.09-.07-.17-.15-.23-.25l-.34-.61Zm6.12,4.4c-.87.03-1.62.1-2.23.21s-1.11.25-1.5.43-.67.39-.84.63c-.17.24-.26.51-.26.81s.05.53.14.73c.09.21.22.37.38.51.16.13.35.23.56.29.22.06.45.09.7.09.33,0,.64-.03.91-.1.28-.07.54-.17.78-.29.24-.13.48-.28.7-.46s.44-.38.65-.61v-2.23Z" style="fill: #fff; stroke-width: 0px;"/>
        <path d="m51.83,39.12v15.67h-1.13c-.27,0-.44-.13-.51-.39l-.17-1.31c-.46.55-.99,1-1.57,1.34-.59.34-1.27.51-2.04.51-.62,0-1.18-.12-1.68-.36-.5-.24-.93-.59-1.29-1.05-.36-.46-.63-1.04-.82-1.72-.19-.69-.29-1.48-.29-2.37,0-.79.11-1.53.32-2.22.21-.68.52-1.28.91-1.78.4-.5.88-.9,1.46-1.19s1.23-.43,1.95-.43c.66,0,1.22.11,1.7.33.47.22.89.53,1.26.93v-5.97h1.89Zm-1.89,7.46c-.35-.48-.74-.81-1.15-.99-.41-.19-.87-.28-1.38-.28-1,0-1.77.36-2.31,1.07-.54.72-.81,1.74-.81,3.06,0,.7.06,1.3.18,1.8s.3.91.53,1.23c.23.32.52.56.86.71s.73.22,1.16.22c.62,0,1.17-.14,1.63-.43.46-.28.89-.68,1.28-1.2v-5.2Z" style="fill: #fff; stroke-width: 0px;"/>
      </g>
      <g style="isolation: isolate;">
        <path d="m16.11,301.75v1.68H6.71v-15.24h9.39v1.68h-7.33v5.06h5.94v1.62h-5.94v5.2h7.34Z" style="fill: #fff; stroke-width: 0px;"/>
        <path d="m27.34,293.08v.7c0,.23-.15.38-.45.45l-1.22.16c.24.47.36.99.36,1.55,0,.52-.1,1-.3,1.43s-.48.8-.83,1.1c-.36.3-.78.54-1.28.7-.5.16-1.04.25-1.62.25-.5,0-.98-.06-1.43-.18-.23.14-.4.29-.52.45-.12.16-.18.32-.18.48,0,.25.1.45.31.58.21.13.48.22.82.28.34.06.73.09,1.17.11.44.01.88.04,1.34.07s.9.09,1.34.17c.44.08.83.21,1.17.38.34.18.62.42.82.73.21.31.31.72.31,1.21,0,.46-.12.91-.35,1.34-.23.43-.56.82-1,1.15s-.96.61-1.59.81c-.63.2-1.33.3-2.12.3s-1.48-.08-2.06-.23c-.59-.16-1.08-.37-1.47-.63-.39-.26-.68-.57-.88-.91-.2-.34-.29-.7-.29-1.08,0-.53.17-.98.5-1.35.33-.37.79-.66,1.37-.88-.32-.14-.57-.33-.76-.57-.19-.24-.28-.56-.28-.96,0-.16.03-.32.08-.48.06-.17.14-.33.26-.5.12-.17.26-.32.43-.47.17-.15.37-.28.6-.39-.53-.3-.95-.69-1.24-1.19s-.45-1.07-.45-1.72c0-.52.1-1,.3-1.43s.48-.79.85-1.1c.36-.3.79-.53,1.29-.7.5-.16,1.05-.24,1.64-.24.47,0,.9.05,1.31.15.4.1.77.25,1.11.45h2.93Zm-1.93,10.93c0-.26-.07-.48-.22-.64-.15-.16-.35-.29-.6-.38-.25-.09-.54-.16-.88-.2-.33-.04-.69-.07-1.06-.09-.37-.02-.75-.04-1.13-.06s-.75-.06-1.11-.11c-.4.18-.72.42-.97.7-.25.28-.38.61-.38.98,0,.24.06.47.19.68.12.21.31.39.57.54.25.15.58.27.96.36.39.09.84.13,1.37.13s.97-.05,1.37-.14c.4-.09.75-.22,1.03-.39.28-.17.49-.37.64-.61.15-.23.22-.49.22-.78Zm-3.41-5.85c.38,0,.72-.05,1.01-.16.29-.11.54-.26.73-.45s.35-.42.45-.69c.1-.27.15-.56.15-.88,0-.66-.2-1.18-.6-1.57-.4-.39-.98-.58-1.74-.58s-1.35.2-1.75.58c-.4.39-.6.92-.6,1.57,0,.32.05.61.15.88.1.27.25.49.45.69.2.19.44.34.73.45s.63.16,1.01.16Z" style="fill: #fff; stroke-width: 0px;"/>
        <path d="m38.6,292.66l-6.01,13.96c-.06.14-.14.25-.24.34-.1.08-.24.13-.44.13h-1.4l1.97-4.28-4.45-10.15h1.64c.16,0,.29.04.39.12.1.08.16.17.2.27l2.88,6.79c.11.3.21.61.29.94.1-.33.21-.65.32-.95l2.8-6.78c.04-.11.12-.21.22-.28.1-.07.22-.11.35-.11h1.5Z" style="fill: #fff; stroke-width: 0px;"/>
        <path d="m42.08,294.33c.45-.56.98-1.01,1.57-1.35.6-.34,1.28-.51,2.04-.51.62,0,1.19.12,1.69.36.5.24.93.59,1.29,1.05.35.46.63,1.04.82,1.73.19.69.29,1.48.29,2.37,0,.79-.11,1.53-.32,2.22-.21.68-.52,1.28-.92,1.78-.4.5-.89.89-1.47,1.18-.58.29-1.23.43-1.95.43-.66,0-1.23-.11-1.7-.33-.47-.22-.89-.53-1.25-.93v4.77h-1.9v-14.42h1.14c.27,0,.44.13.5.39l.17,1.28Zm.1,6.51c.35.47.73.8,1.14.99s.87.29,1.38.29c1.01,0,1.78-.36,2.32-1.07.54-.72.81-1.74.81-3.06,0-.7-.06-1.3-.19-1.81-.12-.5-.3-.92-.54-1.24-.23-.32-.52-.56-.86-.71-.34-.15-.73-.22-1.16-.22-.62,0-1.16.14-1.62.42-.46.28-.89.68-1.28,1.2v5.21Z" style="fill: #fff; stroke-width: 0px;"/>
        <path d="m55.36,303.6c-.85,0-1.5-.24-1.96-.71-.46-.47-.69-1.16-.69-2.05v-6.59h-1.3c-.11,0-.21-.03-.29-.1s-.12-.17-.12-.31v-.75l1.77-.22.44-3.33c.02-.11.07-.19.14-.26s.17-.1.29-.1h.96v3.71h3.12v1.37h-3.12v6.47c0,.45.11.79.33,1.01.22.22.5.33.85.33.2,0,.37-.03.52-.08.15-.05.27-.11.38-.17.11-.06.2-.12.27-.18.07-.05.14-.08.2-.08.1,0,.19.06.27.18l.55.9c-.33.3-.72.54-1.18.72-.46.17-.94.26-1.43.26Z" style="fill: #fff; stroke-width: 0px;"/>
      </g>
      <g style="isolation: isolate;">
        <path d="m515.68,403.8v1.68h-9.4v-15.24h9.39v1.68h-7.33v5.06h5.94v1.62h-5.94v5.2h7.34Z" style="fill: #fff; stroke-width: 0px;"/>
        <path d="m520.96,405.65c-.85,0-1.5-.24-1.96-.71-.46-.47-.69-1.16-.69-2.05v-6.59h-1.3c-.11,0-.21-.03-.29-.1s-.12-.17-.12-.31v-.75l1.77-.22.44-3.33c.02-.11.07-.19.14-.26s.17-.1.29-.1h.96v3.71h3.12v1.37h-3.12v6.47c0,.45.11.79.33,1.01.22.22.5.33.85.33.2,0,.37-.03.52-.08.15-.05.27-.11.38-.17.11-.06.2-.12.27-.18.07-.05.14-.08.2-.08.1,0,.19.06.27.18l.55.9c-.33.3-.72.54-1.18.72-.46.17-.94.26-1.43.26Z" style="fill: #fff; stroke-width: 0px;"/>
        <path d="m527.18,396.14c.46-.49.97-.88,1.53-1.17.56-.29,1.21-.44,1.94-.44.59,0,1.11.1,1.56.29.45.2.83.47,1.13.83.3.36.53.79.69,1.29.16.5.23,1.06.23,1.67v6.86h-1.9v-6.86c0-.82-.19-1.45-.56-1.9-.37-.45-.94-.67-1.7-.67-.56,0-1.08.13-1.57.4-.49.27-.93.63-1.34,1.1v7.94h-1.9v-15.67h1.9v6.33Z" style="fill: #fff; stroke-width: 0px;"/>
        <path d="m539.55,391.32c0,.18-.04.36-.11.52-.07.16-.17.3-.3.42s-.27.22-.44.29c-.17.07-.34.11-.53.11s-.36-.04-.52-.11c-.16-.07-.3-.17-.42-.29-.12-.12-.22-.27-.29-.42-.07-.16-.11-.33-.11-.52s.04-.36.11-.53c.07-.17.17-.31.29-.44.12-.12.26-.22.42-.29.16-.07.33-.11.52-.11s.36.04.53.11c.17.07.31.17.44.29s.22.27.3.44c.07.17.11.34.11.53Zm-.4,3.38v10.78h-1.89v-10.78h1.89Z" style="fill: #fff; stroke-width: 0px;"/>
        <path d="m546.79,394.54c.79,0,1.5.13,2.13.39.63.26,1.17.63,1.62,1.12.45.48.79,1.07,1.03,1.75.24.68.36,1.45.36,2.29s-.12,1.62-.36,2.3-.58,1.26-1.03,1.75c-.45.48-.99.85-1.62,1.11-.63.26-1.34.39-2.13.39s-1.51-.13-2.14-.39-1.18-.63-1.62-1.11c-.45-.48-.79-1.06-1.03-1.75-.24-.68-.36-1.45-.36-2.3s.12-1.61.36-2.29c.24-.68.58-1.27,1.03-1.75.45-.48.99-.85,1.62-1.12s1.35-.39,2.14-.39Zm0,9.62c1.06,0,1.86-.36,2.38-1.07.52-.71.79-1.71.79-2.98s-.26-2.28-.79-3c-.53-.72-1.32-1.07-2.38-1.07-.54,0-1.01.09-1.41.28-.4.18-.73.45-1,.8-.27.35-.46.77-.6,1.28-.13.51-.2,1.08-.2,1.72,0,1.28.26,2.27.79,2.98s1.33,1.07,2.41,1.07Z" style="fill: #fff; stroke-width: 0px;"/>
        <path d="m556.12,396.38c.45-.56.98-1.01,1.57-1.35.6-.34,1.28-.51,2.04-.51.62,0,1.19.12,1.69.36.5.24.93.59,1.29,1.05.35.46.63,1.04.82,1.73.19.69.29,1.48.29,2.37,0,.79-.11,1.53-.32,2.22-.21.68-.52,1.28-.92,1.78-.4.5-.89.89-1.47,1.18-.58.29-1.23.43-1.95.43-.66,0-1.23-.11-1.7-.33-.47-.22-.89-.53-1.25-.93v4.77h-1.9v-14.42h1.14c.27,0,.44.13.5.39l.17,1.28Zm.1,6.51c.35.47.73.8,1.14.99s.87.29,1.38.29c1.01,0,1.78-.36,2.32-1.07.54-.72.81-1.74.81-3.06,0-.7-.06-1.3-.19-1.81-.12-.5-.3-.92-.54-1.24-.23-.32-.52-.56-.86-.71-.34-.15-.73-.22-1.16-.22-.62,0-1.16.14-1.62.42-.46.28-.89.68-1.28,1.2v5.21Z" style="fill: #fff; stroke-width: 0px;"/>
        <path d="m568.64,391.32c0,.18-.04.36-.11.52-.07.16-.17.3-.3.42s-.27.22-.44.29c-.17.07-.34.11-.53.11s-.36-.04-.52-.11c-.16-.07-.3-.17-.42-.29-.12-.12-.22-.27-.29-.42-.07-.16-.11-.33-.11-.52s.04-.36.11-.53c.07-.17.17-.31.29-.44.12-.12.26-.22.42-.29.16-.07.33-.11.52-.11s.36.04.53.11c.17.07.31.17.44.29s.22.27.3.44c.07.17.11.34.11.53Zm-.4,3.38v10.78h-1.89v-10.78h1.89Z" style="fill: #fff; stroke-width: 0px;"/>
        <path d="m571.07,396.23c.6-.58,1.24-1,1.92-1.29.69-.28,1.45-.43,2.29-.43.6,0,1.14.1,1.61.3.47.2.86.48,1.18.83s.56.78.72,1.29c.16.5.25,1.06.25,1.66v6.89h-.84c-.18,0-.33-.03-.42-.09-.1-.06-.18-.18-.23-.36l-.21-1.02c-.28.26-.56.49-.83.7s-.55.37-.85.51c-.3.14-.62.25-.95.32s-.71.11-1.12.11-.81-.06-1.18-.17c-.37-.12-.69-.29-.96-.53-.27-.23-.49-.53-.65-.89s-.24-.78-.24-1.27c0-.42.12-.83.35-1.23.23-.39.61-.74,1.14-1.05.52-.3,1.21-.55,2.05-.75.84-.19,1.88-.31,3.11-.33v-.84c0-.84-.18-1.47-.54-1.9-.36-.43-.89-.64-1.58-.64-.47,0-.86.06-1.17.17-.32.12-.59.25-.82.39s-.43.28-.6.39c-.17.12-.33.18-.5.18-.13,0-.24-.03-.33-.1-.09-.07-.17-.15-.23-.25l-.34-.61Zm6.12,4.4c-.87.03-1.62.1-2.23.21-.61.11-1.11.25-1.5.43-.39.18-.67.39-.84.63-.17.24-.26.51-.26.81s.05.53.14.73c.09.21.22.37.38.5.16.13.35.23.56.29.22.06.45.09.7.09.33,0,.64-.03.91-.1.28-.07.54-.17.78-.29.24-.13.48-.28.7-.46.22-.18.44-.38.65-.61v-2.23Z" style="fill: #fff; stroke-width: 0px;"/>
      </g>
      <g style="isolation: isolate;">
        <path d="m514.08,41.93c-.06.11-.13.19-.21.24-.07.05-.17.08-.27.08-.12,0-.26-.06-.42-.18-.16-.12-.37-.25-.61-.4-.24-.15-.54-.28-.88-.4s-.76-.18-1.25-.18c-.46,0-.87.06-1.22.19-.35.12-.65.29-.88.5-.24.21-.42.46-.54.75-.12.29-.18.6-.18.93,0,.43.1.78.31,1.06s.49.52.83.72c.34.2.73.37,1.17.52s.88.3,1.34.45c.46.16.9.33,1.34.53.44.2.83.44,1.17.74s.62.66.83,1.1c.21.43.31.96.31,1.6,0,.67-.11,1.29-.34,1.88-.23.58-.56,1.09-.99,1.53-.44.43-.97.77-1.61,1.02s-1.36.37-2.16.37c-.99,0-1.89-.18-2.7-.54-.81-.36-1.5-.84-2.07-1.45l.6-.98c.06-.08.13-.14.21-.2.08-.05.17-.08.27-.08.09,0,.2.04.31.11.12.07.25.17.4.28.15.11.32.24.51.37s.41.26.65.37c.24.11.52.21.83.28.31.07.66.11,1.05.11.49,0,.93-.07,1.31-.2.38-.13.71-.32.97-.57.27-.24.47-.54.61-.88.14-.34.21-.72.21-1.14,0-.46-.1-.84-.31-1.13-.21-.29-.48-.54-.82-.74-.34-.2-.73-.37-1.17-.51-.44-.14-.89-.28-1.34-.43-.45-.15-.9-.31-1.34-.5-.44-.19-.83-.44-1.17-.74-.34-.31-.62-.69-.82-1.14-.21-.46-.31-1.02-.31-1.7,0-.54.1-1.06.31-1.56.21-.5.51-.95.91-1.34.4-.39.89-.7,1.48-.94.59-.23,1.26-.35,2.02-.35.85,0,1.62.13,2.32.4.7.27,1.31.66,1.85,1.17l-.5.98Z" style="fill: #1a1a1a; stroke-width: 0px;"/>
        <path d="m521.85,43.85c.79,0,1.5.13,2.13.39.63.26,1.17.63,1.62,1.12.45.48.79,1.07,1.03,1.75.24.68.36,1.45.36,2.29s-.12,1.62-.36,2.3c-.24.68-.58,1.26-1.03,1.74-.45.48-.99.85-1.62,1.11-.63.26-1.34.39-2.13.39s-1.51-.13-2.14-.39-1.18-.63-1.62-1.11c-.45-.48-.79-1.06-1.03-1.74-.24-.68-.36-1.45-.36-2.3s.12-1.61.36-2.29c.24-.68.58-1.27,1.03-1.75.45-.48.99-.85,1.62-1.12.63-.26,1.35-.39,2.14-.39Zm0,9.62c1.06,0,1.86-.36,2.38-1.07.52-.71.79-1.71.79-2.98s-.26-2.28-.79-3c-.53-.72-1.32-1.07-2.38-1.07-.54,0-1.01.09-1.41.28-.4.18-.73.45-1,.8-.27.35-.46.77-.6,1.28-.13.51-.2,1.08-.2,1.72,0,1.28.26,2.27.79,2.98.53.71,1.33,1.07,2.41,1.07Z" style="fill: #1a1a1a; stroke-width: 0px;"/>
        <path d="m538.23,44.02v10.78h-1.13c-.27,0-.44-.13-.51-.39l-.15-1.16c-.47.52-.99.93-1.57,1.25s-1.25.47-2,.47c-.59,0-1.11-.1-1.56-.29-.45-.19-.83-.47-1.13-.82-.31-.35-.53-.78-.69-1.29-.15-.5-.23-1.06-.23-1.67v-6.87h1.89v6.87c0,.82.19,1.45.56,1.89.37.45.94.67,1.71.67.56,0,1.08-.13,1.57-.4.49-.27.93-.63,1.35-1.1v-7.94h1.89Z" style="fill: #1a1a1a; stroke-width: 0px;"/>
        <path d="m544.54,54.96c-.85,0-1.5-.24-1.96-.71-.46-.48-.69-1.16-.69-2.05v-6.6h-1.3c-.11,0-.21-.03-.29-.1s-.12-.17-.12-.31v-.75l1.77-.22.44-3.33c.02-.11.07-.19.14-.26s.17-.1.29-.1h.96v3.71h3.12v1.37h-3.12v6.47c0,.45.11.79.33,1.01.22.22.5.33.85.33.2,0,.37-.03.52-.08s.27-.11.38-.18.2-.12.27-.18c.07-.05.14-.08.2-.08.1,0,.19.06.27.18l.55.9c-.33.31-.72.54-1.18.72s-.94.26-1.43.26Z" style="fill: #1a1a1a; stroke-width: 0px;"/>
        <path d="m550.76,45.45c.46-.49.97-.88,1.53-1.17.56-.29,1.21-.44,1.94-.44.59,0,1.11.1,1.56.29.45.19.83.47,1.13.83.3.36.53.79.69,1.29s.23,1.06.23,1.67v6.86h-1.9v-6.86c0-.82-.19-1.45-.56-1.9-.37-.45-.94-.68-1.7-.68-.56,0-1.08.13-1.57.4-.49.27-.93.63-1.34,1.1v7.94h-1.9v-15.67h1.9v6.33Z" style="fill: #1a1a1a; stroke-width: 0px;"/>
        <path d="m574.42,41.93c-.06.11-.13.19-.21.24-.07.05-.17.08-.27.08-.12,0-.26-.06-.42-.18-.16-.12-.37-.25-.61-.4-.24-.15-.54-.28-.88-.4s-.76-.18-1.25-.18c-.46,0-.87.06-1.22.19-.35.12-.65.29-.88.5-.24.21-.42.46-.54.75-.12.29-.18.6-.18.93,0,.43.1.78.31,1.06s.49.52.83.72c.34.2.73.37,1.17.52s.88.3,1.34.45c.46.16.9.33,1.34.53.44.2.83.44,1.17.74s.62.66.83,1.1c.21.43.31.96.31,1.6,0,.67-.11,1.29-.34,1.88-.23.58-.56,1.09-.99,1.53-.44.43-.97.77-1.61,1.02s-1.36.37-2.16.37c-.99,0-1.89-.18-2.7-.54-.81-.36-1.5-.84-2.07-1.45l.6-.98c.06-.08.13-.14.21-.2.08-.05.17-.08.27-.08.09,0,.2.04.31.11.12.07.25.17.4.28.15.11.32.24.51.37s.41.26.65.37c.24.11.52.21.83.28.31.07.66.11,1.05.11.49,0,.93-.07,1.31-.2.38-.13.71-.32.97-.57.27-.24.47-.54.61-.88.14-.34.21-.72.21-1.14,0-.46-.1-.84-.31-1.13-.21-.29-.48-.54-.82-.74-.34-.2-.73-.37-1.17-.51-.44-.14-.89-.28-1.34-.43-.45-.15-.9-.31-1.34-.5-.44-.19-.83-.44-1.17-.74-.34-.31-.62-.69-.82-1.14-.21-.46-.31-1.02-.31-1.7,0-.54.1-1.06.31-1.56.21-.5.51-.95.91-1.34.4-.39.89-.7,1.48-.94.59-.23,1.26-.35,2.02-.35.85,0,1.62.13,2.32.4.7.27,1.31.66,1.85,1.17l-.5.98Z" style="fill: #1a1a1a; stroke-width: 0px;"/>
        <path d="m586.36,44.02v10.78h-1.13c-.27,0-.44-.13-.51-.39l-.15-1.16c-.47.52-.99.93-1.57,1.25s-1.25.47-2,.47c-.59,0-1.11-.1-1.56-.29-.45-.19-.83-.47-1.13-.82-.31-.35-.53-.78-.69-1.29-.15-.5-.23-1.06-.23-1.67v-6.87h1.89v6.87c0,.82.19,1.45.56,1.89.37.45.94.67,1.71.67.56,0,1.08-.13,1.57-.4.49-.27.93-.63,1.35-1.1v-7.94h1.89Z" style="fill: #1a1a1a; stroke-width: 0px;"/>
        <path d="m598.28,39.12v15.67h-1.13c-.27,0-.44-.13-.51-.39l-.17-1.31c-.46.55-.99,1-1.57,1.34-.59.34-1.27.51-2.04.51-.62,0-1.18-.12-1.68-.36-.5-.24-.93-.59-1.29-1.05-.36-.46-.63-1.04-.82-1.72-.19-.69-.29-1.48-.29-2.37,0-.79.11-1.53.32-2.22.21-.68.52-1.28.91-1.78.4-.5.88-.9,1.46-1.19s1.23-.43,1.95-.43c.66,0,1.22.11,1.7.33.47.22.89.53,1.26.93v-5.97h1.89Zm-1.89,7.46c-.35-.48-.74-.81-1.15-.99-.41-.19-.87-.28-1.38-.28-1,0-1.77.36-2.31,1.07-.54.72-.81,1.74-.81,3.06,0,.7.06,1.3.18,1.8s.3.91.53,1.23c.23.32.52.56.86.71s.73.22,1.16.22c.62,0,1.17-.14,1.63-.43.46-.28.89-.68,1.28-1.2v-5.2Z" style="fill: #1a1a1a; stroke-width: 0px;"/>
        <path d="m601,45.54c.6-.57,1.24-1,1.92-1.29.69-.28,1.45-.43,2.29-.43.6,0,1.14.1,1.61.3.47.2.86.48,1.18.83.32.35.56.78.72,1.29.16.5.25,1.06.25,1.66v6.89h-.84c-.18,0-.33-.03-.42-.09-.1-.06-.18-.18-.23-.36l-.21-1.02c-.28.26-.56.49-.83.7s-.55.37-.85.51-.62.24-.95.32c-.34.07-.71.11-1.12.11s-.81-.06-1.18-.18c-.37-.12-.69-.29-.96-.53-.27-.23-.49-.53-.65-.89s-.24-.78-.24-1.27c0-.43.12-.83.35-1.23.23-.39.61-.74,1.14-1.05.52-.31,1.21-.56,2.05-.75.84-.2,1.88-.31,3.11-.33v-.84c0-.84-.18-1.47-.54-1.9-.36-.43-.89-.64-1.58-.64-.47,0-.86.06-1.17.18-.32.12-.59.25-.82.39-.23.15-.43.28-.6.39-.17.12-.33.18-.5.18-.13,0-.24-.03-.33-.1-.09-.07-.17-.15-.23-.25l-.34-.61Zm6.12,4.4c-.87.03-1.62.1-2.23.21s-1.11.25-1.5.43-.67.39-.84.63c-.17.24-.26.51-.26.81s.05.53.14.73c.09.21.22.37.38.51.16.13.35.23.56.29.22.06.45.09.7.09.33,0,.64-.03.91-.1.28-.07.54-.17.78-.29.24-.13.48-.28.7-.46s.44-.38.65-.61v-2.23Z" style="fill: #1a1a1a; stroke-width: 0px;"/>
        <path d="m613.64,45.58c.23-.26.48-.5.74-.71s.54-.4.83-.55.61-.27.94-.35c.33-.08.69-.12,1.07-.12.59,0,1.11.1,1.56.29.45.19.83.47,1.13.83.3.36.53.79.69,1.29s.23,1.06.23,1.67v6.86h-1.9v-6.86c0-.82-.19-1.45-.56-1.9-.37-.45-.94-.68-1.7-.68-.56,0-1.08.13-1.57.4-.49.27-.93.63-1.34,1.1v7.94h-1.9v-10.78h1.14c.27,0,.44.13.5.39l.15,1.17Z" style="fill: #1a1a1a; stroke-width: 0px;"/>
      </g>
    </g>
  </g>
</svg>