<svg xmlns="http://www.w3.org/2000/svg" width="350" height="148" viewBox="0 0 350 148"><rect width="350" height="148" fill="#f1f2f2"/><path d="M31.92,21.87V14.54h2.5a3.56,3.56,0,0,1,3.76,3.67,3.54,3.54,0,0,1-3.76,3.66Zm5.32-3.66a2.69,2.69,0,0,0-2.82-2.86H32.83v5.71h1.59A2.7,2.7,0,0,0,37.24,18.21Z" fill="#0072bc"/><path d="M39.26,19.21a2.63,2.63,0,1,1,5.26,0,2.63,2.63,0,1,1-5.26,0Zm4.39,0a1.78,1.78,0,1,0-3.52,0,1.78,1.78,0,1,0,3.52,0Z" fill="#0072bc"/><circle cx="17.55" cy="17.55" r="7.55" fill="#9dc5ff"/><circle cx="17.55" cy="17.55" r="4.8" fill="#0072bc"/><polyline points="14.8 17.55 16.63 19.38 20.29 15.72" fill="none" stroke="#fff" stroke-linecap="round" stroke-linejoin="round" stroke-width="0.75"/><path d="M201.92,21.87V14.54h2.5a3.56,3.56,0,0,1,3.76,3.67,3.54,3.54,0,0,1-3.76,3.66Zm5.32-3.66a2.69,2.69,0,0,0-2.82-2.86h-1.59v5.71h1.59A2.7,2.7,0,0,0,207.24,18.21Z" fill="#ef4a60"/><path d="M209.26,19.21a2.63,2.63,0,1,1,5.26,0,2.63,2.63,0,1,1-5.26,0Zm4.39,0a1.78,1.78,0,1,0-3.52,0,1.78,1.78,0,1,0,3.52,0Z" fill="#ef4a60"/><path d="M219.44,21.87V18.4c0-.95-.48-1.23-1.19-1.23a2.06,2.06,0,0,0-1.57.82v3.88h-.83V16.56h.83v.77a2.58,2.58,0,0,1,1.9-.9,1.5,1.5,0,0,1,1.68,1.71v3.73Z" fill="#ef4a60"/><path d="M222.07,16.93l-.42-.35a1.65,1.65,0,0,0,.71-1l-.15,0a.53.53,0,0,1-.53-.56.6.6,0,0,1,.58-.59c.38,0,.7.3.7.84A2.14,2.14,0,0,1,222.07,16.93Z" fill="#ef4a60"/><path d="M224.54,20.76V17.29h-.88v-.73h.88V15.11h.83v1.45h1.08v.73h-1.08v3.29c0,.4.18.68.53.68a.75.75,0,0,0,.56-.23l.24.63a1.32,1.32,0,0,1-1,.34A1.08,1.08,0,0,1,224.54,20.76Z" fill="#ef4a60"/><circle cx="187.55" cy="17.55" r="7.55" fill="#ffbcc1"/><circle cx="187.55" cy="17.55" r="4.8" fill="#ef4a60"/><line x1="189.55" y1="15.55" x2="185.55" y2="19.55" fill="none" stroke="#fff" stroke-linecap="round" stroke-linejoin="round" stroke-width="0.75"/><line x1="189.55" y1="19.55" x2="185.55" y2="15.55" fill="none" stroke="#fff" stroke-linecap="round" stroke-linejoin="round" stroke-width="0.75"/><path d="M62.45,64.45A15.11,15.11,0,1,1,47.34,79.56,15.11,15.11,0,0,1,62.45,64.45h0" fill="#0072bc"/><path d="M111.29,58.2A21.37,21.37,0,1,1,89.92,79.56,21.36,21.36,0,0,1,111.29,58.2h0" fill="#0072bc"/><path d="M64,83l-1.1-1.63L61.8,83H60.39l1.72-2.48-1.62-2.35h1.42l1,1.48,1-1.48h1.42l-1.61,2.35L65.43,83Z" fill="#fff"/><path d="M105.86,83V81.83c2.73-2,3.53-2.7,3.53-3.52,0-.59-.53-.87-1.08-.87a2.38,2.38,0,0,0-1.79.77l-.81-.94a3.4,3.4,0,0,1,2.57-1.09c1.43,0,2.55.8,2.55,2.13,0,1.14-.94,2.13-2.67,3.39h2.72V83Z" fill="#fff"/><path d="M115,83l-1.1-1.63L112.8,83h-1.41l1.72-2.48-1.62-2.35h1.42l1,1.48,1-1.48h1.42l-1.61,2.35L116.43,83Z" fill="#fff"/><path d="M224.78,64.45a15.11,15.11,0,1,1-15.11,15.11,15.12,15.12,0,0,1,15.11-15.11h0" fill="#0072bc"/><path d="M279.65,48.88A30.69,30.69,0,1,1,249,79.56a30.69,30.69,0,0,1,30.69-30.68h0" fill="#0072bc"/><line x1="224.62" y1="79.04" x2="239.96" y2="79.04" fill="none" stroke="#fff" stroke-miterlimit="10" stroke-width="0.75"/><line x1="279.41" y1="79.58" x2="310.1" y2="79.58" fill="none" stroke="#fff" stroke-miterlimit="10" stroke-width="0.75"/><path d="M231.21,77l-1-1.47-1,1.47H228l1.55-2.23L228,72.6h1.28l.9,1.33.89-1.33h1.28l-1.45,2.12L232.49,77Z" fill="#fff"/><path d="M289.37,76v-1c2.46-1.82,3.18-2.43,3.18-3.17,0-.53-.48-.78-1-.78a2.13,2.13,0,0,0-1.61.69l-.73-.84a3,3,0,0,1,2.31-1c1.29,0,2.3.72,2.3,1.91,0,1-.85,1.92-2.41,3.06h2.45V76Z" fill="#fff"/><path d="M297.61,76l-1-1.47-1,1.47h-1.27l1.55-2.23-1.46-2.12h1.28l.9,1.33.89-1.33h1.28l-1.45,2.12L298.89,76Z" fill="#fff"/></svg>