<svg xmlns="http://www.w3.org/2000/svg" width="10cm" height="10cm" viewBox="0 0 283.46 283.46"><rect x="0.5" y="0.5" width="282.47" height="282.47" fill="#fff"/><rect width="283.46" height="283.46" fill="#fff"/><path d="M283.46,283.46H0V0H283.46ZM1,282.47H282.47V1H1Z" fill="#00b398"/><rect x="28.35" y="28.35" width="45.35" height="45.35" fill="#d4ece8" stroke="#fff" stroke-miterlimit="10"/><rect x="73.7" y="28.35" width="45.35" height="45.35" fill="#d4ece8" stroke="#fff" stroke-miterlimit="10"/><rect x="119.06" y="28.35" width="45.35" height="45.35" fill="#82cdbf" stroke="#fff" stroke-miterlimit="10"/><rect x="164.41" y="28.35" width="45.35" height="45.35" fill="#82cdbf" stroke="#fff" stroke-miterlimit="10"/><rect x="209.76" y="28.35" width="45.35" height="45.35" fill="#d4ece8" stroke="#fff" stroke-miterlimit="10"/><rect x="28.35" y="73.7" width="45.35" height="45.35" fill="#d4ece8" stroke="#fff" stroke-miterlimit="10"/><rect x="73.7" y="73.7" width="45.35" height="45.35" fill="#82cdbf" stroke="#fff" stroke-miterlimit="10"/><rect x="119.06" y="73.7" width="45.35" height="45.35" fill="#5bc2ae" stroke="#fff" stroke-miterlimit="10"/><rect x="164.41" y="73.7" width="45.35" height="45.35" fill="#5bc2ae" stroke="#fff" stroke-miterlimit="10"/><rect x="209.76" y="73.7" width="45.35" height="45.35" fill="#d4ece8" stroke="#fff" stroke-miterlimit="10"/><rect x="28.35" y="119.06" width="45.35" height="45.35" fill="#82cdbf" stroke="#fff" stroke-miterlimit="10"/><rect x="73.7" y="119.06" width="45.35" height="45.35" fill="#5bc2ae" stroke="#fff" stroke-miterlimit="10"/><rect x="119.06" y="119.06" width="45.35" height="45.35" fill="#00b398" stroke="#fff" stroke-miterlimit="10"/><rect x="164.41" y="119.06" width="45.35" height="45.35" fill="#00b398" stroke="#fff" stroke-miterlimit="10"/><rect x="209.76" y="119.06" width="45.35" height="45.35" fill="#5bc2ae" stroke="#fff" stroke-miterlimit="10"/><rect x="28.35" y="164.41" width="45.35" height="45.35" fill="#d4ece8" stroke="#fff" stroke-miterlimit="10"/><rect x="73.7" y="164.41" width="45.35" height="45.35" fill="#82cdbf" stroke="#fff" stroke-miterlimit="10"/><rect x="119.06" y="164.41" width="45.35" height="45.35" fill="#5bc2ae" stroke="#fff" stroke-miterlimit="10"/><rect x="164.41" y="164.41" width="45.35" height="45.35" fill="#5bc2ae" stroke="#fff" stroke-miterlimit="10"/><rect x="209.76" y="164.41" width="45.35" height="45.35" fill="#82cdbf" stroke="#fff" stroke-miterlimit="10"/><rect x="28.35" y="209.76" width="45.35" height="45.35" fill="#d4ece8" stroke="#fff" stroke-miterlimit="10"/><rect x="73.7" y="209.76" width="45.35" height="45.35" fill="#d4ece8" stroke="#fff" stroke-miterlimit="10"/><rect x="119.06" y="209.76" width="45.35" height="45.35" fill="#82cdbf" stroke="#fff" stroke-miterlimit="10"/><rect x="164.41" y="209.76" width="45.35" height="45.35" fill="#82cdbf" stroke="#fff" stroke-miterlimit="10"/><rect x="209.76" y="209.76" width="45.35" height="45.35" fill="#d4ece8" stroke="#fff" stroke-miterlimit="10"/></svg>