<svg xmlns="http://www.w3.org/2000/svg" width="10cm" height="10cm" viewBox="0 0 283.46 283.46"><rect x="0.5" y="0.5" width="282.47" height="282.47" fill="#fff"/><rect width="283.46" height="283.46" fill="#fff"/><path d="M283.46,283.46H0V0H283.46ZM1,282.47H282.47V1H1Z" fill="#00b398"/><path d="M28.35,28.35V255.12H255.12" fill="none" stroke="#5bc2ae" stroke-linecap="round" stroke-miterlimit="10" stroke-width="3"/><circle cx="71.87" cy="203.17" r="6.15" fill="#5bc2ae"/><circle cx="78.02" cy="221.63" r="6.15" fill="#5bc2ae"/><circle cx="90.32" cy="185.68" r="6.15" fill="#5bc2ae"/><circle cx="90.32" cy="167.22" r="6.15" fill="#5bc2ae"/><circle cx="103.94" cy="173.37" r="6.15" fill="#5bc2ae"/><circle cx="97.79" cy="149.73" r="6.15" fill="#5bc2ae"/><circle cx="113.39" cy="167.22" r="6.15" fill="#5bc2ae"/><circle cx="115.99" cy="129.93" r="6.15" fill="#5bc2ae"/><circle cx="172.06" cy="108.84" r="6.15" fill="#5bc2ae"/><circle cx="153.6" cy="96.54" r="6.15" fill="#5bc2ae"/><circle cx="172.06" cy="79.33" r="6.15" fill="#5bc2ae"/><circle cx="147.34" cy="163.71" r="6.15" fill="#5bc2ae"/><circle cx="165.91" cy="154.98" r="6.15" fill="#5bc2ae"/><circle cx="159.75" cy="204.14" r="6.15" fill="#5bc2ae"/><circle cx="138.44" cy="141.73" r="6.15" fill="#5bc2ae"/><circle cx="141.3" cy="114.99" r="6.15" fill="#5bc2ae"/><circle cx="113.39" cy="79.33" r="6.15" fill="#5bc2ae"/><circle cx="172.06" cy="129.93" r="6.15" fill="#5bc2ae"/><circle cx="211.17" cy="141.73" r="6.15" fill="#5bc2ae"/><circle cx="103.94" cy="129.93" r="6.15" fill="#5bc2ae"/><circle cx="110.09" cy="141.73" r="6.15" fill="#5bc2ae"/><circle cx="118.45" cy="185.68" r="6.15" fill="#5bc2ae"/><circle cx="107.24" cy="197.98" r="6.15" fill="#5bc2ae"/><circle cx="128.77" cy="154.98" r="6.15" fill="#5bc2ae"/></svg>