<svg xmlns="http://www.w3.org/2000/svg" width="350" height="148" viewBox="0 0 350 148"><rect width="350" height="148" fill="#f1f2f2"/><path d="M31.92,21.87V14.54h2.5a3.56,3.56,0,0,1,3.76,3.67,3.54,3.54,0,0,1-3.76,3.66Zm5.32-3.66a2.69,2.69,0,0,0-2.82-2.86H32.83v5.71h1.59A2.7,2.7,0,0,0,37.24,18.21Z" fill="#0072bc"/><path d="M39.26,19.21a2.63,2.63,0,1,1,5.26,0,2.63,2.63,0,1,1-5.26,0Zm4.39,0a1.78,1.78,0,1,0-3.52,0,1.78,1.78,0,1,0,3.52,0Z" fill="#0072bc"/><circle cx="17.55" cy="17.55" r="7.55" fill="#9dc5ff"/><circle cx="17.55" cy="17.55" r="4.8" fill="#0072bc"/><polyline points="14.8 17.55 16.63 19.38 20.29 15.72" fill="none" stroke="#fff" stroke-linecap="round" stroke-linejoin="round" stroke-width="0.75"/><path d="M201.92,21.87V14.54h2.5a3.56,3.56,0,0,1,3.76,3.67,3.54,3.54,0,0,1-3.76,3.66Zm5.32-3.66a2.69,2.69,0,0,0-2.82-2.86h-1.59v5.71h1.59A2.7,2.7,0,0,0,207.24,18.21Z" fill="#ef4a60"/><path d="M209.26,19.21a2.63,2.63,0,1,1,5.26,0,2.63,2.63,0,1,1-5.26,0Zm4.39,0a1.78,1.78,0,1,0-3.52,0,1.78,1.78,0,1,0,3.52,0Z" fill="#ef4a60"/><path d="M219.44,21.87V18.4c0-.95-.48-1.23-1.19-1.23a2.06,2.06,0,0,0-1.57.82v3.88h-.83V16.56h.83v.77a2.58,2.58,0,0,1,1.9-.9,1.5,1.5,0,0,1,1.68,1.71v3.73Z" fill="#ef4a60"/><path d="M222.07,16.93l-.42-.35a1.65,1.65,0,0,0,.71-1l-.15,0a.53.53,0,0,1-.53-.56.6.6,0,0,1,.58-.59c.38,0,.7.3.7.84A2.14,2.14,0,0,1,222.07,16.93Z" fill="#ef4a60"/><path d="M224.54,20.76V17.29h-.88v-.73h.88V15.11h.83v1.45h1.08v.73h-1.08v3.29c0,.4.18.68.53.68a.75.75,0,0,0,.56-.23l.24.63a1.32,1.32,0,0,1-1,.34A1.08,1.08,0,0,1,224.54,20.76Z" fill="#ef4a60"/><circle cx="187.55" cy="17.55" r="7.55" fill="#ffbcc1"/><circle cx="187.55" cy="17.55" r="4.8" fill="#ef4a60"/><line x1="189.55" y1="15.55" x2="185.55" y2="19.55" fill="none" stroke="#fff" stroke-linecap="round" stroke-linejoin="round" stroke-width="0.75"/><line x1="189.55" y1="19.55" x2="185.55" y2="15.55" fill="none" stroke="#fff" stroke-linecap="round" stroke-linejoin="round" stroke-width="0.75"/><path d="M45,36.82v90h90" fill="none" stroke="#0072bc" stroke-linecap="round" stroke-miterlimit="10" stroke-width="1.5"/><circle cx="69.27" cy="101.2" r="2.44" fill="#0072bc" opacity="0.6"/><circle cx="77.71" cy="98.53" r="2.44" fill="#0072bc" opacity="0.6"/><circle cx="72.6" cy="96.26" r="2.44" fill="#0072bc" opacity="0.6"/><circle cx="71.6" cy="89.94" r="2.44" fill="#0072bc" opacity="0.6"/><circle cx="75" cy="94.38" r="2.44" fill="#0072bc" opacity="0.6"/><circle cx="81.56" cy="85" r="2.44" fill="#0072bc" opacity="0.6"/><circle cx="84.75" cy="88.94" r="2.44" fill="#0072bc" opacity="0.6"/><circle cx="84.78" cy="77.14" r="2.44" fill="#0072bc" opacity="0.6"/><circle cx="102.04" cy="66.77" r="2.44" fill="#0072bc" opacity="0.6"/><circle cx="95.71" cy="65.88" r="2.44" fill="#0072bc" opacity="0.6"/><circle cx="102.04" cy="61.05" r="2.44" fill="#0072bc" opacity="0.6"/><circle cx="93.22" cy="84.54" r="2.44" fill="#0072bc" opacity="0.6"/><circle cx="95.22" cy="79.54" r="2.44" fill="#0072bc" opacity="0.6"/><circle cx="94.59" cy="78.08" r="2.44" fill="#0072bc" opacity="0.6"/><circle cx="93.15" cy="108.59" r="2.44" fill="#0072bc" opacity="0.6"/><circle cx="97.15" cy="71.59" r="2.44" fill="#0072bc" opacity="0.6"/><circle cx="85.15" cy="81.59" r="2.44" fill="#0072bc" opacity="0.6"/><circle cx="87.69" cy="81.82" r="2.44" fill="#0072bc" opacity="0.6"/><circle cx="89.83" cy="71.21" r="2.44" fill="#0072bc" opacity="0.6"/><circle cx="78.75" cy="59.05" r="2.44" fill="#0072bc" opacity="0.6"/><circle cx="102.04" cy="77.14" r="2.44" fill="#0072bc" opacity="0.6"/><circle cx="104.56" cy="72.82" r="2.44" fill="#0072bc" opacity="0.6"/><circle cx="97.56" cy="72.82" r="2.44" fill="#0072bc" opacity="0.6"/><circle cx="104.56" cy="66.82" r="2.44" fill="#0072bc" opacity="0.6"/><circle cx="108" cy="57.14" r="2.44" fill="#0072bc" opacity="0.6"/><circle cx="77.44" cy="81.82" r="2.44" fill="#0072bc" opacity="0.6"/><circle cx="90.76" cy="92.26" r="2.44" fill="#0072bc" opacity="0.6"/><circle cx="88.76" cy="94.26" r="2.44" fill="#0072bc" opacity="0.6"/><circle cx="80.76" cy="85.26" r="2.44" fill="#0072bc" opacity="0.6"/><circle cx="80.31" cy="92.15" r="2.44" fill="#0072bc" opacity="0.6"/><circle cx="78.31" cy="90.15" r="2.44" fill="#0072bc" opacity="0.6"/><circle cx="86.86" cy="86.08" r="2.44" fill="#0072bc" opacity="0.6"/><path d="M215,36.82v90h90" fill="none" stroke="#0072bc" stroke-linecap="round" stroke-miterlimit="10" stroke-width="1.5"/><circle cx="239.27" cy="101.2" r="2.44" fill="#0072bc"/><circle cx="247.71" cy="98.53" r="2.44" fill="#0072bc"/><circle cx="242.6" cy="96.26" r="2.44" fill="#0072bc"/><circle cx="241.6" cy="89.94" r="2.44" fill="#0072bc"/><circle cx="245" cy="94.38" r="2.44" fill="#0072bc"/><circle cx="251.56" cy="85" r="2.44" fill="#0072bc"/><circle cx="254.75" cy="88.94" r="2.44" fill="#0072bc"/><circle cx="254.78" cy="77.14" r="2.44" fill="#0072bc"/><circle cx="272.04" cy="66.77" r="2.44" fill="#0072bc"/><circle cx="265.71" cy="65.88" r="2.44" fill="#0072bc"/><circle cx="272.04" cy="61.05" r="2.44" fill="#0072bc"/><circle cx="263.22" cy="84.54" r="2.44" fill="#0072bc"/><circle cx="265.22" cy="79.54" r="2.44" fill="#0072bc"/><circle cx="264.59" cy="78.08" r="2.44" fill="#0072bc"/><circle cx="263.15" cy="108.59" r="2.44" fill="#0072bc"/><circle cx="267.15" cy="71.59" r="2.44" fill="#0072bc"/><circle cx="255.15" cy="81.59" r="2.44" fill="#0072bc"/><circle cx="257.69" cy="81.82" r="2.44" fill="#0072bc"/><circle cx="259.83" cy="71.21" r="2.44" fill="#0072bc"/><circle cx="248.75" cy="59.05" r="2.44" fill="#0072bc"/><circle cx="272.04" cy="77.14" r="2.44" fill="#0072bc"/><circle cx="274.56" cy="72.82" r="2.44" fill="#0072bc"/><circle cx="267.56" cy="72.82" r="2.44" fill="#0072bc"/><circle cx="274.56" cy="66.82" r="2.44" fill="#0072bc"/><circle cx="278" cy="57.14" r="2.44" fill="#0072bc"/><circle cx="247.44" cy="81.82" r="2.44" fill="#0072bc"/><circle cx="260.76" cy="92.26" r="2.44" fill="#0072bc"/><circle cx="258.76" cy="94.26" r="2.44" fill="#0072bc"/><circle cx="250.76" cy="85.26" r="2.44" fill="#0072bc"/><circle cx="250.31" cy="92.15" r="2.44" fill="#0072bc"/><circle cx="248.31" cy="90.15" r="2.44" fill="#0072bc"/><circle cx="256.86" cy="86.08" r="2.44" fill="#0072bc"/></svg>