<svg xmlns="http://www.w3.org/2000/svg" width="350" height="148" viewBox="0 0 350 148"><rect width="350" height="148" fill="#f1f2f2"/><path d="M31.92,21.87V14.54h2.5a3.56,3.56,0,0,1,3.76,3.67,3.54,3.54,0,0,1-3.76,3.66Zm5.32-3.66a2.69,2.69,0,0,0-2.82-2.86H32.83v5.71h1.59A2.7,2.7,0,0,0,37.24,18.21Z" fill="#0072bc"/><path d="M39.26,19.21a2.63,2.63,0,1,1,5.26,0,2.63,2.63,0,1,1-5.26,0Zm4.39,0a1.78,1.78,0,1,0-3.52,0,1.78,1.78,0,1,0,3.52,0Z" fill="#0072bc"/><circle cx="17.55" cy="17.55" r="7.55" fill="#9dc5ff"/><circle cx="17.55" cy="17.55" r="4.8" fill="#0072bc"/><polyline points="14.8 17.55 16.63 19.38 20.29 15.72" fill="none" stroke="#fff" stroke-linecap="round" stroke-linejoin="round" stroke-width="0.75"/><path d="M201.92,21.87V14.54h2.5a3.56,3.56,0,0,1,3.76,3.67,3.54,3.54,0,0,1-3.76,3.66Zm5.32-3.66a2.69,2.69,0,0,0-2.82-2.86h-1.59v5.71h1.59A2.7,2.7,0,0,0,207.24,18.21Z" fill="#ef4a60"/><path d="M209.26,19.21a2.63,2.63,0,1,1,5.26,0,2.63,2.63,0,1,1-5.26,0Zm4.39,0a1.78,1.78,0,1,0-3.52,0,1.78,1.78,0,1,0,3.52,0Z" fill="#ef4a60"/><path d="M219.44,21.87V18.4c0-.95-.48-1.23-1.19-1.23a2.06,2.06,0,0,0-1.57.82v3.88h-.83V16.56h.83v.77a2.58,2.58,0,0,1,1.9-.9,1.5,1.5,0,0,1,1.68,1.71v3.73Z" fill="#ef4a60"/><path d="M222.07,16.93l-.42-.35a1.65,1.65,0,0,0,.71-1l-.15,0a.53.53,0,0,1-.53-.56.6.6,0,0,1,.58-.59c.38,0,.7.3.7.84A2.14,2.14,0,0,1,222.07,16.93Z" fill="#ef4a60"/><path d="M224.54,20.76V17.29h-.88v-.73h.88V15.11h.83v1.45h1.08v.73h-1.08v3.29c0,.4.18.68.53.68a.75.75,0,0,0,.56-.23l.24.63a1.32,1.32,0,0,1-1,.34A1.08,1.08,0,0,1,224.54,20.76Z" fill="#ef4a60"/><circle cx="187.55" cy="17.55" r="7.55" fill="#ffbcc1"/><circle cx="187.55" cy="17.55" r="4.8" fill="#ef4a60"/><line x1="189.55" y1="15.55" x2="185.55" y2="19.55" fill="none" stroke="#fff" stroke-linecap="round" stroke-linejoin="round" stroke-width="0.75"/><line x1="189.55" y1="19.55" x2="185.55" y2="15.55" fill="none" stroke="#fff" stroke-linecap="round" stroke-linejoin="round" stroke-width="0.75"/><path d="M45.07,126c0-1,.44-2.06,1.53-2.06S48.13,125,48.13,126,47.69,128,46.6,128,45.07,126.93,45.07,126Zm2.55,0c0-.8-.26-1.62-1-1.62s-1,.82-1,1.62.26,1.62,1,1.62S47.62,126.76,47.62,126Z" fill="#5e5e5e"/><path d="M40.13,110.36V107l-.64.68-.3-.3,1-1h.44v4Z" fill="#5e5e5e"/><path d="M41.4,108.36c0-1,.43-2.06,1.53-2.06s1.53,1.08,1.53,2.06-.44,2.07-1.53,2.07S41.4,109.33,41.4,108.36Zm2.55,0c0-.8-.26-1.62-1-1.62s-1,.82-1,1.62.26,1.62,1,1.62S44,109.16,44,108.36Z" fill="#5e5e5e"/><path d="M45.07,108.36c0-1,.44-2.06,1.53-2.06s1.53,1.08,1.53,2.06-.44,2.07-1.53,2.07S45.07,109.33,45.07,108.36Zm2.55,0c0-.8-.26-1.62-1-1.62s-1,.82-1,1.62.26,1.62,1,1.62S47.62,109.16,47.62,108.36Z" fill="#5e5e5e"/><path d="M37.89,92.76v-.41c1.44-1.12,2.23-1.79,2.23-2.48a.75.75,0,0,0-.84-.73,1.34,1.34,0,0,0-1.09.5l-.3-.31a1.69,1.69,0,0,1,1.39-.63,1.21,1.21,0,0,1,1.34,1.17c0,.82-.83,1.56-1.94,2.44h2v.45Z" fill="#5e5e5e"/><path d="M41.4,90.76c0-1,.43-2.06,1.53-2.06s1.53,1.08,1.53,2.06-.44,2.07-1.53,2.07S41.4,91.73,41.4,90.76Zm2.55,0c0-.8-.26-1.62-1-1.62s-1,.82-1,1.62.26,1.62,1,1.62S44,91.56,44,90.76Z" fill="#5e5e5e"/><path d="M45.07,90.76c0-1,.44-2.06,1.53-2.06s1.53,1.08,1.53,2.06-.44,2.07-1.53,2.07S45.07,91.73,45.07,90.76Zm2.55,0c0-.8-.26-1.62-1-1.62s-1,.82-1,1.62.26,1.62,1,1.62S47.62,91.56,47.62,90.76Z" fill="#5e5e5e"/><path d="M37.93,74.57l.29-.31a1.4,1.4,0,0,0,1.12.52c.58,0,.93-.29.93-.74s-.41-.71-1-.71h-.42v-.45h.42c.5,0,.93-.19.93-.66s-.41-.68-.9-.68a1.35,1.35,0,0,0-1.05.49L38,71.71a1.73,1.73,0,0,1,1.37-.61c.77,0,1.35.39,1.35,1.06a1,1,0,0,1-.85.93,1,1,0,0,1,.92,1c0,.66-.54,1.15-1.42,1.15A1.67,1.67,0,0,1,37.93,74.57Z" fill="#5e5e5e"/><path d="M41.4,73.16c0-1,.43-2.06,1.53-2.06s1.53,1.08,1.53,2.06-.44,2.07-1.53,2.07S41.4,74.13,41.4,73.16Zm2.55,0c0-.8-.26-1.62-1-1.62s-1,.82-1,1.62.26,1.62,1,1.62S44,74,44,73.16Z" fill="#5e5e5e"/><path d="M45.07,73.16c0-1,.44-2.06,1.53-2.06s1.53,1.08,1.53,2.06-.44,2.07-1.53,2.07S45.07,74.13,45.07,73.16Zm2.55,0c0-.8-.26-1.62-1-1.62s-1,.82-1,1.62.26,1.62,1,1.62S47.62,74,47.62,73.16Z" fill="#5e5e5e"/><path d="M39.84,57.56v-1h-1.9v-.41l1.71-2.57h.69V56.1h.56v.44h-.56v1Zm0-3.54-1.4,2.08h1.4Z" fill="#5e5e5e"/><path d="M41.4,55.56c0-1,.43-2.06,1.53-2.06s1.53,1.08,1.53,2.06-.44,2.07-1.53,2.07S41.4,56.53,41.4,55.56Zm2.55,0c0-.8-.26-1.62-1-1.62s-1,.82-1,1.62.26,1.62,1,1.62S44,56.36,44,55.56Z" fill="#5e5e5e"/><path d="M45.07,55.56c0-1,.44-2.06,1.53-2.06s1.53,1.08,1.53,2.06-.44,2.07-1.53,2.07S45.07,56.53,45.07,55.56Zm2.55,0c0-.8-.26-1.62-1-1.62s-1,.82-1,1.62.26,1.62,1,1.62S47.62,56.36,47.62,55.56Z" fill="#5e5e5e"/><path d="M38,39.39l.31-.34a1.31,1.31,0,0,0,1.1.53.86.86,0,0,0,.92-.85.84.84,0,0,0-.91-.87,1.29,1.29,0,0,0-.93.38l-.36-.13V36h2.44v.44H38.58v1.39a1.35,1.35,0,0,1,.93-.36,1.23,1.23,0,0,1,1.28,1.28A1.32,1.32,0,0,1,39.36,40,1.66,1.66,0,0,1,38,39.39Z" fill="#5e5e5e"/><path d="M41.4,38c0-1,.43-2.06,1.53-2.06S44.46,37,44.46,38,44,40,42.93,40,41.4,38.93,41.4,38ZM44,38c0-.8-.26-1.62-1-1.62s-1,.82-1,1.62.26,1.62,1,1.62S44,38.76,44,38Z" fill="#5e5e5e"/><path d="M45.07,38c0-1,.44-2.06,1.53-2.06S48.13,37,48.13,38,47.69,40,46.6,40,45.07,38.93,45.07,38Zm2.55,0c0-.8-.26-1.62-1-1.62s-1,.82-1,1.62.26,1.62,1,1.62S47.62,38.76,47.62,38Z" fill="#5e5e5e"/><polyline points="52.44 34.56 52.44 124.56 142.44 124.56" fill="none" stroke="#0072bc" stroke-linecap="round" stroke-linejoin="round" stroke-width="1.5"/><polyline points="60.44 109.56 74.44 94.56 90.44 105.28 104.44 60.16 119.44 83 135.44 59" fill="none" stroke="#0072bc" stroke-linecap="round" stroke-linejoin="round" stroke-width="1.5"/><circle cx="59.99" cy="109.56" r="2.5" fill="#0072bc"/><circle cx="74.99" cy="94.56" r="2.5" fill="#0072bc"/><circle cx="89.99" cy="105.28" r="2.5" fill="#0072bc"/><circle cx="104.99" cy="60.16" r="2.5" fill="#0072bc"/><circle cx="119.99" cy="82.53" r="2.5" fill="#0072bc"/><circle cx="134.99" cy="59.42" r="2.5" fill="#0072bc"/><rect x="54.97" y="130.14" width="10.03" height="3.15" fill="#bbbdbf"/><rect x="69.97" y="130.14" width="10.03" height="3.15" fill="#bbbdbf"/><rect x="99.97" y="130.14" width="10.03" height="3.15" fill="#bbbdbf"/><rect x="84.97" y="130.14" width="10.03" height="3.15" fill="#bbbdbf"/><rect x="114.97" y="130.14" width="10.03" height="3.15" fill="#bbbdbf"/><rect x="129.97" y="130.14" width="10.03" height="3.15" fill="#bbbdbf"/><path d="M216.26,126c0-1,.43-2.06,1.53-2.06s1.53,1.08,1.53,2.06-.44,2.07-1.53,2.07S216.26,126.93,216.26,126Zm2.55,0c0-.8-.26-1.62-1-1.62s-1,.82-1,1.62.26,1.62,1,1.62S218.81,126.76,218.81,126Z" fill="#5e5e5e"/><path d="M209.82,110.36V107l-.64.68-.3-.3,1-1h.44v4Z" fill="#5e5e5e"/><path d="M211.1,109.34a1.18,1.18,0,0,1,1-1,1.05,1.05,0,0,1-.89-1c0-.72.71-1,1.37-1s1.37.31,1.37,1a1.05,1.05,0,0,1-.89,1,1.18,1.18,0,0,1,1,1c0,.68-.64,1.09-1.43,1.09S211.1,110,211.1,109.34Zm2.36,0c0-.52-.68-.74-.93-.77s-.93.25-.93.77.43.69.93.69S213.46,109.72,213.46,109.29Zm-.06-1.89c0-.41-.39-.66-.87-.66s-.86.25-.86.66.62.65.86.69S213.4,107.89,213.4,107.4Z" fill="#5e5e5e"/><path d="M214.58,108.36c0-1,.44-2.06,1.53-2.06s1.53,1.08,1.53,2.06-.44,2.07-1.53,2.07S214.58,109.33,214.58,108.36Zm2.55,0c0-.8-.25-1.62-1-1.62s-1,.82-1,1.62.26,1.62,1,1.62S217.13,109.16,217.13,108.36Z" fill="#5e5e5e"/><path d="M209.11,92.17l.29-.31a1.38,1.38,0,0,0,1.12.52c.58,0,.93-.29.93-.75s-.41-.7-1-.7H210v-.45h.42c.5,0,.93-.19.93-.66s-.41-.68-.9-.68a1.33,1.33,0,0,0-1.05.49l-.28-.32a1.73,1.73,0,0,1,1.37-.61c.77,0,1.35.39,1.35,1.06a1,1,0,0,1-.85.93,1,1,0,0,1,.92,1c0,.66-.54,1.15-1.42,1.15A1.67,1.67,0,0,1,209.11,92.17Z" fill="#5e5e5e"/><path d="M212.58,90.76c0-1.08.5-2.06,1.63-2.06a1.35,1.35,0,0,1,1.1.48l-.25.37a1,1,0,0,0-.85-.41c-.78,0-1.13.79-1.13,1.57v.16a1.45,1.45,0,0,1,1.14-.63,1.21,1.21,0,0,1,1.3,1.28,1.31,1.31,0,0,1-1.39,1.31C213,92.83,212.58,91.85,212.58,90.76Zm2.44.78a.83.83,0,0,0-.92-.87,1.23,1.23,0,0,0-1,.6,1.06,1.06,0,0,0,1,1.11A.86.86,0,0,0,215,91.54Z" fill="#5e5e5e"/><path d="M216.13,90.76c0-1,.43-2.06,1.53-2.06s1.52,1.08,1.52,2.06-.43,2.07-1.52,2.07S216.13,91.73,216.13,90.76Zm2.54,0c0-.8-.25-1.62-1-1.62s-1,.82-1,1.62.25,1.62,1,1.62S218.67,91.56,218.67,90.76Z" fill="#5e5e5e"/><path d="M210.83,75.16v-1h-1.9v-.41l1.71-2.57h.68v2.55h.57v.43h-.57v1Zm0-3.54-1.41,2.09h1.41Z" fill="#5e5e5e"/><path d="M214.18,75.16v-1h-1.91v-.41L214,71.16h.68v2.55h.57v.43h-.57v1Zm0-3.54-1.41,2.09h1.41Z" fill="#5e5e5e"/><path d="M215.74,73.16c0-1,.43-2.06,1.53-2.06s1.52,1.08,1.52,2.06-.43,2.07-1.52,2.07S215.74,74.13,215.74,73.16Zm2.54,0c0-.8-.25-1.62-1-1.62s-1,.82-1,1.62.25,1.62,1,1.62S218.28,74,218.28,73.16Z" fill="#5e5e5e"/><path d="M209.51,57.56,211.13,54H209v-.44h2.73v.34l-1.63,3.66Z" fill="#5e5e5e"/><path d="M212.2,57.56v-.41c1.44-1.12,2.23-1.79,2.23-2.48a.75.75,0,0,0-.84-.73,1.35,1.35,0,0,0-1.09.5l-.3-.31a1.69,1.69,0,0,1,1.39-.63,1.21,1.21,0,0,1,1.34,1.17c0,.82-.83,1.56-1.94,2.44h2v.45Z" fill="#5e5e5e"/><path d="M215.71,55.56c0-1,.43-2.06,1.53-2.06s1.53,1.08,1.53,2.06-.44,2.07-1.53,2.07S215.71,56.53,215.71,55.56Zm2.55,0c0-.8-.26-1.62-1-1.62s-1,.82-1,1.62.26,1.62,1,1.62S218.26,56.36,218.26,55.56Z" fill="#5e5e5e"/><path d="M207.08,39.54l.25-.37a1,1,0,0,0,.86.41c.81,0,1.13-.81,1.13-1.57a.92.92,0,0,0,0-.16,1.42,1.42,0,0,1-1.13.62,1.21,1.21,0,0,1-1.31-1.27,1.32,1.32,0,0,1,1.4-1.31c1.12,0,1.55,1,1.55,2.07S209.31,40,208.19,40A1.41,1.41,0,0,1,207.08,39.54Zm2.22-2.1c-.05-.49-.31-1.11-1-1.11a.88.88,0,0,0-.92.85.83.83,0,0,0,.93.86A1.22,1.22,0,0,0,209.3,37.44Z" fill="#5e5e5e"/><path d="M210.43,38c0-1,.43-2.06,1.53-2.06S213.48,37,213.48,38,213.05,40,212,40,210.43,38.93,210.43,38ZM213,38c0-.8-.26-1.62-1-1.62s-1,.82-1,1.62.25,1.62,1,1.62S213,38.76,213,38Z" fill="#5e5e5e"/><path d="M214.1,38c0-1,.43-2.06,1.53-2.06S217.16,37,217.16,38,216.72,40,215.63,40,214.1,38.93,214.1,38Zm2.55,0c0-.8-.26-1.62-1-1.62s-1,.82-1,1.62.26,1.62,1,1.62S216.65,38.76,216.65,38Z" fill="#5e5e5e"/><polyline points="223.43 34.56 223.43 124.56 313.43 124.56" fill="none" stroke="#0072bc" stroke-linecap="round" stroke-linejoin="round" stroke-width="1.5"/><polyline points="231.43 116 245.43 110 261.43 113 275.43 93 290.43 103 306.43 90" fill="none" stroke="#0072bc" stroke-linecap="round" stroke-linejoin="round" stroke-width="1.5"/><circle cx="230.94" cy="115.5" r="2.5" fill="#0072bc"/><circle cx="245.94" cy="109.5" r="2.5" fill="#0072bc"/><circle cx="260.94" cy="112.5" r="2.5" fill="#0072bc"/><circle cx="275.94" cy="92.5" r="2.5" fill="#0072bc"/><circle cx="290.94" cy="102.5" r="2.5" fill="#0072bc"/><circle cx="305.94" cy="90.5" r="2.5" fill="#0072bc"/><rect x="225.95" y="130.14" width="10.03" height="3.15" fill="#bbbdbf"/><rect x="240.95" y="130.14" width="10.03" height="3.15" fill="#bbbdbf"/><rect x="270.95" y="130.14" width="10.03" height="3.15" fill="#bbbdbf"/><rect x="255.95" y="130.14" width="10.03" height="3.15" fill="#bbbdbf"/><rect x="285.95" y="130.14" width="10.03" height="3.15" fill="#bbbdbf"/><rect x="300.95" y="130.14" width="10.03" height="3.15" fill="#bbbdbf"/></svg>