<svg xmlns="http://www.w3.org/2000/svg" width="350" height="148" viewBox="0 0 350 148"><rect width="350" height="148" fill="#f1f2f2"/><path d="M31.92,21.87V14.54h2.5a3.56,3.56,0,0,1,3.76,3.67,3.54,3.54,0,0,1-3.76,3.66Zm5.32-3.66a2.69,2.69,0,0,0-2.82-2.86H32.83v5.71h1.59A2.7,2.7,0,0,0,37.24,18.21Z" fill="#0072bc"/><path d="M39.26,19.21a2.63,2.63,0,1,1,5.26,0,2.63,2.63,0,1,1-5.26,0Zm4.39,0a1.78,1.78,0,1,0-3.52,0,1.78,1.78,0,1,0,3.52,0Z" fill="#0072bc"/><circle cx="17.55" cy="17.55" r="7.55" fill="#9dc5ff"/><circle cx="17.55" cy="17.55" r="4.8" fill="#0072bc"/><polyline points="14.8 17.55 16.63 19.38 20.29 15.72" fill="none" stroke="#fff" stroke-linecap="round" stroke-linejoin="round" stroke-width="0.75"/><path d="M201.92,21.87V14.54h2.5a3.56,3.56,0,0,1,3.76,3.67,3.54,3.54,0,0,1-3.76,3.66Zm5.32-3.66a2.69,2.69,0,0,0-2.82-2.86h-1.59v5.71h1.59A2.7,2.7,0,0,0,207.24,18.21Z" fill="#ef4a60"/><path d="M209.26,19.21a2.63,2.63,0,1,1,5.26,0,2.63,2.63,0,1,1-5.26,0Zm4.39,0a1.78,1.78,0,1,0-3.52,0,1.78,1.78,0,1,0,3.52,0Z" fill="#ef4a60"/><path d="M219.44,21.87V18.4c0-.95-.48-1.23-1.19-1.23a2.06,2.06,0,0,0-1.57.82v3.88h-.83V16.56h.83v.77a2.58,2.58,0,0,1,1.9-.9,1.5,1.5,0,0,1,1.68,1.71v3.73Z" fill="#ef4a60"/><path d="M222.07,16.93l-.42-.35a1.65,1.65,0,0,0,.71-1l-.15,0a.53.53,0,0,1-.53-.56.6.6,0,0,1,.58-.59c.38,0,.7.3.7.84A2.14,2.14,0,0,1,222.07,16.93Z" fill="#ef4a60"/><path d="M224.54,20.76V17.29h-.88v-.73h.88V15.11h.83v1.45h1.08v.73h-1.08v3.29c0,.4.18.68.53.68a.75.75,0,0,0,.56-.23l.24.63a1.32,1.32,0,0,1-1,.34A1.08,1.08,0,0,1,224.54,20.76Z" fill="#ef4a60"/><circle cx="187.55" cy="17.55" r="7.55" fill="#ffbcc1"/><circle cx="187.55" cy="17.55" r="4.8" fill="#ef4a60"/><line x1="189.55" y1="15.55" x2="185.55" y2="19.55" fill="none" stroke="#fff" stroke-linecap="round" stroke-linejoin="round" stroke-width="0.75"/><line x1="189.55" y1="19.55" x2="185.55" y2="15.55" fill="none" stroke="#fff" stroke-linecap="round" stroke-linejoin="round" stroke-width="0.75"/><path d="M45,36.82v90h90" fill="none" stroke="#0072bc" stroke-linecap="round" stroke-miterlimit="10" stroke-width="1.5"/><circle cx="62.27" cy="106.2" r="2.44" fill="#0072bc"/><circle cx="72.71" cy="106.53" r="2.44" fill="#0072bc"/><circle cx="69.6" cy="99.26" r="2.44" fill="#0072bc"/><circle cx="71.6" cy="89.94" r="2.44" fill="#0072bc"/><circle cx="75" cy="94.38" r="2.44" fill="#0072bc"/><circle cx="79.56" cy="87" r="2.44" fill="#0072bc"/><circle cx="80.75" cy="91.94" r="2.44" fill="#0072bc"/><circle cx="84.78" cy="77.14" r="2.44" fill="#0072bc"/><circle cx="102.04" cy="68.77" r="2.44" fill="#0072bc"/><circle cx="94.71" cy="63.88" r="2.44" fill="#0072bc"/><circle cx="102.04" cy="61.05" r="2.44" fill="#0072bc"/><circle cx="97.22" cy="84.54" r="2.44" fill="#0072bc"/><circle cx="94.59" cy="77.08" r="2.44" fill="#0072bc"/><circle cx="93.15" cy="108.59" r="2.44" fill="#0072bc"/><circle cx="88.69" cy="81.82" r="2.44" fill="#0072bc"/><circle cx="89.83" cy="71.21" r="2.44" fill="#0072bc"/><circle cx="78.75" cy="59.05" r="2.44" fill="#0072bc"/><circle cx="102.04" cy="77.14" r="2.44" fill="#0072bc"/><circle cx="112.56" cy="70.82" r="2.44" fill="#0072bc"/><circle cx="110" cy="61.14" r="2.44" fill="#0072bc"/><circle cx="77.44" cy="81.82" r="2.44" fill="#0072bc"/><circle cx="90.76" cy="92.26" r="2.44" fill="#0072bc"/><circle cx="84.31" cy="97.15" r="2.44" fill="#0072bc"/><circle cx="84.86" cy="87.08" r="2.44" fill="#0072bc"/><path d="M215,36.82v90h90" fill="none" stroke="#0072bc" stroke-linecap="round" stroke-miterlimit="10" stroke-width="1.5"/><circle cx="232.27" cy="106.2" r="2.44" fill="#0072bc"/><circle cx="234.71" cy="113.53" r="2.44" fill="#0072bc"/><circle cx="239.6" cy="99.26" r="2.44" fill="#0072bc"/><circle cx="239.6" cy="91.94" r="2.44" fill="#0072bc"/><circle cx="245" cy="94.38" r="2.44" fill="#0072bc"/><circle cx="242.56" cy="85" r="2.44" fill="#0072bc"/><circle cx="248.75" cy="91.94" r="2.44" fill="#0072bc"/><circle cx="249.78" cy="77.14" r="2.44" fill="#0072bc"/><circle cx="272.04" cy="68.77" r="2.44" fill="#0072bc"/><circle cx="264.71" cy="63.88" r="2.44" fill="#0072bc"/><circle cx="272.04" cy="57.05" r="2.44" fill="#0072bc"/><circle cx="262.22" cy="90.54" r="2.44" fill="#0072bc"/><circle cx="269.59" cy="87.08" r="2.44" fill="#0072bc"/><circle cx="261.15" cy="102.59" r="2.44" fill="#0072bc"/><circle cx="258.69" cy="81.82" r="2.44" fill="#0072bc"/><circle cx="259.83" cy="71.21" r="2.44" fill="#0072bc"/><circle cx="243.75" cy="63.05" r="2.44" fill="#0072bc"/><circle cx="272.04" cy="77.14" r="2.44" fill="#0072bc"/><circle cx="287.56" cy="81.82" r="2.44" fill="#0072bc"/><circle cx="245" cy="77.14" r="2.44" fill="#0072bc"/><circle cx="247.44" cy="81.82" r="2.44" fill="#0072bc"/><circle cx="250.76" cy="99.26" r="2.44" fill="#0072bc"/><circle cx="246.31" cy="104.15" r="2.44" fill="#0072bc"/><circle cx="254.86" cy="87.08" r="2.44" fill="#0072bc"/><circle cx="236.27" cy="110.2" r="2.44" fill="#0072bc"/><circle cx="238.71" cy="117.53" r="2.44" fill="#0072bc"/><circle cx="243.6" cy="103.26" r="2.44" fill="#0072bc"/><circle cx="243.6" cy="95.94" r="2.44" fill="#0072bc"/><circle cx="249" cy="98.38" r="2.44" fill="#0072bc"/><circle cx="246.56" cy="89" r="2.44" fill="#0072bc"/><circle cx="252.75" cy="95.94" r="2.44" fill="#0072bc"/><circle cx="253.78" cy="81.14" r="2.44" fill="#0072bc"/><circle cx="276.04" cy="72.77" r="2.44" fill="#0072bc"/><circle cx="268.71" cy="67.88" r="2.44" fill="#0072bc"/><circle cx="276.04" cy="61.05" r="2.44" fill="#0072bc"/><circle cx="266.22" cy="94.54" r="2.44" fill="#0072bc"/><circle cx="273.59" cy="91.08" r="2.44" fill="#0072bc"/><circle cx="261.15" cy="110.59" r="2.44" fill="#0072bc"/><circle cx="262.69" cy="85.82" r="2.44" fill="#0072bc"/><circle cx="263.83" cy="75.21" r="2.44" fill="#0072bc"/><circle cx="252.75" cy="61.05" r="2.44" fill="#0072bc"/><circle cx="276.04" cy="81.14" r="2.44" fill="#0072bc"/><circle cx="291.56" cy="85.82" r="2.44" fill="#0072bc"/><circle cx="249" cy="81.14" r="2.44" fill="#0072bc"/><circle cx="251.44" cy="85.82" r="2.44" fill="#0072bc"/><circle cx="254.76" cy="103.26" r="2.44" fill="#0072bc"/><circle cx="250.31" cy="108.15" r="2.44" fill="#0072bc"/><circle cx="258.86" cy="91.08" r="2.44" fill="#0072bc"/><circle cx="233.27" cy="101.2" r="2.44" fill="#0072bc"/><circle cx="235.71" cy="108.53" r="2.44" fill="#0072bc"/><circle cx="240.6" cy="94.26" r="2.44" fill="#0072bc"/><circle cx="240.6" cy="86.94" r="2.44" fill="#0072bc"/><circle cx="246" cy="89.38" r="2.44" fill="#0072bc"/><circle cx="238.56" cy="84" r="2.44" fill="#0072bc"/><circle cx="249.75" cy="86.94" r="2.44" fill="#0072bc"/><circle cx="250.78" cy="72.14" r="2.44" fill="#0072bc"/><circle cx="273.04" cy="63.77" r="2.44" fill="#0072bc"/><circle cx="265.71" cy="58.88" r="2.44" fill="#0072bc"/><circle cx="273.04" cy="52.05" r="2.44" fill="#0072bc"/><circle cx="263.22" cy="85.54" r="2.44" fill="#0072bc"/><circle cx="270.59" cy="82.08" r="2.44" fill="#0072bc"/><circle cx="266.15" cy="98.59" r="2.44" fill="#0072bc"/><circle cx="259.69" cy="76.82" r="2.44" fill="#0072bc"/><circle cx="260.83" cy="66.21" r="2.44" fill="#0072bc"/><circle cx="247.75" cy="55.05" r="2.44" fill="#0072bc"/><circle cx="273.04" cy="72.14" r="2.44" fill="#0072bc"/><circle cx="288.56" cy="76.82" r="2.44" fill="#0072bc"/><circle cx="246" cy="72.14" r="2.44" fill="#0072bc"/><circle cx="248.44" cy="76.82" r="2.44" fill="#0072bc"/><circle cx="251.76" cy="94.26" r="2.44" fill="#0072bc"/><circle cx="247.31" cy="99.15" r="2.44" fill="#0072bc"/><circle cx="255.86" cy="82.08" r="2.44" fill="#0072bc"/><circle cx="237.27" cy="101.2" r="2.44" fill="#0072bc"/><circle cx="239.71" cy="108.53" r="2.44" fill="#0072bc"/><circle cx="244.6" cy="94.26" r="2.44" fill="#0072bc"/><circle cx="244.6" cy="86.94" r="2.44" fill="#0072bc"/><circle cx="250" cy="89.38" r="2.44" fill="#0072bc"/><circle cx="247.56" cy="80" r="2.44" fill="#0072bc"/><circle cx="253.75" cy="86.94" r="2.44" fill="#0072bc"/><circle cx="254.78" cy="72.14" r="2.44" fill="#0072bc"/><circle cx="277.04" cy="63.77" r="2.44" fill="#0072bc"/><circle cx="269.71" cy="58.88" r="2.44" fill="#0072bc"/><circle cx="277.04" cy="52.05" r="2.44" fill="#0072bc"/><circle cx="267.22" cy="85.54" r="2.44" fill="#0072bc"/><circle cx="274.59" cy="82.08" r="2.44" fill="#0072bc"/><circle cx="272.15" cy="95.59" r="2.44" fill="#0072bc"/><circle cx="263.69" cy="76.82" r="2.44" fill="#0072bc"/><circle cx="264.83" cy="66.21" r="2.44" fill="#0072bc"/><circle cx="253.75" cy="52.05" r="2.44" fill="#0072bc"/><circle cx="277.04" cy="72.14" r="2.44" fill="#0072bc"/><circle cx="292.56" cy="76.82" r="2.44" fill="#0072bc"/><circle cx="250" cy="72.14" r="2.44" fill="#0072bc"/><circle cx="252.44" cy="76.82" r="2.44" fill="#0072bc"/><circle cx="255.76" cy="94.26" r="2.44" fill="#0072bc"/><circle cx="251.31" cy="99.15" r="2.44" fill="#0072bc"/><circle cx="259.86" cy="82.08" r="2.44" fill="#0072bc"/><circle cx="241.27" cy="105.2" r="2.44" fill="#0072bc"/><circle cx="243.71" cy="112.53" r="2.44" fill="#0072bc"/><circle cx="248.6" cy="98.26" r="2.44" fill="#0072bc"/><circle cx="248.6" cy="90.94" r="2.44" fill="#0072bc"/><circle cx="254" cy="93.38" r="2.44" fill="#0072bc"/><circle cx="279.56" cy="91" r="2.44" fill="#0072bc"/><circle cx="260.75" cy="87.94" r="2.44" fill="#0072bc"/><circle cx="258.78" cy="76.14" r="2.44" fill="#0072bc"/><circle cx="281.04" cy="67.77" r="2.44" fill="#0072bc"/><circle cx="273.71" cy="62.88" r="2.44" fill="#0072bc"/><circle cx="281.04" cy="56.05" r="2.44" fill="#0072bc"/><circle cx="274.22" cy="85.54" r="2.44" fill="#0072bc"/><circle cx="280.59" cy="81.08" r="2.44" fill="#0072bc"/><circle cx="280.15" cy="98.59" r="2.44" fill="#0072bc"/><circle cx="267.69" cy="80.82" r="2.44" fill="#0072bc"/><circle cx="275.83" cy="76.21" r="2.44" fill="#0072bc"/><circle cx="257.75" cy="56.05" r="2.44" fill="#0072bc"/><circle cx="281.04" cy="76.14" r="2.44" fill="#0072bc"/><circle cx="296.56" cy="80.82" r="2.44" fill="#0072bc"/><circle cx="254" cy="76.14" r="2.44" fill="#0072bc"/><circle cx="256.44" cy="80.82" r="2.44" fill="#0072bc"/><circle cx="259.76" cy="98.26" r="2.44" fill="#0072bc"/><circle cx="255.31" cy="103.15" r="2.44" fill="#0072bc"/><circle cx="265.86" cy="79.08" r="2.44" fill="#0072bc"/><circle cx="238.27" cy="96.2" r="2.44" fill="#0072bc"/><circle cx="240.71" cy="103.53" r="2.44" fill="#0072bc"/><circle cx="245.6" cy="89.26" r="2.44" fill="#0072bc"/><circle cx="240.6" cy="71.94" r="2.44" fill="#0072bc"/><circle cx="264" cy="81.38" r="2.44" fill="#0072bc"/><circle cx="242.56" cy="80" r="2.44" fill="#0072bc"/><circle cx="237.75" cy="78.94" r="2.44" fill="#0072bc"/><circle cx="255.78" cy="67.14" r="2.44" fill="#0072bc"/><circle cx="278.04" cy="58.77" r="2.44" fill="#0072bc"/><circle cx="270.71" cy="53.88" r="2.44" fill="#0072bc"/><circle cx="266.04" cy="50.05" r="2.44" fill="#0072bc"/><circle cx="271.22" cy="88.54" r="2.44" fill="#0072bc"/><circle cx="275.59" cy="77.08" r="2.44" fill="#0072bc"/><circle cx="283.15" cy="86.59" r="2.44" fill="#0072bc"/><circle cx="267.69" cy="71.82" r="2.44" fill="#0072bc"/><circle cx="265.83" cy="61.21" r="2.44" fill="#0072bc"/><circle cx="262.75" cy="54.05" r="2.44" fill="#0072bc"/><circle cx="278.04" cy="67.14" r="2.44" fill="#0072bc"/><circle cx="285.56" cy="63.82" r="2.44" fill="#0072bc"/><circle cx="251" cy="67.14" r="2.44" fill="#0072bc"/><circle cx="253.44" cy="71.82" r="2.44" fill="#0072bc"/><circle cx="264.76" cy="93.26" r="2.44" fill="#0072bc"/><circle cx="252.31" cy="94.15" r="2.44" fill="#0072bc"/><circle cx="264.86" cy="82.08" r="2.44" fill="#0072bc"/></svg>