<svg xmlns="http://www.w3.org/2000/svg" width="350" height="148" viewBox="0 0 350 148"><rect width="350" height="148" fill="#f1f2f2"/><path d="M31.92,21.87V14.54h2.5a3.56,3.56,0,0,1,3.76,3.67,3.54,3.54,0,0,1-3.76,3.66Zm5.32-3.66a2.69,2.69,0,0,0-2.82-2.86H32.83v5.71h1.59A2.7,2.7,0,0,0,37.24,18.21Z" fill="#0072bc"/><path d="M39.26,19.21a2.63,2.63,0,1,1,5.26,0,2.63,2.63,0,1,1-5.26,0Zm4.39,0a1.78,1.78,0,1,0-3.52,0,1.78,1.78,0,1,0,3.52,0Z" fill="#0072bc"/><circle cx="17.55" cy="17.55" r="7.55" fill="#9dc5ff"/><circle cx="17.55" cy="17.55" r="4.8" fill="#0072bc"/><polyline points="14.8 17.55 16.63 19.38 20.29 15.72" fill="none" stroke="#fff" stroke-linecap="round" stroke-linejoin="round" stroke-width="0.75"/><path d="M201.92,21.87V14.54h2.5a3.56,3.56,0,0,1,3.76,3.67,3.54,3.54,0,0,1-3.76,3.66Zm5.32-3.66a2.69,2.69,0,0,0-2.82-2.86h-1.59v5.71h1.59A2.7,2.7,0,0,0,207.24,18.21Z" fill="#ef4a60"/><path d="M209.26,19.21a2.63,2.63,0,1,1,5.26,0,2.63,2.63,0,1,1-5.26,0Zm4.39,0a1.78,1.78,0,1,0-3.52,0,1.78,1.78,0,1,0,3.52,0Z" fill="#ef4a60"/><path d="M219.44,21.87V18.4c0-.95-.48-1.23-1.19-1.23a2.06,2.06,0,0,0-1.57.82v3.88h-.83V16.56h.83v.77a2.58,2.58,0,0,1,1.9-.9,1.5,1.5,0,0,1,1.68,1.71v3.73Z" fill="#ef4a60"/><path d="M222.07,16.93l-.42-.35a1.65,1.65,0,0,0,.71-1l-.15,0a.53.53,0,0,1-.53-.56.6.6,0,0,1,.58-.59c.38,0,.7.3.7.84A2.14,2.14,0,0,1,222.07,16.93Z" fill="#ef4a60"/><path d="M224.54,20.76V17.29h-.88v-.73h.88V15.11h.83v1.45h1.08v.73h-1.08v3.29c0,.4.18.68.53.68a.75.75,0,0,0,.56-.23l.24.63a1.32,1.32,0,0,1-1,.34A1.08,1.08,0,0,1,224.54,20.76Z" fill="#ef4a60"/><circle cx="187.55" cy="17.55" r="7.55" fill="#ffbcc1"/><circle cx="187.55" cy="17.55" r="4.8" fill="#ef4a60"/><line x1="189.55" y1="15.55" x2="185.55" y2="19.55" fill="none" stroke="#fff" stroke-linecap="round" stroke-linejoin="round" stroke-width="0.75"/><line x1="189.55" y1="19.55" x2="185.55" y2="15.55" fill="none" stroke="#fff" stroke-linecap="round" stroke-linejoin="round" stroke-width="0.75"/><polyline points="45 34.56 45 124.56 135 124.56" fill="none" stroke="#0072bc" stroke-linecap="round" stroke-linejoin="round" stroke-width="1.5"/><polyline points="53 109.56 67 94.56 83 105.28 97 60.16 112 83 132.38 51.95" fill="none" stroke="#0072bc" stroke-linecap="round" stroke-linejoin="round" stroke-width="1.5"/><polygon points="134.06 57.22 133.02 57.39 132.16 52.29 127.13 53.53 126.88 52.51 133 51 134.06 57.22" fill="#0072bc"/><circle cx="52.54" cy="109.56" r="2.5" fill="#0072bc"/><circle cx="67.54" cy="94.56" r="2.5" fill="#0072bc"/><circle cx="82.54" cy="105.28" r="2.5" fill="#0072bc"/><circle cx="97.54" cy="60.16" r="2.5" fill="#0072bc"/><circle cx="112.54" cy="82.53" r="2.5" fill="#0072bc"/><circle cx="127.54" cy="59.42" r="2.5" fill="#0072bc"/><rect x="30.53" y="123.14" width="10.03" height="3.15" fill="#bbbdbf"/><rect x="47.53" y="130.14" width="10.03" height="3.15" fill="#bbbdbf"/><rect x="62.53" y="130.14" width="10.03" height="3.15" fill="#bbbdbf"/><rect x="92.53" y="130.14" width="10.03" height="3.15" fill="#bbbdbf"/><rect x="77.53" y="130.14" width="10.03" height="3.15" fill="#bbbdbf"/><rect x="107.53" y="130.14" width="10.03" height="3.15" fill="#bbbdbf"/><rect x="122.53" y="130.14" width="10.03" height="3.15" fill="#bbbdbf"/><rect x="30.53" y="107.14" width="10.03" height="3.15" fill="#bbbdbf"/><rect x="30.53" y="91.14" width="10.03" height="3.15" fill="#bbbdbf"/><rect x="30.53" y="75.14" width="10.03" height="3.15" fill="#bbbdbf"/><rect x="30.53" y="59.14" width="10.03" height="3.15" fill="#bbbdbf"/><rect x="30.53" y="43.14" width="10.03" height="3.15" fill="#bbbdbf"/><path d="M56.42,116v-.41c1.44-1.12,2.23-1.79,2.23-2.48a.75.75,0,0,0-.84-.73,1.35,1.35,0,0,0-1.09.5l-.3-.31a1.69,1.69,0,0,1,1.39-.63,1.21,1.21,0,0,1,1.34,1.17c0,.82-.83,1.56-1.94,2.44h2V116Z" fill="#5e5e5e"/><path d="M59.93,114c0-1,.43-2.06,1.53-2.06S63,113,63,114,62.55,116,61.46,116,59.93,114.93,59.93,114Zm2.55,0c0-.8-.26-1.62-1-1.62s-1,.82-1,1.62.26,1.62,1,1.62S62.48,114.76,62.48,114Z" fill="#5e5e5e"/><path d="M64.37,116v-3.35l-.65.68-.3-.3,1-1h.43v4Z" fill="#5e5e5e"/><path d="M65.73,115.39l.3-.34a1.33,1.33,0,0,0,1.11.53.86.86,0,0,0,.92-.85.85.85,0,0,0-.92-.87,1.29,1.29,0,0,0-.92.38l-.37-.13V112H68.3v.44h-2v1.39a1.39,1.39,0,0,1,.94-.36,1.22,1.22,0,0,1,1.27,1.28A1.31,1.31,0,0,1,67.14,116,1.66,1.66,0,0,1,65.73,115.39Z" fill="#5e5e5e"/><path d="M56.42,90v-.41c1.44-1.12,2.23-1.79,2.23-2.48a.75.75,0,0,0-.84-.73,1.35,1.35,0,0,0-1.09.5l-.3-.31a1.69,1.69,0,0,1,1.39-.63,1.21,1.21,0,0,1,1.34,1.17c0,.82-.83,1.56-1.94,2.44h2V90Z" fill="#5e5e5e"/><path d="M59.93,88c0-1,.43-2.06,1.53-2.06S63,87,63,88,62.55,90,61.46,90,59.93,88.93,59.93,88Zm2.55,0c0-.8-.26-1.62-1-1.62s-1,.82-1,1.62.26,1.62,1,1.62S62.48,88.76,62.48,88Z" fill="#5e5e5e"/><path d="M64.37,90V86.61l-.65.68-.3-.3,1-1h.43v4Z" fill="#5e5e5e"/><path d="M65.64,88c0-1.08.5-2.06,1.63-2.06a1.35,1.35,0,0,1,1.1.48l-.25.37a1,1,0,0,0-.85-.41c-.78,0-1.13.79-1.13,1.57v.16a1.44,1.44,0,0,1,1.13-.63,1.21,1.21,0,0,1,1.31,1.28A1.32,1.32,0,0,1,67.19,90C66.06,90,65.64,89.05,65.64,88Zm2.44.78a.82.82,0,0,0-.92-.86,1.22,1.22,0,0,0-1,.59,1.06,1.06,0,0,0,1,1.11A.86.86,0,0,0,68.08,88.74Z" fill="#5e5e5e"/><path d="M85.42,113v-.41c1.44-1.12,2.23-1.79,2.23-2.48a.75.75,0,0,0-.84-.73,1.35,1.35,0,0,0-1.09.5l-.3-.31a1.69,1.69,0,0,1,1.39-.63,1.21,1.21,0,0,1,1.34,1.17c0,.82-.83,1.56-1.94,2.44h2V113Z" fill="#5e5e5e"/><path d="M88.93,111c0-1,.43-2.06,1.53-2.06S92,110,92,111,91.55,113,90.46,113,88.93,111.93,88.93,111Zm2.55,0c0-.8-.26-1.62-1-1.62s-1,.82-1,1.62.26,1.62,1,1.62S91.48,111.76,91.48,111Z" fill="#5e5e5e"/><path d="M93.37,113v-3.35l-.65.68-.3-.3,1-1h.43v4Z" fill="#5e5e5e"/><path d="M95.06,113l1.61-3.56H94.52V109h2.73v.34L95.61,113Z" fill="#5e5e5e"/><path d="M85.42,56v-.41c1.44-1.12,2.23-1.79,2.23-2.48a.75.75,0,0,0-.84-.73,1.35,1.35,0,0,0-1.09.5l-.3-.31a1.69,1.69,0,0,1,1.39-.63,1.21,1.21,0,0,1,1.34,1.17c0,.82-.83,1.56-1.94,2.44h2V56Z" fill="#5e5e5e"/><path d="M88.93,54c0-1,.43-2.06,1.53-2.06S92,53,92,54,91.55,56,90.46,56,88.93,54.93,88.93,54Zm2.55,0c0-.8-.26-1.62-1-1.62s-1,.82-1,1.62.26,1.62,1,1.62S91.48,54.76,91.48,54Z" fill="#5e5e5e"/><path d="M93.37,56V52.61l-.65.68-.3-.3,1-1h.43v4Z" fill="#5e5e5e"/><path d="M94.64,54.94a1.2,1.2,0,0,1,1-1,1.05,1.05,0,0,1-.89-1c0-.72.7-1,1.37-1s1.37.31,1.37,1a1.05,1.05,0,0,1-.89,1,1.2,1.2,0,0,1,1,1c0,.68-.65,1.09-1.43,1.09S94.64,55.63,94.64,54.94Zm2.37,0c0-.52-.69-.74-.93-.77s-.93.25-.93.77.43.69.93.69S97,55.32,97,54.89ZM97,53c0-.41-.39-.66-.87-.66s-.87.25-.87.66.63.65.87.69S97,53.49,97,53Z" fill="#5e5e5e"/><path d="M112.42,92v-.41c1.44-1.12,2.23-1.79,2.23-2.48a.75.75,0,0,0-.84-.73,1.35,1.35,0,0,0-1.09.5l-.3-.31a1.69,1.69,0,0,1,1.39-.63,1.21,1.21,0,0,1,1.34,1.17c0,.82-.83,1.56-1.94,2.44h2V92Z" fill="#5e5e5e"/><path d="M115.93,90c0-1,.43-2.06,1.53-2.06S119,89,119,90,118.55,92,117.46,92,115.93,90.93,115.93,90Zm2.55,0c0-.8-.26-1.62-1-1.62s-1,.82-1,1.62.26,1.62,1,1.62S118.48,90.76,118.48,90Z" fill="#5e5e5e"/><path d="M120.37,92V88.61l-.65.68-.3-.3,1-1h.43v4Z" fill="#5e5e5e"/><path d="M121.84,91.54l.25-.37a1,1,0,0,0,.86.41c.8,0,1.12-.81,1.12-1.57v-.16a1.44,1.44,0,0,1-1.13.62,1.21,1.21,0,0,1-1.31-1.27,1.31,1.31,0,0,1,1.4-1.31c1.11,0,1.55,1,1.55,2.07S124.07,92,123,92A1.41,1.41,0,0,1,121.84,91.54Zm2.21-2.1a1.07,1.07,0,0,0-1-1.11.88.88,0,0,0-.92.85.82.82,0,0,0,.92.86A1.19,1.19,0,0,0,124.05,89.44Z" fill="#5e5e5e"/><path d="M127.42,68v-.41c1.44-1.12,2.23-1.79,2.23-2.48a.75.75,0,0,0-.84-.73,1.35,1.35,0,0,0-1.09.5l-.3-.31a1.69,1.69,0,0,1,1.39-.63,1.21,1.21,0,0,1,1.34,1.17c0,.82-.83,1.56-1.94,2.44h2V68Z" fill="#5e5e5e"/><path d="M130.93,66c0-1,.43-2.06,1.53-2.06S134,65,134,66,133.55,68,132.46,68,130.93,66.93,130.93,66Zm2.55,0c0-.8-.26-1.62-1-1.62s-1,.82-1,1.62.26,1.62,1,1.62S133.48,66.76,133.48,66Z" fill="#5e5e5e"/><path d="M134.62,68v-.41c1.44-1.12,2.23-1.79,2.23-2.48a.75.75,0,0,0-.84-.73,1.35,1.35,0,0,0-1.09.5l-.3-.31A1.69,1.69,0,0,1,136,63.9a1.21,1.21,0,0,1,1.34,1.17c0,.82-.83,1.56-1.94,2.44h2V68Z" fill="#5e5e5e"/><path d="M138.13,66c0-1,.43-2.06,1.53-2.06S141.19,65,141.19,66,140.75,68,139.66,68,138.13,66.93,138.13,66Zm2.55,0c0-.8-.26-1.62-1-1.62s-1,.82-1,1.62.26,1.62,1,1.62S140.68,66.76,140.68,66Z" fill="#5e5e5e"/><polyline points="220 34.56 220 124.56 310 124.56" fill="none" stroke="#0072bc" stroke-linecap="round" stroke-linejoin="round" stroke-width="1.5"/><polyline points="228 109.56 242 94.56 258 105.28 272 60.16 287 83 303 59" fill="none" stroke="#0072bc" stroke-linecap="round" stroke-linejoin="round" stroke-width="1.5"/><circle cx="227.54" cy="109.56" r="2.5" fill="#0072bc"/><circle cx="242.54" cy="94.56" r="2.5" fill="#0072bc"/><circle cx="257.54" cy="105.28" r="2.5" fill="#0072bc"/><circle cx="272.54" cy="60.16" r="2.5" fill="#0072bc"/><circle cx="287.54" cy="82.53" r="2.5" fill="#0072bc"/><circle cx="302.54" cy="59.42" r="2.5" fill="#0072bc"/><rect x="205.53" y="123.14" width="10.03" height="3.15" fill="#bbbdbf"/><rect x="222.53" y="130.14" width="10.03" height="3.15" fill="#bbbdbf"/><rect x="237.53" y="130.14" width="10.03" height="3.15" fill="#bbbdbf"/><rect x="267.53" y="130.14" width="10.03" height="3.15" fill="#bbbdbf"/><rect x="252.53" y="130.14" width="10.03" height="3.15" fill="#bbbdbf"/><rect x="282.53" y="130.14" width="10.03" height="3.15" fill="#bbbdbf"/><rect x="297.53" y="130.14" width="10.03" height="3.15" fill="#bbbdbf"/><rect x="205.53" y="107.14" width="10.03" height="3.15" fill="#bbbdbf"/><rect x="205.53" y="91.14" width="10.03" height="3.15" fill="#bbbdbf"/><rect x="205.53" y="75.14" width="10.03" height="3.15" fill="#bbbdbf"/><rect x="205.53" y="59.14" width="10.03" height="3.15" fill="#bbbdbf"/><rect x="205.53" y="43.14" width="10.03" height="3.15" fill="#bbbdbf"/><path d="M231.42,116v-.41c1.44-1.12,2.23-1.79,2.23-2.48a.75.75,0,0,0-.84-.73,1.35,1.35,0,0,0-1.09.5l-.3-.31a1.69,1.69,0,0,1,1.39-.63,1.21,1.21,0,0,1,1.34,1.17c0,.82-.83,1.56-1.94,2.44h2V116Z" fill="#5e5e5e"/><path d="M234.93,114c0-1,.43-2.06,1.53-2.06S238,113,238,114s-.44,2.07-1.53,2.07S234.93,114.93,234.93,114Zm2.55,0c0-.8-.26-1.62-1-1.62s-1,.82-1,1.62.26,1.62,1,1.62S237.48,114.76,237.48,114Z" fill="#5e5e5e"/><path d="M239.37,116v-3.35l-.65.68-.3-.3,1-1h.43v4Z" fill="#5e5e5e"/><path d="M240.73,115.39l.3-.34a1.33,1.33,0,0,0,1.11.53.86.86,0,0,0,.92-.85.85.85,0,0,0-.92-.87,1.29,1.29,0,0,0-.92.38l-.37-.13V112h2.45v.44h-2v1.39a1.39,1.39,0,0,1,.94-.36,1.22,1.22,0,0,1,1.27,1.28,1.31,1.31,0,0,1-1.42,1.32A1.66,1.66,0,0,1,240.73,115.39Z" fill="#5e5e5e"/><path d="M231.42,90v-.41c1.44-1.12,2.23-1.79,2.23-2.48a.75.75,0,0,0-.84-.73,1.35,1.35,0,0,0-1.09.5l-.3-.31a1.69,1.69,0,0,1,1.39-.63,1.21,1.21,0,0,1,1.34,1.17c0,.82-.83,1.56-1.94,2.44h2V90Z" fill="#5e5e5e"/><path d="M234.93,88c0-1,.43-2.06,1.53-2.06S238,87,238,88,237.55,90,236.46,90,234.93,88.93,234.93,88Zm2.55,0c0-.8-.26-1.62-1-1.62s-1,.82-1,1.62.26,1.62,1,1.62S237.48,88.76,237.48,88Z" fill="#5e5e5e"/><path d="M239.37,90V86.61l-.65.68-.3-.3,1-1h.43v4Z" fill="#5e5e5e"/><path d="M240.64,88c0-1.08.5-2.06,1.63-2.06a1.35,1.35,0,0,1,1.1.48l-.25.37a1,1,0,0,0-.85-.41c-.78,0-1.13.79-1.13,1.57v.16a1.44,1.44,0,0,1,1.13-.63,1.21,1.21,0,0,1,1.31,1.28A1.32,1.32,0,0,1,242.19,90C241.06,90,240.64,89.05,240.64,88Zm2.44.78a.82.82,0,0,0-.92-.86,1.22,1.22,0,0,0-1,.59,1.06,1.06,0,0,0,1,1.11A.86.86,0,0,0,243.08,88.74Z" fill="#5e5e5e"/><path d="M260.42,113v-.41c1.44-1.12,2.23-1.79,2.23-2.48a.75.75,0,0,0-.84-.73,1.35,1.35,0,0,0-1.09.5l-.3-.31a1.69,1.69,0,0,1,1.39-.63,1.21,1.21,0,0,1,1.34,1.17c0,.82-.83,1.56-1.94,2.44h2V113Z" fill="#5e5e5e"/><path d="M263.93,111c0-1,.43-2.06,1.53-2.06S267,110,267,111s-.44,2.07-1.53,2.07S263.93,111.93,263.93,111Zm2.55,0c0-.8-.26-1.62-1-1.62s-1,.82-1,1.62.26,1.62,1,1.62S266.48,111.76,266.48,111Z" fill="#5e5e5e"/><path d="M268.37,113v-3.35l-.65.68-.3-.3,1-1h.43v4Z" fill="#5e5e5e"/><path d="M270.06,113l1.61-3.56h-2.15V109h2.73v.34L270.61,113Z" fill="#5e5e5e"/><path d="M260.42,56v-.41c1.44-1.12,2.23-1.79,2.23-2.48a.75.75,0,0,0-.84-.73,1.35,1.35,0,0,0-1.09.5l-.3-.31a1.69,1.69,0,0,1,1.39-.63,1.21,1.21,0,0,1,1.34,1.17c0,.82-.83,1.56-1.94,2.44h2V56Z" fill="#5e5e5e"/><path d="M263.93,54c0-1,.43-2.06,1.53-2.06S267,53,267,54,266.55,56,265.46,56,263.93,54.93,263.93,54Zm2.55,0c0-.8-.26-1.62-1-1.62s-1,.82-1,1.62.26,1.62,1,1.62S266.48,54.76,266.48,54Z" fill="#5e5e5e"/><path d="M268.37,56V52.61l-.65.68-.3-.3,1-1h.43v4Z" fill="#5e5e5e"/><path d="M269.64,54.94a1.2,1.2,0,0,1,1-1,1.05,1.05,0,0,1-.89-1c0-.72.7-1,1.37-1s1.37.31,1.37,1a1.05,1.05,0,0,1-.89,1,1.2,1.2,0,0,1,.95,1c0,.68-.65,1.09-1.43,1.09S269.64,55.63,269.64,54.94Zm2.37,0c0-.52-.69-.74-.93-.77s-.93.25-.93.77.43.69.93.69S272,55.32,272,54.89ZM272,53c0-.41-.39-.66-.87-.66s-.87.25-.87.66.63.65.87.69S272,53.49,272,53Z" fill="#5e5e5e"/><path d="M287.42,92v-.41c1.44-1.12,2.23-1.79,2.23-2.48a.75.75,0,0,0-.84-.73,1.35,1.35,0,0,0-1.09.5l-.3-.31a1.69,1.69,0,0,1,1.39-.63,1.21,1.21,0,0,1,1.34,1.17c0,.82-.83,1.56-1.94,2.44h2V92Z" fill="#5e5e5e"/><path d="M290.93,90c0-1,.43-2.06,1.53-2.06S294,89,294,90,293.55,92,292.46,92,290.93,90.93,290.93,90Zm2.55,0c0-.8-.26-1.62-1-1.62s-1,.82-1,1.62.26,1.62,1,1.62S293.48,90.76,293.48,90Z" fill="#5e5e5e"/><path d="M295.37,92V88.61l-.65.68-.3-.3,1-1h.43v4Z" fill="#5e5e5e"/><path d="M296.84,91.54l.25-.37a1,1,0,0,0,.86.41c.8,0,1.12-.81,1.12-1.57v-.16a1.44,1.44,0,0,1-1.13.62,1.21,1.21,0,0,1-1.31-1.27,1.31,1.31,0,0,1,1.4-1.31c1.11,0,1.55,1,1.55,2.07S299.07,92,298,92A1.41,1.41,0,0,1,296.84,91.54Zm2.21-2.1a1.07,1.07,0,0,0-1-1.11.88.88,0,0,0-.92.85.82.82,0,0,0,.92.86A1.19,1.19,0,0,0,299.05,89.44Z" fill="#5e5e5e"/><path d="M302.42,68v-.41c1.44-1.12,2.23-1.79,2.23-2.48a.75.75,0,0,0-.84-.73,1.35,1.35,0,0,0-1.09.5l-.3-.31a1.69,1.69,0,0,1,1.39-.63,1.21,1.21,0,0,1,1.34,1.17c0,.82-.83,1.56-1.94,2.44h2V68Z" fill="#5e5e5e"/><path d="M305.93,66c0-1,.43-2.06,1.53-2.06S309,65,309,66,308.55,68,307.46,68,305.93,66.93,305.93,66Zm2.55,0c0-.8-.26-1.62-1-1.62s-1,.82-1,1.62.26,1.62,1,1.62S308.48,66.76,308.48,66Z" fill="#5e5e5e"/><path d="M309.62,68v-.41c1.44-1.12,2.23-1.79,2.23-2.48a.75.75,0,0,0-.84-.73,1.35,1.35,0,0,0-1.09.5l-.3-.31A1.69,1.69,0,0,1,311,63.9a1.21,1.21,0,0,1,1.34,1.17c0,.82-.83,1.56-1.94,2.44h2V68Z" fill="#5e5e5e"/><path d="M313.13,66c0-1,.43-2.06,1.53-2.06S316.19,65,316.19,66,315.75,68,314.66,68,313.13,66.93,313.13,66Zm2.55,0c0-.8-.26-1.62-1-1.62s-1,.82-1,1.62.26,1.62,1,1.62S315.68,66.76,315.68,66Z" fill="#5e5e5e"/></svg>