<svg xmlns="http://www.w3.org/2000/svg" width="10cm" height="10cm" viewBox="0 0 283.46 283.46"><rect x="0.5" y="0.5" width="282.47" height="282.47" fill="#fff"/><rect width="283.46" height="283.46" fill="#fff"/><path d="M283.46,283.46H0V0H283.46ZM1,282.47H282.47V1H1Z" transform="translate(0 0)" fill="#00b398"/><rect x="131.47" y="30.14" width="61.16" height="28.83" fill="#5bc2ae"/><rect x="68.99" y="96.49" width="61.16" height="28.83" fill="#5bc2ae"/><rect x="193.96" y="96.49" width="61.16" height="28.83" fill="#5bc2ae"/><rect x="28.35" y="160.48" width="61.16" height="28.83" fill="#5bc2ae"/><rect x="109.63" y="160.48" width="61.16" height="28.83" fill="#5bc2ae"/><rect x="28.35" y="160.48" width="61.16" height="28.83" fill="#5bc2ae"/><rect x="109.63" y="160.48" width="61.16" height="28.83" fill="#5bc2ae"/><rect x="193.96" y="160.48" width="61.16" height="28.83" fill="#5bc2ae"/><rect x="28.35" y="224.49" width="61.16" height="28.83" fill="#5bc2ae"/><rect x="109.63" y="224.49" width="61.16" height="28.83" fill="#5bc2ae"/><rect x="28.35" y="224.49" width="61.16" height="28.83" fill="#5bc2ae"/><rect x="109.63" y="224.49" width="61.16" height="28.83" fill="#5bc2ae"/><rect x="193.96" y="224.49" width="61.16" height="28.83" fill="#5bc2ae"/><polyline points="162.05 58.98 162.05 81.37 99.57 81.37 99.57 96.49" fill="none" stroke="#5bc2ae" stroke-linecap="round" stroke-linejoin="round" stroke-width="3"/><polyline points="162.05 58.98 162.05 81.37 224.53 81.37 224.53 96.49" fill="none" stroke="#5bc2ae" stroke-linecap="round" stroke-linejoin="round" stroke-width="3"/><line x1="99.57" y1="125.32" x2="99.57" y2="140.16" fill="none" stroke="#5bc2ae" stroke-linecap="round" stroke-linejoin="round" stroke-width="3"/><line x1="224.53" y1="125.32" x2="224.53" y2="160.48" fill="none" stroke="#5bc2ae" stroke-linecap="round" stroke-linejoin="round" stroke-width="3"/><line x1="224.53" y1="189.32" x2="224.53" y2="224.49" fill="none" stroke="#5bc2ae" stroke-linecap="round" stroke-linejoin="round" stroke-width="3"/><line x1="140.22" y1="189.32" x2="140.22" y2="224.49" fill="none" stroke="#5bc2ae" stroke-linecap="round" stroke-linejoin="round" stroke-width="3"/><line x1="58.92" y1="189.32" x2="58.92" y2="224.49" fill="none" stroke="#5bc2ae" stroke-linecap="round" stroke-linejoin="round" stroke-width="3"/><polyline points="58.92 160.48 58.92 140.16 99.57 140.16" fill="none" stroke="#5bc2ae" stroke-linecap="round" stroke-linejoin="round" stroke-width="3"/><polyline points="140.22 160.48 140.22 140.16 99.57 140.16" fill="none" stroke="#5bc2ae" stroke-linecap="round" stroke-linejoin="round" stroke-width="3"/></svg>