<svg xmlns="http://www.w3.org/2000/svg" width="10cm" height="10cm" viewBox="0 0 283.46 283.46"><rect x="0.5" y="0.5" width="282.47" height="282.47" fill="#fff"/><rect width="283.46" height="283.46" fill="#fff"/><path d="M283.46,283.46H0V0H283.46ZM1,282.47H282.47V1H1Z" fill="#1a385f"/><line x1="43.95" y1="28.35" x2="43.95" y2="255.12" fill="none" stroke="#1a385f" stroke-linecap="round" stroke-miterlimit="10" stroke-width="3"/><line x1="43.95" y1="44.94" x2="234.15" y2="44.94" fill="none" stroke="#1a385f" stroke-linecap="round" stroke-miterlimit="10" stroke-width="3"/><path d="M233.87,50.58a5.64,5.64,0,1,0-5.64-5.64A5.64,5.64,0,0,0,233.87,50.58Z" fill="#1a385f"/><line x1="43.95" y1="83.66" x2="218.43" y2="83.66" fill="none" stroke="#1a385f" stroke-linecap="round" stroke-miterlimit="10" stroke-width="3"/><path d="M218.15,89.3a5.64,5.64,0,1,0-5.64-5.64A5.65,5.65,0,0,0,218.15,89.3Z" fill="#1a385f"/><line x1="43.95" y1="122.37" x2="189.84" y2="122.37" fill="none" stroke="#1a385f" stroke-linecap="round" stroke-miterlimit="10" stroke-width="3"/><path d="M189.56,128a5.64,5.64,0,1,0-5.64-5.64A5.64,5.64,0,0,0,189.56,128Z" fill="#1a385f"/><line x1="43.95" y1="161.09" x2="171.91" y2="161.09" fill="none" stroke="#1a385f" stroke-linecap="round" stroke-miterlimit="10" stroke-width="3"/><path d="M171.62,166.73a5.64,5.64,0,1,0-5.64-5.64A5.64,5.64,0,0,0,171.62,166.73Z" fill="#1a385f"/><line x1="43.95" y1="199.81" x2="147.25" y2="199.81" fill="none" stroke="#1a385f" stroke-linecap="round" stroke-miterlimit="10" stroke-width="3"/><path d="M147,205.44a5.64,5.64,0,1,0-5.64-5.63A5.64,5.64,0,0,0,147,205.44Z" fill="#1a385f"/><line x1="43.95" y1="238.52" x2="111.55" y2="238.52" fill="none" stroke="#1a385f" stroke-linecap="round" stroke-miterlimit="10" stroke-width="3"/><path d="M111.27,244.16a5.64,5.64,0,1,0-5.64-5.64A5.65,5.65,0,0,0,111.27,244.16Z" fill="#1a385f"/></svg>