<svg xmlns="http://www.w3.org/2000/svg" width="350" height="148" viewBox="0 0 350 148"><rect width="350" height="148" fill="#f1f2f2"/><path d="M31.92,21.87V14.54h2.5a3.56,3.56,0,0,1,3.76,3.67,3.54,3.54,0,0,1-3.76,3.66Zm5.32-3.66a2.69,2.69,0,0,0-2.82-2.86H32.83v5.71h1.59A2.7,2.7,0,0,0,37.24,18.21Z" fill="#0072bc"/><path d="M39.26,19.21a2.63,2.63,0,1,1,5.26,0,2.63,2.63,0,1,1-5.26,0Zm4.39,0a1.78,1.78,0,1,0-3.52,0,1.78,1.78,0,1,0,3.52,0Z" fill="#0072bc"/><circle cx="17.55" cy="17.55" r="7.55" fill="#9dc5ff"/><circle cx="17.55" cy="17.55" r="4.8" fill="#0072bc"/><polyline points="14.8 17.55 16.63 19.38 20.29 15.72" fill="none" stroke="#fff" stroke-linecap="round" stroke-linejoin="round" stroke-width="0.75"/><path d="M201.92,21.87V14.54h2.5a3.56,3.56,0,0,1,3.76,3.67,3.54,3.54,0,0,1-3.76,3.66Zm5.32-3.66a2.69,2.69,0,0,0-2.82-2.86h-1.59v5.71h1.59A2.7,2.7,0,0,0,207.24,18.21Z" fill="#ef4a60"/><path d="M209.26,19.21a2.63,2.63,0,1,1,5.26,0,2.63,2.63,0,1,1-5.26,0Zm4.39,0a1.78,1.78,0,1,0-3.52,0,1.78,1.78,0,1,0,3.52,0Z" fill="#ef4a60"/><path d="M219.44,21.87V18.4c0-.95-.48-1.23-1.19-1.23a2.06,2.06,0,0,0-1.57.82v3.88h-.83V16.56h.83v.77a2.58,2.58,0,0,1,1.9-.9,1.5,1.5,0,0,1,1.68,1.71v3.73Z" fill="#ef4a60"/><path d="M222.07,16.93l-.42-.35a1.65,1.65,0,0,0,.71-1l-.15,0a.53.53,0,0,1-.53-.56.6.6,0,0,1,.58-.59c.38,0,.7.3.7.84A2.14,2.14,0,0,1,222.07,16.93Z" fill="#ef4a60"/><path d="M224.54,20.76V17.29h-.88v-.73h.88V15.11h.83v1.45h1.08v.73h-1.08v3.29c0,.4.18.68.53.68a.75.75,0,0,0,.56-.23l.24.63a1.32,1.32,0,0,1-1,.34A1.08,1.08,0,0,1,224.54,20.76Z" fill="#ef4a60"/><circle cx="187.55" cy="17.55" r="7.55" fill="#ffbcc1"/><circle cx="187.55" cy="17.55" r="4.8" fill="#ef4a60"/><line x1="189.55" y1="15.55" x2="185.55" y2="19.55" fill="none" stroke="#fff" stroke-linecap="round" stroke-linejoin="round" stroke-width="0.75"/><line x1="189.55" y1="19.55" x2="185.55" y2="15.55" fill="none" stroke="#fff" stroke-linecap="round" stroke-linejoin="round" stroke-width="0.75"/><line x1="48.76" y1="38" x2="48.76" y2="125" fill="none" stroke="#000" stroke-miterlimit="10" stroke-width="0.5"/><line x1="64.41" y1="38" x2="64.41" y2="125" fill="none" stroke="#d0d2d3" stroke-linecap="round" stroke-linejoin="round" stroke-width="0.25"/><line x1="80.13" y1="38" x2="80.13" y2="125" fill="none" stroke="#d0d2d3" stroke-linecap="round" stroke-linejoin="round" stroke-width="0.25"/><line x1="95.85" y1="38" x2="95.85" y2="125" fill="none" stroke="#d0d2d3" stroke-linecap="round" stroke-linejoin="round" stroke-width="0.25"/><line x1="111.56" y1="38" x2="111.56" y2="125" fill="none" stroke="#d0d2d3" stroke-linecap="round" stroke-linejoin="round" stroke-width="0.25"/><line x1="127.28" y1="38" x2="127.28" y2="125" fill="none" stroke="#d0d2d3" stroke-linecap="round" stroke-linejoin="round" stroke-width="0.25"/><line x1="143" y1="38" x2="143" y2="125" fill="none" stroke="#d0d2d3" stroke-linecap="round" stroke-linejoin="round" stroke-width="0.25"/><rect x="58.96" y="127.24" width="10.03" height="3.15" fill="#bbbdbf"/><rect x="42.96" y="127.24" width="10.03" height="3.15" fill="#bbbdbf"/><rect x="90.96" y="127.24" width="10.03" height="3.15" fill="#bbbdbf"/><rect x="74.96" y="127.24" width="10.03" height="3.15" fill="#bbbdbf"/><rect x="121.96" y="127.24" width="10.03" height="3.15" fill="#bbbdbf"/><rect x="106.96" y="127.24" width="10.03" height="3.15" fill="#bbbdbf"/><rect x="138.1" y="127.24" width="10.03" height="3.15" fill="#bbbdbf"/><line x1="49" y1="46.5" x2="138.86" y2="46.5" fill="none" stroke="#0072bc" stroke-miterlimit="10"/><path d="M138.74,48.76a2.26,2.26,0,1,0-2.25-2.26A2.26,2.26,0,0,0,138.74,48.76Z" fill="#0072bc"/><line x1="49" y1="64.5" x2="116.36" y2="64.5" fill="none" stroke="#0072bc" stroke-miterlimit="10"/><path d="M116.24,66.76A2.26,2.26,0,1,0,114,64.5,2.26,2.26,0,0,0,116.24,66.76Z" fill="#0072bc"/><line x1="49" y1="81.5" x2="109.36" y2="81.5" fill="none" stroke="#0072bc" stroke-miterlimit="10"/><path d="M109.24,83.76A2.26,2.26,0,1,0,107,81.5,2.26,2.26,0,0,0,109.24,83.76Z" fill="#0072bc"/><line x1="49" y1="98.5" x2="96.36" y2="98.5" fill="none" stroke="#0072bc" stroke-miterlimit="10"/><path d="M96.24,100.76A2.26,2.26,0,1,0,94,98.5,2.26,2.26,0,0,0,96.24,100.76Z" fill="#0072bc"/><line x1="49" y1="116.5" x2="84.36" y2="116.5" fill="none" stroke="#0072bc" stroke-miterlimit="10"/><circle cx="84.24" cy="116.5" r="2.26" transform="translate(-38.17 41.11) rotate(-22.5)" fill="#0072bc"/><path d="M20.59,46.13a2,2,0,0,1,2.06-2.07,1.77,1.77,0,0,1,1.52.79l-.42.23a1.35,1.35,0,0,0-1.1-.58,1.63,1.63,0,0,0,0,3.25,1.35,1.35,0,0,0,1.1-.58l.42.23a1.8,1.8,0,0,1-1.52.8A2,2,0,0,1,20.59,46.13Z" fill="#919191"/><path d="M24.62,46.67a1.44,1.44,0,1,1,2.87,0,1.44,1.44,0,1,1-2.87,0Zm2.4,0a1,1,0,1,0-1,1.12A1,1,0,0,0,27,46.67Z" fill="#919191"/><path d="M30.18,48.12v-.4a1.42,1.42,0,0,1-1,.48.82.82,0,0,1-.93-.93v-2h.45v1.9c0,.51.26.66.66.66a1.12,1.12,0,0,0,.85-.43V45.23h.45v2.89Z" fill="#919191"/><path d="M33.49,48.12V46.23c0-.52-.26-.67-.65-.67A1.1,1.1,0,0,0,32,46v2.11h-.45V45.23H32v.42a1.4,1.4,0,0,1,1-.49.81.81,0,0,1,.91.93v2Z" fill="#919191"/><path d="M34.93,47.52v-1.9h-.48v-.39h.48v-.79h.46v.79H36v.39h-.58v1.8c0,.22.09.37.28.37a.44.44,0,0,0,.31-.12l.13.34a.7.7,0,0,1-.53.19A.6.6,0,0,1,34.93,47.52Z" fill="#919191"/><path d="M36.61,48.12V45.23h.44v.46a1.26,1.26,0,0,1,1-.53v.46h-.17a1.09,1.09,0,0,0-.8.46v2Z" fill="#919191"/><path d="M38.49,48.85a.74.74,0,0,0,.25,0,.42.42,0,0,0,.43-.31l.19-.44-1.21-2.92h.49l1,2.37,1-2.37h.48L39.6,48.71a.86.86,0,0,1-.85.59,1.65,1.65,0,0,1-.32,0Z" fill="#919191"/><path d="M46,48.12l-.35-.89h-2l-.36.89h-.57l1.62-4h.61l1.61,4ZM44.6,44.63l-.84,2.16h1.69Z" fill="#919191"/><path d="M20.59,64.13a2,2,0,0,1,2.06-2.07,1.77,1.77,0,0,1,1.52.79l-.42.23a1.35,1.35,0,0,0-1.1-.58,1.63,1.63,0,0,0,0,3.25,1.35,1.35,0,0,0,1.1-.58l.42.23a1.8,1.8,0,0,1-1.52.8A2,2,0,0,1,20.59,64.13Z" fill="#919191"/><path d="M24.62,64.67a1.44,1.44,0,1,1,2.87,0,1.44,1.44,0,1,1-2.87,0Zm2.4,0a1,1,0,1,0-1,1.12A1,1,0,0,0,27,64.67Z" fill="#919191"/><path d="M30.18,66.12v-.4a1.42,1.42,0,0,1-1,.48.82.82,0,0,1-.93-.93v-2h.45v1.9c0,.51.26.66.66.66a1.12,1.12,0,0,0,.85-.43V63.23h.45v2.89Z" fill="#919191"/><path d="M33.49,66.12V64.23c0-.52-.26-.67-.65-.67A1.1,1.1,0,0,0,32,64v2.11h-.45V63.23H32v.42a1.4,1.4,0,0,1,1-.49.81.81,0,0,1,.91.93v2Z" fill="#919191"/><path d="M34.93,65.52v-1.9h-.48v-.39h.48v-.79h.46v.79H36v.39h-.58v1.8c0,.22.09.37.28.37a.44.44,0,0,0,.31-.12l.13.34a.7.7,0,0,1-.53.19A.6.6,0,0,1,34.93,65.52Z" fill="#919191"/><path d="M36.61,66.12V63.23h.44v.46a1.26,1.26,0,0,1,1-.53v.46h-.17a1.09,1.09,0,0,0-.8.46v2.05Z" fill="#919191"/><path d="M38.49,66.85a.74.74,0,0,0,.25.05.42.42,0,0,0,.43-.31l.19-.44-1.21-2.92h.49l1,2.37,1-2.37h.48L39.6,66.71a.86.86,0,0,1-.85.59,1.65,1.65,0,0,1-.32,0Z" fill="#919191"/><path d="M43.1,66.12v-4h1.78a1,1,0,0,1,1.12,1,.91.91,0,0,1-.7.92,1,1,0,0,1,.78,1,1,1,0,0,1-1.16,1.08Zm2.38-2.9a.63.63,0,0,0-.69-.65h-1.2v1.29h1.2A.62.62,0,0,0,45.48,63.22ZM45.56,65a.68.68,0,0,0-.74-.69H43.59v1.38h1.23A.66.66,0,0,0,45.56,65Z" fill="#919191"/><path d="M20.59,81.13a2,2,0,0,1,2.06-2.07,1.77,1.77,0,0,1,1.52.79l-.42.23a1.35,1.35,0,0,0-1.1-.58,1.63,1.63,0,0,0,0,3.25,1.35,1.35,0,0,0,1.1-.58l.42.23a1.8,1.8,0,0,1-1.52.8A2,2,0,0,1,20.59,81.13Z" fill="#919191"/><path d="M24.62,81.67a1.44,1.44,0,1,1,2.87,0,1.44,1.44,0,1,1-2.87,0Zm2.4,0a1,1,0,1,0-1,1.12A1,1,0,0,0,27,81.67Z" fill="#919191"/><path d="M30.18,83.12v-.4a1.42,1.42,0,0,1-1,.48.82.82,0,0,1-.93-.93v-2h.45v1.9c0,.51.26.66.66.66a1.12,1.12,0,0,0,.85-.43V80.23h.45v2.89Z" fill="#919191"/><path d="M33.49,83.12V81.23c0-.52-.26-.67-.65-.67A1.1,1.1,0,0,0,32,81v2.11h-.45V80.23H32v.42a1.4,1.4,0,0,1,1-.49.81.81,0,0,1,.91.93v2Z" fill="#919191"/><path d="M34.93,82.52v-1.9h-.48v-.39h.48v-.79h.46v.79H36v.39h-.58v1.8c0,.22.09.37.28.37a.44.44,0,0,0,.31-.12l.13.34a.7.7,0,0,1-.53.19A.6.6,0,0,1,34.93,82.52Z" fill="#919191"/><path d="M36.61,83.12V80.23h.44v.46a1.26,1.26,0,0,1,1-.53v.46h-.17a1.09,1.09,0,0,0-.8.46v2.05Z" fill="#919191"/><path d="M38.49,83.85a.74.74,0,0,0,.25.05.42.42,0,0,0,.43-.31l.19-.44-1.21-2.92h.49l1,2.37,1-2.37h.48L39.6,83.71a.86.86,0,0,1-.85.59,1.65,1.65,0,0,1-.32,0Z" fill="#919191"/><path d="M42.93,81.13A2,2,0,0,1,45,79.06a1.77,1.77,0,0,1,1.52.79l-.42.23A1.33,1.33,0,0,0,45,79.5a1.63,1.63,0,0,0,0,3.25,1.33,1.33,0,0,0,1.1-.58l.42.23a1.79,1.79,0,0,1-1.52.8A2,2,0,0,1,42.93,81.13Z" fill="#919191"/><path d="M20.59,98.13a2,2,0,0,1,2.06-2.07,1.77,1.77,0,0,1,1.52.79l-.42.23a1.35,1.35,0,0,0-1.1-.58,1.63,1.63,0,0,0,0,3.25,1.35,1.35,0,0,0,1.1-.58l.42.23a1.8,1.8,0,0,1-1.52.8A2,2,0,0,1,20.59,98.13Z" fill="#919191"/><path d="M24.62,98.67a1.44,1.44,0,1,1,2.87,0,1.44,1.44,0,1,1-2.87,0Zm2.4,0a1,1,0,1,0-1,1.12A1,1,0,0,0,27,98.67Z" fill="#919191"/><path d="M30.18,100.12v-.4a1.42,1.42,0,0,1-1,.48.82.82,0,0,1-.93-.93v-2h.45v1.9c0,.51.26.66.66.66a1.12,1.12,0,0,0,.85-.43V97.23h.45v2.89Z" fill="#919191"/><path d="M33.49,100.12V98.23c0-.52-.26-.67-.65-.67A1.1,1.1,0,0,0,32,98v2.11h-.45V97.23H32v.42a1.4,1.4,0,0,1,1-.49.81.81,0,0,1,.91.93v2Z" fill="#919191"/><path d="M34.93,99.52v-1.9h-.48v-.39h.48v-.79h.46v.79H36v.39h-.58v1.8c0,.22.09.37.28.37a.44.44,0,0,0,.31-.12l.13.34a.7.7,0,0,1-.53.19A.6.6,0,0,1,34.93,99.52Z" fill="#919191"/><path d="M36.61,100.12V97.23h.44v.46a1.26,1.26,0,0,1,1-.53v.46h-.17a1.09,1.09,0,0,0-.8.46v2.05Z" fill="#919191"/><path d="M38.49,100.85a.74.74,0,0,0,.25.05.42.42,0,0,0,.43-.31l.19-.44-1.21-2.92h.49l1,2.37,1-2.37h.48l-1.45,3.48a.86.86,0,0,1-.85.59,1.65,1.65,0,0,1-.32,0Z" fill="#919191"/><path d="M43.1,100.12v-4h1.36a2,2,0,1,1,0,4Zm2.9-2a1.46,1.46,0,0,0-1.54-1.56h-.87v3.11h.87A1.47,1.47,0,0,0,46,98.13Z" fill="#919191"/><path d="M20.59,115.13a2,2,0,0,1,2.06-2.07,1.77,1.77,0,0,1,1.52.79l-.42.23a1.35,1.35,0,0,0-1.1-.58,1.63,1.63,0,0,0,0,3.25,1.35,1.35,0,0,0,1.1-.58l.42.23a1.8,1.8,0,0,1-1.52.8A2,2,0,0,1,20.59,115.13Z" fill="#919191"/><path d="M24.62,115.67a1.44,1.44,0,1,1,2.87,0,1.44,1.44,0,1,1-2.87,0Zm2.4,0a1,1,0,1,0-1,1.12A1,1,0,0,0,27,115.67Z" fill="#919191"/><path d="M30.18,117.12v-.4a1.42,1.42,0,0,1-1,.48.82.82,0,0,1-.93-.93v-2h.45v1.9c0,.51.26.66.66.66a1.12,1.12,0,0,0,.85-.43v-2.13h.45v2.89Z" fill="#919191"/><path d="M33.49,117.12v-1.89c0-.52-.26-.67-.65-.67A1.1,1.1,0,0,0,32,115v2.11h-.45v-2.89H32v.42a1.4,1.4,0,0,1,1-.49.81.81,0,0,1,.91.93v2Z" fill="#919191"/><path d="M34.93,116.52v-1.9h-.48v-.39h.48v-.79h.46v.79H36v.39h-.58v1.8c0,.22.09.37.28.37a.44.44,0,0,0,.31-.12l.13.34a.7.7,0,0,1-.53.19A.6.6,0,0,1,34.93,116.52Z" fill="#919191"/><path d="M36.61,117.12v-2.89h.44v.46a1.26,1.26,0,0,1,1-.53v.46h-.17a1.09,1.09,0,0,0-.8.46v2.05Z" fill="#919191"/><path d="M38.49,117.85a.74.74,0,0,0,.25.05.42.42,0,0,0,.43-.31l.19-.44-1.21-2.92h.49l1,2.37,1-2.37h.48l-1.45,3.48a.86.86,0,0,1-.85.59,1.65,1.65,0,0,1-.32,0Z" fill="#919191"/><path d="M43.1,117.12v-4h2.62v.45H43.59v1.29h2.08v.44H43.59v1.38h2.13v.44Z" fill="#919191"/><line x1="214.8" y1="107.96" x2="316" y2="107.96" fill="none" stroke="#000" stroke-miterlimit="10" stroke-width="0.5"/><line x1="214.8" y1="96.94" x2="316" y2="96.94" fill="none" stroke="#d0d2d3" stroke-linecap="round" stroke-linejoin="round" stroke-width="0.25"/><line x1="214.8" y1="85.87" x2="316" y2="85.87" fill="none" stroke="#d0d2d3" stroke-linecap="round" stroke-linejoin="round" stroke-width="0.25"/><line x1="214.8" y1="74.8" x2="316" y2="74.8" fill="none" stroke="#d0d2d3" stroke-linecap="round" stroke-linejoin="round" stroke-width="0.25"/><line x1="214.8" y1="63.74" x2="316" y2="63.74" fill="none" stroke="#d0d2d3" stroke-linecap="round" stroke-linejoin="round" stroke-width="0.25"/><line x1="214.8" y1="52.67" x2="316" y2="52.67" fill="none" stroke="#d0d2d3" stroke-linecap="round" stroke-linejoin="round" stroke-width="0.25"/><line x1="214.8" y1="41.61" x2="316" y2="41.61" fill="none" stroke="#d0d2d3" stroke-linecap="round" stroke-linejoin="round" stroke-width="0.25"/><rect x="204" y="39.7" width="8.3" height="3.66" fill="#bbbdbf"/><rect x="204" y="50.7" width="8.3" height="3.66" fill="#bbbdbf"/><rect x="204" y="61.7" width="8.3" height="3.66" fill="#bbbdbf"/><rect x="204" y="72.7" width="8.3" height="3.66" fill="#bbbdbf"/><rect x="204" y="83.7" width="8.3" height="3.66" fill="#bbbdbf"/><rect x="204" y="95.7" width="8.3" height="3.66" fill="#bbbdbf"/><rect x="204" y="106.7" width="8.3" height="3.66" fill="#bbbdbf"/><line x1="224.69" y1="107.78" x2="224.69" y2="45.16" fill="none" stroke="#0072bc" stroke-miterlimit="10"/><path d="M226.94,45.27a2.26,2.26,0,1,0-2.25,2.26A2.25,2.25,0,0,0,226.94,45.27Z" fill="#0072bc"/><line x1="245.63" y1="107.78" x2="245.63" y2="61" fill="none" stroke="#0072bc" stroke-miterlimit="10"/><circle cx="245.63" cy="61.11" r="2.26" fill="#0072bc"/><line x1="265.4" y1="107.78" x2="265.4" y2="65.93" fill="none" stroke="#0072bc" stroke-miterlimit="10"/><circle cx="265.4" cy="66.04" r="2.26" fill="#0072bc"/><line x1="285.18" y1="107.78" x2="285.18" y2="75.08" fill="none" stroke="#0072bc" stroke-miterlimit="10"/><path d="M287.43,75.19a2.26,2.26,0,1,0-2.25,2.26A2.25,2.25,0,0,0,287.43,75.19Z" fill="#0072bc"/><line x1="306.11" y1="107.78" x2="306.11" y2="83.53" fill="none" stroke="#0072bc" stroke-miterlimit="10"/><circle cx="306.11" cy="83.64" r="2.26" fill="#0072bc"/><path d="M204.87,129.89a1.68,1.68,0,0,1,0-2.69,2.15,2.15,0,0,1,1.75-.48l-.14.43a1.55,1.55,0,0,0-1.27.34,1.27,1.27,0,0,0,.06,2.06,1.84,1.84,0,0,0,2.4.06,1.14,1.14,0,0,0,.4-1.1l.49-.13a1.56,1.56,0,0,1-.55,1.52A2.4,2.4,0,0,1,204.87,129.89Z" fill="#919191"/><path d="M208.34,127.62a1.19,1.19,0,0,1-.06-1.93,1.69,1.69,0,0,1,2.23.06,1.18,1.18,0,0,1,.07,1.92A1.7,1.7,0,0,1,208.34,127.62Zm1.81-1.57a1.2,1.2,0,0,0-1.57-.1.85.85,0,0,0,.12,1.36,1.22,1.22,0,0,0,1.58.1C210.75,127,210.6,126.44,210.15,126.05Z" fill="#919191"/><path d="M213.65,124.94l-.31-.27a1.18,1.18,0,0,1-.42,1,1,1,0,0,1-1.4,0L210,124.33l.34-.3,1.45,1.25a.67.67,0,0,0,1,0,.94.94,0,0,0,.31-.84l-1.61-1.39.34-.29,2.19,1.89Z" fill="#919191"/><path d="M216.16,122.78l-1.43-1.23a.69.69,0,0,0-1,0,1,1,0,0,0-.31.86l1.61,1.38-.34.29-2.2-1.89.34-.29.32.27a1.22,1.22,0,0,1,.41-1,1,1,0,0,1,1.41,0l1.54,1.32Z" fill="#919191"/><path d="M216.8,121.45l-1.44-1.24-.36.31-.3-.25.36-.32-.6-.51.35-.3.6.52.44-.39.3.26-.44.38,1.36,1.18a.36.36,0,0,0,.5,0,.38.38,0,0,0,.14-.28l.36.14a.67.67,0,0,1-.27.47A.7.7,0,0,1,216.8,121.45Z" fill="#919191"/><path d="M218.53,120.75l-2.2-1.89.34-.29.35.3a1,1,0,0,1,.33-1l.35.3-.14.1a.89.89,0,0,0-.25.82l1.56,1.34Z" fill="#919191"/><path d="M220.51,120a.61.61,0,0,0,.22-.13.35.35,0,0,0,.1-.48l-.19-.41-3.14-1.12.38-.32,2.52.93-1.06-2.18.36-.32,1.55,3.22a.73.73,0,0,1-.2.94,2.2,2.2,0,0,1-.28.18Z" fill="#919191"/><path d="M225.61,114.66l-.94-.36-1.51,1.3.41.82-.44.37-1.8-3.66.46-.4,4.25,1.56Zm-3.67-1.4,1,2,1.29-1.11Z" fill="#919191"/><path d="M227.43,129.83a1.67,1.67,0,0,1,0-2.69,2.1,2.1,0,0,1,1.75-.47l-.14.42a1.62,1.62,0,0,0-1.28.34,1.29,1.29,0,0,0,.07,2.07,1.85,1.85,0,0,0,2.4.05,1.14,1.14,0,0,0,.39-1.1l.5-.12a1.52,1.52,0,0,1-.56,1.51A2.38,2.38,0,0,1,227.43,129.83Z" fill="#919191"/><path d="M230.9,127.56a1.19,1.19,0,0,1-.07-1.92,1.69,1.69,0,0,1,2.24,0,1.19,1.19,0,0,1,.07,1.93A1.7,1.7,0,0,1,230.9,127.56Zm1.81-1.56a1.2,1.2,0,0,0-1.57-.1.84.84,0,0,0,.12,1.35,1.19,1.19,0,0,0,1.57.11A.85.85,0,0,0,232.71,126Z" fill="#919191"/><path d="M236.21,124.88l-.31-.26a1.19,1.19,0,0,1-.42,1,1,1,0,0,1-1.4,0l-1.55-1.33.34-.29,1.45,1.24a.66.66,0,0,0,1,0,.92.92,0,0,0,.32-.84L234,123l.34-.3,2.2,1.89Z" fill="#919191"/><path d="M238.72,122.72l-1.43-1.23a.68.68,0,0,0-1,0,.92.92,0,0,0-.31.85l1.61,1.38-.35.29L235,122.11l.34-.29.32.28a1.2,1.2,0,0,1,.41-1,1,1,0,0,1,1.41,0l1.54,1.33Z" fill="#919191"/><path d="M239.36,121.39l-1.44-1.24-.37.32-.3-.26.37-.31-.6-.52.34-.3.6.52.45-.38.3.25-.45.39,1.37,1.17a.38.38,0,0,0,.5.06.35.35,0,0,0,.13-.29l.36.14a.61.61,0,0,1-.26.47A.7.7,0,0,1,239.36,121.39Z" fill="#919191"/><path d="M241.08,120.69l-2.19-1.88.34-.3.35.3a1,1,0,0,1,.33-1l.35.3a.67.67,0,0,0-.14.11.87.87,0,0,0-.25.81l1.55,1.34Z" fill="#919191"/><path d="M243.07,119.93a.78.78,0,0,0,.22-.12.34.34,0,0,0,.09-.48l-.18-.41-3.14-1.12.37-.32,2.53.92-1.07-2.18.37-.32,1.54,3.22a.71.71,0,0,1-.2.94,1.41,1.41,0,0,1-.27.18Z" fill="#919191"/><path d="M246,116.46l-3-2.61,1.35-1.16a1.21,1.21,0,0,1,1.63-.06.75.75,0,0,1,.16,1.05,1.21,1.21,0,0,1,1.34.14.87.87,0,0,1-.06,1.45Zm-.4-3.45a.74.74,0,0,0-1,0l-.91.78,1,.84.9-.78A.52.52,0,0,0,245.61,113Zm1.41,1.11a.81.81,0,0,0-1.09,0l-.93.8,1.05.9.93-.8A.56.56,0,0,0,247,114.12Z" fill="#919191"/><path d="M247.23,129.85a1.67,1.67,0,0,1,0-2.69,2.1,2.1,0,0,1,1.75-.47l-.14.42a1.62,1.62,0,0,0-1.28.34,1.29,1.29,0,0,0,.07,2.07,1.85,1.85,0,0,0,2.4,0,1.14,1.14,0,0,0,.39-1.1l.49-.12a1.49,1.49,0,0,1-.55,1.51A2.38,2.38,0,0,1,247.23,129.85Z" fill="#919191"/><path d="M250.7,127.58a1.18,1.18,0,0,1-.07-1.92,1.69,1.69,0,0,1,2.24,0,1.19,1.19,0,0,1,.07,1.93A1.7,1.7,0,0,1,250.7,127.58Zm1.81-1.56a1.2,1.2,0,0,0-1.57-.1.84.84,0,0,0,.11,1.35,1.21,1.21,0,0,0,1.58.11A.85.85,0,0,0,252.51,126Z" fill="#919191"/><path d="M256,124.9l-.31-.26a1.19,1.19,0,0,1-.42,1,1,1,0,0,1-1.4,0l-1.55-1.33.34-.29,1.45,1.24a.66.66,0,0,0,1,0,.91.91,0,0,0,.32-.84L253.81,123l.34-.3,2.2,1.89Z" fill="#919191"/><path d="M258.52,122.75l-1.44-1.24a.67.67,0,0,0-1,0,.92.92,0,0,0-.31.85l1.6,1.38L257,124l-2.19-1.89.34-.29.32.28a1.17,1.17,0,0,1,.41-1,1,1,0,0,1,1.41,0l1.54,1.33Z" fill="#919191"/><path d="M259.15,121.41l-1.43-1.24-.37.32-.3-.26.37-.31-.6-.52.34-.3.6.52.45-.38.3.26-.45.38,1.37,1.17a.38.38,0,0,0,.5.06.35.35,0,0,0,.13-.29l.36.14a.63.63,0,0,1-.26.47A.71.71,0,0,1,259.15,121.41Z" fill="#919191"/><path d="M260.88,120.71l-2.19-1.88.34-.3.35.3a1,1,0,0,1,.33-1l.35.3a.67.67,0,0,0-.14.11.85.85,0,0,0-.25.81l1.55,1.34Z" fill="#919191"/><path d="M262.87,120a1.59,1.59,0,0,0,.22-.13.34.34,0,0,0,.09-.48l-.18-.41-3.14-1.12.37-.32,2.53.92-1.07-2.18.37-.32,1.54,3.22a.71.71,0,0,1-.2.94,1.41,1.41,0,0,1-.27.18Z" fill="#919191"/><path d="M264.17,115.29a1.68,1.68,0,0,1,0-2.69,2.12,2.12,0,0,1,1.75-.48l-.14.43a1.55,1.55,0,0,0-1.27.34,1.27,1.27,0,0,0,.06,2.06,1.83,1.83,0,0,0,2.4,0,1.15,1.15,0,0,0,.4-1.09l.49-.13a1.53,1.53,0,0,1-.55,1.51A2.4,2.4,0,0,1,264.17,115.29Z" fill="#919191"/><path d="M265.86,129.87a1.68,1.68,0,0,1,0-2.69,2.12,2.12,0,0,1,1.75-.47l-.13.42a1.6,1.6,0,0,0-1.28.34,1.28,1.28,0,0,0,.06,2.07,1.85,1.85,0,0,0,2.4.05,1.14,1.14,0,0,0,.4-1.1l.49-.12a1.51,1.51,0,0,1-.55,1.51A2.4,2.4,0,0,1,265.86,129.87Z" fill="#919191"/><path d="M269.33,127.6a1.18,1.18,0,0,1-.06-1.92,1.68,1.68,0,0,1,2.23,0,1.19,1.19,0,0,1,.07,1.93A1.7,1.7,0,0,1,269.33,127.6Zm1.82-1.56a1.22,1.22,0,0,0-1.58-.1.84.84,0,0,0,.12,1.35,1.21,1.21,0,0,0,1.58.11A.85.85,0,0,0,271.15,126Z" fill="#919191"/><path d="M274.64,124.92l-.31-.26a1.18,1.18,0,0,1-.41,1,1,1,0,0,1-1.4,0L271,124.31l.34-.29,1.44,1.24a.68.68,0,0,0,1,0,1,1,0,0,0,.31-.85L272.45,123l.34-.3,2.2,1.89Z" fill="#919191"/><path d="M277.16,122.77l-1.44-1.24a.68.68,0,0,0-1,0,1,1,0,0,0-.31.85l1.61,1.38-.34.29-2.2-1.88.34-.3.32.28a1.2,1.2,0,0,1,.41-1,1,1,0,0,1,1.41,0l1.54,1.33Z" fill="#919191"/><path d="M277.79,121.43l-1.44-1.23-.36.31-.3-.26.36-.31-.6-.52.35-.29.6.51.44-.38.3.26-.44.38,1.36,1.17a.38.38,0,0,0,.5.06.4.4,0,0,0,.14-.29l.36.14a.65.65,0,0,1-.27.47A.7.7,0,0,1,277.79,121.43Z" fill="#919191"/><path d="M279.52,120.74l-2.2-1.89.34-.3.35.31a1.06,1.06,0,0,1,.33-1l.35.3-.14.11a.91.91,0,0,0-.25.82l1.56,1.33Z" fill="#919191"/><path d="M281.5,120a1.16,1.16,0,0,0,.22-.13.35.35,0,0,0,.1-.48l-.19-.41-3.13-1.12.37-.32,2.53.92-1.07-2.18.37-.31,1.54,3.21a.73.73,0,0,1-.2.94,2.31,2.31,0,0,1-.28.19Z" fill="#919191"/><path d="M284.44,116.5l-3-2.6,1-.9a2.33,2.33,0,0,1,3.08,0,1.63,1.63,0,0,1,0,2.64Zm.69-3.19a1.76,1.76,0,0,0-2.35,0l-.66.57,2.36,2,.66-.57A1.23,1.23,0,0,0,285.13,113.31Z" fill="#919191"/><path d="M286.82,129.89a1.67,1.67,0,0,1,0-2.68,2.09,2.09,0,0,1,1.75-.48l-.13.42a1.66,1.66,0,0,0-1.28.34,1.3,1.3,0,0,0,.06,2.07,1.84,1.84,0,0,0,2.4.05,1.14,1.14,0,0,0,.4-1.1l.49-.12a1.49,1.49,0,0,1-.55,1.51A2.39,2.39,0,0,1,286.82,129.89Z" fill="#919191"/><path d="M290.29,127.62a1.19,1.19,0,0,1-.06-1.92,1.7,1.7,0,0,1,2.24,0,1.21,1.21,0,0,1,.07,1.93A1.72,1.72,0,0,1,290.29,127.62Zm1.82-1.56a1.22,1.22,0,0,0-1.58-.1.85.85,0,0,0,.12,1.35,1.21,1.21,0,0,0,1.58.11A.85.85,0,0,0,292.11,126.06Z" fill="#919191"/><path d="M295.61,125l-.31-.27a1.22,1.22,0,0,1-.42,1,1,1,0,0,1-1.4,0l-1.55-1.34.34-.29,1.44,1.24a.68.68,0,0,0,1,0,.94.94,0,0,0,.31-.84l-1.61-1.39.34-.3,2.2,1.89Z" fill="#919191"/><path d="M298.12,122.79l-1.44-1.24a.67.67,0,0,0-1,0,.93.93,0,0,0-.31.85l1.6,1.38-.34.3-2.2-1.89.35-.3.31.28a1.22,1.22,0,0,1,.42-1,1,1,0,0,1,1.4,0l1.54,1.33Z" fill="#919191"/><path d="M298.75,121.45l-1.44-1.23-.36.31-.3-.26L297,120l-.6-.52.35-.29.6.51.44-.38.31.26-.45.38,1.36,1.17a.38.38,0,0,0,.5.06.36.36,0,0,0,.14-.28l.36.13a.63.63,0,0,1-.26.47A.71.71,0,0,1,298.75,121.45Z" fill="#919191"/><path d="M300.48,120.76l-2.2-1.89.34-.29.35.3a1.06,1.06,0,0,1,.34-1l.35.3-.14.11a.86.86,0,0,0-.25.82l1.55,1.33Z" fill="#919191"/><path d="M302.46,120a.86.86,0,0,0,.23-.13.34.34,0,0,0,.09-.48l-.18-.41-3.14-1.12.37-.32,2.53.92-1.07-2.18.37-.31,1.54,3.21a.71.71,0,0,1-.2.94,1.26,1.26,0,0,1-.28.19Z" fill="#919191"/><path d="M305.4,116.52l-3-2.6,2-1.71.33.29-1.61,1.38,1,.84,1.58-1.35.33.28L304.4,115l1,.9,1.61-1.38.34.29Z" fill="#919191"/></svg>