<svg xmlns="http://www.w3.org/2000/svg" width="350" height="148" viewBox="0 0 350 148"><rect width="350" height="148" fill="#f1f2f2"/><path d="M31.92,21.87V14.54h2.5a3.56,3.56,0,0,1,3.76,3.67,3.54,3.54,0,0,1-3.76,3.66Zm5.32-3.66a2.69,2.69,0,0,0-2.82-2.86H32.83v5.71h1.59A2.7,2.7,0,0,0,37.24,18.21Z" fill="#0072bc"/><path d="M39.26,19.21a2.63,2.63,0,1,1,5.26,0,2.63,2.63,0,1,1-5.26,0Zm4.39,0a1.78,1.78,0,1,0-3.52,0,1.78,1.78,0,1,0,3.52,0Z" fill="#0072bc"/><circle cx="17.55" cy="17.55" r="7.55" fill="#9dc5ff"/><circle cx="17.55" cy="17.55" r="4.8" fill="#0072bc"/><polyline points="14.8 17.55 16.63 19.38 20.29 15.72" fill="none" stroke="#fff" stroke-linecap="round" stroke-linejoin="round" stroke-width="0.75"/><path d="M201.92,21.87V14.54h2.5a3.56,3.56,0,0,1,3.76,3.67,3.54,3.54,0,0,1-3.76,3.66Zm5.32-3.66a2.69,2.69,0,0,0-2.82-2.86h-1.59v5.71h1.59A2.7,2.7,0,0,0,207.24,18.21Z" fill="#ef4a60"/><path d="M209.26,19.21a2.63,2.63,0,1,1,5.26,0,2.63,2.63,0,1,1-5.26,0Zm4.39,0a1.78,1.78,0,1,0-3.52,0,1.78,1.78,0,1,0,3.52,0Z" fill="#ef4a60"/><path d="M219.44,21.87V18.4c0-.95-.48-1.23-1.19-1.23a2.06,2.06,0,0,0-1.57.82v3.88h-.83V16.56h.83v.77a2.58,2.58,0,0,1,1.9-.9,1.5,1.5,0,0,1,1.68,1.71v3.73Z" fill="#ef4a60"/><path d="M222.07,16.93l-.42-.35a1.65,1.65,0,0,0,.71-1l-.15,0a.53.53,0,0,1-.53-.56.6.6,0,0,1,.58-.59c.38,0,.7.3.7.84A2.14,2.14,0,0,1,222.07,16.93Z" fill="#ef4a60"/><path d="M224.54,20.76V17.29h-.88v-.73h.88V15.11h.83v1.45h1.08v.73h-1.08v3.29c0,.4.18.68.53.68a.75.75,0,0,0,.56-.23l.24.63a1.32,1.32,0,0,1-1,.34A1.08,1.08,0,0,1,224.54,20.76Z" fill="#ef4a60"/><circle cx="187.55" cy="17.55" r="7.55" fill="#ffbcc1"/><circle cx="187.55" cy="17.55" r="4.8" fill="#ef4a60"/><line x1="189.55" y1="15.55" x2="185.55" y2="19.55" fill="none" stroke="#fff" stroke-linecap="round" stroke-linejoin="round" stroke-width="0.75"/><line x1="189.55" y1="19.55" x2="185.55" y2="15.55" fill="none" stroke="#fff" stroke-linecap="round" stroke-linejoin="round" stroke-width="0.75"/><path d="M68.92,117.87c0-1,.43-2.06,1.53-2.06S72,116.89,72,117.87s-.44,2.07-1.53,2.07S68.92,118.84,68.92,117.87Zm2.55,0c0-.8-.26-1.62-1-1.62s-1,.82-1,1.62.26,1.62,1,1.62S71.47,118.67,71.47,117.87Z" fill="#bbbdbf"/><path d="M72.47,116.8a1,1,0,1,1,1,1A.95.95,0,0,1,72.47,116.8Zm1.57,0a.63.63,0,0,0-.6-.69.63.63,0,0,0-.61.69.62.62,0,0,0,.61.67A.61.61,0,0,0,74,116.8Zm-1,3.07,2.56-4h.33l-2.56,4Zm1.51-.91a1,1,0,1,1,1.92,0,1,1,0,1,1-1.92,0Zm1.57,0a.61.61,0,1,0-1.22,0,.61.61,0,1,0,1.22,0Z" fill="#bbbdbf"/><path d="M65.41,103.85v-.4c1.44-1.12,2.22-1.79,2.22-2.48a.74.74,0,0,0-.84-.73,1.33,1.33,0,0,0-1.08.5l-.31-.32a1.75,1.75,0,0,1,1.39-.63A1.22,1.22,0,0,1,68.14,101c0,.82-.83,1.56-1.94,2.44h2v.44Z" fill="#bbbdbf"/><path d="M68.92,101.86c0-1,.43-2.07,1.53-2.07S72,100.88,72,101.86s-.44,2.07-1.53,2.07S68.92,102.83,68.92,101.86Zm2.55,0c0-.8-.26-1.62-1-1.62s-1,.82-1,1.62.26,1.62,1,1.62S71.47,102.66,71.47,101.86Z" fill="#bbbdbf"/><path d="M72.47,100.79a1,1,0,1,1,1.93,0,1,1,0,1,1-1.93,0Zm1.57,0a.62.62,0,0,0-.6-.69.63.63,0,0,0-.61.69.62.62,0,0,0,.61.67A.61.61,0,0,0,74,100.79Zm-1,3.06,2.56-4h.33l-2.56,4Zm1.51-.91a1,1,0,1,1,1,1A.95.95,0,0,1,74.56,102.94Zm1.57,0a.61.61,0,1,0-.61.68A.62.62,0,0,0,76.13,102.94Z" fill="#bbbdbf"/><path d="M67.36,87.84v-1h-1.9v-.41l1.71-2.58h.69v2.55h.56v.44h-.56v1Zm0-3.53L66,86.39h1.4Z" fill="#bbbdbf"/><path d="M68.92,85.85c0-1,.43-2.07,1.53-2.07S72,84.87,72,85.85s-.44,2.07-1.53,2.07S68.92,86.82,68.92,85.85Zm2.55,0c0-.8-.26-1.62-1-1.62s-1,.82-1,1.62.26,1.62,1,1.62S71.47,86.64,71.47,85.85Z" fill="#bbbdbf"/><path d="M72.47,84.78a1,1,0,1,1,1.93,0,1,1,0,1,1-1.93,0Zm1.57,0a.62.62,0,0,0-.6-.69.63.63,0,0,0-.61.69.62.62,0,0,0,.61.67A.61.61,0,0,0,74,84.78Zm-1,3.06,2.56-4h.33l-2.56,4Zm1.51-.91a1,1,0,1,1,1,1A.95.95,0,0,1,74.56,86.93Zm1.57,0a.61.61,0,1,0-.61.68A.62.62,0,0,0,76.13,86.93Z" fill="#bbbdbf"/><path d="M65.37,69.83c0-1.07.51-2.06,1.63-2.06a1.38,1.38,0,0,1,1.11.48l-.25.37a1,1,0,0,0-.86-.4c-.77,0-1.12.78-1.12,1.57v.15A1.45,1.45,0,0,1,67,69.32a1.21,1.21,0,0,1,1.31,1.28,1.31,1.31,0,0,1-1.4,1.3C65.8,71.9,65.37,70.93,65.37,69.83Zm2.44.78a.82.82,0,0,0-.91-.86,1.23,1.23,0,0,0-1,.59c0,.5.3,1.12,1,1.12A.87.87,0,0,0,67.81,70.61Z" fill="#bbbdbf"/><path d="M68.92,69.83c0-1,.43-2.06,1.53-2.06S72,68.86,72,69.83s-.44,2.07-1.53,2.07S68.92,70.81,68.92,69.83Zm2.55,0c0-.79-.26-1.61-1-1.61s-1,.82-1,1.61.26,1.63,1,1.63S71.47,70.63,71.47,69.83Z" fill="#bbbdbf"/><path d="M72.47,68.77a1,1,0,1,1,1.93,0,1,1,0,1,1-1.93,0Zm1.57,0a.62.62,0,0,0-.6-.69.63.63,0,0,0-.61.69.62.62,0,0,0,.61.67A.61.61,0,0,0,74,68.77Zm-1,3.06,2.56-4h.33l-2.56,4Zm1.51-.91a1,1,0,1,1,1,1A.94.94,0,0,1,74.56,70.92Zm1.57,0a.61.61,0,1,0-.61.68A.62.62,0,0,0,76.13,70.92Z" fill="#bbbdbf"/><path d="M65.43,54.81a1.19,1.19,0,0,1,1-1.05,1.06,1.06,0,0,1-.89-1c0-.72.7-1,1.37-1s1.37.32,1.37,1a1.06,1.06,0,0,1-.89,1,1.19,1.19,0,0,1,1,1.05c0,.67-.65,1.08-1.43,1.08S65.43,55.49,65.43,54.81Zm2.37-.06c0-.52-.69-.74-.93-.77s-.93.25-.93.77.43.7.93.7S67.8,55.19,67.8,54.75Zm-.06-1.89c0-.41-.39-.66-.87-.66s-.87.25-.87.66.63.65.87.69S67.74,53.35,67.74,52.86Z" fill="#bbbdbf"/><path d="M68.92,53.82c0-1,.43-2.06,1.53-2.06S72,52.85,72,53.82s-.44,2.07-1.53,2.07S68.92,54.8,68.92,53.82Zm2.55,0c0-.79-.26-1.62-1-1.62s-1,.83-1,1.62.26,1.63,1,1.63S71.47,54.62,71.47,53.82Z" fill="#bbbdbf"/><path d="M72.47,52.76a1,1,0,1,1,1.93,0,1,1,0,1,1-1.93,0Zm1.57,0a.62.62,0,0,0-.6-.69.68.68,0,0,0,0,1.36A.62.62,0,0,0,74,52.76Zm-1,3.06,2.56-4h.33l-2.56,4Zm1.51-.91a1,1,0,1,1,1,1A.94.94,0,0,1,74.56,54.91Zm1.57,0a.61.61,0,1,0-.61.68A.62.62,0,0,0,76.13,54.91Z" fill="#bbbdbf"/><path d="M64,39.81V36.46l-.65.69-.3-.31,1-1h.43v4Z" fill="#bbbdbf"/><path d="M65.25,37.81c0-1,.43-2.06,1.53-2.06s1.53,1.08,1.53,2.06-.44,2.07-1.53,2.07S65.25,38.78,65.25,37.81Zm2.55,0c0-.8-.26-1.62-1-1.62s-1,.82-1,1.62.25,1.63,1,1.63S67.8,38.61,67.8,37.81Z" fill="#bbbdbf"/><path d="M68.92,37.81c0-1,.43-2.06,1.53-2.06S72,36.83,72,37.81s-.44,2.07-1.53,2.07S68.92,38.78,68.92,37.81Zm2.55,0c0-.8-.26-1.62-1-1.62s-1,.82-1,1.62.26,1.63,1,1.63S71.47,38.61,71.47,37.81Z" fill="#bbbdbf"/><path d="M72.47,36.74a1,1,0,1,1,1.93,0,1,1,0,1,1-1.93,0Zm1.57,0a.62.62,0,0,0-.6-.68.69.69,0,1,0,.6.68Zm-1,3.07,2.56-4h.33l-2.56,4Zm1.51-.91a1,1,0,1,1,1,1A.94.94,0,0,1,74.56,38.9Zm1.57,0a.61.61,0,1,0-.61.68A.63.63,0,0,0,76.13,38.9Z" fill="#bbbdbf"/><path d="M68.92,117.87c0-1,.43-2.06,1.53-2.06S72,116.89,72,117.87s-.44,2.07-1.53,2.07S68.92,118.84,68.92,117.87Zm2.55,0c0-.8-.26-1.62-1-1.62s-1,.82-1,1.62.26,1.62,1,1.62S71.47,118.67,71.47,117.87Z" fill="#5e5e5e"/><path d="M72.47,116.8a1,1,0,1,1,1,1A.95.95,0,0,1,72.47,116.8Zm1.57,0a.63.63,0,0,0-.6-.69.63.63,0,0,0-.61.69.62.62,0,0,0,.61.67A.61.61,0,0,0,74,116.8Zm-1,3.07,2.56-4h.33l-2.56,4Zm1.51-.91a1,1,0,1,1,1.92,0,1,1,0,1,1-1.92,0Zm1.57,0a.61.61,0,1,0-1.22,0,.61.61,0,1,0,1.22,0Z" fill="#5e5e5e"/><path d="M65.41,103.85v-.4c1.44-1.12,2.22-1.79,2.22-2.48a.74.74,0,0,0-.84-.73,1.33,1.33,0,0,0-1.08.5l-.31-.32a1.75,1.75,0,0,1,1.39-.63A1.22,1.22,0,0,1,68.14,101c0,.82-.83,1.56-1.94,2.44h2v.44Z" fill="#5e5e5e"/><path d="M68.92,101.86c0-1,.43-2.07,1.53-2.07S72,100.88,72,101.86s-.44,2.07-1.53,2.07S68.92,102.83,68.92,101.86Zm2.55,0c0-.8-.26-1.62-1-1.62s-1,.82-1,1.62.26,1.62,1,1.62S71.47,102.66,71.47,101.86Z" fill="#5e5e5e"/><path d="M72.47,100.79a1,1,0,1,1,1.93,0,1,1,0,1,1-1.93,0Zm1.57,0a.62.62,0,0,0-.6-.69.63.63,0,0,0-.61.69.62.62,0,0,0,.61.67A.61.61,0,0,0,74,100.79Zm-1,3.06,2.56-4h.33l-2.56,4Zm1.51-.91a1,1,0,1,1,1,1A.95.95,0,0,1,74.56,102.94Zm1.57,0a.61.61,0,1,0-.61.68A.62.62,0,0,0,76.13,102.94Z" fill="#5e5e5e"/><path d="M67.36,87.84v-1h-1.9v-.41l1.71-2.58h.69v2.55h.56v.44h-.56v1Zm0-3.53L66,86.39h1.4Z" fill="#5e5e5e"/><path d="M68.92,85.85c0-1,.43-2.07,1.53-2.07S72,84.87,72,85.85s-.44,2.07-1.53,2.07S68.92,86.82,68.92,85.85Zm2.55,0c0-.8-.26-1.62-1-1.62s-1,.82-1,1.62.26,1.62,1,1.62S71.47,86.64,71.47,85.85Z" fill="#5e5e5e"/><path d="M72.47,84.78a1,1,0,1,1,1.93,0,1,1,0,1,1-1.93,0Zm1.57,0a.62.62,0,0,0-.6-.69.63.63,0,0,0-.61.69.62.62,0,0,0,.61.67A.61.61,0,0,0,74,84.78Zm-1,3.06,2.56-4h.33l-2.56,4Zm1.51-.91a1,1,0,1,1,1,1A.95.95,0,0,1,74.56,86.93Zm1.57,0a.61.61,0,1,0-.61.68A.62.62,0,0,0,76.13,86.93Z" fill="#5e5e5e"/><path d="M65.37,69.83c0-1.07.51-2.06,1.63-2.06a1.38,1.38,0,0,1,1.11.48l-.25.37a1,1,0,0,0-.86-.4c-.77,0-1.12.78-1.12,1.57v.15A1.45,1.45,0,0,1,67,69.32a1.21,1.21,0,0,1,1.31,1.28,1.31,1.31,0,0,1-1.4,1.3C65.8,71.9,65.37,70.93,65.37,69.83Zm2.44.78a.82.82,0,0,0-.91-.86,1.23,1.23,0,0,0-1,.59c0,.5.3,1.12,1,1.12A.87.87,0,0,0,67.81,70.61Z" fill="#5e5e5e"/><path d="M68.92,69.83c0-1,.43-2.06,1.53-2.06S72,68.86,72,69.83s-.44,2.07-1.53,2.07S68.92,70.81,68.92,69.83Zm2.55,0c0-.79-.26-1.61-1-1.61s-1,.82-1,1.61.26,1.63,1,1.63S71.47,70.63,71.47,69.83Z" fill="#5e5e5e"/><path d="M72.47,68.77a1,1,0,1,1,1.93,0,1,1,0,1,1-1.93,0Zm1.57,0a.62.62,0,0,0-.6-.69.63.63,0,0,0-.61.69.62.62,0,0,0,.61.67A.61.61,0,0,0,74,68.77Zm-1,3.06,2.56-4h.33l-2.56,4Zm1.51-.91a1,1,0,1,1,1,1A.94.94,0,0,1,74.56,70.92Zm1.57,0a.61.61,0,1,0-.61.68A.62.62,0,0,0,76.13,70.92Z" fill="#5e5e5e"/><path d="M65.43,54.81a1.19,1.19,0,0,1,1-1.05,1.06,1.06,0,0,1-.89-1c0-.72.7-1,1.37-1s1.37.32,1.37,1a1.06,1.06,0,0,1-.89,1,1.19,1.19,0,0,1,1,1.05c0,.67-.65,1.08-1.43,1.08S65.43,55.49,65.43,54.81Zm2.37-.06c0-.52-.69-.74-.93-.77s-.93.25-.93.77.43.7.93.7S67.8,55.19,67.8,54.75Zm-.06-1.89c0-.41-.39-.66-.87-.66s-.87.25-.87.66.63.65.87.69S67.74,53.35,67.74,52.86Z" fill="#5e5e5e"/><path d="M68.92,53.82c0-1,.43-2.06,1.53-2.06S72,52.85,72,53.82s-.44,2.07-1.53,2.07S68.92,54.8,68.92,53.82Zm2.55,0c0-.79-.26-1.62-1-1.62s-1,.83-1,1.62.26,1.63,1,1.63S71.47,54.62,71.47,53.82Z" fill="#5e5e5e"/><path d="M72.47,52.76a1,1,0,1,1,1.93,0,1,1,0,1,1-1.93,0Zm1.57,0a.62.62,0,0,0-.6-.69.68.68,0,0,0,0,1.36A.62.62,0,0,0,74,52.76Zm-1,3.06,2.56-4h.33l-2.56,4Zm1.51-.91a1,1,0,1,1,1,1A.94.94,0,0,1,74.56,54.91Zm1.57,0a.61.61,0,1,0-.61.68A.62.62,0,0,0,76.13,54.91Z" fill="#5e5e5e"/><path d="M64,39.81V36.46l-.65.69-.3-.31,1-1h.43v4Z" fill="#5e5e5e"/><path d="M65.25,37.81c0-1,.43-2.06,1.53-2.06s1.53,1.08,1.53,2.06-.44,2.07-1.53,2.07S65.25,38.78,65.25,37.81Zm2.55,0c0-.8-.26-1.62-1-1.62s-1,.82-1,1.62.25,1.63,1,1.63S67.8,38.61,67.8,37.81Z" fill="#5e5e5e"/><path d="M68.92,37.81c0-1,.43-2.06,1.53-2.06S72,36.83,72,37.81s-.44,2.07-1.53,2.07S68.92,38.78,68.92,37.81Zm2.55,0c0-.8-.26-1.62-1-1.62s-1,.82-1,1.62.26,1.63,1,1.63S71.47,38.61,71.47,37.81Z" fill="#5e5e5e"/><path d="M72.47,36.74a1,1,0,1,1,1.93,0,1,1,0,1,1-1.93,0Zm1.57,0a.62.62,0,0,0-.6-.68.69.69,0,1,0,.6.68Zm-1,3.07,2.56-4h.33l-2.56,4Zm1.51-.91a1,1,0,1,1,1,1A.94.94,0,0,1,74.56,38.9Zm1.57,0a.61.61,0,1,0-.61.68A.63.63,0,0,0,76.13,38.9Z" fill="#5e5e5e"/><line x1="77.79" y1="118.17" x2="79.79" y2="118.17" fill="none" stroke="#919191" stroke-miterlimit="10"/><line x1="77.79" y1="102.16" x2="79.79" y2="102.16" fill="none" stroke="#919191" stroke-miterlimit="10"/><line x1="77.79" y1="86.15" x2="79.79" y2="86.15" fill="none" stroke="#919191" stroke-miterlimit="10"/><line x1="77.79" y1="70.14" x2="79.79" y2="70.14" fill="none" stroke="#919191" stroke-miterlimit="10"/><line x1="77.79" y1="54.13" x2="79.79" y2="54.13" fill="none" stroke="#919191" stroke-miterlimit="10"/><line x1="77.79" y1="38.12" x2="79.79" y2="38.12" fill="none" stroke="#919191" stroke-miterlimit="10"/><rect x="80.82" y="38.12" width="28.41" height="16.01" fill="#9dc5ff"/><rect x="80.82" y="54.13" width="28.41" height="24.02" fill="#0072bc"/><rect x="80.82" y="78.14" width="28.41" height="40.03" fill="#18375f"/><rect x="90.2" y="122.85" width="10.03" height="3.15" fill="#bbbdbf"/><path d="M237.92,117.87c0-1,.43-2.06,1.53-2.06s1.53,1.08,1.53,2.06-.44,2.07-1.53,2.07S237.92,118.84,237.92,117.87Zm2.55,0c0-.8-.26-1.62-1-1.62s-1,.82-1,1.62.26,1.62,1,1.62S240.47,118.67,240.47,117.87Z" fill="#bbbdbf"/><path d="M241.47,116.8a1,1,0,1,1,1,1A.95.95,0,0,1,241.47,116.8Zm1.57,0a.63.63,0,0,0-.6-.69.63.63,0,0,0-.61.69.62.62,0,0,0,.61.67A.61.61,0,0,0,243,116.8Zm-1,3.07,2.56-4h.33l-2.56,4Zm1.51-.91a1,1,0,1,1,1.92,0,1,1,0,1,1-1.92,0Zm1.57,0a.61.61,0,1,0-1.22,0,.61.61,0,1,0,1.22,0Z" fill="#bbbdbf"/><path d="M234.41,103.85v-.4c1.44-1.12,2.22-1.79,2.22-2.48a.74.74,0,0,0-.84-.73,1.33,1.33,0,0,0-1.08.5l-.31-.32a1.75,1.75,0,0,1,1.39-.63,1.22,1.22,0,0,1,1.35,1.18c0,.82-.83,1.56-1.94,2.44h2v.44Z" fill="#bbbdbf"/><path d="M237.92,101.86c0-1,.43-2.07,1.53-2.07s1.53,1.09,1.53,2.07-.44,2.07-1.53,2.07S237.92,102.83,237.92,101.86Zm2.55,0c0-.8-.26-1.62-1-1.62s-1,.82-1,1.62.26,1.62,1,1.62S240.47,102.66,240.47,101.86Z" fill="#bbbdbf"/><path d="M241.47,100.79a1,1,0,1,1,1.93,0,1,1,0,1,1-1.93,0Zm1.57,0a.62.62,0,0,0-.6-.69.63.63,0,0,0-.61.69.62.62,0,0,0,.61.67A.61.61,0,0,0,243,100.79Zm-1,3.06,2.56-4h.33l-2.56,4Zm1.51-.91a1,1,0,1,1,1,1A.95.95,0,0,1,243.56,102.94Zm1.57,0a.61.61,0,1,0-.61.68A.62.62,0,0,0,245.13,102.94Z" fill="#bbbdbf"/><path d="M236.36,87.84v-1h-1.9v-.41l1.71-2.58h.69v2.55h.56v.44h-.56v1Zm0-3.53L235,86.39h1.4Z" fill="#bbbdbf"/><path d="M237.92,85.85c0-1,.43-2.07,1.53-2.07S241,84.87,241,85.85s-.44,2.07-1.53,2.07S237.92,86.82,237.92,85.85Zm2.55,0c0-.8-.26-1.62-1-1.62s-1,.82-1,1.62.26,1.62,1,1.62S240.47,86.64,240.47,85.85Z" fill="#bbbdbf"/><path d="M241.47,84.78a1,1,0,1,1,1.93,0,1,1,0,1,1-1.93,0Zm1.57,0a.62.62,0,0,0-.6-.69.63.63,0,0,0-.61.69.62.62,0,0,0,.61.67A.61.61,0,0,0,243,84.78Zm-1,3.06,2.56-4h.33l-2.56,4Zm1.51-.91a1,1,0,1,1,1,1A.95.95,0,0,1,243.56,86.93Zm1.57,0a.61.61,0,1,0-.61.68A.62.62,0,0,0,245.13,86.93Z" fill="#bbbdbf"/><path d="M234.37,69.83c0-1.07.51-2.06,1.63-2.06a1.38,1.38,0,0,1,1.11.48l-.25.37a1,1,0,0,0-.86-.4c-.77,0-1.12.78-1.12,1.57v.15a1.45,1.45,0,0,1,1.13-.62,1.21,1.21,0,0,1,1.31,1.28,1.31,1.31,0,0,1-1.4,1.3C234.8,71.9,234.37,70.93,234.37,69.83Zm2.44.78a.82.82,0,0,0-.91-.86,1.23,1.23,0,0,0-1,.59c0,.5.3,1.12,1,1.12A.87.87,0,0,0,236.81,70.61Z" fill="#bbbdbf"/><path d="M237.92,69.83c0-1,.43-2.06,1.53-2.06S241,68.86,241,69.83s-.44,2.07-1.53,2.07S237.92,70.81,237.92,69.83Zm2.55,0c0-.79-.26-1.61-1-1.61s-1,.82-1,1.61.26,1.63,1,1.63S240.47,70.63,240.47,69.83Z" fill="#bbbdbf"/><path d="M241.47,68.77a1,1,0,1,1,1.93,0,1,1,0,1,1-1.93,0Zm1.57,0a.62.62,0,0,0-.6-.69.63.63,0,0,0-.61.69.62.62,0,0,0,.61.67A.61.61,0,0,0,243,68.77Zm-1,3.06,2.56-4h.33l-2.56,4Zm1.51-.91a1,1,0,1,1,1,1A.94.94,0,0,1,243.56,70.92Zm1.57,0a.61.61,0,1,0-.61.68A.62.62,0,0,0,245.13,70.92Z" fill="#bbbdbf"/><path d="M234.43,54.81a1.19,1.19,0,0,1,1-1.05,1.06,1.06,0,0,1-.89-1c0-.72.7-1,1.37-1s1.37.32,1.37,1a1.06,1.06,0,0,1-.89,1,1.19,1.19,0,0,1,1,1.05c0,.67-.65,1.08-1.43,1.08S234.43,55.49,234.43,54.81Zm2.37-.06c0-.52-.69-.74-.93-.77s-.93.25-.93.77.43.7.93.7S236.8,55.19,236.8,54.75Zm-.06-1.89c0-.41-.39-.66-.87-.66s-.87.25-.87.66.63.65.87.69S236.74,53.35,236.74,52.86Z" fill="#bbbdbf"/><path d="M237.92,53.82c0-1,.43-2.06,1.53-2.06S241,52.85,241,53.82s-.44,2.07-1.53,2.07S237.92,54.8,237.92,53.82Zm2.55,0c0-.79-.26-1.62-1-1.62s-1,.83-1,1.62.26,1.63,1,1.63S240.47,54.62,240.47,53.82Z" fill="#bbbdbf"/><path d="M241.47,52.76a1,1,0,1,1,1.93,0,1,1,0,1,1-1.93,0Zm1.57,0a.62.62,0,0,0-.6-.69.68.68,0,0,0,0,1.36A.62.62,0,0,0,243,52.76Zm-1,3.06,2.56-4h.33l-2.56,4Zm1.51-.91a1,1,0,1,1,1,1A.94.94,0,0,1,243.56,54.91Zm1.57,0a.61.61,0,1,0-.61.68A.62.62,0,0,0,245.13,54.91Z" fill="#bbbdbf"/><path d="M233,39.81V36.46l-.65.69-.3-.31,1-1h.43v4Z" fill="#bbbdbf"/><path d="M234.25,37.81c0-1,.43-2.06,1.53-2.06s1.53,1.08,1.53,2.06-.44,2.07-1.53,2.07S234.25,38.78,234.25,37.81Zm2.55,0c0-.8-.26-1.62-1-1.62s-1,.82-1,1.62.25,1.63,1,1.63S236.8,38.61,236.8,37.81Z" fill="#bbbdbf"/><path d="M237.92,37.81c0-1,.43-2.06,1.53-2.06S241,36.83,241,37.81s-.44,2.07-1.53,2.07S237.92,38.78,237.92,37.81Zm2.55,0c0-.8-.26-1.62-1-1.62s-1,.82-1,1.62.26,1.63,1,1.63S240.47,38.61,240.47,37.81Z" fill="#bbbdbf"/><path d="M241.47,36.74a1,1,0,1,1,1.93,0,1,1,0,1,1-1.93,0Zm1.57,0a.62.62,0,0,0-.6-.68.69.69,0,1,0,.6.68Zm-1,3.07,2.56-4h.33l-2.56,4Zm1.51-.91a1,1,0,1,1,1,1A.94.94,0,0,1,243.56,38.9Zm1.57,0a.61.61,0,1,0-.61.68A.63.63,0,0,0,245.13,38.9Z" fill="#bbbdbf"/><path d="M237.92,117.87c0-1,.43-2.06,1.53-2.06s1.53,1.08,1.53,2.06-.44,2.07-1.53,2.07S237.92,118.84,237.92,117.87Zm2.55,0c0-.8-.26-1.62-1-1.62s-1,.82-1,1.62.26,1.62,1,1.62S240.47,118.67,240.47,117.87Z" fill="#5e5e5e"/><path d="M241.47,116.8a1,1,0,1,1,1,1A.95.95,0,0,1,241.47,116.8Zm1.57,0a.63.63,0,0,0-.6-.69.63.63,0,0,0-.61.69.62.62,0,0,0,.61.67A.61.61,0,0,0,243,116.8Zm-1,3.07,2.56-4h.33l-2.56,4Zm1.51-.91a1,1,0,1,1,1.92,0,1,1,0,1,1-1.92,0Zm1.57,0a.61.61,0,1,0-1.22,0,.61.61,0,1,0,1.22,0Z" fill="#5e5e5e"/><path d="M234.41,103.85v-.4c1.44-1.12,2.22-1.79,2.22-2.48a.74.74,0,0,0-.84-.73,1.33,1.33,0,0,0-1.08.5l-.31-.32a1.75,1.75,0,0,1,1.39-.63,1.22,1.22,0,0,1,1.35,1.18c0,.82-.83,1.56-1.94,2.44h2v.44Z" fill="#5e5e5e"/><path d="M237.92,101.86c0-1,.43-2.07,1.53-2.07s1.53,1.09,1.53,2.07-.44,2.07-1.53,2.07S237.92,102.83,237.92,101.86Zm2.55,0c0-.8-.26-1.62-1-1.62s-1,.82-1,1.62.26,1.62,1,1.62S240.47,102.66,240.47,101.86Z" fill="#5e5e5e"/><path d="M241.47,100.79a1,1,0,1,1,1.93,0,1,1,0,1,1-1.93,0Zm1.57,0a.62.62,0,0,0-.6-.69.63.63,0,0,0-.61.69.62.62,0,0,0,.61.67A.61.61,0,0,0,243,100.79Zm-1,3.06,2.56-4h.33l-2.56,4Zm1.51-.91a1,1,0,1,1,1,1A.95.95,0,0,1,243.56,102.94Zm1.57,0a.61.61,0,1,0-.61.68A.62.62,0,0,0,245.13,102.94Z" fill="#5e5e5e"/><path d="M236.36,87.84v-1h-1.9v-.41l1.71-2.58h.69v2.55h.56v.44h-.56v1Zm0-3.53L235,86.39h1.4Z" fill="#5e5e5e"/><path d="M237.92,85.85c0-1,.43-2.07,1.53-2.07S241,84.87,241,85.85s-.44,2.07-1.53,2.07S237.92,86.82,237.92,85.85Zm2.55,0c0-.8-.26-1.62-1-1.62s-1,.82-1,1.62.26,1.62,1,1.62S240.47,86.64,240.47,85.85Z" fill="#5e5e5e"/><path d="M241.47,84.78a1,1,0,1,1,1.93,0,1,1,0,1,1-1.93,0Zm1.57,0a.62.62,0,0,0-.6-.69.63.63,0,0,0-.61.69.62.62,0,0,0,.61.67A.61.61,0,0,0,243,84.78Zm-1,3.06,2.56-4h.33l-2.56,4Zm1.51-.91a1,1,0,1,1,1,1A.95.95,0,0,1,243.56,86.93Zm1.57,0a.61.61,0,1,0-.61.68A.62.62,0,0,0,245.13,86.93Z" fill="#5e5e5e"/><path d="M234.37,69.83c0-1.07.51-2.06,1.63-2.06a1.38,1.38,0,0,1,1.11.48l-.25.37a1,1,0,0,0-.86-.4c-.77,0-1.12.78-1.12,1.57v.15a1.45,1.45,0,0,1,1.13-.62,1.21,1.21,0,0,1,1.31,1.28,1.31,1.31,0,0,1-1.4,1.3C234.8,71.9,234.37,70.93,234.37,69.83Zm2.44.78a.82.82,0,0,0-.91-.86,1.23,1.23,0,0,0-1,.59c0,.5.3,1.12,1,1.12A.87.87,0,0,0,236.81,70.61Z" fill="#5e5e5e"/><path d="M237.92,69.83c0-1,.43-2.06,1.53-2.06S241,68.86,241,69.83s-.44,2.07-1.53,2.07S237.92,70.81,237.92,69.83Zm2.55,0c0-.79-.26-1.61-1-1.61s-1,.82-1,1.61.26,1.63,1,1.63S240.47,70.63,240.47,69.83Z" fill="#5e5e5e"/><path d="M241.47,68.77a1,1,0,1,1,1.93,0,1,1,0,1,1-1.93,0Zm1.57,0a.62.62,0,0,0-.6-.69.63.63,0,0,0-.61.69.62.62,0,0,0,.61.67A.61.61,0,0,0,243,68.77Zm-1,3.06,2.56-4h.33l-2.56,4Zm1.51-.91a1,1,0,1,1,1,1A.94.94,0,0,1,243.56,70.92Zm1.57,0a.61.61,0,1,0-.61.68A.62.62,0,0,0,245.13,70.92Z" fill="#5e5e5e"/><path d="M234.43,54.81a1.19,1.19,0,0,1,1-1.05,1.06,1.06,0,0,1-.89-1c0-.72.7-1,1.37-1s1.37.32,1.37,1a1.06,1.06,0,0,1-.89,1,1.19,1.19,0,0,1,1,1.05c0,.67-.65,1.08-1.43,1.08S234.43,55.49,234.43,54.81Zm2.37-.06c0-.52-.69-.74-.93-.77s-.93.25-.93.77.43.7.93.7S236.8,55.19,236.8,54.75Zm-.06-1.89c0-.41-.39-.66-.87-.66s-.87.25-.87.66.63.65.87.69S236.74,53.35,236.74,52.86Z" fill="#5e5e5e"/><path d="M237.92,53.82c0-1,.43-2.06,1.53-2.06S241,52.85,241,53.82s-.44,2.07-1.53,2.07S237.92,54.8,237.92,53.82Zm2.55,0c0-.79-.26-1.62-1-1.62s-1,.83-1,1.62.26,1.63,1,1.63S240.47,54.62,240.47,53.82Z" fill="#5e5e5e"/><path d="M241.47,52.76a1,1,0,1,1,1.93,0,1,1,0,1,1-1.93,0Zm1.57,0a.62.62,0,0,0-.6-.69.68.68,0,0,0,0,1.36A.62.62,0,0,0,243,52.76Zm-1,3.06,2.56-4h.33l-2.56,4Zm1.51-.91a1,1,0,1,1,1,1A.94.94,0,0,1,243.56,54.91Zm1.57,0a.61.61,0,1,0-.61.68A.62.62,0,0,0,245.13,54.91Z" fill="#5e5e5e"/><path d="M233,39.81V36.46l-.65.69-.3-.31,1-1h.43v4Z" fill="#5e5e5e"/><path d="M234.25,37.81c0-1,.43-2.06,1.53-2.06s1.53,1.08,1.53,2.06-.44,2.07-1.53,2.07S234.25,38.78,234.25,37.81Zm2.55,0c0-.8-.26-1.62-1-1.62s-1,.82-1,1.62.25,1.63,1,1.63S236.8,38.61,236.8,37.81Z" fill="#5e5e5e"/><path d="M237.92,37.81c0-1,.43-2.06,1.53-2.06S241,36.83,241,37.81s-.44,2.07-1.53,2.07S237.92,38.78,237.92,37.81Zm2.55,0c0-.8-.26-1.62-1-1.62s-1,.82-1,1.62.26,1.63,1,1.63S240.47,38.61,240.47,37.81Z" fill="#5e5e5e"/><path d="M241.47,36.74a1,1,0,1,1,1.93,0,1,1,0,1,1-1.93,0Zm1.57,0a.62.62,0,0,0-.6-.68.69.69,0,1,0,.6.68Zm-1,3.07,2.56-4h.33l-2.56,4Zm1.51-.91a1,1,0,1,1,1,1A.94.94,0,0,1,243.56,38.9Zm1.57,0a.61.61,0,1,0-.61.68A.63.63,0,0,0,245.13,38.9Z" fill="#5e5e5e"/><line x1="246.79" y1="118.17" x2="248.79" y2="118.17" fill="none" stroke="#919191" stroke-miterlimit="10"/><line x1="246.79" y1="102.16" x2="248.79" y2="102.16" fill="none" stroke="#919191" stroke-miterlimit="10"/><line x1="246.79" y1="86.15" x2="248.79" y2="86.15" fill="none" stroke="#919191" stroke-miterlimit="10"/><line x1="246.79" y1="70.14" x2="248.79" y2="70.14" fill="none" stroke="#919191" stroke-miterlimit="10"/><line x1="246.79" y1="54.13" x2="248.79" y2="54.13" fill="none" stroke="#919191" stroke-miterlimit="10"/><line x1="246.79" y1="38.12" x2="248.79" y2="38.12" fill="none" stroke="#919191" stroke-miterlimit="10"/><rect x="249.82" y="50" width="28.41" height="11.26" fill="#00b398"/><rect x="249.82" y="61.26" width="28.41" height="16.89" fill="#9dc5ff"/><rect x="249.82" y="38.12" width="28.41" height="4.75" fill="#ef4a60"/><rect x="249.82" y="42.87" width="28.41" height="7.13" fill="#919191"/><rect x="249.82" y="96" width="28.41" height="22.17" fill="#18375f"/><rect x="249.82" y="78.14" width="28.41" height="17.86" fill="#0072bc"/><rect x="259.2" y="122.85" width="10.03" height="3.15" fill="#bbbdbf"/></svg>