<svg xmlns="http://www.w3.org/2000/svg" width="350" height="148" viewBox="0 0 350 148"><rect width="350" height="148" fill="#f1f2f2"/><path d="M31.92,21.87V14.54h2.5a3.56,3.56,0,0,1,3.76,3.67,3.54,3.54,0,0,1-3.76,3.66Zm5.32-3.66a2.69,2.69,0,0,0-2.82-2.86H32.83v5.71h1.59A2.7,2.7,0,0,0,37.24,18.21Z" fill="#0072bc"/><path d="M39.26,19.21a2.63,2.63,0,1,1,5.26,0,2.63,2.63,0,1,1-5.26,0Zm4.39,0a1.78,1.78,0,1,0-3.52,0,1.78,1.78,0,1,0,3.52,0Z" fill="#0072bc"/><circle cx="17.55" cy="17.55" r="7.55" fill="#9dc5ff"/><circle cx="17.55" cy="17.55" r="4.8" fill="#0072bc"/><polyline points="14.8 17.55 16.63 19.38 20.29 15.72" fill="none" stroke="#fff" stroke-linecap="round" stroke-linejoin="round" stroke-width="0.75"/><path d="M201.92,21.87V14.54h2.5a3.56,3.56,0,0,1,3.76,3.67,3.54,3.54,0,0,1-3.76,3.66Zm5.32-3.66a2.69,2.69,0,0,0-2.82-2.86h-1.59v5.71h1.59A2.7,2.7,0,0,0,207.24,18.21Z" fill="#ef4a60"/><path d="M209.26,19.21a2.63,2.63,0,1,1,5.26,0,2.63,2.63,0,1,1-5.26,0Zm4.39,0a1.78,1.78,0,1,0-3.52,0,1.78,1.78,0,1,0,3.52,0Z" fill="#ef4a60"/><path d="M219.44,21.87V18.4c0-.95-.48-1.23-1.19-1.23a2.06,2.06,0,0,0-1.57.82v3.88h-.83V16.56h.83v.77a2.58,2.58,0,0,1,1.9-.9,1.5,1.5,0,0,1,1.68,1.71v3.73Z" fill="#ef4a60"/><path d="M222.07,16.93l-.42-.35a1.65,1.65,0,0,0,.71-1l-.15,0a.53.53,0,0,1-.53-.56.6.6,0,0,1,.58-.59c.38,0,.7.3.7.84A2.14,2.14,0,0,1,222.07,16.93Z" fill="#ef4a60"/><path d="M224.54,20.76V17.29h-.88v-.73h.88V15.11h.83v1.45h1.08v.73h-1.08v3.29c0,.4.18.68.53.68a.75.75,0,0,0,.56-.23l.24.63a1.32,1.32,0,0,1-1,.34A1.08,1.08,0,0,1,224.54,20.76Z" fill="#ef4a60"/><circle cx="187.55" cy="17.55" r="7.55" fill="#ffbcc1"/><circle cx="187.55" cy="17.55" r="4.8" fill="#ef4a60"/><line x1="189.55" y1="15.55" x2="185.55" y2="19.55" fill="none" stroke="#fff" stroke-linecap="round" stroke-linejoin="round" stroke-width="0.75"/><line x1="189.55" y1="19.55" x2="185.55" y2="15.55" fill="none" stroke="#fff" stroke-linecap="round" stroke-linejoin="round" stroke-width="0.75"/><rect x="107.39" y="92.72" width="8.27" height="8.32" fill="#0072bb"/><rect x="107.39" y="81.16" width="16.27" height="8.32" fill="#0072bb"/><rect x="107.39" y="116.26" width="3.27" height="8.32" fill="#0072bb"/><rect x="107.39" y="104.71" width="5.27" height="8.32" fill="#0072bb"/><rect x="107.39" y="69.61" width="22.27" height="8.32" fill="#0072bb"/><rect x="107.39" y="58.06" width="37.27" height="8.32" fill="#0072bb"/><rect x="107.39" y="46.5" width="60.27" height="8.32" fill="#0072bb"/><path d="M257,85.32h-38.1A38.09,38.09,0,0,1,257,47.22h0Z" fill="#0072bb" stroke="#fff" stroke-linecap="round" stroke-linejoin="round" stroke-width="0.75"/><path d="M257,85.32l-22.4,30.82a37,37,0,0,1-15.7-30.82Z" fill="#0072bb" stroke="#fff" stroke-linecap="round" stroke-linejoin="round" stroke-width="0.75"/><path d="M257,85.32v38.09a36.49,36.49,0,0,1-22.4-7.27Z" fill="#0072bb" stroke="#fff" stroke-linecap="round" stroke-linejoin="round" stroke-width="0.75"/><path d="M257,85.32l11.77,36.23A36.23,36.23,0,0,1,257,123.41Z" fill="#0072bb" stroke="#fff" stroke-linecap="round" stroke-linejoin="round" stroke-width="0.75"/><path d="M257,85.32l18.47,33.32a37.2,37.2,0,0,1-6.7,2.91Z" fill="#0072bb" stroke="#fff" stroke-linecap="round" stroke-linejoin="round" stroke-width="0.75"/><path d="M257,85.32l22.39,30.82a35.62,35.62,0,0,1-3.92,2.5Z" fill="#0072bb" stroke="#fff" stroke-linecap="round" stroke-linejoin="round" stroke-width="0.75"/><path d="M257,85.32V47.22a38.09,38.09,0,0,1,38.09,38.1,37,37,0,0,1-15.7,30.82Z" fill="#0072bb" stroke="#fff" stroke-linecap="round" stroke-linejoin="round" stroke-width="0.75"/><path d="M48,83.32H9.89A38.09,38.09,0,0,1,48,45.22h0Z" fill="#0072bb" stroke="#fff" stroke-linecap="round" stroke-linejoin="round" stroke-width="0.75"/><path d="M48,83.32l-22.4,30.82A37,37,0,0,1,9.89,83.32Z" fill="#0072bb" stroke="#fff" stroke-linecap="round" stroke-linejoin="round" stroke-width="0.75"/><path d="M48,83.32v38.09a36.49,36.49,0,0,1-22.4-7.27Z" fill="#0072bb" stroke="#fff" stroke-linecap="round" stroke-linejoin="round" stroke-width="0.75"/><path d="M48,83.32l22.39,30.82A36.48,36.48,0,0,1,48,121.41Z" fill="#0072bb" stroke="#fff" stroke-linecap="round" stroke-linejoin="round" stroke-width="0.75"/><path d="M48,83.32V45.22a38.09,38.09,0,0,1,38.09,38.1,37,37,0,0,1-15.7,30.82Z" fill="#0072bb" stroke="#fff" stroke-linecap="round" stroke-linejoin="round" stroke-width="0.75"/><path d="M49.48,112.44a2.32,2.32,0,1,1,2.32,2.41A2.29,2.29,0,0,1,49.48,112.44Zm4,0a1.73,1.73,0,1,0-1.72,1.89A1.73,1.73,0,0,0,53.52,112.44Z" fill="#fff"/><path d="M55.11,114.06v-2.21h-.56v-.47h.56v-.92h.53v.92h.68v.47h-.68V114c0,.25.11.43.34.43a.51.51,0,0,0,.35-.14l.16.39a.87.87,0,0,1-.63.22A.69.69,0,0,1,55.11,114.06Z" fill="#fff"/><path d="M59.35,114.77v-2.23c0-.6-.3-.77-.76-.77a1.32,1.32,0,0,0-1,.52v2.48h-.52V110.1h.52v1.78a1.62,1.62,0,0,1,1.21-.58,1,1,0,0,1,1.07,1.08v2.39Z" fill="#fff"/><path d="M60.73,113.07a1.69,1.69,0,0,1,1.66-1.77A1.64,1.64,0,0,1,64,113.11v.14H61.29a1.19,1.19,0,0,0,1.21,1.17,1.48,1.48,0,0,0,1-.44l.25.35a1.88,1.88,0,0,1-1.34.52A1.68,1.68,0,0,1,60.73,113.07Zm1.66-1.34a1.13,1.13,0,0,0-1.11,1.13H63.5A1.1,1.1,0,0,0,62.39,111.73Z" fill="#fff"/><path d="M64.86,114.77v-3.39h.53v.54a1.44,1.44,0,0,1,1.13-.61v.54l-.21,0a1.23,1.23,0,0,0-.92.54v2.4Z" fill="#fff"/><path d="M74.93,80.84l-.41-1H72.19l-.41,1h-.67L73,76.17h.72l1.88,4.67Zm-1.57-4.08-1,2.53h2Z" fill="#fff"/><path d="M283.93,82.84l-.41-1h-2.33l-.41,1h-.67L282,78.17h.72l1.88,4.67Zm-1.57-4.08-1,2.53h2Z" fill="#fff"/><path d="M25.6,67.84V63.17h2.08A1.18,1.18,0,0,1,29,64.36a1.06,1.06,0,0,1-.82,1.07,1.17,1.17,0,0,1,.91,1.15,1.22,1.22,0,0,1-1.35,1.26Zm2.79-3.4a.74.74,0,0,0-.81-.75h-1.4v1.5h1.4A.73.73,0,0,0,28.39,64.44Zm.09,2.08a.8.8,0,0,0-.87-.81H26.18v1.61h1.43A.78.78,0,0,0,28.48,66.52Z" fill="#fff"/><path d="M234.6,69.84V65.17h2.08A1.18,1.18,0,0,1,238,66.36a1.06,1.06,0,0,1-.82,1.07,1.17,1.17,0,0,1,.91,1.15,1.22,1.22,0,0,1-1.35,1.26Zm2.79-3.4a.74.74,0,0,0-.81-.75h-1.4v1.5h1.4A.73.73,0,0,0,237.39,66.44Zm.09,2.08a.8.8,0,0,0-.87-.81h-1.43v1.61h1.43A.78.78,0,0,0,237.48,68.52Z" fill="#fff"/><path d="M20.41,94.51a2.34,2.34,0,0,1,2.4-2.42,2,2,0,0,1,1.77.93l-.48.27a1.58,1.58,0,0,0-1.29-.68,1.9,1.9,0,0,0,0,3.8,1.61,1.61,0,0,0,1.29-.68l.49.26a2.09,2.09,0,0,1-1.78.93A2.34,2.34,0,0,1,20.41,94.51Z" fill="#fff"/><path d="M232.41,97.51a2.34,2.34,0,0,1,2.4-2.42,2,2,0,0,1,1.77.93l-.48.27a1.58,1.58,0,0,0-1.29-.68,1.9,1.9,0,0,0,0,3.8,1.61,1.61,0,0,0,1.29-.68l.49.26a2.09,2.09,0,0,1-1.78.93A2.34,2.34,0,0,1,232.41,97.51Z" fill="#fff"/><path d="M38.6,109.84v-4.67h1.59a2.34,2.34,0,1,1,0,4.67ZM42,107.51a1.71,1.71,0,0,0-1.8-1.82h-1v3.63h1A1.72,1.72,0,0,0,42,107.51Z" fill="#fff"/><path d="M248.6,111.84v-4.67h1.59a2.34,2.34,0,1,1,0,4.67Zm3.39-2.33a1.71,1.71,0,0,0-1.8-1.82h-1v3.63h1A1.72,1.72,0,0,0,252,109.51Z" fill="#fff"/><path d="M261.6,129.84v-4.67h3.06v.52h-2.48v1.5h2.43v.52h-2.43v1.61h2.48v.52Z" fill="#5e5e5e"/><path d="M101.93,52.84l-.41-1H99.19l-.41,1h-.67L100,48.17h.72l1.88,4.67Zm-1.57-4.08-1,2.53h2Z" fill="#5e5e5e"/><path d="M98.6,64.84V60.17h2.08A1.18,1.18,0,0,1,102,61.36a1.06,1.06,0,0,1-.82,1.07,1.17,1.17,0,0,1,.91,1.15,1.22,1.22,0,0,1-1.35,1.26Zm2.79-3.4a.74.74,0,0,0-.81-.75h-1.4v1.5h1.4A.73.73,0,0,0,101.39,61.44Zm.09,2.08a.8.8,0,0,0-.87-.81H99.18v1.61h1.43A.78.78,0,0,0,101.48,63.52Z" fill="#5e5e5e"/><path d="M98.41,73.51a2.34,2.34,0,0,1,2.4-2.42,2,2,0,0,1,1.77.93l-.48.27a1.58,1.58,0,0,0-1.29-.68,1.9,1.9,0,0,0,0,3.8,1.61,1.61,0,0,0,1.29-.68l.49.26a2.09,2.09,0,0,1-1.78.93A2.34,2.34,0,0,1,98.41,73.51Z" fill="#5e5e5e"/><path d="M98.6,87.84V83.17h1.59a2.34,2.34,0,1,1,0,4.67ZM102,85.51a1.71,1.71,0,0,0-1.8-1.82h-1v3.63h1A1.72,1.72,0,0,0,102,85.51Z" fill="#5e5e5e"/><path d="M98.6,98.84V94.17h3.06v.52H99.18v1.5h2.43v.52H99.18v1.61h2.48v.52Z" fill="#5e5e5e"/><path d="M98.6,110.84v-4.67h3.06v.52H99.18v1.5h2.43v.52H99.18v2.13Z" fill="#5e5e5e"/><path d="M98.41,120.51a2.33,2.33,0,0,1,2.4-2.42,2.22,2.22,0,0,1,1.81.87l-.46.29a1.74,1.74,0,0,0-1.35-.64,1.9,1.9,0,0,0,0,3.8,1.84,1.84,0,0,0,1.26-.51V121h-1.61v-.52h2.19v1.68a2.44,2.44,0,0,1-1.84.81A2.34,2.34,0,0,1,98.41,120.51Z" fill="#5e5e5e"/><path d="M271.6,126.84v-4.67h3.06v.52h-2.48v1.5h2.43v.52h-2.43v2.13Z" fill="#5e5e5e"/><path d="M278.41,119.51a2.33,2.33,0,0,1,2.4-2.42,2.22,2.22,0,0,1,1.81.87l-.46.29a1.74,1.74,0,0,0-1.35-.64,1.9,1.9,0,0,0,0,3.8,1.84,1.84,0,0,0,1.26-.51V120h-1.61v-.52h2.19v1.68a2.44,2.44,0,0,1-1.84.81A2.34,2.34,0,0,1,278.41,119.51Z" fill="#5e5e5e"/><circle cx="48" cy="83" r="17" fill="#fff"/><circle cx="257" cy="86" r="17" fill="#fff"/></svg>