<svg xmlns="http://www.w3.org/2000/svg" width="350" height="148" viewBox="0 0 350 148"><rect width="350" height="148" fill="#f1f2f2"/><path d="M31.92,21.87V14.54h2.5a3.56,3.56,0,0,1,3.76,3.67,3.54,3.54,0,0,1-3.76,3.66Zm5.32-3.66a2.69,2.69,0,0,0-2.82-2.86H32.83v5.71h1.59A2.7,2.7,0,0,0,37.24,18.21Z" fill="#0072bc"/><path d="M39.26,19.21a2.63,2.63,0,1,1,5.26,0,2.63,2.63,0,1,1-5.26,0Zm4.39,0a1.78,1.78,0,1,0-3.52,0,1.78,1.78,0,1,0,3.52,0Z" fill="#0072bc"/><circle cx="17.55" cy="17.55" r="7.55" fill="#9dc5ff"/><circle cx="17.55" cy="17.55" r="4.8" fill="#0072bc"/><polyline points="14.8 17.55 16.63 19.38 20.29 15.72" fill="none" stroke="#fff" stroke-linecap="round" stroke-linejoin="round" stroke-width="0.75"/><path d="M201.92,21.87V14.54h2.5a3.56,3.56,0,0,1,3.76,3.67,3.54,3.54,0,0,1-3.76,3.66Zm5.32-3.66a2.69,2.69,0,0,0-2.82-2.86h-1.59v5.71h1.59A2.7,2.7,0,0,0,207.24,18.21Z" fill="#ef4a60"/><path d="M209.26,19.21a2.63,2.63,0,1,1,5.26,0,2.63,2.63,0,1,1-5.26,0Zm4.39,0a1.78,1.78,0,1,0-3.52,0,1.78,1.78,0,1,0,3.52,0Z" fill="#ef4a60"/><path d="M219.44,21.87V18.4c0-.95-.48-1.23-1.19-1.23a2.06,2.06,0,0,0-1.57.82v3.88h-.83V16.56h.83v.77a2.58,2.58,0,0,1,1.9-.9,1.5,1.5,0,0,1,1.68,1.71v3.73Z" fill="#ef4a60"/><path d="M222.07,16.93l-.42-.35a1.65,1.65,0,0,0,.71-1l-.15,0a.53.53,0,0,1-.53-.56.6.6,0,0,1,.58-.59c.38,0,.7.3.7.84A2.14,2.14,0,0,1,222.07,16.93Z" fill="#ef4a60"/><path d="M224.54,20.76V17.29h-.88v-.73h.88V15.11h.83v1.45h1.08v.73h-1.08v3.29c0,.4.18.68.53.68a.75.75,0,0,0,.56-.23l.24.63a1.32,1.32,0,0,1-1,.34A1.08,1.08,0,0,1,224.54,20.76Z" fill="#ef4a60"/><circle cx="187.55" cy="17.55" r="7.55" fill="#ffbcc1"/><circle cx="187.55" cy="17.55" r="4.8" fill="#ef4a60"/><line x1="189.55" y1="15.55" x2="185.55" y2="19.55" fill="none" stroke="#fff" stroke-linecap="round" stroke-linejoin="round" stroke-width="0.75"/><line x1="189.55" y1="19.55" x2="185.55" y2="15.55" fill="none" stroke="#fff" stroke-linecap="round" stroke-linejoin="round" stroke-width="0.75"/><path d="M88.87,85.48l-22.4,30.83a38.1,38.1,0,0,1-8.42-53.22,36.94,36.94,0,0,1,30.82-15.7Z" fill="#9dc5ff" stroke="#fff" stroke-linecap="round" stroke-linejoin="round" stroke-width="0.75"/><path d="M88.87,85.48V47.39a38.1,38.1,0,1,1,0,76.19,36.56,36.56,0,0,1-22.4-7.27Z" fill="#0072bb" stroke="#fff" stroke-linecap="round" stroke-linejoin="round" stroke-width="0.75"/><path d="M60.23,83.45V78.77h2.08A1.18,1.18,0,0,1,63.63,80,1.09,1.09,0,0,1,62.81,81a1.16,1.16,0,0,1,.91,1.14,1.23,1.23,0,0,1-1.36,1.27ZM63,80.05a.74.74,0,0,0-.8-.76h-1.4V80.8h1.4A.72.72,0,0,0,63,80.05Zm.09,2.07a.78.78,0,0,0-.86-.8H60.82v1.61h1.43A.77.77,0,0,0,63.11,82.12Z" fill="#fff"/><path d="M57.68,91.84V90.66H55.46v-.48l2-3h.8v3h.66v.51h-.66v1.18Zm0-4.13L56,90.15h1.64Z" fill="#fff"/><path d="M59.5,89.51c0-1.14.5-2.41,1.78-2.41s1.79,1.27,1.79,2.41-.51,2.42-1.79,2.42S59.5,90.65,59.5,89.51Zm3,0c0-.93-.3-1.89-1.19-1.89s-1.19,1-1.19,1.89.3,1.9,1.19,1.9S62.47,90.44,62.47,89.51Z" fill="#fff"/><path d="M63.64,88.27a1.13,1.13,0,1,1,1.13,1.14A1.11,1.11,0,0,1,63.64,88.27Zm1.84,0a.72.72,0,1,0-1.42,0,.71.71,0,1,0,1.42,0Zm-1.16,3.57,3-4.67h.4l-3,4.67Zm1.76-1.06a1.13,1.13,0,1,1,1.13,1.15A1.11,1.11,0,0,1,66.08,90.78Zm1.83,0a.73.73,0,0,0-.7-.8.74.74,0,0,0-.72.8.73.73,0,0,0,.72.79A.72.72,0,0,0,67.91,90.78Z" fill="#fff"/><path d="M117.47,83.45l-.42-1h-2.32l-.41,1h-.67l1.88-4.68h.73l1.87,4.68Zm-1.58-4.08-1,2.52h2Z" fill="#fff"/><path d="M109.48,89.51c0-1.26.58-2.41,1.9-2.41a1.62,1.62,0,0,1,1.29.56l-.3.44a1.18,1.18,0,0,0-1-.48c-.91,0-1.32.92-1.32,1.84v.18a1.7,1.7,0,0,1,1.33-.73,1.41,1.41,0,0,1,1.52,1.49,1.53,1.53,0,0,1-1.63,1.53C110,91.93,109.48,90.79,109.48,89.51Zm2.85.91a1,1,0,0,0-1.08-1,1.42,1.42,0,0,0-1.17.69c0,.58.36,1.3,1.17,1.3A1,1,0,0,0,112.33,90.42Z" fill="#fff"/><path d="M113.61,89.51c0-1.14.51-2.41,1.79-2.41s1.78,1.27,1.78,2.41-.51,2.42-1.78,2.42S113.61,90.65,113.61,89.51Zm3,0c0-.93-.3-1.89-1.19-1.89s-1.19,1-1.19,1.89.3,1.9,1.19,1.9S116.59,90.44,116.59,89.51Z" fill="#fff"/><path d="M117.76,88.27a1.13,1.13,0,1,1,2.25,0,1.13,1.13,0,1,1-2.25,0Zm1.83,0a.71.71,0,1,0-1.41,0,.71.71,0,1,0,1.41,0Zm-1.15,3.57,3-4.67h.39l-3,4.67Zm1.75-1.06a1.13,1.13,0,1,1,2.25,0,1.13,1.13,0,1,1-2.25,0Zm1.84,0a.72.72,0,1,0-1.42,0,.71.71,0,1,0,1.42,0Z" fill="#fff"/><path d="M255.87,85.48l-22.4,30.83a38.1,38.1,0,0,1-8.42-53.22,36.94,36.94,0,0,1,30.82-15.7Z" fill="#9dc5ff" stroke="#fff" stroke-linecap="round" stroke-linejoin="round" stroke-width="0.75"/><path d="M255.87,85.48V47.39a38.1,38.1,0,1,1,0,76.19,36.56,36.56,0,0,1-22.4-7.27Z" fill="#0072bb" stroke="#fff" stroke-linecap="round" stroke-linejoin="round" stroke-width="0.75"/><path d="M224.68,88.45V87.26h-2.22v-.48l2-3h.8v3h.66v.51h-.66v1.19Zm0-4.14L223,86.75h1.64Z" fill="#fff"/><path d="M226.5,86.11c0-1.14.5-2.41,1.78-2.41s1.79,1.27,1.79,2.41-.51,2.42-1.79,2.42S226.5,87.25,226.5,86.11Zm3,0c0-.93-.3-1.89-1.19-1.89s-1.19,1-1.19,1.89.3,1.9,1.19,1.9S229.47,87,229.47,86.11Z" fill="#fff"/><path d="M230.64,84.87A1.13,1.13,0,1,1,231.77,86,1.11,1.11,0,0,1,230.64,84.87Zm1.84,0a.72.72,0,1,0-1.42,0,.71.71,0,1,0,1.42,0Zm-1.16,3.58,3-4.68h.4l-3,4.68Zm1.76-1.07a1.13,1.13,0,1,1,1.13,1.15A1.11,1.11,0,0,1,233.08,87.38Zm1.83,0a.72.72,0,0,0-.7-.8.8.8,0,0,0,0,1.59A.72.72,0,0,0,234.91,87.38Z" fill="#fff"/><path d="M275.48,86.11c0-1.26.58-2.41,1.9-2.41a1.62,1.62,0,0,1,1.29.56l-.3.44a1.18,1.18,0,0,0-1-.48c-.91,0-1.32.92-1.32,1.84v.18a1.7,1.7,0,0,1,1.33-.73A1.41,1.41,0,0,1,278.91,87a1.53,1.53,0,0,1-1.63,1.53C276,88.53,275.48,87.39,275.48,86.11Zm2.85.91a1,1,0,0,0-1.08-1,1.43,1.43,0,0,0-1.17.7c.05.58.36,1.3,1.17,1.3A1,1,0,0,0,278.33,87Z" fill="#fff"/><path d="M279.61,86.11c0-1.14.51-2.41,1.79-2.41s1.78,1.27,1.78,2.41-.51,2.42-1.78,2.42S279.61,87.25,279.61,86.11Zm3,0c0-.93-.3-1.89-1.19-1.89s-1.19,1-1.19,1.89.3,1.9,1.19,1.9S282.59,87,282.59,86.11Z" fill="#fff"/><path d="M283.76,84.87a1.13,1.13,0,1,1,2.25,0,1.13,1.13,0,1,1-2.25,0Zm1.83,0a.71.71,0,1,0-1.41,0,.71.71,0,1,0,1.41,0Zm-1.15,3.58,3-4.68h.39l-3,4.68Zm1.75-1.07a1.13,1.13,0,1,1,2.25,0,1.13,1.13,0,1,1-2.25,0Zm1.84,0a.72.72,0,1,0-1.42,0,.71.71,0,1,0,1.42,0Z" fill="#fff"/><path d="M215.47,37.44l-.42-1h-2.32l-.41,1h-.67l1.88-4.67h.73l1.87,4.67Zm-1.58-4.07-1,2.52h2Z" fill="#5e5e5e"/><rect x="202" y="33" width="8" height="5" fill="#0072bb"/><path d="M233.23,37.44V32.77h2.08A1.18,1.18,0,0,1,236.63,34a1.09,1.09,0,0,1-.82,1.08,1.16,1.16,0,0,1,.91,1.14,1.22,1.22,0,0,1-1.36,1.26ZM236,34.05a.74.74,0,0,0-.8-.76h-1.4V34.8h1.4A.72.72,0,0,0,236,34.05Zm.09,2.07a.78.78,0,0,0-.86-.8h-1.43v1.61h1.43A.77.77,0,0,0,236.11,36.12Z" fill="#5e5e5e"/><rect x="223" y="33" width="8" height="5" fill="#9dc5ff"/><circle cx="90" cy="86" r="17" fill="#fff"/><circle cx="256" cy="86" r="17" fill="#fff"/></svg>