<svg xmlns="http://www.w3.org/2000/svg" width="10cm" height="10cm" viewBox="0 0 283.46 283.46"><rect x="0.5" y="0.5" width="282.47" height="282.47" fill="#fff"/><rect width="283.46" height="283.46" fill="#fff"/><path d="M283.46,283.46H0V0H283.46ZM1,282.47H282.47V1H1Z" fill="#e0cb21"/><path d="M141.75,141.73l-107.82,35A113.38,113.38,0,0,1,106.71,33.9a107.82,107.82,0,0,1,35-5.55Z" fill="#fef386" stroke="#fff" stroke-linecap="round" stroke-linejoin="round" fill-rule="evenodd"/><path d="M141.75,141.73,75.11,233.46c-20.26-14.72-33.44-32.87-41.18-56.69Z" fill="#fef386" stroke="#fff" stroke-linecap="round" stroke-linejoin="round" fill-rule="evenodd"/><path d="M141.75,141.73V28.35a113.39,113.39,0,0,1,0,226.77c-25,0-46.38-6.93-66.64-21.66Z" fill="#e0cb21" stroke="#fff" stroke-linecap="round" stroke-linejoin="round" fill-rule="evenodd"/></svg>