<?xml version="1.0" encoding="UTF-8"?><svg id="a" xmlns="http://www.w3.org/2000/svg" width="350" height="148" viewBox="0 0 350 148"><g><rect width="350" height="148" fill="#f1f2f2"/><g><g><path d="M31.92,21.87v-7.33h2.5c2.27,0,3.76,1.59,3.76,3.67s-1.48,3.66-3.76,3.66h-2.5Zm5.32-3.66c0-1.58-1-2.86-2.81-2.86h-1.59v5.7h1.59c1.78,0,2.81-1.27,2.81-2.84Z" fill="#0072bc"/><path d="M39.26,19.21c0-1.54,1.01-2.78,2.63-2.78s2.63,1.24,2.63,2.78-1.01,2.79-2.63,2.79-2.63-1.25-2.63-2.79Zm4.38,0c0-1.08-.63-2.04-1.76-2.04s-1.77,.97-1.77,2.04,.64,2.05,1.77,2.05,1.76-.97,1.76-2.05Z" fill="#0072bc"/></g><g><circle cx="17.55" cy="17.55" r="7.55" fill="#9dc5ff"/><circle cx="17.55" cy="17.55" r="4.8" fill="#0072bc"/><polyline points="14.8 17.55 16.63 19.38 20.29 15.72" fill="none" stroke="#fff" stroke-linecap="round" stroke-linejoin="round" stroke-width=".75"/></g></g><g><g><g><path d="M201.92,21.87v-7.33h2.5c2.27,0,3.76,1.59,3.76,3.67s-1.48,3.66-3.76,3.66h-2.5Zm5.32-3.66c0-1.58-1-2.86-2.81-2.86h-1.59v5.7h1.59c1.78,0,2.81-1.27,2.81-2.85Z" fill="#ef4a60"/><path d="M209.26,19.21c0-1.54,1.01-2.78,2.62-2.78s2.63,1.24,2.63,2.78-1.01,2.79-2.63,2.79-2.62-1.25-2.62-2.79Zm4.38,0c0-1.08-.63-2.04-1.76-2.04s-1.77,.97-1.77,2.04,.64,2.05,1.77,2.05,1.76-.97,1.76-2.05Z" fill="#ef4a60"/><path d="M219.43,21.87v-3.47c0-.93-.47-1.23-1.19-1.23-.65,0-1.26,.4-1.57,.82v3.88h-.82v-5.31h.82v.77c.37-.44,1.1-.9,1.89-.9,1.11,0,1.69,.56,1.69,1.71v3.72h-.82Z" fill="#ef4a60"/><path d="M222.05,16.93l-.41-.34c.35-.23,.67-.67,.71-1.02-.02,.01-.1,.02-.15,.02-.31,0-.53-.23-.53-.56s.25-.59,.58-.59c.36,0,.69,.3,.69,.83,0,.67-.4,1.3-.9,1.66Z" fill="#ef4a60"/><path d="M224.53,20.76v-3.47h-.88v-.73h.88v-1.45h.82v1.45h1.08v.73h-1.08v3.3c0,.4,.18,.68,.54,.68,.23,0,.45-.1,.56-.22l.24,.62c-.21,.2-.51,.34-.99,.34-.78,0-1.18-.45-1.18-1.24Z" fill="#ef4a60"/></g><g><circle cx="187.55" cy="17.55" r="7.55" fill="#ffbcc1"/><circle cx="187.55" cy="17.55" r="4.8" fill="#ef4a60"/></g></g><line x1="189.55" y1="15.55" x2="185.55" y2="19.55" fill="none" stroke="#fff" stroke-linecap="round" stroke-linejoin="round" stroke-width=".75"/><line x1="189.55" y1="19.55" x2="185.55" y2="15.55" fill="none" stroke="#fff" stroke-linecap="round" stroke-linejoin="round" stroke-width=".75"/></g></g><g><path d="M86.77,83.71l-36.23,11.77c-6.5-20.01,4.45-41.51,24.46-48.01,4-1.3,7.56-1.86,11.77-1.86v38.1Z" fill="#0072bb" stroke="#fff" stroke-linecap="round" stroke-linejoin="round" stroke-width=".75"/><path d="M86.77,83.71v38.1c-16.83,0-31.03-10.32-36.23-26.33l36.23-11.77Z" fill="#0072bb" stroke="#fff" stroke-linecap="round" stroke-linejoin="round" stroke-width=".75"/><path d="M86.77,83.71V45.61c21.04,0,38.1,17.06,38.1,38.1s-17.06,38.1-38.1,38.1h0v-38.1Z" fill="#0072bb" stroke="#fff" stroke-linecap="round" stroke-linejoin="round" stroke-width=".75"/></g><g><path d="M99.22,86.96l.41-.44c.35,.45,.82,.7,1.47,.7,.73,0,1.23-.5,1.23-1.14,0-.7-.5-1.15-1.22-1.15-.47,0-.87,.15-1.23,.5l-.49-.17v-2.88h3.26v.59h-2.6v1.85c.26-.26,.71-.48,1.25-.48,.89,0,1.7,.61,1.7,1.7s-.82,1.76-1.9,1.76c-.9,0-1.48-.33-1.88-.86Z" fill="#fff"/><path d="M103.82,85.06c0-1.3,.58-2.75,2.04-2.75s2.04,1.45,2.04,2.75-.58,2.76-2.04,2.76-2.04-1.46-2.04-2.76Zm3.4,0c0-1.06-.34-2.16-1.36-2.16s-1.36,1.09-1.36,2.16,.34,2.17,1.36,2.17,1.36-1.1,1.36-2.17Z" fill="#fff"/><path d="M108.55,83.63c0-.75,.52-1.33,1.28-1.33s1.29,.58,1.29,1.33-.53,1.3-1.29,1.3-1.28-.56-1.28-1.3Zm2.09,0c0-.53-.34-.92-.82-.92s-.8,.39-.8,.92,.33,.9,.8,.9,.82-.4,.82-.9Zm-1.32,4.09l3.41-5.33h.44l-3.41,5.33h-.43Zm2.01-1.21c0-.75,.52-1.33,1.28-1.33s1.29,.58,1.29,1.33-.53,1.3-1.29,1.3-1.28-.56-1.28-1.3Zm2.09,0c0-.53-.34-.92-.82-.92s-.81,.39-.81,.92,.33,.9,.81,.9,.82-.4,.82-.9Z" fill="#fff"/></g><g><path d="M62.18,75.45l.39-.42c.31,.42,.86,.7,1.49,.7,.78,0,1.25-.38,1.25-1,0-.66-.54-.94-1.33-.94-.22,0-.47,0-.55,0v-.61c.09,0,.34,0,.55,0,.67,0,1.24-.26,1.24-.88s-.54-.91-1.19-.91c-.58,0-1.02,.22-1.41,.65l-.37-.42c.38-.46,1-.82,1.82-.82,1.02,0,1.81,.52,1.81,1.42,0,.77-.65,1.15-1.15,1.24,.49,.04,1.23,.46,1.23,1.31s-.71,1.54-1.89,1.54c-.9,0-1.57-.4-1.9-.88Z" fill="#fff"/><path d="M66.81,73.57c0-1.3,.58-2.75,2.04-2.75s2.04,1.45,2.04,2.75-.58,2.76-2.04,2.76-2.04-1.46-2.04-2.76Zm3.4,0c0-1.06-.34-2.16-1.36-2.16s-1.36,1.1-1.36,2.16,.34,2.17,1.36,2.17,1.36-1.1,1.36-2.17Z" fill="#fff"/><path d="M71.55,72.15c0-.75,.52-1.33,1.28-1.33s1.29,.58,1.29,1.33-.53,1.3-1.29,1.3-1.28-.56-1.28-1.3Zm2.09,0c0-.53-.34-.92-.82-.92s-.8,.39-.8,.92,.33,.9,.8,.9,.82-.4,.82-.9Zm-1.32,4.09l3.41-5.33h.44l-3.41,5.33h-.43Zm2.01-1.21c0-.75,.52-1.33,1.28-1.33s1.29,.58,1.29,1.33-.53,1.3-1.29,1.3-1.28-.56-1.28-1.3Zm2.09,0c0-.53-.34-.92-.82-.92s-.81,.39-.81,.92,.33,.9,.81,.9,.82-.4,.82-.9Z" fill="#fff"/></g><g><path d="M66.36,103.64v-.53c1.92-1.51,2.96-2.4,2.96-3.32,0-.68-.56-.97-1.11-.97-.64,0-1.14,.27-1.45,.67l-.41-.42c.41-.54,1.1-.84,1.85-.84,.89,0,1.79,.5,1.79,1.57s-1.1,2.08-2.59,3.25h2.61v.59h-3.66Z" fill="#fff"/><path d="M71.04,100.98c0-1.3,.58-2.75,2.04-2.75s2.04,1.45,2.04,2.75-.58,2.76-2.04,2.76-2.04-1.46-2.04-2.76Zm3.4,0c0-1.06-.34-2.16-1.36-2.16s-1.36,1.09-1.36,2.16,.34,2.17,1.36,2.17,1.36-1.1,1.36-2.17Z" fill="#fff"/><path d="M75.78,99.55c0-.75,.52-1.33,1.28-1.33s1.29,.58,1.29,1.33-.53,1.3-1.29,1.3-1.28-.56-1.28-1.3Zm2.09,0c0-.53-.34-.92-.82-.92s-.8,.39-.8,.92,.33,.9,.8,.9,.82-.4,.82-.9Zm-1.32,4.09l3.41-5.33h.44l-3.41,5.33h-.43Zm2.01-1.21c0-.75,.52-1.33,1.28-1.33s1.29,.58,1.29,1.33-.53,1.3-1.29,1.3-1.28-.56-1.28-1.3Zm2.09,0c0-.53-.34-.92-.82-.92s-.81,.39-.81,.92,.33,.9,.81,.9,.82-.4,.82-.9Z" fill="#fff"/></g><g><path d="M261.77,83.71l-36.23,11.77c-6.5-20.01,4.45-41.51,24.46-48.01,4-1.3,7.56-1.86,11.77-1.86v38.1Z" fill="#0072bb" stroke="#fff" stroke-linecap="round" stroke-linejoin="round" stroke-width=".75"/><path d="M261.77,83.71v38.1c-16.83,0-31.03-10.32-36.23-26.33l36.23-11.77Z" fill="#0072bb" stroke="#fff" stroke-linecap="round" stroke-linejoin="round" stroke-width=".75"/><path d="M261.77,83.71V45.61c21.04,0,38.1,17.06,38.1,38.1s-17.06,38.1-38.1,38.1h0v-38.1Z" fill="#0072bb" stroke="#fff" stroke-linecap="round" stroke-linejoin="round" stroke-width=".75"/></g><g><path d="M276.48,87.72v-1.35h-2.53v-.55l2.29-3.43h.91v3.4h.75v.58h-.75v1.35h-.66Zm0-4.72l-1.87,2.78h1.87v-2.78Z" fill="#fff"/><path d="M278.56,85.06c0-1.3,.58-2.75,2.04-2.75s2.04,1.45,2.04,2.75-.58,2.76-2.04,2.76-2.04-1.46-2.04-2.76Zm3.4,0c0-1.06-.34-2.16-1.36-2.16s-1.36,1.09-1.36,2.16,.34,2.17,1.36,2.17,1.36-1.1,1.36-2.17Z" fill="#fff"/><path d="M283.3,83.63c0-.75,.52-1.33,1.28-1.33s1.29,.58,1.29,1.33-.53,1.3-1.29,1.3-1.28-.56-1.28-1.3Zm2.09,0c0-.53-.34-.92-.82-.92s-.8,.39-.8,.92,.33,.9,.8,.9,.82-.4,.82-.9Zm-1.32,4.09l3.41-5.33h.44l-3.41,5.33h-.43Zm2.01-1.21c0-.75,.52-1.33,1.28-1.33s1.29,.58,1.29,1.33-.53,1.3-1.29,1.3-1.28-.56-1.28-1.3Zm2.09,0c0-.53-.34-.92-.82-.92s-.81,.39-.81,.92,.33,.9,.81,.9,.82-.4,.82-.9Z" fill="#fff"/></g><g><path d="M237.18,75.45l.39-.42c.31,.42,.86,.7,1.49,.7,.78,0,1.25-.38,1.25-1,0-.66-.54-.94-1.33-.94-.22,0-.47,0-.55,0v-.61c.09,0,.34,0,.55,0,.67,0,1.24-.26,1.24-.88s-.54-.91-1.19-.91c-.58,0-1.02,.22-1.41,.65l-.37-.42c.38-.46,1-.82,1.82-.82,1.02,0,1.81,.52,1.81,1.42,0,.77-.65,1.15-1.15,1.24,.49,.04,1.23,.46,1.23,1.31s-.71,1.54-1.89,1.54c-.9,0-1.57-.4-1.9-.88Z" fill="#fff"/><path d="M241.81,73.57c0-1.3,.58-2.75,2.04-2.75s2.04,1.45,2.04,2.75-.58,2.76-2.04,2.76-2.04-1.46-2.04-2.76Zm3.4,0c0-1.06-.34-2.16-1.36-2.16s-1.36,1.1-1.36,2.16,.34,2.17,1.36,2.17,1.36-1.1,1.36-2.17Z" fill="#fff"/><path d="M246.55,72.15c0-.75,.52-1.33,1.28-1.33s1.29,.58,1.29,1.33-.53,1.3-1.29,1.3-1.28-.56-1.28-1.3Zm2.09,0c0-.53-.34-.92-.82-.92s-.8,.39-.8,.92,.33,.9,.8,.9,.82-.4,.82-.9Zm-1.32,4.09l3.41-5.33h.44l-3.41,5.33h-.43Zm2.01-1.21c0-.75,.52-1.33,1.28-1.33s1.29,.58,1.29,1.33-.53,1.3-1.29,1.3-1.28-.56-1.28-1.3Zm2.09,0c0-.53-.34-.92-.82-.92s-.81,.39-.81,.92,.33,.9,.81,.9,.82-.4,.82-.9Z" fill="#fff"/></g><g><path d="M242.36,103.64v-4.45l-.86,.9-.4-.41,1.33-1.38h.58v5.33h-.66Z" fill="#fff"/><path d="M244.05,100.98c0-1.3,.58-2.75,2.04-2.75s2.04,1.45,2.04,2.75-.58,2.76-2.04,2.76-2.04-1.46-2.04-2.76Zm3.4,0c0-1.06-.34-2.16-1.36-2.16s-1.36,1.09-1.36,2.16,.34,2.17,1.36,2.17,1.36-1.1,1.36-2.17Z" fill="#fff"/><path d="M248.79,99.55c0-.75,.52-1.33,1.28-1.33s1.29,.58,1.29,1.33-.53,1.3-1.29,1.3-1.28-.56-1.28-1.3Zm2.09,0c0-.53-.34-.92-.82-.92s-.8,.39-.8,.92,.33,.9,.8,.9,.82-.4,.82-.9Zm-1.32,4.09l3.41-5.33h.44l-3.41,5.33h-.43Zm2.01-1.21c0-.75,.52-1.33,1.28-1.33s1.29,.58,1.29,1.33-.53,1.3-1.29,1.3-1.28-.56-1.28-1.3Zm2.09,0c0-.53-.34-.92-.82-.92s-.81,.39-.81,.92,.33,.9,.81,.9,.82-.4,.82-.9Z" fill="#fff"/></g></svg>