<svg xmlns="http://www.w3.org/2000/svg" width="10cm" height="10cm" viewBox="0 0 283.46 283.46"><rect x="0.5" y="0.5" width="282.47" height="282.47" fill="#fff"/><rect width="283.46" height="283.46" fill="#fff"/><path d="M283.46,283.46H0V0H283.46ZM1,282.47H282.47V1H1Z" transform="translate(0 0)" fill="#e0cb21"/><rect x="28.35" y="189.26" width="32.76" height="65.85" fill="#fef386"/><rect x="93.02" y="119.85" width="32.76" height="69.42" fill="#fef386"/><rect x="157.69" y="28.35" width="32.76" height="91.5" fill="#fef386"/><rect x="222.36" y="28.35" width="32.76" height="226.77" fill="#e0cb21"/><line x1="61.1" y1="189.26" x2="61.1" y2="189.26" fill="none" stroke="#e0cb21" stroke-linecap="round" stroke-linejoin="round" stroke-width="2"/><line x1="64" y1="189.26" x2="91.57" y2="189.26" fill="none" stroke="#e0cb21" stroke-linecap="round" stroke-linejoin="round" stroke-width="2" stroke-dasharray="0 2.9"/><line x1="93.02" y1="189.26" x2="93.02" y2="189.26" fill="none" stroke="#e0cb21" stroke-linecap="round" stroke-linejoin="round" stroke-width="2"/><line x1="125.77" y1="119.85" x2="125.77" y2="119.85" fill="none" stroke="#e0cb21" stroke-linecap="round" stroke-linejoin="round" stroke-width="2"/><line x1="128.68" y1="119.85" x2="156.24" y2="119.85" fill="none" stroke="#e0cb21" stroke-linecap="round" stroke-linejoin="round" stroke-width="2" stroke-dasharray="0 2.9"/><line x1="157.69" y1="119.85" x2="157.69" y2="119.85" fill="none" stroke="#e0cb21" stroke-linecap="round" stroke-linejoin="round" stroke-width="2"/><line x1="190.45" y1="28.35" x2="190.45" y2="28.35" fill="none" stroke="#e0cb21" stroke-linecap="round" stroke-linejoin="round" stroke-width="2"/><line x1="193.35" y1="28.35" x2="220.91" y2="28.35" fill="none" stroke="#e0cb21" stroke-linecap="round" stroke-linejoin="round" stroke-width="2" stroke-dasharray="0 2.9"/><line x1="222.36" y1="28.35" x2="222.36" y2="28.35" fill="none" stroke="#e0cb21" stroke-linecap="round" stroke-linejoin="round" stroke-width="2"/></svg>