<svg xmlns="http://www.w3.org/2000/svg" width="350" height="148" viewBox="0 0 350 148"><rect width="350" height="148" fill="#f1f2f2"/><path d="M31.92,21.87V14.54h2.5a3.56,3.56,0,0,1,3.76,3.67,3.54,3.54,0,0,1-3.76,3.66Zm5.32-3.66a2.69,2.69,0,0,0-2.82-2.86H32.83v5.71h1.59A2.7,2.7,0,0,0,37.24,18.21Z" fill="#0072bc"/><path d="M39.26,19.21a2.63,2.63,0,1,1,5.26,0,2.63,2.63,0,1,1-5.26,0Zm4.39,0a1.78,1.78,0,1,0-3.52,0,1.78,1.78,0,1,0,3.52,0Z" fill="#0072bc"/><circle cx="17.55" cy="17.55" r="7.55" fill="#9dc5ff"/><circle cx="17.55" cy="17.55" r="4.8" fill="#0072bc"/><polyline points="14.8 17.55 16.63 19.38 20.29 15.72" fill="none" stroke="#fff" stroke-linecap="round" stroke-linejoin="round" stroke-width="0.75"/><path d="M201.92,21.87V14.54h2.5a3.56,3.56,0,0,1,3.76,3.67,3.54,3.54,0,0,1-3.76,3.66Zm5.32-3.66a2.69,2.69,0,0,0-2.82-2.86h-1.59v5.71h1.59A2.7,2.7,0,0,0,207.24,18.21Z" fill="#ef4a60"/><path d="M209.27,19.21a2.63,2.63,0,1,1,5.25,0,2.63,2.63,0,1,1-5.25,0Zm4.38,0a1.78,1.78,0,1,0-3.52,0,1.78,1.78,0,1,0,3.52,0Z" fill="#ef4a60"/><path d="M219.44,21.87V18.4c0-.95-.48-1.23-1.19-1.23a2.06,2.06,0,0,0-1.57.82v3.88h-.83V16.56h.83v.77a2.58,2.58,0,0,1,1.9-.9,1.5,1.5,0,0,1,1.68,1.71v3.73Z" fill="#ef4a60"/><path d="M222.07,16.93l-.42-.35a1.65,1.65,0,0,0,.71-1l-.15,0a.53.53,0,0,1-.53-.56.6.6,0,0,1,.59-.59c.37,0,.69.3.69.84A2.14,2.14,0,0,1,222.07,16.93Z" fill="#ef4a60"/><path d="M224.54,20.76V17.29h-.88v-.73h.88V15.11h.83v1.45h1.08v.73h-1.08v3.29c0,.4.18.68.53.68a.75.75,0,0,0,.56-.23l.24.63a1.32,1.32,0,0,1-1,.34A1.08,1.08,0,0,1,224.54,20.76Z" fill="#ef4a60"/><circle cx="187.55" cy="17.55" r="7.55" fill="#ffbcc1"/><circle cx="187.55" cy="17.55" r="4.8" fill="#ef4a60"/><line x1="189.55" y1="15.55" x2="185.55" y2="19.55" fill="none" stroke="#fff" stroke-linecap="round" stroke-linejoin="round" stroke-width="0.75"/><line x1="189.55" y1="19.55" x2="185.55" y2="15.55" fill="none" stroke="#fff" stroke-linecap="round" stroke-linejoin="round" stroke-width="0.75"/><line x1="144.55" y1="120.44" x2="45.52" y2="120.44" fill="none" stroke="#000" stroke-miterlimit="10" stroke-width="0.5"/><line x1="144.55" y1="107.21" x2="45.52" y2="107.21" fill="none" stroke="#d0d2d3" stroke-linecap="round" stroke-linejoin="round" stroke-width="0.25"/><line x1="144.55" y1="93.98" x2="45.52" y2="93.98" fill="none" stroke="#d0d2d3" stroke-linecap="round" stroke-linejoin="round" stroke-width="0.25"/><line x1="144.55" y1="80.76" x2="45.52" y2="80.76" fill="none" stroke="#d0d2d3" stroke-linecap="round" stroke-linejoin="round" stroke-width="0.25"/><line x1="144.55" y1="67.53" x2="45.52" y2="67.53" fill="none" stroke="#d0d2d3" stroke-linecap="round" stroke-linejoin="round" stroke-width="0.25"/><line x1="144.55" y1="54.31" x2="45.52" y2="54.31" fill="none" stroke="#d0d2d3" stroke-linecap="round" stroke-linejoin="round" stroke-width="0.25"/><line x1="144.55" y1="41.08" x2="45.52" y2="41.08" fill="none" stroke="#d0d2d3" stroke-linecap="round" stroke-linejoin="round" stroke-width="0.25"/><rect x="58.51" y="125.24" width="10.03" height="3.15" fill="#bbbdbf"/><rect x="42.51" y="125.24" width="10.03" height="3.15" fill="#bbbdbf"/><rect x="90.51" y="125.24" width="10.03" height="3.15" fill="#bbbdbf"/><rect x="74.51" y="125.24" width="10.03" height="3.15" fill="#bbbdbf"/><rect x="121.51" y="125.24" width="10.03" height="3.15" fill="#bbbdbf"/><rect x="106.51" y="125.24" width="10.03" height="3.15" fill="#bbbdbf"/><rect x="137.65" y="125.24" width="10.03" height="3.15" fill="#bbbdbf"/><polygon points="142.55 48 142.55 120.51 47.55 120.51 47.55 75 62.93 71 79.06 63 94.18 57 111.31 54 127.44 56 142.55 48" fill="#9dc5ff"/><polygon points="142.55 58 142.55 120.51 47.55 120.51 47.55 84.76 62.93 80.45 79.06 73.55 94.18 65.21 111.31 62.17 127.44 66.21 142.55 58" fill="#0072bc"/><path d="M39.7,120.1c0-.93.41-2,1.46-2s1.46,1,1.46,2-.42,2-1.46,2S39.7,121,39.7,120.1Zm2.43,0c0-.76-.24-1.54-1-1.54s-1,.78-1,1.54.25,1.55,1,1.55S42.13,120.87,42.13,120.1Z" fill="#5e5e5e"/><path d="M38.1,109v-1H36.29v-.39l1.64-2.46h.65v2.43h.54V108h-.54v1Zm0-3.38-1.33,2H38.1Z" fill="#5e5e5e"/><path d="M39.7,107.1c0-.93.41-2,1.46-2s1.46,1,1.46,2-.42,2-1.46,2S39.7,108,39.7,107.1Zm2.43,0c0-.76-.24-1.54-1-1.54s-1,.78-1,1.54.25,1.55,1,1.55S42.13,107.87,42.13,107.1Z" fill="#5e5e5e"/><path d="M36.27,95a1.12,1.12,0,0,1,.91-1,1,1,0,0,1-.85-.91c0-.69.67-1,1.3-1s1.32.3,1.32,1a1,1,0,0,1-.86.91A1.12,1.12,0,0,1,39,95c0,.65-.62,1-1.37,1S36.27,95.7,36.27,95ZM38.52,95c0-.5-.65-.71-.89-.74s-.88.24-.88.74.41.66.88.66S38.52,95.4,38.52,95Zm-.06-1.8c0-.4-.37-.63-.83-.63s-.82.23-.82.63.6.62.82.66S38.46,93.65,38.46,93.19Z" fill="#5e5e5e"/><path d="M39.7,94.1c0-.93.41-2,1.46-2s1.46,1,1.46,2-.42,2-1.46,2S39.7,95,39.7,94.1Zm2.43,0c0-.76-.24-1.54-1-1.54s-1,.78-1,1.54.25,1.55,1,1.55S42.13,94.87,42.13,94.1Z" fill="#5e5e5e"/><path d="M34.9,83V79.82l-.61.65L34,80.18l1-1h.42V83Z" fill="#5e5e5e"/><path d="M36.24,83v-.38c1.38-1.08,2.13-1.71,2.13-2.37a.71.71,0,0,0-.8-.7,1.27,1.27,0,0,0-1,.48l-.29-.3a1.63,1.63,0,0,1,1.33-.6,1.16,1.16,0,0,1,1.28,1.12c0,.78-.79,1.49-1.86,2.33h1.88V83Z" fill="#5e5e5e"/><path d="M39.7,81.1c0-.93.41-2,1.46-2s1.46,1,1.46,2-.42,2-1.46,2S39.7,82,39.7,81.1Zm2.43,0c0-.76-.24-1.54-1-1.54s-1,.78-1,1.54.25,1.55,1,1.55S42.13,81.87,42.13,81.1Z" fill="#5e5e5e"/><path d="M34.88,69V65.82l-.61.65L34,66.18l.95-1h.42V69Z" fill="#5e5e5e"/><path d="M36.21,67.1c0-1,.48-2,1.56-2a1.33,1.33,0,0,1,1,.45l-.24.36a1,1,0,0,0-.81-.39c-.75,0-1.08.75-1.08,1.5v.15a1.36,1.36,0,0,1,1.08-.6A1.16,1.16,0,0,1,39,67.83a1.25,1.25,0,0,1-1.33,1.25C36.62,69.08,36.21,68.15,36.21,67.1Zm2.33.75a.8.8,0,0,0-.88-.83,1.16,1.16,0,0,0-.95.57c0,.48.29,1.06.95,1.06A.83.83,0,0,0,38.54,67.85Z" fill="#5e5e5e"/><path d="M39.7,67.1c0-.93.41-2,1.46-2s1.46,1,1.46,2-.42,2-1.46,2S39.7,68,39.7,67.1Zm2.43,0c0-.76-.24-1.54-1-1.54s-1,.78-1,1.54.25,1.55,1,1.55S42.13,67.87,42.13,67.1Z" fill="#5e5e5e"/><path d="M32.63,56v-.38c1.37-1.08,2.12-1.71,2.12-2.37a.71.71,0,0,0-.8-.7,1.26,1.26,0,0,0-1,.48l-.29-.3a1.63,1.63,0,0,1,1.32-.6,1.17,1.17,0,0,1,1.29,1.12c0,.78-.79,1.49-1.86,2.33h1.87V56Z" fill="#5e5e5e"/><path d="M36.09,54.1c0-.93.41-2,1.46-2s1.46,1,1.46,2-.42,2-1.46,2S36.09,55,36.09,54.1Zm2.43,0c0-.76-.24-1.54-1-1.54s-1,.78-1,1.54.24,1.55,1,1.55S38.52,54.87,38.52,54.1Z" fill="#5e5e5e"/><path d="M39.7,54.1c0-.93.41-2,1.46-2s1.46,1,1.46,2-.42,2-1.46,2S39.7,55,39.7,54.1Zm2.43,0c0-.76-.24-1.54-1-1.54s-1,.78-1,1.54.25,1.55,1,1.55S42.13,54.87,42.13,54.1Z" fill="#5e5e5e"/><path d="M32.94,43v-.38c1.37-1.08,2.12-1.71,2.12-2.37a.71.71,0,0,0-.8-.7,1.25,1.25,0,0,0-1,.48l-.3-.3a1.65,1.65,0,0,1,1.33-.6,1.16,1.16,0,0,1,1.28,1.12c0,.78-.79,1.49-1.85,2.33h1.87V43Z" fill="#5e5e5e"/><path d="M38.1,43V42H36.29v-.39l1.64-2.46h.65v2.43h.54V42h-.54v1Zm0-3.38-1.33,2H38.1Z" fill="#5e5e5e"/><path d="M39.7,41.1c0-.93.41-2,1.46-2s1.46,1,1.46,2-.42,2-1.46,2S39.7,42,39.7,41.1Zm2.43,0c0-.76-.24-1.54-1-1.54s-1,.78-1,1.54.25,1.55,1,1.55S42.13,41.87,42.13,41.1Z" fill="#5e5e5e"/><line x1="314.37" y1="120.44" x2="215.33" y2="120.44" fill="none" stroke="#000" stroke-miterlimit="10" stroke-width="0.5"/><line x1="314.37" y1="93.98" x2="215.33" y2="93.98" fill="none" stroke="#d0d2d3" stroke-linecap="round" stroke-linejoin="round" stroke-width="0.25"/><line x1="314.37" y1="67.53" x2="215.33" y2="67.53" fill="none" stroke="#d0d2d3" stroke-linecap="round" stroke-linejoin="round" stroke-width="0.25"/><line x1="314.37" y1="41.08" x2="215.33" y2="41.08" fill="none" stroke="#d0d2d3" stroke-linecap="round" stroke-linejoin="round" stroke-width="0.25"/><rect x="228.33" y="125.24" width="10.03" height="3.15" fill="#bbbdbf"/><rect x="212.33" y="125.24" width="10.03" height="3.15" fill="#bbbdbf"/><rect x="260.33" y="125.24" width="10.03" height="3.15" fill="#bbbdbf"/><rect x="244.33" y="125.24" width="10.03" height="3.15" fill="#bbbdbf"/><rect x="291.33" y="125.24" width="10.03" height="3.15" fill="#bbbdbf"/><rect x="276.33" y="125.24" width="10.03" height="3.15" fill="#bbbdbf"/><rect x="307.47" y="125.24" width="10.03" height="3.15" fill="#bbbdbf"/><polyline points="312.37 120.51 217.37 120.51 217.37 95.14 232.75 87.97 248.88 70.79 263.99 59.71 281.13 53.26 297.25 55.98 312.37 42 312.37 120.51" fill="#9dc5ff"/><polygon points="312.37 62 312.37 120.51 217.37 120.51 217.37 110 232.75 102 248.88 94 263.99 79 281.13 70 297.25 80 312.37 62" fill="#0072bc"/><path d="M204.81,122v-3.19l-.61.65-.29-.29,1-1h.42V122Z" fill="#5e5e5e"/><path d="M206,120.1c0-.93.41-2,1.46-2s1.46,1,1.46,2-.42,2-1.46,2S206,121,206,120.1Zm2.43,0c0-.76-.24-1.54-1-1.54s-1,.78-1,1.54.24,1.55,1,1.55S208.45,120.87,208.45,120.1Z" fill="#5e5e5e"/><path d="M209.52,120.1c0-.93.41-2,1.46-2s1.46,1,1.46,2-.42,2-1.46,2S209.52,121,209.52,120.1Zm2.43,0c0-.76-.24-1.54-1-1.54s-1,.78-1,1.54.24,1.55,1,1.55S212,120.87,212,120.1Z" fill="#5e5e5e"/><path d="M205.12,96V92.82l-.61.65-.29-.29,1-1h.41V96Z" fill="#5e5e5e"/><path d="M208,96V95h-1.82v-.39l1.64-2.46h.65v2.43h.54V95h-.54v1Zm0-3.38-1.34,2H208Z" fill="#5e5e5e"/><path d="M209.52,94.1c0-.93.41-2,1.46-2s1.46,1,1.46,2-.42,2-1.46,2S209.52,95,209.52,94.1Zm2.43,0c0-.76-.24-1.54-1-1.54s-1,.78-1,1.54.24,1.55,1,1.55S212,94.87,212,94.1Z" fill="#5e5e5e"/><path d="M205,69V65.82l-.61.65-.29-.29,1-1h.42V69Z" fill="#5e5e5e"/><path d="M206.2,68a1.12,1.12,0,0,1,.91-1,1,1,0,0,1-.85-.91c0-.69.67-1,1.31-1s1.31.3,1.31,1A1,1,0,0,1,208,67a1.12,1.12,0,0,1,.91,1c0,.65-.61,1-1.36,1S206.2,68.69,206.2,68Zm2.25-.05c0-.5-.65-.71-.88-.74s-.89.24-.89.74.41.66.89.66S208.45,68.4,208.45,68Zm0-1.8c0-.4-.38-.63-.83-.63s-.83.23-.83.63.6.62.83.66S208.4,66.65,208.4,66.19Z" fill="#5e5e5e"/><path d="M209.52,67.1c0-.93.41-2,1.46-2s1.46,1,1.46,2-.42,2-1.46,2S209.52,68,209.52,67.1Zm2.43,0c0-.76-.24-1.54-1-1.54s-1,.78-1,1.54.24,1.55,1,1.55S212,67.87,212,67.1Z" fill="#5e5e5e"/><path d="M202.81,43v-.38c1.38-1.08,2.13-1.71,2.13-2.37a.72.72,0,0,0-.8-.7,1.27,1.27,0,0,0-1,.48l-.29-.3a1.63,1.63,0,0,1,1.33-.6,1.16,1.16,0,0,1,1.28,1.12c0,.78-.79,1.49-1.86,2.33h1.88V43Z" fill="#5e5e5e"/><path d="M206.18,43v-.38c1.37-1.08,2.12-1.71,2.12-2.37a.72.72,0,0,0-.8-.7,1.28,1.28,0,0,0-1,.48l-.29-.3a1.63,1.63,0,0,1,1.33-.6,1.16,1.16,0,0,1,1.28,1.12c0,.78-.79,1.49-1.85,2.33h1.87V43Z" fill="#5e5e5e"/><path d="M209.52,41.1c0-.93.41-2,1.46-2s1.46,1,1.46,2-.42,2-1.46,2S209.52,42,209.52,41.1Zm2.43,0c0-.76-.24-1.54-1-1.54s-1,.78-1,1.54.24,1.55,1,1.55S212,41.87,212,41.1Z" fill="#5e5e5e"/></svg>