<svg xmlns="http://www.w3.org/2000/svg" width="350" height="148" viewBox="0 0 350 148"><rect width="350" height="148" fill="#f1f2f2"/><path d="M31.92,21.87V14.54h2.5a3.56,3.56,0,0,1,3.76,3.67,3.54,3.54,0,0,1-3.76,3.66Zm5.32-3.66a2.69,2.69,0,0,0-2.82-2.86H32.83v5.71h1.59A2.7,2.7,0,0,0,37.24,18.21Z" fill="#0072bc"/><path d="M39.26,19.21a2.63,2.63,0,1,1,5.26,0,2.63,2.63,0,1,1-5.26,0Zm4.39,0a1.78,1.78,0,1,0-3.52,0,1.78,1.78,0,1,0,3.52,0Z" fill="#0072bc"/><circle cx="17.55" cy="17.55" r="7.55" fill="#9dc5ff"/><circle cx="17.55" cy="17.55" r="4.8" fill="#0072bc"/><polyline points="14.8 17.55 16.63 19.38 20.29 15.72" fill="none" stroke="#fff" stroke-linecap="round" stroke-linejoin="round" stroke-width="0.75"/><path d="M201.92,21.87V14.54h2.5a3.56,3.56,0,0,1,3.76,3.67,3.54,3.54,0,0,1-3.76,3.66Zm5.32-3.66a2.69,2.69,0,0,0-2.82-2.86h-1.59v5.71h1.59A2.7,2.7,0,0,0,207.24,18.21Z" fill="#ef4a60"/><path d="M209.26,19.21a2.63,2.63,0,1,1,5.26,0,2.63,2.63,0,1,1-5.26,0Zm4.39,0a1.78,1.78,0,1,0-3.52,0,1.78,1.78,0,1,0,3.52,0Z" fill="#ef4a60"/><path d="M219.44,21.87V18.4c0-.95-.48-1.23-1.19-1.23a2.06,2.06,0,0,0-1.57.82v3.88h-.83V16.56h.83v.77a2.58,2.58,0,0,1,1.9-.9,1.5,1.5,0,0,1,1.68,1.71v3.73Z" fill="#ef4a60"/><path d="M222.07,16.93l-.42-.35a1.65,1.65,0,0,0,.71-1l-.15,0a.53.53,0,0,1-.53-.56.6.6,0,0,1,.58-.59c.38,0,.7.3.7.84A2.14,2.14,0,0,1,222.07,16.93Z" fill="#ef4a60"/><path d="M224.54,20.76V17.29h-.88v-.73h.88V15.11h.83v1.45h1.08v.73h-1.08v3.29c0,.4.18.68.53.68a.75.75,0,0,0,.56-.23l.24.63a1.32,1.32,0,0,1-1,.34A1.08,1.08,0,0,1,224.54,20.76Z" fill="#ef4a60"/><circle cx="187.55" cy="17.55" r="7.55" fill="#ffbcc1"/><circle cx="187.55" cy="17.55" r="4.8" fill="#ef4a60"/><line x1="189.55" y1="15.55" x2="185.55" y2="19.55" fill="none" stroke="#fff" stroke-linecap="round" stroke-linejoin="round" stroke-width="0.75"/><line x1="189.55" y1="19.55" x2="185.55" y2="15.55" fill="none" stroke="#fff" stroke-linecap="round" stroke-linejoin="round" stroke-width="0.75"/><line x1="144.96" y1="120.44" x2="45.92" y2="120.44" fill="none" stroke="#000" stroke-miterlimit="10" stroke-width="0.5"/><line x1="144.96" y1="107.21" x2="45.92" y2="107.21" fill="none" stroke="#d0d2d3" stroke-linecap="round" stroke-linejoin="round" stroke-width="0.25"/><line x1="144.96" y1="93.98" x2="45.92" y2="93.98" fill="none" stroke="#d0d2d3" stroke-linecap="round" stroke-linejoin="round" stroke-width="0.25"/><line x1="144.96" y1="80.76" x2="45.92" y2="80.76" fill="none" stroke="#d0d2d3" stroke-linecap="round" stroke-linejoin="round" stroke-width="0.25"/><line x1="144.96" y1="67.53" x2="45.92" y2="67.53" fill="none" stroke="#d0d2d3" stroke-linecap="round" stroke-linejoin="round" stroke-width="0.25"/><line x1="144.96" y1="54.31" x2="45.92" y2="54.31" fill="none" stroke="#d0d2d3" stroke-linecap="round" stroke-linejoin="round" stroke-width="0.25"/><line x1="144.96" y1="41.08" x2="45.92" y2="41.08" fill="none" stroke="#d0d2d3" stroke-linecap="round" stroke-linejoin="round" stroke-width="0.25"/><rect x="58.92" y="125.24" width="10.03" height="3.15" fill="#bbbdbf"/><rect x="42.92" y="125.24" width="10.03" height="3.15" fill="#bbbdbf"/><rect x="31.92" y="119.24" width="10.03" height="3.15" fill="#bbbdbf"/><rect x="31.92" y="106.24" width="10.03" height="3.15" fill="#bbbdbf"/><rect x="31.92" y="93.24" width="10.03" height="3.15" fill="#bbbdbf"/><rect x="31.92" y="80.24" width="10.03" height="3.15" fill="#bbbdbf"/><rect x="31.92" y="66.24" width="10.03" height="3.15" fill="#bbbdbf"/><rect x="31.92" y="53.24" width="10.03" height="3.15" fill="#bbbdbf"/><rect x="31.92" y="39.24" width="10.03" height="3.15" fill="#bbbdbf"/><rect x="90.92" y="125.24" width="10.03" height="3.15" fill="#bbbdbf"/><rect x="74.92" y="125.24" width="10.03" height="3.15" fill="#bbbdbf"/><rect x="121.92" y="125.24" width="10.03" height="3.15" fill="#bbbdbf"/><rect x="106.92" y="125.24" width="10.03" height="3.15" fill="#bbbdbf"/><rect x="138.05" y="125.24" width="10.03" height="3.15" fill="#bbbdbf"/><polygon points="142.96 48.49 142.96 121 47.96 121 47.96 75.49 63.34 71.49 79.46 63.49 94.58 57.49 111.71 54.49 127.84 56.49 142.96 48.49" fill="#9dc5ff"/><polygon points="142.96 58.49 142.96 121 47.96 121 47.96 85.25 63.34 80.94 79.46 74.05 94.58 65.7 111.71 62.67 127.84 66.7 142.96 58.49" fill="#0072bc"/><polygon points="142.96 73 142.96 121 47.96 121 47.96 93.55 63.34 90.24 79.46 84.94 94.58 78.53 111.71 76.2 127.84 79.3 142.96 73" fill="#18375f"/><line x1="314.96" y1="120.44" x2="215.92" y2="120.44" fill="none" stroke="#000" stroke-miterlimit="10" stroke-width="0.5"/><line x1="314.96" y1="107.21" x2="215.92" y2="107.21" fill="none" stroke="#d0d2d3" stroke-linecap="round" stroke-linejoin="round" stroke-width="0.25"/><line x1="314.96" y1="93.98" x2="215.92" y2="93.98" fill="none" stroke="#d0d2d3" stroke-linecap="round" stroke-linejoin="round" stroke-width="0.25"/><line x1="314.96" y1="80.76" x2="215.92" y2="80.76" fill="none" stroke="#d0d2d3" stroke-linecap="round" stroke-linejoin="round" stroke-width="0.25"/><line x1="314.96" y1="67.53" x2="215.92" y2="67.53" fill="none" stroke="#d0d2d3" stroke-linecap="round" stroke-linejoin="round" stroke-width="0.25"/><line x1="314.96" y1="54.31" x2="215.92" y2="54.31" fill="none" stroke="#d0d2d3" stroke-linecap="round" stroke-linejoin="round" stroke-width="0.25"/><line x1="314.96" y1="41.08" x2="215.92" y2="41.08" fill="none" stroke="#d0d2d3" stroke-linecap="round" stroke-linejoin="round" stroke-width="0.25"/><rect x="228.92" y="125.24" width="10.03" height="3.15" fill="#bbbdbf"/><rect x="212.92" y="125.24" width="10.03" height="3.15" fill="#bbbdbf"/><rect x="201.92" y="119.24" width="10.03" height="3.15" fill="#bbbdbf"/><rect x="201.92" y="106.24" width="10.03" height="3.15" fill="#bbbdbf"/><rect x="201.92" y="93.24" width="10.03" height="3.15" fill="#bbbdbf"/><rect x="201.92" y="80.24" width="10.03" height="3.15" fill="#bbbdbf"/><rect x="201.92" y="66.24" width="10.03" height="3.15" fill="#bbbdbf"/><rect x="201.92" y="53.24" width="10.03" height="3.15" fill="#bbbdbf"/><rect x="201.92" y="39.24" width="10.03" height="3.15" fill="#bbbdbf"/><rect x="260.92" y="125.24" width="10.03" height="3.15" fill="#bbbdbf"/><rect x="244.92" y="125.24" width="10.03" height="3.15" fill="#bbbdbf"/><rect x="291.92" y="125.24" width="10.03" height="3.15" fill="#bbbdbf"/><rect x="276.92" y="125.24" width="10.03" height="3.15" fill="#bbbdbf"/><rect x="308.05" y="125.24" width="10.03" height="3.15" fill="#bbbdbf"/><polygon points="312.96 48.49 312.96 121 217.96 121 217.96 75.49 233.34 71.49 249.46 63.49 264.58 57.49 281.71 54.49 297.84 56.49 312.96 48.49" fill="#9dc5ff" opacity="0.4"/><polygon points="312.96 58.49 312.96 121 217.96 121 217.96 85.25 233.34 80.94 249.46 74.05 264.58 65.7 281.71 62.67 297.84 66.7 312.96 58.49" fill="#0072bc" opacity="0.4"/><polygon points="312.96 73 312.96 121 217.96 121 217.96 93.55 233.34 90.24 249.46 84.94 264.58 78.53 281.71 76.2 297.84 79.3 312.96 73" fill="#18375f" opacity="0.4"/></svg>