<svg xmlns="http://www.w3.org/2000/svg" width="350" height="148" viewBox="0 0 350 148"><rect width="350" height="148" fill="#f1f2f2"/><path d="M31.92,21.87V14.54h2.5a3.56,3.56,0,0,1,3.76,3.67,3.54,3.54,0,0,1-3.76,3.66Zm5.32-3.66a2.69,2.69,0,0,0-2.82-2.86H32.83v5.71h1.59A2.7,2.7,0,0,0,37.24,18.21Z" fill="#0072bc"/><path d="M39.26,19.21a2.63,2.63,0,1,1,5.26,0,2.63,2.63,0,1,1-5.26,0Zm4.39,0a1.78,1.78,0,1,0-3.52,0,1.78,1.78,0,1,0,3.52,0Z" fill="#0072bc"/><circle cx="17.55" cy="17.55" r="7.55" fill="#9dc5ff"/><circle cx="17.55" cy="17.55" r="4.8" fill="#0072bc"/><polyline points="14.8 17.55 16.63 19.38 20.29 15.72" fill="none" stroke="#fff" stroke-linecap="round" stroke-linejoin="round" stroke-width="0.75"/><path d="M201.92,21.87V14.54h2.5a3.56,3.56,0,0,1,3.76,3.67,3.54,3.54,0,0,1-3.76,3.66Zm5.32-3.66a2.69,2.69,0,0,0-2.82-2.86h-1.59v5.71h1.59A2.7,2.7,0,0,0,207.24,18.21Z" fill="#ef4a60"/><path d="M209.26,19.21a2.63,2.63,0,1,1,5.26,0,2.63,2.63,0,1,1-5.26,0Zm4.39,0a1.78,1.78,0,1,0-3.52,0,1.78,1.78,0,1,0,3.52,0Z" fill="#ef4a60"/><path d="M219.44,21.87V18.4c0-.95-.48-1.23-1.19-1.23a2.06,2.06,0,0,0-1.57.82v3.88h-.83V16.56h.83v.77a2.58,2.58,0,0,1,1.9-.9,1.5,1.5,0,0,1,1.68,1.71v3.73Z" fill="#ef4a60"/><path d="M222.07,16.93l-.42-.35a1.65,1.65,0,0,0,.71-1l-.15,0a.53.53,0,0,1-.53-.56.6.6,0,0,1,.58-.59c.38,0,.7.3.7.84A2.14,2.14,0,0,1,222.07,16.93Z" fill="#ef4a60"/><path d="M224.54,20.76V17.29h-.88v-.73h.88V15.11h.83v1.45h1.08v.73h-1.08v3.29c0,.4.18.68.53.68a.75.75,0,0,0,.56-.23l.24.63a1.32,1.32,0,0,1-1,.34A1.08,1.08,0,0,1,224.54,20.76Z" fill="#ef4a60"/><circle cx="187.55" cy="17.55" r="7.55" fill="#ffbcc1"/><circle cx="187.55" cy="17.55" r="4.8" fill="#ef4a60"/><line x1="189.55" y1="15.55" x2="185.55" y2="19.55" fill="none" stroke="#fff" stroke-linecap="round" stroke-linejoin="round" stroke-width="0.75"/><line x1="189.55" y1="19.55" x2="185.55" y2="15.55" fill="none" stroke="#fff" stroke-linecap="round" stroke-linejoin="round" stroke-width="0.75"/><line x1="146.36" y1="122" x2="33.33" y2="122" fill="none" stroke="#000" stroke-miterlimit="10" stroke-width="0.5"/><rect x="53.32" y="125.24" width="10.03" height="3.15" fill="#bbbdbf"/><rect x="37.32" y="125.24" width="10.03" height="3.15" fill="#bbbdbf"/><rect x="85.32" y="125.24" width="10.03" height="3.15" fill="#bbbdbf"/><rect x="69.32" y="125.24" width="10.03" height="3.15" fill="#bbbdbf"/><rect x="116.32" y="125.24" width="10.03" height="3.15" fill="#bbbdbf"/><rect x="101.32" y="125.24" width="10.03" height="3.15" fill="#bbbdbf"/><rect x="132.46" y="125.24" width="10.03" height="3.15" fill="#bbbdbf"/><rect x="36.11" y="87.57" width="5.5" height="34.43" fill="#0072bc"/><rect x="52.11" y="82.55" width="5.5" height="39.45" fill="#0072bc"/><rect x="68.11" y="74.66" width="5.5" height="47.34" fill="#0072bc"/><rect x="84.11" y="62.82" width="5.5" height="59.18" fill="#0072bc"/><rect x="100.11" y="55.92" width="5.5" height="66.08" fill="#0072bc"/><rect x="116.11" y="63" width="5.5" height="59" fill="#0072bc"/><rect x="132.11" y="47" width="5.5" height="75" fill="#0072bc"/><rect x="42.11" y="98" width="5.5" height="24" fill="#9dc5ff"/><rect x="58.11" y="92" width="5.5" height="30" fill="#9dc5ff"/><rect x="74.11" y="85" width="5.5" height="37" fill="#9dc5ff"/><rect x="90.11" y="76" width="5.5" height="46" fill="#9dc5ff"/><rect x="106.11" y="63" width="5.5" height="59" fill="#9dc5ff"/><rect x="122.11" y="69" width="5.5" height="53" fill="#9dc5ff"/><rect x="138.11" y="59" width="5.5" height="63" fill="#9dc5ff"/><path d="M37.42,85.09a1.53,1.53,0,0,1-.49-.07,1.15,1.15,0,0,1-.38-.2,1,1,0,0,1-.25-.32,1,1,0,0,1-.09-.43.88.88,0,0,1,.18-.57,1,1,0,0,1,.52-.31.82.82,0,0,1-.57-.82.8.8,0,0,1,.08-.37.89.89,0,0,1,.22-.3,1,1,0,0,1,.34-.2,1.42,1.42,0,0,1,.88,0,1.19,1.19,0,0,1,.35.2,1.29,1.29,0,0,1,.22.3.94.94,0,0,1,.07.37.82.82,0,0,1-.14.5.89.89,0,0,1-.43.32,1,1,0,0,1,.52.31.88.88,0,0,1,.18.57,1,1,0,0,1-.09.43,1,1,0,0,1-.25.32,1.06,1.06,0,0,1-.38.2A1.53,1.53,0,0,1,37.42,85.09Zm0-.35a1.07,1.07,0,0,0,.32,0,.59.59,0,0,0,.23-.14.8.8,0,0,0,.15-.21.82.82,0,0,0,0-.59.51.51,0,0,0-.17-.21.7.7,0,0,0-.24-.13,1.32,1.32,0,0,0-.56,0,.7.7,0,0,0-.24.13.49.49,0,0,0-.16.21.63.63,0,0,0-.07.32.76.76,0,0,0,0,.27.8.8,0,0,0,.15.21.63.63,0,0,0,.24.14A1,1,0,0,0,37.42,84.74Zm0-1.72a.67.67,0,0,0,.3-.06.48.48,0,0,0,.2-.14.49.49,0,0,0,.11-.2.67.67,0,0,0,0-.24.85.85,0,0,0,0-.23.67.67,0,0,0-.12-.2,1.07,1.07,0,0,0-.21-.13,1,1,0,0,0-.56,0,.77.77,0,0,0-.2.13.53.53,0,0,0-.13.2.85.85,0,0,0,0,.23,1,1,0,0,0,0,.24.49.49,0,0,0,.11.2.48.48,0,0,0,.2.14A.7.7,0,0,0,37.42,83Z" fill="#5e5e5e"/><path d="M41.62,83.26a2.83,2.83,0,0,1-.1.82,1.68,1.68,0,0,1-.27.57,1.1,1.1,0,0,1-.42.33,1.24,1.24,0,0,1-1,0,1.07,1.07,0,0,1-.41-.33,1.69,1.69,0,0,1-.28-.57,3.37,3.37,0,0,1,0-1.63,1.69,1.69,0,0,1,.28-.57,1.1,1.1,0,0,1,.41-.34,1.24,1.24,0,0,1,1,0,1.13,1.13,0,0,1,.42.34,1.68,1.68,0,0,1,.27.57A2.8,2.8,0,0,1,41.62,83.26Zm-.46,0a2.77,2.77,0,0,0-.07-.69,1.32,1.32,0,0,0-.18-.45.76.76,0,0,0-.27-.24.71.71,0,0,0-.32-.07.74.74,0,0,0-.32.07.66.66,0,0,0-.26.24,1.56,1.56,0,0,0-.19.45,3.34,3.34,0,0,0-.07.69,3.19,3.19,0,0,0,.07.69,1.35,1.35,0,0,0,.19.45.66.66,0,0,0,.26.24.76.76,0,0,0,.32.08.72.72,0,0,0,.32-.08.76.76,0,0,0,.27-.24,1.17,1.17,0,0,0,.18-.45A2.66,2.66,0,0,0,41.16,83.26Z" fill="#5e5e5e"/><path d="M44.6,93.86a1.14,1.14,0,0,1,.41.07,1,1,0,0,1,.33.21.86.86,0,0,1,.23.33,1.11,1.11,0,0,1,.09.46,1.22,1.22,0,0,1-.09.46,1.34,1.34,0,0,1-.25.37,1.28,1.28,0,0,1-.39.24,1.35,1.35,0,0,1-.5.09,1.53,1.53,0,0,1-.49-.08,1,1,0,0,1-.37-.25.88.88,0,0,1-.24-.38,1.32,1.32,0,0,1,0-1,2.44,2.44,0,0,1,.33-.57l.91-1.22a.21.21,0,0,1,.1-.08.32.32,0,0,1,.14,0h.39L44,94a1,1,0,0,1,.28-.13A1.27,1.27,0,0,1,44.6,93.86ZM43.67,95a1,1,0,0,0,0,.31.87.87,0,0,0,.15.25.63.63,0,0,0,.23.16.83.83,0,0,0,.32,0,1.14,1.14,0,0,0,.33,0,1.07,1.07,0,0,0,.25-.16.89.89,0,0,0,.16-.25.94.94,0,0,0,.05-.3,1.07,1.07,0,0,0-.05-.32A.78.78,0,0,0,45,94.4a1,1,0,0,0-.24-.15,1,1,0,0,0-.31,0,.83.83,0,0,0-.32.06.89.89,0,0,0-.25.16.61.61,0,0,0-.15.24A.75.75,0,0,0,43.67,95Z" fill="#5e5e5e"/><path d="M48.62,94.26a2.83,2.83,0,0,1-.1.82,1.68,1.68,0,0,1-.27.57,1.1,1.1,0,0,1-.42.33,1.24,1.24,0,0,1-1,0,1.07,1.07,0,0,1-.41-.33,1.69,1.69,0,0,1-.28-.57,3.37,3.37,0,0,1,0-1.63,1.69,1.69,0,0,1,.28-.57,1.1,1.1,0,0,1,.41-.34,1.24,1.24,0,0,1,1,0,1.13,1.13,0,0,1,.42.34,1.68,1.68,0,0,1,.27.57A2.8,2.8,0,0,1,48.62,94.26Zm-.46,0a2.77,2.77,0,0,0-.07-.69,1.32,1.32,0,0,0-.18-.45.76.76,0,0,0-.27-.24.71.71,0,0,0-.32-.07.74.74,0,0,0-.32.07.66.66,0,0,0-.26.24,1.56,1.56,0,0,0-.19.45,3.34,3.34,0,0,0-.07.69,3.19,3.19,0,0,0,.07.69,1.35,1.35,0,0,0,.19.45.66.66,0,0,0,.26.24.76.76,0,0,0,.32.08.72.72,0,0,0,.32-.08.76.76,0,0,0,.27-.24,1.17,1.17,0,0,0,.18-.45A2.66,2.66,0,0,0,48.16,94.26Z" fill="#5e5e5e"/><path d="M59.6,86.86a1.14,1.14,0,0,1,.41.07,1,1,0,0,1,.33.21.86.86,0,0,1,.23.33,1.11,1.11,0,0,1,.09.46,1.22,1.22,0,0,1-.09.46,1.34,1.34,0,0,1-.25.37,1.28,1.28,0,0,1-.39.24,1.35,1.35,0,0,1-.5.09,1.53,1.53,0,0,1-.49-.08,1,1,0,0,1-.37-.25.88.88,0,0,1-.24-.38,1.32,1.32,0,0,1,0-1,2.44,2.44,0,0,1,.33-.57l.91-1.22a.21.21,0,0,1,.1-.08.32.32,0,0,1,.14,0h.39L59,87a1,1,0,0,1,.28-.13A1.27,1.27,0,0,1,59.6,86.86ZM58.67,88a1,1,0,0,0,0,.31.87.87,0,0,0,.15.25.63.63,0,0,0,.23.16.83.83,0,0,0,.32,0,1.14,1.14,0,0,0,.33,0,1.07,1.07,0,0,0,.25-.16.89.89,0,0,0,.16-.25.94.94,0,0,0,.05-.3,1.07,1.07,0,0,0-.05-.32A.78.78,0,0,0,60,87.4a1,1,0,0,0-.24-.15,1,1,0,0,0-.31,0,.83.83,0,0,0-.32.06.89.89,0,0,0-.25.16.61.61,0,0,0-.15.24A.75.75,0,0,0,58.67,88Z" fill="#5e5e5e"/><path d="M63.32,85.67a.2.2,0,0,1-.06.15.28.28,0,0,1-.2.06H61.93l-.16.94a2.43,2.43,0,0,1,.51-.06,1.28,1.28,0,0,1,.5.09,1.09,1.09,0,0,1,.36.22,1,1,0,0,1,.22.35,1.43,1.43,0,0,1,.07.43,1.19,1.19,0,0,1-.1.51,1.23,1.23,0,0,1-.27.39,1.36,1.36,0,0,1-.41.26,1.7,1.7,0,0,1-.51.08,1.39,1.39,0,0,1-.3,0L61.57,89l-.24-.12-.19-.14.14-.19a.13.13,0,0,1,.12-.07.19.19,0,0,1,.11,0l.15.09a.93.93,0,0,0,.22.08.79.79,0,0,0,.28,0,.9.9,0,0,0,.34-.06.78.78,0,0,0,.26-.17.72.72,0,0,0,.16-.27.93.93,0,0,0,.06-.34,1,1,0,0,0,0-.31.57.57,0,0,0-.15-.23.63.63,0,0,0-.24-.14,1,1,0,0,0-.35-.06l-.28,0a1.63,1.63,0,0,0-.3.07l-.28-.08.29-1.68h1.7Z" fill="#5e5e5e"/><path d="M77.68,79.47v.2a.57.57,0,0,1,0,.14l0,.09-1.49,3a.31.31,0,0,1-.09.11.22.22,0,0,1-.15,0h-.32l1.51-3,.06-.12.08-.1H75.36a.1.1,0,0,1-.11-.11v-.3Z" fill="#5e5e5e"/><path d="M80.32,79.67a.2.2,0,0,1-.06.15.28.28,0,0,1-.2.06H78.93l-.16.94a2.43,2.43,0,0,1,.51-.06,1.28,1.28,0,0,1,.5.09,1.09,1.09,0,0,1,.36.22,1,1,0,0,1,.22.35,1.43,1.43,0,0,1,.07.43,1.19,1.19,0,0,1-.1.51,1.23,1.23,0,0,1-.27.39,1.36,1.36,0,0,1-.41.26,1.7,1.7,0,0,1-.51.08,1.39,1.39,0,0,1-.3,0L78.57,83l-.24-.12-.19-.14.14-.19a.13.13,0,0,1,.12-.07.19.19,0,0,1,.11,0l.15.09a.93.93,0,0,0,.22.08.79.79,0,0,0,.28,0,.9.9,0,0,0,.34-.06.78.78,0,0,0,.26-.17.72.72,0,0,0,.16-.27.93.93,0,0,0,.06-.34,1,1,0,0,0,0-.31.57.57,0,0,0-.15-.23.63.63,0,0,0-.24-.14,1,1,0,0,0-.35-.06l-.28,0a1.63,1.63,0,0,0-.3.07l-.28-.08.29-1.68h1.7Z" fill="#5e5e5e"/><path d="M92.35,72.58a1.23,1.23,0,0,1-.39-.06,1.32,1.32,0,0,1-.32-.2,1.12,1.12,0,0,1-.22-.33,1.14,1.14,0,0,1-.08-.43,1,1,0,0,1,.09-.44,1,1,0,0,1,.25-.36,1.18,1.18,0,0,1,.37-.24,1.28,1.28,0,0,1,.48-.09,1.19,1.19,0,0,1,.47.09,1,1,0,0,1,.36.23,1.16,1.16,0,0,1,.23.37,1.4,1.4,0,0,1,.08.47,1.36,1.36,0,0,1,0,.29,2.76,2.76,0,0,1-.08.27,1.74,1.74,0,0,1-.14.27c0,.08-.1.17-.17.27L92.38,74a.16.16,0,0,1-.09.07.32.32,0,0,1-.14,0h-.41l1.09-1.42.1-.14.09-.13a1,1,0,0,1-.31.17A1.42,1.42,0,0,1,92.35,72.58Zm.89-1a1,1,0,0,0,0-.31.67.67,0,0,0-.38-.38.88.88,0,0,0-.29,0,.73.73,0,0,0-.3.06A.51.51,0,0,0,92,71a.86.86,0,0,0-.15.22.93.93,0,0,0,0,.29.75.75,0,0,0,0,.31.6.6,0,0,0,.36.36.71.71,0,0,0,.29,0,.79.79,0,0,0,.32-.06.82.82,0,0,0,.24-.15.68.68,0,0,0,.14-.23A.75.75,0,0,0,93.24,71.54Z" fill="#5e5e5e"/><path d="M96.32,70.67a.2.2,0,0,1-.06.15.28.28,0,0,1-.2.06H94.93l-.16.94a2.43,2.43,0,0,1,.51-.06,1.28,1.28,0,0,1,.5.09,1.09,1.09,0,0,1,.36.22,1,1,0,0,1,.22.35,1.43,1.43,0,0,1,.07.43,1.19,1.19,0,0,1-.1.51,1.23,1.23,0,0,1-.27.39,1.36,1.36,0,0,1-.41.26,1.7,1.7,0,0,1-.51.08,1.39,1.39,0,0,1-.3,0L94.57,74l-.24-.12-.19-.14.14-.19a.13.13,0,0,1,.12-.07.19.19,0,0,1,.11,0l.15.09a.93.93,0,0,0,.22.08.79.79,0,0,0,.28,0,.9.9,0,0,0,.34-.06.78.78,0,0,0,.26-.17.72.72,0,0,0,.16-.27.93.93,0,0,0,.06-.34,1,1,0,0,0,0-.31.57.57,0,0,0-.15-.23.63.63,0,0,0-.24-.14,1,1,0,0,0-.35-.06l-.28,0a1.09,1.09,0,0,0-.3.07l-.28-.08.29-1.68h1.7Z" fill="#5e5e5e"/><path d="M53.42,80.09a1.53,1.53,0,0,1-.49-.07,1.15,1.15,0,0,1-.38-.2,1,1,0,0,1-.25-.32,1,1,0,0,1-.09-.43.88.88,0,0,1,.18-.57,1,1,0,0,1,.52-.31.82.82,0,0,1-.57-.82.8.8,0,0,1,.08-.37.89.89,0,0,1,.22-.3,1,1,0,0,1,.34-.2,1.42,1.42,0,0,1,.88,0,1.19,1.19,0,0,1,.35.2,1.29,1.29,0,0,1,.22.3.94.94,0,0,1,.07.37.82.82,0,0,1-.14.5.89.89,0,0,1-.43.32,1,1,0,0,1,.52.31.88.88,0,0,1,.18.57,1,1,0,0,1-.09.43,1,1,0,0,1-.25.32,1.06,1.06,0,0,1-.38.2A1.53,1.53,0,0,1,53.42,80.09Zm0-.35a1.07,1.07,0,0,0,.32,0,.59.59,0,0,0,.23-.14.8.8,0,0,0,.15-.21.82.82,0,0,0,0-.59.51.51,0,0,0-.17-.21.7.7,0,0,0-.24-.13,1.32,1.32,0,0,0-.56,0,.7.7,0,0,0-.24.13.49.49,0,0,0-.16.21.63.63,0,0,0-.07.32.76.76,0,0,0,0,.27.8.8,0,0,0,.15.21.63.63,0,0,0,.24.14A1,1,0,0,0,53.42,79.74Zm0-1.72a.67.67,0,0,0,.3-.06.48.48,0,0,0,.2-.14.49.49,0,0,0,.11-.2.67.67,0,0,0,0-.24.85.85,0,0,0,0-.23.67.67,0,0,0-.12-.2,1.07,1.07,0,0,0-.21-.13,1,1,0,0,0-.56,0,.77.77,0,0,0-.2.13.53.53,0,0,0-.13.2.85.85,0,0,0,0,.23,1,1,0,0,0,0,.24.49.49,0,0,0,.11.2.48.48,0,0,0,.2.14A.7.7,0,0,0,53.42,78Z" fill="#5e5e5e"/><path d="M57.32,76.67a.2.2,0,0,1-.06.15.28.28,0,0,1-.2.06H55.93l-.16.94a2.43,2.43,0,0,1,.51-.06,1.28,1.28,0,0,1,.5.09,1.09,1.09,0,0,1,.36.22,1,1,0,0,1,.22.35,1.43,1.43,0,0,1,.07.43,1.19,1.19,0,0,1-.1.51,1.23,1.23,0,0,1-.27.39,1.36,1.36,0,0,1-.41.26,1.7,1.7,0,0,1-.51.08,1.39,1.39,0,0,1-.3,0L55.57,80l-.24-.12-.19-.14.14-.19a.13.13,0,0,1,.12-.07.19.19,0,0,1,.11,0l.15.09a.93.93,0,0,0,.22.08.79.79,0,0,0,.28,0,.9.9,0,0,0,.34-.06.78.78,0,0,0,.26-.17.72.72,0,0,0,.16-.27.93.93,0,0,0,.06-.34,1,1,0,0,0,0-.31.57.57,0,0,0-.15-.23.63.63,0,0,0-.24-.14,1,1,0,0,0-.35-.06l-.28,0a1.63,1.63,0,0,0-.3.07l-.28-.08.29-1.68h1.7Z" fill="#5e5e5e"/><path d="M66.69,72.71h.77V70.27a1.62,1.62,0,0,1,0-.22l-.64.55,0,0h-.12s0,0,0,0l-.14-.19,1.06-.93h.37v3.25h.7v.34H66.69Z" fill="#5e5e5e"/><path d="M71.62,71.26a2.83,2.83,0,0,1-.1.82,1.68,1.68,0,0,1-.27.57,1.1,1.1,0,0,1-.42.33,1.24,1.24,0,0,1-1,0,1.07,1.07,0,0,1-.41-.33,1.69,1.69,0,0,1-.28-.57,3.37,3.37,0,0,1,0-1.63,1.69,1.69,0,0,1,.28-.57,1.1,1.1,0,0,1,.41-.34,1.24,1.24,0,0,1,1,0,1.13,1.13,0,0,1,.42.34,1.68,1.68,0,0,1,.27.57A2.8,2.8,0,0,1,71.62,71.26Zm-.46,0a2.77,2.77,0,0,0-.07-.69,1.19,1.19,0,0,0-.18-.44.66.66,0,0,0-.59-.32.74.74,0,0,0-.32.07.62.62,0,0,0-.26.25,1.39,1.39,0,0,0-.19.44,3.34,3.34,0,0,0-.07.69,3.19,3.19,0,0,0,.07.69,1.45,1.45,0,0,0,.19.45.66.66,0,0,0,.26.24.76.76,0,0,0,.32.08.72.72,0,0,0,.32-.08.76.76,0,0,0,.27-.24,1.24,1.24,0,0,0,.18-.45A2.66,2.66,0,0,0,71.16,71.26Z" fill="#5e5e5e"/><path d="M74.52,71.26a2.83,2.83,0,0,1-.1.82,1.89,1.89,0,0,1-.27.57,1.1,1.1,0,0,1-.42.33,1.24,1.24,0,0,1-1,0,1.07,1.07,0,0,1-.41-.33,1.69,1.69,0,0,1-.28-.57,3.37,3.37,0,0,1,0-1.63,1.69,1.69,0,0,1,.28-.57,1.1,1.1,0,0,1,.41-.34,1.24,1.24,0,0,1,1,0,1.13,1.13,0,0,1,.42.34,1.89,1.89,0,0,1,.27.57A2.8,2.8,0,0,1,74.52,71.26Zm-.46,0a2.77,2.77,0,0,0-.07-.69,1.39,1.39,0,0,0-.18-.44.72.72,0,0,0-.91-.25.62.62,0,0,0-.26.25,1.39,1.39,0,0,0-.19.44,3.34,3.34,0,0,0-.07.69,3.19,3.19,0,0,0,.07.69,1.45,1.45,0,0,0,.19.45.66.66,0,0,0,.26.24.68.68,0,0,0,.64,0,.76.76,0,0,0,.27-.24A1.45,1.45,0,0,0,74,72,2.66,2.66,0,0,0,74.06,71.26Z" fill="#5e5e5e"/><path d="M82.69,60.71h.77V58.27a1.62,1.62,0,0,1,0-.22l-.64.55,0,0h-.12s0,0,0,0l-.14-.19,1.06-.93h.37v3.25h.7v.34H82.69Z" fill="#5e5e5e"/><path d="M86.38,57.43a1.16,1.16,0,0,1,.42.07.9.9,0,0,1,.57.51,1.08,1.08,0,0,1,.08.42,1.1,1.1,0,0,1-.06.37,1.37,1.37,0,0,1-.16.32,2.34,2.34,0,0,1-.24.31l-.28.3-.94,1,.2,0,.2,0h1.2a.18.18,0,0,1,.11,0,.15.15,0,0,1,0,.11v.27H85.13V60.9a.44.44,0,0,1,0-.1l.06-.09,1.15-1.15.26-.28a1.56,1.56,0,0,0,.2-.27,1.11,1.11,0,0,0,.13-.27,1,1,0,0,0,0-.3.82.82,0,0,0,0-.28.67.67,0,0,0-.14-.19.72.72,0,0,0-.21-.12.93.93,0,0,0-.25,0,1,1,0,0,0-.25,0,1,1,0,0,0-.2.11.8.8,0,0,0-.15.17.85.85,0,0,0-.09.22.14.14,0,0,1-.06.1.12.12,0,0,1-.1,0h-.06l-.23,0a1.14,1.14,0,0,1,.13-.43,1,1,0,0,1,.26-.32A1.08,1.08,0,0,1,86,57.5,1.18,1.18,0,0,1,86.38,57.43Z" fill="#5e5e5e"/><path d="M90.52,59.26a2.83,2.83,0,0,1-.1.82,1.89,1.89,0,0,1-.27.57,1.1,1.1,0,0,1-.42.33,1.24,1.24,0,0,1-1,0,1.07,1.07,0,0,1-.41-.33,1.69,1.69,0,0,1-.28-.57,3.37,3.37,0,0,1,0-1.63,1.69,1.69,0,0,1,.28-.57,1.1,1.1,0,0,1,.41-.34,1.24,1.24,0,0,1,1,0,1.13,1.13,0,0,1,.42.34,1.89,1.89,0,0,1,.27.57A2.8,2.8,0,0,1,90.52,59.26Zm-.46,0a2.77,2.77,0,0,0-.07-.69,1.39,1.39,0,0,0-.18-.44.72.72,0,0,0-.91-.25.62.62,0,0,0-.26.25,1.39,1.39,0,0,0-.19.44,3.34,3.34,0,0,0-.07.69,3.19,3.19,0,0,0,.07.69,1.45,1.45,0,0,0,.19.45.66.66,0,0,0,.26.24.68.68,0,0,0,.64,0,.76.76,0,0,0,.27-.24A1.45,1.45,0,0,0,90,60,2.66,2.66,0,0,0,90.06,59.26Z" fill="#5e5e5e"/><path d="M99.69,53.71h.77V51.27a1.62,1.62,0,0,1,0-.22l-.64.55,0,0h-.12s0,0,0,0l-.14-.19,1.06-.93h.37v3.25h.7v.34H99.69Z" fill="#5e5e5e"/><path d="M103.38,50.43a1.16,1.16,0,0,1,.42.07.9.9,0,0,1,.57.51,1.08,1.08,0,0,1,.08.42,1.1,1.1,0,0,1-.06.37,1.37,1.37,0,0,1-.16.32,2.34,2.34,0,0,1-.24.31l-.28.3-.94,1,.2,0,.2,0h1.2a.18.18,0,0,1,.11,0,.15.15,0,0,1,0,.11v.27h-2.39V53.9a.44.44,0,0,1,0-.1l.06-.09,1.15-1.15.26-.28a1.56,1.56,0,0,0,.2-.27,1.11,1.11,0,0,0,.13-.27,1,1,0,0,0,0-.3.82.82,0,0,0,0-.28.67.67,0,0,0-.14-.19.72.72,0,0,0-.21-.12.93.93,0,0,0-.25,0,1,1,0,0,0-.25,0,1,1,0,0,0-.2.11.8.8,0,0,0-.15.17.85.85,0,0,0-.09.22.14.14,0,0,1-.06.1.12.12,0,0,1-.1,0h-.06l-.23,0a1.14,1.14,0,0,1,.13-.43,1,1,0,0,1,.26-.32,1.08,1.08,0,0,1,.35-.19A1.18,1.18,0,0,1,103.38,50.43Z" fill="#5e5e5e"/><path d="M107.22,50.67a.2.2,0,0,1-.06.15.28.28,0,0,1-.2.06h-1.13l-.16.94a2.43,2.43,0,0,1,.51-.06,1.28,1.28,0,0,1,.5.09,1.09,1.09,0,0,1,.36.22.89.89,0,0,1,.21.35,1.18,1.18,0,0,1,.08.43,1.36,1.36,0,0,1-.1.51,1.23,1.23,0,0,1-.27.39,1.36,1.36,0,0,1-.41.26,1.7,1.7,0,0,1-.51.08,1.39,1.39,0,0,1-.3,0l-.27-.08-.24-.12-.19-.14.14-.19a.13.13,0,0,1,.12-.07.19.19,0,0,1,.11,0l.15.09a1,1,0,0,0,.21.08.88.88,0,0,0,.29,0,.9.9,0,0,0,.34-.06.78.78,0,0,0,.26-.17.72.72,0,0,0,.16-.27.93.93,0,0,0,.06-.34,1,1,0,0,0,0-.31.57.57,0,0,0-.15-.23.63.63,0,0,0-.24-.14,1,1,0,0,0-.35-.06l-.28,0a1.09,1.09,0,0,0-.3.07l-.28-.08.29-1.68h1.7Z" fill="#5e5e5e"/><path d="M115.69,61.71h.77V59.27a1.62,1.62,0,0,1,0-.22l-.64.55,0,0h-.12s0,0,0,0l-.14-.19,1.06-.93h.37v3.25h.7v.34h-1.92Z" fill="#5e5e5e"/><path d="M119.38,58.43a1.16,1.16,0,0,1,.42.07.9.9,0,0,1,.57.51,1.08,1.08,0,0,1,.08.42,1.1,1.1,0,0,1-.06.37,1.37,1.37,0,0,1-.16.32,2.34,2.34,0,0,1-.24.31l-.28.3-.94,1,.2,0,.2,0h1.2a.18.18,0,0,1,.11,0,.15.15,0,0,1,0,.11v.27h-2.39V61.9a.44.44,0,0,1,0-.1l.06-.09,1.15-1.15.26-.28a1.56,1.56,0,0,0,.2-.27,1.11,1.11,0,0,0,.13-.27,1,1,0,0,0,0-.3.82.82,0,0,0,0-.28.67.67,0,0,0-.14-.19.72.72,0,0,0-.21-.12.93.93,0,0,0-.25,0,1,1,0,0,0-.25,0,1,1,0,0,0-.2.11.8.8,0,0,0-.15.17.85.85,0,0,0-.09.22.14.14,0,0,1-.06.1.12.12,0,0,1-.1,0h-.06l-.23,0a1.14,1.14,0,0,1,.13-.43,1,1,0,0,1,.26-.32,1.08,1.08,0,0,1,.35-.19A1.18,1.18,0,0,1,119.38,58.43Z" fill="#5e5e5e"/><path d="M123.52,60.26a2.83,2.83,0,0,1-.1.82,1.89,1.89,0,0,1-.27.57,1.1,1.1,0,0,1-.42.33,1.24,1.24,0,0,1-1,0,1.07,1.07,0,0,1-.41-.33,1.69,1.69,0,0,1-.28-.57,3.37,3.37,0,0,1,0-1.63,1.69,1.69,0,0,1,.28-.57,1.1,1.1,0,0,1,.41-.34,1.24,1.24,0,0,1,1,0,1.13,1.13,0,0,1,.42.34,1.89,1.89,0,0,1,.27.57A2.8,2.8,0,0,1,123.52,60.26Zm-.46,0a2.77,2.77,0,0,0-.07-.69,1.39,1.39,0,0,0-.18-.44.72.72,0,0,0-.91-.25.62.62,0,0,0-.26.25,1.39,1.39,0,0,0-.19.44,3.34,3.34,0,0,0-.07.69,3.19,3.19,0,0,0,.07.69,1.45,1.45,0,0,0,.19.45.66.66,0,0,0,.26.24.68.68,0,0,0,.64,0,.76.76,0,0,0,.27-.24A1.45,1.45,0,0,0,123,61,2.66,2.66,0,0,0,123.06,60.26Z" fill="#5e5e5e"/><path d="M122.69,66.71h.77V64.27a1.62,1.62,0,0,1,0-.22l-.64.55,0,0h-.12s0,0,0,0l-.14-.19,1.06-.93h.37v3.25h.7v.34h-1.92Z" fill="#5e5e5e"/><path d="M125.59,66.71h.77V64.27a1.62,1.62,0,0,1,0-.22l-.64.55,0,0h-.12l0,0-.14-.19,1.06-.93h.37v3.25h.7v.34h-1.92Z" fill="#5e5e5e"/><path d="M130.52,65.26a2.83,2.83,0,0,1-.1.82,1.89,1.89,0,0,1-.27.57,1.1,1.1,0,0,1-.42.33,1.24,1.24,0,0,1-1,0,1.07,1.07,0,0,1-.41-.33,1.69,1.69,0,0,1-.28-.57,3.37,3.37,0,0,1,0-1.63,1.69,1.69,0,0,1,.28-.57,1.1,1.1,0,0,1,.41-.34,1.24,1.24,0,0,1,1,0,1.13,1.13,0,0,1,.42.34,1.89,1.89,0,0,1,.27.57A2.8,2.8,0,0,1,130.52,65.26Zm-.46,0a2.77,2.77,0,0,0-.07-.69,1.39,1.39,0,0,0-.18-.44.72.72,0,0,0-.91-.25.62.62,0,0,0-.26.25,1.39,1.39,0,0,0-.19.44,3.34,3.34,0,0,0-.07.69,3.19,3.19,0,0,0,.07.69,1.45,1.45,0,0,0,.19.45.66.66,0,0,0,.26.24.68.68,0,0,0,.64,0,.76.76,0,0,0,.27-.24A1.45,1.45,0,0,0,130,66,2.66,2.66,0,0,0,130.06,65.26Z" fill="#5e5e5e"/><path d="M105.69,61.71h.77V59.27a1.62,1.62,0,0,1,0-.22l-.64.55,0,0h-.12s0,0,0,0l-.14-.19,1.06-.93h.37v3.25h.7v.34h-1.92Z" fill="#5e5e5e"/><path d="M109.38,58.43a1.16,1.16,0,0,1,.42.07.9.9,0,0,1,.57.51,1.08,1.08,0,0,1,.08.42,1.1,1.1,0,0,1-.06.37,1.37,1.37,0,0,1-.16.32,2.34,2.34,0,0,1-.24.31l-.28.3-.94,1,.2,0,.2,0h1.2a.18.18,0,0,1,.11,0,.15.15,0,0,1,0,.11v.27h-2.39V61.9a.44.44,0,0,1,0-.1l.06-.09,1.15-1.15.26-.28a1.56,1.56,0,0,0,.2-.27,1.11,1.11,0,0,0,.13-.27,1,1,0,0,0,0-.3.82.82,0,0,0,0-.28.67.67,0,0,0-.14-.19.72.72,0,0,0-.21-.12.93.93,0,0,0-.25,0,1,1,0,0,0-.25,0,1,1,0,0,0-.2.11.8.8,0,0,0-.15.17.85.85,0,0,0-.09.22.14.14,0,0,1-.06.1.12.12,0,0,1-.1,0h-.06l-.23,0a1.14,1.14,0,0,1,.13-.43,1,1,0,0,1,.26-.32,1.08,1.08,0,0,1,.35-.19A1.18,1.18,0,0,1,109.38,58.43Z" fill="#5e5e5e"/><path d="M113.52,60.26a2.83,2.83,0,0,1-.1.82,1.89,1.89,0,0,1-.27.57,1.1,1.1,0,0,1-.42.33,1.24,1.24,0,0,1-1,0,1.07,1.07,0,0,1-.41-.33,1.69,1.69,0,0,1-.28-.57,3.37,3.37,0,0,1,0-1.63,1.69,1.69,0,0,1,.28-.57,1.1,1.1,0,0,1,.41-.34,1.24,1.24,0,0,1,1,0,1.13,1.13,0,0,1,.42.34,1.89,1.89,0,0,1,.27.57A2.8,2.8,0,0,1,113.52,60.26Zm-.46,0a2.77,2.77,0,0,0-.07-.69,1.39,1.39,0,0,0-.18-.44.72.72,0,0,0-.91-.25.62.62,0,0,0-.26.25,1.39,1.39,0,0,0-.19.44,3.34,3.34,0,0,0-.07.69,3.19,3.19,0,0,0,.07.69,1.45,1.45,0,0,0,.19.45.66.66,0,0,0,.26.24.68.68,0,0,0,.64,0,.76.76,0,0,0,.27-.24A1.45,1.45,0,0,0,113,61,2.66,2.66,0,0,0,113.06,60.26Z" fill="#5e5e5e"/><path d="M130.69,44.71h.77V42.27a1.62,1.62,0,0,1,0-.22l-.64.55-.05,0h-.12s0,0,0,0l-.14-.19,1.06-.93h.37v3.25h.7v.34h-1.92Z" fill="#5e5e5e"/><path d="M135.13,43.76h.54V44a.07.07,0,0,1,0,.06.09.09,0,0,1-.07,0h-.45v.94h-.39v-.94h-1.59a.11.11,0,0,1-.08,0,.12.12,0,0,1,0-.07l-.05-.23,1.75-2.31h.41Zm-.39-1.48v-.14s0-.1,0-.15l-1.3,1.77h1.28Z" fill="#5e5e5e"/><path d="M138.52,43.26a2.83,2.83,0,0,1-.1.82,1.89,1.89,0,0,1-.27.57,1.1,1.1,0,0,1-.42.33,1.24,1.24,0,0,1-1,0,1.07,1.07,0,0,1-.41-.33,1.69,1.69,0,0,1-.28-.57,3.37,3.37,0,0,1,0-1.63,1.69,1.69,0,0,1,.28-.57,1.1,1.1,0,0,1,.41-.34,1.24,1.24,0,0,1,1,0,1.13,1.13,0,0,1,.42.34,1.89,1.89,0,0,1,.27.57A2.8,2.8,0,0,1,138.52,43.26Zm-.46,0a2.77,2.77,0,0,0-.07-.69,1.39,1.39,0,0,0-.18-.44.72.72,0,0,0-.91-.25.62.62,0,0,0-.26.25,1.39,1.39,0,0,0-.19.44,3.34,3.34,0,0,0-.07.69,3.19,3.19,0,0,0,.07.69,1.45,1.45,0,0,0,.19.45.66.66,0,0,0,.26.24.68.68,0,0,0,.64,0,.76.76,0,0,0,.27-.24A1.45,1.45,0,0,0,138,44,2.66,2.66,0,0,0,138.06,43.26Z" fill="#5e5e5e"/><path d="M138.69,56.71h.77V54.27a1.62,1.62,0,0,1,0-.22l-.64.55-.05,0h-.12s0,0,0,0l-.14-.19,1.06-.93h.37v3.25h.7v.34h-1.92Z" fill="#5e5e5e"/><path d="M142.38,53.43a1.16,1.16,0,0,1,.42.07.9.9,0,0,1,.57.51,1.08,1.08,0,0,1,.08.42,1.1,1.1,0,0,1-.06.37,1.37,1.37,0,0,1-.16.32,2.34,2.34,0,0,1-.24.31l-.28.3-.94,1,.2,0,.2,0h1.2a.18.18,0,0,1,.11,0,.15.15,0,0,1,0,.11v.27h-2.39V56.9a.44.44,0,0,1,0-.1l.06-.09,1.15-1.15.26-.28a1.56,1.56,0,0,0,.2-.27,1.11,1.11,0,0,0,.13-.27,1,1,0,0,0,.05-.3.82.82,0,0,0-.05-.28.67.67,0,0,0-.14-.19.72.72,0,0,0-.21-.12.93.93,0,0,0-.25,0,1,1,0,0,0-.25,0,1,1,0,0,0-.2.11.8.8,0,0,0-.15.17.85.85,0,0,0-.09.22.14.14,0,0,1-.06.1.12.12,0,0,1-.1,0h-.06l-.23,0a1.14,1.14,0,0,1,.13-.43,1,1,0,0,1,.26-.32,1.08,1.08,0,0,1,.35-.19A1.18,1.18,0,0,1,142.38,53.43Z" fill="#5e5e5e"/><path d="M146.22,53.67a.2.2,0,0,1-.06.15.28.28,0,0,1-.2.06h-1.13l-.16.94a2.43,2.43,0,0,1,.51-.06,1.28,1.28,0,0,1,.5.09,1.09,1.09,0,0,1,.36.22.89.89,0,0,1,.21.35,1.18,1.18,0,0,1,.08.43,1.36,1.36,0,0,1-.1.51,1.23,1.23,0,0,1-.27.39,1.36,1.36,0,0,1-.41.26,1.7,1.7,0,0,1-.51.08,1.39,1.39,0,0,1-.3,0l-.27-.08-.24-.12-.19-.14.14-.19a.13.13,0,0,1,.12-.07.19.19,0,0,1,.11,0l.15.09a1,1,0,0,0,.21.08.88.88,0,0,0,.29,0,.9.9,0,0,0,.34-.06.78.78,0,0,0,.26-.17.72.72,0,0,0,.16-.27.93.93,0,0,0,.06-.34,1,1,0,0,0,0-.31.57.57,0,0,0-.15-.23.63.63,0,0,0-.24-.14,1,1,0,0,0-.35-.06l-.28,0a1.09,1.09,0,0,0-.3.07l-.28-.08.29-1.68h1.7Z" fill="#5e5e5e"/><path d="M209.2,120.1c0-.93.41-2,1.46-2s1.46,1,1.46,2-.42,2-1.46,2S209.2,121,209.2,120.1Zm2.43,0c0-.76-.24-1.54-1-1.54s-1,.78-1,1.54.25,1.55,1,1.55S211.63,120.87,211.63,120.1Z" fill="#5e5e5e"/><path d="M207.6,109v-1h-1.81v-.39l1.64-2.46h.65v2.43h.54V108h-.54v1Zm0-3.38-1.34,2h1.34Z" fill="#5e5e5e"/><path d="M209.2,107.1c0-.93.41-2,1.46-2s1.46,1,1.46,2-.42,2-1.46,2S209.2,108,209.2,107.1Zm2.43,0c0-.76-.24-1.54-1-1.54s-1,.78-1,1.54.25,1.55,1,1.55S211.63,107.87,211.63,107.1Z" fill="#5e5e5e"/><path d="M205.77,95a1.12,1.12,0,0,1,.91-1,1,1,0,0,1-.85-.91c0-.69.67-1,1.3-1s1.32.3,1.32,1a1,1,0,0,1-.86.91,1.12,1.12,0,0,1,.91,1c0,.65-.62,1-1.37,1S205.77,95.7,205.77,95ZM208,95c0-.5-.65-.71-.89-.74s-.88.24-.88.74.41.66.88.66S208,95.4,208,95Zm-.06-1.8c0-.4-.37-.63-.83-.63s-.82.23-.82.63.6.62.82.66S208,93.65,208,93.19Z" fill="#5e5e5e"/><path d="M209.2,94.1c0-.93.41-2,1.46-2s1.46,1,1.46,2-.42,2-1.46,2S209.2,95,209.2,94.1Zm2.43,0c0-.76-.24-1.54-1-1.54s-1,.78-1,1.54.25,1.55,1,1.55S211.63,94.87,211.63,94.1Z" fill="#5e5e5e"/><path d="M204.4,83V79.82l-.61.65-.29-.29,1-1h.42V83Z" fill="#5e5e5e"/><path d="M205.74,83v-.38c1.38-1.08,2.13-1.71,2.13-2.37a.71.71,0,0,0-.8-.7,1.27,1.27,0,0,0-1,.48l-.29-.3a1.63,1.63,0,0,1,1.33-.6,1.16,1.16,0,0,1,1.28,1.12c0,.78-.79,1.49-1.86,2.33h1.88V83Z" fill="#5e5e5e"/><path d="M209.2,81.1c0-.93.41-2,1.46-2s1.46,1,1.46,2-.42,2-1.46,2S209.2,82,209.2,81.1Zm2.43,0c0-.76-.24-1.54-1-1.54s-1,.78-1,1.54.25,1.55,1,1.55S211.63,81.87,211.63,81.1Z" fill="#5e5e5e"/><path d="M204.38,69V65.82l-.61.65-.28-.29.95-1h.42V69Z" fill="#5e5e5e"/><path d="M205.71,67.1c0-1,.48-2,1.56-2a1.33,1.33,0,0,1,1,.45l-.24.36a1,1,0,0,0-.81-.39c-.75,0-1.08.75-1.08,1.5v.15a1.36,1.36,0,0,1,1.08-.6,1.16,1.16,0,0,1,1.25,1.22,1.25,1.25,0,0,1-1.33,1.25C206.12,69.08,205.71,68.15,205.71,67.1Zm2.33.75a.8.8,0,0,0-.88-.83,1.16,1.16,0,0,0-.95.57c0,.48.29,1.06.95,1.06A.83.83,0,0,0,208,67.85Z" fill="#5e5e5e"/><path d="M209.2,67.1c0-.93.41-2,1.46-2s1.46,1,1.46,2-.42,2-1.46,2S209.2,68,209.2,67.1Zm2.43,0c0-.76-.24-1.54-1-1.54s-1,.78-1,1.54.25,1.55,1,1.55S211.63,67.87,211.63,67.1Z" fill="#5e5e5e"/><path d="M202.13,56v-.38c1.37-1.08,2.12-1.71,2.12-2.37a.71.71,0,0,0-.8-.7,1.26,1.26,0,0,0-1,.48l-.29-.3a1.63,1.63,0,0,1,1.32-.6,1.17,1.17,0,0,1,1.29,1.12c0,.78-.79,1.49-1.86,2.33h1.87V56Z" fill="#5e5e5e"/><path d="M205.59,54.1c0-.93.41-2,1.46-2s1.46,1,1.46,2-.42,2-1.46,2S205.59,55,205.59,54.1Zm2.43,0c0-.76-.24-1.54-1-1.54s-1,.78-1,1.54.24,1.55,1,1.55S208,54.87,208,54.1Z" fill="#5e5e5e"/><path d="M209.2,54.1c0-.93.41-2,1.46-2s1.46,1,1.46,2-.42,2-1.46,2S209.2,55,209.2,54.1Zm2.43,0c0-.76-.24-1.54-1-1.54s-1,.78-1,1.54.25,1.55,1,1.55S211.63,54.87,211.63,54.1Z" fill="#5e5e5e"/><path d="M202.44,43v-.38c1.37-1.08,2.12-1.71,2.12-2.37a.71.71,0,0,0-.8-.7,1.25,1.25,0,0,0-1,.48l-.3-.3a1.65,1.65,0,0,1,1.33-.6A1.16,1.16,0,0,1,205,40.26c0,.78-.79,1.49-1.85,2.33h1.87V43Z" fill="#5e5e5e"/><path d="M207.6,43V42h-1.81v-.39l1.64-2.46h.65v2.43h.54V42h-.54v1Zm0-3.38-1.34,2h1.34Z" fill="#5e5e5e"/><path d="M209.2,41.1c0-.93.41-2,1.46-2s1.46,1,1.46,2-.42,2-1.46,2S209.2,42,209.2,41.1Zm2.43,0c0-.76-.24-1.54-1-1.54s-1,.78-1,1.54.25,1.55,1,1.55S211.63,41.87,211.63,41.1Z" fill="#5e5e5e"/><line x1="315.05" y1="120.44" x2="216.02" y2="120.44" fill="none" stroke="#000" stroke-miterlimit="10" stroke-width="0.5"/><line x1="315.05" y1="107.21" x2="216.02" y2="107.21" fill="none" stroke="#d0d2d3" stroke-linecap="round" stroke-linejoin="round" stroke-width="0.25"/><line x1="315.05" y1="93.98" x2="216.02" y2="93.98" fill="none" stroke="#d0d2d3" stroke-linecap="round" stroke-linejoin="round" stroke-width="0.25"/><line x1="315.05" y1="80.76" x2="216.02" y2="80.76" fill="none" stroke="#d0d2d3" stroke-linecap="round" stroke-linejoin="round" stroke-width="0.25"/><line x1="315.05" y1="67.53" x2="216.02" y2="67.53" fill="none" stroke="#d0d2d3" stroke-linecap="round" stroke-linejoin="round" stroke-width="0.25"/><line x1="315.05" y1="54.31" x2="216.02" y2="54.31" fill="none" stroke="#d0d2d3" stroke-linecap="round" stroke-linejoin="round" stroke-width="0.25"/><line x1="315.05" y1="41.08" x2="216.02" y2="41.08" fill="none" stroke="#d0d2d3" stroke-linecap="round" stroke-linejoin="round" stroke-width="0.25"/><rect x="229.01" y="125.24" width="10.03" height="3.15" fill="#bbbdbf"/><rect x="213.01" y="125.24" width="10.03" height="3.15" fill="#bbbdbf"/><rect x="261.01" y="125.24" width="10.03" height="3.15" fill="#bbbdbf"/><rect x="245.01" y="125.24" width="10.03" height="3.15" fill="#bbbdbf"/><rect x="292.01" y="125.24" width="10.03" height="3.15" fill="#bbbdbf"/><rect x="277.01" y="125.24" width="10.03" height="3.15" fill="#bbbdbf"/><rect x="308.15" y="125.24" width="10.03" height="3.15" fill="#bbbdbf"/><polygon points="313.05 47.49 313.05 120 218.05 120 218.05 74.49 233.43 70.49 249.56 62.49 264.68 56.49 281.81 53.49 297.94 55.49 313.05 47.49" fill="#9dc5ff"/><polygon points="313.05 75 313.05 120 218.05 120 218.05 94.27 233.43 91.16 249.56 86.2 264.68 80.19 281.81 78 297.94 80.91 313.05 75" fill="#0072bc"/></svg>