<svg xmlns="http://www.w3.org/2000/svg" width="10cm" height="10cm" viewBox="0 0 283.46 283.46"><rect x="0.5" y="0.5" width="282.47" height="282.47" fill="#fff"/><rect width="283.46" height="283.46" fill="#fff"/><path d="M283.46,283.46H0V0H283.46ZM1,282.47H282.47V1H1Z" fill="#506589"/><polygon points="255.12 246.49 28.35 246.49 28.35 145.33 39.69 157.14 51.02 147.38 62.36 137.11 73.7 137.62 85.04 118.11 96.38 118.11 107.72 120.16 119.06 116.57 130.39 126.84 141.73 121.19 153.07 112.97 164.41 112.97 175.75 107.84 187.09 105.27 198.43 110.92 209.76 98.6 221.1 75.49 232.44 51.35 243.78 36.97 255.12 39.54 255.12 246.49" fill="#8496b9"/><polygon points="255.12 246.49 28.35 246.49 28.35 221.33 39.69 222.87 51.02 220.3 62.36 225.95 73.7 215.68 85.04 220.3 96.38 222.87 107.72 224.92 119.06 218.76 130.39 212.6 141.73 180.76 153.07 176.14 164.41 172.54 175.75 166.38 187.09 171 198.43 166.9 209.76 155.6 221.1 123.76 232.44 80.62 243.78 53.92 255.12 58.54 255.12 246.49" fill="#506589"/></svg>