<svg xmlns="http://www.w3.org/2000/svg" width="350" height="148" viewBox="0 0 350 148"><rect width="350" height="148" fill="#f1f2f2"/><path d="M31.75,21.87V14.54h2.5A3.56,3.56,0,0,1,38,18.21a3.54,3.54,0,0,1-3.76,3.66Zm5.31-3.66a2.68,2.68,0,0,0-2.81-2.86H32.66v5.71h1.59A2.7,2.7,0,0,0,37.06,18.21Z" fill="#0072bc"/><path d="M39.09,19.21a2.63,2.63,0,1,1,5.25,0,2.63,2.63,0,1,1-5.25,0Zm4.38,0a1.77,1.77,0,1,0-3.51,0,1.78,1.78,0,1,0,3.51,0Z" fill="#0072bc"/><circle cx="17.38" cy="17.55" r="7.55" fill="#9dc5ff"/><circle cx="17.38" cy="17.55" r="4.8" fill="#0072bc"/><polyline points="14.63 17.55 16.46 19.38 20.12 15.72" fill="none" stroke="#fff" stroke-linecap="round" stroke-linejoin="round" stroke-width="0.75"/><path d="M202.06,21.87V14.54h2.5a3.56,3.56,0,0,1,3.76,3.67,3.54,3.54,0,0,1-3.76,3.66Zm5.32-3.66a2.69,2.69,0,0,0-2.82-2.86H203v5.71h1.59A2.7,2.7,0,0,0,207.38,18.21Z" fill="#ef4a60"/><path d="M209.41,19.21a2.63,2.63,0,1,1,5.25,0,2.63,2.63,0,1,1-5.25,0Zm4.38,0a1.78,1.78,0,1,0-3.52,0,1.78,1.78,0,1,0,3.52,0Z" fill="#ef4a60"/><path d="M219.59,21.87V18.4c0-.95-.49-1.23-1.2-1.23a2.06,2.06,0,0,0-1.57.82v3.88H216V16.56h.83v.77a2.59,2.59,0,0,1,1.9-.9,1.5,1.5,0,0,1,1.68,1.71v3.73Z" fill="#ef4a60"/><path d="M222.21,16.93l-.42-.35a1.71,1.71,0,0,0,.72-1l-.16,0a.53.53,0,0,1-.53-.56.6.6,0,0,1,.59-.59c.37,0,.69.3.69.84A2.14,2.14,0,0,1,222.21,16.93Z" fill="#ef4a60"/><path d="M224.68,20.76V17.29h-.88v-.73h.88V15.11h.83v1.45h1.08v.73h-1.08v3.29c0,.4.18.68.53.68a.75.75,0,0,0,.56-.23l.24.63a1.31,1.31,0,0,1-1,.34A1.09,1.09,0,0,1,224.68,20.76Z" fill="#ef4a60"/><circle cx="187.69" cy="17.55" r="7.55" fill="#ffbcc1"/><circle cx="187.69" cy="17.55" r="4.8" fill="#ef4a60"/><line x1="189.69" y1="15.55" x2="185.69" y2="19.55" fill="none" stroke="#fff" stroke-linecap="round" stroke-linejoin="round" stroke-width="0.75"/><line x1="189.69" y1="19.55" x2="185.69" y2="15.55" fill="none" stroke="#fff" stroke-linecap="round" stroke-linejoin="round" stroke-width="0.75"/><line x1="146.11" y1="120.44" x2="47.08" y2="120.44" fill="none" stroke="#000" stroke-miterlimit="10" stroke-width="0.5"/><line x1="146.11" y1="107.21" x2="47.08" y2="107.21" fill="none" stroke="#d0d2d3" stroke-linecap="round" stroke-linejoin="round" stroke-width="0.25"/><line x1="146.11" y1="93.98" x2="47.08" y2="93.98" fill="none" stroke="#d0d2d3" stroke-linecap="round" stroke-linejoin="round" stroke-width="0.25"/><line x1="146.11" y1="80.76" x2="47.08" y2="80.76" fill="none" stroke="#d0d2d3" stroke-linecap="round" stroke-linejoin="round" stroke-width="0.25"/><line x1="146.11" y1="67.53" x2="47.08" y2="67.53" fill="none" stroke="#d0d2d3" stroke-linecap="round" stroke-linejoin="round" stroke-width="0.25"/><line x1="146.11" y1="54.31" x2="47.08" y2="54.31" fill="none" stroke="#d0d2d3" stroke-linecap="round" stroke-linejoin="round" stroke-width="0.25"/><line x1="146.11" y1="41.08" x2="47.08" y2="41.08" fill="none" stroke="#d0d2d3" stroke-linecap="round" stroke-linejoin="round" stroke-width="0.25"/><rect x="50.08" y="125.24" width="10.03" height="3.15" fill="#bbbdbf"/><rect x="82.93" y="125.24" width="10.03" height="3.15" fill="#bbbdbf"/><rect x="66.5" y="125.24" width="10.03" height="3.15" fill="#bbbdbf"/><rect x="115.78" y="125.24" width="10.03" height="3.15" fill="#bbbdbf"/><rect x="99.36" y="125.24" width="10.03" height="3.15" fill="#bbbdbf"/><rect x="132.21" y="125.24" width="10.03" height="3.15" fill="#bbbdbf"/><path d="M41.27,120.1c0-.93.41-2,1.45-2s1.46,1,1.46,2-.41,2-1.46,2S41.27,121,41.27,120.1Zm2.43,0c0-.76-.25-1.54-1-1.54s-1,.78-1,1.54.25,1.55,1,1.55S43.7,120.87,43.7,120.1Z" fill="#5e5e5e"/><path d="M39.67,109v-1H37.85v-.39l1.64-2.46h.65v2.43h.54V108h-.54v1Zm0-3.38-1.34,2h1.34Z" fill="#5e5e5e"/><path d="M41.27,107.1c0-.93.41-2,1.45-2s1.46,1,1.46,2-.41,2-1.46,2S41.27,108,41.27,107.1Zm2.43,0c0-.76-.25-1.54-1-1.54s-1,.78-1,1.54.25,1.55,1,1.55S43.7,107.87,43.7,107.1Z" fill="#5e5e5e"/><path d="M37.83,95a1.12,1.12,0,0,1,.91-1,1,1,0,0,1-.85-.91c0-.69.67-1,1.31-1s1.31.3,1.31,1a1,1,0,0,1-.85.91,1.13,1.13,0,0,1,.91,1c0,.65-.62,1-1.37,1S37.83,95.7,37.83,95ZM40.08,95c0-.5-.65-.71-.88-.74s-.89.24-.89.74.41.66.89.66S40.08,95.4,40.08,95Zm0-1.8c0-.4-.37-.63-.83-.63s-.83.23-.83.63.6.62.83.66S40,93.65,40,93.19Z" fill="#5e5e5e"/><path d="M41.27,94.1c0-.93.41-2,1.45-2s1.46,1,1.46,2-.41,2-1.46,2S41.27,95,41.27,94.1Zm2.43,0c0-.76-.25-1.54-1-1.54s-1,.78-1,1.54.25,1.55,1,1.55S43.7,94.87,43.7,94.1Z" fill="#5e5e5e"/><path d="M36.46,83V79.82l-.61.65-.28-.29,1-1h.42V83Z" fill="#5e5e5e"/><path d="M37.81,83v-.38c1.37-1.08,2.12-1.71,2.12-2.37a.71.71,0,0,0-.8-.7,1.28,1.28,0,0,0-1,.48l-.29-.3a1.63,1.63,0,0,1,1.33-.6,1.16,1.16,0,0,1,1.28,1.12c0,.78-.79,1.49-1.85,2.33h1.87V83Z" fill="#5e5e5e"/><path d="M41.27,81.1c0-.93.41-2,1.45-2s1.46,1,1.46,2-.41,2-1.46,2S41.27,82,41.27,81.1Zm2.43,0c0-.76-.25-1.54-1-1.54s-1,.78-1,1.54.25,1.55,1,1.55S43.7,81.87,43.7,81.1Z" fill="#5e5e5e"/><path d="M36.45,69V65.82l-.62.65-.28-.29,1-1h.42V69Z" fill="#5e5e5e"/><path d="M37.77,67.1c0-1,.48-2,1.56-2a1.3,1.3,0,0,1,1.05.45l-.24.36a1,1,0,0,0-.81-.39c-.74,0-1.08.75-1.08,1.5v.15a1.36,1.36,0,0,1,1.08-.6,1.16,1.16,0,0,1,1.25,1.22,1.25,1.25,0,0,1-1.33,1.25C38.18,69.08,37.77,68.15,37.77,67.1Zm2.33.75a.79.79,0,0,0-.87-.83,1.18,1.18,0,0,0-1,.57c0,.48.29,1.06,1,1.06A.82.82,0,0,0,40.1,67.85Z" fill="#5e5e5e"/><path d="M41.27,67.1c0-.93.41-2,1.45-2s1.46,1,1.46,2-.41,2-1.46,2S41.27,68,41.27,67.1Zm2.43,0c0-.76-.25-1.54-1-1.54s-1,.78-1,1.54.25,1.55,1,1.55S43.7,67.87,43.7,67.1Z" fill="#5e5e5e"/><path d="M34.19,56v-.38c1.38-1.08,2.13-1.71,2.13-2.37a.72.72,0,0,0-.8-.7,1.27,1.27,0,0,0-1,.48l-.29-.3a1.63,1.63,0,0,1,1.33-.6,1.16,1.16,0,0,1,1.28,1.12c0,.78-.79,1.49-1.86,2.33h1.88V56Z" fill="#5e5e5e"/><path d="M37.65,54.1c0-.93.41-2,1.46-2s1.46,1,1.46,2-.42,2-1.46,2S37.65,55,37.65,54.1Zm2.43,0c0-.76-.24-1.54-1-1.54s-1,.78-1,1.54.25,1.55,1,1.55S40.08,54.87,40.08,54.1Z" fill="#5e5e5e"/><path d="M41.27,54.1c0-.93.41-2,1.45-2s1.46,1,1.46,2-.41,2-1.46,2S41.27,55,41.27,54.1Zm2.43,0c0-.76-.25-1.54-1-1.54s-1,.78-1,1.54.25,1.55,1,1.55S43.7,54.87,43.7,54.1Z" fill="#5e5e5e"/><path d="M34.5,43v-.38c1.38-1.08,2.13-1.71,2.13-2.37a.72.72,0,0,0-.8-.7,1.27,1.27,0,0,0-1,.48l-.29-.3a1.63,1.63,0,0,1,1.33-.6,1.16,1.16,0,0,1,1.28,1.12c0,.78-.79,1.49-1.86,2.33h1.87V43Z" fill="#5e5e5e"/><path d="M39.67,43V42H37.85v-.39l1.64-2.46h.65v2.43h.54V42h-.54v1Zm0-3.38-1.34,2h1.34Z" fill="#5e5e5e"/><path d="M41.27,41.1c0-.93.41-2,1.45-2s1.46,1,1.46,2-.41,2-1.46,2S41.27,42,41.27,41.1Zm2.43,0c0-.76-.25-1.54-1-1.54s-1,.78-1,1.54.25,1.55,1,1.55S43.7,41.87,43.7,41.1Z" fill="#5e5e5e"/><polyline points="55.09 91.61 71.52 83.1 87.94 76.05 104.37 62.77 120.8 59.75 137.23 56.75" fill="none" stroke="#9dc5ff" stroke-linecap="round" stroke-linejoin="round"/><polyline points="55.09 111.61 71.52 109.1 87.94 99.05 104.37 84.77 120.8 64.75 137.23 62.75" fill="none" stroke="#0072bc" stroke-linecap="round" stroke-linejoin="round"/><line x1="309.9" y1="120.44" x2="210.87" y2="120.44" fill="none" stroke="#000" stroke-miterlimit="10" stroke-width="0.5"/><line x1="309.9" y1="107.21" x2="210.87" y2="107.21" fill="none" stroke="#d0d2d3" stroke-linecap="round" stroke-linejoin="round" stroke-width="0.25"/><line x1="309.9" y1="93.98" x2="210.87" y2="93.98" fill="none" stroke="#d0d2d3" stroke-linecap="round" stroke-linejoin="round" stroke-width="0.25"/><line x1="309.9" y1="80.76" x2="210.87" y2="80.76" fill="none" stroke="#d0d2d3" stroke-linecap="round" stroke-linejoin="round" stroke-width="0.25"/><line x1="309.9" y1="67.53" x2="210.87" y2="67.53" fill="none" stroke="#d0d2d3" stroke-linecap="round" stroke-linejoin="round" stroke-width="0.25"/><line x1="309.9" y1="54.31" x2="210.87" y2="54.31" fill="none" stroke="#d0d2d3" stroke-linecap="round" stroke-linejoin="round" stroke-width="0.25"/><line x1="309.9" y1="41.08" x2="210.87" y2="41.08" fill="none" stroke="#d0d2d3" stroke-linecap="round" stroke-linejoin="round" stroke-width="0.25"/><rect x="213.86" y="125.24" width="10.03" height="3.15" fill="#bbbdbf"/><rect x="246.72" y="125.24" width="10.03" height="3.15" fill="#bbbdbf"/><rect x="230.29" y="125.24" width="10.03" height="3.15" fill="#bbbdbf"/><rect x="279.57" y="125.24" width="10.03" height="3.15" fill="#bbbdbf"/><rect x="263.14" y="125.24" width="10.03" height="3.15" fill="#bbbdbf"/><rect x="296" y="125.24" width="10.03" height="3.15" fill="#bbbdbf"/><path d="M205.05,120.1c0-.93.41-2,1.46-2s1.46,1,1.46,2-.42,2-1.46,2S205.05,121,205.05,120.1Zm2.43,0c0-.76-.24-1.54-1-1.54s-1,.78-1,1.54.25,1.55,1,1.55S207.48,120.87,207.48,120.1Z" fill="#5e5e5e"/><path d="M203.45,109v-1h-1.81v-.39l1.64-2.46h.65v2.43h.54V108h-.54v1Zm0-3.38-1.34,2h1.34Z" fill="#5e5e5e"/><path d="M205.05,107.1c0-.93.41-2,1.46-2s1.46,1,1.46,2-.42,2-1.46,2S205.05,108,205.05,107.1Zm2.43,0c0-.76-.24-1.54-1-1.54s-1,.78-1,1.54.25,1.55,1,1.55S207.48,107.87,207.48,107.1Z" fill="#5e5e5e"/><path d="M201.62,95a1.12,1.12,0,0,1,.91-1,1,1,0,0,1-.85-.91c0-.69.67-1,1.3-1s1.31.3,1.31,1a1,1,0,0,1-.85.91,1.12,1.12,0,0,1,.91,1c0,.65-.62,1-1.37,1S201.62,95.7,201.62,95Zm2.25-.05c0-.5-.65-.71-.89-.74s-.88.24-.88.74.41.66.88.66S203.87,95.4,203.87,95Zm-.06-1.8c0-.4-.37-.63-.83-.63s-.82.23-.82.63.59.62.82.66S203.81,93.65,203.81,93.19Z" fill="#5e5e5e"/><path d="M205.05,94.1c0-.93.41-2,1.46-2s1.46,1,1.46,2-.42,2-1.46,2S205.05,95,205.05,94.1Zm2.43,0c0-.76-.24-1.54-1-1.54s-1,.78-1,1.54.25,1.55,1,1.55S207.48,94.87,207.48,94.1Z" fill="#5e5e5e"/><path d="M200.25,83V79.82l-.61.65-.29-.29,1-1h.42V83Z" fill="#5e5e5e"/><path d="M201.59,83v-.38c1.38-1.08,2.13-1.71,2.13-2.37a.71.71,0,0,0-.8-.7,1.27,1.27,0,0,0-1,.48l-.29-.3a1.63,1.63,0,0,1,1.33-.6,1.16,1.16,0,0,1,1.28,1.12c0,.78-.79,1.49-1.86,2.33h1.87V83Z" fill="#5e5e5e"/><path d="M205.05,81.1c0-.93.41-2,1.46-2s1.46,1,1.46,2-.42,2-1.46,2S205.05,82,205.05,81.1Zm2.43,0c0-.76-.24-1.54-1-1.54s-1,.78-1,1.54.25,1.55,1,1.55S207.48,81.87,207.48,81.1Z" fill="#5e5e5e"/><path d="M200.23,69V65.82l-.61.65-.28-.29.95-1h.42V69Z" fill="#5e5e5e"/><path d="M201.56,67.1c0-1,.48-2,1.56-2a1.33,1.33,0,0,1,1,.45l-.24.36a1,1,0,0,0-.81-.39c-.75,0-1.08.75-1.08,1.5v.15a1.36,1.36,0,0,1,1.08-.6,1.16,1.16,0,0,1,1.25,1.22A1.25,1.25,0,0,1,203,69.08C202,69.08,201.56,68.15,201.56,67.1Zm2.33.75A.8.8,0,0,0,203,67a1.16,1.16,0,0,0-.95.57c0,.48.29,1.06.95,1.06A.83.83,0,0,0,203.89,67.85Z" fill="#5e5e5e"/><path d="M205.05,67.1c0-.93.41-2,1.46-2s1.46,1,1.46,2-.42,2-1.46,2S205.05,68,205.05,67.1Zm2.43,0c0-.76-.24-1.54-1-1.54s-1,.78-1,1.54.25,1.55,1,1.55S207.48,67.87,207.48,67.1Z" fill="#5e5e5e"/><path d="M198,56v-.38c1.37-1.08,2.12-1.71,2.12-2.37a.71.71,0,0,0-.8-.7,1.25,1.25,0,0,0-1,.48l-.29-.3a1.61,1.61,0,0,1,1.32-.6,1.16,1.16,0,0,1,1.28,1.12c0,.78-.79,1.49-1.85,2.33h1.87V56Z" fill="#5e5e5e"/><path d="M201.44,54.1c0-.93.41-2,1.46-2s1.46,1,1.46,2-.42,2-1.46,2S201.44,55,201.44,54.1Zm2.43,0c0-.76-.25-1.54-1-1.54s-1,.78-1,1.54.24,1.55,1,1.55S203.87,54.87,203.87,54.1Z" fill="#5e5e5e"/><path d="M205.05,54.1c0-.93.41-2,1.46-2s1.46,1,1.46,2-.42,2-1.46,2S205.05,55,205.05,54.1Zm2.43,0c0-.76-.24-1.54-1-1.54s-1,.78-1,1.54.25,1.55,1,1.55S207.48,54.87,207.48,54.1Z" fill="#5e5e5e"/><path d="M198.29,43v-.38c1.37-1.08,2.12-1.71,2.12-2.37a.71.71,0,0,0-.8-.7,1.25,1.25,0,0,0-1,.48l-.3-.3a1.65,1.65,0,0,1,1.33-.6,1.16,1.16,0,0,1,1.28,1.12c0,.78-.79,1.49-1.85,2.33h1.87V43Z" fill="#5e5e5e"/><path d="M203.45,43V42h-1.81v-.39l1.64-2.46h.65v2.43h.54V42h-.54v1Zm0-3.38-1.34,2h1.34Z" fill="#5e5e5e"/><path d="M205.05,41.1c0-.93.41-2,1.46-2s1.46,1,1.46,2-.42,2-1.46,2S205.05,42,205.05,41.1Zm2.43,0c0-.76-.24-1.54-1-1.54s-1,.78-1,1.54.25,1.55,1,1.55S207.48,41.87,207.48,41.1Z" fill="#5e5e5e"/><path d="M311.91,120.1c0-.93.41-2,1.46-2s1.45,1,1.45,2-.41,2-1.45,2S311.91,121,311.91,120.1Zm2.43,0c0-.76-.25-1.54-1-1.54s-1,.78-1,1.54.25,1.55,1,1.55S314.34,120.87,314.34,120.1Z" fill="#5e5e5e"/><path d="M312.63,109v-3.19l-.61.65-.29-.29,1-1h.42V109Z" fill="#5e5e5e"/><path d="M314,107.1c0-.93.41-2,1.46-2s1.46,1,1.46,2-.42,2-1.46,2S314,108,314,107.1Zm2.43,0c0-.76-.25-1.54-1-1.54s-1,.78-1,1.54.25,1.55,1,1.55S316.39,107.87,316.39,107.1Z" fill="#5e5e5e"/><path d="M317.57,107.1c0-.93.41-2,1.46-2s1.46,1,1.46,2-.42,2-1.46,2S317.57,108,317.57,107.1Zm2.43,0c0-.76-.24-1.54-1-1.54s-1,.78-1,1.54.24,1.55,1,1.55S320,107.87,320,107.1Z" fill="#5e5e5e"/><path d="M311.92,96v-.38c1.38-1.08,2.13-1.71,2.13-2.37a.72.72,0,0,0-.8-.7,1.27,1.27,0,0,0-1,.48l-.29-.3a1.63,1.63,0,0,1,1.33-.6,1.16,1.16,0,0,1,1.28,1.12c0,.78-.79,1.49-1.86,2.33h1.87V96Z" fill="#5e5e5e"/><path d="M315.38,94.1c0-.93.41-2,1.46-2s1.46,1,1.46,2-.42,2-1.46,2S315.38,95,315.38,94.1Zm2.43,0c0-.76-.24-1.54-1-1.54s-1,.78-1,1.54.24,1.55,1,1.55S317.81,94.87,317.81,94.1Z" fill="#5e5e5e"/><path d="M319,94.1c0-.93.41-2,1.45-2s1.46,1,1.46,2-.41,2-1.46,2S319,95,319,94.1Zm2.43,0c0-.76-.25-1.54-1-1.54s-1,.78-1,1.54.25,1.55,1,1.55S321.43,94.87,321.43,94.1Z" fill="#5e5e5e"/><path d="M312,82.45l.28-.3a1.31,1.31,0,0,0,1.06.5c.56,0,.9-.28.9-.71s-.39-.68-.95-.68h-.4v-.44h.4c.48,0,.88-.19.88-.63s-.39-.65-.85-.65a1.3,1.3,0,0,0-1,.46l-.26-.3a1.64,1.64,0,0,1,1.31-.58c.73,0,1.29.37,1.29,1a.94.94,0,0,1-.82.89,1,1,0,0,1,.88.94c0,.63-.51,1.1-1.36,1.1A1.61,1.61,0,0,1,312,82.45Z" fill="#5e5e5e"/><path d="M315.38,81.1c0-.93.41-2,1.46-2s1.46,1,1.46,2-.42,2-1.46,2S315.38,82,315.38,81.1Zm2.43,0c0-.76-.24-1.54-1-1.54s-1,.78-1,1.54.24,1.55,1,1.55S317.81,81.87,317.81,81.1Z" fill="#5e5e5e"/><path d="M319,81.1c0-.93.41-2,1.45-2s1.46,1,1.46,2-.41,2-1.46,2S319,82,319,81.1Zm2.43,0c0-.76-.25-1.54-1-1.54s-1,.78-1,1.54.25,1.55,1,1.55S321.43,81.87,321.43,81.1Z" fill="#5e5e5e"/><path d="M313.61,69V68h-1.82v-.39l1.64-2.46h.65v2.43h.54V68h-.54v1Zm0-3.38-1.34,2h1.34Z" fill="#5e5e5e"/><path d="M315.2,67.1c0-.93.42-2,1.46-2s1.46,1,1.46,2-.41,2-1.46,2S315.2,68,315.2,67.1Zm2.44,0c0-.76-.25-1.54-1-1.54s-1,.78-1,1.54.25,1.55,1,1.55S317.64,67.87,317.64,67.1Z" fill="#5e5e5e"/><path d="M318.82,67.1c0-.93.41-2,1.46-2s1.46,1,1.46,2-.42,2-1.46,2S318.82,68,318.82,67.1Zm2.43,0c0-.76-.25-1.54-1-1.54s-1,.78-1,1.54.25,1.55,1,1.55S321.25,67.87,321.25,67.1Z" fill="#5e5e5e"/><path d="M311.81,55.47l.29-.32a1.26,1.26,0,0,0,1,.5.82.82,0,0,0,.88-.81.8.8,0,0,0-.87-.83,1.22,1.22,0,0,0-.88.36l-.35-.12V52.19h2.33v.43H312.4v1.32a1.32,1.32,0,0,1,.9-.34,1.16,1.16,0,0,1,1.21,1.22,1.26,1.26,0,0,1-1.36,1.26A1.57,1.57,0,0,1,311.81,55.47Z" fill="#5e5e5e"/><path d="M315.21,54.1c0-.93.41-2,1.46-2s1.46,1,1.46,2-.42,2-1.46,2S315.21,55,315.21,54.1Zm2.43,0c0-.76-.24-1.54-1-1.54s-1,.78-1,1.54.24,1.55,1,1.55S317.64,54.87,317.64,54.1Z" fill="#5e5e5e"/><path d="M318.82,54.1c0-.93.41-2,1.46-2s1.46,1,1.46,2-.42,2-1.46,2S318.82,55,318.82,54.1Zm2.43,0c0-.76-.24-1.54-1-1.54s-1,.78-1,1.54.25,1.55,1,1.55S321.25,54.87,321.25,54.1Z" fill="#5e5e5e"/><path d="M311.9,41.1c0-1,.48-2,1.56-2a1.31,1.31,0,0,1,1.05.45l-.24.36a1,1,0,0,0-.81-.39c-.75,0-1.08.75-1.08,1.5v.15a1.36,1.36,0,0,1,1.08-.6,1.16,1.16,0,0,1,1.25,1.22,1.25,1.25,0,0,1-1.33,1.25C312.31,43.08,311.9,42.15,311.9,41.1Zm2.33.75a.8.8,0,0,0-.88-.83,1.16,1.16,0,0,0-1,.57c0,.48.29,1.06,1,1.06A.83.83,0,0,0,314.23,41.85Z" fill="#5e5e5e"/><path d="M315.39,41.1c0-.93.42-2,1.46-2s1.46,1,1.46,2-.42,2-1.46,2S315.39,42,315.39,41.1Zm2.44,0c0-.76-.25-1.54-1-1.54s-1,.78-1,1.54.25,1.55,1,1.55S317.83,41.87,317.83,41.1Z" fill="#5e5e5e"/><path d="M319,41.1c0-.93.41-2,1.46-2s1.45,1,1.45,2-.41,2-1.45,2S319,42,319,41.1Zm2.43,0c0-.76-.25-1.54-1-1.54s-1,.78-1,1.54.25,1.55,1,1.55S321.44,41.87,321.44,41.1Z" fill="#5e5e5e"/><polyline points="218.88 111.61 235.31 107.1 251.73 104.05 268.16 99.77 284.59 97.75 301.01 94.75" fill="none" stroke="#9dc5ff" stroke-linecap="round" stroke-linejoin="round"/><polyline points="218.88 111.61 235.31 109.1 251.73 99.05 268.16 84.77 284.59 64.75 301.01 62.75" fill="none" stroke="#0072bc" stroke-linecap="round" stroke-linejoin="round"/></svg>