<svg xmlns="http://www.w3.org/2000/svg" width="10cm" height="10cm" viewBox="0 0 283.46 283.46"><rect x="0.5" y="0.5" width="282.47" height="282.47" fill="#fff"/><rect width="283.46" height="283.46" fill="#fff"/><path d="M283.46,283.46H0V0H283.46ZM1,282.47H282.47V1H1Z" fill="#506589"/><line x1="255.12" y1="78.39" x2="243.18" y2="75.9" fill="none" stroke="#506589" stroke-linecap="round" stroke-miterlimit="10" stroke-width="3"/><line x1="243.18" y1="75.9" x2="231.25" y2="104.98" fill="none" stroke="#506589" stroke-linecap="round" stroke-miterlimit="10" stroke-width="3"/><line x1="231.25" y1="104.98" x2="219.31" y2="149.7" fill="none" stroke="#506589" stroke-linecap="round" stroke-miterlimit="10" stroke-width="3"/><line x1="219.31" y1="149.7" x2="207.38" y2="181.96" fill="none" stroke="#506589" stroke-linecap="round" stroke-miterlimit="10" stroke-width="3"/><line x1="207.38" y1="181.96" x2="195.44" y2="194.69" fill="none" stroke="#506589" stroke-linecap="round" stroke-miterlimit="10" stroke-width="3"/><line x1="195.44" y1="194.69" x2="183.51" y2="184.28" fill="none" stroke="#506589" stroke-linecap="round" stroke-miterlimit="10" stroke-width="3"/><line x1="183.51" y1="184.28" x2="171.57" y2="183.86" fill="none" stroke="#506589" stroke-linecap="round" stroke-miterlimit="10" stroke-width="3"/><line x1="171.57" y1="183.86" x2="159.64" y2="188.54" fill="none" stroke="#506589" stroke-linecap="round" stroke-miterlimit="10" stroke-width="3"/><line x1="159.64" y1="188.54" x2="147.7" y2="180.82" fill="none" stroke="#506589" stroke-linecap="round" stroke-miterlimit="10" stroke-width="3"/><line x1="147.7" y1="180.82" x2="135.76" y2="198.04" fill="none" stroke="#506589" stroke-linecap="round" stroke-miterlimit="10" stroke-width="3"/><line x1="135.76" y1="198.04" x2="123.83" y2="207.55" fill="none" stroke="#506589" stroke-linecap="round" stroke-miterlimit="10" stroke-width="3"/><line x1="123.83" y1="207.55" x2="111.89" y2="188.37" fill="none" stroke="#506589" stroke-linecap="round" stroke-miterlimit="10" stroke-width="3"/><line x1="111.89" y1="188.37" x2="99.96" y2="189.52" fill="none" stroke="#506589" stroke-linecap="round" stroke-miterlimit="10" stroke-width="3"/><line x1="99.96" y1="189.52" x2="88.02" y2="177" fill="none" stroke="#506589" stroke-linecap="round" stroke-miterlimit="10" stroke-width="3"/><line x1="88.02" y1="177" x2="76.09" y2="164.06" fill="none" stroke="#506589" stroke-linecap="round" stroke-miterlimit="10" stroke-width="3"/><line x1="76.09" y1="164.06" x2="64.15" y2="187.16" fill="none" stroke="#506589" stroke-linecap="round" stroke-miterlimit="10" stroke-width="3"/><line x1="64.15" y1="187.16" x2="52.22" y2="187.49" fill="none" stroke="#506589" stroke-linecap="round" stroke-miterlimit="10" stroke-width="3"/><line x1="52.22" y1="187.49" x2="40.28" y2="200.72" fill="none" stroke="#506589" stroke-linecap="round" stroke-miterlimit="10" stroke-width="3"/><line x1="40.28" y1="200.72" x2="28.35" y2="207.56" fill="none" stroke="#506589" stroke-linecap="round" stroke-miterlimit="10" stroke-width="3"/></svg>