<svg xmlns="http://www.w3.org/2000/svg" width="350" height="148" viewBox="0 0 350 148"><rect width="350" height="148" fill="#f1f2f2"/><path d="M31.92,21.87V14.54h2.5a3.56,3.56,0,0,1,3.76,3.67,3.54,3.54,0,0,1-3.76,3.66Zm5.32-3.66a2.69,2.69,0,0,0-2.82-2.86H32.83v5.71h1.59A2.7,2.7,0,0,0,37.24,18.21Z" fill="#0072bc"/><path d="M39.26,19.21a2.63,2.63,0,1,1,5.26,0,2.63,2.63,0,1,1-5.26,0Zm4.39,0a1.78,1.78,0,1,0-3.52,0,1.78,1.78,0,1,0,3.52,0Z" fill="#0072bc"/><circle cx="17.55" cy="17.55" r="7.55" fill="#9dc5ff"/><circle cx="17.55" cy="17.55" r="4.8" fill="#0072bc"/><polyline points="14.8 17.55 16.63 19.38 20.29 15.72" fill="none" stroke="#fff" stroke-linecap="round" stroke-linejoin="round" stroke-width="0.75"/><path d="M201.92,21.87V14.54h2.5a3.56,3.56,0,0,1,3.76,3.67,3.54,3.54,0,0,1-3.76,3.66Zm5.32-3.66a2.69,2.69,0,0,0-2.82-2.86h-1.59v5.71h1.59A2.7,2.7,0,0,0,207.24,18.21Z" fill="#ef4a60"/><path d="M209.26,19.21a2.63,2.63,0,1,1,5.26,0,2.63,2.63,0,1,1-5.26,0Zm4.39,0a1.78,1.78,0,1,0-3.52,0,1.78,1.78,0,1,0,3.52,0Z" fill="#ef4a60"/><path d="M219.44,21.87V18.4c0-.95-.48-1.23-1.19-1.23a2.06,2.06,0,0,0-1.57.82v3.88h-.83V16.56h.83v.77a2.58,2.58,0,0,1,1.9-.9,1.5,1.5,0,0,1,1.68,1.71v3.73Z" fill="#ef4a60"/><path d="M222.07,16.93l-.42-.35a1.65,1.65,0,0,0,.71-1l-.15,0a.53.53,0,0,1-.53-.56.6.6,0,0,1,.58-.59c.38,0,.7.3.7.84A2.14,2.14,0,0,1,222.07,16.93Z" fill="#ef4a60"/><path d="M224.54,20.76V17.29h-.88v-.73h.88V15.11h.83v1.45h1.08v.73h-1.08v3.29c0,.4.18.68.53.68a.75.75,0,0,0,.56-.23l.24.63a1.32,1.32,0,0,1-1,.34A1.08,1.08,0,0,1,224.54,20.76Z" fill="#ef4a60"/><circle cx="187.55" cy="17.55" r="7.55" fill="#ffbcc1"/><circle cx="187.55" cy="17.55" r="4.8" fill="#ef4a60"/><line x1="189.55" y1="15.55" x2="185.55" y2="19.55" fill="none" stroke="#fff" stroke-linecap="round" stroke-linejoin="round" stroke-width="0.75"/><line x1="189.55" y1="19.55" x2="185.55" y2="15.55" fill="none" stroke="#fff" stroke-linecap="round" stroke-linejoin="round" stroke-width="0.75"/><line x1="146.11" y1="119.44" x2="47.08" y2="119.44" fill="none" stroke="#000" stroke-miterlimit="10" stroke-width="0.5"/><line x1="146.11" y1="106.21" x2="47.08" y2="106.21" fill="none" stroke="#d0d2d3" stroke-linecap="round" stroke-linejoin="round" stroke-width="0.25"/><line x1="146.11" y1="92.98" x2="47.08" y2="92.98" fill="none" stroke="#d0d2d3" stroke-linecap="round" stroke-linejoin="round" stroke-width="0.25"/><line x1="146.11" y1="79.76" x2="47.08" y2="79.76" fill="none" stroke="#d0d2d3" stroke-linecap="round" stroke-linejoin="round" stroke-width="0.25"/><line x1="146.11" y1="66.53" x2="47.08" y2="66.53" fill="none" stroke="#d0d2d3" stroke-linecap="round" stroke-linejoin="round" stroke-width="0.25"/><line x1="146.11" y1="53.31" x2="47.08" y2="53.31" fill="none" stroke="#d0d2d3" stroke-linecap="round" stroke-linejoin="round" stroke-width="0.25"/><line x1="146.11" y1="40.08" x2="47.08" y2="40.08" fill="none" stroke="#d0d2d3" stroke-linecap="round" stroke-linejoin="round" stroke-width="0.25"/><rect x="50.08" y="124.24" width="10.03" height="3.15" fill="#bbbdbf"/><rect x="82.93" y="124.24" width="10.03" height="3.15" fill="#bbbdbf"/><rect x="66.5" y="124.24" width="10.03" height="3.15" fill="#bbbdbf"/><rect x="115.78" y="124.24" width="10.03" height="3.15" fill="#bbbdbf"/><rect x="99.36" y="124.24" width="10.03" height="3.15" fill="#bbbdbf"/><rect x="132.21" y="124.24" width="10.03" height="3.15" fill="#bbbdbf"/><path d="M41.27,119.1c0-.93.41-2,1.45-2s1.46,1,1.46,2-.41,2-1.46,2S41.27,120,41.27,119.1Zm2.43,0c0-.76-.25-1.54-1-1.54s-1,.78-1,1.54.25,1.55,1,1.55S43.7,119.87,43.7,119.1Z" fill="#5e5e5e"/><path d="M39.67,108v-1H37.85v-.39l1.64-2.46h.65v2.43h.54V107h-.54v1Zm0-3.38-1.34,2h1.34Z" fill="#5e5e5e"/><path d="M41.27,106.1c0-.93.41-2,1.45-2s1.46,1,1.46,2-.41,2-1.46,2S41.27,107,41.27,106.1Zm2.43,0c0-.76-.25-1.54-1-1.54s-1,.78-1,1.54.25,1.55,1,1.55S43.7,106.87,43.7,106.1Z" fill="#5e5e5e"/><path d="M37.83,94a1.12,1.12,0,0,1,.91-1,1,1,0,0,1-.85-.91c0-.69.67-1,1.31-1s1.31.3,1.31,1a1,1,0,0,1-.85.91,1.12,1.12,0,0,1,.9,1c0,.65-.61,1-1.36,1S37.83,94.7,37.83,94ZM40.08,94c0-.5-.65-.71-.88-.74s-.89.24-.89.74.41.66.89.66S40.08,94.4,40.08,94Zm0-1.8c0-.4-.37-.63-.83-.63s-.83.23-.83.63.6.62.83.66S40,92.65,40,92.19Z" fill="#5e5e5e"/><path d="M41.27,93.1c0-.93.41-2,1.45-2s1.46,1,1.46,2-.41,2-1.46,2S41.27,94,41.27,93.1Zm2.43,0c0-.76-.25-1.54-1-1.54s-1,.78-1,1.54.25,1.55,1,1.55S43.7,93.87,43.7,93.1Z" fill="#5e5e5e"/><path d="M36.46,82V78.82l-.61.65-.28-.29,1-1h.42V82Z" fill="#5e5e5e"/><path d="M37.81,82v-.38c1.37-1.08,2.12-1.71,2.12-2.37a.71.71,0,0,0-.8-.7,1.28,1.28,0,0,0-1,.48l-.29-.3a1.63,1.63,0,0,1,1.33-.6,1.16,1.16,0,0,1,1.28,1.12c0,.78-.79,1.49-1.85,2.33h1.87V82Z" fill="#5e5e5e"/><path d="M41.27,80.1c0-.93.41-2,1.45-2s1.46,1,1.46,2-.41,2-1.46,2S41.27,81,41.27,80.1Zm2.43,0c0-.76-.25-1.54-1-1.54s-1,.78-1,1.54.25,1.55,1,1.55S43.7,80.87,43.7,80.1Z" fill="#5e5e5e"/><path d="M36.45,68V64.82l-.62.65-.28-.29,1-1h.42V68Z" fill="#5e5e5e"/><path d="M37.77,66.1c0-1,.48-2,1.56-2a1.3,1.3,0,0,1,1.05.45l-.24.36a1,1,0,0,0-.81-.39c-.74,0-1.08.75-1.08,1.5v.15a1.36,1.36,0,0,1,1.08-.6,1.16,1.16,0,0,1,1.25,1.22,1.25,1.25,0,0,1-1.33,1.25C38.18,68.08,37.77,67.15,37.77,66.1Zm2.33.75a.79.79,0,0,0-.87-.83,1.18,1.18,0,0,0-1,.57c0,.48.29,1.06,1,1.06A.82.82,0,0,0,40.1,66.85Z" fill="#5e5e5e"/><path d="M41.27,66.1c0-.93.41-2,1.45-2s1.46,1,1.46,2-.41,2-1.46,2S41.27,67,41.27,66.1Zm2.43,0c0-.76-.25-1.54-1-1.54s-1,.78-1,1.54.25,1.55,1,1.55S43.7,66.87,43.7,66.1Z" fill="#5e5e5e"/><path d="M34.19,55v-.38c1.38-1.08,2.13-1.71,2.13-2.37a.72.72,0,0,0-.8-.7,1.27,1.27,0,0,0-1,.48l-.29-.3a1.63,1.63,0,0,1,1.33-.6,1.16,1.16,0,0,1,1.28,1.12c0,.78-.79,1.49-1.86,2.33h1.87V55Z" fill="#5e5e5e"/><path d="M37.65,53.1c0-.93.41-2,1.46-2s1.46,1,1.46,2-.42,2-1.46,2S37.65,54,37.65,53.1Zm2.43,0c0-.76-.24-1.54-1-1.54s-1,.78-1,1.54.25,1.55,1,1.55S40.08,53.87,40.08,53.1Z" fill="#5e5e5e"/><path d="M41.27,53.1c0-.93.41-2,1.45-2s1.46,1,1.46,2-.41,2-1.46,2S41.27,54,41.27,53.1Zm2.43,0c0-.76-.25-1.54-1-1.54s-1,.78-1,1.54.25,1.55,1,1.55S43.7,53.87,43.7,53.1Z" fill="#5e5e5e"/><path d="M34.5,42v-.38c1.38-1.08,2.13-1.71,2.13-2.37a.72.72,0,0,0-.81-.7,1.26,1.26,0,0,0-1,.48l-.29-.3a1.63,1.63,0,0,1,1.32-.6,1.17,1.17,0,0,1,1.29,1.12c0,.78-.79,1.49-1.86,2.33h1.87V42Z" fill="#5e5e5e"/><path d="M39.67,42V41H37.85v-.39l1.64-2.46h.65v2.43h.54V41h-.54v1Zm0-3.38-1.34,2h1.34Z" fill="#5e5e5e"/><path d="M41.27,40.1c0-.93.41-2,1.45-2s1.46,1,1.46,2-.41,2-1.46,2S41.27,41,41.27,40.1Zm2.43,0c0-.76-.25-1.54-1-1.54s-1,.78-1,1.54.25,1.55,1,1.55S43.7,40.87,43.7,40.1Z" fill="#5e5e5e"/><polyline points="55.09 100.61 71.52 82.1 87.94 76.05 104.37 71.77 120.8 58.75 137.23 55.75" fill="none" stroke="#0072bc" stroke-linecap="round" stroke-linejoin="round"/><rect x="220.97" y="124.24" width="10.03" height="3.15" fill="#bbbdbf"/><rect x="253.82" y="124.24" width="10.03" height="3.15" fill="#bbbdbf"/><rect x="237.4" y="124.24" width="10.03" height="3.15" fill="#bbbdbf"/><rect x="286.68" y="124.24" width="10.03" height="3.15" fill="#bbbdbf"/><rect x="270.25" y="124.24" width="10.03" height="3.15" fill="#bbbdbf"/><rect x="303.11" y="124.24" width="10.03" height="3.15" fill="#bbbdbf"/><line x1="316.01" y1="119.44" x2="216.97" y2="119.44" fill="none" stroke="#000" stroke-miterlimit="10" stroke-width="0.5"/><line x1="316.01" y1="92.98" x2="216.97" y2="92.98" fill="none" stroke="#d0d2d3" stroke-linecap="round" stroke-linejoin="round" stroke-width="0.25"/><line x1="316.01" y1="66.53" x2="216.97" y2="66.53" fill="none" stroke="#d0d2d3" stroke-linecap="round" stroke-linejoin="round" stroke-width="0.25"/><line x1="316.01" y1="40.08" x2="216.97" y2="40.08" fill="none" stroke="#d0d2d3" stroke-linecap="round" stroke-linejoin="round" stroke-width="0.25"/><path d="M211.16,119.1c0-.93.41-2,1.46-2s1.46,1,1.46,2-.42,2-1.46,2S211.16,120,211.16,119.1Zm2.43,0c0-.76-.24-1.54-1-1.54s-1,.78-1,1.54.24,1.55,1,1.55S213.59,119.87,213.59,119.1Z" fill="#5e5e5e"/><path d="M204.32,95v-.38c1.37-1.08,2.12-1.71,2.12-2.37a.72.72,0,0,0-.8-.7,1.28,1.28,0,0,0-1,.48l-.29-.3a1.63,1.63,0,0,1,1.33-.6,1.16,1.16,0,0,1,1.28,1.12c0,.78-.79,1.49-1.85,2.33h1.87V95Z" fill="#5e5e5e"/><path d="M207.66,93.1c0-.93.41-2,1.46-2s1.46,1,1.46,2-.42,2-1.46,2S207.66,94,207.66,93.1Zm2.43,0c0-.76-.24-1.54-1-1.54s-1,.78-1,1.54.24,1.55,1,1.55S210.09,93.87,210.09,93.1Z" fill="#5e5e5e"/><path d="M211.16,93.1c0-.93.41-2,1.46-2s1.46,1,1.46,2-.42,2-1.46,2S211.16,94,211.16,93.1Zm2.43,0c0-.76-.24-1.54-1-1.54s-1,.78-1,1.54.24,1.55,1,1.55S213.59,93.87,213.59,93.1Z" fill="#5e5e5e"/><path d="M206.18,68V67h-1.82v-.39L206,64.19h.65v2.43h.54V67h-.54v1Zm0-3.38-1.34,2h1.34Z" fill="#5e5e5e"/><path d="M207.66,66.1c0-.93.41-2,1.46-2s1.46,1,1.46,2-.42,2-1.46,2S207.66,67,207.66,66.1Zm2.43,0c0-.76-.24-1.54-1-1.54s-1,.78-1,1.54.24,1.55,1,1.55S210.09,66.87,210.09,66.1Z" fill="#5e5e5e"/><path d="M211.16,66.1c0-.93.41-2,1.46-2s1.46,1,1.46,2-.42,2-1.46,2S211.16,67,211.16,66.1Zm2.43,0c0-.76-.24-1.54-1-1.54s-1,.78-1,1.54.24,1.55,1,1.55S213.59,66.87,213.59,66.1Z" fill="#5e5e5e"/><path d="M204.28,40.1c0-1,.48-2,1.56-2a1.3,1.3,0,0,1,1,.45l-.24.36a1,1,0,0,0-.81-.39c-.74,0-1.08.75-1.08,1.5v.15a1.36,1.36,0,0,1,1.08-.6,1.16,1.16,0,0,1,1.25,1.22,1.25,1.25,0,0,1-1.33,1.25C204.69,42.08,204.28,41.15,204.28,40.1Zm2.33.75a.79.79,0,0,0-.87-.83,1.18,1.18,0,0,0-1,.57c0,.48.29,1.06,1,1.06A.82.82,0,0,0,206.61,40.85Z" fill="#5e5e5e"/><path d="M207.66,40.1c0-.93.41-2,1.46-2s1.46,1,1.46,2-.42,2-1.46,2S207.66,41,207.66,40.1Zm2.43,0c0-.76-.24-1.54-1-1.54s-1,.78-1,1.54.24,1.55,1,1.55S210.09,40.87,210.09,40.1Z" fill="#5e5e5e"/><path d="M211.16,40.1c0-.93.41-2,1.46-2s1.46,1,1.46,2-.42,2-1.46,2S211.16,41,211.16,40.1Zm2.43,0c0-.76-.24-1.54-1-1.54s-1,.78-1,1.54.24,1.55,1,1.55S213.59,40.87,213.59,40.1Z" fill="#5e5e5e"/><polyline points="224.99 116 241.41 106.92 257.84 103.96 274.27 101.86 290.69 95.47 307.12 94" fill="none" stroke="#0072bc" stroke-linecap="round" stroke-linejoin="round"/></svg>